# Made in Blockbench 5.1.6
mtllib Rush_Head.mtl

o sphere
v -0.17321742282688496 1.373722449567683 0.10135334064887833
v -0.09874347328558786 1.408550955887983 0.19010422563734514
v 3.521596276381242e-16 1.414628990713292 0.20559242845534884
v 0.09874347328558852 1.4085509558879827 0.19010422563734522
v 0.17321742282688563 1.3737224495676827 0.10135334064887838
v -0.17321742282688493 1.4080249663090216 0.07383805241946642
v -0.0987434732855878 1.4798473980761602 0.132914772999453
v 4.1966394755697516e-16 1.4923813619936606 0.1432244418020151
v 0.09874347328558858 1.47984739807616 0.13291477299945303
v 0.17321742282688565 1.4080249663090214 0.07383805241946645
v -0.1732174228268849 1.4244828292871246 0.03164484813681864
v -0.09874347328558776 1.514054423910657 0.04521784473743864
v 4.603059819492006e-16 1.5296858514106935 0.047586512094680115
v 0.09874347328558862 1.514054423910657 0.045217844737438624
v 0.17321742282688568 1.424482829287124 0.03164484813681868
v -0.1732174228268849 1.4186861674078663 -0.013920637185448032
v -0.09874347328558776 1.5020062884436496 -0.0494882380422012
v 4.631957305206455e-16 1.5165467511510415 -0.05569525463579108
v 0.09874347328558862 1.5020062884436496 -0.049488238042201226
v 0.17321742282688568 1.418686167407866 -0.013920637185447993
v -0.17321742282688493 1.3921881915405907 -0.050649168552500054
v -0.0987434732855878 1.4469312798438234 -0.12582705694034688
v 4.2755888747526255e-16 1.45648467251855 -0.1389465924011091
v 0.09874347328558858 1.4469312798438232 -0.12582705694034688
v 0.17321742282688565 1.3921881915405903 -0.05064916855250002
v -0.17321742282688496 1.3520890129199938 -0.06869936564535478
v -0.09874347328558786 1.3635867021886388 -0.16334368708209457
v 3.420122097939249e-16 1.338874305469748 -0.17646129965028834
v 0.09874347328558852 1.3635867021886385 -0.1633436870820946
v 0.17321742282688563 1.3520890129199934 -0.06869936564535475
v -0.173217422826885 1.3091331740746155 -0.06323469272975918
v -0.09874347328558793 1.2743046677543153 -0.15198557771822593
v 3.0759754502418037e-16 1.294945528437788 -0.17087285336418775
v 0.09874347328558845 1.2743046677543153 -0.15198557771822593
v 0.1732174228268856 1.309133174074615 -0.06323469272975914
v -0.17321742282688501 1.2748306573332766 -0.03571940450034726
v -0.09874347328558801 1.173404871837664 -0.11407074642494017
v 1.988634058780381e-16 1.1608709079201636 -0.1243804152275022
v 0.09874347328558837 1.1734048718376637 -0.11407074642494014
v 0.17321742282688557 1.2748306573332764 -0.03571940450034722
v -0.17321742282688501 1.258372794355174 0.0064737997823005045
v -0.09874347328558802 1.1533618168609632 -0.08577731185670337
v 1.7655304015438947e-16 1.1377303893609265 -0.08814597921394482
v 0.09874347328558836 1.1533618168609627 -0.08577731185670334
v 0.17321742282688557 1.2583727943551737 0.006473799782300543
v -0.17321742282688501 1.264169456234432 0.05203928510456713
v -0.09874347328558802 1.1858971370831093 0.1272858507633081
v 1.7451914728672527e-16 1.1713566743757173 0.13349286735689792
v 0.09874347328558836 1.185897137083109 0.12728585076330812
v 0.17321742282688557 1.2641694562344317 0.052039285104567165
v -0.17321742282688501 1.2906674321017078 0.08876781647161924
v -0.09874347328558798 1.2359243437984748 0.16394570485946608
v 2.1126617885310996e-16 1.2263709511237477 0.1770652403202283
v 0.0987434732855884 1.2359243437984746 0.1639457048594661
v 0.17321742282688557 1.2906674321017073 0.08876781647161927
v -0.173217422826885 1.3307666107223046 0.10681801356447401
v -0.09874347328558793 1.3192689214536597 0.2014623350012138
v 2.7588075020051614e-16 1.3172624226637681 0.21797902039736564
v 0.09874347328558845 1.3192689214536595 0.20146233500121388
v 0.1732174228268856 1.3307666107223044 0.10681801356447404
v -0.2011658342467072 1.373722449567683 0.10135334064887833
v -0.20116583424670717 1.4080249663090216 0.07383805241946642
v -0.20116583424670714 1.4244828292871246 0.031644848136818636
v -0.20116583424670714 1.4186861674078663 -0.013920637185448035
v -0.20116583424670717 1.3921881915405907 -0.05064916855250006
v -0.2011658342467072 1.3520890129199938 -0.06869936564535478
v -0.20116583424670723 1.3091331740746155 -0.06323469272975918
v -0.20116583424670725 1.2748306573332766 -0.03571940450034726
v -0.20116583424670725 1.258372794355174 0.006473799782300501
v -0.20116583424670725 1.264169456234432 0.05203928510456712
v -0.20116583424670725 1.2906674321017078 0.08876781647161922
v -0.20116583424670723 1.3307666107223046 0.10681801356447398
v 0.20116583424670786 1.3737224495676827 0.10135334064887838
v 0.2011658342467079 1.4080249663090214 0.07383805241946645
v 0.20116583424670792 1.424482829287124 0.031644848136818685
v 0.20116583424670792 1.418686167407866 -0.01392063718544799
v 0.2011658342467079 1.3921881915405903 -0.05064916855250001
v 0.20116583424670786 1.3520890129199934 -0.06869936564535475
v 0.20116583424670784 1.309133174074615 -0.06323469272975914
v 0.2011658342467078 1.2748306573332764 -0.03571940450034722
v 0.2011658342467078 1.2583727943551735 0.006473799782300546
v 0.2011658342467078 1.2641694562344317 0.05203928510456717
v 0.2011658342467078 1.2906674321017073 0.08876781647161927
v 0.20116583424670784 1.3307666107223044 0.10681801356447404
v 0.18719162853679672 1.3520890129199934 -0.06869936564535475
v 0.18719162853679674 1.3921881915405903 -0.05064916855250001
v 0.18719162853679677 1.418686167407866 -0.013920637185447993
v 0.18719162853679677 1.424482829287124 0.031644848136818685
v 0.18719162853679674 1.4080249663090214 0.07383805241946645
v 0.18719162853679672 1.3737224495676827 0.10135334064887838
v 0.1871916285367967 1.3307666107223044 0.10681801356447404
v 0.18719162853679666 1.2906674321017073 0.08876781647161927
v 0.18719162853679666 1.2641694562344317 0.05203928510456717
v 0.18719162853679666 1.2583727943551737 0.006473799782300544
v 0.18719162853679666 1.2748306573332764 -0.03571940450034722
v 0.1871916285367967 1.309133174074615 -0.06323469272975914
v -0.18719162853679602 1.3921881915405907 -0.050649168552500054
v -0.18719162853679605 1.3520890129199938 -0.06869936564535478
v -0.18719162853679608 1.3091331740746155 -0.06323469272975918
v -0.1871916285367961 1.2748306573332766 -0.03571940450034726
v -0.1871916285367961 1.258372794355174 0.006473799782300503
v -0.1871916285367961 1.264169456234432 0.05203928510456713
v -0.1871916285367961 1.2906674321017078 0.08876781647161924
v -0.18719162853679608 1.3307666107223046 0.10681801356447401
v -0.18719162853679605 1.373722449567683 0.10135334064887833
v -0.18719162853679602 1.4080249663090216 0.07383805241946642
v -0.187191628536796 1.4244828292871246 0.03164484813681864
v -0.187191628536796 1.4186861674078663 -0.013920637185448035
v -0.13893871613756628 1.3596147244041237 -0.13064797463121042
v -0.13893871613756634 1.286336481290043 -0.12132580467221238
v -0.1389387161375664 1.2278199157017284 -0.0743875528669917
v -0.13893871613756642 1.1997444941324116 -0.0024102858808859803
v -0.13893871613756642 1.209633003118754 0.07531974572377831
v -0.1389387161375664 1.2548358246635176 0.13797484275088595
v -0.13893871613756634 1.3232408992381748 0.16876662255032965
v -0.13893871613756628 1.3965191423522552 0.15944445259133153
v -0.13893871613756623 1.4550357079405698 0.11250620078611087
v -0.1389387161375662 1.4831111295098867 0.04052893380000514
v -0.1389387161375662 1.4732226205235441 -0.037201097804659224
v -0.13893871613756623 1.4280197989787806 -0.09985619483176678
v 0.13893871613756695 1.3596147244041235 -0.13064797463121045
v 0.1389387161375669 1.2863364812900429 -0.12132580467221232
v 0.13893871613756684 1.2278199157017282 -0.07438755286699167
v 0.1389387161375668 1.1997444941324114 -0.002410285880885956
v 0.1389387161375668 1.2096330031187539 0.07531974572377834
v 0.13893871613756684 1.2548358246635174 0.137974842750886
v 0.1389387161375669 1.3232408992381746 0.16876662255032968
v 0.13893871613756695 1.396519142352255 0.15944445259133158
v 0.138938716137567 1.4550357079405696 0.1125062007861109
v 0.13893871613756703 1.4831111295098864 0.040528933800005155
v 0.13893871613756703 1.473222620523544 -0.037201097804659224
v 0.138938716137567 1.4280197989787804 -0.09985619483176675
v -0.16954280924715248 1.3437110951063014 -0.0748915147729311
v -0.1423383171148473 1.3468728763207374 -0.12902700681897533
v -0.14233831711484732 1.2990783293734294 -0.12294677248444746
v -0.1695428092471525 1.3156938451135551 -0.07132727039265163
v -0.10214307426286894 1.2898293046859999 -0.15396056098581867
v -0.1021430742628689 1.3480620652569542 -0.16136870381450183
v 3.332975557441654e-16 1.327750440186623 -0.1750461652479958
v 3.1631219907393987e-16 1.3060693937209131 -0.1722879877664803
v 0.1021430742628695 1.348062065256954 -0.16136870381450186
v 0.10214307426286946 1.2898293046859999 -0.15396056098581867
v 0.1423383171148479 1.3468728763207372 -0.12902700681897536
v 0.14233831711484787 1.2990783293734292 -0.12294677248444744
v 0.16954280924715312 1.315693845113555 -0.0713272703926516
v 0.16954280924715315 1.3437110951063012 -0.07489151477293107
v -0.15375030487314473 1.3437995147372426 -0.07419647968553492
v -0.12937794496162464 1.3468239219195381 -0.12941181985374736
v -0.12937794496162466 1.2990293749722301 -0.12333158551921947
v -0.15375030487314476 1.3157822647444966 -0.07063223530525542
v -0.09588939188392331 1.2912921933218873 -0.14246131675610899
v -0.09588939188392327 1.3495249538928416 -0.14986945958479211
v 3.3644700007837547e-16 1.329890172648191 -0.15822649384020915
v 3.1946164340814995e-16 1.3082091261824815 -0.1554683163586936
v 0.09588939188392388 1.3495249538928413 -0.14986945958479217
v 0.09588939188392384 1.2912921933218873 -0.14246131675610896
v 0.12937794496162527 1.346823921919538 -0.1294118198537474
v 0.12937794496162525 1.29902937497223 -0.12333158551921944
v 0.15375030487314537 1.3157822647444963 -0.07063223530525539
v 0.1537503048731454 1.3437995147372424 -0.07419647968553486
v 0.1793885401499933 1.3430411028751623 -0.08015808401741611
v 0.15066078354354903 1.3459673213540102 -0.13614525045718717
v 0.15066078354354906 1.3587091694373967 -0.13776621826942226
v 0.18306315372972579 1.3514190206888548 -0.0739659348898398
v 0.17938854014999328 1.3150238528824163 -0.07659383963713665
v 0.18306315372972576 1.3084631818434764 -0.06850126197424419
v 0.15066078354354903 1.2981727744067024 -0.13006501612265922
v 0.15066078354354903 1.2854309263233161 -0.12844404831042414
v 0.10638690938821997 1.288545995232434 -0.164048197506349
v 0.10638690938821996 1.2730213583007495 -0.16207321423875626
v 3.1569993474712555e-16 1.3046438925160968 -0.18349334277560245
v 3.0698528069736605e-16 1.2935200272329717 -0.1820782083733099
v -0.10638690938821944 1.2885459952324343 -0.164048197506349
v -0.10638690938821946 1.2730213583007497 -0.16207321423875626
v 0.10638690938822001 1.3467787558033883 -0.17145634033503218
v 0.10638690938822003 1.362303392735073 -0.17343132360262492
v 3.314509154245508e-16 1.3263249389818066 -0.18625152025711794
v 3.401655694743103e-16 1.3374488042649317 -0.1876666546594105
v -0.1063869093882194 1.3467787558033886 -0.17145634033503215
v -0.10638690938821939 1.3623033927350732 -0.1734313236026249
v -0.15066078354354845 1.3459673213540106 -0.13614525045718712
v -0.15066078354354842 1.358709169437397 -0.1377662182694222
v -0.17938854014999264 1.3430411028751628 -0.08015808401741617
v -0.18306315372972512 1.3514190206888552 -0.07396593488983985
v -0.17938854014999267 1.3150238528824165 -0.07659383963713667
v -0.18306315372972515 1.3084631818434769 -0.06850126197424422
v -0.15066078354354848 1.2981727744067026 -0.13006501612265922
v -0.15066078354354848 1.2854309263233163 -0.12844404831042414
v -0.09874347328558786 1.360346844633071 -0.1550376286423914
v -0.13893871613756625 1.4230235124020747 -0.09299486701378329
v -0.13893871613756628 1.356374866848556 -0.12234191619150722
v -0.0987434732855878 1.4419349932671175 -0.11896572912236342
v 0.09874347328558858 1.4419349932671173 -0.11896572912236339
v 0.13893871613756698 1.4230235124020745 -0.09299486701378326
v 0.13893871613756695 1.3563748668485558 -0.12234191619150725
v 0.09874347328558852 1.3603468446330709 -0.15503762864239143
v 0.09874347328558862 1.494401836170247 -0.046242057889888964
v 0.138938716137567 1.4656181682501415 -0.03395491765234696
v 0.09874347328558862 1.5058794127860968 0.0439790658737816
v 0.138938716137567 1.4749361183853265 0.03929015493634815
v 0.09874347328558858 1.4732923157293838 0.12752296491594442
v 0.13893871613756698 1.4484806255937932 0.10711439270260226
v 0.09874347328558852 1.4053722313401287 0.18200411895570467
v 0.13893871613756695 1.3933404178044009 0.15134434590969106
v 0.09874347328558845 1.320318291380286 0.19282434676539298
v 0.1389387161375669 1.3242902691648009 0.16012863431450883
v 0.0987434732855884 1.2409206303751805 0.1570843770414826
v 0.13893871613756684 1.2598321112402233 0.1311135149329025
v 0.09874347328558837 1.1884537874720509 0.08436070580900806
v 0.1389387161375668 1.2172374553921566 0.0720735655714661
v 0.09874347328558837 1.176976210856201 -0.005860417954662401
v 0.1389387161375668 1.2079195052569713 -0.0011715070172289444
v 0.0987434732855884 1.209563307912914 -0.08940431699682522
v 0.13893871613756684 1.2343749980485044 -0.06899574478348305
v 0.09874347328558845 1.2795209991477086 -0.14475528238688345
v 0.1389387161375669 1.2915528126834364 -0.11409550934086984
v -0.13893871613756623 1.4656181682501415 -0.033954917652346976
v -0.09874347328558776 1.494401836170247 -0.046242057889888964
v -0.13893871613756623 1.4749361183853265 0.03929015493634814
v -0.09874347328558776 1.5058794127860968 0.04397906587378159
v -0.13893871613756625 1.4484806255937936 0.10711439270260223
v -0.0987434732855878 1.473292315729384 0.1275229649159444
v -0.13893871613756628 1.393340417804401 0.15134434590969104
v -0.09874347328558786 1.4053722313401287 0.18200411895570462
v -0.13893871613756634 1.324290269164801 0.1601286343145088
v -0.09874347328558793 1.3203182913802862 0.1928243467653929
v -0.1389387161375664 1.2598321112402235 0.13111351493290246
v -0.09874347328558798 1.2409206303751807 0.15708437704148256
v -0.13893871613756642 1.2172374553921568 0.07207356557146608
v -0.09874347328558801 1.188453787472051 0.08436070580900804
v -0.13893871613756642 1.2079195052569718 -0.0011715070172289756
v -0.09874347328558801 1.1769762108562014 -0.005860417954662446
v -0.1389387161375664 1.2343749980485048 -0.06899574478348311
v -0.09874347328558798 1.2095633079129142 -0.08940431699682522
v -0.13893871613756634 1.2915528126834366 -0.1140955093408699
v -0.09874347328558793 1.2795209991477088 -0.14475528238688348
v -0.17321742282688482 1.525770494078201 0.11668216500883433
v -0.1871916285367959 1.5610980628885243 0.1489937888831101
v -0.1871916285367959 1.525770494078201 0.11668216500883433
v -0.17321742282688482 1.5610980628885243 0.1489937888831101
v -0.18719162853679597 1.476580645972946 0.18423386925664964
v -0.17321742282688488 1.476580645972946 0.18423386925664964
v 0.17321742282688576 1.561098062888524 0.14899378888311016
v 0.18719162853679686 1.5257704940782006 0.11668216500883435
v 0.18719162853679686 1.561098062888524 0.14899378888311016
v 0.17321742282688576 1.5257704940782006 0.11668216500883435
v 0.1732174228268857 1.4765806459729458 0.18423386925664967
v 0.1871916285367968 1.4765806459729458 0.18423386925664967
v 0.17321742282688557 1.266923914236146 -0.09622913156203544
v 0.1871916285367966 1.1824064973205681 -0.060989051188496034
v 0.18719162853679666 1.266923914236146 -0.09622913156203544
v 0.17321742282688551 1.1824064973205681 -0.060989051188496034
v 0.18719162853679663 1.217734066130891 -0.02867742731422022
v 0.17321742282688554 1.217734066130891 -0.02867742731422022
v -0.17321742282688507 1.1824064973205684 -0.060989051188496075
v -0.1871916285367961 1.2669239142361461 -0.0962291315620355
v -0.18719162853679616 1.1824064973205684 -0.060989051188496075
v -0.17321742282688501 1.2669239142361461 -0.0962291315620355
v -0.17321742282688504 1.2177340661308913 -0.028677427314220263
v -0.18719162853679613 1.2177340661308913 -0.028677427314220263
v -0.20116583424670717 1.3794980966107302 -0.03322204542448516
v -0.2011658342467072 1.3494237126452826 -0.046759693244126224
v -0.20116583424670717 1.399371578511187 -0.005675646899196136
v -0.20116583424670717 1.4037190749206307 0.028498467092503865
v -0.20116583424670717 1.3913756776870536 0.06014337030448968
v -0.2011658342467072 1.3656487901310497 0.08077983647654863
v -0.20116583424670723 1.3334319109970159 0.08487834116324539
v -0.20116583424670723 1.303357527031568 0.0713406933436043
v -0.20116583424670725 1.2834840451311114 0.04379429481831523
v -0.20116583424670725 1.2791365487216677 0.009620180826615263
v -0.20116583424670723 1.2914799459552448 -0.022024722385370562
v -0.20116583424670723 1.3172068335112488 -0.0426611885574295
v 0.2011658342467079 1.3913756776870532 0.060143370304489734
v 0.20116583424670786 1.3656487901310492 0.08077983647654866
v 0.2011658342467079 1.4037190749206303 0.028498467092503914
v 0.2011658342467079 1.3993715785111867 -0.005675646899196091
v 0.2011658342467079 1.37949809661073 -0.03322204542448511
v 0.20116583424670786 1.3494237126452824 -0.04675969324412618
v 0.20116583424670784 1.3172068335112486 -0.04266118855742946
v 0.20116583424670784 1.2914799459552444 -0.022024722385370517
v 0.2011658342467078 1.2791365487216675 0.009620180826615308
v 0.2011658342467078 1.2834840451311111 0.04379429481831528
v 0.20116583424670784 1.3033575270315678 0.07134069334360432
v 0.20116583424670784 1.3334319109970154 0.08487834116324541
v -0.17892929320186587 1.3794980966107302 -0.033222045424485154
v -0.1789292932018659 1.3494237126452826 -0.046759693244126224
v -0.1789292932018659 1.3414278118211491 0.01905932395955957
v -0.17892929320186587 1.399371578511187 -0.005675646899196134
v -0.17892929320186587 1.4037190749206307 0.028498467092503872
v -0.17892929320186587 1.3913756776870536 0.06014337030448968
v -0.1789292932018659 1.3656487901310495 0.08077983647654863
v -0.17892929320186593 1.3334319109970159 0.08487834116324539
v -0.17892929320186593 1.303357527031568 0.0713406933436043
v -0.17892929320186596 1.2834840451311114 0.04379429481831524
v -0.17892929320186596 1.2791365487216677 0.009620180826615267
v -0.17892929320186593 1.2914799459552448 -0.02202472238537056
v -0.17892929320186593 1.3172068335112488 -0.0426611885574295
v 0.1789292932018666 1.3913756776870534 0.06014337030448972
v 0.17892929320186657 1.3656487901310492 0.08077983647654866
v 0.17892929320186657 1.341427811821149 0.01905932395955961
v 0.1789292932018666 1.4037190749206303 0.028498467092503914
v 0.1789292932018666 1.3993715785111867 -0.005675646899196094
v 0.1789292932018666 1.37949809661073 -0.03322204542448512
v 0.17892929320186657 1.3494237126452824 -0.04675969324412618
v 0.17892929320186654 1.3172068335112486 -0.04266118855742946
v 0.17892929320186654 1.2914799459552446 -0.02202472238537052
v 0.1789292932018665 1.2791365487216675 0.009620180826615305
v 0.1789292932018665 1.2834840451311111 0.043794294818315274
v 0.17892929320186654 1.3033575270315678 0.07134069334360432
v 0.17892929320186654 1.3334319109970154 0.08487834116324541
vt 0.019683593750000002 0.28035937499999997
vt 0.026716406250000005 0.2846640625
vt 0.015624218750000004 0.2964296875
vt 0.4375 0.125
vt 0.435853125 0.140625
vt 0.41818125 0.140625
vt 0.4157328125 0.125
vt 0.5700671875 0.265625
vt 0.5688296875 0.234375
vt 0.59375 0.234375
vt 0.5929171875 0.265625
vt 0.5219546875 0.265625
vt 0.5231921875 0.234375
vt 0.5460421875 0.234375
vt 0.546875 0.265625
vt 0.90313125 0.890625
vt 0.90625 0.90625
vt 0.8874953125 0.90625
vt 0.8921375 0.890625
vt 0.71421640625 0.9809609375
vt 0.70718359375 0.985265625
vt 0.70312421875 0.9691953125
vt 0.026716406250000005 0.2846640625
vt 0.030775781250000002 0.2921234375
vt 0.015624218750000004 0.2964296875
vt 0.609375 0.140625
vt 0.60765625 0.15625
vt 0.58945625 0.15625
vt 0.58695625 0.140625
vt 0.42872343749999997 0.28125
vt 0.4274609375 0.25
vt 0.453125 0.25
vt 0.4522578125 0.28125
vt 0.3180859375 0.28125
vt 0.31934843749999997 0.25
vt 0.3428828125 0.25
vt 0.34375 0.28125
vt 0.025507858525649817 0.33284836623449887
vt 0.021454899333023227 0.3494836231828008
vt 0.003901712443898177 0.3414264127294643
vt 0.015218206216079382 0.32812524132997034
vt 0.71827578125 0.9735015625
vt 0.71421640625 0.9809609375
vt 0.70312421875 0.9691953125
vt 0.030775781250000002 0.2921234375
vt 0.030775781250000002 0.30073593750000005
vt 0.015624218750000004 0.2964296875
vt 0.51136875 0.140625
vt 0.5092296875 0.15625
vt 0.49077031249999997 0.15625
vt 0.48863125 0.140625
vt 0.206815625 0.28125
vt 0.2057359375 0.25
vt 0.2317640625 0.25
vt 0.2306828125 0.28125
vt 0.7057359375 0.609375
vt 0.706815625 0.578125
vt 0.7306828125 0.578125
vt 0.7317640625 0.609375
vt 0.03699239933302322 0.33284768568280076
vt 0.041043961833023224 0.3494836231828008
vt 0.021454899333023227 0.3494836231828008
vt 0.025508024333023224 0.33284768568280076
vt 0.71827578125 0.9648890625
vt 0.71827578125 0.9735015625
vt 0.70312421875 0.9691953125
vt 0.030775781250000002 0.30073593750000005
vt 0.026716406250000005 0.30819375000000004
vt 0.015624218750000002 0.2964296875
vt 0.86616875 0.265625
vt 0.8636703125 0.28125
vt 0.8454703125 0.28125
vt 0.84375 0.265625
vt 0.46961875 0.28125
vt 0.46875 0.25
vt 0.4944140625 0.25
vt 0.49315156250000003 0.28125
vt 0.25 0.2289437673136009
vt 0.25 0.2039427313487372
vt 0.27351860071520945 0.203125
vt 0.27564856362441503 0.2280519780962177
vt 0.04728397242744735 0.328125
vt 0.05859828755610182 0.3414294428458704
vt 0.041044246570842186 0.34948479233187846
vt 0.03699239933302322 0.33284768568280076
vt 0.71421640625 0.95743125
vt 0.71827578125 0.9648890625
vt 0.70312421875 0.9691953125
vt 0.026716406250000005 0.30819375000000004
vt 0.019683593750000006 0.3125
vt 0.015624218750000005 0.2964296875
vt 0.203125 0.10269842677170438
vt 0.21589452855552602 0.10509689070496198
vt 0.21587667054548013 0.12330313194674425
vt 0.203125 0.125
vt 0.7437671260187553 0.453125
vt 0.71875 0.453125
vt 0.7203286927498843 0.4223029034546405
vt 0.7445272500293952 0.4304341766581762
vt 0.734375 0.557026187052223
vt 0.734375 0.5320092480642468
vt 0.7572123825640535 0.53125
vt 0.7650004722712997 0.5554498966843291
vt 0.5453625 0.109375
vt 0.550003125 0.125
vt 0.53125 0.125
vt 0.53436875 0.109375
vt 0.70718359375 0.953125
vt 0.71421640625 0.95743125
vt 0.70312421875 0.9691953125
vt 0.019683593750000006 0.3125
vt 0.011564843750000005 0.3125
vt 0.015624218750000005 0.2964296875
vt 0.70265 0.0625
vt 0.701334375 0.078125
vt 0.6892890625 0.078125
vt 0.687975 0.0625
vt 0.60985 0.251371875
vt 0.6144546875 0.2272484375
vt 0.61991875 0.2272484375
vt 0.624525 0.251371875
vt 0.6144546875 0.2272484375
vt 0.60985 0.203125
vt 0.624525 0.203125
vt 0.61991875 0.2272484375
vt 0.04259296875 0.046875
vt 0.04508515625 0.0625
vt 0.03303984375 0.0625
vt 0.03553203125 0.046875
vt 0.69906484375 0.953125
vt 0.70718359375 0.953125
vt 0.70312421875 0.9691953125
vt 0.011564843749999996 0.3125
vt 0.0045335937499999986 0.30819375000000004
vt 0.015624218750000004 0.2964296875
vt 0.90625 0.14349999999999996
vt 0.9045390625 0.15625
vt 0.886334375 0.15625
vt 0.8839484375 0.14347968749999995
vt 0.111571875 0.43742187499999996
vt 0.1051484375 0.41258125
vt 0.140625 0.41258125
vt 0.138509375 0.4375
vt 0.1051484375 0.41258125
vt 0.11157388976494473 0.38774045470189256
vt 0.138520667454256 0.3876680362756414
vt 0.1406141905741035 0.41258125
vt 0.90313125 0.65625
vt 0.90625 0.671875
vt 0.887496875 0.671875
vt 0.8921375 0.65625
vt 0.69203359375 0.95743125
vt 0.69906484375 0.953125
vt 0.70312421875 0.9691953125
vt 0.0045335937499999986 0.30819375000000004
vt 0.0004742187499999981 0.30073593750000005
vt 0.015624218750000002 0.2964296875
vt 0.875 0.390625
vt 0.87328125 0.40625
vt 0.85508125 0.40625
vt 0.85258125 0.390625
vt 0.9217740044286251 1
vt 0.8967567845290458 1
vt 0.8969655634768514 0.9892535903650401
vt 0.921875 0.9913425158770071
vt 0.05176576196189758 0.10324357717257149
vt 0.05176576196189758 0.0782262458265669
vt 0.060433920696317645 0.078125
vt 0.0625 0.1030353809780391
vt 0.6505079939802403 0.5828479558096722
vt 0.6464560764171677 0.5994853512180927
vt 0.6289013370662851 0.59142777742301
vt 0.6402182640549454 0.578125
vt 0.68797421875 0.9648890625
vt 0.69203359375 0.95743125
vt 0.70312421875 0.9691953125
vt 0.0004742187499999981 0.30073593750000005
vt 0.00047421875000000155 0.2921234375
vt 0.015624218750000002 0.2964296875
vt 0.87074375 0.421875
vt 0.8686046875 0.4375
vt 0.8501453125 0.4375
vt 0.84800625 0.421875
vt 0.2387734375 0.4375
vt 0.237603125 0.40625
vt 0.293646875 0.40625
vt 0.2926578125 0.4375
vt 0.315728125 0.4375
vt 0.316903125 0.40625
vt 0.3707859375 0.40625
vt 0.371771875 0.4375
vt 0.6619920139171677 0.5828494137180926
vt 0.6660451389171677 0.5994853512180927
vt 0.6464560764171677 0.5994853512180927
vt 0.6505076389171677 0.5828494137180926
vt 0.68797421875 0.9735015625
vt 0.68797421875 0.9648890625
vt 0.70312421875 0.9691953125
vt 0.00047421875000000155 0.2921234375
vt 0.004533593750000004 0.2846640625
vt 0.015624218750000002 0.2964296875
vt 0.86616875 0.203125
vt 0.8636703125 0.21875
vt 0.8454703125 0.21875
vt 0.84375 0.203125
vt 0.6112609375 0.3583778384839841
vt 0.609375 0.33344815098398406
vt 0.6269203125 0.33344815098398406
vt 0.62675625 0.3584590884839841
vt 0.390625 0.3381923476369266
vt 0.392640625 0.3132720351369267
vt 0.4081453125 0.3132720351369267
vt 0.4081578125 0.3382814101369267
vt 0.6722831682469316 0.5781258155792384
vt 0.6835986629337149 0.591429255219531
vt 0.6660453362233227 0.5994861610556532
vt 0.6619920139171677 0.5828494137180926
vt 0.69203359375 0.9809609375
vt 0.68797421875 0.9735015625
vt 0.70312421875 0.9691953125
vt 0.004533593750000004 0.2846640625
vt 0.011564843750000003 0.28035937499999997
vt 0.015624218750000004 0.2964296875
vt 0.8811421875 0.53125
vt 0.8786921875 0.546875
vt 0.8610203125 0.546875
vt 0.859375 0.53125
vt 0.6267562138220185 0.35846460373111966
vt 0.6269203125 0.33344815098398406
vt 0.6518192738275221 0.3344410388794983
vt 0.6495865067422817 0.359375
vt 0.4081578163049881 0.3382890229668122
vt 0.4081453125 0.3132720351369267
vt 0.43098070297046837 0.3125
vt 0.4330623370752151 0.337447033199753
vt 0.8891125 0.71875
vt 0.8937546875 0.734375
vt 0.875 0.734375
vt 0.87811875 0.71875
vt 0.69906484375 0.985265625
vt 0.69203359375 0.9809609375
vt 0.70312421875 0.9691953125
vt 0.011564843750000003 0.28035937499999997
vt 0.019683593750000002 0.28035937499999997
vt 0.015624218750000004 0.2964296875
vt 0.6513421875 0.125
vt 0.6493265625 0.140625
vt 0.631925 0.140625
vt 0.6299078125 0.125
vt 0.754375 0.90625
vt 0.75335625 0.875
vt 0.77789375 0.875
vt 0.776875 0.90625
vt 0.00335625 0.25
vt 0.004374999999999999 0.21875
vt 0.026874999999999996 0.21875
vt 0.027893750000000002 0.25
vt 0.80228671875 0.109375
vt 0.80610859375 0.125
vt 0.78764140625 0.125
vt 0.79146171875 0.109375
vt 0.70718359375 0.985265625
vt 0.69906484375 0.985265625
vt 0.70312421875 0.9691953125
vt 0.90625 0.296875
vt 0.90625 0.3125
vt 0.890625 0.3125
vt 0.890625 0.296875
vt 0.890625 0.28125
vt 0.890625 0.265625
vt 0.90625 0.265625
vt 0.90625 0.28125
vt 0.24634375 0.05900625000000004
vt 0.24634375 0.0625
vt 0.234375 0.0625
vt 0.234375 0.05900625000000004
vt 0.9375 0.59375
vt 0.9375 0.5902562499999999
vt 0.94946875 0.5902562499999999
vt 0.94946875 0.59375
vt 0.8260546875 0.055512499999999965
vt 0.8260546875 0.05900625000000004
vt 0.8145703125 0.05900625000000004
vt 0.8145703125 0.055512499999999965
vt 0.9395703125 0.125
vt 0.9395703125 0.12150625000000004
vt 0.9510546875 0.12150625000000004
vt 0.9510546875 0.125
vt 0.9644484375 0.9617625
vt 0.9644484375 0.96525625
vt 0.953125 0.96525625
vt 0.953125 0.9617625
vt 0.953125 0.9375
vt 0.953125 0.93400625
vt 0.9644484375 0.93400625
vt 0.9644484375 0.9375
vt 0.96411875 0.8211375
vt 0.96411875 0.8246312499999999
vt 0.953125 0.8246312499999999
vt 0.953125 0.8211375
vt 0.1875 0.046875
vt 0.1875 0.04338125000000004
vt 0.19849375 0.04338125000000004
vt 0.19849375 0.046875
vt 0.34135 0.039887499999999965
vt 0.34135 0.04338125000000004
vt 0.330525 0.04338125000000004
vt 0.330525 0.039887499999999965
vt 0.955525 0.703125
vt 0.955525 0.6996312499999999
vt 0.96635 0.6996312499999999
vt 0.96635 0.703125
vt 0.640625 0.09375
vt 0.640625 0.109375
vt 0.625 0.109375
vt 0.625 0.09375
vt 0.890625 0.34375
vt 0.890625 0.328125
vt 0.90625 0.328125
vt 0.90625 0.34375
vt 0.52759375 0.05900625000000004
vt 0.52759375 0.0625
vt 0.515625 0.0625
vt 0.515625 0.05900625000000004
vt 0.9375 0.484375
vt 0.9375 0.48088125000000004
vt 0.94946875 0.48088125000000004
vt 0.94946875 0.484375
vt 0.9041796875 0.055512499999999965
vt 0.9041796875 0.05900625000000004
vt 0.8926953125 0.05900625000000004
vt 0.8926953125 0.055512499999999965
vt 0.9395703125 0.09375
vt 0.9395703125 0.09025625000000004
vt 0.9510546875 0.09025625000000004
vt 0.9510546875 0.09375
vt 0.9331984375 0.055512499999999965
vt 0.9331984375 0.05900625000000004
vt 0.921875 0.05900625000000004
vt 0.921875 0.055512499999999965
vt 0 0.046875
vt 0 0.04338125000000004
vt 0.0113234375 0.04338125000000004
vt 0.0113234375 0.046875
vt 0.96411875 0.7586375
vt 0.96411875 0.7621312499999999
vt 0.953125 0.7621312499999999
vt 0.953125 0.7586375
vt 0.953125 0.796875
vt 0.953125 0.79338125
vt 0.96411875 0.79338125
vt 0.96411875 0.796875
vt 0.96635 0.7273875000000001
vt 0.96635 0.7308812499999999
vt 0.955525 0.7308812499999999
vt 0.955525 0.7273875000000001
vt 0.299275 0.046875
vt 0.299275 0.04338125000000004
vt 0.3101 0.04338125000000004
vt 0.3101 0.046875
vt 0.19849375 0.039887499999999965
vt 0.19849375 0.04338125000000004
vt 0.1875 0.04338125000000004
vt 0.1875 0.039887499999999965
vt 0.9644484375 0.9305125
vt 0.9644484375 0.93400625
vt 0.953125 0.93400625
vt 0.953125 0.9305125
vt 0.9510546875 0.11801249999999996
vt 0.9510546875 0.12150625000000004
vt 0.9395703125 0.12150625000000004
vt 0.9395703125 0.11801249999999996
vt 0.75 0.078125
vt 0.75 0.09375
vt 0.734375 0.09375
vt 0.734375 0.078125
vt 0.015625 0.0625
vt 0.015625 0.078125
vt 0 0.078125
vt 0 0.0625
vt 0.3101 0.039887499999999965
vt 0.3101 0.04338125000000004
vt 0.299275 0.04338125000000004
vt 0.299275 0.039887499999999965
vt 0.96411875 0.7898875
vt 0.96411875 0.79338125
vt 0.953125 0.79338125
vt 0.953125 0.7898875
vt 0.0113234375 0.039887499999999965
vt 0.0113234375 0.04338125000000004
vt 6.505213034913027e-19 0.04338125000000004
vt 6.505213034913027e-19 0.039887499999999965
vt 0.9510546875 0.08676249999999996
vt 0.9510546875 0.09025625000000004
vt 0.9395703125 0.09025625000000004
vt 0.9395703125 0.08676249999999996
vt 0.921875 0.46875
vt 0.921875 0.484375
vt 0.90625 0.484375
vt 0.90625 0.46875
vt 0.9375 0.703125
vt 0.9375 0.71875
vt 0.921875 0.71875
vt 0.921875 0.703125
vt 0.96635 0.6961375000000001
vt 0.96635 0.6996312499999999
vt 0.955525 0.6996312499999999
vt 0.955525 0.6961375000000001
vt 0.953125 0.828125
vt 0.953125 0.8246312499999999
vt 0.96411875 0.8246312499999999
vt 0.96411875 0.828125
vt 0.330525 0.046875
vt 0.330525 0.04338125000000004
vt 0.34135 0.04338125000000004
vt 0.34135 0.046875
vt 0.296875 0.078125
vt 0.296875 0.0625
vt 0.3125 0.0625
vt 0.3125 0.078125
vt 0.546875 0.09375
vt 0.546875 0.078125
vt 0.5625 0.078125
vt 0.5625 0.09375
vt 0.8926953125 0.0625
vt 0.8926953125 0.05900625000000004
vt 0.9041796875 0.05900625000000004
vt 0.9041796875 0.0625
vt 0.921875 0.0625
vt 0.921875 0.05900625000000004
vt 0.9331984375 0.05900625000000004
vt 0.9331984375 0.0625
vt 0.953125 0.765625
vt 0.953125 0.7621312499999999
vt 0.96411875 0.7621312499999999
vt 0.96411875 0.765625
vt 0.955525 0.734375
vt 0.955525 0.7308812499999999
vt 0.96635 0.7308812499999999
vt 0.96635 0.734375
vt 0.921875 0.96875
vt 0.921875 0.953125
vt 0.9375 0.953125
vt 0.9375 0.96875
vt 0.765625 0.09375
vt 0.765625 0.078125
vt 0.78125 0.078125
vt 0.78125 0.09375
vt 0.8145703125 0.0625
vt 0.8145703125 0.05900625000000004
vt 0.8260546875 0.05900625000000004
vt 0.8260546875 0.0625
vt 0.953125 0.96875
vt 0.953125 0.96525625
vt 0.9644484375 0.96525625
vt 0.9644484375 0.96875
vt 0.06678203125 0.0625
vt 0.06428984375 0.046875
vt 0.07633515625000001 0.046875
vt 0.07384296875 0.0625
vt 0.5015125 0.125
vt 0.496871875 0.109375
vt 0.515625 0.109375
vt 0.51250625 0.125
vt 0.6402181851764867 0.7968735478332573
vt 0.6289012581878264 0.7835707704102473
vt 0.6464559975387089 0.7755131966151647
vt 0.6505079151017815 0.792150592023585
vt 0.6505079151017815 0.792150592023585
vt 0.6464563526017815 0.775514654523585
vt 0.6660454151017815 0.775514654523585
vt 0.6619922901017815 0.792150592023585
vt 0.6619920927956264 0.7921514018611457
vt 0.6660454151017815 0.775514654523585
vt 0.6835987418121736 0.7835715603597073
vt 0.6722832471253903 0.796875
vt 0.87811875 0.8125
vt 0.875 0.796875
vt 0.8937546875 0.796875
vt 0.8891125 0.8125
vt 0.58833671875 0.125
vt 0.58451640625 0.109375
vt 0.60298359375 0.109375
vt 0.59916171875 0.125
vt 0.8921375 0.875
vt 0.8874953125 0.859375
vt 0.90625 0.859375
vt 0.90313125 0.875
vt 0.09334343148867556 0.35937427007265
vt 0.08202693771649436 0.34607309867315605
vt 0.09958012460561941 0.33801588821981954
vt 0.103633083798246 0.35465114516812146
vt 0.103633083798246 0.35465114516812146
vt 0.09957995879824601 0.33801520766812154
vt 0.119169021298246 0.33801520766812154
vt 0.115117458798246 0.35465114516812146
vt 0.11511717406042704 0.35465231431719924
vt 0.119169021298246 0.33801520766812154
vt 0.13672306228350564 0.3460705571541296
vt 0.12540874715485117 0.359375
vt 0.87811875 0.703125
vt 0.875 0.6875
vt 0.893753125 0.6875
vt 0.8891125 0.703125
vt 0.656725 0.078125
vt 0.6580390625 0.0625
vt 0.670084375 0.0625
vt 0.6714 0.078125
vt 0.1875 0.13167657175041847
vt 0.171875 0.12927900390863634
vt 0.17189158101585764 0.11107432395971739
vt 0.1875 0.109375
vt 0.85258125 0.25
vt 0.85508125 0.234375
vt 0.87328125 0.234375
vt 0.875 0.25
vt 0.53550625 0.15625
vt 0.5376453125 0.140625
vt 0.5561046875 0.140625
vt 0.55824375 0.15625
vt 0.03125 0.140625
vt 0.0329703125 0.125
vt 0.051170312499999995 0.125
vt 0.05366875 0.140625
vt 0.359375 0.140625
vt 0.3610203125 0.125
vt 0.3786921875 0.125
vt 0.3811421875 0.140625
vt 0.8642828125 0.484375
vt 0.8663 0.46875
vt 0.8837015625 0.46875
vt 0.8857171875 0.484375
vt 0.8688578125 0.578125
vt 0.87130625 0.5625
vt 0.888978125 0.5625
vt 0.890625 0.578125
vt 0.08695625 0.140625
vt 0.08945625 0.125
vt 0.10765625 0.125
vt 0.109375 0.140625
vt 0.84800625 0.515625
vt 0.8501453125 0.5
vt 0.8686046875 0.5
vt 0.87074375 0.515625
vt 0.125 0.140625
vt 0.1267203125 0.125
vt 0.1449203125 0.125
vt 0.14741875 0.140625
vt 0.234375 0.14060312500000005
vt 0.236084375 0.125
vt 0.254290625 0.125
vt 0.2566765625 0.140625
vt 0.743977754656838 0.123053840935343
vt 0.7464694624289796 0.1386038980310269
vt 0.7445874773008717 0.140625
vt 0.7407664750710203 0.12305327858120818
vt 0.7535303999289796 0.1386038980310269
vt 0.7560225874289797 0.12305389803102695
vt 0.7592335249289797 0.12305389803102695
vt 0.7554132124289796 0.14062421053102692
vt 0.7464694624289796 0.1386038980310269
vt 0.7535303999289796 0.1386038980310269
vt 0.7554132124289796 0.14062421053102692
vt 0.7445882124289797 0.14062421053102692
vt 0.5676984375 0.0625
vt 0.5690140625 0.046875
vt 0.5729265625 0.046875
vt 0.570909375 0.0625
vt 0.72786171875 0.046875
vt 0.72917578125 0.0625
vt 0.72596484375 0.0625
vt 0.72394921875 0.046875
vt 0.49301595207039955 0.03437398028269034
vt 0.4941011937124358 0.06168835860755262
vt 0.4902738062875642 0.0625
vt 0.4902738062875642 0.03495548374037838
vt 0.8726263942521727 1
vt 0.8453117519684875 0.9989147711303743
vt 0.8458934075915449 0.984375
vt 0.8734382480315125 0.984375
vt 0.9398736315337926 0.546875
vt 0.9671880098586548 0.5479602416420364
vt 0.9666065064009669 0.5507023874248718
vt 0.9390619901413452 0.5507023874248718
vt 0.8448352288696257 0.8875014960630251
vt 0.84375 0.8601868537793398
vt 0.859375 0.859375
vt 0.859375 0.8869198404399677
vt 0.76042578125 0.046875
vt 0.75911171875 0.0625
vt 0.75519921875 0.0625
vt 0.75721484375 0.046875
vt 0.9440140625 0.390625
vt 0.9426984375 0.375
vt 0.945909375 0.375
vt 0.9479265625 0.390625
vt 0.8497720935971234 0.12694698777319036
vt 0.8472807118296493 0.11139531250000001
vt 0.849162764752797 0.10937581504802496
vt 0.8529833506703508 0.12694605975955786
vt 0.8402197743296492 0.11139531250000001
vt 0.8377275868296492 0.12694531249999996
vt 0.8345166493296492 0.12694531249999996
vt 0.8383385243296493 0.109375
vt 0.8472807118296493 0.11139531250000001
vt 0.8402197743296492 0.11139531250000001
vt 0.8383385243296493 0.109375
vt 0.8491635243296493 0.109375
vt 0.8108353708013036 0.8990155624974367
vt 0.8246340820379698 0.9051686090818212
vt 0.824445264111722 0.9091147098245769
vt 0.8109183391406892 0.9022550110460621
vt 0.78125 0.5457661197120914
vt 0.7950782358868256 0.5396797163142868
vt 0.7949812015344443 0.5429202902137279
vt 0.7814197778527388 0.5497130854785973
vt 0.890625 0.40625
vt 0.90625 0.40625
vt 0.90625 0.421875
vt 0.890625 0.421875
vt 0.7950782358868256 0.5396797163142868
vt 0.8001432892600042 0.53125
vt 0.8030350000742342 0.5328243133958739
vt 0.794981949462386 0.5428953122991316
vt 0.8057054637526165 0.890625
vt 0.8108353708013036 0.8990155624974367
vt 0.8109183367873124 0.9022549191598888
vt 0.8029065429620302 0.8921735029078692
vt 0.08809564103181794 0.082379104900277
vt 0.09082062170522862 0.10678686589418607
vt 0.08791037002844246 0.10832802582984968
vt 0.08387781579477138 0.08238281250000001
vt 0.8935631947965225 0.7786684063729035
vt 0.8962553822965225 0.7542574688729033
vt 0.9004944447965224 0.7542574688729033
vt 0.8964616322965224 0.7802043438729034
vt 0.15331179613049672 0.08070814255784409
vt 0.15061960863049673 0.10511751755784415
vt 0.14638054613049672 0.10511751755784415
vt 0.15041335863049674 0.07917220505784417
vt 0.11502768619462944 0.10512082660610778
vt 0.11230448874485743 0.0807146261951237
vt 0.11521475600403464 0.07917349568485132
vt 0.11924707375514257 0.10511718749999999
vt 0.7986684126337569 0.35094576221763507
vt 0.7936041243965256 0.359375
vt 0.7907125631342613 0.3577988505776011
vt 0.7987665663494311 0.347728613476299
vt 0.02242258072451829 0.203125
vt 0.01729111118449026 0.19473443230068455
vt 0.017208145198481545 0.19149507563823265
vt 0.025219939023763738 0.20157649189025206
vt 0.01729111118449026 0.19473443230068455
vt 0.0034894359762362628 0.1885880369742866
vt 0.0036779144731863642 0.18464185164054736
vt 0.017208144031429763 0.19149503007140278
vt 0.8125 0.3448685453821799
vt 0.7986684126337569 0.35094576221763507
vt 0.7987672317219626 0.34770680480214344
vt 0.8123308372227394 0.34091992243074454
vt 0.90625 0.453125
vt 0.890625 0.453125
vt 0.890625 0.4375
vt 0.90625 0.4375
vt 0.7969775038494311 0.34564267597629894
vt 0.8109437622525836 0.3383653201409248
vt 0.8122709095598764 0.3408270607530023
vt 0.7987651542647927 0.34772696707193895
vt 0.6470453403977307 0.203125
vt 0.6630015625 0.21141488945877307
vt 0.66121176324082 0.21434934598694744
vt 0.6457190808202744 0.20558536806626304
vt 0.890625 0.234375
vt 0.90625 0.234375
vt 0.90625 0.25
vt 0.890625 0.25
vt 0.890625 0.203125
vt 0.90625 0.203125
vt 0.90625 0.21875
vt 0.890625 0.21875
vt 0.005039610038046561 0.18208163142171552
vt 0.018985564023763737 0.18939836689025213
vt 0.01719171177887864 0.19147842223959577
vt 0.0037057221330856777 0.18453669353316238
vt 0.79016875 0.9457370916104777
vt 0.8061530115014242 0.9375
vt 0.8074707861241872 0.9399672312030344
vt 0.7919471450164097 0.9486766004205539
vt 0.018985564023763737 0.18939836689025213
vt 0.027760564023763735 0.2005108668902521
vt 0.025219939023763738 0.20157649189025206
vt 0.017193376523763737 0.19147649189025207
vt 0.78125 0.9568386541104777
vt 0.79016875 0.9457370916104777
vt 0.791946875 0.9486761541104777
vt 0.7837703125 0.9587699041104777
vt 0.11775644875514257 0.078125
vt 0.12207051125514257 0.10511718749999999
vt 0.11924707375514257 0.10511718749999999
vt 0.11521426125514259 0.07917031249999995
vt 0.9659169786390566 0.90625
vt 0.9659169786390566 0.878706349407018
vt 0.96875 0.8801535755818954
vt 0.9686780981492835 0.9058077149981059
vt 0.9033118052034775 0.7542559490118218
vt 0.8990098669573593 0.78125
vt 0.896461597283473 0.7802045691447743
vt 0.9004944447965224 0.7542574688729033
vt 0.873147310601589 0.84375
vt 0.845602689398411 0.84375
vt 0.8460448986322936 0.828125
vt 0.8716997828352857 0.828125
vt 0.7881743788494311 0.35673330097629896
vt 0.7969775038494311 0.34564267597629894
vt 0.7987665663494311 0.347728613476299
vt 0.7907087538494311 0.35780361347629897
vt 0.6630015625 0.21141488945877307
vt 0.671875 0.22255551445877308
vt 0.6693421875 0.22447738945877305
vt 0.661215625 0.21434301445877302
vt 0.14356320386950328 0.10512057406445863
vt 0.14786537066467204 0.078125
vt 0.1504136307838591 0.07917045414479396
vt 0.14638054613049672 0.10511751755784415
vt 0.8456034610063042 0.75
vt 0.8731465389936958 0.75
vt 0.8727043049831971 0.765625
vt 0.847049420648776 0.765625
vt 0.08536844079477138 0.109375
vt 0.08105437829477138 0.08238281250000001
vt 0.08387781579477138 0.08238281250000001
vt 0.08791062829477139 0.10832968750000005
vt 0.859375 0.78125
vt 0.859375 0.808793650592982
vt 0.84375 0.8073464244181046
vt 0.8438219018507166 0.7816922850018941
vt 0.8091409179620301 0.9043516279078693
vt 0.8003659179620302 0.8932391279078693
vt 0.8029065429620302 0.8921735029078692
vt 0.8109331054620302 0.9022735029078692
vt 0.796875 0.2931597833895223
vt 0.78795625 0.3042629083895223
vt 0.786178125 0.3013238458895223
vt 0.7943546875 0.29122853338952237
vt 0.8230868719477474 0.9116683633764058
vt 0.8091409179620301 0.9043516279078693
vt 0.8109347702069153 0.9022715725585256
vt 0.8244207598527082 0.9092133012649589
vt 0.78795625 0.3042629083895223
vt 0.7719719884985758 0.3125
vt 0.7706542231387685 0.31003433126950863
vt 0.7861778549835903 0.3013233995794462
vt 0.28125 0.09375
vt 0.265625 0.09375
vt 0.265625 0.078125
vt 0.28125 0.078125
vt 0.1875 0.09375
vt 0.171875 0.09375
vt 0.171875 0.078125
vt 0.1875 0.078125
vt 0.7967710119623861 0.5449796872991315
vt 0.7828074494719047 0.5522622146291664
vt 0.7814793906222697 0.5498009656559187
vt 0.7949825898136024 0.542896058350243
vt 0.7904537614336847 0.46875
vt 0.774496875 0.4604598529838416
vt 0.7762864207416292 0.45752681254192307
vt 0.7917798333442627 0.4662879610427456
vt 0.805574136962386 0.5338906247991315
vt 0.7967710119623861 0.5449796872991315
vt 0.794981949462386 0.5428953122991316
vt 0.8030381994623861 0.5328203122991315
vt 0.774496875 0.4604598529838416
vt 0.765625 0.4493192279838416
vt 0.7681578125 0.4473957904838416
vt 0.776284375 0.4575301654838416
vt 0.921875 0.3112356659740656
vt 0.921875 0.29824396997088487
vt 0.9375 0.296875
vt 0.9375 0.30986669600318073
vt 0.06283359375000003 0.6207125000000001
vt 0.04723046875000002 0.6113328125000002
vt 0.04829609375000002 0.6093750000000001
vt 0.06428828125000002 0.61916875
vt 0.057732031249999975 0.9980421874999998
vt 0.07682890624999997 0.9865218749999998
vt 0.07828359374999999 0.9880656249999998
vt 0.058797656249999976 0.9999999999999998
vt 0.35973046875000003 0.7636671874999998
vt 0.37533359374999997 0.7542874999999999
vt 0.37678828125 0.7558312499999998
vt 0.36079609375 0.7656249999999999
vt 0.9361310300291151 0.28125
vt 0.9231393340259344 0.28125
vt 0.9245083039968193 0.265625
vt 0.9375 0.265625
vt 0.15495390625 0.8259781250000002
vt 0.13585703124999998 0.8144578125000002
vt 0.13692265624999997 0.8125000000000002
vt 0.15640859375 0.8244343750000002
vt 0.37533359374999997 0.7542874999999999
vt 0.38403359375 0.7383015624999999
vt 0.38602265625 0.7388656249999999
vt 0.37678828125 0.7558312499999998
vt 0.16567109374999997 0.8456687500000002
vt 0.15495390625 0.8259781250000002
vt 0.15640859375 0.8244343750000002
vt 0.16766015624999997 0.8451046875000001
vt 0.38403359375 0.7383015624999999
vt 0.38403359375 0.7198421874999998
vt 0.38602265625 0.7192765624999999
vt 0.38602265625 0.7388656249999999
vt 0.16567109374999994 0.8684062500000002
vt 0.16567109374999997 0.8456687500000002
vt 0.16766015624999997 0.8451046875000001
vt 0.16766015624999994 0.8689718750000002
vt 0.38403359375 0.7198421874999998
vt 0.37533359374999997 0.7038562499999999
vt 0.37678828124999997 0.7023124999999999
vt 0.38602265625 0.7192765624999999
vt 0.1549539062499999 0.8880968750000001
vt 0.16567109374999994 0.8684062500000002
vt 0.16766015624999994 0.8689718750000002
vt 0.1564085937499999 0.8896406250000002
vt 0.37533359374999997 0.7038562499999999
vt 0.36026328124999996 0.6946265624999999
vt 0.36079609374999994 0.6925171875
vt 0.37678828124999997 0.7023124999999999
vt 0.13638984374999988 0.899465625
vt 0.1549539062499999 0.8880968750000001
vt 0.1564085937499999 0.8896406250000002
vt 0.13692265624999989 0.9015750000000001
vt 0.36026328124999996 0.6946265624999999
vt 0.34286171874999993 0.6946265625
vt 0.3423289062499999 0.6925171875
vt 0.36079609374999994 0.6925171874999999
vt 0.11495546874999987 0.899465625
vt 0.13638984374999988 0.899465625
vt 0.13692265624999989 0.9015750000000001
vt 0.11442265624999987 0.901575
vt 0.34286171874999993 0.6946265625
vt 0.3277914062499999 0.7038562500000001
vt 0.3263351562499999 0.7023125
vt 0.3423289062499999 0.6925171875
vt 0.09639296874999992 0.888096875
vt 0.11495546874999987 0.899465625
vt 0.11442265624999987 0.901575
vt 0.0949367187499999 0.889640625
vt 0.3277914062499999 0.7038562500000001
vt 0.31908984375 0.7198421875000001
vt 0.31710234375 0.7192765625
vt 0.3263351562499999 0.7023125
vt 0.08567578124999994 0.8684062499999999
vt 0.09639296874999992 0.888096875
vt 0.0949367187499999 0.889640625
vt 0.08368671874999993 0.8789703124999999
vt 0.31908984375 0.7198421875000001
vt 0.31908984375000005 0.7383015625
vt 0.31710234375000007 0.7388656250000001
vt 0.31710234375 0.7192765625
vt 0.08567578125 0.84566875
vt 0.08567578124999994 0.8684062499999999
vt 0.08368671874999993 0.8789703124999999
vt 0.08233984375000003 0.8251046874999999
vt 0.31908984375000005 0.7383015625
vt 0.32779140625000014 0.7542875
vt 0.32633515625000015 0.75583125
vt 0.31710234375000007 0.7388656250000001
vt 0.09639296875000003 0.825978125
vt 0.08567578125 0.84566875
vt 0.08233984375000003 0.8251046874999999
vt 0.08820390625000005 0.8187203125
vt 0.9375 0.20439029336018177
vt 0.9375 0.2173819893633625
vt 0.921875 0.21875
vt 0.921875 0.20575926333106653
vt 0.32779140625000014 0.7542875
vt 0.34339453125000013 0.7636671875000001
vt 0.3423289062500001 0.765625
vt 0.32633515625000015 0.75583125
vt 0.11548828125000006 0.8144578124999999
vt 0.09639296875000003 0.825978125
vt 0.08820390625000005 0.8187203125
vt 0.11442265625000006 0.8125
vt 0.07153359375000003 0.6366984375000001
vt 0.06283359375000003 0.6207125000000001
vt 0.06428828125000002 0.61916875
vt 0.07352265625000003 0.6361343750000001
vt 0.07682890624999997 0.9865218749999998
vt 0.08754609374999997 0.9668312499999998
vt 0.08953515624999997 0.9673953124999999
vt 0.07828359374999999 0.9880656249999998
vt 0.07153359375 0.6551578125000002
vt 0.07153359375000003 0.6366984375000001
vt 0.07352265625000003 0.6361343750000001
vt 0.07352265625 0.6557234375000001
vt 0.08754609374999997 0.9668312499999998
vt 0.08754609374999994 0.9440937499999998
vt 0.08953515624999994 0.9435281249999998
vt 0.08953515624999997 0.9673953124999999
vt 0.06283359374999997 0.6711437500000001
vt 0.07153359375 0.6551578125000002
vt 0.07352265625 0.6557234375000001
vt 0.06428828124999997 0.6726875000000001
vt 0.08754609374999994 0.9440937499999998
vt 0.07682890624999991 0.9244031249999999
vt 0.07828359374999991 0.9228593749999998
vt 0.08953515624999994 0.9435281249999998
vt 0.04776328124999994 0.6803734375000001
vt 0.06283359374999997 0.6711437500000001
vt 0.06428828124999997 0.6726875000000001
vt 0.048296093749999935 0.6824828125
vt 0.07682890624999991 0.9244031249999999
vt 0.05826484374999987 0.9130343749999998
vt 0.058797656249999865 0.9109249999999999
vt 0.07828359374999991 0.9228593749999998
vt 0.03036171874999994 0.6803734375
vt 0.04776328124999994 0.6803734375000001
vt 0.048296093749999935 0.6824828125
vt 0.029828906249999933 0.6824828125
vt 0.05826484374999987 0.9130343749999998
vt 0.03683046874999988 0.913034375
vt 0.03629765624999987 0.910925
vt 0.058797656249999865 0.9109249999999999
vt 0.015291406249999973 0.6711437499999999
vt 0.03036171874999994 0.6803734375
vt 0.029828906249999933 0.6824828125
vt 0.013835156249999973 0.6726874999999999
vt 0.03683046874999988 0.913034375
vt 0.018267968749999912 0.924403125
vt 0.016811718749999906 0.922859375
vt 0.03629765624999987 0.910925
vt 0.00658984374999997 0.6551578124999999
vt 0.015291406249999973 0.6711437499999999
vt 0.013835156249999973 0.6726874999999999
vt 0.004602343749999974 0.6557234375
vt 0.018267968749999912 0.924403125
vt 0.007550781249999951 0.9440937500000001
vt 0.00556171874999993 0.9335296875000001
vt 0.016811718749999906 0.922859375
vt 0.006589843749999984 0.6366984375
vt 0.00658984374999997 0.6551578124999999
vt 0.004602343749999974 0.6557234375
vt 0.0046023437499999875 0.6361343749999999
vt 0.007550781249999951 0.9440937500000001
vt 0.007550781249999992 0.96683125
vt 0.004214843750000023 0.9873953125000001
vt 0.00556171874999993 0.9335296875000001
vt 0.015291406250000014 0.6207125
vt 0.006589843749999984 0.6366984375
vt 0.0046023437499999875 0.6361343749999999
vt 0.013835156250000018 0.6191687499999999
vt 0.007550781249999992 0.96683125
vt 0.018267968750000026 0.986521875
vt 0.01007890625000004 0.9937796875
vt 0.004214843750000023 0.9873953125000001
vt 0.030894531250000034 0.6113328124999999
vt 0.015291406250000014 0.6207125
vt 0.013835156250000018 0.6191687499999999
vt 0.029828906250000037 0.609375
vt 0.9232430106366375 0.234375
vt 0.9362347066398182 0.234375
vt 0.9348657366689335 0.25
vt 0.921875 0.25
vt 0.018267968750000026 0.986521875
vt 0.037363281250000054 0.9980421875
vt 0.03629765625000005 1
vt 0.01007890625000004 0.9937796875
vt 0.24634375 0.0625
vt 0.24634375 0.05900625000000004
vt 0.27940625 0.05900625000000004
vt 0.27940625 0.0625
vt 0.59279609375 0.8259624999999999
vt 0.58505390625 0.835090625
vt 0.56261796875 0.859375
vt 0.55720546875 0.84943125
vt 0.58505390625 0.696159375
vt 0.59279609375 0.7052875000000001
vt 0.55720546875 0.68181875
vt 0.56261796875 0.671875
vt 0.57072421875 0.8198890624999999
vt 0.59279609375 0.8259624999999999
vt 0.55720546875 0.84943125
vt 0.54782890625 0.8436890625
vt 0.84375 0.453125
vt 0.84375 0.46875
vt 0.8125 0.46875
vt 0.8125 0.453125
vt 0.59279609375 0.7052875000000001
vt 0.57072421875 0.7113609375000001
vt 0.54782890625 0.6875609375
vt 0.55720546875 0.68181875
vt 0.58505390625 0.539909375
vt 0.59279609375 0.5490375000000001
vt 0.55720546875 0.52556875
vt 0.56261796875 0.515625
vt 0.94946875 0.59375
vt 0.94946875 0.5902562499999999
vt 0.98253125 0.5902562499999999
vt 0.98253125 0.59375
vt 0.60842109375 0.9665875
vt 0.60067890625 0.975715625
vt 0.57824296875 1
vt 0.57283046875 0.99005625
vt 0.625 0.171875
vt 0.625 0.1875
vt 0.59375 0.1875
vt 0.59375 0.171875
vt 0.59279609375 0.5490375000000001
vt 0.57072421875 0.5551109375000001
vt 0.54782890625 0.5313109375
vt 0.55720546875 0.52556875
vt 0.58634921875 0.9605140625
vt 0.60842109375 0.9665875
vt 0.57283046875 0.99005625
vt 0.56345390625 0.9843140625
vt 0.921875 0.109375
vt 0.921875 0.125
vt 0.90625 0.125
vt 0.90625 0.109375
vt 0.71081328125 0.2716984375
vt 0.73288515625 0.265625
vt 0.74231171875 0.2751390625
vt 0.73293671875 0.28088124999999997
vt 0.74851015625 0.34375
vt 0.72643828125 0.3376765625
vt 0.74856171875 0.32849375000000003
vt 0.75793671875 0.3342359375
vt 0.71855390625 0.28082656250000004
vt 0.71081328125 0.2716984375
vt 0.73293671875 0.28088124999999997
vt 0.72752421875 0.290825
vt 0.94946875 0.484375
vt 0.94946875 0.48088125000000004
vt 0.9629015625 0.48088125000000004
vt 0.9629015625 0.484375
vt 0.72643828125 0.3376765625
vt 0.73417890625 0.32854843749999996
vt 0.74314921875 0.31855
vt 0.74856171875 0.32849375000000003
vt 0.76413515625 1
vt 0.74206328125 0.9939265625
vt 0.76418671875 0.98474375
vt 0.77356171875 0.9904859375
vt 0.921875 0.078125
vt 0.921875 0.09375
vt 0.90625 0.09375
vt 0.90625 0.078125
vt 0.64831328125 0.2560734375
vt 0.67038515625 0.25
vt 0.67981171875 0.2595140625
vt 0.67043671875 0.26525624999999997
vt 0.52759375 0.0625
vt 0.52759375 0.05900625000000004
vt 0.5410265625 0.05900625000000004
vt 0.5410265625 0.0625
vt 0.74206328125 0.9939265625
vt 0.74980390625 0.9847984375
vt 0.75877421875 0.9748
vt 0.76418671875 0.98474375
vt 0.65605390625 0.26520156250000004
vt 0.64831328125 0.2560734375
vt 0.67043671875 0.26525624999999997
vt 0.66502421875 0.2752
vt 0.62124609375 0.6665171875
vt 0.62827890625 0.6622109375
vt 0.63197578125 0.6661328125
vt 0.62259921875 0.671875
vt 0.62827890625 0.6622109375
vt 0.63233828125 0.654753125
vt 0.63738828125 0.6561890625
vt 0.63197578125 0.6661328125
vt 0.63233828125 0.654753125
vt 0.63233828125 0.646140625
vt 0.63738828125 0.6447046875
vt 0.63738828125 0.6561890625
vt 0.63233828125 0.646140625
vt 0.62827890625 0.63868125
vt 0.63197578125 0.6347609375000001
vt 0.63738828125 0.6447046875
vt 0.62827890625 0.63868125
vt 0.62124609375 0.6343765625
vt 0.62259921875 0.62901875
vt 0.63197578125 0.6347609375000001
vt 0.62124609375 0.6343765625
vt 0.61312734375 0.6343765625
vt 0.61177421875 0.62901875
vt 0.62259921875 0.62901875
vt 0.61312734375 0.6343765625
vt 0.60609609375 0.63868125
vt 0.60239921875 0.6347609375000001
vt 0.61177421875 0.62901875
vt 0.60609609375 0.63868125
vt 0.60203671875 0.646140625
vt 0.59698671875 0.6447046875
vt 0.60239921875 0.6347609375000001
vt 0.60203671875 0.646140625
vt 0.60203671875 0.654753125
vt 0.59698671875 0.6561890625
vt 0.59698671875 0.6447046875
vt 0.60203671875 0.654753125
vt 0.60609609375 0.6622109375
vt 0.60239921875 0.6661328125
vt 0.59698671875 0.6561890625
vt 0.60609609375 0.6622109375
vt 0.61312734375 0.6665171875
vt 0.61177421875 0.671875
vt 0.60239921875 0.6661328125
vt 0.61312734375 0.6665171875
vt 0.62124609375 0.6665171875
vt 0.62259921875 0.671875
vt 0.61177421875 0.671875
vt 0.46499609375 0.39687343750000004
vt 0.47202890625 0.39256875
vt 0.47572578125 0.39648906250000004
vt 0.46634921875 0.40223125000000004
vt 0.47202890625 0.39256875
vt 0.47608828125 0.385109375
vt 0.48113828125 0.3865453125
vt 0.47572578125 0.39648906250000004
vt 0.47608828125 0.385109375
vt 0.47608828125 0.37649687499999995
vt 0.48113828125 0.3750609375
vt 0.48113828125 0.3865453125
vt 0.47608828125 0.37649687499999995
vt 0.47202890625 0.36903906249999996
vt 0.47572578125 0.3651171875
vt 0.48113828125 0.3750609375
vt 0.47202890625 0.36903906249999996
vt 0.46499609375 0.3647328125
vt 0.46634921875 0.359375
vt 0.47572578125 0.3651171875
vt 0.46499609375 0.3647328125
vt 0.45687734375 0.3647328125
vt 0.45552421875 0.359375
vt 0.46634921875 0.359375
vt 0.45687734375 0.3647328125
vt 0.44984609375 0.36903906249999996
vt 0.44614921875 0.3651171875
vt 0.45552421875 0.359375
vt 0.44984609375 0.36903906249999996
vt 0.44578671875 0.37649687499999995
vt 0.44073671875 0.3750609375
vt 0.44614921875 0.3651171875
vt 0.44578671875 0.37649687499999995
vt 0.44578671875 0.385109375
vt 0.44073671875 0.3865453125
vt 0.44073671875 0.3750609375
vt 0.44578671875 0.385109375
vt 0.44984609375 0.39256875
vt 0.44614921875 0.39648906250000004
vt 0.44073671875 0.3865453125
vt 0.44984609375 0.39256875
vt 0.45687734375 0.39687343750000004
vt 0.45552421875 0.40223125000000004
vt 0.44614921875 0.39648906250000004
vt 0.45687734375 0.39687343750000004
vt 0.46499609375 0.39687343750000004
vt 0.46634921875 0.40223125000000004
vt 0.45552421875 0.40223125000000004
vt 0.921875 0.859375
vt 0.9375 0.859375
vt 0.9375 0.875
vt 0.921875 0.875
vt 0.796875 0.078125
vt 0.8125 0.078125
vt 0.8125 0.09375
vt 0.796875 0.09375
vt 0.890625 0.828125
vt 0.90625 0.828125
vt 0.90625 0.84375
vt 0.890625 0.84375
vt 0.578125 0.078125
vt 0.59375 0.078125
vt 0.59375 0.09375
vt 0.578125 0.09375
vt 0.921875 0.828125
vt 0.9375 0.828125
vt 0.9375 0.84375
vt 0.921875 0.84375
vt 0.3125 0.09375
vt 0.328125 0.09375
vt 0.328125 0.109375
vt 0.3125 0.109375
vt 0.921875 0.921875
vt 0.9375 0.921875
vt 0.9375 0.9375
vt 0.921875 0.9375
vt 0.484375 0.078125
vt 0.5 0.078125
vt 0.5 0.09375
vt 0.484375 0.09375
vt 0.34375 0.09375
vt 0.359375 0.09375
vt 0.359375 0.109375
vt 0.34375 0.109375
vt 0.90625 0.5625
vt 0.921875 0.5625
vt 0.921875 0.578125
vt 0.90625 0.578125
vt 0.921875 0.765625
vt 0.9375 0.765625
vt 0.9375 0.78125
vt 0.921875 0.78125
vt 0.40625 0.09375
vt 0.421875 0.09375
vt 0.421875 0.109375
vt 0.40625 0.109375
vt 0.9375 0.8125
vt 0.921875 0.8125
vt 0.921875 0.796875
vt 0.9375 0.796875
vt 0.921875 0.390625
vt 0.90625 0.390625
vt 0.90625 0.375
vt 0.921875 0.375
vt 0.90625 0.640625
vt 0.890625 0.640625
vt 0.890625 0.625
vt 0.90625 0.625
vt 0.84375 0.09375
vt 0.828125 0.09375
vt 0.828125 0.078125
vt 0.84375 0.078125
vt 0.21875 0.078125
vt 0.203125 0.078125
vt 0.203125 0.0625
vt 0.21875 0.0625
vt 0.90625 0.515625
vt 0.890625 0.515625
vt 0.890625 0.5
vt 0.90625 0.5
vt 0.9375 0.75
vt 0.921875 0.75
vt 0.921875 0.734375
vt 0.9375 0.734375
vt 0.921875 0.546875
vt 0.90625 0.546875
vt 0.90625 0.53125
vt 0.921875 0.53125
vt 0.390625 0.109375
vt 0.375 0.109375
vt 0.375 0.09375
vt 0.390625 0.09375
vt 0.53125 0.09375
vt 0.515625 0.09375
vt 0.515625 0.078125
vt 0.53125 0.078125
vt 0.9375 0.90625
vt 0.921875 0.90625
vt 0.921875 0.890625
vt 0.9375 0.890625
vt 0.90625 0.609375
vt 0.890625 0.609375
vt 0.890625 0.59375
vt 0.90625 0.59375
vn -1 7.674399899431137e-16 -1.2560996924490388e-16
vn -0.6161576274860205 0.4928239424815521 0.6143894040490431
vn -0.1588268197433345 0.6177680743900517 0.7701536519387714
vn 0.15882681974333485 0.6177680743900524 0.7701536519387705
vn 0.8667734970428621 0.3120431191807484 0.38901516242434153
vn 1 -7.674399899431137e-16 1.2560996924490388e-16
vn -1 7.674399899431137e-16 -1.2560996924490388e-16
vn -0.6048749716362887 0.7418806198785891 0.28937763309654646
vn -0.15432694350500464 0.9204746181666879 0.35903993067525697
vn 0.15432694350500606 0.920474618166688 0.3590399306752564
vn 0.8603043751043777 0.4749299524699517 0.1852509714499646
vn 1 -7.674399899431137e-16 1.2560996924490388e-16
vn -1 7.674399899431137e-16 -1.2560996924490388e-16
vn -0.5994612068741358 0.7940045427438649 -0.10101013590284372
vn -0.15221584189089185 0.9804453895439533 -0.12472840734753654
vn 0.15221584189089127 0.9804453895439533 -0.12472840734753654
vn 0.8571236624605747 0.5109923582513961 -0.06500643859532493
vn 1 -7.674399899431137e-16 1.2560996924490388e-16
vn -1 7.674399899431137e-16 -1.2560996924490388e-16
vn -0.6048749716362894 0.6457955986297254 -0.46591234527373593
vn -0.15432694350500722 0.8012589103078408 -0.5780721003133553
vn 0.1543269435050067 0.8012589103078414 -0.578072100313355
vn 0.8603043751043784 0.41341917384593846 -0.29826325431203743
vn 1 -7.674399899431137e-16 1.2560996924490388e-16
vn -1 7.674399899431137e-16 -1.2560996924490388e-16
vn -0.6171189764249552 0.3170988071928582 -0.7201475650261426
vn -0.15411885099775968 0.3002585663165276 -0.9413246905933541
vn 0.15882681974333626 0.405259629026685 -0.9002992138235885
vn 0.8667734970428619 0.20470219158602104 -0.454753469018069
vn 1 -7.674399899431137e-16 1.2560996924490388e-16
vn -1 7.674399899431137e-16 -1.2560996924490388e-16
vn -0.5118541174583862 -0.10841404938325974 -0.8522040579211182
vn -0.11159573875245463 -0.12541069091662985 -0.9858085765989804
vn 0.1115957387524544 -0.12541069091663126 -0.9858085765989802
vn 0.9125741715765135 -0.051604173742236054 -0.405641948796992
vn 1 -7.674399899431137e-16 1.2560996924490388e-16
vn -1 7.674399899431137e-16 -1.2560996924490388e-16
vn -0.6154885786916846 -0.4880992086025886 -0.6188157820075508
vn -0.11153342343262124 -0.32558231680366045 -0.9389123763387939
vn 0.10494087783531664 -0.34981075350817953 -0.9309241907315509
vn 0.8667734970428616 -0.3120431191807494 -0.38901516242434175
vn 1 -7.674399899431137e-16 1.2560996924490388e-16
vn -1 7.674399899431137e-16 -1.2560996924490388e-16
vn -0.6048749716362891 -0.7418806198785886 -0.28937763309654674
vn -0.16104626356109733 -0.8317928557421809 -0.5312106419578555
vn 0.1617729400864361 -0.8052506794765513 -0.5704391808583481
vn 0.8603043751043772 -0.4749299524699527 -0.18525097144996444
vn 1 -7.674399899431137e-16 1.2560996924490388e-16
vn -1 7.674399899431137e-16 -1.2560996924490388e-16
vn -0.5994612068741384 -0.794004542743863 0.10101013590284257
vn -0.1511571169505143 -0.9773257407669738 0.14827650666742448
vn 0.1511128624549603 -0.9771890660523711 0.14921940888625423
vn 0.8571236624605741 -0.5109923582513972 0.06500643859532512
vn 1 -7.674399899431137e-16 1.2560996924490388e-16
vn -1 7.674399899431137e-16 -1.2560996924490388e-16
vn -0.6048749716362902 -0.6457955986297245 0.4659123452737362
vn -0.1393308319944517 -0.6148168324665884 0.7762648914974096
vn 0.13645503415017537 -0.585554174909975 0.7990659121127449
vn 0.8603043751043775 -0.41341917384593996 0.2982632543120375
vn 1 -7.674399899431137e-16 1.2560996924490388e-16
vn -1 7.674399899431137e-16 -1.2560996924490388e-16
vn -0.61615762748602 -0.32329551555854497 0.7182129125200506
vn -0.15882681974333673 -0.40525962902668233 0.9002992138235897
vn 0.15882681974333598 -0.4052596290266842 0.900299213823589
vn 0.8667734970428611 -0.20470219158602204 0.45475346901807
vn 1 -7.674399899431137e-16 1.2560996924490388e-16
vn -1 7.674399899431137e-16 -1.2560996924490388e-16
vn -0.6220409825649024 0.09881186002080417 0.7767246824512016
vn -0.16122956409245556 0.12454789924892133 0.9790264799561028
vn 0.16122956409245506 0.1245478992489211 0.9790264799561029
vn 0.8700632680079111 0.06220852830235323 0.48899898636893846
vn 1 -7.674399899431137e-16 1.2560996924490388e-16
vn 1.9661170975674063e-16 0.38484325562899446 0.9229819438086947
vn 1.9661170975674063e-16 0.38484325562899446 0.9229819438086947
vn 6.064319195428575e-16 0.6749072192742631 -0.7379025988377339
vn 6.064319195428575e-16 0.6749072192742631 -0.7379025988377339
vn 7.849536150954333e-16 0.992004949679715 -0.12619896913582979
vn 7.849536150954333e-16 0.992004949679715 -0.12619896913582979
vn 6.952109004456239e-16 0.8109745187901392 -0.5850814728506639
vn 6.952109004456239e-16 0.8109745187901392 -0.5850814728506639
vn 4.2023759509914487e-16 0.410469946675549 -0.9118741266623219
vn 4.2023759509914487e-16 0.410469946675549 -0.9118741266623219
vn 1.2058372714664547e-17 -0.12619896913582854 -0.9920049496797153
vn 1.2058372714664547e-17 -0.12619896913582854 -0.9920049496797153
vn -1.966117097567406e-16 -0.3848432556289944 -0.9229819438086948
vn -1.966117097567406e-16 -0.3848432556289944 -0.9229819438086948
vn -6.064319195428596e-16 -0.6749072192742661 0.7379025988377313
vn -6.064319195428596e-16 -0.6749072192742661 0.7379025988377313
vn -7.849536150954333e-16 -0.992004949679715 0.12619896913582979
vn -7.849536150954333e-16 -0.992004949679715 0.12619896913582979
vn -6.952109004456244e-16 -0.8109745187901397 0.5850814728506631
vn -6.952109004456244e-16 -0.8109745187901397 0.5850814728506631
vn -4.2023759509914477e-16 -0.41046994667554876 0.911874126662322
vn -4.2023759509914477e-16 -0.41046994667554876 0.911874126662322
vn -1.2058372714663538e-17 0.12619896913582979 0.992004949679715
vn -1.2058372714663538e-17 0.12619896913582979 0.992004949679715
vn 4.2023759509914487e-16 0.410469946675549 -0.9118741266623218
vn 6.952109004456241e-16 0.8109745187901393 -0.5850814728506641
vn 7.849536150954333e-16 0.992004949679715 -0.12619896913582979
vn 6.836816595256162e-16 0.9316357683179727 0.3633934440665939
vn 3.99671250297303e-16 0.6257105578509131 0.780055317137124
vn -1.2058372714663538e-17 0.12619896913582979 0.992004949679715
vn -4.2023759509914477e-16 -0.41046994667554876 0.9118741266623218
vn -6.952109004456245e-16 -0.8109745187901398 0.5850814728506633
vn -7.849536150954333e-16 -0.992004949679715 0.12619896913582979
vn -6.836816595256163e-16 -0.9316357683179728 -0.36339344406659363
vn -3.996712502973019e-16 -0.6257105578509119 -0.780055317137125
vn 1.2058372714664547e-17 -0.12619896913582854 -0.9920049496797153
vn 4.2023759509914487e-16 0.410469946675549 -0.9118741266623218
vn 1.2058372714664547e-17 -0.12619896913582854 -0.9920049496797153
vn -3.996712502973019e-16 -0.6257105578509119 -0.780055317137125
vn -6.836816595256163e-16 -0.9316357683179728 -0.36339344406659363
vn -7.849536150954333e-16 -0.992004949679715 0.12619896913582979
vn -6.952109004456245e-16 -0.8109745187901398 0.5850814728506633
vn -4.2023759509914477e-16 -0.41046994667554876 0.9118741266623218
vn -1.2058372714663538e-17 0.12619896913582979 0.992004949679715
vn 3.99671250297303e-16 0.6257105578509131 0.780055317137124
vn 6.836816595256162e-16 0.9316357683179727 0.3633934440665939
vn 7.849536150954333e-16 0.992004949679715 -0.12619896913582979
vn 6.952109004456241e-16 0.8109745187901393 -0.5850814728506641
vn -0.9125741715765135 -0.05160417374223415 -0.4056419487969919
vn -0.866773497042862 -0.3120431191807482 -0.38901516242434203
vn -0.8603043751043785 -0.47492995246995057 -0.18525097144996386
vn -0.8571236624605749 -0.5109923582513957 0.06500643859532436
vn -0.8603043751043783 -0.4134191738459386 0.29826325431203726
vn -0.8667734970428623 -0.20470219158602015 0.4547534690180685
vn -0.8700632680079115 0.0622085283023545 0.48899898636893774
vn -0.8667734970428616 0.31204311918074995 0.3890151624243417
vn -0.8603043751043777 0.47492995246995207 0.18525097144996333
vn -0.8571236624605739 0.5109923582513977 -0.06500643859532518
vn -0.8603043751043772 0.4134191738459407 -0.29826325431203743
vn -0.866773497042862 0.20470219158602168 -0.45475346901806846
vn 0.511854117458386 -0.10841404938326155 -0.8522040579211183
vn 0.6171189764249552 -0.48730901220151895 -0.6178139651734943
vn 0.6048749716362893 -0.7418806198785884 -0.28937763309654685
vn 0.5994612068741375 -0.7940045427438636 0.10101013590284355
vn 0.6048749716362899 -0.6457955986297248 0.46591234527373604
vn 0.6161576274860209 -0.3232955155585456 0.7182129125200494
vn 0.6220409825649033 0.09881186002080314 0.7767246824512012
vn 0.6161576274860209 0.49282394248155126 0.6143894040490433
vn 0.6048749716362907 0.741880619878587 0.2893776330965473
vn 0.5994612068741377 0.7940045427438633 -0.1010101359028435
vn 0.6048749716362902 0.6457955986297239 -0.4659123452737367
vn 0.6154885786916852 0.31761299907101603 -0.7213153210082288
vn -0.8874870328790495 -0.05072456848065848 -0.4580325148108939
vn -0.8869585662029074 -0.05828486811151438 -0.4581564972675889
vn -0.8907026992579141 -0.05736832208056524 -0.45095185680549793
vn -0.619352732754338 -0.09908043274278358 -0.7788358365388927
vn -0.6193527327543379 -0.09908043274278357 -0.7788358365388925
vn -0.16012731016068468 -0.12457054438755913 -0.9792044852898147
vn -0.16012731016068496 -0.12457054438755913 -0.9792044852898147
vn 0.1601273101606842 -0.12457054438755939 -0.9792044852898149
vn 0.16012731016068474 -0.12457054438755938 -0.9792044852898147
vn 0.6193527327543378 -0.09908043274278454 -0.7788358365388925
vn 0.619352732754338 -0.09908043274278452 -0.7788358365388924
vn 0.8874870328790494 -0.06557331163166968 -0.4561435160924653
vn 0.8869585662029071 -0.05828486811151583 -0.4581564972675894
vn 0.8907026992579139 -0.057368322080566664 -0.45095185680549815
vn 0.007846303468734347 -0.9986556618984864 -0.0512377251639118
vn -0.005466328277231184 0.9522576651765834 -0.305246553408237
vn 0.044321546039995434 -0.12607495561050244 -0.9910301237219958
vn 0.1178182169187845 0.9750544469549494 -0.18811616952153837
vn -0.00800635711317028 -0.9895800633509029 -0.14376090033176442
vn -0.177434561989894 -0.9595550860144251 0.2185658095752947
vn -0.1886783451004238 0.9741874904773898 -0.12393230203433961
vn 0.1886783451004245 -0.97418749047739 0.12393230203433843
vn 0.1774345619898937 0.9837155006253027 -0.0286494335190942
vn -0.11781821691878615 -0.9910971893471238 0.062009910742633775
vn 0.008006357113170262 0.9220647484904587 -0.3869528367088213
vn -0.00784630346873458 0.9540172207829768 -0.2996490913909159
vn 0.005466328277231195 -0.998353644852634 -0.057097452347949676
vn -0.044321546039994525 -0.1260749556105019 -0.991030123721996
vn -0.0751108392402562 -0.9970828121678884 -0.01357304343174651
vn 0.1111974460541582 0.9921683074588407 0.05689620079840191
vn -0.4746172828766978 -0.11107935730364858 -0.8731550899901741
vn 0.47461728287669874 0.11107935730364868 0.8731550899901735
vn -0.10608684350071808 0.9632981839043141 -0.24658100195007854
vn 0.10085994370223494 -0.9457416545393412 0.30886889552943225
vn -0.08898340181858037 0.982696302491606 -0.16244978076353117
vn 0.07869597097583675 -0.9644471379331567 0.2522868650657679
vn 0.17063164632566377 0.9774570858684135 -0.12434824710394127
vn -0.18624720273892958 -0.9823702247973548 -0.016146854291737872
vn -0.159742631387801 0.9854438484223775 -0.05816109802776859
vn 0.21007553588594624 -0.9698685164964485 0.12338285914668673
vn -0.06177664965516154 -0.9965978787153985 0.054555601887903885
vn 0.11322137730616903 0.9927438165094593 -0.04050474667403089
vn 0.15974263138780098 -0.9686175125352499 0.1904269049460354
vn -0.2100755358859463 0.9698685164964485 -0.12338285914668673
vn -0.17063164632566347 -0.9774570858684135 0.12434824710394127
vn 0.18624720273892947 0.9470365656722385 -0.2615983997498
vn 0.08898340181858144 -0.9920692832317555 0.08877213227597881
vn -0.07869597097583902 0.9968948071574543 0.0027726548058152334
vn 0.10608684350071455 -0.9943538159954874 0.0024637879915560407
vn -0.10085994370223528 0.9929521465645008 0.062235893094998634
vn 0.47461728287669885 -0.11107935730364926 -0.8731550899901737
vn -0.47461728287669874 0.11107935730364941 0.8731550899901734
vn 0.07511083924025576 0.9619249531924375 -0.26279030852440427
vn -0.11119744605415736 -0.9463197347376315 0.3035030273936844
vn 0.06177664965515993 0.9785135165060269 -0.19671030367622633
vn -0.11322137730616771 -0.9712641620900585 0.2093486258860835
vn 0.19944182426267024 0.9129188970449487 0.3560927493687744
vn 1 -7.674399899431137e-16 1.2560996924490388e-16
vn -1 7.674399899431137e-16 -1.2560996924490388e-16
vn -1 7.674399899431137e-16 -1.2560996924490388e-16
vn -0.19944182426267268 0.9129188970449467 0.35609274936877827
vn 1 -7.674399899431137e-16 1.2560996924490388e-16
vn -1 7.674399899431137e-16 -1.2560996924490388e-16
vn 1 -7.674399899431137e-16 1.2560996924490388e-16
vn -1 7.674399899431137e-16 -1.2560996924490388e-16
vn 1 -7.674399899431137e-16 1.2560996924490388e-16
vn -1 7.674399899431137e-16 -1.2560996924490388e-16
vn 1 -7.674399899431137e-16 1.2560996924490388e-16
vn -1 7.674399899431137e-16 -1.2560996924490388e-16
vn 1 -7.674399899431137e-16 1.2560996924490388e-16
vn -1 7.674399899431137e-16 -1.2560996924490388e-16
vn 1 -7.674399899431137e-16 1.2560996924490388e-16
vn -1 7.674399899431137e-16 -1.2560996924490388e-16
vn 1 -7.674399899431137e-16 1.2560996924490388e-16
vn -1 7.674399899431137e-16 -1.2560996924490388e-16
vn 1 -7.674399899431137e-16 1.2560996924490388e-16
vn -1 7.674399899431137e-16 -1.2560996924490388e-16
vn 1 -7.674399899431137e-16 1.2560996924490388e-16
vn -1 7.674399899431137e-16 -1.2560996924490388e-16
vn 1 -7.674399899431137e-16 1.2560996924490388e-16
vn -0.19944182426267432 -0.7946817719999395 0.5733269922006227
vn -1 7.674399899431137e-16 -1.2560996924490388e-16
vn 1 -7.674399899431137e-16 1.2560996924490388e-16
vn 1 -7.674399899431137e-16 1.2560996924490388e-16
vn -1 7.674399899431137e-16 -1.2560996924490388e-16
vn 1 -7.674399899431137e-16 1.2560996924490388e-16
vn -1 7.674399899431137e-16 -1.2560996924490388e-16
vn 1 -7.674399899431137e-16 1.2560996924490388e-16
vn -1 7.674399899431137e-16 -1.2560996924490388e-16
vn 1 -7.674399899431137e-16 1.2560996924490388e-16
vn -1 7.674399899431137e-16 -1.2560996924490388e-16
vn 1 -7.674399899431137e-16 1.2560996924490388e-16
vn -1 7.674399899431137e-16 -1.2560996924490388e-16
vn 1 -7.674399899431137e-16 1.2560996924490388e-16
vn -1 7.674399899431137e-16 -1.2560996924490388e-16
vn 1 -7.674399899431137e-16 1.2560996924490388e-16
vn -1 7.674399899431137e-16 -1.2560996924490388e-16
vn 1 -7.674399899431137e-16 1.2560996924490388e-16
vn -1 7.674399899431137e-16 -1.2560996924490388e-16
vn 1 -7.674399899431137e-16 1.2560996924490388e-16
vn -1 7.674399899431137e-16 -1.2560996924490388e-16
vn 1 -7.674399899431137e-16 1.2560996924490388e-16
vn 0.19944182426267365 -0.794681771999939 0.5733269922006239
vn -1 7.674399899431137e-16 -1.2560996924490388e-16
vn 5.847365846764581e-16 0.6429955771641903 -0.7658698895682541
vn -1 7.674399899431137e-16 -1.2560996924490388e-16
vn 1 -7.674399899431137e-16 1.2560996924490388e-16
vn -1 7.674399899431137e-16 -1.2560996924490388e-16
vn -5.740631930871526e-16 -0.6274330018873888 0.7786705517371132
vn 1 -7.674399899431137e-16 1.2560996924490388e-16
vn 1 -7.674399899431137e-16 1.2560996924490388e-16
vn 5.847365846764581e-16 0.6429955771641903 -0.7658698895682541
vn -1 7.674399899431137e-16 -1.2560996924490388e-16
vn -5.740631930871526e-16 -0.6274330018873888 0.7786705517371132
vn 1 -7.674399899431137e-16 1.2560996924490388e-16
vn -1 7.674399899431137e-16 -1.2560996924490388e-16
vn 5.66087477871418e-16 0.6158579254734383 -0.7878572304875756
vn 1 -7.674399899431137e-16 1.2560996924490388e-16
vn -1 7.674399899431137e-16 -1.2560996924490388e-16
vn 1 -7.674399899431137e-16 1.2560996924490388e-16
vn -5.923819519924208e-16 -0.6541968505838188 0.7563243224214152
vn -1 7.674399899431137e-16 -1.2560996924490388e-16
vn -1 7.674399899431137e-16 -1.2560996924490388e-16
vn 5.66087477871418e-16 0.6158579254734383 -0.7878572304875756
vn 1 -7.674399899431137e-16 1.2560996924490388e-16
vn -5.923819519924208e-16 -0.6541968505838188 0.7563243224214152
vn -1 7.674399899431137e-16 -1.2560996924490388e-16
vn 1 -7.674399899431137e-16 1.2560996924490388e-16
vn -1 7.674399899431137e-16 -1.2560996924490388e-16
vn -1 7.674399899431137e-16 -1.2560996924490388e-16
vn -1 7.674399899431137e-16 -1.2560996924490388e-16
vn -1 7.674399899431137e-16 -1.2560996924490388e-16
vn -1 7.674399899431137e-16 -1.2560996924490388e-16
vn -1 7.674399899431137e-16 -1.2560996924490388e-16
vn -1 7.674399899431137e-16 -1.2560996924490388e-16
vn -1 7.674399899431137e-16 -1.2560996924490388e-16
vn -1 7.674399899431137e-16 -1.2560996924490388e-16
vn -1 7.674399899431137e-16 -1.2560996924490388e-16
vn -1 7.674399899431137e-16 -1.2560996924490388e-16
vn -1 7.674399899431137e-16 -1.2560996924490388e-16
vn 1 -7.674399899431137e-16 1.2560996924490388e-16
vn 1 -7.674399899431137e-16 1.2560996924490388e-16
vn 1 -7.674399899431137e-16 1.2560996924490388e-16
vn 1 -7.674399899431137e-16 1.2560996924490388e-16
vn 1 -7.674399899431137e-16 1.2560996924490388e-16
vn 1 -7.674399899431137e-16 1.2560996924490388e-16
vn 1 -7.674399899431137e-16 1.2560996924490388e-16
vn 1 -7.674399899431137e-16 1.2560996924490388e-16
vn 1 -7.674399899431137e-16 1.2560996924490388e-16
vn 1 -7.674399899431137e-16 1.2560996924490388e-16
vn 1 -7.674399899431137e-16 1.2560996924490388e-16
vn 1 -7.674399899431137e-16 1.2560996924490388e-16
vn -4.2023759509914497e-16 -0.4104699466755491 0.9118741266623218
vn -6.952109004456243e-16 -0.8109745187901396 0.5850814728506637
vn -7.849536150954333e-16 -0.992004949679715 0.12619896913582979
vn -6.836816595256163e-16 -0.9316357683179728 -0.36339344406659363
vn -3.9967125029730286e-16 -0.6257105578509129 -0.7800553171371243
vn 1.2058372714663538e-17 -0.12619896913582979 -0.992004949679715
vn 4.2023759509914516e-16 0.4104699466755493 -0.9118741266623218
vn 6.952109004456246e-16 0.81097451879014 -0.585081472850663
vn 7.849536150954333e-16 0.992004949679715 -0.12619896913582979
vn 6.836816595256165e-16 0.931635768317973 0.36339344406659313
vn 3.996712502973022e-16 0.6257105578509122 0.7800553171371247
vn -1.2058372714664208e-17 0.12619896913582893 0.9920049496797151
vn -3.9967125029730286e-16 -0.6257105578509129 -0.7800553171371243
vn -6.836816595256163e-16 -0.9316357683179728 -0.36339344406659363
vn -7.849536150954333e-16 -0.992004949679715 0.12619896913582979
vn -6.952109004456243e-16 -0.8109745187901396 0.5850814728506637
vn -4.2023759509914497e-16 -0.4104699466755491 0.9118741266623218
vn -1.2058372714664208e-17 0.12619896913582893 0.9920049496797151
vn 3.996712502973022e-16 0.6257105578509122 0.7800553171371247
vn 6.836816595256165e-16 0.931635768317973 0.36339344406659313
vn 7.849536150954333e-16 0.992004949679715 -0.12619896913582979
vn 6.952109004456246e-16 0.81097451879014 -0.585081472850663
vn 4.2023759509914516e-16 0.4104699466755493 -0.9118741266623218
vn 1.2058372714663538e-17 -0.12619896913582979 -0.992004949679715
usemtl m_02ed5239-3a17-240f-752a-3c6ff969084b
f 291/1/1 290/2/1 287/3/1
f 222/4/2 221/5/2 223/6/2 224/7/2
f 2/8/3 3/9/3 8/10/3 7/11/3
f 3/12/4 4/13/4 9/14/4 8/15/4
f 10/16/5 129/17/5 128/18/5 5/19/5
f 298/20/6 299/21/6 300/22/6
f 290/23/7 289/24/7 287/25/7
f 220/26/8 219/27/8 221/28/8 222/29/8
f 7/30/9 8/31/9 13/32/9 12/33/9
f 8/34/10 9/35/10 14/36/10 13/37/10
f 15/38/11 130/39/11 129/40/11 10/41/11
f 301/42/12 298/43/12 300/44/12
f 289/45/13 288/46/13 287/47/13
f 218/48/14 217/49/14 219/50/14 220/51/14
f 12/52/15 13/53/15 18/54/15 17/55/15
f 13/56/16 14/57/16 19/58/16 18/59/16
f 20/60/17 131/61/17 130/62/17 15/63/17
f 302/64/18 301/65/18 300/66/18
f 288/67/19 285/68/19 287/69/19
f 192/70/20 190/71/20 217/72/20 218/73/20
f 17/74/21 18/75/21 23/76/21 22/77/21
f 18/78/22 19/79/22 24/80/22 23/81/22
f 25/82/23 132/83/23 131/84/23 20/85/23
f 303/86/24 302/87/24 300/88/24
f 285/89/25 286/90/25 287/91/25
f 189/92/26 191/93/26 190/94/26 192/95/26
f 22/96/27 23/97/27 28/98/27 27/99/27
f 23/100/28 24/101/28 29/102/28 28/103/28
f 30/104/29 121/105/29 132/106/29 25/107/29
f 304/108/30 303/109/30 300/110/30
f 286/111/31 297/112/31 287/113/31
f 151/114/32 149/115/32 148/116/32 152/117/32
f 152/118/33 153/119/33 154/120/33 151/121/33
f 153/122/34 155/123/34 156/124/34 154/125/34
f 159/126/35 158/127/35 157/128/35 160/129/35
f 305/130/36 304/131/36 300/132/36
f 297/133/37 296/134/37 287/135/37
f 234/136/38 233/137/38 235/138/38 236/139/38
f 32/140/39 33/141/39 38/142/39 37/143/39
f 33/144/40 34/145/40 39/146/40 38/147/40
f 40/148/41 123/149/41 122/150/41 35/151/41
f 306/152/42 305/153/42 300/154/42
f 296/155/43 295/156/43 287/157/43
f 232/158/44 231/159/44 233/160/44 234/161/44
f 37/162/45 38/163/45 43/164/45 42/165/45
f 38/166/46 39/167/46 44/168/46 43/169/46
f 45/170/47 124/171/47 123/172/47 40/173/47
f 307/174/48 306/175/48 300/176/48
f 295/177/49 294/178/49 287/179/49
f 230/180/50 229/181/50 231/182/50 232/183/50
f 42/184/51 43/185/51 48/186/51 47/187/51
f 43/188/52 44/189/52 49/190/52 48/191/52
f 50/192/53 125/193/53 124/194/53 45/195/53
f 308/196/54 307/197/54 300/198/54
f 294/199/55 293/200/55 287/201/55
f 228/202/56 227/203/56 229/204/56 230/205/56
f 47/206/57 48/207/57 53/208/57 52/209/57
f 48/210/58 49/211/58 54/212/58 53/213/58
f 55/214/59 126/215/59 125/216/59 50/217/59
f 309/218/60 308/219/60 300/220/60
f 293/221/61 292/222/61 287/223/61
f 226/224/62 225/225/62 227/226/62 228/227/62
f 52/228/63 53/229/63 58/230/63 57/231/63
f 53/232/64 54/233/64 59/234/64 58/235/64
f 60/236/65 127/237/65 126/238/65 55/239/65
f 310/240/66 309/241/66 300/242/66
f 292/243/67 291/244/67 287/245/67
f 224/246/68 223/247/68 225/248/68 226/249/68
f 57/250/69 58/251/69 3/252/69 2/253/69
f 58/254/70 59/255/70 4/256/70 3/257/70
f 5/258/71 128/259/71 127/260/71 60/261/71
f 299/262/72 310/263/72 300/264/72
f 240/265/73 238/266/73 241/267/73 242/268/73
f 247/269/74 248/270/74 245/271/74 243/272/74
f 237/273/75 239/274/75 238/275/75 240/276/75
f 243/277/76 245/278/76 244/279/76 246/280/76
f 16/281/77 108/282/77 107/283/77 11/284/77
f 15/285/78 88/286/78 87/287/78 20/288/78
f 21/289/79 97/290/79 108/291/79 16/292/79
f 20/293/80 87/294/80 86/295/80 25/296/80
f 26/297/81 98/298/81 97/299/81 21/300/81
f 25/301/82 86/302/82 85/303/82 30/304/82
f 31/305/83 99/306/83 98/307/83 26/308/83
f 30/309/84 85/310/84 96/311/84 35/312/84
f 255/313/85 257/314/85 256/315/85 258/316/85
f 249/317/86 251/318/86 250/319/86 252/320/86
f 259/321/87 260/322/87 257/323/87 255/324/87
f 252/325/88 250/326/88 253/327/88 254/328/88
f 46/329/89 102/330/89 101/331/89 41/332/89
f 45/333/90 94/334/90 93/335/90 50/336/90
f 51/337/91 103/338/91 102/339/91 46/340/91
f 50/341/92 93/342/92 92/343/92 55/344/92
f 56/345/93 104/346/93 103/347/93 51/348/93
f 55/349/94 92/350/94 91/351/94 60/352/94
f 1/353/95 105/354/95 104/355/95 56/356/95
f 60/357/96 91/358/96 90/359/96 5/360/96
f 78/361/97 85/362/97 86/363/97 77/364/97
f 77/365/98 86/366/98 87/367/98 76/368/98
f 76/369/99 87/370/99 88/371/99 75/372/99
f 75/373/100 88/374/100 89/375/100 74/376/100
f 74/377/101 89/378/101 90/379/101 73/380/101
f 73/381/102 90/382/102 91/383/102 84/384/102
f 84/385/103 91/386/103 92/387/103 83/388/103
f 83/389/104 92/390/104 93/391/104 82/392/104
f 82/393/105 93/394/105 94/395/105 81/396/105
f 81/397/106 94/398/106 95/399/106 80/400/106
f 80/401/107 95/402/107 96/403/107 79/404/107
f 79/405/108 96/406/108 85/407/108 78/408/108
f 65/409/109 97/410/109 98/411/109 66/412/109
f 66/413/110 98/414/110 99/415/110 67/416/110
f 67/417/111 99/418/111 100/419/111 68/420/111
f 68/421/112 100/422/112 101/423/112 69/424/112
f 69/425/113 101/426/113 102/427/113 70/428/113
f 70/429/114 102/430/114 103/431/114 71/432/114
f 71/433/115 103/434/115 104/435/115 72/436/115
f 72/437/116 104/438/116 105/439/116 61/440/116
f 61/441/117 105/442/117 106/443/117 62/444/117
f 62/445/118 106/446/118 107/447/118 63/448/118
f 63/449/119 107/450/119 108/451/119 64/452/119
f 64/453/120 108/454/120 97/455/120 65/456/120
f 147/457/121 148/458/121 149/459/121 150/460/121
f 31/461/122 110/462/122 111/463/122 36/464/122
f 36/465/123 111/466/123 112/467/123 41/468/123
f 41/469/124 112/470/124 113/471/124 46/472/124
f 46/473/125 113/474/125 114/475/125 51/476/125
f 51/477/126 114/478/126 115/479/126 56/480/126
f 56/481/127 115/482/127 116/483/127 1/484/127
f 1/485/128 116/486/128 117/487/128 6/488/128
f 6/489/129 117/490/129 118/491/129 11/492/129
f 11/493/130 118/494/130 119/495/130 16/496/130
f 16/497/131 119/498/131 120/499/131 21/500/131
f 21/501/132 120/502/132 109/503/132 26/504/132
f 155/505/133 157/506/133 158/507/133 156/508/133
f 215/509/134 216/510/134 214/511/134 213/512/134
f 213/513/135 214/514/135 212/515/135 211/516/135
f 211/517/136 212/518/136 210/519/136 209/520/136
f 209/521/137 210/522/137 208/523/137 207/524/137
f 207/525/138 208/526/138 206/527/138 205/528/138
f 205/529/139 206/530/139 204/531/139 203/532/139
f 203/533/140 204/534/140 202/535/140 201/536/140
f 201/537/141 202/538/141 200/539/141 199/540/141
f 199/541/142 200/542/142 198/543/142 197/544/142
f 197/545/143 198/546/143 194/547/143 193/548/143
f 193/549/144 194/550/144 195/551/144 196/552/144
f 181/553/145 183/554/145 184/555/145 182/556/145
f 185/557/146 187/558/146 188/559/146 186/560/146
f 183/561/147 185/562/147 186/563/147 184/564/147
f 187/565/148 173/566/148 174/567/148 188/568/148
f 179/569/149 181/570/149 182/571/149 180/572/149
f 177/573/150 179/574/150 180/575/150 178/576/150
f 173/577/151 171/578/151 172/579/151 174/580/151
f 175/581/152 177/582/152 178/583/152 176/584/152
f 171/585/153 169/586/153 170/587/153 172/588/153
f 162/589/154 175/590/154 176/591/154 163/592/154
f 169/593/155 167/594/155 168/595/155 170/596/155
f 167/597/156 165/598/156 166/599/156 168/600/156
f 161/601/157 162/602/157 163/603/157 164/604/157
f 165/605/158 161/606/158 164/607/158 166/608/158
f 148/609/159 147/610/159 133/611/159 134/612/159
f 150/613/160 149/614/160 135/615/160 136/616/160
f 147/617/161 150/618/161 136/619/161 133/620/161
f 149/621/162 151/622/162 137/623/162 135/624/162
f 152/625/163 148/626/163 134/627/163 138/628/163
f 153/629/164 152/630/164 138/631/164 139/632/164
f 151/633/165 154/634/165 140/635/165 137/636/165
f 155/637/166 153/638/166 139/639/166 141/640/166
f 154/641/167 156/642/167 142/643/167 140/644/167
f 157/645/168 155/646/168 141/647/168 143/648/168
f 156/649/169 158/650/169 144/651/169 142/652/169
f 158/653/170 159/654/170 145/655/170 144/656/170
f 160/657/171 157/658/171 143/659/171 146/660/171
f 159/661/172 160/662/172 146/663/172 145/664/172
f 162/665/173 161/666/173 146/667/173 143/668/173
f 164/669/174 163/670/174 121/671/174 30/672/174
f 161/673/175 165/674/175 145/675/175 146/676/175
f 166/677/176 164/678/176 30/679/176 35/680/176
f 165/681/177 167/682/177 144/683/177 145/684/177
f 168/685/178 166/686/178 35/687/178 122/688/178
f 167/689/179 169/690/179 142/691/179 144/692/179
f 170/693/180 168/694/180 122/695/180 34/696/180
f 169/697/181 171/698/181 140/699/181 142/700/181
f 172/701/182 170/702/182 34/703/182 33/704/182
f 171/705/183 173/706/183 137/707/183 140/708/183
f 174/709/184 172/710/184 33/711/184 32/712/184
f 175/713/185 162/714/185 143/715/185 141/716/185
f 163/717/186 176/718/186 29/719/186 121/720/186
f 177/721/187 175/722/187 141/723/187 139/724/187
f 176/725/188 178/726/188 28/727/188 29/728/188
f 179/729/189 177/730/189 139/731/189 138/732/189
f 178/733/190 180/734/190 27/735/190 28/736/190
f 181/737/191 179/738/191 138/739/191 134/740/191
f 180/741/192 182/742/192 109/743/192 27/744/192
f 183/745/193 181/746/193 134/747/193 133/748/193
f 182/749/194 184/750/194 26/751/194 109/752/194
f 185/753/195 183/754/195 133/755/195 136/756/195
f 184/757/196 186/758/196 31/759/196 26/760/196
f 187/761/197 185/762/197 136/763/197 135/764/197
f 186/765/198 188/766/198 110/767/198 31/768/198
f 173/769/199 187/770/199 135/771/199 137/772/199
f 188/773/200 174/774/200 32/775/200 110/776/200
f 191/777/201 189/778/201 27/779/201 109/780/201
f 190/781/202 191/782/202 109/783/202 120/784/202
f 189/785/203 192/786/203 22/787/203 27/788/203
f 195/789/204 194/790/204 132/791/204 121/792/204
f 196/793/205 195/794/205 121/795/205 29/796/205
f 193/797/206 196/798/206 29/799/206 24/800/206
f 194/801/207 198/802/207 131/803/207 132/804/207
f 197/805/208 193/806/208 24/807/208 19/808/208
f 198/809/209 200/810/209 130/811/209 131/812/209
f 199/813/210 197/814/210 19/815/210 14/816/210
f 200/817/211 202/818/211 129/819/211 130/820/211
f 201/821/212 199/822/212 14/823/212 9/824/212
f 202/825/213 204/826/213 128/827/213 129/828/213
f 203/829/214 201/830/214 9/831/214 4/832/214
f 204/833/215 206/834/215 127/835/215 128/836/215
f 205/837/216 203/838/216 4/839/216 59/840/216
f 206/841/217 208/842/217 126/843/217 127/844/217
f 207/845/218 205/846/218 59/847/218 54/848/218
f 208/849/219 210/850/219 125/851/219 126/852/219
f 209/853/220 207/854/220 54/855/220 49/856/220
f 210/857/221 212/858/221 124/859/221 125/860/221
f 211/861/222 209/862/222 49/863/222 44/864/222
f 212/865/223 214/866/223 123/867/223 124/868/223
f 213/869/224 211/870/224 44/871/224 39/872/224
f 216/873/225 215/874/225 34/875/225 122/876/225
f 214/877/226 216/878/226 122/879/226 123/880/226
f 215/881/227 213/882/227 39/883/227 34/884/227
f 217/885/228 190/886/228 120/887/228 119/888/228
f 192/889/229 218/890/229 17/891/229 22/892/229
f 219/893/230 217/894/230 119/895/230 118/896/230
f 218/897/231 220/898/231 12/899/231 17/900/231
f 221/901/232 219/902/232 118/903/232 117/904/232
f 220/905/233 222/906/233 7/907/233 12/908/233
f 223/909/234 221/910/234 117/911/234 116/912/234
f 222/913/235 224/914/235 2/915/235 7/916/235
f 225/917/236 223/918/236 116/919/236 115/920/236
f 224/921/237 226/922/237 57/923/237 2/924/237
f 227/925/238 225/926/238 115/927/238 114/928/238
f 226/929/239 228/930/239 52/931/239 57/932/239
f 229/933/240 227/934/240 114/935/240 113/936/240
f 228/937/241 230/938/241 47/939/241 52/940/241
f 231/941/242 229/942/242 113/943/242 112/944/242
f 230/945/243 232/946/243 42/947/243 47/948/243
f 233/949/244 231/950/244 112/951/244 111/952/244
f 232/953/245 234/954/245 37/955/245 42/956/245
f 235/957/246 233/958/246 111/959/246 110/960/246
f 236/961/247 235/962/247 110/963/247 32/964/247
f 234/965/248 236/966/248 32/967/248 37/968/248
f 239/969/249 237/970/249 11/971/249 107/972/249
f 238/973/250 239/974/250 107/975/250 106/976/250
f 237/977/251 240/978/251 6/979/251 11/980/251
f 241/981/252 238/982/252 106/983/252 105/984/252
f 242/985/253 241/986/253 105/987/253 1/988/253
f 240/989/254 242/990/254 1/991/254 6/992/254
f 244/993/255 245/994/255 89/995/255 88/996/255
f 246/997/256 244/998/256 88/999/256 15/1000/256
f 243/1001/257 246/1002/257 15/1003/257 10/1004/257
f 248/1005/258 247/1006/258 5/1007/258 90/1008/258
f 245/1009/259 248/1010/259 90/1011/259 89/1012/259
f 247/1013/260 243/1014/260 10/1015/260 5/1016/260
f 251/1017/261 249/1018/261 35/1019/261 96/1020/261
f 250/1021/262 251/1022/262 96/1023/262 95/1024/262
f 249/1025/263 252/1026/263 40/1027/263 35/1028/263
f 253/1029/264 250/1030/264 95/1031/264 94/1032/264
f 254/1033/265 253/1034/265 94/1035/265 45/1036/265
f 252/1037/266 254/1038/266 45/1039/266 40/1040/266
f 256/1041/267 257/1042/267 100/1043/267 99/1044/267
f 258/1045/268 256/1046/268 99/1047/268 31/1048/268
f 255/1049/269 258/1050/269 31/1051/269 36/1052/269
f 260/1053/270 259/1054/270 41/1055/270 101/1056/270
f 257/1057/271 260/1058/271 101/1059/271 100/1060/271
f 259/1061/272 255/1062/272 36/1063/272 41/1064/272
f 262/1065/273 261/1066/273 65/1067/273 66/1068/273
f 261/1069/274 263/1070/274 64/1071/274 65/1072/274
f 263/1073/275 264/1074/275 63/1075/275 64/1076/275
f 264/1077/276 265/1078/276 62/1079/276 63/1080/276
f 265/1081/277 266/1082/277 61/1083/277 62/1084/277
f 266/1085/278 267/1086/278 72/1087/278 61/1088/278
f 267/1089/279 268/1090/279 71/1091/279 72/1092/279
f 268/1093/280 269/1094/280 70/1095/280 71/1096/280
f 269/1097/281 270/1098/281 69/1099/281 70/1100/281
f 270/1101/282 271/1102/282 68/1103/282 69/1104/282
f 271/1105/283 272/1106/283 67/1107/283 68/1108/283
f 272/1109/284 262/1110/284 66/1111/284 67/1112/284
f 274/1113/285 273/1114/285 74/1115/285 73/1116/285
f 273/1117/286 275/1118/286 75/1119/286 74/1120/286
f 275/1121/287 276/1122/287 76/1123/287 75/1124/287
f 276/1125/288 277/1126/288 77/1127/288 76/1128/288
f 277/1129/289 278/1130/289 78/1131/289 77/1132/289
f 278/1133/290 279/1134/290 79/1135/290 78/1136/290
f 279/1137/291 280/1138/291 80/1139/291 79/1140/291
f 280/1141/292 281/1142/292 81/1143/292 80/1144/292
f 281/1145/293 282/1146/293 82/1147/293 81/1148/293
f 282/1149/294 283/1150/294 83/1151/294 82/1152/294
f 283/1153/295 284/1154/295 84/1155/295 83/1156/295
f 284/1157/296 274/1158/296 73/1159/296 84/1160/296
f 286/1161/297 285/1162/297 261/1163/297 262/1164/297
f 285/1165/298 288/1166/298 263/1167/298 261/1168/298
f 288/1169/299 289/1170/299 264/1171/299 263/1172/299
f 289/1173/300 290/1174/300 265/1175/300 264/1176/300
f 290/1177/301 291/1178/301 266/1179/301 265/1180/301
f 291/1181/302 292/1182/302 267/1183/302 266/1184/302
f 292/1185/303 293/1186/303 268/1187/303 267/1188/303
f 293/1189/304 294/1190/304 269/1191/304 268/1192/304
f 294/1193/305 295/1194/305 270/1195/305 269/1196/305
f 295/1197/306 296/1198/306 271/1199/306 270/1200/306
f 296/1201/307 297/1202/307 272/1203/307 271/1204/307
f 297/1205/308 286/1206/308 262/1207/308 272/1208/308
f 299/1209/309 298/1210/309 273/1211/309 274/1212/309
f 298/1213/310 301/1214/310 275/1215/310 273/1216/310
f 301/1217/311 302/1218/311 276/1219/311 275/1220/311
f 302/1221/312 303/1222/312 277/1223/312 276/1224/312
f 303/1225/313 304/1226/313 278/1227/313 277/1228/313
f 304/1229/314 305/1230/314 279/1231/314 278/1232/314
f 305/1233/315 306/1234/315 280/1235/315 279/1236/315
f 306/1237/316 307/1238/316 281/1239/316 280/1240/316
f 307/1241/317 308/1242/317 282/1243/317 281/1244/317
f 308/1245/318 309/1246/318 283/1247/318 282/1248/318
f 309/1249/319 310/1250/319 284/1251/319 283/1252/319
f 310/1253/320 299/1254/320 274/1255/320 284/1256/320