# Made in Blockbench 5.1.6
mtllib Rush_ArmR.mtl

o cuboid
v 0.8250000000000001 1.0437500000000013 0.10937499999999997
v 0.8250000000000001 1.0437500000000013 -0.11718749999999994
v 0.8250000000000001 0.9187500000000017 0.10937499999999997
v 0.8250000000000001 0.9187500000000017 -0.11718749999999994
v 0.6250000000000001 1.0437500000000013 0.08437499999999995
v 0.6250000000000001 1.0437500000000013 -0.11718749999999994
v 0.6250000000000001 0.9187500000000017 0.08437499999999995
v 0.6250000000000001 0.9187500000000017 -0.11718749999999994
v 0.6250000000000001 0.9937500000000019 -0.11718749999999994
v 0.85 0.9937500000000019 -0.11718749999999994
v 0.85 0.9937500000000019 0.10937499999999997
v 0.6250000000000001 0.9937500000000019 0.08437499999999995
v 0.7250000000000001 0.9937500000000019 -0.11718749999999994
v 0.7250000000000001 1.0437500000000013 -0.11718749999999994
v 0.7250000000000001 1.0437500000000013 0.10937499999999997
v 0.7250000000000001 0.9937500000000019 0.10937499999999997
v 0.7250000000000001 0.9187500000000017 0.10937499999999997
v 0.7250000000000001 0.9187500000000017 -0.11718749999999994
v 0.85 0.9937500000000019 -0.042187500000000024
v 0.8250000000000001 0.9187500000000017 -0.042187500000000024
v 0.7250000000000001 0.9187500000000017 -0.042187500000000024
v 0.6250000000000001 0.9187500000000017 -0.042187500000000024
v 0.6250000000000001 0.9937500000000019 -0.042187500000000024
v 0.6250000000000001 1.0437500000000013 -0.042187500000000024
v 0.7250000000000001 1.0437500000000013 -0.042187500000000024
v 0.8250000000000001 1.0437500000000013 -0.042187500000000024
v 0.6250000000000001 0.8812500000000014 -0.14843749999999997
v 0.7250000000000001 0.8812500000000014 -0.14843749999999997
v 0.7250000000000001 0.8812500000000016 -0.042187500000000024
v 0.6250000000000001 0.8812500000000016 -0.042187500000000024
v 0.6812500000000001 0.9187500000000017 -0.042187500000000024
v 0.6812500000000001 0.9187500000000017 0.10937499999999997
v 0.6812500000000001 0.9937500000000019 0.10937499999999997
v 0.6812500000000001 1.0437500000000013 0.10937499999999997
v 0.6812500000000001 1.0437500000000013 -0.042187500000000024
v 0.6812500000000001 1.0437500000000013 -0.11718749999999994
v 0.6812500000000001 0.9937500000000019 -0.11718749999999994
v 0.6812500000000001 0.8812500000000014 -0.14843749999999997
v 0.6812500000000001 0.8812500000000016 -0.042187500000000024
v 0.7250000000000001 0.8937500000000016 -0.11718749999999994
v 0.8171875000000001 0.8937500000000016 -0.042187500000000024
v 0.7250000000000001 0.8937500000000016 -0.042187500000000024
v 0.8171875000000001 0.8937500000000016 -0.11718749999999994
v 0.8171875000000001 0.8937500000000016 0.10937499999999997
v 0.7250000000000001 0.8937500000000016 0.10937499999999997
v 0.6812500000000001 0.8937500000000016 -0.042187500000000024
v 0.6812500000000001 0.8937500000000016 0.10937499999999997
vt 0.6310546875 0.8700625
vt 0.6310546875 0.8502984375
vt 0.6123046875 0.8502984375
vt 0.6123046875 0.8700625
vt 0.09375 0.559375
vt 0.06875 0.559375
vt 0.06875 0.578125
vt 0.09375 0.578125
vt 0.5533203125 0.89375
vt 0.5763671875 0.89375
vt 0.5763671875 0.875
vt 0.5533203125 0.875
vt 0.62734375 0.44062500000000004
vt 0.62734375 0.421875
vt 0.60234375 0.421875
vt 0.59609375 0.44062500000000004
vt 0.4400390625 0.5
vt 0.4400390625 0.51875
vt 0.4587890625 0.51875
vt 0.4587890625 0.5
vt 0.090625 0.48750000000000004
vt 0.090625 0.5
vt 0.11562499999999999 0.5
vt 0.121875 0.48750000000000004
vt 0.0685546875 0.265625
vt 0.0685546875 0.25164999999999993
vt 0.0498046875 0.25164999999999993
vt 0.0498046875 0.265625
vt 0.62734375 0.453125
vt 0.62734375 0.44062500000000004
vt 0.59609375 0.44062500000000004
vt 0.60234375 0.453125
vt 0.4400390625 0.51875
vt 0.4400390625 0.53125
vt 0.4587890625 0.53125
vt 0.4587890625 0.51875
vt 0.07968750000000001 0.5
vt 0.07968750000000001 0.48750000000000004
vt 0.065625 0.48750000000000004
vt 0.065625 0.5
vt 0.10468749999999999 0.559375
vt 0.10468749999999999 0.578125
vt 0.11875 0.578125
vt 0.11875 0.559375
vt 0.8439859375000001 0.925
vt 0.8439859375000001 0.9375
vt 0.859375 0.9375
vt 0.859375 0.925
vt 0.8439859375000001 0.90625
vt 0.8439859375000001 0.925
vt 0.859375 0.925
vt 0.859375 0.90625
vt 0.7796875 0.78125
vt 0.7796875 0.8078125
vt 0.79375 0.8078125
vt 0.79375 0.78125
vt 0.7671875 0.609375
vt 0.7671875 0.580184375
vt 0.753125 0.580184375
vt 0.753125 0.609375
vt 0.6310546875 0.8502984375
vt 0.6310546875 0.8700625
vt 0.6689453125 0.8700625
vt 0.6689453125 0.8502984375
vt 0.5763671875 0.89375
vt 0.5533203125 0.89375
vt 0.5533203125 0.931640625
vt 0.5763671875 0.931640625
vt 0.796875 0.140625
vt 0.796875 0.171875
vt 0.8125 0.16562500000000002
vt 0.8125 0.140625
vt 0.4400390625 0.51875
vt 0.4400390625 0.5
vt 0.4083984375 0.5
vt 0.4083984375 0.51875
vt 0.4400390625 0.53125
vt 0.4400390625 0.51875
vt 0.4083984375 0.51875
vt 0.4083984375 0.53125
vt 0.10468749999999999 0.521484375
vt 0.10468749999999999 0.559375
vt 0.11875 0.559375
vt 0.11875 0.527734375
vt 0.06875 0.559375
vt 0.09375 0.559375
vt 0.09375 0.521484375
vt 0.06875 0.521484375
vt 0.0685546875 0.25164999999999993
vt 0.0685546875 0.265625
vt 0.1064453125 0.265625
vt 0.1064453125 0.25164999999999993
vt 0.13515625 0.24687499999999996
vt 0.12734375 0.23750000000000004
vt 0.13515625 0.265625
vt 0.4587890625 0.51875
vt 0.4666015625 0.490625
vt 0.4587890625 0.5
vt 0.4587890625 0.5
vt 0.4666015625 0.490625
vt 0.4400390625 0.490625
vt 0.4400390625 0.5
vt 0.6234375 0.06874999999999998
vt 0.6234375 0.078125
vt 0.6375 0.078125
vt 0.6375 0.06874999999999998
vt 0.15390625 0.24687499999999996
vt 0.15390625 0.23750000000000004
vt 0.12734375 0.23750000000000004
vt 0.13515625 0.24687499999999996
vt 0.5873046875 0.931640625
vt 0.5873046875 0.89375
vt 0.5763671875 0.89375
vt 0.5763671875 0.931640625
vt 0.63828125 0.44062500000000004
vt 0.63828125 0.421875
vt 0.62734375 0.421875
vt 0.62734375 0.44062500000000004
vt 0.63828125 0.453125
vt 0.63828125 0.44062500000000004
vt 0.62734375 0.44062500000000004
vt 0.62734375 0.453125
vt 0.10468749999999999 0.559375
vt 0.10468749999999999 0.521484375
vt 0.09375 0.521484375
vt 0.09375 0.559375
vt 0.10468749999999999 0.578125
vt 0.10468749999999999 0.559375
vt 0.09375 0.559375
vt 0.09375 0.578125
vt 0.07968750000000001 0.48750000000000004
vt 0.07968750000000001 0.5
vt 0.090625 0.5
vt 0.090625 0.48750000000000004
vt 0.7671875 0.580184375
vt 0.7671875 0.609375
vt 0.778125 0.609375
vt 0.778125 0.580184375
vt 0.7796875 0.8078125
vt 0.7796875 0.78125
vt 0.76875 0.78125
vt 0.76875 0.8078125
vt 0.6234375 0.078125
vt 0.6234375 0.06874999999999998
vt 0.6125 0.06874999999999998
vt 0.6125 0.078125
vt 0.9375 0.625
vt 0.9375 0.609375
vt 0.921875 0.609375
vt 0.921875 0.625
vt 0.6310546875 0.8502984375
vt 0.6310546875 0.84375
vt 0.6123046875 0.84375
vt 0.6123046875 0.8502984375
vt 0.11562499999999999 0.46875
vt 0.11367187499999999 0.4624999999999999
vt 0.090625 0.4624999999999999
vt 0.090625 0.46875
vt 0.6689453125 0.8502984375
vt 0.6689453125 0.84375
vt 0.6310546875 0.84375
vt 0.6310546875 0.8502984375
vt 0.62734375 0.421875
vt 0.62734375 0.4156249999999999
vt 0.604296875 0.4156249999999999
vt 0.60234375 0.421875
vt 0.40625 0.078125
vt 0.40625 0.0625
vt 0.390625 0.0625
vt 0.390625 0.078125
vt 0.859375 0.171875
vt 0.859375 0.15625
vt 0.828125 0.15625
vt 0.828125 0.171875
vt 0.63828125 0.421875
vt 0.63828125 0.4156249999999999
vt 0.62734375 0.4156249999999999
vt 0.62734375 0.421875
vt 0.090625 0.46875
vt 0.090625 0.48750000000000004
vt 0.121875 0.48750000000000004
vt 0.11562499999999999 0.46875
vn 0.9486832980505144 -0.3162277660168363 0
vn 0 1 0
vn 0 -1 0
vn 0 0 1
vn -1 0 0
vn 0 0 -1
vn 0.8944271909999143 0.44721359549996115 0
vn 0 0 1
vn -1 0 0
vn 0 0 -1
vn 0 1 0
vn -0.4061384660534478 0 0.9138115486202572
vn -0.4061384660534478 0 0.913811548620257
vn 0 -1 2.0898315757650014e-15
vn 0 0.2676438637860938 -0.963517909629941
vn 0.9486832980505144 -0.3162277660168363 0
vn 0 -1 0
vn 0 -1 0
vn -1 0 0
vn -1 0 0
vn 0 1 0
vn 0 1 0
vn 0.8944271909999143 0.44721359549996115 0
vn 1 0 0
vn -1 0 0
vn -1 0 0
vn 0 0 1
vn 1 0 0
vn 0 -1 0
vn 0 0 1
vn 0 0 1
vn 0 1 0
vn 0 1 0
vn 0 0 -1
vn 0 0.2676438637860938 -0.963517909629941
vn 0 -1 2.0898315757650014e-15
vn 0 0 1
vn -1 0 0
vn 0.9544799780350304 -0.2982749931359454 0
vn 0 0 -1
vn 0.9544799780350303 -0.29827499313594535 0
vn 0 0 1
vn 0 0 -1
vn -1 0 0
vn 0 0 1
vn 0 0 -1
usemtl m_02ed5239-3a17-240f-752a-3c6ff969084b
f 19/1/1 20/2/1 4/3/1 10/4/1
f 25/5/2 26/6/2 2/7/2 14/8/2
f 41/9/3 42/10/3 40/11/3 43/12/3
f 16/13/4 17/14/4 3/15/4 11/16/4
f 22/17/5 23/18/5 9/19/5 8/20/5
f 13/21/6 14/22/6 2/23/6 10/24/6
f 26/25/7 19/26/7 10/27/7 2/28/7
f 15/29/8 16/30/8 11/31/8 1/32/8
f 23/33/9 24/34/9 6/35/9 9/36/9
f 36/37/10 37/38/10 9/39/10 6/40/10
f 35/41/11 36/42/11 6/43/11 24/44/11
f 33/45/12 34/46/12 5/47/12 12/48/12
f 32/49/13 33/50/13 12/51/13 7/52/13
f 38/53/14 39/54/14 30/55/14 27/56/14
f 37/57/15 38/58/15 27/59/15 9/60/15
f 20/61/16 19/62/16 11/63/16 3/64/16
f 42/65/17 41/66/17 44/67/17 45/68/17
f 31/69/18 32/70/18 7/71/18 22/72/18
f 23/73/19 22/74/19 7/75/19 12/76/19
f 24/77/20 23/78/20 12/79/20 5/80/20
f 34/81/21 35/82/21 24/83/21 5/84/21
f 26/85/22 25/86/22 15/87/22 1/88/22
f 19/89/23 26/90/23 1/91/23 11/92/23
f 18/93/24 28/94/24 13/95/24
f 9/96/25 27/97/25 8/98/25
f 8/99/26 27/100/26 30/101/26 22/102/26
f 39/103/27 31/104/27 22/105/27 30/106/27
f 21/107/28 29/108/28 28/109/28 18/110/28
f 47/111/29 46/112/29 42/113/29 45/114/29
f 33/115/30 32/116/30 17/117/30 16/118/30
f 34/119/31 33/120/31 16/121/31 15/122/31
f 35/123/32 34/124/32 15/125/32 25/126/32
f 36/127/33 35/128/33 25/129/33 14/130/33
f 37/131/34 36/132/34 14/133/34 13/134/34
f 38/135/35 37/136/35 13/137/35 28/138/35
f 39/139/36 38/140/36 28/141/36 29/142/36
f 31/143/37 39/144/37 29/145/37 21/146/37
f 18/147/38 40/148/38 42/149/38 21/150/38
f 20/151/39 41/152/39 43/153/39 4/154/39
f 4/155/40 43/156/40 40/157/40 18/158/40
f 3/159/41 44/160/41 41/161/41 20/162/41
f 17/163/42 45/164/42 44/165/42 3/166/42
f 21/167/43 42/168/43 46/169/43 31/170/43
f 31/171/44 46/172/44 47/173/44 32/174/44
f 32/175/45 47/176/45 45/177/45 17/178/45
f 18/179/46 13/180/46 10/181/46 4/182/46
o Forearm
v 0.6187499999999997 1.1437500000000005 -0.12187500000000202
v 0.6187500000000004 1.1437500000000005 0.121874999999998
v 0.6187499999999996 0.9562499999999996 -0.121875000000002
v 0.6187500000000002 0.9562499999999996 0.12187499999999803
v 0.3374999999999997 1.1812499999999992 -0.12187500000000119
v 0.33750000000000047 1.1812499999999992 0.12187499999999883
v 0.3374999999999997 0.9562499999999996 -0.12187500000000116
v 0.33750000000000047 0.9562499999999996 0.12187499999999886
v 0.6187499999999995 1.0484375000000001 -0.140625000000002
v 0.33749999999999963 1.0484375000000001 -0.14062500000000117
v 0.3375000000000005 1.0484375000000001 0.14062499999999883
v 0.6187500000000004 1.0484375000000001 0.140624999999998
v 0.7249999999999996 1.1187500000000006 -0.07500000000000234
v 0.725 1.0484375000000001 0.07499999999999772
v 0.7249999999999995 1.0484375000000001 -0.07500000000000233
v 0.7250000000000001 1.1187500000000006 0.07499999999999771
v 0.7249999999999998 1.1375000000000008 -0.04423076923077158
v 0.6187499999999998 1.1625000000000008 -0.07187500000000203
v 0.725 1.1375000000000008 0.04423076923076691
v 0.6187500000000002 1.1625000000000008 0.07187499999999795
v 0.33749999999999986 1.1999999999999995 -0.0718750000000012
v 0.3375000000000003 1.1999999999999995 0.07187499999999879
v 0.33749999999999997 1.0484375000000001 -0.04062500000000118
v 0.3375000000000002 1.0484375000000001 0.040624999999998794
v 0.3374999999999999 0.9374999999999993 -0.05312500000000118
v 0.33750000000000024 0.9374999999999993 0.053124999999998805
v 0.6187499999999998 0.9374999999999993 -0.05312500000000201
v 0.61875 0.9374999999999993 0.05312499999999797
v 0.6187499999999998 1.0484375000000001 -0.04062500000000202
v 0.61875 1.0484375000000001 0.040624999999997954
v 0.7249999999999996 1.0484375000000001 -0.044230769230771565
v 0.7249999999999999 1.0484375000000001 0.04423076923076692
v 0.7072562499999998 1.147925000000001 -0.03866322115384845
v 0.70725625 1.147925000000001 0.03866322115384386
v 0.6187500000000001 1.1687500000000008 0.038663221153844116
v 0.6187499999999999 1.1687500000000008 -0.038663221153848196
v 0.3844687500000002 1.1999874999999998 0.03866322115384481
v 0.38446874999999997 1.1999874999999998 -0.0386632211538475
v 0.6903212083578466 1.1837635730208491 -0.021853125000002253
v 0.6903212083578468 1.1837635730208491 0.021853124999997742
v 0.6175375954317677 1.2301451584067575 0.02185312499999795
v 0.6175375954317674 1.2301451584067575 -0.021853125000002045
v 0.3489789825056886 1.2619392437926644 0.021853124999998745
v 0.3489789825056885 1.2619392437926644 -0.02185312500000125
v 0.3374999999999999 1.1683992187499996 -0.06158372258748298
v 0.33750000000000024 1.1683992187499996 0.06158372258748055
v 0.3375000000000002 1.08003828125 0.04441742554301397
v 0.33749999999999997 1.08003828125 -0.044417425543016364
v 0.33750000000000036 1.07808359375 0.10194218749999884
v 0.33750000000000036 1.1555132812499995 0.10194218749999882
v 0.3374999999999998 1.1555132812499995 -0.10194218750000118
v 0.3374999999999998 1.07808359375 -0.10194218750000117
v 0.38749999999999984 1.1683992187499996 -0.05403241776244666
v 0.3875000000000002 1.1683992187499996 0.05403241776244395
v 0.3875000000000001 1.08003828125 0.03897102662904419
v 0.3874999999999999 1.08003828125 -0.03897102662904687
v 0.3875000000000003 1.07808359375 0.08944218749999869
v 0.3875000000000003 1.1555132812499995 0.08944218749999869
v 0.38749999999999973 1.1555132812499995 -0.08944218750000132
v 0.38749999999999973 1.07808359375 -0.08944218750000132
v 0.7374999999999996 1.0544218750000003 -0.0442307692307716
v 0.7374999999999998 1.0544218750000003 0.04423076923076689
v 0.7374999999999999 1.1235000000000006 0.044230769230766874
v 0.7374999999999997 1.1235000000000006 -0.04423076923077161
v 0.7375 1.1141250000000003 0.0642884615384592
v 0.7374999999999999 1.0606718750000004 0.06428846153845921
v 0.7374999999999995 1.0606718750000004 -0.0642884615384639
v 0.7374999999999996 1.1141250000000003 -0.06428846153846392
v 0.7374999999999995 1.0667235937500004 -0.05895711538461775
v 0.7374999999999996 1.0620204687500003 -0.04200434455129932
v 0.7374999999999997 1.1159014062500006 -0.04200434455129932
v 0.7374999999999996 1.1084170312500004 -0.05895711538461775
v 0.7374999999999998 1.0620204687500003 0.04200434455129459
v 0.7374999999999999 1.1159014062500006 0.04200434455129459
v 0.7375 1.1084170312500004 0.05895711538461305
v 0.7374999999999999 1.0667235937500004 0.05895711538461305
v 0.6999999999999995 1.0718825017009803 -0.05270711538461764
v 0.6999999999999995 1.0682704687500004 -0.037551495192354636
v 0.6999999999999996 1.1096514062500005 -0.037551495192354636
v 0.6999999999999996 1.103903353813059 -0.05270711538461764
v 0.6999999999999997 1.0682704687500004 0.03755149519235013
v 0.6999999999999998 1.1096514062500005 0.03755149519235013
v 0.6999999999999998 1.103903353813059 0.05270711538461316
v 0.6999999999999997 1.0718825017009803 0.05270711538461316
vt 0.0250125 0.09902968750000007
vt 0.0250125 0.109375
vt 0.028801562500000003 0.10793906250000007
vt 0.028801562500000003 0.09993281250000008
vt 0.6818046875 0.9375
vt 0.6855703125 0.915409375
vt 0.6729515625 0.9149203125
vt 0.6729515625 0.9342781250000001
vt 0.37150997265222874 0.5996484375
vt 0.43775997265222877 0.625
vt 0.4419474726522288 0.6123234375
vt 0.37569747265222875 0.586971875
vt 0.6875 0.8125
vt 0.609375 0.8125
vt 0.609375 0.828125
vt 0.6875 0.828125
vt 0.53125 0.671875
vt 0.453125 0.671875
vt 0.453125 0.703125
vt 0.53125 0.6938421875
vt 0.546875 0.765625
vt 0.46875 0.765625
vt 0.46875 0.7876765625
vt 0.546875 0.796875
vt 0.46875 0.75
vt 0.546875 0.75
vt 0.546875 0.71875
vt 0.46875 0.71875
vt 0.21640625 0.633984375
vt 0.21328125 0.60625
vt 0.19609375 0.6109374999999999
vt 0.19140625 0.633984375
vt 0.46875 0.65625
vt 0.546875 0.65625
vt 0.546875 0.625
vt 0.46875 0.625
vt 0.58359375 0.5816406249999999
vt 0.58046875 0.609375
vt 0.60546875 0.609375
vt 0.60078125 0.586328125
vt 0.6737671875 0.328125
vt 0.703125 0.321875
vt 0.703125 0.296875
vt 0.671875 0.296875
vt 0.049218750000000006 0.4
vt 0.07578125 0.39909843749999996
vt 0.07578125 0.39140624999999996
vt 0.049218750000000006 0.375
vt 0.7384625 0.788671875
vt 0.7072406250000001 0.788671875
vt 0.7072406250000001 0.80625
vt 0.7359984375 0.8125
vt 0.34375 0.5949828823695107
vt 0.37150997265222874 0.5996484375
vt 0.3756974669448528 0.5869718922775901
vt 0.34604803770751247 0.5864234007368503
vt 0.296875 0.15248066369344593
vt 0.29305886040233764 0.12459128367121752
vt 0.2842891527276865 0.12664632718989666
vt 0.2842891527276865 0.15625
vt 0.9375 0.421875
vt 0.9375 0.40625
vt 0.921875 0.40625
vt 0.921875 0.421875
vt 0.59375 0.359375
vt 0.59375 0.28844007051394627
vt 0.578125 0.2878205056278975
vt 0.578125 0.35875543511395125
vt 0.6875 0.40625
vt 0.6875 0.34375
vt 0.671875 0.34375
vt 0.671875 0.40625
vt 0.7050546875 0.915409375
vt 0.7088203125 0.9375
vt 0.7176734375 0.9342781250000001
vt 0.7176734375 0.9149203125
vt 0.6855703125 0.915409375
vt 0.6818046875 0.9375
vt 0.7088203125 0.9375
vt 0.7050546875 0.915409375
vt 0.23984375 0.60625
vt 0.23671875 0.633984375
vt 0.26171875 0.633984375
vt 0.25703125 0.6109374999999999
vt 0.21328125 0.60625
vt 0.21640625 0.633984375
vt 0.23671875 0.633984375
vt 0.23984375 0.60625
vt 0.65625 0.375
vt 0.578125 0.375
vt 0.578125 0.390625
vt 0.65625 0.390625
vt 0.53125 0.8125
vt 0.453125 0.8125
vt 0.453125 0.84375
vt 0.53125 0.84375
vt 0.56015625 0.609375
vt 0.55703125 0.5816406249999999
vt 0.53984375 0.586328125
vt 0.53515625 0.609375
vt 0.58046875 0.609375
vt 0.58359375 0.5816406249999999
vt 0.55703125 0.5816406249999999
vt 0.56015625 0.609375
vt 0.07578125 0.42121406250000004
vt 0.049218750000000006 0.4203125
vt 0.049218750000000006 0.4453125
vt 0.07578125 0.42890625000000004
vt 0.07578125 0.39909843749999996
vt 0.049218750000000006 0.4
vt 0.049218750000000006 0.4203125
vt 0.07578125 0.42121406250000004
vt 0.0062375 0.109375
vt 0.0062375 0.09902968750000007
vt 0.0024484374999999992 0.09993281250000008
vt 0.0024484374999999992 0.10793906250000007
vt 0.0250125 0.109375
vt 0.0250125 0.09902968750000007
vt 0.0062375 0.09902968750000007
vt 0.0062375 0.109375
vt 0.3170671875 0.125
vt 0.318459375 0.140625
vt 0.337790625 0.140625
vt 0.3391828125 0.125
vt 0.078125 0.20879800462062958
vt 0.08218125000000001 0.21225581712062958
vt 0.1038375 0.21916206712062958
vt 0.105540625 0.2126448796206295
vt 0.9292230290985959 0.359375
vt 0.9375 0.35768152251902763
vt 0.9320062070927286 0.33562457408196367
vt 0.9292230290985959 0.3312529504585786
vt 0.4641483025507206 0.8665706348639588
vt 0.4557011913386468 0.8666732670336892
vt 0.454978125 0.9257578125
vt 0.4632812439231411 0.9374999914061733
vt 0.46328125 0.9375
vt 0.454978125 0.9257578125
vt 0.435646875 0.9257578125
vt 0.42734375 0.9375
vt 0.4273437560768589 0.9374999914061733
vt 0.435646875 0.9257578125
vt 0.4349238086613532 0.8666732670336892
vt 0.4264766974492794 0.8665706348639588
vt 0.880959375 0.953125
vt 0.8851609375 0.96875
vt 0.8960875 0.96875
vt 0.900290625 0.953125
vt 0.082643486053838 0.2124032257323153
vt 0.08600388999816164 0.22262914875848872
vt 0.10410245478822006 0.234375
vt 0.1038375 0.21916206712062958
vt 0.49137991007283105 0.5539308344178608
vt 0.4912220779570926 0.5698468750000001
vt 0.5095744817972816 0.5584996820675268
vt 0.5133779220429074 0.5487074968357023
vt 0.6604556639341367 0.671723474192873
vt 0.6625619175413346 0.6875
vt 0.7301693360658633 0.6875
vt 0.7195375656054219 0.6725612778238769
vt 0.880959375 0.921875
vt 0.8851625 0.9375
vt 0.8960890625 0.9375
vt 0.900290625 0.921875
vt 0.4328439529570926 0.5619937500000001
vt 0.4241220779570926 0.578125
vt 0.4912220779570926 0.5698468750000001
vt 0.4913798904570926 0.5539328125
vt 0.24453125 0.671875
vt 0.2419578125 0.663975
vt 0.2111671875 0.663975
vt 0.20859375 0.671875
vt 0.21640625 0.633984375
vt 0.2154578125 0.641884375
vt 0.2376671875 0.641884375
vt 0.23671875 0.633984375
vt 0.19140625 0.633984375
vt 0.2010765625 0.6413953125
vt 0.2154578125 0.641884375
vt 0.21640625 0.633984375
vt 0.20859375 0.671875
vt 0.2111671875 0.663975
vt 0.2010765625 0.660753125
vt 0.19609375 0.6671875
vt 0.19609375 0.6671875
vt 0.2010765625 0.660753125
vt 0.2010765625 0.6413953125
vt 0.19140625 0.633984375
vt 0.25703125 0.6671875
vt 0.2520484375 0.660753125
vt 0.2419578125 0.663975
vt 0.24453125 0.671875
vt 0.23671875 0.633984375
vt 0.2376671875 0.641884375
vt 0.2520484375 0.6413953125
vt 0.26171875 0.633984375
vt 0.26171875 0.633984375
vt 0.2520484375 0.6413953125
vt 0.2520484375 0.660753125
vt 0.25703125 0.6671875
vt 0 0.15579062499999996
vt 0.015625 0.15390312500000003
vt 0.015625 0.12688750000000004
vt 0 0.125
vt 0.2984364250383809 0.21998500359013184
vt 0.3109364250383809 0.2186225035901319
vt 0.3109364250383809 0.1991381285901319
vt 0.2984364250383809 0.19777562859013187
vt 0.2984379198769165 0.234375
vt 0.3109377425062432 0.2312506515277588
vt 0.3109364250383809 0.2186225035901319
vt 0.298435925032044 0.21998505809082258
vt 0.9497168219322476 0.9999786094481622
vt 0.9514908977799432 0.984375
vt 0.9420711248749294 0.984375
vt 0.9391341022200568 1
vt 0.421875 0.078125
vt 0.4375 0.078125
vt 0.4375 0.0625
vt 0.421875 0.0625
vt 0.171875 0.046875
vt 0.15932971709382196 0.049811493818243346
vt 0.15932971709382196 0.05923127955260332
vt 0.17183929556526184 0.05745855125771071
vt 0.2984370209994863 0.19777569354989233
vt 0.3109364250383809 0.1991381285901319
vt 0.310939074967956 0.1865109407842852
vt 0.29843841120286835 0.18338643150053258
vt 0.46875 0.0625
vt 0.453125 0.0625
vt 0.453125 0.078125
vt 0.46875 0.078125
vt 0.921875 0.4375
vt 0.921875 0.453125
vt 0.9375 0.453125
vt 0.9375 0.4375
vt 0.9375 0.515625
vt 0.9375 0.5
vt 0.921875 0.5
vt 0.921875 0.515625
vt 0.9613234375 0.665771875
vt 0.9574125 0.6640453125
vt 0.953125 0.667546875
vt 0.954746875 0.671875
vt 0.9548296875 0.625
vt 0.953125 0.6280171875
vt 0.9573265625 0.6311671875
vt 0.9612765625 0.62864375
vt 0.7072406250000001 0.788671875
vt 0.703125 0.79173125
vt 0.703125 0.8050937499999999
vt 0.7072406250000001 0.80625
vt 0.398028125 0.03239687499999999
vt 0.401384375 0.036273437500000005
vt 0.40625 0.03429218749999996
vt 0.405490625 0.03125
vt 0.37379687500000003 0.046875
vt 0.375 0.04234062500000002
vt 0.3703734375 0.039303124999999994
vt 0.3666984375 0.0413734375
vt 0.875 0.125
vt 0.890625 0.12384375000000003
vt 0.890625 0.11047968750000003
vt 0.875 0.107421875
vt 0.788615625 0.84366875
vt 0.7899484375 0.84518125
vt 0.7941859375 0.8440046875
vt 0.7936296875 0.8421062500000001
vt 0.7936296875 0.859375
vt 0.7941859375 0.857475
vt 0.7899484375 0.8556046875
vt 0.788615625 0.8570312499999999
vt 0.788615625 0.8570312499999999
vt 0.7899484375 0.8556046875
vt 0.7899484375 0.84518125
vt 0.788615625 0.84366875
vt 0.7936296875 0.8421062500000001
vt 0.7941859375 0.8440046875
vt 0.8151890625 0.8440046875
vt 0.8157453125 0.8421062500000001
vt 0.8157453125 0.859375
vt 0.8151890625 0.857475
vt 0.7941859375 0.857475
vt 0.7936296875 0.859375
vt 0.820759375 0.8570312499999999
vt 0.8194265625 0.8556046875
vt 0.8151890625 0.857475
vt 0.8157453125 0.859375
vt 0.8157453125 0.8421062500000001
vt 0.8151890625 0.8440046875
vt 0.8194265625 0.84518125
vt 0.820759375 0.84366875
vt 0.820759375 0.84366875
vt 0.8194265625 0.84518125
vt 0.8194265625 0.8556046875
vt 0.820759375 0.8570312499999999
vt 0.8757332198716257 0.17804456132000368
vt 0.8773449832256355 0.1874998259096904
vt 0.8812368492835405 0.1873385560059332
vt 0.8801231072269383 0.17783660238698373
vt 0.783315625 0.054403125
vt 0.7920437499999999 0.05048125000000003
vt 0.790196875 0.046875
vt 0.78125 0.05026406249999993
vt 0.09375 0.0625
vt 0.109375 0.061371875000000076
vt 0.109375 0.05336562500000008
vt 0.09375 0.052076562500000034
vt 0.8801227867835405 0.1778338685059332
vt 0.8812368492835405 0.1873385560059332
vt 0.9000118492835405 0.1873385560059332
vt 0.9011259117835405 0.1778338685059332
vt 0.8855015625 0.375
vt 0.8843875 0.359375
vt 0.8656125 0.359375
vt 0.8644984375 0.375
vt 0.96875 0.84665625
vt 0.95963125 0.84375
vt 0.9579796875 0.84745
vt 0.966903125 0.8508984374999999
vt 0.9011258252212262 0.17783460701723453
vt 0.9000118492835405 0.1873385560059332
vt 0.903903335483013 0.1875
vt 0.9055167801283743 0.17804552336680635
vt 0.140625 0.052076562500000034
vt 0.125 0.05336562500000008
vt 0.125 0.061371875000000076
vt 0.140625 0.0625
vn 1 -1.224646799147357e-16 -2.9629076969683865e-15
vn -1 1.224646799147357e-16 2.9629076969683865e-15
vn 0.12388220917667646 0.9291165688250954 0.34841871330941493
vn 6.614430942666074e-16 -0.9647638212377314 0.2631174057921122
vn -2.91669593187702e-15 0.13979027774953098 -0.9901811340591726
vn 2.930826967697617e-15 0.19302186029333404 0.9811944564911182
vn -2.9278702106543052e-15 -0.19930915164897486 -0.979936662274132
vn -1 1.224646799147357e-16 2.9629076969683865e-15
vn 2.879053547732767e-15 -0.19930915164897464 0.979936662274132
vn 1 -1.224646799147357e-16 -2.9629076969683865e-15
vn 0.4036402065762911 -1.61476784417006e-16 -0.9149178015729331
vn -1.224646799147353e-16 -1 1.224646799147357e-16
vn 0.5254928807219188 3.9838386983621664e-17 0.8507979973592905
vn 0.2975516038182214 0.8939188369594089 0.33521956385978185
vn 0.3187724151737381 0.809391803288277 -0.4932231301288018
vn 0.537409302085657 0.8433215531645133 -1.6955712616454913e-15
vn 0.12388220917667438 0.9291165688250951 -0.3484187133094161
vn 0.11756685846823996 0.9930649695714319 -4.699551334970428e-16
vn -1 1.224646799147357e-16 2.9629076969683865e-15
vn -1 1.224646799147357e-16 2.9629076969683865e-15
vn -1 1.224646799147357e-16 2.9629076969683865e-15
vn -1 1.224646799147357e-16 2.9629076969683865e-15
vn -8.977420793889997e-16 -0.9647638212377312 -0.26311740579211224
vn -1.224646799147353e-16 -1 1.224646799147357e-16
vn 1 -1.224646799147357e-16 -2.9629076969683865e-15
vn 1 -1.224646799147357e-16 -2.9629076969683865e-15
vn -1.224646799147353e-16 -1 1.224646799147357e-16
vn -1.224646799147353e-16 -1 1.224646799147357e-16
vn 1 -1.224646799147357e-16 -2.9629076969683865e-15
vn 1 -1.224646799147357e-16 -2.9629076969683865e-15
vn 0.5065688035288256 0.862199540298749 -1.606505597744942e-15
vn 0.15462679373246016 0.6571638733629493 0.7377168821483108
vn 0.22529056663648217 0.9574849082050558 -0.18018549093689187
vn 0.12992268691464592 0.9744201518598726 0.18337247087352426
vn 0.0002661343884408806 0.9999999645862431 -1.2325320720574038e-16
vn 0.12992268691464487 0.974420151859873 -0.18337247087352382
vn 0.9041388248036137 0.4272387921089804 -2.7312015450613635e-15
vn 0.33464984442821466 0.525144290346654 0.7824531653335431
vn 0.16786323121017957 0.2634168785579028 -0.9499649907751807
vn 0.031316850970728415 0.2645275042772198 0.9638695214219314
vn -0.8677070423677764 -0.49707593848964965 2.63181012024561e-15
vn 0.03306935935959355 0.279330610463287 -0.9596253579026315
vn -1 1.224646799147357e-16 2.9629076969683865e-15
vn -1 1.224646799147357e-16 2.9629076969683865e-15
vn -1 1.224646799147357e-16 2.9629076969683865e-15
vn -1 1.224646799147357e-16 2.9629076969683865e-15
vn -1 1.224646799147357e-16 2.9629076969683865e-15
vn -1 1.224646799147357e-16 2.9629076969683865e-15
vn -1 1.224646799147357e-16 2.9629076969683865e-15
vn -1 1.224646799147357e-16 2.9629076969683865e-15
vn -1.224646799147353e-16 -1 1.224646799147357e-16
vn 1.224646799147353e-16 1 -1.224646799147357e-16
vn 0.009674494141873088 0.9992041186727969 0.03869797656749121
vn -0.051577564351870164 -0.9384603191711299 -0.3415142518208428
vn -0.2425356250363361 -8.91061430639842e-17 -0.9701425001453311
vn -0.08518162692082701 -0.9362956463623311 0.34072650768331164
vn 0.0042154521768865815 0.9992420042263187 -0.038699443829520425
vn -0.2425356250363304 1.4851023843997402e-16 0.9701425001453327
vn 0.4318145135607136 -0.9019624304139972 -1.168968005555931e-15
vn 0.7459376616259216 0.6660157693088448 -2.2917078470966167e-15
vn 0.5723843748134352 0.7428476008889054 0.3472082506551803
vn 0.4157080357446466 -0.8683196569078513 0.2705694041179811
vn 0.6506951623780008 1.3305039954739075e-17 0.7593390584303346
vn 0.7654088910079286 -0.6144071431250013 -0.19144997268996225
vn 0.7122260822568167 0.6359161448721454 -0.2972283035716059
vn 0.6506951623779965 -1.7267938952011625e-16 -0.7593390584303386
vn 1 -1.224646799147357e-16 -2.9629076969683865e-15
vn 1 -1.224646799147357e-16 -2.9629076969683865e-15
vn 1 -1.224646799147357e-16 -2.9629076969683865e-15
vn 1 -1.224646799147357e-16 -2.9629076969683865e-15
vn 1 -1.224646799147357e-16 -2.9629076969683865e-15
vn 1 -1.224646799147357e-16 -2.9629076969683865e-15
vn 1 -1.224646799147357e-16 -2.9629076969683865e-15
vn 1 -1.224646799147357e-16 -2.9629076969683865e-15
vn 0.16995315968927407 0.9586033225193347 0.2284635497547144
vn 0.19417609214169268 -0.9172140920040965 0.34787060046759005
vn 0.1643989873053598 1.0066534679328606e-16 0.9863939238321433
vn 0.1643989873053593 0.9863939238321434 -6.078974410128004e-16
vn 0.16439898730535907 -0.9863939238321434 -3.663006087089132e-16
vn 0.16917164964226694 -0.9215337601075398 -0.3495089153932608
vn 0.18633316209749984 0.9557185941610845 -0.2277760335889339
vn 0.164398987305354 -1.4093148551060053e-16 -0.9863939238321444
usemtl m_02ed5239-3a17-240f-752a-3c6ff969084b
f 128/183/47 129/184/47 130/185/47 131/186/47
f 101/187/48 102/188/48 104/189/48 105/190/48
f 67/191/49 69/192/49 53/193/49 49/194/49
f 73/195/50 75/196/50 51/197/50 55/198/50
f 56/199/51 57/200/51 52/201/51 48/202/51
f 58/203/52 59/204/52 49/205/52 53/206/52
f 57/207/53 56/208/53 50/209/53 54/210/53
f 71/211/54 73/212/54 55/213/54 58/214/54
f 59/215/55 58/216/55 55/217/55 51/218/55
f 75/219/56 77/220/56 59/221/56 51/222/56
f 48/223/57 60/224/57 62/225/57 56/226/57
f 77/227/58 79/228/58 61/229/58 59/230/58
f 59/231/59 61/232/59 63/233/59 49/234/59
f 66/235/60 67/236/60 49/237/60 63/238/60
f 65/239/61 64/240/61 60/241/61 48/242/61
f 88/243/62 87/244/62 86/245/62 89/246/62
f 68/247/63 65/248/63 48/249/63 52/250/63
f 90/251/64 88/252/64 89/253/64 91/254/64
f 103/255/65 100/256/65 106/257/65 107/258/65
f 102/259/66 101/260/66 100/261/66 103/262/66
f 72/263/67 70/264/67 57/265/67 54/266/67
f 73/267/68 71/268/68 70/269/68 72/270/68
f 74/271/69 72/272/69 54/273/69 50/274/69
f 75/275/70 73/276/70 72/277/70 74/278/70
f 76/279/71 74/280/71 50/281/71 56/282/71
f 77/283/72 75/284/72 74/285/72 76/286/72
f 78/287/73 76/288/73 56/289/73 62/290/73
f 79/291/74 77/292/74 76/293/74 78/294/74
f 126/295/75 125/296/75 124/297/75 127/298/75
f 129/299/76 128/300/76 125/301/76 126/302/76
f 64/303/77 80/304/77 81/305/77 66/306/77
f 66/307/78 81/308/78 82/309/78 67/310/78
f 65/311/79 83/312/79 80/313/79 64/314/79
f 67/315/80 82/316/80 84/317/80 69/318/80
f 69/319/81 84/320/81 85/321/81 68/322/81
f 68/323/82 85/324/82 83/325/82 65/326/82
f 80/327/83 86/328/83 87/329/83 81/330/83
f 81/331/84 87/332/84 88/333/84 82/334/84
f 83/335/85 89/336/85 86/337/85 80/338/85
f 82/339/86 88/340/86 90/341/86 84/342/86
f 84/343/87 90/344/87 91/345/87 85/346/87
f 85/347/88 91/348/88 89/349/88 83/350/88
f 68/351/89 92/352/89 93/353/89 69/354/89
f 71/355/90 94/356/90 95/357/90 70/358/90
f 58/359/91 96/360/91 94/361/91 71/362/91
f 69/363/92 93/364/92 97/365/92 53/366/92
f 53/367/93 97/368/93 96/369/93 58/370/93
f 52/371/94 98/372/94 92/373/94 68/374/94
f 70/375/95 95/376/95 99/377/95 57/378/95
f 57/379/96 99/380/96 98/381/96 52/382/96
f 92/383/97 100/384/97 101/385/97 93/386/97
f 94/387/98 102/388/98 103/389/98 95/390/98
f 96/391/99 104/392/99 102/393/99 94/394/99
f 93/395/100 101/396/100 105/397/100 97/398/100
f 97/399/101 105/400/101 104/401/101 96/402/101
f 98/403/102 106/404/102 100/405/102 92/406/102
f 95/407/103 103/408/103 107/409/103 99/410/103
f 99/411/104 107/412/104 106/413/104 98/414/104
f 78/415/105 108/416/105 109/417/105 79/418/105
f 66/419/106 110/420/106 111/421/106 64/422/106
f 63/423/107 112/424/107 110/425/107 66/426/107
f 79/427/108 109/428/108 113/429/108 61/430/108
f 61/431/109 113/432/109 112/433/109 63/434/109
f 62/435/110 114/436/110 108/437/110 78/438/110
f 64/439/111 111/440/111 115/441/111 60/442/111
f 60/443/112 115/444/112 114/445/112 62/446/112
f 114/447/113 116/448/113 117/449/113 108/450/113
f 111/451/114 118/452/114 119/453/114 115/454/114
f 115/455/115 119/456/115 116/457/115 114/458/115
f 108/459/116 117/460/116 120/461/116 109/462/116
f 110/463/117 121/464/117 118/465/117 111/466/117
f 112/467/118 122/468/118 121/469/118 110/470/118
f 109/471/119 120/472/119 123/473/119 113/474/119
f 113/475/120 123/476/120 122/477/120 112/478/120
f 116/479/121 124/480/121 125/481/121 117/482/121
f 118/483/122 126/484/122 127/485/122 119/486/122
f 119/487/123 127/488/123 124/489/123 116/490/123
f 117/491/124 125/492/124 128/493/124 120/494/124
f 121/495/125 129/496/125 126/497/125 118/498/125
f 122/499/126 130/500/126 129/501/126 121/502/126
f 120/503/127 128/504/127 131/505/127 123/506/127
f 123/507/128 131/508/128 130/509/128 122/510/128
o Arm
v 0.3343749999999953 1.0156250000000018 5.389023147467818e-16
v 0.15937499999999533 1.015625000000001 8.772126480466929e-16
v 0.3343749999999951 1.0487682628834885 -0.05624999999999942
v 0.15937499999999508 1.0487682628834878 -0.05624999999999908
v 0.33437499999999504 1.0718750000000015 -0.037362012883486
v 0.15937499999999502 1.0718750000000008 -0.03736201288348566
v 0.33437499999999515 1.0718750000000015 0.037362012883487165
v 0.1593749999999952 1.0718750000000008 0.037362012883487505
v 0.3343749999999953 1.0487682628834885 0.056250000000000556
v 0.1593749999999953 1.0487682628834878 0.056250000000000897
v 0.33437499999999554 0.9824817371165151 0.056250000000000494
v 0.15937499999999558 0.9824817371165144 0.056250000000000834
v 0.3343749999999956 0.9593750000000021 0.0373620128834871
v 0.15937499999999563 0.9593750000000014 0.03736201288348744
v 0.3343749999999955 0.9593750000000021 -0.03736201288348612
v 0.15937499999999546 0.9593750000000014 -0.03736201288348578
v 0.3343749999999953 0.9824817371165151 -0.05624999999999947
v 0.15937499999999535 0.9824817371165144 -0.05624999999999913
v 0.3177083333333285 1.0487682628834885 -0.056249999999999384
v 0.3177083333333287 0.9824817371165151 -0.05624999999999944
v 0.29466911764705395 1.0487682628834882 -0.056249999999999335
v 0.29466911764705417 0.9824817371165149 -0.05624999999999939
v 0.3177083333333289 0.9593750000000021 -0.03736201288348608
v 0.29466911764705433 0.9593750000000019 -0.03736201288348604
v 0.317708333333329 0.9593750000000021 0.03736201288348714
v 0.29466911764705445 0.9593750000000019 0.03736201288348718
v 0.31770833333332893 0.9824817371165151 0.05625000000000052
v 0.2946691176470544 0.9824817371165149 0.05625000000000057
v 0.3177083333333287 1.0487682628834885 0.05625000000000059
v 0.29466911764705417 1.0487682628834882 0.05625000000000064
v 0.31770833333332854 1.0718750000000015 0.03736201288348719
v 0.294669117647054 1.0718750000000012 0.03736201288348724
v 0.31770833333332843 1.0718750000000015 -0.03736201288348597
v 0.2946691176470539 1.0718750000000012 -0.03736201288348592
vt 0.7582859375 0.95
vt 0.7640625 0.945278125
vt 0.75 0.9359375
vt 0.875 0.30992656250000006
vt 0.8675375 0.30992656250000006
vt 0.8675375 0.34375
vt 0.875 0.34375
vt 0.7640625 0.632846875
vt 0.7582859375 0.628125
vt 0.75 0.6421875
vt 0.7640625 0.945278125
vt 0.7640625 0.926596875
vt 0.75 0.9359375
vt 0.399965625 0.26305156250000006
vt 0.381284375 0.26305156250000006
vt 0.381284375 0.296875
vt 0.399965625 0.296875
vt 0.7640625 0.651528125
vt 0.7640625 0.632846875
vt 0.75 0.6421875
vt 0.7640625 0.926596875
vt 0.7582859375 0.921875
vt 0.75 0.9359375
vt 0.46058750000000004 0.10680156250000006
vt 0.453125 0.10680156250000006
vt 0.453125 0.140625
vt 0.46058750000000004 0.140625
vt 0.7582859375 0.65625
vt 0.7640625 0.651528125
vt 0.75 0.6421875
vt 0.7582859375 0.921875
vt 0.7417140625 0.921875
vt 0.75 0.9359375
vt 0.7270359375 0.21617656250000006
vt 0.7104640625 0.21617656250000006
vt 0.7104640625 0.25
vt 0.7270359375 0.25
vt 0.7417140625 0.65625
vt 0.7582859375 0.65625
vt 0.75 0.6421875
vt 0.7417140625 0.921875
vt 0.7359375 0.926596875
vt 0.75 0.9359375
vt 0.71875 0.10680156250000006
vt 0.7112890625 0.10680156250000006
vt 0.7112890625 0.140625
vt 0.71875 0.140625
vt 0.7359375 0.651528125
vt 0.7417140625 0.65625
vt 0.75 0.6421875
vt 0.7359375 0.926596875
vt 0.7359375 0.945278125
vt 0.75 0.9359375
vt 0.728090625 0.37242656250000006
vt 0.709409375 0.37242656250000006
vt 0.709409375 0.40625
vt 0.728090625 0.40625
vt 0.7359375 0.632846875
vt 0.7359375 0.651528125
vt 0.75 0.6421875
vt 0.7359375 0.945278125
vt 0.7417140625 0.95
vt 0.75 0.9359375
vt 0.6793359375 0.10680156250000006
vt 0.671875 0.10680156250000006
vt 0.671875 0.140625
vt 0.6793359375 0.140625
vt 0.7417140625 0.628125
vt 0.7359375 0.632846875
vt 0.75 0.6421875
vt 0.7417140625 0.95
vt 0.7582859375 0.95
vt 0.75 0.9359375
vt 0.7739109375 0.21617656250000006
vt 0.7573390625 0.21617656250000006
vt 0.7573390625 0.25
vt 0.7739109375 0.25
vt 0.7582859375 0.628125
vt 0.7417140625 0.628125
vt 0.75 0.6421875
vt 0.7573390625 0.21041718750000005
vt 0.7739109375 0.21041718750000005
vt 0.7739109375 0.20625000000000004
vt 0.7573390625 0.20625000000000004
vt 0.7573390625 0.21617656250000006
vt 0.7739109375 0.21617656250000006
vt 0.7739109375 0.21041718750000005
vt 0.7573390625 0.21041718750000005
vt 0.671875 0.10104218750000005
vt 0.6793359375 0.10104218750000005
vt 0.6793359375 0.09687500000000004
vt 0.671875 0.09687500000000004
vt 0.671875 0.10680156250000006
vt 0.6793359375 0.10680156250000006
vt 0.6793359375 0.10104218750000005
vt 0.671875 0.10104218750000005
vt 0.709409375 0.36666718750000005
vt 0.728090625 0.36666718750000005
vt 0.728090625 0.36250000000000004
vt 0.709409375 0.36250000000000004
vt 0.709409375 0.37242656250000006
vt 0.728090625 0.37242656250000006
vt 0.728090625 0.36666718750000005
vt 0.709409375 0.36666718750000005
vt 0.7112890625 0.10104218750000005
vt 0.71875 0.10104218750000005
vt 0.71875 0.09687500000000004
vt 0.7112890625 0.09687500000000004
vt 0.7112890625 0.10680156250000006
vt 0.71875 0.10680156250000006
vt 0.71875 0.10104218750000005
vt 0.7112890625 0.10104218750000005
vt 0.7104640625 0.21041718750000005
vt 0.7270359375 0.21041718750000005
vt 0.7270359375 0.20625000000000004
vt 0.7104640625 0.20625000000000004
vt 0.7104640625 0.21617656250000006
vt 0.7270359375 0.21617656250000006
vt 0.7270359375 0.21041718750000005
vt 0.7104640625 0.21041718750000005
vt 0.453125 0.10104218750000005
vt 0.46058750000000004 0.10104218750000005
vt 0.46058750000000004 0.09687500000000004
vt 0.453125 0.09687500000000004
vt 0.453125 0.10680156250000006
vt 0.46058750000000004 0.10680156250000006
vt 0.46058750000000004 0.10104218750000005
vt 0.453125 0.10104218750000005
vt 0.381284375 0.25729218750000005
vt 0.399965625 0.25729218750000005
vt 0.399965625 0.25312500000000004
vt 0.381284375 0.25312500000000004
vt 0.381284375 0.26305156250000006
vt 0.399965625 0.26305156250000006
vt 0.399965625 0.25729218750000005
vt 0.381284375 0.25729218750000005
vt 0.8675375 0.30416718750000005
vt 0.875 0.30416718750000005
vt 0.875 0.30000000000000004
vt 0.8675375 0.30000000000000004
vt 0.8675375 0.30992656250000006
vt 0.875 0.30992656250000006
vt 0.875 0.30416718750000005
vt 0.8675375 0.30416718750000005
vn 1 3.996802888650565e-15 -1.9332019045709208e-15
vn -4.026292430662373e-15 0.6328859753093352 -0.7742450143570521
vn -1 -3.996802888650565e-15 1.9332019045709208e-15
vn 1 3.996802888650565e-15 -1.9332019045709208e-15
vn -3.996802888650562e-15 1 1.010643099614868e-15
vn -1 -3.996802888650565e-15 1.9332019045709208e-15
vn 1 3.996802888650565e-15 -1.9332019045709208e-15
vn -1.0327485579431824e-15 0.6328859753093342 0.7742450143570528
vn -1 -3.996802888650565e-15 1.9332019045709208e-15
vn 1 3.996802888650565e-15 -1.9332019045709208e-15
vn 1.9332019045709247e-15 -1.0106430996148602e-15 1
vn -1 -3.996802888650565e-15 1.9332019045709208e-15
vn 1 3.996802888650565e-15 -1.9332019045709208e-15
vn 4.026292430662372e-15 -0.6328859753093347 0.7742450143570525
vn -1 -3.996802888650565e-15 1.9332019045709208e-15
vn 1 3.996802888650565e-15 -1.9332019045709208e-15
vn 3.996802888650562e-15 -1 -1.010643099614868e-15
vn -1 -3.996802888650565e-15 1.9332019045709208e-15
vn 1 3.996802888650565e-15 -1.9332019045709208e-15
vn 1.0327485579431777e-15 -0.6328859753093334 -0.7742450143570535
vn -1 -3.996802888650565e-15 1.9332019045709208e-15
vn 1 3.996802888650565e-15 -1.9332019045709208e-15
vn -1.933201904570924e-15 8.012824845088422e-16 -1
vn -1 -3.996802888650565e-15 1.9332019045709208e-15
vn -1.933201904570924e-15 8.012824845088421e-16 -1
vn -1.933201904570924e-15 8.012824845088421e-16 -1
vn 1.0327485579431778e-15 -0.6328859753093334 -0.7742450143570534
vn 1.0327485579431777e-15 -0.6328859753093334 -0.7742450143570535
vn 3.996802888650562e-15 -1 -1.010643099614868e-15
vn 3.996802888650562e-15 -1 -1.010643099614868e-15
vn 4.026292430662372e-15 -0.6328859753093348 0.7742450143570525
vn 4.026292430662372e-15 -0.6328859753093348 0.7742450143570525
vn 1.9332019045709247e-15 -1.0106430996148602e-15 1
vn 1.9332019045709247e-15 -1.0106430996148602e-15 1
vn -1.0327485579431824e-15 0.6328859753093342 0.7742450143570527
vn -1.0327485579431824e-15 0.6328859753093342 0.7742450143570527
vn -3.996802888650562e-15 1 1.010643099614868e-15
vn -3.996802888650562e-15 1 1.010643099614868e-15
vn -4.026292430662373e-15 0.6328859753093352 -0.774245014357052
vn -4.026292430662373e-15 0.6328859753093352 -0.774245014357052
usemtl m_02ed5239-3a17-240f-752a-3c6ff969084b
f 134/511/129 136/512/129 132/513/129
f 165/514/130 152/515/130 135/516/130 137/517/130
f 137/518/131 135/519/131 133/520/131
f 136/521/132 138/522/132 132/523/132
f 163/524/133 165/525/133 137/526/133 139/527/133
f 139/528/134 137/529/134 133/530/134
f 138/531/135 140/532/135 132/533/135
f 161/534/136 163/535/136 139/536/136 141/537/136
f 141/538/137 139/539/137 133/540/137
f 140/541/138 142/542/138 132/543/138
f 159/544/139 161/545/139 141/546/139 143/547/139
f 143/548/140 141/549/140 133/550/140
f 142/551/141 144/552/141 132/553/141
f 157/554/142 159/555/142 143/556/142 145/557/142
f 145/558/143 143/559/143 133/560/143
f 144/561/144 146/562/144 132/563/144
f 155/564/145 157/565/145 145/566/145 147/567/145
f 147/568/146 145/569/146 133/570/146
f 146/571/147 148/572/147 132/573/147
f 153/574/148 155/575/148 147/576/148 149/577/148
f 149/578/149 147/579/149 133/580/149
f 148/581/150 134/582/150 132/583/150
f 152/584/151 153/585/151 149/586/151 135/587/151
f 135/588/152 149/589/152 133/590/152
f 151/591/153 150/592/153 134/593/153 148/594/153
f 153/595/154 152/596/154 150/597/154 151/598/154
f 154/599/155 151/600/155 148/601/155 146/602/155
f 155/603/156 153/604/156 151/605/156 154/606/156
f 156/607/157 154/608/157 146/609/157 144/610/157
f 157/611/158 155/612/158 154/613/158 156/614/158
f 158/615/159 156/616/159 144/617/159 142/618/159
f 159/619/160 157/620/160 156/621/160 158/622/160
f 160/623/161 158/624/161 142/625/161 140/626/161
f 161/627/162 159/628/162 158/629/162 160/630/162
f 162/631/163 160/632/163 140/633/163 138/634/163
f 163/635/164 161/636/164 160/637/164 162/638/164
f 164/639/165 162/640/165 138/641/165 136/642/165
f 165/643/166 163/644/166 162/645/166 164/646/166
f 150/647/167 164/648/167 136/649/167 134/650/167
f 152/651/168 165/652/168 164/653/168 150/654/168
o cylinder
v 0.16875000052683556 1.0124999982877851 0.06250000000000058
v 0.16875000052683556 1.0124999982877838 -0.06249999999999971
v 0.23750000013863135 1.0309215067162227 0.06250000000000035
v 0.23750000013863135 1.0309215067162214 -0.062499999999999924
v 0.21907849248660222 1.062828492368739 0.06250000000000003
v 0.21907849248660222 1.0628284923687377 -0.06250000000000025
v 0.18717150605767735 1.0812499986759891 0.062499999999999854
v 0.18717150605767735 1.0812499986759878 -0.06250000000000043
v 0.15032849209839794 1.0812499978995809 0.06249999999999987
v 0.15032849209839794 1.0812499978995795 -0.06250000000000042
v 0.11842150644588156 1.0628284902475515 0.06250000000000007
v 0.11842150644588156 1.0628284902475502 -0.06250000000000021
v 0.10000000013863133 1.0309215038186268 0.06250000000000042
v 0.10000000013863133 1.0309215038186255 -0.06249999999999986
v 0.10000000091503974 0.9940784898593474 0.06250000000000079
v 0.10000000091503974 0.9940784898593461 -0.06249999999999948
v 0.1184215085670689 0.9621715042068311 0.06250000000000111
v 0.1184215085670689 0.9621715042068297 -0.06249999999999916
v 0.1503284949959938 0.9437499978995808 0.06250000000000129
v 0.1503284949959938 0.9437499978995795 -0.06249999999999899
v 0.18717150895527312 0.9437499986759893 0.06250000000000128
v 0.18717150895527312 0.943749998675988 -0.062499999999999
v 0.21907849460778955 0.9621715063280184 0.06250000000000107
v 0.21907849460778955 0.9621715063280171 -0.0624999999999992
v 0.23750000091503978 0.9940784927569433 0.06250000000000072
v 0.23750000091503978 0.9940784927569419 -0.06249999999999954
vt 0.6530421875 0.9875
vt 0.6610203125 0.9828953125
vt 0.6484375 0.9703125
vt 0.40625 0.1875
vt 0.40625 0.15625
vt 0.390625 0.15625
vt 0.390625 0.1875
vt 0.3641453125 0.36085468750000005
vt 0.3561671875 0.35624999999999996
vt 0.3515625 0.3734375
vt 0.6610203125 0.9828953125
vt 0.665625 0.9749171875
vt 0.6484375 0.9703125
vt 0.828125 0.71875
vt 0.828125 0.6875
vt 0.8125 0.6875
vt 0.8125 0.71875
vt 0.36875 0.3688328125
vt 0.3641453125 0.36085468750000005
vt 0.3515625 0.3734375
vt 0.665625 0.9749171875
vt 0.665625 0.9657078125
vt 0.6484375 0.9703125
vt 0.578125 0.65625
vt 0.578125 0.625
vt 0.5625 0.625
vt 0.5625 0.65625
vt 0.36875 0.37804218749999996
vt 0.36875 0.3688328125
vt 0.3515625 0.3734375
vt 0.665625 0.9657078125
vt 0.6610203125 0.9577296875
vt 0.6484375 0.9703125
vt 0.34375 0.1875
vt 0.34375 0.15625
vt 0.328125 0.15625
vt 0.328125 0.1875
vt 0.3641453125 0.3860203125
vt 0.36875 0.37804218749999996
vt 0.3515625 0.3734375
vt 0.6610203125 0.9577296875
vt 0.6530421875 0.953125
vt 0.6484375 0.9703125
vt 0.4375 0.1875
vt 0.4375 0.15625
vt 0.421875 0.15625
vt 0.421875 0.1875
vt 0.3561671875 0.390625
vt 0.3641453125 0.3860203125
vt 0.3515625 0.3734375
vt 0.6530421875 0.953125
vt 0.6438328125 0.953125
vt 0.6484375 0.9703125
vt 0.828125 0.8125
vt 0.828125 0.78125
vt 0.8125 0.78125
vt 0.8125 0.8125
vt 0.3469578125 0.390625
vt 0.3561671875 0.390625
vt 0.3515625 0.3734375
vt 0.6438328125 0.953125
vt 0.6358546875 0.9577296875
vt 0.6484375 0.9703125
vt 0.46875 0.1875
vt 0.46875 0.15625
vt 0.453125 0.15625
vt 0.453125 0.1875
vt 0.3389796875 0.3860203125
vt 0.3469578125 0.390625
vt 0.3515625 0.3734375
vt 0.6358546875 0.9577296875
vt 0.63125 0.9657078125
vt 0.6484375 0.9703125
vt 0.828125 0.765625
vt 0.828125 0.734375
vt 0.8125 0.734375
vt 0.8125 0.765625
vt 0.334375 0.37804218749999996
vt 0.3389796875 0.3860203125
vt 0.3515625 0.3734375
vt 0.63125 0.9657078125
vt 0.63125 0.9749171875
vt 0.6484375 0.9703125
vt 0.09375 0.1875
vt 0.09375 0.15625
vt 0.078125 0.15625
vt 0.078125 0.1875
vt 0.334375 0.3688328125
vt 0.334375 0.37804218749999996
vt 0.3515625 0.3734375
vt 0.63125 0.9749171875
vt 0.6358546875 0.9828953125
vt 0.6484375 0.9703125
vt 0.265625 0.1875
vt 0.265625 0.15625
vt 0.25 0.15625
vt 0.25 0.1875
vt 0.3389796875 0.36085468750000005
vt 0.334375 0.3688328125
vt 0.3515625 0.3734375
vt 0.6358546875 0.9828953125
vt 0.6438328125 0.9875
vt 0.6484375 0.9703125
vt 0.375 0.1875
vt 0.375 0.15625
vt 0.359375 0.15625
vt 0.359375 0.1875
vt 0.3469578125 0.35624999999999996
vt 0.3389796875 0.36085468750000005
vt 0.3515625 0.3734375
vt 0.6438328125 0.9875
vt 0.6530421875 0.9875
vt 0.6484375 0.9703125
vt 0.1875 0.1875
vt 0.1875 0.15625
vt 0.171875 0.15625
vt 0.171875 0.1875
vt 0.3561671875 0.35624999999999996
vt 0.3469578125 0.35624999999999996
vt 0.3515625 0.3734375
vn 4.4408899109558276e-16 1.038058528960369e-14 1
vn 0.8660253932477264 0.5000000182501207 -5.329070712713109e-15
vn -4.4408899109558276e-16 -1.038058528960369e-14 -1
vn 4.4408899109558276e-16 1.038058528960369e-14 1
vn 0.4999999817498789 0.8660254143211509 -9.230221006942869e-15
vn -4.4408899109558276e-16 -1.038058528960369e-14 -1
vn 4.4408899109558276e-16 1.038058528960369e-14 1
vn -2.1073424449902227e-8 0.9999999999999998 -1.0658141036401495e-14
vn -4.4408899109558276e-16 -1.038058528960369e-14 -1
vn 4.4408899109558276e-16 1.038058528960369e-14 1
vn -0.5000000182501207 0.8660253932477264 -9.230220782339336e-15
vn -4.4408899109558276e-16 -1.038058528960369e-14 -1
vn 4.4408899109558276e-16 1.038058528960369e-14 1
vn -0.8660254143211507 0.49999998174987914 -5.329070323688387e-15
vn -4.4408899109558276e-16 -1.038058528960369e-14 -1
vn 4.4408899109558276e-16 1.038058528960369e-14 1
vn -0.9999999999999998 -2.1073423363488276e-8 2.246035183278565e-22
vn -4.4408899109558276e-16 -1.038058528960369e-14 -1
vn 4.4408899109558276e-16 1.038058528960369e-14 1
vn -0.8660253932477265 -0.5000000182501205 5.3290707127131075e-15
vn -4.4408899109558276e-16 -1.038058528960369e-14 -1
vn 4.4408899109558276e-16 1.038058528960369e-14 1
vn -0.4999999817498787 -0.866025414321151 9.23022100694287e-15
vn -4.4408899109558276e-16 -1.038058528960369e-14 -1
vn 4.4408899109558276e-16 1.038058528960369e-14 1
vn 2.1073424449902227e-8 -0.9999999999999998 1.0658141036401495e-14
vn -4.4408899109558276e-16 -1.038058528960369e-14 -1
vn 4.4408899109558276e-16 1.038058528960369e-14 1
vn 0.5000000182501203 -0.8660253932477265 9.230220782339339e-15
vn -4.4408899109558276e-16 -1.038058528960369e-14 -1
vn 4.4408899109558276e-16 1.038058528960369e-14 1
vn 0.8660254143211507 -0.499999981749879 5.329070323688386e-15
vn -4.4408899109558276e-16 -1.038058528960369e-14 -1
vn 4.4408899109558276e-16 1.038058528960369e-14 1
vn 0.9999999999999998 2.107342411683532e-8 -2.2460352635713555e-22
vn -4.4408899109558276e-16 -1.038058528960369e-14 -1
usemtl m_02ed5239-3a17-240f-752a-3c6ff969084b
f 168/655/169 170/656/169 166/657/169
f 171/658/170 170/659/170 168/660/170 169/661/170
f 171/662/171 169/663/171 167/664/171
f 170/665/172 172/666/172 166/667/172
f 173/668/173 172/669/173 170/670/173 171/671/173
f 173/672/174 171/673/174 167/674/174
f 172/675/175 174/676/175 166/677/175
f 175/678/176 174/679/176 172/680/176 173/681/176
f 175/682/177 173/683/177 167/684/177
f 174/685/178 176/686/178 166/687/178
f 177/688/179 176/689/179 174/690/179 175/691/179
f 177/692/180 175/693/180 167/694/180
f 176/695/181 178/696/181 166/697/181
f 179/698/182 178/699/182 176/700/182 177/701/182
f 179/702/183 177/703/183 167/704/183
f 178/705/184 180/706/184 166/707/184
f 181/708/185 180/709/185 178/710/185 179/711/185
f 181/712/186 179/713/186 167/714/186
f 180/715/187 182/716/187 166/717/187
f 183/718/188 182/719/188 180/720/188 181/721/188
f 183/722/189 181/723/189 167/724/189
f 182/725/190 184/726/190 166/727/190
f 185/728/191 184/729/191 182/730/191 183/731/191
f 185/732/192 183/733/192 167/734/192
f 184/735/193 186/736/193 166/737/193
f 187/738/194 186/739/194 184/740/194 185/741/194
f 187/742/195 185/743/195 167/744/195
f 186/745/196 188/746/196 166/747/196
f 189/748/197 188/749/197 186/750/197 187/751/197
f 189/752/198 187/753/198 167/754/198
f 188/755/199 190/756/199 166/757/199
f 191/758/200 190/759/200 188/760/200 189/761/200
f 191/762/201 189/763/201 167/764/201
f 190/765/202 168/766/202 166/767/202
f 169/768/203 168/769/203 190/770/203 191/771/203
f 169/772/204 191/773/204 167/774/204