# Made in Blockbench 5.1.6
mtllib Rush_Body.mtl

o Toe
v -0.2124999999999993 0.031249999999999833 -0.22500000000000075
v -0.21250000000000002 0.09374999999999972 0.012499999999999291
v -0.2124999999999993 -1.6653345369377348e-16 -0.22500000000000075
v -0.2125 -1.6653345369377348e-16 0.012499999999999303
v -0.0624999999999994 0.031249999999999833 -0.2250000000000003
v -0.06250000000000011 0.09374999999999972 0.012499999999999735
v -0.06249999999999939 -1.6653345369377348e-16 -0.2250000000000003
v -0.0625000000000001 -1.6653345369377348e-16 0.012499999999999747
v -0.21249999999999974 0.09374999999999972 -0.08125000000000061
v -0.21249999999999972 -1.6653345369377348e-16 -0.0812500000000006
v -0.06249999999999981 -1.6653345369377348e-16 -0.08125000000000016
v -0.062499999999999827 0.09374999999999972 -0.08125000000000017
vt 0.6109375 0.7109375
vt 0.646875 0.7109375
vt 0.646875 0.734375
vt 0.6109375 0.71875
vt 0.6703125 0.546875
vt 0.634375 0.5625
vt 0.634375 0.5390625
vt 0.6703125 0.5390625
vt 0.25 0.34375
vt 0.25 0.390625
vt 0.21875 0.390625
vt 0.21875 0.34375
vt 0.4890625 0.91875
vt 0.4890625 0.8828125
vt 0.5265625 0.8828125
vt 0.5265625 0.91875
vt 0.828125 0.1875
vt 0.828125 0.203125
vt 0.796875 0.203125
vt 0.796875 0.1875
vt 0.25 0.328125
vt 0.21875 0.328125
vt 0.21875 0.296875
vt 0.25 0.296875
vt 0.6703125 0.734375
vt 0.646875 0.734375
vt 0.646875 0.7109375
vt 0.6703125 0.7109375
vt 0.5265625 0.859375
vt 0.5265625 0.8828125
vt 0.4890625 0.8828125
vt 0.4890625 0.859375
vt 0.6109375 0.5390625
vt 0.634375 0.5390625
vt 0.634375 0.5625
vt 0.6109375 0.5625
vt 0.328125 0.328125
vt 0.328125 0.296875
vt 0.359375 0.296875
vt 0.359375 0.328125
vn -1 -1.224646799147357e-16 -2.9629076969683865e-15
vn 1 1.224646799147357e-16 2.9629076969683865e-15
vn 1.0690799735937048e-15 0.9170700562532355 -0.39872611141444914
vn 1.224646799147353e-16 -1 1.224646799147357e-16
vn 2.9629076969683865e-15 -1.224646799147353e-16 -1
vn -2.9629076969683865e-15 1.224646799147353e-16 1
vn -1 -1.224646799147357e-16 -2.9629076969683865e-15
vn 1.224646799147353e-16 -1 1.224646799147357e-16
vn 1 1.224646799147357e-16 2.9629076969683865e-15
vn -1.224646799147353e-16 1 -1.224646799147357e-16
usemtl m_02ed5239-3a17-240f-752a-3c6ff969084b
f 3/1/1 10/2/1 9/3/1 1/4/1
f 5/5/2 12/6/2 11/7/2 7/8/2
f 1/9/3 9/10/3 12/11/3 5/12/3
f 7/13/4 11/14/4 10/15/4 3/16/4
f 3/17/5 1/18/5 5/19/5 7/20/5
f 6/21/6 2/22/6 4/23/6 8/24/6
f 2/25/7 9/26/7 10/27/7 4/28/7
f 4/29/8 10/30/8 11/31/8 8/32/8
f 8/33/9 11/34/9 12/35/9 6/36/9
f 6/37/10 12/38/10 9/39/10 2/40/10
o Shin
v -0.05000000000000029 0.36960466867353836 0.05416666666666644
v -0.22499999999999976 0.36960466867353836 -0.10000000000000073
v -0.22500000000000037 0.36960466867353836 0.10624999999999923
v -0.2624999999999997 0.10104166666666653 -0.1125000000000008
v -0.2625000000000005 0.10104166666666653 0.16874999999999918
v -0.04999999999999983 0.36960466867353836 -0.1000000000000002
v -0.05000000000000044 0.36960466867353836 0.10624999999999976
v -0.012499999999999767 0.10104166666666659 -0.11250000000000006
v -0.0125000000000006 0.10104166666666659 0.16874999999999993
v -0.2201388888888886 0.10104166666666659 -0.11250000000000067
v -0.21388888888888943 0.10104166666666659 0.16874999999999934
v -0.054861111111110826 0.10104166666666659 -0.11250000000000018
v -0.06111111111111165 0.10104166666666659 0.1687499999999998
v -0.19097222222222263 0.36960466867353836 0.10624999999999934
v -0.08402777777777821 0.36960466867353836 0.10624999999999965
v -0.19097222222222202 0.36960466867353836 -0.10000000000000062
v -0.0840277777777776 0.36960466867353836 -0.10000000000000031
v -0.22500000000000017 0.36960466867353836 0.037499999999999235
v -0.2625000000000002 0.10104166666666653 0.05670731707316991
v -0.225 0.36960466867353836 -0.022916666666667408
v -0.26249999999999996 0.10104166666666653 -0.02789634146341546
v -0.220138888888889 0.10104166666666659 0.01585365853658467
v -0.05486111111111121 0.10104166666666659 0.015853658536585158
v -0.012500000000000268 0.10104166666666659 0.05670731707317065
v -0.012500000000000016 0.10104166666666659 -0.02789634146341472
v -0.05000000000000006 0.36960466867353836 -0.022916666666666887
v -0.08402777777777806 0.36960466867353836 0.05416666666666634
v -0.08402777777777783 0.36960466867353836 -0.02291666666666699
v -0.1909722222222225 0.36960466867353836 0.05416666666666602
v -0.19097222222222227 0.36960466867353836 -0.022916666666667307
v -0.22840277777777745 -1.6653345369377348e-16 -0.12500000000000072
v -0.2749999999999999 -1.6653345369377348e-16 -0.034243348115300186
v -0.22840277777777784 -1.6653345369377348e-16 0.012688470066518135
v -0.27499999999999963 -1.6653345369377348e-16 -0.12500000000000086
v -0.2750000000000002 -1.6653345369377348e-16 0.05651330376940048
v -0.22152777777777796 -1.1102230246251565e-16 0.05651330376940064
v -0.2750000000000005 -1.6653345369377348e-16 0.17670454545454461
v -0.22152777777777832 -1.1102230246251565e-16 0.17670454545454478
v -0.0534722222222224 -1.1102230246251565e-16 0.056513303769401134
v -0.053472222222222754 -1.1102230246251565e-16 0.17670454545454528
v -0.046597222222222276 -1.1102230246251565e-16 0.012688470066518675
v 1.2270941492978283e-17 -1.1102230246251565e-16 -0.034243348115299374
v -2.5663264092728175e-16 -1.1102230246251565e-16 0.056513303769401294
v -6.12748196024383e-16 -1.1102230246251565e-16 0.17670454545454545
v 2.8117452391323826e-16 -1.1102230246251565e-16 -0.12500000000000003
v -0.046597222222221873 -1.1102230246251565e-16 -0.12500000000000017
v -0.22152777777777852 -5.551115123125783e-17 0.24374999999999933
v -0.053472222222222955 -5.551115123125783e-17 0.24374999999999983
v -0.06111111111111183 0.10814633534020524 0.23043166415165667
v -0.21388888888888963 0.10814633534020524 0.2304316641516562
v -0.0840277777777784 0.36960466867353836 0.16711332830331344
v -0.19097222222222282 0.36960466867353836 0.16711332830331313
v -0.06836041666666734 -5.551115123125783e-17 0.23171534090909068
v -0.20663958333333404 -5.551115123125783e-17 0.2317153409090903
v -0.2066395833333339 -1.1102230246251565e-16 0.18873920454545393
v -0.06836041666666721 -1.1102230246251565e-16 0.18873920454545431
v -0.07464583333333401 0.0749999999999999 0.22003124999999973
v -0.20035416666666736 0.0749999999999999 0.22003124999999937
v -0.20035416666666725 0.0749999999999999 0.17996874999999937
v -0.07464583333333388 0.0749999999999999 0.17996874999999973
vt 0.19197421875 0.8228328125
vt 0.21312578125 0.8228328125
vt 0.21436953125 0.890625
vt 0.19509921875 0.890625
vt 0.24240078125 1
vt 0.22313046875 1
vt 0.22437421875 0.9322078125
vt 0.24552578125 0.9322078125
vt 0.11944375 0.933221875
vt 0.11944375 0.9524921875
vt 0.1109375 0.9524921875
vt 0.1109375 0.933221875
vt 0.2703125 0.9984375
vt 0.2703125 0.9757484375
vt 0.2819625 0.964015625
vt 0.2819625 0.9984375
vt 0.2265625 0.7140375
vt 0.237153125 0.7140375
vt 0.24444375 0.78125
vt 0.2359375 0.78125
vt 0.404253125 0.46875
vt 0.395746875 0.46875
vt 0.401475 0.399815625
vt 0.413628125 0.399815625
vt 0.3274125 0.9984375
vt 0.3274125 0.964015625
vt 0.3390625 0.9757484375
vt 0.3390625 0.9984375
vt 0.15625 0.390625
vt 0.15625 0.359375
vt 0.203125 0.359375
vt 0.203125 0.390625
vt 0.008246875 0.415440625
vt 0.0204 0.415440625
vt 0.026128125000000002 0.484375
vt 0.017621875000000002 0.484375
vt 0.285590625 0.5421203125
vt 0.323784375 0.5421203125
vt 0.31805625 0.609375
vt 0.29131875 0.609375
vt 0.1546875 0.933221875
vt 0.1546875 0.9524921875
vt 0.14618125 0.9524921875
vt 0.14618125 0.933221875
vt 0.14618125 0.933221875
vt 0.14618125 0.9524921875
vt 0.11944375 0.9524921875
vt 0.11944375 0.933221875
vt 0.2796875 0.78125
vt 0.27118125 0.78125
vt 0.278471875 0.7140375
vt 0.2890625 0.7140375
vt 0.27118125 0.78125
vt 0.24444375 0.78125
vt 0.237153125 0.7140375
vt 0.278471875 0.7140375
vt 0.24666171875 0.890625
vt 0.22947421875000001 0.890625
vt 0.23427578125 0.8228328125
vt 0.26228671875 0.8228328125
vt 0.22947421875000001 0.890625
vt 0.21436953125 0.890625
vt 0.21312578125 0.8228328125
vt 0.23427578125 0.8228328125
vt 0.3390625 0.9230109375
vt 0.3390625 0.953059375
vt 0.32569375 0.953059375
vt 0.32569375 0.9230109375
vt 0.3390625 0.953059375
vt 0.3390625 0.9757484375
vt 0.3274125 0.964015625
vt 0.32569375 0.953059375
vt 0.32569375 0.9230109375
vt 0.32569375 0.953059375
vt 0.28368125 0.953059375
vt 0.28368125 0.9230109375
vt 0.32569375 0.953059375
vt 0.3274125 0.964015625
vt 0.2819625 0.964015625
vt 0.28368125 0.953059375
vt 0.28368125 0.9230109375
vt 0.28368125 0.953059375
vt 0.2703125 0.953059375
vt 0.2703125 0.9230109375
vt 0.28368125 0.953059375
vt 0.2819625 0.964015625
vt 0.2703125 0.9757484375
vt 0.2703125 0.953059375
vt 0.17521328125 0.9322078125
vt 0.20322421875000002 0.9322078125
vt 0.20385859374999998 1
vt 0.19083828125 1
vt 0.20322421875000002 0.9322078125
vt 0.22437421875 0.9322078125
vt 0.22313046875 1
vt 0.20385859374999998 1
vt 0.1109375 0.984784375
vt 0.1109375 0.9717640625
vt 0.11944375 0.9717640625
vt 0.11944375 0.984784375
vt 0.1109375 0.9717640625
vt 0.1109375 0.9524921875
vt 0.11944375 0.9524921875
vt 0.11944375 0.9717640625
vt 0.11944375 0.984784375
vt 0.11944375 0.9717640625
vt 0.14618125 0.9717640625
vt 0.14618125 0.984784375
vt 0.11944375 0.9717640625
vt 0.11944375 0.9524921875
vt 0.14618125 0.9524921875
vt 0.14618125 0.9717640625
vt 0.14618125 0.984784375
vt 0.14618125 0.9717640625
vt 0.1546875 0.967596875
vt 0.1546875 0.984784375
vt 0.14618125 0.9717640625
vt 0.14618125 0.9524921875
vt 0.1546875 0.9524921875
vt 0.1546875 0.967596875
vt 0.16287265625 0.3125
vt 0.19729453125000002 0.3125
vt 0.19416953125 0.34375
vt 0.16208046875 0.34375
vt 0.18884921875 0.7973796875
vt 0.21153828125 0.7973796875
vt 0.21312578125 0.8228328125
vt 0.19197421875 0.8228328125
vt 0.2805375 0.688584375
vt 0.2921875 0.688584375
vt 0.2890625 0.7140375
vt 0.278471875 0.7140375
vt 0.21153828125 0.7973796875
vt 0.23422734375 0.7973796875
vt 0.23427578125 0.8228328125
vt 0.21312578125 0.8228328125
vt 0.23422734375 0.7973796875
vt 0.26427578125 0.7973796875
vt 0.26228671875 0.8228328125
vt 0.23427578125 0.8228328125
vt 0.005121874999999998 0.39010156249999994
vt 0.018490625000000004 0.39010156249999994
vt 0.0204 0.415440625
vt 0.008246875 0.415440625
vt 0.28368125 0.5148796875
vt 0.32569375 0.5148796875
vt 0.323784375 0.5421203125
vt 0.285590625 0.5421203125
vt 0.2663375 0.359375
vt 0.3117875 0.359375
vt 0.30972187500000004 0.390625
vt 0.268403125 0.390625
vt 0.20327265625000002 0.9067546875
vt 0.22596171875 0.9067546875
vt 0.22437421875 0.9322078125
vt 0.20322421875000002 0.9322078125
vt 0.17322421875 0.9067546875
vt 0.20327265625000002 0.9067546875
vt 0.20322421875000002 0.9322078125
vt 0.17521328125 0.9322078125
vt 0.403384375 0.37447656249999994
vt 0.416753125 0.37447656249999994
vt 0.413628125 0.399815625
vt 0.401475 0.399815625
vt 0.22596171875 0.9067546875
vt 0.24865078125 0.9067546875
vt 0.24552578125 0.9322078125
vt 0.22437421875 0.9322078125
vt 0.27145546875 0.3125
vt 0.30587734375 0.3125
vt 0.30666953125 0.34375
vt 0.27458046875 0.34375
vt 0.2234375 0.688584375
vt 0.2350875 0.688584375
vt 0.237153125 0.7140375
vt 0.2265625 0.7140375
vt 0.796875 0.21875
vt 0.828125 0.21875
vt 0.828125 0.234375
vt 0.796875 0.234375
vt 0.4158256827629858 0.7000121515184361
vt 0.4124959952629858 0.6729074640184362
vt 0.4292569327629858 0.6729074640184362
vt 0.4312459952629858 0.6982402765184361
vt 0.0406561535075084 0.5010440929853407
vt 0.037310841007508394 0.5281456554853408
vt 0.021892091007508392 0.5263659679853407
vt 0.023895216007508394 0.5010347179853407
vt 0.4316633746944945 0.765625
vt 0.4158256827629858 0.7000121515184361
vt 0.43124569742683755 0.6982403107413758
vt 0.4468790047370142 0.7656233267403922
vt 0.14618125 1
vt 0.11944375 1
vt 0.11944375 0.984784375
vt 0.14618125 0.984784375
vt 0.037310841007508394 0.5281456554853408
vt 0.02143446764045212 0.59375
vt 0.006218846492491603 0.5937391730723817
vt 0.02189179099445044 0.5263659333567561
vt 0.321971875 0.909259375
vt 0.287403125 0.909259375
vt 0.28368125 0.90625
vt 0.32569375 0.90625
vt 0.321971875 0.920003125
vt 0.321971875 0.909259375
vt 0.32569375 0.90625
vt 0.32569375 0.9230109375
vt 0.287403125 0.920003125
vt 0.321971875 0.920003125
vt 0.32569375 0.9230109375
vt 0.28368125 0.9230109375
vt 0.287403125 0.909259375
vt 0.287403125 0.920003125
vt 0.28368125 0.9230109375
vt 0.28368125 0.90625
vt 0.8204015625 0.640625
vt 0.7889734375 0.640625
vt 0.787403125 0.625
vt 0.821971875 0.625
vt 0.93615546875 0.15625
vt 0.92613984375 0.15625
vt 0.92321953125 0.140625
vt 0.93396328125 0.140625
vt 0.8204015625 0.671875
vt 0.7889734375 0.671875
vt 0.787403125 0.65625
vt 0.821971875 0.65625
vt 0.87073515625 0.078125
vt 0.86071953125 0.078125
vt 0.86291171875 0.0625
vt 0.87365546875 0.0625
vn -0.9903917207729281 0.13829041696530656 -2.9513749441408054e-15
vn 0.9903917207729281 0.13829041696530683 2.917503560842942e-15
vn -1.224646799147353e-16 1 -1.224646799147357e-16
vn 1.224646799147353e-16 -1 1.224646799147357e-16
vn 2.954009727898333e-15 0.046493680098373416 -0.9989185841253082
vn -2.9135509752986623e-15 0.22666311362232971 0.9739732198181997
vn 1.224646799147353e-16 -1 1.224646799147357e-16
vn 1.224646799147353e-16 -1 1.224646799147357e-16
vn -2.9135509752986623e-15 0.2266631136223297 0.9739732198181997
vn -2.9084917808121115e-15 0.23537004521409224 0.9719058297056955
vn -1.224646799147353e-16 1 -1.224646799147357e-16
vn -1.224646799147353e-16 1 -1.224646799147357e-16
vn 2.9540097278983327e-15 0.046493680098373416 -0.9989185841253081
vn 2.954009727898333e-15 0.04649368009837342 -0.9989185841253082
vn -0.9903917207729283 0.13829041696530656 -2.9513749441408062e-15
vn -0.9903917207729281 0.13829041696530653 -2.9513749441408054e-15
vn 1.224646799147353e-16 -1 1.224646799147357e-16
vn 1.224646799147353e-16 -1 1.224646799147357e-16
vn 1.224646799147353e-16 -1 1.224646799147357e-16
vn 1.224646799147353e-16 -1 1.224646799147357e-16
vn 1.224646799147353e-16 -1 1.224646799147357e-16
vn 1.224646799147353e-16 -1 1.224646799147357e-16
vn 0.9903917207729281 0.13829041696530683 2.917503560842942e-15
vn 0.9903917207729281 0.13829041696530686 2.917503560842942e-15
vn -1.224646799147353e-16 1 -1.224646799147357e-16
vn -1.224646799147353e-16 1 -1.224646799147357e-16
vn -1.224646799147353e-16 1 -1.224646799147357e-16
vn -1.224646799147353e-16 1 -1.224646799147357e-16
vn -1.224646799147353e-16 1 -1.224646799147357e-16
vn -1.224646799147353e-16 1 -1.224646799147357e-16
vn 0.9966721341481489 -0.08151476561074208 2.963030217300303e-15
vn -0.9924344820658654 0.12277539984319977 -2.9555274156929877e-15
vn 2.925456115606586e-15 0.12277539984319995 -0.9924344820658655
vn -0.9924344820658654 0.12277539984319977 -2.9555274156929877e-15
vn -0.9924344820658655 0.12277539984319982 -2.955527415692988e-15
vn -2.9633799096210222e-15 0.07848256872685948 0.9969154860899865
vn -2.9556606478106434e-15 0.12222768424516026 0.9925020872542615
vn 2.9576206317172346e-15 0.03131021814844672 -0.9995097149300236
vn 0.9924344820658654 0.12277539984319988 2.9254561156065854e-15
vn 0.9924344820658655 0.12277539984319992 2.925456115606586e-15
vn -2.9633799096210222e-15 0.07848256872685948 0.9969154860899864
vn 0.9924344820658654 0.12277539984319988 2.9254561156065854e-15
vn -0.9966721341481489 -0.08151476561074233 -2.9430648579426145e-15
vn 2.925456115606586e-15 0.12277539984319995 -0.9924344820658655
vn 1.224646799147353e-16 -1 1.224646799147357e-16
vn 0.9975146625067607 0.07045919446050651 2.9469151086834474e-15
vn -0.997551505644167 0.069476283585657 -0.008002475003454107
vn 0.9963364403083677 0.08495844123618443 -0.009785753745539878
vn -1.224646799147353e-16 1 -1.224646799147357e-16
vn -0.9961807827131043 0.08731465027764242 -2.962284669370767e-15
vn 1.224646799147353e-16 -1 1.224646799147357e-16
vn 1.224646799147353e-16 -1 1.224646799147357e-16
vn 1.224646799147353e-16 -1 1.224646799147357e-16
vn 1.224646799147353e-16 -1 1.224646799147357e-16
vn 2.946445641810638e-15 -0.1539311332197348 -0.9880815787300604
vn 0.9965067047287929 -0.08351279800463214 2.962784753597965e-15
vn -2.957078534704673e-15 0.11614793931274064 0.9932319246748988
vn -0.9965067047287929 -0.08351279800463277 -2.9423300174451223e-15
usemtl m_02ed5239-3a17-240f-752a-3c6ff969084b
f 16/41/11 33/42/11 32/43/11 14/44/11
f 18/45/12 38/46/12 37/47/12 20/48/12
f 29/49/13 40/50/13 38/51/13 18/52/13
f 57/53/14 54/54/14 53/55/14 58/56/14
f 20/57/15 24/58/15 29/59/15 18/60/15
f 19/61/16 27/62/16 25/63/16 21/64/16
f 43/65/17 45/66/17 44/67/17 46/68/17
f 24/69/18 35/70/18 34/71/18 22/72/18
f 17/73/19 23/74/19 26/75/19 15/76/19
f 62/77/20 61/78/20 63/79/20 64/80/20
f 14/81/21 32/82/21 42/83/21 28/84/21
f 28/85/22 42/86/22 40/87/22 29/88/22
f 14/89/23 28/90/23 22/91/23 16/92/23
f 28/93/24 29/94/24 24/95/24 22/96/24
f 15/97/25 30/98/25 31/99/25 17/100/25
f 30/101/26 32/102/26 33/103/26 31/104/26
f 49/105/27 47/106/27 48/107/27 50/108/27
f 47/109/28 44/110/28 45/111/28 48/112/28
f 50/113/29 48/114/29 51/115/29 52/116/29
f 48/117/30 45/118/30 53/119/30 51/120/30
f 52/121/31 51/122/31 55/123/31 56/124/31
f 51/125/32 53/126/32 54/127/32 55/128/32
f 21/129/33 36/130/33 13/131/33 19/132/33
f 36/133/34 37/134/34 38/135/34 13/136/34
f 19/137/35 13/138/35 39/139/35 27/140/35
f 13/141/36 38/142/36 40/143/36 39/144/36
f 27/145/37 39/146/37 41/147/37 26/148/37
f 39/149/38 40/150/38 42/151/38 41/152/38
f 26/153/39 41/154/39 30/155/39 15/156/39
f 41/157/40 42/158/40 32/159/40 30/160/40
f 45/161/41 43/162/41 22/163/41 34/164/41
f 46/165/42 44/166/42 33/167/42 16/168/42
f 43/169/43 46/170/43 16/171/43 22/172/43
f 44/173/44 47/174/44 31/175/44 33/176/44
f 47/177/45 49/178/45 17/179/45 31/180/45
f 49/181/46 50/182/46 23/183/46 17/184/46
f 59/185/47 60/186/47 61/187/47 62/188/47
f 53/189/48 45/190/48 34/191/48 35/192/48
f 55/193/49 54/194/49 37/195/49 36/196/49
f 56/197/50 55/198/50 36/199/50 21/200/50
f 52/201/51 56/202/51 21/203/51 25/204/51
f 54/205/52 57/206/52 20/207/52 37/208/52
f 58/209/53 53/210/53 35/211/53 24/212/53
f 57/213/54 58/214/54 24/215/54 20/216/54
f 69/217/55 70/218/55 71/219/55 72/220/55
f 61/221/56 60/222/56 52/223/56 25/224/56
f 59/225/57 62/226/57 23/227/57 50/228/57
f 63/229/58 61/230/58 25/231/58 27/232/58
f 64/233/59 63/234/59 27/235/59 26/236/59
f 62/237/60 64/238/60 26/239/60 23/240/60
f 66/241/61 65/242/61 60/243/61 59/244/61
f 67/245/62 66/246/62 59/247/62 50/248/62
f 68/249/63 67/250/63 50/251/63 52/252/63
f 65/253/64 68/254/64 52/255/64 60/256/64
f 70/257/65 69/258/65 65/259/65 66/260/65
f 71/261/66 70/262/66 66/263/66 67/264/66
f 72/265/67 71/266/67 67/267/67 68/268/67
f 69/269/68 72/270/68 68/271/68 65/272/68
o Thigh
v -0.21874999999999978 0.7 -0.09000000000000077
v -0.21875000000000033 0.7 0.08999999999999925
v -0.21249999999999972 0.3749999999999998 -0.09000000000000072
v -0.21250000000000027 0.3749999999999998 0.0899999999999993
v -0.05624999999999984 0.655 -0.09000000000000029
v -0.05625000000000037 0.655 0.08999999999999973
v -0.05624999999999981 0.3749999999999998 -0.09000000000000026
v -0.056250000000000334 0.3749999999999998 0.08999999999999976
v -0.2437499999999998 0.5634999999999999 -0.11250000000000082
v -0.24375000000000047 0.5634999999999999 0.11249999999999918
v -0.05625000000000043 0.5634999999999999 0.11249999999999974
v -0.056249999999999765 0.5634999999999999 -0.11250000000000027
v -0.1374999999999997 0.5634999999999999 -0.11250000000000052
v -0.13749999999999976 0.7024999999999999 -0.09000000000000054
v -0.13750000000000032 0.7024999999999999 0.08999999999999948
v -0.13750000000000037 0.5634999999999999 0.11249999999999949
v -0.1375000000000003 0.3749999999999998 0.08999999999999952
v -0.13749999999999973 0.3749999999999998 -0.0900000000000005
vt 0.19437500000000002 0.53125
vt 0.2 0.578125
vt 0.14375 0.578125
vt 0.149375 0.53125
vt 0.053750000000000006 0.8206249999999999
vt 0.059375 0.86775
vt 0.0031249999999999993 0.86775
vt 0.00875 0.8206249999999999
vt 0.796875 0.75
vt 0.796875 0.765625
vt 0.75 0.765625
vt 0.75 0.75
vt 0.60546875 0.7949999999999999
vt 0.58671875 0.7949999999999999
vt 0.58671875 0.75
vt 0.60546875 0.75
vt 0.53125 0.516209375
vt 0.5046875 0.516209375
vt 0.5046875 0.46875
vt 0.5234375 0.46875
vt 0.1484375 0.453125
vt 0.1671875 0.453125
vt 0.1671875 0.500584375
vt 0.140625 0.500584375
vt 0.165 0.4375
vt 0.159375 0.40625
vt 0.215625 0.40625
vt 0.21000000000000002 0.4375
vt 0.6015184641450363 0.48042343750000005
vt 0.6280809641450363 0.48042343750000005
vt 0.6280809641450363 0.515625
vt 0.6077684641450363 0.515009375
vt 0.00875 0.890625
vt 0.0031249999999999993 0.86775
vt 0.059375 0.86775
vt 0.053750000000000006 0.890625
vt 0.5484379946152345 0.40563341677931486
vt 0.5281249955003297 0.40625
vt 0.5281249955003297 0.3710484262644831
vt 0.5546875044996704 0.37104777391105825
vt 0.5078124955003296 0.3710484262644831
vt 0.5281249955003297 0.3710484262644831
vt 0.5281249955003297 0.40624998876448315
vt 0.5078124955003296 0.39452811376448316
vt 0.40625 0.90625
vt 0.40625 0.9375
vt 0.359375 0.9375
vt 0.359375 0.90625
vt 0.6484815358549637 0.5039025133423253
vt 0.6280809641450363 0.515625
vt 0.6280809641450363 0.48042257719575165
vt 0.648305134408526 0.4804222008150749
vt 0.1875 0.500584375
vt 0.1671875 0.500584375
vt 0.1671875 0.453125
vt 0.1875 0.453125
vt 0.56640625 0.75
vt 0.58671875 0.75
vt 0.58671875 0.7949999999999999
vt 0.56640625 0.7949999999999999
vt 0.484375 0.46875
vt 0.5046875 0.46875
vt 0.5046875 0.516209375
vt 0.484375 0.516209375
vn -0.9865350075748679 -0.1635502333512718 -2.9029830402949976e-15
vn 1 1.224646799147357e-16 2.9629076969683865e-15
vn -0.03075467578697342 0.9995269630766537 -2.135300152063207e-16
vn 1.224646799147353e-16 -1 1.224646799147357e-16
vn 2.9565381710648495e-15 -0.11852205281617371 -0.9929514202599441
vn -2.9275086405429094e-15 -0.11852205281617345 0.9929514202599441
vn -0.9836384960749287 0.18015357070969423 -2.936492520427274e-15
vn -2.9444057951002106e-15 0.15979061814520884 0.9871509298748455
vn 1 1.224646799147357e-16 2.9629076969683865e-15
vn -0.004916574979918166 0.1597886868474381 -0.9871389987463967
vn 2.90526838129115e-15 0.15979061814520865 -0.9871509298748457
vn 0.5046965873311549 0.8632967941190827 1.3896460376739453e-15
vn 0.09301110178732469 0.15909793726779767 0.9828717013432833
vn -2.9275086405429094e-15 -0.11852205281617346 0.9929514202599441
vn 1.224646799147353e-16 -1 1.224646799147357e-16
vn 2.9565381710648495e-15 -0.11852205281617371 -0.9929514202599441
usemtl m_02ed5239-3a17-240f-752a-3c6ff969084b
f 76/273/69 82/274/69 81/275/69 75/276/69
f 79/277/70 84/278/70 83/279/70 80/280/70
f 74/281/71 87/282/71 86/283/71 73/284/71
f 75/285/72 90/286/72 89/287/72 76/288/72
f 81/289/73 85/290/73 90/291/73 75/292/73
f 76/293/74 89/294/74 88/295/74 82/296/74
f 73/297/75 81/298/75 82/299/75 74/300/75
f 82/301/76 88/302/76 87/303/76 74/304/76
f 78/305/77 83/306/77 84/307/77 77/308/77
f 73/309/78 86/310/78 85/311/78 81/312/78
f 84/313/79 85/314/79 86/315/79 77/316/79
f 77/317/80 86/318/80 87/319/80 78/320/80
f 78/321/81 87/322/81 88/323/81 83/324/81
f 83/325/82 88/326/82 89/327/82 80/328/82
f 80/329/83 89/330/83 90/331/83 79/332/83
f 79/333/84 90/334/84 85/335/84 84/336/84
o Toe
v 0.2124999999999993 0.031249999999999833 -0.22500000000000075
v 0.21250000000000002 0.09374999999999972 0.012499999999999291
v 0.2124999999999993 -1.6653345369377348e-16 -0.22500000000000075
v 0.2125 -1.6653345369377348e-16 0.012499999999999303
v 0.0624999999999994 0.031249999999999833 -0.2250000000000003
v 0.06250000000000011 0.09374999999999972 0.012499999999999735
v 0.06249999999999939 -1.6653345369377348e-16 -0.2250000000000003
v 0.0625000000000001 -1.6653345369377348e-16 0.012499999999999747
v 0.21249999999999974 0.09374999999999972 -0.08125000000000061
v 0.21249999999999972 -1.6653345369377348e-16 -0.0812500000000006
v 0.06249999999999981 -1.6653345369377348e-16 -0.08125000000000016
v 0.062499999999999827 0.09374999999999972 -0.08125000000000017
vt 0.646875 0.734375
vt 0.646875 0.7109375
vt 0.6109375 0.7109375
vt 0.6109375 0.71875
vt 0.634375 0.5390625
vt 0.634375 0.5625
vt 0.6703125 0.546875
vt 0.6703125 0.5390625
vt 0.21875 0.390625
vt 0.25 0.390625
vt 0.25 0.34375
vt 0.21875 0.34375
vt 0.5265625 0.8828125
vt 0.4890625 0.8828125
vt 0.4890625 0.91875
vt 0.5265625 0.91875
vt 0.796875 0.203125
vt 0.828125 0.203125
vt 0.828125 0.1875
vt 0.796875 0.1875
vt 0.21875 0.296875
vt 0.21875 0.328125
vt 0.25 0.328125
vt 0.25 0.296875
vt 0.646875 0.7109375
vt 0.646875 0.734375
vt 0.6703125 0.734375
vt 0.6703125 0.7109375
vt 0.4890625 0.8828125
vt 0.5265625 0.8828125
vt 0.5265625 0.859375
vt 0.4890625 0.859375
vt 0.634375 0.5625
vt 0.634375 0.5390625
vt 0.6109375 0.5390625
vt 0.6109375 0.5625
vt 0.359375 0.296875
vt 0.328125 0.296875
vt 0.328125 0.328125
vt 0.359375 0.328125
vn 1 -1.224646799147357e-16 -2.9629076969683865e-15
vn -1 1.224646799147357e-16 2.9629076969683865e-15
vn -1.0690799735937048e-15 0.9170700562532355 -0.39872611141444914
vn -1.224646799147353e-16 -1 1.224646799147357e-16
vn -2.9629076969683865e-15 -1.224646799147353e-16 -1
vn 2.9629076969683865e-15 1.224646799147353e-16 1
vn 1 -1.224646799147357e-16 -2.9629076969683865e-15
vn -1.224646799147353e-16 -1 1.224646799147357e-16
vn -1 1.224646799147357e-16 2.9629076969683865e-15
vn 1.224646799147353e-16 1 -1.224646799147357e-16
usemtl m_02ed5239-3a17-240f-752a-3c6ff969084b
f 99/337/85 100/338/85 93/339/85 91/340/85
f 101/341/86 102/342/86 95/343/86 97/344/86
f 102/345/87 99/346/87 91/347/87 95/348/87
f 100/349/88 101/350/88 97/351/88 93/352/88
f 95/353/89 91/354/89 93/355/89 97/356/89
f 94/357/90 92/358/90 96/359/90 98/360/90
f 100/361/91 99/362/91 92/363/91 94/364/91
f 101/365/92 100/366/92 94/367/92 98/368/92
f 102/369/93 101/370/93 98/371/93 96/372/93
f 99/373/94 102/374/94 96/375/94 92/376/94
o Shin
v 0.05000000000000029 0.36960466867353836 0.05416666666666644
v 0.22499999999999976 0.36960466867353836 -0.10000000000000073
v 0.22500000000000037 0.36960466867353836 0.10624999999999923
v 0.2624999999999997 0.10104166666666653 -0.1125000000000008
v 0.2625000000000005 0.10104166666666653 0.16874999999999918
v 0.04999999999999983 0.36960466867353836 -0.1000000000000002
v 0.05000000000000044 0.36960466867353836 0.10624999999999976
v 0.012499999999999767 0.10104166666666659 -0.11250000000000006
v 0.0125000000000006 0.10104166666666659 0.16874999999999993
v 0.2201388888888886 0.10104166666666659 -0.11250000000000067
v 0.21388888888888943 0.10104166666666659 0.16874999999999934
v 0.054861111111110826 0.10104166666666659 -0.11250000000000018
v 0.06111111111111165 0.10104166666666659 0.1687499999999998
v 0.19097222222222263 0.36960466867353836 0.10624999999999934
v 0.08402777777777821 0.36960466867353836 0.10624999999999965
v 0.19097222222222202 0.36960466867353836 -0.10000000000000062
v 0.0840277777777776 0.36960466867353836 -0.10000000000000031
v 0.22500000000000017 0.36960466867353836 0.037499999999999235
v 0.2625000000000002 0.10104166666666653 0.05670731707316991
v 0.225 0.36960466867353836 -0.022916666666667408
v 0.26249999999999996 0.10104166666666653 -0.02789634146341546
v 0.220138888888889 0.10104166666666659 0.01585365853658467
v 0.05486111111111121 0.10104166666666659 0.015853658536585158
v 0.012500000000000268 0.10104166666666659 0.05670731707317065
v 0.012500000000000016 0.10104166666666659 -0.02789634146341472
v 0.05000000000000006 0.36960466867353836 -0.022916666666666887
v 0.08402777777777806 0.36960466867353836 0.05416666666666634
v 0.08402777777777783 0.36960466867353836 -0.02291666666666699
v 0.1909722222222225 0.36960466867353836 0.05416666666666602
v 0.19097222222222227 0.36960466867353836 -0.022916666666667307
v 0.22840277777777745 -1.6653345369377348e-16 -0.12500000000000072
v 0.2749999999999999 -1.6653345369377348e-16 -0.034243348115300186
v 0.22840277777777784 -1.6653345369377348e-16 0.012688470066518135
v 0.27499999999999963 -1.6653345369377348e-16 -0.12500000000000086
v 0.2750000000000002 -1.6653345369377348e-16 0.05651330376940048
v 0.22152777777777796 -1.1102230246251565e-16 0.05651330376940064
v 0.2750000000000005 -1.6653345369377348e-16 0.17670454545454461
v 0.22152777777777832 -1.1102230246251565e-16 0.17670454545454478
v 0.0534722222222224 -1.1102230246251565e-16 0.056513303769401134
v 0.053472222222222754 -1.1102230246251565e-16 0.17670454545454528
v 0.046597222222222276 -1.1102230246251565e-16 0.012688470066518675
v -1.2270941492978283e-17 -1.1102230246251565e-16 -0.034243348115299374
v 2.5663264092728175e-16 -1.1102230246251565e-16 0.056513303769401294
v 6.12748196024383e-16 -1.1102230246251565e-16 0.17670454545454545
v -2.8117452391323826e-16 -1.1102230246251565e-16 -0.12500000000000003
v 0.046597222222221873 -1.1102230246251565e-16 -0.12500000000000017
v 0.22152777777777852 -5.551115123125783e-17 0.24374999999999933
v 0.053472222222222955 -5.551115123125783e-17 0.24374999999999983
v 0.06111111111111183 0.10814633534020524 0.23043166415165667
v 0.21388888888888963 0.10814633534020524 0.2304316641516562
v 0.0840277777777784 0.36960466867353836 0.16711332830331344
v 0.19097222222222282 0.36960466867353836 0.16711332830331313
v 0.06836041666666734 -5.551115123125783e-17 0.23171534090909068
v 0.20663958333333404 -5.551115123125783e-17 0.2317153409090903
v 0.2066395833333339 -1.1102230246251565e-16 0.18873920454545393
v 0.06836041666666721 -1.1102230246251565e-16 0.18873920454545431
v 0.07464583333333401 0.0749999999999999 0.22003124999999973
v 0.20035416666666736 0.0749999999999999 0.22003124999999937
v 0.20035416666666725 0.0749999999999999 0.17996874999999937
v 0.07464583333333388 0.0749999999999999 0.17996874999999973
vt 0.21436953125 0.890625
vt 0.21312578125 0.8228328125
vt 0.19197421875 0.8228328125
vt 0.19509921875 0.890625
vt 0.22437421875 0.9322078125
vt 0.22313046875 1
vt 0.24240078125 1
vt 0.24552578125 0.9322078125
vt 0.1109375 0.9524921875
vt 0.11944375 0.9524921875
vt 0.11944375 0.933221875
vt 0.1109375 0.933221875
vt 0.2819625 0.964015625
vt 0.2703125 0.9757484375
vt 0.2703125 0.9984375
vt 0.2819625 0.9984375
vt 0.24444375 0.78125
vt 0.237153125 0.7140375
vt 0.2265625 0.7140375
vt 0.2359375 0.78125
vt 0.401475 0.399815625
vt 0.395746875 0.46875
vt 0.404253125 0.46875
vt 0.413628125 0.399815625
vt 0.3390625 0.9757484375
vt 0.3274125 0.964015625
vt 0.3274125 0.9984375
vt 0.3390625 0.9984375
vt 0.203125 0.359375
vt 0.15625 0.359375
vt 0.15625 0.390625
vt 0.203125 0.390625
vt 0.026128125000000002 0.484375
vt 0.0204 0.415440625
vt 0.008246875 0.415440625
vt 0.017621875000000002 0.484375
vt 0.31805625 0.609375
vt 0.323784375 0.5421203125
vt 0.285590625 0.5421203125
vt 0.29131875 0.609375
vt 0.14618125 0.9524921875
vt 0.1546875 0.9524921875
vt 0.1546875 0.933221875
vt 0.14618125 0.933221875
vt 0.11944375 0.9524921875
vt 0.14618125 0.9524921875
vt 0.14618125 0.933221875
vt 0.11944375 0.933221875
vt 0.278471875 0.7140375
vt 0.27118125 0.78125
vt 0.2796875 0.78125
vt 0.2890625 0.7140375
vt 0.237153125 0.7140375
vt 0.24444375 0.78125
vt 0.27118125 0.78125
vt 0.278471875 0.7140375
vt 0.23427578125 0.8228328125
vt 0.22947421875000001 0.890625
vt 0.24666171875 0.890625
vt 0.26228671875 0.8228328125
vt 0.21312578125 0.8228328125
vt 0.21436953125 0.890625
vt 0.22947421875000001 0.890625
vt 0.23427578125 0.8228328125
vt 0.32569375 0.953059375
vt 0.3390625 0.953059375
vt 0.3390625 0.9230109375
vt 0.32569375 0.9230109375
vt 0.3274125 0.964015625
vt 0.3390625 0.9757484375
vt 0.3390625 0.953059375
vt 0.32569375 0.953059375
vt 0.28368125 0.953059375
vt 0.32569375 0.953059375
vt 0.32569375 0.9230109375
vt 0.28368125 0.9230109375
vt 0.2819625 0.964015625
vt 0.3274125 0.964015625
vt 0.32569375 0.953059375
vt 0.28368125 0.953059375
vt 0.2703125 0.953059375
vt 0.28368125 0.953059375
vt 0.28368125 0.9230109375
vt 0.2703125 0.9230109375
vt 0.2703125 0.9757484375
vt 0.2819625 0.964015625
vt 0.28368125 0.953059375
vt 0.2703125 0.953059375
vt 0.20385859374999998 1
vt 0.20322421875000002 0.9322078125
vt 0.17521328125 0.9322078125
vt 0.19083828125 1
vt 0.22313046875 1
vt 0.22437421875 0.9322078125
vt 0.20322421875000002 0.9322078125
vt 0.20385859374999998 1
vt 0.11944375 0.9717640625
vt 0.1109375 0.9717640625
vt 0.1109375 0.984784375
vt 0.11944375 0.984784375
vt 0.11944375 0.9524921875
vt 0.1109375 0.9524921875
vt 0.1109375 0.9717640625
vt 0.11944375 0.9717640625
vt 0.14618125 0.9717640625
vt 0.11944375 0.9717640625
vt 0.11944375 0.984784375
vt 0.14618125 0.984784375
vt 0.14618125 0.9524921875
vt 0.11944375 0.9524921875
vt 0.11944375 0.9717640625
vt 0.14618125 0.9717640625
vt 0.1546875 0.967596875
vt 0.14618125 0.9717640625
vt 0.14618125 0.984784375
vt 0.1546875 0.984784375
vt 0.1546875 0.9524921875
vt 0.14618125 0.9524921875
vt 0.14618125 0.9717640625
vt 0.1546875 0.967596875
vt 0.19416953125 0.34375
vt 0.19729453125000002 0.3125
vt 0.16287265625 0.3125
vt 0.16208046875 0.34375
vt 0.21312578125 0.8228328125
vt 0.21153828125 0.7973796875
vt 0.18884921875 0.7973796875
vt 0.19197421875 0.8228328125
vt 0.2890625 0.7140375
vt 0.2921875 0.688584375
vt 0.2805375 0.688584375
vt 0.278471875 0.7140375
vt 0.23427578125 0.8228328125
vt 0.23422734375 0.7973796875
vt 0.21153828125 0.7973796875
vt 0.21312578125 0.8228328125
vt 0.26228671875 0.8228328125
vt 0.26427578125 0.7973796875
vt 0.23422734375 0.7973796875
vt 0.23427578125 0.8228328125
vt 0.0204 0.415440625
vt 0.018490625000000004 0.39010156249999994
vt 0.005121874999999998 0.39010156249999994
vt 0.008246875 0.415440625
vt 0.323784375 0.5421203125
vt 0.32569375 0.5148796875
vt 0.28368125 0.5148796875
vt 0.285590625 0.5421203125
vt 0.30972187500000004 0.390625
vt 0.3117875 0.359375
vt 0.2663375 0.359375
vt 0.268403125 0.390625
vt 0.22437421875 0.9322078125
vt 0.22596171875 0.9067546875
vt 0.20327265625000002 0.9067546875
vt 0.20322421875000002 0.9322078125
vt 0.20322421875000002 0.9322078125
vt 0.20327265625000002 0.9067546875
vt 0.17322421875 0.9067546875
vt 0.17521328125 0.9322078125
vt 0.413628125 0.399815625
vt 0.416753125 0.37447656249999994
vt 0.403384375 0.37447656249999994
vt 0.401475 0.399815625
vt 0.24552578125 0.9322078125
vt 0.24865078125 0.9067546875
vt 0.22596171875 0.9067546875
vt 0.22437421875 0.9322078125
vt 0.30666953125 0.34375
vt 0.30587734375 0.3125
vt 0.27145546875 0.3125
vt 0.27458046875 0.34375
vt 0.237153125 0.7140375
vt 0.2350875 0.688584375
vt 0.2234375 0.688584375
vt 0.2265625 0.7140375
vt 0.828125 0.234375
vt 0.828125 0.21875
vt 0.796875 0.21875
vt 0.796875 0.234375
vt 0.4292569327629858 0.6729074640184362
vt 0.4124959952629858 0.6729074640184362
vt 0.4158256827629858 0.7000121515184361
vt 0.4312459952629858 0.6982402765184361
vt 0.021892091007508392 0.5263659679853407
vt 0.037310841007508394 0.5281456554853408
vt 0.0406561535075084 0.5010440929853407
vt 0.023895216007508394 0.5010347179853407
vt 0.43124569742683755 0.6982403107413758
vt 0.4158256827629858 0.7000121515184361
vt 0.4316633746944945 0.765625
vt 0.4468790047370142 0.7656233267403922
vt 0.11944375 0.984784375
vt 0.11944375 1
vt 0.14618125 1
vt 0.14618125 0.984784375
vt 0.006218846492491603 0.5937391730723817
vt 0.02143446764045212 0.59375
vt 0.037310841007508394 0.5281456554853408
vt 0.02189179099445044 0.5263659333567561
vt 0.28368125 0.90625
vt 0.287403125 0.909259375
vt 0.321971875 0.909259375
vt 0.32569375 0.90625
vt 0.32569375 0.90625
vt 0.321971875 0.909259375
vt 0.321971875 0.920003125
vt 0.32569375 0.9230109375
vt 0.32569375 0.9230109375
vt 0.321971875 0.920003125
vt 0.287403125 0.920003125
vt 0.28368125 0.9230109375
vt 0.28368125 0.9230109375
vt 0.287403125 0.920003125
vt 0.287403125 0.909259375
vt 0.28368125 0.90625
vt 0.787403125 0.625
vt 0.7889734375 0.640625
vt 0.8204015625 0.640625
vt 0.821971875 0.625
vt 0.92321953125 0.140625
vt 0.92613984375 0.15625
vt 0.93615546875 0.15625
vt 0.93396328125 0.140625
vt 0.787403125 0.65625
vt 0.7889734375 0.671875
vt 0.8204015625 0.671875
vt 0.821971875 0.65625
vt 0.86291171875 0.0625
vt 0.86071953125 0.078125
vt 0.87073515625 0.078125
vt 0.87365546875 0.0625
vn 0.9903917207729281 0.13829041696530656 -2.9513749441408054e-15
vn -0.9903917207729281 0.13829041696530683 2.917503560842942e-15
vn 1.224646799147353e-16 1 -1.224646799147357e-16
vn -1.224646799147353e-16 -1 1.224646799147357e-16
vn -2.9540097278983327e-15 0.04649368009837344 -0.9989185841253081
vn 2.9135509752986623e-15 0.22666311362232966 0.9739732198181997
vn -1.224646799147353e-16 -1 1.224646799147357e-16
vn -1.224646799147353e-16 -1 1.224646799147357e-16
vn 2.9135509752986623e-15 0.22666311362232966 0.9739732198181997
vn 2.908491780812112e-15 0.23537004521409227 0.9719058297056955
vn 1.224646799147353e-16 1 -1.224646799147357e-16
vn 1.224646799147353e-16 1 -1.224646799147357e-16
vn -2.9540097278983327e-15 0.04649368009837342 -0.9989185841253081
vn -2.954009727898333e-15 0.04649368009837343 -0.9989185841253082
vn 0.9903917207729283 0.13829041696530656 -2.9513749441408062e-15
vn 0.9903917207729281 0.13829041696530653 -2.9513749441408054e-15
vn -1.224646799147353e-16 -1 1.224646799147357e-16
vn -1.224646799147353e-16 -1 1.224646799147357e-16
vn -1.224646799147353e-16 -1 1.224646799147357e-16
vn -1.224646799147353e-16 -1 1.224646799147357e-16
vn -1.224646799147353e-16 -1 1.224646799147357e-16
vn -1.224646799147353e-16 -1 1.224646799147357e-16
vn -0.9903917207729281 0.13829041696530683 2.917503560842942e-15
vn -0.9903917207729281 0.1382904169653068 2.917503560842942e-15
vn 1.224646799147353e-16 1 -1.224646799147357e-16
vn 1.224646799147353e-16 1 -1.224646799147357e-16
vn 1.224646799147353e-16 1 -1.224646799147357e-16
vn 1.224646799147353e-16 1 -1.224646799147357e-16
vn 1.224646799147353e-16 1 -1.224646799147357e-16
vn 1.224646799147353e-16 1 -1.224646799147357e-16
vn -0.9966721341481489 -0.08151476561074207 2.963030217300303e-15
vn 0.9924344820658654 0.12277539984319977 -2.9555274156929877e-15
vn -2.925456115606586e-15 0.12277539984319995 -0.9924344820658655
vn 0.9924344820658654 0.1227753998431998 -2.9555274156929877e-15
vn 0.9924344820658655 0.12277539984319982 -2.955527415692988e-15
vn 2.9633799096210222e-15 0.07848256872685949 0.9969154860899865
vn 2.9556606478106434e-15 0.12222768424516028 0.9925020872542615
vn -2.9576206317172346e-15 0.03131021814844672 -0.9995097149300236
vn -0.9924344820658654 0.12277539984319993 2.9254561156065854e-15
vn -0.9924344820658655 0.1227753998431999 2.925456115606586e-15
vn 2.9633799096210222e-15 0.07848256872685948 0.9969154860899864
vn -0.9924344820658654 0.1227753998431999 2.9254561156065854e-15
vn 0.996672134148149 -0.08151476561074233 -2.943064857942615e-15
vn -2.925456115606586e-15 0.12277539984319992 -0.9924344820658655
vn -1.224646799147353e-16 -1 1.224646799147357e-16
vn -0.9975146625067607 0.07045919446050651 2.9469151086834474e-15
vn 0.997551505644167 0.069476283585657 -0.008002475003454095
vn -0.9963364403083678 0.08495844123618443 -0.009785753745539838
vn 1.224646799147353e-16 1 -1.224646799147357e-16
vn 0.9961807827131043 0.08731465027764243 -2.962284669370767e-15
vn -1.224646799147353e-16 -1 1.224646799147357e-16
vn -1.224646799147353e-16 -1 1.224646799147357e-16
vn -1.224646799147353e-16 -1 1.224646799147357e-16
vn -1.224646799147353e-16 -1 1.224646799147357e-16
vn -2.946445641810638e-15 -0.15393113321973478 -0.9880815787300604
vn -0.9965067047287929 -0.08351279800463214 2.962784753597965e-15
vn 2.957078534704673e-15 0.11614793931274064 0.9932319246748988
vn 0.9965067047287929 -0.08351279800463277 -2.9423300174451223e-15
usemtl m_02ed5239-3a17-240f-752a-3c6ff969084b
f 122/377/95 123/378/95 106/379/95 104/380/95
f 127/381/96 128/382/96 108/383/96 110/384/96
f 128/385/97 130/386/97 119/387/97 108/388/97
f 143/389/98 144/390/98 147/391/98 148/392/98
f 119/393/99 114/394/99 110/395/99 108/396/99
f 115/397/100 117/398/100 109/399/100 111/400/100
f 134/401/101 135/402/101 133/403/101 136/404/101
f 124/405/102 125/406/102 114/407/102 112/408/102
f 116/409/103 113/410/103 107/411/103 105/412/103
f 153/413/104 151/414/104 152/415/104 154/416/104
f 132/417/105 122/418/105 104/419/105 118/420/105
f 130/421/106 132/422/106 118/423/106 119/424/106
f 112/425/107 118/426/107 104/427/107 106/428/107
f 114/429/108 119/430/108 118/431/108 112/432/108
f 121/433/109 120/434/109 105/435/109 107/436/109
f 123/437/110 122/438/110 120/439/110 121/440/110
f 138/441/111 137/442/111 139/443/111 140/444/111
f 135/445/112 134/446/112 137/447/112 138/448/112
f 141/449/113 138/450/113 140/451/113 142/452/113
f 143/453/114 135/454/114 138/455/114 141/456/114
f 145/457/115 141/458/115 142/459/115 146/460/115
f 144/461/116 143/462/116 141/463/116 145/464/116
f 103/465/117 126/466/117 111/467/117 109/468/117
f 128/469/118 127/470/118 126/471/118 103/472/118
f 129/473/119 103/474/119 109/475/119 117/476/119
f 130/477/120 128/478/120 103/479/120 129/480/120
f 131/481/121 129/482/121 117/483/121 116/484/121
f 132/485/122 130/486/122 129/487/122 131/488/122
f 120/489/123 131/490/123 116/491/123 105/492/123
f 122/493/124 132/494/124 131/495/124 120/496/124
f 112/497/125 133/498/125 135/499/125 124/500/125
f 123/501/126 134/502/126 136/503/126 106/504/126
f 106/505/127 136/506/127 133/507/127 112/508/127
f 121/509/128 137/510/128 134/511/128 123/512/128
f 107/513/129 139/514/129 137/515/129 121/516/129
f 113/517/130 140/518/130 139/519/130 107/520/130
f 151/521/131 150/522/131 149/523/131 152/524/131
f 124/525/132 135/526/132 143/527/132 125/528/132
f 127/529/133 144/530/133 145/531/133 126/532/133
f 126/533/134 145/534/134 146/535/134 111/536/134
f 111/537/135 146/538/135 142/539/135 115/540/135
f 110/541/136 147/542/136 144/543/136 127/544/136
f 125/545/137 143/546/137 148/547/137 114/548/137
f 114/549/138 148/550/138 147/551/138 110/552/138
f 161/553/139 160/554/139 159/555/139 162/556/139
f 142/557/140 150/558/140 151/559/140 115/560/140
f 113/561/141 152/562/141 149/563/141 140/564/141
f 115/565/142 151/566/142 153/567/142 117/568/142
f 117/569/143 153/570/143 154/571/143 116/572/143
f 116/573/144 154/574/144 152/575/144 113/576/144
f 150/577/145 155/578/145 156/579/145 149/580/145
f 149/581/146 156/582/146 157/583/146 140/584/146
f 140/585/147 157/586/147 158/587/147 142/588/147
f 142/589/148 158/590/148 155/591/148 150/592/148
f 155/593/149 159/594/149 160/595/149 156/596/149
f 156/597/150 160/598/150 161/599/150 157/600/150
f 157/601/151 161/602/151 162/603/151 158/604/151
f 158/605/152 162/606/152 159/607/152 155/608/152
o Thigh
v 0.21874999999999978 0.7 -0.09000000000000077
v 0.21875000000000033 0.7 0.08999999999999925
v 0.21249999999999972 0.3749999999999998 -0.09000000000000072
v 0.21250000000000027 0.3749999999999998 0.0899999999999993
v 0.05624999999999984 0.655 -0.09000000000000029
v 0.05625000000000037 0.655 0.08999999999999973
v 0.05624999999999981 0.3749999999999998 -0.09000000000000026
v 0.056250000000000334 0.3749999999999998 0.08999999999999976
v 0.2437499999999998 0.5634999999999999 -0.11250000000000082
v 0.24375000000000047 0.5634999999999999 0.11249999999999918
v 0.05625000000000043 0.5634999999999999 0.11249999999999974
v 0.056249999999999765 0.5634999999999999 -0.11250000000000027
v 0.1374999999999997 0.5634999999999999 -0.11250000000000052
v 0.13749999999999976 0.7024999999999999 -0.09000000000000054
v 0.13750000000000032 0.7024999999999999 0.08999999999999948
v 0.13750000000000037 0.5634999999999999 0.11249999999999949
v 0.1375000000000003 0.3749999999999998 0.08999999999999952
v 0.13749999999999973 0.3749999999999998 -0.0900000000000005
vt 0.14375 0.578125
vt 0.2 0.578125
vt 0.19437500000000002 0.53125
vt 0.149375 0.53125
vt 0.0031249999999999993 0.86775
vt 0.059375 0.86775
vt 0.053750000000000006 0.8206249999999999
vt 0.00875 0.8206249999999999
vt 0.75 0.765625
vt 0.796875 0.765625
vt 0.796875 0.75
vt 0.75 0.75
vt 0.58671875 0.75
vt 0.58671875 0.7949999999999999
vt 0.60546875 0.7949999999999999
vt 0.60546875 0.75
vt 0.5046875 0.46875
vt 0.5046875 0.516209375
vt 0.53125 0.516209375
vt 0.5234375 0.46875
vt 0.1671875 0.500584375
vt 0.1671875 0.453125
vt 0.1484375 0.453125
vt 0.140625 0.500584375
vt 0.215625 0.40625
vt 0.159375 0.40625
vt 0.165 0.4375
vt 0.21000000000000002 0.4375
vt 0.6280809641450363 0.515625
vt 0.6280809641450363 0.48042343750000005
vt 0.6015184641450363 0.48042343750000005
vt 0.6077684641450363 0.515009375
vt 0.059375 0.86775
vt 0.0031249999999999993 0.86775
vt 0.00875 0.890625
vt 0.053750000000000006 0.890625
vt 0.5281249955003297 0.3710484262644831
vt 0.5281249955003297 0.40625
vt 0.5484379946152345 0.40563341677931486
vt 0.5546875044996704 0.37104777391105825
vt 0.5281249955003297 0.40624998876448315
vt 0.5281249955003297 0.3710484262644831
vt 0.5078124955003296 0.3710484262644831
vt 0.5078124955003296 0.39452811376448316
vt 0.359375 0.9375
vt 0.40625 0.9375
vt 0.40625 0.90625
vt 0.359375 0.90625
vt 0.6280809641450363 0.48042257719575165
vt 0.6280809641450363 0.515625
vt 0.6484815358549637 0.5039025133423253
vt 0.648305134408526 0.4804222008150749
vt 0.1671875 0.453125
vt 0.1671875 0.500584375
vt 0.1875 0.500584375
vt 0.1875 0.453125
vt 0.58671875 0.7949999999999999
vt 0.58671875 0.75
vt 0.56640625 0.75
vt 0.56640625 0.7949999999999999
vt 0.5046875 0.516209375
vt 0.5046875 0.46875
vt 0.484375 0.46875
vt 0.484375 0.516209375
vn 0.9865350075748679 -0.1635502333512718 -2.9029830402949976e-15
vn -1 1.224646799147357e-16 2.9629076969683865e-15
vn 0.03075467578697342 0.9995269630766537 -2.135300152063207e-16
vn -1.224646799147353e-16 -1 1.224646799147357e-16
vn -2.9565381710648495e-15 -0.11852205281617371 -0.9929514202599441
vn 2.9275086405429094e-15 -0.11852205281617345 0.9929514202599441
vn 0.9836384960749287 0.1801535707096943 -2.936492520427274e-15
vn 2.9444057951002106e-15 0.15979061814520884 0.9871509298748455
vn -1 1.224646799147357e-16 2.9629076969683865e-15
vn 0.0049165749799181474 0.1597886868474381 -0.9871389987463967
vn -2.90526838129115e-15 0.15979061814520865 -0.9871509298748457
vn -0.5046965873311549 0.8632967941190827 1.3896460376739453e-15
vn -0.09301110178732469 0.15909793726779767 0.9828717013432833
vn 2.9275086405429094e-15 -0.11852205281617346 0.9929514202599441
vn -1.224646799147353e-16 -1 1.224646799147357e-16
vn -2.9565381710648495e-15 -0.11852205281617371 -0.9929514202599441
usemtl m_02ed5239-3a17-240f-752a-3c6ff969084b
f 171/609/153 172/610/153 166/611/153 165/612/153
f 173/613/154 174/614/154 169/615/154 170/616/154
f 176/617/155 177/618/155 164/619/155 163/620/155
f 179/621/156 180/622/156 165/623/156 166/624/156
f 180/625/157 175/626/157 171/627/157 165/628/157
f 178/629/158 179/630/158 166/631/158 172/632/158
f 172/633/159 171/634/159 163/635/159 164/636/159
f 177/637/160 178/638/160 172/639/160 164/640/160
f 174/641/161 173/642/161 168/643/161 167/644/161
f 175/645/162 176/646/162 163/647/162 171/648/162
f 176/649/163 175/650/163 174/651/163 167/652/163
f 177/653/164 176/654/164 167/655/164 168/656/164
f 178/657/165 177/658/165 168/659/165 173/660/165
f 179/661/166 178/662/166 173/663/166 170/664/166
f 180/665/167 179/666/167 170/667/167 169/668/167
f 175/669/168 180/670/168 169/671/168 174/672/168
o Pelvis
v -0.13749999999999984 0.7874999999999994 -0.10036764705882407
v -0.13750000000000046 0.7874999999999994 0.10036764705882299
v -0.13749999999999982 0.6662914078674946 -0.10036764705882406
v -0.13750000000000043 0.6662914078674946 0.100367647058823
v 0.13750000000000018 0.7874999999999994 -0.10036764705882326
v 0.13749999999999957 0.7874999999999994 0.10036764705882381
v 0.1375000000000002 0.6662914078674946 -0.10036764705882324
v 0.1374999999999996 0.6662914078674946 0.10036764705882383
v -0.04583333333333308 0.6062499999999998 -0.13125000000000026
v -0.04583333333333386 0.6062499999999998 0.13124999999999976
v 0.04583333333333361 0.6062499999999998 -0.13124999999999998
v 0.04583333333333283 0.6062499999999998 0.13125000000000003
v -0.04583333333333388 0.7874999999999994 0.13124999999999973
v 0.04583333333333281 0.7874999999999994 0.13125
v -0.0458333333333331 0.7874999999999994 -0.13125000000000028
v 0.04583333333333359 0.7874999999999994 -0.13125
v -0.045833333333333094 0.7181353519668736 -0.13125000000000026
v -0.13749999999999982 0.7181353519668736 -0.10036764705882406
v -0.13750000000000043 0.7181353519668736 0.100367647058823
v -0.04583333333333387 0.7181353519668736 0.13124999999999976
v 0.04583333333333282 0.7181353519668736 0.13125000000000003
v 0.1374999999999996 0.7181353519668736 0.10036764705882383
v 0.1375000000000002 0.7181353519668736 -0.10036764705882324
v 0.045833333333333594 0.7181353519668736 -0.13124999999999998
v -0.050821876735333255 0.7874999999999994 -0.16168226374879466
v -0.05082187673533325 0.7181353519668736 -0.16168226374879466
v -0.15811354340200004 0.7181353519668736 -0.1151749108076185
v -0.15811354340200007 0.7874999999999994 -0.1151749108076185
v -0.1581135434020007 0.7181353519668736 0.11517491080761731
v -0.15811354340200073 0.7874999999999994 0.11517491080761731
v -0.050821876735334205 0.7181353519668736 0.1616822637487941
v -0.05082187673533421 0.7874999999999994 0.1616822637487941
v 0.05082187673533297 0.7181353519668736 0.1616822637487944
v 0.05082187673533296 0.7874999999999994 0.1616822637487944
v 0.15811354340199982 0.7181353519668736 0.11517491080761826
v 0.1581135434019998 0.7874999999999994 0.11517491080761824
v 0.15811354340200048 0.7181353519668736 -0.11517491080761756
v 0.15811354340200046 0.7874999999999994 -0.11517491080761758
v 0.05082187673533393 0.7181353519668736 -0.16168226374879435
v 0.05082187673533392 0.7874999999999994 -0.16168226374879435
vt 0.453125 0.640625
vt 0.453125 0.65625
vt 0.40625 0.65625
vt 0.40625 0.640625
vt 0.515625 0.59375
vt 0.515625 0.609375
vt 0.46875 0.609375
vt 0.46875 0.59375
vt 0.012499999999999997 0.7313625
vt 0.0354171875 0.7236421875
vt 0.0354171875 0.7892671875
vt 0.012499999999999997 0.781546875
vt 0.2170953125 0.484375
vt 0.209375 0.453125
vt 0.275 0.453125
vt 0.2672796875 0.484375
vt 0.140625 0.284528125
vt 0.140625 0.3125
vt 0.109375 0.3125
vt 0.109375 0.29953906250000006
vt 0.71875 0.5495390625000001
vt 0.71875 0.5625
vt 0.6875 0.5625
vt 0.6875 0.534528125
vt 0.3108453125 0.484375
vt 0.303125 0.453125
vt 0.36875 0.453125
vt 0.3610296875 0.484375
vt 0.5625 0.34375
vt 0.546875 0.34375
vt 0.546875 0.28125
vt 0.5625 0.28125
vt 0.640625 0.284528125
vt 0.640625 0.3125
vt 0.609375 0.3125
vt 0.609375 0.29953906250000006
vt 0.296875 0.796875
vt 0.296875 0.828125
vt 0.28125 0.828125
vt 0.28125 0.796875
vt 0.08125 0.781546875
vt 0.0583328125 0.7892671875
vt 0.0583328125 0.7236421875
vt 0.08125 0.7313625
vt 0.0583328125 0.7892671875
vt 0.0354171875 0.7892671875
vt 0.0354171875 0.7236421875
vt 0.0583328125 0.7236421875
vt 0.1875 0.28391406250000006
vt 0.1875 0.296875
vt 0.15625 0.296875
vt 0.15625 0.268903125
vt 0.515625 0.421875
vt 0.515625 0.453125
vt 0.5 0.453125
vt 0.5 0.421875
vt 0.796875 0.40625
vt 0.796875 0.390625
vt 0.828125 0.390625
vt 0.828125 0.40625
vt 0.65625 0.640625
vt 0.65625 0.625
vt 0.71875 0.625
vt 0.71875 0.640625
vt 0.796875 0.265625
vt 0.796875 0.25
vt 0.828125 0.25
vt 0.828125 0.265625
vt 0.140625 0.734375
vt 0.140625 0.71875
vt 0.171875 0.71875
vt 0.171875 0.734375
vt 0.796875 1
vt 0.796875 0.984375
vt 0.828125 0.984375
vt 0.828125 1
vt 0.671875 0.515625
vt 0.671875 0.5
vt 0.734375 0.5
vt 0.734375 0.515625
vt 0.796875 0.4375
vt 0.796875 0.421875
vt 0.828125 0.421875
vt 0.828125 0.4375
vt 0.546875 0.5
vt 0.546875 0.484375
vt 0.578125 0.484375
vt 0.578125 0.5
vt 0.195778125 0.7567140625
vt 0.16895625 0.768340625
vt 0.1677078125 0.7607328125
vt 0.19062500000000002 0.7530125000000001
vt 0.05958125 0.716034375
vt 0.086403125 0.7276609374999999
vt 0.08125000000000002 0.7313624999999999
vt 0.0583328125 0.7236421875
vt 0.195778125 0.6991265625
vt 0.195778125 0.7567140625
vt 0.19062500000000002 0.7530125000000001
vt 0.19062500000000002 0.702828125
vt 0.086403125 0.7276609375
vt 0.086403125 0.7852484375
vt 0.08125 0.781546875
vt 0.08125 0.7313625
vt 0.16895625 0.6875
vt 0.195778125 0.6991265625
vt 0.19062500000000002 0.702828125
vt 0.1677078125 0.6951078125000001
vt 0.086403125 0.7852484375
vt 0.05958125 0.796875
vt 0.0583328125 0.7892671875
vt 0.08125 0.781546875
vt 0.14354375000000003 0.6875
vt 0.16895625 0.6875
vt 0.1677078125 0.6951078125000001
vt 0.1447921875 0.6951078125
vt 0.05958125 0.796875
vt 0.03416875 0.796875
vt 0.0354171875 0.7892671875
vt 0.0583328125 0.7892671875
vt 0.116721875 0.6991265625
vt 0.14354375000000003 0.6875
vt 0.1447921875 0.6951078125
vt 0.12187499999999998 0.7028281249999999
vt 0.03416875 0.796875
vt 0.007346875000000003 0.7852484375
vt 0.012499999999999997 0.781546875
vt 0.0354171875 0.7892671875
vt 0.116721875 0.7567140625
vt 0.116721875 0.6991265625
vt 0.12187500000000001 0.702828125
vt 0.12187500000000001 0.7530125000000001
vt 0.007346875000000003 0.7852484375
vt 0.007346875000000003 0.7276609375
vt 0.012499999999999997 0.7313625
vt 0.012499999999999997 0.781546875
vt 0.14354375 0.768340625
vt 0.116721875 0.7567140625
vt 0.12187500000000001 0.7530125000000001
vt 0.1447921875 0.7607328125
vt 0.007346875000000003 0.7276609375
vt 0.03416875 0.716034375
vt 0.0354171875 0.7236421875
vt 0.012499999999999997 0.7313625
vt 0.16895625 0.768340625
vt 0.14354375 0.768340625
vt 0.1447921875 0.7607328125
vt 0.1677078125 0.7607328125
vt 0.03416875 0.716034375
vt 0.05958125 0.716034375
vt 0.0583328125 0.7236421875
vt 0.0354171875 0.7236421875
vn -1 -1.224646799147357e-16 -2.9629076969683865e-15
vn 1 1.224646799147357e-16 2.9629076969683865e-15
vn -1.224646799147353e-16 1 -1.224646799147357e-16
vn 0.547923688440741 -0.8365283208866833 1.7258924868893783e-15
vn 0.3192667777280183 -7.695657244431614e-17 -0.9476648799228388
vn 0.31926677772801265 1.5515437992805709e-16 0.9476648799228405
vn -0.5479236884407408 -0.8365283208866834 -1.5210021407753805e-15
vn 1.224646799147353e-16 -1 1.224646799147357e-16
vn -0.3192667777280184 7.695657244431613e-17 0.9476648799228388
vn -2.9629076969683865e-15 1.224646799147353e-16 1
vn -1.224646799147353e-16 1 -1.224646799147357e-16
vn -1.224646799147353e-16 1 -1.224646799147357e-16
vn -0.3192667777280127 -1.5515437992805709e-16 -0.9476648799228405
vn 2.9629076969683865e-15 -1.224646799147353e-16 -1
vn -0.39771037099996204 -1.6106816593021897e-16 -0.9175110139933321
vn -1 -1.224646799147357e-16 -2.9629076969683865e-15
vn -0.3977103709999676 6.365721936365604e-17 0.9175110139933299
vn -2.9629076969683865e-15 1.224646799147353e-16 1
vn 0.3977103709999619 1.6106816593021894e-16 0.9175110139933322
vn 1 1.224646799147357e-16 2.9629076969683865e-15
vn 0.3977103709999675 -6.365721936365606e-17 -0.91751101399333
vn 2.9629076969683865e-15 -1.224646799147353e-16 -1
vn 1.224646799147353e-16 -1 1.224646799147357e-16
vn -1.224646799147353e-16 1 -1.224646799147357e-16
vn 1.224646799147353e-16 -1 1.224646799147357e-16
vn -1.224646799147353e-16 1 -1.224646799147357e-16
vn 1.224646799147353e-16 -1 1.224646799147357e-16
vn -1.224646799147353e-16 1 -1.224646799147357e-16
vn 1.224646799147353e-16 -1 1.224646799147357e-16
vn -1.224646799147353e-16 1 -1.224646799147357e-16
vn 1.224646799147353e-16 -1 1.224646799147357e-16
vn -1.224646799147353e-16 1 -1.224646799147357e-16
vn 1.224646799147353e-16 -1 1.224646799147357e-16
vn -1.224646799147353e-16 1 -1.224646799147357e-16
vn 1.224646799147353e-16 -1 1.224646799147357e-16
vn -1.224646799147353e-16 1 -1.224646799147357e-16
vn 1.224646799147353e-16 -1 1.224646799147357e-16
vn -1.224646799147353e-16 1 -1.224646799147357e-16
usemtl m_02ed5239-3a17-240f-752a-3c6ff969084b
f 184/673/169 199/674/169 198/675/169 183/676/169
f 187/677/170 203/678/170 202/679/170 188/680/170
f 185/681/171 196/682/171 194/683/171 186/684/171
f 188/685/172 192/686/172 191/687/172 187/688/172
f 191/689/173 204/690/173 203/691/173 187/692/173
f 188/693/174 202/694/174 201/695/174 192/696/174
f 183/697/175 189/698/175 190/699/175 184/700/175
f 189/701/176 191/702/176 192/703/176 190/704/176
f 190/705/177 200/706/177 199/707/177 184/708/177
f 192/709/178 201/710/178 200/711/178 190/712/178
f 182/713/179 193/714/179 195/715/179 181/716/179
f 193/717/180 194/718/180 196/719/180 195/720/180
f 183/721/181 198/722/181 197/723/181 189/724/181
f 189/725/182 197/726/182 204/727/182 191/728/182
f 205/729/183 206/730/183 207/731/183 208/732/183
f 208/733/184 207/734/184 209/735/184 210/736/184
f 210/737/185 209/738/185 211/739/185 212/740/185
f 212/741/186 211/742/186 213/743/186 214/744/186
f 214/745/187 213/746/187 215/747/187 216/748/187
f 216/749/188 215/750/188 217/751/188 218/752/188
f 218/753/189 217/754/189 219/755/189 220/756/189
f 220/757/190 219/758/190 206/759/190 205/760/190
f 207/761/191 206/762/191 197/763/191 198/764/191
f 205/765/192 208/766/192 181/767/192 195/768/192
f 209/769/193 207/770/193 198/771/193 199/772/193
f 208/773/194 210/774/194 182/775/194 181/776/194
f 211/777/195 209/778/195 199/779/195 200/780/195
f 210/781/196 212/782/196 193/783/196 182/784/196
f 213/785/197 211/786/197 200/787/197 201/788/197
f 212/789/198 214/790/198 194/791/198 193/792/198
f 215/793/199 213/794/199 201/795/199 202/796/199
f 214/797/200 216/798/200 186/799/200 194/800/200
f 217/801/201 215/802/201 202/803/201 203/804/201
f 216/805/202 218/806/202 185/807/202 186/808/202
f 219/809/203 217/810/203 203/811/203 204/812/203
f 218/813/204 220/814/204 196/815/204 185/816/204
f 206/817/205 219/818/205 204/819/205 197/820/205
f 220/821/206 205/822/206 195/823/206 196/824/206
o Body
v -0.16874999999999987 0.9273375427735615 -0.11160714285714354
v -0.16875000000000054 0.9273375427735615 0.11160714285714224
v -0.13399999999999987 0.7937500000000002 -0.10267857142857197
v -0.13400000000000048 0.7937500000000002 0.10267857142857091
v 0.16875000000000026 0.9273375427735615 -0.11160714285714254
v 0.1687499999999996 0.9273375427735615 0.11160714285714324
v 0.1340000000000002 0.7937500000000002 -0.10267857142857117
v 0.1339999999999996 0.7937500000000002 0.1026785714285717
v -6.101982099765442e-16 0.9273375427735615 0.15624999999999992
v -5.56802108098079e-16 0.7937500000000002 0.1437499999999999
v 2.950338547803323e-16 0.7937500000000002 -0.14375000000000018
v 3.8978313775028675e-16 0.9273375427735615 -0.18125000000000022
v -0.13399999999999987 0.860543771386781 -0.10267857142857198
v -0.13400000000000048 0.860543771386781 0.1026785714285709
v -5.649819859312592e-16 0.860543771386781 0.1437499999999999
v 0.1339999999999996 0.860543771386781 0.1026785714285717
v 0.1340000000000002 0.860543771386781 -0.10267857142857117
v 2.8685397694715217e-16 0.860543771386781 -0.14375000000000018
v 0.16875000000000023 1.093892594101836 -0.11160714285714256
v 3.6447810000127924e-16 1.1339688569339044 -0.18125000000000024
v -6.355032477255517e-16 1.1339688569339044 0.1562499999999999
v 0.16874999999999957 1.093892594101836 0.11160714285714322
v -0.16875000000000057 1.093892594101836 0.11160714285714222
v -0.1687499999999999 1.093892594101836 -0.11160714285714356
v -0.10631250000000055 1.1105910369485312 0.09547748447204925
v 8.388752054652825e-17 1.1339688569339044 -0.08654891304347845
v -5.295125861278666e-16 1.1339688569339044 0.12047748447204958
v -0.1063125000000001 1.1105910369485312 -0.03771350931677067
v 0.10631249999999999 1.1105910369485312 -0.03771350931677004
v 0.10631249999999955 1.1105910369485312 0.09547748447204987
v -0.09095488903426259 1.2076492063737831 0.09547748447204928
v 1.3830555356949126e-17 1.1855595178044434 -0.06616847826086976
v -5.394616455368419e-16 1.2043095178044436 0.12047748447204956
v -0.09095488903426219 1.1888992063737829 -0.023156055900621576
v 0.09095488903426197 1.1888992063737829 -0.023156055900621038
v 0.09095488903426156 1.2076492063737831 0.09547748447204982
v -0.09236724894974094 1.1139307255178703 -0.15892857142857195
v -0.09236724894974092 0.9273375427735615 -0.15892857142857192
v -0.0669999999999998 0.860543771386781 -0.12321428571428608
v -0.06699999999999978 0.7937500000000002 -0.12321428571428608
v -0.0670000000000005 0.7937500000000002 0.12321428571428542
v -0.06700000000000052 0.860543771386781 0.12321428571428542
v -0.08437500000000059 0.9273375427735615 0.1339285714285711
v -0.0843750000000006 1.1139307255178703 0.13392857142857106
v -0.05315625000000055 1.122279946941218 0.12047748447204941
v -0.04547744451713158 1.2059793620891133 0.12047748447204942
v -0.045477444517131066 1.187229362089113 -0.05403726708074568
v -0.05315624999999998 1.122279946941218 -0.07150621118012457
v 0.09236724894974155 1.1139307255178703 -0.1589285714285714
v 0.09236724894974156 0.9273375427735615 -0.15892857142857136
v 0.06700000000000024 0.860543771386781 -0.12321428571428569
v 0.06700000000000025 0.7937500000000002 -0.12321428571428568
v 0.06699999999999953 0.7937500000000002 0.12321428571428582
v 0.06699999999999952 0.860543771386781 0.1232142857142858
v 0.08437499999999948 0.9273375427735615 0.1339285714285716
v 0.08437499999999946 1.1139307255178703 0.13392857142857156
v 0.053156249999999496 1.122279946941218 0.12047748447204973
v 0.045477444517130504 1.2059793620891133 0.1204774844720497
v 0.04547744451713102 1.187229362089113 -0.05403726708074541
v 0.053156250000000065 1.122279946941218 -0.07150621118012425
v 3.9438643315167473e-16 1.1277188569339043 -0.1916714020600438
v 0.09236724894974158 1.1076807255178702 -0.16934997348861497
v 0.09236724894974174 0.9273375427735615 -0.21934997348861499
v 5.670714514996346e-16 0.9273375427735615 -0.2416714020600438
v -0.09236724894974091 1.1076807255178702 -0.16934997348861552
v -0.09236724894974074 0.9273375427735615 -0.21934997348861554
v -0.09236724894974074 1.0175091341457156 -0.21934997348861557
v -0.09236724894974092 1.0175091341457156 -0.15892857142857195
v -0.1687499999999999 1.0175091341457156 -0.11160714285714354
v -0.16875000000000057 1.0175091341457156 0.11160714285714224
v -0.08437500000000059 1.0175091341457156 0.13392857142857106
v -6.212410450513373e-16 1.0175091341457156 0.1562499999999999
v 0.08437499999999948 1.0175091341457156 0.13392857142857156
v 0.16874999999999957 1.0175091341457156 0.11160714285714324
v 0.16875000000000023 1.0175091341457156 -0.11160714285714254
v 0.09236724894974156 1.0175091341457156 -0.1589285714285714
v 0.09236724894974174 1.0175091341457156 -0.219349973488615
v 5.560286164248415e-16 1.0175091341457156 -0.24167140206004384
v 0.09017330849245943 1.1139307255178703 0.24434997348861517
v 0.09017330849245944 1.0175091341457156 0.2443499734886152
v 0.1659844978994819 1.0175091341457156 0.18452854491718684
v 0.1659844978994819 1.093892594101836 0.18452854491718684
v 0.16598449789948191 0.9273375427735615 0.18452854491718684
v 0.09017330849245946 0.9273375427735615 0.18184997348861517
v -0.1659844978994831 1.093892594101836 0.18452854491718584
v -0.1659844978994831 1.0175091341457156 0.18452854491718587
v -0.09017330849246083 1.0175091341457156 0.24434997348861467
v -0.09017330849246086 1.1139307255178703 0.24434997348861465
v -0.09017330849246084 0.9273375427735615 0.18184997348861465
v -0.16598449789948308 0.9273375427735615 0.18452854491718587
v -7.790485929610659e-16 1.1339688569339044 0.26667140206004347
v -7.647863902868515e-16 1.0175091341457156 0.26667140206004347
v 0.09314696003006176 1.1139307255178703 0.29939445823755184
v 0.09314696003006177 1.0175091341457156 0.29939445823755184
v 0.1586373760986696 1.0175091341457156 0.29939445823755206
v 0.1586373760986696 1.093892594101836 0.299394458237552
v -0.1586373760986717 1.093892594101836 0.2993944582375511
v -0.1586373760986717 1.0175091341457156 0.2993944582375511
v -0.09314696003006386 1.0175091341457156 0.2993944582375513
v -0.09314696003006388 1.1139307255178703 0.2993944582375513
v -0.09314696003006359 0.9273375427735615 0.20564445823755143
v -0.1586373760986714 0.9273375427735615 0.20564445823755123
v 0.1586373760986699 0.9273375427735615 0.20564445823755217
v 0.09314696003006206 0.9273375427735615 0.20564445823755198
v -0.10588051122085579 0.9362645303194048 0.21492570823755136
v -0.1459038249078795 1.0085821465998723 0.29011320823755116
v -0.105880511220856 1.0085821465998723 0.2901132082375513
v -0.14590382490787926 0.9362645303194048 0.21492570823755125
v 0.1459038249078777 0.9362645303194048 0.2149257082375521
v 0.10588051122085397 1.0085821465998723 0.29011320823755193
v 0.14590382490787746 1.0085821465998723 0.29011320823755204
v 0.1058805112208542 0.9362645303194048 0.214925708237552
v 0.14590382490787773 0.949778179691511 0.2019278707001855
v 0.10588051122085401 1.0220957959719785 0.2771153707001853
v 0.14590382490787748 1.0220957959719785 0.27711537070018544
v 0.10588051122085425 0.949778179691511 0.2019278707001854
v -0.10588051122085575 0.949778179691511 0.20192787070018475
v -0.14590382490787948 1.0220957959719785 0.27711537070018455
v -0.10588051122085596 1.0220957959719785 0.27711537070018466
v -0.14590382490787923 0.949778179691511 0.20192787070018464
vt 0.796875 0.71875
vt 0.796875 0.734375
vt 0.75 0.734375
vt 0.75 0.71875
vt 0.796875 0.6875
vt 0.796875 0.703125
vt 0.75 0.703125
vt 0.75 0.6875
vt 0.5175678213049041 0.9523453125
vt 0.5286787588049041 0.9562421875
vt 0.5254146963049041 1
vt 0.5140771963049041 0.9991109375
vt 0.1328125 0.59375
vt 0.1495625 0.598884375
vt 0.1495625 0.660490625
vt 0.1328125 0.665625
vt 0.3868375 0.2176765625
vt 0.40435625 0.2176765625
vt 0.40435625 0.234375
vt 0.3868375 0.234375
vt 0.3865862343177205 0.5230000997005934
vt 0.3690681008555081 0.522853125
vt 0.3692081934906527 0.5061552751685102
vt 0.3867263269528651 0.5063022498691035
vt 0.25780600367626627 0.5383253834381818
vt 0.24028792320689024 0.5384785442391897
vt 0.24014193413443474 0.5217807449191556
vt 0.25766001460381077 0.5216275841181478
vt 0.0993125 0.6040171875
vt 0.1160625 0.598884375
vt 0.1160625 0.660490625
vt 0.0993125 0.6553578125
vt 0.4375 0.2176765625
vt 0.45501875 0.2176765625
vt 0.45501875 0.234375
vt 0.4375 0.234375
vt 0.4940850861615803 0.9613969794206098
vt 0.5060070028576891 0.9545481282648083
vt 0.5027279787150742 0.9983050678672012
vt 0.49189822602276445 0.9913078878002719
vt 0.6752234375 0.484375
vt 0.6774546875 0.46875
vt 0.7287953125 0.46875
vt 0.7310265625 0.484375
vt 0.3873743508555081 0.5399578125
vt 0.3655540383555081 0.5399578125
vt 0.3690681008555081 0.522853125
vt 0.3865743508555081 0.523
vt 0.265625 0.5555769144309031
vt 0.24380625067830353 0.5555823549704408
vt 0.24028792320689024 0.5384785442391897
vt 0.25779257353919105 0.5383273044224695
vt 0.7064734375 0.84375
vt 0.7087046875 0.828125
vt 0.7600453125 0.828125
vt 0.7622765625 0.84375
vt 0.6956757977442505 0.859375
vt 0.7131857851497624 0.8599290240259352
vt 0.7091186172354714 0.8794789298821044
vt 0.6875 0.8757730829581429
vt 0.6911618829704274 0.71875
vt 0.7086806329704274 0.71875
vt 0.7121275079704273 0.7384187499999999
vt 0.6884150079704274 0.7376625
vt 0.4755890625 0.29710156249999997
vt 0.4755890625 0.31964375
vt 0.453125 0.31964375
vt 0.453125 0.29710156249999997
vt 0.84375 0.53125
vt 0.84375 0.5625
vt 0.828125 0.5625
vt 0.828125 0.53125
vt 0.46547343750000003 0.9583609375
vt 0.46547343750000003 0.980903125
vt 0.40967031249999997 0.980903125
vt 0.40967031249999997 0.9583609375
vt 0.3873743508555081 0.5399578125
vt 0.3873743508555081 0.5625
vt 0.3655540383555081 0.5625
vt 0.3655540383555081 0.5399578125
vt 0.859375 0.953125
vt 0.859375 0.96875
vt 0.828125 0.96875
vt 0.828125 0.953125
vt 0.3403296875 0.6302359375
vt 0.3403296875 0.652778125
vt 0.28452656249999997 0.652778125
vt 0.28452656249999997 0.6302359375
vt 0.390498107590313 0.8275451394469451
vt 0.39035859503450954 0.8139379717113053
vt 0.39365719831908835 0.8058335806269901
vt 0.39938855646958465 0.82745327414953
vt 0.3150050225229201 0.828125
vt 0.3204112725229201 0.80445625
vt 0.34234096002292014 0.81431875
vt 0.3386800225229201 0.8279515625
vt 0.3839853897155729 0.8003895660150722
vt 0.35068953214410536 0.8006498607445127
vt 0.3320903471668831 0.7846369560725104
vt 0.3878917670311436 0.7842007211608613
vt 0.38680013377765865 0.8470475770340897
vt 0.39839301405411587 0.8669297095725913
vt 0.37641493880144317 0.87668125
vt 0.3681397911232961 0.8629801750305343
vt 0.33484084021311866 0.8625869455349898
vt 0.3284092289173869 0.8761083271186032
vt 0.32514535015126633 0.8679890123594699
vt 0.3310009862790297 0.8463822396005672
vt 0.3681353481309353 0.8629839685520412
vt 0.33484084021311866 0.8625869455349898
vt 0.33100097583411553 0.8463821955216086
vt 0.38680013377765865 0.8470475770340897
vt 0.140625 0.21833281250000003
vt 0.12925625 0.21875
vt 0.1273359375 0.19782500000000003
vt 0.140625 0.2007468750000001
vt 0.32968217094287605 0.21910281809560472
vt 0.34346654594287607 0.21605750559560466
vt 0.343102483442876 0.2329778180956047
vt 0.33136967094287606 0.23283250559560464
vt 0.6963445196454593 0.453125
vt 0.6666710520396366 0.44853016271029633
vt 0.6630304803545407 0.421875
vt 0.6963123988117361 0.421875
vt 0.234375 0.109375
vt 0.2377741962401329 0.09372359462183377
vt 0.25 0.09508288853735658
vt 0.25 0.10882554016041723
vt 0.859375 0.7330104696918203
vt 0.8449538697026834 0.734375
vt 0.84375 0.7133965841255294
vt 0.859375 0.7084566195828093
vt 0.2889045506609769 0.26720807995099316
vt 0.29353290800672066 0.296875
vt 0.26896709199327934 0.296875
vt 0.26896709199327934 0.26358724740848705
vt 0.53125 0.29710156249999997
vt 0.53125 0.31964375
vt 0.5087859375 0.31964375
vt 0.5087859375 0.29710156249999997
vt 0.734375 0.7353069655604848
vt 0.7121275079704273 0.7384187499999999
vt 0.708680693277061 0.7187503441250696
vt 0.7257991749396615 0.7188203442703077
vt 0.421875 0.234375
vt 0.40435625 0.234375
vt 0.40435625 0.2176765625
vt 0.421875 0.2176765625
vt 0.1663125 0.6553578125
vt 0.1495625 0.660490625
vt 0.1495625 0.598884375
vt 0.1663125 0.6040171875
vt 0.3516900600284403 0.5060083004679169
vt 0.3692081934906527 0.5061552751685102
vt 0.3690681008555081 0.522853125
vt 0.3515499673932957 0.5227061502994067
vt 0.35154998273984994 0.5227043323645979
vt 0.3690681008555081 0.522853125
vt 0.3655539443537975 0.539958270053013
vt 0.34375 0.5399621444605756
vt 0.84375 0.34375
vt 0.84375 0.375
vt 0.828125 0.375
vt 0.828125 0.34375
vt 0.3878917103596752 0.7842009560192826
vt 0.39365719831908835 0.8058335806269901
vt 0.39035819451120346 0.8139389557634118
vt 0.3839853897155729 0.8003895660150722
vt 0.84375 0.609375
vt 0.8487138762083819 0.59524923315551
vt 0.8696910237161128 0.5964868624564553
vt 0.8683060536427947 0.609375
vt 0.5372630355313347 0.9946978294670409
vt 0.5254146963049041 1
vt 0.5286787730093345 0.9562419970763157
vt 0.5393517739772355 0.964780322012859
vt 0.35678192891515875 0.234375
vt 0.343102483442876 0.2329778180956047
vt 0.3434665231699356 0.21605856399977785
vt 0.359375 0.21426828638130346
vt 0.35068953214410536 0.8006498607445127
vt 0.34234096002292014 0.81431875
vt 0.32041176682543393 0.8044564723040589
vt 0.33209935242361177 0.7846447091174809
vt 0.140625 0.15625
vt 0.140625 0.171875
vt 0.109375 0.171875
vt 0.109375 0.15625
vt 0.7328748672354714 0.8794789298821044
vt 0.7091186172354714 0.8794789298821044
vt 0.7131858047354714 0.8599289298821045
vt 0.7306733047354714 0.8604773673821045
vt 0.4725375 0.234375
vt 0.45501875 0.234375
vt 0.45501875 0.2176765625
vt 0.4725375 0.2176765625
vt 0.1328125 0.665625
vt 0.1160625 0.660490625
vt 0.1160625 0.598884375
vt 0.1328125 0.59375
vt 0.22262385366505869 0.5219339057201635
vt 0.24014193413443474 0.5217807449191556
vt 0.24028792320689024 0.5384785442391897
vt 0.22276984273751418 0.5386317050401976
vt 0.22276984273751418 0.5386317050401976
vt 0.24028792320689024 0.5384785442391897
vt 0.2438063447941028 0.5555828125
vt 0.22200238649162363 0.5555828125
vt 0.2438063447941028 0.5555828125
vt 0.2438063447941028 0.578125
vt 0.2219860322941028 0.578125
vt 0.2219860322941028 0.5555828125
vt 0.31928804382036763 0.8895962990026643
vt 0.32514535015126633 0.8679890123594699
vt 0.328409321736854 0.8761085580188672
vt 0.32822294601378443 0.8897082479182503
vt 0.140625 0.2007468750000001
vt 0.1539140625 0.19782500000000003
vt 0.15199375 0.21875
vt 0.140625 0.21833281250000003
vt 0.5140771823605773 0.9991111243190242
vt 0.5027279787150742 0.9983050678672012
vt 0.5060070123186446 0.954548002013081
vt 0.5175678213049041 0.9523453125
vt 0.9375 0.1755746875443407
vt 0.9375 0.18734838590740954
vt 0.921875 0.1875
vt 0.9250937126912152 0.17380353547208127
vt 0.3800071263014432 0.8903328125
vt 0.37641493880144317 0.87668125
vt 0.3983930638014431 0.8669296875
vt 0.4036805638014431 0.890625
vt 0.8440273598572976 0.625
vt 0.8683063547352813 0.625
vt 0.8680289948779837 0.640625
vt 0.84375 0.640625
vt 0.18723984375 0.20335156249999997
vt 0.18723984375 0.22589375
vt 0.17213515625 0.22589375
vt 0.17213515625 0.20335156249999997
vt 0.0703125 0.301934375
vt 0.0472203125 0.29635468750000005
vt 0.0472203125 0.28125
vt 0.0703125 0.28682968750000004
vt 0.0934046875 0.29635468750000005
vt 0.0703125 0.301934375
vt 0.0703125 0.28682968750000004
vt 0.0934046875 0.28125
vt 0.062239843749999996 0.18772656249999997
vt 0.062239843749999996 0.21026875
vt 0.047135156250000004 0.21026875
vt 0.047135156250000004 0.18772656249999997
vt 0.84375 0.6875
vt 0.84375 0.6632210051220163
vt 0.859375 0.6629436452647187
vt 0.859375 0.6872226401427024
vt 0.05963515625 0.2328125000000001
vt 0.047135156250000004 0.21026875
vt 0.062239843749999996 0.21026875
vt 0.062239843749999996 0.234375
vt 0.5087859375 0.34375
vt 0.5087859375 0.31964375
vt 0.53125 0.31964375
vt 0.53125 0.338740625
vt 0.28452656249999997 0.671875
vt 0.28452656249999997 0.652778125
vt 0.3403296875 0.652778125
vt 0.3403296875 0.671875
vt 0.640625 0.18249062500000002
vt 0.640625 0.15625
vt 0.65625 0.15625
vt 0.65625 0.1875
vt 0.765625 0.18249062500000002
vt 0.765625 0.15625
vt 0.78125 0.15625
vt 0.78125 0.1875
vt 0.203125 0.171875
vt 0.203125 0.140625
vt 0.21875 0.140625
vt 0.21875 0.16686562500000002
vt 0.671875 0.1875
vt 0.671875 0.15625
vt 0.6875 0.15625
vt 0.6875 0.18249062500000002
vt 0.40967031249999997 1
vt 0.40967031249999997 0.980903125
vt 0.46547343750000003 0.980903125
vt 0.46547343750000003 1
vt 0.453125 0.338740625
vt 0.453125 0.31964375
vt 0.4755890625 0.31964375
vt 0.4755890625 0.34375
vt 0.17213515625 0.25
vt 0.17213515625 0.22589375
vt 0.18723984375 0.22589375
vt 0.17473984375 0.2484375000000001
vt 0.75 0.4045750853524521
vt 0.75 0.37879796726499837
vt 0.7736016575933624 0.3760922006623182
vt 0.7741038723626839 0.40625
vt 0.78125 0.515625
vt 0.7509947131024362 0.515625
vt 0.7532999916962408 0.4919808653220836
vt 0.7789940942337463 0.49153615458046107
vt 0.3914265625 1
vt 0.3914265625 0.980903125
vt 0.40967031249999997 0.980903125
vt 0.40967031249999997 1
vt 0.2975653185664441 0.8662524667394637
vt 0.3127604146872077 0.846833729030919
vt 0.3309987771552173 0.8463903910695397
vt 0.32514535015126633 0.8679890123594699
vt 0.3914265625 0.980903125
vt 0.3914265625 0.9583609375
vt 0.40967031249999997 0.9583609375
vt 0.40967031249999997 0.980903125
vt 0.5432906244647372 0.42208621780538924
vt 0.5588941547011894 0.44464375
vt 0.53125040470565 0.44464424660510193
vt 0.53125 0.4221161216087371
vt 0.80264375 0.583403125
vt 0.821596875 0.5840734375000001
vt 0.823046875 0.5960531250000001
vt 0.801953125 0.6016343749999999
vt 0.3585734375 0.652778125
vt 0.3585734375 0.671875
vt 0.3403296875 0.671875
vt 0.3403296875 0.652778125
vt 0.4061247521928729 0.7847122913585408
vt 0.4212507782416958 0.8041842780987519
vt 0.39365600606824336 0.8058291071955737
vt 0.3878917103596752 0.7842009560192826
vt 0.4565917034541566 0.44465971258198067
vt 0.47230830672790086 0.42217915951268625
vt 0.484375 0.42228837323541923
vt 0.4841716755269386 0.4447530781255191
vt 0.3585734375 0.6302359375
vt 0.3585734375 0.652778125
vt 0.3403296875 0.652778125
vt 0.3403296875 0.6302359375
vt 0.803403125 0.49032343749999996
vt 0.82235625 0.489653125
vt 0.823046875 0.5078843749999999
vt 0.801953125 0.5023031250000001
vt 0.61026875 0.8962046875
vt 0.6328125 0.890625
vt 0.6328125 0.9182296875
vt 0.61171875 0.923809375
vt 0.2917161683624747 0.8892788551552235
vt 0.2975653185664441 0.8662524667394637
vt 0.3251544348337901 0.8679895843662712
vt 0.31931773233246374 0.8895998938205986
vt 0.6328125 0.890625
vt 0.65535625 0.8962046875
vt 0.65390625 0.923809375
vt 0.6328125 0.9182296875
vt 0.4212507782416958 0.8041842780987519
vt 0.4270219249832533 0.827230927897531
vt 0.39941818807779167 0.8274600148389175
vt 0.3936587893845105 0.8058289412917006
vt 0.5726754047011894 0.44464375
vt 0.5726754047011894 0.46875
vt 0.5588941547011894 0.46875
vt 0.5588941547011894 0.44464375
vt 0.36265156249999997 1
vt 0.36265156249999997 0.980903125
vt 0.3914265625 0.980903125
vt 0.3914265625 1
vt 0.2838194361985569 0.8653817755300713
vt 0.2840176150053273 0.8482619197914236
vt 0.3127573450983127 0.8468376518453028
vt 0.2975653185664441 0.8662524667394637
vt 0.38734843750000003 0.6527281250000001
vt 0.38734843750000003 0.6718250000000001
vt 0.3585734375 0.6718250000000001
vt 0.3585734375 0.6527281250000001
vt 0.44285387159591555 0.46875
vt 0.44285387159591555 0.44464375
vt 0.45663512159591557 0.44464375
vt 0.45663512159591557 0.46875
vt 0.43484452967727993 0.7862141193124625
vt 0.4349949774770799 0.8033363120633972
vt 0.4212389064493188 0.8041689953415359
vt 0.4061247521928729 0.7847122913585408
vt 0.44285387159591555 0.44464375
vt 0.46631479829062616 0.42212534803791135
vt 0.47230830672790086 0.42217915951268625
vt 0.4566028632137693 0.44464375
vt 0.363959375 0.6301359375
vt 0.38734843750000003 0.6527281250000001
vt 0.3585734375 0.6527281250000001
vt 0.3585734375 0.6302359375
vt 0.804146875 0.484375
vt 0.82051875 0.484375
vt 0.82235625 0.489653125
vt 0.803403125 0.49032343749999996
vt 0.21576033527280772 0.22382346553656407
vt 0.21576033527280772 0.19130452555507738
vt 0.21985462457983884 0.1875
vt 0.234375 0.20312628952183076
vt 0.5492722797011894 0.422065625
vt 0.5726754047011894 0.44464375
vt 0.5588941547011894 0.44464375
vt 0.5432925922011894 0.4220890625
vt 0.80448125 0.578125
vt 0.820853125 0.578125
vt 0.821596875 0.5840734375000001
vt 0.80264375 0.583403125
vt 0.520628125 0.201175
vt 0.520628125 0.1750953125
vt 0.5238109375 0.171875
vt 0.5238109375 0.20439531249999998
vt 0.510621875 0.201175
vt 0.520628125 0.201175
vt 0.5238109375 0.20439531249999998
vt 0.5074390625 0.20439531249999998
vt 0.510621875 0.1750953125
vt 0.510621875 0.201175
vt 0.5074390625 0.20439531249999998
vt 0.5074390625 0.171875
vt 0.520628125 0.1750953125
vt 0.510621875 0.1750953125
vt 0.5074390625 0.171875
vt 0.5238109375 0.171875
vt 0.567503125 0.201175
vt 0.567503125 0.1750953125
vt 0.5706859375 0.171875
vt 0.5706859375 0.20439531249999998
vt 0.557496875 0.201175
vt 0.567503125 0.201175
vt 0.5706859375 0.20439531249999998
vt 0.5543140625 0.20439531249999998
vt 0.557496875 0.1750953125
vt 0.557496875 0.201175
vt 0.5543140625 0.20439531249999998
vt 0.5543140625 0.171875
vt 0.567503125 0.1750953125
vt 0.557496875 0.1750953125
vt 0.5543140625 0.171875
vt 0.5706859375 0.171875
vt 0.84375 0.3125
vt 0.8125 0.3125
vt 0.8125 0.296875
vt 0.84375 0.296875
vt 0.9375 0.65625
vt 0.921875 0.65625
vt 0.921875 0.640625
vt 0.9375 0.640625
vt 0.75 0.15625
vt 0.75 0.1875
vt 0.734375 0.1875
vt 0.734375 0.15625
vt 0.9375 0.6875
vt 0.921875 0.6875
vt 0.921875 0.671875
vt 0.9375 0.671875
vt 0.0625 0.171875
vt 0.03125 0.171875
vt 0.03125 0.15625
vt 0.0625 0.15625
vt 0.375 0.078125
vt 0.359375 0.078125
vt 0.359375 0.0625
vt 0.375 0.0625
vt 0.71875 0.15625
vt 0.71875 0.1875
vt 0.703125 0.1875
vt 0.703125 0.15625
vt 0.34375 0.078125
vt 0.328125 0.078125
vt 0.328125 0.0625
vt 0.34375 0.0625
vn -1 -1.224646799147357e-16 -2.9629076969683865e-15
vn 1 1.224646799147357e-16 2.9629076969683865e-15
vn 0.008011639772848385 0.994245823912753 -0.10682254097427799
vn 1.224646799147353e-16 -1 1.224646799147357e-16
vn -0.29304709701856985 -1.5297615532682606e-16 -0.9560980069684222
vn -0.2930470970185755 8.120031745418206e-17 0.9560980069684204
vn 0.29304709701857007 1.5297615532682608e-16 0.9560980069684222
vn 1.224646799147353e-16 -1 1.224646799147357e-16
vn 0.29304709701857573 -8.120031745418203e-17 -0.9560980069684204
vn 0.0360082604728062 0.9936329372062747 -0.10675669195209372
vn -0.8871230656264008 -0.46153295270610634 -2.571942273979398e-15
vn -0.24969450250052197 -0.21635354662841572 0.9438452194519622
vn 0.24969450250051664 -0.21635354662841574 0.9438452194519639
vn 0.8871230656264008 -0.461532952706106 2.6849852446259095e-15
vn 0.24878084296056485 -0.5284813438217327 -0.8116745415548072
vn -0.24878084296055977 -0.5284813438217327 -0.8116745415548088
vn 0.5266512215941545 -3.960878077653694e-17 -0.8500814612690862
vn -1.9656772340572364e-15 -0.7207279665123257 0.6932180019928854
vn 1 1.224646799147357e-16 2.9629076969683865e-15
vn -0.2557519663917218 8.707121991079823e-17 0.9667424329606971
vn -0.23489793372714868 -1.4780482349767776e-16 -0.9720200413215339
vn -1 -1.224646799147357e-16 -2.9629076969683865e-15
vn -0.21352950027748782 0.9710424245055316 0.10715298559380203
vn -0.21164204686331917 0.9773459621974381 0.0015856152966307298
vn -0.258362341791703 0.9660480838674167 -9.914904264763897e-16
vn 0.24395637857746463 0.9696404137464285 0.01681527225541246
vn 0.2373853605810143 0.9700663953143494 0.051179871665004706
vn 0.25836234179170264 0.9660480838674168 7.548768877302555e-16
vn -2.9629076969683865e-15 1.224646799147353e-16 1
vn -0.31804871557352543 0.28112975972229826 -0.905434190165422
vn -0.9797116912563171 0.19795490178792172 -0.03128672040692994
vn 0.5581418903841756 0.2764108997840145 -0.7823519953824946
vn 0.48002281176465716 0.04403856099074969 0.8761499331344018
vn 0.9874105618750894 0.15623895816845107 -0.024693526438269817
vn -0.5266512215941493 -1.6860112733500164e-16 -0.8500814612690893
vn -0.4406493155688459 -0.5476608004097168 -0.7112635435499954
vn -0.29304709701857007 -1.5297615532682608e-16 -0.9560980069684222
vn 1.224646799147353e-16 -1 1.224646799147357e-16
vn -0.29304709701857573 8.120031745418203e-17 0.9560980069684204
vn -0.2856157367184481 -0.22377395114534956 0.9318523862327
vn -1.9656772340572364e-15 -0.7207279665123256 0.6932180019928854
vn -0.24130545088787056 0.9695502420053047 0.04176131702014328
vn -0.43238678776674394 0.039668306292900656 0.9008152370162317
vn 0.09480373517856523 0.9897994899622425 -0.1063448234126947
vn -0.5326218534479623 0.27797919709893537 -0.7994007300533873
vn -0.21332470521644276 0.9769784682897431 0.002375424708409977
vn 0.2348979337271544 -9.02714229646209e-17 -0.9720200413215323
vn 0.20062727701074093 -0.5201021710196604 -0.830206255950828
vn 0.2930470970185755 -8.120031745418206e-17 -0.9560980069684204
vn 1.224646799147353e-16 -1 1.224646799147357e-16
vn 0.29304709701856985 1.5297615532682606e-16 0.9560980069684222
vn 0.28561573671844237 -0.2237739511453495 0.9318523862327016
vn 0.25575196639171605 1.497123853142504e-16 0.9667424329606986
vn 0.24130545088786862 0.969550242005305 0.04176131702014852
vn -2.9629076969683865e-15 1.224646799147353e-16 1
vn -0.0364836606599135 0.9936157932063108 -0.10675484998746654
vn 0.23799283056737858 0.27840923570946835 -0.9305093820430812
vn 0.2140340382296476 0.9768224478511995 0.0027084780043989377
vn 0.296393246067855 0.8190608295050299 -0.49121319328362123
vn 1 1.224646799147357e-16 2.9629076969683865e-15
vn 1.224646799147353e-16 -1 1.224646799147357e-16
vn 1.224646799147353e-16 -1 1.224646799147357e-16
vn -1 -1.224646799147357e-16 -2.9629076969683865e-15
vn -0.29639324606785217 0.8190608295050305 -0.4912131932836223
vn -1 -1.224646799147357e-16 -2.9629076969683865e-15
vn -0.5266512215941492 -1.6860112733500162e-16 -0.8500814612690893
vn -1 -1.224646799147357e-16 -2.9629076969683865e-15
vn -2.9629076969683865e-15 1.224646799147353e-16 1
vn -0.2402867816632537 5.486601070797919e-17 0.9707019432132171
vn 0.24028678166324802 1.4830334657235029e-16 0.9707019432132187
vn -2.9629076969683865e-15 1.224646799147353e-16 1
vn 1 1.224646799147357e-16 2.9629076969683865e-15
vn 0.5266512215941545 -3.960878077653694e-17 -0.8500814612690862
vn 1 1.224646799147357e-16 2.9629076969683865e-15
vn 0.20677577016558285 0.4744559965928123 -0.8556490449767075
vn -0.21492737523287037 0.4034947163761868 -0.8893808167663669
vn 0.9992816438638463 1.2701777265429547e-16 0.03789717979967991
vn 0.26287338637920493 0.9647788323559605 0.009969321511444414
vn 0.9992816438638463 1.2701777265429547e-16 0.037897179799679916
vn -0.9979651904504796 -0.036322333088813455 0.052403881231483686
vn 1.224646799147353e-16 -1 1.224646799147357e-16
vn -0.9992816438638463 -1.1773564066661785e-16 0.03789717979967702
vn -0.245980096027404 0.9691888123289732 -0.012916594547462296
vn 0.9893362965387001 -0.08297094328804529 0.11970595190290875
vn -0.9992816438638463 -1.1773564066661785e-16 0.03789717979967702
vn 1.224646799147353e-16 -1 1.224646799147357e-16
vn 1.224646799147353e-16 -1 1.224646799147357e-16
vn 0.21425801975344752 0.9767123012713647 -0.011250845147198372
vn 1.224646799147353e-16 -1 1.224646799147357e-16
vn -0.21692652132161275 0.9761879349527446 -4.221381073352951e-16
vn -0.9985439603504457 -1.1568012712462073e-16 0.05394403811032112
vn 0.997960648708793 1.3003211547435607e-16 0.0638321519982308
vn 0.2925301454851353 0.9560732257251273 0.018710986986141553
vn -0.9979606487087934 -1.1439774734889289e-16 0.06383215199822297
vn 0.9985439603504449 2.7261125849708516e-16 0.05394403811033354
vn -0.2925448254266529 0.9561212040249932 -0.015804060550581974
vn 0.9841355015914224 -0.12787045515681622 0.12298967926370219
vn -0.995770196530949 -0.06621962779371687 0.06369204499446293
vn 1.224646799147353e-16 -1 1.224646799147357e-16
vn 0.8937384883625512 -0.3233101746497602 0.3109695248531015
vn -0.9969771944776478 -0.05599677692162997 0.053859397191835676
vn 1.224646799147353e-16 -1 1.224646799147357e-16
vn -5.883345887424416e-15 -0.7207279665123257 0.6932180019928853
vn -1.965677234057248e-15 -0.7207279665123221 0.6932180019928892
vn -7.18923543854681e-15 -0.7207279665123257 0.6932180019928854
vn -1.9656772340572443e-15 -0.7207279665123231 0.6932180019928881
vn -5.883345887424417e-15 -0.7207279665123257 0.6932180019928854
vn -1.965677234057248e-15 -0.7207279665123221 0.6932180019928892
vn -7.18923543854681e-15 -0.7207279665123256 0.6932180019928853
vn -1.9656772340572443e-15 -0.7207279665123231 0.6932180019928881
vn -1 -1.224646799147357e-16 -2.9629076969683865e-15
vn 2.22034516012494e-15 -0.6932180019928833 -0.7207279665123276
vn 1 2.1468270235001464e-16 3.0587853394913648e-15
vn -2.2203451601249405e-15 0.6932180019928833 0.7207279665123277
vn -1 -3.024665747945673e-17 -2.8670300544454083e-15
vn 2.22034516012494e-15 -0.6932180019928833 -0.7207279665123276
vn 1 1.224646799147357e-16 2.9629076969683865e-15
vn -2.2203451601249405e-15 0.6932180019928833 0.7207279665123277
usemtl m_02ed5239-3a17-240f-752a-3c6ff969084b
f 224/825/207 234/826/207 233/827/207 223/828/207
f 227/829/208 237/830/208 236/831/208 228/832/208
f 252/833/209 267/834/209 266/835/209 253/836/209
f 230/837/210 261/838/210 260/839/210 231/840/210
f 231/841/211 260/842/211 259/843/211 238/844/211
f 235/845/212 262/846/212 261/847/212 230/848/212
f 236/849/213 274/850/213 273/851/213 228/852/213
f 228/853/214 273/854/214 272/855/214 227/856/214
f 227/857/215 272/858/215 271/859/215 237/860/215
f 255/861/216 279/862/216 278/863/216 256/864/216
f 221/865/217 233/866/217 234/867/217 222/868/217
f 229/869/218 263/870/218 262/871/218 235/872/218
f 226/873/219 275/874/219 274/875/219 236/876/219
f 226/877/220 236/878/220 237/879/220 225/880/220
f 237/881/221 271/882/221 270/883/221 225/884/221
f 238/885/222 259/886/222 258/887/222 232/888/222
f 270/889/223 296/890/223 295/891/223 225/892/223
f 333/893/224 335/894/224 334/895/224 336/896/224
f 225/897/225 295/898/225 294/899/225 226/900/225
f 229/901/226 292/902/226 291/903/226 263/904/226
f 286/905/227 287/906/227 298/907/227 284/908/227
f 222/909/228 290/910/228 289/911/228 221/912/228
f 247/913/229 265/914/229 264/915/229 241/916/229
f 240/917/230 257/918/230 268/919/230 246/920/230
f 245/921/231 248/922/231 244/923/231 243/924/231
f 239/925/232 269/926/232 280/927/232 249/928/232
f 250/929/233 277/930/233 276/931/233 242/932/233
f 249/933/234 250/934/234 242/935/234 239/936/234
f 253/937/235 266/938/235 265/939/235 247/940/235
f 246/941/236 268/942/236 267/943/236 252/944/236
f 251/945/237 254/946/237 248/947/237 245/948/237
f 249/949/238 280/950/238 279/951/238 255/952/238
f 256/953/239 278/954/239 277/955/239 250/956/239
f 255/957/240 256/958/240 250/959/240 249/960/240
f 221/961/241 289/962/241 288/963/241 258/964/241
f 221/965/242 258/966/242 259/967/242 233/968/242
f 233/969/243 259/970/243 260/971/243 223/972/243
f 223/973/244 260/974/244 261/975/244 224/976/244
f 224/977/245 261/978/245 262/979/245 234/980/245
f 234/981/246 262/982/246 263/983/246 222/984/246
f 337/985/247 339/986/247 338/987/247 340/988/247
f 243/989/248 264/990/248 265/991/248 245/992/248
f 245/993/249 265/994/249 266/995/249 251/996/249
f 251/997/250 266/998/250 267/999/250 254/1000/250
f 254/1001/251 267/1002/251 268/1003/251 248/1004/251
f 248/1005/252 268/1006/252 257/1007/252 244/1008/252
f 284/1009/253 298/1010/253 297/1011/253 283/1012/253
f 232/1013/254 270/1014/254 271/1015/254 238/1016/254
f 238/1017/255 271/1018/255 272/1019/255 231/1020/255
f 231/1021/256 272/1022/256 273/1023/256 230/1024/256
f 230/1025/257 273/1026/257 274/1027/257 235/1028/257
f 235/1029/258 274/1030/258 275/1031/258 229/1032/258
f 275/1033/259 293/1034/259 292/1035/259 229/1036/259
f 241/1037/260 276/1038/260 277/1039/260 247/1040/260
f 247/1041/261 277/1042/261 278/1043/261 253/1044/261
f 253/1045/262 278/1046/262 279/1047/262 252/1048/262
f 252/1049/263 279/1050/263 280/1051/263 246/1052/263
f 246/1053/264 280/1054/264 269/1055/264 240/1056/264
f 282/1057/265 281/1058/265 240/1059/265 269/1060/265
f 283/1061/266 297/1062/266 296/1063/266 270/1064/266
f 284/1065/267 283/1066/267 270/1067/267 232/1068/267
f 286/1069/268 284/1070/268 232/1071/268 258/1072/268
f 258/1073/269 288/1074/269 287/1075/269 286/1076/269
f 281/1077/270 285/1078/270 257/1079/270 240/1080/270
f 285/1081/271 287/1082/271 288/1083/271 257/1084/271
f 257/1085/272 288/1086/272 289/1087/272 244/1088/272
f 244/1089/273 289/1090/273 290/1091/273 243/1092/273
f 317/1093/274 318/1094/274 319/1095/274 320/1096/274
f 308/1097/275 307/1098/275 312/1099/275 311/1100/275
f 311/1101/276 312/1102/276 300/1103/276 299/1104/276
f 313/1105/277 314/1106/277 315/1107/277 316/1108/277
f 242/1109/278 294/1110/278 295/1111/278 239/1112/278
f 239/1113/279 295/1114/279 296/1115/279 269/1116/279
f 269/1117/280 296/1118/280 297/1119/280 282/1120/280
f 282/1121/281 297/1122/281 298/1123/281 281/1124/281
f 281/1125/282 298/1126/282 287/1127/282 285/1128/282
f 302/1129/283 301/1130/283 294/1131/283 242/1132/283
f 299/1133/284 302/1134/284 242/1135/284 276/1136/284
f 301/1137/285 303/1138/285 226/1139/285 294/1140/285
f 304/1141/286 300/1142/286 293/1143/286 275/1144/286
f 303/1145/287 304/1146/287 275/1147/287 226/1148/287
f 306/1149/288 305/1150/288 243/1151/288 290/1152/288
f 305/1153/289 308/1154/289 264/1155/289 243/1156/289
f 307/1157/290 309/1158/290 263/1159/290 291/1160/290
f 310/1161/291 306/1162/291 290/1163/291 222/1164/291
f 309/1165/292 310/1166/292 222/1167/292 263/1168/292
f 300/1169/293 312/1170/293 292/1171/293 293/1172/293
f 311/1173/294 299/1174/294 276/1175/294 241/1176/294
f 312/1177/295 307/1178/295 291/1179/295 292/1180/295
f 308/1181/296 311/1182/296 241/1183/296 264/1184/296
f 314/1185/297 313/1186/297 299/1187/297 300/1188/297
f 316/1189/298 315/1190/298 301/1191/298 302/1192/298
f 313/1193/299 316/1194/299 302/1195/299 299/1196/299
f 318/1197/300 317/1198/300 305/1199/300 306/1200/300
f 320/1201/301 319/1202/301 307/1203/301 308/1204/301
f 317/1205/302 320/1206/302 308/1207/302 305/1208/302
f 319/1209/303 321/1210/303 309/1211/303 307/1212/303
f 322/1213/304 318/1214/304 306/1215/304 310/1216/304
f 321/1217/305 322/1218/305 310/1219/305 309/1220/305
f 315/1221/306 323/1222/306 303/1223/306 301/1224/306
f 324/1225/307 314/1226/307 300/1227/307 304/1228/307
f 323/1229/308 324/1230/308 304/1231/308 303/1232/308
f 327/1233/309 325/1234/309 321/1235/309 319/1236/309
f 326/1237/310 327/1238/310 319/1239/310 318/1240/310
f 328/1241/311 326/1242/311 318/1243/311 322/1244/311
f 325/1245/312 328/1246/312 322/1247/312 321/1248/312
f 331/1249/313 329/1250/313 323/1251/313 315/1252/313
f 330/1253/314 331/1254/314 315/1255/314 314/1256/314
f 332/1257/315 330/1258/315 314/1259/315 324/1260/315
f 329/1261/316 332/1262/316 324/1263/316 323/1264/316
f 335/1265/317 333/1266/317 329/1267/317 331/1268/317
f 334/1269/318 335/1270/318 331/1271/318 330/1272/318
f 336/1273/319 334/1274/319 330/1275/319 332/1276/319
f 333/1277/320 336/1278/320 332/1279/320 329/1280/320
f 339/1281/321 337/1282/321 325/1283/321 327/1284/321
f 338/1285/322 339/1286/322 327/1287/322 326/1288/322
f 340/1289/323 338/1290/323 326/1291/323 328/1292/323
f 337/1293/324 340/1294/324 328/1295/324 325/1296/324