# Made in Blockbench 5.1.5
mtllib CommandoHead.mtl

o cylinder
v 0.04354174377005742 1.5921875000000003 0.1453125000000003
v 0.04354174377005742 1.5921875000000003 -0.2421874999999996
v 0.11895825622994255 1.5486457562299427 0.1453125000000003
v 0.11895825622994255 1.5486457562299427 -0.2421874999999996
v 0.16249999999999998 1.4732292437700578 0.14531250000000026
v 0.16249999999999998 1.4732292437700578 -0.24218749999999964
v 0.16249999999999998 1.3861457562299426 0.14531250000000023
v 0.16249999999999998 1.3861457562299426 -0.24218749999999967
v 0.11895825622994255 1.3107292437700577 0.14531250000000023
v 0.11895825622994255 1.3107292437700577 -0.24218749999999967
v 0.04354174377005747 1.2671875000000001 0.1453125000000002
v 0.04354174377005747 1.2671875000000001 -0.2421874999999997
v -0.043541743770057366 1.2671875000000001 0.1453125000000002
v -0.043541743770057366 1.2671875000000001 -0.2421874999999997
v -0.1189582562299425 1.3107292437700577 0.14531250000000023
v -0.1189582562299425 1.3107292437700577 -0.24218749999999967
v -0.16249999999999992 1.3861457562299426 0.14531250000000023
v -0.16249999999999992 1.3861457562299426 -0.24218749999999967
v -0.16249999999999998 1.4732292437700576 0.14531250000000026
v -0.16249999999999998 1.4732292437700576 -0.24218749999999964
v -0.11895825622994255 1.5486457562299427 0.1453125000000003
v -0.11895825622994255 1.5486457562299427 -0.2421874999999996
v -0.043541743770057414 1.5921875000000003 0.1453125000000003
v -0.043541743770057414 1.5921875000000003 -0.2421874999999996
v 0.03426235575348781 1.5575563524590168 -0.30468749999999967
v 0.09360649670552856 1.5232939967055288 -0.30468749999999967
v 0.12786885245901639 1.4639498557534882 -0.3046874999999997
v 0.12786885245901639 1.3954251442465122 -0.3046874999999997
v 0.09360649670552856 1.3360810032944717 -0.3046874999999997
v 0.03426235575348784 1.3018186475409836 -0.3046874999999997
v -0.03426235575348776 1.3018186475409836 -0.3046874999999997
v -0.09360649670552852 1.3360810032944717 -0.3046874999999997
v -0.12786885245901633 1.3954251442465122 -0.3046874999999997
v -0.12786885245901639 1.463949855753488 -0.3046874999999997
v -0.09360649670552856 1.5232939967055288 -0.30468749999999967
v -0.034262355753487794 1.5575563524590168 -0.30468749999999967
v 0.025696766815115856 1.5255891393442624 -0.30468749999999967
v 0.07020487252914642 1.4998923725291466 -0.30468749999999967
v 0.09590163934426228 1.455384266815116 -0.3046874999999997
v 0.09590163934426228 1.4039907331848844 -0.3046874999999997
v 0.07020487252914642 1.3594826274708538 -0.3046874999999997
v 0.025696766815115884 1.333785860655738 -0.3046874999999997
v -0.02569676681511582 1.333785860655738 -0.3046874999999997
v -0.0702048725291464 1.3594826274708538 -0.3046874999999997
v -0.09590163934426225 1.4039907331848844 -0.3046874999999997
v -0.09590163934426228 1.455384266815116 -0.3046874999999997
v -0.07020487252914642 1.4998923725291466 -0.30468749999999967
v -0.02569676681511585 1.5255891393442624 -0.30468749999999967
v -1.1968772807415217e-18 1.4296875000000002 -0.24218749999999964
v 0.025696766815115856 1.5255891393442624 -0.24218749999999964
v 0.07020487252914642 1.4998923725291466 -0.24218749999999964
v 0.09590163934426228 1.455384266815116 -0.24218749999999964
v 0.09590163934426228 1.4039907331848844 -0.24218749999999967
v 0.07020487252914642 1.3594826274708538 -0.24218749999999967
v 0.025696766815115884 1.333785860655738 -0.24218749999999967
v -0.02569676681511582 1.333785860655738 -0.24218749999999967
v -0.0702048725291464 1.3594826274708538 -0.24218749999999967
v -0.09590163934426225 1.4039907331848844 -0.24218749999999967
v -0.09590163934426228 1.455384266815116 -0.24218749999999964
v -0.07020487252914642 1.4998923725291466 -0.24218749999999964
v -0.02569676681511585 1.5255891393442624 -0.24218749999999964
v 0.032656307827543064 1.5515625000000002 0.17187500000000025
v 0.08921869217245691 1.5189061921724571 0.17187500000000022
v 0.12187499999999997 1.4623438078275435 0.17187500000000022
v 0.12187499999999997 1.397031192172457 0.1718750000000002
v 0.08921869217245691 1.3404688078275433 0.1718750000000002
v 0.0326563078275431 1.3078125000000003 0.1718750000000002
v -0.03265630782754302 1.3078125000000003 0.1718750000000002
v -0.08921869217245687 1.3404688078275433 0.1718750000000002
v -0.12187499999999996 1.397031192172457 0.1718750000000002
v -0.12187499999999997 1.4623438078275433 0.17187500000000022
v -0.08921869217245691 1.5189061921724571 0.17187500000000022
v -0.03265630782754306 1.5515625000000002 0.17187500000000025
v -1.1310234559998673e-18 1.4296875000000002 0.23437500000000033
v 0.02428289556407048 1.5203125000000002 0.23437500000000033
v 0.06634210443592949 1.4960296044359298 0.23437500000000033
v 0.09062499999999997 1.4539703955640708 0.23437500000000033
v 0.09062499999999997 1.4054046044359296 0.2343750000000003
v 0.06634210443592949 1.3633453955640706 0.2343750000000003
v 0.024282895564070508 1.3390625000000003 0.2343750000000003
v -0.02428289556407045 1.3390625000000003 0.2343750000000003
v -0.06634210443592946 1.3633453955640706 0.2343750000000003
v -0.09062499999999996 1.4054046044359296 0.2343750000000003
v -0.09062499999999997 1.4539703955640706 0.23437500000000033
v -0.06634210443592949 1.4960296044359298 0.23437500000000033
v -0.024282895564070477 1.5203125000000002 0.23437500000000033
v 0.04354174377005742 1.5921875000000003 -0.1140624999999994
v -0.043541743770057414 1.5921875000000003 -0.1140624999999994
v -0.11895825622994255 1.5486457562299427 -0.11406249999999941
v -0.16249999999999998 1.4732292437700576 -0.11406249999999943
v -0.16249999999999992 1.3861457562299426 -0.11406249999999944
v -0.1189582562299425 1.3107292437700577 -0.11406249999999947
v -0.043541743770057366 1.2671875000000001 -0.11406249999999947
v 0.04354174377005747 1.2671875000000001 -0.11406249999999947
v 0.11895825622994255 1.3107292437700577 -0.11406249999999947
v 0.16249999999999998 1.3861457562299426 -0.11406249999999944
v 0.16249999999999998 1.4732292437700578 -0.11406249999999943
v 0.11895825622994255 1.5486457562299427 -0.11406249999999941
v -0.02479174377005741 1.6359375 -0.2421874999999996
v 0.02479174377005742 1.6171874999999998 -0.1140624999999994
v -0.02479174377005741 1.6171874999999998 -0.1140624999999994
v 0.02479174377005742 1.6359375 -0.2421874999999996
v -0.1259793624128643 1.5364848435957863 0.1312148437500003
v -0.1259793624128643 1.5364848435957863 -0.09215234374999938
v -0.15547889381707822 1.485390156404214 -0.0921523437499994
v -0.15547889381707822 1.485390156404214 0.13121484375000028
v 0.15547889381707822 1.4853901564042142 0.13121484375000028
v 0.15547889381707822 1.4853901564042142 -0.0921523437499994
v 0.1259793624128643 1.5364848435957863 -0.09215234374999938
v 0.1259793624128643 1.5364848435957863 0.1312148437500003
v -0.1665743032152599 1.5599223435957863 0.08433984375000034
v -0.1665743032152599 1.5599223435957863 -0.09215234374999938
v -0.1960738346194738 1.508827656404214 -0.09215234374999938
v -0.1960738346194738 1.508827656404214 0.08433984375000034
v 0.19607383461947375 1.5088276564042142 0.08433984375000034
v 0.19607383461947375 1.5088276564042142 -0.09215234374999938
v 0.16657430321525984 1.5599223435957863 -0.09215234374999938
v 0.16657430321525984 1.5599223435957863 0.08433984375000034
vt 0.33251171875 0.73837109375
vt 0.32725390625 0.74140625
vt 0.32421875 0.730078125
vt 0.3016140625 0.7109375
vt 0.3016140625 0.694921875
vt 0.3125 0.694921875
vt 0.3125 0.7109375
vt 0.15164921875 0.7104
vt 0.15721328125 0.71361171875
vt 0.1484375 0.7223875
vt 0.335546875 0.73311328125
vt 0.33251171875 0.73837109375
vt 0.32421875 0.730078125
vt 0.23911484375 0.6953125
vt 0.23911484375 0.679296875
vt 0.25 0.679296875
vt 0.25 0.6953125
vt 0.15721328125 0.71361171875
vt 0.16042499999999998 0.71917578125
vt 0.1484375 0.7223875
vt 0.335546875 0.72704296875
vt 0.335546875 0.73311328125
vt 0.32421875 0.730078125
vt 0.06486953125 0.703125
vt 0.06486953125 0.687109375
vt 0.07575546875 0.687109375
vt 0.07575546875 0.703125
vt 0.16042499999999998 0.71917578125
vt 0.16042499999999998 0.72559921875
vt 0.1484375 0.7223875
vt 0.33251171875 0.72178515625
vt 0.335546875 0.72704296875
vt 0.32421875 0.730078125
vt 0.2109375 0.6953125
vt 0.2109375 0.679296875
vt 0.22182265625 0.679296875
vt 0.22182265625 0.6953125
vt 0.16042499999999998 0.72559921875
vt 0.15721328125 0.73116328125
vt 0.1484375 0.7223875
vt 0.32725390625 0.71875
vt 0.33251171875 0.72178515625
vt 0.32421875 0.730078125
vt 0.109375 0.703125
vt 0.109375 0.687109375
vt 0.1202609375 0.687109375
vt 0.1202609375 0.703125
vt 0.15721328125 0.73116328125
vt 0.15164921875 0.734375
vt 0.1484375 0.7223875
vt 0.32118359375 0.71875
vt 0.32725390625 0.71875
vt 0.32421875 0.730078125
vt 0.04143203125 0.703125
vt 0.04143203125 0.687109375
vt 0.05231796875 0.687109375
vt 0.05231796875 0.703125
vt 0.15164921875 0.734375
vt 0.14522578125 0.734375
vt 0.1484375 0.7223875
vt 0.31592578125 0.72178515625
vt 0.32118359375 0.71875
vt 0.32421875 0.730078125
vt 0.3094265625 0.9453125
vt 0.3094265625 0.929296875
vt 0.3203125 0.929296875
vt 0.3203125 0.9453125
vt 0.14522578125 0.734375
vt 0.13966171875 0.73116328125
vt 0.1484375 0.7223875
vt 0.312890625 0.72704296875
vt 0.31592578125 0.72178515625
vt 0.32421875 0.730078125
vt 0.30942734375000003 0.8046875
vt 0.30942734375000003 0.788671875
vt 0.3203125 0.788671875
vt 0.3203125 0.8046875
vt 0.13966171875 0.73116328125
vt 0.13645 0.72559921875
vt 0.1484375 0.7223875
vt 0.312890625 0.73311328125
vt 0.312890625 0.72704296875
vt 0.32421875 0.730078125
vt 0.08830703125 0.703125
vt 0.08830703125 0.687109375
vt 0.09919296875 0.687109375
vt 0.09919296875 0.703125
vt 0.13645 0.72559921875
vt 0.13645 0.71917578125
vt 0.1484375 0.7223875
vt 0.31592578125 0.73837109375
vt 0.312890625 0.73311328125
vt 0.32421875 0.730078125
vt 0.15625 0.6953125
vt 0.15625 0.679296875
vt 0.16713515625 0.679296875
vt 0.16713515625 0.6953125
vt 0.13645 0.71917578125
vt 0.13966171875 0.71361171875
vt 0.1484375 0.7223875
vt 0.32118359375 0.74140625
vt 0.31592578125 0.73837109375
vt 0.32421875 0.730078125
vt 0.1328125 0.6953125
vt 0.1328125 0.679296875
vt 0.1436984375 0.679296875
vt 0.1436984375 0.6953125
vt 0.13966171875 0.71361171875
vt 0.14522578125 0.7104
vt 0.1484375 0.7223875
vt 0.32725390625 0.74140625
vt 0.32118359375 0.74140625
vt 0.32421875 0.730078125
vt 0.171875 0.546875
vt 0.171875 0.53125
vt 0.1796875 0.53125
vt 0.1796875 0.546875
vt 0.14522578125 0.7104
vt 0.15164921875 0.7104
vt 0.1484375 0.7223875
vt 0.49883984375 0.9140625
vt 0.49027421875 0.9140625
vt 0.4891140625 0.90625
vt 0.5 0.90625
vt 0.49884062500000004 0.71875
vt 0.490275 0.71875
vt 0.48911484375000003 0.7109375
vt 0.5 0.7109375
vt 0.4886578125 0.9765625
vt 0.48009218750000004 0.9765625
vt 0.47893203125 0.96875
vt 0.48981796875 0.96875
vt 0.49410078125 0.75
vt 0.48553515625 0.75
vt 0.484375 0.7421875
vt 0.49526015624999997 0.7421875
vt 0.49410078125 0.8828125
vt 0.48553515625 0.8828125
vt 0.484375 0.875
vt 0.4952609375 0.875
vt 0.4339703125 0.53125
vt 0.4254046875 0.53125
vt 0.42424453125 0.5234375
vt 0.43513046875 0.5234375
vt 0.07696484375 0.515625
vt 0.06839921874999999 0.515625
vt 0.0672390625 0.5078125
vt 0.078125 0.5078125
vt 0.49883984375 0.734375
vt 0.49027421875 0.734375
vt 0.48911484375000003 0.7265625
vt 0.5 0.7265625
vt 0.05115781249999998 0.5234375
vt 0.04259218749999999 0.5234375
vt 0.04143203125 0.515625
vt 0.05231796875 0.515625
vt 0.2519125 0.515625
vt 0.243346875 0.515625
vt 0.2421875 0.5078125
vt 0.25307265624999997 0.5078125
vt 0.49410078125 0.8984375
vt 0.48553515625 0.8984375
vt 0.484375 0.890625
vt 0.4952609375 0.890625
vt 0.4574078125 0.53125
vt 0.4488421875 0.53125
vt 0.44768203125 0.5234375
vt 0.45856796875 0.5234375
vt 0.20018203125 0.858053125
vt 0.19461796875 0.85484140625
vt 0.1956890625 0.8508453125
vt 0.20310703125000001 0.855128125
vt 0.20339374999999998 0.8636171875
vt 0.20018203125 0.858053125
vt 0.20310703125000001 0.855128125
vt 0.20738984375 0.86254609375
vt 0.20339374999999998 0.870040625
vt 0.20339374999999998 0.8636171875
vt 0.20738984375 0.86254609375
vt 0.20738984375 0.8711117187499999
vt 0.20018203125 0.8756046875
vt 0.20339374999999998 0.870040625
vt 0.20738984375 0.8711117187499999
vt 0.20310703125000001 0.8785296874999999
vt 0.19461796875 0.87881640625
vt 0.20018203125 0.8756046875
vt 0.20310703125000001 0.8785296874999999
vt 0.1956890625 0.8828125
vt 0.18819453125 0.87881640625
vt 0.19461796875 0.87881640625
vt 0.1956890625 0.8828125
vt 0.1871234375 0.8828125
vt 0.18263046875 0.8756046875
vt 0.18819453125 0.87881640625
vt 0.1871234375 0.8828125
vt 0.17970546874999999 0.8785296874999999
vt 0.17941875 0.870040625
vt 0.18263046875 0.8756046875
vt 0.17970546874999999 0.8785296874999999
vt 0.17542265625 0.8711117187499999
vt 0.17941875 0.8636171875
vt 0.17941875 0.870040625
vt 0.17542265625 0.8711117187499999
vt 0.17542265625 0.86254609375
vt 0.18263046875 0.858053125
vt 0.17941875 0.8636171875
vt 0.17542265625 0.86254609375
vt 0.17970546874999999 0.855128125
vt 0.18819453125 0.85484140625
vt 0.18263046875 0.858053125
vt 0.17970546874999999 0.855128125
vt 0.1871234375 0.8508453125
vt 0.19461796875 0.85484140625
vt 0.18819453125 0.85484140625
vt 0.1871234375 0.8508453125
vt 0.1956890625 0.8508453125
vt 0.078125 0.484375
vt 0.0859375 0.484375
vt 0.0859375 0.4921875
vt 0.078125 0.4921875
vt 0.5 0.578125
vt 0.5078125 0.578125
vt 0.5078125 0.5859375
vt 0.5 0.5859375
vt 0.25 0.4921875
vt 0.2578125 0.4921875
vt 0.2578125 0.5
vt 0.25 0.5
vt 0.5 0.5625
vt 0.5078125 0.5625
vt 0.5078125 0.5703125
vt 0.5 0.5703125
vt 0.5078125 0.90625
vt 0.515625 0.90625
vt 0.515625 0.9140625
vt 0.5078125 0.9140625
vt 0.5 0.6796875
vt 0.5078125 0.6796875
vt 0.5078125 0.6875
vt 0.5 0.6875
vt 0.5078125 0.9921875
vt 0.515625 0.9921875
vt 0.515625 1
vt 0.5078125 1
vt 0.5 0.546875
vt 0.5078125 0.546875
vt 0.5078125 0.5546875
vt 0.5 0.5546875
vt 0.5 0.59375
vt 0.5078125 0.59375
vt 0.5078125 0.6015625
vt 0.5 0.6015625
vt 0 0.484375
vt 0.0078125 0.484375
vt 0.0078125 0.4921875
vt 0 0.4921875
vt 0.0390625 0.484375
vt 0.046875 0.484375
vt 0.046875 0.4921875
vt 0.0390625 0.4921875
vt 0.5 0.6640625
vt 0.5078125 0.6640625
vt 0.5078125 0.671875
vt 0.5 0.671875
vt 0.4826625 0.546875
vt 0.4908265625 0.546875
vt 0.4921875 0.5546875
vt 0.4813015625 0.5546875
vt 0.49047578125 0.8046875
vt 0.49863984375000003 0.8046875
vt 0.5 0.8125
vt 0.48911484375000003 0.8125
vt 0.11310546875000002 0.515625
vt 0.12126953125 0.515625
vt 0.12263046875 0.5234375
vt 0.11174453125 0.5234375
vt 0.4857359375 0.7890625
vt 0.4939 0.7890625
vt 0.49526015624999997 0.796875
vt 0.484375 0.796875
vt 0.2826109375 0.515625
vt 0.290775 0.515625
vt 0.2921359375 0.5234375
vt 0.28125 0.5234375
vt 0.47248046875 0.5234375
vt 0.48064453125 0.5234375
vt 0.48200546875 0.53125
vt 0.47111953125 0.53125
vt 0.490475 0.9921875
vt 0.4986390625 0.9921875
vt 0.5 1
vt 0.4891140625 1
vt 0.22485 0.5078125
vt 0.23301406249999998 0.5078125
vt 0.234375 0.515625
vt 0.22348984375 0.515625
vt 0.16779296875 0.515625
vt 0.17595703124999998 0.515625
vt 0.17731796875 0.5234375
vt 0.16643203125 0.5234375
vt 0.48573515624999997 0.7734375
vt 0.49389921875 0.7734375
vt 0.49526015624999997 0.78125
vt 0.484375 0.78125
vt 0.4779234375 0.625
vt 0.4860875 0.625
vt 0.4874484375 0.6328125
vt 0.4765625 0.6328125
vt 0.01935546875 0.515625
vt 0.02751953125 0.515625
vt 0.02888046875 0.5234375
vt 0.01799453125 0.5234375
vt 0.0944453125 0.5
vt 0.100515625 0.5
vt 0.1015625 0.5078125
vt 0.0933984375 0.5078125
vt 0.28975703124999996 0.5
vt 0.295828125 0.5
vt 0.296875 0.5078125
vt 0.2887109375 0.5078125
vt 0.49696484375 0.84375
vt 0.50303515625 0.84375
vt 0.50408203125 0.8515625
vt 0.49591796875 0.8515625
vt 0.49323359375 0.7578125
vt 0.4993046875 0.7578125
vt 0.5003515625 0.765625
vt 0.4921875 0.765625
vt 0.493234375 0.859375
vt 0.4993046875 0.859375
vt 0.5003515625 0.8671875
vt 0.4921875 0.8671875
vt 0.49696484375 0.953125
vt 0.50303515625 0.953125
vt 0.50408203125 0.9609375
vt 0.49591796875 0.9609375
vt 0.5006953125 0.921875
vt 0.506765625 0.921875
vt 0.5078125 0.9296875
vt 0.4996484375 0.9296875
vt 0.5006953125 0.6953125
vt 0.50676640625 0.6953125
vt 0.5078125 0.703125
vt 0.4996484375 0.703125
vt 0.16883984375 0.5
vt 0.17491015625 0.5
vt 0.17595703125 0.5078125
vt 0.16779296875 0.5078125
vt 0.493234375 0.828125
vt 0.49930546875000004 0.828125
vt 0.5003515625 0.8359375
vt 0.4921875 0.8359375
vt 0.110421875 0.5
vt 0.1164921875 0.5
vt 0.1175390625 0.5078125
vt 0.109375 0.5078125
vt 0.49696484375 0.9375
vt 0.50303515625 0.9375
vt 0.50408203125 0.9453125
vt 0.49591796875 0.9453125
vt 0.28125 0.6015625
vt 0.28125 0.6328125
vt 0.2734375 0.6328125
vt 0.2734375 0.6015625
vt 0.1436984375 0.646875
vt 0.1436984375 0.679296875
vt 0.1328125 0.679296875
vt 0.1328125 0.646875
vt 0.0859375 0.7109375
vt 0.0859375 0.734375
vt 0.078125 0.734375
vt 0.078125 0.7109375
vt 0.09919296875 0.6546875
vt 0.09919296875 0.687109375
vt 0.08830703125 0.687109375
vt 0.08830703125 0.6546875
vt 0.3203125 0.75625
vt 0.3203125 0.788671875
vt 0.30942734375000003 0.788671875
vt 0.30942734375000003 0.75625
vt 0.3203125 0.896875
vt 0.3203125 0.929296875
vt 0.3094265625 0.929296875
vt 0.3094265625 0.896875
vt 0.05231796875 0.6546875
vt 0.05231796875 0.687109375
vt 0.04143203125 0.687109375
vt 0.04143203125 0.6546875
vt 0.1202609375 0.6546875
vt 0.1202609375 0.687109375
vt 0.109375 0.687109375
vt 0.109375 0.6546875
vt 0.22182265625 0.646875
vt 0.22182265625 0.679296875
vt 0.2109375 0.679296875
vt 0.2109375 0.646875
vt 0.07575546875 0.6546875
vt 0.07575546875 0.687109375
vt 0.06486953125 0.687109375
vt 0.06486953125 0.6546875
vt 0.296875 0.75
vt 0.296875 0.7734375
vt 0.2890625 0.7734375
vt 0.2890625 0.75
vt 0.3125 0.6625
vt 0.3125 0.694921875
vt 0.3016140625 0.694921875
vt 0.3016140625 0.6625
vt 0.4725453125 0.65625
vt 0.47469921875 0.6722921875000001
vt 0.46875 0.6722921875000001
vt 0.46875 0.656303125
vt 0.47966171875 0.609375
vt 0.47346328125 0.609375
vt 0.47111953125 0.6015625
vt 0.48200546875 0.6015625
vt 0.1875 0.546875
vt 0.189375 0.53125
vt 0.1953125 0.53125
vt 0.1953125 0.5467515625
vt 0.40315078125 0.5234375
vt 0.40934921875 0.5234375
vt 0.41169296875 0.53125
vt 0.40080703125 0.53125
vt 0.16537968749999998 0.6765578125
vt 0.16537968749999998 0.6486375
vt 0.16713515625 0.646875
vt 0.16713515625 0.679296875
vt 0.15800546875 0.6765578125
vt 0.16537968749999998 0.6765578125
vt 0.16713515625 0.679296875
vt 0.15625 0.679296875
vt 0.15800546875 0.6486375
vt 0.15800546875 0.6765578125
vt 0.15625 0.679296875
vt 0.15625 0.646875
vt 0.16537968749999998 0.6486375
vt 0.15800546875 0.6486375
vt 0.15625 0.646875
vt 0.16713515625 0.646875
vt 0.24824453125 0.6765578125
vt 0.24824453125 0.6486375
vt 0.25 0.646875
vt 0.25 0.679296875
vt 0.24087031250000002 0.6765578125
vt 0.24824453125 0.6765578125
vt 0.25 0.679296875
vt 0.23911484375 0.679296875
vt 0.24087031250000002 0.6486375
vt 0.24087031250000002 0.6765578125
vt 0.23911484375 0.679296875
vt 0.23911484375 0.646875
vt 0.24824453125 0.6486375
vt 0.24087031250000002 0.6486375
vt 0.23911484375 0.646875
vt 0.25 0.646875
vt 0.265625 0.59375
vt 0.265625 0.5716890625
vt 0.2734375 0.5658296875
vt 0.2734375 0.59375
vt 0.5 0.65625
vt 0.5 0.6484375
vt 0.5078125 0.6484375
vt 0.5078125 0.65625
vt 0.328125 0.5716890625
vt 0.328125 0.59375
vt 0.3203125 0.59375
vt 0.3203125 0.5658296875
vt 0.1015625 0.4921875
vt 0.09375 0.4921875
vt 0.09375 0.484375
vt 0.1015625 0.484375
vt 0.3359375 0.59375
vt 0.3359375 0.5716890625
vt 0.34375 0.5658296875
vt 0.34375 0.59375
vt 0.5 0.6328125
vt 0.5078125 0.6328125
vt 0.5078125 0.640625
vt 0.5 0.640625
vt 0.359375 0.5716890625
vt 0.359375 0.59375
vt 0.3515625 0.59375
vt 0.3515625 0.5658296875
vt 0.515625 0.8984375
vt 0.5078125 0.8984375
vt 0.5078125 0.890625
vt 0.515625 0.890625
vn 0 -2.220446049250313e-16 1
vn 0.5000000000000013 0.8660254037844379 1.9229626863835623e-16
vn 0 2.220446049250313e-16 -1
vn 0 -2.220446049250313e-16 1
vn 0.8660254037844382 0.500000000000001 1.1102230246251588e-16
vn 0 2.220446049250313e-16 -1
vn 0 -2.220446049250313e-16 1
vn 1 0 0
vn 0 2.220446049250313e-16 -1
vn 0 -2.220446049250313e-16 1
vn 0.8660254037844382 -0.500000000000001 -1.1102230246251588e-16
vn 0 2.220446049250313e-16 -1
vn 0 -2.220446049250313e-16 1
vn 0.5000000000000017 -0.8660254037844378 -1.922962686383562e-16
vn 0 2.220446049250313e-16 -1
vn 0 -2.220446049250313e-16 1
vn 0 -1 -2.220446049250313e-16
vn 0 2.220446049250313e-16 -1
vn 0 -2.220446049250313e-16 1
vn -0.5000000000000013 -0.8660254037844379 -1.9229626863835623e-16
vn 0 2.220446049250313e-16 -1
vn 0 -2.220446049250313e-16 1
vn -0.8660254037844382 -0.500000000000001 -1.1102230246251588e-16
vn 0 2.220446049250313e-16 -1
vn 0 -2.220446049250313e-16 1
vn -1 -6.374474977898265e-16 -1.415417778071918e-31
vn 0 2.220446049250313e-16 -1
vn 0 -2.220446049250313e-16 1
vn -0.8660254037844387 0.49999999999999983 1.1102230246251562e-16
vn 0 2.220446049250313e-16 -1
vn 0 -2.220446049250313e-16 1
vn -0.5000000000000012 0.8660254037844379 1.9229626863835623e-16
vn 0 2.220446049250313e-16 -1
vn 0 -2.220446049250313e-16 1
vn 0 0.9894610641341024 0.14479918011718776
vn 0 2.220446049250313e-16 -1
vn 0.43734891975129114 0.757510549644596 -0.4846686389374923
vn 0.7575105496445956 0.43734891975129025 -0.48466863893749335
vn 0.874697839502578 1.0761805645242837e-16 -0.4846686389374934
vn 0.7575105496445959 -0.43734891975129014 -0.48466863893749323
vn 0.43734891975129103 -0.7575105496445951 -0.4846686389374934
vn 0 -0.8746978395025784 -0.48466863893749274
vn -0.43734891975129103 -0.7575105496445956 -0.48466863893749246
vn -0.7575105496445959 -0.43734891975129 -0.4846686389374934
vn -0.8746978395025781 -6.009655038787837e-16 -0.4846686389374936
vn -0.7575105496445965 0.4373489197512891 -0.4846686389374931
vn -0.43734891975129075 0.7575105496445954 -0.484668638937493
vn 0 0.8746978395025786 -0.4846686389374924
vn 0 2.220446049250313e-16 -1
vn 0 2.220446049250313e-16 -1
vn 0 2.220446049250313e-16 -1
vn 0 2.220446049250313e-16 -1
vn 0 2.220446049250313e-16 -1
vn 0 2.220446049250313e-16 -1
vn 0 2.220446049250313e-16 -1
vn 0 2.220446049250313e-16 -1
vn 0 2.220446049250313e-16 -1
vn 0 2.220446049250313e-16 -1
vn 0 2.220446049250313e-16 -1
vn 0 2.220446049250313e-16 -1
vn -0.49999999999999895 -0.8660254037844394 -1.9229626863835655e-16
vn -0.866025403784439 -0.49999999999999933 -1.110223024625155e-16
vn -1 0 0
vn -0.866025403784439 0.49999999999999933 1.110223024625155e-16
vn -0.49999999999999917 0.8660254037844393 1.9229626863835653e-16
vn 0 1 2.220446049250313e-16
vn 0.4999999999999988 0.8660254037844394 1.9229626863835655e-16
vn 0.866025403784439 0.49999999999999933 1.110223024625155e-16
vn 1 5.400596856274941e-16 1.1991733953109353e-31
vn 0.866025403784439 -0.49999999999999933 -1.110223024625155e-16
vn 0.4999999999999988 -0.8660254037844394 -1.9229626863835655e-16
vn 0 -1 -2.220446049250313e-16
vn 0.27362468149135116 0.4739318505478722 0.8369696139735456
vn 0.47393185054787135 0.27362468149135144 0.8369696139735459
vn 0.5472493629827022 -1.8584458726901198e-16 0.836969613973546
vn 0.4739318505478717 -0.273624681491352 0.8369696139735459
vn 0.2736246814913504 -0.4739318505478709 0.8369696139735466
vn 0 -0.5472493629827013 0.8369696139735466
vn -0.2736246814913512 -0.4739318505478727 0.8369696139735455
vn -0.47393185054787174 -0.2736246814913522 0.8369696139735457
vn -0.5472493629827022 -3.0212549963581187e-16 0.836969613973546
vn -0.4739318505478722 0.2736246814913509 0.8369696139735457
vn -0.2736246814913503 0.4739318505478707 0.8369696139735467
vn 0 0.547249362982701 0.8369696139735471
vn 0.44721359549995665 0.7745966692414848 0.4472135954999566
vn 0.7745966692414835 0.4472135954999578 0.4472135954999578
vn 0.8944271909999162 -9.930136612989078e-17 0.4472135954999573
vn 0.774596669241484 -0.4472135954999583 0.447213595499957
vn 0.4472135954999566 -0.7745966692414845 0.4472135954999573
vn 0 -0.8944271909999163 0.4472135954999571
vn -0.4472135954999566 -0.7745966692414852 0.44721359549995615
vn -0.7745966692414834 -0.44721359549995826 0.44721359549995765
vn -0.8944271909999162 -3.5488601692834076e-16 0.4472135954999573
vn -0.774596669241485 0.4472135954999564 0.4472135954999569
vn -0.44721359549995643 0.7745966692414846 0.4472135954999577
vn 0 0.8944271909999161 0.44721359549995754
vn 0 1 2.220446049250313e-16
vn -0.5000000000000013 0.866025403784438 1.9229626863835626e-16
vn -0.8660254037844394 0.4999999999999991 1.1102230246251546e-16
vn -1 -6.374474977898266e-16 -1.4154177780719182e-31
vn -0.866025403784438 -0.500000000000001 -1.1102230246251588e-16
vn -0.5000000000000013 -0.8660254037844379 -1.9229626863835623e-16
vn 0 -1 -2.220446049250313e-16
vn 0.5000000000000016 -0.8660254037844378 -1.922962686383562e-16
vn 0.866025403784438 -0.500000000000001 -1.1102230246251588e-16
vn 1 0 0
vn 0.8660254037844384 0.5000000000000008 1.1102230246251583e-16
vn 0.5000000000000013 0.8660254037844379 1.9229626863835623e-16
vn -0.9176215997563432 0.39326639989557816 0.05755118047252444
vn 0 -2.220446049250313e-16 1
vn 0.7969338393854223 0.5977003795390795 0.08746834822523239
vn 0 2.220446049250313e-16 -1
vn -0.8660254037844378 0.5000000000000017 1.1102230246251602e-16
vn -0.8660254037844393 0.49999999999999906 -1.7341731104678308e-15
vn -0.8660254037844378 0.5000000000000017 1.1102230246251602e-16
vn -0.8660254037844394 0.4999999999999991 -2.7567252927512137e-15
vn 0.8660254037844378 0.5000000000000017 1.1102230246251602e-16
vn 0.8660254037844384 0.5000000000000008 9.497474901581307e-16
vn 0.8660254037844378 0.5000000000000017 1.1102230246251602e-16
vn 0.8660254037844384 0.5000000000000008 1.4145439366505786e-15
vn 0.4999999999999998 0.8660254037844389 1.9229626863835646e-16
vn 0 2.220446049250313e-16 -1
vn -0.4999999999999998 -0.8660254037844389 -1.9229626863835646e-16
vn -0.6123724356957945 0.3535533905932727 0.7071067811865482
vn 0.5000000000000003 -0.8660254037844387 -1.922962686383564e-16
vn 0 2.220446049250313e-16 -1
vn -0.5000000000000003 0.8660254037844387 1.922962686383564e-16
vn 0.6123724356957941 0.353553390593274 0.7071067811865478
usemtl m_b56f5dc6-1369-fe8a-30e0-035cc0472814
f 76/1/1 75/2/1 74/3/1
f 2/4/2 87/5/2 98/6/2 4/7/2
f 50/8/3 51/9/3 49/10/3
f 77/11/4 76/12/4 74/13/4
f 4/14/5 98/15/5 97/16/5 6/17/5
f 51/18/6 52/19/6 49/20/6
f 78/21/7 77/22/7 74/23/7
f 6/24/8 97/25/8 96/26/8 8/27/8
f 52/28/9 53/29/9 49/30/9
f 79/31/10 78/32/10 74/33/10
f 8/34/11 96/35/11 95/36/11 10/37/11
f 53/38/12 54/39/12 49/40/12
f 80/41/13 79/42/13 74/43/13
f 10/44/14 95/45/14 94/46/14 12/47/14
f 54/48/15 55/49/15 49/50/15
f 81/51/16 80/52/16 74/53/16
f 12/54/17 94/55/17 93/56/17 14/57/17
f 55/58/18 56/59/18 49/60/18
f 82/61/19 81/62/19 74/63/19
f 14/64/20 93/65/20 92/66/20 16/67/20
f 56/68/21 57/69/21 49/70/21
f 83/71/22 82/72/22 74/73/22
f 16/74/23 92/75/23 91/76/23 18/77/23
f 57/78/24 58/79/24 49/80/24
f 84/81/25 83/82/25 74/83/25
f 18/84/26 91/85/26 90/86/26 20/87/26
f 58/88/27 59/89/27 49/90/27
f 85/91/28 84/92/28 74/93/28
f 20/94/29 90/95/29 89/96/29 22/97/29
f 59/98/30 60/99/30 49/100/30
f 86/101/31 85/102/31 74/103/31
f 22/104/32 89/105/32 88/106/32 24/107/32
f 60/108/33 61/109/33 49/110/33
f 75/111/34 86/112/34 74/113/34
f 99/114/35 101/115/35 100/116/35 102/117/35
f 61/118/36 50/119/36 49/120/36
f 26/121/37 25/122/37 2/123/37 4/124/37
f 27/125/38 26/126/38 4/127/38 6/128/38
f 28/129/39 27/130/39 6/131/39 8/132/39
f 29/133/40 28/134/40 8/135/40 10/136/40
f 30/137/41 29/138/41 10/139/41 12/140/41
f 31/141/42 30/142/42 12/143/42 14/144/42
f 32/145/43 31/146/43 14/147/43 16/148/43
f 33/149/44 32/150/44 16/151/44 18/152/44
f 34/153/45 33/154/45 18/155/45 20/156/45
f 35/157/46 34/158/46 20/159/46 22/160/46
f 36/161/47 35/162/47 22/163/47 24/164/47
f 25/165/48 36/166/48 24/167/48 2/168/48
f 38/169/49 37/170/49 25/171/49 26/172/49
f 39/173/50 38/174/50 26/175/50 27/176/50
f 40/177/51 39/178/51 27/179/51 28/180/51
f 41/181/52 40/182/52 28/183/52 29/184/52
f 42/185/53 41/186/53 29/187/53 30/188/53
f 43/189/54 42/190/54 30/191/54 31/192/54
f 44/193/55 43/194/55 31/195/55 32/196/55
f 45/197/56 44/198/56 32/199/56 33/200/56
f 46/201/57 45/202/57 33/203/57 34/204/57
f 47/205/58 46/206/58 34/207/58 35/208/58
f 48/209/59 47/210/59 35/211/59 36/212/59
f 37/213/60 48/214/60 36/215/60 25/216/60
f 51/217/61 50/218/61 37/219/61 38/220/61
f 52/221/62 51/222/62 38/223/62 39/224/62
f 53/225/63 52/226/63 39/227/63 40/228/63
f 54/229/64 53/230/64 40/231/64 41/232/64
f 55/233/65 54/234/65 41/235/65 42/236/65
f 56/237/66 55/238/66 42/239/66 43/240/66
f 57/241/67 56/242/67 43/243/67 44/244/67
f 58/245/68 57/246/68 44/247/68 45/248/68
f 59/249/69 58/250/69 45/251/69 46/252/69
f 60/253/70 59/254/70 46/255/70 47/256/70
f 61/257/71 60/258/71 47/259/71 48/260/71
f 50/261/72 61/262/72 48/263/72 37/264/72
f 62/265/73 63/266/73 3/267/73 1/268/73
f 63/269/74 64/270/74 5/271/74 3/272/74
f 64/273/75 65/274/75 7/275/75 5/276/75
f 65/277/76 66/278/76 9/279/76 7/280/76
f 66/281/77 67/282/77 11/283/77 9/284/77
f 67/285/78 68/286/78 13/287/78 11/288/78
f 68/289/79 69/290/79 15/291/79 13/292/79
f 69/293/80 70/294/80 17/295/80 15/296/80
f 70/297/81 71/298/81 19/299/81 17/300/81
f 71/301/82 72/302/82 21/303/82 19/304/82
f 72/305/83 73/306/83 23/307/83 21/308/83
f 73/309/84 62/310/84 1/311/84 23/312/84
f 75/313/85 76/314/85 63/315/85 62/316/85
f 76/317/86 77/318/86 64/319/86 63/320/86
f 77/321/87 78/322/87 65/323/87 64/324/87
f 78/325/88 79/326/88 66/327/88 65/328/88
f 79/329/89 80/330/89 67/331/89 66/332/89
f 80/333/90 81/334/90 68/335/90 67/336/90
f 81/337/91 82/338/91 69/339/91 68/340/91
f 82/341/92 83/342/92 70/343/92 69/344/92
f 83/345/93 84/346/93 71/347/93 70/348/93
f 84/349/94 85/350/94 72/351/94 71/352/94
f 85/353/95 86/354/95 73/355/95 72/356/95
f 86/357/96 75/358/96 62/359/96 73/360/96
f 1/361/97 87/362/97 88/363/97 23/364/97
f 23/365/98 88/366/98 89/367/98 21/368/98
f 111/369/99 112/370/99 113/371/99 114/372/99
f 19/373/100 90/374/100 91/375/100 17/376/100
f 17/377/101 91/378/101 92/379/101 15/380/101
f 15/381/102 92/382/102 93/383/102 13/384/102
f 13/385/103 93/386/103 94/387/103 11/388/103
f 11/389/104 94/390/104 95/391/104 9/392/104
f 9/393/105 95/394/105 96/395/105 7/396/105
f 7/397/106 96/398/106 97/399/106 5/400/106
f 115/401/107 116/402/107 117/403/107 118/404/107
f 3/405/108 98/406/108 87/407/108 1/408/108
f 101/409/109 99/410/109 24/411/109 88/412/109
f 100/413/110 101/414/110 88/415/110 87/416/110
f 102/417/111 100/418/111 87/419/111 2/420/111
f 99/421/112 102/422/112 2/423/112 24/424/112
f 104/425/113 103/426/113 21/427/113 89/428/113
f 105/429/114 104/430/114 89/431/114 90/432/114
f 106/433/115 105/434/115 90/435/115 19/436/115
f 103/437/116 106/438/116 19/439/116 21/440/116
f 108/441/117 107/442/117 5/443/117 97/444/117
f 109/445/118 108/446/118 97/447/118 98/448/118
f 110/449/119 109/450/119 98/451/119 3/452/119
f 107/453/120 110/454/120 3/455/120 5/456/120
f 112/457/121 111/458/121 103/459/121 104/460/121
f 113/461/122 112/462/122 104/463/122 105/464/122
f 114/465/123 113/466/123 105/467/123 106/468/123
f 111/469/124 114/470/124 106/471/124 103/472/124
f 116/473/125 115/474/125 107/475/125 108/476/125
f 117/477/126 116/478/126 108/479/126 109/480/126
f 118/481/127 117/482/127 109/483/127 110/484/127
f 115/485/128 118/486/128 110/487/128 107/488/128