# Made in Blockbench 5.1.5
mtllib TyranusHead.mtl

o cuboid
v 0.16250000000000003 1.442264725815837 0.17243485860839325
v 0.16250000000000003 1.4320631486285318 -0.21714765657447652
v 0.16250000000000003 1.1913939967106377 0.1424557348869675
v 0.16250000000000003 1.1826588962440077 -0.19112429373836473
v -0.16250000000000003 1.442264725815837 0.17243485860839325
v -0.16250000000000003 1.4320631486285318 -0.21714765657447652
v -0.16250000000000003 1.1913939967106377 0.1424557348869675
v -0.16250000000000003 1.1826588962440077 -0.19112429373836473
v 0 1.1808736202362293 -0.25930123389536697
v 0 1.1929242332887335 0.20089311216439779
v 0 1.2678335573122252 -0.28107084263144927
v 0.16250000000000003 1.2696188333200036 -0.21289390247444714
v 0.16250000000000003 1.2798204105073088 0.17668861270842262
v -0.16250000000000003 1.2798204105073088 0.17668861270842262
v -0.16250000000000003 1.2696188333200036 -0.21289390247444714
v -0.16250000000000003 1.2743370627691324 -0.03271198920236985
v -0.16250000000000003 1.4942872997559484 0.010259617753141638
v 0.16250000000000003 1.4942872997559484 0.010259617753141638
v 0.16250000000000003 1.2743370627691324 -0.03271198920236985
v 0.16250000000000003 1.186867046833771 -0.030421506225430953
v 0 1.18590746097959 -0.0670666115598196
v -0.16250000000000003 1.186867046833771 -0.030421506225430953
v 0 1.3791629443249809 -0.327247454719443
v -0.14807464415701393 1.2681042121284851 -0.2707349521971627
v 0 1.2663189361207068 -0.33891189235416486
v -0.14807464415701393 1.3809482203327592 -0.25907051456244085
v 0.14807464415701393 1.3809482203327592 -0.25907051456244085
v 0.14807464415701393 1.2681042121284851 -0.2707349521971627
v 0 1.4302778726207532 -0.28532459673147864
v 0 1.5318350213070815 0.011591128375494732
v 0 1.4812821120805162 0.22989060032427835
v 0 1.2813506470854046 0.23512598998585296
v -0.08124968478641786 1.5130612333656799 0.01092537564715039
v -0.08124968478641786 1.4617734946331615 0.20116284091759834
v -0.08124968478641786 1.2805855317646728 0.20590741470255333
v -0.08124968478641786 1.1921591179680016 0.17167453688109818
v -0.08124968478641786 1.1863872520452992 -0.048744129975917094
v -0.08124968478641786 1.181766254777083 -0.22521289606485065
v -0.08124968478641786 1.2687261918530792 -0.24698250480093298
v -0.07403703484688229 1.2672115706615608 -0.30482355452364857
v -0.07403703484688229 1.3800555788658349 -0.2931591168889267
v -0.08124968478641786 1.4311705071616072 -0.25123625890096235
v 0.08125031521358217 1.51306108769735 0.01092537048148598
v 0.08125031521358217 1.4617733432631914 0.2011626180150733
v 0.08125031521358217 1.2805855258280407 0.20590718799172228
v 0.08125031521358217 1.1921591120313697 0.17167431017026713
v 0.08125031521358217 1.1863872557680621 -0.048743987809333464
v 0.08125031521358217 1.181766261703154 -0.22521263156888108
v 0.08125031521358217 1.2687261987791498 -0.24698224030496344
v 0.07403760931013165 1.2672115775876314 -0.304823290027679
v 0.07403760931013165 1.3800555857919055 -0.2931588523929571
v 0.08125031521358217 1.431170514087678 -0.2512359944049928
v -0.08685473094606427 1.573679963256793 0.19674809254810657
v -0.15675691307608053 1.5357822596032256 0.16906040276157402
v 0.15123287526737267 1.5357935685587127 0.16949227434788403
v 0.08133123551352252 1.5736912691264684 0.19717984629201588
vt 0.11534765625 0.7014375076333375
vt 0.16771640625 0.7014375076333375
vt 0.15553671875 0.7561250076333375
vt 0.11534765625 0.7420625076333374
vt 0.21241875 0.8515626348267316
vt 0.1722296875 0.8656251348267315
vt 0.16005 0.8109376348267315
vt 0.21241875 0.8109376348267315
vt 0.4127663183678167 0.84375
vt 0.4184316816158625 0.828125
vt 0.4676886766774779 0.828125
vt 0.46875 0.8431319619878472
vt 0.046875 0.71995
vt 0.06718750000000001 0.7245328125
vt 0.06718750000000001 0.7796562499999999
vt 0.046875 0.7869625
vt 0.3162 0.5048203907545435
vt 0.3377875 0.5048203907545435
vt 0.3377875 0.5501328907545435
vt 0.3162 0.5548203907545435
vt 0.71263125 0.859375
vt 0.692253125 0.859375
vt 0.69378125 0.8310546875
vt 0.714159375 0.8310546875
vt 0.71875 0.90625
vt 0.698371875 0.90625
vt 0.69684375 0.8779296875
vt 0.717221875 0.8779296875
vt 0.006249999999999999 0.7291140625
vt 0.0265625 0.7245328125
vt 0.0265625 0.7796562499999999
vt 0.006249999999999999 0.7723484375
vt 0.375 0.5048360085320335
vt 0.3965875 0.5048360085320335
vt 0.3965875 0.5501485085320335
vt 0.375 0.5454610085320335
vt 0.37406875 0.28795625
vt 0.3520390625 0.28795625
vt 0.350153125 0.265625
vt 0.3721828125 0.265625
vt 0.12448203125 0.6795625076333374
vt 0.16771640625 0.6795625076333374
vt 0.16771640625 0.7014375076333375
vt 0.11534765625 0.7014375076333375
vt 0.7068265625 0.921875
vt 0.7284140625 0.921875
vt 0.725321875 0.945378125
vt 0.703734375 0.945378125
vt 0.703125 0.78125
vt 0.7247109375 0.78125
vt 0.727803125 0.804753125
vt 0.706215625 0.804753125
vt 0.21241875 0.8109376348267315
vt 0.16005 0.8109376348267315
vt 0.16005 0.7890626348267316
vt 0.20328437500000002 0.7890626348267316
vt 0.7481140625 0.69420625
vt 0.7260859375 0.69420625
vt 0.7279703125 0.671875
vt 0.75 0.671875
vt 0.1149890625 0.8109376348267315
vt 0.16005 0.8109376348267315
vt 0.1722296875 0.8656251348267315
vt 0.1149890625 0.8515626348267316
vt 0.2665101612893135 0.9460178088032043
vt 0.24779464005322524 0.9552040155158675
vt 0.22223249916094281 0.8914767857828216
vt 0.24416609974924883 0.8915150870944728
vt 0.2717080678438058 0.875
vt 0.2529925466077176 0.8658137932873367
vt 0.2785546875 0.8020865635542909
vt 0.30048788262615134 0.8020467532672617
vt 0.21277734375000001 0.7420625076333374
vt 0.15553671875 0.7561250076333375
vt 0.16771640625 0.7014375076333375
vt 0.21277734375000001 0.7014375076333375
vt 0.21277734375000001 0.7014375076333375
vt 0.16771640625 0.7014375076333375
vt 0.16771640625 0.6795625076333374
vt 0.20790546875 0.6795625076333374
vt 0.046875 0.671875
vt 0.06718750000000001 0.6804
vt 0.06718750000000001 0.7245328125
vt 0.046875 0.71995
vt 0.006249999999999999 0.688925
vt 0.0265625 0.6804
vt 0.0265625 0.7245328125
vt 0.006249999999999999 0.7291140625
vt 0.1198609375 0.7890626348267316
vt 0.16005 0.7890626348267316
vt 0.16005 0.8109376348267315
vt 0.1149890625 0.8109376348267315
vt 0.49423125 0.48580156249999995
vt 0.512740625 0.477275
vt 0.5109375 0.49174062500000004
vt 0.490625 0.5002656249999999
vt 0.1036265625 0.8390766973267315
vt 0.10008125 0.8109376348267315
vt 0.1149890625 0.8109376348267315
vt 0.1149890625 0.8515423223267315
vt 0.8125 0.46875
vt 0.790471875 0.46875
vt 0.784625 0.45318749999999997
vt 0.804990625 0.453603125
vt 0.5460328125 0.19370468750000003
vt 0.54263125 0.22186093750000002
vt 0.53125 0.234375
vt 0.53125 0.19379531250000004
vt 0.53125 0.46875
vt 0.549759375 0.47727656249999995
vt 0.5515625 0.49174062500000004
vt 0.53125 0.48321562500000004
vt 0.7940512373300233 0.5156211660240642
vt 0.7720215498300232 0.5156211660240642
vt 0.7778684248300233 0.5000586660240642
vt 0.7982340498300233 0.4996430410240642
vt 0.6926959511007038 0.625
vt 0.671875 0.6239397313649317
vt 0.671875 0.574682225071276
vt 0.6931362085460855 0.5690164181909477
vt 0.418175 0.5548360085320334
vt 0.3965875 0.5501485085320335
vt 0.3965875 0.5048360085320335
vt 0.418175 0.5048360085320335
vt 0.749390625 0.804753125
vt 0.727803125 0.804753125
vt 0.7247109375 0.78125
vt 0.7462984375 0.78125
vt 0.046875 0.7869625
vt 0.0265625 0.7796562499999999
vt 0.0265625 0.7245328125
vt 0.046875 0.71995
vt 0.046875 0.71995
vt 0.0265625 0.7245328125
vt 0.0265625 0.6804
vt 0.046875 0.671875
vt 0.7059421875 0.671875
vt 0.7279703125 0.671875
vt 0.7260859375 0.69420625
vt 0.70405625 0.69420625
vt 0.53125 0.48321562500000004
vt 0.5109375 0.49174062500000004
vt 0.512740625 0.477275
vt 0.53125 0.46875
vt 0.676465625 0.8779296875
vt 0.69684375 0.8779296875
vt 0.698371875 0.90625
vt 0.67799375 0.90625
vt 0.7642510589859018 0.45277457619386574
vt 0.784625 0.45318749999999997
vt 0.790471797758501 0.46874979440798237
vt 0.7684517012050901 0.4687473486803003
vt 0.2002028116609428 0.8914767857828216
vt 0.22223249916094281 0.8914767857828216
vt 0.2477949991609428 0.9552049107828217
vt 0.2291762491609428 0.9643517857828217
vt 0.359375 0.5454453907545436
vt 0.3377875 0.5501328907545435
vt 0.3377875 0.5048203907545435
vt 0.359375 0.5048203907545435
vt 0.746909375 0.945378125
vt 0.725321875 0.945378125
vt 0.7284140625 0.921875
vt 0.75 0.921875
vt 0.0875 0.7723484375
vt 0.06718750000000001 0.7796562499999999
vt 0.06718750000000001 0.7245328125
vt 0.0875 0.7291140625
vt 0.0875 0.7291140625
vt 0.06718750000000001 0.7245328125
vt 0.06718750000000001 0.6804
vt 0.0875 0.688925
vt 0.328125 0.265625
vt 0.350153125 0.265625
vt 0.3520390625 0.28795625
vt 0.3300109375 0.28795625
vt 0.571875 0.5002656249999999
vt 0.5515625 0.49174062500000004
vt 0.549759375 0.47727656249999995
vt 0.56826875 0.48580156249999995
vt 0.673403125 0.8310546875
vt 0.69378125 0.8310546875
vt 0.692253125 0.859375
vt 0.671875 0.859375
vt 0.7574944838159251 0.5004715898301986
vt 0.7778684248300233 0.5000586660240642
vt 0.7720216270715223 0.5156209604320465
vt 0.75 0.515625
vt 0.2565265625 0.8020865635542909
vt 0.2785546875 0.8020865635542909
vt 0.2529921875 0.8658146885542908
vt 0.234375 0.8566678135542908
vt 0.39521397812182435 0.578125
vt 0.37630786550661305 0.5688707914704978
vt 0.37502882854159536 0.5454672683485351
vt 0.3965875 0.5501485085320335
vt 0.358720158603645 0.34375
vt 0.3503714134388314 0.316988611195689
vt 0.3996285865611686 0.316988611195689
vt 0.28125 0.9842037842036435
vt 0.2673379966742935 1
vt 0.24802041874498043 0.9550931957472053
vt 0.2665101612893135 0.9460178088032043
vt 0.2122035292183305 0.875
vt 0.17222835872862213 0.8656255997753106
vt 0.21241875 0.8515626348267316
vt 0.0625 0.25
vt 0.048474507029722017 0.24046062633287935
vt 0.046875 0.19925685796811465
vt 0.0625 0.20119686224347033
vt 0.45087838529761637 0.30273653392265687
vt 0.42412161470238363 0.34375
vt 0.4241216147023837 0.2944921938441717
vt 0.3568065905080788 0.5688470137894975
vt 0.33791364710963945 0.578125
vt 0.3378097506084297 0.5501280592674785
vt 0.359375 0.5454453907545436
vt 0.11541219001549441 0.765625
vt 0.11534788388606368 0.7420625872851617
vt 0.15553671875 0.7561250076333375
vn 1 0 0
vn -1 0 0
vn 0.3081106850026419 0.918554119960529 0.24764114054563105
vn 0 -0.9996573249755573 0.02617694830787307
vn 0.338501129883231 0.02463161795076973 0.9406435395328581
vn 0.4154588017436842 0.093526265141428 -0.9047910376337719
vn -0.4154588017436842 0.09352626514142799 -0.9047910376337719
vn 0 -0.9996573249755573 0.02617694830787307
vn -0.33850112988323094 0.024631617950769725 0.940643539532858
vn 0.3790831425909948 -0.2247212049813364 -0.897661601626733
vn 1 0 0
vn 0.31505550454517817 -0.34263855565947327 0.8850643192623762
vn -0.31505550454517817 -0.34263855565947327 0.8850643192623762
vn -1 0 0
vn -0.3790831425909949 -0.22472120498133613 -0.8976616016267333
vn -1 0 0
vn -0.21310023431173983 0.9325911214051198 -0.29131098573967756
vn 0.2131002513101813 0.9325911870751905 -0.29131076307137127
vn 1 0 0
vn 1 0 0
vn 0 -0.9996573249755573 0.02617694830787307
vn 0 -0.9996573249755573 0.02617694830787307
vn -1 0 0
vn 0 -0.9996573249755573 0.02617694830787307
vn -0.9698208443956643 0.025069421872971235 -0.24252639827993122
vn -0.31082629728242966 0.5761406264391294 -0.7559424524949119
vn 0.9298136189564321 0.037840905544429926 -0.36608018229715794
vn 0 -0.9996573249755573 0.02617694830787307
vn 0.31082636170293687 0.5761403980655466 -0.7559426000612668
vn -0.21972601958420146 0.9419306624181712 0.2539431107830028
vn -0.33850112988323083 0.024631617950769725 0.940643539532858
vn -0.31505550454517833 -0.34263855565947327 0.885064319262376
vn 0 -0.9996573249755573 0.02617694830787307
vn 0 -0.9996573249755573 0.02617694830787307
vn -0.3790831425909955 -0.22472120498133608 -0.8976616016267329
vn 0 -0.9996573249755573 0.02617694830787307
vn -0.41545880174368394 0.09352626514142799 -0.9047910376337719
vn -0.33865110677931826 0.5676576944082086 -0.7503866802231365
vn -0.11386104973938935 0.9483085084100791 -0.29622058373667337
vn 0.3385011298832309 0.02463161795076973 0.9406435395328581
vn 0.31505550454517833 -0.34263855565947327 0.885064319262376
vn 0 -0.9996573249755573 0.02617694830787307
vn 0 -0.9996573249755573 0.02617694830787307
vn 0.3790831425909955 -0.2247212049813363 -0.8976616016267329
vn 0 -0.9996573249755573 0.02617694830787307
vn 0.41545880174368394 0.09352626514142805 -0.9047910376337719
vn 0.33865118214256684 0.5676574418194388 -0.7503868372915751
vn 0.11386095567824447 0.9483085890751455 -0.2962203616538606
vn -0.3943556151422728 0.05731293878932954 0.9171689461888088
vn 0.9986282253199599 0.05055587453491822 0.013629788858123767
vn -0.3605250955155135 0.8834977428921607 -0.2990876022304966
vn -0.9978780302525566 0.061999194735424715 0.019888101755494075
vn 0.40289178073252235 0.8922096845449269 -0.2040590400409135
vn -0.9999997141549659 0.0007300363478068067 0.00019681696470798387
vn 0.3832763903524115 0.032571362208912116 0.9230592153065164
vn 0.9919319054219262 0.12071318349679232 0.038722375135012914
usemtl m_efc487d7-ee4e-4cca-c257-0fbcc26fed3c
f 13/1/1 19/2/1 18/3/1 1/4/1
f 5/5/2 17/6/2 16/7/2 14/8/2
f 31/9/3 44/10/3 43/11/3 30/12/3
f 21/13/4 47/14/4 46/15/4 10/16/4
f 32/17/5 45/18/5 44/19/5 31/20/5
f 23/21/6 51/22/6 50/23/6 25/24/6
f 26/25/7 41/26/7 40/27/7 24/28/7
f 22/29/8 37/30/8 36/31/8 7/32/8
f 14/33/9 35/34/9 34/35/9 5/36/9
f 11/37/10 49/38/10 48/39/10 9/40/10
f 3/41/11 20/42/11 19/43/11 13/44/11
f 10/45/12 46/46/12 45/47/12 32/48/12
f 7/49/13 36/50/13 35/51/13 14/52/13
f 14/53/14 16/54/14 22/55/14 7/56/14
f 15/57/15 39/58/15 38/59/15 8/60/15
f 15/61/16 16/62/16 17/63/16 6/64/16
f 17/65/17 33/66/17 42/67/17 6/68/17
f 30/69/18 43/70/18 52/71/18 29/72/18
f 2/73/19 18/74/19 19/75/19 12/76/19
f 12/77/20 19/78/20 20/79/20 4/80/20
f 9/81/21 48/82/21 47/83/21 21/84/21
f 8/85/22 38/86/22 37/87/22 22/88/22
f 8/89/23 22/90/23 16/91/23 15/92/23
f 24/93/24 40/94/24 39/95/24 15/96/24
f 26/97/25 24/98/25 15/99/25 6/100/25
f 6/101/26 42/102/26 41/103/26 26/104/26
f 28/105/27 27/106/27 2/107/27 12/108/27
f 25/109/28 50/110/28 49/111/28 11/112/28
f 29/113/29 52/114/29 51/115/29 23/116/29
f 30/117/30 33/118/30 34/119/30 31/120/30
f 31/121/31 34/122/31 35/123/31 32/124/31
f 32/125/32 35/126/32 36/127/32 10/128/32
f 10/129/33 36/130/33 37/131/33 21/132/33
f 21/133/34 37/134/34 38/135/34 9/136/34
f 9/137/35 38/138/35 39/139/35 11/140/35
f 11/141/36 39/142/36 40/143/36 25/144/36
f 25/145/37 40/146/37 41/147/37 23/148/37
f 23/149/38 41/150/38 42/151/38 29/152/38
f 29/153/39 42/154/39 33/155/39 30/156/39
f 1/157/40 44/158/40 45/159/40 13/160/40
f 13/161/41 45/162/41 46/163/41 3/164/41
f 3/165/42 46/166/42 47/167/42 20/168/42
f 20/169/43 47/170/43 48/171/43 4/172/43
f 4/173/44 48/174/44 49/175/44 12/176/44
f 12/177/45 49/178/45 50/179/45 28/180/45
f 28/181/46 50/182/46 51/183/46 27/184/46
f 27/185/47 51/186/47 52/187/47 2/188/47
f 2/189/48 52/190/48 43/191/48 18/192/48
f 53/193/49 54/194/49 5/195/49 34/196/49
f 53/197/50 34/198/50 33/199/50
f 54/200/51 53/201/51 33/202/51 17/203/51
f 54/204/52 17/205/52 5/206/52
f 56/207/53 55/208/53 18/209/53 43/210/53
f 56/211/54 43/212/54 44/213/54
f 55/214/55 56/215/55 44/216/55 1/217/55
f 55/218/56 1/219/56 18/220/56
o cylinder
v -0.16302083307302073 1.206054158628925 -0.16614397866115233
v -0.16302083307302073 1.3595620332735363 -0.19528835928751714
v -0.16302083186224142 1.2376532348161073 -0.20913026184327632
v -0.16302083186224142 1.314407172138413 -0.22370245215645873
v -0.19218749973968727 1.2444311271088075 -0.17343007477252187
v -0.19218749973968727 1.3211850644311132 -0.18800226508570428
v -0.16302083428380004 1.2512090197640484 -0.13772988579221077
v -0.16302083428380004 1.327962957086354 -0.1523020761053932
vt 0.8866484375 0.43317656250000003
vt 0.875 0.43317656250000003
vt 0.882084375 0.421875
vt 0.859375 0.390625
vt 0.875 0.390625
vt 0.875 0.40625
vt 0.859375 0.40625
vt 0.875 0.33244843749999997
vt 0.8866484375 0.33244843749999997
vt 0.882084375 0.34375
vt 0.890625 0.23004999999999998
vt 0.8789765625 0.23004999999999998
vt 0.883540625 0.21875
vt 0.625 0.125
vt 0.640625 0.125
vt 0.640625 0.140625
vt 0.625 0.140625
vt 0.7539765625 0.11370000000000002
vt 0.765625 0.11370000000000002
vt 0.758540625 0.125
vt 0.743459375 0.205078125
vt 0.725290625 0.205078125
vt 0.734375 0.1953125
vt 0.725290625 0.205078125
vt 0.743459375 0.205078125
vt 0.743459375 0.224609375
vt 0.725290625 0.224609375
vt 0.725290625 0.224609375
vt 0.743459375 0.224609375
vt 0.734375 0.234375
vn -0.6739302859925692 -0.5952669583704189 -0.4375788133518396
vn -0.7798591556008949 -0.1167556582342173 -0.6149697664891779
vn -0.6739302859925692 0.39347366382505045 -0.6252970857904786
vn -0.6739303220402252 -0.39347367220198093 0.6252970416679153
vn -0.7798591973145486 0.11675564854059473 0.614969715431397
vn -0.6739303220402252 0.5952669499934881 0.4375787692292767
vn 0.9999999999999996 6.21498269866552e-9 3.2735256832396526e-8
vn 0.9999999999999996 6.21498269866552e-9 3.2735256832396526e-8
vn 0.9999999999999996 6.21498269866552e-9 3.2735256832396526e-8
usemtl m_efc487d7-ee4e-4cca-c257-0fbcc26fed3c
f 61/221/57 59/222/57 57/223/57
f 59/224/58 61/225/58 62/226/58 60/227/58
f 60/228/59 62/229/59 58/230/59
f 63/231/60 61/232/60 57/233/60
f 61/234/61 63/235/61 64/236/61 62/237/61
f 62/238/62 64/239/62 58/240/62
f 59/241/63 63/242/63 57/243/63
f 63/244/64 59/245/64 60/246/64 64/247/64
f 64/248/65 60/249/65 58/250/65
o cylinder
v -0.1630208353637714 1.2019918198936184 -0.09539463194862349
v -0.1630208353637714 1.389271426960044 -0.13095077631278856
v -0.16302083399680456 1.2411594977674634 -0.14458909230453582
v -0.16302083399680456 1.334799301300676 -0.16236716448661836
v -0.19218750203043794 1.2488117214789545 -0.10428366899444307
v -0.19218750203043794 1.3424515250121671 -0.12206174117652561
v -0.16302083673073825 1.2564639455529862 -0.06397824377479364
v -0.16302083673073825 1.3501037490861991 -0.08175631595687619
vt 0.8856578038907594 0.5090291805541821
vt 0.875 0.5157207954838339
vt 0.875 0.5
vt 0.5 0.15625
vt 0.515625 0.15625
vt 0.515625 0.1875
vt 0.5 0.1875
vt 0.4375 0.125
vt 0.44419161492965176 0.11434219610924057
vt 0.45322079548383387 0.125
vt 0.90625 0.546875
vt 0.8995583850703482 0.5575328038907594
vt 0.8905292045161661 0.546875
vt 0.8125 0.40625
vt 0.828125 0.40625
vt 0.828125 0.4375
vt 0.8125 0.4375
vt 0.8799671961092406 0.4753458194458179
vt 0.890625 0.46865420451616613
vt 0.890625 0.484375
vt 0.58838125 0.2611328125
vt 0.56786875 0.2611328125
vt 0.578125 0.24921875000000004
vt 0.56786875 0.2611328125
vt 0.58838125 0.2611328125
vt 0.58838125 0.28496093749999996
vt 0.56786875 0.28496093749999996
vt 0.56786875 0.28496093749999996
vt 0.58838125 0.28496093749999996
vt 0.578125 0.296875
vn -0.7293232470379455 -0.5352421917691091 -0.4261495013258001
vn -0.8150205444771755 -0.10807800641186854 -0.5692632577377225
vn -0.7293232470379457 0.34181442334332934 -0.5926639024982836
vn -0.7293232815912131 -0.3418144324087928 0.5926638547491142
vn -0.8150205830905379 0.10807799628119104 0.5692632043779069
vn -0.7293232815912132 0.5352421827036459 0.4261494535766311
vn 0.9999999999999996 6.21498269866552e-9 3.2735256832396526e-8
vn 0.9999999999999996 6.21498269866552e-9 3.2735256832396526e-8
vn 0.9999999999999996 6.21498269866552e-9 3.2735256832396526e-8
usemtl m_efc487d7-ee4e-4cca-c257-0fbcc26fed3c
f 69/251/66 67/252/66 65/253/66
f 67/254/67 69/255/67 70/256/67 68/257/67
f 68/258/68 70/259/68 66/260/68
f 71/261/69 69/262/69 65/263/69
f 69/264/70 71/265/70 72/266/70 70/267/70
f 70/268/71 72/269/71 66/270/71
f 67/271/72 71/272/72 65/273/72
f 71/274/73 67/275/73 68/276/73 72/277/73
f 72/278/74 68/279/74 66/280/74
o cylinder
v -0.13094540741130378 1.1929273039279502 -0.20980284862148663
v -0.13265656054718372 1.279470481988583 -0.22715016506160904
v -0.10128106519462331 1.2291821682426645 -0.23064961092208616
v -0.10223507092524664 1.2774319046835483 -0.24032112362764116
v -0.14196181580534933 1.225651073651413 -0.2442529342255286
v -0.14291582153597265 1.2739008100922968 -0.25392444693108357
v -0.16069286642880626 1.2331634180483906 -0.20492732111598516
v -0.16164687215942958 1.2814131544892744 -0.21459883382154016
vt 0.1045109375 0.10502031249999999
vt 0.09375 0.10502031249999999
vt 0.09985625000000001 0.09375
vt 0.859375 0.359375
vt 0.875 0.359375
vt 0.875 0.375
vt 0.859375 0.375
vt 0.9143578125 0.8052078125
vt 0.9064453125 0.8125
vt 0.9060546875 0.8052078125
vt 0.796875 0.12044999999999995
vt 0.785825 0.12044999999999995
vt 0.7909296875 0.109375
vt 0.65625 0.125
vt 0.671875 0.125
vt 0.671875 0.140625
vt 0.65625 0.140625
vt 0.9064453125 0.8125
vt 0.8981421875 0.8052078125
vt 0.9060546875 0.8052078125
vt 0.2424828125 0.15957031249999998
vt 0.2262671875 0.15957031249999998
vt 0.2341796875 0.14980468749999998
vt 0.2262671875 0.15957031249999998
vt 0.2424828125 0.15957031249999998
vt 0.2424828125 0.171875
vt 0.2262671875 0.171875
vt 0.0075171874999999996 1
vt 0.0237328125 1
vt 0.015429687499999999 1
vn 0.2921098109309343 -0.6450322779125076 -0.7061198331791109
vn 0.3259609945355918 -0.17960307082775098 -0.9281660233980826
vn -0.019382973574569185 0.9803121054655709 -0.1965005756049259
vn -0.7894537403129301 -0.5508479095862984 -0.2707939667170045
vn -0.9055656889509087 -0.10051442033822389 -0.4121257505894733
vn -0.019382973574569185 0.9803121054655709 -0.1965005756049259
vn 0.40081505137646284 0.18767201458089722 0.8967310129203913
vn 0.40081505137646284 0.18767201458089722 0.8967310129203913
vn 0 0 0
usemtl m_efc487d7-ee4e-4cca-c257-0fbcc26fed3c
f 77/281/75 75/282/75 73/283/75
f 75/284/76 77/285/76 78/286/76 76/287/76
f 76/288/77 78/289/77 74/290/77
f 79/291/78 77/292/78 73/293/78
f 77/294/79 79/295/79 80/296/79 78/297/79
f 78/298/80 80/299/80 74/300/80
f 75/301/81 79/302/81 73/303/81
f 79/304/82 75/305/82 76/306/82 80/307/82
f 80/308/83 76/309/83 74/310/83
o cylinder
v -0.0736982870236572 1.1890911117542216 -0.2345879416600153
v -0.07540944015953714 1.2756342898148543 -0.2519352581001377
v -0.04403394480697674 1.2253459760689356 -0.25543470396061485
v -0.044987950537600074 1.2735957125098194 -0.26510621666616985
v -0.08471469541770277 1.2218148814776844 -0.2690380272640573
v -0.08566870114832609 1.2700646179185682 -0.2787095399696123
v -0.10344574604115969 1.229327225874662 -0.22971241415451385
v -0.10439975177178301 1.2775769623155457 -0.23938392686006885
vt 0.9013859375 0.964396875
vt 0.890625 0.964396875
vt 0.89673125 0.953125
vt 0.6875 0.125
vt 0.703125 0.125
vt 0.703125 0.140625
vt 0.6875 0.140625
vt 0.2737328125 0.10208281249999995
vt 0.2658203125 0.109375
vt 0.2654296875 0.10208281249999995
vt 0.890625 0.1204484375
vt 0.879575 0.1204484375
vt 0.8846796875 0.109375
vt 0.859375 0.28125
vt 0.875 0.28125
vt 0.875 0.296875
vt 0.859375 0.296875
vt 0.2658203125 0.109375
vt 0.2575171875 0.10208281249999995
vt 0.2654296875 0.10208281249999995
vt 0.8518578125 0.7689453125
vt 0.8356421875 0.7689453125
vt 0.8435546875 0.7591796875
vt 0.8356421875 0.7689453125
vt 0.8518578125 0.7689453125
vt 0.8518578125 0.78125
vt 0.8356421875 0.78125
vt 0.0075171874999999996 1
vt 0.0237328125 1
vt 0.015429687499999999 1
vn 0.2921098109309345 -0.6450322779125076 -0.7061198331791109
vn 0.3259609945355918 -0.17960307082775098 -0.9281660233980826
vn -0.019382973574569185 0.9803121054655709 -0.1965005756049259
vn -0.7894537403129301 -0.5508479095862984 -0.2707939667170045
vn -0.9055656889509087 -0.10051442033822389 -0.4121257505894733
vn -0.019382973574569185 0.9803121054655709 -0.1965005756049259
vn 0.40081505137646284 0.18767201458089722 0.8967310129203913
vn 0.40081505137646284 0.18767201458089722 0.8967310129203913
vn 0 0 0
usemtl m_efc487d7-ee4e-4cca-c257-0fbcc26fed3c
f 85/311/84 83/312/84 81/313/84
f 83/314/85 85/315/85 86/316/85 84/317/85
f 84/318/86 86/319/86 82/320/86
f 87/321/87 85/322/87 81/323/87
f 85/324/88 87/325/88 88/326/88 86/327/88
f 86/328/89 88/329/89 82/330/89
f 83/331/90 87/332/90 81/333/90
f 87/334/91 83/335/91 84/336/91 88/337/91
f 88/338/92 84/339/92 82/340/92
o cylinder
v -0.027900590713539924 1.1860221580152384 -0.25441601609083825
v -0.029611743849419878 1.272565336075871 -0.2717633325309607
v 0.0017637515031405093 1.2222770223299526 -0.2752627783914378
v 0.0008097457725171897 1.2705267587708364 -0.28493429109699275
v -0.03891699910758552 1.2187459277387014 -0.2888661016948802
v -0.03987100483820885 1.2669956641795852 -0.2985376144004352
v -0.05764804973104243 1.2262582721356787 -0.24954048858533678
v -0.05860205546166576 1.2745080085765625 -0.2592120012908918
vt 0.901384375 0.8706453125
vt 0.890625 0.8706453125
vt 0.8967296875 0.859375
vt 0.859375 0.25
vt 0.875 0.25
vt 0.875 0.265625
vt 0.859375 0.265625
vt 0.9143578125 0.7427078125
vt 0.9064453125 0.75
vt 0.9060546875 0.7427078125
vt 0.828125 0.12044999999999995
vt 0.817075 0.12044999999999995
vt 0.8221796875 0.109375
vt 0.859375 0.171875
vt 0.875 0.171875
vt 0.875 0.1875
vt 0.859375 0.1875
vt 0.9064453125 0.75
vt 0.8981421875 0.7427078125
vt 0.9060546875 0.7427078125
vt 0.8518578125 0.6595703125
vt 0.8356421875 0.6595703125
vt 0.8435546875 0.6498046875
vt 0.8356421875 0.6595703125
vt 0.8518578125 0.6595703125
vt 0.8518578125 0.671875
vt 0.8356421875 0.671875
vt 0.0075171874999999996 1
vt 0.0237328125 1
vt 0.015429687499999999 1
vn 0.2921098109309342 -0.6450322779125076 -0.7061198331791111
vn 0.3259609945355916 -0.17960307082775104 -0.9281660233980827
vn -0.019382973574569185 0.9803121054655709 -0.1965005756049259
vn -0.7894537403129301 -0.5508479095862986 -0.2707939667170043
vn -0.9055656889509089 -0.10051442033822387 -0.41212575058947326
vn -0.019382973574569185 0.9803121054655709 -0.1965005756049259
vn 0.40081505137646284 0.18767201458089722 0.8967310129203913
vn 0.40081505137646284 0.18767201458089722 0.8967310129203913
vn 0 0 0
usemtl m_efc487d7-ee4e-4cca-c257-0fbcc26fed3c
f 93/341/93 91/342/93 89/343/93
f 91/344/94 93/345/94 94/346/94 92/347/94
f 92/348/95 94/349/95 90/350/95
f 95/351/96 93/352/96 89/353/96
f 93/354/97 95/355/97 96/356/97 94/357/97
f 94/358/98 96/359/98 90/360/98
f 91/361/99 95/362/99 89/363/99
f 95/364/100 91/365/100 92/366/100 96/367/100
f 96/368/101 92/369/101 90/370/101
o cylinder
v -0.13094540741130378 1.1929273039279502 -0.20980284862148663
v -0.13265656054718372 1.279470481988583 -0.22715016506160904
v -0.10128106519462331 1.2291821682426645 -0.23064961092208616
v -0.10223507092524664 1.2774319046835483 -0.24032112362764116
v -0.14196181580534933 1.225651073651413 -0.2442529342255286
v -0.14291582153597265 1.2739008100922968 -0.25392444693108357
v -0.16069286642880626 1.2331634180483906 -0.20492732111598516
v -0.16164687215942958 1.2814131544892744 -0.21459883382154016
vt 0.9013859375 0.9018953125
vt 0.890625 0.9018953125
vt 0.89673125 0.890625
vt 0 0.109375
vt 0.015625 0.109375
vt 0.015625 0.125
vt 0 0.125
vt 0.9143578125 0.7114578125
vt 0.9064453125 0.71875
vt 0.9060546875 0.7114578125
vt 0.859375 0.12044999999999995
vt 0.848325 0.12044999999999995
vt 0.8534296875 0.109375
vt 0.03125 0.109375
vt 0.046875 0.109375
vt 0.046875 0.125
vt 0.03125 0.125
vt 0.9064453125 0.71875
vt 0.8981421875 0.7114578125
vt 0.9060546875 0.7114578125
vt 0.8518578125 0.5501953125
vt 0.8356421875 0.5501953125
vt 0.8435546875 0.5404296875
vt 0.8356421875 0.5501953125
vt 0.8518578125 0.5501953125
vt 0.8518578125 0.5625
vt 0.8356421875 0.5625
vt 0.0075171874999999996 1
vt 0.0237328125 1
vt 0.015429687499999999 1
vn 0.2921098109309343 -0.6450322779125076 -0.7061198331791109
vn 0.3259609945355918 -0.17960307082775098 -0.9281660233980826
vn -0.019382973574569185 0.9803121054655709 -0.1965005756049259
vn -0.7894537403129301 -0.5508479095862984 -0.2707939667170045
vn -0.9055656889509087 -0.10051442033822389 -0.4121257505894733
vn -0.019382973574569185 0.9803121054655709 -0.1965005756049259
vn 0.40081505137646284 0.18767201458089722 0.8967310129203913
vn 0.40081505137646284 0.18767201458089722 0.8967310129203913
vn 0 0 0
usemtl m_efc487d7-ee4e-4cca-c257-0fbcc26fed3c
f 101/371/102 99/372/102 97/373/102
f 99/374/103 101/375/103 102/376/103 100/377/103
f 100/378/104 102/379/104 98/380/104
f 103/381/105 101/382/105 97/383/105
f 101/384/106 103/385/106 104/386/106 102/387/106
f 102/388/107 104/389/107 98/390/107
f 99/391/108 103/392/108 97/393/108
f 103/394/109 99/395/109 100/396/109 104/397/109
f 104/398/110 100/399/110 98/400/110
o cylinder
v -0.0736982870236572 1.1890911117542216 -0.2345879416600153
v -0.07540944015953714 1.2756342898148543 -0.2519352581001377
v -0.04403394480697674 1.2253459760689356 -0.25543470396061485
v -0.044987950537600074 1.2735957125098194 -0.26510621666616985
v -0.08471469541770277 1.2218148814776844 -0.2690380272640573
v -0.08566870114832609 1.2700646179185682 -0.2787095399696123
v -0.10344574604115969 1.229327225874662 -0.22971241415451385
v -0.10439975177178301 1.2775769623155457 -0.23938392686006885
vt 0.9013859375 0.933146875
vt 0.890625 0.933146875
vt 0.89673125 0.921875
vt 0.0625 0.109375
vt 0.078125 0.109375
vt 0.078125 0.125
vt 0.0625 0.125
vt 0.3206078125 0.10208281249999995
vt 0.3126953125 0.109375
vt 0.3123046875 0.10208281249999995
vt 0.90625 0.9954484375
vt 0.8952 0.9954484375
vt 0.9003046875 0.984375
vt 0.125 0.109375
vt 0.140625 0.109375
vt 0.140625 0.125
vt 0.125 0.125
vt 0.3126953125 0.109375
vt 0.3043921875 0.10208281249999995
vt 0.3123046875 0.10208281249999995
vt 0.4768578125 0.15957031249999998
vt 0.4606421875 0.15957031249999998
vt 0.4685546875 0.14980468749999998
vt 0.4606421875 0.15957031249999998
vt 0.4768578125 0.15957031249999998
vt 0.4768578125 0.171875
vt 0.4606421875 0.171875
vt 0.0075171874999999996 1
vt 0.0237328125 1
vt 0.015429687499999999 1
vn 0.2921098109309345 -0.6450322779125076 -0.7061198331791109
vn 0.3259609945355918 -0.17960307082775098 -0.9281660233980826
vn -0.019382973574569185 0.9803121054655709 -0.1965005756049259
vn -0.7894537403129301 -0.5508479095862984 -0.2707939667170045
vn -0.9055656889509087 -0.10051442033822389 -0.4121257505894733
vn -0.019382973574569185 0.9803121054655709 -0.1965005756049259
vn 0.40081505137646284 0.18767201458089722 0.8967310129203913
vn 0.40081505137646284 0.18767201458089722 0.8967310129203913
vn 0 0 0
usemtl m_efc487d7-ee4e-4cca-c257-0fbcc26fed3c
f 109/401/111 107/402/111 105/403/111
f 107/404/112 109/405/112 110/406/112 108/407/112
f 108/408/113 110/409/113 106/410/113
f 111/411/114 109/412/114 105/413/114
f 109/414/115 111/415/115 112/416/115 110/417/115
f 110/418/116 112/419/116 106/420/116
f 107/421/117 111/422/117 105/423/117
f 111/424/118 107/425/118 108/426/118 112/427/118
f 112/428/119 108/429/119 106/430/119
o cylinder
v -0.027900590713539924 1.1860221580152384 -0.25441601609083825
v -0.029611743849419878 1.272565336075871 -0.2717633325309607
v 0.0017637515031405093 1.2222770223299526 -0.2752627783914378
v 0.0008097457725171897 1.2705267587708364 -0.28493429109699275
v -0.03891699910758552 1.2187459277387014 -0.2888661016948802
v -0.03987100483820885 1.2669956641795852 -0.2985376144004352
v -0.05764804973104243 1.2262582721356787 -0.24954048858533678
v -0.05860205546166576 1.2745080085765625 -0.2592120012908918
vt 0.901384375 0.8393953125
vt 0.890625 0.8393953125
vt 0.8967296875 0.828125
vt 0.15625 0.109375
vt 0.171875 0.109375
vt 0.171875 0.125
vt 0.15625 0.125
vt 0.3674828125 0.10208281249999995
vt 0.3595703125 0.109375
vt 0.3591796875 0.10208281249999995
vt 0.890625 0.15169999999999995
vt 0.879575 0.15169999999999995
vt 0.8846796875 0.140625
vt 0.1875 0.109375
vt 0.203125 0.109375
vt 0.203125 0.125
vt 0.1875 0.125
vt 0.3595703125 0.109375
vt 0.3512671875 0.10208281249999995
vt 0.3591796875 0.10208281249999995
vt 0.8518578125 0.5033203125
vt 0.8356421875 0.5033203125
vt 0.8435546875 0.4935546875
vt 0.8356421875 0.5033203125
vt 0.8518578125 0.5033203125
vt 0.8518578125 0.515625
vt 0.8356421875 0.515625
vt 0.0075171874999999996 1
vt 0.0237328125 1
vt 0.015429687499999999 1
vn 0.2921098109309342 -0.6450322779125076 -0.7061198331791111
vn 0.3259609945355916 -0.17960307082775104 -0.9281660233980827
vn -0.019382973574569185 0.9803121054655709 -0.1965005756049259
vn -0.7894537403129301 -0.5508479095862986 -0.2707939667170043
vn -0.9055656889509089 -0.10051442033822387 -0.41212575058947326
vn -0.019382973574569185 0.9803121054655709 -0.1965005756049259
vn 0.40081505137646284 0.18767201458089722 0.8967310129203913
vn 0.40081505137646284 0.18767201458089722 0.8967310129203913
vn 0 0 0
usemtl m_efc487d7-ee4e-4cca-c257-0fbcc26fed3c
f 117/431/120 115/432/120 113/433/120
f 115/434/121 117/435/121 118/436/121 116/437/121
f 116/438/122 118/439/122 114/440/122
f 119/441/123 117/442/123 113/443/123
f 117/444/124 119/445/124 120/446/124 118/447/124
f 118/448/125 120/449/125 114/450/125
f 115/451/126 119/452/126 113/453/126
f 119/454/127 115/455/127 116/456/127 120/457/127
f 120/458/128 116/459/128 114/460/128
o cylinder
v 0.027900590713539924 1.1860221580152384 -0.25441601609083825
v 0.029611743849419878 1.272565336075871 -0.2717633325309607
v -0.0017637515031405093 1.2222770223299526 -0.2752627783914378
v -0.0008097457725171897 1.2705267587708364 -0.28493429109699275
v 0.03891699910758552 1.2187459277387014 -0.2888661016948802
v 0.03987100483820885 1.2669956641795852 -0.2985376144004352
v 0.05764804973104243 1.2262582721356787 -0.24954048858533678
v 0.05860205546166576 1.2745080085765625 -0.2592120012908918
vt 0.890625 0.8706453125
vt 0.901384375 0.8706453125
vt 0.8967296875 0.859375
vt 0.875 0.265625
vt 0.875 0.25
vt 0.859375 0.25
vt 0.859375 0.265625
vt 0.9064453125 0.75
vt 0.9143578125 0.7427078125
vt 0.9060546875 0.7427078125
vt 0.817075 0.12044999999999995
vt 0.828125 0.12044999999999995
vt 0.8221796875 0.109375
vt 0.875 0.1875
vt 0.875 0.171875
vt 0.859375 0.171875
vt 0.859375 0.1875
vt 0.8981421875 0.7427078125
vt 0.9064453125 0.75
vt 0.9060546875 0.7427078125
vt 0.8356421875 0.6595703125
vt 0.8518578125 0.6595703125
vt 0.8435546875 0.6498046875
vt 0.8518578125 0.671875
vt 0.8518578125 0.6595703125
vt 0.8356421875 0.6595703125
vt 0.8356421875 0.671875
vt 0.0237328125 1
vt 0.0075171874999999996 1
vt 0.015429687499999999 1
vn -0.2921098109309342 -0.6450322779125076 -0.7061198331791111
vn -0.3259609945355916 -0.17960307082775104 -0.9281660233980827
vn 0.019382973574569185 0.9803121054655709 -0.1965005756049259
vn 0.78945374031293 -0.5508479095862986 -0.27079396671700423
vn 0.9055656889509089 -0.10051442033822387 -0.41212575058947326
vn 0.019382973574569185 0.9803121054655709 -0.1965005756049259
vn -0.40081505137646284 0.18767201458089722 0.8967310129203913
vn -0.40081505137646284 0.18767201458089722 0.8967310129203913
vn 0 0 0
usemtl m_efc487d7-ee4e-4cca-c257-0fbcc26fed3c
f 123/461/129 125/462/129 121/463/129
f 126/464/130 125/465/130 123/466/130 124/467/130
f 126/468/131 124/469/131 122/470/131
f 125/471/132 127/472/132 121/473/132
f 128/474/133 127/475/133 125/476/133 126/477/133
f 128/478/134 126/479/134 122/480/134
f 127/481/135 123/482/135 121/483/135
f 124/484/136 123/485/136 127/486/136 128/487/136
f 124/488/137 128/489/137 122/490/137
o cylinder
v 0.0736982870236572 1.1890911117542216 -0.2345879416600153
v 0.07540944015953714 1.2756342898148543 -0.2519352581001377
v 0.04403394480697674 1.2253459760689356 -0.25543470396061485
v 0.044987950537600074 1.2735957125098194 -0.26510621666616985
v 0.08471469541770277 1.2218148814776844 -0.2690380272640573
v 0.08566870114832609 1.2700646179185682 -0.2787095399696123
v 0.10344574604115969 1.229327225874662 -0.22971241415451385
v 0.10439975177178301 1.2775769623155457 -0.23938392686006885
vt 0.890625 0.964396875
vt 0.9013859375 0.964396875
vt 0.89673125 0.953125
vt 0.703125 0.140625
vt 0.703125 0.125
vt 0.6875 0.125
vt 0.6875 0.140625
vt 0.2658203125 0.109375
vt 0.2737328125 0.10208281249999995
vt 0.2654296875 0.10208281249999995
vt 0.879575 0.1204484375
vt 0.890625 0.1204484375
vt 0.8846796875 0.109375
vt 0.875 0.296875
vt 0.875 0.28125
vt 0.859375 0.28125
vt 0.859375 0.296875
vt 0.2575171875 0.10208281249999995
vt 0.2658203125 0.109375
vt 0.2654296875 0.10208281249999995
vt 0.8356421875 0.7689453125
vt 0.8518578125 0.7689453125
vt 0.8435546875 0.7591796875
vt 0.8518578125 0.78125
vt 0.8518578125 0.7689453125
vt 0.8356421875 0.7689453125
vt 0.8356421875 0.78125
vt 0.0237328125 1
vt 0.0075171874999999996 1
vt 0.015429687499999999 1
vn -0.2921098109309345 -0.6450322779125076 -0.7061198331791109
vn -0.3259609945355918 -0.17960307082775098 -0.9281660233980826
vn 0.019382973574569185 0.9803121054655709 -0.1965005756049259
vn 0.7894537403129301 -0.5508479095862984 -0.2707939667170045
vn 0.9055656889509087 -0.10051442033822389 -0.4121257505894733
vn 0.019382973574569185 0.9803121054655709 -0.1965005756049259
vn -0.40081505137646284 0.18767201458089722 0.8967310129203913
vn -0.40081505137646284 0.18767201458089722 0.8967310129203913
vn 0 0 0
usemtl m_efc487d7-ee4e-4cca-c257-0fbcc26fed3c
f 131/491/138 133/492/138 129/493/138
f 134/494/139 133/495/139 131/496/139 132/497/139
f 134/498/140 132/499/140 130/500/140
f 133/501/141 135/502/141 129/503/141
f 136/504/142 135/505/142 133/506/142 134/507/142
f 136/508/143 134/509/143 130/510/143
f 135/511/144 131/512/144 129/513/144
f 132/514/145 131/515/145 135/516/145 136/517/145
f 132/518/146 136/519/146 130/520/146
o cylinder
v 0.13094540741130378 1.1929273039279502 -0.20980284862148663
v 0.13265656054718372 1.279470481988583 -0.22715016506160904
v 0.10128106519462331 1.2291821682426645 -0.23064961092208616
v 0.10223507092524664 1.2774319046835483 -0.24032112362764116
v 0.14196181580534933 1.225651073651413 -0.2442529342255286
v 0.14291582153597265 1.2739008100922968 -0.25392444693108357
v 0.16069286642880626 1.2331634180483906 -0.20492732111598516
v 0.16164687215942958 1.2814131544892744 -0.21459883382154016
vt 0.09375 0.10502031249999999
vt 0.1045109375 0.10502031249999999
vt 0.09985625000000001 0.09375
vt 0.875 0.375
vt 0.875 0.359375
vt 0.859375 0.359375
vt 0.859375 0.375
vt 0.9064453125 0.8125
vt 0.9143578125 0.8052078125
vt 0.9060546875 0.8052078125
vt 0.785825 0.12044999999999995
vt 0.796875 0.12044999999999995
vt 0.7909296875 0.109375
vt 0.671875 0.140625
vt 0.671875 0.125
vt 0.65625 0.125
vt 0.65625 0.140625
vt 0.8981421875 0.8052078125
vt 0.9064453125 0.8125
vt 0.9060546875 0.8052078125
vt 0.2262671875 0.15957031249999998
vt 0.2424828125 0.15957031249999998
vt 0.2341796875 0.14980468749999998
vt 0.2424828125 0.171875
vt 0.2424828125 0.15957031249999998
vt 0.2262671875 0.15957031249999998
vt 0.2262671875 0.171875
vt 0.0237328125 1
vt 0.0075171874999999996 1
vt 0.015429687499999999 1
vn -0.2921098109309343 -0.6450322779125076 -0.7061198331791109
vn -0.3259609945355918 -0.17960307082775098 -0.9281660233980826
vn 0.019382973574569185 0.9803121054655709 -0.1965005756049259
vn 0.7894537403129301 -0.5508479095862984 -0.2707939667170045
vn 0.9055656889509087 -0.10051442033822389 -0.4121257505894733
vn 0.019382973574569185 0.9803121054655709 -0.1965005756049259
vn -0.40081505137646284 0.18767201458089722 0.8967310129203913
vn -0.40081505137646284 0.18767201458089722 0.8967310129203913
vn 0 0 0
usemtl m_efc487d7-ee4e-4cca-c257-0fbcc26fed3c
f 139/521/147 141/522/147 137/523/147
f 142/524/148 141/525/148 139/526/148 140/527/148
f 142/528/149 140/529/149 138/530/149
f 141/531/150 143/532/150 137/533/150
f 144/534/151 143/535/151 141/536/151 142/537/151
f 144/538/152 142/539/152 138/540/152
f 143/541/153 139/542/153 137/543/153
f 140/544/154 139/545/154 143/546/154 144/547/154
f 140/548/155 144/549/155 138/550/155
o cylinder
v 0.1630208353637714 1.2019918198936184 -0.09539463194862349
v 0.1630208353637714 1.389271426960044 -0.13095077631278856
v 0.16302083399680456 1.2411594977674634 -0.14458909230453582
v 0.16302083399680456 1.334799301300676 -0.16236716448661836
v 0.19218750203043794 1.2488117214789545 -0.10428366899444307
v 0.19218750203043794 1.3424515250121671 -0.12206174117652561
v 0.16302083673073825 1.2564639455529862 -0.06397824377479364
v 0.16302083673073825 1.3501037490861991 -0.08175631595687619
vt 0.875 0.5157207954838339
vt 0.8856578038907594 0.5090291805541821
vt 0.875 0.5
vt 0.515625 0.1875
vt 0.515625 0.15625
vt 0.5 0.15625
vt 0.5 0.1875
vt 0.44419161492965176 0.11434219610924057
vt 0.4375 0.125
vt 0.45322079548383387 0.125
vt 0.8995583850703482 0.5575328038907594
vt 0.90625 0.546875
vt 0.8905292045161661 0.546875
vt 0.828125 0.4375
vt 0.828125 0.40625
vt 0.8125 0.40625
vt 0.8125 0.4375
vt 0.890625 0.46865420451616613
vt 0.8799671961092406 0.4753458194458179
vt 0.890625 0.484375
vt 0.56786875 0.2611328125
vt 0.58838125 0.2611328125
vt 0.578125 0.24921875000000004
vt 0.58838125 0.28496093749999996
vt 0.58838125 0.2611328125
vt 0.56786875 0.2611328125
vt 0.56786875 0.28496093749999996
vt 0.58838125 0.28496093749999996
vt 0.56786875 0.28496093749999996
vt 0.578125 0.296875
vn 0.7293232470379455 -0.5352421917691091 -0.4261495013258001
vn 0.8150205444771755 -0.10807800641186854 -0.5692632577377225
vn 0.7293232470379457 0.34181442334332934 -0.5926639024982836
vn 0.7293232815912131 -0.3418144324087928 0.5926638547491142
vn 0.8150205830905379 0.10807799628119104 0.5692632043779069
vn 0.7293232815912132 0.5352421827036459 0.4261494535766311
vn -0.9999999999999996 6.21498269866552e-9 3.2735256832396526e-8
vn -0.9999999999999996 6.21498269866552e-9 3.2735256832396526e-8
vn -0.9999999999999996 6.21498269866552e-9 3.2735256832396526e-8
usemtl m_efc487d7-ee4e-4cca-c257-0fbcc26fed3c
f 147/551/156 149/552/156 145/553/156
f 150/554/157 149/555/157 147/556/157 148/557/157
f 150/558/158 148/559/158 146/560/158
f 149/561/159 151/562/159 145/563/159
f 152/564/160 151/565/160 149/566/160 150/567/160
f 152/568/161 150/569/161 146/570/161
f 151/571/162 147/572/162 145/573/162
f 148/574/163 147/575/163 151/576/163 152/577/163
f 148/578/164 152/579/164 146/580/164
o cylinder
v 0.16302083307302073 1.206054158628925 -0.16614397866115233
v 0.16302083307302073 1.3595620332735363 -0.19528835928751714
v 0.16302083186224142 1.2376532348161073 -0.20913026184327632
v 0.16302083186224142 1.314407172138413 -0.22370245215645873
v 0.19218749973968727 1.2444311271088075 -0.17343007477252187
v 0.19218749973968727 1.3211850644311132 -0.18800226508570428
v 0.16302083428380004 1.2512090197640484 -0.13772988579221077
v 0.16302083428380004 1.327962957086354 -0.1523020761053932
vt 0.875 0.43317656250000003
vt 0.8866484375 0.43317656250000003
vt 0.882084375 0.421875
vt 0.875 0.40625
vt 0.875 0.390625
vt 0.859375 0.390625
vt 0.859375 0.40625
vt 0.8866484375 0.33244843749999997
vt 0.875 0.33244843749999997
vt 0.882084375 0.34375
vt 0.8789765625 0.23004999999999998
vt 0.890625 0.23004999999999998
vt 0.883540625 0.21875
vt 0.640625 0.140625
vt 0.640625 0.125
vt 0.625 0.125
vt 0.625 0.140625
vt 0.765625 0.11370000000000002
vt 0.7539765625 0.11370000000000002
vt 0.758540625 0.125
vt 0.725290625 0.205078125
vt 0.743459375 0.205078125
vt 0.734375 0.1953125
vt 0.743459375 0.224609375
vt 0.743459375 0.205078125
vt 0.725290625 0.205078125
vt 0.725290625 0.224609375
vt 0.743459375 0.224609375
vt 0.725290625 0.224609375
vt 0.734375 0.234375
vn 0.6739302859925692 -0.5952669583704189 -0.4375788133518396
vn 0.7798591556008949 -0.1167556582342173 -0.6149697664891779
vn 0.6739302859925692 0.39347366382505045 -0.6252970857904786
vn 0.6739303220402252 -0.39347367220198093 0.6252970416679153
vn 0.7798591973145486 0.11675564854059473 0.614969715431397
vn 0.6739303220402252 0.5952669499934881 0.4375787692292767
vn -0.9999999999999996 6.21498269866552e-9 3.2735256832396526e-8
vn -0.9999999999999996 6.21498269866552e-9 3.2735256832396526e-8
vn -0.9999999999999996 6.21498269866552e-9 3.2735256832396526e-8
usemtl m_efc487d7-ee4e-4cca-c257-0fbcc26fed3c
f 155/581/165 157/582/165 153/583/165
f 158/584/166 157/585/166 155/586/166 156/587/166
f 158/588/167 156/589/167 154/590/167
f 157/591/168 159/592/168 153/593/168
f 160/594/169 159/595/169 157/596/169 158/597/169
f 160/598/170 158/599/170 154/600/170
f 159/601/171 155/602/171 153/603/171
f 156/604/172 155/605/172 159/606/172 160/607/172
f 156/608/173 160/609/173 154/610/173