# Made in Blockbench 5.1.5
mtllib TyranusRightArm.mtl

o cuboid
v 0.6260294130467893 1.0434696251728761 0.115625
v 0.6260294130467893 1.0434696251728761 -0.115625
v 0.6260294130467893 0.9375000000000002 0.07500000000000001
v 0.6260294130467893 0.9375000000000002 -0.07500000000000001
v 0.7010761345132838 1.0434696251728761 0.115625
v 0.7010761345132838 1.0434696251728761 -0.115625
v 0.7010761345132838 0.9375000000000002 0.07500000000000001
v 0.7010761345132838 0.9375000000000002 -0.07500000000000001
v 0.7010761345132838 1.0434696251728761 0
v 0.7010761345132838 0.9375000000000002 0
v 0.6260294130467893 0.9375000000000002 0
v 0.6260294130467893 1.0434696251728761 0
v 0.7876685054361622 1.0302234220262667 -0.029647435897435903
v 0.7876685054361622 0.9507462031466097 -0.029647435897435903
v 0.6006771852632066 0.9707415387368293 -0.03813034336604004
v 0.6006771852632066 1.0767111639097053 -0.03813034336604004
v 0.7876685054361622 0.9507462031466097 -0.096875
v 0.7876685054361622 1.0302234220262667 -0.115625
v 0.7876685054361622 1.0302234220262667 0.10080128205128205
v 0.7876685054361622 1.0302234220262667 0.01482371794871795
v 0.7876685054361622 0.9507462031466097 0.01482371794871795
v 0.7876685054361622 0.9507462031466097 0.08205128205128205
v 0.9031250000000001 0.9397386094398287 -0.060977564102564094
v 0.9031250000000001 0.9662310157330477 -0.042785437832607645
v 0.9031250000000001 0.9397386094398287 -0.042785437832607645
v 0.9031250000000001 0.9662310157330477 -0.06722756410256409
v 0.9031250000000001 0.9662310157330477 0.05240384615384615
v 0.9031250000000001 0.9662310157330477 0.027961719883889694
v 0.9031250000000001 0.9397386094398287 0.027961719883889694
v 0.9031250000000001 0.9397386094398287 0.04615384615384615
v 0.6322794130467893 1.0406027027622442 -0.1508939784374312
v 0.6322794130467893 0.9721330775893683 -0.1508939784374312
v 0.6948261345132838 1.0406027027622442 -0.1508939784374312
v 0.6948261345132838 0.9721330775893683 -0.1508939784374312
v 0.6572794130467893 0.9766974664299303 -0.21182750289271357
v 0.6572794130467893 0.9582278412570544 -0.21182750289271357
v 0.6698261345132838 0.9766974664299303 -0.21182750289271357
v 0.6698261345132838 0.9582278412570544 -0.21182750289271357
vt 0.5814620632608465 0.6922578125000001
vt 0.5814620632608465 0.71875
vt 0.6103683132608464 0.71875
vt 0.6002120632608464 0.6922578125000001
vt 0.875 0.9375
vt 0.875 0.921875
vt 0.8609375 0.921875
vt 0.859375 0.9375
vt 0.65314296875 0.8684984375
vt 0.63438203125 0.8684984375
vt 0.63438203125 0.8974046875
vt 0.65314296875 0.8974046875
vt 0.4926296875 0.55546875
vt 0.511390625 0.55546875
vt 0.511390625 0.53671875
vt 0.4926296875 0.53671875
vt 0.7276783256539655 0.9971180878992733
vt 0.7464367589289173 0.9974246118756425
vt 0.7469003103874758 0.9690565239763693
vt 0.7281418771125241 0.96875
vt 0.09375 0.125
vt 0.09375 0.140625
vt 0.109375 0.140625
vt 0.109375 0.125
vt 0.89538203125 0.625
vt 0.89538203125 0.640625
vt 0.90149296875 0.640625
vt 0.89993046875 0.625
vt 0.511390625 0.55546875
vt 0.4926296875 0.55546875
vt 0.4926296875 0.57421875
vt 0.511390625 0.57421875
vt 0.5814620632608465 0.71875
vt 0.5814620632608465 0.6922578125000001
vt 0.5627120632608464 0.6922578125000001
vt 0.5525558132608465 0.71875
vt 0.69688203125 0.3125
vt 0.71564296875 0.3125
vt 0.71564296875 0.28359375
vt 0.69688203125 0.28359375
vt 0.4926296875 0.53671875
vt 0.4707296875 0.53125
vt 0.4707296875 0.54805625
vt 0.4926296875 0.55546875
vt 0.2394328125 0.31725781249999996
vt 0.21655 0.32056874999999996
vt 0.21655 0.3404390625
vt 0.2394328125 0.34375
vt 0.63438203125 0.8684984375
vt 0.61248203125 0.8759109375
vt 0.61248203125 0.8974046875
vt 0.63438203125 0.8974046875
vt 0.8421830685973245 0.1873652180808184
vt 0.8389588783811456 0.171875
vt 0.8185441184188926 0.171875
vt 0.8140669314026755 0.1875
vt 0.69688203125 0.28359375
vt 0.67498203125 0.2873
vt 0.67498203125 0.30879375
vt 0.69688203125 0.3125
vt 0.2771109375 0.34375
vt 0.2990734375 0.3404390625
vt 0.2990734375 0.32056874999999996
vt 0.2771109375 0.31725781249999996
vt 0.4926296875 0.55546875
vt 0.4707296875 0.559175
vt 0.4707296875 0.57598125
vt 0.4926296875 0.57421875
vt 0.7281418771125241 0.96875
vt 0.7064371896125241 0.9721515625
vt 0.7062246896125242 0.992565625
vt 0.7276825021125242 0.9968625
vt 0.4707296875 0.53125
vt 0.441734375 0.540225
vt 0.441734375 0.544771875
vt 0.4707296875 0.54805625
vt 0.21655 0.32056874999999996
vt 0.1875 0.3178171875
vt 0.1875 0.32444062500000004
vt 0.21655 0.3404390625
vt 0.6350900430219804 0.24260098544934272
vt 0.6206459366546615 0.2127470403527293
vt 0.6149099569780196 0.21485013332256575
vt 0.6149099569780196 0.25
vt 0.484375 0.22620082594827795
vt 0.484375 0.19105259668961505
vt 0.48035760989099313 0.1875
vt 0.46875 0.21554449426771327
vt 0.32331386010816554 0.203125
vt 0.2881645312755575 0.203125
vt 0.28606113989183446 0.204307139638081
vt 0.3159156878058147 0.21875
vt 0.2990734375 0.3404390625
vt 0.328125 0.32444062500000004
vt 0.328125 0.3178171875
vt 0.2990734375 0.32056874999999996
vt 0.4707296875 0.559175
vt 0.441734375 0.562459375
vt 0.441734375 0.5670078125
vt 0.4707296875 0.57598125
vt 0.15304427871731002 0.1875
vt 0.125 0.19910813065653177
vt 0.1285519752676465 0.20491186964521912
vt 0.1637023156390093 0.20491186964521912
vt 0.63438203125 0.8974046875
vt 0.6359445312500001 0.90625
vt 0.65158046875 0.90625
vt 0.65314296875 0.8974046875
vt 0.6103683132608464 0.71875
vt 0.6193191867391535 0.7179866847910921
vt 0.6192309938695547 0.7008697244906208
vt 0.6002319503190788 0.6923096871265124
vt 0.84999453125 0.984375
vt 0.85155703125 1
vt 0.86719296875 1
vt 0.86875546875 0.984375
vt 0.625 0.1566279263973791
vt 0.609375 0.17151015188539342
vt 0.615484244239836 0.1875
vt 0.625 0.184987904395445
vt 0.15595978617192705 0.16761549480638327
vt 0.14393254736400932 0.1480780013218721
vt 0.14091521382807295 0.1489322860149458
vt 0.14091521382807295 0.171875
vt 0.703125 0.1875
vt 0.703125 0.16455839082277302
vt 0.6964703639954437 0.16134220268705834
vt 0.6875 0.17558073713573952
vt 0.86719296875 0.59375
vt 0.86094296875 0.578125
vt 0.85780703125 0.578125
vt 0.85155703125 0.59375
vt 0.8474557371357395 0.45646467213775654
vt 0.8332172026870583 0.46543503613320014
vt 0.836433390822773 0.46875
vt 0.859375 0.46875
vn -1 0 0
vn 1 0 0
vn 0 1 0
vn 0 -1 0
vn 0 -0.3579614431451288 0.9337363681583025
vn 0 0 -1
vn 1 0 0
vn 0 -1 0
vn -1 0 0
vn 0 1 0
vn 0.15121294993430773 -0.9885012108096605 0
vn 0.32391977293545504 0 0.9460845526174937
vn 0.1512129499343077 0.9885012108096604 0
vn -0.03510276349260961 -0.22947190852558777 -0.9726820853664401
vn 0.15121294993430767 0.9885012108096604 0
vn 0.16873504110126772 0 -0.9856614458852256
vn 0.15121294993430773 -0.9885012108096605 0
vn -0.04408775952857143 -0.2293901555682998 0.972335552156817
vn -0.09490938164478169 -0.9954859161614519 0
vn 0.11306215409491126 0 0.993587917253133
vn 0.4847738436373117 0.8746395374810744 0
vn 0.27027179748174524 -0.22106813935992153 -0.9370603146254403
vn 0.4847738436373118 0.8746395374810741 0
vn 0.11306215409491126 0 -0.993587917253133
vn -0.09490938164478166 -0.9954859161614519 0
vn 0.27027179748174507 -0.22106813935992187 0.9370603146254403
vn 0 0.9967124651287533 -0.08102013241759157
vn -0.9846587785717802 0 -0.17449094469779797
vn 0 -0.9097521785592512 -0.4151517476859473
vn 0.9966262471785897 0 -0.08207389009131294
vn 0 0.6900790392945382 -0.7237340115859744
vn -0.92515992232894 0 -0.3795775521765081
vn 0 -0.9749363912845184 0.22248378131702226
vn 0.92515992232894 0 -0.3795775521765083
usemtl m_efc487d7-ee4e-4cca-c257-0fbcc26fed3c
f 11/1/1 12/2/1 2/3/1 4/4/1
f 24/5/2 25/6/2 23/7/2 26/8/2
f 12/9/3 9/10/3 6/11/3 2/12/3
f 10/13/4 11/14/4 4/15/4 8/16/4
f 5/17/5 1/18/5 3/19/5 7/20/5
f 36/21/6 35/22/6 37/23/6 38/24/6
f 29/25/7 28/26/7 27/27/7 30/28/7
f 11/29/8 10/30/8 7/31/8 3/32/8
f 12/33/9 11/34/9 3/35/9 1/36/9
f 9/37/10 12/38/10 1/39/10 5/40/10
f 8/41/11 17/42/11 14/43/11 10/44/11
f 10/45/12 14/46/12 13/47/12 9/48/12
f 9/49/13 13/50/13 18/51/13 6/52/13
f 6/53/14 18/54/14 17/55/14 8/56/14
f 5/57/15 19/58/15 20/59/15 9/60/15
f 9/61/16 20/62/16 21/63/16 10/64/16
f 10/65/17 21/66/17 22/67/17 7/68/17
f 7/69/18 22/70/18 19/71/18 5/72/18
f 17/73/19 23/74/19 25/75/19 14/76/19
f 14/77/20 25/78/20 24/79/20 13/80/20
f 13/81/21 24/82/21 26/83/21 18/84/21
f 18/85/22 26/86/22 23/87/22 17/88/22
f 19/89/23 27/90/23 28/91/23 20/92/23
f 20/93/24 28/94/24 29/95/24 21/96/24
f 21/97/25 29/98/25 30/99/25 22/100/25
f 22/101/26 30/102/26 27/103/26 19/104/26
f 6/105/27 33/106/27 31/107/27 2/108/27
f 2/109/28 31/110/28 32/111/28 4/112/28
f 4/113/29 32/114/29 34/115/29 8/116/29
f 8/117/30 34/118/30 33/119/30 6/120/30
f 33/121/31 37/122/31 35/123/31 31/124/31
f 31/125/32 35/126/32 36/127/32 32/128/32
f 32/129/33 36/130/33 38/131/33 34/132/33
f 34/133/34 38/134/34 37/135/34 33/136/34
o Forearm
v 0.6187499999999997 1.1437500000000007 -0.10937500000000204
v 0.6187500000000004 1.1437500000000007 0.10937499999999802
v 0.6187499999999996 0.9562499999999998 -0.10937500000000201
v 0.6187500000000002 0.9562499999999998 0.10937499999999804
v 0.33749999999999974 1.1125000000000003 -0.1093750000000012
v 0.3375000000000004 1.1125000000000003 0.10937499999999886
v 0.33749999999999974 0.9562499999999998 -0.10937500000000118
v 0.3375000000000004 0.9562499999999998 0.10937499999999888
v 0.6187499999999996 1.0500000000000003 -0.10937500000000203
v 0.33749999999999974 1.034375 -0.1093750000000012
v 0.3375000000000004 1.034375 0.10937499999999886
v 0.6187500000000002 1.0500000000000003 0.10937499999999803
v 0.7249999999999996 1.0875000000000004 -0.07500000000000234
v 0.725 1.0500000000000003 0.07499999999999772
v 0.7249999999999995 1.0500000000000003 -0.07500000000000233
v 0.7250000000000001 1.0875000000000004 0.07499999999999771
v 0.6187499999999999 1.1437500000000007 -0.036458333333335376
v 0.33749999999999997 1.1125000000000003 -0.03645833333333454
v 0.6187500000000001 1.1437500000000007 0.03645833333333131
v 0.3375000000000002 1.1125000000000003 0.03645833333333214
v 0.33749999999999997 1.034375 -0.03645833333333453
v 0.3375000000000002 1.034375 0.036458333333332156
v 0.33749999999999997 0.9562499999999998 -0.03645833333333452
v 0.3375000000000002 0.9562499999999998 0.03645833333333216
v 0.6187499999999998 0.9562499999999998 -0.036458333333335355
v 0.61875 0.9562499999999998 0.03645833333333133
v 0.6187499999999998 1.0500000000000003 -0.03645833333333537
v 0.61875 1.0500000000000003 0.036458333333331316
v 0.7249999999999996 1.0500000000000003 -0.025000000000002333
v 0.7249999999999999 1.0500000000000003 0.024999999999997677
v 0.7249999999999998 1.0875000000000004 -0.025000000000002336
v 0.725 1.0875000000000004 0.024999999999997673
v 0.3305980296203224 1.1746177334171015 0.10937499999999888
v 0.6118480296203221 1.205867733417102 0.03645833333333132
v 0.3305980296203222 1.1746177334171015 0.036458333333332156
v 0.6118480296203224 1.205867733417102 0.10937499999999803
v 0.6118480296203219 1.205867733417102 -0.03645833333333536
v 0.6118480296203221 1.205867733417102 0.03645833333333132
v 0.3305980296203222 1.1746177334171015 0.036458333333332156
v 0.330598029620322 1.1746177334171015 -0.03645833333333453
v 0.6118480296203217 1.205867733417102 -0.10937500000000203
v 0.6118480296203219 1.205867733417102 -0.03645833333333536
v 0.330598029620322 1.1746177334171015 -0.03645833333333453
v 0.33059802962032175 1.1746177334171015 -0.10937500000000118
v 0.9302157630374229 1.2252697037967801 0.08437499999999779
v 0.9302157630374229 1.2252697037967801 0.06145833333333116
v 0.9871177334171007 1.1944019703796787 0.061458333333331165
v 0.9871177334171007 1.1944019703796787 0.08437499999999773
v 0.9302157630374227 1.2252697037967801 0.011458333333331124
v 0.9302157630374227 1.2252697037967801 -0.011458333333335555
v 0.9871177334171005 1.1944019703796787 -0.011458333333335567
v 0.9871177334171005 1.1944019703796787 0.011458333333331112
v 0.9302157630374225 1.2252697037967801 -0.06145833333333552
v 0.9302157630374225 1.2252697037967801 -0.08437500000000227
v 0.9871177334171003 1.1944019703796787 -0.08437500000000232
v 0.9871177334171003 1.1944019703796787 -0.061458333333335516
v 0.2809802962032211 1.1489657630374235 0.055208333333332346
v 0.28098029620322124 1.1489657630374235 0.09062499999999905
v 0.2753822665828992 1.1243480296203223 0.09062499999999904
v 0.2753822665828991 1.1243480296203223 0.05520833333333233
v 0.28098029620322085 1.1489657630374235 -0.017708333333334336
v 0.28098029620322096 1.1489657630374235 0.017708333333332344
v 0.27538226658289894 1.1243480296203223 0.017708333333332323
v 0.2753822665828988 1.1243480296203223 -0.017708333333334356
v 0.2809802962032206 1.1489657630374235 -0.090625000000001
v 0.28098029620322074 1.1489657630374235 -0.055208333333334345
v 0.2753822665828987 1.1243480296203223 -0.05520833333333436
v 0.2753822665828986 1.1243480296203223 -0.09062500000000101
vt 0.8578125 0.615625
vt 0.8578125 0.625
vt 0.8703125 0.625
vt 0.8703125 0.615625
vt 0.5533859375 0.609375
vt 0.5533859375 0.58984375
vt 0.53515625 0.58984375
vt 0.53515625 0.609375
vt 0.24348984375 0.435884375
vt 0.24348984375 0.365140625
vt 0.22526015625 0.365140625
vt 0.22526015625 0.435884375
vt 0.39453125 0.9557296875
vt 0.46484375 0.9557296875
vt 0.46484375 0.9375
vt 0.39453125 0.9375
vt 0.07580714270909977 0.8624410131336298
vt 0.005494642709099773 0.8585347631336298
vt 0.005494642709099773 0.8780660131336298
vt 0.07580714270909977 0.8858785131336298
vt 0.16637760602444998 0.9521378976106882
vt 0.09606510602444998 0.9560441476106882
vt 0.09606510602444998 0.9794816476106882
vt 0.16637760602444998 0.9716691476106882
vt 0.005494642709099773 0.8585347631336298
vt 0.07580714270909977 0.8624410131336298
vt 0.07580714270909977 0.8390035131336298
vt 0.005494642709099773 0.8390035131336298
vt 0.5533859375 0.58984375
vt 0.5533859375 0.5703125
vt 0.53515625 0.5703125
vt 0.53515625 0.58984375
vt 0.09606510602444998 0.9560441476106882
vt 0.16637760602444998 0.9521378976106882
vt 0.16637760602444998 0.9326066476106882
vt 0.09606510602444998 0.9326066476106882
vt 0.5091140625 0.3203125
vt 0.5091140625 0.34375
vt 0.52734375 0.34375
vt 0.52734375 0.3203125
vt 0.703125 0.546875
vt 0.734375 0.5328125
vt 0.734375 0.515625
vt 0.703125 0.515625
vt 0.14296875 0.3151046875
vt 0.16953125 0.31796875
vt 0.16953125 0.30546874999999996
vt 0.14296875 0.296875
vt 0.640625 0.265625
vt 0.609375 0.265625
vt 0.609375 0.2828125
vt 0.640625 0.296875
vt 0.63125 0.46994375
vt 0.6341140625 0.5
vt 0.65234375 0.5
vt 0.64375 0.46994375
vt 0.27213515625 0.365140625
vt 0.27213515625 0.435884375
vt 0.29036484375 0.435884375
vt 0.29036484375 0.365140625
vt 0.4440109375 0.365140625
vt 0.4440109375 0.435884375
vt 0.4622390625 0.435884375
vt 0.4622390625 0.365140625
vt 0.5716140625 0.58984375
vt 0.5716140625 0.609375
vt 0.58984375 0.609375
vt 0.58984375 0.58984375
vt 0.5533859375 0.58984375
vt 0.5533859375 0.609375
vt 0.5716140625 0.609375
vt 0.5716140625 0.58984375
vt 0.5716140625 0.5703125
vt 0.5716140625 0.58984375
vt 0.58984375 0.58984375
vt 0.58984375 0.5703125
vt 0.5533859375 0.5703125
vt 0.5533859375 0.58984375
vt 0.5716140625 0.58984375
vt 0.5716140625 0.5703125
vt 0.46484375 0.9739578125
vt 0.39453125 0.9739578125
vt 0.39453125 0.9921875
vt 0.46484375 0.9921875
vt 0.46484375 0.9557296875
vt 0.39453125 0.9557296875
vt 0.39453125 0.9739578125
vt 0.46484375 0.9739578125
vt 0.4908859375 0.34375
vt 0.4908859375 0.3203125
vt 0.47265625 0.3203125
vt 0.47265625 0.34375
vt 0.5091140625 0.34375
vt 0.5091140625 0.3203125
vt 0.4908859375 0.3203125
vt 0.4908859375 0.34375
vt 0.16953125 0.33046875
vt 0.14296875 0.3333328125
vt 0.14296875 0.3515625
vt 0.16953125 0.34296875000000004
vt 0.16953125 0.31796875
vt 0.14296875 0.3151046875
vt 0.14296875 0.3333328125
vt 0.16953125 0.33046875
vt 0.8453125 0.625
vt 0.8453125 0.615625
vt 0.8328125 0.615625
vt 0.8328125 0.625
vt 0.8578125 0.625
vt 0.8578125 0.615625
vt 0.8453125 0.615625
vt 0.8453125 0.625
vt 0.6158859375 0.5
vt 0.61875 0.46994375
vt 0.60625 0.46994375
vt 0.59765625 0.5
vt 0.6341140625 0.5
vt 0.63125 0.46994375
vt 0.61875 0.46994375
vt 0.6158859375 0.5
vt 0.84375 0.3125
vt 0.84375 0.328125
vt 0.859375 0.328125
vt 0.859375 0.3125
vt 0.3336196427090998 0.5968160131336296
vt 0.33189464270909974 0.6123457006336297
vt 0.40220714270909974 0.6201582006336297
vt 0.4039321427090998 0.6046285131336296
vt 0.8125 0.140625
vt 0.8125 0.15625
vt 0.828125 0.15625
vt 0.828125 0.140625
vt 0.09606510602444998 0.9794816476106882
vt 0.09779010602444999 0.9950113351106882
vt 0.16810260602444999 0.9871988351106882
vt 0.16637760602444998 0.9716691476106882
vt 0.84375 0.140625
vt 0.84375 0.15625
vt 0.859375 0.15625
vt 0.859375 0.140625
vt 0.42419009060443197 0.7451075356399013
vt 0.425915090604432 0.7606372231399013
vt 0.496227590604432 0.7528247231399013
vt 0.49450259060443197 0.7372950356399013
vt 0.75 0.140625
vt 0.75 0.15625
vt 0.765625 0.15625
vt 0.765625 0.140625
vt 0.005494495375637953 0.6280580206135296
vt 0.003769495375637949 0.6435877081135295
vt 0.07408199537563795 0.6514002081135295
vt 0.07580699537563795 0.6358705206135296
vt 0.859375 0.953125
vt 0.859375 0.96875
vt 0.875 0.96875
vt 0.875 0.953125
vt 0.4241893244800246 0.7919816470217262
vt 0.42591432448002464 0.8075113345217263
vt 0.49622682448002464 0.7996988345217263
vt 0.4945018244800246 0.7841691470217262
vt 0.78125 0.140625
vt 0.78125 0.15625
vt 0.796875 0.15625
vt 0.796875 0.140625
vt 0.005494642709099773 0.8780660131336298
vt 0.0037696427090997686 0.8935957006336297
vt 0.07408214270909977 0.9014082006336297
vt 0.07580714270909977 0.8858785131336298
vt 0.22526015625 0.435884375
vt 0.23151015625 0.515625
vt 0.23723984375 0.515625
vt 0.24348984375 0.435884375
vt 0.40220714270909974 0.6201582006336297
vt 0.48204449376377256 0.625
vt 0.49623035729090026 0.6172100728217246
vt 0.4039195895740792 0.6047415254605948
vt 0.593848974526941 0.6588136228536341
vt 0.6870166588642966 0.6588136228536341
vt 0.687401025473059 0.653096842189858
vt 0.5950718829601102 0.640625
vt 0.09607249701216825 0.9795481865843584
vt 0.0037723939755500147 0.9922399587998025
vt 0.017974157449377887 1
vt 0.09779010602444999 0.9950113351106882
vt 0.4440109375 0.435884375
vt 0.4502609375 0.515625
vt 0.4559890625 0.515625
vt 0.4622390625 0.435884375
vt 0.07408199537563795 0.6514002081135295
vt 0.15391886131606158 0.65625
vt 0.16810550462436205 0.6484614930123818
vt 0.07579442310083462 0.6359837052505499
vt 0.5938490269358049 0.5338120638733603
vt 0.6870167112731607 0.5338120638733603
vt 0.6874009730641951 0.528096842189858
vt 0.5950718305512461 0.515625
vt 0.4241976530282541 0.7451756180043649
vt 0.331897409395568 0.7578648007920566
vt 0.34609908653062316 0.765625
vt 0.425915090604432 0.7606372231399013
vt 0.27213515625 0.435884375
vt 0.27838515625 0.515625
vt 0.28411484375 0.515625
vt 0.29036484375 0.435884375
vt 0.07408214270909977 0.9014082006336297
vt 0.1539194937637726 0.90625
vt 0.16810535729090023 0.8984600728217246
vt 0.0757945895740792 0.8859915254605948
vt 0.5938489745269409 0.7838136228536341
vt 0.6870166588642966 0.7838136228536341
vt 0.6874010254730591 0.778096842189858
vt 0.5950718829601102 0.765625
vt 0.42419671546774285 0.7920481859953965
vt 0.33189817551997536 0.8047383962999135
vt 0.34609993840484155 0.8125
vt 0.42591432448002464 0.8075113345217263
vt 0.86848984375 0.8125
vt 0.86380234375 0.796875
vt 0.85494765625 0.796875
vt 0.85026015625 0.8125
vt 0.8796913442231962 0.671875
vt 0.890625 0.6628734458382994
vt 0.890625 0.6565613801818315
vt 0.875 0.6571149516872101
vt 0.85026015625 0.828125
vt 0.85494765625 0.84375
vt 0.86380234375 0.84375
vt 0.86848984375 0.828125
vt 0.40680400952743045 0.13976983578051094
vt 0.40625 0.15625
vt 0.4125618828983637 0.15625
vt 0.421565214320679 0.14468281877452094
vt 0.8684890625 0.703125
vt 0.8638015625 0.6875
vt 0.8549484375 0.6875
vt 0.8502609375 0.703125
vt 0.8796916625464605 0.78125
vt 0.890625 0.7722469161074246
vt 0.890625 0.7659348504509567
vt 0.875 0.7664884219563353
vt 0.8502609375 0.71875
vt 0.8549484375 0.734375
vt 0.8638015625 0.734375
vt 0.8684890625 0.71875
vt 0.5630533515982121 0.13976953228306577
vt 0.5625 0.15625
vt 0.5688103562263255 0.15625
vt 0.5778142973881322 0.14468329339190067
vt 0.19661484375 0.15625
vt 0.19192734375 0.140625
vt 0.18307265625 0.140625
vt 0.17838515625 0.15625
vt 0.22344676935443392 0.125
vt 0.234375 0.11599440970024122
vt 0.234375 0.10968202553515316
vt 0.21875 0.11023987805211599
vt 0.85026015625 0.859375
vt 0.85494765625 0.875
vt 0.86380234375 0.875
vt 0.86848984375 0.859375
vt 0.37555733848807304 0.1397696666304996
vt 0.375 0.15625
vt 0.3813106891353703 0.15625
vt 0.39031709512349116 0.14468699851993772
vn 1 -1.224646799147357e-16 -2.9629076969683865e-15
vn -1 1.224646799147357e-16 2.9629076969683865e-15
vn -0.11043152607484805 0.9938837346736189 2.054827651558659e-16
vn -1.224646799147353e-16 -1 1.224646799147357e-16
vn -2.9629076969683865e-15 -1.224646799147353e-16 -1
vn 2.9629076969683865e-15 1.224646799147353e-16 1
vn -2.9629076969683865e-15 -1.224646799147353e-16 -1
vn -1 1.224646799147357e-16 2.9629076969683865e-15
vn 2.9629076969683865e-15 1.224646799147353e-16 1
vn 1 -1.224646799147357e-16 -2.9629076969683865e-15
vn 0.30782028541466017 -1.542154611459647e-16 -0.9514445185544124
vn -1.224646799147353e-16 -1 1.224646799147357e-16
vn 0.3078202854146658 7.882123569682612e-17 0.9514445185544104
vn 0.46788772041903565 0.8837879163470602 -1.4945409324345068e-15
vn -0.11043152607484803 0.9938837346736188 2.0548276515586583e-16
vn -0.11043152607484805 0.9938837346736189 2.054827651558659e-16
vn -1 1.224646799147357e-16 2.9629076969683865e-15
vn -1 1.224646799147357e-16 2.9629076969683865e-15
vn -1 1.224646799147357e-16 2.9629076969683865e-15
vn -1 1.224646799147357e-16 2.9629076969683865e-15
vn -1.224646799147353e-16 -1 1.224646799147357e-16
vn -1.224646799147353e-16 -1 1.224646799147357e-16
vn 1 -1.224646799147357e-16 -2.9629076969683865e-15
vn 1 -1.224646799147357e-16 -2.9629076969683865e-15
vn -1.224646799147353e-16 -1 1.224646799147357e-16
vn -1.224646799147353e-16 -1 1.224646799147357e-16
vn 1 -1.224646799147357e-16 -2.9629076969683865e-15
vn 1 -1.224646799147357e-16 -2.9629076969683865e-15
vn 0.46788772041903576 0.8837879163470602 -1.494540932434507e-15
vn 0.4678877204190358 0.8837879163470603 -1.4945409324345074e-15
vn -0.9751063963610821 0.22173749294087475 2.8619952360432564e-15
vn -2.9629076969683865e-15 -1.224646799147353e-16 -1
vn 0.47683045246634614 0.8789952898626588 -1.5204504945810458e-15
vn 2.9629076969683865e-15 1.224646799147353e-16 1
vn 0.47683045246634614 0.8789952898626588 -1.5204504945810458e-15
vn 2.9629076969683865e-15 1.224646799147353e-16 1
vn -0.9751063963610821 0.2217374929408747 2.8619952360432564e-15
vn -2.9629076969683865e-15 -1.224646799147353e-16 -1
vn 0.47683045246634614 0.8789952898626588 -1.5204504945810458e-15
vn 2.9629076969683865e-15 1.224646799147353e-16 1
vn -0.975106396361082 0.22173749294087472 2.861995236043256e-15
vn -2.9629076969683865e-15 -1.224646799147353e-16 -1
vn -0.060829159567602285 0.9981481920768575 5.799328623280286e-17
vn 0.06983364386236954 0.12873222276696245 -0.9892175074301813
vn 0.13622205430505202 -0.9906783291870837 -2.8229026871492315e-16
vn 0.053797303080140454 0.09917062924602954 0.9936151349875112
vn -0.0608291595676023 0.9981481920768575 5.799328623280291e-17
vn 0.06983364386236943 0.12873222276696275 -0.9892175074301813
vn 0.13622205430505196 -0.9906783291870837 -2.82290268714923e-16
vn 0.05379730308014013 0.09917062924603035 0.9936151349875112
vn -0.06082915956760229 0.9981481920768575 5.799328623280289e-17
vn 0.06983364386236919 0.1287322227669637 -0.9892175074301812
vn 0.13622205430505196 -0.9906783291870835 -2.8229026871492295e-16
vn 0.053797303080139934 0.09917062924603047 0.9936151349875112
vn -0.45924812954650546 0.8883080296316341 1.2519234593371484e-15
vn -0.39208904900017666 0.08916036553479435 0.9155963121768453
vn -0.18735748484221645 -0.9822917961958141 6.754189843276318e-16
vn -0.2773495290643403 0.06306879892549351 -0.9586968057367692
vn -0.459248129546505 0.8883080296316342 1.2519234593371472e-15
vn -0.39208904900017627 0.08916036553479452 0.9155963121768453
vn -0.18735748484221626 -0.9822917961958141 6.754189843276312e-16
vn -0.27734952906434 0.06306879892549357 -0.9586968057367692
vn -0.45924812954650507 0.8883080296316345 1.2519234593371472e-15
vn -0.39208904900017644 0.08916036553479452 0.9155963121768455
vn -0.18735748484221626 -0.9822917961958141 6.754189843276312e-16
vn -0.2773495290643399 0.0630687989254937 -0.9586968057367692
usemtl m_efc487d7-ee4e-4cca-c257-0fbcc26fed3c
f 68/137/35 70/138/35 54/139/35 52/140/35
f 58/141/36 60/142/36 49/143/36 44/144/36
f 72/145/37 73/146/37 71/147/37 74/148/37
f 62/149/38 64/150/38 42/151/38 46/152/38
f 47/153/39 48/154/39 43/155/39 39/156/39
f 49/157/40 50/158/40 40/159/40 44/160/40
f 48/161/41 47/162/41 41/163/41 45/164/41
f 60/165/42 62/166/42 46/167/42 49/168/42
f 50/169/43 49/170/43 46/171/43 42/172/43
f 64/173/44 66/174/44 50/175/44 42/176/44
f 39/177/45 51/178/45 53/179/45 47/180/45
f 66/181/46 68/182/46 52/183/46 50/184/46
f 50/185/47 52/186/47 54/187/47 40/188/47
f 70/189/48 57/190/48 40/191/48 54/192/48
f 81/193/49 80/194/49 79/195/49 82/196/49
f 77/197/50 76/198/50 75/199/50 78/200/50
f 59/201/51 56/202/51 43/203/51 48/204/51
f 60/205/52 58/206/52 56/207/52 59/208/52
f 61/209/53 59/210/53 48/211/53 45/212/53
f 62/213/54 60/214/54 59/215/54 61/216/54
f 63/217/55 61/218/55 45/219/55 41/220/55
f 64/221/56 62/222/56 61/223/56 63/224/56
f 65/225/57 63/226/57 41/227/57 47/228/57
f 66/229/58 64/230/58 63/231/58 65/232/58
f 67/233/59 65/234/59 47/235/59 53/236/59
f 68/237/60 66/238/60 65/239/60 67/240/60
f 69/241/61 67/242/61 53/243/61 51/244/61
f 70/245/62 68/246/62 67/247/62 69/248/62
f 55/249/63 69/250/63 51/251/63 39/252/63
f 57/253/64 70/254/64 69/255/64 55/256/64
f 97/257/65 96/258/65 95/259/65 98/260/65
f 58/261/66 73/262/66 72/263/66 57/264/66
f 85/265/67 84/266/67 83/267/67 86/268/67
f 40/269/68 74/270/68 71/271/68 44/272/68
f 89/273/69 88/274/69 87/275/69 90/276/69
f 57/277/70 76/278/70 77/279/70 58/280/70
f 101/281/71 100/282/71 99/283/71 102/284/71
f 56/285/72 78/286/72 75/287/72 55/288/72
f 93/289/73 92/290/73 91/291/73 94/292/73
f 55/293/74 80/294/74 81/295/74 56/296/74
f 105/297/75 104/298/75 103/299/75 106/300/75
f 43/301/76 82/302/76 79/303/76 39/304/76
f 74/305/77 83/306/77 84/307/77 72/308/77
f 72/309/78 84/310/78 85/311/78 57/312/78
f 57/313/79 85/314/79 86/315/79 40/316/79
f 40/317/80 86/318/80 83/319/80 74/320/80
f 76/321/81 87/322/81 88/323/81 75/324/81
f 75/325/82 88/326/82 89/327/82 55/328/82
f 55/329/83 89/330/83 90/331/83 57/332/83
f 57/333/84 90/334/84 87/335/84 76/336/84
f 80/337/85 91/338/85 92/339/85 79/340/85
f 79/341/86 92/342/86 93/343/86 39/344/86
f 39/345/87 93/346/87 94/347/87 55/348/87
f 55/349/88 94/350/88 91/351/88 80/352/88
f 73/353/89 95/354/89 96/355/89 71/356/89
f 71/357/90 96/358/90 97/359/90 44/360/90
f 44/361/91 97/362/91 98/363/91 58/364/91
f 58/365/92 98/366/92 95/367/92 73/368/92
f 78/369/93 99/370/93 100/371/93 77/372/93
f 77/373/94 100/374/94 101/375/94 58/376/94
f 58/377/95 101/378/95 102/379/95 56/380/95
f 56/381/96 102/382/96 99/383/96 78/384/96
f 82/385/97 103/386/97 104/387/97 81/388/97
f 81/389/98 104/390/98 105/391/98 56/392/98
f 56/393/99 105/394/99 106/395/99 43/396/99
f 43/397/100 106/398/100 103/399/100 82/400/100
o Arm
v 0.3343749999999953 1.0156250000000016 5.389023147467818e-16
v 0.15937499999999533 1.0156250000000009 8.772126480466929e-16
v 0.3343749999999951 1.0487682628834882 -0.05624999999999942
v 0.15937499999999508 1.0487682628834876 -0.05624999999999908
v 0.33437499999999504 1.0718750000000012 -0.037362012883486
v 0.15937499999999502 1.0718750000000006 -0.03736201288348566
v 0.33437499999999515 1.0718750000000012 0.037362012883487165
v 0.1593749999999952 1.0718750000000006 0.037362012883487505
v 0.3343749999999953 1.0487682628834882 0.056250000000000556
v 0.1593749999999953 1.0487682628834876 0.056250000000000897
v 0.33437499999999554 0.9824817371165149 0.056250000000000494
v 0.15937499999999558 0.9824817371165142 0.056250000000000834
v 0.3343749999999956 0.9593750000000019 0.0373620128834871
v 0.15937499999999563 0.9593750000000012 0.03736201288348744
v 0.3343749999999955 0.9593750000000019 -0.03736201288348612
v 0.15937499999999546 0.9593750000000012 -0.03736201288348578
v 0.3343749999999953 0.9824817371165149 -0.05624999999999947
v 0.15937499999999535 0.9824817371165142 -0.05624999999999913
v 0.3177083333333285 1.0487682628834882 -0.056249999999999384
v 0.3177083333333287 0.9824817371165149 -0.05624999999999944
v 0.29466911764705395 1.048768262883488 -0.056249999999999335
v 0.29466911764705417 0.9824817371165147 -0.05624999999999939
v 0.3177083333333289 0.9593750000000019 -0.03736201288348608
v 0.29466911764705433 0.9593750000000016 -0.03736201288348604
v 0.317708333333329 0.9593750000000019 0.03736201288348714
v 0.29466911764705445 0.9593750000000016 0.03736201288348718
v 0.31770833333332893 0.9824817371165149 0.05625000000000052
v 0.2946691176470544 0.9824817371165147 0.05625000000000057
v 0.3177083333333287 1.0487682628834882 0.05625000000000059
v 0.29466911764705417 1.048768262883488 0.05625000000000064
v 0.31770833333332854 1.0718750000000012 0.03736201288348719
v 0.294669117647054 1.071875000000001 0.03736201288348724
v 0.31770833333332843 1.0718750000000012 -0.03736201288348597
v 0.2946691176470539 1.071875000000001 -0.03736201288348592
vt 0.36766093749999995 0.24687499999999996
vt 0.3734375 0.24215312499999997
vt 0.359375 0.23281249999999998
vt 0.84375 0.35680156250000006
vt 0.8362875 0.35680156250000006
vt 0.8362875 0.390625
vt 0.84375 0.390625
vt 0.7796875 0.539096875
vt 0.7739109375 0.534375
vt 0.765625 0.5484375
vt 0.3734375 0.24215312499999997
vt 0.3734375 0.223471875
vt 0.359375 0.23281249999999998
vt 0.165590625 0.24742656250000006
vt 0.146909375 0.24742656250000006
vt 0.146909375 0.28125
vt 0.165590625 0.28125
vt 0.7796875 0.557778125
vt 0.7796875 0.539096875
vt 0.765625 0.5484375
vt 0.3734375 0.223471875
vt 0.36766093749999995 0.21875
vt 0.359375 0.23281249999999998
vt 0.5387125 0.13805156250000006
vt 0.53125 0.13805156250000006
vt 0.53125 0.171875
vt 0.5387125 0.171875
vt 0.7739109375 0.5625
vt 0.7796875 0.557778125
vt 0.765625 0.5484375
vt 0.36766093749999995 0.21875
vt 0.35108906250000005 0.21875
vt 0.359375 0.23281249999999998
vt 0.10203593749999998 0.20055156250000006
vt 0.08546406250000002 0.20055156250000006
vt 0.08546406250000002 0.234375
vt 0.10203593749999998 0.234375
vt 0.7573390625 0.5625
vt 0.7739109375 0.5625
vt 0.765625 0.5484375
vt 0.35108906250000005 0.21875
vt 0.3453125 0.223471875
vt 0.359375 0.23281249999999998
vt 0.734375 0.13805156250000006
vt 0.7269140625 0.13805156250000006
vt 0.7269140625 0.171875
vt 0.734375 0.171875
vt 0.7515625 0.557778125
vt 0.7573390625 0.5625
vt 0.765625 0.5484375
vt 0.3453125 0.223471875
vt 0.3453125 0.24215312499999997
vt 0.359375 0.23281249999999998
vt 0.446840625 0.23180156250000006
vt 0.428159375 0.23180156250000006
vt 0.428159375 0.265625
vt 0.446840625 0.265625
vt 0.7515625 0.539096875
vt 0.7515625 0.557778125
vt 0.765625 0.5484375
vt 0.3453125 0.24215312499999997
vt 0.35108906250000005 0.24687499999999996
vt 0.359375 0.23281249999999998
vt 0.8355859375 0.26305156250000006
vt 0.828125 0.26305156250000006
vt 0.828125 0.296875
vt 0.8355859375 0.296875
vt 0.7573390625 0.534375
vt 0.7515625 0.539096875
vt 0.765625 0.5484375
vt 0.35108906250000005 0.24687499999999996
vt 0.36766093749999995 0.24687499999999996
vt 0.359375 0.23281249999999998
vt 0.7895359375 0.6849265625000001
vt 0.7729640625 0.6849265625000001
vt 0.7729640625 0.71875
vt 0.7895359375 0.71875
vt 0.7739109375 0.534375
vt 0.7573390625 0.534375
vt 0.765625 0.5484375
vt 0.7729640625 0.6791671875
vt 0.7895359375 0.6791671875
vt 0.7895359375 0.675
vt 0.7729640625 0.675
vt 0.7729640625 0.6849265625000001
vt 0.7895359375 0.6849265625000001
vt 0.7895359375 0.6791671875
vt 0.7729640625 0.6791671875
vt 0.828125 0.25729218750000005
vt 0.8355859375 0.25729218750000005
vt 0.8355859375 0.25312500000000004
vt 0.828125 0.25312500000000004
vt 0.828125 0.26305156250000006
vt 0.8355859375 0.26305156250000006
vt 0.8355859375 0.25729218750000005
vt 0.828125 0.25729218750000005
vt 0.428159375 0.22604218750000005
vt 0.446840625 0.22604218750000005
vt 0.446840625 0.22187500000000004
vt 0.428159375 0.22187500000000004
vt 0.428159375 0.23180156250000006
vt 0.446840625 0.23180156250000006
vt 0.446840625 0.22604218750000005
vt 0.428159375 0.22604218750000005
vt 0.7269140625 0.13229218750000005
vt 0.734375 0.13229218750000005
vt 0.734375 0.12812500000000004
vt 0.7269140625 0.12812500000000004
vt 0.7269140625 0.13805156250000006
vt 0.734375 0.13805156250000006
vt 0.734375 0.13229218750000005
vt 0.7269140625 0.13229218750000005
vt 0.08546406250000002 0.19479218750000005
vt 0.10203593749999998 0.19479218750000005
vt 0.10203593749999998 0.19062500000000004
vt 0.08546406250000002 0.19062500000000004
vt 0.08546406250000002 0.20055156250000006
vt 0.10203593749999998 0.20055156250000006
vt 0.10203593749999998 0.19479218750000005
vt 0.08546406250000002 0.19479218750000005
vt 0.53125 0.13229218750000005
vt 0.5387125 0.13229218750000005
vt 0.5387125 0.12812500000000004
vt 0.53125 0.12812500000000004
vt 0.53125 0.13805156250000006
vt 0.5387125 0.13805156250000006
vt 0.5387125 0.13229218750000005
vt 0.53125 0.13229218750000005
vt 0.146909375 0.24166718750000005
vt 0.165590625 0.24166718750000005
vt 0.165590625 0.23750000000000004
vt 0.146909375 0.23750000000000004
vt 0.146909375 0.24742656250000006
vt 0.165590625 0.24742656250000006
vt 0.165590625 0.24166718750000005
vt 0.146909375 0.24166718750000005
vt 0.8362875 0.35104218750000005
vt 0.84375 0.35104218750000005
vt 0.84375 0.34687500000000004
vt 0.8362875 0.34687500000000004
vt 0.8362875 0.35680156250000006
vt 0.84375 0.35680156250000006
vt 0.84375 0.35104218750000005
vt 0.8362875 0.35104218750000005
vn 1 3.996802888650565e-15 -1.9332019045709208e-15
vn -4.026292430662373e-15 0.6328859753093352 -0.7742450143570521
vn -1 -3.996802888650565e-15 1.9332019045709208e-15
vn 1 3.996802888650565e-15 -1.9332019045709208e-15
vn -3.996802888650562e-15 1 1.010643099614868e-15
vn -1 -3.996802888650565e-15 1.9332019045709208e-15
vn 1 3.996802888650565e-15 -1.9332019045709208e-15
vn -1.0327485579431824e-15 0.6328859753093342 0.7742450143570528
vn -1 -3.996802888650565e-15 1.9332019045709208e-15
vn 1 3.996802888650565e-15 -1.9332019045709208e-15
vn 1.9332019045709247e-15 -1.0106430996148602e-15 1
vn -1 -3.996802888650565e-15 1.9332019045709208e-15
vn 1 3.996802888650565e-15 -1.9332019045709208e-15
vn 4.026292430662372e-15 -0.6328859753093347 0.7742450143570525
vn -1 -3.996802888650565e-15 1.9332019045709208e-15
vn 1 3.996802888650565e-15 -1.9332019045709208e-15
vn 3.996802888650562e-15 -1 -1.010643099614868e-15
vn -1 -3.996802888650565e-15 1.9332019045709208e-15
vn 1 3.996802888650565e-15 -1.9332019045709208e-15
vn 1.0327485579431777e-15 -0.6328859753093334 -0.7742450143570535
vn -1 -3.996802888650565e-15 1.9332019045709208e-15
vn 1 3.996802888650565e-15 -1.9332019045709208e-15
vn -1.933201904570924e-15 8.012824845088422e-16 -1
vn -1 -3.996802888650565e-15 1.9332019045709208e-15
vn -1.933201904570924e-15 8.012824845088421e-16 -1
vn -1.933201904570924e-15 8.012824845088421e-16 -1
vn 1.0327485579431778e-15 -0.6328859753093334 -0.7742450143570534
vn 1.0327485579431777e-15 -0.6328859753093334 -0.7742450143570535
vn 3.996802888650562e-15 -1 -1.010643099614868e-15
vn 3.996802888650562e-15 -1 -1.010643099614868e-15
vn 4.026292430662372e-15 -0.6328859753093348 0.7742450143570525
vn 4.026292430662372e-15 -0.6328859753093348 0.7742450143570525
vn 1.9332019045709247e-15 -1.0106430996148602e-15 1
vn 1.9332019045709247e-15 -1.0106430996148602e-15 1
vn -1.0327485579431824e-15 0.6328859753093342 0.7742450143570527
vn -1.0327485579431824e-15 0.6328859753093342 0.7742450143570527
vn -3.996802888650562e-15 1 1.010643099614868e-15
vn -3.996802888650562e-15 1 1.010643099614868e-15
vn -4.026292430662373e-15 0.6328859753093352 -0.774245014357052
vn -4.026292430662373e-15 0.6328859753093352 -0.774245014357052
usemtl m_efc487d7-ee4e-4cca-c257-0fbcc26fed3c
f 109/401/101 111/402/101 107/403/101
f 140/404/102 127/405/102 110/406/102 112/407/102
f 112/408/103 110/409/103 108/410/103
f 111/411/104 113/412/104 107/413/104
f 138/414/105 140/415/105 112/416/105 114/417/105
f 114/418/106 112/419/106 108/420/106
f 113/421/107 115/422/107 107/423/107
f 136/424/108 138/425/108 114/426/108 116/427/108
f 116/428/109 114/429/109 108/430/109
f 115/431/110 117/432/110 107/433/110
f 134/434/111 136/435/111 116/436/111 118/437/111
f 118/438/112 116/439/112 108/440/112
f 117/441/113 119/442/113 107/443/113
f 132/444/114 134/445/114 118/446/114 120/447/114
f 120/448/115 118/449/115 108/450/115
f 119/451/116 121/452/116 107/453/116
f 130/454/117 132/455/117 120/456/117 122/457/117
f 122/458/118 120/459/118 108/460/118
f 121/461/119 123/462/119 107/463/119
f 128/464/120 130/465/120 122/466/120 124/467/120
f 124/468/121 122/469/121 108/470/121
f 123/471/122 109/472/122 107/473/122
f 127/474/123 128/475/123 124/476/123 110/477/123
f 110/478/124 124/479/124 108/480/124
f 126/481/125 125/482/125 109/483/125 123/484/125
f 128/485/126 127/486/126 125/487/126 126/488/126
f 129/489/127 126/490/127 123/491/127 121/492/127
f 130/493/128 128/494/128 126/495/128 129/496/128
f 131/497/129 129/498/129 121/499/129 119/500/129
f 132/501/130 130/502/130 129/503/130 131/504/130
f 133/505/131 131/506/131 119/507/131 117/508/131
f 134/509/132 132/510/132 131/511/132 133/512/132
f 135/513/133 133/514/133 117/515/133 115/516/133
f 136/517/134 134/518/134 133/519/134 135/520/134
f 137/521/135 135/522/135 115/523/135 113/524/135
f 138/525/136 136/526/136 135/527/136 137/528/136
f 139/529/137 137/530/137 113/531/137 111/532/137
f 140/533/138 138/534/138 137/535/138 139/536/138
f 125/537/139 139/538/139 111/539/139 109/540/139
f 127/541/140 140/542/140 139/543/140 125/544/140
o cylinder
v 0.16875000052683556 1.0124999982877847 0.06250000000000058
v 0.16875000052683556 1.0124999982877834 -0.06249999999999971
v 0.23750000013863135 1.0309215067162223 0.06250000000000035
v 0.23750000013863135 1.030921506716221 -0.062499999999999924
v 0.21907849248660222 1.0628284923687386 0.06250000000000003
v 0.21907849248660222 1.0628284923687372 -0.06250000000000025
v 0.18717150605767735 1.0812499986759887 0.062499999999999854
v 0.18717150605767735 1.0812499986759874 -0.06250000000000043
v 0.15032849209839794 1.0812499978995804 0.06249999999999987
v 0.15032849209839794 1.081249997899579 -0.06250000000000042
v 0.11842150644588156 1.062828490247551 0.06250000000000007
v 0.11842150644588156 1.0628284902475498 -0.06250000000000021
v 0.10000000013863133 1.0309215038186264 0.06250000000000042
v 0.10000000013863133 1.030921503818625 -0.06249999999999986
v 0.10000000091503974 0.994078489859347 0.06250000000000079
v 0.10000000091503974 0.9940784898593457 -0.06249999999999948
v 0.1184215085670689 0.9621715042068306 0.06250000000000111
v 0.1184215085670689 0.9621715042068293 -0.06249999999999916
v 0.1503284949959938 0.9437499978995804 0.06250000000000129
v 0.1503284949959938 0.943749997899579 -0.06249999999999899
v 0.18717150895527312 0.9437499986759889 0.06250000000000128
v 0.18717150895527312 0.9437499986759875 -0.062499999999999
v 0.21907849460778955 0.962171506328018 0.06250000000000107
v 0.21907849460778955 0.9621715063280166 -0.0624999999999992
v 0.23750000091503978 0.9940784927569428 0.06250000000000072
v 0.23750000091503978 0.9940784927569415 -0.06249999999999954
vt 0.7155421875 0.42500000000000004
vt 0.7235203125 0.42039531249999995
vt 0.7109375 0.4078125
vt 0.296875 0.1875
vt 0.296875 0.15625
vt 0.28125 0.15625
vt 0.28125 0.1875
vt 0.7235203125 0.47022968750000005
vt 0.7155421875 0.46562499999999996
vt 0.7109375 0.4828125
vt 0.7235203125 0.42039531249999995
vt 0.728125 0.4124171875
vt 0.7109375 0.4078125
vt 0.8125 0.296875
vt 0.8125 0.265625
vt 0.796875 0.265625
vt 0.796875 0.296875
vt 0.728125 0.4782078125
vt 0.7235203125 0.47022968750000005
vt 0.7109375 0.4828125
vt 0.728125 0.4124171875
vt 0.728125 0.40320781250000004
vt 0.7109375 0.4078125
vt 0.203125 0.203125
vt 0.203125 0.171875
vt 0.1875 0.171875
vt 0.1875 0.203125
vt 0.728125 0.48741718749999996
vt 0.728125 0.4782078125
vt 0.7109375 0.4828125
vt 0.728125 0.40320781250000004
vt 0.7235203125 0.3952296875
vt 0.7109375 0.4078125
vt 0.828125 1
vt 0.828125 0.96875
vt 0.8125 0.96875
vt 0.8125 1
vt 0.7235203125 0.4953953125
vt 0.728125 0.48741718749999996
vt 0.7109375 0.4828125
vt 0.7235203125 0.3952296875
vt 0.7155421875 0.390625
vt 0.7109375 0.4078125
vt 0.828125 0.71875
vt 0.828125 0.6875
vt 0.8125 0.6875
vt 0.8125 0.71875
vt 0.7155421875 0.5
vt 0.7235203125 0.4953953125
vt 0.7109375 0.4828125
vt 0.7155421875 0.390625
vt 0.7063328125 0.390625
vt 0.7109375 0.4078125
vt 0.4375 0.203125
vt 0.4375 0.171875
vt 0.421875 0.171875
vt 0.421875 0.203125
vt 0.7063328125 0.5
vt 0.7155421875 0.5
vt 0.7109375 0.4828125
vt 0.7063328125 0.390625
vt 0.6983546875 0.3952296875
vt 0.7109375 0.4078125
vt 0.328125 0.1875
vt 0.328125 0.15625
vt 0.3125 0.15625
vt 0.3125 0.1875
vt 0.6983546875 0.4953953125
vt 0.7063328125 0.5
vt 0.7109375 0.4828125
vt 0.6983546875 0.3952296875
vt 0.69375 0.40320781250000004
vt 0.7109375 0.4078125
vt 0.8125 0.5625
vt 0.8125 0.53125
vt 0.796875 0.53125
vt 0.796875 0.5625
vt 0.69375 0.48741718749999996
vt 0.6983546875 0.4953953125
vt 0.7109375 0.4828125
vt 0.69375 0.40320781250000004
vt 0.69375 0.4124171875
vt 0.7109375 0.4078125
vt 0.8125 0.765625
vt 0.8125 0.734375
vt 0.796875 0.734375
vt 0.796875 0.765625
vt 0.69375 0.4782078125
vt 0.69375 0.48741718749999996
vt 0.7109375 0.4828125
vt 0.69375 0.4124171875
vt 0.6983546875 0.42039531249999995
vt 0.7109375 0.4078125
vt 0.8125 0.375
vt 0.8125 0.34375
vt 0.796875 0.34375
vt 0.796875 0.375
vt 0.6983546875 0.47022968750000005
vt 0.69375 0.4782078125
vt 0.7109375 0.4828125
vt 0.6983546875 0.42039531249999995
vt 0.7063328125 0.42500000000000004
vt 0.7109375 0.4078125
vt 0.828125 0.828125
vt 0.828125 0.796875
vt 0.8125 0.796875
vt 0.8125 0.828125
vt 0.7063328125 0.46562499999999996
vt 0.6983546875 0.47022968750000005
vt 0.7109375 0.4828125
vt 0.7063328125 0.42500000000000004
vt 0.7155421875 0.42500000000000004
vt 0.7109375 0.4078125
vt 0.359375 0.203125
vt 0.359375 0.171875
vt 0.34375 0.171875
vt 0.34375 0.203125
vt 0.7155421875 0.46562499999999996
vt 0.7063328125 0.46562499999999996
vt 0.7109375 0.4828125
vn 4.4408899109558276e-16 1.038058528960369e-14 1
vn 0.8660253932477264 0.5000000182501207 -5.329070712713109e-15
vn -4.4408899109558276e-16 -1.038058528960369e-14 -1
vn 4.4408899109558276e-16 1.038058528960369e-14 1
vn 0.4999999817498789 0.8660254143211509 -9.230221006942869e-15
vn -4.4408899109558276e-16 -1.038058528960369e-14 -1
vn 4.4408899109558276e-16 1.038058528960369e-14 1
vn -2.1073424449902227e-8 0.9999999999999998 -1.0658141036401495e-14
vn -4.4408899109558276e-16 -1.038058528960369e-14 -1
vn 4.4408899109558276e-16 1.038058528960369e-14 1
vn -0.5000000182501207 0.8660253932477264 -9.230220782339336e-15
vn -4.4408899109558276e-16 -1.038058528960369e-14 -1
vn 4.4408899109558276e-16 1.038058528960369e-14 1
vn -0.8660254143211507 0.49999998174987914 -5.329070323688387e-15
vn -4.4408899109558276e-16 -1.038058528960369e-14 -1
vn 4.4408899109558276e-16 1.038058528960369e-14 1
vn -0.9999999999999998 -2.1073423363488276e-8 2.246035183278565e-22
vn -4.4408899109558276e-16 -1.038058528960369e-14 -1
vn 4.4408899109558276e-16 1.038058528960369e-14 1
vn -0.8660253932477265 -0.5000000182501205 5.3290707127131075e-15
vn -4.4408899109558276e-16 -1.038058528960369e-14 -1
vn 4.4408899109558276e-16 1.038058528960369e-14 1
vn -0.4999999817498787 -0.866025414321151 9.23022100694287e-15
vn -4.4408899109558276e-16 -1.038058528960369e-14 -1
vn 4.4408899109558276e-16 1.038058528960369e-14 1
vn 2.1073424449902227e-8 -0.9999999999999998 1.0658141036401495e-14
vn -4.4408899109558276e-16 -1.038058528960369e-14 -1
vn 4.4408899109558276e-16 1.038058528960369e-14 1
vn 0.5000000182501203 -0.8660253932477265 9.230220782339339e-15
vn -4.4408899109558276e-16 -1.038058528960369e-14 -1
vn 4.4408899109558276e-16 1.038058528960369e-14 1
vn 0.8660254143211507 -0.499999981749879 5.329070323688386e-15
vn -4.4408899109558276e-16 -1.038058528960369e-14 -1
vn 4.4408899109558276e-16 1.038058528960369e-14 1
vn 0.9999999999999998 2.107342411683532e-8 -2.2460352635713555e-22
vn -4.4408899109558276e-16 -1.038058528960369e-14 -1
usemtl m_efc487d7-ee4e-4cca-c257-0fbcc26fed3c
f 143/545/141 145/546/141 141/547/141
f 146/548/142 145/549/142 143/550/142 144/551/142
f 146/552/143 144/553/143 142/554/143
f 145/555/144 147/556/144 141/557/144
f 148/558/145 147/559/145 145/560/145 146/561/145
f 148/562/146 146/563/146 142/564/146
f 147/565/147 149/566/147 141/567/147
f 150/568/148 149/569/148 147/570/148 148/571/148
f 150/572/149 148/573/149 142/574/149
f 149/575/150 151/576/150 141/577/150
f 152/578/151 151/579/151 149/580/151 150/581/151
f 152/582/152 150/583/152 142/584/152
f 151/585/153 153/586/153 141/587/153
f 154/588/154 153/589/154 151/590/154 152/591/154
f 154/592/155 152/593/155 142/594/155
f 153/595/156 155/596/156 141/597/156
f 156/598/157 155/599/157 153/600/157 154/601/157
f 156/602/158 154/603/158 142/604/158
f 155/605/159 157/606/159 141/607/159
f 158/608/160 157/609/160 155/610/160 156/611/160
f 158/612/161 156/613/161 142/614/161
f 157/615/162 159/616/162 141/617/162
f 160/618/163 159/619/163 157/620/163 158/621/163
f 160/622/164 158/623/164 142/624/164
f 159/625/165 161/626/165 141/627/165
f 162/628/166 161/629/166 159/630/166 160/631/166
f 162/632/167 160/633/167 142/634/167
f 161/635/168 163/636/168 141/637/168
f 164/638/169 163/639/169 161/640/169 162/641/169
f 164/642/170 162/643/170 142/644/170
f 163/645/171 165/646/171 141/647/171
f 166/648/172 165/649/172 163/650/172 164/651/172
f 166/652/173 164/653/173 142/654/173
f 165/655/174 143/656/174 141/657/174
f 144/658/175 143/659/175 165/660/175 166/661/175
f 144/662/176 166/663/176 142/664/176