# Made in Blockbench 5.1.5
mtllib TyranusBody.mtl

o Toe
v -0.2187499999999993 0.07499999999999984 -0.14375000000000077
v -0.21875000000000003 0.09374999999999989 0.012499999999999272
v -0.21874999999999928 0 -0.14375000000000077
v -0.21875 0 0.012499999999999284
v -0.05624999999999939 0.07499999999999984 -0.1437500000000003
v -0.056250000000000105 0.09374999999999989 0.012499999999999754
v -0.056249999999999384 0 -0.14375000000000027
v -0.05625000000000009 0 0.012499999999999767
v -0.21874999999999975 0.09374999999999989 -0.08125000000000063
v -0.21874999999999972 0 -0.08125000000000061
v -0.056249999999999814 0 -0.08125000000000013
v -0.05624999999999983 0.09374999999999989 -0.08125000000000014
v -0.1374999999999994 0.07499999999999984 -0.14375000000000052
v -0.13749999999999937 0 -0.14375000000000052
v -0.1374999999999998 0 -0.08125000000000038
v -0.13750000000000007 0 0.012499999999999525
v -0.1375000000000001 0.09374999999999989 0.012499999999999513
v -0.13749999999999982 0.09374999999999989 -0.08125000000000039
v -0.12187499999999925 0.08749999999999974 -0.23750000000000057
v -0.12187499999999923 -5.551115123125783e-17 -0.23750000000000054
v -0.15847831304584625 0.05339934229851839 -0.10604255178145547
v -0.15847831304584653 0.05339934229851839 -0.012292551781455562
v -0.15847831304584656 0.14714934229851828 -0.012292551781455573
v -0.15847831304584628 0.14714934229851828 -0.10604255178145548
v -0.05156249999999919 0 -0.20625000000000032
v -0.0515624999999992 0.0874999999999998 -0.20625000000000032
v -0.2234374999999991 0.0874999999999998 -0.2062500000000007
v -0.15312499999999923 0.08749999999999974 -0.23750000000000054
v -0.1531249999999992 -5.551115123125783e-17 -0.23750000000000054
v -0.22343749999999907 0 -0.2062500000000007
v -0.22382115412833944 0.012499999999999789 -0.26336322178876687
v -0.16929911654102206 0.012499999999999789 -0.2946132217887667
v -0.16929911654102206 -5.551115123125783e-17 -0.2946132217887667
v -0.22382115412833944 -5.551115123125783e-17 -0.26336322178876687
v -0.05117884587165859 -5.551115123125783e-17 -0.2633632217887665
v -0.10570088345897609 0.012499999999999789 -0.29461322178876664
v -0.10570088345897606 -5.551115123125783e-17 -0.29461322178876664
v -0.0511788458716586 0.012499999999999789 -0.2633632217887665
vt 0.58138046875 0.3828125
vt 0.59700546875 0.3828125
vt 0.59700546875 0.40625
vt 0.58138046875 0.40156250000000004
vt 0.04361953125 0.38593750000000004
vt 0.027994531250000003 0.390625
vt 0.027994531250000003 0.3671875
vt 0.04361953125 0.3671875
vt 0.221875 0.2024359375
vt 0.2421875 0.2024359375
vt 0.2421875 0.21875
vt 0.221875 0.21875
vt 0.08125 0.5546875
vt 0.1015625 0.5546875
vt 0.1015625 0.5703125
vt 0.08125 0.5703125
vt 0.484375 0.828125
vt 0.5 0.828125
vt 0.5 0.84375
vt 0.484375 0.84375
vt 0.7625 0.65625
vt 0.7421875 0.65625
vt 0.7421875 0.6328125
vt 0.7625 0.6328125
vt 0.6204429687499999 0.40625
vt 0.59700546875 0.40625
vt 0.59700546875 0.3828125
vt 0.6204429687499999 0.3828125
vt 0.08125 0.53125
vt 0.1015625 0.53125
vt 0.1015625 0.5546875
vt 0.08125 0.5546875
vt 0.004557031250000003 0.3671875
vt 0.027994531250000003 0.3671875
vt 0.027994531250000003 0.390625
vt 0.004557031250000003 0.390625
vt 0.721875 0.5859375
vt 0.7421875 0.5859375
vt 0.7421875 0.609375
vt 0.721875 0.609375
vt 0.859375 0.4375
vt 0.84375 0.4375
vt 0.84375 0.421875
vt 0.859375 0.421875
vt 0.121875 0.5703125
vt 0.1015625 0.5703125
vt 0.1015625 0.5546875
vt 0.121875 0.5546875
vt 0.121875 0.5546875
vt 0.1015625 0.5546875
vt 0.1015625 0.53125
vt 0.121875 0.53125
vt 0.721875 0.6328125
vt 0.7421875 0.6328125
vt 0.7421875 0.65625
vt 0.721875 0.65625
vt 0.7625 0.609375
vt 0.7421875 0.609375
vt 0.7421875 0.5859375
vt 0.7625 0.5859375
vt 0.2625 0.21875
vt 0.2421875 0.21875
vt 0.2421875 0.2024359375
vt 0.2625 0.2024359375
vt 0.09765625 0.59375
vt 0.080078125 0.5859375
vt 0.08125 0.5703125
vt 0.1015625 0.5703125
vt 0.7574890625 0.375
vt 0.7574890625 0.353125
vt 0.78125 0.353125
vt 0.78125 0.37187499999999996
vt 0.6648782200258943 0.18272431908557996
vt 0.6462445364580232 0.1875
vt 0.6462445364580232 0.16353402945548368
vt 0.6662554635419768 0.16684459262369022
vt 0.05928984375 0.3671875
vt 0.05928984375 0.3890625
vt 0.04361953125 0.38593750000000004
vt 0.04361953125 0.3671875
vt 0.125 0.15625
vt 0.12021222514169334 0.17052007784317014
vt 0.10429113711797185 0.171875
vt 0.10109456762019091 0.15625
vt 0.6800109375 0.24375000000000002
vt 0.6800109375 0.265625
vt 0.65625 0.26249999999999996
vt 0.65625 0.24375000000000002
vt 0.123046875 0.5859375
vt 0.10546875 0.59375
vt 0.1015625 0.5703125
vt 0.121875 0.5703125
vt 0.56571171875 0.4046875
vt 0.56571171875 0.3828125
vt 0.58138046875 0.3828125
vt 0.58138046875 0.40156250000000004
vt 0.8024610129151537 0.875
vt 0.8048266965916766 0.8594681907727548
vt 0.828125 0.8559202699202358
vt 0.8263173863859011 0.875
vt 0.69485 0.24375000000000002
vt 0.69485 0.24687499999999996
vt 0.6800109375 0.265625
vt 0.6800109375 0.24375000000000002
vt 0.1231421875 0.600215625
vt 0.1095125 0.608028125
vt 0.10546875 0.59375
vt 0.123046875 0.5859375
vt 0.55143203125 0.38593750000000004
vt 0.55143203125 0.3828125
vt 0.56571171875 0.3828125
vt 0.56571171875 0.4046875
vt 0.0936125 0.608028125
vt 0.0799828125 0.600215625
vt 0.080078125 0.5859375
vt 0.09765625 0.59375
vt 0.74265 0.35624999999999996
vt 0.74265 0.353125
vt 0.7574890625 0.353125
vt 0.7574890625 0.375
vt 0.831690698628048 0.9298802421624413
vt 0.84375 0.9275202948922369
vt 0.84375 0.9514322785286017
vt 0.828125 0.953125
vt 0.07356796874999999 0.3671875
vt 0.07356796874999999 0.37031250000000004
vt 0.05928984375 0.3890625
vt 0.05928984375 0.3671875
vn -1 -1.2246467991473623e-16 -7.403799795469003e-15
vn 1 1.2246467991473618e-16 6.959710585618941e-15
vn 7.340853724185877e-16 0.9578262852211514 -0.28734788556634555
vn 1.224646799147353e-16 -1 1.224646799147357e-16
vn 0.49727271240230697 5.067323015401322e-16 -0.8675942885358643
vn -2.9629076969683865e-15 1.224646799147353e-16 1
vn -1 -1.224646799147357e-16 -2.9629076969683865e-15
vn 1.224646799147353e-16 -1 1.224646799147357e-16
vn 1 1.224646799147357e-16 2.9629076969683865e-15
vn -1.224646799147353e-16 1 -1.224646799147357e-16
vn -0.49727271240230375 -1.6714800039607802e-16 -0.8675942885358662
vn 1.224646799147353e-16 -1 1.224646799147357e-16
vn 1.224646799147353e-16 -1 1.224646799147357e-16
vn -2.9629076969683865e-15 1.224646799147353e-16 1
vn -1.224646799147353e-16 1 -1.224646799147357e-16
vn 7.340853724185882e-16 0.9578262852211515 -0.28734788556634566
vn 1.224646799147353e-16 -1 1.224646799147357e-16
vn -0.9863939238321436 -1.409314855106007e-16 -0.1643989873053585
vn -0.0546702712268505 0.9908986659866614 0.1230081102604124
vn 0.9971993098884563 1.3128082136893652e-16 0.07478994824163719
vn 0.0841545972463145 0.9782971929884128 0.18934784380420852
vn 0.9863939238321441 1.006653467932863e-16 -0.16439898730535557
vn 1.224646799147353e-16 -1 1.224646799147357e-16
vn -0.9971993098884566 -1.129625672244338e-16 0.07478994824163109
vn -0.4144129802493958 0.5527130312721293 -0.7230284827465568
vn 0.9621619025740856 8.446187056086051e-17 -0.27247839040007577
vn 1.224646799147353e-16 -1 1.224646799147357e-16
vn -0.9999774388237029 -1.2163928748631378e-16 0.006717279478136689
vn 1.224646799147353e-16 -1 1.224646799147357e-16
vn -0.9621619025740841 -1.2194141259438252e-15 -0.2724783904000809
vn 0.39439985103757463 0.6090577636681896 -0.6881114720864946
vn 0.999977438823703 6.783835347925813e-16 0.006717279478139814
usemtl m_efc487d7-ee4e-4cca-c257-0fbcc26fed3c
f 3/1/1 10/2/1 9/3/1 1/4/1
f 5/5/2 12/6/2 11/7/2 7/8/2
f 5/9/3 13/10/3 18/11/3 12/12/3
f 11/13/4 15/14/4 14/15/4 7/16/4
f 35/17/5 37/18/5 36/19/5 38/20/5
f 6/21/6 17/22/6 16/23/6 8/24/6
f 2/25/7 9/26/7 10/27/7 4/28/7
f 8/29/8 16/30/8 15/31/8 11/32/8
f 8/33/9 11/34/9 12/35/9 6/36/9
f 12/37/10 18/38/10 17/39/10 6/40/10
f 31/41/11 32/42/11 33/43/11 34/44/11
f 3/45/12 14/46/12 15/47/12 10/48/12
f 10/49/13 15/50/13 16/51/13 4/52/13
f 4/53/14 16/54/14 17/55/14 2/56/14
f 2/57/15 17/58/15 18/59/15 9/60/15
f 9/61/16 18/62/16 13/63/16 1/64/16
f 20/65/17 25/66/17 7/67/17 14/68/17
f 19/69/18 20/70/18 14/71/18 13/72/18
f 26/73/19 19/74/19 13/75/19 5/76/19
f 25/77/20 26/78/20 5/79/20 7/80/20
f 28/81/21 27/82/21 1/83/21 13/84/21
f 29/85/22 28/86/22 13/87/22 14/88/22
f 30/89/23 29/90/23 14/91/23 3/92/23
f 27/93/24 30/94/24 3/95/24 1/96/24
f 32/97/25 31/98/25 27/99/25 28/100/25
f 33/101/26 32/102/26 28/103/26 29/104/26
f 34/105/27 33/106/27 29/107/27 30/108/27
f 31/109/28 34/110/28 30/111/28 27/112/28
f 37/113/29 35/114/29 25/115/29 20/116/29
f 36/117/30 37/118/30 20/119/30 19/120/30
f 38/121/31 36/122/31 19/123/31 26/124/31
f 35/125/32 38/126/32 26/127/32 25/128/32
o cuboid
v -0.08828124999999995 0.05659722222222218 0.21093750000000006
v -0.07499999999999996 0.06562499999999996 0.11093750000000005
v -0.08828124999999995 0.0031249999999999525 0.21093750000000006
v -0.07499999999999996 0.003124999999999954 0.11093750000000005
v -0.18671874999999996 0.05659722222222218 0.21093750000000006
v -0.19999999999999996 0.06562499999999996 0.11093750000000005
v -0.18671874999999996 0.0031249999999999525 0.21093750000000006
v -0.19999999999999996 0.003124999999999954 0.11093750000000005
v -0.08124999999999996 0.07187499999999997 0.24843750000000003
v -0.19374999999999995 0.07187499999999997 0.24843750000000003
v -0.08124999999999996 0.0031249999999999455 0.24843750000000003
v -0.19374999999999995 0.0031249999999999455 0.24843750000000003
v -0.11874999999999997 0.034374999999999954 0.31093750000000003
v -0.15624999999999994 0.034374999999999954 0.31093750000000003
v -0.11874999999999997 0.003124999999999944 0.31093750000000003
v -0.15624999999999994 0.003124999999999944 0.31093750000000003
vt 0.625 0.75
vt 0.59375 0.7477437499999999
vt 0.59375 0.734375
vt 0.625 0.734375
vt 0.71875 0.359375
vt 0.71875 0.37274375000000004
vt 0.6875 0.375
vt 0.6875 0.359375
vt 0.0033203125000000003 0.25
vt 0.0279296875 0.25
vt 0.03125 0.28125
vt 0 0.28125
vt 0.09375 0.37812500000000004
vt 0.0970703125 0.353125
vt 0.1216796875 0.353125
vt 0.125 0.37812500000000004
vt 0.875 0.890625
vt 0.875 0.90625
vt 0.859375 0.90625
vt 0.859375 0.890625
vt 0.21875 0.65625
vt 0.1875 0.65625
vt 0.1875 0.640625
vt 0.21875 0.640625
vt 0.265625 0.140625
vt 0.265625 0.125
vt 0.28125 0.125
vt 0.28125 0.13680625000000002
vt 0.8421875 0.90625
vt 0.8140625 0.90625
vt 0.8158203125 0.890625
vt 0.8404296875 0.890625
vt 0.3125 0.125
vt 0.3125 0.140625
vt 0.296875 0.13680625000000002
vt 0.296875 0.125
vt 0.0953125 0.34375
vt 0.1234375 0.34375
vt 0.1216796875 0.353125
vt 0.0970703125 0.353125
vt 0.5 0.13124999999999998
vt 0.5 0.125
vt 0.515625 0.125
vt 0.515625 0.140625
vt 0.7765625 0.171875
vt 0.7859375 0.171875
vt 0.7953125 0.1875
vt 0.7671875 0.1875
vt 0.609375 0.125
vt 0.609375 0.13124999999999998
vt 0.59375 0.140625
vt 0.59375 0.125
vt 0.1046875 0.328125
vt 0.1140625 0.328125
vt 0.1234375 0.34375
vt 0.0953125 0.34375
vn 0.9912954083909878 0 0.13165642142692807
vn -0.9912954083909878 0 0.13165642142692807
vn 0 0.9959497023519436 0.08991212590677264
vn 0 -1 -1.734723475976807e-17
vn 0 0 1
vn 0 0 -1
vn 0.9828721869343219 0 -0.18428853505018533
vn 0 0.9260923597695476 -0.3772968873135196
vn -0.9828721869343219 0 -0.18428853505018533
vn 0 -1 -1.850371707708595e-16
vn 0.8574929257125442 0 0.5144957554275266
vn 0 0.8574929257125443 0.5144957554275266
vn -0.8574929257125442 0 0.5144957554275266
vn 0 -1 -2.7755575615628914e-17
usemtl m_efc487d7-ee4e-4cca-c257-0fbcc26fed3c
f 40/129/33 39/130/33 41/131/33 42/132/33
f 45/133/34 43/134/34 44/135/34 46/136/34
f 43/137/35 39/138/35 40/139/35 44/140/35
f 42/141/36 41/142/36 45/143/36 46/144/36
f 53/145/37 51/146/37 52/147/37 54/148/37
f 44/149/38 40/150/38 42/151/38 46/152/38
f 47/153/39 49/154/39 41/155/39 39/156/39
f 48/157/40 47/158/40 39/159/40 43/160/40
f 50/161/41 48/162/41 43/163/41 45/164/41
f 49/165/42 50/166/42 45/167/42 41/168/42
f 51/169/43 53/170/43 49/171/43 47/172/43
f 52/173/44 51/174/44 47/175/44 48/176/44
f 54/177/45 52/178/45 48/179/45 50/180/45
f 53/181/46 54/182/46 50/183/46 49/184/46
o Shin
v -0.050000000000000315 0.3687499999999999 0.06344696969696947
v -0.22499999999999967 0.3687499999999999 -0.09375000000000072
v -0.22500000000000048 0.3687499999999999 0.09374999999999922
v -0.2874999999999997 0.09583333333333327 -0.10805555555555642
v -0.2875000000000005 0.16875 0.1569444444444435
v -0.04999999999999976 0.3687499999999999 -0.0937500000000002
v -0.0500000000000005 0.3687499999999999 0.09374999999999975
v 0.012500000000000315 0.09583333333333333 -0.10805555555555553
v 0.012499999999999326 0.16875000000000007 0.1569444444444444
v -0.22734374999999968 0.09583333333333327 -0.1375000000000007
v -0.22916666666666732 0.16875 0.19374999999999928
v -0.04921874999999963 0.09583333333333333 -0.13750000000000018
v -0.045833333333333955 0.16875000000000007 0.1937499999999998
v -0.19097222222222268 0.3687499999999999 0.12499999999999935
v -0.08402777777777827 0.3687499999999999 0.12499999999999965
v -0.19097222222222196 0.3687499999999999 -0.11875000000000062
v -0.08402777777777755 0.3687499999999999 -0.11875000000000031
v -0.2250000000000002 0.3687499999999999 0.043749999999999234
v -0.2875000000000002 0.09583333333333327 0.06178861788617797
v -0.22499999999999998 0.3687499999999999 -0.027651515151515895
v -0.2874999999999999 0.09583333333333327 -0.03785569105691147
v -0.22734375000000012 0.09583333333333327 0.013672086720866478
v -0.04921875000000008 0.09583333333333333 0.01367208672086703
v 0.012499999999999727 0.09583333333333333 0.06178861788617886
v 0.012500000000000023 0.09583333333333333 -0.037855691056910584
v -0.050000000000000044 0.3687499999999999 -0.027651515151515375
v -0.08402777777777809 0.3687499999999999 0.06344696969696936
v -0.08402777777777781 0.3687499999999999 -0.027651515151515475
v -0.19097222222222252 0.3687499999999999 0.06344696969696906
v -0.19097222222222224 0.3687499999999999 -0.027651515151515794
v -0.2273437499999997 -5.551115123125783e-17 -0.11875000000000069
v -0.26874999999999993 -5.551115123125783e-17 -0.030386178861789456
v -0.22734375000000012 -5.551115123125783e-17 0.01530826558265511
v -0.26874999999999977 -5.551115123125783e-17 -0.09263888888888967
v -0.2687500000000002 -5.551115123125783e-17 0.05797764227642193
v -0.2687500000000005 -5.551115123125783e-17 0.14236111111111024
v -0.2177083333333339 0.0017254925949194977 0.17499999999999932
v -0.0572916666666672 0.0017254925949194977 0.1749999999999998
v -0.049218750000000075 0 0.015308265582655663
v -0.006249999999999949 0 -0.03038617886178868
v -0.006250000000000211 0 0.05797764227642271
v -0.006250000000000572 0 0.14236111111111102
v -0.00624999999999971 0 -0.0926388888888889
v -0.04921874999999967 0 -0.11875000000000015
v -0.052825000692442434 0.06578180798403799 0.18230908977600402
v -0.2221749993075587 0.06578180798403799 0.18230908977600352
v -0.2760590897760047 0.06578180798403793 0.14804595871466905
v -0.2760590897760044 0.037357569966243676 0.0594632296292683
v -0.27605908977600413 0.037357569966243676 -0.03329793007336839
v -0.27605908977600396 0.037357569966243676 -0.09864858492693761
v -0.2273437499999997 0.037357569966243676 -0.1260590897760049
v -0.22734375000000012 0.037357569966243676 0.014670453412499724
v -0.049218750000000075 0.03735756996624373 0.014670453412500275
v -0.04921874999999966 0.03735756996624373 -0.12605908977600438
v 0.0010590897760045142 0.03735756996624373 -0.09864858492693679
v 0.0010590897760042546 0.03735756996624373 -0.03329793007336757
v 0.0010590897760039796 0.03735756996624373 0.059463229629269115
v 0.0010590897760036028 0.06578180798403799 0.14804595871466988
v -0.07157500069244235 0.06923279317387693 0.11375022306745333
v -0.2034249993075587 0.06923279317387693 0.11375022306745294
v -0.07505259093355117 0.0017254925949194977 0.10644113329144911
v -0.19994740906644975 0.0017254925949194977 0.10644113329144873
vt 0.3340625 0.6487546875
vt 0.3516125 0.6487546875
vt 0.3541640625 0.71875
vt 0.3376390625 0.71875
vt 0.30315978037074987 0.6875
vt 0.28663478037074985 0.6875
vt 0.28918634287074985 0.6175046875
vt 0.30673634287074986 0.6175046875
vt 0.49444375 0.8609375
vt 0.49444375 0.8837125
vt 0.4859375 0.8837125
vt 0.4859375 0.8671875
vt 0.2406340471244464 0.7700491888600495
vt 0.2406340471244464 0.7544866888600494
vt 0.25137623462444636 0.7430632513600495
vt 0.25137623462444636 0.7765773138600495
vt 0.640625 0.34375
vt 0.6436904164757913 0.32693176789009604
vt 0.7123172409906342 0.33350812041831057
vt 0.7106839511987326 0.34375
vt 0.796875 0.8947422967075062
vt 0.7958874449727099 0.90625
vt 0.7421610084362137 0.90625
vt 0.7425125281821302 0.8892521839557406
vt 0.295913111393903 0.7765642127119112
vt 0.29590658853304297 0.7430501508466851
vt 0.3062603741870534 0.7544715733998797
vt 0.3062634031251934 0.7700340731051178
vt 0.640625 1
vt 0.640625 0.96875
vt 0.6875 0.96875
vt 0.6875 1
vt 0.734375 0.28125
vt 0.75161875 0.28125
vt 0.7505234375 0.32736875
vt 0.739159375 0.328125
vt 0.1411453125 0.421875
vt 0.1869796875 0.421875
vt 0.17743124999999998 0.46875
vt 0.15069375 0.46875
vt 0.5296875 0.8671875
vt 0.5296875 0.8837125
vt 0.52118125 0.8837125
vt 0.52118125 0.8609375
vt 0.52118125 0.8609375
vt 0.52118125 0.8837125
vt 0.49444375 0.8837125
vt 0.49444375 0.8609375
vt 0.203125 0.29529613591266646
vt 0.19329613794733114 0.296875
vt 0.1875 0.22812641248089482
vt 0.203125 0.22527096687098258
vt 0.5209859375 1
vt 0.4942484375 1
vt 0.485546875 0.9375
vt 0.530078125 0.9375
vt 0.3845140625 0.71875
vt 0.3720140625 0.71875
vt 0.3765234375 0.6487546875
vt 0.4003125 0.6665234375
vt 0.3720140625 0.71875
vt 0.3541640625 0.71875
vt 0.3516125 0.6487546875
vt 0.3765234375 0.6487546875
vt 0.30625557700822614 0.7112840738241577
vt 0.3062560746762679 0.7323809488182879
vt 0.28904953884076023 0.7202641672111924
vt 0.2934881970349221 0.703125
vt 0.3062560746762679 0.7323809488182879
vt 0.3062603741870534 0.7544715733998797
vt 0.29590658853304297 0.7430501508466851
vt 0.2890537166270173 0.7202671091934811
vt 0.2890537166270173 0.7202671091934811
vt 0.29590745056558954 0.7430530167580409
vt 0.2513762017685179 0.7430633674006455
vt 0.2578287174705022 0.7202743669914393
vt 0.2533705310411994 0.7031401750573492
vt 0.2578287174705022 0.7202743669914393
vt 0.24063535973193245 0.7324104816203822
vt 0.2406115968748066 0.7113148281350988
vt 0.2578287174705022 0.7202743669914393
vt 0.25137623462444636 0.7430632513600495
vt 0.24063378314954606 0.754486969575758
vt 0.24064374020594917 0.7324045661735651
vt 0.24013865712925014 0.6352707756522272
vt 0.2642754053707499 0.6175046875
vt 0.26385978501104446 0.6874992185290341
vt 0.2563931893312163 0.6874996912899851
vt 0.2642754053707499 0.6175046875
vt 0.28918634287074985 0.6175046875
vt 0.28663478037074985 0.6875
vt 0.26385978037074986 0.6875
vt 0.4859375 0.9140625
vt 0.4859375 0.9064875
vt 0.49444375 0.9064875
vt 0.49444375 0.921875
vt 0.4859375 0.9064875
vt 0.4859375 0.8837125
vt 0.49444375 0.8837125
vt 0.49444375 0.9064875
vt 0.49444375 0.921875
vt 0.49444375 0.9064875
vt 0.52118125 0.9064875
vt 0.52118125 0.921875
vt 0.49444375 0.9064875
vt 0.49444375 0.8837125
vt 0.52118125 0.8837125
vt 0.52118125 0.9064875
vt 0.52118125 0.921875
vt 0.52118125 0.9064875
vt 0.5296875 0.9015625
vt 0.5296875 0.9140625
vt 0.52118125 0.9064875
vt 0.52118125 0.8837125
vt 0.5296875 0.8837125
vt 0.5296875 0.9015625
vt 0.73911953125 0.859375
vt 0.73887109375 0.84475625
vt 0.77405234375 0.84475625
vt 0.77691328125 0.859375
vt 0.13093296427967283 0.5087600924113985
vt 0.13338810646886287 0.49387993758062165
vt 0.14972521110515932 0.4939935965120823
vt 0.14848253957375104 0.5088821866269843
vt 0.0614078125 0.16505156249999997
vt 0.0628109375 0.15022187499999995
vt 0.076784375 0.15022187499999995
vt 0.078125 0.16521249999999998
vt 0.14848253957375102 0.5088821866269843
vt 0.14972521110515932 0.4939935965120823
vt 0.17291527489742328 0.4941549321911888
vt 0.17339287423485225 0.509055490408954
vt 0.17337671161096968 0.5090568011192245
vt 0.17291686045945937 0.49415544466669015
vt 0.1950465248974233 0.5013080571911888
vt 0.19719203572032717 0.5271338096648018
vt 0.765625 0.99568125
vt 0.7668453125 0.9697140625
vt 0.7828078125 0.9697140625
vt 0.78286875 0.9956734375
vt 0.6411453125 0.953125
vt 0.64289375 0.921875
vt 0.68523125 0.921875
vt 0.6869796875 0.953125
vt 0.266796875 0.28958593750000006
vt 0.266796875 0.274965625
vt 0.311328125 0.274965625
vt 0.311328125 0.28958593750000006
vt 0.02971851556300771 0.9465583074721752
vt 0.030195033747067807 0.9316592767501646
vt 0.053385085651938426 0.9314962413551376
vt 0.05462883745489239 0.9463831778870172
vt 0.005946596247067809 0.9647217767501646
vt 0.008065346247067812 0.9388124017501646
vt 0.030195033747067807 0.9316592767501646
vt 0.02972003374706781 0.9465108392501647
vt 0.014006250000000001 0.23004843750000004
vt 0.014065625000000002 0.20408906250000003
vt 0.030029687500000003 0.20408906250000003
vt 0.03125 0.23005624999999996
vt 0.05462883745489239 0.9463831778870172
vt 0.053385085651938426 0.9314962413551376
vt 0.06972218191371765 0.9313813849954555
vt 0.07217840375293219 0.9462597973751629
vt 0.73871171875 0.765625
vt 0.74157265625 0.75100625
vt 0.77675390625 0.75100625
vt 0.77650546875 0.765625
vt 0 0.16521874999999997
vt 0.001384375000000002 0.15020156249999994
vt 0.015701562500000002 0.15020156249999994
vt 0.0170703125 0.16500781249999996
vt 0.8203 0.578125
vt 0.82116875 0.59375
vt 0.78820625 0.59375
vt 0.789075 0.578125
vt 0.7827703125 0.9535578124999999
vt 0.7828078125 0.9697140625
vt 0.7668453125 0.9697140625
vt 0.7676234375 0.953125
vt 0.1936933998974233 0.4847549321911887
vt 0.1950465248974233 0.5013080571911888
vt 0.17291527489742328 0.4941549321911888
vt 0.1726105873974233 0.4846674321911888
vt 0.17260960848475654 0.48463695035676513
vt 0.17291527489742328 0.4941549321911888
vt 0.14972521110515932 0.4939935965120823
vt 0.15051951807274816 0.4844832673065558
vt 0.15051951807274816 0.4844832673065558
vt 0.14972521110515932 0.4939935965120823
vt 0.13338810646886287 0.49387993758062165
vt 0.13495739468163181 0.484375
vt 0.07592968750000001 0.140625
vt 0.076784375 0.15022187499999995
vt 0.0628109375 0.15022187499999995
vt 0.06370624999999999 0.140765625
vt 0.77222578125 0.8354171875
vt 0.77405234375 0.84475625
vt 0.73887109375 0.84475625
vt 0.73871171875 0.8354171875
vt 0.311328125 0.265625
vt 0.311328125 0.274965625
vt 0.266796875 0.274965625
vt 0.266796875 0.265625
vt 0.77691328125 0.7416671875
vt 0.77675390625 0.75100625
vt 0.74157265625 0.75100625
vt 0.74339921875 0.7416671875
vt 0.014826562500000001 0.140725
vt 0.015701562500000002 0.15020156249999994
vt 0.001384375000000002 0.15020156249999994
vt 0.0022703125000000015 0.140625
vt 0.06815218605577432 0.921875
vt 0.06972218191371765 0.9313813849954555
vt 0.053385085651938426 0.9314962413551376
vt 0.05259007064191423 0.9219844079325205
vt 0.05259007064191425 0.9219844079325205
vt 0.053385085651938426 0.9314962413551376
vt 0.030195033747067807 0.9316592767501646
vt 0.03049999155344499 0.9221397100760922
vt 0.030488557223144624 0.922140082467595
vt 0.030195033747067807 0.9316592767501646
vt 0.008064104294974443 0.9388128031945396
vt 0.009434542916124417 0.9223151316158922
vt 0.02925 0.1875
vt 0.030029687500000003 0.20408906250000003
vt 0.014065625000000002 0.20408906250000003
vt 0.014104687500000001 0.18793281250000005
vt 0.8451226630545615 0.234375
vt 0.828125 0.234375
vt 0.8301935433473513 0.21679156780111497
vt 0.8463467536616475 0.21662772074279268
vt 0.64929375 0.578125
vt 0.61633125 0.578125
vt 0.61164375 0.5625
vt 0.65398125 0.5625
vt 0.359375 0.13802705011969763
vt 0.359375 0.15502389280099615
vt 0.34375 0.15625
vt 0.3439155330988124 0.14009581353349043
vn -0.974766060219309 0.22322886875251347 -2.9154795145268455e-15
vn 0.9747660602193088 0.22322886875251363 4.191082472665519e-15
vn -1.224646799147353e-16 1 -1.224646799147357e-16
vn 1.224646799147353e-16 -1 1.224646799147357e-16
vn 0.42767033579933633 0.11613472767636471 -0.8964434220322103
vn 0.6317965355828103 0.35714054164195064 0.6879562276346171
vn 1.224646799147353e-16 -1 1.224646799147357e-16
vn 1.224646799147353e-16 -1 1.224646799147357e-16
vn -0.49670146950808725 0.3654647670365108 0.7872249705411128
vn -2.8417928937977096e-15 0.32507976851104836 0.9456865993048666
vn -1.224646799147353e-16 1 -1.224646799147357e-16
vn -1.224646799147353e-16 1 -1.224646799147357e-16
vn -0.5868102879257949 0.1330775239475485 -0.7987140030101111
vn 2.9475460664453824e-15 0.06854072423084233 -0.9976483193600397
vn -0.974766060219309 0.2232288687525133 -5.620998823723418e-15
vn -0.9747660602193088 0.22322886875251344 -2.9154795145268447e-15
vn 0.025071006810133595 -0.9996856729080028 1.96709264996517e-16
vn 1.224646799147353e-16 -1 1.224646799147357e-16
vn 6.301475655221152e-17 -0.9998208035579096 0.018930419245648082
vn -0.021203659816326378 -0.9997600868819044 0.005493039985323811
vn 0.028801532804382843 -0.9992181720172361 0.02708350824120362
vn 0.9604644457774895 0.22098264443781285 -0.16933611326179476
vn 0.9747660602193089 0.22322886875251366 2.860804210607835e-15
vn -1.224646799147353e-16 1 -1.224646799147357e-16
vn -1.224646799147353e-16 1 -1.224646799147357e-16
vn -1.224646799147353e-16 1 -1.224646799147357e-16
vn -1.224646799147353e-16 1 -1.224646799147357e-16
vn -1.224646799147353e-16 1 -1.224646799147357e-16
vn -1.224646799147353e-16 1 -1.224646799147357e-16
vn 1 1.224646799147357e-16 2.9629076969683865e-15
vn -0.9813926548600209 -0.19201160638565642 -2.8842612109170617e-15
vn -0.4833947063898719 -0.16808744254323582 -0.8591135952209835
vn -0.9813926548600208 -0.1920116063856564 -2.8842612109170613e-15
vn -0.9790194222728229 -0.19402306199920213 0.062257708157641645
vn -0.5319252042438081 -0.131395942277583 0.8365349266128519
vn -2.9312618058628993e-15 -0.11043152607484649 0.9938837346736189
vn 3.1011648844083322e-15 -0.017070682919345527 -0.9998542852759432
vn 0.981392654860021 -0.19201160638565573 2.9312904907489294e-15
vn 0.9928745716302737 -0.11346582538943961 0.036408673124599285
vn 0.5320866318263964 -0.12910587214658234 0.8367887965364447
vn 0.981392654860021 -0.19201160638565565 3.905820634168951e-15
vn -1 -1.224646799147357e-16 -2.9629076969683865e-15
vn 0.46598387478049497 -0.22867128157429403 -0.8547329837017676
vn -2.93251002432919e-15 -0.10764201567692933 0.994189718545212
vn -0.5318446741224342 -0.13252332216549811 0.836408280500511
vn -0.992874571630274 -0.11346582538943964 0.036408673124592075
vn -0.9813926548600209 -0.1920116063856561 -2.8842612109170617e-15
vn -0.9813926548600208 -0.19201160638565606 -2.8842612109170613e-15
vn -0.4772458040990399 -0.22982140429257247 -0.8481854541306699
vn 1 1.224646799147357e-16 2.9629076969683865e-15
vn 3.101002301963212e-15 -0.017070682919345544 -0.9998542852759433
vn -1 -1.224646799147357e-16 -2.9629076969683865e-15
vn 0.4717568357142111 -0.16930214272808722 -0.8653220628324423
vn 0.9813926548600208 -0.19201160638565604 3.933716554466986e-15
vn 0.9813926548600208 -0.1920116063856559 2.9312904907489286e-15
vn 0.9790194222728226 -0.19402306199920172 0.06225770815764861
vn 0.5319252042438041 -0.13139594227758267 0.8365349266128543
vn -0.9677938625014189 0.02270973865979368 0.2507175850924475
vn 2.7126242993681614e-16 -0.9987355414245863 -0.05027244071396169
vn 0.9640951363119131 0.02100257572180237 0.26472525371177485
usemtl m_efc487d7-ee4e-4cca-c257-0fbcc26fed3c
f 58/185/47 75/186/47 74/187/47 56/188/47
f 60/189/48 80/190/48 79/191/48 62/192/48
f 71/193/49 82/194/49 80/195/49 60/196/49
f 97/197/50 94/198/50 93/199/50 98/200/50
f 62/201/51 66/202/51 71/203/51 60/204/51
f 61/205/52 69/206/52 67/207/52 63/208/52
f 85/209/53 87/210/53 86/211/53 88/212/53
f 66/213/54 77/214/54 76/215/54 64/216/54
f 59/217/55 65/218/55 68/219/55 57/220/55
f 65/221/56 67/222/56 69/223/56 68/224/56
f 56/225/57 74/226/57 84/227/57 70/228/57
f 70/229/58 84/230/58 82/231/58 71/232/58
f 56/233/59 70/234/59 64/235/59 58/236/59
f 70/237/60 71/238/60 66/239/60 64/240/60
f 57/241/61 72/242/61 73/243/61 59/244/61
f 72/245/62 74/246/62 75/247/62 73/248/62
f 90/249/63 89/250/63 116/251/63 91/252/63
f 89/253/64 86/254/64 87/255/64 116/256/64
f 116/257/65 87/258/65 93/259/65 115/260/65
f 92/261/66 115/262/66 95/263/66 96/264/66
f 115/265/67 93/266/67 94/267/67 95/268/67
f 63/269/68 78/270/68 55/271/68 61/272/68
f 78/273/69 79/274/69 80/275/69 55/276/69
f 61/277/70 55/278/70 81/279/70 69/280/70
f 55/281/71 80/282/71 82/283/71 81/284/71
f 69/285/72 81/286/72 83/287/72 68/288/72
f 81/289/73 82/290/73 84/291/73 83/292/73
f 68/293/74 83/294/74 72/295/74 57/296/74
f 83/297/75 84/298/75 74/299/75 72/300/75
f 76/301/76 106/302/76 105/303/76 64/304/76
f 58/305/77 104/306/77 103/307/77 75/308/77
f 64/309/78 105/310/78 104/311/78 58/312/78
f 75/313/79 103/314/79 102/315/79 73/316/79
f 73/317/80 102/318/80 101/319/80 59/320/80
f 59/321/81 101/322/81 100/323/81 65/324/81
f 65/325/82 100/326/82 99/327/82 67/328/82
f 77/329/83 107/330/83 106/331/83 76/332/83
f 78/333/84 111/334/84 110/335/84 79/336/84
f 63/337/85 112/338/85 111/339/85 78/340/85
f 67/341/86 99/342/86 112/343/86 63/344/86
f 79/345/87 110/346/87 109/347/87 62/348/87
f 66/349/88 108/350/88 107/351/88 77/352/88
f 62/353/89 109/354/89 108/355/89 66/356/89
f 115/357/90 113/358/90 114/359/90 116/360/90
f 91/361/91 100/362/91 101/363/91 90/364/91
f 90/365/92 101/366/92 102/367/92 89/368/92
f 89/369/93 102/370/93 103/371/93 86/372/93
f 86/373/94 103/374/94 104/375/94 88/376/94
f 88/377/95 104/378/95 105/379/95 85/380/95
f 85/381/96 105/382/96 106/383/96 87/384/96
f 87/385/97 106/386/97 107/387/97 93/388/97
f 93/389/98 107/390/98 108/391/98 98/392/98
f 98/393/99 108/394/99 109/395/99 97/396/99
f 97/397/100 109/398/100 110/399/100 94/400/100
f 94/401/101 110/402/101 111/403/101 95/404/101
f 95/405/102 111/406/102 112/407/102 96/408/102
f 96/409/103 112/410/103 99/411/103 92/412/103
f 113/413/104 115/414/104 92/415/104 99/416/104
f 114/417/105 113/418/105 99/419/105 100/420/105
f 116/421/106 114/422/106 100/423/106 91/424/106
o Thigh
v -0.21874999999999978 0.7000000000000002 -0.09000000000000077
v -0.21875000000000033 0.7000000000000002 0.08999999999999925
v -0.21249999999999972 0.375 -0.09000000000000072
v -0.21250000000000027 0.375 0.0899999999999993
v -0.05624999999999984 0.6550000000000002 -0.09000000000000029
v -0.05625000000000037 0.6550000000000002 0.08999999999999973
v -0.05624999999999981 0.375 -0.09000000000000026
v -0.056250000000000334 0.375 0.08999999999999976
v -0.26249999999999973 0.5885 -0.11250000000000085
v -0.2625000000000004 0.5885 0.11249999999999916
v -0.05625000000000043 0.5885 0.11249999999999973
v -0.056249999999999765 0.5885 -0.11250000000000028
v -0.13749999999999962 0.5885 -0.1437500000000005
v -0.13749999999999976 0.7025000000000001 -0.09000000000000054
v -0.13750000000000032 0.7025000000000001 0.08999999999999948
v -0.13750000000000046 0.5885 0.1437499999999995
v -0.13750000000000034 0.375 0.11499999999999952
v -0.13749999999999968 0.375 -0.11500000000000049
vt 0.288125 0.53125
vt 0.29375 0.59375
vt 0.2375 0.59375
vt 0.243125 0.53125
vt 0.053750000000000006 0.5393749999999999
vt 0.059375 0.59275
vt 0.0031249999999999993 0.59275
vt 0.00875 0.5393749999999999
vt 0.234375 0.984375
vt 0.234375 1
vt 0.1875 1
vt 0.1875 0.984375
vt 0.12109375 0.4575
vt 0.10234375000000001 0.46375
vt 0.10234375000000001 0.40625
vt 0.12109375 0.4125
vt 0.359375 0.4134
vt 0.3271640625 0.4134
vt 0.32890625 0.35957031250000004
vt 0.3486125 0.359375
vt 0.140625 0.39389624947077384
vt 0.14145877773781051 0.375
vt 0.19531609157638075 0.375
vt 0.1942735069827197 0.40625
vt 0.555625 0.453125
vt 0.55 0.421875
vt 0.60625 0.421875
vt 0.600625 0.453125
vt 0.515625 0.26869726203208943
vt 0.546875 0.26536534591143135
vt 0.546875 0.296875
vt 0.5277932771269805 0.29630856103344494
vt 0.00875 0.609375
vt 0.0031249999999999993 0.59275
vt 0.059375 0.59275
vt 0.053750000000000006 0.609375
vt 0.5 0.27655388596111796
vt 0.5 0.296875
vt 0.46875 0.295999388152683
vt 0.47295145432275587 0.26476475852122383
vt 0.390625 0.19057256477313944
vt 0.40625 0.18724112100428825
vt 0.40625 0.21875
vt 0.39128159970657606 0.20800881339448796
vt 0.671875 0.421875
vt 0.671875 0.453125
vt 0.625 0.453125
vt 0.625 0.421875
vt 0.8017591892635139 0.2134403171938135
vt 0.8125 0.234375
vt 0.7809908200612876 0.234375
vt 0.7843235511491614 0.21295687998628965
vt 0.125 0.3036492945332281
vt 0.10326247904844219 0.30469169039401467
vt 0.10326247904844219 0.2508345605543145
vt 0.1244499486946578 0.25
vt 0.08203125 0.4125
vt 0.10234375000000001 0.40625
vt 0.10234375000000001 0.46375
vt 0.08203125 0.4575
vt 0.421875 0.6557984616743968
vt 0.42270919092336534 0.640625
vt 0.4765663237322564 0.640625
vt 0.47552362280490684 0.65625
vn -0.9736558739933148 -0.22802245292583515 -2.8569277865423387e-15
vn 1 1.224646799147357e-16 2.9629076969683865e-15
vn -0.03075467578697342 0.9995269630766537 -2.135300152063207e-16
vn 1.224646799147353e-16 -1 1.224646799147357e-16
vn -0.24049209717611789 -0.12953906873655213 -0.9619683887044831
vn -0.3136784949626231 -0.12672023508443078 0.9410354848878603
vn -0.9309036305148357 0.3652648774441614 -2.802913578288516e-15
vn -0.22055736893026648 0.4159634589474278 0.8822294757210564
vn 1 1.224646799147357e-16 2.9629076969683865e-15
vn -0.013120888860943933 0.4264288879807724 -0.9044259205545697
vn 0.3285711630990061 0.40278789511478663 -0.8542850240574081
vn 0.5046965873311549 0.8632967941190827 1.3896460376739453e-15
vn 0.2419130779140699 0.41379868590565133 0.877638143130127
vn 0.3561769018021399 -0.12470362252791613 0.9260599446855715
vn 1.224646799147353e-16 -1 1.224646799147357e-16
vn 0.29167991335892357 -0.12765265529027697 -0.9479597184164908
usemtl m_efc487d7-ee4e-4cca-c257-0fbcc26fed3c
f 120/425/107 126/426/107 125/427/107 119/428/107
f 123/429/108 128/430/108 127/431/108 124/432/108
f 118/433/109 131/434/109 130/435/109 117/436/109
f 119/437/110 134/438/110 133/439/110 120/440/110
f 125/441/111 129/442/111 134/443/111 119/444/111
f 120/445/112 133/446/112 132/447/112 126/448/112
f 117/449/113 125/450/113 126/451/113 118/452/113
f 126/453/114 132/454/114 131/455/114 118/456/114
f 122/457/115 127/458/115 128/459/115 121/460/115
f 117/461/116 130/462/116 129/463/116 125/464/116
f 128/465/117 129/466/117 130/467/117 121/468/117
f 121/469/118 130/470/118 131/471/118 122/472/118
f 122/473/119 131/474/119 132/475/119 127/476/119
f 127/477/120 132/478/120 133/479/120 124/480/120
f 124/481/121 133/482/121 134/483/121 123/484/121
f 123/485/122 134/486/122 129/487/122 128/488/122
o Toe
v 0.2187499999999993 0.07499999999999984 -0.14375000000000077
v 0.21875000000000003 0.09374999999999989 0.012499999999999272
v 0.21874999999999928 0 -0.14375000000000077
v 0.21875 0 0.012499999999999284
v 0.05624999999999939 0.07499999999999984 -0.1437500000000003
v 0.056250000000000105 0.09374999999999989 0.012499999999999754
v 0.056249999999999384 0 -0.14375000000000027
v 0.05625000000000009 0 0.012499999999999767
v 0.21874999999999975 0.09374999999999989 -0.08125000000000063
v 0.21874999999999972 0 -0.08125000000000061
v 0.056249999999999814 0 -0.08125000000000013
v 0.05624999999999983 0.09374999999999989 -0.08125000000000014
v 0.1374999999999994 0.07499999999999984 -0.14375000000000052
v 0.13749999999999937 0 -0.14375000000000052
v 0.1374999999999998 0 -0.08125000000000038
v 0.13750000000000007 0 0.012499999999999525
v 0.1375000000000001 0.09374999999999989 0.012499999999999513
v 0.13749999999999982 0.09374999999999989 -0.08125000000000039
v 0.12187499999999925 0.08749999999999974 -0.23750000000000057
v 0.12187499999999923 -5.551115123125783e-17 -0.23750000000000054
v 0.15847831304584625 0.05339934229851839 -0.10604255178145547
v 0.15847831304584653 0.05339934229851839 -0.012292551781455562
v 0.15847831304584656 0.14714934229851828 -0.012292551781455573
v 0.15847831304584628 0.14714934229851828 -0.10604255178145548
v 0.05156249999999919 0 -0.20625000000000032
v 0.0515624999999992 0.0874999999999998 -0.20625000000000032
v 0.2234374999999991 0.0874999999999998 -0.2062500000000007
v 0.15312499999999923 0.08749999999999974 -0.23750000000000054
v 0.1531249999999992 -5.551115123125783e-17 -0.23750000000000054
v 0.22343749999999907 0 -0.2062500000000007
v 0.22382115412833944 0.012499999999999789 -0.26336322178876687
v 0.16929911654102206 0.012499999999999789 -0.2946132217887667
v 0.16929911654102206 -5.551115123125783e-17 -0.2946132217887667
v 0.22382115412833944 -5.551115123125783e-17 -0.26336322178876687
v 0.05117884587165859 -5.551115123125783e-17 -0.2633632217887665
v 0.10570088345897609 0.012499999999999789 -0.29461322178876664
v 0.10570088345897606 -5.551115123125783e-17 -0.29461322178876664
v 0.0511788458716586 0.012499999999999789 -0.2633632217887665
vt 0.59700546875 0.40625
vt 0.59700546875 0.3828125
vt 0.58138046875 0.3828125
vt 0.58138046875 0.40156250000000004
vt 0.027994531250000003 0.3671875
vt 0.027994531250000003 0.390625
vt 0.04361953125 0.38593750000000004
vt 0.04361953125 0.3671875
vt 0.2421875 0.21875
vt 0.2421875 0.2024359375
vt 0.221875 0.2024359375
vt 0.221875 0.21875
vt 0.1015625 0.5703125
vt 0.1015625 0.5546875
vt 0.08125 0.5546875
vt 0.08125 0.5703125
vt 0.5 0.84375
vt 0.5 0.828125
vt 0.484375 0.828125
vt 0.484375 0.84375
vt 0.7421875 0.6328125
vt 0.7421875 0.65625
vt 0.7625 0.65625
vt 0.7625 0.6328125
vt 0.59700546875 0.3828125
vt 0.59700546875 0.40625
vt 0.6204429687499999 0.40625
vt 0.6204429687499999 0.3828125
vt 0.1015625 0.5546875
vt 0.1015625 0.53125
vt 0.08125 0.53125
vt 0.08125 0.5546875
vt 0.027994531250000003 0.390625
vt 0.027994531250000003 0.3671875
vt 0.004557031250000003 0.3671875
vt 0.004557031250000003 0.390625
vt 0.7421875 0.609375
vt 0.7421875 0.5859375
vt 0.721875 0.5859375
vt 0.721875 0.609375
vt 0.84375 0.421875
vt 0.84375 0.4375
vt 0.859375 0.4375
vt 0.859375 0.421875
vt 0.1015625 0.5546875
vt 0.1015625 0.5703125
vt 0.121875 0.5703125
vt 0.121875 0.5546875
vt 0.1015625 0.53125
vt 0.1015625 0.5546875
vt 0.121875 0.5546875
vt 0.121875 0.53125
vt 0.7421875 0.65625
vt 0.7421875 0.6328125
vt 0.721875 0.6328125
vt 0.721875 0.65625
vt 0.7421875 0.5859375
vt 0.7421875 0.609375
vt 0.7625 0.609375
vt 0.7625 0.5859375
vt 0.2421875 0.2024359375
vt 0.2421875 0.21875
vt 0.2625 0.21875
vt 0.2625 0.2024359375
vt 0.08125 0.5703125
vt 0.080078125 0.5859375
vt 0.09765625 0.59375
vt 0.1015625 0.5703125
vt 0.78125 0.353125
vt 0.7574890625 0.353125
vt 0.7574890625 0.375
vt 0.78125 0.37187499999999996
vt 0.6462445364580232 0.16353402945548368
vt 0.6462445364580232 0.1875
vt 0.6648782200258943 0.18272431908557996
vt 0.6662554635419768 0.16684459262369022
vt 0.04361953125 0.38593750000000004
vt 0.05928984375 0.3890625
vt 0.05928984375 0.3671875
vt 0.04361953125 0.3671875
vt 0.10429113711797185 0.171875
vt 0.12021222514169334 0.17052007784317014
vt 0.125 0.15625
vt 0.10109456762019091 0.15625
vt 0.65625 0.26249999999999996
vt 0.6800109375 0.265625
vt 0.6800109375 0.24375000000000002
vt 0.65625 0.24375000000000002
vt 0.1015625 0.5703125
vt 0.10546875 0.59375
vt 0.123046875 0.5859375
vt 0.121875 0.5703125
vt 0.58138046875 0.3828125
vt 0.56571171875 0.3828125
vt 0.56571171875 0.4046875
vt 0.58138046875 0.40156250000000004
vt 0.828125 0.8559202699202358
vt 0.8048266965916766 0.8594681907727548
vt 0.8024610129151537 0.875
vt 0.8263173863859011 0.875
vt 0.6800109375 0.265625
vt 0.69485 0.24687499999999996
vt 0.69485 0.24375000000000002
vt 0.6800109375 0.24375000000000002
vt 0.10546875 0.59375
vt 0.1095125 0.608028125
vt 0.1231421875 0.600215625
vt 0.123046875 0.5859375
vt 0.56571171875 0.3828125
vt 0.55143203125 0.3828125
vt 0.55143203125 0.38593750000000004
vt 0.56571171875 0.4046875
vt 0.080078125 0.5859375
vt 0.0799828125 0.600215625
vt 0.0936125 0.608028125
vt 0.09765625 0.59375
vt 0.7574890625 0.353125
vt 0.74265 0.353125
vt 0.74265 0.35624999999999996
vt 0.7574890625 0.375
vt 0.84375 0.9514322785286017
vt 0.84375 0.9275202948922369
vt 0.831690698628048 0.9298802421624413
vt 0.828125 0.953125
vt 0.05928984375 0.3890625
vt 0.07356796874999999 0.37031250000000004
vt 0.07356796874999999 0.3671875
vt 0.05928984375 0.3671875
vn 1 -1.2246467991473623e-16 -7.403799795469003e-15
vn -1 1.2246467991473618e-16 6.959710585618941e-15
vn -7.340853724185877e-16 0.9578262852211514 -0.28734788556634555
vn -1.224646799147353e-16 -1 1.224646799147357e-16
vn -0.4972727124023071 5.067323015401324e-16 -0.8675942885358644
vn 2.9629076969683865e-15 1.224646799147353e-16 1
vn 1 -1.224646799147357e-16 -2.9629076969683865e-15
vn -1.224646799147353e-16 -1 1.224646799147357e-16
vn -1 1.224646799147357e-16 2.9629076969683865e-15
vn 1.224646799147353e-16 1 -1.224646799147357e-16
vn 0.49727271240230375 -1.6714800039607802e-16 -0.8675942885358662
vn -1.224646799147353e-16 -1 1.224646799147357e-16
vn -1.224646799147353e-16 -1 1.224646799147357e-16
vn 2.9629076969683865e-15 1.224646799147353e-16 1
vn 1.224646799147353e-16 1 -1.224646799147357e-16
vn -7.34085372418588e-16 0.9578262852211515 -0.2873478855663456
vn -1.224646799147353e-16 -1 1.224646799147357e-16
vn 0.9863939238321436 -1.409314855106007e-16 -0.1643989873053585
vn 0.05467027122685052 0.9908986659866614 0.12300811026041243
vn -0.9971993098884563 1.3128082136893652e-16 0.07478994824163719
vn -0.08415459724631448 0.9782971929884128 0.18934784380420855
vn -0.9863939238321441 1.006653467932863e-16 -0.16439898730535554
vn -1.224646799147353e-16 -1 1.224646799147357e-16
vn 0.9971993098884566 -1.129625672244338e-16 0.07478994824163109
vn 0.41441298024939593 0.5527130312721293 -0.723028482746557
vn -0.9621619025740854 8.446187056086046e-17 -0.2724783904000758
vn -1.224646799147353e-16 -1 1.224646799147357e-16
vn 0.9999774388237029 -1.2163928748631378e-16 0.006717279478136689
vn -1.224646799147353e-16 -1 1.224646799147357e-16
vn 0.9621619025740841 -1.174044759346427e-15 -0.272478390400081
vn -0.3943998510375746 0.6090577636681896 -0.6881114720864946
vn -0.9999774388237029 6.785359763514874e-16 0.006717279478139817
usemtl m_efc487d7-ee4e-4cca-c257-0fbcc26fed3c
f 143/489/123 144/490/123 137/491/123 135/492/123
f 145/493/124 146/494/124 139/495/124 141/496/124
f 152/497/125 147/498/125 139/499/125 146/500/125
f 148/501/126 149/502/126 145/503/126 141/504/126
f 170/505/127 171/506/127 169/507/127 172/508/127
f 150/509/128 151/510/128 140/511/128 142/512/128
f 144/513/129 143/514/129 136/515/129 138/516/129
f 149/517/130 150/518/130 142/519/130 145/520/130
f 146/521/131 145/522/131 142/523/131 140/524/131
f 151/525/132 152/526/132 146/527/132 140/528/132
f 167/529/133 166/530/133 165/531/133 168/532/133
f 149/533/134 148/534/134 137/535/134 144/536/134
f 150/537/135 149/538/135 144/539/135 138/540/135
f 151/541/136 150/542/136 138/543/136 136/544/136
f 152/545/137 151/546/137 136/547/137 143/548/137
f 147/549/138 152/550/138 143/551/138 135/552/138
f 141/553/139 159/554/139 154/555/139 148/556/139
f 148/557/140 154/558/140 153/559/140 147/560/140
f 147/561/141 153/562/141 160/563/141 139/564/141
f 139/565/142 160/566/142 159/567/142 141/568/142
f 135/569/143 161/570/143 162/571/143 147/572/143
f 147/573/144 162/574/144 163/575/144 148/576/144
f 148/577/145 163/578/145 164/579/145 137/580/145
f 137/581/146 164/582/146 161/583/146 135/584/146
f 161/585/147 165/586/147 166/587/147 162/588/147
f 162/589/148 166/590/148 167/591/148 163/592/148
f 163/593/149 167/594/149 168/595/149 164/596/149
f 164/597/150 168/598/150 165/599/150 161/600/150
f 159/601/151 169/602/151 171/603/151 154/604/151
f 154/605/152 171/606/152 170/607/152 153/608/152
f 153/609/153 170/610/153 172/611/153 160/612/153
f 160/613/154 172/614/154 169/615/154 159/616/154
o cuboid
v 0.08828124999999995 0.05659722222222218 0.21093750000000006
v 0.07499999999999996 0.06562499999999996 0.11093750000000005
v 0.08828124999999995 0.0031249999999999525 0.21093750000000006
v 0.07499999999999996 0.003124999999999954 0.11093750000000005
v 0.18671874999999996 0.05659722222222218 0.21093750000000006
v 0.19999999999999996 0.06562499999999996 0.11093750000000005
v 0.18671874999999996 0.0031249999999999525 0.21093750000000006
v 0.19999999999999996 0.003124999999999954 0.11093750000000005
v 0.08124999999999996 0.07187499999999997 0.24843750000000003
v 0.19374999999999995 0.07187499999999997 0.24843750000000003
v 0.08124999999999996 0.0031249999999999455 0.24843750000000003
v 0.19374999999999995 0.0031249999999999455 0.24843750000000003
v 0.11874999999999997 0.034374999999999954 0.31093750000000003
v 0.15624999999999994 0.034374999999999954 0.31093750000000003
v 0.11874999999999997 0.003124999999999944 0.31093750000000003
v 0.15624999999999994 0.003124999999999944 0.31093750000000003
vt 0.59375 0.734375
vt 0.59375 0.7477437499999999
vt 0.625 0.75
vt 0.625 0.734375
vt 0.6875 0.375
vt 0.71875 0.37274375000000004
vt 0.71875 0.359375
vt 0.6875 0.359375
vt 0.03125 0.28125
vt 0.0279296875 0.25
vt 0.0033203125000000003 0.25
vt 0 0.28125
vt 0.1216796875 0.353125
vt 0.0970703125 0.353125
vt 0.09375 0.37812500000000004
vt 0.125 0.37812500000000004
vt 0.859375 0.90625
vt 0.875 0.90625
vt 0.875 0.890625
vt 0.859375 0.890625
vt 0.1875 0.640625
vt 0.1875 0.65625
vt 0.21875 0.65625
vt 0.21875 0.640625
vt 0.28125 0.125
vt 0.265625 0.125
vt 0.265625 0.140625
vt 0.28125 0.13680625000000002
vt 0.8158203125 0.890625
vt 0.8140625 0.90625
vt 0.8421875 0.90625
vt 0.8404296875 0.890625
vt 0.296875 0.13680625000000002
vt 0.3125 0.140625
vt 0.3125 0.125
vt 0.296875 0.125
vt 0.1216796875 0.353125
vt 0.1234375 0.34375
vt 0.0953125 0.34375
vt 0.0970703125 0.353125
vt 0.515625 0.125
vt 0.5 0.125
vt 0.5 0.13124999999999998
vt 0.515625 0.140625
vt 0.7953125 0.1875
vt 0.7859375 0.171875
vt 0.7765625 0.171875
vt 0.7671875 0.1875
vt 0.59375 0.140625
vt 0.609375 0.13124999999999998
vt 0.609375 0.125
vt 0.59375 0.125
vt 0.1234375 0.34375
vt 0.1140625 0.328125
vt 0.1046875 0.328125
vt 0.0953125 0.34375
vn -0.9912954083909878 0 0.13165642142692807
vn 0.9912954083909878 0 0.13165642142692807
vn 0 0.9959497023519436 0.08991212590677262
vn 0 -1 -1.734723475976807e-17
vn 0 0 1
vn 0 0 -1
vn -0.9828721869343219 0 -0.18428853505018533
vn 0 0.9260923597695476 -0.3772968873135196
vn 0.9828721869343219 0 -0.18428853505018533
vn 0 -1 -1.850371707708595e-16
vn -0.8574929257125443 0 0.5144957554275267
vn 0 0.8574929257125443 0.5144957554275267
vn 0.8574929257125442 0 0.5144957554275266
vn 0 -1 -2.7755575615628914e-17
usemtl m_efc487d7-ee4e-4cca-c257-0fbcc26fed3c
f 175/617/155 173/618/155 174/619/155 176/620/155
f 178/621/156 177/622/156 179/623/156 180/624/156
f 174/625/157 173/626/157 177/627/157 178/628/157
f 179/629/158 175/630/158 176/631/158 180/632/158
f 186/633/159 185/634/159 187/635/159 188/636/159
f 176/637/160 174/638/160 178/639/160 180/640/160
f 175/641/161 183/642/161 181/643/161 173/644/161
f 173/645/162 181/646/162 182/647/162 177/648/162
f 177/649/163 182/650/163 184/651/163 179/652/163
f 179/653/164 184/654/164 183/655/164 175/656/164
f 183/657/165 187/658/165 185/659/165 181/660/165
f 181/661/166 185/662/166 186/663/166 182/664/166
f 182/665/167 186/666/167 188/667/167 184/668/167
f 184/669/168 188/670/168 187/671/168 183/672/168
o Shin
v 0.050000000000000315 0.3687499999999999 0.06344696969696947
v 0.22499999999999967 0.3687499999999999 -0.09375000000000072
v 0.22500000000000048 0.3687499999999999 0.09374999999999922
v 0.2874999999999997 0.09583333333333327 -0.10805555555555642
v 0.2875000000000005 0.16875 0.1569444444444435
v 0.04999999999999976 0.3687499999999999 -0.0937500000000002
v 0.0500000000000005 0.3687499999999999 0.09374999999999975
v -0.012500000000000315 0.09583333333333333 -0.10805555555555553
v -0.012499999999999326 0.16875000000000007 0.1569444444444444
v 0.22734374999999968 0.09583333333333327 -0.1375000000000007
v 0.22916666666666732 0.16875 0.19374999999999928
v 0.04921874999999963 0.09583333333333333 -0.13750000000000018
v 0.045833333333333955 0.16875000000000007 0.1937499999999998
v 0.19097222222222268 0.3687499999999999 0.12499999999999935
v 0.08402777777777827 0.3687499999999999 0.12499999999999965
v 0.19097222222222196 0.3687499999999999 -0.11875000000000062
v 0.08402777777777755 0.3687499999999999 -0.11875000000000031
v 0.2250000000000002 0.3687499999999999 0.043749999999999234
v 0.2875000000000002 0.09583333333333327 0.06178861788617797
v 0.22499999999999998 0.3687499999999999 -0.027651515151515895
v 0.2874999999999999 0.09583333333333327 -0.03785569105691147
v 0.22734375000000012 0.09583333333333327 0.013672086720866478
v 0.04921875000000008 0.09583333333333333 0.01367208672086703
v -0.012499999999999727 0.09583333333333333 0.06178861788617886
v -0.012500000000000023 0.09583333333333333 -0.037855691056910584
v 0.050000000000000044 0.3687499999999999 -0.027651515151515375
v 0.08402777777777809 0.3687499999999999 0.06344696969696936
v 0.08402777777777781 0.3687499999999999 -0.027651515151515475
v 0.19097222222222252 0.3687499999999999 0.06344696969696906
v 0.19097222222222224 0.3687499999999999 -0.027651515151515794
v 0.2273437499999997 -5.551115123125783e-17 -0.11875000000000069
v 0.26874999999999993 -5.551115123125783e-17 -0.030386178861789456
v 0.22734375000000012 -5.551115123125783e-17 0.01530826558265511
v 0.26874999999999977 -5.551115123125783e-17 -0.09263888888888967
v 0.2687500000000002 -5.551115123125783e-17 0.05797764227642193
v 0.2687500000000005 -5.551115123125783e-17 0.14236111111111024
v 0.2177083333333339 0.0017254925949194977 0.17499999999999932
v 0.0572916666666672 0.0017254925949194977 0.1749999999999998
v 0.049218750000000075 0 0.015308265582655663
v 0.006249999999999949 0 -0.03038617886178868
v 0.006250000000000211 0 0.05797764227642271
v 0.006250000000000572 0 0.14236111111111102
v 0.00624999999999971 0 -0.0926388888888889
v 0.04921874999999967 0 -0.11875000000000015
v 0.052825000692442434 0.06578180798403799 0.18230908977600402
v 0.2221749993075587 0.06578180798403799 0.18230908977600352
v 0.2760590897760047 0.06578180798403793 0.14804595871466905
v 0.2760590897760044 0.037357569966243676 0.0594632296292683
v 0.27605908977600413 0.037357569966243676 -0.03329793007336839
v 0.27605908977600396 0.037357569966243676 -0.09864858492693761
v 0.2273437499999997 0.037357569966243676 -0.1260590897760049
v 0.22734375000000012 0.037357569966243676 0.014670453412499724
v 0.049218750000000075 0.03735756996624373 0.014670453412500275
v 0.04921874999999966 0.03735756996624373 -0.12605908977600438
v -0.0010590897760045142 0.03735756996624373 -0.09864858492693679
v -0.0010590897760042546 0.03735756996624373 -0.03329793007336757
v -0.0010590897760039796 0.03735756996624373 0.059463229629269115
v -0.0010590897760036028 0.06578180798403799 0.14804595871466988
v 0.07157500069244235 0.06923279317387693 0.11375022306745333
v 0.2034249993075587 0.06923279317387693 0.11375022306745294
v 0.07505259093355117 0.0017254925949194977 0.10644113329144911
v 0.19994740906644975 0.0017254925949194977 0.10644113329144873
vt 0.3541640625 0.71875
vt 0.3516125 0.6487546875
vt 0.3340625 0.6487546875
vt 0.3376390625 0.71875
vt 0.28918634287074985 0.6175046875
vt 0.28663478037074985 0.6875
vt 0.30315978037074987 0.6875
vt 0.30673634287074986 0.6175046875
vt 0.4859375 0.8837125
vt 0.49444375 0.8837125
vt 0.49444375 0.8609375
vt 0.4859375 0.8671875
vt 0.25137623462444636 0.7430632513600495
vt 0.2406340471244464 0.7544866888600494
vt 0.2406340471244464 0.7700491888600495
vt 0.25137623462444636 0.7765773138600495
vt 0.7123172409906342 0.33350812041831057
vt 0.6436904164757913 0.32693176789009604
vt 0.640625 0.34375
vt 0.7106839511987326 0.34375
vt 0.7421610084362137 0.90625
vt 0.7958874449727099 0.90625
vt 0.796875 0.8947422967075062
vt 0.7425125281821302 0.8892521839557406
vt 0.3062603741870534 0.7544715733998797
vt 0.29590658853304297 0.7430501508466851
vt 0.295913111393903 0.7765642127119112
vt 0.3062634031251934 0.7700340731051178
vt 0.6875 0.96875
vt 0.640625 0.96875
vt 0.640625 1
vt 0.6875 1
vt 0.7505234375 0.32736875
vt 0.75161875 0.28125
vt 0.734375 0.28125
vt 0.739159375 0.328125
vt 0.17743124999999998 0.46875
vt 0.1869796875 0.421875
vt 0.1411453125 0.421875
vt 0.15069375 0.46875
vt 0.52118125 0.8837125
vt 0.5296875 0.8837125
vt 0.5296875 0.8671875
vt 0.52118125 0.8609375
vt 0.49444375 0.8837125
vt 0.52118125 0.8837125
vt 0.52118125 0.8609375
vt 0.49444375 0.8609375
vt 0.1875 0.22812641248089482
vt 0.19329613794733114 0.296875
vt 0.203125 0.29529613591266646
vt 0.203125 0.22527096687098258
vt 0.485546875 0.9375
vt 0.4942484375 1
vt 0.5209859375 1
vt 0.530078125 0.9375
vt 0.3765234375 0.6487546875
vt 0.3720140625 0.71875
vt 0.3845140625 0.71875
vt 0.4003125 0.6665234375
vt 0.3516125 0.6487546875
vt 0.3541640625 0.71875
vt 0.3720140625 0.71875
vt 0.3765234375 0.6487546875
vt 0.28904953884076023 0.7202641672111924
vt 0.3062560746762679 0.7323809488182879
vt 0.30625557700822614 0.7112840738241577
vt 0.2934881970349221 0.703125
vt 0.29590658853304297 0.7430501508466851
vt 0.3062603741870534 0.7544715733998797
vt 0.3062560746762679 0.7323809488182879
vt 0.2890537166270173 0.7202671091934811
vt 0.2513762017685179 0.7430633674006455
vt 0.29590745056558954 0.7430530167580409
vt 0.2890537166270173 0.7202671091934811
vt 0.2578287174705022 0.7202743669914393
vt 0.24063535973193245 0.7324104816203822
vt 0.2578287174705022 0.7202743669914393
vt 0.2533705310411994 0.7031401750573492
vt 0.2406115968748066 0.7113148281350988
vt 0.24063378314954606 0.754486969575758
vt 0.25137623462444636 0.7430632513600495
vt 0.2578287174705022 0.7202743669914393
vt 0.24064374020594917 0.7324045661735651
vt 0.26385978501104446 0.6874992185290341
vt 0.2642754053707499 0.6175046875
vt 0.24013865712925014 0.6352707756522272
vt 0.2563931893312163 0.6874996912899851
vt 0.28663478037074985 0.6875
vt 0.28918634287074985 0.6175046875
vt 0.2642754053707499 0.6175046875
vt 0.26385978037074986 0.6875
vt 0.49444375 0.9064875
vt 0.4859375 0.9064875
vt 0.4859375 0.9140625
vt 0.49444375 0.921875
vt 0.49444375 0.8837125
vt 0.4859375 0.8837125
vt 0.4859375 0.9064875
vt 0.49444375 0.9064875
vt 0.52118125 0.9064875
vt 0.49444375 0.9064875
vt 0.49444375 0.921875
vt 0.52118125 0.921875
vt 0.52118125 0.8837125
vt 0.49444375 0.8837125
vt 0.49444375 0.9064875
vt 0.52118125 0.9064875
vt 0.5296875 0.9015625
vt 0.52118125 0.9064875
vt 0.52118125 0.921875
vt 0.5296875 0.9140625
vt 0.5296875 0.8837125
vt 0.52118125 0.8837125
vt 0.52118125 0.9064875
vt 0.5296875 0.9015625
vt 0.77405234375 0.84475625
vt 0.73887109375 0.84475625
vt 0.73911953125 0.859375
vt 0.77691328125 0.859375
vt 0.14972521110515932 0.4939935965120823
vt 0.13338810646886287 0.49387993758062165
vt 0.13093296427967283 0.5087600924113985
vt 0.14848253957375104 0.5088821866269843
vt 0.076784375 0.15022187499999995
vt 0.0628109375 0.15022187499999995
vt 0.0614078125 0.16505156249999997
vt 0.078125 0.16521249999999998
vt 0.17291527489742328 0.4941549321911888
vt 0.14972521110515932 0.4939935965120823
vt 0.14848253957375102 0.5088821866269843
vt 0.17339287423485225 0.509055490408954
vt 0.1950465248974233 0.5013080571911888
vt 0.17291686045945937 0.49415544466669015
vt 0.17337671161096968 0.5090568011192245
vt 0.19719203572032717 0.5271338096648018
vt 0.7828078125 0.9697140625
vt 0.7668453125 0.9697140625
vt 0.765625 0.99568125
vt 0.78286875 0.9956734375
vt 0.68523125 0.921875
vt 0.64289375 0.921875
vt 0.6411453125 0.953125
vt 0.6869796875 0.953125
vt 0.311328125 0.274965625
vt 0.266796875 0.274965625
vt 0.266796875 0.28958593750000006
vt 0.311328125 0.28958593750000006
vt 0.053385085651938426 0.9314962413551376
vt 0.030195033747067807 0.9316592767501646
vt 0.02971851556300771 0.9465583074721752
vt 0.05462883745489239 0.9463831778870172
vt 0.030195033747067807 0.9316592767501646
vt 0.008065346247067812 0.9388124017501646
vt 0.005946596247067809 0.9647217767501646
vt 0.02972003374706781 0.9465108392501647
vt 0.030029687500000003 0.20408906250000003
vt 0.014065625000000002 0.20408906250000003
vt 0.014006250000000001 0.23004843750000004
vt 0.03125 0.23005624999999996
vt 0.06972218191371765 0.9313813849954555
vt 0.053385085651938426 0.9314962413551376
vt 0.05462883745489239 0.9463831778870172
vt 0.07217840375293219 0.9462597973751629
vt 0.77675390625 0.75100625
vt 0.74157265625 0.75100625
vt 0.73871171875 0.765625
vt 0.77650546875 0.765625
vt 0.015701562500000002 0.15020156249999994
vt 0.001384375000000002 0.15020156249999994
vt 0 0.16521874999999997
vt 0.0170703125 0.16500781249999996
vt 0.78820625 0.59375
vt 0.82116875 0.59375
vt 0.8203 0.578125
vt 0.789075 0.578125
vt 0.7668453125 0.9697140625
vt 0.7828078125 0.9697140625
vt 0.7827703125 0.9535578124999999
vt 0.7676234375 0.953125
vt 0.17291527489742328 0.4941549321911888
vt 0.1950465248974233 0.5013080571911888
vt 0.1936933998974233 0.4847549321911887
vt 0.1726105873974233 0.4846674321911888
vt 0.14972521110515932 0.4939935965120823
vt 0.17291527489742328 0.4941549321911888
vt 0.17260960848475654 0.48463695035676513
vt 0.15051951807274816 0.4844832673065558
vt 0.13338810646886287 0.49387993758062165
vt 0.14972521110515932 0.4939935965120823
vt 0.15051951807274816 0.4844832673065558
vt 0.13495739468163181 0.484375
vt 0.0628109375 0.15022187499999995
vt 0.076784375 0.15022187499999995
vt 0.07592968750000001 0.140625
vt 0.06370624999999999 0.140765625
vt 0.73887109375 0.84475625
vt 0.77405234375 0.84475625
vt 0.77222578125 0.8354171875
vt 0.73871171875 0.8354171875
vt 0.266796875 0.274965625
vt 0.311328125 0.274965625
vt 0.311328125 0.265625
vt 0.266796875 0.265625
vt 0.74157265625 0.75100625
vt 0.77675390625 0.75100625
vt 0.77691328125 0.7416671875
vt 0.74339921875 0.7416671875
vt 0.001384375000000002 0.15020156249999994
vt 0.015701562500000002 0.15020156249999994
vt 0.014826562500000001 0.140725
vt 0.0022703125000000015 0.140625
vt 0.053385085651938426 0.9314962413551376
vt 0.06972218191371765 0.9313813849954555
vt 0.06815218605577432 0.921875
vt 0.05259007064191423 0.9219844079325205
vt 0.030195033747067807 0.9316592767501646
vt 0.053385085651938426 0.9314962413551376
vt 0.05259007064191425 0.9219844079325205
vt 0.03049999155344499 0.9221397100760922
vt 0.008064104294974443 0.9388128031945396
vt 0.030195033747067807 0.9316592767501646
vt 0.030488557223144624 0.922140082467595
vt 0.009434542916124417 0.9223151316158922
vt 0.014065625000000002 0.20408906250000003
vt 0.030029687500000003 0.20408906250000003
vt 0.02925 0.1875
vt 0.014104687500000001 0.18793281250000005
vt 0.8301935433473513 0.21679156780111497
vt 0.828125 0.234375
vt 0.8451226630545615 0.234375
vt 0.8463467536616475 0.21662772074279268
vt 0.61164375 0.5625
vt 0.61633125 0.578125
vt 0.64929375 0.578125
vt 0.65398125 0.5625
vt 0.34375 0.15625
vt 0.359375 0.15502389280099615
vt 0.359375 0.13802705011969763
vt 0.3439155330988124 0.14009581353349043
vn 0.974766060219309 0.22322886875251344 -2.9154795145268455e-15
vn -0.9747660602193088 0.22322886875251358 4.173116295315357e-15
vn 1.224646799147353e-16 1 -1.224646799147357e-16
vn -1.224646799147353e-16 -1 1.224646799147357e-16
vn -0.4276703357993365 0.11613472767636475 -0.8964434220322104
vn -0.6317965355828102 0.3571405416419507 0.6879562276346171
vn -1.224646799147353e-16 -1 1.224646799147357e-16
vn -1.224646799147353e-16 -1 1.224646799147357e-16
vn 0.49670146950808713 0.3654647670365107 0.7872249705411127
vn 2.8417928937977096e-15 0.32507976851104836 0.9456865993048666
vn 1.224646799147353e-16 1 -1.224646799147357e-16
vn 1.224646799147353e-16 1 -1.224646799147357e-16
vn 0.5868102879257949 0.13307752394754846 -0.7987140030101111
vn -2.9475460664453824e-15 0.06854072423084231 -0.9976483193600397
vn 0.974766060219309 0.22322886875251327 -5.6416516428775904e-15
vn 0.9747660602193088 0.22322886875251344 -2.9154795145268447e-15
vn -0.025071006810133595 -0.9996856729080028 1.96709264996517e-16
vn -1.224646799147353e-16 -1 1.224646799147357e-16
vn -6.377261626046019e-17 -0.9998208035579096 0.018930419245648082
vn 0.021203659816326378 -0.9997600868819044 0.005493039985323811
vn -0.02880153280438284 -0.9992181720172361 0.027083508241203615
vn -0.9604644457774895 0.2209826444378128 -0.16933611326179482
vn -0.9747660602193089 0.22322886875251371 2.860804210607835e-15
vn 1.224646799147353e-16 1 -1.224646799147357e-16
vn 1.224646799147353e-16 1 -1.224646799147357e-16
vn 1.224646799147353e-16 1 -1.224646799147357e-16
vn 1.224646799147353e-16 1 -1.224646799147357e-16
vn 1.224646799147353e-16 1 -1.224646799147357e-16
vn 1.224646799147353e-16 1 -1.224646799147357e-16
vn -1 1.224646799147357e-16 2.9629076969683865e-15
vn 0.9813926548600209 -0.19201160638565642 -2.8842612109170617e-15
vn 0.4833947063898719 -0.16808744254323588 -0.8591135952209836
vn 0.9813926548600208 -0.1920116063856564 -2.8842612109170613e-15
vn 0.9790194222728229 -0.19402306199920213 0.062257708157641645
vn 0.5319252042438081 -0.13139594227758303 0.8365349266128519
vn 2.9312618058628993e-15 -0.11043152607484648 0.9938837346736189
vn -3.1008898246646724e-15 -0.017070682919345527 -0.9998542852759432
vn -0.981392654860021 -0.19201160638565573 2.9312904907489294e-15
vn -0.9928745716302737 -0.11346582538943961 0.036408673124599285
vn -0.5320866318263963 -0.12910587214658237 0.8367887965364447
vn -0.981392654860021 -0.19201160638565565 3.921225564718097e-15
vn 1 -1.224646799147357e-16 -2.9629076969683865e-15
vn -0.465983874780495 -0.22867128157429406 -0.8547329837017676
vn 2.93251002432919e-15 -0.10764201567692935 0.994189718545212
vn 0.5318446741224342 -0.13252332216549806 0.836408280500511
vn 0.992874571630274 -0.11346582538943965 0.03640867312459208
vn 0.9813926548600208 -0.19201160638565604 -2.8842612109170613e-15
vn 0.9813926548600208 -0.19201160638565604 -2.8842612109170613e-15
vn 0.4772458040990399 -0.22982140429257247 -0.8481854541306699
vn -1 1.224646799147357e-16 2.9629076969683865e-15
vn -3.100889824664673e-15 -0.017070682919345544 -0.9998542852759433
vn 1 -1.224646799147357e-16 -2.9629076969683865e-15
vn -0.4717568357142111 -0.16930214272808713 -0.8653220628324423
vn -0.9813926548600208 -0.192011606385656 3.921225564718096e-15
vn -0.9813926548600208 -0.1920116063856559 2.9312904907489286e-15
vn -0.9790194222728226 -0.19402306199920166 0.06225770815764859
vn -0.531925204243804 -0.1313959422775826 0.8365349266128543
vn 0.9677938625014189 0.022709738659793678 0.2507175850924475
vn -2.7126242993681614e-16 -0.9987355414245863 -0.05027244071396169
vn -0.9640951363119131 0.021002575721802377 0.26472525371177485
usemtl m_efc487d7-ee4e-4cca-c257-0fbcc26fed3c
f 208/673/169 209/674/169 192/675/169 190/676/169
f 213/677/170 214/678/170 194/679/170 196/680/170
f 214/681/171 216/682/171 205/683/171 194/684/171
f 227/685/172 228/686/172 231/687/172 232/688/172
f 205/689/173 200/690/173 196/691/173 194/692/173
f 201/693/174 203/694/174 195/695/174 197/696/174
f 220/697/175 221/698/175 219/699/175 222/700/175
f 210/701/176 211/702/176 200/703/176 198/704/176
f 202/705/177 199/706/177 193/707/177 191/708/177
f 203/709/178 201/710/178 199/711/178 202/712/178
f 218/713/179 208/714/179 190/715/179 204/716/179
f 216/717/180 218/718/180 204/719/180 205/720/180
f 198/721/181 204/722/181 190/723/181 192/724/181
f 200/725/182 205/726/182 204/727/182 198/728/182
f 207/729/183 206/730/183 191/731/183 193/732/183
f 209/733/184 208/734/184 206/735/184 207/736/184
f 250/737/185 223/738/185 224/739/185 225/740/185
f 221/741/186 220/742/186 223/743/186 250/744/186
f 227/745/187 221/746/187 250/747/187 249/748/187
f 229/749/188 249/750/188 226/751/188 230/752/188
f 228/753/189 227/754/189 249/755/189 229/756/189
f 189/757/190 212/758/190 197/759/190 195/760/190
f 214/761/191 213/762/191 212/763/191 189/764/191
f 215/765/192 189/766/192 195/767/192 203/768/192
f 216/769/193 214/770/193 189/771/193 215/772/193
f 217/773/194 215/774/194 203/775/194 202/776/194
f 218/777/195 216/778/195 215/779/195 217/780/195
f 206/781/196 217/782/196 202/783/196 191/784/196
f 208/785/197 218/786/197 217/787/197 206/788/197
f 239/789/198 240/790/198 210/791/198 198/792/198
f 237/793/199 238/794/199 192/795/199 209/796/199
f 238/797/200 239/798/200 198/799/200 192/800/200
f 236/801/201 237/802/201 209/803/201 207/804/201
f 235/805/202 236/806/202 207/807/202 193/808/202
f 234/809/203 235/810/203 193/811/203 199/812/203
f 233/813/204 234/814/204 199/815/204 201/816/204
f 240/817/205 241/818/205 211/819/205 210/820/205
f 244/821/206 245/822/206 212/823/206 213/824/206
f 245/825/207 246/826/207 197/827/207 212/828/207
f 246/829/208 233/830/208 201/831/208 197/832/208
f 243/833/209 244/834/209 213/835/209 196/836/209
f 241/837/210 242/838/210 200/839/210 211/840/210
f 242/841/211 243/842/211 196/843/211 200/844/211
f 248/845/212 247/846/212 249/847/212 250/848/212
f 235/849/213 234/850/213 225/851/213 224/852/213
f 236/853/214 235/854/214 224/855/214 223/856/214
f 237/857/215 236/858/215 223/859/215 220/860/215
f 238/861/216 237/862/216 220/863/216 222/864/216
f 239/865/217 238/866/217 222/867/217 219/868/217
f 240/869/218 239/870/218 219/871/218 221/872/218
f 241/873/219 240/874/219 221/875/219 227/876/219
f 242/877/220 241/878/220 227/879/220 232/880/220
f 243/881/221 242/882/221 232/883/221 231/884/221
f 244/885/222 243/886/222 231/887/222 228/888/222
f 245/889/223 244/890/223 228/891/223 229/892/223
f 246/893/224 245/894/224 229/895/224 230/896/224
f 233/897/225 246/898/225 230/899/225 226/900/225
f 226/901/226 249/902/226 247/903/226 233/904/226
f 233/905/227 247/906/227 248/907/227 234/908/227
f 234/909/228 248/910/228 250/911/228 225/912/228
o Thigh
v 0.21874999999999978 0.7000000000000002 -0.09000000000000077
v 0.21875000000000033 0.7000000000000002 0.08999999999999925
v 0.21249999999999972 0.375 -0.09000000000000072
v 0.21250000000000027 0.375 0.0899999999999993
v 0.05624999999999984 0.6550000000000002 -0.09000000000000029
v 0.05625000000000037 0.6550000000000002 0.08999999999999973
v 0.05624999999999981 0.375 -0.09000000000000026
v 0.056250000000000334 0.375 0.08999999999999976
v 0.26249999999999973 0.5885 -0.11250000000000085
v 0.2625000000000004 0.5885 0.11249999999999916
v 0.05625000000000043 0.5885 0.11249999999999973
v 0.056249999999999765 0.5885 -0.11250000000000028
v 0.13749999999999962 0.5885 -0.1437500000000005
v 0.13749999999999976 0.7025000000000001 -0.09000000000000054
v 0.13750000000000032 0.7025000000000001 0.08999999999999948
v 0.13750000000000046 0.5885 0.1437499999999995
v 0.13750000000000034 0.375 0.11499999999999952
v 0.13749999999999968 0.375 -0.11500000000000049
vt 0.2375 0.59375
vt 0.29375 0.59375
vt 0.288125 0.53125
vt 0.243125 0.53125
vt 0.0031249999999999993 0.59275
vt 0.059375 0.59275
vt 0.053750000000000006 0.5393749999999999
vt 0.00875 0.5393749999999999
vt 0.1875 1
vt 0.234375 1
vt 0.234375 0.984375
vt 0.1875 0.984375
vt 0.10234375000000001 0.40625
vt 0.10234375000000001 0.46375
vt 0.12109375 0.4575
vt 0.12109375 0.4125
vt 0.32890625 0.35957031250000004
vt 0.3271640625 0.4134
vt 0.359375 0.4134
vt 0.3486125 0.359375
vt 0.19531609157638075 0.375
vt 0.14145877773781051 0.375
vt 0.140625 0.39389624947077384
vt 0.1942735069827197 0.40625
vt 0.60625 0.421875
vt 0.55 0.421875
vt 0.555625 0.453125
vt 0.600625 0.453125
vt 0.546875 0.296875
vt 0.546875 0.26536534591143135
vt 0.515625 0.26869726203208943
vt 0.5277932771269805 0.29630856103344494
vt 0.059375 0.59275
vt 0.0031249999999999993 0.59275
vt 0.00875 0.609375
vt 0.053750000000000006 0.609375
vt 0.46875 0.295999388152683
vt 0.5 0.296875
vt 0.5 0.27655388596111796
vt 0.47295145432275587 0.26476475852122383
vt 0.40625 0.21875
vt 0.40625 0.18724112100428825
vt 0.390625 0.19057256477313944
vt 0.39128159970657606 0.20800881339448796
vt 0.625 0.453125
vt 0.671875 0.453125
vt 0.671875 0.421875
vt 0.625 0.421875
vt 0.7809908200612876 0.234375
vt 0.8125 0.234375
vt 0.8017591892635139 0.2134403171938135
vt 0.7843235511491614 0.21295687998628965
vt 0.10326247904844219 0.2508345605543145
vt 0.10326247904844219 0.30469169039401467
vt 0.125 0.3036492945332281
vt 0.1244499486946578 0.25
vt 0.10234375000000001 0.46375
vt 0.10234375000000001 0.40625
vt 0.08203125 0.4125
vt 0.08203125 0.4575
vt 0.4765663237322564 0.640625
vt 0.42270919092336534 0.640625
vt 0.421875 0.6557984616743968
vt 0.47552362280490684 0.65625
vn 0.9736558739933148 -0.22802245292583515 -2.8569277865423387e-15
vn -1 1.224646799147357e-16 2.9629076969683865e-15
vn 0.03075467578697342 0.9995269630766537 -2.135300152063207e-16
vn -1.224646799147353e-16 -1 1.224646799147357e-16
vn 0.24049209717611786 -0.12953906873655213 -0.9619683887044831
vn 0.3136784949626231 -0.12672023508443078 0.9410354848878603
vn 0.9309036305148358 0.3652648774441615 -2.8029135782885163e-15
vn 0.22055736893026648 0.4159634589474278 0.8822294757210564
vn -1 1.224646799147357e-16 2.9629076969683865e-15
vn 0.013120888860943872 0.42642888798077233 -0.9044259205545697
vn -0.3285711630990061 0.40278789511478663 -0.8542850240574081
vn -0.5046965873311549 0.8632967941190827 1.3896460376739453e-15
vn -0.24191307791406988 0.41379868590565133 0.877638143130127
vn -0.35617690180213984 -0.12470362252791616 0.9260599446855715
vn -1.224646799147353e-16 -1 1.224646799147357e-16
vn -0.29167991335892357 -0.127652655290277 -0.9479597184164908
usemtl m_efc487d7-ee4e-4cca-c257-0fbcc26fed3c
f 259/913/229 260/914/229 254/915/229 253/916/229
f 261/917/230 262/918/230 257/919/230 258/920/230
f 264/921/231 265/922/231 252/923/231 251/924/231
f 267/925/232 268/926/232 253/927/232 254/928/232
f 268/929/233 263/930/233 259/931/233 253/932/233
f 266/933/234 267/934/234 254/935/234 260/936/234
f 260/937/235 259/938/235 251/939/235 252/940/235
f 265/941/236 266/942/236 260/943/236 252/944/236
f 262/945/237 261/946/237 256/947/237 255/948/237
f 263/949/238 264/950/238 251/951/238 259/952/238
f 264/953/239 263/954/239 262/955/239 255/956/239
f 265/957/240 264/958/240 255/959/240 256/960/240
f 266/961/241 265/962/241 256/963/241 261/964/241
f 267/965/242 266/966/242 261/967/242 258/968/242
f 268/969/243 267/970/243 258/971/243 257/972/243
f 263/973/244 268/974/244 257/975/244 262/976/244
o Pelvis
v -0.13749999999999984 0.7874999999999995 -0.10036764705882407
v -0.13750000000000046 0.7874999999999995 0.10036764705882299
v -0.13749999999999982 0.6662914078674947 -0.10036764705882406
v -0.13750000000000043 0.6662914078674947 0.100367647058823
v 0.13750000000000018 0.7874999999999995 -0.10036764705882326
v 0.13749999999999957 0.7874999999999995 0.10036764705882381
v 0.1375000000000002 0.6662914078674947 -0.10036764705882324
v 0.1374999999999996 0.6662914078674947 0.10036764705882383
v -0.04583333333333308 0.60625 -0.13125000000000026
v -0.04583333333333386 0.60625 0.13124999999999976
v 0.04583333333333361 0.60625 -0.13124999999999998
v 0.04583333333333283 0.60625 0.13125000000000003
v -0.04583333333333388 0.7874999999999995 0.13124999999999973
v 0.04583333333333281 0.7874999999999995 0.13125
v -0.0458333333333331 0.7874999999999995 -0.13125000000000028
v 0.04583333333333359 0.7874999999999995 -0.13125
v -0.020833333333334203 0.56875 0.2499999999999999
v 0.020833333333332482 0.56875 0.25
v 0.020833333333332496 0.6374999999999995 0.24375
v -0.02083333333333419 0.6374999999999995 0.24374999999999988
vt 0.65625 0.625
vt 0.609375 0.625
vt 0.609375 0.59375
vt 0.65625 0.59375
vt 0.53125 0.359375
vt 0.53125 0.390625
vt 0.484375 0.390625
vt 0.484375 0.359375
vt 0.1453125 0.5670953125
vt 0.1682296875 0.559375
vt 0.1682296875 0.625
vt 0.1453125 0.6172796875
vt 0.5608453125 1
vt 0.553125 0.96875
vt 0.61875 0.96875
vt 0.6110296875 1
vt 0.546875 0.32907343749999995
vt 0.578125 0.3140625
vt 0.578125 0.359375
vt 0.546875 0.359375
vt 0.625 0.359375
vt 0.59375 0.359375
vt 0.59375 0.3140625
vt 0.625 0.32907343749999995
vt 0.5608453125 0.953125
vt 0.553125 0.921875
vt 0.61875 0.921875
vt 0.6110296875 0.953125
vt 0.40625 0.296875
vt 0.390625 0.296875
vt 0.390625 0.234375
vt 0.40625 0.234375
vt 0.640625 0.37594843749999995
vt 0.671875 0.3609375
vt 0.671875 0.40625
vt 0.640625 0.40625
vt 0.28125 0.890625
vt 0.296875 0.890625
vt 0.296875 0.90625
vt 0.28125 0.90625
vt 0.2140625 0.6172796875
vt 0.1911453125 0.625
vt 0.1911453125 0.559375
vt 0.2140625 0.5670953125
vt 0.1911453125 0.625
vt 0.1682296875 0.625
vt 0.1682296875 0.559375
vt 0.1911453125 0.559375
vt 0.03125 0.34375
vt 0 0.34375
vt 0 0.2984375
vt 0.03125 0.31344843749999995
vt 0.515625 0.25
vt 0.5 0.25
vt 0.5 0.203125
vt 0.515625 0.203125
vt 0.7760421875 0.78125
vt 0.7864578125 0.78125
vt 0.7927078125 0.8125
vt 0.7697921875 0.8125
vt 0.608967687424159 0.84375
vt 0.5944068731436887 0.834485515748479
vt 0.6203274539722378 0.8161441057678624
vt 0.65625 0.84375
vt 0.22301769656920975 0.24958516890493265
vt 0.23334195467225732 0.2482086011578596
vt 0.24573230343079025 0.29384638575178923
vt 0.22301769656920975 0.296875
vt 0.4089445606951826 0.42252610373059907
vt 0.421875 0.43708448072931927
vt 0.421875 0.484375
vt 0.390625 0.4484432038999743
vn -1 -1.224646799147357e-16 -2.9629076969683865e-15
vn 1 1.224646799147357e-16 2.9629076969683865e-15
vn -1.224646799147353e-16 1 -1.224646799147357e-16
vn 0.547923688440741 -0.8365283208866833 1.7258924868893783e-15
vn 0.3192667777280183 -7.695657244431613e-17 -0.9476648799228387
vn 0.31926677772801265 1.5515437992805709e-16 0.9476648799228407
vn -0.5479236884407408 -0.8365283208866834 -1.5210021407753805e-15
vn 1.224646799147353e-16 -1 1.224646799147357e-16
vn -0.3192667777280184 7.695657244431611e-17 0.9476648799228387
vn -2.9618270779616256e-15 0.09053574604251934 0.995893206467704
vn -1.224646799147353e-16 1 -1.224646799147357e-16
vn -1.224646799147353e-16 1 -1.224646799147357e-16
vn -0.31926677772801276 -1.551543799280571e-16 -0.9476648799228407
vn 2.9629076969683865e-15 -1.224646799147353e-16 -1
vn 1.0090046437173374e-15 -0.9535826651341418 -0.30113136793709705
vn 0.9771253685040591 0.019253701842444817 0.2117907202668927
vn -2.4438049655235503e-15 0.6000000000000002 0.7999999999999998
vn -0.969242771551479 0.022281443024172013 0.24509587326588836
usemtl m_efc487d7-ee4e-4cca-c257-0fbcc26fed3c
f 270/977/245 269/978/245 271/979/245 272/980/245
f 275/981/246 273/982/246 274/983/246 276/984/246
f 273/985/247 284/986/247 282/987/247 274/988/247
f 276/989/248 280/990/248 279/991/248 275/992/248
f 275/993/249 279/994/249 284/995/249 273/996/249
f 274/997/250 282/998/250 280/999/250 276/1000/250
f 271/1001/251 277/1002/251 278/1003/251 272/1004/251
f 277/1005/252 279/1006/252 280/1007/252 278/1008/252
f 272/1009/253 278/1010/253 281/1011/253 270/1012/253
f 285/1013/254 286/1014/254 287/1015/254 288/1016/254
f 270/1017/255 281/1018/255 283/1019/255 269/1020/255
f 281/1021/256 282/1022/256 284/1023/256 283/1024/256
f 269/1025/257 283/1026/257 277/1027/257 271/1028/257
f 283/1029/258 284/1030/258 279/1031/258 277/1032/258
f 286/1033/259 285/1034/259 278/1035/259 280/1036/259
f 287/1037/260 286/1038/260 280/1039/260 282/1040/260
f 288/1041/261 287/1042/261 282/1043/261 281/1044/261
f 285/1045/262 288/1046/262 281/1047/262 278/1048/262
o Body
v -0.1687499999999998 0.9273375427735617 -0.14285714285714354
v -0.16875000000000062 0.9429625427735617 0.14285714285714227
v -0.1214999999999999 0.7937500000000004 -0.08928571428571479
v -0.12150000000000043 0.7937500000000004 0.08928571428571382
v 0.16875000000000034 0.9273375427735617 -0.14285714285714254
v 0.1687499999999995 0.9429625427735617 0.14285714285714327
v 0.12150000000000018 0.7937500000000004 -0.08928571428571407
v 0.12149999999999965 0.7937500000000004 0.08928571428571454
v -5.012475887799218e-16 0.7937500000000004 0.12499999999999993
v 2.394793354621751e-16 0.7937500000000004 -0.1250000000000002
v 4.083013108563391e-16 0.9273375427735617 -0.1875000000000002
v -0.1589999999999999 0.8605437713867812 -0.10267857142857205
v -0.1590000000000005 0.8605437713867812 0.10267857142857083
v 0.1589999999999996 0.8605437713867812 0.10267857142857177
v 0.15900000000000022 0.8605437713867812 -0.1026785714285711
v 2.8685397694715217e-16 0.8605437713867812 -0.14375000000000018
v 0.19375000000000034 1.1063925941018364 -0.1428571428571425
v 3.837616773567987e-16 1.0839688569339039 -0.18750000000000022
v -7.292422196300144e-16 1.105843856933904 0.1874999999999999
v 0.1937499999999995 1.1220175941018364 0.14285714285714332
v -0.19375000000000067 1.1220175941018364 0.14285714285714216
v -0.19374999999999984 1.1063925941018364 -0.14285714285714365
v -0.1220625000000006 1.141841036948532 0.12521350931676972
v 1.3094835756112635e-16 1.1277188569339045 -0.10217391304347843
v -6.319198606121202e-16 1.1277188569339045 0.15529891304347818
v -0.12206250000000002 1.141841036948532 -0.07208850931677073
v 0.12206250000000007 1.141841036948532 -0.07208850931677
v 0.12206249999999949 1.141841036948532 0.12521350931677044
v -0.09095488903426259 1.1997293620891134 0.11065605590062072
v 6.404047976024312e-17 1.1997293620891134 -0.08179347826086976
v -5.780570442430964e-16 1.1997293620891134 0.13491847826086945
v -0.09095488903426209 1.1997293620891134 -0.05753105590062158
v 0.09095488903426206 1.1997293620891134 -0.05753105590062104
v 0.09095488903426156 1.1997293620891134 0.11065605590062125
v -7.047025861304741e-16 0.9429625427735617 0.18749999999999992
v -5.649819859312592e-16 0.8605437713867812 0.1437499999999999
vt 0.772321875 0.25
vt 0.7756703125 0.265625
vt 0.7243296875 0.265625
vt 0.727678125 0.25
vt 0.319196875 0.234375
vt 0.3225453125 0.25
vt 0.2712046875 0.25
vt 0.274553125 0.234375
vt 0.046176562500000004 0.44705937500000004
vt 0.0234375 0.453125
vt 0.0234375 0.41066562500000003
vt 0.046176562500000004 0.41673125
vt 0.467875 0.912946875
vt 0.4375 0.921875
vt 0.4375 0.859375
vt 0.467875 0.868303125
vt 0.413634375 0.359375
vt 0.421875 0.3769843749999999
vt 0.3808203125 0.3769843749999999
vt 0.3819921875 0.35970781249999995
vt 0.5242578125 0.406525
vt 0.5254296875 0.423828125
vt 0.484375 0.423828125
vt 0.492615625 0.40625
vt 0.585509375 0.859375
vt 0.59375 0.8769843749999999
vt 0.5526953125 0.8769843749999999
vt 0.5538671875 0.8597078125
vt 0.407125 0.868303125
vt 0.4375 0.859375
vt 0.4375 0.921875
vt 0.407125 0.912946875
vt 0.7898828125 0.3909
vt 0.7910546875 0.408203125
vt 0.75 0.408203125
vt 0.758240625 0.390625
vt 0.0006984374999999994 0.41673125
vt 0.0234375 0.41066562500000003
vt 0.0234375 0.453125
vt 0.0006984374999999994 0.44705937500000004
vt 0.3158453181410247 0.8450015625
vt 0.32588906814102464 0.828125
vt 0.3772296931410246 0.828125
vt 0.38727344314102463 0.848865625
vt 0.484528125 0.44687968749999996
vt 0.484375 0.423828125
vt 0.5254296875 0.423828125
vt 0.528165625 0.44699374999999997
vt 0.549959375 0.9001515625000001
vt 0.5526953125 0.8769843749999999
vt 0.59375 0.8769843749999999
vt 0.593596875 0.9000343749999999
vt 0.30021926535607574 0.9426234375
vt 0.31026301535607576 0.921875
vt 0.36160364035607573 0.921875
vt 0.37164739035607575 0.93874375
vt 0.531403125 0.546740625
vt 0.53125 0.53125
vt 0.5723046875 0.53125
vt 0.575040625 0.546875
vt 0.37808437500000003 0.3967578125
vt 0.3808203125 0.3769843749999999
vt 0.421875 0.3769843749999999
vt 0.421721875 0.3966218749999999
vt 0.5653262069917218 0.666221116333072
vt 0.515625 0.671875
vt 0.5216692676823567 0.625
vt 0.5652911601721894 0.625
vt 0.578125 0.84375
vt 0.52841875 0.83970625
vt 0.52841875 0.796875
vt 0.572034375 0.796875
vt 0.37165573464392426 0.9839421059741333
vt 0.30022566953234314 0.9878218988531651
vt 0.30021926535607574 0.9426234375
vt 0.3716493304676569 0.9387436446209683
vt 0.3622024607784092 0.4802833945869799
vt 0.3125 0.484375
vt 0.3185457852996184 0.4375
vt 0.36216455421797655 0.4375
vt 0.578125 0.78125
vt 0.52841875 0.77564375
vt 0.52841875 0.734375
vt 0.572034375 0.734375
vt 0.3872796818589753 0.8940642373159366
vt 0.31584877222295393 0.8902000241748882
vt 0.3158453181410247 0.8450015625
vt 0.38727622777704607 0.8488657756410483
vt 0.47487965029122114 0.7052421875
vt 0.4433590734535283 0.707836365924474
vt 0.4289062872087789 0.6872739318906249
vt 0.4786762462527238 0.6843546704414618
vt 0.08485019021970246 0.515625
vt 0.05448940269759684 0.5067653250170686
vt 0.05491756803591136 0.4834896946732927
vt 0.10311684730240316 0.4968667962410762
vt 0.698490625 0.75
vt 0.660884375 0.75
vt 0.6439734375 0.73000625
vt 0.7154015625 0.7317374999999999
vt 0.05448940269759684 0.5067653250170686
vt 0.023823777697596842 0.5145012625170686
vt 0.006258152697596844 0.49508095001706853
vt 0.05491752769759684 0.4834918875170686
vt 0.5034765252912212 0.71875
vt 0.47487965029122114 0.7052421875
vt 0.47868277529122116 0.68431875
vt 0.5242187127912211 0.7046140625
vt 0.07219375366923274 0.28950948065252546
vt 0.07164593232506346 0.32711174030320833
vt 0.05280624633076726 0.34375
vt 0.05280624633076726 0.27231429505208027
vt 0.7996077800408521 0.6277986831237775
vt 0.7973075391908704 0.651220376031693
vt 0.78125 0.65625
vt 0.78125 0.6246769539200043
vt 0.6981693091497315 0.21633103348212956
vt 0.6747595802400229 0.21875
vt 0.6715358178994573 0.203125
vt 0.703125 0.203125
vt 0.6792265625 0.703125
vt 0.6488984375 0.703125
vt 0.645259375 0.6875
vt 0.682865625 0.6875
vt 0.5808577800408521 0.1902986831237775
vt 0.5785575391908704 0.21372037603169303
vt 0.5625 0.21875
vt 0.5625 0.18717695392000433
vt 0.8231693091497315 0.32570603348212956
vt 0.7997595802400229 0.328125
vt 0.7965358178994573 0.3125
vt 0.828125 0.3125
vt 0.8042265625 0.9375
vt 0.7738984375 0.9375
vt 0.770259375 0.921875
vt 0.807865625 0.921875
vn -0.8719740755932729 -0.48955205187319695 -2.5236258647979494e-15
vn 0.8719740755932731 -0.4895520518731967 2.6435315354664553e-15
vn -1.224646799147353e-16 1 -1.224646799147357e-16
vn 1.224646799147353e-16 -1 1.224646799147357e-16
vn -0.23718034598585727 -0.3172683300314862 -0.9181973046339557
vn -0.24134613110145062 -0.2622786640315065 0.9343243266640388
vn 0.23718034598585733 -0.31726833003148586 0.9181973046339558
vn 1.224646799147353e-16 -1 1.224646799147357e-16
vn 0.24134613110145073 -0.2622786640315067 -0.9343243266640389
vn -1.224646799147353e-16 1 -1.224646799147357e-16
vn -0.9895134216717439 -0.14444095101970764 -2.914148018491526e-15
vn -0.2235556333658092 -0.448347962510065 0.8654518954300611
vn 0.2224421808045861 -0.4571159556853613 0.8611413816887207
vn 0.9930753528750698 -0.11747911947259307 2.956777649466017e-15
vn 0.2126646153711559 -0.5262777239235972 -0.8232894501151077
vn -0.21120929336174452 -0.5355652996355796 -0.8176554556926068
vn 0.22791359725074975 -0.031821721247184624 -0.9731612252063321
vn 0.22453152656314768 1.4683494937726557e-16 0.9744668252840745
vn 0.990364783507371 -0.13827657697459522 0.007562000303301133
vn -0.22692963118780515 -0.031684338071501145 0.9733956262537539
vn -0.22453152656314768 -1.4683494937726557e-16 -0.9744668252840745
vn -0.990364783507371 -0.13827657697459544 0.007562000303295263
vn -0.06289497624282515 0.7807535555956638 0.6216655912853335
vn -0.009504214503954724 0.8898067745685809 -0.4562385054316673
vn -0.44325482136443073 0.8963956511146106 -1.4230999284297306e-15
vn 0.005569301103527964 0.8963367389075515 -0.4433389599051657
vn 0.04275993679088053 0.8264295168497747 0.5614141443578778
vn 0.26652342483183816 0.9638284411740025 6.716493653155359e-16
vn -0.24081237190836868 0.356426534537954 0.9027566266791567
vn -0.24861190389452967 0.2637736423230468 -0.9319954865006433
vn -0.8808711210654016 0.47335617464334734 -2.6679092370552108e-15
vn 0.24081237190836838 0.35642653453795337 -0.902756626679157
vn 0.24861190389452986 0.26377364232304734 0.9319954865006431
vn 0.8808711210654013 0.47335617464334756 2.551970412228488e-15
usemtl m_efc487d7-ee4e-4cca-c257-0fbcc26fed3c
f 292/1049/263 301/1050/263 300/1051/263 291/1052/263
f 295/1053/264 303/1054/264 302/1055/264 296/1056/264
f 317/1057/265 319/1058/265 318/1059/265 320/1060/265
f 291/1061/266 298/1062/266 297/1063/266 292/1064/266
f 291/1065/267 300/1066/267 304/1067/267 298/1068/267
f 297/1069/268 324/1070/268 301/1071/268 292/1072/268
f 296/1073/269 302/1074/269 324/1075/269 297/1076/269
f 296/1077/270 297/1078/270 298/1079/270 295/1080/270
f 298/1081/271 304/1082/271 303/1083/271 295/1084/271
f 321/1085/272 318/1086/272 319/1087/272 322/1088/272
f 289/1089/273 300/1090/273 301/1091/273 290/1092/273
f 290/1093/274 301/1094/274 324/1095/274 323/1096/274
f 323/1097/275 324/1098/275 302/1099/275 294/1100/275
f 294/1101/276 302/1102/276 303/1103/276 293/1104/276
f 293/1105/277 303/1106/277 304/1107/277 299/1108/277
f 299/1109/278 304/1110/278 300/1111/278 289/1112/278
f 306/1113/279 305/1114/279 293/1115/279 299/1116/279
f 308/1117/280 307/1118/280 323/1119/280 294/1120/280
f 305/1121/281 308/1122/281 294/1123/281 293/1124/281
f 307/1125/282 309/1126/282 290/1127/282 323/1128/282
f 310/1129/283 306/1130/283 299/1131/283 289/1132/283
f 309/1133/284 310/1134/284 289/1135/284 290/1136/284
f 313/1137/285 311/1138/285 309/1139/285 307/1140/285
f 314/1141/286 312/1142/286 306/1143/286 310/1144/286
f 311/1145/287 314/1146/287 310/1147/287 309/1148/287
f 312/1149/288 315/1150/288 305/1151/288 306/1152/288
f 316/1153/289 313/1154/289 307/1155/289 308/1156/289
f 315/1157/290 316/1158/290 308/1159/290 305/1160/290
f 319/1161/291 317/1162/291 311/1163/291 313/1164/291
f 320/1165/292 318/1166/292 312/1167/292 314/1168/292
f 317/1169/293 320/1170/293 314/1171/293 311/1172/293
f 318/1173/294 321/1174/294 315/1175/294 312/1176/294
f 322/1177/295 319/1178/295 313/1179/295 316/1180/295
f 321/1181/296 322/1182/296 316/1183/296 315/1184/296