# Made in Blockbench 5.1.5
mtllib ShogunBody.mtl

o Body
v -0.16874999999999984 0.9273375427735615 -0.11785714285714353
v -0.16875000000000054 0.9273375427735615 0.11160714285714224
v -0.1214999999999999 0.7937500000000002 -0.08928571428571479
v -0.12150000000000043 0.7937500000000002 0.08928571428571382
v 0.1687500000000003 0.9273375427735615 -0.11785714285714254
v 0.1687499999999996 0.9273375427735615 0.11160714285714324
v 0.12150000000000018 0.7937500000000002 -0.08928571428571407
v 0.12149999999999965 0.7937500000000002 0.08928571428571454
v -6.101982099765442e-16 0.9273375427735615 0.15624999999999992
v -5.012475887799218e-16 0.7937500000000002 0.12499999999999993
v 2.394793354621751e-16 0.7937500000000002 -0.1250000000000002
v 3.3422861843212945e-16 0.9273375427735615 -0.1625000000000002
v -0.12149999999999991 0.860543771386781 -0.0892857142857148
v -0.12150000000000044 0.860543771386781 0.0892857142857138
v -5.09427466613102e-16 0.860543771386781 0.12499999999999992
v 0.12149999999999964 0.860543771386781 0.08928571428571452
v 0.12150000000000016 0.860543771386781 -0.08928571428571408
v 2.3129945762899496e-16 0.860543771386781 -0.1250000000000002
v 0.16875000000000026 1.087642594101836 -0.11785714285714255
v 3.09688984932589e-16 1.1277188569339043 -0.16250000000000023
v -6.347378434760845e-16 1.1277188569339043 0.1562499999999999
v 0.16874999999999957 1.087642594101836 0.11160714285714322
v -0.16875000000000057 1.087642594101836 0.11160714285714222
v -0.16874999999999987 1.087642594101836 -0.11785714285714355
v -0.10631250000000043 1.1043410369485311 0.07521350931676972
v 1.4020744411415267e-16 1.1277188569339043 -0.10529891304347846
v -4.837744757637007e-16 1.1277188569339043 0.10529891304347813
v -0.10631249999999999 1.1043410369485311 -0.07521350931677069
v 0.1063125000000001 1.1043410369485311 -0.07521350931677005
v 0.10631249999999966 1.1043410369485311 0.07521350931677036
v -0.09095488903426244 1.1826492063737828 0.06065605590062068
v 7.35040632590989e-17 1.1793095178044433 -0.08491847826086978
v -4.2970716244884735e-16 1.1793095178044433 0.08491847826086941
v -0.09095488903426208 1.1826492063737828 -0.060656055900621585
v 0.09095488903426208 1.1826492063737828 -0.06065605590062104
v 0.09095488903426172 1.1826492063737828 0.060656055900621224
v 4.915945715975925e-16 1.1277188569339045 -0.22292140206004382
v 0.15348449789948287 1.092642594101836 -0.1782785449171862
v 0.1534844978994829 0.9523375427735616 -0.17827854491718617
v 5.130725880992645e-16 0.9523375427735616 -0.2229214020600438
v -0.15348449789948215 1.092642594101836 -0.1782785449171871
v -0.15348449789948213 0.9523375427735616 -0.1782785449171871
v 0.15348449789948185 1.092642594101836 0.17202854491718678
v -8.152021554212487e-16 1.1277188569339045 0.21667140206004348
v -7.937241389195766e-16 0.9523375427735616 0.2166714020600435
v 0.15348449789948188 0.9523375427735616 0.1720285449171868
v -0.15348449789948318 1.092642594101836 0.1720285449171859
v -0.15348449789948315 0.9523375427735616 0.1720285449171859
v 0.007361119295631917 0.8331667982291908 -0.24822931851917063
v 0.1608456171951143 0.8487917982291908 -0.203586461376313
v 0.17611111929563167 0.8237917982291907 -0.14316505931626936
v 0.007361119295631738 0.8081667982291907 -0.18780791645912703
v -0.1603921855194773 0.8480646411141117 -0.20202753935561935
v -0.0069076876199946425 0.8324396411141117 -0.24667039649847608
v -0.006907687619994822 0.8074396411141116 -0.18624899443843249
v -0.17565768761999503 0.8230646411141116 -0.1416061372955758
v 0.16039218551947704 0.8480646411141117 0.1957775393556191
v 0.0069076876199943875 0.8324396411141117 0.2404203964984758
v 0.0069076876199945705 0.8074396411141116 0.1799989944384322
v 0.17565768761999478 0.8230646411141116 0.13535613729557552
v -0.007361119295632161 0.8331667982291908 0.24197931851917034
v -0.16084561719511453 0.8487917982291908 0.19733646137631275
v -0.17611111929563192 0.8237917982291907 0.13691505931626907
v -0.007361119295631977 0.8081667982291907 0.18155791645912675
vt 0.4453125 0.765625
vt 0.4453125 0.7734375
vt 0.421875 0.7734375
vt 0.421875 0.765625
vt 0.4453125 0.75
vt 0.4453125 0.7578125
vt 0.421875 0.7578125
vt 0.421875 0.75
vt 0.16038671875 0.6875
vt 0.15735390625 0.67612265625
vt 0.17858359375 0.67612265625
vt 0.17555078125 0.6875
vt 0.0620625 0.8080359375
vt 0.046875 0.8125
vt 0.046875 0.78125
vt 0.0620625 0.7857140625
vt 0.171875 0.6953125
vt 0.171875 0.703125
vt 0.15625 0.703125
vt 0.15625 0.6953125
vt 0.3984375 0.90625
vt 0.3984375 0.9140625
vt 0.3828125 0.9140625
vt 0.3828125 0.90625
vt 0.0546875 0.53125
vt 0.0546875 0.5390625
vt 0.0390625 0.5390625
vt 0.0390625 0.53125
vt 0.0316875 0.7857140625
vt 0.046875 0.78125
vt 0.046875 0.8125
vt 0.0316875 0.8080359375
vt 0.4765625 0.953125
vt 0.4765625 0.9609375
vt 0.4609375 0.9609375
vt 0.4609375 0.953125
vt 0.17555078125 0.6647453125
vt 0.17858359375 0.67612265625
vt 0.15735390625 0.67612265625
vt 0.16038671875 0.6647453125
vt 0.40753359375 0.90625
vt 0.4111046875 0.8984375
vt 0.4334265625 0.8984375
vt 0.43621640625 0.90625
vt 0.3203125 0.5686876612441434
vt 0.3125 0.5636900493810391
vt 0.31269900355442903 0.5478616128210695
vt 0.3203125 0.546875
vt 0.4313140625 0.67944375
vt 0.43241562499999997 0.671875
vt 0.4482453125 0.671875
vt 0.453125 0.6796875
vt 0.41534609375 0.890625
vt 0.4181359375 0.8828125
vt 0.4404578125 0.8828125
vt 0.44402890625 0.890625
vt 0.4375 0.9436881315385831
vt 0.4296875 0.9388905312559255
vt 0.42991201199002077 0.9230624359594599
vt 0.4375 0.921875
vt 0.4313140625 0.66378046875
vt 0.4326359375 0.65625
vt 0.448465625 0.65625
vt 0.453125 0.6640625
vt 0.19186443416045154 0.7734375
vt 0.17188396541045153 0.769053125
vt 0.17188396541045153 0.75151484375
vt 0.19186443416045154 0.75151484375
vt 0.25 0.862803125
vt 0.23001953125 0.8671875
vt 0.23001953125 0.84526484375
vt 0.25 0.84526484375
vt 0.14315801419537733 0.905625
vt 0.11447520169537732 0.905625
vt 0.11447520169537732 0.88558671875
vt 0.14315801419537733 0.88558671875
vt 0.24655141207849143 0.8203125
vt 0.22657094332849145 0.815928125
vt 0.22657094332849145 0.79838984375
vt 0.24655141207849143 0.79838984375
vt 0.0546875 0.769053125
vt 0.03470703125 0.7734375
vt 0.03470703125 0.75151484375
vt 0.0546875 0.75151484375
vt 0.11971985022865643 0.9759375
vt 0.09103703772865643 0.9759375
vt 0.09103703772865643 0.95589921875
vt 0.11971985022865643 0.95589921875
vt 0.19325418017628293 0.8593574316631711
vt 0.1894711344763437 0.8457577868548016
vt 0.19401687032606119 0.8376766600286774
vt 0.19961452995048373 0.8593501568658737
vt 0.17066801133662293 0.84576615095204
vt 0.16690707383662295 0.85937240095204
vt 0.15975707383662294 0.85937240095204
vt 0.16533754258662295 0.8376950572020401
vt 0.1894711344763437 0.8457577868548016
vt 0.17066801133662293 0.84576615095204
vt 0.1653339494157381 0.8376896166262798
vt 0.19401675907801613 0.8376768577985414
vt 0.044035142352916445 0.8437345363510973
vt 0.04025353770516733 0.8301337599125808
vt 0.045580725323083174 0.8220525550210709
vt 0.051176444842547464 0.8437256949408503
vt 0.02145041431454227 0.8301415395368461
vt 0.017689476814542273 0.8437477895368461
vt 0.011320726814542274 0.8437477895368461
vt 0.016901195564542275 0.8220704457868462
vt 0.04025353770516733 0.8301337599125808
vt 0.02145041431454227 0.8301415395368461
vt 0.0168978533789374 0.8220645161767681
vt 0.04558066342395188 0.8220526489204412
vt 0.49136958723544094 0.8175730212179013
vt 0.4799185233958628 0.8203125
vt 0.4765625 0.8125
vt 0.49064594458060184 0.8125
vt 0.1953125 0.5432054188104773
vt 0.19270646077092862 0.5546875
vt 0.18580352396464578 0.554028389366364
vt 0.18580352396464578 0.5399826753831296
vt 0.46461328125 0.7421875
vt 0.44944921875 0.7421875
vt 0.4476296875 0.734375
vt 0.4664328125 0.734375
vt 0.49136958723544094 0.7472605212179013
vt 0.4799185233958628 0.75
vt 0.4765625 0.7421875
vt 0.49064594458060184 0.7421875
vt 0.3046875 0.5432054188104773
vt 0.3020814607709286 0.5546875
vt 0.2951785239646458 0.554028389366364
vt 0.2951785239646458 0.5399826753831296
vt 0.46461328125 0.7265625
vt 0.44944921875 0.7265625
vt 0.4476296875 0.71875
vt 0.4664328125 0.71875
vt 0.053135313199110856 0.8240462387721588
vt 0.05872941982987026 0.8437226137894499
vt 0.05117707810731638 0.8437281476792149
vt 0.045580725323083174 0.8220525550210709
vt 0.15094785794537732 0.88871171875
vt 0.15094785794537732 0.90625
vt 0.14315801419537733 0.905625
vt 0.14315801419537733 0.88558671875
vt 0.140625 0.546875
vt 0.140625 0.5669509399650058
vt 0.1332030880742401 0.5705697730536041
vt 0.1328125 0.5486701244368943
vt 0.15220770305314735 0.859375
vt 0.1577827608087858 0.8396938288492022
vt 0.16533793714284764 0.8376935245474737
vt 0.15975707383662294 0.85937240095204
vt 0.44950598747565335 0.8517240840494531
vt 0.4294301974545682 0.8517240840494531
vt 0.431225560215775 0.84375
vt 0.453125 0.8441607292466532
vt 0.08324719397865643 0.9765625
vt 0.08324719397865643 0.95902421875
vt 0.09103703772865643 0.95589921875
vt 0.09103703772865643 0.9759375
vt 0.0037705801701297358 0.84375
vt 0.009347278214156426 0.8240683642300239
vt 0.016901757251630282 0.8220682639120553
vt 0.011320726814542274 0.8437477895368461
vt 0.44950598747565335 0.8282865840494531
vt 0.4294301974545682 0.8282865840494531
vt 0.431225560215775 0.8203125
vt 0.453125 0.8207232292466532
vt 0.10668457669537733 0.90625
vt 0.10668457669537733 0.88871171875
vt 0.11447520169537732 0.88558671875
vt 0.11447520169537732 0.905625
vt 0.20157161753937247 0.839669739911407
vt 0.20716729694685265 0.859345667711287
vt 0.19961495569076712 0.8593518052834812
vt 0.19401687032606119 0.8376766600286774
vt 0.12751047522865644 0.95902421875
vt 0.12751047522865644 0.9765625
vt 0.11971985022865643 0.9759375
vt 0.11971985022865643 0.95589921875
vt 0.0546875 0.546875
vt 0.0546875 0.5669509399650058
vt 0.04726558807424011 0.5705697730536041
vt 0.046875 0.5486701244368943
vt 0.171875 0.7381654387004086
vt 0.1918598729576026 0.7362584281036012
vt 0.19185996300096822 0.75151484375
vt 0.17188396541045153 0.75151484375
vt 0.14603929237045365 0.872545711942166
vt 0.1538293209814199 0.8756700057322275
vt 0.15094785794537732 0.88871171875
vt 0.14315782714689834 0.8855866437130011
vt 0.296875 0.625
vt 0.3203125 0.6267615569741792
vt 0.3203125 0.6401171493891522
vt 0.2968970355246108 0.6402484329059103
vt 0.45795848413585566 0.8828125
vt 0.456472836995275 0.875
vt 0.4717291789302961 0.875
vt 0.473214663004725 0.8828125
vt 0.03469694594250403 0.7362185844585593
vt 0.05468241323956876 0.7381185571837405
vt 0.05468231799859204 0.75151484375
vt 0.03470703125 0.75151484375
vt 0.3671875 0.5234375
vt 0.375 0.5250325207018998
vt 0.375 0.5403354085092432
vt 0.3671875 0.5387396215817777
vt 0.36150141920769263 0.9296875
vt 0.3596970799060009 0.90625
vt 0.375 0.90625
vt 0.37489191133094435 0.9296709016054001
vt 0.08054488613118521 0.9459036737025776
vt 0.08833517459905206 0.9427784952980578
vt 0.09103748244652327 0.9558990403454801
vt 0.08324719397865643 0.95902421875
vt 0.23000944594250403 0.8299685844585593
vt 0.24999491323956877 0.8318685571837405
vt 0.24999481799859202 0.84526484375
vt 0.23001953125 0.84526484375
vt 0.453125 0.7734375
vt 0.4609375 0.7750332869274654
vt 0.4609375 0.790336174734809
vt 0.453125 0.7887403878073435
vt 0.36150141920769263 0.8671875
vt 0.35969707990600097 0.84375
vt 0.375 0.84375
vt 0.3748919113309444 0.8671709016054001
vt 0.10398317901858009 0.8755917671295315
vt 0.11177290538610295 0.872466347113386
vt 0.11447430114524525 0.8855870799815011
vt 0.10668457669537733 0.88871171875
vt 0.2265625 0.7850404383599894
vt 0.2465474511901156 0.7831334281117471
vt 0.2465469445702403 0.79838984375
vt 0.22657094332849145 0.79838984375
vt 0.1226027444564167 0.9428579584903893
vt 0.1303926138688148 0.945983435792484
vt 0.12751047522865644 0.95902421875
vt 0.11972060796342829 0.9558995226949546
vt 0.0234375 0.953125
vt 0.046875 0.9548870768528344
vt 0.046875 0.9682434413939393
vt 0.023458633280173405 0.9683734341830518
vt 0.4579583210697039 0.765625
vt 0.456472836995275 0.7578125
vt 0.4717291789302961 0.7578125
vt 0.473214663004725 0.765625
vn -1 -1.224646799147357e-16 -2.9629076969683865e-15
vn 1 1.224646799147357e-16 2.9629076969683865e-15
vn 0.03669334948326316 0.9993265722994158 -1.3663201195426186e-17
vn 1.224646799147353e-16 -1 1.224646799147357e-16
vn -0.2820136378753148 -1.5203059695334774e-16 -0.9594103960518309
vn -0.28201363787532047 8.295717716536581e-17 0.9594103960518291
vn 0.2820136378753148 1.5203059695334774e-16 0.9594103960518309
vn 1.224646799147353e-16 -1 1.224646799147357e-16
vn 0.28201363787532047 -8.295717716536581e-17 -0.9594103960518291
vn -0.03669334948326341 0.9993265722994158 -2.311012164184497e-16
vn -0.8163832246845807 -0.5775105457509896 -2.3481434959610366e-15
vn -0.25019528684740455 -0.4614342214641627 0.8511643658548609
vn 0.2572831935641911 -0.40950554142847434 0.8752774245053869
vn 0.8163832246845807 -0.5775105457509893 2.4895927842265946e-15
vn 0.24076780736082692 -0.5206909125085627 -0.8190920806415235
vn -0.24828621529029365 -0.47422256982974453 -0.8446697044175878
vn 0.27928813488337473 -8.338855262506466e-17 -0.9602073410016017
vn 0.2792881348833689 1.5179441671001597e-16 0.9602073410016032
vn 1 1.224646799147357e-16 2.9629076969683865e-15
vn -0.2792881348833745 8.338855262506468e-17 0.9602073410016017
vn -0.2792881348833691 -1.5179441671001602e-16 -0.9602073410016033
vn -1 -1.224646799147357e-16 -2.9629076969683865e-15
vn -0.22884382135592482 0.9719988912667443 0.053372847061380936
vn -0.21476600595817855 0.97666553265935 -7.559388839415274e-16
vn -0.2583623417917031 0.9660480838674166 -8.838105404744808e-16
vn 0.2274235314234371 0.9726185069520779 -0.047872510788595495
vn 0.21476600595817832 0.97666553265935 5.167248202597632e-16
vn 0.2583623417917029 0.9660480838674168 6.47197001728347e-16
vn -0.2435756826844817 0.22322945791024743 0.9438429402850274
vn -0.22840318578288657 0.35769948227753084 -0.9054739450158765
vn -0.9813064897544227 0.19245148262835818 -2.931089060797606e-15
vn 0.24357568268448165 0.22322945791024726 -0.9438429402850275
vn 0.22840318578288646 0.3576994822775312 0.9054739450158765
vn 0.9813064897544227 0.1924514826283584 2.88395204235921e-15
vn 0.22278913876044576 0.9748666573692931 4.0966597294172186e-15
vn 0.9695348200308727 8.873561553379803e-17 -0.24495353181308366
vn 0.21172233793063205 -0.8830263451181539 -0.41885334599172314
vn -0.21542072843058424 0.9761656603425783 0.026353620820955038
vn -0.20107926804556145 -0.9051541342778597 -0.3745171840676469
vn -0.9695348200308713 -1.4873192726874518e-16 -0.24495353181308943
vn 0.21542072843058402 0.9761656603425783 -0.02635362082095526
vn 0.2010792680455616 -0.9051541342778595 0.37451718406764706
vn 0.9695348200308713 1.4873192726874518e-16 0.2449535318130894
vn -0.22278913876044598 0.9748666573692931 -4.335433195725776e-15
vn -0.9695348200308727 -8.873561553379803e-17 0.24495353181308363
vn -0.21172233793063175 -0.8830263451181541 0.4188533459917233
vn 0.25237277682092657 0.21590107183787385 -0.9432362952616657
vn 0.9732825067006514 0.11741806665978397 -0.19731740869060513
vn -0.22647721949098878 -0.24641804507977735 0.9423302054538482
vn -0.9981173583228329 -0.056673389711113124 -0.023449219886854628
vn -0.2500220402863024 0.23073440801035955 -0.9403460067077349
vn 0.9983436849510351 -0.053160789678967375 -0.021995844132403672
vn 0.23297722924418013 -0.2018535377318407 0.9513026647491561
vn -0.9735067171391618 0.11013137112457709 -0.20038900363830495
vn 0.25002204028630215 0.23073440801035983 0.940346006707735
vn -0.9983436849510351 -0.05316078967896759 0.021995844132403682
vn -0.23297722924418007 -0.20185353773184098 -0.9513026647491561
vn 0.973506717139162 0.11013137112457738 0.20038900363830486
vn -0.2523727768209264 0.21590107183787396 0.9432362952616656
vn -0.9732825067006513 0.1174180666597835 0.1973174086906051
vn 0.2264772194909888 -0.24641804507977733 -0.942330205453848
vn 0.9981173583228329 -0.05667338971111282 0.023449219886854607
usemtl m_54b34a1e-1586-476a-5d98-d712507b2029
f 4/1/1 14/2/1 13/3/1 3/4/1
f 7/5/2 17/6/2 16/7/2 8/8/2
f 31/9/3 33/10/3 32/11/3 34/12/3
f 3/13/4 11/14/4 10/15/4 4/16/4
f 3/17/5 13/18/5 18/19/5 11/20/5
f 10/21/6 15/22/6 14/23/6 4/24/6
f 8/25/7 16/26/7 15/27/7 10/28/7
f 8/29/8 10/30/8 11/31/8 7/32/8
f 11/33/9 18/34/9 17/35/9 7/36/9
f 35/37/10 32/38/10 33/39/10 36/40/10
f 1/41/11 13/42/11 14/43/11 2/44/11
f 2/45/12 14/46/12 15/47/12 9/48/12
f 9/49/13 15/50/13 16/51/13 6/52/13
f 6/53/14 16/54/14 17/55/14 5/56/14
f 5/57/15 17/58/15 18/59/15 12/60/15
f 12/61/16 18/62/16 13/63/16 1/64/16
f 37/65/17 38/66/17 39/67/17 40/68/17
f 43/69/18 44/70/18 45/71/18 46/72/18
f 19/73/19 22/74/19 6/75/19 5/76/19
f 44/77/20 47/78/20 48/79/20 45/80/20
f 41/81/21 37/82/21 40/83/21 42/84/21
f 23/85/22 24/86/22 1/87/22 2/88/22
f 27/89/23 25/90/23 23/91/23 21/92/23
f 28/93/24 26/94/24 20/95/24 24/96/24
f 25/97/25 28/98/25 24/99/25 23/100/25
f 26/101/26 29/102/26 19/103/26 20/104/26
f 30/105/27 27/106/27 21/107/27 22/108/27
f 29/109/28 30/110/28 22/111/28 19/112/28
f 33/113/29 31/114/29 25/115/29 27/116/29
f 34/117/30 32/118/30 26/119/30 28/120/30
f 31/121/31 34/122/31 28/123/31 25/124/31
f 32/125/32 35/126/32 29/127/32 26/128/32
f 36/129/33 33/130/33 27/131/33 30/132/33
f 35/133/34 36/134/34 30/135/34 29/136/34
f 38/137/35 37/138/35 20/139/35 19/140/35
f 39/141/36 38/142/36 19/143/36 5/144/36
f 49/145/37 50/146/37 51/147/37 52/148/37
f 37/149/38 41/150/38 24/151/38 20/152/38
f 53/153/39 54/154/39 55/155/39 56/156/39
f 41/157/40 42/158/40 1/159/40 24/160/40
f 44/161/41 43/162/41 22/163/41 21/164/41
f 57/165/42 58/166/42 59/167/42 60/168/42
f 43/169/43 46/170/43 6/171/43 22/172/43
f 47/173/44 44/174/44 21/175/44 23/176/44
f 48/177/45 47/178/45 23/179/45 2/180/45
f 61/181/46 62/182/46 63/183/46 64/184/46
f 50/185/47 49/186/47 40/187/47 39/188/47
f 51/189/48 50/190/48 39/191/48 5/192/48
f 52/193/49 51/194/49 5/195/49 12/196/49
f 49/197/50 52/198/50 12/199/50 40/200/50
f 54/201/51 53/202/51 42/203/51 40/204/51
f 55/205/52 54/206/52 40/207/52 12/208/52
f 56/209/53 55/210/53 12/211/53 1/212/53
f 53/213/54 56/214/54 1/215/54 42/216/54
f 58/217/55 57/218/55 46/219/55 45/220/55
f 59/221/56 58/222/56 45/223/56 9/224/56
f 60/225/57 59/226/57 9/227/57 6/228/57
f 57/229/58 60/230/58 6/231/58 46/232/58
f 62/233/59 61/234/59 45/235/59 48/236/59
f 63/237/60 62/238/60 48/239/60 2/240/60
f 64/241/61 63/242/61 2/243/61 9/244/61
f 61/245/62 64/246/62 9/247/62 45/248/62
o Toe
v -0.2124999999999992 0.031249999999999778 -0.26250000000000084
v -0.21249999999999958 0.09374999999999972 -0.1375000000000007
v -0.2124999999999992 -2.220446049250313e-16 -0.26250000000000084
v -0.21249999999999955 -1.6653345369377348e-16 -0.1437500000000007
v -0.06249999999999929 0.031249999999999778 -0.2625000000000004
v -0.06249999999999966 0.09374999999999972 -0.13750000000000026
v -0.06249999999999928 -2.220446049250313e-16 -0.2625000000000004
v -0.06249999999999963 -1.6653345369377348e-16 -0.14375000000000027
v -0.2124999999999995 0.09374999999999972 -0.16875000000000057
v -0.21249999999999947 -1.6653345369377348e-16 -0.16875000000000057
v -0.062499999999999556 -1.6653345369377348e-16 -0.16875000000000012
v -0.06249999999999957 0.09374999999999972 -0.16875000000000012
vt 0.1796875 0.56640625
vt 0.19140625 0.56640625
vt 0.19140625 0.578125
vt 0.1796875 0.5703125
vt 0.4375 0.734375
vt 0.42578125 0.7421875
vt 0.42578125 0.73046875
vt 0.4375 0.73046875
vt 0.4140625 0.6796875
vt 0.4140625 0.6953125
vt 0.3984375 0.6953125
vt 0.3984375 0.6796875
vt 0.39296875 0.64765625
vt 0.39296875 0.6359375
vt 0.41171875 0.6359375
vt 0.41171875 0.64765625
vt 0.140625 0.53125
vt 0.140625 0.5390625
vt 0.125 0.5390625
vt 0.125 0.53125
vt 0.15625 0.9296875
vt 0.140625 0.9296875
vt 0.140625 0.9140625
vt 0.15625 0.9140625
vt 0.1953125 0.578125
vt 0.19140625 0.578125
vt 0.19140625 0.56640625
vt 0.19453125 0.56640625
vt 0.41171875 0.6328125
vt 0.41171875 0.6359375
vt 0.39296875 0.6359375
vt 0.39296875 0.6328125
vt 0.42265625 0.73046875
vt 0.42578125 0.73046875
vt 0.42578125 0.7421875
vt 0.421875 0.7421875
vt 0.4609375 0.8671875
vt 0.4609375 0.859375
vt 0.4765625 0.859375
vt 0.4765625 0.8671875
vn -1 -1.224646799147357e-16 -2.9629076969683865e-15
vn 1 1.224646799147357e-16 2.9629076969683865e-15
vn 1.5416287079365548e-15 0.8320502943378448 -0.5547001962252274
vn 1.224646799147353e-16 -1 1.224646799147357e-16
vn 2.9629076969683865e-15 -1.224646799147353e-16 -1
vn -2.9481990948021243e-15 -0.06651901052377394 0.9977851578566089
vn -1 -1.224646799147357e-16 -2.9629076969683865e-15
vn 1.224646799147353e-16 -1 1.224646799147357e-16
vn 1 1.224646799147357e-16 2.9629076969683865e-15
vn -1.224646799147353e-16 1 -1.224646799147357e-16
usemtl m_54b34a1e-1586-476a-5d98-d712507b2029
f 67/249/63 74/250/63 73/251/63 65/252/63
f 69/253/64 76/254/64 75/255/64 71/256/64
f 65/257/65 73/258/65 76/259/65 69/260/65
f 71/261/66 75/262/66 74/263/66 67/264/66
f 67/265/67 65/266/67 69/267/67 71/268/67
f 70/269/68 66/270/68 68/271/68 72/272/68
f 66/273/69 73/274/69 74/275/69 68/276/69
f 68/277/70 74/278/70 75/279/70 72/280/70
f 72/281/71 75/282/71 76/283/71 70/284/71
f 70/285/72 76/286/72 73/287/72 66/288/72
o cylinder
v -0.13750000000000007 -2.220446049250313e-16 2.0816681711721673e-18
v -0.13750000000000004 0.3687499999999999 -1.3877787807814454e-18
v -0.05753886660252276 -2.220446049250313e-16 0.14375
v -0.07492172168893084 0.3687499999999999 0.11249999999999999
v -0.010900067652093282 -2.220446049250313e-16 0.09079319959113241
v -0.03842179207555127 0.3687499999999999 0.07105554750610363
v -0.010900067652093282 -2.220446049250313e-16 -0.09079319959113236
v -0.03842179207555127 0.3687499999999999 -0.07105554750610359
v -0.04708061132160868 -2.220446049250313e-16 -0.14375
v -0.06673700016473721 0.3687499999999999 -0.1125
v -0.22791938867839132 -2.220446049250313e-16 -0.14375
v -0.20826299983526275 0.3687499999999999 -0.11250000000000002
v -0.26409993234790663 -2.220446049250313e-16 -0.0907931995911325
v -0.23657820792444856 0.3687499999999999 -0.07105554750610371
v -0.26409993234790663 -2.220446049250313e-16 0.09079319959113244
v -0.23657820792444856 0.3687499999999999 0.07105554750610366
v -0.2174611333974774 -2.220446049250313e-16 0.14374999999999993
v -0.20007827831106917 0.3687499999999999 0.11249999999999998
v -0.25721958536878087 0.09687389193197543 0.0858588469027336
v -0.25721958536878087 0.09687389193197543 -0.08585884690273365
v -0.25033921034775175 0.18749815321544305 0.08092447410362787
v -0.25033921034775175 0.18749815321544305 -0.08092447410362792
v -0.24345879326369618 0.2781229685284068 0.07599007113833886
v -0.24345879326369618 0.2781229685284068 -0.07599007113833892
v -0.22300535155206697 0.09687389193197543 -0.13593759552310555
v -0.2180912943978349 0.18749815321544305 -0.12812515920556525
v -0.21317720720161884 0.2781229685284068 -0.12031267512686149
v -0.051994648447933015 0.09687389193197543 -0.13593759552310555
v -0.05690870560216507 0.18749815321544305 -0.12812515920556525
v -0.061822792798381127 0.2781229685284068 -0.12031267512686147
v -0.017780414631218988 0.09687389193197543 -0.08585884690273352
v -0.024660789652248105 0.18749815321544305 -0.08092447410362778
v -0.031541206736303715 0.2781229685284068 -0.07599007113833878
v -0.017780414631218988 0.09687389193197543 0.08585884690273357
v -0.024660789652248105 0.18749815321544305 0.08092447410362784
v -0.031541206736303715 0.2781229685284068 0.07599007113833883
v -0.061884527239267156 0.09687389193197543 0.13593759552310555
v -0.06623020558741419 0.18749815321544305 0.12812515920556525
v -0.07057591050277347 0.2781229685284068 0.12031267512686147
v -0.213115472760733 0.09687389193197543 0.1359375955231055
v -0.20876979441258592 0.18749815321544305 0.1281251592055652
v -0.20442408949722657 0.2781229685284068 0.12031267512686143
v -0.2244888325843471 0.3731294841552789 -0.1501434227934825
v -0.27591045876186493 0.28285592080054245 -0.10457513067960361
v -0.2294030399507032 0.2825024526836858 -0.15795609792034399
v -0.2690298734226173 0.37348295227213557 -0.0996406070473684
v -0.005970126577382523 0.37348295227213557 -0.0996406070473683
v -0.04559696004929675 0.2825024526836858 -0.15795609792034396
v 0.0009104587618650462 0.28285592080054245 -0.10457513067960349
v -0.05051116741565284 0.3731294841552789 -0.1501434227934825
v -0.2719736540131976 0.19065345473020018 -0.09998118046447105
v -0.265093236929142 0.28127827004316386 -0.09504677749918206
v -0.22399442903434175 0.2810426246319262 -0.14540829032251648
v -0.22890851623055783 0.1904178093189624 -0.15322077440122023
v -0.051005570965658206 0.2810426246319262 -0.14540829032251645
v -0.04609148376944215 0.1904178093189624 -0.15322077440122023
v -0.00990676307085786 0.28127827004316386 -0.09504677749918192
v -0.0030263459868022646 0.19065345473020018 -0.09998118046447092
v -0.2680368072015038 0.09845154268935397 -0.09538720008315522
v -0.2611564321804747 0.1890758039728216 -0.09045282728404949
v -0.22349990531419636 0.18895798126720276 -0.14067296680339275
v -0.22841396246842843 0.09833371998373514 -0.14848540312093306
v -0.05150009468580362 0.18895798126720276 -0.14067296680339275
v -0.04658603753157156 0.09833371998373514 -0.14848540312093306
v -0.013843567819525171 0.1890758039728216 -0.09045282728404935
v -0.006963192798496082 0.09845154268935397 -0.09538720008315509
vt 0.19941875 0.91994296875
vt 0.1935890625 0.9265625
vt 0.18359375 0.90859375
vt 0.11767421875 0.6796875
vt 0.1173 0.66831015625
vt 0.1246828125 0.66831015625
vt 0.12457734375 0.6796875
vt 0.17579155015219747 0.7951434625022975
vt 0.18035405015219746 0.8003239312522974
vt 0.16796889390219746 0.8092059625022975
vt 0.19941875 0.89724453125
vt 0.19941875 0.91994296875
vt 0.18359375 0.90859375
vt 0.07314921875 0.84375
vt 0.0725328125 0.8323890625
vt 0.0915296875 0.8323890625
vt 0.09091328125 0.84375
vt 0.18035405015219746 0.8003239312522974
vt 0.18035405015219746 0.8180879937522975
vt 0.16796889390219746 0.8092059625022975
vt 0.44106528321140215 0.5234375
vt 0.4296875 0.5234375
vt 0.4297207536359766 0.5145874504392394
vt 0.4410994201520297 0.5150202874207754
vt 0.18035405015219746 0.8180879937522975
vt 0.17681420640219747 0.8232684625022975
vt 0.16796889390219746 0.8092059625022975
vt 0.4227203125 0.6953125
vt 0.42210625 0.6875
vt 0.44508125 0.6875
vt 0.4444671875 0.6953125
vt 0.17681420640219747 0.8232684625022975
vt 0.15912358140219746 0.8232684625022975
vt 0.16796889390219746 0.8092059625022975
vt 0.499351466711054 0.9296875
vt 0.4989623918615364 0.921875
vt 0.5078125 0.921875
vt 0.5077679632251639 0.9296875
vt 0.15912358140219746 0.8232684625022975
vt 0.15558373765219746 0.8180879937522975
vt 0.16796889390219746 0.8092059625022975
vt 0.16776875 0.91994296875
vt 0.16776875 0.89724453125
vt 0.18359375 0.90859375
vt 0.00283671875 0.8125
vt 0.0022203125 0.8011390625
vt 0.021217187499999998 0.8011390625
vt 0.02060078125 0.8125
vt 0.15558373765219746 0.8180879937522975
vt 0.15558373765219746 0.8003239312522974
vt 0.16796889390219746 0.8092059625022975
vt 0.1735984375 0.9265625
vt 0.16776875 0.91994296875
vt 0.18359375 0.90859375
vt 0.086359375 0.671875
vt 0.08625390625 0.66049765625
vt 0.09363671875 0.66049765625
vt 0.0932625 0.671875
vt 0.15558373765219746 0.8003239312522974
vt 0.16014623765219746 0.7951434625022975
vt 0.16796889390219746 0.8092059625022975
vt 0.1935890625 0.9265625
vt 0.1735984375 0.9265625
vt 0.18359375 0.90859375
vt 0.19920859375 0.828125
vt 0.198665625 0.8167546875
vt 0.215396875 0.8167546875
vt 0.21485390625 0.828125
vt 0.16014623765219746 0.7951434625022975
vt 0.17579155015219747 0.7951434625022975
vt 0.16796889390219746 0.8092059625022975
vt 0.02306796875 0.76627734375
vt 0.02245078125 0.7784171875
vt 0.0009867187500000006 0.7784171875
vt 0.0003695312499999992 0.76627734375
vt 0.02245078125 0.7784171875
vt 0.021834375 0.789778125
vt 0.0016031250000000004 0.789778125
vt 0.0009867187500000006 0.7784171875
vt 0.021834375 0.789778125
vt 0.021217187499999998 0.8011390625
vt 0.0022203124999999983 0.8011390625
vt 0.0016031250000000004 0.789778125
vt 0.46872578125 0.640625
vt 0.46875 0.65625
vt 0.46116796875 0.65625
vt 0.46070859375 0.640625
vt 0.5 0.78125
vt 0.5 0.7890625
vt 0.49262343974712974 0.7890625
vt 0.4921875 0.78125
vt 0.4921875 0.8636052849235479
vt 0.4921875 0.8749828179358616
vt 0.48480860456211267 0.875
vt 0.484375 0.8636218429851571
vt 0.39020859375 0.984375
vt 0.38959453125 1
vt 0.36821796875 1
vt 0.36760390625 0.984375
vt 0.4527703125 0.96875
vt 0.45215625 0.9765625
vt 0.43065625 0.9765625
vt 0.4300421875 0.96875
vt 0.44501953125 0.640625
vt 0.44440546875 0.6484375
vt 0.42278203125 0.6484375
vt 0.42216796875 0.640625
vt 0.461165625 0.53125
vt 0.46070625 0.546875
vt 0.453125 0.546875
vt 0.45314921875 0.53125
vt 0.0859375 0.49953045253307393
vt 0.09375 0.49996447696745616
vt 0.09375 0.5078125
vt 0.0859375 0.5078125
vt 0.0234375 0.49925305965384315
vt 0.03125 0.49966151291200356
vt 0.03125 0.5077873455766688
vt 0.0234375 0.5078125
vt 0.09338046875 0.79752734375
vt 0.09276328125 0.8096671875
vt 0.07129921875 0.8096671875
vt 0.07068203125 0.79752734375
vt 0.09276328125 0.8096671875
vt 0.092146875 0.821028125
vt 0.071915625 0.821028125
vt 0.07129921875 0.8096671875
vt 0.092146875 0.821028125
vt 0.0915296875 0.8323890625
vt 0.0725328125 0.8323890625
vt 0.071915625 0.821028125
vt 0.125 0.63340234375
vt 0.12489375 0.64555703125
vt 0.11655234375 0.64555703125
vt 0.11617890625 0.63340234375
vt 0.12489375 0.64555703125
vt 0.12478828125 0.65693359375
vt 0.1169265625 0.65693359375
vt 0.11655234375 0.64555703125
vt 0.12478828125 0.65693359375
vt 0.1246828125 0.66831015625
vt 0.1173 0.66831015625
vt 0.1169265625 0.65693359375
vt 0.2170265625 0.78186640625
vt 0.2164828125 0.79401484375
vt 0.1975796875 0.79401484375
vt 0.1970359375 0.78186640625
vt 0.2164828125 0.79401484375
vt 0.21593984375 0.8053851562500001
vt 0.19812265625 0.8053851562500001
vt 0.1975796875 0.79401484375
vt 0.21593984375 0.8053851562500001
vt 0.215396875 0.8167546875
vt 0.19866562499999998 0.8167546875
vt 0.19812265625 0.8053851562500001
vt 0.0947578125 0.62558828125
vt 0.09438437499999999 0.63774375
vt 0.08604296875 0.63774375
vt 0.0859375 0.62558828125
vt 0.09438437499999999 0.63774375
vt 0.09401015625 0.64912109375
vt 0.0861484375 0.64912109375
vt 0.08604296875 0.63774375
vt 0.09401015625 0.64912109375
vt 0.09363671875 0.66049765625
vt 0.08625390625 0.66049765625
vt 0.0861484375 0.64912109375
vt 0.0368702301251822 0.6208032867339877
vt 0.031018741788712487 0.6274425461079158
vt 0.028990655756252433 0.6227051371322463
vt 0.032808565188124965 0.6171875
vt 0.46459128672475025 0.5234375
vt 0.4532135369873499 0.5234375
vt 0.453125 0.515625
vt 0.46450274973740036 0.515625
vt 0.15706872560647742 0.8279932548394799
vt 0.15150090596664778 0.8216801150060862
vt 0.15558400257363736 0.8180883814578962
vt 0.15912358140219746 0.8232684625022975
vt 0.484375 0.5589347502625996
vt 0.484375 0.5703125
vt 0.4765625 0.5702239630126501
vt 0.4765625 0.5588462132752497
vt 0.008043741788712486 0.6274425461079158
vt 0.0021922698748177982 0.6208031209901795
vt 0.006254806553063885 0.617187830186073
vt 0.01007162665565245 0.6227056070350637
vt 0.18443659403335222 0.8216787649035127
vt 0.178870871880837 0.8279934878438009
vt 0.17681419515157043 0.8232684789672959
vt 0.18035405015219746 0.8180879937522975
vt 0.031018741788712487 0.6274425461079158
vt 0.008043741788712486 0.6274425461079158
vt 0.010071866788712486 0.6227050461079158
vt 0.028990616788712488 0.6227050461079158
vt 0.178870871880837 0.8279934878438009
vt 0.15712439453809485 0.828125
vt 0.1591238328721431 0.8233753217357421
vt 0.17681413438633525 0.8232683393652517
vt 0.49581200959018107 0.984375
vt 0.4844342598527807 0.984375
vt 0.484375 0.9765625
vt 0.49575274973740036 0.9765625
vt 0.39934493223315515 0.625
vt 0.3941706319437899 0.6187358831060725
vt 0.3968783369604516 0.6163251584369243
vt 0.4006968620128519 0.6218423731373115
vt 0.41137960213521557 0.8227225553066385
vt 0.40595784302078436 0.8293461945595522
vt 0.40460645472991513 0.8261880079352837
vt 0.40867233305591966 0.8203127595391351
vt 0.42096836973315516 0.625
vt 0.39934493223315515 0.625
vt 0.40069727598315513 0.62184140625
vt 0.4196160259831551 0.62184140625
vt 0.40595784302078436 0.8293461945595522
vt 0.3831062805207844 0.8293461945595522
vt 0.38445784302078434 0.8261876008095521
vt 0.40460628052078434 0.8261876008095521
vt 0.4261418680562101 0.6187343457323174
vt 0.42096836973315516 0.625
vt 0.4196160833160753 0.6218415401592988
vt 0.4234343907897495 0.6163246536769307
vt 0.4921875 0.9573722502625996
vt 0.4921875 0.96875
vt 0.484375 0.9686907401472193
vt 0.484375 0.957312990409819
vt 0.3831062805207844 0.8293461945595522
vt 0.37768289786478443 0.8227238056441771
vt 0.380390983583388 0.8203125
vt 0.38445786129658926 0.8261875580991016
vt 0.49578202687196954 0.9453125
vt 0.4844042771345692 0.9453125
vt 0.484375 0.9375
vt 0.49575197184122477 0.9375
vt 0.38768836574052906 0.8515625
vt 0.38294348588001714 0.8453132520474389
vt 0.3842970861858137 0.844108517642451
vt 0.3883640881868833 0.8499837311397898
vt 0.4343262935950034 0.9855817173530742
vt 0.4293320990982577 0.9921876595090523
vt 0.428656268417998 0.9906086377693936
vt 0.43297344417398753 0.9843761398074675
vt 0.409188365740529 0.8515625
vt 0.38768836574052906 0.8515625
vt 0.388364146990529 0.84998359375
vt 0.408512584490529 0.84998359375
vt 0.4293320990982577 0.9921876595090523
vt 0.4066039740982577 0.9921876595090523
vt 0.40727975534825767 0.9906087532590523
vt 0.4286563178482577 0.9906087532590523
vt 0.41393151411998286 0.8453122392540097
vt 0.409188365740529 0.8515625
vt 0.40851258267266194 0.8499835895027059
vt 0.41257787099153664 0.8441067152608046
vt 0.4921875 0.8870597502625996
vt 0.4921875 0.8984375
vt 0.484375 0.8984075172817885
vt 0.484375 0.8870305454405637
vt 0.4066039740982577 0.9921876595090523
vt 0.4016112064049966 0.985580353694919
vt 0.40296465578673724 0.984375
vt 0.40727990209033077 0.9906084104084978
vt 0.19489609375 0.890625
vt 0.19941875 0.89724453125
vt 0.18359375 0.90859375
vt 0.16776875 0.89724453125
vt 0.17229140625 0.890625
vt 0.18359375 0.90859375
vt 0.17229140625 0.890625
vt 0.19489609375 0.890625
vt 0.18359375 0.90859375
vn 0 -1 0
vn 0.7472328778561049 0.09256325014089797 0.658084395024101
vn 0 1 0
vn 0 -1 0
vn 0.9971303250639766 0.07570412695361059 0
vn 0 1 0
vn 0.750437566327436 0.09260711173945514 -0.6544214100255517
vn 0 1 0
vn 1.4914637105427706e-16 0.08588834215301182 -0.9963047689749394
vn 0 1 0
vn -0.7501025826317896 0.09706697834983975 -0.6541590916918845
vn 0 1 0
vn 0 -1 0
vn -0.9971303250639767 0.07570412695361134 0
vn 0 1 0
vn 0 -1 0
vn -0.7472328778561054 0.09256325014089857 0.6580843950241003
vn 0 1 0
vn 0 -1 0
vn -3.1167380640205634e-16 0.08588834215301183 0.9963047689749395
vn 0 1 0
vn -0.9974873157447492 0.07084528868128738 0
vn -0.9971303250639766 0.0757041269536108 0
vn -0.9971303250639767 0.07570412695361 0
vn -0.8225585065358203 0.08704606319608248 -0.5619790798665237
vn -0.7964933146513502 0.09300185354792274 -0.5974521361183307
vn -0.7711972504939119 0.092842067648967 -0.6297897675457228
vn 0 0.08038412691937932 -0.9967639600925633
vn 0 0.08588834215301193 -0.9963047689749394
vn 1.5847656600048336e-16 0.08588834215301169 -0.9963047689749394
vn 0.8225585065358201 0.08704606319608196 -0.5619790798665241
vn 0.7963649464674294 0.09467904365213312 -0.5973598168031109
vn 0.7709517381038232 0.0960807442632493 -0.6296045648631481
vn 0.9974873157447492 0.0708452886812868 0
vn 0.9971303250639766 0.07570412695361078 0
vn 0.9971303250639767 0.07570412695361046 0
vn 0.7476329280497811 0.08663771813829439 0.6584367173020504
vn 0.7472328778561049 0.09256325014089811 0.6580843950241011
vn 0.7472328778561049 0.09256325014089782 0.658084395024101
vn -3.688291085707751e-16 0.08038412691937931 0.9967639600925633
vn -3.8466292779558755e-16 0.0858883421530119 0.9963047689749394
vn -3.116814281400232e-16 0.08588834215301203 0.9963047689749394
vn -0.7476329280497828 0.08663771813829448 0.6584367173020486
vn -0.7472328778561063 0.09256325014089825 0.6580843950240994
vn -0.7472328778561056 0.09256325014089826 0.6580843950241003
vn -0.09373797920256892 -0.9927608217516544 -0.07509422114915981
vn -0.6602008141431408 0.009231030510875708 0.7510324048138279
vn 0.08504122645139443 0.994051246494567 0.06804490536579856
vn 0.6602008141431409 0.009231030510875439 0.7510324048138277
vn 0.08530824944916619 -0.9940490955507407 -0.06774140691389031
vn -0.09326102040226854 0.9927899128364278 0.07530319411396857
vn 1.7450375684173975e-17 -0.9933002885046226 -0.11556183131394818
vn 0 0.9933002885046226 0.11556183131394819
vn -0.66020081414314 0.00923103051087538 0.7510324048138285
vn 0.08672893012083474 0.9940349175449438 0.06612620797771689
vn -0.09667519473943069 -0.9925756842771302 -0.07380662371278313
vn -1.8541570729609774e-17 0.9933002885046224 0.11556183131395108
vn 0 -0.9933002885046226 -0.11556183131394897
vn -0.09632193450338038 0.9925984961140895 0.07396154707396763
vn 0.6602008141431405 0.009231030510875125 0.7510324048138282
vn 0.08691982178147928 -0.9940326615779287 -0.06590912150662527
vn -0.6602008141431404 0.009231030510875359 0.7510324048138284
vn 0.08854437399572 0.9940100961205562 0.06406108525547041
vn -0.09993912862328742 -0.9923578576328043 -0.0723743943978069
vn 0 0.9933002885046224 0.11556183131395102
vn 0 -0.9933002885046225 -0.11556183131395102
vn -0.09974174819357899 0.9923713922701736 0.07246104795713373
vn 0.6602008141431402 0.009231030510875154 0.7510324048138284
vn 0.08864698291329777 -0.9940084684898175 -0.06394432727691378
vn 0 -1 0
vn 0 -1 0
vn 0 -1 0
usemtl m_54b34a1e-1586-476a-5d98-d712507b2029
f 81/289/73 79/290/73 77/291/73
f 80/292/74 115/293/74 112/294/74 82/295/74
f 80/296/75 82/297/75 78/298/75
f 83/299/76 81/300/76 77/301/76
f 82/302/77 112/303/77 109/304/77 84/305/77
f 82/306/78 84/307/78 78/308/78
f 123/309/79 125/310/79 124/311/79 126/312/79
f 84/313/80 86/314/80 78/315/80
f 126/316/81 124/317/81 121/318/81 119/319/81
f 86/320/82 88/321/82 78/322/82
f 119/323/83 121/324/83 120/325/83 122/326/83
f 88/327/84 90/328/84 78/329/84
f 91/330/85 89/331/85 77/332/85
f 90/333/86 100/334/86 99/335/86 92/336/86
f 90/337/87 92/338/87 78/339/87
f 93/340/88 91/341/88 77/342/88
f 92/343/89 99/344/89 118/345/89 94/346/89
f 92/347/90 94/348/90 78/349/90
f 79/350/91 93/351/91 77/352/91
f 94/353/92 118/354/92 115/355/92 80/356/92
f 94/357/93 80/358/93 78/359/93
f 91/360/94 95/361/94 96/362/94 89/363/94
f 95/364/95 97/365/95 98/366/95 96/367/95
f 97/368/96 99/369/96 100/370/96 98/371/96
f 89/372/97 96/373/97 101/374/97 87/375/97
f 135/376/98 136/377/98 137/378/98 138/379/98
f 127/380/99 128/381/99 129/382/99 130/383/99
f 87/384/100 101/385/100 104/386/100 85/387/100
f 138/388/101 137/389/101 139/390/101 140/391/101
f 130/392/102 129/393/102 131/394/102 132/395/102
f 85/396/103 104/397/103 107/398/103 83/399/103
f 140/400/104 139/401/104 141/402/104 142/403/104
f 132/404/105 131/405/105 133/406/105 134/407/105
f 83/408/106 107/409/106 110/410/106 81/411/106
f 107/412/107 108/413/107 111/414/107 110/415/107
f 108/416/108 109/417/108 112/418/108 111/419/108
f 81/420/109 110/421/109 113/422/109 79/423/109
f 110/424/110 111/425/110 114/426/110 113/427/110
f 111/428/111 112/429/111 115/430/111 114/431/111
f 79/432/112 113/433/112 116/434/112 93/435/112
f 113/436/113 114/437/113 117/438/113 116/439/113
f 114/440/114 115/441/114 118/442/114 117/443/114
f 93/444/115 116/445/115 95/446/115 91/447/115
f 116/448/116 117/449/116 97/450/116 95/451/116
f 117/452/117 118/453/117 99/454/117 97/455/117
f 120/456/118 121/457/118 103/458/118 100/459/118
f 122/460/119 120/461/119 100/462/119 90/463/119
f 119/464/120 122/465/120 90/466/120 88/467/120
f 125/468/121 123/469/121 84/470/121 109/471/121
f 124/472/122 125/473/122 109/474/122 106/475/122
f 123/476/123 126/477/123 86/478/123 84/479/123
f 121/480/124 124/481/124 106/482/124 103/483/124
f 126/484/125 119/485/125 88/486/125 86/487/125
f 128/488/126 127/489/126 98/490/126 100/491/126
f 129/492/127 128/493/127 100/494/127 103/495/127
f 127/496/128 130/497/128 102/498/128 98/499/128
f 131/500/129 129/501/129 103/502/129 106/503/129
f 130/504/130 132/505/130 105/506/130 102/507/130
f 133/508/131 131/509/131 106/510/131 109/511/131
f 134/512/132 133/513/132 109/514/132 108/515/132
f 132/516/133 134/517/133 108/518/133 105/519/133
f 136/520/134 135/521/134 96/522/134 98/523/134
f 137/524/135 136/525/135 98/526/135 102/527/135
f 135/528/136 138/529/136 101/530/136 96/531/136
f 139/532/137 137/533/137 102/534/137 105/535/137
f 138/536/138 140/537/138 104/538/138 101/539/138
f 141/540/139 139/541/139 105/542/139 108/543/139
f 142/544/140 141/545/140 108/546/140 107/547/140
f 140/548/141 142/549/141 107/550/141 104/551/141
f 85/552/142 83/553/142 77/554/142
f 89/555/143 87/556/143 77/557/143
f 87/558/144 85/559/144 77/560/144
o Thigh
v -0.2187499999999998 0.7 -0.08571428571428648
v -0.2187500000000003 0.7 0.08571428571428495
v -0.21249999999999974 0.3749999999999998 -0.08571428571428642
v -0.21250000000000024 0.3749999999999998 0.08571428571428501
v -0.05624999999999985 0.655 -0.08571428571428599
v -0.05625000000000036 0.655 0.08571428571428544
v -0.056249999999999814 0.3749999999999998 -0.08571428571428596
v -0.05625000000000033 0.3749999999999998 0.08571428571428547
v -0.24374999999999983 0.5634999999999999 -0.10714285714285796
v -0.24375000000000044 0.5634999999999999 0.10714285714285632
v -0.05625000000000042 0.5634999999999999 0.10714285714285687
v -0.05624999999999978 0.5634999999999999 -0.1071428571428574
v -0.13749999999999968 0.5634999999999999 -0.1250000000000005
v -0.13749999999999973 0.7024999999999999 -0.10000000000000055
v -0.13750000000000034 0.7024999999999999 0.09999999999999949
v -0.1375000000000004 0.5634999999999999 0.12499999999999949
v -0.13750000000000032 0.3749999999999998 0.09999999999999953
v -0.1374999999999997 0.3749999999999998 -0.1000000000000005
vt 0.2919640625 0.7421875
vt 0.29464296875 0.765625
vt 0.26785703125 0.765625
vt 0.2705359375 0.7421875
vt 0.1279015625 0.7696875
vt 0.13058046875 0.79325
vt 0.10379453125 0.79325
vt 0.1064734375 0.7696875
vt 0.1200890625 0.5703125
vt 0.121875 0.578125
vt 0.096875 0.578125
vt 0.0986609375 0.5703125
vt 0.076171875 0.6794640625
vt 0.066796875 0.68125
vt 0.066796875 0.65625
vt 0.076171875 0.6580359375
vt 0.0625 0.6097273437499999
vt 0.0490328125 0.6097273437499999
vt 0.04955078125 0.5859640625
vt 0.059092187500000004 0.5859375
vt 0.3359375 0.8867033904553844
vt 0.3361724339884144 0.875
vt 0.3599413566773167 0.875
vt 0.35964736047421053 0.890625
vt 0.3252234375 0.9609375
vt 0.32254453125 0.9453125
vt 0.34933046875 0.9453125
vt 0.3466515625 0.9609375
vt 0.15625 0.5703125
vt 0.1697171875 0.5703125
vt 0.16919921875 0.5859375
vt 0.15888750000000001 0.58564296875
vt 0.1064734375 0.8046875
vt 0.10379453125 0.79325
vt 0.13058046875 0.79325
vt 0.1279015625 0.8046875
vt 0.21875 0.5756058428217278
vt 0.21875 0.5859224387471897
vt 0.203125 0.5859375
vt 0.20350857521999977 0.5724765232269211
vt 0.41419216409737597 0.545240683364423
vt 0.421875 0.544845863563312
vt 0.421875 0.5625
vt 0.4140625 0.5569720346867484
vt 0.3544640625 0.96875
vt 0.35625 0.984375
vt 0.33125 0.984375
vt 0.3330359375 0.96875
vt 0.43978495121446404 0.7863373018417077
vt 0.4453125 0.796875
vt 0.42765865674243436 0.796875
vt 0.42805429232294157 0.7865007945368648
vt 0.4134875 0.758134375
vt 0.4030890625 0.758134375
vt 0.403759375 0.734375
vt 0.4140625 0.73443125
vt 0.056640625 0.6580359375
vt 0.066796875 0.65625
vt 0.066796875 0.68125
vt 0.056640625 0.6794640625
vt 0.421875 0.8124239753836198
vt 0.4221098818719684 0.8046875
vt 0.44587854878825844 0.8046875
vt 0.4455848887158678 0.8125
vn -0.986535007574868 -0.1635502333512718 -2.902983040294998e-15
vn 1 1.224646799147357e-16 2.9629076969683865e-15
vn -0.030754675786973412 0.9995269630766537 -2.1353001520632064e-16
vn 1.224646799147353e-16 -1 1.224646799147357e-16
vn -0.16434299199037133 -0.12968710906402214 -0.9778408023427276
vn -0.18554403799338853 -0.12919180364260896 0.9741061994652729
vn -0.9836384960749286 0.1801535707096942 -2.936492520427273e-15
vn -0.1631955395536377 0.17464270869498688 0.9710134603441269
vn 1 1.224646799147357e-16 2.9629076969683865e-15
vn -0.17571696249140617 0.17426159096249114 -0.968894445751453
vn 0.21141984959801377 0.1730144452645589 -0.9619603156709482
vn 0.5046965873311549 0.8632967941190828 1.3896460376739457e-15
vn 0.2665305374846721 0.17061254158065148 0.9486057311884228
vn 0.21287849853291235 -0.12846116290779316 0.9685971683247635
vn 1.224646799147353e-16 -1 1.224646799147357e-16
vn 0.17170920873541243 -0.12952203245127838 -0.976596124682639
usemtl m_54b34a1e-1586-476a-5d98-d712507b2029
f 146/561/145 152/562/145 151/563/145 145/564/145
f 149/565/146 154/566/146 153/567/146 150/568/146
f 144/569/147 157/570/147 156/571/147 143/572/147
f 145/573/148 160/574/148 159/575/148 146/576/148
f 151/577/149 155/578/149 160/579/149 145/580/149
f 146/581/150 159/582/150 158/583/150 152/584/150
f 143/585/151 151/586/151 152/587/151 144/588/151
f 152/589/152 158/590/152 157/591/152 144/592/152
f 148/593/153 153/594/153 154/595/153 147/596/153
f 143/597/154 156/598/154 155/599/154 151/600/154
f 154/601/155 155/602/155 156/603/155 147/604/155
f 147/605/156 156/606/156 157/607/156 148/608/156
f 148/609/157 157/610/157 158/611/157 153/612/157
f 153/613/158 158/614/158 159/615/158 150/616/158
f 150/617/159 159/618/159 160/619/159 149/620/159
f 149/621/160 160/622/160 155/623/160 154/624/160
o Toe
v 0.2124999999999992 0.031249999999999778 -0.26250000000000084
v 0.21249999999999958 0.09374999999999972 -0.1375000000000007
v 0.2124999999999992 -2.220446049250313e-16 -0.26250000000000084
v 0.21249999999999955 -1.6653345369377348e-16 -0.1437500000000007
v 0.06249999999999929 0.031249999999999778 -0.2625000000000004
v 0.06249999999999966 0.09374999999999972 -0.13750000000000026
v 0.06249999999999928 -2.220446049250313e-16 -0.2625000000000004
v 0.06249999999999963 -1.6653345369377348e-16 -0.14375000000000027
v 0.2124999999999995 0.09374999999999972 -0.16875000000000057
v 0.21249999999999947 -1.6653345369377348e-16 -0.16875000000000057
v 0.062499999999999556 -1.6653345369377348e-16 -0.16875000000000012
v 0.06249999999999957 0.09374999999999972 -0.16875000000000012
vt 0.19140625 0.578125
vt 0.19140625 0.56640625
vt 0.1796875 0.56640625
vt 0.1796875 0.5703125
vt 0.42578125 0.73046875
vt 0.42578125 0.7421875
vt 0.4375 0.734375
vt 0.4375 0.73046875
vt 0.3984375 0.6953125
vt 0.4140625 0.6953125
vt 0.4140625 0.6796875
vt 0.3984375 0.6796875
vt 0.41171875 0.6359375
vt 0.39296875 0.6359375
vt 0.39296875 0.64765625
vt 0.41171875 0.64765625
vt 0.125 0.5390625
vt 0.140625 0.5390625
vt 0.140625 0.53125
vt 0.125 0.53125
vt 0.140625 0.9140625
vt 0.140625 0.9296875
vt 0.15625 0.9296875
vt 0.15625 0.9140625
vt 0.19140625 0.56640625
vt 0.19140625 0.578125
vt 0.1953125 0.578125
vt 0.19453125 0.56640625
vt 0.39296875 0.6359375
vt 0.41171875 0.6359375
vt 0.41171875 0.6328125
vt 0.39296875 0.6328125
vt 0.42578125 0.7421875
vt 0.42578125 0.73046875
vt 0.42265625 0.73046875
vt 0.421875 0.7421875
vt 0.4765625 0.859375
vt 0.4609375 0.859375
vt 0.4609375 0.8671875
vt 0.4765625 0.8671875
vn 1 -1.224646799147357e-16 -2.9629076969683865e-15
vn -1 1.224646799147357e-16 2.9629076969683865e-15
vn -1.5416287079365548e-15 0.8320502943378448 -0.5547001962252274
vn -1.224646799147353e-16 -1 1.224646799147357e-16
vn -2.9629076969683865e-15 -1.224646799147353e-16 -1
vn 2.9481990948021243e-15 -0.06651901052377394 0.9977851578566089
vn 1 -1.224646799147357e-16 -2.9629076969683865e-15
vn -1.224646799147353e-16 -1 1.224646799147357e-16
vn -1 1.224646799147357e-16 2.9629076969683865e-15
vn 1.224646799147353e-16 1 -1.224646799147357e-16
usemtl m_54b34a1e-1586-476a-5d98-d712507b2029
f 169/625/161 170/626/161 163/627/161 161/628/161
f 171/629/162 172/630/162 165/631/162 167/632/162
f 172/633/163 169/634/163 161/635/163 165/636/163
f 170/637/164 171/638/164 167/639/164 163/640/164
f 165/641/165 161/642/165 163/643/165 167/644/165
f 164/645/166 162/646/166 166/647/166 168/648/166
f 170/649/167 169/650/167 162/651/167 164/652/167
f 171/653/168 170/654/168 164/655/168 168/656/168
f 172/657/169 171/658/169 168/659/169 166/660/169
f 169/661/170 172/662/170 166/663/170 162/664/170
o cylinder
v 0.13750000000000007 -2.220446049250313e-16 2.0816681711721673e-18
v 0.13750000000000004 0.3687499999999999 -1.3877787807814454e-18
v 0.05753886660252276 -2.220446049250313e-16 0.14375
v 0.07492172168893084 0.3687499999999999 0.11249999999999999
v 0.010900067652093282 -2.220446049250313e-16 0.09079319959113241
v 0.03842179207555127 0.3687499999999999 0.07105554750610363
v 0.010900067652093282 -2.220446049250313e-16 -0.09079319959113236
v 0.03842179207555127 0.3687499999999999 -0.07105554750610359
v 0.04708061132160868 -2.220446049250313e-16 -0.14375
v 0.06673700016473721 0.3687499999999999 -0.1125
v 0.22791938867839132 -2.220446049250313e-16 -0.14375
v 0.20826299983526275 0.3687499999999999 -0.11250000000000002
v 0.26409993234790663 -2.220446049250313e-16 -0.0907931995911325
v 0.23657820792444856 0.3687499999999999 -0.07105554750610371
v 0.26409993234790663 -2.220446049250313e-16 0.09079319959113244
v 0.23657820792444856 0.3687499999999999 0.07105554750610366
v 0.2174611333974774 -2.220446049250313e-16 0.14374999999999993
v 0.20007827831106917 0.3687499999999999 0.11249999999999998
v 0.25721958536878087 0.09687389193197543 0.0858588469027336
v 0.25721958536878087 0.09687389193197543 -0.08585884690273365
v 0.25033921034775175 0.18749815321544305 0.08092447410362787
v 0.25033921034775175 0.18749815321544305 -0.08092447410362792
v 0.24345879326369618 0.2781229685284068 0.07599007113833886
v 0.24345879326369618 0.2781229685284068 -0.07599007113833892
v 0.22300535155206697 0.09687389193197543 -0.13593759552310555
v 0.2180912943978349 0.18749815321544305 -0.12812515920556525
v 0.21317720720161884 0.2781229685284068 -0.12031267512686149
v 0.051994648447933015 0.09687389193197543 -0.13593759552310555
v 0.05690870560216507 0.18749815321544305 -0.12812515920556525
v 0.061822792798381127 0.2781229685284068 -0.12031267512686147
v 0.017780414631218988 0.09687389193197543 -0.08585884690273352
v 0.024660789652248105 0.18749815321544305 -0.08092447410362778
v 0.031541206736303715 0.2781229685284068 -0.07599007113833878
v 0.017780414631218988 0.09687389193197543 0.08585884690273357
v 0.024660789652248105 0.18749815321544305 0.08092447410362784
v 0.031541206736303715 0.2781229685284068 0.07599007113833883
v 0.061884527239267156 0.09687389193197543 0.13593759552310555
v 0.06623020558741419 0.18749815321544305 0.12812515920556525
v 0.07057591050277347 0.2781229685284068 0.12031267512686147
v 0.213115472760733 0.09687389193197543 0.1359375955231055
v 0.20876979441258592 0.18749815321544305 0.1281251592055652
v 0.20442408949722657 0.2781229685284068 0.12031267512686143
v 0.2244888325843471 0.3731294841552789 -0.1501434227934825
v 0.27591045876186493 0.28285592080054245 -0.10457513067960361
v 0.2294030399507032 0.2825024526836858 -0.15795609792034399
v 0.2690298734226173 0.37348295227213557 -0.0996406070473684
v 0.005970126577382523 0.37348295227213557 -0.0996406070473683
v 0.04559696004929675 0.2825024526836858 -0.15795609792034396
v -0.0009104587618650462 0.28285592080054245 -0.10457513067960349
v 0.05051116741565284 0.3731294841552789 -0.1501434227934825
v 0.2719736540131976 0.19065345473020018 -0.09998118046447105
v 0.265093236929142 0.28127827004316386 -0.09504677749918206
v 0.22399442903434175 0.2810426246319262 -0.14540829032251648
v 0.22890851623055783 0.1904178093189624 -0.15322077440122023
v 0.051005570965658206 0.2810426246319262 -0.14540829032251645
v 0.04609148376944215 0.1904178093189624 -0.15322077440122023
v 0.00990676307085786 0.28127827004316386 -0.09504677749918192
v 0.0030263459868022646 0.19065345473020018 -0.09998118046447092
v 0.2680368072015038 0.09845154268935397 -0.09538720008315522
v 0.2611564321804747 0.1890758039728216 -0.09045282728404949
v 0.22349990531419636 0.18895798126720276 -0.14067296680339275
v 0.22841396246842843 0.09833371998373514 -0.14848540312093306
v 0.05150009468580362 0.18895798126720276 -0.14067296680339275
v 0.04658603753157156 0.09833371998373514 -0.14848540312093306
v 0.013843567819525171 0.1890758039728216 -0.09045282728404935
v 0.006963192798496082 0.09845154268935397 -0.09538720008315509
vt 0.1935890625 0.9265625
vt 0.19941875 0.91994296875
vt 0.18359375 0.90859375
vt 0.1246828125 0.66831015625
vt 0.1173 0.66831015625
vt 0.11767421875 0.6796875
vt 0.12457734375 0.6796875
vt 0.18035405015219746 0.8003239312522974
vt 0.17579155015219747 0.7951434625022975
vt 0.16796889390219746 0.8092059625022975
vt 0.19941875 0.91994296875
vt 0.19941875 0.89724453125
vt 0.18359375 0.90859375
vt 0.0915296875 0.8323890625
vt 0.0725328125 0.8323890625
vt 0.07314921875 0.84375
vt 0.09091328125 0.84375
vt 0.18035405015219746 0.8180879937522975
vt 0.18035405015219746 0.8003239312522974
vt 0.16796889390219746 0.8092059625022975
vt 0.4297207536359766 0.5145874504392394
vt 0.4296875 0.5234375
vt 0.44106528321140215 0.5234375
vt 0.4410994201520297 0.5150202874207754
vt 0.17681420640219747 0.8232684625022975
vt 0.18035405015219746 0.8180879937522975
vt 0.16796889390219746 0.8092059625022975
vt 0.44508125 0.6875
vt 0.42210625 0.6875
vt 0.4227203125 0.6953125
vt 0.4444671875 0.6953125
vt 0.15912358140219746 0.8232684625022975
vt 0.17681420640219747 0.8232684625022975
vt 0.16796889390219746 0.8092059625022975
vt 0.5078125 0.921875
vt 0.4989623918615364 0.921875
vt 0.499351466711054 0.9296875
vt 0.5077679632251639 0.9296875
vt 0.15558373765219746 0.8180879937522975
vt 0.15912358140219746 0.8232684625022975
vt 0.16796889390219746 0.8092059625022975
vt 0.16776875 0.89724453125
vt 0.16776875 0.91994296875
vt 0.18359375 0.90859375
vt 0.021217187499999998 0.8011390625
vt 0.0022203125 0.8011390625
vt 0.00283671875 0.8125
vt 0.02060078125 0.8125
vt 0.15558373765219746 0.8003239312522974
vt 0.15558373765219746 0.8180879937522975
vt 0.16796889390219746 0.8092059625022975
vt 0.16776875 0.91994296875
vt 0.1735984375 0.9265625
vt 0.18359375 0.90859375
vt 0.09363671875 0.66049765625
vt 0.08625390625 0.66049765625
vt 0.086359375 0.671875
vt 0.0932625 0.671875
vt 0.16014623765219746 0.7951434625022975
vt 0.15558373765219746 0.8003239312522974
vt 0.16796889390219746 0.8092059625022975
vt 0.1735984375 0.9265625
vt 0.1935890625 0.9265625
vt 0.18359375 0.90859375
vt 0.215396875 0.8167546875
vt 0.198665625 0.8167546875
vt 0.19920859375 0.828125
vt 0.21485390625 0.828125
vt 0.17579155015219747 0.7951434625022975
vt 0.16014623765219746 0.7951434625022975
vt 0.16796889390219746 0.8092059625022975
vt 0.0009867187500000006 0.7784171875
vt 0.02245078125 0.7784171875
vt 0.02306796875 0.76627734375
vt 0.0003695312499999992 0.76627734375
vt 0.0016031250000000004 0.789778125
vt 0.021834375 0.789778125
vt 0.02245078125 0.7784171875
vt 0.0009867187500000006 0.7784171875
vt 0.0022203124999999983 0.8011390625
vt 0.021217187499999998 0.8011390625
vt 0.021834375 0.789778125
vt 0.0016031250000000004 0.789778125
vt 0.46116796875 0.65625
vt 0.46875 0.65625
vt 0.46872578125 0.640625
vt 0.46070859375 0.640625
vt 0.49262343974712974 0.7890625
vt 0.5 0.7890625
vt 0.5 0.78125
vt 0.4921875 0.78125
vt 0.48480860456211267 0.875
vt 0.4921875 0.8749828179358616
vt 0.4921875 0.8636052849235479
vt 0.484375 0.8636218429851571
vt 0.36821796875 1
vt 0.38959453125 1
vt 0.39020859375 0.984375
vt 0.36760390625 0.984375
vt 0.43065625 0.9765625
vt 0.45215625 0.9765625
vt 0.4527703125 0.96875
vt 0.4300421875 0.96875
vt 0.42278203125 0.6484375
vt 0.44440546875 0.6484375
vt 0.44501953125 0.640625
vt 0.42216796875 0.640625
vt 0.453125 0.546875
vt 0.46070625 0.546875
vt 0.461165625 0.53125
vt 0.45314921875 0.53125
vt 0.09375 0.5078125
vt 0.09375 0.49996447696745616
vt 0.0859375 0.49953045253307393
vt 0.0859375 0.5078125
vt 0.03125 0.5077873455766688
vt 0.03125 0.49966151291200356
vt 0.0234375 0.49925305965384315
vt 0.0234375 0.5078125
vt 0.07129921875 0.8096671875
vt 0.09276328125 0.8096671875
vt 0.09338046875 0.79752734375
vt 0.07068203125 0.79752734375
vt 0.071915625 0.821028125
vt 0.092146875 0.821028125
vt 0.09276328125 0.8096671875
vt 0.07129921875 0.8096671875
vt 0.0725328125 0.8323890625
vt 0.0915296875 0.8323890625
vt 0.092146875 0.821028125
vt 0.071915625 0.821028125
vt 0.11655234375 0.64555703125
vt 0.12489375 0.64555703125
vt 0.125 0.63340234375
vt 0.11617890625 0.63340234375
vt 0.1169265625 0.65693359375
vt 0.12478828125 0.65693359375
vt 0.12489375 0.64555703125
vt 0.11655234375 0.64555703125
vt 0.1173 0.66831015625
vt 0.1246828125 0.66831015625
vt 0.12478828125 0.65693359375
vt 0.1169265625 0.65693359375
vt 0.1975796875 0.79401484375
vt 0.2164828125 0.79401484375
vt 0.2170265625 0.78186640625
vt 0.1970359375 0.78186640625
vt 0.19812265625 0.8053851562500001
vt 0.21593984375 0.8053851562500001
vt 0.2164828125 0.79401484375
vt 0.1975796875 0.79401484375
vt 0.19866562499999998 0.8167546875
vt 0.215396875 0.8167546875
vt 0.21593984375 0.8053851562500001
vt 0.19812265625 0.8053851562500001
vt 0.08604296875 0.63774375
vt 0.09438437499999999 0.63774375
vt 0.0947578125 0.62558828125
vt 0.0859375 0.62558828125
vt 0.0861484375 0.64912109375
vt 0.09401015625 0.64912109375
vt 0.09438437499999999 0.63774375
vt 0.08604296875 0.63774375
vt 0.08625390625 0.66049765625
vt 0.09363671875 0.66049765625
vt 0.09401015625 0.64912109375
vt 0.0861484375 0.64912109375
vt 0.028990655756252433 0.6227051371322463
vt 0.031018741788712487 0.6274425461079158
vt 0.0368702301251822 0.6208032867339877
vt 0.032808565188124965 0.6171875
vt 0.453125 0.515625
vt 0.4532135369873499 0.5234375
vt 0.46459128672475025 0.5234375
vt 0.46450274973740036 0.515625
vt 0.15558400257363736 0.8180883814578962
vt 0.15150090596664778 0.8216801150060862
vt 0.15706872560647742 0.8279932548394799
vt 0.15912358140219746 0.8232684625022975
vt 0.4765625 0.5702239630126501
vt 0.484375 0.5703125
vt 0.484375 0.5589347502625996
vt 0.4765625 0.5588462132752497
vt 0.006254806553063885 0.617187830186073
vt 0.0021922698748177982 0.6208031209901795
vt 0.008043741788712486 0.6274425461079158
vt 0.01007162665565245 0.6227056070350637
vt 0.17681419515157043 0.8232684789672959
vt 0.178870871880837 0.8279934878438009
vt 0.18443659403335222 0.8216787649035127
vt 0.18035405015219746 0.8180879937522975
vt 0.010071866788712486 0.6227050461079158
vt 0.008043741788712486 0.6274425461079158
vt 0.031018741788712487 0.6274425461079158
vt 0.028990616788712488 0.6227050461079158
vt 0.1591238328721431 0.8233753217357421
vt 0.15712439453809485 0.828125
vt 0.178870871880837 0.8279934878438009
vt 0.17681413438633525 0.8232683393652517
vt 0.484375 0.9765625
vt 0.4844342598527807 0.984375
vt 0.49581200959018107 0.984375
vt 0.49575274973740036 0.9765625
vt 0.3968783369604516 0.6163251584369243
vt 0.3941706319437899 0.6187358831060725
vt 0.39934493223315515 0.625
vt 0.4006968620128519 0.6218423731373115
vt 0.40460645472991513 0.8261880079352837
vt 0.40595784302078436 0.8293461945595522
vt 0.41137960213521557 0.8227225553066385
vt 0.40867233305591966 0.8203127595391351
vt 0.40069727598315513 0.62184140625
vt 0.39934493223315515 0.625
vt 0.42096836973315516 0.625
vt 0.4196160259831551 0.62184140625
vt 0.38445784302078434 0.8261876008095521
vt 0.3831062805207844 0.8293461945595522
vt 0.40595784302078436 0.8293461945595522
vt 0.40460628052078434 0.8261876008095521
vt 0.4196160833160753 0.6218415401592988
vt 0.42096836973315516 0.625
vt 0.4261418680562101 0.6187343457323174
vt 0.4234343907897495 0.6163246536769307
vt 0.484375 0.9686907401472193
vt 0.4921875 0.96875
vt 0.4921875 0.9573722502625996
vt 0.484375 0.957312990409819
vt 0.380390983583388 0.8203125
vt 0.37768289786478443 0.8227238056441771
vt 0.3831062805207844 0.8293461945595522
vt 0.38445786129658926 0.8261875580991016
vt 0.484375 0.9375
vt 0.4844042771345692 0.9453125
vt 0.49578202687196954 0.9453125
vt 0.49575197184122477 0.9375
vt 0.3842970861858137 0.844108517642451
vt 0.38294348588001714 0.8453132520474389
vt 0.38768836574052906 0.8515625
vt 0.3883640881868833 0.8499837311397898
vt 0.428656268417998 0.9906086377693936
vt 0.4293320990982577 0.9921876595090523
vt 0.4343262935950034 0.9855817173530742
vt 0.43297344417398753 0.9843761398074675
vt 0.388364146990529 0.84998359375
vt 0.38768836574052906 0.8515625
vt 0.409188365740529 0.8515625
vt 0.408512584490529 0.84998359375
vt 0.40727975534825767 0.9906087532590523
vt 0.4066039740982577 0.9921876595090523
vt 0.4293320990982577 0.9921876595090523
vt 0.4286563178482577 0.9906087532590523
vt 0.40851258267266194 0.8499835895027059
vt 0.409188365740529 0.8515625
vt 0.41393151411998286 0.8453122392540097
vt 0.41257787099153664 0.8441067152608046
vt 0.484375 0.8984075172817885
vt 0.4921875 0.8984375
vt 0.4921875 0.8870597502625996
vt 0.484375 0.8870305454405637
vt 0.40296465578673724 0.984375
vt 0.4016112064049966 0.985580353694919
vt 0.4066039740982577 0.9921876595090523
vt 0.40727990209033077 0.9906084104084978
vt 0.19941875 0.89724453125
vt 0.19489609375 0.890625
vt 0.18359375 0.90859375
vt 0.17229140625 0.890625
vt 0.16776875 0.89724453125
vt 0.18359375 0.90859375
vt 0.19489609375 0.890625
vt 0.17229140625 0.890625
vt 0.18359375 0.90859375
vn 0 -1 0
vn -0.7472328778561049 0.09256325014089796 0.658084395024101
vn 0 1 0
vn 0 -1 0
vn -0.9971303250639766 0.07570412695361056 0
vn 0 1 0
vn -0.7504375663274361 0.09260711173945511 -0.6544214100255517
vn 0 1 0
vn -1.5044666839273596e-16 0.08588834215301182 -0.9963047689749394
vn 0 1 0
vn 0.7501025826317896 0.0970669783498397 -0.6541590916918845
vn 0 1 0
vn 0 -1 0
vn 0.9971303250639767 0.07570412695361134 0
vn 0 1 0
vn 0 -1 0
vn 0.7472328778561054 0.09256325014089854 0.6580843950241003
vn 0 1 0
vn 0 -1 0
vn 3.0989975985375506e-16 0.08588834215301183 0.9963047689749395
vn 0 1 0
vn 0.9974873157447492 0.07084528868128737 0
vn 0.9971303250639766 0.07570412695361078 0
vn 0.9971303250639767 0.07570412695361002 0
vn 0.8225585065358203 0.08704606319608252 -0.5619790798665237
vn 0.7964933146513502 0.09300185354792276 -0.5974521361183306
vn 0.7711972504939119 0.09284206764896699 -0.6297897675457228
vn 0 0.08038412691937932 -0.9967639600925633
vn 0 0.08588834215301194 -0.9963047689749394
vn -1.5985429732426042e-16 0.08588834215301168 -0.9963047689749394
vn -0.8225585065358201 0.08704606319608196 -0.5619790798665241
vn -0.7963649464674292 0.09467904365213314 -0.5973598168031109
vn -0.7709517381038232 0.0960807442632493 -0.6296045648631481
vn -0.9974873157447492 0.07084528868128681 0
vn -0.9971303250639766 0.07570412695361078 0
vn -0.9971303250639767 0.07570412695361046 0
vn -0.7476329280497811 0.08663771813829439 0.6584367173020504
vn -0.7472328778561049 0.09256325014089814 0.6580843950241011
vn -0.7472328778561049 0.0925632501408978 0.658084395024101
vn 3.658742907397344e-16 0.08038412691937931 0.9967639600925633
vn 3.8800466003045254e-16 0.08588834215301192 0.9963047689749394
vn 3.09899759853755e-16 0.08588834215301203 0.9963047689749394
vn 0.7476329280497829 0.08663771813829448 0.6584367173020486
vn 0.7472328778561063 0.09256325014089821 0.6580843950240994
vn 0.7472328778561055 0.09256325014089829 0.6580843950241002
vn 0.09373797920256892 -0.9927608217516544 -0.07509422114915983
vn 0.6602008141431408 0.009231030510875708 0.7510324048138278
vn -0.08504122645139442 0.9940512464945669 0.06804490536579855
vn -0.660200814143141 0.009231030510875461 0.7510324048138278
vn -0.08530824944916619 -0.9940490955507407 -0.06774140691389031
vn 0.09326102040226855 0.9927899128364278 0.07530319411396856
vn -1.5564739498860457e-17 -0.9933002885046226 -0.11556183131394819
vn 0 0.9933002885046226 0.11556183131394819
vn 0.66020081414314 0.00923103051087537 0.7510324048138285
vn -0.08672893012083474 0.9940349175449438 0.06612620797771689
vn 0.09667519473943069 -0.9925756842771302 -0.07380662371278315
vn 1.8605276125302592e-17 0.9933002885046224 0.11556183131395109
vn 0 -0.9933002885046226 -0.11556183131394897
vn 0.09632193450338038 0.9925984961140893 0.07396154707396763
vn -0.6602008141431405 0.009231030510875123 0.751032404813828
vn -0.08691982178147928 -0.9940326615779287 -0.06590912150662527
vn 0.6602008141431404 0.009231030510875362 0.7510324048138284
vn -0.08854437399571997 0.9940100961205562 0.0640610852554704
vn 0.0999391286232874 -0.9923578576328043 -0.07237439439780688
vn 0 0.9933002885046224 0.115561831313951
vn 0 -0.9933002885046225 -0.11556183131395101
vn 0.09974174819357898 0.9923713922701735 0.07246104795713373
vn -0.6602008141431404 0.009231030510875166 0.7510324048138284
vn -0.08864698291329774 -0.9940084684898175 -0.06394432727691376
vn 0 -1 0
vn 0 -1 0
vn 0 -1 0
usemtl m_54b34a1e-1586-476a-5d98-d712507b2029
f 175/665/171 177/666/171 173/667/171
f 208/668/172 211/669/172 176/670/172 178/671/172
f 178/672/173 176/673/173 174/674/173
f 177/675/174 179/676/174 173/677/174
f 205/678/175 208/679/175 178/680/175 180/681/175
f 180/682/176 178/683/176 174/684/176
f 220/685/177 221/686/177 219/687/177 222/688/177
f 182/689/178 180/690/178 174/691/178
f 217/692/179 220/693/179 222/694/179 215/695/179
f 184/696/180 182/697/180 174/698/180
f 216/699/181 217/700/181 215/701/181 218/702/181
f 186/703/182 184/704/182 174/705/182
f 185/706/183 187/707/183 173/708/183
f 195/709/184 196/710/184 186/711/184 188/712/184
f 188/713/185 186/714/185 174/715/185
f 187/716/186 189/717/186 173/718/186
f 214/719/187 195/720/187 188/721/187 190/722/187
f 190/723/188 188/724/188 174/725/188
f 189/726/189 175/727/189 173/728/189
f 211/729/190 214/730/190 190/731/190 176/732/190
f 176/733/191 190/734/191 174/735/191
f 192/736/192 191/737/192 187/738/192 185/739/192
f 194/740/193 193/741/193 191/742/193 192/743/193
f 196/744/194 195/745/194 193/746/194 194/747/194
f 197/748/195 192/749/195 185/750/195 183/751/195
f 233/752/196 232/753/196 231/754/196 234/755/196
f 225/756/197 224/757/197 223/758/197 226/759/197
f 200/760/198 197/761/198 183/762/198 181/763/198
f 235/764/199 233/765/199 234/766/199 236/767/199
f 227/768/200 225/769/200 226/770/200 228/771/200
f 203/772/201 200/773/201 181/774/201 179/775/201
f 237/776/202 235/777/202 236/778/202 238/779/202
f 229/780/203 227/781/203 228/782/203 230/783/203
f 206/784/204 203/785/204 179/786/204 177/787/204
f 207/788/205 204/789/205 203/790/205 206/791/205
f 208/792/206 205/793/206 204/794/206 207/795/206
f 209/796/207 206/797/207 177/798/207 175/799/207
f 210/800/208 207/801/208 206/802/208 209/803/208
f 211/804/209 208/805/209 207/806/209 210/807/209
f 212/808/210 209/809/210 175/810/210 189/811/210
f 213/812/211 210/813/211 209/814/211 212/815/211
f 214/816/212 211/817/212 210/818/212 213/819/212
f 191/820/213 212/821/213 189/822/213 187/823/213
f 193/824/214 213/825/214 212/826/214 191/827/214
f 195/828/215 214/829/215 213/830/215 193/831/215
f 199/832/216 217/833/216 216/834/216 196/835/216
f 196/836/217 216/837/217 218/838/217 186/839/217
f 186/840/218 218/841/218 215/842/218 184/843/218
f 180/844/219 219/845/219 221/846/219 205/847/219
f 205/848/220 221/849/220 220/850/220 202/851/220
f 182/852/221 222/853/221 219/854/221 180/855/221
f 202/856/222 220/857/222 217/858/222 199/859/222
f 184/860/223 215/861/223 222/862/223 182/863/223
f 194/864/224 223/865/224 224/866/224 196/867/224
f 196/868/225 224/869/225 225/870/225 199/871/225
f 198/872/226 226/873/226 223/874/226 194/875/226
f 199/876/227 225/877/227 227/878/227 202/879/227
f 201/880/228 228/881/228 226/882/228 198/883/228
f 202/884/229 227/885/229 229/886/229 205/887/229
f 205/888/230 229/889/230 230/890/230 204/891/230
f 204/892/231 230/893/231 228/894/231 201/895/231
f 192/896/232 231/897/232 232/898/232 194/899/232
f 194/900/233 232/901/233 233/902/233 198/903/233
f 197/904/234 234/905/234 231/906/234 192/907/234
f 198/908/235 233/909/235 235/910/235 201/911/235
f 200/912/236 236/913/236 234/914/236 197/915/236
f 201/916/237 235/917/237 237/918/237 204/919/237
f 204/920/238 237/921/238 238/922/238 203/923/238
f 203/924/239 238/925/239 236/926/239 200/927/239
f 179/928/240 181/929/240 173/930/240
f 183/931/241 185/932/241 173/933/241
f 181/934/242 183/935/242 173/936/242
o Thigh
v 0.2187499999999998 0.7 -0.08571428571428648
v 0.2187500000000003 0.7 0.08571428571428495
v 0.21249999999999974 0.3749999999999998 -0.08571428571428642
v 0.21250000000000024 0.3749999999999998 0.08571428571428501
v 0.05624999999999985 0.655 -0.08571428571428599
v 0.05625000000000036 0.655 0.08571428571428544
v 0.056249999999999814 0.3749999999999998 -0.08571428571428596
v 0.05625000000000033 0.3749999999999998 0.08571428571428547
v 0.24374999999999983 0.5634999999999999 -0.10714285714285796
v 0.24375000000000044 0.5634999999999999 0.10714285714285632
v 0.05625000000000042 0.5634999999999999 0.10714285714285687
v 0.05624999999999978 0.5634999999999999 -0.1071428571428574
v 0.13749999999999968 0.5634999999999999 -0.1250000000000005
v 0.13749999999999973 0.7024999999999999 -0.10000000000000055
v 0.13750000000000034 0.7024999999999999 0.09999999999999949
v 0.1375000000000004 0.5634999999999999 0.12499999999999949
v 0.13750000000000032 0.3749999999999998 0.09999999999999953
v 0.1374999999999997 0.3749999999999998 -0.1000000000000005
vt 0.26785703125 0.765625
vt 0.29464296875 0.765625
vt 0.2919640625 0.7421875
vt 0.2705359375 0.7421875
vt 0.10379453125 0.79325
vt 0.13058046875 0.79325
vt 0.1279015625 0.7696875
vt 0.1064734375 0.7696875
vt 0.096875 0.578125
vt 0.121875 0.578125
vt 0.1200890625 0.5703125
vt 0.0986609375 0.5703125
vt 0.066796875 0.65625
vt 0.066796875 0.68125
vt 0.076171875 0.6794640625
vt 0.076171875 0.6580359375
vt 0.04955078125 0.5859640625
vt 0.0490328125 0.6097273437499999
vt 0.0625 0.6097273437499999
vt 0.059092187500000004 0.5859375
vt 0.3599413566773167 0.875
vt 0.3361724339884144 0.875
vt 0.3359375 0.8867033904553844
vt 0.35964736047421053 0.890625
vt 0.34933046875 0.9453125
vt 0.32254453125 0.9453125
vt 0.3252234375 0.9609375
vt 0.3466515625 0.9609375
vt 0.16919921875 0.5859375
vt 0.1697171875 0.5703125
vt 0.15625 0.5703125
vt 0.15888750000000001 0.58564296875
vt 0.13058046875 0.79325
vt 0.10379453125 0.79325
vt 0.1064734375 0.8046875
vt 0.1279015625 0.8046875
vt 0.203125 0.5859375
vt 0.21875 0.5859224387471897
vt 0.21875 0.5756058428217278
vt 0.20350857521999977 0.5724765232269211
vt 0.421875 0.5625
vt 0.421875 0.544845863563312
vt 0.41419216409737597 0.545240683364423
vt 0.4140625 0.5569720346867484
vt 0.33125 0.984375
vt 0.35625 0.984375
vt 0.3544640625 0.96875
vt 0.3330359375 0.96875
vt 0.42765865674243436 0.796875
vt 0.4453125 0.796875
vt 0.43978495121446404 0.7863373018417077
vt 0.42805429232294157 0.7865007945368648
vt 0.403759375 0.734375
vt 0.4030890625 0.758134375
vt 0.4134875 0.758134375
vt 0.4140625 0.73443125
vt 0.066796875 0.68125
vt 0.066796875 0.65625
vt 0.056640625 0.6580359375
vt 0.056640625 0.6794640625
vt 0.44587854878825844 0.8046875
vt 0.4221098818719684 0.8046875
vt 0.421875 0.8124239753836198
vt 0.4455848887158678 0.8125
vn 0.986535007574868 -0.16355023335127178 -2.902983040294998e-15
vn -1 1.224646799147357e-16 2.9629076969683865e-15
vn 0.030754675786973412 0.9995269630766537 -2.1353001520632064e-16
vn -1.224646799147353e-16 -1 1.224646799147357e-16
vn 0.1643429919903713 -0.12968710906402214 -0.9778408023427276
vn 0.18554403799338853 -0.12919180364260896 0.9741061994652729
vn 0.9836384960749286 0.18015357070969423 -2.936492520427273e-15
vn 0.1631955395536377 0.17464270869498688 0.9710134603441269
vn -1 1.224646799147357e-16 2.9629076969683865e-15
vn 0.17571696249140617 0.17426159096249114 -0.968894445751453
vn -0.21141984959801377 0.1730144452645589 -0.9619603156709482
vn -0.504696587331155 0.8632967941190828 1.389646037673946e-15
vn -0.26653053748467204 0.17061254158065142 0.9486057311884228
vn -0.21287849853291232 -0.12846116290779316 0.9685971683247635
vn -1.224646799147353e-16 -1 1.224646799147357e-16
vn -0.17170920873541243 -0.12952203245127836 -0.976596124682639
usemtl m_54b34a1e-1586-476a-5d98-d712507b2029
f 247/937/243 248/938/243 242/939/243 241/940/243
f 249/941/244 250/942/244 245/943/244 246/944/244
f 252/945/245 253/946/245 240/947/245 239/948/245
f 255/949/246 256/950/246 241/951/246 242/952/246
f 256/953/247 251/954/247 247/955/247 241/956/247
f 254/957/248 255/958/248 242/959/248 248/960/248
f 248/961/249 247/962/249 239/963/249 240/964/249
f 253/965/250 254/966/250 248/967/250 240/968/250
f 250/969/251 249/970/251 244/971/251 243/972/251
f 251/973/252 252/974/252 239/975/252 247/976/252
f 252/977/253 251/978/253 250/979/253 243/980/253
f 253/981/254 252/982/254 243/983/254 244/984/254
f 254/985/255 253/986/255 244/987/255 249/988/255
f 255/989/256 254/990/256 249/991/256 246/992/256
f 256/993/257 255/994/257 246/995/257 245/996/257
f 251/997/258 256/998/258 245/999/258 250/1000/258
o Pelvis
v -0.1374999999999998 0.7874999999999994 -0.11948529411764763
v -0.1375000000000005 0.7874999999999994 0.11948529411764655
v -0.13749999999999976 0.6662914078674946 -0.11948529411764762
v -0.13750000000000048 0.6662914078674946 0.11948529411764656
v 0.13750000000000023 0.7874999999999994 -0.11948529411764681
v 0.1374999999999995 0.7874999999999994 0.11948529411764737
v 0.13750000000000026 0.6662914078674946 -0.1194852941176468
v 0.13749999999999954 0.6662914078674946 0.11948529411764738
v -0.045833333333333004 0.6062499999999998 -0.1562500000000003
v -0.045833333333333934 0.6062499999999998 0.1562499999999998
v 0.045833333333333684 0.6062499999999998 -0.15625000000000003
v 0.045833333333332754 0.6062499999999998 0.15625000000000008
v -0.045833333333333955 0.7874999999999994 0.15624999999999978
v 0.04583333333333273 0.7874999999999994 0.15625000000000006
v -0.045833333333333025 0.7874999999999994 -0.15625000000000033
v 0.04583333333333366 0.7874999999999994 -0.15625000000000006
v 0.12326539107102981 0.6662914078674946 -0.16724596502074102
v 0.04406155127435375 0.7874999999999994 -0.2040041875352167
v 0.04406155127435377 0.6062499999999998 -0.20400418753521668
v 0.1232653910710298 0.7874999999999994 -0.16724596502074104
v -0.04406155127435283 0.7874999999999994 -0.20400418753521693
v -0.04406155127435281 0.6062499999999998 -0.20400418753521693
v -0.12326539107102905 0.7874999999999994 -0.16724596502074177
v -0.12326539107102903 0.6662914078674946 -0.16724596502074174
v -0.12326539107103003 0.6662914078674946 0.1672459650207408
v -0.044061551274354016 0.6062499999999998 0.20400418753521643
v -0.04406155127435404 0.7874999999999994 0.20400418753521643
v -0.12326539107103004 0.7874999999999994 0.16724596502074077
v 0.044061551274352566 0.6062499999999998 0.20400418753521674
v 0.044061551274352545 0.7874999999999994 0.2040041875352167
v 0.1232653910710288 0.7874999999999994 0.1672459650207415
v 0.12326539107102881 0.6662914078674946 0.16724596502074152
v 0.06972045899196554 0.5334912533496878 -0.2098263615685401
v 0.13501953347060994 0.5935326612171826 -0.17931813905406446
v 0.14675516132670063 0.5935326612171826 -0.13155746815097025
v 0.07118119282666667 0.5334912533496878 -0.16345346197212665
v -0.044061551274352795 0.5187499999999999 -0.2040041875352169
v 0.04406155127435379 0.5187499999999999 -0.20400418753521668
v 0.0458333333333337 0.5187499999999999 -0.15625000000000003
v -0.04583333333333299 0.5187499999999999 -0.15625000000000028
v -0.13308837426007336 0.5935326612171826 -0.16866188549483002
v -0.06778929978142874 0.5334912533496878 -0.19947833971156895
v -0.06925003361613015 0.5334912533496878 -0.15310544011515553
v -0.14482400211616434 0.5935326612171826 -0.12090121459173589
v 0.13308837426007308 0.5935326612171826 0.1686618854948298
v 0.06778929978142852 0.5334912533496878 0.19947833971156878
v 0.06925003361612993 0.5334912533496878 0.15310544011515534
v 0.14482400211616406 0.5935326612171826 0.12090121459173567
v -0.06972045899196576 0.5334912533496878 0.2098263615685399
v -0.13501953347061016 0.5935326612171826 0.1793181390540643
v -0.14675516132670086 0.5935326612171826 0.13155746815097008
v -0.0711811928266669 0.5334912533496878 0.16345346197212648
v 0.04406155127435258 0.5187499999999999 0.20400418753521674
v -0.044061551274354 0.5187499999999999 0.20400418753521646
v -0.04583333333333392 0.5187499999999999 0.15624999999999983
v 0.04583333333333277 0.5187499999999999 0.15625000000000008
vt 0.328125 0.890625
vt 0.296875 0.890625
vt 0.296875 0.875
vt 0.328125 0.875
vt 0.3359375 0.6953125
vt 0.3359375 0.7109375
vt 0.3046875 0.7109375
vt 0.3046875 0.6953125
vt 0.05703125 0.86581328125
vt 0.06848984375 0.86121796875
vt 0.06848984375 0.90028046875
vt 0.05703125 0.89568515625
vt 0.2702203125 0.734375
vt 0.265625 0.71875
vt 0.3046875 0.71875
vt 0.3000921875 0.734375
vt 0.27441350211985016 0.6567259141956916
vt 0.28521484375 0.6490580009050412
vt 0.285553777879848 0.6717117155610998
vt 0.2746401555536482 0.671875
vt 0.35046236784988877 0.9375
vt 0.33954754308331364 0.9374796431369977
vt 0.33958979839983117 0.9148234325414297
vt 0.350490625 0.9223492451006948
vt 0.1374078125 0.7265625
vt 0.1328125 0.7109375
vt 0.171875 0.7109375
vt 0.1672796875 0.7265625
vt 0.3359375 0.640625
vt 0.328125 0.640625
vt 0.328125 0.6015625
vt 0.3359375 0.6015625
vt 0.13378850211985016 0.6567259141956916
vt 0.14458984375 0.6490580009050412
vt 0.14492877787984798 0.6717117155610998
vt 0.13401515555364818 0.671875
vt 0.2444921875 0.64140625
vt 0.2555078125 0.64140625
vt 0.2555078125 0.6640625
vt 0.2444921875 0.6640625
vt 0.09140625 0.89568515625
vt 0.07994765625 0.90028046875
vt 0.07994765625 0.86121796875
vt 0.09140625 0.86581328125
vt 0.07994765625 0.90028046875
vt 0.06848984375 0.90028046875
vt 0.06848984375 0.86121796875
vt 0.07994765625 0.86121796875
vt 0.34264986784988877 0.6875
vt 0.33173504308331364 0.6874796431369977
vt 0.33177729839983117 0.6648234325414297
vt 0.342678125 0.6723492451006948
vt 0.1695703125 0.65625
vt 0.1585546875 0.65625
vt 0.1585546875 0.63359375
vt 0.1695703125 0.63359375
vt 0.484375 0.6640625
vt 0.484375 0.6757885278702661
vt 0.4765625 0.6787514974205511
vt 0.4765811353536914 0.6660754245709021
vt 0.0588109375 0.85984375
vt 0.0687109375 0.8552484375
vt 0.06848984375 0.86121796875
vt 0.05703125 0.86581328125
vt 0.2796671875 0.56297421875
vt 0.2796671875 0.578125
vt 0.2734375 0.578125
vt 0.2734375 0.56297421875
vt 0.0687109375 0.8552484375
vt 0.0797265625 0.8552484375
vt 0.07994765625 0.86121796875
vt 0.06848984375 0.86121796875
vt 0.4898828125 0.5234375
vt 0.4788671875 0.5234375
vt 0.47864609375 0.515625
vt 0.49010390625 0.515625
vt 0.0797265625 0.8552484375
vt 0.0896265625 0.85984375
vt 0.09140625 0.86581328125
vt 0.07994765625 0.86121796875
vt 0.4965676661717176 0.7632452009687468
vt 0.4848288857642774 0.7632452009687468
vt 0.4868578505975185 0.7578125
vt 0.4995461142357226 0.7579386016988127
vt 0.11087275512618874 0.5625
vt 0.11087275512618874 0.54734921875
vt 0.11710244262618874 0.54734921875
vt 0.11710244262618874 0.5625
vt 0.484375 0.640625
vt 0.484375 0.6523510278702661
vt 0.4765625 0.6553139974205511
vt 0.4765811353536914 0.6426379245709021
vt 0.0896265625 0.9016546875
vt 0.0797265625 0.90625
vt 0.07994765625 0.90028046875
vt 0.09140625 0.89568515625
vt 0.0296671875 0.55516171875
vt 0.0296671875 0.5703125
vt 0.0234375 0.5703125
vt 0.0234375 0.55516171875
vt 0.0023046875000000003 0.5078125
vt 0.0133203125 0.5078125
vt 0.013541406249999999 0.515625
vt 0.0020835937500000004 0.515625
vt 0.0797265625 0.90625
vt 0.0687109375 0.90625
vt 0.06848984375 0.90028046875
vt 0.07994765625 0.90028046875
vt 0.0687109375 0.90625
vt 0.0588109375 0.9016546875
vt 0.05703125 0.89568515625
vt 0.06848984375 0.90028046875
vt 0.24656766617171758 0.5132452009687468
vt 0.23482888576427738 0.5132452009687468
vt 0.23685785059751852 0.5078125
vt 0.24954611423572262 0.5079386016988127
vt 0.20462275512618874 0.5625
vt 0.20462275512618874 0.54734921875
vt 0.21085244262618874 0.54734921875
vt 0.21085244262618874 0.5625
vt 0.2734375 0.6474439384050412
vt 0.2823484375 0.6398220634050412
vt 0.28521484375 0.6490580009050412
vt 0.274415625 0.6567244071550412
vt 0.2745473147038681 0.5537532735287071
vt 0.280694698363367 0.5536953812918333
vt 0.2796671875 0.56297421875
vt 0.2734450366063649 0.56297421875
vt 0.1484375 0.546875
vt 0.1610965625724322 0.547976548380734
vt 0.16538387499136653 0.556219789142867
vt 0.15093593825366716 0.556219789142867
vt 0.2605490678155753 0.5154504089286082
vt 0.2610287284087123 0.5078125
vt 0.2707009321844247 0.5078125
vt 0.2702185403382103 0.515625
vt 0.1585546875 0.62265625
vt 0.1695703125 0.62265625
vt 0.1695703125 0.63359375
vt 0.1585546875 0.63359375
vt 0.125 0.8671875
vt 0.1328125 0.8671875
vt 0.1328125 0.875
vt 0.125 0.875
vt 0.03125 0.9375
vt 0.0390625 0.9375
vt 0.0390625 0.9453125
vt 0.03125 0.9453125
vt 0.328125 0.7734375
vt 0.3359375 0.7734375
vt 0.3359375 0.78125
vt 0.328125 0.78125
vt 0.3347390625 0.6557101826006948
vt 0.34375 0.6632328388506948
vt 0.342678125 0.6723492451006948
vt 0.33177734375 0.6648234638506949
vt 0.36219655048498023 0.5154518929865332
vt 0.3625955813162476 0.5078125
vt 0.37217844951501977 0.5078125
vt 0.3717572989153492 0.515625
vt 0.3839062309229784 0.5361093679044815
vt 0.3828125 0.5234375
vt 0.390625 0.5257159299367585
vt 0.390625 0.5401631144000377
vt 0.11103992129054394 0.5381765051528037
vt 0.1171875 0.5382073819921279
vt 0.1170947086038455 0.54734921875
vt 0.11087275512618874 0.54734921875
vt 0.3425515625 0.9057101826006948
vt 0.3515625 0.9132328388506948
vt 0.350490625 0.9223492451006948
vt 0.33958984375 0.9148234638506949
vt 0.31532155048498023 0.5154518929865332
vt 0.3157205813162476 0.5078125
vt 0.32530344951501977 0.5078125
vt 0.3248822989153492 0.515625
vt 0.3995312309229784 0.5361093679044815
vt 0.3984375 0.5234375
vt 0.40625 0.5257159299367585
vt 0.40625 0.5401631144000377
vt 0.20478992129054394 0.5381765051528037
vt 0.2109375 0.5382073819921279
vt 0.2108447086038455 0.54734921875
vt 0.20462275512618874 0.54734921875
vt 0.1328125 0.6474439384050412
vt 0.1417234375 0.6398220634050412
vt 0.14458984375 0.6490580009050412
vt 0.133790625 0.6567244071550412
vt 0.024547314703868117 0.5459407735287071
vt 0.030694698363366996 0.5458828812918333
vt 0.0296671875 0.55516171875
vt 0.023445036606364898 0.55516171875
vt 0.4375 0.6171875
vt 0.4501590625724322 0.618289048380734
vt 0.45444637499136653 0.626532289142867
vt 0.43999843825366713 0.626532289142867
vt 0.4871115678155753 0.6951379089286082
vt 0.4875912284087123 0.6875
vt 0.4972634321844247 0.6875
vt 0.4967810403382103 0.6953125
vt 0.2444921875 0.63046875
vt 0.2555078125 0.63046875
vt 0.2555078125 0.64140625
vt 0.2444921875 0.64140625
vt 0.203125 0.640625
vt 0.2109375 0.640625
vt 0.2109375 0.6484375
vt 0.203125 0.6484375
vt 0.1015625 0.9375
vt 0.109375 0.9375
vt 0.109375 0.9453125
vt 0.1015625 0.9453125
vt 0.3203125 0.9296875
vt 0.328125 0.9296875
vt 0.328125 0.9375
vt 0.3203125 0.9375
vn -1 -1.224646799147357e-16 -2.9629076969683865e-15
vn 1 1.224646799147357e-16 2.9629076969683865e-15
vn -1.224646799147353e-16 1 -1.224646799147357e-16
vn 0.547923688440741 -0.8365283208866833 1.7258924868893783e-15
vn 0.4209700842373323 -5.953062435654502e-17 -0.9070745218432793
vn 0.420970084237327 1.626385575961528e-16 0.9070745218432816
vn -0.5479236884407409 -0.8365283208866834 -1.5210021407753807e-15
vn 1.224646799147353e-16 -1 1.224646799147357e-16
vn -0.4209700842373321 5.953062435654502e-17 0.9070745218432792
vn -3.277871364983685e-15 1.2246467991473525e-16 1
vn -1.224646799147353e-16 1 -1.224646799147357e-16
vn -1.224646799147353e-16 1 -1.224646799147357e-16
vn -0.42097008423732685 -1.6263855759615278e-16 -0.9070745218432816
vn 2.647944028953088e-15 -1.2246467991473535e-16 -1
vn 0.7093814585480026 -0.6829311004587225 -0.1743073672985367
vn -1.224646799147353e-16 1 -1.224646799147357e-16
vn 0.9583416100218842 8.238408480157524e-17 -0.28562450612764834
vn -1.224646799147353e-16 1 -1.224646799147357e-16
vn 1.224646799147353e-16 -1 1.224646799147357e-16
vn -1.224646799147353e-16 1 -1.224646799147357e-16
vn -0.6821704262231677 -0.7308773956780492 -0.021488184506235502
vn -0.9583416100218825 -1.5234191223902953e-16 -0.285624506127654
vn -0.7093814585480024 -0.6829311004587226 0.17430736729853685
vn -1.224646799147353e-16 1 -1.224646799147357e-16
vn -0.9583416100218842 -8.238408480157524e-17 0.28562450612764834
vn 1.224646799147353e-16 -1 1.224646799147357e-16
vn -1.224646799147353e-16 1 -1.224646799147357e-16
vn -1.224646799147353e-16 1 -1.224646799147357e-16
vn 0.682170426223168 -0.7308773956780489 0.02148818450623556
vn 0.9583416100218825 1.5234191223902953e-16 0.285624506127654
vn 0.2805542644770131 0.17446656316116468 -0.9438488878112289
vn 0.9528953232850338 0.19278894346380376 -0.23414296090128628
vn -0.250273948729809 -0.1893729818217776 0.9494739724411184
vn -0.9429997010794132 -0.3314652653106668 0.029704236342087454
vn 2.6479440289530884e-15 -1.2246467991473535e-16 -1
vn 0.9993124257745281 1.1783990005245568e-16 -0.037076619217891314
vn -2.9629076969683865e-15 1.224646799147353e-16 1
vn -0.9993124257745278 -1.269210526621356e-16 -0.03707661921789741
vn -0.37362439637113903 0.06844408001629287 -0.9250514679449059
vn 0.9508430135593648 -0.308221484129971 0.029951298570578065
vn 0.34343779133418567 -0.07005499909191715 0.936559010733295
vn -0.9660616920221392 0.10186468052830604 -0.23737816678917129
vn 0.3736243963711396 0.06844408001629296 0.9250514679449057
vn -0.9508430135593647 -0.3082214841299712 -0.029951298570577968
vn -0.3434377913341857 -0.07005499909191741 -0.9365590107332948
vn 0.9660616920221393 0.10186468052830563 0.23737816678917129
vn -0.28055426447701254 0.1744665631611651 0.9438488878112289
vn -0.9528953232850338 0.19278894346380365 0.23414296090128622
vn 0.2502739487298089 -0.18937298182177814 -0.9494739724411183
vn 0.9429997010794133 -0.3314652653106667 -0.029704236342087676
vn -3.2778713649836847e-15 1.2246467991473525e-16 1
vn -0.9993124257745281 -1.1783990005245565e-16 0.03707661921789148
vn 2.9629076969683865e-15 -1.224646799147353e-16 -1
vn 0.9993124257745278 1.2692105266213558e-16 0.03707661921789724
usemtl m_54b34a1e-1586-476a-5d98-d712507b2029
f 258/1001/259 257/1002/259 259/1003/259 260/1004/259
f 263/1005/260 261/1006/260 262/1007/260 264/1008/260
f 261/1009/261 272/1010/261 270/1011/261 262/1012/261
f 264/1013/262 268/1014/262 267/1015/262 263/1016/262
f 273/1017/263 275/1018/263 274/1019/263 276/1020/263
f 287/1021/264 286/1022/264 285/1023/264 288/1024/264
f 259/1025/265 265/1026/265 266/1027/265 260/1028/265
f 265/1029/266 267/1030/266 268/1031/266 266/1032/266
f 281/1033/267 282/1034/267 283/1035/267 284/1036/267
f 282/1037/268 285/1038/268 286/1039/268 283/1040/268
f 258/1041/269 269/1042/269 271/1043/269 257/1044/269
f 269/1045/270 270/1046/270 272/1047/270 271/1048/270
f 279/1049/271 277/1050/271 278/1051/271 280/1052/271
f 277/1053/272 274/1054/272 275/1055/272 278/1056/272
f 289/1057/273 290/1058/273 291/1059/273 292/1060/273
f 276/1061/274 274/1062/274 272/1063/274 261/1064/274
f 273/1065/275 276/1066/275 261/1067/275 263/1068/275
f 274/1069/276 277/1070/276 271/1071/276 272/1072/276
f 293/1073/277 294/1074/277 295/1075/277 296/1076/277
f 277/1077/278 279/1078/278 257/1079/278 271/1080/278
f 297/1081/279 298/1082/279 299/1083/279 300/1084/279
f 279/1085/280 280/1086/280 259/1087/280 257/1088/280
f 305/1089/281 306/1090/281 307/1091/281 308/1092/281
f 284/1093/282 283/1094/282 269/1095/282 258/1096/282
f 281/1097/283 284/1098/283 258/1099/283 260/1100/283
f 309/1101/284 310/1102/284 311/1103/284 312/1104/284
f 283/1105/285 286/1106/285 270/1107/285 269/1108/285
f 286/1109/286 287/1110/286 262/1111/286 270/1112/286
f 301/1113/287 302/1114/287 303/1115/287 304/1116/287
f 287/1117/288 288/1118/288 264/1119/288 262/1120/288
f 290/1121/289 289/1122/289 275/1123/289 273/1124/289
f 291/1125/290 290/1126/290 273/1127/290 263/1128/290
f 292/1129/291 291/1130/291 263/1131/291 267/1132/291
f 289/1133/292 292/1134/292 267/1135/292 275/1136/292
f 294/1137/293 293/1138/293 278/1139/293 275/1140/293
f 295/1141/294 294/1142/294 275/1143/294 267/1144/294
f 296/1145/295 295/1146/295 267/1147/295 265/1148/295
f 293/1149/296 296/1150/296 265/1151/296 278/1152/296
f 298/1153/297 297/1154/297 280/1155/297 278/1156/297
f 299/1157/298 298/1158/298 278/1159/298 265/1160/298
f 300/1161/299 299/1162/299 265/1163/299 259/1164/299
f 297/1165/300 300/1166/300 259/1167/300 280/1168/300
f 302/1169/301 301/1170/301 288/1171/301 285/1172/301
f 303/1173/302 302/1174/302 285/1175/302 268/1176/302
f 304/1177/303 303/1178/303 268/1179/303 264/1180/303
f 301/1181/304 304/1182/304 264/1183/304 288/1184/304
f 306/1185/305 305/1186/305 282/1187/305 281/1188/305
f 307/1189/306 306/1190/306 281/1191/306 260/1192/306
f 308/1193/307 307/1194/307 260/1195/307 266/1196/307
f 305/1197/308 308/1198/308 266/1199/308 282/1200/308
f 310/1201/309 309/1202/309 285/1203/309 282/1204/309
f 311/1205/310 310/1206/310 282/1207/310 266/1208/310
f 312/1209/311 311/1210/311 266/1211/311 268/1212/311
f 309/1213/312 312/1214/312 268/1215/312 285/1216/312