# Made in Blockbench 5.1.5
mtllib ShogunHead.mtl

o cylinder
v 0 1.4062500000000007 0
v -6.872809200060495e-18 1.5874999999999988 -6.872809200060495e-18
v 0.05861388584430808 1.4062500000000007 0.21874999999999997
v 0.043541743770057414 1.5249999999999984 0.16249999999999998
v 0.16013611415569187 1.4062500000000007 0.1601361141556919
v 0.11895825622994252 1.5249999999999984 0.11895825622994252
v 0.21874999999999997 1.4062500000000007 0.05861388584430808
v 0.16249999999999998 1.5249999999999984 0.043541743770057414
v 0.21874999999999997 1.4062500000000007 -0.05861388584430811
v 0.16249999999999998 1.5249999999999984 -0.04354174377005744
v 0.1601361141556919 1.4062500000000007 -0.16013611415569187
v 0.11895825622994252 1.5249999999999984 -0.16270825622994253
v 0.05861388584430815 1.35625 -0.24999999999999997
v 0.04354174377005747 1.5249999999999984 -0.20625000000000002
v -0.058613885844307996 1.35625 -0.25
v -0.04354174377005736 1.5249999999999984 -0.20625000000000002
v -0.16013611415569187 1.4062500000000007 -0.16013611415569193
v -0.11895825622994251 1.5249999999999984 -0.11895825622994255
v -0.21874999999999997 1.4062500000000007 -0.05861388584430805
v -0.16249999999999998 1.5249999999999984 -0.04354174377005741
v -0.21875 1.4062500000000007 0.05861388584430798
v -0.16249999999999998 1.5249999999999984 0.043541743770057345
v -0.16013611415569193 1.4062500000000007 0.16013611415569187
v -0.11895825622994255 1.5249999999999984 0.11895825622994252
v -0.058613885844308065 1.4062500000000007 0.21874999999999997
v -0.043541743770057414 1.5249999999999984 0.16249999999999998
v 0.12124292824276385 1.4062500000000007 -0.1212429282427638
v 0.04437962391779399 1.35625 -0.19687701128200588
v -0.04437962391779386 1.35625 -0.1968770112820059
v -0.12124738736421194 1.4062500000000007 -0.12124738736421196
v -0.16562701128200588 1.4062500000000007 -0.0443796239177939
v -0.1656270112820059 1.4062500000000007 0.044379623917793855
v -0.12124738736421196 1.4062500000000007 0.12124738736421196
v -0.04437962391779391 1.4062500000000007 0.1656270112820059
v 0.04437962391779393 1.4062500000000007 0.12187701128200587
v 0.12124738736421196 1.4062500000000007 0.12124738736421196
v 0.1656270112820059 1.4062500000000007 0.04437962391779393
v 0.1656270112820059 1.4062500000000007 -0.044379623917793945
v -0.16157592206676313 1.2155087801600428 -0.17191323031088335
v -0.27499999999999997 1.2381843198463416 -0.08096660807944095
v -0.22071681418309305 1.241246923171597 -0.06868317705552315
v -0.2013139720814412 1.2063313075650492 -0.2087220624129329
v 0.22071681418309316 1.241246923171597 -0.06868317705552321
v 0.2013139720814413 1.2063313075650492 -0.20872206241293284
v 0.16156997978070445 1.2155102732372496 -0.17190724190529008
v 0.2750000000000001 1.2381843198463416 -0.080966608079441
v 0.22071681418309316 1.270966770763921 0.05051662101536015
v 0.2750000000000001 1.2749650102765513 0.06655268382032768
v 0.16157592206676313 1.2967049137754747 0.1537466742707205
v 0.2013139720814413 1.306818022557844 0.1943081381538195
v 0.05914089211632999 1.3115648375716369 0.16959657330616215
v 0.07368602791855873 1.3252083677729491 0.26806778410370385
v -0.059140892116329946 1.3115648375716369 0.2133465733061622
v -0.0736860279185587 1.3252083677729491 0.26806778410370385
v -0.16157592206676313 1.2967049137754747 0.1537466742707205
v -0.2013139720814413 1.306818022557844 0.19430813815381945
v -0.2207168141830931 1.270966770763921 0.05051662101536004
v -0.275 1.2749650102765513 0.06655268382032754
v -0.15055938192584745 1.154865297267793 -0.14093816342710586
v -0.2562499999999999 1.1775408369540918 -0.05714458432062877
v -0.20566794048879122 1.1806034402793473 -0.04582725747607261
v -0.18758801943952474 1.1456878246727995 -0.1748519439379536
v 0.20566794048879156 1.1806034402793473 -0.045827257476072775
v 0.18758801943952527 1.1456878246727995 -0.17485194393795384
v 0.15055384479565684 1.1548667903449998 -0.14093264601562355
v 0.2562500000000003 1.1775408369540918 -0.05714458432062894
v 0.20566794048879136 1.2103232878716712 0.0639973568313238
v 0.2562500000000001 1.2143215273843015 0.07877216720069591
v 0.15055938192584759 1.236061430883225 0.15910826278235746
v 0.18758801943952497 1.2461745396655943 0.19647952681802083
v 0.055108558562943936 1.2509213546793871 0.21402056993605606
v 0.06866198056047526 1.2645648848806994 0.26443790257868366
v -0.055108558562943874 1.2509213546793871 0.21402056993605606
v -0.06866198056047522 1.2645648848806994 0.2644379025786836
v -0.15055938192584783 1.236061430883225 0.15910826278235757
v -0.18758801943952522 1.2461745396655943 0.19647952681802094
v -0.2056679404887916 1.2103232878716712 0.06399735683132386
v -0.2562500000000003 1.2143215273843015 0.07877216720069594
v 0.04161585894945881 1.3807187499999998 -0.24365625
v -0.041615858949458656 1.3807187499999998 -0.24365625000000002
v -0.030914638076740705 1.5005312499999985 -0.21259375000000003
v 0.030914638076740823 1.5005312499999985 -0.21259375000000003
v 0.041615858949458795 1.4113946485740192 -0.2676087917799659
v -0.04161585894945863 1.4113946485740192 -0.26760879177996594
v -0.030914638076740674 1.4855404863499622 -0.24914101435539665
v 0.030914638076740813 1.4855404863499622 -0.24914101435539665
vt 0.04204453125 0.9878578125
vt 0.0539765625 0.980746875
vt 0.0586046875 0.9855859375
vt 0.0437390625 0.99438671875
vt 0.22523227767244838 0.702325
vt 0.2398854026724484 0.702325
vt 0.2380018089224484 0.71875
vt 0.2271158714224484 0.71875
vt 0.27888046875 0.9001117187500001
vt 0.2884847556440413 0.9052362976118045
vt 0.2734375 0.921875
vt 0.0539765625 0.980746875
vt 0.06086484375 0.96843046875
vt 0.0671875 0.9703437500000001
vt 0.0586046875 0.9855859375
vt 0.06142669600804117 0.7180247822683757
vt 0.07607109375 0.7175191272071572
vt 0.07475542138122185 0.7339993443365845
vt 0.06387596743920572 0.734375
vt 0.21271710457991752 0.9130487976118045
vt 0.22232139147395882 0.9079242187500001
vt 0.22776436022395882 0.9296875
vt 0.06086484375 0.96843046875
vt 0.06086484375 0.95420859375
vt 0.0671875 0.95274296875
vt 0.0671875 0.9703437500000001
vt 0.0015456231492525455 0.7414468758109054
vt 0.01619296875 0.7410353674660457
vt 0.014771386386965644 0.7575067867734445
vt 0.003889742454313958 0.7578125
vt 0.22232139147395882 0.9079242187500001
vt 0.23320732897395882 0.9079242187500001
vt 0.22776436022395882 0.9296875
vt 0.06086484375 0.95420859375
vt 0.05397578125 0.9418921875
vt 0.0586046875 0.9375
vt 0.0671875 0.95274296875
vt 0.07146899722741133 0.77284921875
vt 0.08612212222741134 0.77284921875
vt 0.08897446597741132 0.7883023437500001
vt 0.07335259097741133 0.7890625
vt 0.23320732897395882 0.9079242187500001
vt 0.24822039542008248 0.9130333117822137
vt 0.22776441448878715 0.9296872830263639
vt 0.14175530811371 0.697664465772937
vt 0.1416467103814334 0.6828068896959281
vt 0.14777241779754374 0.6796875
vt 0.1484375 0.6976659719695603
vt 0.3671875 0.7978212770869925
vt 0.3828125 0.7900780366104221
vt 0.3828125 0.8119509812264714
vt 0.3726905148333826 0.8125
vt 0.08744047235105046 0.6892311605605818
vt 0.09698609014894954 0.6839981101967558
vt 0.10242912502973378 0.7109375
vt 0.31804765625 0.655078125
vt 0.30695234375 0.655078125
vt 0.3051734375 0.6484375
vt 0.3198265625 0.6484375
vt 0.48698515625 0.796875
vt 0.49738984375 0.796875
vt 0.4960515625 0.8046875
vt 0.4883234375 0.8046875
vt 0.09698609014894954 0.6839981101967558
vt 0.10787202764894954 0.6839981101967558
vt 0.10242905889894954 0.7109371726967558
vt 0.303859375 0.90155625
vt 0.30375 0.91641328125
vt 0.296875 0.91641328125
vt 0.29790546875 0.8984375
vt 0.3671875 0.7595592547295446
vt 0.3828125 0.7647173181149427
vt 0.3828125 0.78125
vt 0.3706447894463798 0.7807872027750808
vt 0.1980375900266786 0.9532189724026598
vt 0.20936789868523878 0.9442987976118045
vt 0.22441510001098075 0.9609374399368205
vt 0.016335937500000033 0.94189140625
vt 0.009447656250000016 0.95420859375
vt 0.0031250000000000167 0.95274296875
vt 0.011707812500000036 0.9375
vt 0.14775616738339223 0.7645100511368886
vt 0.1624046875 0.7648773802249862
vt 0.16010993868632412 0.78125
vt 0.14922742219534454 0.7809771079380704
vt 0.20936789868523878 0.9442987976118045
vt 0.2189721855792801 0.93917421875
vt 0.2244151543292801 0.9609375
vt 0.009447656250000016 0.95420859375
vt 0.009447656250000002 0.96843046875
vt 0.0031250000000000028 0.97034375
vt 0.0031250000000000167 0.95274296875
vt 0.10696099105522139 0.7413875
vt 0.12161411605522139 0.7413875
vt 0.11973052230522138 0.7578125
vt 0.10884458480522138 0.7578125
vt 0.2189721855792801 0.93917421875
vt 0.2298581230792801 0.93917421875
vt 0.2244151543292801 0.9609375
vt 0.009447656250000002 0.96843046875
vt 0.0163359375 0.980746875
vt 0.011707812499999998 0.9855859375
vt 0.0031250000000000028 0.97034375
vt 0.2596414762679747 0.7954367013908819
vt 0.274275 0.7961943658613939
vt 0.2715446436582449 0.8125
vt 0.2606732681153764 0.8119371242945129
vt 0.2298581230792801 0.93917421875
vt 0.2394624099733214 0.9442987976118045
vt 0.2244151543292801 0.9609375
vt 0.0163359375 0.980746875
vt 0.028267968749999997 0.9878578125
vt 0.026573437499999998 0.99438671875
vt 0.011707812499999998 0.9855859375
vt 0.002389549857273337 0.6945125
vt 0.017042674857273336 0.6945125
vt 0.015159081107273337 0.7109375
vt 0.004273143607273337 0.7109375
vt 0.2583902443559587 0.9052362976118045
vt 0.26799453125 0.9001117187500001
vt 0.2734375 0.921875
vt 0.028267968749999997 0.9878578125
vt 0.04204453125 0.9878578125
vt 0.0437390625 0.99438671875
vt 0.026573437499999998 0.99438671875
vt 0.2778296875 0.6945125
vt 0.2924828125 0.6945125
vt 0.29059921875 0.7109375
vt 0.27971328125 0.7109375
vt 0.26799453125 0.9001117187500001
vt 0.27888046875 0.9001117187500001
vt 0.2734375 0.921875
vt 0.14175530811371 0.697664465772937
vt 0.12032249561371 0.697664465772937
vt 0.14164671436371 0.6828074345229369
vt 0.31804765625 0.655078125
vt 0.3125 0.68046953125
vt 0.30695234375 0.655078125
vt 0.303859375 0.90155625
vt 0.32518359375 0.91641328125
vt 0.30375 0.91641328125
vt 0.14890625 0.9375
vt 0.1640625 0.95265625
vt 0.143359375 0.94710859375
vt 0.143359375 0.94710859375
vt 0.1640625 0.95265625
vt 0.143359375 0.95820390625
vt 0.143359375 0.95820390625
vt 0.1640625 0.95265625
vt 0.14890625 0.9678125
vt 0.14890625 0.9678125
vt 0.1640625 0.95265625
vt 0.15851484375 0.973359375
vt 0.15851484375 0.973359375
vt 0.1640625 0.95265625
vt 0.16961015625 0.967890625
vt 0.16961015625 0.967890625
vt 0.1640625 0.95265625
vt 0.17921874999999998 0.9678125
vt 0.17921874999999998 0.9678125
vt 0.1640625 0.95265625
vt 0.184765625 0.95820390625
vt 0.184765625 0.95820390625
vt 0.1640625 0.95265625
vt 0.184765625 0.94710859375
vt 0.184765625 0.94710859375
vt 0.1640625 0.95265625
vt 0.17921796875 0.93750078125
vt 0 0.6454368870857856
vt 0.015625 0.640625
vt 0.015625 0.6658036109130303
vt 0.0034393990383447502 0.667110247653609
vt 0.1456796875 0.7383898802249862
vt 0.1640625 0.7426101927249862
vt 0.1624046875 0.7648773802249862
vt 0.14779296875 0.7645109739749862
vt 0.03168510937334043 0.5842010780986409
vt 0.0390625 0.5810676604170203
vt 0.0390625 0.607295418444303
vt 0.03125 0.609375
vt 0.328125 0.8034963027091162
vt 0.3329390217382862 0.7890625
vt 0.35462267359218824 0.792508976963569
vt 0.3532924459873149 0.8034963027091162
vt 0.4168949424171581 0.8745488782566424
vt 0.42013358754440955 0.8671875
vt 0.4453125 0.8671875
vt 0.4431166245929033 0.875
vt 0.0703125 0.7505696477446481
vt 0.08878470942460245 0.746760327016723
vt 0.08609359192749111 0.77284921875
vt 0.07146899722741133 0.77284921875
vt 0.375 0.8971278583074365
vt 0.38055815272331783 0.8828125
vt 0.3985172306877034 0.8861954680416291
vt 0.39693170231993835 0.8971278583074365
vt 0 0.7236759924660457
vt 0.018371875 0.7188127112160457
vt 0.01619296875 0.7410353674660457
vt 0.0015937499999999997 0.7414455237160458
vt 0.0034439082500712925 0.6080386625519547
vt 0.008672845156151993 0.59375
vt 0.0234375 0.5971310286409814
vt 0.021689544266461025 0.6080386625519547
vt 0.05976328125 0.7040660022071572
vt 0.078125 0.6997566272071571
vt 0.07607109375 0.7175191272071572
vt 0.06147734375 0.7180230334571571
vt 0.3150934181047492 0.71875
vt 0.32801294935474923 0.7208484374999999
vt 0.3284559181047492 0.73422265625
vt 0.31908013685474923 0.73324296875
vt 0.2237311923766836 0.6904414966294166
vt 0.2421875 0.6884028747774993
vt 0.23986140740622197 0.702325
vt 0.22523227767244838 0.702325
vt 0.32801294935474923 0.7208484374999999
vt 0.34375 0.719925993196685
vt 0.34070729450167714 0.732956836285112
vt 0.3284541888263173 0.7341704454608007
vt 0.2759453125 0.6826546875
vt 0.2943671875 0.6826546875
vt 0.2924828125 0.6945125
vt 0.2778296875 0.6945125
vt 0.0703125 0.5852428045561913
vt 0.0703125 0.5703125
vt 0.08492129884245375 0.5743122947846356
vt 0.08368002770276634 0.5853208919881145
vt 0 0.6806346021698635
vt 0.018465598174901655 0.6825931594803298
vt 0.017011982357598397 0.6945125
vt 0.002389549857273337 0.6945125
vt 0.0703125 0.5989707427650488
vt 0.0859375 0.59375
vt 0.0859375 0.6120244631666246
vt 0.0736755770197544 0.613711719126938
vt 0.2578125 0.777720928361394
vt 0.2761328125 0.782202959611394
vt 0.274275 0.7961943658613939
vt 0.2597140625 0.795440459611394
vt 0.34375 0.7555516410030686
vt 0.359375 0.75
vt 0.359375 0.7719556010197328
vt 0.3471161594880084 0.7734906315420085
vt 0.10401833904191016 0.719298245444802
vt 0.12254416095808984 0.7235345237982632
vt 0.12154648701884507 0.7413875
vt 0.10696099105522139 0.7413875
vt 0.25 0.5500686267049035
vt 0.265625 0.546875
vt 0.265625 0.556285128521908
vt 0.25103950726601476 0.5566436480247772
vt 0.35162151916689444 0.5569392466588157
vt 0.35162151916689444 0.5396636269201922
vt 0.359375 0.5390625
vt 0.3592097162960768 0.5576299612122264
vt 0.4775842585369311 0.828125
vt 0.49169639258074277 0.828125
vt 0.4921875 0.8356894024045145
vt 0.47697480554092453 0.8359375
vt 0.452889081895889 0.9400772353009756
vt 0.452889081895889 0.9225844763184341
vt 0.4609375 0.921875
vt 0.46063694343932193 0.9407328916730235
vt 0.12604976890274988 0.515625
vt 0.14027173921973712 0.515625
vt 0.140625 0.5231395946857097
vt 0.12527195721253034 0.5234375
vt 0.09313546285550095 0.5575578642225294
vt 0.09313546285550095 0.5399570263615581
vt 0.1015625 0.5390625
vt 0.10119895137654691 0.5580633024604633
vt 0.4774239156986379 0.84375
vt 0.4915355308179081 0.84375
vt 0.49177586862026196 0.8512955221685131
vt 0.4765625 0.8515625
vt 0.07174343322284801 0.5
vt 0.078125 0.5
vt 0.07591648757297187 0.5077179872150525
vt 0.06904869906475194 0.5078125
vt 0.0625 0.5575493474728519
vt 0.0625 0.540056523801275
vt 0.07129525428747385 0.5390625
vt 0.07096619217068761 0.55792027183167
vt 0.46017058332199046 0.6091354123366245
vt 0.46017058332199046 0.595023235323879
vt 0.46875 0.59416174830707
vt 0.4684835382612326 0.609375
vt 0.2243238501868095 0.546875
vt 0.24181617289592294 0.546875
vt 0.2421875 0.5543591229952073
vt 0.2233300400021359 0.5546875
vt 0.3828125 0.5090750959293602
vt 0.3828125 0.5026941526787445
vt 0.39124368221721856 0.5
vt 0.39114756433467085 0.5068668627891888
vt 0.4296875 0.5465214732403907
vt 0.4296875 0.5323000910578586
vt 0.437967566434221 0.5315218354895186
vt 0.4376693312075578 0.546875
vt 0.4383942628610794 0.578125
vt 0.45599450667056457 0.578125
vt 0.4565004731653124 0.5855747729871581
vt 0.4375 0.5859375
vt 0.0390625 0.5229461229722169
vt 0.0390625 0.5088343028196789
vt 0.04702872379433107 0.5082246335064242
vt 0.046779296115832314 0.5234375
vt 0.446022260245696 0.90625
vt 0.4635146809327862 0.90625
vt 0.46417056645703286 0.9137640379015659
vt 0.4453125 0.9140625
vt 0.4765625 0.7338362983879307
vt 0.4765625 0.7199458736670742
vt 0.4842799143336912 0.719446227296827
vt 0.484140566939978 0.734375
vt 0.4459130687452325 0.703125
vt 0.46318833155655303 0.703125
vt 0.46387978243970324 0.7107735253908313
vt 0.4453125 0.7109375
vt 0.203125 0.5220623874851911
vt 0.20318177706589818 0.5082859419827693
vt 0.2109375 0.5078125
vt 0.2109375 0.5225985630707708
vt 0.4562609375 0.890625
vt 0.4734265625 0.890625
vt 0.4740546875 0.8984375
vt 0.4556328125 0.8984375
vt 0.39582734375 0.92668125
vt 0.38542265625 0.92668125
vt 0.3832984375 0.923521875
vt 0.3979515625 0.923521875
vt 0.3944890625 0.942153125
vt 0.39582734375 0.92668125
vt 0.3979515625 0.923521875
vt 0.39606796875 0.9453125
vt 0.3867609375 0.942153125
vt 0.3944890625 0.942153125
vt 0.39606796875 0.9453125
vt 0.38518203125 0.9453125
vt 0.38542265625 0.92668125
vt 0.3867609375 0.942153125
vt 0.38518203125 0.9453125
vt 0.3832984375 0.923521875
vt 0.2890625 0.5078125
vt 0.28125 0.5078125
vt 0.28125 0.5
vt 0.2890625 0.5
vt 0.50479980269859 0.6640625
vt 0.49515576207594386 0.6640625
vt 0.4921875 0.6602080987788108
vt 0.5076939940765491 0.6601493741429868
vt 0.4921875 0.7265625
vt 0.5 0.7265625
vt 0.5 0.734375
vt 0.4921875 0.734375
vt 0.484375 0.9093362094074787
vt 0.484375 0.9189808702637363
vt 0.4765625 0.921875
vt 0.4767923274349976 0.9063684238794332
vn 3.3636717879478065e-15 -0.9652802845607621 0.26121633225794744
vn 0.4518689194467677 0.42808634473905166 0.7826599268430501
vn 0.1794895396544358 0.9333456062030588 0.31088500210863135
vn 8.186236450651028e-16 -0.9652802845607658 0.2612163322579341
vn 0.7826599268430501 0.42808634473905144 0.4518689194467678
vn 0.3108850021086314 0.9333456062030588 0.1794895396544358
vn -4.521460653927705e-16 -0.9652802845607641 0.2612163322579397
vn 0.9037378388935355 0.42808634473905144 0
vn 0.3589790793088714 0.9333456062030588 0
vn 7.3761743165673e-15 -0.9652802845607655 0.26121633225793495
vn 0.8318730549505218 0.27805807654106246 -0.4802821322072801
vn 0.3282311248349659 0.9369529822327881 -0.11993097087348974
vn 0.4542900079093498 -0.8824982796842871 0.12172664074883865
vn 0.5680502036828623 0.253712968372505 -0.7829104008604505
vn 0.14887393908361812 0.9546445417258244 -0.2578572264157401
vn 0 -1 0
vn 6.471745169181503e-16 0.24168955812757953 -0.9703536249698331
vn 0 0.957024404433473 -0.29000739528287267
vn -0.29745335103778037 -0.9072171779198134 0.2974533510377801
vn -0.4701931912525397 0.4302532140799925 -0.7705845408996919
vn -0.26413982772126504 0.9370977255334811 -0.22820605647387432
vn 5.392065870739365e-16 -0.9652802845607643 0.26121633225793917
vn -0.7826599268430502 0.42808634473905144 -0.45186891944676766
vn -0.31088500210863135 0.9333456062030587 -0.17948953965443573
vn 9.042921307855433e-16 -0.965280284560764 0.26121633225794
vn -0.9037378388935356 0.4280863447390517 -2.1397458607967782e-16
vn -0.3589790793088714 0.9333456062030588 0
vn -1.1550712185048434e-14 -0.9652802845607641 0.2612163322579398
vn -0.7826599268430503 0.42808634473905166 0.45186891944676744
vn -0.31088500210863146 0.9333456062030587 0.17948953965443556
vn -2.599151900177281e-15 -0.9652802845607623 0.26121633225794666
vn -0.4518689194467677 0.42808634473905144 0.7826599268430502
vn -0.17948953965443573 0.9333456062030588 0.3108850021086314
vn 0 -0.9652802845607621 0.261216332257947
vn 0 0.42808634473905144 0.9037378388935355
vn 0 0.9333456062030588 0.35897907930887135
vn 0.2974533510377803 -0.9072171779198133 0.2974533510377804
vn -7.697311873357804e-17 -0.9692313691828853 0.24615148383032281
vn -0.29745335103778026 -0.9072171779198134 0.2974533510377802
vn 0 -1 0
vn 0 -1 0
vn 0 -1 0
vn 0 -1 0
vn 0 -1 0
vn 0 -1 0
vn 0 -1 0
vn 0 -1 0
vn 0 -1 0
vn 0.7904411106336305 -0.3077960846587854 0.5295889168864795
vn -0.7791210252443542 0.33152511658883643 -0.5320352667755633
vn 0.6739490959579487 0.04045930459617089 -0.7376690726396613
vn -0.7778738787491409 -0.33776424930944 0.5299316377120706
vn -0.6717915763482487 0.05419501568936653 -0.7387550190841105
vn 0.7948387905896438 0.2928764332646799 -0.531464666569803
vn -0.9236254779341345 -0.371910664221797 0.09272774314650194
vn 0.9418538995050385 0.32604135663819195 -0.081291240294882
vn -0.8299584060027493 -0.41585020550239543 -0.3718032421711665
vn 0.8383881734273001 0.3826846593824324 0.38814652147170847
vn -0.20090892743377345 -0.4656764802619011 -0.8618474450900798
vn 0.4933039706512739 0.4583663910317627 0.7392911768120898
vn -0.3200039034386838 -0.3861351019892648 -0.8651573179461328
vn 0 0.5198553790356207 0.8542542858468612
vn 0.5023130682789029 -0.4106756700683757 -0.7609382862296556
vn -0.48252406710146356 0.5190727185980059 0.7055026842437512
vn 0.844929583910707 -0.36193615781275973 -0.39382256905898216
vn -0.8142344761160706 0.45924675839065954 0.35512622095764707
vn 0.941721719506215 -0.32640062183273494 0.08138081516832908
vn -0.9169920570389866 0.38705626461888826 -0.09650396544537003
vn -0.49013401594293665 -0.4936558607993344 -0.7183818883533447
vn 0.48540350477944993 -0.07868786470389424 0.8707420154650677
vn -0.8472498358596466 0.10792785224104322 -0.5201146934537011
vn 0.8353388694037116 -0.15181085483563558 0.5283582474206328
vn -0.9718351031965426 0.2274797881108629 -0.06155873777135452
vn 0.9605504248340453 -0.26845012447788613 0.07264579835711747
vn -0.8465415374564337 0.3584103548366654 0.3935853692742568
vn -0.6877754274305782 -0.22720980452498338 -0.6894495385090952
vn 0.8345669066736818 -0.400292627287132 -0.37850216752970833
vn 0.8472445354578981 0.35551278578566636 0.39469907053303954
vn -0.8331117387339996 -0.40539282876712635 -0.37627315233457637
vn 0.687716207977331 -0.22909391381372415 -0.6888848930981071
vn 0.9738514394230016 0.2192979443807638 -0.05934463349048075
vn -0.9568350248857596 -0.2805409672230718 0.07591772429025512
vn 0.849833042834513 0.09567434483691852 -0.5182954939478632
vn -0.8307560333342567 -0.16904250477004887 0.5303480410634128
vn 0.4970272802247337 0.0135818941440088 -0.8676286157474666
vn -0.4832516790058415 -0.09214710931764722 0.8706185875470595
vn 0 -0.011113395448725206 -0.9999382443139179
vn -4.0351280193009563e-16 -0.05974914849715892 0.9982134236994936
vn 3.228013524287063e-16 0.25096215878372746 -0.9679968981658006
vn -2.3654392175962227e-15 0.25096215878372874 -0.9679968981658004
vn 0 0.2509621587837283 -0.9679968981658005
vn 0 0.2509621587837283 -0.9679968981658005
vn 5.256786476558165e-16 -0.6154365353504738 -0.7881864442857445
vn -0.9845593713571894 0.10773276630956505 0.13797280650919833
vn 0 0.925195158536773 -0.3794916581693405
vn 0.9852394414630099 0.15837666537408357 -0.06496210318825742
usemtl m_54b34a1e-1586-476a-5d98-d712507b2029
f 71/1/1 69/2/1 70/3/1 72/4/1
f 3/5/2 5/6/2 6/7/2 4/8/2
f 4/9/3 6/10/3 2/11/3
f 69/12/4 67/13/4 68/14/4 70/15/4
f 5/16/5 7/17/5 8/18/5 6/19/5
f 6/20/6 8/21/6 2/22/6
f 67/23/7 63/24/7 66/25/7 68/26/7
f 7/27/8 9/28/8 10/29/8 8/30/8
f 8/31/9 10/32/9 2/33/9
f 63/34/10 65/35/10 64/36/10 66/37/10
f 9/38/11 11/39/11 12/40/11 10/41/11
f 10/42/12 12/43/12 2/44/12
f 27/45/13 28/46/13 13/47/13 11/48/13
f 11/49/14 13/50/14 14/51/14 12/52/14
f 12/53/15 14/54/15 2/55/15
f 28/56/16 29/57/16 15/58/16 13/59/16
f 83/60/17 84/61/17 85/62/17 86/63/17
f 14/64/18 16/65/18 2/66/18
f 29/67/19 30/68/19 17/69/19 15/70/19
f 15/71/20 17/72/20 18/73/20 16/74/20
f 16/75/21 18/76/21 2/77/21
f 59/78/22 61/79/22 60/80/22 62/81/22
f 17/82/23 19/83/23 20/84/23 18/85/23
f 18/86/24 20/87/24 2/88/24
f 61/89/25 77/90/25 78/91/25 60/92/25
f 19/93/26 21/94/26 22/95/26 20/96/26
f 20/97/27 22/98/27 2/99/27
f 77/100/28 75/101/28 76/102/28 78/103/28
f 21/104/29 23/105/29 24/106/29 22/107/29
f 22/108/30 24/109/30 2/110/30
f 75/111/31 73/112/31 74/113/31 76/114/31
f 23/115/32 25/116/32 26/117/32 24/118/32
f 24/119/33 26/120/33 2/121/33
f 73/122/34 71/123/34 72/124/34 74/125/34
f 25/126/35 3/127/35 4/128/35 26/129/35
f 26/130/36 4/131/36 2/132/36
f 27/133/37 1/134/37 28/135/37
f 28/136/38 1/137/38 29/138/38
f 29/139/39 1/140/39 30/141/39
f 30/142/40 1/143/40 31/144/40
f 31/145/41 1/146/41 32/147/41
f 32/148/42 1/149/42 33/150/42
f 33/151/43 1/152/43 34/153/43
f 34/154/44 1/155/44 35/156/44
f 35/157/45 1/158/45 36/159/45
f 36/160/46 1/161/46 37/162/46
f 37/163/47 1/164/47 38/165/47
f 38/166/48 1/167/48 27/168/48
f 41/169/49 39/170/49 30/171/49 31/172/49
f 42/173/50 40/174/50 19/175/50 17/176/50
f 39/177/51 42/178/51 17/179/51 30/180/51
f 45/181/52 43/182/52 38/183/52 27/184/52
f 44/185/53 45/186/53 27/187/53 11/188/53
f 46/189/54 44/190/54 11/191/54 9/192/54
f 43/193/55 47/194/55 37/195/55 38/196/55
f 48/197/56 46/198/56 9/199/56 7/200/56
f 47/201/57 49/202/57 36/203/57 37/204/57
f 50/205/58 48/206/58 7/207/58 5/208/58
f 49/209/59 51/210/59 35/211/59 36/212/59
f 52/213/60 50/214/60 5/215/60 3/216/60
f 51/217/61 53/218/61 34/219/61 35/220/61
f 54/221/62 52/222/62 3/223/62 25/224/62
f 53/225/63 55/226/63 33/227/63 34/228/63
f 56/229/64 54/230/64 25/231/64 23/232/64
f 55/233/65 57/234/65 32/235/65 33/236/65
f 58/237/66 56/238/66 23/239/66 21/240/66
f 57/241/67 41/242/67 31/243/67 32/244/67
f 40/245/68 58/246/68 21/247/68 19/248/68
f 69/249/69 71/250/69 51/251/69 49/252/69
f 72/253/70 70/254/70 50/255/70 52/256/70
f 67/257/71 69/258/71 49/259/71 47/260/71
f 70/261/72 68/262/72 48/263/72 50/264/72
f 63/265/73 67/266/73 47/267/73 43/268/73
f 68/269/74 66/270/74 46/271/74 48/272/74
f 65/273/75 63/274/75 43/275/75 45/276/75
f 64/277/76 65/278/76 45/279/76 44/280/76
f 66/281/77 64/282/77 44/283/77 46/284/77
f 61/285/78 59/286/78 39/287/78 41/288/78
f 62/289/79 60/290/79 40/291/79 42/292/79
f 59/293/80 62/294/80 42/295/80 39/296/80
f 77/297/81 61/298/81 41/299/81 57/300/81
f 60/301/82 78/302/82 58/303/82 40/304/82
f 75/305/83 77/306/83 57/307/83 55/308/83
f 78/309/84 76/310/84 56/311/84 58/312/84
f 73/313/85 75/314/85 55/315/85 53/316/85
f 76/317/86 74/318/86 54/319/86 56/320/86
f 71/321/87 73/322/87 53/323/87 51/324/87
f 74/325/88 72/326/88 52/327/88 54/328/88
f 80/329/89 79/330/89 13/331/89 15/332/89
f 81/333/90 80/334/90 15/335/90 16/336/90
f 82/337/91 81/338/91 16/339/91 14/340/91
f 79/341/92 82/342/92 14/343/92 13/344/92
f 84/345/93 83/346/93 79/347/93 80/348/93
f 85/349/94 84/350/94 80/351/94 81/352/94
f 86/353/95 85/354/95 81/355/95 82/356/95
f 83/357/96 86/358/96 82/359/96 79/360/96
o cylinder
v 5.23085848140699e-18 1.431249999999999 0.0021190716127928444
v 0.07248737341529164 1.2617021276595755 0.17499999999999993
v 0.07248737341529164 1.431249999999999 0.17499999999999993
v 0.17500000000000002 1.2617021276595755 0.07372869682642585
v 0.17500000000000002 1.431249999999999 0.07372869682642585
v 0.17500000000000002 1.2617021276595755 -0.06949055360084017
v 0.17500000000000002 1.431249999999999 -0.06949055360084017
v 0.096045065722984 1.2617021276595755 -0.17076185677441424
v 0.096045065722984 1.431249999999999 -0.17076185677441424
v -0.09604506572298395 1.2617021276595755 -0.1707618567744143
v -0.09604506572298395 1.431249999999999 -0.1707618567744143
v -0.17499999999999993 1.2617021276595755 -0.06949055360084028
v -0.17499999999999993 1.431249999999999 -0.06949055360084028
v -0.17500000000000002 1.2617021276595755 0.07372869682642588
v -0.17500000000000002 1.431249999999999 0.07372869682642588
v -0.07248737341529175 1.2617021276595755 0.17499999999999993
v -0.07248737341529175 1.431249999999999 0.17499999999999993
v 3.218989834711993e-18 1.1124999999999998 -0.07102285962794867
v 0.044607614409410225 1.1531914893617026 0.06861173637710319
v 0.10769230769230766 1.1531914893617026 0.006290934424134559
v 0.10769230769230766 1.1531914893617026 -0.08184398891572145
v 0.05703364991236883 1.1531914893617026 -0.1441647908686901
v -0.057033649912368804 1.1531914893617026 -0.1441647908686901
v -0.10769230769230764 1.1531914893617026 -0.0818439889157215
v -0.10769230769230766 1.1531914893617026 0.006290934424134573
v -0.044607614409410294 1.1531914893617026 0.06861173637710319
v 2.0336358960645266e-17 1.1531914893617026 -0.1441647908686901
v 2.989061989375422e-17 1.295611702127661 -0.19070965620370744
v 2.989061989375422e-17 1.431249999999999 -0.19070965620370744
v 0.0013687933530757222 1.1331421752779485 -0.205069953819012
v 0.0013687933530757317 1.2733231296907788 -0.2413426476389517
vt 0.3340047262120053 0.7528178501379632
vt 0.32588828125 0.7603679501548936
vt 0.3203122660907617 0.7421875
vt 0.34375 0.625
vt 0.359375 0.625
vt 0.359375 0.6484375
vt 0.34375 0.6484375
vt 0.0324984375 0.8605359375
vt 0.0453125 0.87319453125
vt 0.0234375 0.88214609375
vt 0.34051047339012375 0.5580674340070276
vt 0.33136452660987625 0.5642099154195381
vt 0.33136452660987625 0.546875
vt 0.0546875 0.625
vt 0.0703125 0.625
vt 0.0703125 0.6484375
vt 0.0546875 0.6484375
vt 0.0453125 0.87319453125
vt 0.0453125 0.891096875
vt 0.0234375 0.88214609375
vt 0.008606413555480016 0.5327232101267352
vt 0 0.5378916162244558
vt 6.938893903907228e-18 0.5234375
vt 0.3515625 0.6875
vt 0.3671875 0.6875
vt 0.3671875 0.7109375
vt 0.3515625 0.7109375
vt 0.0453125 0.891096875
vt 0.03544296875 0.90375625
vt 0.0234375 0.88214609375
vt 0.453125 0.984375
vt 0.453125 0.9948375
vt 0.44599609375 0.9948375
vt 0.390625 0.703125
vt 0.375 0.703125
vt 0.375 0.6861703125
vt 0.390625 0.68193125
vt 0.023437500000000003 0.88214609375
vt 0.0234375 0.90625
vt 0.011432031249999999 0.90375625
vt 0.4765625 0.96875
vt 0.4713940939022794 0.97735641355548
vt 0.46210838377554414 0.96875
vt 0.3515625 0.65625
vt 0.3671875 0.65625
vt 0.3671875 0.6796875
vt 0.3515625 0.6796875
vt 0.01143203125 0.90375625
vt 0.0015625000000000014 0.891096875
vt 0.0234375 0.88214609375
vt 0.45007370770976907 0.5546875
vt 0.4439312262972586 0.5638334467802475
vt 0.43273879229023093 0.5546875
vt 0.3515625 0.71875
vt 0.3671875 0.71875
vt 0.3671875 0.7421875
vt 0.3515625 0.7421875
vt 0.0015625000000000014 0.891096875
vt 0.0015625000000000014 0.87319453125
vt 0.0234375 0.88214609375
vt 0.31473671875 0.7603679501548936
vt 0.3066202737879947 0.7528178501379632
vt 0.3203127339092383 0.7421875
vt 0.359375 0.9375
vt 0.375 0.9375
vt 0.375 0.9609375
vt 0.359375 0.9609375
vt 0.0015625000000000014 0.87319453125
vt 0.0143765625 0.8605359375
vt 0.0234375 0.88214609375
vt 0.32588828125 0.7603679501548936
vt 0.31473671875 0.7603679501548936
vt 0.3203125 0.7421882626548936
vt 0.1796875 0.625
vt 0.1953125 0.625
vt 0.1953125 0.6484375
vt 0.1796875 0.6484375
vt 0.0143765625 0.8605359375
vt 0.0324984375 0.8605359375
vt 0.0234375 0.88214609375
vt 0.40291640625 0.7734375
vt 0.4140015625 0.7734375
vt 0.4140625 0.7890625
vt 0.39605 0.7890625
vt 0.385425 0.65625
vt 0.3964421875 0.65625
vt 0.39489765625 0.671875
vt 0.3769953125 0.671875
vt 0.29568715085028857 0.8462088280770542
vt 0.3057258801096273 0.846290625
vt 0.30510934810553514 0.8610696859127156
vt 0.2890625 0.8608092422202485
vt 0.359375 0.6082329808523086
vt 0.344707509632241 0.6118495201426594
vt 0.344707509632241 0.59375
vt 0.35522689083419756 0.5942689118600955
vt 0.3984375 0.7195555901359311
vt 0.3985152024206069 0.7095168283491001
vt 0.4140625 0.703125
vt 0.4140625 0.719173918234238
vt 0.3848078125 0.859375
vt 0.395825 0.859375
vt 0.4042546875 0.875
vt 0.38635234375 0.875
vt 0.3906859375 0.796875
vt 0.40177109375 0.796875
vt 0.4086375 0.8125
vt 0.390625 0.8125
vt 0.16239296875 0.59375
vt 0.17354453125 0.59375
vt 0.1770296875 0.609375
vt 0.1589078125 0.609375
vt 0.3057258801096273 0.846290625
vt 0.3160313488596273 0.84375
vt 0.3194993176096273 0.86151484375
vt 0.3051274426096273 0.8606359375
vt 0.3828125 0.95536875
vt 0.3984375 0.9596078125
vt 0.3984375 0.9765625
vt 0.3828125 0.9765625
vt 0.03544296875 0.90375625
vt 0.0234375 0.90625
vt 0.02343750000000001 0.88214609375
vt 0.46025390625 0.9948375
vt 0.453125 0.9948375
vt 0.453125 0.984375
vt 0.47844775520769345 0.546875
vt 0.47844775520769345 0.531767984264307
vt 0.484375 0.543308281861638
vt 0.48454609375 0.6015625
vt 0.484375 0.6095781250000001
vt 0.47724609375 0.6095781250000001
vt 0.48454609375 0.6015625
vt 0.49150390625 0.6095781250000001
vt 0.484375 0.6095781250000001
vt 0.48953345747152005 0.7037437529989862
vt 0.48953345747152005 0.7106606460018796
vt 0.4765625 0.7109375
vn 0.208932053212691 -0.9547869398173872 0.21149301807501486
vn 0.7027864935703169 0 0.7114008324813368
vn 0 1 0
vn 0.35345931732645286 -0.9354498976402306 0
vn 1 0 0
vn 0 1 0
vn 0.31853045953585224 -0.9118645309533396 -0.2589235862897097
vn 0.788640817582413 0 -0.614854178519544
vn 0 1 0
vn 0 -0.873867590793598 -0.4861639988322796
vn -0.20335247750778587 0 -0.9791055969053826
vn 0 1 0
vn -0.31853045953585213 -0.9118645309533397 -0.25892358628970996
vn -0.7886408175824129 0 -0.6148541785195442
vn 0 1 0
vn -0.35345931732645286 -0.9354498976402306 -5.565595587615654e-17
vn -1 0 -5.813933992705381e-16
vn 0 1 0
vn -0.20893205321269104 -0.954786939817387 0.21149301807501472
vn -0.7027864935703171 0 0.7114008324813365
vn 0 1 0
vn 0 -0.9600651541438149 0.27977651759719463
vn 0 0 1
vn 0 1 0
vn 0.5281006323089248 -0.659803455862124 0.5345737758133224
vn 0.8497936089525631 -0.5271155681474209 0
vn 0.7119343207342169 -0.3978000674882621 -0.5787094515100333
vn -0.5575090943054366 -0.20796261068242675 -0.803700915966183
vn -0.7180930475693561 -0.3789701407437043 -0.5837156906039546
vn -0.8497936089525631 -0.527115568147421 -1.3380910697572956e-16
vn -0.528100632308925 -0.6598034558621239 0.5345737758133222
vn 0 -0.7000891436762665 0.7140554536635315
vn 0.7544587421722657 -0.16441885086469002 -0.6354198988386952
vn 0.20335247750778637 0 -0.9791055969053825
vn 0 1 0
vn 0 -0.8738675907935981 -0.48616399883227984
vn -0.37719193355120456 0.8438402360870194 -0.381654164427047
vn 0 -0.949857620201934 0.3126827487155609
vn 0 -0.949857620201934 0.31268274871556084
vn 0.37642653679559607 0.851637853840404 -0.3647136250569539
usemtl m_54b34a1e-1586-476a-5d98-d712507b2029
f 106/361/97 105/362/97 104/363/97
f 88/364/98 90/365/98 91/366/98 89/367/98
f 89/368/99 91/369/99 87/370/99
f 107/371/100 106/372/100 104/373/100
f 90/374/101 92/375/101 93/376/101 91/377/101
f 91/378/102 93/379/102 87/380/102
f 108/381/103 107/382/103 104/383/103
f 92/384/104 94/385/104 95/386/104 93/387/104
f 93/388/105 95/389/105 87/390/105
f 104/391/106 113/392/106 108/393/106
f 97/394/107 115/395/107 114/396/107 96/397/107
f 87/398/108 115/399/108 97/400/108
f 110/401/109 109/402/109 104/403/109
f 96/404/110 98/405/110 99/406/110 97/407/110
f 97/408/111 99/409/111 87/410/111
f 111/411/112 110/412/112 104/413/112
f 98/414/113 100/415/113 101/416/113 99/417/113
f 99/418/114 101/419/114 87/420/114
f 112/421/115 111/422/115 104/423/115
f 100/424/116 102/425/116 103/426/116 101/427/116
f 101/428/117 103/429/117 87/430/117
f 105/431/118 112/432/118 104/433/118
f 102/434/119 88/435/119 89/436/119 103/437/119
f 103/438/120 89/439/120 87/440/120
f 105/441/121 106/442/121 90/443/121 88/444/121
f 106/445/122 107/446/122 92/447/122 90/448/122
f 107/449/123 108/450/123 94/451/123 92/452/123
f 96/453/124 117/454/124 116/455/124 109/456/124
f 109/457/125 110/458/125 98/459/125 96/460/125
f 110/461/126 111/462/126 100/463/126 98/464/126
f 111/465/127 112/466/127 102/467/127 100/468/127
f 112/469/128 105/470/128 88/471/128 102/472/128
f 108/473/129 116/474/129 117/475/129 94/476/129
f 94/477/130 114/478/130 115/479/130 95/480/130
f 95/481/131 115/482/131 87/483/131
f 109/484/132 113/485/132 104/486/132
f 117/487/133 96/488/133 114/489/133
f 116/490/134 113/491/134 109/492/134
f 116/493/135 108/494/135 113/495/135
f 117/496/136 114/497/136 94/498/136
o cuboid
v -0.275 1.5258125040649304 -0.23696514940407692
v -0.275 1.5197644566749386 -0.21270775624717697
v -0.025000000000000015 1.4712333694619042 -0.2505732560315586
v -0.025000000000000015 1.4651853220719124 -0.22631586287465866
v -0.025000000000000015 1.4105898865696542 -0.26569337450653785
v -0.025000000000000015 1.4045418391796627 -0.2414359813496379
vt 0.3046875 0.5
vt 0.3046875 0.5078125
vt 0.296875 0.5078125
vt 0.296875 0.5
vt 0.1015625 0.5859375
vt 0.1015625 0.6171875
vt 0.09375 0.6171875
vt 0.09375 0.5859375
vt 0.1953125 0.6171875
vt 0.1875 0.6171875
vt 0.1875 0.5859375
vt 0.1953125 0.5859375
vt 0.2477668670511598 0.8913806444972321
vt 0.21652263931265495 0.8984375
vt 0.2131706329488402 0.8913806444972321
vt 0.3258918670511598 0.8288806444972321
vt 0.294647639312655 0.8359375
vt 0.2912956329488402 0.8288806444972321
vn 1 0 0
vn 0.21951219512195683 0.9466299768546296 0.23602136156065112
vn -0.42905681456829214 -0.8764463021162132 -0.21852260610592636
vn 0 0.24192189559966767 -0.9702957262759965
vn 0 0.24192189559966767 -0.9702957262759965
usemtl m_54b34a1e-1586-476a-5d98-d712507b2029
f 122/499/137 120/500/137 121/501/137 123/502/137
f 120/503/138 118/504/138 119/505/138 121/506/138
f 119/507/139 118/508/139 122/509/139 123/510/139
f 118/511/140 120/512/140 122/513/140
f 119/514/141 121/515/141 123/516/141
o cuboid
v 0.275 1.5258125040649304 -0.23696514940407692
v 0.275 1.5197644566749386 -0.21270775624717697
v 0.025000000000000015 1.4712333694619042 -0.2505732560315586
v 0.025000000000000015 1.4651853220719124 -0.22631586287465866
v 0.025000000000000015 1.4105898865696542 -0.26569337450653785
v 0.025000000000000015 1.4045418391796627 -0.2414359813496379
vt 0.296875 0.5078125
vt 0.3046875 0.5078125
vt 0.3046875 0.5
vt 0.296875 0.5
vt 0.09375 0.6171875
vt 0.1015625 0.6171875
vt 0.1015625 0.5859375
vt 0.09375 0.5859375
vt 0.1875 0.5859375
vt 0.1875 0.6171875
vt 0.1953125 0.6171875
vt 0.1953125 0.5859375
vt 0.21652263931265495 0.8984375
vt 0.2477668670511598 0.8913806444972321
vt 0.2131706329488402 0.8913806444972321
vt 0.294647639312655 0.8359375
vt 0.3258918670511598 0.8288806444972321
vt 0.2912956329488402 0.8288806444972321
vn -1 0 0
vn -0.21951219512195683 0.9466299768546296 0.23602136156065112
vn 0.42905681456829214 -0.8764463021162132 -0.21852260610592636
vn 0 0.24192189559966767 -0.9702957262759965
vn 0 0.24192189559966767 -0.9702957262759965
usemtl m_54b34a1e-1586-476a-5d98-d712507b2029
f 127/517/142 126/518/142 128/519/142 129/520/142
f 125/521/143 124/522/143 126/523/143 127/524/143
f 128/525/144 124/526/144 125/527/144 129/528/144
f 126/529/145 124/530/145 128/531/145
f 127/532/146 125/533/146 129/534/146