# Made in Blockbench 5.1.5
mtllib ShogunLestArm.mtl

o cuboid
v -0.8250000000000001 1.0437500000000013 0.10937499999999997
v -0.8250000000000001 1.0437500000000013 -0.11718749999999994
v -0.8250000000000001 0.9187500000000017 0.10937499999999997
v -0.8250000000000001 0.9187500000000017 -0.11718749999999994
v -0.6250000000000001 1.0437500000000013 0.08437499999999995
v -0.6250000000000001 1.0437500000000013 -0.11718749999999994
v -0.6250000000000001 0.9187500000000017 0.08437499999999995
v -0.6250000000000001 0.9187500000000017 -0.11718749999999994
v -0.6250000000000001 0.9937500000000019 -0.11718749999999994
v -0.85 0.9937500000000019 -0.11718749999999994
v -0.85 0.9937500000000019 0.10937499999999997
v -0.6250000000000001 0.9937500000000019 0.08437499999999995
v -0.7250000000000001 0.9937500000000019 -0.11718749999999994
v -0.7250000000000001 1.0437500000000013 -0.11718749999999994
v -0.7250000000000001 1.0437500000000013 0.10937499999999997
v -0.7250000000000001 0.9937500000000019 0.10937499999999997
v -0.7250000000000001 0.9187500000000017 0.10937499999999997
v -0.7250000000000001 0.9187500000000017 -0.11718749999999994
v -0.85 0.9937500000000019 -0.042187500000000024
v -0.8250000000000001 0.9187500000000017 -0.042187500000000024
v -0.7250000000000001 0.9187500000000017 -0.042187500000000024
v -0.6250000000000001 0.9187500000000017 -0.042187500000000024
v -0.6250000000000001 0.9937500000000019 -0.042187500000000024
v -0.6250000000000001 1.0437500000000013 -0.042187500000000024
v -0.7250000000000001 1.0437500000000013 -0.042187500000000024
v -0.8250000000000001 1.0437500000000013 -0.042187500000000024
v -0.6250000000000001 0.8812500000000014 -0.14843749999999997
v -0.7250000000000001 0.8812500000000014 -0.14843749999999997
v -0.7250000000000001 0.8812500000000016 -0.042187500000000024
v -0.6250000000000001 0.8812500000000016 -0.042187500000000024
v -0.6812500000000001 0.9187500000000017 -0.042187500000000024
v -0.6812500000000001 0.9187500000000017 0.10937499999999997
v -0.6812500000000001 0.9937500000000019 0.10937499999999997
v -0.6812500000000001 1.0437500000000013 0.10937499999999997
v -0.6812500000000001 1.0437500000000013 -0.042187500000000024
v -0.6812500000000001 1.0437500000000013 -0.11718749999999994
v -0.6812500000000001 0.9937500000000019 -0.11718749999999994
v -0.6812500000000001 0.8812500000000014 -0.14843749999999997
v -0.6812500000000001 0.8812500000000016 -0.042187500000000024
v -0.7250000000000001 0.8937500000000016 -0.11718749999999994
v -0.8171875000000001 0.8937500000000016 -0.042187500000000024
v -0.7250000000000001 0.8937500000000016 -0.042187500000000024
v -0.8171875000000001 0.8937500000000016 -0.11718749999999994
v -0.8171875000000001 0.8937500000000016 0.10937499999999997
v -0.7250000000000001 0.8937500000000016 0.10937499999999997
v -0.6812500000000001 0.8937500000000016 -0.042187500000000024
v -0.6812500000000001 0.8937500000000016 0.10937499999999997
vt 0.33740234375 0.82358671875
vt 0.34677734375 0.82358671875
vt 0.34677734375 0.83346875
vt 0.33740234375 0.83346875
vt 0.253125 0.9609375
vt 0.253125 0.9515625
vt 0.265625 0.9515625
vt 0.265625 0.9609375
vt 0.20224609375 0.65625
vt 0.20224609375 0.665625
vt 0.19072265625 0.665625
vt 0.19072265625 0.65625
vt 0.332421875 0.8515625
vt 0.344921875 0.8515625
vt 0.344921875 0.8609375
vt 0.329296875 0.8609375
vt 0.31875 0.790625
vt 0.303125 0.790625
vt 0.303125 0.78125
vt 0.315625 0.78125
vt 0.20595703125 0.7125
vt 0.19658203125 0.7125
vt 0.19658203125 0.703125
vt 0.20595703125 0.703125
vt 0.315625 0.796875
vt 0.303125 0.796875
vt 0.303125 0.790625
vt 0.31875 0.790625
vt 0.41552734375 0.594575
vt 0.42490234375 0.594575
vt 0.42490234375 0.6015625
vt 0.41552734375 0.6015625
vt 0.329296875 0.8609375
vt 0.344921875 0.8609375
vt 0.344921875 0.8671875
vt 0.332421875 0.8671875
vt 0.20595703125 0.71875
vt 0.19658203125 0.71875
vt 0.19658203125 0.7125
vt 0.20595703125 0.7125
vt 0.290625 0.790625
vt 0.29765625 0.790625
vt 0.29765625 0.796875
vt 0.290625 0.796875
vt 0.278125 0.9609375
vt 0.27109375 0.9609375
vt 0.27109375 0.9515625
vt 0.278125 0.9515625
vt 0.1171875 0.5234375
vt 0.10949296875 0.5234375
vt 0.10949296875 0.5171875
vt 0.1171875 0.5171875
vt 0.1171875 0.5171875
vt 0.10949296875 0.5171875
vt 0.10949296875 0.5078125
vt 0.1171875 0.5078125
vt 0.014062499999999999 0.56015625
vt 0.007031249999999996 0.56015625
vt 0.007031249999999996 0.546875
vt 0.014062499999999999 0.546875
vt 0.4234375 0.7041546875
vt 0.43046875 0.7041546875
vt 0.43046875 0.71875
vt 0.4234375 0.71875
vt 0.36572265625 0.83346875
vt 0.34677734375 0.83346875
vt 0.34677734375 0.82358671875
vt 0.36572265625 0.82358671875
vt 0.19072265625 0.6845703125
vt 0.19072265625 0.665625
vt 0.20224609375 0.665625
vt 0.20224609375 0.6845703125
vt 0.421875 0.528125
vt 0.4140625 0.53125
vt 0.4140625 0.515625
vt 0.421875 0.515625
vt 0.18076171875 0.703125
vt 0.19658203125 0.703125
vt 0.19658203125 0.7125
vt 0.18076171875 0.7125
vt 0.18076171875 0.7125
vt 0.19658203125 0.7125
vt 0.19658203125 0.71875
vt 0.18076171875 0.71875
vt 0.278125 0.9515625
vt 0.27109375 0.9515625
vt 0.27109375 0.9326171875
vt 0.278125 0.9357421875
vt 0.265625 0.9326171875
vt 0.265625 0.9515625
vt 0.253125 0.9515625
vt 0.253125 0.9326171875
vt 0.44384765625 0.6015625
vt 0.42490234375 0.6015625
vt 0.42490234375 0.594575
vt 0.44384765625 0.594575
vt 0.251171875 0.571875
vt 0.255078125 0.5765625
vt 0.255078125 0.5859375
vt 0.20986328125 0.6984375
vt 0.20595703125 0.7125
vt 0.20595703125 0.703125
vt 0.19658203125 0.6984375
vt 0.20986328125 0.6984375
vt 0.20595703125 0.703125
vt 0.19658203125 0.703125
vt 0.50625 0.6484375
vt 0.49921875 0.6484375
vt 0.49921875 0.64375
vt 0.50625 0.64375
vt 0.251171875 0.571875
vt 0.264453125 0.571875
vt 0.264453125 0.5765625
vt 0.255078125 0.5765625
vt 0.20224609375 0.665625
vt 0.20771484375 0.665625
vt 0.20771484375 0.6845703125
vt 0.20224609375 0.6845703125
vt 0.344921875 0.8515625
vt 0.350390625 0.8515625
vt 0.350390625 0.8609375
vt 0.344921875 0.8609375
vt 0.344921875 0.8609375
vt 0.350390625 0.8609375
vt 0.350390625 0.8671875
vt 0.344921875 0.8671875
vt 0.265625 0.9326171875
vt 0.27109375 0.9326171875
vt 0.27109375 0.9515625
vt 0.265625 0.9515625
vt 0.265625 0.9515625
vt 0.27109375 0.9515625
vt 0.27109375 0.9609375
vt 0.265625 0.9609375
vt 0.303125 0.796875
vt 0.29765625 0.796875
vt 0.29765625 0.790625
vt 0.303125 0.790625
vt 0.4359375 0.71875
vt 0.43046875 0.71875
vt 0.43046875 0.7041546875
vt 0.4359375 0.7041546875
vt 0.0015625000000000014 0.546875
vt 0.007031249999999996 0.546875
vt 0.007031249999999996 0.56015625
vt 0.0015625000000000014 0.56015625
vt 0.49375 0.64375
vt 0.49921875 0.64375
vt 0.49921875 0.6484375
vt 0.49375 0.6484375
vt 0.4921875 0.671875
vt 0.5 0.671875
vt 0.5 0.6796875
vt 0.4921875 0.6796875
vt 0.33740234375 0.8203125
vt 0.34677734375 0.8203125
vt 0.34677734375 0.82358671875
vt 0.33740234375 0.82358671875
vt 0.303125 0.778125
vt 0.3146484375 0.778125
vt 0.315625 0.78125
vt 0.303125 0.78125
vt 0.34677734375 0.8203125
vt 0.36572265625 0.8203125
vt 0.36572265625 0.82358671875
vt 0.34677734375 0.82358671875
vt 0.3333984375 0.8484375
vt 0.344921875 0.8484375
vt 0.344921875 0.8515625
vt 0.332421875 0.8515625
vt 0.3359375 0.5
vt 0.34375 0.5
vt 0.34375 0.5078125
vt 0.3359375 0.5078125
vt 0.46875 0.578125
vt 0.484375 0.578125
vt 0.484375 0.5859375
vt 0.46875 0.5859375
vt 0.344921875 0.8484375
vt 0.350390625 0.8484375
vt 0.350390625 0.8515625
vt 0.344921875 0.8515625
vn -0.9486832980505144 -0.3162277660168363 0
vn 0 1 0
vn 0 -1 0
vn 0 0 1
vn 0 0 -1
vn 1 0 0
vn 0 0 -1
vn -0.8944271909999143 0.44721359549996115 0
vn 0 0 1
vn 1 0 0
vn 0 0 -1
vn 0 1 0
vn 0.4061384660534478 0 0.9138115486202572
vn 0.4061384660534478 0 0.913811548620257
vn 0 -1 2.0898315757650014e-15
vn 0 0.2676438637860938 -0.963517909629941
vn -0.9486832980505144 -0.3162277660168363 0
vn 0 -1 0
vn 0 -1 0
vn 1 0 0
vn 1 0 0
vn 0 1 0
vn 0 1 0
vn -0.8944271909999143 0.44721359549996115 0
vn -1 0 0
vn 1 0 0
vn 1 0 0
vn 0 0 1
vn -1 0 0
vn 0 -1 0
vn 0 0 1
vn 0 0 1
vn 0 1 0
vn 0 1 0
vn 0 0 -1
vn 0 0.2676438637860938 -0.963517909629941
vn 0 -1 2.0898315757650014e-15
vn 0 0 1
vn 1 0 0
vn -0.9544799780350304 -0.2982749931359454 0
vn 0 0 -1
vn -0.9544799780350303 -0.29827499313594535 0
vn 0 0 1
vn 0 0 -1
vn 1 0 0
vn 0 0 1
usemtl m_54b34a1e-1586-476a-5d98-d712507b2029
f 4/1/1 20/2/1 19/3/1 10/4/1
f 2/5/2 26/6/2 25/7/2 14/8/2
f 40/9/3 42/10/3 41/11/3 43/12/3
f 3/13/4 17/14/4 16/15/4 11/16/4
f 10/17/5 13/18/5 18/19/5 4/20/5
f 9/21/6 23/22/6 22/23/6 8/24/6
f 2/25/7 14/26/7 13/27/7 10/28/7
f 10/29/8 19/30/8 26/31/8 2/32/8
f 11/33/9 16/34/9 15/35/9 1/36/9
f 6/37/10 24/38/10 23/39/10 9/40/10
f 9/41/11 37/42/11 36/43/11 6/44/11
f 6/45/12 36/46/12 35/47/12 24/48/12
f 5/49/13 34/50/13 33/51/13 12/52/13
f 12/53/14 33/54/14 32/55/14 7/56/14
f 30/57/15 39/58/15 38/59/15 27/60/15
f 27/61/16 38/62/16 37/63/16 9/64/16
f 11/65/17 19/66/17 20/67/17 3/68/17
f 44/69/18 41/70/18 42/71/18 45/72/18
f 7/73/19 32/74/19 31/75/19 22/76/19
f 7/77/20 22/78/20 23/79/20 12/80/20
f 12/81/21 23/82/21 24/83/21 5/84/21
f 24/85/22 35/86/22 34/87/22 5/88/22
f 15/89/23 25/90/23 26/91/23 1/92/23
f 1/93/24 26/94/24 19/95/24 11/96/24
f 28/97/25 18/98/25 13/99/25
f 27/100/26 9/101/26 8/102/26
f 30/103/27 27/104/27 8/105/27 22/106/27
f 22/107/28 31/108/28 39/109/28 30/110/28
f 28/111/29 29/112/29 21/113/29 18/114/29
f 42/115/30 46/116/30 47/117/30 45/118/30
f 17/119/31 32/120/31 33/121/31 16/122/31
f 16/123/32 33/124/32 34/125/32 15/126/32
f 15/127/33 34/128/33 35/129/33 25/130/33
f 25/131/34 35/132/34 36/133/34 14/134/34
f 14/135/35 36/136/35 37/137/35 13/138/35
f 13/139/36 37/140/36 38/141/36 28/142/36
f 28/143/37 38/144/37 39/145/37 29/146/37
f 29/147/38 39/148/38 31/149/38 21/150/38
f 42/151/39 40/152/39 18/153/39 21/154/39
f 43/155/40 41/156/40 20/157/40 4/158/40
f 40/159/41 43/160/41 4/161/41 18/162/41
f 41/163/42 44/164/42 3/165/42 20/166/42
f 44/167/43 45/168/43 17/169/43 3/170/43
f 46/171/44 42/172/44 21/173/44 31/174/44
f 47/175/45 46/176/45 31/177/45 32/178/45
f 45/179/46 47/180/46 32/181/46 17/182/46
o cylinder
v -0.33124999999999966 1.0491735388562569 0
v -0.6249999999999999 1.049173538856257 0
v -0.33124999999999966 1.0491735388562569 0.11249999999999996
v -0.6249999999999999 1.049173538856257 0.11249999999999996
v -0.33124999999999966 1.0975196953011017 0.06952882373436317
v -0.6249999999999999 1.097519695301102 0.06952882373436317
v -0.3312499999999996 1.1205409725372286 7.243142891274845e-18
v -0.6249999999999999 1.1205409725372288 7.243142891274845e-18
v -0.33124999999999966 1.0975196953011017 -0.06952882373436314
v -0.6249999999999999 1.097519695301102 -0.06952882373436314
v -0.33124999999999966 1.0491735388562569 -0.11249999999999996
v -0.6249999999999999 1.049173538856257 -0.11249999999999996
v -0.33124999999999966 0.9752507909675119 -0.11249999999999996
v -0.6249999999999999 0.9752507909675121 -0.11249999999999996
v -0.33124999999999966 0.9149803046988971 -0.06952882373436317
v -0.625 0.9149803046988974 -0.06952882373436317
v -0.33124999999999966 0.8919590274627702 -2.1729428673824533e-17
v -0.625 0.8919590274627704 -2.1729428673824533e-17
v -0.33124999999999966 0.9149803046988971 0.06952882373436313
v -0.625 0.9149803046988974 0.06952882373436313
v -0.33124999999999966 0.9752507909675119 0.11249999999999996
v -0.6249999999999999 0.9752507909675121 0.11249999999999996
v -0.4291666666666663 1.0491735388562569 -0.11249999999999996
v -0.4291666666666663 1.0975196953011017 -0.06952882373436314
v -0.527083333333333 1.049173538856257 -0.11249999999999996
v -0.527083333333333 1.097519695301102 -0.06952882373436314
v -0.42916666666666625 1.1205409725372286 7.243142891274845e-18
v -0.527083333333333 1.1205409725372288 7.243142891274845e-18
v -0.4291666666666663 1.0975196953011017 0.06952882373436317
v -0.527083333333333 1.097519695301102 0.06952882373436317
v -0.4291666666666663 1.0491735388562569 0.11249999999999996
v -0.527083333333333 1.049173538856257 0.11249999999999996
v -0.4291666666666663 0.9752507909675119 0.11249999999999996
v -0.527083333333333 0.9752507909675121 0.11249999999999996
v -0.4291666666666663 0.9149803046988971 0.06952882373436313
v -0.5270833333333331 0.9149803046988974 0.06952882373436313
v -0.4291666666666663 0.8919590274627702 -2.1729428673824533e-17
v -0.5270833333333331 0.8919590274627704 -2.1729428673824533e-17
v -0.4291666666666663 0.9149803046988971 -0.06952882373436317
v -0.5270833333333331 0.9149803046988974 -0.06952882373436317
v -0.4291666666666663 0.9752507909675119 -0.11249999999999996
v -0.527083333333333 0.9752507909675121 -0.11249999999999996
v -0.33124999999999966 1.0491735388562569 -0.1642275002463628
v -0.4291666666666663 1.0491735388562569 -0.1642275002463628
v -0.42916666666666625 1.1447251823509237 -0.10521515164330093
v -0.3312499999999996 1.1447251823509237 -0.10521515164330093
v -0.42916666666666625 1.179873239159793 7.243142891274845e-18
v -0.3312499999999996 1.179873239159793 7.243142891274845e-18
v -0.42916666666666625 1.1447251823509237 0.10521515164330096
v -0.3312499999999996 1.1447251823509237 0.10521515164330096
v -0.4291666666666663 1.0491735388562569 0.1642275002463628
v -0.33124999999999966 1.0491735388562569 0.1642275002463628
v -0.4291666666666663 1.0491735388562569 -0.14870925017245393
v -0.527083333333333 1.049173538856257 -0.14870925017245393
v -0.527083333333333 1.1305635362359774 -0.0945092532706196
v -0.42916666666666625 1.1305635362359772 -0.0945092532706196
v -0.527083333333333 1.1620735591730238 7.243142891274845e-18
v -0.42916666666666625 1.1620735591730236 7.243142891274845e-18
v -0.527083333333333 1.1305635362359774 0.09450925327061963
v -0.42916666666666625 1.1305635362359772 0.09450925327061963
v -0.527083333333333 1.049173538856257 0.14870925017245396
v -0.4291666666666663 1.0491735388562569 0.14870925017245396
v -0.6249999999999999 1.121122438826013 -0.08737198768883203
v -0.527083333333333 1.049173538856257 -0.13836375012318136
v -0.527083333333333 1.121122438826013 -0.08737198768883203
v -0.6249999999999999 1.049173538856257 -0.13836375012318136
v -0.6249999999999999 1.150207105848511 7.243142891274845e-18
v -0.527083333333333 1.150207105848511 7.243142891274845e-18
v -0.6249999999999999 1.121122438826013 0.08737198768883206
v -0.527083333333333 1.121122438826013 0.08737198768883206
v -0.6249999999999999 1.049173538856257 0.1383637501231814
v -0.527083333333333 1.049173538856257 0.1383637501231814
v -0.6937499999999999 1.097519695301102 -0.06952882373436314
v -0.6937499999999999 1.0504027992187424 -0.11249999999999996
v -0.6937499999999999 1.0504027992187424 0
v -0.6937499999999999 1.097519695301102 0.06952882373436317
v -0.6937499999999999 1.1205409725372288 7.243142891274845e-18
v -0.6937499999999999 1.0504027992187424 0.11249999999999996
v -0.73125 1.0504027992187424 0.11249999999999996
v -0.73125 1.0504027992187424 0
v -0.73125 1.0504027992187424 -0.11249999999999996
v -0.73125 1.097519695301102 0.06952882373436317
v -0.73125 1.1205409725372288 7.243142891274845e-18
v -0.73125 1.097519695301102 -0.06952882373436314
v -0.73125 1.1479463389748699 0.1148042566006956
v -0.73125 1.0504027992187424 0.17796461054056312
v -0.6937499999999999 1.0504027992187424 0.17796461054056312
v -0.6937499999999999 1.1479463389748699 0.1148042566006956
v -0.73125 1.1798732391597933 6.4618101243713684e-18
v -0.6937499999999999 1.1798732391597933 6.4618101243713684e-18
v -0.73125 1.1479463389748699 -0.11480425660069557
v -0.6937499999999999 1.1479463389748699 -0.11480425660069557
v -0.73125 1.0504027992187424 -0.17796461054056312
v -0.6937499999999999 1.0504027992187424 -0.17796461054056312
vt 0.128794140625 0.84171953125
vt 0.12275117187500002 0.847090625
vt 0.12275117187500002 0.833028125
vt 0.296875 0.53125
vt 0.296875 0.515625
vt 0.3046875 0.515625
vt 0.3046875 0.53125
vt 0.20675156249999999 0.7371296875
vt 0.21264140625 0.74250078125
vt 0.20675156249999999 0.7511921875
vt 0.131672265625 0.833028125
vt 0.128794140625 0.84171953125
vt 0.12275117187500002 0.833028125
vt 0.46875 0.8046875
vt 0.46875 0.7890625
vt 0.4765625 0.7890625
vt 0.4765625 0.8046875
vt 0.21264140625 0.74250078125
vt 0.21551953125 0.7511921875
vt 0.20675156249999999 0.7511921875
vt 0.128794140625 0.82433671875
vt 0.131672265625 0.833028125
vt 0.12275117187500002 0.833028125
vt 0.28125 0.53125
vt 0.28125 0.515625
vt 0.2890625 0.515625
vt 0.2890625 0.53125
vt 0.21551953125 0.7511921875
vt 0.21264140625 0.75988359375
vt 0.20675156249999999 0.7511921875
vt 0.12275117187500002 0.818965625
vt 0.128794140625 0.82433671875
vt 0.12275117187500002 0.833028125
vt 0.34375 0.53125
vt 0.34375 0.515625
vt 0.3515625 0.515625
vt 0.3515625 0.53125
vt 0.21264140625 0.75988359375
vt 0.20675156249999999 0.7652546875
vt 0.20675156249999999 0.7511921875
vt 0.11351054687500002 0.818965625
vt 0.12275117187500002 0.818965625
vt 0.12275117187500002 0.833028125
vt 0.1125671875 0.625
vt 0.1125671875 0.61276015625
vt 0.1218078125 0.61276015625
vt 0.1218078125 0.625
vt 0.310607421875 0.9609375
vt 0.301366796875 0.9609375
vt 0.310607421875 0.946875
vt 0.10597695312500001 0.82433671875
vt 0.11351054687500002 0.818965625
vt 0.12275117187500002 0.833028125
vt 0.37356015625000005 0.6484375
vt 0.37356015625000005 0.63619765625
vt 0.3828125 0.63619765625
vt 0.3828125 0.6484375
vt 0.301366796875 0.9609375
vt 0.293833203125 0.95556640625
vt 0.310607421875 0.946875
vt 0.103098828125 0.833028125
vt 0.10597695312500001 0.82433671875
vt 0.12275117187500002 0.833028125
vt 0.27209453125 0.625
vt 0.27209453125 0.61276015625
vt 0.28125 0.61276015625
vt 0.28125 0.625
vt 0.293833203125 0.95556640625
vt 0.290955078125 0.946875
vt 0.310607421875 0.946875
vt 0.10597695312500001 0.84171953125
vt 0.103098828125 0.833028125
vt 0.12275117187500002 0.833028125
vt 0.375 0.75
vt 0.375 0.73776015625
vt 0.38415546875 0.73776015625
vt 0.38415546875 0.75
vt 0.290955078125 0.946875
vt 0.293833203125 0.93818359375
vt 0.310607421875 0.946875
vt 0.11351054687500002 0.847090625
vt 0.10597695312500001 0.84171953125
vt 0.12275117187500002 0.833028125
vt 0.203125 0.6328125
vt 0.203125 0.62057265625
vt 0.21237734374999997 0.62057265625
vt 0.21237734374999997 0.6328125
vt 0.293833203125 0.93818359375
vt 0.301366796875 0.9328125
vt 0.310607421875 0.946875
vt 0.12275117187500002 0.847090625
vt 0.11351054687500002 0.847090625
vt 0.12275117187500002 0.833028125
vt 0.1360046875 0.625
vt 0.1360046875 0.61276015625
vt 0.1452453125 0.61276015625
vt 0.1452453125 0.625
vt 0.301366796875 0.9328125
vt 0.310607421875 0.9328125
vt 0.310607421875 0.946875
vt 0.421875 0.65625
vt 0.421875 0.671875
vt 0.40625 0.671875
vt 0.40625 0.65625
vt 0.421875 0.9140625
vt 0.421875 0.9296875
vt 0.40625 0.9296875
vt 0.40625 0.9140625
vt 0.421875 0.9609375
vt 0.421875 0.9765625
vt 0.40625 0.9765625
vt 0.40625 0.9609375
vt 0.3828125 0.5859375
vt 0.3828125 0.6015625
vt 0.3671875 0.6015625
vt 0.3671875 0.5859375
vt 0.421875 0.9375
vt 0.421875 0.953125
vt 0.40625 0.953125
vt 0.40625 0.9375
vt 0.40625 0.5859375
vt 0.40625 0.6015625
vt 0.390625 0.6015625
vt 0.390625 0.5859375
vt 0.015625 0.5703125
vt 0.015625 0.5859375
vt 0 0.5859375
vt 0 0.5703125
vt 0.3359375 0.578125
vt 0.3359375 0.59375
vt 0.3203125 0.59375
vt 0.3203125 0.578125
vt 0.1452453125 0.58828125
vt 0.1452453125 0.6005210937500001
vt 0.1360046875 0.6005210937500001
vt 0.1360046875 0.58828125
vt 0.1452453125 0.6005210937500001
vt 0.1452453125 0.61276015625
vt 0.1360046875 0.61276015625
vt 0.1360046875 0.6005210937500001
vt 0.21237734374999997 0.59609375
vt 0.21237734374999997 0.6083335937500001
vt 0.203125 0.6083335937500001
vt 0.203125 0.59609375
vt 0.21237734374999997 0.6083335937500001
vt 0.21237734374999997 0.62057265625
vt 0.203125 0.62057265625
vt 0.203125 0.6083335937500001
vt 0.38415546875 0.71328125
vt 0.38415546875 0.7255210937500001
vt 0.375 0.7255210937500001
vt 0.375 0.71328125
vt 0.38415546875 0.7255210937500001
vt 0.38415546875 0.73776015625
vt 0.375 0.73776015625
vt 0.375 0.7255210937500001
vt 0.28125 0.58828125
vt 0.28125 0.6005210937500001
vt 0.27209453125 0.6005210937500001
vt 0.27209453125 0.58828125
vt 0.28125 0.6005210937500001
vt 0.28125 0.61276015625
vt 0.27209453125 0.61276015625
vt 0.27209453125 0.6005210937500001
vt 0.3828125 0.61171875
vt 0.3828125 0.6239585937500001
vt 0.37356015625000005 0.6239585937500001
vt 0.37356015625000005 0.61171875
vt 0.3828125 0.6239585937500001
vt 0.3828125 0.63619765625
vt 0.37356015625000005 0.63619765625
vt 0.37356015625000005 0.6239585937500001
vt 0.1218078125 0.58828125
vt 0.1218078125 0.6005210937500001
vt 0.1125671875 0.6005210937500001
vt 0.1125671875 0.58828125
vt 0.1218078125 0.6005210937500001
vt 0.1218078125 0.61276015625
vt 0.1125671875 0.61276015625
vt 0.1125671875 0.6005210937500001
vt 0.4609375 0.5703125
vt 0.4609375 0.5546875
vt 0.46875 0.5546875
vt 0.46875 0.5703125
vt 0.27330625 0.8598109375
vt 0.2613625 0.8671875
vt 0.2613625 0.860721875
vt 0.26740546875 0.85535078125
vt 0.12275117187500002 0.8125
vt 0.13469492187499998 0.8198765625
vt 0.128794140625 0.82433671875
vt 0.12275117187500002 0.818965625
vt 0.2777 0.846659375
vt 0.27330625 0.8598109375
vt 0.26740546875 0.85535078125
vt 0.27028359375 0.846659375
vt 0.13469492187499998 0.8198765625
vt 0.13908867187500001 0.833028125
vt 0.131672265625 0.833028125
vt 0.128794140625 0.82433671875
vt 0.27330625 0.8335078125
vt 0.2777 0.846659375
vt 0.27028359375 0.846659375
vt 0.26740546875 0.83796796875
vt 0.13908867187500001 0.833028125
vt 0.13469492187499998 0.8461796875
vt 0.128794140625 0.84171953125
vt 0.131672265625 0.833028125
vt 0.2613625 0.82613125
vt 0.27330625 0.8335078125
vt 0.26740546875 0.83796796875
vt 0.2613625 0.832596875
vt 0.03125 0.515625
vt 0.03125 0.53125
vt 0.0234375 0.53125
vt 0.0234375 0.515625
vt 0.13469492187499998 0.8461796875
vt 0.12275117187500002 0.85355625
vt 0.12275117187500002 0.847090625
vt 0.128794140625 0.84171953125
vt 0.46875 0.9453125
vt 0.46875 0.9296875
vt 0.4765625 0.9296875
vt 0.4765625 0.9453125
vt 0.04217968749999999 0.7197875
vt 0.03200625 0.7265625
vt 0.03200625 0.72203671875
vt 0.03804921874999999 0.716665625
vt 0.25075625 0.671875
vt 0.2609296875 0.67865
vt 0.25679921875 0.681771875
vt 0.25075625 0.67640078125
vt 0.04611875 0.70797421875
vt 0.04217968749999999 0.7197875
vt 0.03804921874999999 0.716665625
vt 0.04092734375 0.70797421875
vt 0.2609296875 0.67865
vt 0.26486875 0.69046328125
vt 0.25967734375 0.69046328125
vt 0.25679921875 0.681771875
vt 0.04217968749999999 0.6961609375
vt 0.04611875 0.70797421875
vt 0.04092734375 0.70797421875
vt 0.03804921874999999 0.6992828125
vt 0.26486875 0.69046328125
vt 0.2609296875 0.7022765625
vt 0.25679921875 0.6991546875
vt 0.25967734375 0.69046328125
vt 0.03200625 0.6893859375
vt 0.04217968749999999 0.6961609375
vt 0.03804921874999999 0.6992828125
vt 0.03200625 0.69391171875
vt 0.0703125 0.515625
vt 0.0703125 0.53125
vt 0.0625 0.53125
vt 0.0625 0.515625
vt 0.2609296875 0.7022765625
vt 0.25075625 0.7090515625
vt 0.25075625 0.70452578125
vt 0.25679921875 0.6991546875
vt 0.032748046875000006 0.640625
vt 0.041741796875 0.6469984375
vt 0.038791015624999994 0.6492289062500001
vt 0.032748046875000006 0.6438578125000001
vt 0.078125 0.53125
vt 0.078125 0.515625
vt 0.0859375 0.515625
vt 0.0859375 0.53125
vt 0.22924179687500001 0.6733140625
vt 0.220248046875 0.6796875
vt 0.220248046875 0.6764546874999999
vt 0.22629101562499998 0.6710835937499999
vt 0.041741796875 0.6469984375
vt 0.045376953124999994 0.6579203124999999
vt 0.041669140625000003 0.6579203124999999
vt 0.038791015624999994 0.6492289062500001
vt 0.232876953125 0.6623921875000001
vt 0.22924179687500001 0.6733140625
vt 0.22629101562499998 0.6710835937499999
vt 0.229169140625 0.6623921875000001
vt 0.045376953124999994 0.6579203124999999
vt 0.041741796875 0.6688421875
vt 0.038791015624999994 0.66661171875
vt 0.041669140625000003 0.6579203124999999
vt 0.22924179687500001 0.6514703125
vt 0.232876953125 0.6623921875000001
vt 0.229169140625 0.6623921875000001
vt 0.22629101562499998 0.65370078125
vt 0.1015625 0.515625
vt 0.1015625 0.53125
vt 0.09375 0.53125
vt 0.09375 0.515625
vt 0.041741796875 0.6688421875
vt 0.032748046875000006 0.675215625
vt 0.032748046875000006 0.6719828125
vt 0.038791015624999994 0.66661171875
vt 0.220248046875 0.645096875
vt 0.22924179687500001 0.6514703125
vt 0.22629101562499998 0.65370078125
vt 0.220248046875 0.6483296875
vt 0.50015859375 0.9140625
vt 0.4921875 0.9140625
vt 0.4921875 0.90625
vt 0.50027265625 0.90625
vt 0.3046875 0.815625
vt 0.290625 0.815625
vt 0.290625 0.8070304687500001
vt 0.3046875 0.8070304687500001
vt 0.375 0.9765625
vt 0.3671875 0.9765625
vt 0.3671875 0.96875
vt 0.375 0.96875
vt 0.234375 0.6328125
vt 0.2265625 0.6328125
vt 0.2265625 0.625
vt 0.234375 0.625
vt 0.1328125 0.5078125
vt 0.1251140625 0.5078125
vt 0.125 0.5
vt 0.1328125 0.5
vt 0.31875 0.815625
vt 0.3046875 0.815625
vt 0.3046875 0.8070304687500001
vt 0.31875 0.8070304687500001
vt 0.484375 0.6328125
vt 0.46875 0.6328125
vt 0.46875 0.625
vt 0.484375 0.625
vt 0.31875 0.8203125
vt 0.3046875 0.8203125
vt 0.3046875 0.815625
vt 0.31875 0.815625
vt 0.484375 1
vt 0.46875 1
vt 0.46875 0.9921875
vt 0.484375 0.9921875
vt 0.1953125 0.53125
vt 0.1796875 0.53125
vt 0.1796875 0.5234375
vt 0.1953125 0.5234375
vt 0.484375 0.78125
vt 0.46875 0.78125
vt 0.46875 0.7734375
vt 0.484375 0.7734375
vt 0.3046875 0.8203125
vt 0.290625 0.8203125
vt 0.290625 0.815625
vt 0.3046875 0.815625
vt 0.20675156249999999 0.728946875
vt 0.21894453125000002 0.7368414062499999
vt 0.21264140625 0.74250078125
vt 0.20675156249999999 0.7371296875
vt 0.3269328125 0.815625
vt 0.3269328125 0.8203125
vt 0.31875 0.8203125
vt 0.31875 0.815625
vt 0.25019453125 0.7631585937500001
vt 0.23800156249999999 0.771053125
vt 0.23800156249999999 0.7628703125
vt 0.24389140625 0.75749921875
vt 0.21894453125000002 0.7368414062499999
vt 0.22293593750000001 0.7511921875
vt 0.21551953125 0.7511921875
vt 0.21264140625 0.74250078125
vt 0.2541859375 0.7488078125
vt 0.25019453125 0.7631585937500001
vt 0.24389140625 0.75749921875
vt 0.24676953125 0.7488078125
vt 0.22293593750000001 0.7511921875
vt 0.21894453125000002 0.7655429687499999
vt 0.21264140625 0.75988359375
vt 0.21551953125 0.7511921875
vt 0.25019453125 0.7344570312500001
vt 0.2541859375 0.7488078125
vt 0.24676953125 0.7488078125
vt 0.24389140625 0.74011640625
vt 0.21894453125000002 0.7655429687499999
vt 0.20675156249999999 0.7734375
vt 0.20675156249999999 0.7652546875
vt 0.21264140625 0.75988359375
vt 0.23800156249999999 0.7265625
vt 0.25019453125 0.7344570312500001
vt 0.24389140625 0.74011640625
vt 0.23800156249999999 0.7347453125
vt 0.2824421875 0.8203125
vt 0.2824421875 0.815625
vt 0.290625 0.815625
vt 0.290625 0.8203125
vn 1 -2.220446049250313e-16 0
vn 1.283925044333496e-16 0.578228435123198 0.8158749149318035
vn -1 2.220446049250313e-16 0
vn 1 -2.220446049250313e-16 0
vn 2.1067844071736875e-16 0.948811347109739 0.3158433592713362
vn -1 2.220446049250313e-16 0
vn 1 -2.220446049250313e-16 0
vn 2.1067844071736875e-16 0.948811347109739 -0.3158433592713362
vn -1 2.220446049250313e-16 0
vn 1 -2.220446049250313e-16 0
vn 1.283925044333496e-16 0.578228435123198 -0.8158749149318035
vn -1 2.220446049250313e-16 0
vn 1 -2.220446049250313e-16 0
vn 0 0 -1
vn -1 2.220446049250313e-16 0
vn 1 -2.220446049250313e-16 0
vn -1.2890349618961282e-16 -0.5805297374062944 -0.814239045972974
vn -1 2.220446049250313e-16 0
vn 1 -2.220446049250313e-16 0
vn -2.1079055522422274e-16 -0.9493162659610295 -0.3143224891442041
vn -1 2.220446049250313e-16 0
vn 1 -2.220446049250313e-16 0
vn -2.107905552242227e-16 -0.9493162659610294 0.314322489144204
vn -1 2.220446049250313e-16 0
vn 1 -2.220446049250313e-16 0
vn -1.2890349618961292e-16 -0.5805297374062949 0.8142390459729738
vn -1 2.220446049250313e-16 0
vn 1 -2.220446049250313e-16 0
vn 0 0 1
vn -1 2.220446049250313e-16 0
vn 1.1667592790202496e-16 0.5254616654226665 -0.8508172766059924
vn 1.2307384489594806e-16 0.5542753220124459 -0.832333387176076
vn 2.10604121631249e-16 0.9484766437011836 -0.3168470551438634
vn 2.106453682178599e-16 0.9486624018132748 -0.31629044782583804
vn 2.10604121631249e-16 0.9484766437011836 0.3168470551438634
vn 2.106453682178599e-16 0.9486624018132748 0.31629044782583804
vn 1.1667592790202494e-16 0.5254616654226664 0.8508172766059925
vn 1.2307384489594806e-16 0.5542753220124459 0.832333387176076
vn 0 0 1
vn 0 0 1
vn -1.2890349618961292e-16 -0.5805297374062949 0.8142390459729736
vn -1.2890349618961292e-16 -0.5805297374062949 0.8142390459729737
vn -2.107905552242227e-16 -0.9493162659610294 0.314322489144204
vn -2.107905552242227e-16 -0.9493162659610294 0.314322489144204
vn -2.107905552242227e-16 -0.9493162659610294 -0.3143224891442041
vn -2.107905552242227e-16 -0.9493162659610294 -0.3143224891442041
vn -1.2890349618961282e-16 -0.5805297374062944 -0.8142390459729739
vn -1.2890349618961284e-16 -0.5805297374062945 -0.8142390459729739
vn 0 0 -1
vn 0 0 -1
vn -2.220446049250313e-16 -1 0
vn -1 2.220446049250313e-16 0
vn 1 -2.220446049250313e-16 0
vn -1 2.220446049250313e-16 0
vn 1 -2.220446049250313e-16 0
vn -1 2.220446049250313e-16 0
vn 1 -2.220446049250313e-16 0
vn -1 2.220446049250313e-16 0
vn -2.220446049250313e-16 -1 0
vn 1 -2.220446049250313e-16 0
vn -2.220446049250313e-16 -1 0
vn -1 2.220446049250313e-16 0
vn 1 -2.220446049250313e-16 0
vn -1 2.220446049250313e-16 0
vn 1 -2.220446049250313e-16 0
vn -1 2.220446049250313e-16 0
vn 1 -2.220446049250313e-16 0
vn -1 2.220446049250313e-16 0
vn -2.220446049250313e-16 -1 0
vn 1 -2.220446049250313e-16 0
vn 1 -2.220446049250313e-16 0
vn -2.220446049250313e-16 -1 0
vn -1 2.220446049250313e-16 0
vn 1 -2.220446049250313e-16 0
vn -1 2.220446049250313e-16 0
vn 1 -2.220446049250313e-16 0
vn -1 2.220446049250313e-16 0
vn -2.220446049250313e-16 -1 0
vn 1 -2.220446049250313e-16 0
vn -1 2.220446049250313e-16 0
vn 1.4962556508883287e-16 0.6738536391791676 -0.738864854330609
vn -0.017877293271969845 -0.9998401884227639 0
vn 2.107905552242227e-16 0.9493162659610294 0.314322489144204
vn 2.107905552242227e-16 0.9493162659610294 -0.314322489144204
vn 0.012047730190523862 0.6738047332169059 0.7388112300796128
vn -0.017877293271969845 -0.9998401884227639 0
vn 1.2068519841189712e-16 0.5435178145969543 0.8393976323624882
vn -2.220446049250313e-16 -1 0
vn 2.1392624659270175e-16 0.9634381644396605 0.2679307808019417
vn 2.1392624659270175e-16 0.9634381644396605 -0.26793078080194177
vn 1.2068519841189717e-16 0.5435178145969545 -0.8393976323624881
vn -2.220446049250313e-16 -1 0
vn -1 2.220446049250313e-16 0
vn -2.220446049250313e-16 -1 0
vn 1 -2.220446049250313e-16 0
vn -1 2.220446049250313e-16 0
vn 1 -2.220446049250313e-16 0
vn -1 2.220446049250313e-16 0
vn 1 -2.220446049250313e-16 0
vn -1 2.220446049250313e-16 0
vn 1 -2.220446049250313e-16 0
vn -2.220446049250313e-16 -1 0
usemtl m_54b34a1e-1586-476a-5d98-d712507b2029
f 52/183/47 50/184/47 48/185/47
f 118/186/48 119/187/48 117/188/48 116/189/48
f 126/190/49 129/191/49 127/192/49
f 54/193/50 52/194/50 48/195/50
f 116/196/51 117/197/51 115/198/51 114/199/51
f 129/200/52 130/201/52 127/202/52
f 56/203/53 54/204/53 48/205/53
f 114/206/54 115/207/54 112/208/54 110/209/54
f 130/210/55 131/211/55 127/212/55
f 58/213/56 56/214/56 48/215/56
f 110/216/57 112/217/57 111/218/57 113/219/57
f 131/220/58 128/221/58 127/222/58
f 60/223/59 58/224/59 48/225/59
f 59/226/60 72/227/60 89/228/60 61/229/60
f 59/230/61 61/231/61 49/232/61
f 62/233/62 60/234/62 48/235/62
f 61/236/63 89/237/63 87/238/63 63/239/63
f 61/240/64 63/241/64 49/242/64
f 64/243/65 62/244/65 48/245/65
f 63/246/66 87/247/66 85/248/66 65/249/66
f 63/250/67 65/251/67 49/252/67
f 66/253/68 64/254/68 48/255/68
f 65/256/69 85/257/69 83/258/69 67/259/69
f 65/260/70 67/261/70 49/262/70
f 68/263/71 66/264/71 48/265/71
f 67/266/72 83/267/72 81/268/72 69/269/72
f 67/270/73 69/271/73 49/272/73
f 50/273/74 68/274/74 48/275/74
f 69/276/75 81/277/75 79/278/75 51/279/75
f 69/280/76 51/281/76 49/282/76
f 90/283/77 91/284/77 92/285/77 93/286/77
f 100/287/78 101/288/78 102/289/78 103/290/78
f 93/291/79 92/292/79 94/293/79 95/294/79
f 103/295/80 102/296/80 104/297/80 105/298/80
f 95/299/81 94/300/81 96/301/81 97/302/81
f 105/303/82 104/304/82 106/305/82 107/306/82
f 97/307/83 96/308/83 98/309/83 99/310/83
f 107/311/84 106/312/84 108/313/84 109/314/84
f 50/315/85 78/316/85 80/317/85 68/318/85
f 78/319/86 79/320/86 81/321/86 80/322/86
f 68/323/87 80/324/87 82/325/87 66/326/87
f 80/327/88 81/328/88 83/329/88 82/330/88
f 66/331/89 82/332/89 84/333/89 64/334/89
f 82/335/90 83/336/90 85/337/90 84/338/90
f 64/339/91 84/340/91 86/341/91 62/342/91
f 84/343/92 85/344/92 87/345/92 86/346/92
f 62/347/93 86/348/93 88/349/93 60/350/93
f 86/351/94 87/352/94 89/353/94 88/354/94
f 60/355/95 88/356/95 70/357/95 58/358/95
f 88/359/96 89/360/96 72/361/96 70/362/96
f 91/363/97 90/364/97 58/365/97 70/366/97
f 92/367/98 91/368/98 70/369/98 71/370/98
f 90/371/99 93/372/99 56/373/99 58/374/99
f 94/375/100 92/376/100 71/377/100 74/378/100
f 93/379/101 95/380/101 54/381/101 56/382/101
f 96/383/102 94/384/102 74/385/102 76/386/102
f 95/387/103 97/388/103 52/389/103 54/390/103
f 98/391/104 96/392/104 76/393/104 78/394/104
f 99/395/105 98/396/105 78/397/105 50/398/105
f 97/399/106 99/400/106 50/401/106 52/402/106
f 101/403/107 100/404/107 70/405/107 72/406/107
f 102/407/108 101/408/108 72/409/108 73/410/108
f 100/411/109 103/412/109 71/413/109 70/414/109
f 104/415/110 102/416/110 73/417/110 75/418/110
f 103/419/111 105/420/111 74/421/111 71/422/111
f 106/423/112 104/424/112 75/425/112 77/426/112
f 105/427/113 107/428/113 76/429/113 74/430/113
f 108/431/114 106/432/114 77/433/114 79/434/114
f 109/435/115 108/436/115 79/437/115 78/438/115
f 107/439/116 109/440/116 78/441/116 76/442/116
f 111/443/117 112/444/117 73/445/117 72/446/117
f 113/447/118 111/448/118 72/449/118 59/450/118
f 110/451/119 113/452/119 59/453/119 57/454/119
f 112/455/120 115/456/120 75/457/120 73/458/120
f 114/459/121 110/460/121 57/461/121 55/462/121
f 115/463/122 117/464/122 77/465/122 75/466/122
f 116/467/123 114/468/123 55/469/123 53/470/123
f 119/471/124 118/472/124 51/473/124 79/474/124
f 117/475/125 119/476/125 79/477/125 77/478/125
f 118/479/126 116/480/126 53/481/126 51/482/126
f 121/483/127 120/484/127 57/485/127 59/486/127
f 122/487/128 121/488/128 59/489/128 49/490/128
f 124/491/129 123/492/129 53/493/129 55/494/129
f 120/495/130 124/496/130 55/497/130 57/498/130
f 123/499/131 125/500/131 51/501/131 53/502/131
f 125/503/132 122/504/132 49/505/132 51/506/132
f 132/507/133 133/508/133 134/509/133 135/510/133
f 126/511/134 127/512/134 122/513/134 125/514/134
f 136/515/135 132/516/135 135/517/135 137/518/135
f 138/519/136 136/520/136 137/521/136 139/522/136
f 140/523/137 138/524/137 139/525/137 141/526/137
f 127/527/138 128/528/138 121/529/138 122/530/138
f 133/531/139 132/532/139 129/533/139 126/534/139
f 134/535/140 133/536/140 126/537/140 125/538/140
f 135/539/141 134/540/141 125/541/141 123/542/141
f 132/543/142 136/544/142 130/545/142 129/546/142
f 137/547/143 135/548/143 123/549/143 124/550/143
f 136/551/144 138/552/144 131/553/144 130/554/144
f 139/555/145 137/556/145 124/557/145 120/558/145
f 138/559/146 140/560/146 128/561/146 131/562/146
f 141/563/147 139/564/147 120/565/147 121/566/147
f 140/567/148 141/568/148 121/569/148 128/570/148
o cuboid
v -1.4859375000000008 1.0937500000000007 0.06250000000000004
v -1.3777777777777778 1.0937500000000007 -0.056250000000000015
v -1.4859375000000008 1.0562500000000001 0.06250000000000004
v -1.3777777777777778 1.0562500000000001 -0.056250000000000015
v -1.3875 1.0750000000000004 -0.06874999999999999
v -1.5125 1.0750000000000004 0.06250000000000004
v -0.7312500000000005 1.0937500000000007 0.06250000000000004
v -0.7312500000000005 1.0937500000000007 -0.056250000000000015
v -0.7312500000000005 1.0562500000000001 0.06250000000000004
v -0.7312500000000005 1.0562500000000001 -0.056250000000000015
v -0.7312500000000005 1.0750000000000004 -0.06874999999999999
v -0.7312500000000005 1.0750000000000004 0.06250000000000004
vt 0.51333515625 0.9921875
vt 0.515625 0.9955453125
vt 0.49296875 0.9955453125
vt 0.49326171875 0.99250703125
vt 0.43076171875 0.9606515625000001
vt 0.43046875 0.953125
vt 0.453125 0.953125
vt 0.45083515625000004 0.9609375
vt 0.513921875 0.625
vt 0.515625 0.6277335937499999
vt 0.49914453125 0.6277335937499999
vt 0.49914453125 0.6257242187500001
vt 0 0.9140625
vt 0.1328125 0.9140625
vt 0.1328125 0.9296875
vt 0.013520312499999992 0.9296875
vt 0.2109375 0.984375
vt 0.2109375 1
vt 0.078125 1
vt 0.09164531249999999 0.984375
vt 0.35859375 0.9953125
vt 0.35859375 0.99765625
vt 0.21953125 0.99765625
vt 0.22285156250000002 0.9953125
vt 0.287846875 0.875
vt 0.2890625 0.8828125
vt 0.1640625 0.8828125
vt 0.165625 0.875
vt 0.196875 0.9765625
vt 0.1953125 0.96875
vt 0.3203125 0.96875
vt 0.319096875 0.9765625
vt 0.22285156250000002 1
vt 0.21953125 0.99765625
vt 0.35859375 0.99765625
vt 0.35859375 1
vt 0.46008203125 0.6953125
vt 0.46008203125 0.6875
vt 0.4765625 0.6875
vt 0.474859375 0.6953125
vn -0.5054649383737023 -0.716075329362712 -0.48139517940352594
vn -0.5557741894243908 0.64105171055299 -0.529308751832753
vn 1 0 0
vn 0 1 0
vn 0 -1 0
vn 0 0 1
vn 0 -0.5547001962252229 -0.8320502943378478
vn 0 0.5547001962252229 -0.8320502943378478
vn 0 0 1
vn 1 0 0
usemtl m_54b34a1e-1586-476a-5d98-d712507b2029
f 144/571/149 147/572/149 146/573/149 145/574/149
f 143/575/150 146/576/150 147/577/150 142/578/150
f 151/579/151 152/580/151 153/581/151 150/582/151
f 142/583/152 148/584/152 149/585/152 143/586/152
f 151/587/153 150/588/153 144/589/153 145/590/153
f 150/591/154 153/592/154 147/593/154 144/594/154
f 145/595/155 146/596/155 152/597/155 151/598/155
f 149/599/156 152/600/156 146/601/156 143/602/156
f 142/603/157 147/604/157 153/605/157 148/606/157
f 148/607/158 153/608/158 152/609/158 149/610/158
o Arm
v -0.3343749999999953 1.0156250000000018 5.389023147467818e-16
v -0.15937499999999533 1.015625000000001 8.772126480466929e-16
v -0.3343749999999951 1.0487682628834885 -0.05624999999999942
v -0.15937499999999508 1.0487682628834878 -0.05624999999999908
v -0.33437499999999504 1.0718750000000015 -0.037362012883486
v -0.15937499999999502 1.0718750000000008 -0.03736201288348566
v -0.33437499999999515 1.0718750000000015 0.037362012883487165
v -0.1593749999999952 1.0718750000000008 0.037362012883487505
v -0.3343749999999953 1.0487682628834885 0.056250000000000556
v -0.1593749999999953 1.0487682628834878 0.056250000000000897
v -0.33437499999999554 0.9824817371165151 0.056250000000000494
v -0.15937499999999558 0.9824817371165144 0.056250000000000834
v -0.3343749999999956 0.9593750000000021 0.0373620128834871
v -0.15937499999999563 0.9593750000000014 0.03736201288348744
v -0.3343749999999955 0.9593750000000021 -0.03736201288348612
v -0.15937499999999546 0.9593750000000014 -0.03736201288348578
v -0.3343749999999953 0.9824817371165151 -0.05624999999999947
v -0.15937499999999535 0.9824817371165144 -0.05624999999999913
v -0.3177083333333285 1.0487682628834885 -0.056249999999999384
v -0.3177083333333287 0.9824817371165151 -0.05624999999999944
v -0.29466911764705395 1.0487682628834882 -0.056249999999999335
v -0.29466911764705417 0.9824817371165149 -0.05624999999999939
v -0.3177083333333289 0.9593750000000021 -0.03736201288348608
v -0.29466911764705433 0.9593750000000019 -0.03736201288348604
v -0.317708333333329 0.9593750000000021 0.03736201288348714
v -0.29466911764705445 0.9593750000000019 0.03736201288348718
v -0.31770833333332893 0.9824817371165151 0.05625000000000052
v -0.2946691176470544 0.9824817371165149 0.05625000000000057
v -0.3177083333333287 1.0487682628834885 0.05625000000000059
v -0.29466911764705417 1.0487682628834882 0.05625000000000064
v -0.31770833333332854 1.0718750000000015 0.03736201288348719
v -0.294669117647054 1.0718750000000012 0.03736201288348724
v -0.31770833333332843 1.0718750000000015 -0.03736201288348597
v -0.2946691176470539 1.0718750000000012 -0.03736201288348592
vt 0.35859375 0.5820140625
vt 0.35570546875 0.584375
vt 0.3515625 0.57734375
vt 0.16814374999999998 0.515625
vt 0.16814374999999998 0.49871328125000003
vt 0.171875 0.49871328125000003
vt 0.171875 0.515625
vt 0.42601796875 0.571875
vt 0.42890625 0.5742359375
vt 0.421875 0.57890625
vt 0.35859375 0.5726734375
vt 0.35859375 0.5820140625
vt 0.3515625 0.57734375
vt 0.2297046875 0.5859375
vt 0.2297046875 0.56902578125
vt 0.2390453125 0.56902578125
vt 0.2390453125 0.5859375
vt 0.42890625 0.5742359375
vt 0.42890625 0.5835765625
vt 0.421875 0.57890625
vt 0.35570546875 0.5703125
vt 0.35859375 0.5726734375
vt 0.3515625 0.57734375
vt 0.1484375 0.515625
vt 0.1484375 0.49871328125000003
vt 0.15216875000000002 0.49871328125000003
vt 0.15216875000000002 0.515625
vt 0.42890625 0.5835765625
vt 0.42601796875 0.5859375
vt 0.421875 0.57890625
vt 0.34741953125 0.5703125
vt 0.35570546875 0.5703125
vt 0.3515625 0.57734375
vt 0.37085703125 0.578125
vt 0.37085703125 0.56121328125
vt 0.37914296875 0.56121328125
vt 0.37914296875 0.578125
vt 0.42601796875 0.5859375
vt 0.41773203125 0.5859375
vt 0.421875 0.57890625
vt 0.34453125 0.5726734375
vt 0.34741953125 0.5703125
vt 0.3515625 0.57734375
vt 0.22283203125 0.515625
vt 0.22283203125 0.49871328125000003
vt 0.2265625 0.49871328125000003
vt 0.2265625 0.515625
vt 0.41773203125 0.5859375
vt 0.41484375 0.5835765625
vt 0.421875 0.57890625
vt 0.34453125 0.5820140625
vt 0.34453125 0.5726734375
vt 0.3515625 0.57734375
vt 0.2922046875 0.5859375
vt 0.2922046875 0.56902578125
vt 0.3015453125 0.56902578125
vt 0.3015453125 0.5859375
vt 0.41484375 0.5835765625
vt 0.41484375 0.5742359375
vt 0.421875 0.57890625
vt 0.34741953125 0.584375
vt 0.34453125 0.5820140625
vt 0.3515625 0.57734375
vt 0.1796875 0.515625
vt 0.1796875 0.49871328125000003
vt 0.18341796875 0.49871328125000003
vt 0.18341796875 0.515625
vt 0.41484375 0.5742359375
vt 0.41773203125 0.571875
vt 0.421875 0.57890625
vt 0.35570546875 0.584375
vt 0.34741953125 0.584375
vt 0.3515625 0.57734375
vt 0.39429453125 0.578125
vt 0.39429453125 0.56121328125
vt 0.40258046875 0.56121328125
vt 0.40258046875 0.578125
vt 0.41773203125 0.571875
vt 0.42601796875 0.571875
vt 0.421875 0.57890625
vt 0.40258046875 0.55625
vt 0.40258046875 0.55833359375
vt 0.39429453125 0.55833359375
vt 0.39429453125 0.55625
vt 0.40258046875 0.55833359375
vt 0.40258046875 0.56121328125
vt 0.39429453125 0.56121328125
vt 0.39429453125 0.55833359375
vt 0.18341796875 0.49375
vt 0.18341796875 0.49583359375
vt 0.1796875 0.49583359375
vt 0.1796875 0.49375
vt 0.18341796875 0.49583359375
vt 0.18341796875 0.49871328125000003
vt 0.1796875 0.49871328125000003
vt 0.1796875 0.49583359375
vt 0.3015453125 0.5640625
vt 0.3015453125 0.56614609375
vt 0.2922046875 0.56614609375
vt 0.2922046875 0.5640625
vt 0.3015453125 0.56614609375
vt 0.3015453125 0.56902578125
vt 0.2922046875 0.56902578125
vt 0.2922046875 0.56614609375
vt 0.2265625 0.49375
vt 0.2265625 0.49583359375
vt 0.22283203125 0.49583359375
vt 0.22283203125 0.49375
vt 0.2265625 0.49583359375
vt 0.2265625 0.49871328125000003
vt 0.22283203125 0.49871328125000003
vt 0.22283203125 0.49583359375
vt 0.37914296875 0.55625
vt 0.37914296875 0.55833359375
vt 0.37085703125 0.55833359375
vt 0.37085703125 0.55625
vt 0.37914296875 0.55833359375
vt 0.37914296875 0.56121328125
vt 0.37085703125 0.56121328125
vt 0.37085703125 0.55833359375
vt 0.15216875000000002 0.49375
vt 0.15216875000000002 0.49583359375
vt 0.1484375 0.49583359375
vt 0.1484375 0.49375
vt 0.15216875000000002 0.49583359375
vt 0.15216875000000002 0.49871328125000003
vt 0.1484375 0.49871328125000003
vt 0.1484375 0.49583359375
vt 0.2390453125 0.5640625
vt 0.2390453125 0.56614609375
vt 0.2297046875 0.56614609375
vt 0.2297046875 0.5640625
vt 0.2390453125 0.56614609375
vt 0.2390453125 0.56902578125
vt 0.2297046875 0.56902578125
vt 0.2297046875 0.56614609375
vt 0.171875 0.49375
vt 0.171875 0.49583359375
vt 0.16814374999999998 0.49583359375
vt 0.16814374999999998 0.49375
vt 0.171875 0.49583359375
vt 0.171875 0.49871328125000003
vt 0.16814374999999998 0.49871328125000003
vt 0.16814374999999998 0.49583359375
vn -1 3.996802888650565e-15 -1.9332019045709208e-15
vn 4.026292430662373e-15 0.6328859753093352 -0.7742450143570521
vn 1 -3.996802888650565e-15 1.9332019045709208e-15
vn -1 3.996802888650565e-15 -1.9332019045709208e-15
vn 3.996802888650562e-15 1 1.010643099614868e-15
vn 1 -3.996802888650565e-15 1.9332019045709208e-15
vn -1 3.996802888650565e-15 -1.9332019045709208e-15
vn 1.0327485579431824e-15 0.6328859753093342 0.7742450143570528
vn 1 -3.996802888650565e-15 1.9332019045709208e-15
vn -1 3.996802888650565e-15 -1.9332019045709208e-15
vn -1.9332019045709247e-15 -1.0106430996148602e-15 1
vn 1 -3.996802888650565e-15 1.9332019045709208e-15
vn -1 3.996802888650565e-15 -1.9332019045709208e-15
vn -4.026292430662372e-15 -0.6328859753093347 0.7742450143570525
vn 1 -3.996802888650565e-15 1.9332019045709208e-15
vn -1 3.996802888650565e-15 -1.9332019045709208e-15
vn -3.996802888650562e-15 -1 -1.010643099614868e-15
vn 1 -3.996802888650565e-15 1.9332019045709208e-15
vn -1 3.996802888650565e-15 -1.9332019045709208e-15
vn -1.0327485579431777e-15 -0.6328859753093334 -0.7742450143570535
vn 1 -3.996802888650565e-15 1.9332019045709208e-15
vn -1 3.996802888650565e-15 -1.9332019045709208e-15
vn 1.933201904570924e-15 8.012824845088422e-16 -1
vn 1 -3.996802888650565e-15 1.9332019045709208e-15
vn 1.933201904570924e-15 8.012824845088421e-16 -1
vn 1.933201904570924e-15 8.012824845088421e-16 -1
vn -1.0327485579431778e-15 -0.6328859753093334 -0.7742450143570534
vn -1.0327485579431777e-15 -0.6328859753093334 -0.7742450143570535
vn -3.996802888650562e-15 -1 -1.010643099614868e-15
vn -3.996802888650562e-15 -1 -1.010643099614868e-15
vn -4.026292430662372e-15 -0.6328859753093348 0.7742450143570525
vn -4.026292430662372e-15 -0.6328859753093348 0.7742450143570525
vn -1.9332019045709247e-15 -1.0106430996148602e-15 1
vn -1.9332019045709247e-15 -1.0106430996148602e-15 1
vn 1.0327485579431824e-15 0.6328859753093342 0.7742450143570527
vn 1.0327485579431824e-15 0.6328859753093342 0.7742450143570527
vn 3.996802888650562e-15 1 1.010643099614868e-15
vn 3.996802888650562e-15 1 1.010643099614868e-15
vn 4.026292430662373e-15 0.6328859753093352 -0.774245014357052
vn 4.026292430662373e-15 0.6328859753093352 -0.774245014357052
usemtl m_54b34a1e-1586-476a-5d98-d712507b2029
f 158/611/159 156/612/159 154/613/159
f 157/614/160 174/615/160 187/616/160 159/617/160
f 157/618/161 159/619/161 155/620/161
f 160/621/162 158/622/162 154/623/162
f 159/624/163 187/625/163 185/626/163 161/627/163
f 159/628/164 161/629/164 155/630/164
f 162/631/165 160/632/165 154/633/165
f 161/634/166 185/635/166 183/636/166 163/637/166
f 161/638/167 163/639/167 155/640/167
f 164/641/168 162/642/168 154/643/168
f 163/644/169 183/645/169 181/646/169 165/647/169
f 163/648/170 165/649/170 155/650/170
f 166/651/171 164/652/171 154/653/171
f 165/654/172 181/655/172 179/656/172 167/657/172
f 165/658/173 167/659/173 155/660/173
f 168/661/174 166/662/174 154/663/174
f 167/664/175 179/665/175 177/666/175 169/667/175
f 167/668/176 169/669/176 155/670/176
f 170/671/177 168/672/177 154/673/177
f 169/674/178 177/675/178 175/676/178 171/677/178
f 169/678/179 171/679/179 155/680/179
f 156/681/180 170/682/180 154/683/180
f 171/684/181 175/685/181 174/686/181 157/687/181
f 171/688/182 157/689/182 155/690/182
f 156/691/183 172/692/183 173/693/183 170/694/183
f 172/695/184 174/696/184 175/697/184 173/698/184
f 170/699/185 173/700/185 176/701/185 168/702/185
f 173/703/186 175/704/186 177/705/186 176/706/186
f 168/707/187 176/708/187 178/709/187 166/710/187
f 176/711/188 177/712/188 179/713/188 178/714/188
f 166/715/189 178/716/189 180/717/189 164/718/189
f 178/719/190 179/720/190 181/721/190 180/722/190
f 164/723/191 180/724/191 182/725/191 162/726/191
f 180/727/192 181/728/192 183/729/192 182/730/192
f 162/731/193 182/732/193 184/733/193 160/734/193
f 182/735/194 183/736/194 185/737/194 184/738/194
f 160/739/195 184/740/195 186/741/195 158/742/195
f 184/743/196 185/744/196 187/745/196 186/746/196
f 158/747/197 186/748/197 172/749/197 156/750/197
f 186/751/198 187/752/198 174/753/198 172/754/198
o cylinder
v -0.16875000052683556 1.0124999982877854 0.06250000000000058
v -0.16875000052683556 1.012499998287784 -0.06249999999999971
v -0.23750000013863135 1.030921506716223 0.06250000000000035
v -0.23750000013863135 1.0309215067162216 -0.062499999999999924
v -0.21907849248660222 1.0628284923687392 0.06250000000000003
v -0.21907849248660222 1.0628284923687379 -0.06250000000000025
v -0.18717150605767735 1.0812499986759896 0.062499999999999854
v -0.18717150605767735 1.0812499986759883 -0.06250000000000043
v -0.15032849209839794 1.081249997899581 0.06249999999999987
v -0.15032849209839794 1.0812499978995798 -0.06250000000000042
v -0.11842150644588156 1.0628284902475518 0.06250000000000007
v -0.11842150644588156 1.0628284902475504 -0.06250000000000021
v -0.10000000013863133 1.030921503818627 0.06250000000000042
v -0.10000000013863133 1.0309215038186257 -0.06249999999999986
v -0.10000000091503974 0.9940784898593477 0.06250000000000079
v -0.10000000091503974 0.9940784898593463 -0.06249999999999948
v -0.1184215085670689 0.9621715042068313 0.06250000000000111
v -0.1184215085670689 0.96217150420683 -0.06249999999999916
v -0.1503284949959938 0.943749997899581 0.06250000000000129
v -0.1503284949959938 0.9437499978995797 -0.06249999999999899
v -0.18717150895527312 0.9437499986759895 0.06250000000000128
v -0.18717150895527312 0.9437499986759882 -0.062499999999999
v -0.21907849460778955 0.9621715063280186 0.06250000000000107
v -0.21907849460778955 0.9621715063280173 -0.0624999999999992
v -0.23750000091503978 0.9940784927569435 0.06250000000000072
v -0.23750000091503978 0.9940784927569422 -0.06249999999999954
vt 0.30707265625 0.60863515625
vt 0.30308359375 0.6109375
vt 0.30078125 0.60234375
vt 0.3125 0.5234375
vt 0.3203125 0.5234375
vt 0.3203125 0.5390625
vt 0.3125 0.5390625
vt 0.24058359375 0.6
vt 0.24457265625 0.60230234375
vt 0.23828125 0.60859375
vt 0.309375 0.60464609375
vt 0.30707265625 0.60863515625
vt 0.30078125 0.60234375
vt 0.234375 0.5234375
vt 0.2421875 0.5234375
vt 0.2421875 0.5390625
vt 0.234375 0.5390625
vt 0.24457265625 0.60230234375
vt 0.246875 0.60629140625
vt 0.23828125 0.60859375
vt 0.309375 0.60004140625
vt 0.309375 0.60464609375
vt 0.30078125 0.60234375
vt 0.0859375 0.71875
vt 0.09375 0.71875
vt 0.09375 0.734375
vt 0.0859375 0.734375
vt 0.246875 0.60629140625
vt 0.246875 0.61089609375
vt 0.23828125 0.60859375
vt 0.30707265625 0.59605234375
vt 0.309375 0.60004140625
vt 0.30078125 0.60234375
vt 0.25 0.5234375
vt 0.2578125 0.5234375
vt 0.2578125 0.5390625
vt 0.25 0.5390625
vt 0.246875 0.61089609375
vt 0.24457265625 0.61488515625
vt 0.23828125 0.60859375
vt 0.30308359375 0.59375
vt 0.30707265625 0.59605234375
vt 0.30078125 0.60234375
vt 0.4609375 0.6640625
vt 0.46875 0.6640625
vt 0.46875 0.6796875
vt 0.4609375 0.6796875
vt 0.24457265625 0.61488515625
vt 0.24058359375 0.6171875
vt 0.23828125 0.60859375
vt 0.29847890625 0.59375
vt 0.30308359375 0.59375
vt 0.30078125 0.60234375
vt 0.1640625 0.5234375
vt 0.171875 0.5234375
vt 0.171875 0.5390625
vt 0.1640625 0.5390625
vt 0.24058359375 0.6171875
vt 0.23597890625 0.6171875
vt 0.23828125 0.60859375
vt 0.29448984375 0.59605234375
vt 0.29847890625 0.59375
vt 0.30078125 0.60234375
vt 0.328125 0.5234375
vt 0.3359375 0.5234375
vt 0.3359375 0.5390625
vt 0.328125 0.5390625
vt 0.23597890625 0.6171875
vt 0.23198984375 0.61488515625
vt 0.23828125 0.60859375
vt 0.2921875 0.60004140625
vt 0.29448984375 0.59605234375
vt 0.30078125 0.60234375
vt 0.4609375 0.8125
vt 0.46875 0.8125
vt 0.46875 0.828125
vt 0.4609375 0.828125
vt 0.23198984375 0.61488515625
vt 0.2296875 0.61089609375
vt 0.23828125 0.60859375
vt 0.2921875 0.60464609375
vt 0.2921875 0.60004140625
vt 0.30078125 0.60234375
vt 0.1484375 0.5234375
vt 0.15625 0.5234375
vt 0.15625 0.5390625
vt 0.1484375 0.5390625
vt 0.2296875 0.61089609375
vt 0.2296875 0.60629140625
vt 0.23828125 0.60859375
vt 0.29448984375 0.60863515625
vt 0.2921875 0.60464609375
vt 0.30078125 0.60234375
vt 0.21875 0.5234375
vt 0.2265625 0.5234375
vt 0.2265625 0.5390625
vt 0.21875 0.5390625
vt 0.2296875 0.60629140625
vt 0.23198984375 0.60230234375
vt 0.23828125 0.60859375
vt 0.29847890625 0.6109375
vt 0.29448984375 0.60863515625
vt 0.30078125 0.60234375
vt 0.265625 0.5234375
vt 0.2734375 0.5234375
vt 0.2734375 0.5390625
vt 0.265625 0.5390625
vt 0.23198984375 0.60230234375
vt 0.23597890625 0.6
vt 0.23828125 0.60859375
vt 0.30308359375 0.6109375
vt 0.29847890625 0.6109375
vt 0.30078125 0.60234375
vt 0.4609375 0.8359375
vt 0.46875 0.8359375
vt 0.46875 0.8515625
vt 0.4609375 0.8515625
vt 0.23597890625 0.6
vt 0.24058359375 0.6
vt 0.23828125 0.60859375
vn -4.4408899109558276e-16 1.038058528960369e-14 1
vn -0.8660253932477264 0.5000000182501207 -5.329070712713109e-15
vn 4.4408899109558276e-16 -1.038058528960369e-14 -1
vn -4.4408899109558276e-16 1.038058528960369e-14 1
vn -0.4999999817498789 0.8660254143211509 -9.230221006942869e-15
vn 4.4408899109558276e-16 -1.038058528960369e-14 -1
vn -4.4408899109558276e-16 1.038058528960369e-14 1
vn 2.1073424449902227e-8 0.9999999999999998 -1.0658141036401495e-14
vn 4.4408899109558276e-16 -1.038058528960369e-14 -1
vn -4.4408899109558276e-16 1.038058528960369e-14 1
vn 0.5000000182501207 0.8660253932477264 -9.230220782339336e-15
vn 4.4408899109558276e-16 -1.038058528960369e-14 -1
vn -4.4408899109558276e-16 1.038058528960369e-14 1
vn 0.8660254143211507 0.49999998174987914 -5.329070323688387e-15
vn 4.4408899109558276e-16 -1.038058528960369e-14 -1
vn -4.4408899109558276e-16 1.038058528960369e-14 1
vn 0.9999999999999998 -2.1073423363488276e-8 2.246035183278565e-22
vn 4.4408899109558276e-16 -1.038058528960369e-14 -1
vn -4.4408899109558276e-16 1.038058528960369e-14 1
vn 0.8660253932477265 -0.5000000182501205 5.3290707127131075e-15
vn 4.4408899109558276e-16 -1.038058528960369e-14 -1
vn -4.4408899109558276e-16 1.038058528960369e-14 1
vn 0.4999999817498787 -0.866025414321151 9.23022100694287e-15
vn 4.4408899109558276e-16 -1.038058528960369e-14 -1
vn -4.4408899109558276e-16 1.038058528960369e-14 1
vn -2.1073424449902227e-8 -0.9999999999999998 1.0658141036401495e-14
vn 4.4408899109558276e-16 -1.038058528960369e-14 -1
vn -4.4408899109558276e-16 1.038058528960369e-14 1
vn -0.5000000182501203 -0.8660253932477265 9.230220782339339e-15
vn 4.4408899109558276e-16 -1.038058528960369e-14 -1
vn -4.4408899109558276e-16 1.038058528960369e-14 1
vn -0.8660254143211507 -0.499999981749879 5.329070323688386e-15
vn 4.4408899109558276e-16 -1.038058528960369e-14 -1
vn -4.4408899109558276e-16 1.038058528960369e-14 1
vn -0.9999999999999998 2.107342411683532e-8 -2.2460352635713555e-22
vn 4.4408899109558276e-16 -1.038058528960369e-14 -1
usemtl m_54b34a1e-1586-476a-5d98-d712507b2029
f 192/755/199 190/756/199 188/757/199
f 190/758/200 192/759/200 193/760/200 191/761/200
f 191/762/201 193/763/201 189/764/201
f 194/765/202 192/766/202 188/767/202
f 192/768/203 194/769/203 195/770/203 193/771/203
f 193/772/204 195/773/204 189/774/204
f 196/775/205 194/776/205 188/777/205
f 194/778/206 196/779/206 197/780/206 195/781/206
f 195/782/207 197/783/207 189/784/207
f 198/785/208 196/786/208 188/787/208
f 196/788/209 198/789/209 199/790/209 197/791/209
f 197/792/210 199/793/210 189/794/210
f 200/795/211 198/796/211 188/797/211
f 198/798/212 200/799/212 201/800/212 199/801/212
f 199/802/213 201/803/213 189/804/213
f 202/805/214 200/806/214 188/807/214
f 200/808/215 202/809/215 203/810/215 201/811/215
f 201/812/216 203/813/216 189/814/216
f 204/815/217 202/816/217 188/817/217
f 202/818/218 204/819/218 205/820/218 203/821/218
f 203/822/219 205/823/219 189/824/219
f 206/825/220 204/826/220 188/827/220
f 204/828/221 206/829/221 207/830/221 205/831/221
f 205/832/222 207/833/222 189/834/222
f 208/835/223 206/836/223 188/837/223
f 206/838/224 208/839/224 209/840/224 207/841/224
f 207/842/225 209/843/225 189/844/225
f 210/845/226 208/846/226 188/847/226
f 208/848/227 210/849/227 211/850/227 209/851/227
f 209/852/228 211/853/228 189/854/228
f 212/855/229 210/856/229 188/857/229
f 210/858/230 212/859/230 213/860/230 211/861/230
f 211/862/231 213/863/231 189/864/231
f 190/865/232 212/866/232 188/867/232
f 212/868/233 190/869/233 191/870/233 213/871/233
f 213/872/234 191/873/234 189/874/234