# Made in Blockbench 5.1.5
mtllib Charge Right Arm.mtl

o cuboid
v 0.825 1.046875 0.109375
v 0.825 1.046875 -0.1171875
v 0.825 0.921875 0.109375
v 0.825 0.921875 -0.1171875
v 0.625 1.046875 0.084375
v 0.625 1.046875 -0.1171875
v 0.625 0.921875 0.084375
v 0.625 0.921875 -0.1171875
v 0.625 0.996875 -0.1171875
v 0.85 0.996875 -0.1171875
v 0.85 0.996875 0.109375
v 0.625 0.996875 0.084375
v 0.725 0.996875 -0.1171875
v 0.725 1.046875 -0.1171875
v 0.725 1.046875 0.109375
v 0.725 0.996875 0.109375
v 0.725 0.921875 0.109375
v 0.725 0.921875 -0.1171875
v 0.85 0.996875 -0.04218750000000001
v 0.825 0.921875 -0.04218750000000001
v 0.725 0.921875 -0.04218750000000001
v 0.625 0.921875 -0.04218750000000001
v 0.625 0.996875 -0.04218750000000001
v 0.625 1.046875 -0.04218750000000001
v 0.725 1.046875 -0.04218750000000001
v 0.825 1.046875 -0.04218750000000001
v 0.625 0.8843749999999999 -0.1484375
v 0.725 0.8843749999999999 -0.1484375
v 0.725 0.8843749999999999 -0.04218750000000001
v 0.625 0.8843749999999999 -0.04218750000000001
v 0.68125 0.921875 -0.04218750000000001
v 0.68125 0.921875 0.109375
v 0.68125 0.996875 0.109375
v 0.68125 1.046875 0.109375
v 0.68125 1.046875 -0.04218750000000001
v 0.68125 1.046875 -0.1171875
v 0.68125 0.996875 -0.1171875
v 0.68125 0.8843749999999999 -0.1484375
v 0.68125 0.8843749999999999 -0.04218750000000001
v 0.725 0.8968749999999999 -0.1171875
v 0.8171875 0.8968749999999999 -0.04218750000000001
v 0.725 0.8968749999999999 -0.04218750000000001
v 0.8171875 0.8968749999999999 -0.1171875
v 0.8171875 0.8968749999999999 0.109375
v 0.725 0.8968749999999999 0.109375
v 0.68125 0.8968749999999999 -0.04218750000000001
v 0.68125 0.8968749999999999 0.109375
vt 0.15927734375 0.70846875
vt 0.15927734375 0.69858671875
vt 0.14990234375 0.69858671875
vt 0.14990234375 0.70846875
vt 0.0546875 0.7875
vt 0.0421875 0.7875
vt 0.0421875 0.796875
vt 0.0546875 0.796875
vt 0.26884765625 0.728125
vt 0.28037109375 0.728125
vt 0.28037109375 0.71875
vt 0.26884765625 0.71875
vt 0.305859375 0.853125
vt 0.305859375 0.84375
vt 0.293359375 0.84375
vt 0.290234375 0.853125
vt 0.25625 0.765625
vt 0.25625 0.775
vt 0.271875 0.775
vt 0.26875 0.765625
vt 0.22001953125 0.765625
vt 0.22001953125 0.775
vt 0.22939453125 0.775
vt 0.22939453125 0.765625
vt 0.25625 0.775
vt 0.25625 0.78125
vt 0.26875 0.78125
vt 0.271875 0.775
vt 0.35458984375 0.7109375
vt 0.35458984375 0.7039500000000001
vt 0.34521484375 0.7039500000000001
vt 0.34521484375 0.7109375
vt 0.305859375 0.859375
vt 0.305859375 0.853125
vt 0.290234375 0.853125
vt 0.293359375 0.859375
vt 0.22001953125 0.775
vt 0.22001953125 0.78125
vt 0.22939453125 0.78125
vt 0.22939453125 0.775
vt 0.25078125 0.78125
vt 0.25078125 0.775
vt 0.24375 0.775
vt 0.24375 0.78125
vt 0.06015625 0.7875
vt 0.06015625 0.796875
vt 0.0671875 0.796875
vt 0.0671875 0.7875
vt 0.25793046875 0.5953125
vt 0.25793046875 0.6015625
vt 0.265625 0.6015625
vt 0.265625 0.5953125
vt 0.25793046875 0.5859375
vt 0.25793046875 0.5953125
vt 0.265625 0.5953125
vt 0.265625 0.5859375
vt 0.36640625 0.8203125
vt 0.36640625 0.83359375
vt 0.3734375 0.83359375
vt 0.3734375 0.8203125
vt 0.17265625 0.6484375
vt 0.17265625 0.6338421875
vt 0.165625 0.6338421875
vt 0.165625 0.6484375
vt 0.15927734375 0.69858671875
vt 0.15927734375 0.70846875
vt 0.17822265625 0.70846875
vt 0.17822265625 0.69858671875
vt 0.28037109375 0.728125
vt 0.26884765625 0.728125
vt 0.26884765625 0.7470703125
vt 0.28037109375 0.7470703125
vt 0.1953125 0.5859375
vt 0.1953125 0.6015625
vt 0.203125 0.5984375
vt 0.203125 0.5859375
vt 0.22001953125 0.775
vt 0.22001953125 0.765625
vt 0.20419921875 0.765625
vt 0.20419921875 0.775
vt 0.22001953125 0.78125
vt 0.22001953125 0.775
vt 0.20419921875 0.775
vt 0.20419921875 0.78125
vt 0.06015625 0.7685546875
vt 0.06015625 0.7875
vt 0.0671875 0.7875
vt 0.0671875 0.7716796875
vt 0.0421875 0.7875
vt 0.0546875 0.7875
vt 0.0546875 0.7685546875
vt 0.0421875 0.7685546875
vt 0.35458984375 0.7039500000000001
vt 0.35458984375 0.7109375
vt 0.37353515625 0.7109375
vt 0.37353515625 0.7039500000000001
vt 0.028515625 0.9671875
vt 0.024609375 0.9625
vt 0.028515625 0.9765625
vt 0.22939453125 0.775
vt 0.23330078125 0.7609375
vt 0.22939453125 0.765625
vt 0.22939453125 0.765625
vt 0.23330078125 0.7609375
vt 0.22001953125 0.7609375
vt 0.22001953125 0.765625
vt 0.30390625 0.51875
vt 0.30390625 0.5234375
vt 0.3109375 0.5234375
vt 0.3109375 0.51875
vt 0.037890625 0.9671875
vt 0.037890625 0.9625
vt 0.024609375 0.9625
vt 0.028515625 0.9671875
vt 0.28583984375 0.7470703125
vt 0.28583984375 0.728125
vt 0.28037109375 0.728125
vt 0.28037109375 0.7470703125
vt 0.311328125 0.853125
vt 0.311328125 0.84375
vt 0.305859375 0.84375
vt 0.305859375 0.853125
vt 0.311328125 0.859375
vt 0.311328125 0.853125
vt 0.305859375 0.853125
vt 0.305859375 0.859375
vt 0.06015625 0.7875
vt 0.06015625 0.7685546875
vt 0.0546875 0.7685546875
vt 0.0546875 0.7875
vt 0.06015625 0.796875
vt 0.06015625 0.7875
vt 0.0546875 0.7875
vt 0.0546875 0.796875
vt 0.25078125 0.775
vt 0.25078125 0.78125
vt 0.25625 0.78125
vt 0.25625 0.775
vt 0.17265625 0.6338421875
vt 0.17265625 0.6484375
vt 0.178125 0.6484375
vt 0.178125 0.6338421875
vt 0.36640625 0.83359375
vt 0.36640625 0.8203125
vt 0.3609375 0.8203125
vt 0.3609375 0.83359375
vt 0.30390625 0.5234375
vt 0.30390625 0.51875
vt 0.2984375 0.51875
vt 0.2984375 0.5234375
vt 0.390625 0.53125
vt 0.390625 0.5234375
vt 0.3828125 0.5234375
vt 0.3828125 0.53125
vt 0.15927734375 0.69858671875
vt 0.15927734375 0.6953125
vt 0.14990234375 0.6953125
vt 0.14990234375 0.69858671875
vt 0.26875 0.765625
vt 0.2677734375 0.7625
vt 0.25625 0.7625
vt 0.25625 0.765625
vt 0.17822265625 0.69858671875
vt 0.17822265625 0.6953125
vt 0.15927734375 0.6953125
vt 0.15927734375 0.69858671875
vt 0.305859375 0.84375
vt 0.305859375 0.840625
vt 0.2943359375 0.840625
vt 0.293359375 0.84375
vt 0.4765625 0.6171875
vt 0.4765625 0.609375
vt 0.46875 0.609375
vt 0.46875 0.6171875
vt 0.2265625 0.6015625
vt 0.2265625 0.59375
vt 0.2109375 0.59375
vt 0.2109375 0.6015625
vt 0.311328125 0.84375
vt 0.311328125 0.840625
vt 0.305859375 0.840625
vt 0.305859375 0.84375
vn 0.9486832980505137 -0.3162277660168384 0
vn 0 1 0
vn 0 -1 0
vn 0 0 1
vn 0 0 -1
vn -1 0 0
vn 0 0 -1
vn 0.8944271909999161 0.44721359549995804 0
vn 0 0 1
vn -1 0 0
vn 0 0 -1
vn 0 1 0
vn -0.4061384660534474 0 0.9138115486202573
vn -0.40613846605344744 0 0.9138115486202574
vn 0 -1 0
vn 0 0.26764386378609456 -0.9635179096299407
vn 0.9486832980505137 -0.3162277660168384 0
vn 0 -1 0
vn 0 -1 0
vn -1 0 0
vn -1 0 0
vn 0 1 0
vn 0 1 0
vn 0.894427190999916 0.447213595499958 0
vn 1 0 0
vn -1 0 0
vn -1 0 0
vn 0 0 1
vn 1 0 0
vn 0 -1 0
vn 0 0 1
vn 0 0 1
vn 0 1 0
vn 0 1 0
vn 0 0 -1
vn 0 0.26764386378609456 -0.9635179096299407
vn 0 -1 0
vn 0 0 1
vn -1 0 0
vn 0.9544799780350304 -0.2982749931359454 0
vn 0 0 -1
vn 0.9544799780350303 -0.29827499313594535 0
vn 0 0 1
vn 0 0 -1
vn -1 0 0
vn 0 0 1
usemtl m_560b2853-9d7a-f7a7-3613-5009d71d2e44
f 19/1/1 20/2/1 4/3/1 10/4/1
f 25/5/2 26/6/2 2/7/2 14/8/2
f 41/9/3 42/10/3 40/11/3 43/12/3
f 16/13/4 17/14/4 3/15/4 11/16/4
f 18/17/5 13/18/5 10/19/5 4/20/5
f 22/21/6 23/22/6 9/23/6 8/24/6
f 13/25/7 14/26/7 2/27/7 10/28/7
f 26/29/8 19/30/8 10/31/8 2/32/8
f 15/33/9 16/34/9 11/35/9 1/36/9
f 23/37/10 24/38/10 6/39/10 9/40/10
f 36/41/11 37/42/11 9/43/11 6/44/11
f 35/45/12 36/46/12 6/47/12 24/48/12
f 33/49/13 34/50/13 5/51/13 12/52/13
f 32/53/14 33/54/14 12/55/14 7/56/14
f 38/57/15 39/58/15 30/59/15 27/60/15
f 37/61/16 38/62/16 27/63/16 9/64/16
f 20/65/17 19/66/17 11/67/17 3/68/17
f 42/69/18 41/70/18 44/71/18 45/72/18
f 31/73/19 32/74/19 7/75/19 22/76/19
f 23/77/20 22/78/20 7/79/20 12/80/20
f 24/81/21 23/82/21 12/83/21 5/84/21
f 34/85/22 35/86/22 24/87/22 5/88/22
f 26/89/23 25/90/23 15/91/23 1/92/23
f 19/93/24 26/94/24 1/95/24 11/96/24
f 18/97/25 28/98/25 13/99/25
f 9/100/26 27/101/26 8/102/26
f 8/103/27 27/104/27 30/105/27 22/106/27
f 39/107/28 31/108/28 22/109/28 30/110/28
f 21/111/29 29/112/29 28/113/29 18/114/29
f 47/115/30 46/116/30 42/117/30 45/118/30
f 33/119/31 32/120/31 17/121/31 16/122/31
f 34/123/32 33/124/32 16/125/32 15/126/32
f 35/127/33 34/128/33 15/129/33 25/130/33
f 36/131/34 35/132/34 25/133/34 14/134/34
f 37/135/35 36/136/35 14/137/35 13/138/35
f 38/139/36 37/140/36 13/141/36 28/142/36
f 39/143/37 38/144/37 28/145/37 29/146/37
f 31/147/38 39/148/38 29/149/38 21/150/38
f 18/151/39 40/152/39 42/153/39 21/154/39
f 20/155/40 41/156/40 43/157/40 4/158/40
f 4/159/41 43/160/41 40/161/41 18/162/41
f 3/163/42 44/164/42 41/165/42 20/166/42
f 17/167/43 45/168/43 44/169/43 3/170/43
f 21/171/44 42/172/44 46/173/44 31/174/44
f 31/175/45 46/176/45 47/177/45 32/178/45
f 32/179/46 47/180/46 45/181/46 17/182/46
o Forearm
v 0.6177887500000002 1.140625 -0.13750000000000018
v 0.6177887500000002 1.140625 0.12910937499999983
v 0.6177887500000001 0.9593749999999999 -0.13750000000000015
v 0.6177887500000001 0.9593749999999999 0.12910937499999986
v 0.3375000000000002 1.111458125 -0.10847937500000017
v 0.3375000000000002 1.111458125 0.10008812499999983
v 0.3375000000000002 0.9593749999999999 -0.10847937500000016
v 0.3375000000000002 0.9593749999999999 0.10008812499999985
v 0.6177887500000001 1.045833125 -0.13750000000000018
v 0.3375000000000002 1.045833125 -0.10847937500000017
v 0.3375000000000002 1.045833125 0.10008812499999983
v 0.6177887500000001 1.045833125 0.12910937499999983
v 0.6908656250000003 1.1172918749999998 -0.12665687500000017
v 0.6908656250000001 1.045833125 0.11826624999999984
v 0.6908656250000001 1.045833125 -0.12665687500000017
v 0.6908656250000003 1.1172918749999998 0.11826624999999984
v 0.6908656250000003 1.1056249999999999 -0.12665687500000017
v 0.6908656250000003 1.1056249999999999 0.11826624999999984
v 0.6177887500000002 1.1247156249999999 0.12910937499999983
v 0.3375000000000002 1.0982006249999998 0.10008812499999983
v 0.3375000000000002 1.0982006249999998 -0.10847937500000017
v 0.6177887500000002 1.1247156249999999 -0.13750000000000018
v 0.7395831250000001 1.045833125 0.11826624999999984
v 0.7395831250000002 1.1056249999999999 -0.12665687500000017
v 0.7395831250000002 1.1056249999999999 0.11826624999999984
v 0.7395831250000001 1.045833125 -0.12665687500000017
v 0.8187500000000001 1.045833125 0.11826624999999984
v 0.8187500000000002 1.1056249999999999 -0.12665687500000017
v 0.8187500000000002 1.1056249999999999 0.11826624999999984
v 0.8187500000000001 1.045833125 -0.12665687500000017
v 0.8187500000000002 1.1056249999999999 0.057033749999999835
v 0.8187500000000001 1.045833125 0.05703374999999984
v 0.8187500000000002 1.1056249999999999 -0.004197500000000168
v 0.8187500000000001 1.045833125 -0.004197500000000161
v 0.8187500000000002 1.1056249999999999 -0.06542875000000016
v 0.8187500000000001 1.045833125 -0.06542875000000016
v 0.7395831250000001 1.045833125 0.05703374999999984
v 0.7395831250000001 1.045833125 -0.004197500000000161
v 0.7395831250000001 1.045833125 -0.06542875000000016
v 0.6908656250000001 1.045833125 0.05703374999999984
v 0.6908656250000001 1.045833125 -0.004197500000000161
v 0.6908656250000001 1.045833125 -0.06542875000000016
v 0.6177887500000001 1.045833125 0.06245562499999984
v 0.6177887500000001 1.045833125 -0.004198125000000161
v 0.6177887500000001 1.045833125 -0.07085062500000017
v 0.6177887500000001 0.9593749999999999 0.06245562499999985
v 0.6177887500000001 0.9593749999999999 -0.0041981250000001505
v 0.6177887500000001 0.9593749999999999 -0.07085062500000015
v 0.3375000000000002 0.9593749999999999 0.047945624999999846
v 0.3375000000000002 0.9593749999999999 -0.004197500000000151
v 0.3375000000000002 0.9593749999999999 -0.05633937500000015
v 0.3375000000000002 1.045833125 0.04794562499999984
v 0.3375000000000002 1.045833125 -0.004197500000000161
v 0.3375000000000002 1.045833125 -0.05633937500000016
v 0.3375000000000002 1.0982006249999998 0.04794562499999983
v 0.3375000000000002 1.0982006249999998 -0.004197500000000167
v 0.3375000000000002 1.0982006249999998 -0.056339375000000164
v 0.3375000000000002 1.111458125 0.04794562499999983
v 0.3375000000000002 1.111458125 -0.004197500000000169
v 0.3375000000000002 1.111458125 -0.056339375000000164
v 0.6177887500000002 1.140625 0.06245562499999983
v 0.6177887500000002 1.140625 -0.004198125000000172
v 0.6177887500000002 1.140625 -0.07085062500000017
v 0.6908656250000003 1.1172918749999998 0.05703374999999983
v 0.6908656250000003 1.1172918749999998 -0.00419750000000017
v 0.6908656250000003 1.1172918749999998 -0.06542875000000016
v 0.6908656250000003 1.1056249999999999 0.057033749999999835
v 0.6908656250000003 1.1056249999999999 -0.004197500000000168
v 0.6908656250000003 1.1056249999999999 -0.06542875000000016
v 0.7395831250000002 1.1056249999999999 0.057033749999999835
v 0.7395831250000002 1.1056249999999999 -0.004197500000000168
v 0.7395831250000002 1.1056249999999999 -0.06542875000000016
v 0.7928687500000002 1.1275 -0.11135000000000017
v 0.7624200000000002 1.1275 -0.08073562500000017
v 0.7928687500000002 1.1275 -0.08073562500000017
v 0.7624200000000002 1.1275 -0.11135000000000017
v 0.7624200000000002 1.1275 -0.01950562500000017
v 0.7624200000000002 1.1275 -0.05012125000000017
v 0.7928687500000002 1.1275 -0.05012125000000017
v 0.7928687500000002 1.1275 -0.01950562500000017
v 0.7624200000000002 1.1275 0.041726249999999826
v 0.7624200000000002 1.1275 0.011109999999999828
v 0.7928687500000002 1.1275 0.011109999999999828
v 0.7928687500000002 1.1275 0.041726249999999826
v 0.7624200000000002 1.1275 0.10295812499999983
v 0.7624200000000002 1.1275 0.07234187499999983
v 0.7928687500000002 1.1275 0.07234187499999983
v 0.7928687500000002 1.1275 0.10295812499999983
v 0.7395831250000001 1.045833125 -0.10847937500000017
v 0.7395831250000002 1.1056249999999999 -0.10847937500000017
v 0.6908656250000003 1.1056249999999999 -0.10847937500000017
v 0.6908656250000001 1.045833125 -0.10847937500000017
v 0.7395831250000002 1.1056249999999999 0.10008812499999983
v 0.7395831250000001 1.045833125 0.10008812499999983
v 0.6908656250000001 1.045833125 0.10008812499999983
v 0.6908656250000003 1.1056249999999999 0.10008812499999983
v 0.35688562500000015 1.045833125 0.10248249999999984
v 0.5919575000000002 1.089435625 0.12671499999999983
v 0.35688562500000015 1.089435625 0.10248249999999984
v 0.5919575000000001 1.045833125 0.12671499999999983
v 0.35688562500000015 0.989741875 0.10248249999999985
v 0.5919575000000001 0.989741875 0.12671499999999983
v 0.35688562500000015 1.045833125 0.20515062499999984
v 0.5919575000000002 1.089435625 0.2596793749999998
v 0.35688562500000015 1.089435625 0.20515062499999984
v 0.5919575000000001 1.045833125 0.2596793749999998
v 0.35688562500000015 0.989741875 0.20515062499999984
v 0.5919575000000001 0.989741875 0.2596793749999998
v 0.41174875000000016 1.089435625 0.2519787499999998
v 0.41174875000000016 1.045833125 0.2519787499999998
v 0.41174875000000016 0.989741875 0.2519787499999998
v 0.41331625000000016 0.989741875 0.10837562499999985
v 0.40414312500000016 0.9593749999999999 0.10714624999999985
v 0.40414312500000016 0.9593749999999999 0.051473749999999846
v 0.40414312500000016 0.9593749999999999 -0.004197500000000151
v 0.40414312500000016 0.9593749999999999 -0.059868125000000154
v 0.40414312500000016 0.9593749999999999 -0.11553687500000015
v 0.40414312500000016 1.045833125 -0.11553687500000016
v 0.40414312500000016 1.10464875 -0.11553687500000016
v 0.40414312500000016 1.1185512499999999 -0.11553687500000016
v 0.40414312500000016 1.1185512499999999 -0.059868125000000175
v 0.40414312500000016 1.1185512499999999 -0.00419750000000017
v 0.40414312500000016 1.1185512499999999 0.051473749999999825
v 0.40414312500000016 1.1185512499999999 0.10714624999999983
v 0.40414312500000016 1.10464875 0.10714624999999983
v 0.41331625000000016 1.089435625 0.10837562499999984
vt 0.3282828125 0.78125
vt 0.3282828125 0.77377578125
vt 0.3206296875 0.77377578125
vt 0.3206296875 0.78125
vt 0.131517578125 0.726171875
vt 0.131517578125 0.7327179687500001
vt 0.138035546875 0.7327179687500001
vt 0.138035546875 0.726171875
vt 0.033448828125 0.81690234375
vt 0.026490234375 0.81690234375
vt 0.027862890625 0.84375
vt 0.036194140625 0.84375
vt 0.16659375 0.945496875
vt 0.16659375 0.95245546875
vt 0.19329921875 0.95520078125
vt 0.19329921875 0.94686953125
vt 0.131517578125 0.71536484375
vt 0.131517578125 0.726171875
vt 0.138035546875 0.726171875
vt 0.138035546875 0.71536484375
vt 0.315887109375 0.734375
vt 0.315887109375 0.7235679687500001
vt 0.307555859375 0.7235679687500001
vt 0.307555859375 0.734375
vt 0.2227234375 0.9120742187499999
vt 0.2319578125 0.9096875
vt 0.2319578125 0.90221328125
vt 0.2227234375 0.90221328125
vt 0.21532421875 0.9540046875
vt 0.20618984375 0.95468203125
vt 0.20618984375 0.96301328125
vt 0.21532421875 0.9616578125
vt 0.174289765625 0.995625
vt 0.183524140625 0.99801171875
vt 0.183524140625 0.98815078125
vt 0.174289765625 0.98815078125
vt 0.323699609375 0.9609375
vt 0.324376953125 0.9513484375
vt 0.316723828125 0.9513484375
vt 0.315368359375 0.9609375
vt 0.4923453125 1
vt 0.4923453125 0.99854140625
vt 0.4846921875 0.99854140625
vt 0.4846921875 1
vt 0.183524140625 0.99801171875
vt 0.174289765625 0.995625
vt 0.174289765625 0.99708359375
vt 0.183524140625 1
vt 0.210370546875 0.997244140625
vt 0.210370859375 0.995506640625
vt 0.183524375 0.998011328125
vt 0.1835240625 0.999999609375
vt 0.131517578125 0.7327179687500001
vt 0.131517578125 0.734375
vt 0.138035546875 0.734375
vt 0.138035546875 0.7327179687500001
vt 0.1958765625 0.909565625
vt 0.1958765625 0.911303125
vt 0.2227234375 0.9140625
vt 0.2227234375 0.9120742187499999
vt 0.2319578125 0.9096875
vt 0.2227234375 0.9120742187499999
vt 0.2227234375 0.9140625
vt 0.2319578125 0.91114609375
vt 0.3125 0.796875
vt 0.3046875 0.796875
vt 0.3046875 0.8046875
vt 0.3125 0.8046875
vt 0.1171875 0.671875
vt 0.125 0.671875
vt 0.125 0.6640625
vt 0.1171875 0.6640625
vt 0.03125 0.65625
vt 0.0234375 0.65625
vt 0.0234375 0.6640625
vt 0.03125 0.6640625
vt 0.453125 0.765625
vt 0.4609375 0.765625
vt 0.4609375 0.7578125
vt 0.453125 0.7578125
vt 0.2421875 0.546875
vt 0.25 0.546875
vt 0.25 0.5390625
vt 0.2421875 0.5390625
vt 0.23131015625 0.9540046875
vt 0.2214140625 0.9540046875
vt 0.2214140625 0.9616578125
vt 0.23131015625 0.9616578125
vt 0.343590625 0.77377578125
vt 0.343590625 0.78125
vt 0.3512453125 0.78125
vt 0.3512453125 0.77377578125
vt 0.33593671875 0.77377578125
vt 0.33593671875 0.78125
vt 0.343590625 0.78125
vt 0.343590625 0.77377578125
vt 0.3282828125 0.77377578125
vt 0.3282828125 0.78125
vt 0.33593671875 0.78125
vt 0.33593671875 0.77377578125
vt 0.2214140625 0.938696875
vt 0.23131015625 0.938696875
vt 0.23131015625 0.9310421875
vt 0.2214140625 0.9310421875
vt 0.2214140625 0.94635078125
vt 0.23131015625 0.94635078125
vt 0.23131015625 0.938696875
vt 0.2214140625 0.938696875
vt 0.2214140625 0.9540046875
vt 0.23131015625 0.9540046875
vt 0.23131015625 0.94635078125
vt 0.2214140625 0.94635078125
vt 0.21532421875 0.94635078125
vt 0.2214140625 0.94635078125
vt 0.2214140625 0.938696875
vt 0.21532421875 0.938696875
vt 0.21532421875 0.9540046875
vt 0.2214140625 0.9540046875
vt 0.2214140625 0.94635078125
vt 0.21532421875 0.94635078125
vt 0.20618984375 0.93801875
vt 0.21532421875 0.938696875
vt 0.21532421875 0.9310421875
vt 0.20618984375 0.9296875
vt 0.20618984375 0.94635078125
vt 0.21532421875 0.94635078125
vt 0.21532421875 0.938696875
vt 0.20618984375 0.93801875
vt 0.20618984375 0.95468203125
vt 0.21532421875 0.9540046875
vt 0.21532421875 0.94635078125
vt 0.20618984375 0.94635078125
vt 0.332550390625 0.7235679687500001
vt 0.332550390625 0.734375
vt 0.340881640625 0.734375
vt 0.340881640625 0.7235679687500001
vt 0.324218359375 0.7235679687500001
vt 0.324218359375 0.734375
vt 0.332550390625 0.734375
vt 0.332550390625 0.7235679687500001
vt 0.315887109375 0.7235679687500001
vt 0.315887109375 0.734375
vt 0.324218359375 0.734375
vt 0.324218359375 0.7235679687500001
vt 0.16659375 0.9246203125
vt 0.16659375 0.93157890625
vt 0.19329921875 0.93020625
vt 0.19329921875 0.921875
vt 0.16659375 0.93157890625
vt 0.16659375 0.93853828125
vt 0.19329921875 0.93853828125
vt 0.19329921875 0.93020625
vt 0.16659375 0.93853828125
vt 0.16659375 0.945496875
vt 0.19329921875 0.94686953125
vt 0.19329921875 0.93853828125
vt 0.118482421875 0.726171875
vt 0.118482421875 0.71536484375
vt 0.111964453125 0.71536484375
vt 0.111964453125 0.726171875
vt 0.125000390625 0.726171875
vt 0.125000390625 0.71536484375
vt 0.118482421875 0.71536484375
vt 0.118482421875 0.726171875
vt 0.131517578125 0.726171875
vt 0.131517578125 0.71536484375
vt 0.125000390625 0.71536484375
vt 0.125000390625 0.726171875
vt 0.118482421875 0.7327179687500001
vt 0.118482421875 0.726171875
vt 0.111964453125 0.726171875
vt 0.111964453125 0.7327179687500001
vt 0.125000390625 0.7327179687500001
vt 0.125000390625 0.726171875
vt 0.118482421875 0.726171875
vt 0.118482421875 0.7327179687500001
vt 0.131517578125 0.7327179687500001
vt 0.131517578125 0.726171875
vt 0.125000390625 0.726171875
vt 0.125000390625 0.7327179687500001
vt 0.118482421875 0.734375
vt 0.118482421875 0.7327179687500001
vt 0.111964453125 0.7327179687500001
vt 0.111964453125 0.734375
vt 0.125000390625 0.734375
vt 0.125000390625 0.7327179687500001
vt 0.118482421875 0.7327179687500001
vt 0.118482421875 0.734375
vt 0.131517578125 0.734375
vt 0.131517578125 0.7327179687500001
vt 0.125000390625 0.7327179687500001
vt 0.125000390625 0.734375
vt 0.012572265625 0.81690234375
vt 0.005613671875 0.81690234375
vt 0.002868359375 0.84375
vt 0.011199609375 0.84375
vt 0.019531640625 0.81690234375
vt 0.012572265625 0.81690234375
vt 0.011199609375 0.84375
vt 0.019531640625 0.84375
vt 0.026490234375 0.81690234375
vt 0.019531640625 0.81690234375
vt 0.019531640625 0.84375
vt 0.027862890625 0.84375
vt 0.339684765625 0.9513484375
vt 0.340362890625 0.9609375
vt 0.348694140625 0.9609375
vt 0.347339453125 0.9513484375
vt 0.332030859375 0.9513484375
vt 0.332030859375 0.9609375
vt 0.340362890625 0.9609375
vt 0.339684765625 0.9513484375
vt 0.324376953125 0.9513484375
vt 0.323699609375 0.9609375
vt 0.332030859375 0.9609375
vt 0.332030859375 0.9513484375
vt 0.507653125 0.99854140625
vt 0.507653125 1
vt 0.5153078125 1
vt 0.5153078125 0.99854140625
vt 0.49999921875 0.99854140625
vt 0.49999921875 1
vt 0.507653125 1
vt 0.507653125 0.99854140625
vt 0.4923453125 0.99854140625
vt 0.4923453125 1
vt 0.49999921875 1
vt 0.49999921875 0.99854140625
vt 0.350701171875 0.6275890625
vt 0.344611328125 0.6275890625
vt 0.344611328125 0.6352429687500001
vt 0.350701171875 0.6352429687500001
vt 0.350701171875 0.61993515625
vt 0.344611328125 0.61993515625
vt 0.344611328125 0.6275890625
vt 0.350701171875 0.6275890625
vt 0.4609375 0.7421875
vt 0.453125 0.7421875
vt 0.453125 0.75
vt 0.4609375 0.75
vt 0.4609375 0.7265625
vt 0.453125 0.7265625
vt 0.453125 0.734375
vt 0.4609375 0.734375
vt 0.28125 0.5390625
vt 0.2734375 0.5390625
vt 0.2734375 0.546875
vt 0.28125 0.546875
vt 0.2813296875 0.515625
vt 0.28324296875 0.5234375
vt 0.28706953125 0.5234375
vt 0.2889828125 0.515625
vt 0.346614453125 0.546875
vt 0.349849609375 0.5546875
vt 0.353655859375 0.5546875
vt 0.356510546875 0.546875
vt 0.4766421875 0.8046875
vt 0.47855546875 0.8125
vt 0.48238203125 0.8125
vt 0.4842953125 0.8046875
vt 0.448176953125 0.65625
vt 0.451031640625 0.6640625
vt 0.454837890625 0.6640625
vt 0.458073046875 0.65625
vt 0.476641796875 0.8359375
vt 0.478555078125 0.84375
vt 0.482381640625 0.84375
vt 0.484295703125 0.8359375
vt 0.299739453125 0.546875
vt 0.302594140625 0.5546875
vt 0.306400390625 0.5546875
vt 0.309635546875 0.546875
vt 0.187579296875 0.515625
vt 0.189493359375 0.5234375
vt 0.193319921875 0.5234375
vt 0.195233203125 0.515625
vt 0.323176953125 0.546875
vt 0.326412109375 0.5546875
vt 0.330218359375 0.5546875
vt 0.333073046875 0.546875
vt 0.476641796875 0.8828125
vt 0.478555078125 0.890625
vt 0.482381640625 0.890625
vt 0.484295703125 0.8828125
vt 0.448176953125 0.8515625
vt 0.451031640625 0.859375
vt 0.454837890625 0.859375
vt 0.458073046875 0.8515625
vt 0.476641796875 0.8671875
vt 0.478555859375 0.875
vt 0.482382421875 0.875
vt 0.484295703125 0.8671875
vt 0.448176953125 0.8125
vt 0.451412109375 0.8203125
vt 0.455218359375 0.8203125
vt 0.458073046875 0.8125
vt 0.47664140625 0.8984375
vt 0.47855546875 0.90625
vt 0.48238203125 0.90625
vt 0.48429609375 0.8984375
vt 0.065364453125 0.546875
vt 0.068219140625 0.5546875
vt 0.072025390625 0.5546875
vt 0.075260546875 0.546875
vt 0.10164140625 0.515625
vt 0.10355546875 0.5234375
vt 0.10738203125 0.5234375
vt 0.10929609375 0.515625
vt 0.041926953125 0.546875
vt 0.045162109375 0.5546875
vt 0.048968359375 0.5546875
vt 0.051823046875 0.546875
vt 0.4609375 0.7109375
vt 0.453125 0.7109375
vt 0.453125 0.71875
vt 0.4609375 0.71875
vt 0.453125 0.703125
vt 0.4609375 0.703125
vt 0.4609375 0.6953125
vt 0.453125 0.6953125
vt 0.453125 0.6875
vt 0.4609375 0.6875
vt 0.4609375 0.6796875
vt 0.453125 0.6796875
vt 0.4609375 0.640625
vt 0.453125 0.640625
vt 0.453125 0.6484375
vt 0.4609375 0.6484375
vt 0.390625 0.546875
vt 0.3984375 0.546875
vt 0.3984375 0.5390625
vt 0.390625 0.5390625
vt 0.344611328125 0.61993515625
vt 0.350701171875 0.61993515625
vt 0.350701171875 0.6145539062500001
vt 0.344611328125 0.6145539062500001
vt 0.350701171875 0.6352429687500001
vt 0.344611328125 0.6352429687500001
vt 0.344611328125 0.640625
vt 0.350701171875 0.640625
vt 0.4609375 0.6015625
vt 0.453125 0.6015625
vt 0.453125 0.609375
vt 0.4609375 0.609375
vt 0.21874921875 0.988146953125
vt 0.2163078125 0.988147265625
vt 0.2163084375 0.993598046875
vt 0.21875 0.994693046875
vt 0.210370859375 0.995506640625
vt 0.209214765625 0.993604140625
vt 0.186767109375 0.9936015625
vt 0.183524453125 0.998011328125
vt 0.183524140625 0.99801171875
vt 0.186767109375 0.9936015625
vt 0.186767109375 0.98815078125
vt 0.183524140625 0.98815078125
vt 0.21874796875 0.977339921875
vt 0.216306953125 0.981136328125
vt 0.2163078125 0.988147265625
vt 0.21874921875 0.988146953125
vt 0.183524140625 0.98815078125
vt 0.186767109375 0.98815078125
vt 0.186767109375 0.98113984375
vt 0.183524140625 0.97734375
vt 0.209214765625 0.9811371875
vt 0.210370625 0.9773409375
vt 0.18352453125 0.977344140625
vt 0.186767109375 0.98113984375
vt 0.373604296875 0.66642421875
vt 0.360770703125 0.66642421875
vt 0.360770703125 0.671875
vt 0.373604296875 0.671875
vt 0.234549609375 0.98108671875
vt 0.234353515625 0.9990375
vt 0.256879296875 1
vt 0.256879296875 0.98337890625
vt 0.373604296875 0.65941328125
vt 0.360770703125 0.65941328125
vt 0.360770703125 0.66642421875
vt 0.373604296875 0.66642421875
vt 0.124978515625 0.74315
vt 0.125174609375 0.76110078125
vt 0.147504296875 0.75880859375
vt 0.147504296875 0.7421875
vt 0.331533203125 0.6640625
vt 0.348154296875 0.6640625
vt 0.348154296875 0.65861171875
vt 0.331533203125 0.65861171875
vt 0.331533203125 0.65861171875
vt 0.348154296875 0.65861171875
vt 0.348154296875 0.65160078125
vt 0.331533203125 0.65160078125
vt 0.41285859375 0.59611171875
vt 0.41285859375 0.6015625
vt 0.421875 0.6015625
vt 0.421875 0.59611171875
vt 0.41285859375 0.58910078125
vt 0.41285859375 0.59611171875
vt 0.421875 0.59611171875
vt 0.421875 0.58910078125
vt 0.125174609375 0.76110078125
vt 0.124978515625 0.74315
vt 0.118120703125 0.74900390625
vt 0.118120703125 0.7618375
vt 0.210370625 0.9773409375
vt 0.209214765625 0.9811371875
vt 0.216306953125 0.981136328125
vt 0.21874796875 0.977339921875
vt 0.16659375 0.93157890625
vt 0.16659375 0.9246203125
vt 0.15826328125 0.92550234375
vt 0.15826328125 0.9320203125
vt 0.16659375 0.93853828125
vt 0.16659375 0.93157890625
vt 0.15826328125 0.9320203125
vt 0.15826328125 0.93853828125
vt 0.16659375 0.945496875
vt 0.16659375 0.93853828125
vt 0.15826328125 0.93853828125
vt 0.15826328125 0.94505546875
vt 0.16659375 0.95245546875
vt 0.16659375 0.945496875
vt 0.15826328125 0.94505546875
vt 0.15826328125 0.9515734375
vt 0.1958765625 0.90221328125
vt 0.1958765625 0.89140625
vt 0.1875 0.89140625
vt 0.1875 0.90221328125
vt 0.1958765625 0.909565625
vt 0.1958765625 0.90221328125
vt 0.1875 0.90221328125
vt 0.1875 0.908759375
vt 0.1958765625 0.911303125
vt 0.1958765625 0.909565625
vt 0.1875 0.908759375
vt 0.1875 0.91041640625
vt 0.026490234375 0.81690234375
vt 0.033448828125 0.81690234375
vt 0.032566796875 0.8085249999999999
vt 0.026048828125 0.8085249999999999
vt 0.019531640625 0.81690234375
vt 0.026490234375 0.81690234375
vt 0.026048828125 0.8085249999999999
vt 0.019531640625 0.8085249999999999
vt 0.012572265625 0.81690234375
vt 0.019531640625 0.81690234375
vt 0.019531640625 0.8085249999999999
vt 0.013013671875 0.8085249999999999
vt 0.005613671875 0.81690234375
vt 0.012572265625 0.81690234375
vt 0.013013671875 0.8085249999999999
vt 0.006495703125 0.8085249999999999
vt 0.210370859375 0.995506640625
vt 0.210370546875 0.997244140625
vt 0.218748046875 0.99635859375
vt 0.21874828125 0.9947015625
vt 0.209214921875 0.993604375
vt 0.210370859375 0.995506640625
vt 0.218747890625 0.994705390625
vt 0.216307109375 0.9936078125
vt 0.234353515625 0.9990375
vt 0.234549609375 0.98108671875
vt 0.227495703125 0.98035
vt 0.227495703125 0.99318359375
vt 0.3276796875 0.6875
vt 0.3276796875 0.68204921875
vt 0.3051328125 0.68204921875
vt 0.3051328125 0.6875
vt 0.3276796875 0.68204921875
vt 0.3276796875 0.67503828125
vt 0.3051328125 0.67503828125
vt 0.3051328125 0.68204921875
vt 0.1958765625 0.90221328125
vt 0.1958765625 0.909565625
vt 0.2227234375 0.9120742187499999
vt 0.2227234375 0.90221328125
vt 0.1958765625 0.89140625
vt 0.1958765625 0.90221328125
vt 0.2227234375 0.90221328125
vt 0.2227234375 0.89140625
vn 1 -1.2246467991473532e-16 1.4997597826618576e-32
vn -1 1.2246467991473532e-16 -1.4997597826618576e-32
vn -0.10277237039763563 0.9947049009042086 -1.2181621729885242e-16
vn -1.2246467991473532e-16 -1 1.2246467991473532e-16
vn -1 1.2246467991473532e-16 -1.4997597826618576e-32
vn 1 -1.2246467991473532e-16 1.4997597826618576e-32
vn 0.1467727852459878 -1.391128981096939e-16 -0.9891702328270575
vn -1.2246467991473532e-16 -1 1.2246467991473532e-16
vn 0.14677278524598755 1.0316393377900577e-16 0.9891702328270576
vn 0.304166974673663 0.9526187335539184 -1.1666214828546115e-16
vn 1 -1.2246467991473532e-16 1.4997597826618576e-32
vn 0.14677278524598755 1.0316393377900577e-16 0.9891702328270575
vn -0.10226271517364768 1.3434622047982104e-16 0.99475742625291
vn -1 1.2246467991473532e-16 -1.4997597826618576e-32
vn -0.10226271517364775 -1.0929907911791603e-16 -0.99475742625291
vn 0.14677278524598775 -1.391128981096939e-16 -0.9891702328270575
vn 0 1.2246467991473532e-16 1
vn 0 -1.2246467991473532e-16 -1
vn 0 1.2246467991473532e-16 1
vn 1.2246467991473532e-16 1 -1.2246467991473532e-16
vn 0 -1.2246467991473532e-16 -1
vn -1.2246467991473532e-16 -1 1.2246467991473532e-16
vn 1 -1.2246467991473532e-16 1.4997597826618576e-32
vn 1 -1.2246467991473532e-16 1.4997597826618576e-32
vn 1 -1.2246467991473532e-16 1.4997597826618576e-32
vn -1.2246467991473532e-16 -1 1.2246467991473532e-16
vn -1.2246467991473532e-16 -1 1.2246467991473532e-16
vn -1.2246467991473532e-16 -1 1.2246467991473532e-16
vn -1.2246467991473532e-16 -1 1.2246467991473532e-16
vn -1.2246467991473532e-16 -1 1.2246467991473532e-16
vn -1.2246467991473532e-16 -1 1.2246467991473532e-16
vn -1.2246467991473532e-16 -1 1.2246467991473532e-16
vn -1.2246467991473532e-16 -1 1.2246467991473532e-16
vn 1 -1.2246467991473532e-16 1.4997597826618576e-32
vn 1 -1.2246467991473532e-16 1.4997597826618576e-32
vn 1 -1.2246467991473532e-16 1.4997597826618576e-32
vn -1.2246467991473532e-16 -1 1.2246467991473532e-16
vn -1.2246467991473532e-16 -1 1.2246467991473532e-16
vn -1.2246467991473532e-16 -1 1.2246467991473532e-16
vn -1 1.2246467991473532e-16 -1.4997597826618576e-32
vn -1 1.2246467991473532e-16 -1.4997597826618576e-32
vn -1 1.2246467991473532e-16 -1.4997597826618576e-32
vn -1 1.2246467991473532e-16 -1.4997597826618576e-32
vn -1 1.2246467991473532e-16 -1.4997597826618576e-32
vn -1 1.2246467991473532e-16 -1.4997597826618576e-32
vn -1 1.2246467991473532e-16 -1.4997597826618576e-32
vn -1 1.2246467991473532e-16 -1.4997597826618576e-32
vn -1 1.2246467991473532e-16 -1.4997597826618576e-32
vn -0.10277237039763562 0.9947049009042086 -1.2181621729885242e-16
vn -0.1027723703976356 0.9947049009042085 -1.2181621729885242e-16
vn -0.1027723703976356 0.9947049009042085 -1.2181621729885242e-16
vn 0.30416697467366305 0.9526187335539185 -1.1666214828546115e-16
vn 0.304166974673663 0.9526187335539185 -1.1666214828546115e-16
vn 0.30416697467366305 0.9526187335539184 -1.1666214828546115e-16
vn 1 -1.2246467991473532e-16 1.4997597826618576e-32
vn 1 -1.2246467991473532e-16 1.4997597826618576e-32
vn 1 -1.2246467991473532e-16 1.4997597826618576e-32
vn 1.2246467991473532e-16 1 -1.2246467991473532e-16
vn 1.2246467991473532e-16 1 -1.2246467991473532e-16
vn 1.2246467991473532e-16 1 -1.2246467991473532e-16
vn 1.2246467991473532e-16 1 -1.2246467991473532e-16
vn 1.2246467991473532e-16 1 -1.2246467991473532e-16
vn 0.6455204876767707 0.7637429541341407 -9.353153641517193e-17
vn 7.021156496895066e-17 0.5733209364351803 0.8193308878866266
vn -0.6917349276616134 0.7221515006236451 -8.843805237382047e-17
vn 7.021156496895063e-17 0.5733209364351799 -0.819330887886627
vn -0.6917349276616136 0.7221515006236451 -8.843805237382048e-17
vn 7.02134894429462e-17 0.5733366509579052 -0.819319891537105
vn 0.6455204876767707 0.7637429541341407 -9.353153641517193e-17
vn 7.021541383945642e-17 0.5733523648479149 0.8193088951813619
vn -0.6917349276616136 0.7221515006236451 -8.843805237382048e-17
vn 7.021348944294622e-17 0.5733366509579053 -0.8193198915371048
vn 0.6455204876767707 0.7637429541341407 -9.353153641517193e-17
vn 7.021348944294622e-17 0.5733366509579055 0.8193198915371046
vn -0.6917349276616136 0.7221515006236451 -8.843805237382048e-17
vn 7.021541383945642e-17 0.5733523648479146 -0.8193088951813621
vn 0.6455204876767708 0.7637429541341408 -9.353153641517194e-17
vn 7.021541383945643e-17 0.573352364847915 0.8193088951813616
vn -1 1.2246467991473532e-16 -1.4997597826618576e-32
vn 1 -1.2246467991473532e-16 1.4997597826618576e-32
vn -1 1.2246467991473532e-16 -1.4997597826618576e-32
vn 1 -1.2246467991473532e-16 1.4997597826618576e-32
vn -1.2246467991473532e-16 -1 1.2246467991473532e-16
vn 1.2246467991473532e-16 1 -1.2246467991473532e-16
vn 1.2246467991473532e-16 1 -1.2246467991473532e-16
vn -1.2246467991473532e-16 -1 1.2246467991473532e-16
vn -0.12258143452406242 1.3655300359516709e-16 0.9924584585311484
vn -0.10210556104874151 0.01880640022089844 0.9945957840819825
vn -0.0922972986813503 1.3324509786526303e-16 0.9957314942574257
vn -0.12258143452406241 1.3655300359516709e-16 0.9924584585311483
vn -0.0922972986813503 1.3324509786526303e-16 0.9957314942574257
vn -0.10225821607842166 -0.009380244400220597 0.994713661442051
vn -1 1.2246467991473532e-16 -1.4997597826618576e-32
vn 1.2246467991473532e-16 1 -1.2246467991473532e-16
vn -1 1.2246467991473532e-16 -1.4997597826618576e-32
vn -1.2246467991473532e-16 -1 1.2246467991473532e-16
vn 1 -1.2246467991473532e-16 1.4997597826618576e-32
vn 1 -1.2246467991473532e-16 1.4997597826618576e-32
vn -0.6492122560950524 1.7265309920330782e-16 0.7606072879850497
vn -0.6492122560950524 1.7265309920330777e-16 0.7606072879850496
vn -1.2246467991473532e-16 -1 1.2246467991473532e-16
vn -0.10386237943434047 -0.008889117481585296 0.9945519542631425
vn -1.2246467991473532e-16 -1 1.2246467991473532e-16
vn -1.2246467991473532e-16 -1 1.2246467991473532e-16
vn -1.2246467991473532e-16 -1 1.2246467991473532e-16
vn -1.2246467991473532e-16 -1 1.2246467991473532e-16
vn -0.10531102193174226 -1.0888681411922188e-16 -0.994439333825695
vn -0.10531102193174226 -1.0888681411922188e-16 -0.994439333825695
vn -0.10531102193174224 -1.0888681411922188e-16 -0.994439333825695
vn -0.1058366733887098 0.994383526897953 -1.217768603340434e-16
vn -0.10583667338870979 0.994383526897953 -1.217768603340434e-16
vn -0.1058366733887098 0.994383526897953 -1.217768603340434e-16
vn -0.1058366733887098 0.994383526897953 -1.217768603340434e-16
vn -0.10532024464923699 1.3468158514640643e-16 0.9944383570976258
vn -0.10683018761261875 0.01592153092040106 0.9941497954874827
vn 1.2246467991473532e-16 1 -1.2246467991473532e-16
vn -0.04269273246988535 1.2758137451691077e-16 0.9990882496527796
vn -0.04269273246988535 1.2758137451691077e-16 0.9990882496527796
vn -0.10226271517364775 -1.0929907911791603e-16 -0.9947574262529099
vn -0.10226271517364775 -1.0929907911791603e-16 -0.99475742625291
usemtl m_560b2853-9d7a-f7a7-3613-5009d71d2e44
f 82/183/47 83/184/47 77/185/47 75/186/47
f 101/187/48 104/188/48 68/189/48 57/190/48
f 167/191/49 168/192/49 110/193/49 48/194/49
f 163/195/50 164/196/50 50/197/50 95/198/50
f 98/199/51 101/200/51 57/201/51 54/202/51
f 92/203/52 95/204/52 50/205/52 56/206/52
f 69/207/53 64/208/53 62/209/53 56/210/53
f 89/211/54 92/212/54 56/213/54 62/214/54
f 65/215/55 66/216/55 59/217/55 61/218/55
f 110/219/56 113/220/56 60/221/56 48/222/56
f 113/223/57 116/224/57 64/225/57 60/226/57
f 66/227/58 65/228/58 63/229/58 49/230/58
f 171/231/59 172/232/59 66/233/59 49/234/59
f 104/235/60 107/236/60 52/237/60 68/238/60
f 166/239/61 167/240/61 48/241/61 69/242/61
f 64/243/62 69/244/62 48/245/62 60/246/62
f 142/247/63 141/248/63 140/249/63 143/250/63
f 138/251/64 137/252/64 136/253/64 139/254/64
f 70/255/65 74/256/65 76/257/65 72/258/65
f 121/259/66 122/260/66 120/261/66 123/262/66
f 71/263/67 75/264/67 77/265/67 73/266/67
f 83/267/68 86/268/68 73/269/68 77/270/68
f 79/271/69 78/272/69 76/273/69 74/274/69
f 81/275/70 80/276/70 78/277/70 79/278/70
f 83/279/71 82/280/71 80/281/71 81/282/71
f 84/283/72 79/284/72 74/285/72 70/286/72
f 85/287/73 81/288/73 79/289/73 84/290/73
f 86/291/74 83/292/74 81/293/74 85/294/74
f 88/295/75 85/296/75 84/297/75 87/298/75
f 89/299/76 86/300/76 85/301/76 88/302/76
f 90/303/77 87/304/77 61/305/77 59/306/77
f 91/307/78 88/308/78 87/309/78 90/310/78
f 92/311/79 89/312/79 88/313/79 91/314/79
f 93/315/80 90/316/80 59/317/80 51/318/80
f 94/319/81 91/320/81 90/321/81 93/322/81
f 95/323/82 92/324/82 91/325/82 94/326/82
f 160/327/83 161/328/83 93/329/83 51/330/83
f 161/331/84 162/332/84 94/333/84 93/334/84
f 162/335/85 163/336/85 95/337/85 94/338/85
f 99/339/86 96/340/86 55/341/86 58/342/86
f 100/343/87 97/344/87 96/345/87 99/346/87
f 101/347/88 98/348/88 97/349/88 100/350/88
f 102/351/89 99/352/89 58/353/89 67/354/89
f 103/355/90 100/356/90 99/357/90 102/358/90
f 104/359/91 101/360/91 100/361/91 103/362/91
f 105/363/92 102/364/92 67/365/92 53/366/92
f 106/367/93 103/368/93 102/369/93 105/370/93
f 107/371/94 104/372/94 103/373/94 106/374/94
f 170/375/95 171/376/95 49/377/95 108/378/95
f 169/379/96 170/380/96 108/381/96 109/382/96
f 168/383/97 169/384/97 109/385/97 110/386/97
f 111/387/98 108/388/98 49/389/98 63/390/98
f 112/391/99 109/392/99 108/393/99 111/394/99
f 113/395/100 110/396/100 109/397/100 112/398/100
f 114/399/101 111/400/101 63/401/101 65/402/101
f 115/403/102 112/404/102 111/405/102 114/406/102
f 116/407/103 113/408/103 112/409/103 115/410/103
f 118/411/104 115/412/104 114/413/104 117/414/104
f 119/415/105 116/416/105 115/417/105 118/418/105
f 134/419/106 133/420/106 132/421/106 135/422/106
f 130/423/107 129/424/107 128/425/107 131/426/107
f 126/427/108 125/428/108 124/429/108 127/430/108
f 75/431/109 120/432/109 122/433/109 82/434/109
f 82/435/110 122/436/110 121/437/110 119/438/110
f 119/439/111 121/440/111 123/441/111 71/442/111
f 71/443/112 123/444/112 120/445/112 75/446/112
f 118/447/113 124/448/113 125/449/113 119/450/113
f 119/451/114 125/452/114 126/453/114 82/454/114
f 82/455/115 126/456/115 127/457/115 80/458/115
f 80/459/116 127/460/116 124/461/116 118/462/116
f 117/463/117 128/464/117 129/465/117 118/466/117
f 118/467/118 129/468/118 130/469/118 80/470/118
f 80/471/119 130/472/119 131/473/119 78/474/119
f 78/475/120 131/476/120 128/477/120 117/478/120
f 72/479/121 132/480/121 133/481/121 117/482/121
f 117/483/122 133/484/122 134/485/122 78/486/122
f 78/487/123 134/488/123 135/489/123 76/490/123
f 76/491/124 135/492/124 132/493/124 72/494/124
f 73/495/125 136/496/125 137/497/125 71/498/125
f 64/499/126 138/500/126 139/501/126 62/502/126
f 72/503/127 140/504/127 141/505/127 70/506/127
f 61/507/128 142/508/128 143/509/128 65/510/128
f 139/511/129 136/512/129 86/513/129 89/514/129
f 116/515/130 119/516/130 137/517/130 138/518/130
f 117/519/131 114/520/131 143/521/131 140/522/131
f 141/523/132 142/524/132 87/525/132 84/526/132
f 58/527/133 144/528/133 146/529/133 67/530/133
f 172/531/134 173/532/134 145/533/134 66/534/134
f 66/535/135 145/536/135 147/537/135 59/538/135
f 55/539/136 148/540/136 144/541/136 58/542/136
f 59/543/137 147/544/137 149/545/137 51/546/137
f 159/547/138 160/548/138 51/549/138 149/550/138
f 144/551/139 150/552/139 152/553/139 146/554/139
f 173/555/140 156/556/140 151/557/140 145/558/140
f 148/559/141 154/560/141 150/561/141 144/562/141
f 158/563/142 159/564/142 149/565/142 155/566/142
f 145/567/143 151/568/143 153/569/143 147/570/143
f 147/571/144 153/572/144 155/573/144 149/574/144
f 157/575/145 156/576/145 152/577/145 150/578/145
f 158/579/146 157/580/146 150/581/146 154/582/146
f 159/583/147 158/584/147 154/585/147 148/586/147
f 160/587/148 159/588/148 148/589/148 55/590/148
f 161/591/149 160/592/149 55/593/149 96/594/149
f 162/595/150 161/596/150 96/597/150 97/598/150
f 163/599/151 162/600/151 97/601/151 98/602/151
f 164/603/152 163/604/152 98/605/152 54/606/152
f 165/607/153 164/608/153 54/609/153 57/610/153
f 166/611/154 165/612/154 57/613/154 68/614/154
f 167/615/155 166/616/155 68/617/155 52/618/155
f 168/619/156 167/620/156 52/621/156 107/622/156
f 169/623/157 168/624/157 107/625/157 106/626/157
f 170/627/158 169/628/158 106/629/158 105/630/158
f 171/631/159 170/632/159 105/633/159 53/634/159
f 172/635/160 171/636/160 53/637/160 67/638/160
f 173/639/161 172/640/161 67/641/161 146/642/161
f 156/643/162 173/644/162 146/645/162 152/646/162
f 156/647/163 157/648/163 153/649/163 151/650/163
f 157/651/164 158/652/164 155/653/164 153/654/164
f 165/655/165 166/656/165 69/657/165 56/658/165
f 164/659/166 165/660/166 56/661/166 50/662/166
o cuboid
v 0.5890625 1.0671875 0.190625
v 0.5890625 1.0671875 0.1375
v 0.5890625 1.0140624999999999 0.190625
v 0.5890625 1.0140624999999999 0.1375
v 0.717625625 1.0671875 0.190625
v 0.717625625 1.0671875 0.1375
v 0.717625625 1.0140624999999999 0.190625
v 0.717625625 1.0140624999999999 0.1375
v 0.740625 1.0536956249999998 0.177133125
v 0.740625 1.0536956249999998 0.150991875
v 0.740625 1.027554375 0.177133125
v 0.740625 1.027554375 0.150991875
v 0.7160925 1.0536956249999998 0.177133125
v 0.7160925 1.0536956249999998 0.150991875
v 0.7160925 1.027554375 0.177133125
v 0.7160925 1.027554375 0.150991875
vt 0.3984375 0.5234375
vt 0.3984375 0.53125
vt 0.40625 0.53125
vt 0.40625 0.5234375
vt 0.4140625 0.53125
vt 0.421875 0.53125
vt 0.421875 0.5234375
vt 0.4140625 0.5234375
vt 0.25 0.6015625
vt 0.25 0.59375
vt 0.234375 0.59375
vt 0.234375 0.6015625
vt 0.2890625 0.6015625
vt 0.3046875 0.6015625
vt 0.3046875 0.59375
vt 0.2890625 0.59375
vt 0.3125 0.6015625
vt 0.328125 0.6015625
vt 0.328125 0.59375
vt 0.3125 0.59375
vt 0.3359375 0.59375
vt 0.3359375 0.6015625
vt 0.3515625 0.6015625
vt 0.3515625 0.59375
vt 0.359375 0.516796875
vt 0.3515625 0.5184835937500001
vt 0.3515625 0.52175078125
vt 0.359375 0.5234375
vt 0.4369140625 0.5234375
vt 0.43522734375 0.515625
vt 0.43196015625 0.515625
vt 0.4302734375 0.5234375
vt 0.4765625 0.6328125
vt 0.484375 0.63112578125
vt 0.484375 0.6278585937500001
vt 0.4765625 0.626171875
vt 0.4771484375 0.5625
vt 0.47883515625 0.5703125
vt 0.48210234375 0.5703125
vt 0.4837890625 0.5625
vt 0.4765625 0.5390625
vt 0.46875 0.5390625
vt 0.46875 0.546875
vt 0.4765625 0.546875
vt 0.46875 0.53125
vt 0.4765625 0.53125
vt 0.4765625 0.5234375
vt 0.46875 0.5234375
vt 0.015625 0.5234375
vt 0.0234375 0.5234375
vt 0.0234375 0.515625
vt 0.015625 0.515625
vt 0.03125 0.5234375
vt 0.0390625 0.5234375
vt 0.0390625 0.515625
vt 0.03125 0.515625
vn -1 0 0
vn 1 0 0
vn 0 1 0
vn 0 -1 0
vn 0 0 1
vn 0 0 -1
vn 0.5059841533084336 0 0.8625427737803777
vn 0.5059841533084382 0.8625427737803751 0
vn 0.5059841533084336 0 -0.8625427737803777
vn 0.5059841533084382 -0.8625427737803751 0
vn 0 0 -1
vn 0 -1 0
vn 0 0 1
vn 0 1 0
usemtl m_560b2853-9d7a-f7a7-3613-5009d71d2e44
f 176/663/167 174/664/167 175/665/167 177/666/167
f 187/667/168 186/668/168 188/669/168 189/670/168
f 175/671/169 174/672/169 178/673/169 179/674/169
f 180/675/170 176/676/170 177/677/170 181/678/170
f 178/679/171 174/680/171 176/681/171 180/682/171
f 177/683/172 175/684/172 179/685/172 181/686/172
f 180/687/173 184/688/173 182/689/173 178/690/173
f 178/691/174 182/692/174 183/693/174 179/694/174
f 179/695/175 183/696/175 185/697/175 181/698/175
f 181/699/176 185/700/176 184/701/176 180/702/176
f 184/703/177 188/704/177 186/705/177 182/706/177
f 182/707/178 186/708/178 187/709/178 183/710/178
f 183/711/179 187/712/179 189/713/179 185/714/179
f 185/715/180 189/716/180 188/717/180 184/718/180
o cuboid
v 0.5890625 1.0671875 0.25625
v 0.5890625 1.0671875 0.203125
v 0.5890625 1.0140624999999999 0.25625
v 0.5890625 1.0140624999999999 0.203125
v 0.717625625 1.0671875 0.25625
v 0.717625625 1.0671875 0.203125
v 0.717625625 1.0140624999999999 0.25625
v 0.717625625 1.0140624999999999 0.203125
v 0.740625 1.0536956249999998 0.242758125
v 0.740625 1.0536956249999998 0.216616875
v 0.740625 1.027554375 0.242758125
v 0.740625 1.027554375 0.216616875
v 0.7160925 1.0536956249999998 0.242758125
v 0.7160925 1.0536956249999998 0.216616875
v 0.7160925 1.027554375 0.242758125
v 0.7160925 1.027554375 0.216616875
vt 0.4765625 0.9609375
vt 0.4765625 0.96875
vt 0.484375 0.96875
vt 0.484375 0.9609375
vt 0.046875 0.5234375
vt 0.0546875 0.5234375
vt 0.0546875 0.515625
vt 0.046875 0.515625
vt 0.375 0.6015625
vt 0.375 0.59375
vt 0.359375 0.59375
vt 0.359375 0.6015625
vt 0.3828125 0.6015625
vt 0.3984375 0.6015625
vt 0.3984375 0.59375
vt 0.3828125 0.59375
vt 0.015625 0.59375
vt 0.03125 0.59375
vt 0.03125 0.5859375
vt 0.015625 0.5859375
vt 0.40625 0.9765625
vt 0.40625 0.984375
vt 0.421875 0.984375
vt 0.421875 0.9765625
vt 0.484375 0.594921875
vt 0.4765625 0.5966085937500001
vt 0.4765625 0.59987578125
vt 0.484375 0.6015625
vt 0.4525390625 0.5234375
vt 0.45085234375 0.515625
vt 0.44758515625 0.515625
vt 0.4458984375 0.5234375
vt 0.4765625 0.5859375
vt 0.484375 0.58425078125
vt 0.484375 0.5809835937500001
vt 0.4765625 0.579296875
vt 0.0005859375 0.5078125
vt 0.00227265625 0.515625
vt 0.00553984375 0.515625
vt 0.0072265625 0.5078125
vt 0.484375 0.9453125
vt 0.4765625 0.9453125
vt 0.4765625 0.953125
vt 0.484375 0.953125
vt 0.0625 0.5234375
vt 0.0703125 0.5234375
vt 0.0703125 0.515625
vt 0.0625 0.515625
vt 0.4765625 0.9375
vt 0.484375 0.9375
vt 0.484375 0.9296875
vt 0.4765625 0.9296875
vt 0.4765625 0.921875
vt 0.484375 0.921875
vt 0.484375 0.9140625
vt 0.4765625 0.9140625
vn -1 0 0
vn 1 0 0
vn 0 1 0
vn 0 -1 0
vn 0 0 1
vn 0 0 -1
vn 0.5059841533084336 0 0.8625427737803777
vn 0.5059841533084382 0.8625427737803751 0
vn 0.5059841533084336 0 -0.8625427737803777
vn 0.5059841533084382 -0.8625427737803751 0
vn 0 0 -1
vn 0 -1 0
vn 0 0 1
vn 0 1 0
usemtl m_560b2853-9d7a-f7a7-3613-5009d71d2e44
f 192/719/181 190/720/181 191/721/181 193/722/181
f 203/723/182 202/724/182 204/725/182 205/726/182
f 191/727/183 190/728/183 194/729/183 195/730/183
f 196/731/184 192/732/184 193/733/184 197/734/184
f 194/735/185 190/736/185 192/737/185 196/738/185
f 193/739/186 191/740/186 195/741/186 197/742/186
f 196/743/187 200/744/187 198/745/187 194/746/187
f 194/747/188 198/748/188 199/749/188 195/750/188
f 195/751/189 199/752/189 201/753/189 197/754/189
f 197/755/190 201/756/190 200/757/190 196/758/190
f 200/759/191 204/760/191 202/761/191 198/762/191
f 198/763/192 202/764/192 203/765/192 199/766/192
f 199/767/193 203/768/193 205/769/193 201/770/193
f 201/771/194 205/772/194 204/773/194 200/774/194
o Arm
v 0.3343749999999997 1.0187499999999998 1.4274789252561334e-16
v 0.15937499999999974 1.0187499999999998 1.4274789252561334e-16
v 0.3343749999999997 1.0518931249999999 -0.056249999999999856
v 0.1593749999999997 1.0518931249999999 -0.056249999999999856
v 0.3343749999999997 1.075 -0.03736187499999985
v 0.1593749999999997 1.075 -0.03736187499999985
v 0.3343749999999997 1.075 0.037361875000000155
v 0.1593749999999997 1.075 0.037361875000000155
v 0.3343749999999997 1.0518931249999999 0.05625000000000015
v 0.1593749999999997 1.0518931249999999 0.05625000000000015
v 0.3343749999999997 0.985606875 0.05625000000000014
v 0.15937499999999974 0.985606875 0.05625000000000014
v 0.33437499999999976 0.9624999999999999 0.03736187500000014
v 0.15937499999999974 0.9624999999999999 0.03736187500000014
v 0.33437499999999976 0.9624999999999999 -0.037361874999999864
v 0.15937499999999974 0.9624999999999999 -0.037361874999999864
v 0.3343749999999997 0.985606875 -0.05624999999999986
v 0.15937499999999974 0.985606875 -0.05624999999999986
v 0.31770812499999973 1.0518931249999999 -0.056249999999999856
v 0.31770812499999973 0.985606875 -0.05624999999999986
v 0.29466937499999973 1.0518931249999999 -0.056249999999999856
v 0.29466937499999973 0.985606875 -0.05624999999999986
v 0.3177081249999998 0.9624999999999999 -0.037361874999999864
v 0.2946693749999998 0.9624999999999999 -0.037361874999999864
v 0.3177081249999998 0.9624999999999999 0.03736187500000014
v 0.2946693749999998 0.9624999999999999 0.03736187500000014
v 0.31770812499999973 0.985606875 0.05625000000000014
v 0.29466937499999973 0.985606875 0.05625000000000014
v 0.31770812499999973 1.0518931249999999 0.05625000000000015
v 0.29466937499999973 1.0518931249999999 0.05625000000000015
v 0.31770812499999973 1.075 0.037361875000000155
v 0.29466937499999973 1.075 0.037361875000000155
v 0.31770812499999973 1.075 -0.03736187499999985
v 0.29466937499999973 1.075 -0.03736187499999985
vt 0.19945546875 0.6546875
vt 0.20234375 0.6523265625
vt 0.1953125 0.64765625
vt 0.1484375 0.5455882812499999
vt 0.14470625 0.5455882812499999
vt 0.14470625 0.5625
vt 0.1484375 0.5625
vt 0.28828125 0.6445484375
vt 0.28539296875 0.6421875
vt 0.28125 0.64921875
vt 0.20234375 0.6523265625
vt 0.20234375 0.6429859375
vt 0.1953125 0.64765625
vt 0.3562328125 0.89715078125
vt 0.3468921875 0.89715078125
vt 0.3468921875 0.9140625
vt 0.3562328125 0.9140625
vt 0.28828125 0.6538890625
vt 0.28828125 0.6445484375
vt 0.28125 0.64921875
vt 0.20234375 0.6429859375
vt 0.19945546875 0.640625
vt 0.1953125 0.64765625
vt 0.12873125 0.5455882812499999
vt 0.125 0.5455882812499999
vt 0.125 0.5625
vt 0.12873125 0.5625
vt 0.28539296875 0.65625
vt 0.28828125 0.6538890625
vt 0.28125 0.64921875
vt 0.19945546875 0.640625
vt 0.19116953125 0.640625
vt 0.1953125 0.64765625
vt 0.22289296875 0.6315257812499999
vt 0.21460703125 0.6315257812499999
vt 0.21460703125 0.6484375
vt 0.22289296875 0.6484375
vt 0.27710703125 0.65625
vt 0.28539296875 0.65625
vt 0.28125 0.64921875
vt 0.19116953125 0.640625
vt 0.18828125 0.6429859375
vt 0.1953125 0.64765625
vt 0.1796875 0.5455882812499999
vt 0.17595703125 0.5455882812499999
vt 0.17595703125 0.5625
vt 0.1796875 0.5625
vt 0.27421875 0.6538890625
vt 0.27710703125 0.65625
vt 0.28125 0.64921875
vt 0.18828125 0.6429859375
vt 0.18828125 0.6523265625
vt 0.1953125 0.64765625
vt 0.1296703125 0.6393382812499999
vt 0.1203296875 0.6393382812499999
vt 0.1203296875 0.65625
vt 0.1296703125 0.65625
vt 0.27421875 0.6445484375
vt 0.27421875 0.6538890625
vt 0.28125 0.64921875
vt 0.18828125 0.6523265625
vt 0.19116953125 0.6546875
vt 0.1953125 0.64765625
vt 0.15998046875 0.5455882812499999
vt 0.15625 0.5455882812499999
vt 0.15625 0.5625
vt 0.15998046875 0.5625
vt 0.27710703125 0.6421875
vt 0.27421875 0.6445484375
vt 0.28125 0.64921875
vt 0.19116953125 0.6546875
vt 0.19945546875 0.6546875
vt 0.1953125 0.64765625
vt 0.26195546875 0.6315257812499999
vt 0.25366953125 0.6315257812499999
vt 0.25366953125 0.6484375
vt 0.26195546875 0.6484375
vt 0.28539296875 0.6421875
vt 0.27710703125 0.6421875
vt 0.28125 0.64921875
vt 0.25366953125 0.62864609375
vt 0.26195546875 0.62864609375
vt 0.26195546875 0.6265625
vt 0.25366953125 0.6265625
vt 0.25366953125 0.6315257812499999
vt 0.26195546875 0.6315257812499999
vt 0.26195546875 0.62864609375
vt 0.25366953125 0.62864609375
vt 0.15625 0.54270859375
vt 0.15998046875 0.54270859375
vt 0.15998046875 0.540625
vt 0.15625 0.540625
vt 0.15625 0.5455882812499999
vt 0.15998046875 0.5455882812499999
vt 0.15998046875 0.54270859375
vt 0.15625 0.54270859375
vt 0.1203296875 0.63645859375
vt 0.1296703125 0.63645859375
vt 0.1296703125 0.634375
vt 0.1203296875 0.634375
vt 0.1203296875 0.6393382812499999
vt 0.1296703125 0.6393382812499999
vt 0.1296703125 0.63645859375
vt 0.1203296875 0.63645859375
vt 0.17595703125 0.54270859375
vt 0.1796875 0.54270859375
vt 0.1796875 0.540625
vt 0.17595703125 0.540625
vt 0.17595703125 0.5455882812499999
vt 0.1796875 0.5455882812499999
vt 0.1796875 0.54270859375
vt 0.17595703125 0.54270859375
vt 0.21460703125 0.62864609375
vt 0.22289296875 0.62864609375
vt 0.22289296875 0.6265625
vt 0.21460703125 0.6265625
vt 0.21460703125 0.6315257812499999
vt 0.22289296875 0.6315257812499999
vt 0.22289296875 0.62864609375
vt 0.21460703125 0.62864609375
vt 0.125 0.54270859375
vt 0.12873125 0.54270859375
vt 0.12873125 0.540625
vt 0.125 0.540625
vt 0.125 0.5455882812499999
vt 0.12873125 0.5455882812499999
vt 0.12873125 0.54270859375
vt 0.125 0.54270859375
vt 0.3468921875 0.89427109375
vt 0.3562328125 0.89427109375
vt 0.3562328125 0.8921875
vt 0.3468921875 0.8921875
vt 0.3468921875 0.89715078125
vt 0.3562328125 0.89715078125
vt 0.3562328125 0.89427109375
vt 0.3468921875 0.89427109375
vt 0.14470625 0.54270859375
vt 0.1484375 0.54270859375
vt 0.1484375 0.540625
vt 0.14470625 0.540625
vt 0.14470625 0.5455882812499999
vt 0.1484375 0.5455882812499999
vt 0.1484375 0.54270859375
vt 0.14470625 0.54270859375
vn 1 2.220446049250313e-16 2.719262146893782e-32
vn -1.4052902862729186e-16 0.6328864809606095 -0.7742446010256038
vn -1 -2.220446049250313e-16 -2.719262146893782e-32
vn 1 2.220446049250313e-16 2.719262146893782e-32
vn -2.220446049250313e-16 1 1.2246467991473532e-16
vn -1 -2.220446049250313e-16 -2.719262146893782e-32
vn 1 2.220446049250313e-16 2.719262146893782e-32
vn -1.4052902862729186e-16 0.6328864809606093 0.774244601025604
vn -1 -2.220446049250313e-16 -2.719262146893782e-32
vn 1 2.220446049250313e-16 2.719262146893782e-32
vn 2.5407181807812022e-33 -1.2246467991473532e-16 1
vn -1 -2.220446049250313e-16 -2.719262146893782e-32
vn 1 2.220446049250313e-16 2.719262146893782e-32
vn 1.4052902862729186e-16 -0.6328864809606095 0.7742446010256038
vn -1 -2.220446049250313e-16 -2.719262146893782e-32
vn 1 2.220446049250313e-16 2.719262146893782e-32
vn 2.220446049250313e-16 -1 -1.2246467991473532e-16
vn -1 -2.220446049250313e-16 -2.719262146893782e-32
vn 1 2.220446049250313e-16 2.719262146893782e-32
vn 1.4052902862729186e-16 -0.6328864809606093 -0.774244601025604
vn -1 -2.220446049250313e-16 -2.719262146893782e-32
vn 1 2.220446049250313e-16 2.719262146893782e-32
vn -2.5407181807812022e-33 1.2246467991473532e-16 -1
vn -1 -2.220446049250313e-16 -2.719262146893782e-32
vn -2.5407181807812022e-33 1.2246467991473532e-16 -1
vn -2.5407181807812022e-33 1.2246467991473532e-16 -1
vn 1.4052902862729184e-16 -0.6328864809606092 -0.7742446010256039
vn 1.4052902862729186e-16 -0.6328864809606093 -0.7742446010256039
vn 2.220446049250313e-16 -1 -1.2246467991473532e-16
vn 2.220446049250313e-16 -1 -1.2246467991473532e-16
vn 1.4052902862729184e-16 -0.6328864809606094 0.7742446010256037
vn 1.4052902862729186e-16 -0.6328864809606095 0.7742446010256037
vn 2.5407181807812022e-33 -1.2246467991473532e-16 1
vn 2.5407181807812022e-33 -1.2246467991473532e-16 1
vn -1.4052902862729184e-16 0.6328864809606092 0.7742446010256039
vn -1.4052902862729186e-16 0.6328864809606093 0.7742446010256039
vn -2.220446049250313e-16 1 1.2246467991473532e-16
vn -2.220446049250313e-16 1 1.2246467991473532e-16
vn -1.4052902862729184e-16 0.6328864809606094 -0.7742446010256037
vn -1.4052902862729186e-16 0.6328864809606095 -0.7742446010256037
usemtl m_560b2853-9d7a-f7a7-3613-5009d71d2e44
f 208/775/195 210/776/195 206/777/195
f 239/778/196 226/779/196 209/780/196 211/781/196
f 211/782/197 209/783/197 207/784/197
f 210/785/198 212/786/198 206/787/198
f 237/788/199 239/789/199 211/790/199 213/791/199
f 213/792/200 211/793/200 207/794/200
f 212/795/201 214/796/201 206/797/201
f 235/798/202 237/799/202 213/800/202 215/801/202
f 215/802/203 213/803/203 207/804/203
f 214/805/204 216/806/204 206/807/204
f 233/808/205 235/809/205 215/810/205 217/811/205
f 217/812/206 215/813/206 207/814/206
f 216/815/207 218/816/207 206/817/207
f 231/818/208 233/819/208 217/820/208 219/821/208
f 219/822/209 217/823/209 207/824/209
f 218/825/210 220/826/210 206/827/210
f 229/828/211 231/829/211 219/830/211 221/831/211
f 221/832/212 219/833/212 207/834/212
f 220/835/213 222/836/213 206/837/213
f 227/838/214 229/839/214 221/840/214 223/841/214
f 223/842/215 221/843/215 207/844/215
f 222/845/216 208/846/216 206/847/216
f 226/848/217 227/849/217 223/850/217 209/851/217
f 209/852/218 223/853/218 207/854/218
f 225/855/219 224/856/219 208/857/219 222/858/219
f 227/859/220 226/860/220 224/861/220 225/862/220
f 228/863/221 225/864/221 222/865/221 220/866/221
f 229/867/222 227/868/222 225/869/222 228/870/222
f 230/871/223 228/872/223 220/873/223 218/874/223
f 231/875/224 229/876/224 228/877/224 230/878/224
f 232/879/225 230/880/225 218/881/225 216/882/225
f 233/883/226 231/884/226 230/885/226 232/886/226
f 234/887/227 232/888/227 216/889/227 214/890/227
f 235/891/228 233/892/228 232/893/228 234/894/228
f 236/895/229 234/896/229 214/897/229 212/898/229
f 237/899/230 235/900/230 234/901/230 236/902/230
f 238/903/231 236/904/231 212/905/231 210/906/231
f 239/907/232 237/908/232 236/909/232 238/910/232
f 224/911/233 238/912/233 210/913/233 208/914/233
f 226/915/234 239/916/234 238/917/234 224/918/234
o cylinder
v 0.16875 1.0156249999999998 0.06249999999999999
v 0.16875 1.015625 -0.0625
v 0.2375 1.0340462499999998 0.0625
v 0.2375 1.0340462499999998 -0.0625
v 0.21907875 1.0659537499999998 0.0625
v 0.21907875 1.0659537499999998 -0.06249999999999999
v 0.18717124999999998 1.0843749999999999 0.06250000000000001
v 0.18717124999999998 1.0843749999999999 -0.06249999999999999
v 0.15032874999999998 1.0843749999999999 0.06250000000000001
v 0.15032874999999998 1.0843749999999999 -0.06249999999999999
v 0.11842125 1.0659537499999998 0.0625
v 0.11842125 1.0659537499999998 -0.06249999999999999
v 0.1 1.0340462499999998 0.0625
v 0.1 1.0340462499999998 -0.0625
v 0.1 0.9972037499999998 0.06249999999999999
v 0.1 0.9972037499999999 -0.06250000000000001
v 0.11842125000000003 0.9652962499999999 0.062499999999999986
v 0.11842125000000003 0.9652962499999999 -0.06250000000000001
v 0.15032875 0.9468749999999999 0.06249999999999998
v 0.15032875 0.9468749999999999 -0.06250000000000003
v 0.18717125 0.9468749999999999 0.06249999999999998
v 0.18717125 0.9468749999999999 -0.06250000000000003
v 0.21907875000000002 0.9652962499999999 0.062499999999999986
v 0.21907875000000002 0.96529625 -0.06250000000000001
v 0.23750000000000002 0.9972037499999999 0.06249999999999999
v 0.23750000000000002 0.9972037499999999 -0.06250000000000001
vt 0.28745859375 0.68125
vt 0.29144765625 0.67894765625
vt 0.28515625 0.67265625
vt 0.28125 0.609375
vt 0.28125 0.59375
vt 0.2734375 0.59375
vt 0.2734375 0.609375
vt 0.15082265625 0.67261484375
vt 0.14683359375 0.6703125
vt 0.14453125 0.67890625
vt 0.29144765625 0.67894765625
vt 0.29375 0.67495859375
vt 0.28515625 0.67265625
vt 0.1171875 0.609375
vt 0.1171875 0.59375
vt 0.109375 0.59375
vt 0.109375 0.609375
vt 0.153125 0.67660390625
vt 0.15082265625 0.67261484375
vt 0.14453125 0.67890625
vt 0.29375 0.67495859375
vt 0.29375 0.67035390625
vt 0.28515625 0.67265625
vt 0.125 0.7890625
vt 0.125 0.7734375
vt 0.1171875 0.7734375
vt 0.1171875 0.7890625
vt 0.153125 0.68120859375
vt 0.153125 0.67660390625
vt 0.14453125 0.67890625
vt 0.29375 0.67035390625
vt 0.29144765625 0.66636484375
vt 0.28515625 0.67265625
vt 0.1328125 0.609375
vt 0.1328125 0.59375
vt 0.125 0.59375
vt 0.125 0.609375
vt 0.15082265625 0.68519765625
vt 0.153125 0.68120859375
vt 0.14453125 0.67890625
vt 0.29144765625 0.66636484375
vt 0.28745859375 0.6640625
vt 0.28515625 0.67265625
vt 0.171875 0.6015625
vt 0.171875 0.5859375
vt 0.1640625 0.5859375
vt 0.1640625 0.6015625
vt 0.14683359375 0.6875
vt 0.15082265625 0.68519765625
vt 0.14453125 0.67890625
vt 0.28745859375 0.6640625
vt 0.28285390625 0.6640625
vt 0.28515625 0.67265625
vt 0.046875 0.609375
vt 0.046875 0.59375
vt 0.0390625 0.59375
vt 0.0390625 0.609375
vt 0.14222890625 0.6875
vt 0.14683359375 0.6875
vt 0.14453125 0.67890625
vt 0.28285390625 0.6640625
vt 0.27886484375 0.66636484375
vt 0.28515625 0.67265625
vt 0.1875 0.6015625
vt 0.1875 0.5859375
vt 0.1796875 0.5859375
vt 0.1796875 0.6015625
vt 0.13823984375 0.68519765625
vt 0.14222890625 0.6875
vt 0.14453125 0.67890625
vt 0.27886484375 0.66636484375
vt 0.2765625 0.67035390625
vt 0.28515625 0.67265625
vt 0.0625 0.609375
vt 0.0625 0.59375
vt 0.0546875 0.59375
vt 0.0546875 0.609375
vt 0.1359375 0.68120859375
vt 0.13823984375 0.68519765625
vt 0.14453125 0.67890625
vt 0.2765625 0.67035390625
vt 0.2765625 0.67495859375
vt 0.28515625 0.67265625
vt 0.2734375 0.8046875
vt 0.2734375 0.7890625
vt 0.265625 0.7890625
vt 0.265625 0.8046875
vt 0.1359375 0.67660390625
vt 0.1359375 0.68120859375
vt 0.14453125 0.67890625
vt 0.2765625 0.67495859375
vt 0.27886484375 0.67894765625
vt 0.28515625 0.67265625
vt 0.078125 0.609375
vt 0.078125 0.59375
vt 0.0703125 0.59375
vt 0.0703125 0.609375
vt 0.13823984375 0.67261484375
vt 0.1359375 0.67660390625
vt 0.14453125 0.67890625
vt 0.27886484375 0.67894765625
vt 0.28285390625 0.68125
vt 0.28515625 0.67265625
vt 0.3984375 0.78125
vt 0.3984375 0.765625
vt 0.390625 0.765625
vt 0.390625 0.78125
vt 0.14222890625 0.6703125
vt 0.13823984375 0.67261484375
vt 0.14453125 0.67890625
vt 0.28285390625 0.68125
vt 0.28745859375 0.68125
vt 0.28515625 0.67265625
vt 0.3984375 0.96875
vt 0.3984375 0.953125
vt 0.390625 0.953125
vt 0.390625 0.96875
vt 0.14683359375 0.6703125
vt 0.14222890625 0.6703125
vt 0.14453125 0.67890625
vn 4.930380657631324e-32 -2.220446049250313e-16 1
vn 0.866031911409066 0.49998872829410845 1.1101979964103413e-16
vn -4.930380657631324e-32 2.220446049250313e-16 -1
vn 4.930380657631324e-32 -2.220446049250313e-16 1
vn 0.4999887282941079 0.8660319114090662 1.9229771362129582e-16
vn -4.930380657631324e-32 2.220446049250313e-16 -1
vn 4.930380657631324e-32 -2.220446049250313e-16 1
vn -2.220446049250313e-16 1 2.220446049250313e-16
vn -4.930380657631324e-32 2.220446049250313e-16 -1
vn 4.930380657631324e-32 -2.220446049250313e-16 1
vn -0.49998872829410845 0.866031911409066 1.9229771362129577e-16
vn -4.930380657631324e-32 2.220446049250313e-16 -1
vn 4.930380657631324e-32 -2.220446049250313e-16 1
vn -0.8660319114090662 0.4999887282941081 1.1101979964103406e-16
vn -4.930380657631324e-32 2.220446049250313e-16 -1
vn 4.930380657631324e-32 -2.220446049250313e-16 1
vn -1 -2.220446049250313e-16 -4.930380657631324e-32
vn -4.930380657631324e-32 2.220446049250313e-16 -1
vn 4.930380657631324e-32 -2.220446049250313e-16 1
vn -0.866031911409066 -0.49998872829410845 -1.1101979964103413e-16
vn -4.930380657631324e-32 2.220446049250313e-16 -1
vn 4.930380657631324e-32 -2.220446049250313e-16 1
vn -0.4999887282941082 -0.8660319114090662 -1.9229771362129582e-16
vn -4.930380657631324e-32 2.220446049250313e-16 -1
vn 4.930380657631324e-32 -2.220446049250313e-16 1
vn 2.220446049250313e-16 -1 -2.220446049250313e-16
vn -4.930380657631324e-32 2.220446049250313e-16 -1
vn 4.930380657631324e-32 -2.220446049250313e-16 1
vn 0.49998872829410834 -0.866031911409066 -1.9229771362129577e-16
vn -4.930380657631324e-32 2.220446049250313e-16 -1
vn 4.930380657631324e-32 -2.220446049250313e-16 1
vn 0.8660319114090662 -0.4999887282941081 -1.1101979964103406e-16
vn -4.930380657631324e-32 2.220446049250313e-16 -1
vn 4.930380657631324e-32 -2.220446049250313e-16 1
vn 1 2.220446049250313e-16 4.930380657631324e-32
vn -4.930380657631324e-32 2.220446049250313e-16 -1
usemtl m_560b2853-9d7a-f7a7-3613-5009d71d2e44
f 242/919/235 244/920/235 240/921/235
f 245/922/236 244/923/236 242/924/236 243/925/236
f 245/926/237 243/927/237 241/928/237
f 244/929/238 246/930/238 240/931/238
f 247/932/239 246/933/239 244/934/239 245/935/239
f 247/936/240 245/937/240 241/938/240
f 246/939/241 248/940/241 240/941/241
f 249/942/242 248/943/242 246/944/242 247/945/242
f 249/946/243 247/947/243 241/948/243
f 248/949/244 250/950/244 240/951/244
f 251/952/245 250/953/245 248/954/245 249/955/245
f 251/956/246 249/957/246 241/958/246
f 250/959/247 252/960/247 240/961/247
f 253/962/248 252/963/248 250/964/248 251/965/248
f 253/966/249 251/967/249 241/968/249
f 252/969/250 254/970/250 240/971/250
f 255/972/251 254/973/251 252/974/251 253/975/251
f 255/976/252 253/977/252 241/978/252
f 254/979/253 256/980/253 240/981/253
f 257/982/254 256/983/254 254/984/254 255/985/254
f 257/986/255 255/987/255 241/988/255
f 256/989/256 258/990/256 240/991/256
f 259/992/257 258/993/257 256/994/257 257/995/257
f 259/996/258 257/997/258 241/998/258
f 258/999/259 260/1000/259 240/1001/259
f 261/1002/260 260/1003/260 258/1004/260 259/1005/260
f 261/1006/261 259/1007/261 241/1008/261
f 260/1009/262 262/1010/262 240/1011/262
f 263/1012/263 262/1013/263 260/1014/263 261/1015/263
f 263/1016/264 261/1017/264 241/1018/264
f 262/1019/265 264/1020/265 240/1021/265
f 265/1022/266 264/1023/266 262/1024/266 263/1025/266
f 265/1026/267 263/1027/267 241/1028/267
f 264/1029/268 242/1030/268 240/1031/268
f 243/1032/269 242/1033/269 264/1034/269 265/1035/269
f 243/1036/270 265/1037/270 241/1038/270