# Made in Blockbench 5.1.5
mtllib Charge Body.mtl

o Toe
v -0.21250000000000002 0.034375000000000044 -0.22500000000000003
v -0.21250000000000005 0.09687500000000004 0.012499999999999956
v -0.21250000000000002 0.0031250000000000444 -0.22500000000000003
v -0.21250000000000002 0.0031250000000000444 0.012499999999999968
v -0.06250000000000004 0.034375000000000044 -0.22500000000000003
v -0.06250000000000004 0.09687500000000004 0.012499999999999956
v -0.06250000000000003 0.0031250000000000444 -0.22500000000000003
v -0.06250000000000003 0.0031250000000000444 0.012499999999999968
v -0.21250000000000005 0.09687500000000004 -0.08125000000000004
v -0.21250000000000002 0.0031250000000000444 -0.08125000000000003
v -0.06250000000000003 0.0031250000000000444 -0.08125000000000003
v -0.06250000000000004 0.09687500000000004 -0.08125000000000004
vt 0.30546875 0.69921875
vt 0.3234375 0.69921875
vt 0.3234375 0.7109375
vt 0.30546875 0.703125
vt 0.03046875 0.6796875
vt 0.0125 0.6875
vt 0.0125 0.67578125
vt 0.03046875 0.67578125
vt 0.265625 0.6875
vt 0.265625 0.7109375
vt 0.25 0.7109375
vt 0.25 0.6875
vt 0.00234375 0.75625
vt 0.00234375 0.73828125
vt 0.02109375 0.73828125
vt 0.02109375 0.75625
vt 0.03125 0.6015625
vt 0.03125 0.609375
vt 0.015625 0.609375
vt 0.015625 0.6015625
vt 0.203125 0.6796875
vt 0.1875 0.6796875
vt 0.1875 0.6640625
vt 0.203125 0.6640625
vt 0.33515625 0.7109375
vt 0.3234375 0.7109375
vt 0.3234375 0.69921875
vt 0.33515625 0.69921875
vt 0.02109375 0.7265625
vt 0.02109375 0.73828125
vt 0.00234375 0.73828125
vt 0.00234375 0.7265625
vt 0.00078125 0.67578125
vt 0.0125 0.67578125
vt 0.0125 0.6875
vt 0.00078125 0.6875
vt 0.3203125 0.8046875
vt 0.3203125 0.7890625
vt 0.3359375 0.7890625
vt 0.3359375 0.8046875
vn -1 -1.2246467991473532e-16 1.4997597826618576e-32
vn 1 1.2246467991473532e-16 -1.4997597826618576e-32
vn -1.1230869089844074e-16 0.917070056253235 -0.39872611141445014
vn 1.2246467991473532e-16 -1 1.2246467991473532e-16
vn 0 -1.2246467991473532e-16 -1
vn 0 1.2246467991473532e-16 1
vn -1 -1.2246467991473532e-16 1.4997597826618576e-32
vn 1.2246467991473532e-16 -1 1.2246467991473532e-16
vn 1 1.2246467991473532e-16 -1.4997597826618576e-32
vn -1.2246467991473532e-16 1 -1.2246467991473532e-16
usemtl m_560b2853-9d7a-f7a7-3613-5009d71d2e44
f 3/1/1 10/2/1 9/3/1 1/4/1
f 5/5/2 12/6/2 11/7/2 7/8/2
f 1/9/3 9/10/3 12/11/3 5/12/3
f 7/13/4 11/14/4 10/15/4 3/16/4
f 3/17/5 1/18/5 5/19/5 7/20/5
f 6/21/6 2/22/6 4/23/6 8/24/6
f 2/25/7 9/26/7 10/27/7 4/28/7
f 4/29/8 10/30/8 11/31/8 8/32/8
f 8/33/9 11/34/9 12/35/9 6/36/9
f 6/37/10 12/38/10 9/39/10 2/40/10
o Shin
v -0.05000000000000008 0.37187500000000007 0.07835374999999992
v -0.2250000000000001 0.37187500000000007 -0.10000000000000009
v -0.2250000000000001 0.37187500000000007 0.10624999999999991
v -0.2750000000000001 0.10416687499999999 -0.12500000000000006
v -0.2750000000000001 0.10416687499999999 0.18124999999999994
v -0.05000000000000008 0.37187500000000007 -0.10000000000000009
v -0.05000000000000008 0.37187500000000007 0.10624999999999991
v -4.6051847856411915e-17 0.10416687500000005 -0.12500000000000006
v -4.6051847856411915e-17 0.10416687500000005 0.18124999999999994
v -0.22840250000000006 0.10416687499999999 -0.12500000000000006
v -0.22152750000000004 0.10416687500000005 0.18124999999999994
v -0.04659750000000005 0.10416687500000005 -0.12500000000000006
v -0.05347250000000005 0.10416687500000005 0.18124999999999994
v -0.19097250000000007 0.37187500000000007 0.10624999999999991
v -0.08402750000000009 0.37187500000000007 0.10624999999999991
v -0.19097250000000007 0.37187500000000007 -0.10000000000000009
v -0.08402750000000009 0.37187500000000007 -0.10000000000000009
v -0.2250000000000001 0.37187500000000007 0.07835374999999992
v -0.2750000000000001 0.10416687499999999 0.08281812499999996
v -0.2250000000000001 0.37187500000000007 0.01834374999999992
v -0.2750000000000001 0.10416687499999999 0.017473749999999955
v -0.22840250000000006 0.10416687499999999 0.017473749999999955
v -0.04659750000000005 0.10416687500000005 0.017473749999999955
v -4.6051847856411915e-17 0.10416687500000005 0.08281812499999996
v -4.6051847856411915e-17 0.10416687500000005 0.017473749999999955
v -0.05000000000000008 0.37187500000000007 0.01834374999999992
v -0.08402750000000009 0.37187500000000007 0.07835374999999992
v -0.08402750000000009 0.37187500000000007 0.01834374999999992
v -0.19097250000000007 0.37187500000000007 0.07835374999999992
v -0.19097250000000007 0.37187500000000007 0.01834374999999992
v -0.22840250000000004 0.003124999999999989 -0.12500000000000003
v -0.2750000000000001 0.003124999999999989 0.017473749999999965
v -0.22840250000000004 0.003124999999999989 0.017473749999999965
v -0.2750000000000001 0.003124999999999989 -0.12500000000000003
v -0.2750000000000001 0.003124999999999989 0.08281812499999998
v -0.21388875000000002 0.0031250000000000444 0.07835374999999997
v -0.2750000000000001 0.07187499999999997 0.18124999999999994
v -0.22152750000000004 0.07187500000000002 0.18124999999999994
v -0.061111250000000034 0.0031250000000000444 0.07835374999999997
v -0.05347250000000004 0.07187500000000002 0.18124999999999994
v -0.046597500000000035 0.0031250000000000444 0.017473749999999965
v -3.367778697655222e-17 0.0031250000000000444 0.017473749999999965
v -3.367778697655222e-17 0.0031250000000000444 0.08281812499999998
v -4.209723372069027e-17 0.07187500000000002 0.18124999999999994
v -3.367778697655222e-17 0.0031250000000000444 -0.12500000000000003
v -0.046597500000000035 0.0031250000000000444 -0.12500000000000003
v -0.24103125000000003 0.05919062499999994 0.15207187499999997
v -0.24103125000000003 0.01580937499999996 0.09503187499999996
v -0.21388875000000002 0.015809375000000014 0.09503187499999996
v -0.21388875000000002 0.059190625 0.15207187499999997
v -0.061111250000000034 0.015809375000000014 0.09503187499999996
v -0.06111125000000004 0.059190625 0.15207187499999997
v -0.033968750000000034 0.015809375000000014 0.09503187499999996
v -0.03396875000000004 0.059190625 0.15207187499999997
v -0.22853125000000005 0.09643812499999999 0.10173687499999996
v -0.22853125000000005 0.07805687499999997 0.06969687499999996
v -0.20466625000000005 0.07805687500000003 0.06969687499999996
v -0.20466625000000005 0.09643812500000004 0.10173687499999996
v -0.07033375000000004 0.07805687500000003 0.06969687499999996
v -0.07033375000000004 0.09643812500000004 0.10173687499999996
v -0.046468750000000045 0.07805687500000003 0.06969687499999996
v -0.04646875000000005 0.09643812500000004 0.10173687499999996
vt 0.047265625 0.8565828125
vt 0.065075 0.8565828125
vt 0.06518359375 0.890625
vt 0.050390625 0.890625
vt 0.035546875 0.8984375
vt 0.02075390625 0.8984375
vt 0.0208625 0.8643953125
vt 0.038671875 0.8643953125
vt 0.239409375 0.79453125
vt 0.239409375 0.80932421875
vt 0.23515625 0.80932421875
vt 0.23515625 0.79453125
vt 0.18984375 0.8150398437499999
vt 0.18984375 0.79723046875
vt 0.19566875 0.79723046875
vt 0.19566875 0.8150398437499999
vt 0.09609375 0.8570156250000001
vt 0.10191875 0.8570156250000001
vt 0.106596875 0.890625
vt 0.10234375 0.890625
vt 0.17109375 0.8515625
vt 0.166840625 0.8515625
vt 0.170659375 0.8168109375
vt 0.17734375 0.8168109375
vt 0.21839375 0.8150398437499999
vt 0.21839375 0.79723046875
vt 0.22421875 0.79723046875
vt 0.22421875 0.8150398437499999
vt 0.3046875 0.828125
vt 0.3046875 0.8125
vt 0.328125 0.8125
vt 0.328125 0.828125
vt 0.14296875 0.8168109375
vt 0.149653125 0.8168109375
vt 0.153471875 0.8515625
vt 0.14921875 0.8515625
vt 0.149653125 0.8168109375
vt 0.170659375 0.8168109375
vt 0.166840625 0.8515625
vt 0.153471875 0.8515625
vt 0.25703125 0.79453125
vt 0.25703125 0.80932421875
vt 0.252778125 0.80932421875
vt 0.252778125 0.79453125
vt 0.252778125 0.79453125
vt 0.252778125 0.80932421875
vt 0.239409375 0.80932421875
vt 0.239409375 0.79453125
vt 0.12421875 0.890625
vt 0.119965625 0.890625
vt 0.12464375 0.8570156250000001
vt 0.13046875 0.8570156250000001
vt 0.119965625 0.890625
vt 0.106596875 0.890625
vt 0.10191875 0.8570156250000001
vt 0.12464375 0.8570156250000001
vt 0.076171875 0.890625
vt 0.07268515625 0.890625
vt 0.07324296875 0.8565828125
vt 0.085546875 0.8565828125
vt 0.07268515625 0.890625
vt 0.06518359375 0.890625
vt 0.065075 0.8565828125
vt 0.07324296875 0.8565828125
vt 0.41440234375 0.8171171875000001
vt 0.41440234375 0.8125
vt 0.41738515625 0.8125
vt 0.41738515625 0.8171171875000001
vt 0.22421875 0.7890625
vt 0.22421875 0.79723046875
vt 0.21839375 0.79723046875
vt 0.2165796875 0.7896203125
vt 0.41738515625 0.8171171875000001
vt 0.41738515625 0.8125
vt 0.43417734375 0.8125
vt 0.43417734375 0.8171171875000001
vt 0.2165796875 0.7896203125
vt 0.21839375 0.79723046875
vt 0.19566875 0.79723046875
vt 0.1974828125 0.7896203125
vt 0.43417734375 0.8171171875000001
vt 0.43417734375 0.8125
vt 0.43716015625 0.8125
vt 0.43716015625 0.8171171875000001
vt 0.1974828125 0.7896203125
vt 0.19566875 0.79723046875
vt 0.18984375 0.79723046875
vt 0.18984375 0.7890625
vt 0.000390625 0.8643953125
vt 0.01269453125 0.8643953125
vt 0.01325234375 0.8984375
vt 0.009765625 0.8984375
vt 0.01269453125 0.8643953125
vt 0.0208625 0.8643953125
vt 0.02075390625 0.8984375
vt 0.01325234375 0.8984375
vt 0.23515625 0.8203125
vt 0.23515625 0.8168257812499999
vt 0.239409375 0.8168257812499999
vt 0.239409375 0.8203125
vt 0.23515625 0.8168257812499999
vt 0.23515625 0.80932421875
vt 0.239409375 0.80932421875
vt 0.239409375 0.8168257812499999
vt 0.239409375 0.8203125
vt 0.239409375 0.8168257812499999
vt 0.252778125 0.8168257812499999
vt 0.252778125 0.8203125
vt 0.239409375 0.8168257812499999
vt 0.239409375 0.80932421875
vt 0.252778125 0.80932421875
vt 0.252778125 0.8168257812499999
vt 0.252778125 0.8203125
vt 0.252778125 0.8168257812499999
vt 0.25703125 0.8168257812499999
vt 0.25703125 0.8203125
vt 0.252778125 0.8168257812499999
vt 0.252778125 0.80932421875
vt 0.25703125 0.80932421875
vt 0.25703125 0.8168257812499999
vt 0.3203125 0.859375
vt 0.3359375 0.859375
vt 0.3359375 0.875
vt 0.3203125 0.875
vt 0.047265625 0.8439523437500001
vt 0.065075 0.8439523437500001
vt 0.065075 0.8565828125
vt 0.047265625 0.8565828125
vt 0.12464375 0.84438515625
vt 0.13046875 0.84438515625
vt 0.13046875 0.8570156250000001
vt 0.12464375 0.8570156250000001
vt 0.065075 0.8439523437500001
vt 0.07324296875 0.8439523437500001
vt 0.07324296875 0.8565828125
vt 0.065075 0.8565828125
vt 0.07324296875 0.8439523437500001
vt 0.085546875 0.85254609375
vt 0.085546875 0.8565828125
vt 0.07324296875 0.8565828125
vt 0.38515625 0.91783828125
vt 0.391840625 0.91783828125
vt 0.391840625 0.921875
vt 0.38515625 0.921875
vt 0.391840625 0.91783828125
vt 0.412846875 0.91783828125
vt 0.412846875 0.921875
vt 0.391840625 0.921875
vt 0.21875 0.6796875
vt 0.2421875 0.6796875
vt 0.2421875 0.6953125
vt 0.21875 0.6953125
vt 0.01269453125 0.8517648437500001
vt 0.0208625 0.8517648437500001
vt 0.0208625 0.8643953125
vt 0.01269453125 0.8643953125
vt 0.000390625 0.86035859375
vt 0.01269453125 0.8517648437500001
vt 0.01269453125 0.8643953125
vt 0.000390625 0.8643953125
vt 0.412846875 0.91783828125
vt 0.41953125 0.91783828125
vt 0.41953125 0.921875
vt 0.412846875 0.921875
vt 0.0208625 0.8517648437500001
vt 0.038671875 0.8517648437500001
vt 0.038671875 0.8643953125
vt 0.0208625 0.8643953125
vt 0.3203125 0.8359375
vt 0.3359375 0.8359375
vt 0.3359375 0.8515625
vt 0.3203125 0.8515625
vt 0.09609375 0.84438515625
vt 0.10191875 0.84438515625
vt 0.10191875 0.8570156250000001
vt 0.09609375 0.8570156250000001
vt 0.4140625 0.845925
vt 0.4140625 0.854882578125
vt 0.40625 0.8587453125
vt 0.40638203125 0.84375
vt 0.140625 0.51040078125
vt 0.13705859375 0.51040078125
vt 0.1328125 0.5082
vt 0.140625 0.5078125
vt 0.03771265625 0.74646484375
vt 0.041105625 0.74646484375
vt 0.0401509375 0.7504421875
vt 0.0334665625 0.7504421875
vt 0.060398046875 0.7374314843750001
vt 0.04130625 0.7369938281249999
vt 0.04136625 0.734375
vt 0.060458125 0.7348126562499999
vt 0.041105625 0.74646484375
vt 0.0602025 0.74646484375
vt 0.0611571875 0.7504421875
vt 0.0401509375 0.7504421875
vt 0.06379015625 0.737509296875
vt 0.060398046875 0.7374314843750001
vt 0.060458125 0.7348126562499999
vt 0.068085 0.7354321875000001
vt 0.06359546875 0.74646484375
vt 0.06379015625 0.737509296875
vt 0.0680959375 0.7354268749999999
vt 0.067818359375 0.750420390625
vt 0.0602025 0.74646484375
vt 0.06359546875 0.74646484375
vt 0.0678415625 0.7504421875
vt 0.0611571875 0.7504421875
vt 0.3828125 0.541245625
vt 0.382231171875 0.545826015625
vt 0.374555703125 0.548017265625
vt 0.374555703125 0.5390625
vt 0.06972890625 0.6640625
vt 0.06674609375 0.6640625
vt 0.06518359375 0.65566171875
vt 0.0685765625 0.65566171875
vt 0.37075390625 0.79688984375
vt 0.36777109375 0.79688984375
vt 0.3689234375 0.7890625
vt 0.37231640625 0.7890625
vt 0.08652109375 0.6640625
vt 0.06972890625 0.6640625
vt 0.0685765625 0.65566171875
vt 0.0876734375 0.65566171875
vt 0.36777109375 0.79688984375
vt 0.35097890625 0.79688984375
vt 0.3498265625 0.7890625
vt 0.3689234375 0.7890625
vt 0.08950390625 0.6640625
vt 0.08652109375 0.6640625
vt 0.0876734375 0.65566171875
vt 0.09106640625 0.65566171875
vt 0.444269375 0.554101953125
vt 0.439689609375 0.5546875
vt 0.4375 0.546875
vt 0.44645515625 0.546875
vt 0.35097890625 0.79688984375
vt 0.34799609375 0.79688984375
vt 0.34643359375 0.7890625
vt 0.3498265625 0.7890625
vn -0.9830018195714875 0.18359581345756448 -2.2484002528766088e-17
vn 0.9830018195714876 0.1835958134575647 -2.2484002528766122e-17
vn -1.2246467991473532e-16 1 -1.2246467991473532e-16
vn 1.2246467991473532e-16 -1 1.2246467991473532e-16
vn -1.1386855709993933e-17 0.09298073304010504 -0.9956679081316846
vn -3.3037185658269646e-17 0.2697690932705776 0.9629250418988856
vn 1.2246467991473532e-16 -1 1.2246467991473532e-16
vn 1.2246467991473532e-16 -1 1.2246467991473532e-16
vn -3.3037185658269646e-17 0.2697690932705776 0.9629250418988855
vn -3.3037185658269646e-17 0.2697690932705776 0.9629250418988855
vn -1.2246467991473532e-16 1 -1.2246467991473532e-16
vn -1.2246467991473532e-16 1 -1.2246467991473532e-16
vn -1.1386855709993935e-17 0.09298073304010505 -0.9956679081316846
vn -1.1386855709993935e-17 0.09298073304010505 -0.9956679081316846
vn -0.9830018195714875 0.1835958134575645 -2.248400252876609e-17
vn -0.9830018195714875 0.18359581345756448 -2.2484002528766088e-17
vn 1.0622516605446109e-16 -0.8673943060841638 0.4976214603217714
vn 1.2246467991473532e-16 -1 1.2246467991473532e-16
vn 1.0622516605446109e-16 -0.8673943060841638 0.49762146032177146
vn 1.2246467991473532e-16 -1 1.2246467991473532e-16
vn 1.0622516605446109e-16 -0.8673943060841638 0.4976214603217714
vn 1.2246467991473532e-16 -1 1.2246467991473532e-16
vn 0.9830018195714876 0.18359581345756468 -2.248400252876612e-17
vn 0.9830018195714875 0.18359581345756468 -2.2484002528766116e-17
vn -1.2246467991473532e-16 1 -1.2246467991473532e-16
vn -1.2246467991473532e-16 1 -1.2246467991473532e-16
vn -1.2246467991473532e-16 1 -1.2246467991473532e-16
vn -1.2246467991473532e-16 1 -1.2246467991473532e-16
vn -1.2246467991473532e-16 1 -1.2246467991473532e-16
vn -1.2246467991473532e-16 1 -1.2246467991473532e-16
vn 1 1.2246467991473532e-16 -1.4997597826618576e-32
vn -1 -1.2246467991473532e-16 1.4997597826618576e-32
vn 0 -1.2246467991473532e-16 -1
vn -1 -1.2246467991473532e-16 1.4997597826618576e-32
vn -1 -1.2246467991473532e-16 1.4997597826618576e-32
vn 0 1.2246467991473532e-16 1
vn 0 1.2246467991473532e-16 1
vn 0 -1.2246467991473532e-16 -1
vn 1 1.2246467991473532e-16 -1.4997597826618576e-32
vn 1 1.2246467991473532e-16 -1.4997597826618576e-32
vn 0 1.2246467991473532e-16 1
vn 1 1.2246467991473532e-16 -1.4997597826618576e-32
vn -1 -1.2246467991473532e-16 1.4997597826618576e-32
vn 0 -1.2246467991473532e-16 -1
vn 0.2174330705469357 -0.7769117282856707 0.5908731050612335
vn 8.49436000068965e-17 -0.6936171316173572 0.7203438586723079
vn 1.123111767941087e-16 -0.9170903551318154 0.3986794207432845
vn 9.747640227885829e-17 -0.7959552284521966 0.6053554941516692
vn 1.123111767941087e-16 -0.9170903551318154 0.39867942074328444
vn 9.747640227885829e-17 -0.7959552284521966 0.6053554941516692
vn -0.07930842001950364 -0.7934476038577766 0.6034493138999854
vn 1.123111767941087e-16 -0.9170903551318154 0.3986794207432845
vn 0.9770655690478742 -0.18470178297783788 0.10596284795135419
vn -4.6166324205991835e-17 0.37697664533263503 0.926222764173799
vn 9.84426149507876e-17 -0.8038449536578808 -0.5948388777465371
vn -4.616632420599183e-17 0.376976645332635 0.9262227641737989
vn 9.844261495078762e-17 -0.8038449536578809 -0.5948388777465371
vn -4.6166324205991835e-17 0.37697664533263503 0.926222764173799
vn -0.9828389421115497 -0.16000454344165513 0.09179411717031598
vn 9.84426149507876e-17 -0.8038449536578808 -0.5948388777465371
usemtl m_560b2853-9d7a-f7a7-3613-5009d71d2e44
f 16/41/11 33/42/11 32/43/11 14/44/11
f 18/45/12 38/46/12 37/47/12 20/48/12
f 29/49/13 40/50/13 38/51/13 18/52/13
f 57/53/14 54/54/14 53/55/14 58/56/14
f 20/57/15 24/58/15 29/59/15 18/60/15
f 19/61/16 27/62/16 25/63/16 21/64/16
f 43/65/17 45/66/17 44/67/17 46/68/17
f 24/69/18 35/70/18 34/71/18 22/72/18
f 17/73/19 23/74/19 26/75/19 15/76/19
f 23/77/20 25/78/20 27/79/20 26/80/20
f 14/81/21 32/82/21 42/83/21 28/84/21
f 28/85/22 42/86/22 40/87/22 29/88/22
f 14/89/23 28/90/23 22/91/23 16/92/23
f 28/93/24 29/94/24 24/95/24 22/96/24
f 15/97/25 30/98/25 31/99/25 17/100/25
f 30/101/26 32/102/26 33/103/26 31/104/26
f 67/105/27 68/106/27 69/107/27 70/108/27
f 47/109/28 44/110/28 45/111/28 48/112/28
f 70/113/29 69/114/29 71/115/29 72/116/29
f 48/117/30 45/118/30 53/119/30 51/120/30
f 72/121/31 71/122/31 73/123/31 74/124/31
f 51/125/32 53/126/32 54/127/32 55/128/32
f 21/129/33 36/130/33 13/131/33 19/132/33
f 36/133/34 37/134/34 38/135/34 13/136/34
f 19/137/35 13/138/35 39/139/35 27/140/35
f 13/141/36 38/142/36 40/143/36 39/144/36
f 27/145/37 39/146/37 41/147/37 26/148/37
f 39/149/38 40/150/38 42/151/38 41/152/38
f 26/153/39 41/154/39 30/155/39 15/156/39
f 41/157/40 42/158/40 32/159/40 30/160/40
f 45/161/41 43/162/41 22/163/41 34/164/41
f 46/165/42 44/166/42 33/167/42 16/168/42
f 43/169/43 46/170/43 16/171/43 22/172/43
f 44/173/44 47/174/44 31/175/44 33/176/44
f 47/177/45 49/178/45 17/179/45 31/180/45
f 49/181/46 50/182/46 23/183/46 17/184/46
f 50/185/47 52/186/47 25/187/47 23/188/47
f 53/189/48 45/190/48 34/191/48 35/192/48
f 55/193/49 54/194/49 37/195/49 36/196/49
f 56/197/50 55/198/50 36/199/50 21/200/50
f 52/201/51 56/202/51 21/203/51 25/204/51
f 54/205/52 57/206/52 20/207/52 37/208/52
f 58/209/53 53/210/53 35/211/53 24/212/53
f 57/213/54 58/214/54 24/215/54 20/216/54
f 60/217/55 59/218/55 49/219/55 47/220/55
f 61/221/56 60/222/56 47/223/56 48/224/56
f 59/225/57 62/226/57 50/227/57 49/228/57
f 63/229/58 61/230/58 48/231/58 51/232/58
f 62/233/59 64/234/59 52/235/59 50/236/59
f 65/237/60 63/238/60 51/239/60 55/240/60
f 66/241/61 65/242/61 55/243/61 56/244/61
f 64/245/62 66/246/62 56/247/62 52/248/62
f 68/249/63 67/250/63 59/251/63 60/252/63
f 69/253/64 68/254/64 60/255/64 61/256/64
f 67/257/65 70/258/65 62/259/65 59/260/65
f 71/261/66 69/262/66 61/263/66 63/264/66
f 70/265/67 72/266/67 64/267/67 62/268/67
f 73/269/68 71/270/68 63/271/68 65/272/68
f 74/273/69 73/274/69 65/275/69 66/276/69
f 72/277/70 74/278/70 66/279/70 64/280/70
o Thigh
v -0.2187500000000001 0.7031249999999999 -0.09000000000000012
v -0.2187500000000001 0.7031249999999999 0.08999999999999987
v -0.21250000000000008 0.37812499999999993 -0.09000000000000008
v -0.21250000000000008 0.37812499999999993 0.08999999999999991
v -0.05625000000000011 0.658125 -0.09000000000000011
v -0.05625000000000011 0.658125 0.08999999999999989
v -0.05625000000000008 0.37812499999999993 -0.09000000000000008
v -0.05625000000000008 0.37812499999999993 0.08999999999999991
v -0.2437500000000001 0.5666249999999999 -0.1125000000000001
v -0.2437500000000001 0.5666249999999999 0.1124999999999999
v -0.056250000000000105 0.5666249999999999 0.1124999999999999
v -0.056250000000000105 0.5666249999999999 -0.1125000000000001
v -0.13750000000000012 0.5666249999999999 -0.1125000000000001
v -0.13750000000000012 0.705625 -0.09000000000000012
v -0.13750000000000012 0.705625 0.08999999999999987
v -0.13750000000000012 0.5666249999999999 0.1124999999999999
v -0.1375000000000001 0.37812499999999993 0.08999999999999991
v -0.1375000000000001 0.37812499999999993 -0.09000000000000008
vt 0.105 0.765625
vt 0.1078125 0.7890625
vt 0.0796875 0.7890625
vt 0.0825 0.765625
vt 0.120625 0.8009375
vt 0.1234375 0.8245
vt 0.0953125 0.8245
vt 0.098125 0.8009375
vt 0.3828125 0.9921875
vt 0.3828125 1
vt 0.359375 1
vt 0.359375 0.9921875
vt 0.240234375 0.725625
vt 0.230859375 0.725625
vt 0.230859375 0.703125
vt 0.240234375 0.703125
vt 0.265625 0.9221671875
vt 0.25234375 0.9221671875
vt 0.25234375 0.8984375
vt 0.26171875 0.8984375
vt 0.24609375 0.9375
vt 0.25546875 0.9375
vt 0.25546875 0.9612296875
vt 0.2421875 0.9612296875
vt 0.2778125 0.8828125
vt 0.275 0.8671875
vt 0.303125 0.8671875
vt 0.3003125 0.8828125
vt 0.06638421875 0.70114921875
vt 0.07966546875 0.70114921875
vt 0.07966546875 0.71875
vt 0.06950921875 0.7184421875
vt 0.098125 0.8359375
vt 0.0953125 0.8245
vt 0.1234375 0.8245
vt 0.120625 0.8359375
vt 0.305468984375 0.7887542187500001
vt 0.2953125 0.7890625
vt 0.2953125 0.77146171875
vt 0.30859375 0.77146140625
vt 0.28515625 0.77146171875
vt 0.2953125 0.77146171875
vt 0.2953125 0.7890625
vt 0.28515625 0.7832015625
vt 0.3203125 0.7421875
vt 0.3203125 0.7578125
vt 0.296875 0.7578125
vt 0.296875 0.7421875
vt 0.08986578125 0.7128887500000001
vt 0.07966546875 0.71875
vt 0.07966546875 0.70114875
vt 0.089777578125 0.7011485937499999
vt 0.265625 0.9612296875
vt 0.25546875 0.9612296875
vt 0.25546875 0.9375
vt 0.265625 0.9375
vt 0.220703125 0.703125
vt 0.230859375 0.703125
vt 0.230859375 0.725625
vt 0.220703125 0.725625
vt 0.2421875 0.8984375
vt 0.25234375 0.8984375
vt 0.25234375 0.9221671875
vt 0.2421875 0.9221671875
vn -0.9865350075748681 -0.16355023335127133 2.0029126977343716e-17
vn 1 1.2246467991473532e-16 -1.4997597826618576e-32
vn -0.030754675786974797 0.9995269630766537 -1.2240674959932985e-16
vn 1.2246467991473532e-16 -1 1.2246467991473532e-16
vn 1.451476526097007e-17 -0.11852205281617385 -0.9929514202599441
vn 1.4514765260970067e-17 -0.11852205281617359 0.9929514202599441
vn -0.9836384960749286 0.18015357070969382 -2.2062449372459286e-17
vn -1.9568706904530698e-17 0.15979061814520895 0.9871509298748454
vn 1 1.2246467991473532e-16 -1.4997597826618576e-32
vn -0.004916574979921313 0.15978868684743822 -0.9871389987463967
vn -1.95687069045307e-17 0.15979061814520876 -0.9871509298748457
vn 0.5046965873311554 0.8632967941190823 -1.0572336556321058e-16
vn 0.09301110178732779 0.15909793726779775 0.9828717013432829
vn 1.451476526097007e-17 -0.11852205281617362 0.9929514202599441
vn 1.2246467991473532e-16 -1 1.2246467991473532e-16
vn 1.451476526097007e-17 -0.11852205281617387 -0.9929514202599441
usemtl m_560b2853-9d7a-f7a7-3613-5009d71d2e44
f 78/281/71 84/282/71 83/283/71 77/284/71
f 81/285/72 86/286/72 85/287/72 82/288/72
f 76/289/73 89/290/73 88/291/73 75/292/73
f 77/293/74 92/294/74 91/295/74 78/296/74
f 83/297/75 87/298/75 92/299/75 77/300/75
f 78/301/76 91/302/76 90/303/76 84/304/76
f 75/305/77 83/306/77 84/307/77 76/308/77
f 84/309/78 90/310/78 89/311/78 76/312/78
f 80/313/79 85/314/79 86/315/79 79/316/79
f 75/317/80 88/318/80 87/319/80 83/320/80
f 86/321/81 87/322/81 88/323/81 79/324/81
f 79/325/82 88/326/82 89/327/82 80/328/82
f 80/329/83 89/330/83 90/331/83 85/332/83
f 85/333/84 90/334/84 91/335/84 82/336/84
f 82/337/85 91/338/85 92/339/85 81/340/85
f 81/341/86 92/342/86 87/343/86 86/344/86
o Toe
v 0.21250000000000002 0.034375000000000044 -0.22500000000000003
v 0.21250000000000005 0.09687500000000004 0.012499999999999956
v 0.21250000000000002 0.0031250000000000444 -0.22500000000000003
v 0.21250000000000002 0.0031250000000000444 0.012499999999999968
v 0.06250000000000004 0.034375000000000044 -0.22500000000000003
v 0.06250000000000004 0.09687500000000004 0.012499999999999956
v 0.06250000000000003 0.0031250000000000444 -0.22500000000000003
v 0.06250000000000003 0.0031250000000000444 0.012499999999999968
v 0.21250000000000005 0.09687500000000004 -0.08125000000000004
v 0.21250000000000002 0.0031250000000000444 -0.08125000000000003
v 0.06250000000000003 0.0031250000000000444 -0.08125000000000003
v 0.06250000000000004 0.09687500000000004 -0.08125000000000004
vt 0.3234375 0.7109375
vt 0.3234375 0.69921875
vt 0.30546875 0.69921875
vt 0.30546875 0.703125
vt 0.0125 0.67578125
vt 0.0125 0.6875
vt 0.03046875 0.6796875
vt 0.03046875 0.67578125
vt 0.25 0.7109375
vt 0.265625 0.7109375
vt 0.265625 0.6875
vt 0.25 0.6875
vt 0.02109375 0.73828125
vt 0.00234375 0.73828125
vt 0.00234375 0.75625
vt 0.02109375 0.75625
vt 0.015625 0.609375
vt 0.03125 0.609375
vt 0.03125 0.6015625
vt 0.015625 0.6015625
vt 0.1875 0.6640625
vt 0.1875 0.6796875
vt 0.203125 0.6796875
vt 0.203125 0.6640625
vt 0.3234375 0.69921875
vt 0.3234375 0.7109375
vt 0.33515625 0.7109375
vt 0.33515625 0.69921875
vt 0.00234375 0.73828125
vt 0.02109375 0.73828125
vt 0.02109375 0.7265625
vt 0.00234375 0.7265625
vt 0.0125 0.6875
vt 0.0125 0.67578125
vt 0.00078125 0.67578125
vt 0.00078125 0.6875
vt 0.3359375 0.7890625
vt 0.3203125 0.7890625
vt 0.3203125 0.8046875
vt 0.3359375 0.8046875
vn 1 -1.2246467991473532e-16 1.4997597826618576e-32
vn -1 1.2246467991473532e-16 -1.4997597826618576e-32
vn 1.1230869089844074e-16 0.917070056253235 -0.39872611141445014
vn -1.2246467991473532e-16 -1 1.2246467991473532e-16
vn 0 -1.2246467991473532e-16 -1
vn 0 1.2246467991473532e-16 1
vn 1 -1.2246467991473532e-16 1.4997597826618576e-32
vn -1.2246467991473532e-16 -1 1.2246467991473532e-16
vn -1 1.2246467991473532e-16 -1.4997597826618576e-32
vn 1.2246467991473532e-16 1 -1.2246467991473532e-16
usemtl m_560b2853-9d7a-f7a7-3613-5009d71d2e44
f 101/345/87 102/346/87 95/347/87 93/348/87
f 103/349/88 104/350/88 97/351/88 99/352/88
f 104/353/89 101/354/89 93/355/89 97/356/89
f 102/357/90 103/358/90 99/359/90 95/360/90
f 97/361/91 93/362/91 95/363/91 99/364/91
f 96/365/92 94/366/92 98/367/92 100/368/92
f 102/369/93 101/370/93 94/371/93 96/372/93
f 103/373/94 102/374/94 96/375/94 100/376/94
f 104/377/95 103/378/95 100/379/95 98/380/95
f 101/381/96 104/382/96 98/383/96 94/384/96
o Shin
v 0.05000000000000008 0.37187500000000007 0.07835374999999992
v 0.2250000000000001 0.37187500000000007 -0.10000000000000009
v 0.2250000000000001 0.37187500000000007 0.10624999999999991
v 0.2750000000000001 0.10416687499999999 -0.12500000000000006
v 0.2750000000000001 0.10416687499999999 0.18124999999999994
v 0.05000000000000008 0.37187500000000007 -0.10000000000000009
v 0.05000000000000008 0.37187500000000007 0.10624999999999991
v 4.6051847856411915e-17 0.10416687500000005 -0.12500000000000006
v 4.6051847856411915e-17 0.10416687500000005 0.18124999999999994
v 0.22840250000000006 0.10416687499999999 -0.12500000000000006
v 0.22152750000000004 0.10416687500000005 0.18124999999999994
v 0.04659750000000005 0.10416687500000005 -0.12500000000000006
v 0.05347250000000005 0.10416687500000005 0.18124999999999994
v 0.19097250000000007 0.37187500000000007 0.10624999999999991
v 0.08402750000000009 0.37187500000000007 0.10624999999999991
v 0.19097250000000007 0.37187500000000007 -0.10000000000000009
v 0.08402750000000009 0.37187500000000007 -0.10000000000000009
v 0.2250000000000001 0.37187500000000007 0.07835374999999992
v 0.2750000000000001 0.10416687499999999 0.08281812499999996
v 0.2250000000000001 0.37187500000000007 0.01834374999999992
v 0.2750000000000001 0.10416687499999999 0.017473749999999955
v 0.22840250000000006 0.10416687499999999 0.017473749999999955
v 0.04659750000000005 0.10416687500000005 0.017473749999999955
v 4.6051847856411915e-17 0.10416687500000005 0.08281812499999996
v 4.6051847856411915e-17 0.10416687500000005 0.017473749999999955
v 0.05000000000000008 0.37187500000000007 0.01834374999999992
v 0.08402750000000009 0.37187500000000007 0.07835374999999992
v 0.08402750000000009 0.37187500000000007 0.01834374999999992
v 0.19097250000000007 0.37187500000000007 0.07835374999999992
v 0.19097250000000007 0.37187500000000007 0.01834374999999992
v 0.22840250000000004 0.003124999999999989 -0.12500000000000003
v 0.2750000000000001 0.003124999999999989 0.017473749999999965
v 0.22840250000000004 0.003124999999999989 0.017473749999999965
v 0.2750000000000001 0.003124999999999989 -0.12500000000000003
v 0.2750000000000001 0.003124999999999989 0.08281812499999998
v 0.21388875000000002 0.0031250000000000444 0.07835374999999997
v 0.2750000000000001 0.07187499999999997 0.18124999999999994
v 0.22152750000000004 0.07187500000000002 0.18124999999999994
v 0.061111250000000034 0.0031250000000000444 0.07835374999999997
v 0.05347250000000004 0.07187500000000002 0.18124999999999994
v 0.046597500000000035 0.0031250000000000444 0.017473749999999965
v 3.367778697655222e-17 0.0031250000000000444 0.017473749999999965
v 3.367778697655222e-17 0.0031250000000000444 0.08281812499999998
v 4.209723372069027e-17 0.07187500000000002 0.18124999999999994
v 3.367778697655222e-17 0.0031250000000000444 -0.12500000000000003
v 0.046597500000000035 0.0031250000000000444 -0.12500000000000003
v 0.24103125000000003 0.05919062499999994 0.15207187499999997
v 0.24103125000000003 0.01580937499999996 0.09503187499999996
v 0.21388875000000002 0.015809375000000014 0.09503187499999996
v 0.21388875000000002 0.059190625 0.15207187499999997
v 0.061111250000000034 0.015809375000000014 0.09503187499999996
v 0.06111125000000004 0.059190625 0.15207187499999997
v 0.033968750000000034 0.015809375000000014 0.09503187499999996
v 0.03396875000000004 0.059190625 0.15207187499999997
v 0.22853125000000005 0.09643812499999999 0.10173687499999996
v 0.22853125000000005 0.07805687499999997 0.06969687499999996
v 0.20466625000000005 0.07805687500000003 0.06969687499999996
v 0.20466625000000005 0.09643812500000004 0.10173687499999996
v 0.07033375000000004 0.07805687500000003 0.06969687499999996
v 0.07033375000000004 0.09643812500000004 0.10173687499999996
v 0.046468750000000045 0.07805687500000003 0.06969687499999996
v 0.04646875000000005 0.09643812500000004 0.10173687499999996
vt 0.06518359375 0.890625
vt 0.065075 0.8565828125
vt 0.047265625 0.8565828125
vt 0.050390625 0.890625
vt 0.0208625 0.8643953125
vt 0.02075390625 0.8984375
vt 0.035546875 0.8984375
vt 0.038671875 0.8643953125
vt 0.23515625 0.80932421875
vt 0.239409375 0.80932421875
vt 0.239409375 0.79453125
vt 0.23515625 0.79453125
vt 0.19566875 0.79723046875
vt 0.18984375 0.79723046875
vt 0.18984375 0.8150398437499999
vt 0.19566875 0.8150398437499999
vt 0.106596875 0.890625
vt 0.10191875 0.8570156250000001
vt 0.09609375 0.8570156250000001
vt 0.10234375 0.890625
vt 0.170659375 0.8168109375
vt 0.166840625 0.8515625
vt 0.17109375 0.8515625
vt 0.17734375 0.8168109375
vt 0.22421875 0.79723046875
vt 0.21839375 0.79723046875
vt 0.21839375 0.8150398437499999
vt 0.22421875 0.8150398437499999
vt 0.328125 0.8125
vt 0.3046875 0.8125
vt 0.3046875 0.828125
vt 0.328125 0.828125
vt 0.153471875 0.8515625
vt 0.149653125 0.8168109375
vt 0.14296875 0.8168109375
vt 0.14921875 0.8515625
vt 0.166840625 0.8515625
vt 0.170659375 0.8168109375
vt 0.149653125 0.8168109375
vt 0.153471875 0.8515625
vt 0.252778125 0.80932421875
vt 0.25703125 0.80932421875
vt 0.25703125 0.79453125
vt 0.252778125 0.79453125
vt 0.239409375 0.80932421875
vt 0.252778125 0.80932421875
vt 0.252778125 0.79453125
vt 0.239409375 0.79453125
vt 0.12464375 0.8570156250000001
vt 0.119965625 0.890625
vt 0.12421875 0.890625
vt 0.13046875 0.8570156250000001
vt 0.10191875 0.8570156250000001
vt 0.106596875 0.890625
vt 0.119965625 0.890625
vt 0.12464375 0.8570156250000001
vt 0.07324296875 0.8565828125
vt 0.07268515625 0.890625
vt 0.076171875 0.890625
vt 0.085546875 0.8565828125
vt 0.065075 0.8565828125
vt 0.06518359375 0.890625
vt 0.07268515625 0.890625
vt 0.07324296875 0.8565828125
vt 0.41738515625 0.8125
vt 0.41440234375 0.8125
vt 0.41440234375 0.8171171875000001
vt 0.41738515625 0.8171171875000001
vt 0.21839375 0.79723046875
vt 0.22421875 0.79723046875
vt 0.22421875 0.7890625
vt 0.2165796875 0.7896203125
vt 0.43417734375 0.8125
vt 0.41738515625 0.8125
vt 0.41738515625 0.8171171875000001
vt 0.43417734375 0.8171171875000001
vt 0.19566875 0.79723046875
vt 0.21839375 0.79723046875
vt 0.2165796875 0.7896203125
vt 0.1974828125 0.7896203125
vt 0.43716015625 0.8125
vt 0.43417734375 0.8125
vt 0.43417734375 0.8171171875000001
vt 0.43716015625 0.8171171875000001
vt 0.18984375 0.79723046875
vt 0.19566875 0.79723046875
vt 0.1974828125 0.7896203125
vt 0.18984375 0.7890625
vt 0.01325234375 0.8984375
vt 0.01269453125 0.8643953125
vt 0.000390625 0.8643953125
vt 0.009765625 0.8984375
vt 0.02075390625 0.8984375
vt 0.0208625 0.8643953125
vt 0.01269453125 0.8643953125
vt 0.01325234375 0.8984375
vt 0.239409375 0.8168257812499999
vt 0.23515625 0.8168257812499999
vt 0.23515625 0.8203125
vt 0.239409375 0.8203125
vt 0.239409375 0.80932421875
vt 0.23515625 0.80932421875
vt 0.23515625 0.8168257812499999
vt 0.239409375 0.8168257812499999
vt 0.252778125 0.8168257812499999
vt 0.239409375 0.8168257812499999
vt 0.239409375 0.8203125
vt 0.252778125 0.8203125
vt 0.252778125 0.80932421875
vt 0.239409375 0.80932421875
vt 0.239409375 0.8168257812499999
vt 0.252778125 0.8168257812499999
vt 0.25703125 0.8168257812499999
vt 0.252778125 0.8168257812499999
vt 0.252778125 0.8203125
vt 0.25703125 0.8203125
vt 0.25703125 0.80932421875
vt 0.252778125 0.80932421875
vt 0.252778125 0.8168257812499999
vt 0.25703125 0.8168257812499999
vt 0.3359375 0.875
vt 0.3359375 0.859375
vt 0.3203125 0.859375
vt 0.3203125 0.875
vt 0.065075 0.8565828125
vt 0.065075 0.8439523437500001
vt 0.047265625 0.8439523437500001
vt 0.047265625 0.8565828125
vt 0.13046875 0.8570156250000001
vt 0.13046875 0.84438515625
vt 0.12464375 0.84438515625
vt 0.12464375 0.8570156250000001
vt 0.07324296875 0.8565828125
vt 0.07324296875 0.8439523437500001
vt 0.065075 0.8439523437500001
vt 0.065075 0.8565828125
vt 0.085546875 0.8565828125
vt 0.085546875 0.85254609375
vt 0.07324296875 0.8439523437500001
vt 0.07324296875 0.8565828125
vt 0.391840625 0.921875
vt 0.391840625 0.91783828125
vt 0.38515625 0.91783828125
vt 0.38515625 0.921875
vt 0.412846875 0.921875
vt 0.412846875 0.91783828125
vt 0.391840625 0.91783828125
vt 0.391840625 0.921875
vt 0.2421875 0.6953125
vt 0.2421875 0.6796875
vt 0.21875 0.6796875
vt 0.21875 0.6953125
vt 0.0208625 0.8643953125
vt 0.0208625 0.8517648437500001
vt 0.01269453125 0.8517648437500001
vt 0.01269453125 0.8643953125
vt 0.01269453125 0.8643953125
vt 0.01269453125 0.8517648437500001
vt 0.000390625 0.86035859375
vt 0.000390625 0.8643953125
vt 0.41953125 0.921875
vt 0.41953125 0.91783828125
vt 0.412846875 0.91783828125
vt 0.412846875 0.921875
vt 0.038671875 0.8643953125
vt 0.038671875 0.8517648437500001
vt 0.0208625 0.8517648437500001
vt 0.0208625 0.8643953125
vt 0.3359375 0.8515625
vt 0.3359375 0.8359375
vt 0.3203125 0.8359375
vt 0.3203125 0.8515625
vt 0.10191875 0.8570156250000001
vt 0.10191875 0.84438515625
vt 0.09609375 0.84438515625
vt 0.09609375 0.8570156250000001
vt 0.40625 0.8587453125
vt 0.4140625 0.854882578125
vt 0.4140625 0.845925
vt 0.40638203125 0.84375
vt 0.1328125 0.5082
vt 0.13705859375 0.51040078125
vt 0.140625 0.51040078125
vt 0.140625 0.5078125
vt 0.0401509375 0.7504421875
vt 0.041105625 0.74646484375
vt 0.03771265625 0.74646484375
vt 0.0334665625 0.7504421875
vt 0.04136625 0.734375
vt 0.04130625 0.7369938281249999
vt 0.060398046875 0.7374314843750001
vt 0.060458125 0.7348126562499999
vt 0.0611571875 0.7504421875
vt 0.0602025 0.74646484375
vt 0.041105625 0.74646484375
vt 0.0401509375 0.7504421875
vt 0.060458125 0.7348126562499999
vt 0.060398046875 0.7374314843750001
vt 0.06379015625 0.737509296875
vt 0.068085 0.7354321875000001
vt 0.0680959375 0.7354268749999999
vt 0.06379015625 0.737509296875
vt 0.06359546875 0.74646484375
vt 0.067818359375 0.750420390625
vt 0.0678415625 0.7504421875
vt 0.06359546875 0.74646484375
vt 0.0602025 0.74646484375
vt 0.0611571875 0.7504421875
vt 0.374555703125 0.548017265625
vt 0.382231171875 0.545826015625
vt 0.3828125 0.541245625
vt 0.374555703125 0.5390625
vt 0.06518359375 0.65566171875
vt 0.06674609375 0.6640625
vt 0.06972890625 0.6640625
vt 0.0685765625 0.65566171875
vt 0.3689234375 0.7890625
vt 0.36777109375 0.79688984375
vt 0.37075390625 0.79688984375
vt 0.37231640625 0.7890625
vt 0.0685765625 0.65566171875
vt 0.06972890625 0.6640625
vt 0.08652109375 0.6640625
vt 0.0876734375 0.65566171875
vt 0.3498265625 0.7890625
vt 0.35097890625 0.79688984375
vt 0.36777109375 0.79688984375
vt 0.3689234375 0.7890625
vt 0.0876734375 0.65566171875
vt 0.08652109375 0.6640625
vt 0.08950390625 0.6640625
vt 0.09106640625 0.65566171875
vt 0.4375 0.546875
vt 0.439689609375 0.5546875
vt 0.444269375 0.554101953125
vt 0.44645515625 0.546875
vt 0.34643359375 0.7890625
vt 0.34799609375 0.79688984375
vt 0.35097890625 0.79688984375
vt 0.3498265625 0.7890625
vn 0.9830018195714875 0.18359581345756443 -2.2484002528766082e-17
vn -0.9830018195714876 0.1835958134575647 -2.2484002528766122e-17
vn 1.2246467991473532e-16 1 -1.2246467991473532e-16
vn -1.2246467991473532e-16 -1 1.2246467991473532e-16
vn 1.1386855709993933e-17 0.09298073304010504 -0.9956679081316846
vn 3.3037185658269646e-17 0.2697690932705776 0.9629250418988856
vn -1.2246467991473532e-16 -1 1.2246467991473532e-16
vn -1.2246467991473532e-16 -1 1.2246467991473532e-16
vn 3.303718565826964e-17 0.2697690932705775 0.9629250418988855
vn 3.3037185658269646e-17 0.2697690932705776 0.9629250418988855
vn 1.2246467991473532e-16 1 -1.2246467991473532e-16
vn 1.2246467991473532e-16 1 -1.2246467991473532e-16
vn 1.1386855709993935e-17 0.09298073304010505 -0.9956679081316846
vn 1.1386855709993933e-17 0.09298073304010504 -0.9956679081316846
vn 0.9830018195714875 0.18359581345756448 -2.2484002528766088e-17
vn 0.9830018195714875 0.18359581345756448 -2.2484002528766088e-17
vn -1.0622516605446109e-16 -0.8673943060841638 0.4976214603217714
vn -1.2246467991473532e-16 -1 1.2246467991473532e-16
vn -1.0622516605446109e-16 -0.8673943060841638 0.49762146032177146
vn -1.2246467991473532e-16 -1 1.2246467991473532e-16
vn -1.0622516605446109e-16 -0.8673943060841638 0.4976214603217714
vn -1.2246467991473532e-16 -1 1.2246467991473532e-16
vn -0.9830018195714876 0.18359581345756468 -2.248400252876612e-17
vn -0.9830018195714875 0.18359581345756465 -2.2484002528766113e-17
vn 1.2246467991473532e-16 1 -1.2246467991473532e-16
vn 1.2246467991473532e-16 1 -1.2246467991473532e-16
vn 1.2246467991473532e-16 1 -1.2246467991473532e-16
vn 1.2246467991473532e-16 1 -1.2246467991473532e-16
vn 1.2246467991473532e-16 1 -1.2246467991473532e-16
vn 1.2246467991473532e-16 1 -1.2246467991473532e-16
vn -1 1.2246467991473532e-16 -1.4997597826618576e-32
vn 1 -1.2246467991473532e-16 1.4997597826618576e-32
vn 0 -1.2246467991473532e-16 -1
vn 1 -1.2246467991473532e-16 1.4997597826618576e-32
vn 1 -1.2246467991473532e-16 1.4997597826618576e-32
vn 0 1.2246467991473532e-16 1
vn 0 1.2246467991473532e-16 1
vn 0 -1.2246467991473532e-16 -1
vn -1 1.2246467991473532e-16 -1.4997597826618576e-32
vn -1 1.2246467991473532e-16 -1.4997597826618576e-32
vn 0 1.2246467991473532e-16 1
vn -1 1.2246467991473532e-16 -1.4997597826618576e-32
vn 1 -1.2246467991473532e-16 1.4997597826618576e-32
vn 0 -1.2246467991473532e-16 -1
vn -0.21743307054693567 -0.7769117282856709 0.5908731050612336
vn -8.49436000068965e-17 -0.6936171316173572 0.7203438586723079
vn -1.123111767941087e-16 -0.9170903551318154 0.3986794207432845
vn -9.747640227885829e-17 -0.7959552284521966 0.6053554941516692
vn -1.123111767941087e-16 -0.9170903551318154 0.39867942074328444
vn -9.747640227885829e-17 -0.7959552284521966 0.6053554941516692
vn 0.07930842001950364 -0.7934476038577766 0.6034493138999855
vn -1.123111767941087e-16 -0.9170903551318154 0.3986794207432845
vn -0.9770655690478742 -0.18470178297783788 0.10596284795135416
vn 4.616632420599183e-17 0.376976645332635 0.926222764173799
vn -9.84426149507876e-17 -0.8038449536578808 -0.5948388777465371
vn 4.616632420599183e-17 0.376976645332635 0.9262227641737989
vn -9.84426149507876e-17 -0.8038449536578808 -0.5948388777465371
vn 4.6166324205991835e-17 0.37697664533263503 0.926222764173799
vn 0.9828389421115497 -0.1600045434416551 0.091794117170316
vn -9.84426149507876e-17 -0.8038449536578808 -0.5948388777465371
usemtl m_560b2853-9d7a-f7a7-3613-5009d71d2e44
f 124/385/97 125/386/97 108/387/97 106/388/97
f 129/389/98 130/390/98 110/391/98 112/392/98
f 130/393/99 132/394/99 121/395/99 110/396/99
f 145/397/100 146/398/100 149/399/100 150/400/100
f 121/401/101 116/402/101 112/403/101 110/404/101
f 117/405/102 119/406/102 111/407/102 113/408/102
f 136/409/103 137/410/103 135/411/103 138/412/103
f 126/413/104 127/414/104 116/415/104 114/416/104
f 118/417/105 115/418/105 109/419/105 107/420/105
f 119/421/106 117/422/106 115/423/106 118/424/106
f 134/425/107 124/426/107 106/427/107 120/428/107
f 132/429/108 134/430/108 120/431/108 121/432/108
f 114/433/109 120/434/109 106/435/109 108/436/109
f 116/437/110 121/438/110 120/439/110 114/440/110
f 123/441/111 122/442/111 107/443/111 109/444/111
f 125/445/112 124/446/112 122/447/112 123/448/112
f 161/449/113 160/450/113 159/451/113 162/452/113
f 137/453/114 136/454/114 139/455/114 140/456/114
f 163/457/115 161/458/115 162/459/115 164/460/115
f 145/461/116 137/462/116 140/463/116 143/464/116
f 165/465/117 163/466/117 164/467/117 166/468/117
f 146/469/118 145/470/118 143/471/118 147/472/118
f 105/473/119 128/474/119 113/475/119 111/476/119
f 130/477/120 129/478/120 128/479/120 105/480/120
f 131/481/121 105/482/121 111/483/121 119/484/121
f 132/485/122 130/486/122 105/487/122 131/488/122
f 133/489/123 131/490/123 119/491/123 118/492/123
f 134/493/124 132/494/124 131/495/124 133/496/124
f 122/497/125 133/498/125 118/499/125 107/500/125
f 124/501/126 134/502/126 133/503/126 122/504/126
f 114/505/127 135/506/127 137/507/127 126/508/127
f 125/509/128 136/510/128 138/511/128 108/512/128
f 108/513/129 138/514/129 135/515/129 114/516/129
f 123/517/130 139/518/130 136/519/130 125/520/130
f 109/521/131 141/522/131 139/523/131 123/524/131
f 115/525/132 142/526/132 141/527/132 109/528/132
f 117/529/133 144/530/133 142/531/133 115/532/133
f 126/533/134 137/534/134 145/535/134 127/536/134
f 129/537/135 146/538/135 147/539/135 128/540/135
f 128/541/136 147/542/136 148/543/136 113/544/136
f 113/545/137 148/546/137 144/547/137 117/548/137
f 112/549/138 149/550/138 146/551/138 129/552/138
f 127/553/139 145/554/139 150/555/139 116/556/139
f 116/557/140 150/558/140 149/559/140 112/560/140
f 141/561/141 151/562/141 152/563/141 139/564/141
f 139/565/142 152/566/142 153/567/142 140/568/142
f 142/569/143 154/570/143 151/571/143 141/572/143
f 140/573/144 153/574/144 155/575/144 143/576/144
f 144/577/145 156/578/145 154/579/145 142/580/145
f 143/581/146 155/582/146 157/583/146 147/584/146
f 147/585/147 157/586/147 158/587/147 148/588/147
f 148/589/148 158/590/148 156/591/148 144/592/148
f 151/593/149 159/594/149 160/595/149 152/596/149
f 152/597/150 160/598/150 161/599/150 153/600/150
f 154/601/151 162/602/151 159/603/151 151/604/151
f 153/605/152 161/606/152 163/607/152 155/608/152
f 156/609/153 164/610/153 162/611/153 154/612/153
f 155/613/154 163/614/154 165/615/154 157/616/154
f 157/617/155 165/618/155 166/619/155 158/620/155
f 158/621/156 166/622/156 164/623/156 156/624/156
o Thigh
v 0.2187500000000001 0.7031249999999999 -0.09000000000000012
v 0.2187500000000001 0.7031249999999999 0.08999999999999987
v 0.21250000000000008 0.37812499999999993 -0.09000000000000008
v 0.21250000000000008 0.37812499999999993 0.08999999999999991
v 0.05625000000000011 0.658125 -0.09000000000000011
v 0.05625000000000011 0.658125 0.08999999999999989
v 0.05625000000000008 0.37812499999999993 -0.09000000000000008
v 0.05625000000000008 0.37812499999999993 0.08999999999999991
v 0.2437500000000001 0.5666249999999999 -0.1125000000000001
v 0.2437500000000001 0.5666249999999999 0.1124999999999999
v 0.056250000000000105 0.5666249999999999 0.1124999999999999
v 0.056250000000000105 0.5666249999999999 -0.1125000000000001
v 0.13750000000000012 0.5666249999999999 -0.1125000000000001
v 0.13750000000000012 0.705625 -0.09000000000000012
v 0.13750000000000012 0.705625 0.08999999999999987
v 0.13750000000000012 0.5666249999999999 0.1124999999999999
v 0.1375000000000001 0.37812499999999993 0.08999999999999991
v 0.1375000000000001 0.37812499999999993 -0.09000000000000008
vt 0.0796875 0.7890625
vt 0.1078125 0.7890625
vt 0.105 0.765625
vt 0.0825 0.765625
vt 0.0953125 0.8245
vt 0.1234375 0.8245
vt 0.120625 0.8009375
vt 0.098125 0.8009375
vt 0.359375 1
vt 0.3828125 1
vt 0.3828125 0.9921875
vt 0.359375 0.9921875
vt 0.230859375 0.703125
vt 0.230859375 0.725625
vt 0.240234375 0.725625
vt 0.240234375 0.703125
vt 0.25234375 0.8984375
vt 0.25234375 0.9221671875
vt 0.265625 0.9221671875
vt 0.26171875 0.8984375
vt 0.25546875 0.9612296875
vt 0.25546875 0.9375
vt 0.24609375 0.9375
vt 0.2421875 0.9612296875
vt 0.303125 0.8671875
vt 0.275 0.8671875
vt 0.2778125 0.8828125
vt 0.3003125 0.8828125
vt 0.07966546875 0.71875
vt 0.07966546875 0.70114921875
vt 0.06638421875 0.70114921875
vt 0.06950921875 0.7184421875
vt 0.1234375 0.8245
vt 0.0953125 0.8245
vt 0.098125 0.8359375
vt 0.120625 0.8359375
vt 0.2953125 0.77146171875
vt 0.2953125 0.7890625
vt 0.305468984375 0.7887542187500001
vt 0.30859375 0.77146140625
vt 0.2953125 0.7890625
vt 0.2953125 0.77146171875
vt 0.28515625 0.77146171875
vt 0.28515625 0.7832015625
vt 0.296875 0.7578125
vt 0.3203125 0.7578125
vt 0.3203125 0.7421875
vt 0.296875 0.7421875
vt 0.07966546875 0.70114875
vt 0.07966546875 0.71875
vt 0.08986578125 0.7128887500000001
vt 0.089777578125 0.7011485937499999
vt 0.25546875 0.9375
vt 0.25546875 0.9612296875
vt 0.265625 0.9612296875
vt 0.265625 0.9375
vt 0.230859375 0.725625
vt 0.230859375 0.703125
vt 0.220703125 0.703125
vt 0.220703125 0.725625
vt 0.25234375 0.9221671875
vt 0.25234375 0.8984375
vt 0.2421875 0.8984375
vt 0.2421875 0.9221671875
vn 0.986535007574868 -0.16355023335127133 2.0029126977343716e-17
vn -1 1.2246467991473532e-16 -1.4997597826618576e-32
vn 0.030754675786974797 0.9995269630766537 -1.2240674959932985e-16
vn -1.2246467991473532e-16 -1 1.2246467991473532e-16
vn -1.451476526097007e-17 -0.11852205281617385 -0.9929514202599441
vn -1.4514765260970067e-17 -0.11852205281617359 0.9929514202599441
vn 0.9836384960749288 0.18015357070969382 -2.206244937245929e-17
vn 1.9568706904530698e-17 0.15979061814520895 0.9871509298748454
vn -1 1.2246467991473532e-16 -1.4997597826618576e-32
vn 0.004916574979921301 0.15978868684743822 -0.9871389987463967
vn 1.95687069045307e-17 0.15979061814520876 -0.9871509298748457
vn -0.5046965873311554 0.8632967941190823 -1.0572336556321058e-16
vn -0.09301110178732776 0.15909793726779775 0.9828717013432829
vn -1.451476526097007e-17 -0.11852205281617362 0.9929514202599441
vn -1.2246467991473532e-16 -1 1.2246467991473532e-16
vn -1.451476526097007e-17 -0.11852205281617387 -0.9929514202599441
usemtl m_560b2853-9d7a-f7a7-3613-5009d71d2e44
f 175/625/157 176/626/157 170/627/157 169/628/157
f 177/629/158 178/630/158 173/631/158 174/632/158
f 180/633/159 181/634/159 168/635/159 167/636/159
f 183/637/160 184/638/160 169/639/160 170/640/160
f 184/641/161 179/642/161 175/643/161 169/644/161
f 182/645/162 183/646/162 170/647/162 176/648/162
f 176/649/163 175/650/163 167/651/163 168/652/163
f 181/653/164 182/654/164 176/655/164 168/656/164
f 178/657/165 177/658/165 172/659/165 171/660/165
f 179/661/166 180/662/166 167/663/166 175/664/166
f 180/665/167 179/666/167 178/667/167 171/668/167
f 181/669/168 180/670/168 171/671/168 172/672/168
f 182/673/169 181/674/169 172/675/169 177/676/169
f 183/677/170 182/678/170 177/679/170 174/680/170
f 184/681/171 183/682/171 174/683/171 173/684/171
f 179/685/172 184/686/172 173/687/172 178/688/172
o Pelvis
v -0.13750000000000015 0.790625 -0.10036750000000012
v -0.13750000000000015 0.790625 0.10036749999999987
v -0.13750000000000012 0.66941625 -0.10036750000000011
v -0.13750000000000012 0.66941625 0.10036749999999989
v 0.13749999999999987 0.790625 -0.10036750000000012
v 0.13749999999999987 0.790625 0.10036749999999987
v 0.1374999999999999 0.66941625 -0.10036750000000011
v 0.1374999999999999 0.66941625 0.10036749999999989
v -0.04583312500000011 0.609375 -0.13125000000000012
v -0.04583312500000011 0.609375 0.1312499999999999
v 0.04583312499999989 0.609375 -0.13125000000000012
v 0.04583312499999989 0.609375 0.1312499999999999
v -0.045833125000000134 0.790625 0.13124999999999987
v 0.04583312499999987 0.790625 0.13124999999999987
v -0.045833125000000134 0.790625 -0.13125000000000014
v 0.04583312499999987 0.790625 -0.13125000000000014
v 0.04583312499999988 0.72544 0.1312499999999999
v -0.04583312500000013 0.72544 0.1312499999999999
v -0.13750000000000012 0.72544 0.10036749999999987
v -0.13750000000000012 0.72544 -0.10036750000000012
v -0.04583312500000013 0.72544 -0.13125000000000012
v 0.04583312499999988 0.72544 -0.13125000000000012
v 0.1374999999999999 0.72544 -0.10036750000000012
v 0.1374999999999999 0.72544 0.10036749999999987
v -0.14986812500000013 0.790625 -0.10925187500000012
v -0.1498681250000001 0.72544 0.10925187499999987
v -0.1498681250000001 0.72544 -0.10925187500000012
v 0.14986812499999985 0.790625 0.10925187499999987
v 0.14986812499999988 0.72544 -0.10925187500000012
v 0.14986812499999988 0.72544 0.10925187499999987
v 0.14986812499999985 0.790625 -0.10925187500000012
v 0.04882624999999988 0.72544 -0.1495093750000001
v 0.04882624999999987 0.790625 -0.14950937500000014
v 0.04882624999999987 0.790625 0.14950937499999986
v 0.04882624999999988 0.72544 0.1495093749999999
v -0.048826250000000126 0.72544 0.1495093749999999
v -0.04882625000000013 0.790625 0.14950937499999986
v -0.04882625000000013 0.790625 -0.14950937500000014
v -0.048826250000000126 0.72544 -0.1495093750000001
v -0.14986812500000013 0.790625 0.10925187499999987
vt 0.046875 0.9375
vt 0.046875 0.9296875
vt 0.0703125 0.9296875
vt 0.0703125 0.9375
vt 0.15625 0.9140625
vt 0.15625 0.90625
vt 0.1796875 0.90625
vt 0.1796875 0.9140625
vt 0.14296875 0.867203125
vt 0.15442734375 0.86334296875
vt 0.15442734375 0.89615546875
vt 0.14296875 0.8922953125
vt 0.22573515625 0.75
vt 0.221875 0.734375
vt 0.2546875 0.734375
vt 0.25082734375 0.75
vt 0.3828125 0.671875
vt 0.3828125 0.6640625
vt 0.3984375 0.6640625
vt 0.3984375 0.671875
vt 0.359375 0.6171875
vt 0.359375 0.609375
vt 0.375 0.609375
vt 0.375 0.6171875
vt 0.27261015625 1
vt 0.26875 0.984375
vt 0.3015625 0.984375
vt 0.29770234375 1
vt 0.109375 0.6796875
vt 0.1015625 0.6796875
vt 0.1015625 0.6484375
vt 0.109375 0.6484375
vt 0.3828125 0.6171875
vt 0.3828125 0.609375
vt 0.3984375 0.609375
vt 0.3984375 0.6171875
vt 0.296875 0.6171875
vt 0.296875 0.609375
vt 0.3125 0.609375
vt 0.3125 0.6171875
vt 0.17734375 0.8922953125
vt 0.16588515625 0.89615546875
vt 0.16588515625 0.86334296875
vt 0.17734375 0.867203125
vt 0.16588515625 0.89615546875
vt 0.15442734375 0.89615546875
vt 0.15442734375 0.86334296875
vt 0.16588515625 0.86334296875
vt 0.390625 1
vt 0.390625 0.9921875
vt 0.40625 0.9921875
vt 0.40625 1
vt 0.3203125 0.6171875
vt 0.3203125 0.609375
vt 0.3359375 0.609375
vt 0.3359375 0.6171875
vt 0.0078125 0.90625
vt 0.0078125 0.921875
vt 0 0.921875
vt 0 0.90625
vt 0.34375 0.7511171875
vt 0.34375 0.765625
vt 0.328125 0.765625
vt 0.328125 0.75862265625
vt 0.375 0.7421875
vt 0.375 0.75
vt 0.3515625 0.75
vt 0.3515625 0.7421875
vt 0.015625 0.65706015625
vt 0.015625 0.6640625
vt 0 0.6640625
vt 0 0.6495546875
vt 0.1796875 0.7890625
vt 0.1796875 0.8046875
vt 0.171875 0.8046875
vt 0.171875 0.7890625
vt 0.3515625 0.9854921875
vt 0.3515625 1
vt 0.3359375 1
vt 0.3359375 0.99299765625
vt 0.375 0.7265625
vt 0.375 0.734375
vt 0.3515625 0.734375
vt 0.3515625 0.7265625
vt 0.2265625 0.66487265625
vt 0.2265625 0.671875
vt 0.2109375 0.671875
vt 0.2109375 0.6573671875
vt 0.16326484375 0.96596953125
vt 0.16326484375 0.99328203125
vt 0.16171875 0.992171875
vt 0.16171875 0.9670796875
vt 0.17888984375 0.86609296875
vt 0.17888984375 0.89340546875
vt 0.17734375 0.8922953125
vt 0.17734375 0.867203125
vt 0.12579765625 0.99328203125
vt 0.12579765625 0.96596953125
vt 0.12734375 0.9670796875
vt 0.12734375 0.992171875
vt 0.14142265625 0.89340546875
vt 0.14142265625 0.86609296875
vt 0.14296875 0.867203125
vt 0.14296875 0.8922953125
vt 0.138428125 0.9983140625
vt 0.12579765625 0.99328203125
vt 0.12734375 0.992171875
vt 0.13880234375 0.99603203125
vt 0.14142265625 0.86609296875
vt 0.154053125 0.8610609375
vt 0.15442734375 0.86334296875
vt 0.14296875 0.867203125
vt 0.12579765625 0.96596953125
vt 0.138428125 0.9609375
vt 0.13880234375 0.96321953125
vt 0.12734375 0.9670796875
vt 0.154053125 0.8984375
vt 0.14142265625 0.89340546875
vt 0.14296875 0.8922953125
vt 0.15442734375 0.89615546875
vt 0.150634375 0.9609375
vt 0.16326484375 0.96596953125
vt 0.16171875 0.9670796875
vt 0.15026015625 0.96321953125
vt 0.17888984375 0.89340546875
vt 0.166259375 0.8984375
vt 0.16588515625 0.89615546875
vt 0.17734375 0.8922953125
vt 0.138428125 0.9609375
vt 0.150634375 0.9609375
vt 0.15026015625 0.96321953125
vt 0.13880234375 0.96321953125
vt 0.166259375 0.8984375
vt 0.154053125 0.8984375
vt 0.15442734375 0.89615546875
vt 0.16588515625 0.89615546875
vt 0.16326484375 0.99328203125
vt 0.150634375 0.9983140625
vt 0.15026015625 0.99603203125
vt 0.16171875 0.992171875
vt 0.166259375 0.8610609375
vt 0.17888984375 0.86609296875
vt 0.17734375 0.867203125
vt 0.16588515625 0.86334296875
vt 0.150634375 0.9983140625
vt 0.138428125 0.9983140625
vt 0.13880234375 0.99603203125
vt 0.15026015625 0.99603203125
vt 0.154053125 0.8610609375
vt 0.166259375 0.8610609375
vt 0.16588515625 0.86334296875
vt 0.15442734375 0.86334296875
vn -1 -1.2246467991473532e-16 1.4997597826618576e-32
vn 1 1.2246467991473532e-16 -1.4997597826618576e-32
vn -1.2246467991473532e-16 1 -1.2246467991473532e-16
vn 0.5479218088729881 -0.8365295519952374 1.0244532382431369e-16
vn 0.3701281373201301 -6.84397015917385e-17 -0.928980711298104
vn 0.3701281373201301 1.5909494932043238e-16 0.928980711298104
vn -0.5479218088729879 -0.8365295519952376 1.0244532382431371e-16
vn 1.2246467991473532e-16 -1 1.2246467991473532e-16
vn -0.3701281373201301 6.84397015917385e-17 0.928980711298104
vn 0 1.2246467991473532e-16 1
vn -1.2246467991473532e-16 1 -1.2246467991473532e-16
vn -1.2246467991473532e-16 1 -1.2246467991473532e-16
vn -0.3701281373201301 -1.5909494932043238e-16 -0.928980711298104
vn 0 -1.2246467991473532e-16 -1
vn 0 1.2246467991473532e-16 1
vn -0.3192674914318233 7.69564555946695e-17 0.9476646394768725
vn -1 -1.2246467991473532e-16 1.4997597826618576e-32
vn -0.3192674914318233 -1.55154437885427e-16 -0.9476646394768725
vn 0 -1.2246467991473532e-16 -1
vn 0.3192674914318233 -7.69564555946695e-17 -0.9476646394768725
vn 1 1.2246467991473532e-16 -1.4997597826618576e-32
vn 0.3192674914318233 1.55154437885427e-16 0.9476646394768725
vn 1.2246467991473532e-16 -1 1.2246467991473532e-16
vn -1.2246467991473532e-16 1 -1.2246467991473532e-16
vn 1.2246467991473532e-16 -1 1.2246467991473532e-16
vn -1.2246467991473532e-16 1 -1.2246467991473532e-16
vn 1.2246467991473532e-16 -1 1.2246467991473532e-16
vn -1.2246467991473532e-16 1 -1.2246467991473532e-16
vn 1.2246467991473532e-16 -1 1.2246467991473532e-16
vn -1.2246467991473532e-16 1 -1.2246467991473532e-16
vn 1.2246467991473532e-16 -1 1.2246467991473532e-16
vn -1.2246467991473532e-16 1 -1.2246467991473532e-16
vn 1.2246467991473532e-16 -1 1.2246467991473532e-16
vn -1.2246467991473532e-16 1 -1.2246467991473532e-16
vn 1.2246467991473532e-16 -1 1.2246467991473532e-16
vn -1.2246467991473532e-16 1 -1.2246467991473532e-16
vn 1.2246467991473532e-16 -1 1.2246467991473532e-16
vn -1.2246467991473532e-16 1 -1.2246467991473532e-16
usemtl m_560b2853-9d7a-f7a7-3613-5009d71d2e44
f 209/689/173 211/690/173 210/691/173 224/692/173
f 212/693/174 214/694/174 213/695/174 215/696/174
f 189/697/175 200/698/175 198/699/175 190/700/175
f 192/701/176 196/702/176 195/703/176 191/704/176
f 215/705/177 213/706/177 216/707/177 217/708/177
f 218/709/178 219/710/178 214/711/178 212/712/178
f 187/713/179 193/714/179 194/715/179 188/716/179
f 193/717/180 195/718/180 196/719/180 194/720/180
f 224/721/181 210/722/181 220/723/181 221/724/181
f 221/725/182 220/726/182 219/727/182 218/728/182
f 186/729/183 197/730/183 199/731/183 185/732/183
f 197/733/184 198/734/184 200/735/184 199/736/184
f 222/737/185 223/738/185 211/739/185 209/740/185
f 217/741/186 216/742/186 223/743/186 222/744/186
f 196/745/187 201/746/187 202/747/187 194/748/187
f 194/749/188 202/750/188 203/751/188 188/752/188
f 188/753/189 203/754/189 204/755/189 187/756/189
f 187/757/190 204/758/190 205/759/190 193/760/190
f 193/761/191 205/762/191 206/763/191 195/764/191
f 195/765/192 206/766/192 207/767/192 191/768/192
f 191/769/193 207/770/193 208/771/193 192/772/193
f 192/773/194 208/774/194 201/775/194 196/776/194
f 210/777/195 211/778/195 204/779/195 203/780/195
f 209/781/196 224/782/196 186/783/196 185/784/196
f 213/785/197 214/786/197 208/787/197 207/788/197
f 212/789/198 215/790/198 189/791/198 190/792/198
f 216/793/199 213/794/199 207/795/199 206/796/199
f 215/797/200 217/798/200 200/799/200 189/800/200
f 214/801/201 219/802/201 201/803/201 208/804/201
f 218/805/202 212/806/202 190/807/202 198/808/202
f 220/809/203 210/810/203 203/811/203 202/812/203
f 224/813/204 221/814/204 197/815/204 186/816/204
f 219/817/205 220/818/205 202/819/205 201/820/205
f 221/821/206 218/822/206 198/823/206 197/824/206
f 211/825/207 223/826/207 205/827/207 204/828/207
f 222/829/208 209/830/208 185/831/208 199/832/208
f 223/833/209 216/834/209 206/835/209 205/836/209
f 217/837/210 222/838/210 199/839/210 200/840/210
o Body
v -0.18125000000000013 0.923994375 -0.11160687500000015
v -0.18125000000000013 0.923994375 0.13660687499999985
v -0.13050000000000014 0.7968750000000001 -0.08928562500000012
v -0.13050000000000014 0.7968750000000001 0.08928562499999987
v 0.18124999999999986 0.923994375 -0.11160687500000015
v 0.18124999999999986 0.923994375 0.13660687499999985
v 0.13049999999999987 0.7968750000000001 -0.08928562500000012
v 0.13049999999999987 0.7968750000000001 0.08928562499999987
v -1.3088412665887338e-16 0.7968750000000001 0.12499999999999988
v -1.3088412665887338e-16 0.7968750000000001 -0.12500000000000014
v -1.4645176022920957e-16 0.923994375 -0.15625000000000014
v -0.17425000000000013 0.8636687500000001 -0.10803562500000014
v -0.17425000000000013 0.8636687500000001 0.10803562499999986
v -1.3906400187292823e-16 0.8636687500000001 0.14999999999999986
v 0.17424999999999985 0.8636687500000001 0.10803562499999986
v 0.17424999999999985 0.8636687500000001 -0.10803562500000014
v -1.3906400187292823e-16 0.8636687500000001 -0.15000000000000013
v 0.18124999999999983 1.0907675000000001 -0.11160687500000016
v -1.7178350272914764e-16 1.13084375 -0.15625000000000017
v -1.7178350272914764e-16 1.13084375 0.18124999999999983
v 0.18124999999999983 1.0907675000000001 0.13660687499999982
v -0.18125000000000016 1.0907675000000001 0.13660687499999982
v -0.18125000000000016 1.0907675000000001 -0.11160687500000016
v -0.11418750000000016 1.1074662499999999 0.07521374999999983
v -1.7178350272914764e-16 1.13084375 -0.10529875000000016
v -1.7178350272914764e-16 1.13084375 0.10529874999999983
v -0.11418750000000016 1.1074662499999999 -0.07521375000000016
v 0.11418749999999983 1.1074662499999999 -0.07521375000000016
v 0.11418749999999983 1.1074662499999999 0.07521374999999983
v -0.09769250000000018 1.1857743749999998 0.06065624999999982
v -1.7810153210637379e-16 1.1824343750000001 -0.08491875000000018
v -1.7810153210637379e-16 1.1824343750000001 0.08491874999999982
v -0.09769250000000018 1.1857743749999998 -0.06065625000000018
v 0.09769249999999982 1.1857743749999998 -0.06065625000000018
v 0.09769249999999982 1.1857743749999998 0.06065624999999982
v -1.7012127432057995e-16 1.1172706250000002 0.18124999999999983
v -0.15134375000000017 1.06376625 0.14520062499999983
v -0.15134375000000014 0.923994375 0.14520062499999986
v -0.15134375000000014 0.876089375 0.12187187499999987
v -1.4058508973789416e-16 0.876089375 0.15601562499999985
v 0.15134374999999986 0.876089375 0.12187187499999987
v 0.15134374999999986 0.923994375 0.14520062499999986
v 0.15134374999999983 1.06376625 0.14520062499999983
v -1.7012127432057995e-16 1.1172706250000002 0.2669362499999998
v -0.15134375000000017 1.06376625 0.23088687499999982
v -0.15134375000000014 0.923994375 0.22832624999999987
v -0.000015625000000146452 0.923994375 0.2643099999999998
v -0.15134375000000014 0.876089375 0.20243687499999985
v -0.00003187500000014059 0.876089375 0.23644937499999985
v 0.15134374999999986 0.876089375 0.20217437499999985
v 0.15134374999999986 0.923994375 0.22819562499999987
v 0.15134374999999983 1.06376625 0.23088687499999982
v 0.13469437499999987 0.8260893750000001 0.19710437499999986
v 0.016621249999999865 0.8260893750000001 0.22383874999999986
v 0.016646249999999866 0.8260893750000001 0.16110062499999986
v 0.13469437499999987 0.8260893750000001 0.13446812499999986
v -0.016674375000000137 0.8260893750000001 0.22385312499999985
v -0.13469750000000014 0.8260893750000001 0.19732312499999985
v -0.13469750000000014 0.8260893750000001 0.13448249999999987
v -0.016649375000000136 0.8260893750000001 0.16111499999999987
v -0.028534375000000136 0.8260893750000001 0.21487687499999986
v -0.12283500000000014 0.8260893750000001 0.19367937499999985
v -0.12283500000000014 0.8260893750000001 0.14346937499999987
v -0.028514375000000137 0.8260893750000001 0.16474874999999986
v 0.12282937499999987 0.8260893750000001 0.19349124999999986
v 0.028488749999999865 0.8260893750000001 0.21485187499999986
v 0.028508749999999864 0.8260893750000001 0.16472374999999986
v 0.12282937499999987 0.8260893750000001 0.14344437499999987
v -0.02853437500000014 0.851089375 0.21487687499999986
v -0.12283500000000014 0.851089375 0.19367937499999985
v -0.12283500000000014 0.851089375 0.14346937499999987
v -0.02851437500000014 0.851089375 0.16474874999999986
v 0.12282937499999987 0.851089375 0.19349124999999986
v 0.02848874999999986 0.851089375 0.21485187499999986
v 0.02850874999999986 0.851089375 0.16472374999999986
v 0.12282937499999987 0.851089375 0.14344437499999987
v -0.15134375000000014 0.9365037500000001 0.20386249999999986
v -0.15134375000000017 1.051256875 0.20386249999999984
v -0.15134375000000017 1.051256875 0.17150187499999983
v -0.15134375000000014 0.9365037500000001 0.17150187499999986
v 0.15134374999999983 1.051256875 0.20383499999999982
v 0.15134374999999986 0.9365037500000001 0.20383499999999985
v 0.15134374999999986 0.9365037500000001 0.17149937499999987
v 0.15134374999999983 1.051256875 0.17149937499999984
v -0.20759375000000013 0.9052537500000001 0.18983812499999986
v -0.20759375000000013 0.9052537500000001 0.17931249999999987
v 0.20759374999999985 0.9052537500000001 0.18982937499999986
v 0.20759374999999985 0.9052537500000001 0.17931187499999987
v 0.16384374999999984 1.051256875 0.19135374999999982
v 0.16384374999999984 1.051256875 0.18083624999999984
v -0.16384375000000018 1.051256875 0.18083749999999985
v -0.16384375000000018 1.051256875 0.19136249999999982
v -0.13593750000000016 1.0540837500000002 -0.16651812500000016
v -1.6545054796905687e-16 1.07913125 -0.20000000000000018
v -1.527846384488754e-16 0.9757062500000001 -0.20000000000000018
v -0.13593750000000013 0.9706968750000001 -0.16651812500000013
v 0.13593749999999982 1.0540837500000002 -0.16651812500000016
v 0.13593749999999985 0.9706968750000001 -0.16651812500000013
vt 0.3627234375 0.96875
vt 0.3650671875 0.9765625
vt 0.3380578125 0.9765625
vt 0.3404015625 0.96875
vt 0.3627234375 0.6796875
vt 0.3650671875 0.6875
vt 0.3380578125 0.6875
vt 0.3404015625 0.6796875
vt 0.19163671875 0.75
vt 0.18860390625 0.73778125
vt 0.20983359375 0.73778125
vt 0.20680078125 0.75
vt 0.08271875 0.8314734375
vt 0.06640625 0.8359375
vt 0.06640625 0.8046875
vt 0.08271875 0.8091515625
vt 0.36241953125 0.8671875
vt 0.3671875 0.87626328125
vt 0.34478359375 0.87626328125
vt 0.34551484375 0.86739140625
vt 0.02172328125 0.6954906249999999
vt 0.02245453125 0.704375
vt 0.000050625 0.704375
vt 0.00481859375 0.6953125
vt 0.292077265625 0.6953125
vt 0.296845234375 0.70438828125
vt 0.274441328125 0.70438828125
vt 0.275172578125 0.69551640625
vt 0.05009375 0.8091515625
vt 0.06640625 0.8046875
vt 0.06640625 0.8359375
vt 0.05009375 0.8314734375
vt 0.36542265625 0.843928125
vt 0.36615390625 0.8528125
vt 0.34375 0.8528125
vt 0.34851796875 0.84375
vt 0.20680078125 0.7255625
vt 0.20983359375 0.73778125
vt 0.18860390625 0.73778125
vt 0.19163671875 0.7255625
vt 0.00011171875 0.7760281250000001
vt 0.0005578125 0.7684375
vt 0.0275671875 0.7684375
vt 0.03113828125 0.7760281250000001
vt 0.36008515625 0.7811382812500001
vt 0.359375 0.7734375
vt 0.3787609375 0.7734375
vt 0.3795265625 0.78125
vt 0.3671875 0.645206640625
vt 0.359375 0.64440125
vt 0.359484921875 0.625
vt 0.3671875 0.6257571093750001
vt 0.13292421875 0.7838406250000001
vt 0.1364953125 0.77625
vt 0.1635046875 0.77625
vt 0.16395078125 0.7838406250000001
vt 0.359375 0.96092734375
vt 0.36012109375 0.953125
vt 0.382525 0.953125
vt 0.3827078125 0.9609375
vt 0.023549296875 0.640933828125
vt 0.023549296875 0.6333527343750001
vt 0.045946640625 0.6328125
vt 0.046875 0.64035875
vt 0.3515625 0.828125
vt 0.3359375 0.82499375
vt 0.3359375 0.81457109375
vt 0.3515625 0.815196875
vt 0.054663515625 0.7127868749999999
vt 0.035236796875 0.7195343750000001
vt 0.035236796875 0.695372578125
vt 0.0546875 0.6953125
vt 0.16395078125 0.8046875
vt 0.13292421875 0.8046875
vt 0.13292421875 0.7838406250000001
vt 0.16395078125 0.7838406250000001
vt 0.297680859375 0.95314859375
vt 0.290911875 0.9725678125
vt 0.2734375 0.9725678125
vt 0.27351984375 0.953125
vt 0.3203125 0.66093125
vt 0.3046875 0.6640625
vt 0.3046875 0.651134375
vt 0.3203125 0.6505085937499999
vt 0.03113828125 0.796875
vt 0.00011171875 0.796875
vt 0.00011171875 0.7760281250000001
vt 0.03113828125 0.7760281250000001
vt 0.2225490625 0.8515510937499999
vt 0.2187715625 0.8369859374999999
vt 0.226442421875 0.8283441406250001
vt 0.23203625 0.851541796875
vt 0.1999684375 0.83699296875
vt 0.1962075 0.8515625
vt 0.18983875 0.8515625
vt 0.19541921875 0.82836171875
vt 0.2187715625 0.8369859374999999
vt 0.1999684375 0.83699296875
vt 0.195416015625 0.828355625
vt 0.226442578125 0.8283440625
vt 0.22567828125 0.88279875
vt 0.22189453125 0.8682345312499999
vt 0.226439609375 0.859593984375
vt 0.23203828125 0.88279046875
vt 0.20309140625 0.86824296875
vt 0.19933046875 0.8828125
vt 0.18983671875 0.8828125
vt 0.1954171875 0.85961171875
vt 0.22189453125 0.8682345312499999
vt 0.20309140625 0.86824296875
vt 0.19541328125 0.85960734375
vt 0.22643984375 0.8595934375000001
vt 0.21882015625 0.6144408593749999
vt 0.206534140625 0.6171875
vt 0.203125 0.609375
vt 0.218140859375 0.609375
vt 0.2890625 0.620497109375
vt 0.286451171875 0.6328125
vt 0.27954484375 0.63219421875
vt 0.27954484375 0.617213984375
vt 0.39430078125 0.6484375
vt 0.37913671875 0.6484375
vt 0.3773171875 0.640625
vt 0.3961203125 0.640625
vt 0.39850765625 0.794128359375
vt 0.386221640625 0.796875
vt 0.3828125 0.7890625
vt 0.397828359375 0.7890625
vt 0.1796875 0.612684609375
vt 0.177076171875 0.625
vt 0.17016984375 0.62438171875
vt 0.17016984375 0.609401484375
vt 0.39430078125 0.6328125
vt 0.37913671875 0.6328125
vt 0.3773171875 0.625
vt 0.3961203125 0.625
vt 0.175775234375 0.772865625
vt 0.195222890625 0.7795531250000001
vt 0.195222890625 0.78125
vt 0.171890078125 0.776240625
vt 0.17576484375 0.75539375
vt 0.175775234375 0.772865625
vt 0.171887421875 0.77624296875
vt 0.171875 0.7553960937499999
vt 0.00323921875 0.7062272656249999
vt 0.00388875 0.7128553125
vt 0 0.7127637499999999
vt 0.0000521875 0.7043759375
vt 0.022632265625 0.7060696875
vt 0.00323921875 0.7062272656249999
vt 0.000050625 0.704375
vt 0.022452890625 0.704375
vt 0.293658515625 0.706224140625
vt 0.27426515625 0.706104375
vt 0.274441328125 0.70438828125
vt 0.296843359375 0.70438828125
vt 0.292989921875 0.712850625
vt 0.293658515625 0.706224140625
vt 0.296853984375 0.704382109375
vt 0.296875 0.7127703125
vt 0.000089140625 0.9358046875
vt 0.019534453125 0.92911171875
vt 0.023421953125 0.93248984375
vt 0.000089140625 0.9375
vt 0.019534453125 0.92911171875
vt 0.01954765625 0.91163984375
vt 0.0234375 0.9116428125
vt 0.02342171875 0.9324896874999999
vt 0.05729703125 0.6328125
vt 0.077862421875 0.6328125
vt 0.07551546875 0.640625
vt 0.054950078125 0.640625
vt 0.3771990625 0.8515625
vt 0.3962515625 0.8515625
vt 0.3962384375 0.859375
vt 0.3771859375 0.859375
vt 0.323569921875 0.97653984375
vt 0.326805859375 0.982528125
vt 0.316415234375 0.982528125
vt 0.313498828125 0.97653984375
vt 0.110458203125 0.578125
vt 0.122540546875 0.578125
vt 0.123916796875 0.5859375
vt 0.111829765625 0.58592734375
vt 0.024288515625 0.558966328125
vt 0.024288515625 0.546875
vt 0.030398984375 0.548260625
vt 0.030390390625 0.560347578125
vt 0.040398046875 0.670028125
vt 0.043650390625 0.66403984375
vt 0.053688671875 0.66403984375
vt 0.050772265625 0.670028125
vt 0.09375 1
vt 0.09375 0.979434609375
vt 0.1015625 0.97708765625
vt 0.1015625 0.997653046875
vt 0.234375 0.6328125
vt 0.234375 0.61376
vt 0.2421875 0.613746796875
vt 0.2421875 0.632799375
vt 0.38141484375 0.9765625
vt 0.39654765625 0.9765625
vt 0.3984375 0.984375
vt 0.3790359375 0.984375
vt 0.4487328125 0.9921875
vt 0.456575 0.9921875
vt 0.45815234375 1
vt 0.44809765625 1
vt 0.0298578125 0.6171875
vt 0.04498515625 0.6171875
vt 0.046875 0.625
vt 0.02748125 0.625
vt 0.448739453125 0.9765625
vt 0.456569140625 0.9765625
vt 0.458144140625 0.984375
vt 0.448105859375 0.984375
vt 0.11126484375 0.6171875
vt 0.1263859375 0.6171875
vt 0.1287609375 0.625
vt 0.109375 0.625
vt 0.441853515625 0.578125
vt 0.449708984375 0.578125
vt 0.450348046875 0.5859375
vt 0.440276953125 0.5859375
vt 0.05657734375 0.6171875
vt 0.0717046875 0.6171875
vt 0.07408125 0.625
vt 0.0546875 0.625
vt 0.44185859375 0.5625
vt 0.4497015625 0.5625
vt 0.45033984375 0.5703125
vt 0.44028515625 0.5703125
vt 0.3340203125 0.628771875
vt 0.32223203125 0.62612265625
vt 0.32075 0.625
vt 0.335503125 0.62831640625
vt 0.3340203125 0.6350484375000001
vt 0.3340203125 0.628771875
vt 0.335503125 0.62831640625
vt 0.335503125 0.636171875
vt 0.3222296875 0.63238828125
vt 0.3340203125 0.6350484375000001
vt 0.335503125 0.636171875
vt 0.320746875 0.63284296875
vt 0.32223203125 0.62612265625
vt 0.3222296875 0.63238828125
vt 0.320746875 0.63284296875
vt 0.32075 0.625
vt 0.31058359375 0.6261234375
vt 0.298790625 0.62879296875
vt 0.2973078125 0.62834140625
vt 0.3120671875 0.625
vt 0.31058125 0.6323890624999999
vt 0.31058359375 0.6261234375
vt 0.3120671875 0.625
vt 0.3120640625 0.6328421875
vt 0.298790625 0.63504921875
vt 0.31058125 0.6323890624999999
vt 0.3120640625 0.6328421875
vt 0.2973078125 0.63617109375
vt 0.298790625 0.62879296875
vt 0.298790625 0.63504921875
vt 0.2973078125 0.63617109375
vt 0.2973078125 0.62834140625
vt 0.265625 0.6171875
vt 0.25 0.6171875
vt 0.25 0.609375
vt 0.265625 0.609375
vt 0.1484375 0.984375
vt 0.140625 0.984375
vt 0.140625 0.9765625
vt 0.1484375 0.9765625
vt 0.3984375 0.75
vt 0.3828125 0.75
vt 0.3828125 0.7421875
vt 0.3984375 0.7421875
vt 0.140625 0.703125
vt 0.1328125 0.703125
vt 0.1328125 0.6953125
vt 0.140625 0.6953125
vt 0.3984375 0.71875
vt 0.3828125 0.71875
vt 0.3828125 0.7109375
vt 0.3984375 0.7109375
vt 0.2578125 0.7265625
vt 0.25 0.7265625
vt 0.25 0.71875
vt 0.2578125 0.71875
vt 0.3984375 0.734375
vt 0.3828125 0.734375
vt 0.3828125 0.7265625
vt 0.3984375 0.7265625
vt 0.1953125 0.765625
vt 0.1875 0.765625
vt 0.1875 0.7578125
vt 0.1953125 0.7578125
vt 0.323748046875 0.9984359375
vt 0.323748046875 0.9840921875
vt 0.326805859375 0.982528125
vt 0.327126171875 1
vt 0.319702734375 0.9984359375
vt 0.323748046875 0.9984359375
vt 0.327126171875 1
vt 0.316415234375 1
vt 0.319702734375 0.9840921875
vt 0.319702734375 0.9984359375
vt 0.316415234375 1
vt 0.316415234375 0.982528125
vt 0.323748046875 0.9840921875
vt 0.319702734375 0.9840921875
vt 0.316415234375 0.982528125
vt 0.326805859375 0.982528125
vt 0.043442578125 0.6715921874999999
vt 0.043442578125 0.6859359375
vt 0.040061328125 0.6875
vt 0.040398046875 0.670028125
vt 0.047484765625 0.6715921874999999
vt 0.043442578125 0.6715921874999999
vt 0.040398046875 0.670028125
vt 0.050772265625 0.670028125
vt 0.047484765625 0.6859359375
vt 0.047484765625 0.6715921874999999
vt 0.050772265625 0.670028125
vt 0.050772265625 0.6875
vt 0.043442578125 0.6859359375
vt 0.047484765625 0.6859359375
vt 0.050772265625 0.6875
vt 0.040061328125 0.6875
vt 0.4253034375 0.6171875
vt 0.40625 0.6171875
vt 0.412027421875 0.6113229687499999
vt 0.4257678125 0.6153040625
vt 0.4921875 0.981496875
vt 0.4921875 0.9828125
vt 0.484375 0.984375
vt 0.484375 0.9803296875
vt 0.1953125 0.6133227343750001
vt 0.1953125 0.632375703125
vt 0.19065796875 0.6328125
vt 0.1875 0.619073125
vt 0.080055 0.50028015625
vt 0.08134046875 0.5
vt 0.0840075 0.507651328125
vt 0.080055 0.508512734375
vt 0.375 0.89454546875
vt 0.375 0.9135984375
vt 0.37014125 0.9140625
vt 0.3671875 0.9003232812499999
vt 0.456681640625 0.887960078125
vt 0.45696125 0.8828125
vt 0.465193359375 0.8828125
vt 0.464333671875 0.890625
vt 0.43311578125 1
vt 0.4140625 1
vt 0.419812890625 0.994291640625
vt 0.433552890625 0.998315859375
vt 0.1171875 0.51406484375
vt 0.1171875 0.51275
vt 0.125 0.5115828124999999
vt 0.125 0.515625
vt 0.147802421875 0.65625
vt 0.147802421875 0.6384725
vt 0.1556453125 0.632250078125
vt 0.15625 0.65610171875
vt 0.2421875 0.6479707031249999
vt 0.2421875 0.66548171875
vt 0.234375 0.66394375
vt 0.23501703125 0.640625
vt 0.125 0.9172890625
vt 0.125 0.90686640625
vt 0.1328125 0.901028125
vt 0.1328125 0.921875
vt 0.357784609375 0.7578125
vt 0.3755625 0.7578125
vt 0.375413671875 0.765625
vt 0.3515625 0.764985
vt 0.1640625 0.75061640625
vt 0.1640625 0.7610390625
vt 0.15625 0.765625
vt 0.15625 0.7447781250000001
vt 0.3686071875 0.93018109375
vt 0.351096015625 0.93018109375
vt 0.34375 0.92247953125
vt 0.36706890625 0.921875
vn -0.8365267002072169 -0.5479261627632188 6.710160213970675e-17
vn 0.8365267002072169 -0.5479261627632185 6.710160213970672e-17
vn 0.03416894518508485 0.9994160711059927 -1.2239316924963775e-16
vn 1.2246467991473532e-16 -1 1.2246467991473532e-16
vn -0.2153826060657661 -0.3921304613340569 -0.8943399992722338
vn -0.22002066383853808 -0.3419476946128924 0.9135987530819957
vn 0.2153826060657662 -0.39213046133405666 0.8943399992722338
vn 1.2246467991473532e-16 -1 1.2246467991473532e-16
vn 0.2200206638385382 -0.34194769461289265 -0.9135987530819957
vn -0.0341689451850851 0.9994160711059927 -1.2239316924963775e-16
vn -0.9933349475848973 -0.11526353242248716 1.4115711603961605e-17
vn -0.1939961728318843 -0.46641052489739915 0.8630334334146706
vn 0.1920780288257328 -0.49342771233734206 0.84831310466122
vn 0.9933349475848972 -0.11526353242248688 1.411571160396157e-17
vn 0.2332987338274069 -0.08441986920258697 -0.9687337025614144
vn -0.2329557919184736 -0.10021753753474894 -0.967309694039147
vn 0.23915600681894067 -8.962273259096078e-17 -0.9709811555341427
vn 0.2272572810575409 -0.013249675989059767 0.9737446145127167
vn 1 1.2246467991473532e-16 -1.4997597826618576e-32
vn -0.2257016437259333 -0.01784431477297634 0.9740330325249217
vn -0.23915600681894067 -1.4819906024049644e-16 -0.9709811555341427
vn -1 -1.2246467991473532e-16 1.4997597826618576e-32
vn -0.20970348553025633 0.9770762787441063 0.036693237415513814
vn -0.20056888783568405 0.9796796013148161 -1.1997614879401448e-16
vn -0.2416247824474256 0.9703697565913906 -1.1883602163990427e-16
vn 0.21380790657862603 0.9754058015972427 -0.053569593006723905
vn 0.20056888783568386 0.9796796013148161 -1.1997614879401448e-16
vn 0.24162478244742538 0.9703697565913906 -1.1883602163990427e-16
vn -0.22767817438063123 0.22411660597400726 0.9475940036943009
vn -0.21339377158232672 0.35894214149293086 -0.908638342417014
vn -0.9785269085605035 0.2061191141622342 -2.5242311340186795e-17
vn 0.22767817438063118 0.2241166059740071 -0.9475940036943009
vn 0.2133937715823266 0.3589421414929311 0.908638342417014
vn 0.9785269085605035 0.2061191141622344 -2.5242311340186826e-17
vn -0.2317126736968035 9.075509589112172e-17 0.9727842704568567
vn -0.27617987509478575 8.387925440588867e-17 0.9611059653298532
vn -0.25013785668827404 -0.4239057356074231 0.8704797412751925
vn -0.1819162636520881 -0.5627632957822515 0.806352246812249
vn 0.19898303028440967 -0.42717577783112737 0.882001478736405
vn 0.2923120018011681 -0.4187012226144292 0.8597924050514614
vn 0.24421070978204812 0.03791495943571669 0.9689806938627501
vn 0.27617987509478575 1.5152381441063768e-16 0.9611059653298532
vn -0.3333127286245705 0.9428163261934128 -1.1546169960566297e-16
vn -0.9579182172624425 0.28704126713200023 -3.515241690164045e-17
vn -1 -1.2246467991473532e-16 1.4997597826618576e-32
vn 1.2246467991473532e-16 -1 1.2246467991473532e-16
vn 1.2246467991473532e-16 -1 1.2246467991473532e-16
vn 1 1.2246467991473532e-16 -1.4997597826618576e-32
vn 0.3333127286245704 0.9428163261934128 -1.1546169960566297e-16
vn 0.9579182172624423 0.2870412671320004 -3.5152416901640466e-17
vn 0.2176207296077709 -0.16992337416856856 0.9611281209891583
vn -0.948788872930805 -0.3159106387286197 -0.0003780750831056615
vn -0.21687376229616948 -0.1699658333221083 -0.9612894396229608
vn 0.9487816881885415 -0.31593244239568286 3.8690565432667856e-17
vn -0.21611134649499494 -0.17026987989517886 0.9614073298641953
vn -0.9487994619061009 -0.3158790608550899 3.868402807938578e-17
vn 0.2168634082334028 -0.1702383875099606 -0.9612435454074066
vn 0.9487931778709989 -0.3158977092088286 0.00037807679854598924
vn 1.2246467991473532e-16 -1 1.2246467991473532e-16
vn 1.2246467991473532e-16 -1 1.2246467991473532e-16
vn 1.2246467991473532e-16 -1 1.2246467991473532e-16
vn 1.2246467991473532e-16 -1 1.2246467991473532e-16
vn 1.2246467991473532e-16 -1 1.2246467991473532e-16
vn 1.2246467991473532e-16 -1 1.2246467991473532e-16
vn 1.2246467991473532e-16 -1 1.2246467991473532e-16
vn 1.2246467991473532e-16 -1 1.2246467991473532e-16
vn 0.21931385226497735 -9.262499843846907e-17 -0.9756543620589702
vn 1 1.2246467991473532e-16 -1.4997597826618576e-32
vn -0.22007556543250825 9.251070847603385e-17 0.9754828268604026
vn -0.9999999204084391 -1.2251353083019936e-16 -0.00039897758809386886
vn -0.22083040727430653 -1.4648522427921553e-16 -0.9753122224308808
vn 0.9999999204084391 1.2251353083019936e-16 0.00039897758809386886
vn 0.22007556543250822 1.4641367583152687e-16 0.9754828268604026
vn -1 -1.2246467991473532e-16 1.4997597826618576e-32
vn -1 -1.2246467991473532e-16 1.4997597826618576e-32
vn -1 -1.2246467991473532e-16 1.4997597826618576e-32
vn -1 -1.2246467991473532e-16 1.4997597826618576e-32
vn -1 -1.2246467991473532e-16 1.4997597826618576e-32
vn 1 1.2246467991473532e-16 -1.4997597826618576e-32
vn 1 1.2246467991473532e-16 -1.4997597826618576e-32
vn 1 1.2246467991473532e-16 -1.4997597826618576e-32
vn 1 1.2246467991473532e-16 -1.4997597826618576e-32
vn -0.2796699177127601 0.0738089916966319 0.9572549137357639
vn -1.2246467991473532e-16 1 -1.2246467991473532e-16
vn -0.5881158947087917 0.18445461177174538 -0.7874618661160758
vn 0.48564293117863233 -0.8741572761215378 1.0705339101536103e-16
vn 0.6922710950583928 0.20020115568896663 0.6933110616508696
vn -0.485642931178632 -0.8741572761215379 1.0705339101536104e-16
vn 0.17070622935286886 0.06141975915253734 -0.9834058147305059
vn -1.2246467991473532e-16 1 -1.2246467991473532e-16
vn -0.2917800769726099 0.666499554156427 -0.6860340596436462
vn -0.16206329854658286 -0.6373504667039791 -0.7533391466374368
vn -0.7712993657694701 -1.7240233527401732e-16 -0.6364725354354367
vn 0.29352117988439114 0.6174347880960627 -0.7298079195295467
vn 0.7712993657694701 1.6511524620775734e-17 -0.6364725354354367
vn 0.14928914483829342 -0.6890142048043986 -0.7092053135807806
usemtl m_560b2853-9d7a-f7a7-3613-5009d71d2e44
f 228/841/211 237/842/211 236/843/211 227/844/211
f 231/845/212 240/846/212 239/847/212 232/848/212
f 254/849/213 256/850/213 255/851/213 257/852/213
f 227/853/214 234/854/214 233/855/214 228/856/214
f 227/857/215 236/858/215 241/859/215 234/860/215
f 233/861/216 238/862/216 237/863/216 228/864/216
f 232/865/217 239/866/217 238/867/217 233/868/217
f 232/869/218 233/870/218 234/871/218 231/872/218
f 234/873/219 241/874/219 240/875/219 231/876/219
f 258/877/220 255/878/220 256/879/220 259/880/220
f 225/881/221 236/882/221 237/883/221 226/884/221
f 270/885/222 272/886/222 273/887/222 271/888/222
f 271/889/223 273/890/223 274/891/223 275/892/223
f 230/893/224 239/894/224 240/895/224 229/896/224
f 229/897/225 240/898/225 241/899/225 235/900/225
f 235/901/226 241/902/226 236/903/226 225/904/226
f 318/905/227 321/906/227 322/907/227 319/908/227
f 276/909/228 268/910/228 271/911/228 275/912/228
f 242/913/229 245/914/229 230/915/229 229/916/229
f 268/917/230 269/918/230 270/919/230 271/920/230
f 317/921/231 318/922/231 319/923/231 320/924/231
f 246/925/232 247/926/232 225/927/232 226/928/232
f 250/929/233 248/930/233 246/931/233 244/932/233
f 251/933/234 249/934/234 243/935/234 247/936/234
f 248/937/235 251/938/235 247/939/235 246/940/235
f 249/941/236 252/942/236 242/943/236 243/944/236
f 253/945/237 250/946/237 244/947/237 245/948/237
f 252/949/238 253/950/238 245/951/238 242/952/238
f 256/953/239 254/954/239 248/955/239 250/956/239
f 257/957/240 255/958/240 249/959/240 251/960/240
f 254/961/241 257/962/241 251/963/241 248/964/241
f 255/965/242 258/966/242 252/967/242 249/968/242
f 259/969/243 256/970/243 250/971/243 253/972/243
f 258/973/244 259/974/244 253/975/244 252/976/244
f 261/977/245 260/978/245 244/979/245 246/980/245
f 262/981/246 261/982/246 246/983/246 226/984/246
f 263/985/247 262/986/247 226/987/247 237/988/247
f 264/989/248 263/990/248 237/991/248 238/992/248
f 265/993/249 264/994/249 238/995/249 239/996/249
f 266/997/250 265/998/250 239/999/250 230/1000/250
f 260/1001/251 267/1002/251 245/1003/251 244/1004/251
f 267/1005/252 266/1006/252 230/1007/252 245/1008/252
f 269/1009/253 268/1010/253 260/1011/253 261/1012/253
f 309/1013/254 316/1014/254 315/1015/254 310/1016/254
f 272/1017/255 270/1018/255 262/1019/255 263/1020/255
f 293/1021/256 294/1022/256 295/1023/256 296/1024/256
f 297/1025/257 298/1026/257 299/1027/257 300/1028/257
f 275/1029/258 274/1030/258 265/1031/258 266/1032/258
f 268/1033/259 276/1034/259 267/1035/259 260/1036/259
f 313/1037/260 311/1038/260 312/1039/260 314/1040/260
f 278/1041/261 277/1042/261 274/1043/261 273/1044/261
f 279/1045/262 278/1046/262 273/1047/262 264/1048/262
f 280/1049/263 279/1050/263 264/1051/263 265/1052/263
f 277/1053/264 280/1054/264 265/1055/264 274/1056/264
f 282/1057/265 281/1058/265 273/1059/265 272/1060/265
f 283/1061/266 282/1062/266 272/1063/266 263/1064/266
f 284/1065/267 283/1066/267 263/1067/267 264/1068/267
f 281/1069/268 284/1070/268 264/1071/268 273/1072/268
f 286/1073/269 285/1074/269 281/1075/269 282/1076/269
f 287/1077/270 286/1078/270 282/1079/270 283/1080/270
f 288/1081/271 287/1082/271 283/1083/271 284/1084/271
f 285/1085/272 288/1086/272 284/1087/272 281/1088/272
f 290/1089/273 289/1090/273 277/1091/273 278/1092/273
f 291/1093/274 290/1094/274 278/1095/274 279/1096/274
f 292/1097/275 291/1098/275 279/1099/275 280/1100/275
f 289/1101/276 292/1102/276 280/1103/276 277/1104/276
f 294/1105/277 293/1106/277 285/1107/277 286/1108/277
f 295/1109/278 294/1110/278 286/1111/278 287/1112/278
f 296/1113/279 295/1114/279 287/1115/279 288/1116/279
f 293/1117/280 296/1118/280 288/1119/280 285/1120/280
f 298/1121/281 297/1122/281 289/1123/281 290/1124/281
f 299/1125/282 298/1126/282 290/1127/282 291/1128/282
f 300/1129/283 299/1130/283 291/1131/283 292/1132/283
f 297/1133/284 300/1134/284 292/1135/284 289/1136/284
f 302/1137/285 301/1138/285 270/1139/285 269/1140/285
f 303/1141/286 302/1142/286 269/1143/286 261/1144/286
f 304/1145/287 303/1146/287 261/1147/287 262/1148/287
f 301/1149/288 304/1150/288 262/1151/288 270/1152/288
f 306/1153/289 305/1154/289 276/1155/289 275/1156/289
f 307/1157/290 306/1158/290 275/1159/290 266/1160/290
f 308/1161/291 307/1162/291 266/1163/291 267/1164/291
f 305/1165/292 308/1166/292 267/1167/292 276/1168/292
f 316/1169/293 309/1170/293 301/1171/293 302/1172/293
f 315/1173/294 316/1174/294 302/1175/294 303/1176/294
f 310/1177/295 315/1178/295 303/1179/295 304/1180/295
f 309/1181/296 310/1182/296 304/1183/296 301/1184/296
f 311/1185/297 313/1186/297 305/1187/297 306/1188/297
f 312/1189/298 311/1190/298 306/1191/298 307/1192/298
f 314/1193/299 312/1194/299 307/1195/299 308/1196/299
f 313/1197/300 314/1198/300 308/1199/300 305/1200/300
f 318/1201/301 317/1202/301 247/1203/301 243/1204/301
f 320/1205/302 319/1206/302 235/1207/302 225/1208/302
f 317/1209/303 320/1210/303 225/1211/303 247/1212/303
f 321/1213/304 318/1214/304 243/1215/304 242/1216/304
f 322/1217/305 321/1218/305 242/1219/305 229/1220/305
f 319/1221/306 322/1222/306 229/1223/306 235/1224/306