# Made in Blockbench 5.1.5
mtllib Charge Head.mtl

o sphere
v -0.209090625 1.3619225 0.082236875
v -0.128285 1.38826125 0.182355625
v 0.12821 1.3882612499999998 0.182355625
v 0.209090625 1.3619225 0.082236875
v -0.209090625 1.404223125 0.056851875
v -0.128285 1.476181875 0.130144375
v 0.12821 1.476181875 0.130144375
v 0.209090625 1.404223125 0.056851875
v -0.209090625 1.428645625 0.012884375
v -0.12828499999999998 1.5269431249999998 0.03971125
v 0.12821000000000002 1.5269431249999998 0.03971125
v 0.209090625 1.428645625 0.012884375
v -0.209090625 1.428645625 -0.037884375
v -0.12828499999999998 1.5269431249999998 -0.06471125
v 0.12821000000000002 1.5269431249999998 -0.06471125
v 0.209090625 1.428645625 -0.037884375
v -0.209090625 1.404223125 -0.081851875
v -0.128285 1.476181875 -0.155144375
v 0.12821 1.476181875 -0.155144375
v 0.209090625 1.404223125 -0.081851875
v -0.209090625 1.3619225 -0.107236875
v -0.128285 1.384375 -0.18525625
v -1.3530843112619095e-17 1.3546874999999998 -0.20625
v 0.12821 1.384375 -0.18525625
v 0.209090625 1.3619225 -0.107236875
v -0.20909062500000003 1.3130775 -0.107236875
v -0.12828500000000004 1.29298875 -0.18525625
v -2.8974322940911176e-17 1.2851362499999999 -0.20625
v 0.12820999999999996 1.29298875 -0.18525625
v 0.20909062499999997 1.3130775 -0.107236875
v -0.20909062500000003 1.270776875 -0.081851875
v -0.12828500000000007 1.1988181249999998 -0.167644375
v -5.706796146753846e-17 1.1586137499999998 -0.1892625
v 0.12820999999999994 1.1988181249999998 -0.167644375
v 0.20909062499999997 1.270776875 -0.081851875
v -0.20909062500000003 1.246354375 -0.037884375
v -0.12828500000000007 1.148056875 -0.06471125
v 0.12820999999999994 1.148056875 -0.06471125
v 0.20909062499999997 1.246354375 -0.037884375
v -0.20909062500000003 1.246354375 0.012884375
v -0.12828500000000007 1.148056875 0.03971125
v 0.12820999999999994 1.148056875 0.03971125
v 0.20909062499999997 1.246354375 0.012884375
v -0.20909062500000003 1.270776875 0.056851875
v -0.12828500000000007 1.1988181249999998 0.130144375
v 0.12820999999999994 1.1988181249999998 0.130144375
v 0.20909062499999997 1.270776875 0.056851875
v -0.20909062500000003 1.3130775 0.082236875
v -0.12828500000000004 1.28673875 0.182355625
v 0.12820999999999996 1.2867387499999998 0.182355625
v 0.20909062499999997 1.3130775 0.082236875
v 0.209090625 1.355816875 0.0585525
v 0.209090625 1.3875425 0.039514375
v 0.209090625 1.405859375 0.00653875
v 0.209090625 1.405859375 -0.03153875
v 0.209090625 1.3875425 -0.064514375
v 0.209090625 1.355816875 -0.0835525
v 0.20909062499999997 1.319183125 -0.0835525
v 0.20909062499999997 1.2874575 -0.064514375
v 0.20909062499999997 1.269140625 -0.03153875
v 0.20909062499999997 1.269140625 0.00653875
v 0.20909062499999997 1.2874575 0.039514375
v 0.20909062499999997 1.319183125 0.0585525
v -0.209090625 1.355816875 0.0585525
v -0.209090625 1.3875425 0.039514375
v -0.209090625 1.405859375 0.00653875
v -0.209090625 1.405859375 -0.03153875
v -0.209090625 1.3875425 -0.064514375
v -0.209090625 1.355816875 -0.0835525
v -0.20909062500000003 1.319183125 -0.0835525
v -0.20909062500000003 1.2874575 -0.064514375
v -0.20909062500000003 1.269140625 -0.03153875
v -0.20909062500000003 1.269140625 0.00653875
v -0.20909062500000003 1.2874575 0.039514375
v -0.20909062500000003 1.319183125 0.0585525
v 0.227840625 1.355816875 0.0585525
v 0.227840625 1.3875425 0.039514375
v 0.227840625 1.405859375 0.00653875
v 0.227840625 1.405859375 -0.03153875
v 0.227840625 1.3875425 -0.064514375
v 0.227840625 1.355816875 -0.0835525
v 0.22784062499999996 1.319183125 -0.0835525
v 0.22784062499999996 1.2874575 -0.064514375
v 0.22784062499999996 1.269140625 -0.03153875
v 0.22784062499999996 1.269140625 0.00653875
v 0.22784062499999996 1.2874575 0.039514375
v 0.22784062499999996 1.319183125 0.0585525
v -0.227840625 1.355816875 0.0585525
v -0.227840625 1.3875425 0.039514375
v -0.227840625 1.405859375 0.00653875
v -0.227840625 1.405859375 -0.03153875
v -0.227840625 1.3875425 -0.064514375
v -0.227840625 1.355816875 -0.0835525
v -0.22784062500000002 1.319183125 -0.0835525
v -0.22784062500000002 1.2874575 -0.064514375
v -0.22784062500000002 1.269140625 -0.03153875
v -0.22784062500000002 1.269140625 0.00653875
v -0.22784062500000002 1.2874575 0.039514375
v -0.22784062500000002 1.319183125 0.0585525
v -0.06388249999999998 1.48690875 -0.16282875
v -0.06388250000000001 1.3671875 -0.195753125
v -0.06388250000000002 1.2890625 -0.195753125
v -0.06388250000000005 1.16934125 -0.18157875
v -0.06388250000000006 1.1334037499999998 -0.06875
v -0.06388250000000006 1.1334037499999998 0.04375
v -0.06388250000000005 1.1880912499999998 0.141178125
v -0.06388250000000002 1.2828125 0.197428125
v -0.0638825 1.3921875 0.197428125
v -0.06388249999999998 1.48690875 0.141178125
v -0.06388249999999997 1.54159625 0.04375
v -0.06388249999999997 1.54159625 -0.06875
v 0.06411937499999999 1.3671875 -0.195753125
v 0.06411937499999998 1.2890625 -0.195753125
v 0.06411937499999995 1.16934125 -0.18157875
v 0.06411937499999994 1.1334037499999998 -0.06875
v 0.06411937499999994 1.1334037499999998 0.04375
v 0.06411937499999995 1.1880912499999998 0.141178125
v 0.06411937499999998 1.2828125 0.197428125
v 0.064119375 1.3921875 0.197428125
v 0.06411937500000002 1.48690875 0.141178125
v 0.06411937500000003 1.54159625 0.04375
v 0.06411937500000003 1.54159625 -0.06875
v 0.06411937500000002 1.48690875 -0.16282875
v -4.332367797843517e-18 1.3961137499999998 0.2125
v -6.591949208711867e-17 1.11875 -0.07278875
v -6.591949208711867e-17 1.11875 0.04778875
v -5.290462512519412e-17 1.1773637499999998 0.15221125
v -3.036210172169262e-17 1.27888625 0.2125
v 1.8210155605657973e-17 1.49763625 0.15221125
v 3.122502256758253e-17 1.55625 0.04778875
v 3.122502256758253e-17 1.55625 -0.07278875
v 1.8210155605657973e-17 1.49763625 -0.1705125
v 0.11441124999999998 1.3043049999999998 -0.186725625
v 0.06411937499999999 1.35625 -0.195753125
v 0.06411937499999998 1.2999999999999998 -0.195753125
v 0.12066124999999998 1.370103125 -0.186725625
v -1.5693002453076588e-17 1.3449499999999999 -0.20625
v -2.6812302378331764e-17 1.2948731249999998 -0.20625
v -0.06388250000000001 1.35625 -0.195753125
v -0.06388250000000002 1.2999999999999998 -0.195753125
v -0.12066125000000001 1.370103125 -0.186725625
v -0.11441125000000003 1.3043049999999998 -0.186725625
v 0.11251812499999997 1.3043049999999998 -0.17907375
v 0.06411937499999999 1.35625 -0.18376625
v 0.06411937499999998 1.2999999999999998 -0.18376625
v 0.11866499999999999 1.370103125 -0.17907375
v -1.5693002453076588e-17 1.3449499999999999 -0.189223125
v -2.6812302378331764e-17 1.2948731249999998 -0.189223125
v -0.06388250000000001 1.35625 -0.18376625
v -0.06388250000000002 1.2999999999999998 -0.18376625
v -0.11866500000000002 1.370103125 -0.17907375
v -0.11866500000000003 1.3043049999999998 -0.17907375
v 0.12165999999999999 1.370103125 -0.192895625
v 0.06411937499999999 1.35625 -0.201923125
v 0.06411937499999999 1.3680131249999998 -0.20184
v 0.12821 1.385200625 -0.191343125
v -0.06388250000000001 1.35625 -0.201923125
v -0.12166000000000002 1.370103125 -0.192895625
v -0.128285 1.38519375 -0.1913175
v -0.06388250000000001 1.3680062499999999 -0.201814375
v -0.12828499999999998 1.479635625 -0.159651875
v -0.06388249999999998 1.4903624999999998 -0.16733625
v 0.06411937500000002 1.4903825 -0.16737
v 0.12821000000000002 1.479655625 -0.159685625
v 0.06411937500000003 1.5687674999999999 -0.05620375
v 0.12821000000000002 1.55411375 -0.052165
v -0.12828499999999998 1.5540881249999998 -0.05215
v -0.06388249999999997 1.56874125 -0.056188125
v 0.169416875 1.4493531249999998 -0.1285075
v 0.169416875 1.3763249999999998 -0.158746875
v 0.16941687499999997 1.2999625 -0.158746875
v 0.16941687499999994 1.2256468749999998 -0.1285075
v 0.16941687499999994 1.1847056249999999 -0.05527625
v 0.16941687499999994 1.1847056249999999 0.029284375
v 0.16941687499999994 1.2256468749999998 0.10251625
v 0.16941687499999997 1.29655875 0.14479625
v 0.169416875 1.3784412499999998 0.14479625
v 0.169416875 1.4493531249999998 0.10251625
v 0.16941687500000002 1.490294375 0.029284375
v 0.16941687500000002 1.490294375 -0.05527625
v -0.169416875 1.449353125 -0.1285075
v -0.169416875 1.376325 -0.158746875
v -0.16941687500000002 1.2999625 -0.158746875
v -0.16941687500000005 1.225646875 -0.1285075
v -0.16941687500000005 1.1847056249999999 -0.05527625
v -0.16941687500000005 1.1847056249999999 0.029284375
v -0.16941687500000005 1.225646875 0.10251625
v -0.16941687500000002 1.29655875 0.14479625
v -0.169416875 1.3784412499999998 0.14479625
v -0.169416875 1.449353125 0.10251625
v -0.16941687499999997 1.490294375 0.029284375
v -0.16941687499999997 1.490294375 -0.05527625
v 0.22784062499999996 1.3512374999999999 0.040789375
v 0.227840625 1.375031875 0.026510625
v 0.227840625 1.3887693749999999 0.00177875
v 0.227840625 1.3887693749999999 -0.02677875
v 0.227840625 1.375031875 -0.051510625
v 0.22784062499999996 1.3512374999999999 -0.065789375
v 0.22784062499999996 1.3237625 -0.065789375
v 0.22784062499999996 1.299968125 -0.051510625
v 0.22784062499999996 1.286230625 -0.02677875
v 0.22784062499999996 1.286230625 0.00177875
v 0.22784062499999996 1.299968125 0.026510625
v 0.22784062499999996 1.3237625 0.040789375
v -0.22784062500000002 1.3512374999999999 0.040789375
v -0.227840625 1.375031875 0.026510625
v -0.227840625 1.3887693749999999 0.00177875
v -0.227840625 1.3887693749999999 -0.02677875
v -0.227840625 1.375031875 -0.051510625
v -0.22784062500000002 1.3512374999999999 -0.065789375
v -0.22784062500000002 1.3237625 -0.065789375
v -0.22784062500000002 1.299968125 -0.051510625
v -0.22784062500000002 1.286230625 -0.02677875
v -0.22784062500000002 1.286230625 0.00177875
v -0.22784062500000002 1.299968125 0.026510625
v -0.22784062500000002 1.3237625 0.040789375
v 0.21534062499999998 1.3512374999999999 0.040789375
v 0.215340625 1.375031875 0.026510625
v 0.215340625 1.3887693749999999 0.00177875
v 0.215340625 1.3887693749999999 -0.02677875
v 0.215340625 1.375031875 -0.051510625
v 0.21534062499999998 1.3512374999999999 -0.065789375
v 0.21534062499999998 1.3237625 -0.065789375
v 0.21534062499999998 1.299968125 -0.051510625
v 0.21534062499999998 1.286230625 -0.02677875
v 0.21534062499999998 1.286230625 0.00177875
v 0.21534062499999998 1.299968125 0.026510625
v 0.21534062499999998 1.3237625 0.040789375
v 0.21534062499999998 1.3375 -0.0125
v -0.21534062500000004 1.3512374999999999 0.040789375
v -0.215340625 1.375031875 0.026510625
v -0.215340625 1.3887693749999999 0.00177875
v -0.215340625 1.3887693749999999 -0.02677875
v -0.215340625 1.375031875 -0.051510625
v -0.21534062500000004 1.3512374999999999 -0.065789375
v -0.21534062500000004 1.3237625 -0.065789375
v -0.21534062500000004 1.299968125 -0.051510625
v -0.21534062500000004 1.286230625 -0.02677875
v -0.21534062500000004 1.286230625 0.00177875
v -0.21534062500000004 1.299968125 0.026510625
v -0.21534062500000004 1.3237625 0.040789375
v -0.21534062500000004 1.3375 -0.0125
v 0.12820999999999994 1.2054743749999999 -0.158785
v 0.06411937499999998 1.29156875 -0.183661875
v 0.06411937499999995 1.1947474999999999 -0.166469375
v 0.12820999999999996 1.2954949999999998 -0.173165
v -0.12828500000000004 1.2954943749999999 -0.173191875
v -0.06388250000000002 1.291568125 -0.18368875
v -0.06388250000000005 1.19476875 -0.166475
v -0.12828500000000007 1.205495625 -0.158790625
v -0.06388250000000005 1.144924375 -0.06592875
v -0.12828500000000007 1.159578125 -0.06189
v 0.12820999999999994 1.1595568749999998 -0.061898125
v 0.06411937499999995 1.144903125 -0.06593625
v 0.12820999999999994 1.1594674999999999 0.036728125
v 0.06411937499999995 1.144814375 0.040766875
v -0.06388250000000005 1.144814375 0.040766875
v -0.12828500000000007 1.1594674999999999 0.036728125
v -0.06388250000000005 1.196515 0.13295875
v -0.12828500000000007 1.207241875 0.121925
v 0.12820999999999994 1.2072418749999998 0.121925
v 0.06411937499999995 1.1965149999999998 0.13295875
v 0.12820999999999996 1.28984875 0.17103125
v 0.06411937499999998 1.2859218749999999 0.18610375
v -0.06388250000000002 1.2859218749999999 0.18610375
v -0.12828500000000004 1.28984875 0.17103125
v -0.0638825 1.389078125 0.18610375
v -0.128285 1.3851512499999998 0.17103125
v 0.12821 1.3851512499999998 0.17103125
v 0.064119375 1.389078125 0.18610375
v 0.12821 1.4677581249999998 0.121925
v 0.06411937500000002 1.4784849999999998 0.13295875
v -0.06388249999999998 1.4784849999999998 0.13295875
v -0.128285 1.467758125 0.121925
v -0.06388249999999997 1.5301856249999999 0.040766875
v -0.12828499999999998 1.5155325 0.036728125
v 0.12821000000000002 1.5155325 0.036728125
v 0.06411937500000003 1.5301856249999999 0.040766875
v 0.12821000000000002 1.5147499999999998 -0.06471125
v 0.06411937500000003 1.52940375 -0.06875
v -0.06388249999999997 1.52940375 -0.06875
v -0.12828499999999998 1.51475 -0.06471125
vt 0.0095296875 0.6273031250000001
vt 0.01250390625 0.6290875
vt 0.0078125 0.6339640625
vt 0.430545859375 0.65128125
vt 0.4375 0.652401484375
vt 0.437487421875 0.6627210156250001
vt 0.430545859375 0.6640625
vt 0.421875 0.6875
vt 0.4214265625 0.6953125
vt 0.40765625 0.6953125
vt 0.407115625 0.6875
vt 0.4292390625 0.5703125
vt 0.4296875 0.578125
vt 0.4166859375 0.578125
vt 0.4172265625 0.5703125
vt 0.287140625 0.5546875
vt 0.2890625 0.5639234375
vt 0.27874296875 0.5639234375
vt 0.2809734375 0.55470234375
vt 0.09844140625 0.6365375
vt 0.0954671875 0.6383218749999999
vt 0.09375 0.6316609375
vt 0.01250390625 0.6290875
vt 0.01422109375 0.6321789062500001
vt 0.0078125 0.6339640625
vt 0.243079375 0.55735
vt 0.25 0.558455546875
vt 0.24998796875 0.5689430468750001
vt 0.243079375 0.5703125
vt 0.421875 0.7734375
vt 0.42141796875 0.78125
vt 0.40745234375 0.78125
vt 0.40690625 0.7734375
vt 0.35891953125 0.578125
vt 0.359375 0.5859375
vt 0.34616328125 0.5859375
vt 0.34671015625 0.578125
vt 0.44334140625 0.765625
vt 0.4453125 0.77480625
vt 0.434825 0.77480625
vt 0.4370546875 0.7656390625
vt 0.10015859375 0.6334460937499999
vt 0.09844140625 0.6365375
vt 0.09375 0.6316609375
vt 0.01422109375 0.6321789062500001
vt 0.01422109375 0.63574921875
vt 0.0078125 0.6339640625
vt 0.1471515625 0.5703125
vt 0.145971875 0.578125
vt 0.1354015625 0.578125
vt 0.1340984375 0.5703125
vt 0.1559734375 0.5859375
vt 0.15546875 0.59375
vt 0.14140625 0.59375
vt 0.1409015625 0.5859375
vt 0.076665234375 0.578125
vt 0.077157421875 0.5859375
vt 0.063467578125 0.5859375
vt 0.063984765625 0.578125
vt 0.44061171875 0.59375
vt 0.44278515625 0.6015625
vt 0.43221484375 0.6015625
vt 0.43426484375 0.59375
vt 0.10015859375 0.62987578125
vt 0.10015859375 0.6334460937499999
vt 0.09375 0.6316609375
vt 0.01422109375 0.63574921875
vt 0.01250390625 0.638840625
vt 0.0078125 0.6339640625
vt 0.33327578125 0.5634453125000001
vt 0.33200625 0.5703125
vt 0.32151875 0.5703125
vt 0.3203125 0.56343125
vt 0.15625 0.60877296875
vt 0.15625 0.616926875
vt 0.14126625 0.6171875
vt 0.140625 0.6090060937499999
vt 0.399803125 0.929715625
vt 0.399815625 0.9378953125
vt 0.3828125 0.9378953125
vt 0.38345546875 0.9296875
vt 0.22689921875 0.55470234375
vt 0.2292375 0.56391953125
vt 0.21875 0.56391953125
vt 0.2206125 0.5546875
vt 0.09844140625 0.626784375
vt 0.10015859375 0.62987578125
vt 0.09375 0.6316609375
vt 0.01250390625 0.638840625
vt 0.0095296875 0.640625
vt 0.0078125 0.6339640625
vt 0.4296875 0.899513046875
vt 0.4296875 0.90571203125
vt 0.416248671875 0.90625
vt 0.4140625 0.8996615625
vt 0.39341328125 0.68728203125
vt 0.391559375 0.6953125
vt 0.37603828125 0.6953125
vt 0.375 0.6872359375
vt 0.3962796875 0.8047390624999999
vt 0.39870390625 0.8127796875
vt 0.3828125 0.8127796875
vt 0.3838421875 0.8046875
vt 0.075074921875 0.674482109375
vt 0.073275078125 0.682608828125
vt 0.063878359375 0.6795550781249999
vt 0.069499375 0.67190453125
vt 0.0954671875 0.625
vt 0.09844140625 0.626784375
vt 0.09375 0.6316609375
vt 0.0095296875 0.640625
vt 0.0060953125 0.640625
vt 0.0078125 0.6339640625
vt 0.31039921875 0.5625
vt 0.30952734375 0.5703125
vt 0.29998203125 0.5703125
vt 0.29897578125 0.5625
vt 0.1765765625 0.67113671875
vt 0.1759359375 0.6791515625
vt 0.1689046875 0.6791515625
vt 0.1703171875 0.67113671875
vt 0.17539765625 0.6570148437500001
vt 0.1759359375 0.66309296875
vt 0.1689046875 0.66309296875
vt 0.1671734375 0.65625
vt 0.081181328125 0.674481484375
vt 0.082820390625 0.682608828125
vt 0.073275078125 0.682608828125
vt 0.075075078125 0.674481484375
vt 0.0920328125 0.625
vt 0.0954671875 0.625
vt 0.09375 0.6316609375
vt 0.0060953125 0.640625
vt 0.00312109375 0.638840625
vt 0.0078125 0.6339640625
vt 0.27774421875 0.8368785937500001
vt 0.274186875 0.8438753125
vt 0.264631640625 0.840826953125
vt 0.266020703125 0.835020546875
vt 0.303241953125 0.92940109375
vt 0.301863828125 0.937437890625
vt 0.2867971875 0.93713953125
vt 0.2872903125 0.9290515625
vt 0.43634765625 0.84377890625
vt 0.4375 0.8518765625
vt 0.42520859375 0.8518765625
vt 0.4249546875 0.84375
vt 0.0867459375 0.671875
vt 0.092371640625 0.67954203125
vt 0.082817109375 0.6825924999999999
vt 0.081181328125 0.674481484375
vt 0.08905859375 0.626784375
vt 0.0920328125 0.625
vt 0.09375 0.6316609375
vt 0.00312109375 0.638840625
vt 0.00140390625 0.63574921875
vt 0.0078125 0.6339640625
vt 0.4296875 0.93061796875
vt 0.42848125 0.9375
vt 0.41799375 0.9375
vt 0.41536015625 0.93012578125
vt 0.3984375 0.8354065625
vt 0.3984375 0.843614765625
vt 0.383395390625 0.84375
vt 0.3828125 0.83562296875
vt 0.42151328125 0.71875
vt 0.421875 0.72697578125
vt 0.4078484375 0.72697578125
vt 0.40811328125 0.71880390625
vt 0.26255546875 0.65625
vt 0.26441875 0.66548203125
vt 0.25393125 0.66548203125
vt 0.25626875 0.65626484375
vt 0.08734140625 0.62987578125
vt 0.08905859375 0.626784375
vt 0.09375 0.6316609375
vt 0.00140390625 0.63574921875
vt 0.00140390625 0.6321789062500001
vt 0.0078125 0.6339640625
vt 0.1002765625 0.5703125
vt 0.0989734375 0.578125
vt 0.088403125 0.578125
vt 0.0872234375 0.5703125
vt 0.4215984375 0.8671875
vt 0.42109375 0.875
vt 0.40703125 0.875
vt 0.4065265625 0.8671875
vt 0.224912890625 0.578125
vt 0.225419140625 0.5859375
vt 0.212080859375 0.5859375
vt 0.212584765625 0.578125
vt 0.01104765625 0.5546875
vt 0.01309765625 0.5625
vt 0.00252734375 0.5625
vt 0.00470078125 0.5546875
vt 0.08734140625 0.6334460937499999
vt 0.08734140625 0.62987578125
vt 0.09375 0.6316609375
vt 0.00140390625 0.6321789062500001
vt 0.00312109375 0.6290875
vt 0.0078125 0.6339640625
vt 0.44265078125 0.7040304687500001
vt 0.44127265625 0.7109375
vt 0.43078515625 0.7109375
vt 0.4296875 0.704015625
vt 0.42121796875 0.7421875
vt 0.420671875 0.75
vt 0.40670625 0.75
vt 0.40625 0.7421875
vt 0.309540625 0.578125
vt 0.3100875 0.5859375
vt 0.296875 0.5859375
vt 0.29733046875 0.578125
vt 0.4379453125 0.7422015625
vt 0.440175 0.75136875
vt 0.4296875 0.75136875
vt 0.43165859375 0.7421875
vt 0.08905859375 0.6365375
vt 0.08734140625 0.6334460937499999
vt 0.09375 0.6316609375
vt 0.00312109375 0.6290875
vt 0.0060953125 0.6273031250000001
vt 0.0078125 0.6339640625
vt 0.44246953125 0.67274765625
vt 0.44111953125 0.6796875
vt 0.43079921875 0.6796875
vt 0.4296875 0.67273203125
vt 0.421009375 0.65625
vt 0.42046953125 0.6640625
vt 0.40669921875 0.6640625
vt 0.40625 0.65625
vt 0.4030859375 0.5703125
vt 0.4036265625 0.578125
vt 0.390625 0.578125
vt 0.3910734375 0.5703125
vt 0.4377765625 0.71876484375
vt 0.4400078125 0.7279859375
vt 0.4296875 0.7279859375
vt 0.431609375 0.71875
vt 0.0920328125 0.6383218749999999
vt 0.08905859375 0.6365375
vt 0.09375 0.6316609375
vt 0.0060953125 0.6273031250000001
vt 0.0095296875 0.6273031250000001
vt 0.0078125 0.6339640625
vt 0.4438453125 0.8671875
vt 0.44261796875 0.875
vt 0.43238203125 0.875
vt 0.4311546875 0.8671875
vt 0.4213890625 0.625
vt 0.4208984375 0.6328125
vt 0.4072265625 0.6328125
vt 0.4067359375 0.625
vt 0.44345625 0.9140625
vt 0.443946875 0.921875
vt 0.431053125 0.921875
vt 0.43154375 0.9140625
vt 0.424928125 0.5546875
vt 0.42699296875 0.5625
vt 0.41675703125 0.5625
vt 0.418821875 0.5546875
vt 0.0954671875 0.6383218749999999
vt 0.0920328125 0.6383218749999999
vt 0.09375 0.6316609375
vt 0.09609921875 0.73946875
vt 0.09213359375 0.7370890625
vt 0.092896875 0.734128125
vt 0.098184375 0.7373015625
vt 0.25619609375 0.8800984375
vt 0.26016171875 0.87771875
vt 0.262246875 0.8798859375
vt 0.256959375 0.883059375
vt 0.09838828125 0.743590625
vt 0.09609921875 0.73946875
vt 0.098184375 0.7373015625
vt 0.10123671875 0.742796875
vt 0.26016171875 0.87771875
vt 0.26245078125 0.873596875
vt 0.26529921875 0.874390625
vt 0.262246875 0.8798859375
vt 0.09838828125 0.7483500000000001
vt 0.09838828125 0.743590625
vt 0.10123671875 0.742796875
vt 0.10123671875 0.74914375
vt 0.26245078125 0.873596875
vt 0.26245078125 0.8688375
vt 0.26529921875 0.86804375
vt 0.26529921875 0.874390625
vt 0.09609921875 0.752471875
vt 0.09838828125 0.7483500000000001
vt 0.10123671875 0.74914375
vt 0.098184375 0.7546390625
vt 0.26245078125 0.8688375
vt 0.26016171875 0.864715625
vt 0.262246875 0.8625484375
vt 0.26529921875 0.86804375
vt 0.09213359375 0.7548515625
vt 0.09609921875 0.752471875
vt 0.098184375 0.7546390625
vt 0.092896875 0.7578125
vt 0.26016171875 0.864715625
vt 0.25619609375 0.8623359375
vt 0.256959375 0.859375
vt 0.262246875 0.8625484375
vt 0.08755390625 0.7548515625
vt 0.09213359375 0.7548515625
vt 0.092896875 0.7578125
vt 0.086790625 0.7578125
vt 0.25619609375 0.8623359375
vt 0.25161640625 0.8623359375
vt 0.250853125 0.859375
vt 0.256959375 0.859375
vt 0.08358828125 0.752471875
vt 0.08755390625 0.7548515625
vt 0.086790625 0.7578125
vt 0.081503125 0.7546390625
vt 0.25161640625 0.8623359375
vt 0.24765078125 0.864715625
vt 0.245565625 0.8625484375
vt 0.250853125 0.859375
vt 0.0812984375 0.7483500000000001
vt 0.08358828125 0.752471875
vt 0.081503125 0.7546390625
vt 0.07845078125 0.74914375
vt 0.24765078125 0.864715625
vt 0.2453609375 0.8688375
vt 0.24251328125 0.86804375
vt 0.245565625 0.8625484375
vt 0.0812984375 0.743590625
vt 0.0812984375 0.7483500000000001
vt 0.07845078125 0.74914375
vt 0.07845078125 0.742796875
vt 0.2453609375 0.8688375
vt 0.2453609375 0.873596875
vt 0.24251328125 0.874390625
vt 0.24251328125 0.86804375
vt 0.08358828125 0.73946875
vt 0.0812984375 0.743590625
vt 0.07845078125 0.742796875
vt 0.081503125 0.7373015625
vt 0.2453609375 0.873596875
vt 0.24765078125 0.87771875
vt 0.245565625 0.8798859375
vt 0.24251328125 0.874390625
vt 0.08755390625 0.7370890625
vt 0.08358828125 0.73946875
vt 0.081503125 0.7373015625
vt 0.086790625 0.734128125
vt 0.24765078125 0.87771875
vt 0.25161640625 0.8800984375
vt 0.250853125 0.883059375
vt 0.245565625 0.8798859375
vt 0.09213359375 0.7370890625
vt 0.08755390625 0.7370890625
vt 0.086790625 0.734128125
vt 0.092896875 0.734128125
vt 0.25161640625 0.8800984375
vt 0.25619609375 0.8800984375
vt 0.256959375 0.883059375
vt 0.250853125 0.883059375
vt 0.4765625 0.6796875
vt 0.46875 0.6796875
vt 0.46875 0.671875
vt 0.4765625 0.671875
vt 0.46875 0.65625
vt 0.4765625 0.65625
vt 0.4765625 0.6640625
vt 0.46875 0.6640625
vt 0.46875 0.6328125
vt 0.4609375 0.6328125
vt 0.4609375 0.625
vt 0.46875 0.625
vt 0.4609375 0.5859375
vt 0.46875 0.5859375
vt 0.46875 0.59375
vt 0.4609375 0.59375
vt 0.4140625 0.546875
vt 0.40625 0.546875
vt 0.40625 0.5390625
vt 0.4140625 0.5390625
vt 0.421875 0.5390625
vt 0.4296875 0.5390625
vt 0.4296875 0.546875
vt 0.421875 0.546875
vt 0.46875 0.578125
vt 0.4609375 0.578125
vt 0.4609375 0.5703125
vt 0.46875 0.5703125
vt 0.4375 0.53125
vt 0.4453125 0.53125
vt 0.4453125 0.5390625
vt 0.4375 0.5390625
vt 0.2109375 0.53125
vt 0.203125 0.53125
vt 0.203125 0.5234375
vt 0.2109375 0.5234375
vt 0.46875 0.78125
vt 0.4765625 0.78125
vt 0.4765625 0.7890625
vt 0.46875 0.7890625
vt 0.3125 0.5390625
vt 0.3046875 0.5390625
vt 0.3046875 0.53125
vt 0.3125 0.53125
vt 0.3203125 0.53125
vt 0.328125 0.53125
vt 0.328125 0.5390625
vt 0.3203125 0.5390625
vt 0.4765625 0.7109375
vt 0.46875 0.7109375
vt 0.46875 0.703125
vt 0.4765625 0.703125
vt 0.46875 0.6875
vt 0.4765625 0.6875
vt 0.4765625 0.6953125
vt 0.46875 0.6953125
vt 0.4765625 0.984375
vt 0.46875 0.984375
vt 0.46875 0.9765625
vt 0.4765625 0.9765625
vt 0.0859375 0.5234375
vt 0.09375 0.5234375
vt 0.09375 0.53125
vt 0.0859375 0.53125
vt 0.03125 0.5390625
vt 0.0234375 0.5390625
vt 0.0234375 0.53125
vt 0.03125 0.53125
vt 0.4609375 0.9609375
vt 0.46875 0.9609375
vt 0.46875 0.96875
vt 0.4609375 0.96875
vt 0.46875 0.5625
vt 0.4609375 0.5625
vt 0.4609375 0.5546875
vt 0.46875 0.5546875
vt 0.453125 0.53125
vt 0.4609375 0.53125
vt 0.4609375 0.5390625
vt 0.453125 0.5390625
vt 0.4765625 0.6484375
vt 0.46875 0.6484375
vt 0.46875 0.640625
vt 0.4765625 0.640625
vt 0.3671875 0.5234375
vt 0.375 0.5234375
vt 0.375 0.53125
vt 0.3671875 0.53125
vt 0.046875 0.5390625
vt 0.0390625 0.5390625
vt 0.0390625 0.53125
vt 0.046875 0.53125
vt 0.4609375 0.9453125
vt 0.46875 0.9453125
vt 0.46875 0.953125
vt 0.4609375 0.953125
vt 0.37929984375 0.8828125
vt 0.37803984375 0.874691796875
vt 0.393923359375 0.874242109375
vt 0.39172890625 0.882364453125
vt 0.1671734375 0.686025
vt 0.1689046875 0.6791515625
vt 0.1759359375 0.6791515625
vt 0.17539765625 0.686025
vt 0.41740359375 0.8046875
vt 0.41740359375 0.7965163281250001
vt 0.4296875 0.796134453125
vt 0.428788515625 0.804300703125
vt 0.040925 0.585890625
vt 0.040659375 0.578125
vt 0.0546875 0.578125
vt 0.0543265625 0.5859375
vt 0.236021875 0.5859375
vt 0.23551875 0.578125
vt 0.24885625 0.578125
vt 0.24834921875 0.5859375
vt 0.27389296875 0.5859375
vt 0.2734375 0.578125
vt 0.28665 0.578125
vt 0.286103125 0.5859375
vt 0.1801359375 0.578125
vt 0.1796875 0.5703125
vt 0.1926890625 0.5703125
vt 0.1921484375 0.578125
vt 0.06435625 0.5703125
vt 0.063865625 0.5625
vt 0.076759375 0.5625
vt 0.07626875 0.5703125
vt 0.1594140625 0.578125
vt 0.1588734375 0.5703125
vt 0.171875 0.5703125
vt 0.1714265625 0.578125
vt 0.32327265625 0.5859375
vt 0.32272578125 0.578125
vt 0.3359375 0.578125
vt 0.33548203125 0.5859375
vt 0.415547265625 0.953125
vt 0.415030078125 0.9453125
vt 0.428719921875 0.9453125
vt 0.428227734375 0.953125
vt 0.38345546875 0.90625
vt 0.3828125 0.8984375
vt 0.3998125 0.8984375
vt 0.39980078125 0.90621953125
vt 0.1703171875 0.67113671875
vt 0.1689046875 0.66309296875
vt 0.1759359375 0.66309296875
vt 0.1765765625 0.67113671875
vt 0.28729015625 0.906864296875
vt 0.28679953125 0.898742578125
vt 0.301866171875 0.89844984375
vt 0.303241796875 0.90651296875
vt 0.40648984375 0.96868671875
vt 0.4069984375 0.9609375
vt 0.4218 0.9609375
vt 0.421875 0.96875
vt 0.0862140625 0.59375
vt 0.08671875 0.5859375
vt 0.10078125 0.5859375
vt 0.1012859375 0.59375
vt 0.40625 0.765625
vt 0.40670625 0.7578125
vt 0.420671875 0.7578125
vt 0.42121796875 0.765625
vt 0.40625 0.6796875
vt 0.40669921875 0.671875
vt 0.42046953125 0.671875
vt 0.421009375 0.6796875
vt 0.4067359375 0.6484375
vt 0.4072265625 0.640625
vt 0.4208984375 0.640625
vt 0.4213890625 0.6484375
vt 0.407115625 0.7109375
vt 0.40765625 0.703125
vt 0.4214265625 0.703125
vt 0.421875 0.7109375
vt 0.40690625 0.8359375
vt 0.40745234375 0.828125
vt 0.42141796875 0.828125
vt 0.421875 0.8359375
vt 0.4065265625 0.890625
vt 0.40703125 0.8828125
vt 0.42109375 0.8828125
vt 0.4215984375 0.890625
vt 0.094149375 0.6171875
vt 0.0859375 0.616546171875
vt 0.08619734375 0.6015625
vt 0.094377734375 0.6015625
vt 0.0078125 0.6121634375
vt 0 0.61109515625
vt 0.000057265625 0.5955742187499999
vt 0.0078125 0.59375
vt 0.28543234375 0.898742578125
vt 0.284893515625 0.892355625
vt 0.28631203125 0.890625
vt 0.286795703125 0.898742578125
vt 0.45782234375 0.921875
vt 0.46530546875 0.921875
vt 0.464963671875 0.929475546875
vt 0.45656953125 0.9296875
vt 0.284893515625 0.892355625
vt 0.276666953125 0.8915940625000001
vt 0.274883203125 0.890633515625
vt 0.28630359375 0.890635234375
vt 0.456933125 0.8671875
vt 0.465176171875 0.8671875
vt 0.464967578125 0.8748521874999999
vt 0.456698828125 0.875
vt 0.28607296875 0.906863671875
vt 0.28543234375 0.898742578125
vt 0.28679953125 0.898742578125
vt 0.28729015625 0.906863671875
vt 0.285429765625 0.93714390625
vt 0.286073125 0.929051171875
vt 0.2872903125 0.9290515625
vt 0.286796953125 0.937144375
vt 0.1171875 0.538424609375
vt 0.1171875 0.546639921875
vt 0.109375 0.546875
vt 0.109522734375 0.5386339062500001
vt 0.39539765625 0.874228515625
vt 0.393621875 0.881527734375
vt 0.39172890625 0.882364453125
vt 0.39392890625 0.874221484375
vt 0.284889296875 0.943559375
vt 0.285429765625 0.93714390625
vt 0.286796953125 0.937144375
vt 0.286303515625 0.9452996875
vt 0.276665078125 0.94434453125
vt 0.284889296875 0.943559375
vt 0.286305703125 0.94530234375
vt 0.274883046875 0.9453125
vt 0.20591953125 0.5453718750000001
vt 0.20533453125 0.53929796875
vt 0.20629125 0.5390625
vt 0.20741796875 0.5453718750000001
vt 0.3259171875 0.50817609375
vt 0.32533046875 0.51521046875
vt 0.32383203125 0.51521046875
vt 0.3249609375 0.50793390625
vt 0.227033984375 0.546875
vt 0.21877390625 0.546875
vt 0.21875 0.5390625
vt 0.227012109375 0.5390625
vt 0.32533046875 0.51521046875
vt 0.3246484375 0.52334953125
vt 0.3225203125 0.52334953125
vt 0.32383203125 0.51521046875
vt 0.2066015625 0.5534125
vt 0.20591953125 0.5453718750000001
vt 0.20741796875 0.5453718750000001
vt 0.2087296875 0.5534125
vt 0.20591953125 0.5614234375
vt 0.2066015625 0.5534125
vt 0.2087296875 0.5534125
vt 0.20741796875 0.5614234375
vt 0.340273671875 0.507901640625
vt 0.340955703125 0.516011015625
vt 0.339457265625 0.516011015625
vt 0.338145546875 0.507901640625
vt 0.340955703125 0.516011015625
vt 0.341541953125 0.5230749218749999
vt 0.340583359375 0.52331703125
vt 0.339460234375 0.516011015625
vt 0.2053328125 0.56829296875
vt 0.20591953125 0.5614234375
vt 0.20741796875 0.5614234375
vt 0.2062890625 0.5677625
vt 0.4921875 0.85265703125
vt 0.484375 0.85265703125
vt 0.484375 0.8515625
vt 0.4921875 0.8519421875
vt 0.32306171875 0.5152103125
vt 0.32418875 0.5078125
vt 0.3249609375 0.5079337500000001
vt 0.32383203125 0.51521046875
vt 0.269437890625 0.8203015625
vt 0.267967578125 0.8203125
vt 0.267967578125 0.8195414062499999
vt 0.269334765625 0.8195414062499999
vt 0.1554859375 0.515625
vt 0.15542421875 0.5078125
vt 0.1561921875 0.5078125
vt 0.15625 0.5155796875
vt 0.3398121875 0.5234375
vt 0.338688984375 0.5160092968750001
vt 0.339460078125 0.516009921875
vt 0.340583359375 0.52331703125
vt 0.16487890625 0.515625
vt 0.1640625 0.5137234374999999
vt 0.1647890625 0.5134375
vt 0.165559375 0.51531015625
vt 0.150781640625 0.71875
vt 0.152251171875 0.7187640625
vt 0.152148828125 0.7195210937500001
vt 0.150781640625 0.7195210937500001
vt 0.152251171875 0.7187640625
vt 0.167545703125 0.7230734375000001
vt 0.167113671875 0.72363671875
vt 0.152148828125 0.7195210937500001
vt 0.11458203125 0.69916640625
vt 0.1027765625 0.703125
vt 0.10267421875 0.7023671874999999
vt 0.11415 0.698603125
vt 0.284733984375 0.81599296875
vt 0.269437890625 0.8203015625
vt 0.269334765625 0.8195414062499999
vt 0.284299609375 0.81542578125
vt 0.18871328125 0.6875
vt 0.2005203125 0.69145703125
vt 0.2000859375 0.692025
vt 0.18861015625 0.6882609375
vt 0.294532421875 0.80209765625
vt 0.284733984375 0.81599296875
vt 0.284299609375 0.81542578125
vt 0.291135546875 0.803665625
vt 0.000659453125 0.5390625
vt 0.008893125 0.5390625
vt 0.008233515625 0.546875
vt 0 0.546875
vt 0.2005203125 0.69145703125
vt 0.20982734375 0.70489765625
vt 0.20643125 0.70332890625
vt 0.2000859375 0.692025
vt 0.1953125 0.546875
vt 0.1953125 0.5551461718749999
vt 0.1875 0.555801875
vt 0.1875 0.547530859375
vt 0.167545703125 0.7230734375000001
vt 0.177343359375 0.7369671875
vt 0.173949609375 0.735396875
vt 0.167113671875 0.72363671875
vt 0.12388828125 0.68572890625
vt 0.11458203125 0.69916640625
vt 0.11415 0.698603125
vt 0.1204953125 0.68729921875
vt 0.006637734375 0.5859375
vt 0 0.5837467187500001
vt 0.000540703125 0.5703125
vt 0.0067078125 0.5703125
vt 0.43178828125 0.6953125
vt 0.43279453125 0.6875
vt 0.44233984375 0.6875
vt 0.44321171875 0.6953125
vt 0.34756734375 0.56980328125
vt 0.3473159375 0.563621484375
vt 0.357282734375 0.5625
vt 0.359375 0.56980328125
vt 0.25129765625 0.6728828124999999
vt 0.25393125 0.66548203125
vt 0.26441875 0.66548203125
vt 0.265625 0.6723515625
vt 0.3684734375 0.5859375
vt 0.369653125 0.578125
vt 0.3802234375 0.578125
vt 0.3815265625 0.5859375
vt 0.265625 0.57546328125
vt 0.2578125 0.5743577343749999
vt 0.25782453125 0.563870234375
vt 0.265625 0.5625
vt 0.1171875 0.56746953125
vt 0.109375 0.566349296875
vt 0.109387578125 0.5560289843749999
vt 0.1171875 0.5546875
vt 0.4311546875 0.8359375
vt 0.43238203125 0.828125
vt 0.44261796875 0.828125
vt 0.4438453125 0.8359375
vt 0.43253125 0.890609375
vt 0.43388125 0.8828125
vt 0.44420078125 0.8828125
vt 0.4453125 0.890625
vt 0.041725 0.57029765625
vt 0.04310234375 0.5625
vt 0.05358984375 0.5625
vt 0.0546875 0.5703125
vt 0.0169109375 0.578125
vt 0.0182140625 0.5703125
vt 0.028784375 0.5703125
vt 0.0299640625 0.578125
vt 0.4375 0.98171328125
vt 0.4296875 0.980499140625
vt 0.42969953125 0.970011640625
vt 0.4375 0.96875
vt 0.251320859375 0.8515625
vt 0.24569328125 0.843896484375
vt 0.25508953125 0.840841171875
vt 0.256886328125 0.848954296875
vt 0.256886328125 0.848954296875
vt 0.255086328125 0.840826953125
vt 0.264631640625 0.840826953125
vt 0.262992578125 0.848954296875
vt 0.26299265625 0.84895390625
vt 0.264631640625 0.840826953125
vt 0.274186875 0.8438753125
vt 0.268568359375 0.851526484375
vt 0.444975 0.94529765625
vt 0.4426375 0.9375
vt 0.453125 0.9375
vt 0.45126171875 0.9453125
vt 0.37188828125 0.5703125
vt 0.36971484375 0.5625
vt 0.38028515625 0.5625
vt 0.37823515625 0.5703125
vt 0.43947109375 0.90625
vt 0.4375 0.8984375
vt 0.4479875 0.8984375
vt 0.4457578125 0.9062359375
vt 0.439421875 0.8046875
vt 0.4375 0.796875
vt 0.4478203125 0.796875
vt 0.4455890625 0.80467265625
vt 0.395384375 0.5625
vt 0.39331953125 0.5546875
vt 0.40355546875 0.5546875
vt 0.401490625 0.5625
vt 0.4450359375 0.62498515625
vt 0.44280546875 0.6171875
vt 0.453125 0.6171875
vt 0.451203125 0.625
vt 0.0933046875 0.56248515625
vt 0.091075 0.5546875
vt 0.1015625 0.5546875
vt 0.09959140625 0.5625
vt 0.43426484375 0.640625
vt 0.43221484375 0.6328125
vt 0.44278515625 0.6328125
vt 0.44061171875 0.640625
vt 0.4393625 0.9609375
vt 0.4375 0.953125
vt 0.4479875 0.953125
vt 0.44564921875 0.96092265625
vt 0.328910546875 0.9237421875
vt 0.325936328125 0.9219578125
vt 0.326508984375 0.9197375
vt 0.330474609375 0.9221171875
vt 0.325936328125 0.8983546875
vt 0.328910546875 0.8965703125
vt 0.330474609375 0.8981953125
vt 0.326508984375 0.900575
vt 0.330627734375 0.92683359375
vt 0.328910546875 0.9237421875
vt 0.330474609375 0.9221171875
vt 0.332763671875 0.9262390625
vt 0.328910546875 0.8965703125
vt 0.330627734375 0.89347890625
vt 0.332763671875 0.8940734375
vt 0.330474609375 0.8981953125
vt 0.330627734375 0.93040390625
vt 0.330627734375 0.92683359375
vt 0.332763671875 0.9262390625
vt 0.332763671875 0.9309984375
vt 0.330627734375 0.89347890625
vt 0.330627734375 0.88990859375
vt 0.332763671875 0.8893140625
vt 0.332763671875 0.8940734375
vt 0.328910546875 0.9334953125
vt 0.330627734375 0.93040390625
vt 0.332763671875 0.9309984375
vt 0.330474609375 0.9351203125
vt 0.330627734375 0.88990859375
vt 0.328910546875 0.8868171875
vt 0.330474609375 0.8851921875
vt 0.332763671875 0.8893140625
vt 0.325936328125 0.9352796875
vt 0.328910546875 0.9334953125
vt 0.330474609375 0.9351203125
vt 0.326508984375 0.9375
vt 0.328910546875 0.8868171875
vt 0.325936328125 0.8850328125
vt 0.326508984375 0.8828125
vt 0.330474609375 0.8851921875
vt 0.322501953125 0.9352796875
vt 0.325936328125 0.9352796875
vt 0.326508984375 0.9375
vt 0.321929296875 0.9375
vt 0.325936328125 0.8850328125
vt 0.322501953125 0.8850328125
vt 0.321929296875 0.8828125
vt 0.326508984375 0.8828125
vt 0.319527734375 0.9334953125
vt 0.322501953125 0.9352796875
vt 0.321929296875 0.9375
vt 0.317963671875 0.9351203125
vt 0.322501953125 0.8850328125
vt 0.319527734375 0.8868171875
vt 0.317963671875 0.8851921875
vt 0.321929296875 0.8828125
vt 0.317810546875 0.93040390625
vt 0.319527734375 0.9334953125
vt 0.317963671875 0.9351203125
vt 0.315673828125 0.9309984375
vt 0.319527734375 0.8868171875
vt 0.317810546875 0.88990859375
vt 0.315673828125 0.8893140625
vt 0.317963671875 0.8851921875
vt 0.317810546875 0.92683359375
vt 0.317810546875 0.93040390625
vt 0.315673828125 0.9309984375
vt 0.315673828125 0.9262390625
vt 0.317810546875 0.88990859375
vt 0.317810546875 0.89347890625
vt 0.315673828125 0.8940734375
vt 0.315673828125 0.8893140625
vt 0.319527734375 0.9237421875
vt 0.317810546875 0.92683359375
vt 0.315673828125 0.9262390625
vt 0.317963671875 0.9221171875
vt 0.317810546875 0.89347890625
vt 0.319527734375 0.8965703125
vt 0.317963671875 0.8981953125
vt 0.315673828125 0.8940734375
vt 0.322501953125 0.9219578125
vt 0.319527734375 0.9237421875
vt 0.317963671875 0.9221171875
vt 0.321929296875 0.9197375
vt 0.319527734375 0.8965703125
vt 0.322501953125 0.8983546875
vt 0.321929296875 0.900575
vt 0.317963671875 0.8981953125
vt 0.325936328125 0.9219578125
vt 0.322501953125 0.9219578125
vt 0.321929296875 0.9197375
vt 0.326508984375 0.9197375
vt 0.322501953125 0.8983546875
vt 0.325936328125 0.8983546875
vt 0.326508984375 0.900575
vt 0.321929296875 0.900575
vt 0.234375 0.5234375
vt 0.2421875 0.5234375
vt 0.2421875 0.53125
vt 0.234375 0.53125
vt 0.4765625 0.7578125
vt 0.46875 0.7578125
vt 0.46875 0.75
vt 0.4765625 0.75
vt 0.125 0.5234375
vt 0.1328125 0.5234375
vt 0.1328125 0.53125
vt 0.125 0.53125
vt 0.1484375 0.53125
vt 0.140625 0.53125
vt 0.140625 0.5234375
vt 0.1484375 0.5234375
vt 0.0546875 0.53125
vt 0.0625 0.53125
vt 0.0625 0.5390625
vt 0.0546875 0.5390625
vt 0.078125 0.5390625
vt 0.0703125 0.5390625
vt 0.0703125 0.53125
vt 0.078125 0.53125
vt 0.171875 0.5234375
vt 0.1796875 0.5234375
vt 0.1796875 0.53125
vt 0.171875 0.53125
vt 0.4765625 0.828125
vt 0.46875 0.828125
vt 0.46875 0.8203125
vt 0.4765625 0.8203125
vt 0.21875 0.5234375
vt 0.2265625 0.5234375
vt 0.2265625 0.53125
vt 0.21875 0.53125
vt 0.4765625 0.7734375
vt 0.46875 0.7734375
vt 0.46875 0.765625
vt 0.4765625 0.765625
vt 0.3359375 0.53125
vt 0.34375 0.53125
vt 0.34375 0.5390625
vt 0.3359375 0.5390625
vt 0.359375 0.5390625
vt 0.3515625 0.5390625
vt 0.3515625 0.53125
vt 0.359375 0.53125
vt 0.25 0.5234375
vt 0.2578125 0.5234375
vt 0.2578125 0.53125
vt 0.25 0.53125
vt 0.4765625 0.7421875
vt 0.46875 0.7421875
vt 0.46875 0.734375
vt 0.4765625 0.734375
vt 0.46875 0.8515625
vt 0.4765625 0.8515625
vt 0.4765625 0.859375
vt 0.46875 0.859375
vt 0.1640625 0.53125
vt 0.15625 0.53125
vt 0.15625 0.5234375
vt 0.1640625 0.5234375
vt 0.4609375 0.90625
vt 0.46875 0.90625
vt 0.46875 0.9140625
vt 0.4609375 0.9140625
vt 0.1953125 0.5390625
vt 0.1875 0.5390625
vt 0.1875 0.53125
vt 0.1953125 0.53125
vt 0 0.5234375
vt 0.0078125 0.5234375
vt 0.0078125 0.53125
vt 0 0.53125
vt 0.4765625 1
vt 0.46875 1
vt 0.46875 0.9921875
vt 0.4765625 0.9921875
vt 0.265625 0.5234375
vt 0.2734375 0.5234375
vt 0.2734375 0.53125
vt 0.265625 0.53125
vt 0.4765625 0.7265625
vt 0.46875 0.7265625
vt 0.46875 0.71875
vt 0.4765625 0.71875
vt 0.4609375 0.796875
vt 0.46875 0.796875
vt 0.46875 0.8046875
vt 0.4609375 0.8046875
vt 0.296875 0.5390625
vt 0.2890625 0.5390625
vt 0.2890625 0.53125
vt 0.296875 0.53125
vt 0.02160234375 0.94682421875
vt 0.0095 0.9489734375
vt 0.00632421875 0.947084375
vt 0.0212890625 0.9453125
vt 0.4609375 0.7734375
vt 0.4609375 0.781570234375
vt 0.453125 0.781833046875
vt 0.453125 0.7737003124999999
vt 0.073340625 0.99669140625
vt 0.08459296875 0.99848828125
vt 0.0842796875 1
vt 0.07250859375 0.9977984375
vt 0.453386015625 0.8359375
vt 0.461557265625 0.8359375
vt 0.46129625 0.84375
vt 0.453125 0.84375
vt 0.04075234375 0.94946484375
vt 0.05285234375 0.95161640625
vt 0.0525390625 0.953125
vt 0.03757421875 0.951353125
vt 0.11584296875 0.8999453125
vt 0.10459296875 0.9017453125
vt 0.10375859375 0.9006390625
vt 0.1155296875 0.8984375
vt 0.034521875 0.936896875
vt 0.04075234375 0.94946484375
vt 0.03757421875 0.951353125
vt 0.03308203125 0.93724921875
vt 0.10459296875 0.9017453125
vt 0.09885390625 0.91385859375
vt 0.09741328125 0.9135054687499999
vt 0.10375859375 0.9006390625
vt 0.0095 0.9489734375
vt 0.00326953125 0.96153984375
vt 0.00183203125 0.96118828125
vt 0.00632421875 0.947084375
vt 0.06760078125 0.98458046875
vt 0.073340625 0.99669140625
vt 0.07250859375 0.9977984375
vt 0.06616328125 0.98493203125
vt 0.00326953125 0.96153984375
vt 0.0032578125 0.974878125
vt 0.00183203125 0.97525078125
vt 0.00183203125 0.96118828125
vt 0.06758984375 0.9722515625
vt 0.06760078125 0.98458046875
vt 0.06616328125 0.98493203125
vt 0.06616328125 0.97187890625
vt 0.0345078125 0.923559375
vt 0.034521875 0.936896875
vt 0.03308203125 0.93724921875
vt 0.03308203125 0.92318671875
vt 0.09885390625 0.91385859375
vt 0.09883984375 0.9261859375
vt 0.09741328125 0.92655859375
vt 0.09741328125 0.9135054687499999
vt 0.0409703125 0.9120359375
vt 0.0345078125 0.923559375
vt 0.03308203125 0.92318671875
vt 0.03991796875 0.91100859375
vt 0.09883984375 0.9261859375
vt 0.10481171875 0.93683515625
vt 0.10375859375 0.9378625
vt 0.09741328125 0.92655859375
vt 0.0032578125 0.974878125
vt 0.0097203125 0.9864015625
vt 0.00866796875 0.98742890625
vt 0.00183203125 0.97525078125
vt 0.07356171875 0.96160234375
vt 0.06758984375 0.9722515625
vt 0.06616328125 0.97187890625
vt 0.07250859375 0.960575
vt 0.0097203125 0.9864015625
vt 0.020896875 0.9930453125
vt 0.0205078125 0.99446015625
vt 0.00866796875 0.98742890625
vt 0.0838875 0.9554640625
vt 0.07356171875 0.96160234375
vt 0.07250859375 0.960575
vt 0.0834984375 0.9540484375
vt 0.052146875 0.9053921875
vt 0.0409703125 0.9120359375
vt 0.03991796875 0.91100859375
vt 0.0517578125 0.90397734375
vt 0.10481171875 0.93683515625
vt 0.1151375 0.9429734375
vt 0.1147484375 0.9443890625
vt 0.10375859375 0.9378625
vt 0.065040625 0.9053921875
vt 0.052146875 0.9053921875
vt 0.0517578125 0.90397734375
vt 0.0654296875 0.90397734375
vt 0.1151375 0.9429734375
vt 0.12705 0.9429734375
vt 0.1274390625 0.9443890625
vt 0.1147484375 0.9443890625
vt 0.020896875 0.9930453125
vt 0.033790625 0.9930453125
vt 0.0341796875 0.99446015625
vt 0.0205078125 0.99446015625
vt 0.0958 0.9554640625
vt 0.0838875 0.9554640625
vt 0.0834984375 0.9540484375
vt 0.0961890625 0.9540484375
vt 0.033790625 0.9930453125
vt 0.0449671875 0.9864015625
vt 0.04601953125 0.98742890625
vt 0.0341796875 0.99446015625
vt 0.10612578125 0.96160234375
vt 0.0958 0.9554640625
vt 0.0961890625 0.9540484375
vt 0.10717890625 0.960575
vt 0.0762171875 0.9120359375
vt 0.065040625 0.9053921875
vt 0.0654296875 0.90397734375
vt 0.07726953125 0.91100859375
vt 0.12705 0.9429734375
vt 0.13737578125 0.93683515625
vt 0.13842890625 0.9378625
vt 0.1274390625 0.9443890625
vt 0.0826796875 0.923559375
vt 0.0762171875 0.9120359375
vt 0.07726953125 0.91100859375
vt 0.08410546875 0.92318671875
vt 0.13737578125 0.93683515625
vt 0.14334765625 0.9261859375
vt 0.14477421875 0.92655859375
vt 0.13842890625 0.9378625
vt 0.0449671875 0.9864015625
vt 0.0514296875 0.974878125
vt 0.05285546875 0.97525078125
vt 0.04601953125 0.98742890625
vt 0.11209765625 0.9722515625
vt 0.10612578125 0.96160234375
vt 0.10717890625 0.960575
vt 0.11352421875 0.97187890625
vt 0.097697421875 0.546875
vt 0.089463671875 0.546875
vt 0.0898028125 0.5390625
vt 0.098036328125 0.5390625
vt 0.0514296875 0.974878125
vt 0.05133203125 0.96118828125
vt 0.05285546875 0.96118828125
vt 0.05285546875 0.97525078125
vt 0.112 0.98493203125
vt 0.11209765625 0.9722515625
vt 0.11352421875 0.97187890625
vt 0.11352421875 0.98493203125
vt 0.08258203125 0.93724921875
vt 0.0826796875 0.923559375
vt 0.08410546875 0.92318671875
vt 0.08410546875 0.93724921875
vt 0.2578125 0.547671015625
vt 0.2578125 0.5393999218750001
vt 0.265625 0.5390625
vt 0.265625 0.5473334375000001
vt 0.14334765625 0.9261859375
vt 0.14325 0.9135054687499999
vt 0.14477421875 0.9135054687499999
vt 0.14477421875 0.92655859375
vn -1 2.220446049250313e-16 0
vn -0.6734306501309715 0.3785809999005827 0.6349547904996482
vn -0.2280683416146652 0.4971440631990251 0.8371574594896113
vn 0.22739096820064436 0.49757742674361227 0.8370842561988481
vn 0.8436192898663818 0.2749757883158271 0.4611884751437655
vn 1 -2.220446049250313e-16 0
vn -1 2.220446049250313e-16 0
vn -0.6695476637336292 0.6483292448652649 0.36245705434061365
vn -0.22504893901740652 0.8496486561531603 0.4769173263200535
vn 0.22436782875727113 0.8499733016490268 0.47665969401932906
vn 0.841570574888913 0.4714698165635071 0.263581447660335
vn 1 -2.220446049250313e-16 0
vn -1 2.220446049250313e-16 0
vn -0.6652464051027258 0.7466238815480658 0
vn -0.22357924894329034 0.9746857542007857 0
vn 0.2233006516393492 0.9747247781822042 -0.006958863060521146
vn 0.8409152312749435 0.5411668631852921 0
vn 1 -2.220446049250313e-16 0
vn -1 2.220446049250313e-16 0
vn -0.6628804117417473 0.6535268088725161 -0.3653659395920716
vn -0.20141223065632638 0.8468274154731912 -0.4922564796374329
vn 0.20164976297460116 0.8004747122531521 -0.5644267960821142
vn 0.8429359210878729 0.4696068882811334 -0.26254219359685876
vn 1 -2.220446049250313e-16 0
vn -1 2.220446049250313e-16 0
vn -0.5568113670246255 0.3177832840627498 -0.7674469922557917
vn -0.10594855602463861 0.2636717575604666 -0.958776359607009
vn 0.08462995951834057 0.2701636410808332 -0.959087783776788
vn 0.8011013584517828 0.22898325826808094 -0.5529948290170913
vn 1 -2.220446049250313e-16 0
vn -1 2.220446049250313e-16 0
vn -0.5417326176516909 1.2028880506147275e-16 -0.8405508735182226
vn -0.0851105514932967 1.88983387812806e-17 -0.9963715140571346
vn 0.0965024697141375 -2.1427852761965462e-17 -0.9953327450350823
vn 0.7922471882702674 -1.7591421392243843e-16 -0.6102002889853916
vn 1 -2.220446049250313e-16 0
vn -1 2.220446049250313e-16 0
vn -0.7480431798801981 -0.2501280343259958 -0.6147091730883273
vn -0.13785978445247463 -0.1164510242488189 -0.9835821464331885
vn 0.14574110608156443 -0.1729677848675344 -0.9740850452584418
vn 0.8350830415497735 -0.20734031398524402 -0.5095550097020731
vn 1 -2.220446049250313e-16 0
vn -1 2.220446049250313e-16 0
vn -0.664682577658661 -0.6521307541890826 -0.36458545006324194
vn -0.23130634447163184 -0.9269944277863746 -0.2952604034749372
vn 0.22676772395058 -0.8725871856437954 -0.432629174726479
vn 0.8434770921211531 -0.46886599002676793 -0.26212798107615826
vn 1 -2.220446049250313e-16 0
vn -1 2.220446049250313e-16 0
vn -0.6652464051027258 -0.7466238815480657 0
vn -0.22357924894329115 -0.9746857542007854 0
vn 0.22283166780705888 -0.9748565999009933 -0.0008108340148541818
vn 0.840915231274943 -0.5411668631852925 0
vn 1 -2.220446049250313e-16 0
vn -1 2.220446049250313e-16 0
vn -0.6677730532401007 -0.649722178084498 0.3632357921124096
vn -0.22504604987335855 -0.8496492380619113 0.47691765295196586
vn 0.22432377409851714 -0.8499821476114137 0.4766646547795278
vn 0.8410210663713208 -0.4722162810903001 0.2639987685442746
vn 1 -2.220446049250313e-16 0
vn -1 2.220446049250313e-16 0
vn -0.6716538435781568 -0.3794079158061058 0.636341691098702
vn -0.22806639214247712 -0.4971442963627365 0.8371578521217572
vn 0.22735024181104632 -0.4975822855106257 0.8370924301978135
vn 0.843068423702239 -0.2754185207419278 0.4619310244923484
vn 1 -2.220446049250313e-16 0
vn -1 2.220446049250313e-16 0
vn -0.6743103360341045 1.4972697216155784e-16 0.7384480826148669
vn -0.22962682472453774 5.0987397576149394e-17 0.9732787480300423
vn 0.2289292775907463 -5.0832510998410085e-17 0.9734430573288707
vn 0.8444966655658348 -1.8751592846607208e-16 0.5355608105978129
vn 1 -2.220446049250313e-16 0
vn -1 2.220446049250313e-16 0
vn 1 -2.220446049250313e-16 0
vn -1 2.220446049250313e-16 0
vn 1 -2.220446049250313e-16 0
vn -1 2.220446049250313e-16 0
vn 1 -2.220446049250313e-16 0
vn -1 2.220446049250313e-16 0
vn 1 -2.220446049250313e-16 0
vn -1 2.220446049250313e-16 0
vn 1 -2.220446049250313e-16 0
vn -1 2.220446049250313e-16 0
vn 1 -2.220446049250313e-16 0
vn -1 2.220446049250313e-16 0
vn 1 -2.220446049250313e-16 0
vn -1 2.220446049250313e-16 0
vn 1 -2.220446049250313e-16 0
vn -1 2.220446049250313e-16 0
vn 1 -2.220446049250313e-16 0
vn -1 2.220446049250313e-16 0
vn 1 -2.220446049250313e-16 0
vn -1 2.220446049250313e-16 0
vn 1 -2.220446049250313e-16 0
vn -1 2.220446049250313e-16 0
vn 1 -2.220446049250313e-16 0
vn 1.142531414610737e-16 0.5145504053100001 0.8574601334145597
vn 1.142531414610737e-16 0.5145504053100001 0.8574601334145597
vn 1.9410919521570254e-16 0.8741900992426248 0.485583844857065
vn 1.9410919521570254e-16 0.8741900992426248 0.485583844857065
vn 2.220446049250313e-16 1 0
vn 2.220446049250313e-16 1 0
vn 1.941091952157025e-16 0.8741900992426247 -0.48558384485706485
vn 1.941091952157025e-16 0.8741900992426247 -0.48558384485706485
vn 1.142531414610737e-16 0.5145504053100001 -0.8574601334145597
vn 1.142531414610737e-16 0.5145504053100001 -0.8574601334145597
vn 0 0 -1
vn 0 0 -1
vn -1.142531414610737e-16 -0.5145504053100001 -0.8574601334145597
vn -1.142531414610737e-16 -0.5145504053100001 -0.8574601334145597
vn -1.9410919521570249e-16 -0.8741900992426246 -0.4855838448570651
vn -1.9410919521570249e-16 -0.8741900992426246 -0.4855838448570651
vn -2.220446049250313e-16 -1 0
vn -2.220446049250313e-16 -1 0
vn -1.9410919521570249e-16 -0.8741900992426246 0.48558384485706524
vn -1.9410919521570249e-16 -0.8741900992426246 0.48558384485706524
vn -1.142531414610737e-16 -0.5145504053100001 0.8574601334145597
vn -1.142531414610737e-16 -0.5145504053100001 0.8574601334145597
vn 0 0 1
vn 0 0 1
vn -0.15801007161239566 0.26781528483932937 -0.9504250577901839
vn -0.08534439768360864 1.895026306622164e-17 -0.9963515111565908
vn -0.16869212204047984 -0.1725732163163864 -0.9704439463316249
vn -0.19821266534126736 -0.8781736619539507 -0.43534211690198216
vn -0.22192304914569164 -0.9750636644379758 -0.0010052614911645241
vn -0.22333562666852166 -0.8501800823106699 0.476775655316839
vn -0.2263463522747422 -0.497701762161167 0.8372934281084424
vn -0.2278783679365489 5.059916217943192e-17 0.9736896063050972
vn -0.2263057927217923 0.49770657759148623 0.8373015292012378
vn -0.22329175334996798 0.8501888491997691 0.4767805717332338
vn -0.22143373031664124 0.9751505704175841 -0.006961902923592817
vn -0.21679495743993016 0.7978042690272867 -0.5625906991325537
vn 0.08479839428441306 -1.882902595715953e-17 -0.9963981294275824
vn 0.16737731012986232 -0.11591502453113904 -0.9790549234550826
vn 0.1921351780841186 -0.9350816125902218 -0.29783628244096544
vn 0.22279435523125685 -0.9748654652192213 0
vn 0.2242594312797253 -0.8498073799339706 0.47700641975958175
vn 0.22726938832760488 -0.49723944471918297 0.8373180756107892
vn 0.22882301397205335 -5.0808915735179504e-17 0.9734680417336492
vn 0.2272674449391846 0.4972396762965701 0.8373184655716708
vn 0.22425655119551596 0.8498079578749662 0.4770067441643491
vn 0.22279435523125685 0.9748654652192212 0
vn 0.2234411184188738 0.8426869913273036 -0.4898496720907954
vn 0.15790259581997462 0.2618376380732827 -0.952107043100469
vn 0.1695519901303186 0.0791948163840594 -0.9823341100159068
vn 0.15334848566033804 0.0069828179974383755 -0.9881475002237752
vn 0.2307959039902772 -0.02192272804033905 -0.972755182302608
vn 0.16155772453021475 -3.587302111589857e-17 -0.9868632639046908
vn 0.16155772453021475 -3.587302111589857e-17 -0.9868632639046908
vn -0.1621410566583847 3.600254686783815e-17 -0.9867675905428301
vn -0.16214105665838474 3.6002546867838157e-17 -0.9867675905428303
vn -0.14493842778523588 0.03975864831039704 -0.9886415437536875
vn -0.17587576719340975 3.905226524234745e-17 -0.984412370154972
vn -0.0978191483446625 -0.00929159724770483 -0.9951608314426927
vn -0.08651921704792694 0.9960201968568229 -0.021405432364467243
vn 0.24615831735413674 -0.96922963367686 0
vn -0.9636846943284817 0.09002763156929486 -0.2514096964539047
vn 0.17355916097841617 -0.984823444908004 0
vn -0.07970390034089121 0.9968185834295272 0
vn 0.07999755289719042 0.9967950599448521 0
vn -0.17418322447278745 -0.9847132599453826 0
vn -0.2396418622329869 -0.9688463208624365 0.06251867254530387
vn 0.07834196644163118 0.9969265450844703 0
vn 0.8740259137764625 -1.940727387187341e-16 0.48587930810770263
vn 0.22841897126789237 -0.9728605504056312 0.03697462683206009
vn -1 2.220446049250313e-16 0
vn 0.9180695168638248 -0.3928222726565749 -0.0532824953464766
vn -0.23315850431131946 -0.9724387445321728 0
vn -0.900175738086395 -0.4104281915166186 0.14571321206058277
vn 1 -2.220446049250313e-16 0
vn 1 -2.220446049250313e-16 0
vn -1 2.220446049250313e-16 0
vn -1 2.220446049250313e-16 0
vn 1 -2.220446049250313e-16 0
vn -1 2.220446049250313e-16 0
vn -0.15129924155796406 -0.41438844680039466 0.8974356548869349
vn 1 -2.220446049250313e-16 0
vn 0.15071410766855317 -0.41516462507008056 0.8971753406330846
vn 1 -2.220446049250313e-16 0
vn -1 2.220446049250313e-16 0
vn 0.6460193485723816 0.29202899607083554 -0.7052503574788003
vn 0.5410354254811303 -1.2013399730140379e-16 -0.8409998028385336
vn 0.5506487640732989 -0.3146102889752984 -0.7731793483373879
vn 0.718073253182287 -0.6074770616344555 -0.33962099854422334
vn 0.664570629251359 -0.7472254537530508 0
vn 0.6688745129762513 -0.6488584039218116 0.36275288772223674
vn 0.6727599855067451 -0.3788935922764672 0.6354790693900142
vn 0.6736402500445262 -1.4957818318273613e-16 0.7390594113601073
vn 0.6709820275891399 0.37971953799290253 0.6368643427911655
vn 0.6670988030587224 0.6502496632848197 0.3635306897025322
vn 0.6645706292513596 0.7472254537530505 0
vn 0.6640064676944145 0.6526552997246317 -0.36487870669763356
vn -0.8357006083022975 0.21010561023128868 -0.5074052875488269
vn -0.7922471882702674 1.7591421392243843e-16 -0.6102002889853916
vn -0.7986660535634827 -0.22680728768226416 -0.557396617445376
vn -0.8429359210878731 -0.46960688828113345 -0.2625421935968588
vn -0.8409152312749435 -0.5411668631852921 0
vn -0.841570574888913 -0.47146981656350706 0.26358144766033503
vn -0.8436192898663817 -0.27497578831582703 0.4611884751437653
vn -0.8444966655658348 1.8751592846607208e-16 0.5355608105978129
vn -0.843068423702239 0.2754185207419278 0.4619310244923484
vn -0.8410210663713206 0.4722162810903001 0.26399876854427456
vn -0.840915231274943 0.5411668631852925 0
vn -0.8434770921211532 0.46886599002676804 -0.2621279810761582
vn -1 2.220446049250313e-16 0
vn 1 -2.220446049250313e-16 0
vn -1 2.220446049250313e-16 0
vn 1 -2.220446049250313e-16 0
vn -1 2.220446049250313e-16 0
vn 1 -2.220446049250313e-16 0
vn -1 2.220446049250313e-16 0
vn 1 -2.220446049250313e-16 0
vn -1 2.220446049250313e-16 0
vn 1 -2.220446049250313e-16 0
vn -1 2.220446049250313e-16 0
vn 1 -2.220446049250313e-16 0
vn -1 2.220446049250313e-16 0
vn 1 -2.220446049250313e-16 0
vn -1 2.220446049250313e-16 0
vn 1 -2.220446049250313e-16 0
vn -1 2.220446049250313e-16 0
vn 1 -2.220446049250313e-16 0
vn -1 2.220446049250313e-16 0
vn 1 -2.220446049250313e-16 0
vn -1 2.220446049250313e-16 0
vn 1 -2.220446049250313e-16 0
vn -1 2.220446049250313e-16 0
vn 1 -2.220446049250313e-16 0
vn -1.1425350907577857e-16 -0.5145520608994479 -0.8574591399152095
vn -1.1425350907577857e-16 -0.5145520608994479 -0.8574591399152095
vn -1.941100049432463e-16 -0.8741937459312892 -0.48557727971417797
vn -1.941100049432463e-16 -0.8741937459312892 -0.48557727971417797
vn -2.220446049250313e-16 -1 0
vn -2.220446049250313e-16 -1 0
vn -1.9411000494324625e-16 -0.874193745931289 0.48557727971417797
vn -1.9411000494324625e-16 -0.874193745931289 0.48557727971417797
vn -1.1425350907577854e-16 -0.5145520608994478 0.8574591399152095
vn -1.1425350907577854e-16 -0.5145520608994478 0.8574591399152095
vn 0 0 1
vn 0 0 1
vn 1.1425350907577854e-16 0.5145520608994478 0.8574591399152097
vn 1.1425350907577854e-16 0.5145520608994478 0.8574591399152097
vn 1.9411000494324625e-16 0.874193745931289 0.48557727971417797
vn 1.9411000494324625e-16 0.874193745931289 0.48557727971417797
vn 2.220446049250313e-16 1 0
vn 2.220446049250313e-16 1 0
vn 1.941100049432463e-16 0.8741937459312892 -0.48557727971417797
vn 1.941100049432463e-16 0.8741937459312892 -0.48557727971417797
vn 1.1425350907577854e-16 0.5145520608994478 -0.8574591399152096
vn 1.1425350907577854e-16 0.5145520608994478 -0.8574591399152096
vn 0 0 -1
vn 0 0 -1
vn 1 -2.220446049250313e-16 0
vn 0.02673452106677248 -0.9788362586609186 0.20289121251061018
vn -1 2.220446049250313e-16 0
vn -0.026537631401828618 -0.9787615804140908 0.20327696088069627
vn -1 2.220446049250313e-16 0
vn 1 -2.220446049250313e-16 0
vn -1 2.220446049250313e-16 0
vn 1 -2.220446049250313e-16 0
vn 1 -2.220446049250313e-16 0
vn -1 2.220446049250313e-16 0
vn 1 -2.220446049250313e-16 0
vn -1 2.220446049250313e-16 0
vn -1 2.220446049250313e-16 0
vn 1 -2.220446049250313e-16 0
vn -1 2.220446049250313e-16 0
vn 1 -2.220446049250313e-16 0
vn 1 -2.220446049250313e-16 0
vn -1 2.220446049250313e-16 0
vn 1 -2.220446049250313e-16 0
vn -1 2.220446049250313e-16 0
vn -1 2.220446049250313e-16 0
vn 1 -2.220446049250313e-16 0
vn -1 2.220446049250313e-16 0
vn 1 -2.220446049250313e-16 0
vn 1 -2.220446049250313e-16 0
vn -1 2.220446049250313e-16 0
vn 1 -2.220446049250313e-16 0
vn -1 2.220446049250313e-16 0
vn -1 2.220446049250313e-16 0
vn 1 -2.220446049250313e-16 0
vn -1 2.220446049250313e-16 0
vn 1 -2.220446049250313e-16 0
vn 1 -2.220446049250313e-16 0
vn -1 2.220446049250313e-16 0
vn -0.0628914879981982 1.3964715605707268e-17 0.9980203709030055
vn 1 -2.220446049250313e-16 0
vn -1 2.220446049250313e-16 0
vn -1 2.220446049250313e-16 0
vn 0.06258812613957526 -1.3897355741660014e-17 0.998039441338035
vn 1 -2.220446049250313e-16 0
usemtl m_560b2853-9d7a-f7a7-3613-5009d71d2e44
f 230/1/1 231/2/1 242/3/1
f 6/4/2 190/5/2 189/6/2 2/7/2
f 129/8/3 109/9/3 108/10/3 124/11/3
f 271/12/4 272/13/4 270/14/4 269/15/4
f 8/16/5 178/17/5 177/18/5 4/19/5
f 218/20/6 217/21/6 229/22/6
f 231/23/7 232/24/7 242/25/7
f 10/26/8 191/27/8 190/28/8 6/29/8
f 130/30/9 110/31/9 109/32/9 129/33/9
f 277/34/10 278/35/10 272/36/10 271/37/10
f 12/38/11 179/39/11 178/40/11 8/41/11
f 219/42/12 218/43/12 229/44/12
f 232/45/13 233/46/13 242/47/13
f 14/48/14 192/49/14 191/50/14 10/51/14
f 131/52/15 111/53/15 110/54/15 130/55/15
f 279/56/16 280/57/16 278/58/16 277/59/16
f 16/60/17 180/61/17 179/62/17 12/63/17
f 220/64/18 219/65/18 229/66/18
f 233/67/19 234/68/19 242/69/19
f 18/70/20 181/71/20 192/72/20 14/73/20
f 132/74/21 100/75/21 111/76/21 131/77/21
f 164/78/22 163/79/22 165/80/22 166/81/22
f 20/82/23 169/83/23 180/84/23 16/85/23
f 221/86/24 220/87/24 229/88/24
f 234/89/25 235/90/25 242/91/25
f 22/92/26 182/93/26 181/94/26 18/95/26
f 23/96/27 101/97/27 100/98/27 132/99/27
f 156/100/28 155/101/28 163/102/28 164/103/28
f 25/104/29 170/105/29 169/106/29 20/107/29
f 222/108/30 221/109/30 229/110/30
f 235/111/31 236/112/31 242/113/31
f 27/114/32 183/115/32 182/116/32 22/117/32
f 148/118/33 150/119/33 149/120/33 147/121/33
f 143/122/34 145/123/34 144/124/34 146/125/34
f 30/126/35 171/127/35 170/128/35 25/129/35
f 223/130/36 222/131/36 229/132/36
f 236/133/37 237/134/37 242/135/37
f 32/136/38 184/137/38 183/138/38 27/139/38
f 33/140/39 103/141/39 102/142/39 28/143/39
f 243/144/40 245/145/40 244/146/40 246/147/40
f 35/148/41 172/149/41 171/150/41 30/151/41
f 224/152/42 223/153/42 229/154/42
f 237/155/43 238/156/43 242/157/43
f 37/158/44 185/159/44 184/160/44 32/161/44
f 125/162/45 104/163/45 103/164/45 33/165/45
f 253/166/46 254/167/46 245/168/46 243/169/46
f 39/170/47 173/171/47 172/172/47 35/173/47
f 225/174/48 224/175/48 229/176/48
f 238/177/49 239/178/49 242/179/49
f 41/180/50 186/181/50 185/182/50 37/183/50
f 126/184/51 105/185/51 104/186/51 125/187/51
f 255/188/52 256/189/52 254/190/52 253/191/52
f 43/192/53 174/193/53 173/194/53 39/195/53
f 226/196/54 225/197/54 229/198/54
f 239/199/55 240/200/55 242/201/55
f 45/202/56 187/203/56 186/204/56 41/205/56
f 127/206/57 106/207/57 105/208/57 126/209/57
f 261/210/58 262/211/58 256/212/58 255/213/58
f 47/214/59 175/215/59 174/216/59 43/217/59
f 227/218/60 226/219/60 229/220/60
f 240/221/61 241/222/61 242/223/61
f 49/224/62 188/225/62 187/226/62 45/227/62
f 128/228/63 107/229/63 106/230/63 127/231/63
f 263/232/64 264/233/64 262/234/64 261/235/64
f 51/236/65 176/237/65 175/238/65 47/239/65
f 228/240/66 227/241/66 229/242/66
f 241/243/67 230/244/67 242/245/67
f 2/246/68 189/247/68 188/248/68 49/249/68
f 124/250/69 108/251/69 107/252/69 128/253/69
f 269/254/70 270/255/70 264/256/70 263/257/70
f 4/258/71 177/259/71 176/260/71 51/261/71
f 217/262/72 228/263/72 229/264/72
f 65/265/73 64/266/73 1/267/73 5/268/73
f 52/269/74 53/270/74 8/271/74 4/272/74
f 66/273/75 65/274/75 5/275/75 9/276/75
f 53/277/76 54/278/76 12/279/76 8/280/76
f 67/281/77 66/282/77 9/283/77 13/284/77
f 54/285/78 55/286/78 16/287/78 12/288/78
f 68/289/79 67/290/79 13/291/79 17/292/79
f 55/293/80 56/294/80 20/295/80 16/296/80
f 69/297/81 68/298/81 17/299/81 21/300/81
f 56/301/82 57/302/82 25/303/82 20/304/82
f 70/305/83 69/306/83 21/307/83 26/308/83
f 57/309/84 58/310/84 30/311/84 25/312/84
f 71/313/85 70/314/85 26/315/85 31/316/85
f 58/317/86 59/318/86 35/319/86 30/320/86
f 72/321/87 71/322/87 31/323/87 36/324/87
f 59/325/88 60/326/88 39/327/88 35/328/88
f 73/329/89 72/330/89 36/331/89 40/332/89
f 60/333/90 61/334/90 43/335/90 39/336/90
f 74/337/91 73/338/91 40/339/91 44/340/91
f 61/341/92 62/342/92 47/343/92 43/344/92
f 75/345/93 74/346/93 44/347/93 48/348/93
f 62/349/94 63/350/94 51/351/94 47/352/94
f 64/353/95 75/354/95 48/355/95 1/356/95
f 63/357/96 52/358/96 4/359/96 51/360/96
f 89/361/97 88/362/97 64/363/97 65/364/97
f 76/365/98 77/366/98 53/367/98 52/368/98
f 90/369/99 89/370/99 65/371/99 66/372/99
f 77/373/100 78/374/100 54/375/100 53/376/100
f 91/377/101 90/378/101 66/379/101 67/380/101
f 78/381/102 79/382/102 55/383/102 54/384/102
f 92/385/103 91/386/103 67/387/103 68/388/103
f 79/389/104 80/390/104 56/391/104 55/392/104
f 93/393/105 92/394/105 68/395/105 69/396/105
f 80/397/106 81/398/106 57/399/106 56/400/106
f 94/401/107 93/402/107 69/403/107 70/404/107
f 81/405/108 82/406/108 58/407/108 57/408/108
f 95/409/109 94/410/109 70/411/109 71/412/109
f 82/413/110 83/414/110 59/415/110 58/416/110
f 96/417/111 95/418/111 71/419/111 72/420/111
f 83/421/112 84/422/112 60/423/112 59/424/112
f 97/425/113 96/426/113 72/427/113 73/428/113
f 84/429/114 85/430/114 61/431/114 60/432/114
f 98/433/115 97/434/115 73/435/115 74/436/115
f 85/437/116 86/438/116 62/439/116 61/440/116
f 99/441/117 98/442/117 74/443/117 75/444/117
f 86/445/118 87/446/118 63/447/118 62/448/118
f 88/449/119 99/450/119 75/451/119 64/452/119
f 87/453/120 76/454/120 52/455/120 63/456/120
f 161/457/121 162/458/121 160/459/121 159/460/121
f 151/461/122 149/462/122 150/463/122 152/464/122
f 247/465/123 248/466/123 249/467/123 250/468/123
f 250/469/124 249/470/124 251/471/124 252/472/124
f 252/473/125 251/474/125 257/475/125 258/476/125
f 258/477/126 257/478/126 259/479/126 260/480/126
f 260/481/127 259/482/127 265/483/127 266/484/127
f 266/485/128 265/486/128 267/487/128 268/488/128
f 268/489/129 267/490/129 273/491/129 274/492/129
f 274/493/130 273/494/130 275/495/130 276/496/130
f 276/497/131 275/498/131 281/499/131 282/500/131
f 167/501/132 168/502/132 162/503/132 161/504/132
f 147/505/133 144/506/133 145/507/133 148/508/133
f 28/509/134 113/510/134 114/511/134 33/512/134
f 33/513/135 114/514/135 115/515/135 125/516/135
f 125/517/136 115/518/136 116/519/136 126/520/136
f 126/521/137 116/522/137 117/523/137 127/524/137
f 127/525/138 117/526/138 118/527/138 128/528/138
f 128/529/139 118/530/139 119/531/139 124/532/139
f 124/533/140 119/534/140 120/535/140 129/536/140
f 129/537/141 120/538/141 121/539/141 130/540/141
f 130/541/142 121/542/142 122/543/142 131/544/142
f 131/545/143 122/546/143 123/547/143 132/548/143
f 132/549/144 123/550/144 112/551/144 23/552/144
f 135/553/145 133/554/145 29/555/145 113/556/145
f 153/557/146 154/558/146 155/559/146 156/560/146
f 133/561/147 136/562/147 24/563/147 29/564/147
f 134/565/148 137/566/148 23/567/148 112/568/148
f 138/569/149 135/570/149 113/571/149 28/572/149
f 140/573/150 138/574/150 28/575/150 102/576/150
f 137/577/151 139/578/151 101/579/151 23/580/151
f 157/581/152 158/582/152 159/583/152 160/584/152
f 142/585/153 140/586/153 102/587/153 27/588/153
f 141/589/154 142/590/154 27/591/154 22/592/154
f 145/593/155 143/594/155 133/595/155 135/596/155
f 146/597/156 144/598/156 134/599/156 136/600/156
f 143/601/157 146/602/157 136/603/157 133/604/157
f 144/605/158 147/606/158 137/607/158 134/608/158
f 148/609/159 145/610/159 135/611/159 138/612/159
f 150/613/160 148/614/160 138/615/160 140/616/160
f 147/617/161 149/618/161 139/619/161 137/620/161
f 149/621/162 151/622/162 141/623/162 139/624/162
f 152/625/163 150/626/163 140/627/163 142/628/163
f 151/629/164 152/630/164 142/631/164 141/632/164
f 154/633/165 153/634/165 136/635/165 134/636/165
f 155/637/166 154/638/166 134/639/166 112/640/166
f 153/641/167 156/642/167 24/643/167 136/644/167
f 158/645/168 157/646/168 139/647/168 141/648/168
f 159/649/169 158/650/169 141/651/169 22/652/169
f 157/653/170 160/654/170 101/655/170 139/656/170
f 160/657/171 162/658/171 100/659/171 101/660/171
f 161/661/172 159/662/172 22/663/172 18/664/172
f 163/665/173 155/666/173 112/667/173 123/668/173
f 156/669/174 164/670/174 19/671/174 24/672/174
f 165/673/175 163/674/175 123/675/175 122/676/175
f 166/677/176 165/678/176 122/679/176 15/680/176
f 164/681/177 166/682/177 15/683/177 19/684/177
f 168/685/178 167/686/178 14/687/178 111/688/178
f 162/689/179 168/690/179 111/691/179 100/692/179
f 167/693/180 161/694/180 18/695/180 14/696/180
f 19/697/181 169/698/181 170/699/181 24/700/181
f 24/701/182 170/702/182 171/703/182 29/704/182
f 29/705/183 171/706/183 172/707/183 34/708/183
f 34/709/184 172/710/184 173/711/184 38/712/184
f 38/713/185 173/714/185 174/715/185 42/716/185
f 42/717/186 174/718/186 175/719/186 46/720/186
f 46/721/187 175/722/187 176/723/187 50/724/187
f 50/725/188 176/726/188 177/727/188 3/728/188
f 3/729/189 177/730/189 178/731/189 7/732/189
f 7/733/190 178/734/190 179/735/190 11/736/190
f 11/737/191 179/738/191 180/739/191 15/740/191
f 15/741/192 180/742/192 169/743/192 19/744/192
f 17/745/193 181/746/193 182/747/193 21/748/193
f 21/749/194 182/750/194 183/751/194 26/752/194
f 26/753/195 183/754/195 184/755/195 31/756/195
f 31/757/196 184/758/196 185/759/196 36/760/196
f 36/761/197 185/762/197 186/763/197 40/764/197
f 40/765/198 186/766/198 187/767/198 44/768/198
f 44/769/199 187/770/199 188/771/199 48/772/199
f 48/773/200 188/774/200 189/775/200 1/776/200
f 1/777/201 189/778/201 190/779/201 5/780/201
f 5/781/202 190/782/202 191/783/202 9/784/202
f 9/785/203 191/786/203 192/787/203 13/788/203
f 13/789/204 192/790/204 181/791/204 17/792/204
f 206/793/205 205/794/205 88/795/205 89/796/205
f 193/797/206 194/798/206 77/799/206 76/800/206
f 207/801/207 206/802/207 89/803/207 90/804/207
f 194/805/208 195/806/208 78/807/208 77/808/208
f 208/809/209 207/810/209 90/811/209 91/812/209
f 195/813/210 196/814/210 79/815/210 78/816/210
f 209/817/211 208/818/211 91/819/211 92/820/211
f 196/821/212 197/822/212 80/823/212 79/824/212
f 210/825/213 209/826/213 92/827/213 93/828/213
f 197/829/214 198/830/214 81/831/214 80/832/214
f 211/833/215 210/834/215 93/835/215 94/836/215
f 198/837/216 199/838/216 82/839/216 81/840/216
f 212/841/217 211/842/217 94/843/217 95/844/217
f 199/845/218 200/846/218 83/847/218 82/848/218
f 213/849/219 212/850/219 95/851/219 96/852/219
f 200/853/220 201/854/220 84/855/220 83/856/220
f 214/857/221 213/858/221 96/859/221 97/860/221
f 201/861/222 202/862/222 85/863/222 84/864/222
f 215/865/223 214/866/223 97/867/223 98/868/223
f 202/869/224 203/870/224 86/871/224 85/872/224
f 216/873/225 215/874/225 98/875/225 99/876/225
f 203/877/226 204/878/226 87/879/226 86/880/226
f 205/881/227 216/882/227 99/883/227 88/884/227
f 204/885/228 193/886/228 76/887/228 87/888/228
f 231/889/229 230/890/229 205/891/229 206/892/229
f 217/893/230 218/894/230 194/895/230 193/896/230
f 232/897/231 231/898/231 206/899/231 207/900/231
f 218/901/232 219/902/232 195/903/232 194/904/232
f 233/905/233 232/906/233 207/907/233 208/908/233
f 219/909/234 220/910/234 196/911/234 195/912/234
f 234/913/235 233/914/235 208/915/235 209/916/235
f 220/917/236 221/918/236 197/919/236 196/920/236
f 235/921/237 234/922/237 209/923/237 210/924/237
f 221/925/238 222/926/238 198/927/238 197/928/238
f 236/929/239 235/930/239 210/931/239 211/932/239
f 222/933/240 223/934/240 199/935/240 198/936/240
f 237/937/241 236/938/241 211/939/241 212/940/241
f 223/941/242 224/942/242 200/943/242 199/944/242
f 238/945/243 237/946/243 212/947/243 213/948/243
f 224/949/244 225/950/244 201/951/244 200/952/244
f 239/953/245 238/954/245 213/955/245 214/956/245
f 225/957/246 226/958/246 202/959/246 201/960/246
f 240/961/247 239/962/247 214/963/247 215/964/247
f 226/965/248 227/966/248 203/967/248 202/968/248
f 241/969/249 240/970/249 215/971/249 216/972/249
f 227/973/250 228/974/250 204/975/250 203/976/250
f 230/977/251 241/978/251 216/979/251 205/980/251
f 228/981/252 217/982/252 193/983/252 204/984/252
f 244/985/253 245/986/253 114/987/253 113/988/253
f 246/989/254 244/990/254 113/991/254 29/992/254
f 243/993/255 246/994/255 29/995/255 34/996/255
f 248/997/256 247/998/256 27/999/256 102/1000/256
f 249/1001/257 248/1002/257 102/1003/257 103/1004/257
f 247/1005/258 250/1006/258 32/1007/258 27/1008/258
f 251/1009/259 249/1010/259 103/1011/259 104/1012/259
f 250/1013/260 252/1014/260 37/1015/260 32/1016/260
f 245/1017/261 254/1018/261 115/1019/261 114/1020/261
f 253/1021/262 243/1022/262 34/1023/262 38/1024/262
f 254/1025/263 256/1026/263 116/1027/263 115/1028/263
f 255/1029/264 253/1030/264 38/1031/264 42/1032/264
f 257/1033/265 251/1034/265 104/1035/265 105/1036/265
f 252/1037/266 258/1038/266 41/1039/266 37/1040/266
f 259/1041/267 257/1042/267 105/1043/267 106/1044/267
f 258/1045/268 260/1046/268 45/1047/268 41/1048/268
f 256/1049/269 262/1050/269 117/1051/269 116/1052/269
f 261/1053/270 255/1054/270 42/1055/270 46/1056/270
f 262/1057/271 264/1058/271 118/1059/271 117/1060/271
f 263/1061/272 261/1062/272 46/1063/272 50/1064/272
f 265/1065/273 259/1066/273 106/1067/273 107/1068/273
f 260/1069/274 266/1070/274 49/1071/274 45/1072/274
f 267/1073/275 265/1074/275 107/1075/275 108/1076/275
f 266/1077/276 268/1078/276 2/1079/276 49/1080/276
f 264/1081/277 270/1082/277 119/1083/277 118/1084/277
f 269/1085/278 263/1086/278 50/1087/278 3/1088/278
f 270/1089/279 272/1090/279 120/1091/279 119/1092/279
f 271/1093/280 269/1094/280 3/1095/280 7/1096/280
f 273/1097/281 267/1098/281 108/1099/281 109/1100/281
f 268/1101/282 274/1102/282 6/1103/282 2/1104/282
f 275/1105/283 273/1106/283 109/1107/283 110/1108/283
f 274/1109/284 276/1110/284 10/1111/284 6/1112/284
f 272/1113/285 278/1114/285 121/1115/285 120/1116/285
f 277/1117/286 271/1118/286 7/1119/286 11/1120/286
f 280/1121/287 279/1122/287 15/1123/287 122/1124/287
f 278/1125/288 280/1126/288 122/1127/288 121/1128/288
f 279/1129/289 277/1130/289 11/1131/289 15/1132/289
f 281/1133/290 275/1134/290 110/1135/290 111/1136/290
f 282/1137/291 281/1138/291 111/1139/291 14/1140/291
f 276/1141/292 282/1142/292 14/1143/292 10/1144/292