# Made in Blockbench 5.1.5
mtllib HoundHead.mtl

o sphere
v 0 1.1562500000000002 -0.030267655904805686
v 0 1.527260087646546 0.028113688114570018
v 0 1.3784988678208332 0.29423472259053324
v 0 1.2791525384085787 0.33802825814757675
v 0 1.1716512471509775 0.2843966371800429
v -0.03934937803809876 1.4893638602835997 -0.120977836209201
v -0.05930643709358241 1.3920212122344677 -0.16503819387968527
v -0.10301800913991108 1.4893638602835997 -0.06848987917335239
v -0.17731739915591108 1.3920212122344677 -0.10930156740532587
v -0.1030180091399111 1.1859208659066138 -0.08600428237916513
v -0.12733726220362476 1.4893638602835997 0.016437419310694854
v -0.2003127955498271 1.3927684865764696 -0.0010769838951178792
v -0.12733726220362476 1.1859208659066138 -0.0010769838951178619
v -0.1030180091399111 1.4893638602835997 0.10136471779474211
v -0.1666866402417235 1.3927684865764696 0.136338271624778
v -0.16668664024172355 1.293422157164215 0.13633827162477802
v -0.10301800913991112 1.1859208659066138 0.08385031458892943
v -0.03934937803809875 1.4893638602835997 0.15385267483059079
v -0.06366863110181244 1.3927684865764696 0.2212655701088253
v -0.06366863110181245 1.293422157164215 0.22126557010882536
v -0.03934937803809876 1.1859208659066138 0.13633827162477807
v -0.21976280114843746 1.5164200219558677 -0.1278070738955055
v -0.18220626773021453 1.5510545655505792 -0.10119507875770975
v -0.20506924719685377 1.507419532737858 -0.11973949360245807
v -0.17911768260486172 1.5313520023618035 -0.1013506049622412
v -0.12439859591896203 1.4887237250223206 -0.07875131204945028
v -0.18025786072959418 1.421673640413336 -0.10695218861774396
v -0.1354819092015357 1.4870345286004958 -0.06274193122246616
v -0.19134117401216783 1.4199844439915112 -0.09094280779075982
v -0.20031279554982714 1.293422157164215 -0.0010769838951178792
v -0.21042933774943234 1.505730336316033 -0.10956824717741152
v -0.1844777731574403 1.5296628059399786 -0.09117935853719465
v -0.27161492417570565 1.2791525384085787 -0.06194886976325624
v -0.22380614731224857 1.1716512471509775 -0.05572952912723057
v -0.2523825137530929 1.3784988678208332 0.11871686303475296
v -0.25333617968604194 1.2791525384085787 0.11096049986295117
v -0.2391213330794469 1.1716512471509775 0.11225699767667774
v -0.16577798323645127 1.3784988678208332 0.26363582855962925
v -0.16545959093812973 1.2791525384085787 0.2679946591848492
v -0.16558620180010736 1.1716512471509775 0.25463655789180134
v -0.05930643709358241 1.366704188199799 -0.19797408184591428
v -0.17731739915591108 1.366704188199799 -0.11670296628280742
v -0.17731739915591108 1.366704188199799 -0.10917083852345101
v -0.17731739915591108 1.3920212122344677 -0.10176943964596946
v -0.05930643709358241 1.366704188199799 -0.19044195408655784
v -0.05930643709358241 1.3920212122344677 -0.15750606612032886
v -0.024980408277533766 1.1802270334570821 -0.28605916940556964
v -0.04041914964589882 1.2651438962913564 -0.32696440322088405
v -0.06366863110181245 1.2915411081664816 -0.3095666990823477
v -0.03934937803809876 1.165245516586466 -0.2450755295247304
v -0.16668664024172344 1.293422157164215 -0.13849223941501376
v 0.03934937803809876 1.4893638602835997 -0.120977836209201
v 0.05930643709358241 1.3920212122344677 -0.16503819387968527
v 0.10301800913991108 1.4893638602835997 -0.06848987917335239
v 0.17731739915591108 1.3920212122344677 -0.10930156740532587
v 0.1030180091399111 1.1859208659066138 -0.08600428237916513
v 0.12733726220362476 1.4893638602835997 0.016437419310694854
v 0.2003127955498271 1.3927684865764696 -0.0010769838951178792
v 0.12733726220362476 1.1859208659066138 -0.0010769838951178619
v 0.1030180091399111 1.4893638602835997 0.10136471779474211
v 0.1666866402417235 1.3927684865764696 0.136338271624778
v 0.16668664024172355 1.293422157164215 0.13633827162477802
v 0.10301800913991112 1.1859208659066138 0.08385031458892943
v 0.03934937803809875 1.4893638602835997 0.15385267483059079
v 0.06366863110181244 1.3927684865764696 0.2212655701088253
v 0.06366863110181245 1.293422157164215 0.22126557010882536
v 0.03934937803809876 1.1859208659066138 0.13633827162477807
v 0.21976280114843746 1.5164200219558677 -0.1278070738955055
v 0.18220626773021453 1.5510545655505792 -0.10119507875770975
v 0.20506924719685377 1.507419532737858 -0.11973949360245807
v 0.17911768260486172 1.5313520023618035 -0.1013506049622412
v 0.12439859591896203 1.4887237250223206 -0.07875131204945028
v 0.18025786072959418 1.421673640413336 -0.10695218861774396
v 0.1354819092015357 1.4870345286004958 -0.06274193122246616
v 0.19134117401216783 1.4199844439915112 -0.09094280779075982
v 0.20031279554982714 1.293422157164215 -0.0010769838951178792
v 0.21042933774943234 1.505730336316033 -0.10956824717741152
v 0.1844777731574403 1.5296628059399786 -0.09117935853719465
v 0.27161492417570565 1.2791525384085787 -0.06194886976325624
v 0.22380614731224857 1.1716512471509775 -0.05572952912723057
v 0.2523825137530929 1.3784988678208332 0.11871686303475296
v 0.25333617968604194 1.2791525384085787 0.11096049986295117
v 0.2391213330794469 1.1716512471509775 0.11225699767667774
v 0.16577798323645127 1.3784988678208332 0.26363582855962925
v 0.16545959093812973 1.2791525384085787 0.2679946591848492
v 0.16558620180010736 1.1716512471509775 0.25463655789180134
v 0.05930643709358241 1.366704188199799 -0.19797408184591428
v 0.17731739915591108 1.366704188199799 -0.11670296628280742
v 0.17731739915591108 1.366704188199799 -0.10917083852345101
v 0.17731739915591108 1.3920212122344677 -0.10176943964596946
v 0.05930643709358241 1.366704188199799 -0.19044195408655784
v 0.05930643709358241 1.3920212122344677 -0.15750606612032886
v 0.024980408277533766 1.1802270334570821 -0.28605916940556964
v 0.04041914964589882 1.2651438962913564 -0.32696440322088405
v 0.06366863110181245 1.2915411081664816 -0.3095666990823477
v 0.03934937803809876 1.165245516586466 -0.2450755295247304
v 0.16668664024172344 1.293422157164215 -0.13849223941501376
vt 0.04195625 0.7542084513449443
vt 0.05179375 0.7542084513449443
vt 0.046875 0.7734373575949444
vt 0.40914375 0.8984375
vt 0.40664921875 0.8828125
vt 0.42147578125 0.8828125
vt 0.41898124999999997 0.8984375
vt 0.32436484375 0.69673984375
vt 0.32381953125 0.7135578124999999
vt 0.30899296875 0.7135578124999999
vt 0.30844765625 0.69673984375
vt 0.3173383806423133 0.6193003428079322
vt 0.3076616193576867 0.6210714151639789
vt 0.30766161935768677 0.59375
vt 0.28414375000000003 0.960146524544452
vt 0.29398124999999997 0.960146524544452
vt 0.2890625 0.976562149544452
vt 0.1728875 0.8570913176273006
vt 0.16305 0.8570913176273006
vt 0.16796875 0.8359381926273006
vt 0.50390625 0.5390625
vt 0.51186484375 0.54835703125
vt 0.49594765625 0.54835703125
vt 0.34675860819327914 0.5630427257253557
vt 0.35636639180672086 0.5838239957328455
vt 0.34675860819327914 0.5859375
vt 0.03987587230755386 0.5703125
vt 0.05387412769244615 0.5794554163654526
vt 0.03987587230755385 0.5870320715700591
vt 0.3285248506669477 0.9156352778330148
vt 0.3433501493330523 0.9317062639539798
vt 0.3285248506669477 0.9375
vt 0.47180733408958897 0.828125
vt 0.48131766591041103 0.8448416437169318
vt 0.47180733408958897 0.8473575918300414
vt 0.25059370592660746 0.6060975939309252
vt 0.2650312940733926 0.6182982907841383
vt 0.2505937059266074 0.625
vt 0.30899296875 0.71875
vt 0.30899296875 0.7135578124999999
vt 0.32381953125 0.7135578124999999
vt 0.32381953125 0.71875
vt 0.56562265625 0.609375
vt 0.55937734375 0.609375
vt 0.55758125 0.6015625
vt 0.56741875 0.6015625
vt 0.53010390625 0.9453125
vt 0.54020859375 0.9453125
vt 0.54311484375 0.953125
vt 0.52719765625 0.953125
vt 0.38557265625 0.515625
vt 0.38750234375 0.5
vt 0.39374765625 0.5
vt 0.39567734375 0.515625
vt 0.05179375 0.7542084513449443
vt 0.05988797487192209 0.7606021611686439
vt 0.046874963572818014 0.7734375
vt 0.39003203125 0.86606015625
vt 0.3899359375 0.8515625
vt 0.40625 0.8515625
vt 0.40003046875 0.8671875
vt 0.08101539748685933 0.6632843749999999
vt 0.09205758498685933 0.6632843749999999
vt 0.08907867873685933 0.6796875
vt 0.265625 0.9600836791263284
vt 0.2545828125 0.9600836791263284
vt 0.25773515625 0.9453133666263285
vt 0.09205758498685933 0.6632843749999999
vt 0.1015625 0.6689045614184499
vt 0.08907878209771644 0.6796869308511524
vt 0.15502206466425875 0.8506158145967196
vt 0.1517412782349032 0.8400722694059353
vt 0.16796903029249127 0.8359375
vt 0.276004639307964 0.966482996648841
vt 0.28414375 0.960146524544452
vt 0.2890626050099053 0.9765625
vt 0.16305 0.8570913176273006
vt 0.15502206466425875 0.8506158145967196
vt 0.16796886837011415 0.8359376835756469
vt 0.16406249999999997 0.5925778409247229
vt 0.15377702738057683 0.57955800211415
vt 0.1640625 0.5703125
vt 0.31207396997736747 0.7473690075734943
vt 0.30537103270259885 0.75
vt 0.296875 0.7265625
vt 0.3121494729708142 0.7265625
vt 0.4453125 0.5
vt 0.42734803018028866 0.5
vt 0.4348762744371637 0.49192191587107537
vt 0.04983984375 0.6640593200511371
vt 0.05722824195422938 0.6694050685195607
vt 0.05756741778012941 0.6718746915936888
vt 0.04687575959475787 0.6641389871351515
vt 0.057659375 0.655676507551137
vt 0.04983984375 0.6640593200511371
vt 0.046875 0.6641390075511371
vt 0.05745546875 0.6519624450511371
vt 0.44454355240624865 0.3984375
vt 0.4332713996294869 0.3984375
vt 0.4296875 0.39738251393417556
vt 0.4462617307119315 0.396913174888604
vt 0.42065141213656565 0.4296875
vt 0.4295137124486342 0.4296875
vt 0.4296875 0.43649994317017116
vt 0.4206235557867245 0.4375
vt 0.2265625 0.44909011302585033
vt 0.2265625 0.46055426427729573
vt 0.21875 0.4609375
vt 0.21875 0.4494733487485547
vt 0.5478826937469735 0.5779297420634492
vt 0.546875 0.5667504635357354
vt 0.5546875 0.5668541013069661
vt 0.5546875 0.578125
vt 0.05722824195422938 0.6694050685195607
vt 0.061169639582914034 0.6663691958215935
vt 0.06327188641207325 0.6674807288975997
vt 0.057567460136376564 0.671875
vt 0.5409162420232463 0.5879137224612466
vt 0.5400629921668806 0.5928156624306732
vt 0.53125 0.59375
vt 0.53125 0.5823609130357221
vt 0.59375 0.575312003315049
vt 0.59375 0.5703362828456643
vt 0.6015625 0.5703125
vt 0.6015625 0.575288415630938
vt 0.34375 0.5
vt 0.35258538925067073 0.49209637401887685
vt 0.3621634184961101 0.5
vt 0.4015213586812858 0.6759980977720549
vt 0.4140625 0.6894802612009289
vt 0.4015213586812858 0.6953125
vt 0.4960726715505005 0.75
vt 0.5117398284494995 0.75
vt 0.5062462551041909 0.7595786510890037
vt 0.4296875 0.9030222894251746
vt 0.43613519922220456 0.890625
vt 0.4466280308382886 0.9030222894251746
vt 0.1875 0.5848836206149067
vt 0.1875 0.609375
vt 0.17743555182204404 0.5978640547081947
vt 0.484125390625 0.7265625
vt 0.497123046875 0.736603125
vt 0.479439453125 0.736603125
vt 0.5078125 0.7109375
vt 0.5172308019766708 0.7050996323798949
vt 0.5311654979929513 0.7109375
vt 0.07812500000000001 0.5926967874247929
vt 0.0885634016291044 0.6135861563320523
vt 0.078125 0.6171875
vt 0.4765625 0.8617943445848437
vt 0.4765625 0.8828125
vt 0.4674084662839123 0.8744214562865693
vt 0.438220703125 0.5078125
vt 0.450248046875 0.5177406250000001
vt 0.432564453125 0.5177406250000001
vt 0.5078125 0.7265625
vt 0.5162316700116477 0.7188364666971208
vt 0.5259535194899505 0.7265625
vt 0.07031250000000001 0.627419377558943
vt 0.0848146103960549 0.63831829637641
vt 0.0703125 0.6484375
vt 0.2109375 0.6328125
vt 0.2109375 0.6541643918202055
vt 0.19653480959253986 0.6466577263336495
vt 0.02516706290618871 0.5234375
vt 0.04514543709381129 0.5234375
vt 0.03974402145947992 0.5330684196824788
vt 0.3804730690482847 0.7802932868416882
vt 0.3899640194587763 0.765625
vt 0.3984375 0.7802932868416882
vt 0.09375 0.6270855196796964
vt 0.10802212140740625 0.6379964254170226
vt 0.09375000000000001 0.6484375
vt 0.2040166643360604 0.5601493468995542
vt 0.20401666433606042 0.5859375
vt 0.1953125 0.5735896641693732
vt 0.44397890625 0.984375
vt 0.45418828125 0.99671015625
vt 0.4375 0.99671015625
vt 0.37333585662750346 0.53125
vt 0.3852508602564174 0.524027967556852
vt 0.3984375 0.53125
vt 0.3828125 0.9585868717390327
vt 0.39275679458654617 0.9816351082570833
vt 0.3828125 0.984375
vt 0.45001318736037726 0.5876364131030023
vt 0.45001318736037726 0.609375
vt 0.44061181263962274 0.6012620411540589
vt 0.3732890625 0.5625
vt 0.38387578125 0.5752265624999999
vt 0.3671875 0.5752265624999999
vt 0.48786936976416406 0.8671875
vt 0.4989691409696635 0.8584696476878453
vt 0.5078125 0.8671875
vt 0.328125 0.8298244127647921
vt 0.3427004620158921 0.8434350995482942
vt 0.328125 0.8515625
vt 0.0005980195390096754 0.6640625
vt 0.015625 0.6790488849488583
vt 0.0005980195390096754 0.6868684769141296
vt 0.4143786469202366 0.828125
vt 0.4371838530797634 0.828125
vt 0.43377170384062147 0.8378582996883754
vt 0.3220508687276741 0.859375
vt 0.34375 0.859375
vt 0.33540884905259083 0.8746375469307055
vt 0.2265625 0.6428411534374758
vt 0.2414805877597776 0.6565825676025331
vt 0.2265625 0.6640625
vt 0.25 0.5025114458942259
vt 0.25735263800475705 0.4927303940908272
vt 0.25735263800475705 0.515625
vt 0.43912909807917677 0.5562601602557664
vt 0.43912909807917677 0.578125
vt 0.4296875 0.5700588873311079
vt 0.11718750000000003 0.6442325923536735
vt 0.1171875 0.625
vt 0.1325309292929354 0.6360406280535075
vt 0.05187734375 0.484375
vt 0.06978828125 0.484375
vt 0.0703125 0.491571875
vt 0.05421171875 0.4921875
vt 0.416721722117854 0.9921875
vt 0.4161566559471634 0.9889390419030104
vt 0.4296875 0.9778723286973732
vt 0.5024960224634897 0.5234375
vt 0.5204075130933069 0.5234375
vt 0.5209414775365103 0.53125
vt 0.5030299869066931 0.53125
vt 0.612348046875 0.8984375
vt 0.613273046875 0.890625
vt 0.614214453125 0.890625
vt 0.613289453125 0.8984375
vt 0.0234375 0.45352704169691216
vt 0.0234375 0.46984115515279945
vt 0.015625 0.4694391134558873
vt 0.015625 0.453125
vt 0.19699569964504063 0.3984375
vt 0.20218824472564054 0.3984375
vt 0.20144180035495937 0.40625
vt 0.19624925527435946 0.40625
vt 0.265625 0.9704788078238121
vt 0.24877892117926856 0.9765625
vt 0.23663753852792258 0.96875
vt 0.2608089777132512 0.96875
vt 0.05543910497128815 0.8036821111925501
vt 0.057790663786259924 0.7858515422766865
vt 0.07765285739012373 0.7841139313530492
vt 0.07805487385232827 0.8003875714277142
vt 0.2545828125 0.9600836791263284
vt 0.23318948642572335 0.9573090857066155
vt 0.25773534120912595 0.9453125
vt 0.4296875 0.9778723286973732
vt 0.41615703125 0.9889387349473733
vt 0.41345468750000003 0.9796762349473732
vt 0.46908671875 0.59375
vt 0.4814984375 0.6043671875000001
vt 0.4638140625 0.6043671875000001
vt 0.3984375 0.875
vt 0.3984375 0.8947410231187346
vt 0.3854880904705159 0.8838193830052101
vt 0.04828668033091636 0.6208838357568802
vt 0.0625 0.6301027063752684
vt 0.04828668033091636 0.640625
vt 0.04920848930023721 0.7953790814670212
vt 0.04902498565370586 0.7834413177931255
vt 0.05346908751154465 0.7798041858435318
vt 0.05346908751154466 0.7977859896107748
vt 0.03386202512807791 0.7606021611686439
vt 0.04195625 0.7542084513449443
vt 0.046875036427181986 0.7734375
vt 0.3828125 0.828125
vt 0.3991265625 0.828125
vt 0.39903046875 0.84262265625
vt 0.38903203125 0.84375
vt 0.32981741501314066 0.889846875
vt 0.3408596025131407 0.889846875
vt 0.3327963212631407 0.90625
vt 0.2376046875 0.9366461791263285
vt 0.2265625 0.9366461791263285
vt 0.23445234375000001 0.9218758666263285
vt 0.3203125 0.8954670614184499
vt 0.32981741501314066 0.889846875
vt 0.33279621790228353 0.9062494308511524
vt 0.1841962217650968 0.8400722694059353
vt 0.18091543533574125 0.8506158145967196
vt 0.16796846970750873 0.8359375
vt 0.29398125 0.960146524544452
vt 0.302120360692036 0.966482996648841
vt 0.2890623949900947 0.9765625
vt 0.18091543533574125 0.8506158145967196
vt 0.1728875 0.8570913176273006
vt 0.16796863162988585 0.8359376835756469
vt 0.41549550211415004 0.765625
vt 0.42851534092472293 0.7759104726194231
vt 0.40625 0.7759104726194231
vt 0.27632986798434084 0.6487881621515086
vt 0.296875 0.6573706886176572
vt 0.29421583665771345 0.6640625
vt 0.2762656198227048 0.6640625
vt 0.46120308412892463 0.48203553018028866
vt 0.46120308412892463 0.5
vt 0.453125 0.4895637744371637
vt 0.3330575822198706 0.7499996915936888
vt 0.3333967580457706 0.7475300685195607
vt 0.34078515625 0.7421843200511371
vt 0.34374924040524213 0.7422639871351515
vt 0.34375 0.7422640075511371
vt 0.34078515625 0.7421843200511371
vt 0.332965625 0.733801507551137
vt 0.33316953125 0.7300874450511371
vt 0.06296933904557148 0.45998826928806846
vt 0.0703125 0.46357216891755537
vt 0.0703125 0.4748443216943171
vt 0.0625 0.4765625
vt 0.6030046328745337 0.5090639442132755
vt 0.6015625 0.5088901566619097
vt 0.6015625 0.5000278563498411
vt 0.6040046897043624 0.5
vt 0.24622238697414964 0.453125
vt 0.24583915125144534 0.4609375
vt 0.234375 0.4609375
vt 0.23475823572270432 0.453125
vt 0.6016661377712307 0.7109375
vt 0.6015625 0.7084968610838922
vt 0.6127417785277137 0.7095045548308658
vt 0.6129370364642646 0.7109375
vt 0.32735311358792674 0.7456057288975997
vt 0.32945536041708595 0.7444941958215935
vt 0.3333967580457706 0.7475300685195607
vt 0.3330575398636234 0.75
vt 0.4375 0.4453125
vt 0.4365656624306732 0.4522717501436343
vt 0.4316637224612466 0.453125
vt 0.4261109130357222 0.4453125
vt 0.609375 0.7671592614966045
vt 0.609375 0.7657064538615701
vt 0.6171875 0.765625
vt 0.6171875 0.7670770480605398
vt 0.49990887401887696 0.4982344707545606
vt 0.5078125 0.4893990815038899
vt 0.5078125 0.5078125
vt 0.380669663428874 0.6015625
vt 0.3671875 0.5890213586812858
vt 0.3865019022279451 0.5890213586812858
vt 0.28427317445549816 0.500042156898999
vt 0.28427317445549816 0.484375
vt 0.29385182554450184 0.49454858355369036
vt 0.1672902105748254 0.5533226992222046
vt 0.1796875 0.546875
vt 0.1796875 0.5638155308382886
vt 0.4229288793850932 0.96875
vt 0.3984375 0.96875
vt 0.411417934093288 0.9586855518220441
vt 0.479439453125 0.713165625
vt 0.492437109375 0.703125
vt 0.497123046875 0.713165625
vt 0.2675996323798949 0.4782528039837195
vt 0.2734375 0.4688345020070487
vt 0.2734375 0.4921875
vt 0.41046115633205227 0.921875
vt 0.3895717874247929 0.9114365983708956
vt 0.4140625 0.9114365983708956
vt 0.4819556554151563 0.90625
vt 0.4609375 0.90625
vt 0.4735646117017256 0.8970959662839123
vt 0.026314453124999998 0.5099281250000001
vt 0.038341796875 0.5
vt 0.043998046875 0.5099281250000001
vt 0.21883646669712076 0.4824656505216971
vt 0.2265625 0.4740464805100495
vt 0.22656249999999997 0.4921875
vt 0.36488079637641 0.9140625
vt 0.35398187755894295 0.8995603896039451
vt 0.375 0.8995603896039451
vt 0.37291439182020547 0.9362776904074601
vt 0.3515625 0.9362776904074601
vt 0.3654077263336495 0.921875
vt 0.002997040158760617 0.5356033741876226
vt 0.0029970401587606195 0.515625
vt 0.012627959841239383 0.5302019585532912
vt 0.375 0.6813659504104916
vt 0.3896682868416882 0.671875
vt 0.3896682868416882 0.6898394309517153
vt 0.3645589254170226 0.890625
vt 0.3536480196796964 0.8763528785925938
vt 0.375 0.8763528785925938
vt 0.4375 0.625
vt 0.4117118468995542 0.625
vt 0.4251521641693732 0.6162958356639396
vt 0.43643671875 0.67639765625
vt 0.44664609375 0.6640625
vt 0.453125 0.67639765625
vt 0.265625 0.5180633602564174
vt 0.272847032443148 0.5061483566275035
vt 0.272847032443148 0.53125
vt 0.39569760825708333 0.625
vt 0.3726493717390327 0.6150557054134538
vt 0.3984375 0.6150557054134538
vt 0.46008804344849885 0.9765625
vt 0.43834945655150115 0.9765625
vt 0.45197508460255775 0.9671611252792455
vt 0.40518671875 0.5752265624999999
vt 0.4157734375 0.5625
vt 0.421875 0.5752265624999999
vt 0.484375 0.8192816409696635
vt 0.4930928523121547 0.8081818697641641
vt 0.4930928523121548 0.828125
vt 0.3356225995482942 0.8203125
vt 0.32201191276479213 0.8057370379841079
vt 0.34375 0.8057370379841079
vt 0.3274863849488583 0.9837769804609904
vt 0.3125 0.96875
vt 0.3353059769141296 0.96875
vt 0.22169585015581228 0.5853052061595267
vt 0.22169585015581228 0.5625
vt 0.23142914984418772 0.5818930569203848
vt 0.15625 0.6779491312723259
vt 0.15625000000000003 0.65625
vt 0.17151254693070556 0.6696079803249168
vt 0.3440825676025331 0.78125
vt 0.33034115343747583 0.7663319122402223
vt 0.3515625 0.7663319122402223
vt 0.48491789409082725 0.796875
vt 0.4946989458942259 0.789522361995243
vt 0.5078125 0.796875
vt 0.453125 0.7578125
vt 0.4312601602557664 0.7578125
vt 0.4450588873311079 0.7483709019208232
vt 0.35576740764632653 0.75
vt 0.375 0.75
vt 0.36680803569983406 0.7653434292929353
vt 0.015625 0.491571875
vt 0.01614921875 0.484375
vt 0.03406015625 0.484375
vt 0.03172578125 0.4921875
vt 0.10728084405283658 0.5905015419030104
vt 0.10671577788214598 0.59375
vt 0.09375 0.5794348286973732
vt 0.484375 0.5
vt 0.4765625 0.4994660355567966
vt 0.4765625 0.48155454492697936
vt 0.484375 0.48208850937018277
vt 0.112348046875 0.3828125
vt 0.113289453125 0.3828125
vt 0.114214453125 0.390625
vt 0.113273046875 0.390625
vt 0.05092478587948758 0.46875
vt 0.051326827576399704 0.4765625
vt 0.03501271412051242 0.4765625
vt 0.034610672423600296 0.46875
vt 0.6015625 0.7961285556293188
vt 0.59375 0.796875
vt 0.59375 0.7916824549194001
vt 0.6015625 0.7909360105487189
vt 0.3125 0.6585125385279226
vt 0.32414988562716796 0.6706539211792686
vt 0.3180661934509801 0.6875
vt 0.3125 0.6826839777132512
vt 0.18906250000000002 0.9011765625
vt 0.20889765625 0.8984375
vt 0.20924296875000004 0.91516953125
vt 0.191046875 0.9170640624999999
vt 0.25899801357427665 0.9338715857066155
vt 0.2376046875 0.9366461791263285
vt 0.23445215879087403 0.921875
vt 0.10728084405283658 0.5905015419030104
vt 0.09375037530283659 0.5794351356530104
vt 0.10998318780283659 0.5812390419030105
vt 0.4638140625 0.5496796875000001
vt 0.47622578125 0.5390625
vt 0.4814984375 0.5496796875000001
vt 0.1213035231187346 0.6145119095294841
vt 0.1015625 0.6145119095294841
vt 0.11038188300521012 0.6015625
vt 0.2826563706183882 0.640625
vt 0.2734375 0.6264116803309163
vt 0.2931786642431197 0.6264116803309163
vt 0.21215591248845533 0.8969916858435318
vt 0.2166000143462941 0.9006288177931255
vt 0.21641651069976278 0.9125665814670211
vt 0.21215591248845533 0.9149734896107748
vn 0 0.9691815655542746 -0.24634750453326204
vn 0 0.41235740787936687 -0.9110221556949147
vn 0 0.8294063862893962 -0.5586457252878293
vn 0 -0.9991243086171842 -0.041840362453424
vn 0 0.9574597301974446 0.28856691607015006
vn 0 -0.9845094739268592 0.17533138837144666
vn 0 -0.9814102766125989 -0.1919215177075828
vn 0 0.7847819946460312 0.619771910366545
vn 0 -0.9926149269487586 -0.12130790080827689
vn 0 0.7166982934297009 0.6973833638644918
vn 0 -0.9953877153982822 -0.09593381069356463
vn 0 0.46026312578037387 0.8877825494156101
vn 0 0.7928365336958431 -0.6094343531810135
vn 0 -0.9392152321152512 -0.3433289206616519
vn 0 0.5503032573185596 -0.8349648645210069
vn 0 -0.4339821561040113 -0.9009214661574636
vn -0.16612676261441484 0.9652947555815239 -0.20151410270762726
vn -0.3824606871118252 0.44494479054311104 -0.809782659843058
vn -0.2776346919095182 0.9573914823987254 -0.07950174387193097
vn -0.24139087914154236 -0.9679630302488564 -0.06912319103401354
vn -0.2912654468805763 0.9529995024922022 0.08340496210102481
vn -0.2132113967747538 -0.97509657103169 0.061053889700813595
vn -0.18862410604061955 0.9550234629587416 0.22880369712631474
vn -0.12065787066263413 -0.9818454651904437 0.14635969640621838
vn -0.9194979770361921 -0.3424485367882055 -0.19300898911182218
vn -0.7485838055704642 0.4134776005282666 0.5183228336654954
vn 0.5641084627001309 0.8097457737398684 0.16153459140542312
vn 0.42967431455189514 0.07445960580115375 -0.8999087456616343
vn 0.43214147577005546 0.019192363097886866 -0.9016015739327421
vn 0.7622822645984159 0.12589332318178934 -0.6348831548064229
vn -0.47135924480847097 -0.7956226368720286 -0.3805326293898962
vn -0.6332450758680811 0.6816897908252298 -0.3664692387820332
vn 0.77096625367028 0.2943099945272867 0.5647943544538682
vn 0.5204128041889132 0.0882846390946306 -0.8493387638252259
vn 0.5396462368993946 0.060058519055606954 -0.8397469340754807
vn 0.5934937339421226 -0.7838550212166524 0.18258284006137826
vn -0.6492883871220255 3.725025965177628e-16 0.7605423001703975
vn -0.7902887040237754 0.5881042436929549 -0.17198012339441762
vn 0.126171390038317 -0.9913503055889925 0.0361296546400651
vn -0.43711798318274947 -0.2967305563013127 0.8490458443072194
vn -0.7493749977200287 0.6119769946282049 -0.2528265627617816
vn 0.17254863280229124 -0.9840955995236484 -0.0422234569434011
vn -0.2522995299599947 0.4721170775460188 0.8446599388341868
vn -0.5754452727796284 0.8010680265723191 0.1647809298405298
vn -0.9038844919161884 4.9305579009326e-16 -0.4277766067393283
vn 0.1745093218988381 -0.9837290934445091 -0.042703246729636615
vn -0.281071471423422 4.351352116072859e-16 0.9596868384800703
vn -0.8003492180211126 0.5666429406829314 0.19584919450228433
vn -0.6190366727638771 -0.4202231510647858 -0.663480294419217
vn 0.0984115651831161 -0.9947467124425775 -0.028180523822194884
vn 0.22548807033972174 -0.31635555446053554 0.9214522740198952
vn -0.8579694883798414 0.46883868649278215 0.20994914397766848
vn -0.8212119863810257 0.5663930562422396 0.0693525721563796
vn 0.09198161618213894 -0.9894899709364905 -0.11157499585760758
vn 0.26983789355529697 0.5044633266887453 0.8201855053753174
vn -0.35456735195126343 0.8302410006675343 0.43009519148769915
vn -0.9999565707959926 5.615739463918983e-16 0.009319684646971306
vn 0.0891550990707147 -0.9901291463581493 -0.10814639079402474
vn 0.41720725928710783 3.89747178726868e-16 0.9088113681056924
vn -0.4758167097374745 0.6636795265200744 0.5771723701050612
vn -0.8712515041148305 -0.34604578752312987 -0.34809930984582865
vn 0.052720487184801004 -0.9965595110371488 -0.06395069344734403
vn 0.6571722703140428 -0.3700797002363453 0.6566320298335008
vn -0.5103858677947047 0.5968374659154453 0.6191052456853166
vn -0.5649675028606264 0.5631217994203193 0.6030800607954554
vn -0.8779591245630396 3.9388541257327578e-16 0.47873560092863493
vn -0.9069640710259858 -0.367613016385905 0.20561333626889874
vn -0.5514266612141121 0.23408578731112792 -0.8007074880886191
vn -0.633085561735616 0.21720987341027823 -0.7429821952207135
vn 0 1 0
vn 1 0 0
vn 0 -1 0
vn -1 0 0
vn -0.35333807192645544 0.7822476915750483 -0.5130699328091671
vn -0.8900331240254815 -0.33130266434231764 -0.31317659991947633
vn -0.28253095367522385 -0.9591881967459039 0.011587210134881131
vn -0.5959063136866488 0.1482269242665019 -0.7892556266703976
vn 0.16319202496363733 -0.9857858035652738 0.03993385127226057
vn -0.15315173501854246 -0.5053409054398844 -0.8492202984797338
vn -0.9318800000293352 0.28213387904658654 -0.22803539163790404
vn -0.8340821815764805 -0.35502758243413585 -0.4222112387035569
vn 0.16612676261441484 0.9652947555815239 -0.20151410270762726
vn 0.3824606871118252 0.44494479054311104 -0.809782659843058
vn 0.2776346919095182 0.9573914823987254 -0.07950174387193097
vn 0.24139087914154236 -0.9679630302488564 -0.06912319103401354
vn 0.29126544688057626 0.9529995024922022 0.0834049621010248
vn 0.21321139677475384 -0.97509657103169 0.0610538897008136
vn 0.18862410604061955 0.9550234629587416 0.22880369712631474
vn 0.12065787066263413 -0.9818454651904437 0.14635969640621838
vn 0.9194979770361921 -0.3424485367882055 -0.19300898911182215
vn 0.7485838055704643 0.4134776005282665 0.5183228336654954
vn -0.5641084627001309 0.8097457737398684 0.16153459140542306
vn -0.42967431455189525 0.07445960580115374 -0.8999087456616341
vn -0.4321414757700553 0.01919236309788686 -0.9016015739327421
vn -0.7622822645984161 0.12589332318178942 -0.6348831548064225
vn 0.471359244808471 -0.7956226368720287 -0.3805326293898964
vn 0.633245075868081 0.6816897908252297 -0.3664692387820333
vn -0.7709662536702802 0.2943099945272867 0.5647943544538683
vn -0.5204128041889132 0.0882846390946306 -0.8493387638252259
vn -0.5396462368993946 0.060058519055607044 -0.8397469340754807
vn -0.5934937339421225 -0.7838550212166523 0.18258284006137818
vn 0.6492883871220255 3.627989686530312e-16 0.7605423001703975
vn 0.7902887040237755 0.5881042436929551 -0.17198012339441762
vn -0.126171390038317 -0.9913503055889925 0.036129654640065095
vn 0.43711798318274947 -0.2967305563013127 0.8490458443072194
vn 0.7493749977200287 0.6119769946282049 -0.25282656276178156
vn -0.1725486328022912 -0.9840955995236484 -0.042223456943401086
vn 0.2522995299599947 0.4721170775460188 0.8446599388341868
vn 0.5754452727796284 0.8010680265723191 0.16478092984052978
vn 0.9038844919161884 5.050581035373304e-16 -0.4277766067393283
vn -0.1745093218988381 -0.9837290934445091 -0.0427032467296366
vn 0.28107147142342204 4.251718389559837e-16 0.9596868384800703
vn 0.8003492180211127 0.5666429406829314 0.19584919450228438
vn 0.6190366727638771 -0.4202231510647858 -0.663480294419217
vn -0.09841156518311608 -0.9947467124425775 -0.028180523822194894
vn -0.22548807033972174 -0.3163555544605355 0.921452274019895
vn 0.8579694883798414 0.46883868649278226 0.20994914397766848
vn 0.8212119863810255 0.5663930562422393 0.06935257215637952
vn -0.09198161618213894 -0.9894899709364905 -0.11157499585760759
vn -0.2698378935552969 0.5044633266887454 0.8201855053753172
vn 0.3545673519512633 0.8302410006675341 0.430095191487699
vn 0.9999565707959926 5.613434735637063e-16 0.009319684646971306
vn -0.0891550990707147 -0.9901291463581493 -0.10814639079402473
vn -0.41720725928710783 4.495309665041971e-16 0.9088113681056924
vn 0.4758167097374745 0.6636795265200746 0.5771723701050612
vn 0.8712515041148305 -0.34604578752312987 -0.34809930984582865
vn -0.052720487184801 -0.9965595110371488 -0.06395069344734404
vn -0.6571722703140428 -0.37007970023634523 0.6566320298335009
vn 0.5103858677947046 0.5968374659154453 0.6191052456853164
vn 0.5649675028606264 0.5631217994203193 0.6030800607954554
vn 0.8779591245630396 3.901431991182951e-16 0.47873560092863493
vn 0.9069640710259858 -0.36761301638590493 0.20561333626889874
vn 0.5514266612141122 0.23408578731112784 -0.8007074880886192
vn 0.633085561735616 0.21720987341027823 -0.7429821952207135
vn 0 1 0
vn -1 0 0
vn 0 -1 0
vn 1 0 0
vn 0.35333807192645544 0.7822476915750483 -0.5130699328091671
vn 0.8900331240254814 -0.33130266434231753 -0.31317659991947633
vn 0.28253095367522385 -0.9591881967459039 0.011587210134881126
vn 0.5959063136866488 0.1482269242665019 -0.7892556266703978
vn -0.16319202496363736 -0.9857858035652738 0.03993385127226057
vn 0.15315173501854246 -0.5053409054398843 -0.8492202984797338
vn 0.9318800000293352 0.28213387904658654 -0.22803539163790404
vn 0.8340821815764805 -0.35502758243413585 -0.4222112387035569
usemtl m_5ec4fc5d-6ec2-3614-e281-4cafd1b8b2e4
f 52/1/1 6/2/1 2/3/1
f 52/4/2 53/5/2 7/6/2 6/7/2
f 49/8/3 41/9/3 87/10/3 95/11/3
f 50/12/4 96/13/4 1/14/4
f 18/15/5 64/16/5 2/17/5
f 67/18/6 21/19/6 1/20/6
f 3/21/7 19/22/7 65/23/7
f 3/24/8 64/25/8 18/26/8
f 4/27/9 20/28/9 66/29/9
f 4/30/10 65/31/10 19/32/10
f 5/33/11 21/34/11 67/35/11
f 5/36/12 66/37/12 20/38/12
f 53/39/13 87/40/13 41/41/13 7/42/13
f 47/43/14 93/44/14 96/45/14 50/46/14
f 94/47/15 48/48/15 49/49/15 95/50/15
f 94/51/16 93/52/16 47/53/16 48/54/16
f 6/55/17 8/56/17 2/57/17
f 6/58/18 7/59/18 9/60/18 8/61/18
f 8/62/19 11/63/19 2/64/19
f 13/65/20 10/66/20 1/67/20
f 11/68/21 14/69/21 2/70/21
f 17/71/22 13/72/22 1/73/22
f 14/74/23 18/75/23 2/76/23
f 21/77/24 17/78/24 1/79/24
f 22/80/25 9/81/25 12/82/25
f 23/83/26 22/84/26 12/85/26 11/86/26
f 23/87/27 11/88/27 8/89/27
f 26/90/28 25/91/28 23/92/28 8/93/28
f 27/94/29 26/95/29 8/96/29 9/97/29
f 24/98/30 27/99/30 9/100/30 22/101/30
f 28/102/31 32/103/31 25/104/31 26/105/31
f 29/106/32 28/107/32 26/108/32 27/109/32
f 31/110/33 29/111/33 27/112/33 24/113/33
f 25/114/34 24/115/34 22/116/34 23/117/34
f 31/118/35 32/119/35 28/120/35 29/121/35
f 32/122/36 31/123/36 24/124/36 25/125/36
f 33/126/37 30/127/37 12/128/37
f 33/129/38 12/130/38 9/131/38
f 34/132/39 10/133/39 13/134/39
f 34/135/40 13/136/40 30/137/40
f 35/138/41 11/139/41 12/140/41
f 35/141/42 12/142/42 15/143/42
f 35/144/43 15/145/43 14/146/43
f 35/147/44 14/148/44 11/149/44
f 36/150/45 12/151/45 30/152/45
f 36/153/46 30/154/46 16/155/46
f 36/156/47 16/157/47 15/158/47
f 36/159/48 15/160/48 12/161/48
f 37/162/49 30/163/49 13/164/49
f 37/165/50 13/166/50 17/167/50
f 37/168/51 17/169/51 16/170/51
f 37/171/52 16/172/52 30/173/52
f 38/174/53 14/175/53 15/176/53
f 38/177/54 15/178/54 19/179/54
f 38/180/55 19/181/55 18/182/55
f 38/183/56 18/184/56 14/185/56
f 39/186/57 15/187/57 16/188/57
f 39/189/58 16/190/58 20/191/58
f 39/192/59 20/193/59 19/194/59
f 39/195/60 19/196/60 15/197/60
f 40/198/61 16/199/61 17/200/61
f 40/201/62 17/202/62 21/203/62
f 40/204/63 21/205/63 20/206/63
f 40/207/64 20/208/64 16/209/64
f 19/210/65 3/211/65 18/212/65
f 4/213/66 19/214/66 20/215/66
f 21/216/67 5/217/67 20/218/67
f 45/219/68 43/220/68 44/221/68 46/222/68
f 9/223/69 42/224/69 33/225/69
f 43/226/70 45/227/70 41/228/70 42/229/70
f 44/230/71 43/231/71 42/232/71 9/233/71
f 46/234/72 44/235/72 9/236/72 7/237/72
f 45/238/73 46/239/73 7/240/73 41/241/73
f 42/242/74 41/243/74 49/244/74 51/245/74
f 49/246/75 50/247/75 10/248/75 51/249/75
f 10/250/76 50/251/76 1/252/76
f 33/253/77 42/254/77 51/255/77
f 33/256/78 51/257/78 30/258/78
f 34/259/79 51/260/79 10/261/79
f 34/262/80 30/263/80 51/264/80
f 48/265/81 47/266/81 50/267/81 49/268/81
f 54/269/82 52/270/82 2/271/82
f 55/272/83 53/273/83 52/274/83 54/275/83
f 57/276/84 54/277/84 2/278/84
f 56/279/85 59/280/85 1/281/85
f 60/282/86 57/283/86 2/284/86
f 59/285/87 63/286/87 1/287/87
f 64/288/88 60/289/88 2/290/88
f 63/291/89 67/292/89 1/293/89
f 55/294/90 68/295/90 58/296/90
f 58/297/91 68/298/91 69/299/91 57/300/91
f 57/301/92 69/302/92 54/303/92
f 69/304/93 71/305/93 72/306/93 54/307/93
f 54/308/94 72/309/94 73/310/94 55/311/94
f 55/312/95 73/313/95 70/314/95 68/315/95
f 71/316/96 78/317/96 74/318/96 72/319/96
f 72/320/97 74/321/97 75/322/97 73/323/97
f 73/324/98 75/325/98 77/326/98 70/327/98
f 68/328/99 70/329/99 71/330/99 69/331/99
f 74/332/100 78/333/100 77/334/100 75/335/100
f 70/336/101 77/337/101 78/338/101 71/339/101
f 76/340/102 79/341/102 58/342/102
f 58/343/103 79/344/103 55/345/103
f 56/346/104 80/347/104 59/348/104
f 59/349/105 80/350/105 76/351/105
f 57/352/106 81/353/106 58/354/106
f 58/355/107 81/356/107 61/357/107
f 61/358/108 81/359/108 60/360/108
f 60/361/109 81/362/109 57/363/109
f 58/364/110 82/365/110 76/366/110
f 76/367/111 82/368/111 62/369/111
f 62/370/112 82/371/112 61/372/112
f 61/373/113 82/374/113 58/375/113
f 76/376/114 83/377/114 59/378/114
f 59/379/115 83/380/115 63/381/115
f 63/382/116 83/383/116 62/384/116
f 62/385/117 83/386/117 76/387/117
f 60/388/118 84/389/118 61/390/118
f 61/391/119 84/392/119 65/393/119
f 65/394/120 84/395/120 64/396/120
f 64/397/121 84/398/121 60/399/121
f 61/400/122 85/401/122 62/402/122
f 62/403/123 85/404/123 66/405/123
f 66/406/124 85/407/124 65/408/124
f 65/409/125 85/410/125 61/411/125
f 62/412/126 86/413/126 63/414/126
f 63/415/127 86/416/127 67/417/127
f 67/418/128 86/419/128 66/420/128
f 66/421/129 86/422/129 62/423/129
f 3/424/130 65/425/130 64/426/130
f 65/427/131 4/428/131 66/429/131
f 5/430/132 67/431/132 66/432/132
f 90/433/133 89/434/133 91/435/133 92/436/133
f 88/437/134 55/438/134 79/439/134
f 87/440/135 91/441/135 89/442/135 88/443/135
f 88/444/136 89/445/136 90/446/136 55/447/136
f 55/448/137 90/449/137 92/450/137 53/451/137
f 53/452/138 92/453/138 91/454/138 87/455/138
f 95/456/139 87/457/139 88/458/139 97/459/139
f 56/460/140 96/461/140 95/462/140 97/463/140
f 96/464/141 56/465/141 1/466/141
f 88/467/142 79/468/142 97/469/142
f 97/470/143 79/471/143 76/472/143
f 97/473/144 80/474/144 56/475/144
f 76/476/145 80/477/145 97/478/145
f 96/479/146 93/480/146 94/481/146 95/482/146