# Made in Blockbench 5.1.5
mtllib HoundArmR.mtl

o cuboid
v 0.6292570426569425 1.0631875059201963 0.007382042656941978
v 0.7973442549181236 1.0631875059201963 0.007382042656941867
v 0.7973442549181236 0.9604746155045737 0.007382042656941867
v 0.6292570426569425 0.9604746155045737 0.007382042656941978
v 0.785978418679307 0.9604746155045737 0.007382042656941867
v 0.6632189747979788 0.9604746155045737 0.007382042656941978
v 0.6744492344613819 1.0631875059201963 -0.1132521485195287
v 0.7973442549181236 1.0631875059201963 -0.08912531028423465
v 0.6744492344613819 0.9760273560091474 -0.1132521485195287
v 0.7973442549181236 0.9760273560091474 -0.08912531028423465
v 0.7973442549181236 1.0631875059201963 -0.15668045734305802
v 0.7973442549181236 0.9760273560091474 -0.15668045734305802
v 0.8425364467225631 1.0456906728525506 -0.07283969447541117
v 0.8425364467225631 1.0456906728525506 0.0007471621422360242
v 0.8425364467225631 0.9760273560091474 0.0007471621422360242
v 0.8425364467225631 0.9760273560091474 -0.07283969447541117
v 0.8312383987714532 0.9760273560091474 -0.14220435440188162
v 0.8312383987714532 1.0372662717459065 -0.14220435440188162
v 0.8312383987714532 1.0372662717459065 -0.09395067793129341
v 0.8312383987714532 0.9760273560091474 -0.09395067793129341
v 0.9259702957809924 1.066531807872372 -0.07283969447541117
v 0.9259702957809924 1.066531807872372 0.0007471621422360242
v 0.9104083370181567 0.9930594047509606 0.0007471621422360242
v 0.9104083370181567 0.9930594047509606 -0.07283969447541117
v 0.8712803231140825 0.9918319616374757 -0.14220435440188162
v 0.8850907194187638 1.0570347436283387 -0.14220435440188162
v 0.8850907194187638 1.0570347436283387 -0.09395067793129319
v 0.8712803231140825 0.9918319616374757 -0.09395067793129319
v 0.9771111123659811 1.0362838080937427 -0.05353822388717577
v 0.9771111123659811 1.0362838080937427 -0.018554308445999368
v 0.9658606919616803 0.983167395447528 -0.018554308445999368
v 0.9658606919616803 0.983167395447528 -0.05353822388717577
v 0.9267326780576058 0.9819399523340431 -0.13255361910776386
v 0.9383873051830197 1.0369647390873076 -0.13255361910776386
v 0.9383873051830197 1.0369647390873076 -0.10360141322541117
v 0.9267326780576058 0.9819399523340431 -0.10360141322541117
v 0.9853889782536104 1.0210263030715026 -0.04479224502688173
v 0.9853889782536104 1.0210263030715026 -0.027300287306293303
v 0.9797637680514598 0.9944680967483951 -0.027300287306293303
v 0.9797637680514598 0.9944680967483951 -0.04479224502688173
v 0.9407368058276637 0.9937177471616726 -0.12531556763717577
v 0.9465641193903709 1.0212301405383049 -0.12531556763717577
v 0.9465641193903709 1.0212301405383049 -0.11083946469599959
v 0.9407368058276637 0.9937177471616726 -0.11083946469599959
v 0.9685374844053752 1.0152949349562452 -0.12531556763717577
v 0.9627101708426683 0.9877825415796129 -0.12531556763717577
v 0.9685374844053752 1.0152949349562452 -0.11083946469599959
v 0.9627101708426683 0.9877825415796129 -0.11083946469599959
v 1.0073623432686147 1.0150910974894432 -0.027300287306293303
v 1.0073623432686147 1.0150910974894432 -0.04479224502688173
v 1.0017371330664642 0.9885328911663355 -0.027300287306293303
v 1.0017371330664642 0.9885328911663355 -0.04479224502688173
v 0.9871820387142151 0.9605412479553487 -0.11807751616658768
v 1.0261079492577332 0.9608145040153091 -0.03604626616658746
v 0.7445597748905382 0.9760273560091474 -0.07502317333570507
v 0.6970905225554062 0.9760273560091474 -0.091091647600411
v 0.9554079230548262 0.985032039201225 -0.046943755826514
v 0.9554079230548262 0.985032039201225 -0.02514877650666092
v 0.9104083370181567 0.9930594047509606 -0.058968572002984554
v 0.9104083370181567 0.9930594047509606 -0.013123960330190476
v 0.8553302980432825 0.9792378971969791 -0.013123960330190476
v 0.8553302980432825 0.9792378971969791 -0.058968572002984554
v 0.9162799091507517 0.9838045960877401 -0.12709612829894046
v 0.9162799091507517 0.9838045960877401 -0.10905890403423468
v 0.8712803231140825 0.9918319616374757 -0.13310853638717568
v 0.8712803231140825 0.9918319616374757 -0.10304649594599924
v 0.8387863015100389 0.9790065241700873 -0.10304649594599935
v 0.8387863015100389 0.9790065241700873 -0.1331085363871758
v 0.9141241399714843 0.973626600850142 -0.10905890403423468
v 0.9141241399714843 0.973626600850142 -0.12709612829894046
v 0.8724343414477865 0.9819805068285631 -0.13310853638717568
v 0.8724343414477865 0.9819805068285631 -0.10304649594599924
v 0.8432501073567142 0.9694816097898601 -0.10304649594599935
v 0.8432501073567142 0.9694816097898601 -0.1331085363871758
v 0.9532521538755587 0.974854043963627 -0.02514877650666092
v 0.9532521538755587 0.974854043963627 -0.046943755826514
v 0.9108204318615251 0.9829697413029127 -0.058968572002984554
v 0.9108204318615251 0.9829697413029127 -0.013123960330190476
v 0.8583102569092863 0.9692365655384814 -0.013123960330190476
v 0.8583102569092863 0.9692365655384814 -0.058968572002984554
v 0.785978418679307 0.944921875 0.007382042656941867
v 0.7445597748905382 0.9656588623394317 -0.07502317333570507
v 0.6632189747979788 0.944921875 0.007382042656941978
v 0.6970905225554062 0.9656588623394317 -0.091091647600411
v 0.674449234461382 1.0631875059201963 0.12801623383341265
v 0.7973442549181237 1.0631875059201963 0.10388939559811838
v 0.674449234461382 0.9760273560091474 0.12801623383341265
v 0.7973442549181237 0.9760273560091474 0.10388939559811838
v 0.7973442549181237 1.0631875059201963 0.17144454265694176
v 0.7973442549181237 0.9760273560091474 0.17144454265694176
v 0.8425364467225632 1.0456906728525506 0.0876037797892949
v 0.8425364467225631 1.0456906728525506 0.01401692317164771
v 0.8425364467225631 0.9760273560091474 0.01401692317164771
v 0.8425364467225632 0.9760273560091474 0.0876037797892949
v 0.8312383987714533 0.9760273560091474 0.15696843971576535
v 0.8312383987714533 1.0372662717459065 0.15696843971576535
v 0.8312383987714533 1.0372662717459065 0.10871476324517715
v 0.8312383987714533 0.9760273560091474 0.10871476324517715
v 0.9259702957809925 1.066531807872372 0.0876037797892949
v 0.9259702957809924 1.066531807872372 0.01401692317164771
v 0.9104083370181567 0.9930594047509606 0.01401692317164771
v 0.9104083370181568 0.9930594047509606 0.0876037797892949
v 0.8712803231140827 0.9918319616374757 0.15696843971576535
v 0.8850907194187639 1.0570347436283387 0.15696843971576535
v 0.8850907194187639 1.0570347436283387 0.10871476324517715
v 0.8712803231140827 0.9918319616374757 0.10871476324517715
v 0.9771111123659812 1.0362838080937427 0.06830230920105951
v 0.9771111123659812 1.0362838080937427 0.033318393759883214
v 0.9658606919616805 0.983167395447528 0.033318393759883214
v 0.9658606919616805 0.983167395447528 0.06830230920105951
v 0.926732678057606 0.9819399523340431 0.14731770442164782
v 0.9383873051830198 1.0369647390873076 0.14731770442164782
v 0.9383873051830198 1.0369647390873076 0.1183654985392949
v 0.926732678057606 0.9819399523340431 0.1183654985392949
v 0.9853889782536105 1.0210263030715026 0.05955633034076546
v 0.9853889782536105 1.0210263030715026 0.04206437262017704
v 0.9797637680514599 0.9944680967483951 0.04206437262017704
v 0.9797637680514599 0.9944680967483951 0.05955633034076546
v 0.9407368058276638 0.9937177471616726 0.1400796529510595
v 0.946564119390371 1.0212301405383049 0.1400796529510595
v 0.946564119390371 1.0212301405383049 0.12560355000988332
v 0.9407368058276638 0.9937177471616726 0.12560355000988332
v 0.9685374844053753 1.0152949349562452 0.1400796529510595
v 0.9627101708426684 0.9877825415796129 0.1400796529510595
v 0.9685374844053753 1.0152949349562452 0.12560355000988332
v 0.9627101708426684 0.9877825415796129 0.12560355000988332
v 1.0073623432686147 1.0150910974894432 0.04206437262017704
v 1.0073623432686147 1.0150910974894432 0.05955633034076546
v 1.0017371330664642 0.9885328911663355 0.04206437262017704
v 1.0017371330664642 0.9885328911663355 0.05955633034076546
v 0.9871820387142152 0.9605412479553487 0.13284160148047142
v 1.0261079492577332 0.9608145040153091 0.050810351480471194
v 0.7445597748905383 0.9760273560091474 0.08978725864958903
v 0.6970905225554063 0.9760273560091474 0.10585573291429495
v 0.9554079230548264 0.985032039201225 0.061707841140397734
v 0.9554079230548264 0.985032039201225 0.039912861820544765
v 0.9104083370181568 0.9930594047509606 0.0737326573168684
v 0.9104083370181568 0.9930594047509606 0.02788804564407421
v 0.8553302980432826 0.9792378971969791 0.02788804564407421
v 0.8553302980432826 0.9792378971969791 0.0737326573168684
v 0.9162799091507519 0.9838045960877401 0.1418602136128242
v 0.9162799091507519 0.9838045960877401 0.12382298934811842
v 0.8712803231140827 0.9918319616374757 0.14787262170105953
v 0.8712803231140827 0.9918319616374757 0.11781058125988297
v 0.838786301510039 0.9790065241700873 0.11781058125988308
v 0.838786301510039 0.9790065241700873 0.14787262170105953
v 0.9141241399714845 0.973626600850142 0.12382298934811842
v 0.9141241399714845 0.973626600850142 0.1418602136128242
v 0.8724343414477866 0.9819805068285631 0.14787262170105953
v 0.8724343414477866 0.9819805068285631 0.11781058125988297
v 0.8432501073567144 0.9694816097898601 0.11781058125988308
v 0.8432501073567144 0.9694816097898601 0.14787262170105953
v 0.9532521538755588 0.974854043963627 0.039912861820544765
v 0.9532521538755588 0.974854043963627 0.061707841140397734
v 0.9108204318615252 0.9829697413029127 0.0737326573168684
v 0.9108204318615252 0.9829697413029127 0.02788804564407421
v 0.8583102569092864 0.9692365655384814 0.02788804564407421
v 0.8583102569092864 0.9692365655384814 0.0737326573168684
v 0.7445597748905383 0.9656588623394317 0.08978725864958903
v 0.6970905225554063 0.9656588623394317 0.10585573291429495
vt 0.17914140625 0.87526328125
vt 0.1640625 0.8696140625
vt 0.1640625 0.890625
vt 0.17612578125 0.890625
vt 0.2578125 0.5863564449956516
vt 0.2469726892241146 0.578125
vt 0.2421875 0.5927051433399015
vt 0.2578125 0.5926022573134202
vt 0.1845703125 0.890625
vt 0.17914140625 0.87526328125
vt 0.17612578125 0.890625
vt 0.22517745183249102 0.97298671875
vt 0.21673292058249102 0.97298671875
vt 0.21974854558249102 0.9883484375
vt 0.552076953125 0.796875
vt 0.542879296875 0.796875
vt 0.5408433593749999 0.8046875
vt 0.5529066406250001 0.8046875
vt 0.435953515625 0.69181171875
vt 0.435953515625 0.70051953125
vt 0.44166289062499997 0.70270625
vt 0.44166289062499997 0.6898671875
vt 0.29544820017638906 0.4322015391780074
vt 0.2959300259661948 0.42301651199234036
vt 0.2900074740338052 0.421875
vt 0.2900074740338052 0.433954867804606
vt 0.5859375 0.80250078125
vt 0.5859375 0.796875
vt 0.578125 0.796875
vt 0.578125 0.8046875
vt 0.3125 0.41863515625000003
vt 0.3125 0.4140625
vt 0.3046875 0.4140625
vt 0.3046875 0.421875
vt 0.573931640625 0.4921875
vt 0.567899609375 0.4921875
vt 0.5660902343750001 0.5
vt 0.5745347656249999 0.5
vt 0.46945143807518724 0.56723046875
vt 0.46945143807518724 0.5748851562499999
vt 0.47373034432518724 0.578125
vt 0.47373034432518724 0.56723046875
vt 0.22336807683249102 0.96875
vt 0.21733604558249103 0.96875
vt 0.21673292058249102 0.97298671875
vt 0.22517745183249102 0.97298671875
vt 0.234375 0.54379296875
vt 0.21875 0.5418484375
vt 0.21875 0.5546875
vt 0.234375 0.5546875
vt 0.5703125 0.84375
vt 0.578125 0.84375
vt 0.578125 0.8359375
vt 0.5703125 0.8359375
vt 0.427469921875 0.693940625
vt 0.42552460937500003 0.703125
vt 0.435953515625 0.70051953125
vt 0.435953515625 0.69181171875
vt 0.5703125 0.7421875
vt 0.578125 0.7421875
vt 0.578125 0.734375
vt 0.5703125 0.734375
vt 0.12362194782388965 0.4609262470661293
vt 0.11949968608501081 0.453125
vt 0.11075305217611035 0.453125
vt 0.11287250940367465 0.4609375
vt 0.5234375 0.6796875
vt 0.5390625 0.6796875
vt 0.5390625 0.671875
vt 0.5234375 0.671875
vt 0.5234225219425057 1
vt 0.5216959594425057 0.99185
vt 0.5166904906925057 0.98987421875
vt 0.5166904906925057 0.99752890625
vt 0.1796875 0.421875
vt 0.1875 0.421875
vt 0.1875 0.4140625
vt 0.1796875 0.4140625
vt 0.4644459693251872 0.5692062499999999
vt 0.4627194068251872 0.57735625
vt 0.46945143807518724 0.5748851562499999
vt 0.46945143807518724 0.56723046875
vt 0.2265625 0.421875
vt 0.234375 0.421875
vt 0.234375 0.4140625
vt 0.2265625 0.4140625
vt 0.600672265625 0.8125
vt 0.599466015625 0.8046875
vt 0.595846484375 0.8046875
vt 0.594640234375 0.8125
vt 0.5234224396518639 0.999999611558382
vt 0.5301845093074943 0.9974694234790995
vt 0.528727420939925 0.9905916761457298
vt 0.5216959594425057 0.99185
vt 0.169847265625 0.3984375
vt 0.169096484375 0.390625
vt 0.166841796875 0.390625
vt 0.166090234375 0.3984375
vt 0.46444607862241394 0.5692057340775253
vt 0.4574137445040631 0.5679479186690553
vt 0.45595715567481276 0.5748257718133933
vt 0.4627194068251872 0.57735625
vt 0.5703125 0.7890625
vt 0.5625 0.7892895094001032
vt 0.5625 0.7960765071172603
vt 0.5703125 0.7984500281795301
vt 0.574911328125 0.65625
vt 0.572498828125 0.6484375
vt 0.568126171875 0.6484375
vt 0.565713671875 0.65625
vt 0.18907518168924986 0.4375
vt 0.18670089460718356 0.4296875
vt 0.17991389689002651 0.4296875
vt 0.1796875 0.4375
vt 0.327083984375 0.40625
vt 0.325580859375 0.3984375
vt 0.322856640625 0.3984375
vt 0.321353515625 0.40625
vt 0.137812109375 0.390625
vt 0.135625390625 0.390625
vt 0.134532421875 0.3984375
vt 0.138905078125 0.3984375
vt 0.5859375 0.5408048025703203
vt 0.5859375 0.5441982296418866
vt 0.59375 0.5458499957140217
vt 0.59375 0.5390625
vt 0.06531289062500001 0.3984375
vt 0.06749960937499999 0.3984375
vt 0.068592578125 0.390625
vt 0.064219921875 0.390625
vt 0.5910731619255679 0.5234375
vt 0.5876789643189784 0.5234375
vt 0.5859375 0.53125
vt 0.5927243541382339 0.53125
vt 0.5912554528888817 0.5546875
vt 0.5877400517675379 0.5546875
vt 0.5859375 0.5625
vt 0.5929683022426877 0.5625
vt 0.606373828125 0.734375
vt 0.604563671875 0.734375
vt 0.603658984375 0.7421875
vt 0.607278515625 0.7421875
vt 0.453125 0.40805255176753785
vt 0.453125 0.4115679528888816
vt 0.4609375 0.4132808022426876
vt 0.4609375 0.40625
vt 0.276438671875 0.3984375
vt 0.278248828125 0.3984375
vt 0.279153515625 0.390625
vt 0.275533984375 0.390625
vt 0.5859375 0.984375
vt 0.5859375 0.9765625
vt 0.578125 0.9765625
vt 0.578125 0.984375
vt 0.5954284168346795 0.7265625
vt 0.5981752918346794 0.72582109375
vt 0.5974471668346795 0.72238203125
vt 0.5947002918346794 0.7231234375
vt 0.578125 0.5390625
vt 0.578125 0.53125
vt 0.5703125 0.53125
vt 0.5703125 0.5390625
vt 0.31154974181971096 0.40281093749999997
vt 0.308802866819711 0.40206953125
vt 0.30807474181971095 0.40550859375000003
vt 0.310821616819711 0.40625
vt 0.61500625 0.8794921875
vt 0.612259375 0.87875078125
vt 0.61155625 0.8820703125
vt 0.614303125 0.8828125
vt 0.28125 0.4296875
vt 0.28125 0.421875
vt 0.2734375 0.421875
vt 0.2734375 0.4296875
vt 0.612259375 0.8203125
vt 0.61500625 0.8195703125
vt 0.614303125 0.81625078125
vt 0.61155625 0.8169921875
vt 0.4453125 0.4296875
vt 0.4453125 0.421875
vt 0.4375 0.421875
vt 0.4375 0.4296875
vt 0.21574882812500001 0.390625
vt 0.214843359375 0.38339531250000003
vt 0.21393867187499999 0.390625
vt 0.5981752245258986 0.7258207758387838
vt 0.6006122081653206 0.7189539747156247
vt 0.5974471668346795 0.72238203125
vt 0.340748828125 0.38738984374999996
vt 0.339844140625 0.3828125
vt 0.338938671875 0.38738984374999996
vt 0.3088027995109301 0.40206984916121624
vt 0.30563775818028904 0.39864179262684096
vt 0.30807474181971095 0.40550859375000003
vt 0.5 0.39409609375
vt 0.49676953125 0.390625
vt 0.49932421875 0.39742187500000004
vt 0.614374609375 0.9296875
vt 0.613280859375 0.922509375
vt 0.612187890625 0.9296875
vt 0.60223828125 0.49117109375
vt 0.60479296875 0.484375
vt 0.6015625 0.48784531249999996
vt 0.614374609375 0.7546132812499999
vt 0.613281640625 0.75
vt 0.612187890625 0.7546132812499999
vt 0.20451617742930547 0.9729415423212858
vt 0.20451004816750898 0.9743618415960185
vt 0.21497042058249102 0.979584375
vt 0.2167309074405513 0.9729942546470218
vt 0.21673292058249102 0.97298671875
vt 0.21497042058249102 0.979584375
vt 0.216979014332491 0.98551875
vt 0.21974854558249102 0.9883484375
vt 0.21974902276589134 0.9883489250481737
vt 0.21697901433249103 0.98551875
vt 0.204555589467264 0.9898640621734416
vt 0.20458430446522713 0.9940818430991386
vt 0.571674609375 0.46226406249999996
vt 0.573177734375 0.467978125
vt 0.574911328125 0.467978125
vt 0.572498828125 0.4609375
vt 0.568950390625 0.46226406249999996
vt 0.571674609375 0.46226406249999996
vt 0.572498828125 0.4609375
vt 0.568126171875 0.4609375
vt 0.567447265625 0.467978125
vt 0.568950390625 0.46226406249999996
vt 0.568126171875 0.4609375
vt 0.565713671875 0.467978125
vt 0.245052734375 0.4313359375
vt 0.245052734375 0.43843437499999993
vt 0.246786328125 0.43843437499999993
vt 0.246786328125 0.4296875
vt 0.239322265625 0.4313359375
vt 0.245052734375 0.4313359375
vt 0.246786328125 0.4296875
vt 0.237588671875 0.4296875
vt 0.239322265625 0.43843437499999993
vt 0.239322265625 0.4313359375
vt 0.237588671875 0.4296875
vt 0.237588671875 0.43843437499999993
vt 0.403471484375 0.39976484375
vt 0.404222265625 0.40547890624999994
vt 0.405359765625 0.40547890624999994
vt 0.404153515625 0.3984375
vt 0.401216796875 0.39976484375
vt 0.403471484375 0.39976484375
vt 0.404153515625 0.3984375
vt 0.400533984375 0.3984375
vt 0.400465234375 0.40547890624999994
vt 0.401216796875 0.39976484375
vt 0.400533984375 0.3984375
vt 0.399327734375 0.40547890624999994
vt 0.154222265625 0.3916390625
vt 0.154222265625 0.39600625
vt 0.155359765625 0.39600625
vt 0.155359765625 0.390625
vt 0.150465234375 0.3916390625
vt 0.154222265625 0.3916390625
vt 0.155359765625 0.390625
vt 0.149327734375 0.390625
vt 0.150465234375 0.39600625
vt 0.150465234375 0.3916390625
vt 0.149327734375 0.390625
vt 0.149327734375 0.39600625
vt 0.03125 0.578125
vt 0.03125 0.5703125
vt 0.0234375 0.5703125
vt 0.0234375 0.578125
vt 0.6142436949026935 0.6708737504727763
vt 0.6139771186246163 0.6696009660531722
vt 0.6087117738473065 0.67064296875
vt 0.6085682141831614 0.6718733686975917
vt 0.6101815585009308 0.5887311603112866
vt 0.610037818965562 0.58749921875
vt 0.6047723227409324 0.5864579816240035
vt 0.6045067122844381 0.5877300230506344
vt 0.6142432877155619 0.58712734375
vt 0.6136854752155619 0.5859375
vt 0.610037818965562 0.58749921875
vt 0.6101815689655619 0.5887312499999999
vt 0.6085680238473065 0.671875
vt 0.6087117738473065 0.67064296875
vt 0.6050641175973065 0.6690812500000001
vt 0.6045063050973065 0.67027109375
vt 0.5859375 0.7734375
vt 0.5859375 0.765625
vt 0.578125 0.765625
vt 0.578125 0.7734375
vt 0.1328125 0.4296875
vt 0.1328125 0.421875
vt 0.125 0.421875
vt 0.125 0.4296875
vt 0.5716126241968233 0.3828125
vt 0.5703125 0.3828367050885332
vt 0.5703125 0.38844198388540185
vt 0.5715412019159016 0.3887192019032124
vt 0.21875 0.40618337051572095
vt 0.2184732943960189 0.3984375
vt 0.21286815710181156 0.3984375
vt 0.21284334945024655 0.40625
vt 0.3092459379860219 0.38352758985909396
vt 0.3079415620139781 0.3835715186602444
vt 0.3079415620139781 0.390355720431769
vt 0.30917448966167116 0.390625
vt 0.265267455070453 0.4139910516756493
vt 0.26499817550222204 0.40625
vt 0.25821397373069743 0.40625
vt 0.258170044929547 0.4140625
vt 0.5859375 0.96875
vt 0.5859375 0.9609375
vt 0.578125 0.9609375
vt 0.578125 0.96875
vt 0.47845889924433505 0.38676361475487864
vt 0.4765625 0.38633719481094375
vt 0.4765625 0.3981531629071592
vt 0.477827020235672 0.3984375
vt 0.0859375 0.421875
vt 0.0859375 0.4140625
vt 0.078125 0.4140625
vt 0.078125 0.421875
vt 0.546875 0.5306148154481984
vt 0.5466218715066394 0.5234375
vt 0.533349094613867 0.5234375
vt 0.5337287110644283 0.53125
vt 0.1640625 0.890625
vt 0.1640625 0.8696140625
vt 0.14898359375 0.87526328125
vt 0.15199921875 0.890625
vt 0.2578125 0.5546875
vt 0.2421875 0.5595856458705231
vt 0.25048446074859415 0.5679992990103653
vt 0.2578125 0.5679508491956129
vt 0.14898359375 0.87526328125
vt 0.1435546875 0.890625
vt 0.15199921875 0.890625
vt 0.009829680807010188 0.76986171875
vt 0.0013851495570101902 0.76986171875
vt 0.006814055807010194 0.7852234375
vt 0.5529066406250001 0.7890625
vt 0.550870703125 0.78125
vt 0.541673046875 0.78125
vt 0.5408433593749999 0.7890625
vt 0.42552421875 0.92926875
vt 0.431234375 0.92708203125
vt 0.431234375 0.91837421875
vt 0.42552421875 0.9164296875
vt 0.478343359375 0.921875
vt 0.479173046875 0.92784921875
vt 0.48837070312499997 0.92784921875
vt 0.490406640625 0.9225078125
vt 0.21875 0.4140625
vt 0.2109375 0.4140625
vt 0.2109375 0.41968828125
vt 0.21875 0.421875
vt 0.5859375 0.6796875
vt 0.578125 0.6796875
vt 0.578125 0.6842601562499999
vt 0.5859375 0.6875
vt 0.5276597656249999 0.4375
vt 0.525850390625 0.4296875
vt 0.519818359375 0.4296875
vt 0.5192152343750001 0.4375
vt 0.45595684193751795 0.6328125
vt 0.4602365294375179 0.6295726562499999
vt 0.4602365294375179 0.62191796875
vt 0.45595684193751795 0.62191796875
vt 0.009829680807010188 0.76986171875
vt 0.009226555807010192 0.765625
vt 0.003194524557010192 0.765625
vt 0.0013851495570101902 0.76986171875
vt 0.28125 0.5546875
vt 0.28125 0.5418484375
vt 0.265625 0.54379296875
vt 0.265625 0.5546875
vt 0.5703125 0.75
vt 0.5703125 0.7578125
vt 0.578125 0.7578125
vt 0.578125 0.75
vt 0.431234375 0.92708203125
vt 0.44166328125 0.9296875
vt 0.43971796875 0.920503125
vt 0.431234375 0.91837421875
vt 0.2578125 0.421875
vt 0.2578125 0.4296875
vt 0.265625 0.4296875
vt 0.265625 0.421875
vt 0.44890203008548246 0.4558811043522206
vt 0.44890203008548246 0.46462773826112125
vt 0.45733671698064676 0.46875
vt 0.45734796991451754 0.45800056157978497
vt 0.53125 0.96875
vt 0.53125 0.9765625
vt 0.546875 0.9765625
vt 0.546875 0.96875
vt 0.5223721412001873 0.58362421875
vt 0.5173666724501872 0.5856
vt 0.5156401099501873 0.59375
vt 0.5223721412001873 0.59127890625
vt 0.1953125 0.4140625
vt 0.1953125 0.421875
vt 0.203125 0.421875
vt 0.203125 0.4140625
vt 0.4602365294375179 0.6295726562499999
vt 0.46696856068751796 0.63204375
vt 0.46524199818751794 0.6238937499999999
vt 0.4602365294375179 0.62191796875
vt 0.578125 0.78125
vt 0.578125 0.7890625
vt 0.5859375 0.7890625
vt 0.5859375 0.78125
vt 0.599466015625 0.9140625
vt 0.595846484375 0.9140625
vt 0.594640234375 0.921875
vt 0.600672265625 0.921875
vt 0.5103344476290631 0.5843416686690552
vt 0.5088778587998127 0.5912195218133933
vt 0.5156401099501873 0.59375
vt 0.5173667817474139 0.5855994840775253
vt 0.606595703125 0.828125
vt 0.604341015625 0.828125
vt 0.603590234375 0.8359375
vt 0.607347265625 0.8359375
vt 0.47373065806248205 0.6295137920608261
vt 0.4722734378987783 0.6226360726505076
vt 0.46524199818751794 0.6238937499999999
vt 0.4669686368933994 0.6320441097193463
vt 0.39740883590121856 0.4296875
vt 0.390625 0.42989464361692664
vt 0.390625 0.437337567387718
vt 0.400009081061544 0.43705125799244127
vt 0.572498828125 0.6328125
vt 0.568126171875 0.6328125
vt 0.565713671875 0.640625
vt 0.574911328125 0.640625
vt 0.046875 0.42210216290982283
vt 0.046875 0.4288891606269799
vt 0.0546875 0.43126344770904623
vt 0.0546875 0.421875
vt 0.341205859375 0.3984375
vt 0.338481640625 0.3984375
vt 0.336978515625 0.40625
vt 0.342708984375 0.40625
vt 0.607655078125 0.8671875
vt 0.606562109375 0.859375
vt 0.604375390625 0.859375
vt 0.603282421875 0.8671875
vt 0.4755368541431326 0.4140625
vt 0.4738857296418866 0.40625
vt 0.47049230257032026 0.40625
vt 0.46875 0.4140625
vt 0.095469921875 0.390625
vt 0.09656289062500001 0.3984375
vt 0.09874960937499999 0.3984375
vt 0.099842578125 0.390625
vt 0.4921875 0.40625
vt 0.484375 0.40799189784239454
vt 0.484375 0.411385196039761
vt 0.4921875 0.4130367251814451
vt 0.4453125 0.40625
vt 0.4375 0.4080529177809269
vt 0.4375 0.4115684559742996
vt 0.4453125 0.41328093923058107
vt 0.263528515625 0.3984375
vt 0.262623828125 0.390625
vt 0.260813671875 0.390625
vt 0.259908984375 0.3984375
vt 0.5929684392552158 0.59375
vt 0.5912556551155939 0.5859375
vt 0.5877410231377826 0.5859375
vt 0.5859375 0.59375
vt 0.291158984375 0.390625
vt 0.292063671875 0.3984375
vt 0.293873828125 0.3984375
vt 0.294778515625 0.390625
vt 0.0390625 0.4140625
vt 0.03125 0.4140625
vt 0.03125 0.421875
vt 0.0390625 0.421875
vt 0.24630322362572854 0.40206953125
vt 0.24557509862572854 0.40550859375000003
vt 0.24832197362572855 0.40625
vt 0.24905009862572855 0.40281093749999997
vt 0.5859375 0.9921875
vt 0.578125 0.9921875
vt 0.578125 1
vt 0.5859375 1
vt 0.5981753662191249 0.68675859375
vt 0.597447241219125 0.68331953125
vt 0.5947003662191249 0.6840609375
vt 0.595428491219125 0.6875
vt 0.20094375 0.3898828125
vt 0.200240625 0.38656328124999995
vt 0.19749375 0.3873046875
vt 0.198196875 0.390625
vt 0.578125 0.6953125
vt 0.5703125 0.6953125
vt 0.5703125 0.703125
vt 0.578125 0.703125
vt 0.612259375 0.80062578125
vt 0.61155625 0.8039453125
vt 0.614303125 0.8046875
vt 0.61500625 0.8013671875
vt 0.4609375 0.421875
vt 0.453125 0.421875
vt 0.453125 0.4296875
vt 0.4609375 0.4296875
vt 0.613281640625 0.7818328125
vt 0.612376171875 0.7890625
vt 0.614186328125 0.7890625
vt 0.24313740137427145 0.39864232774912234
vt 0.24557509862572854 0.40550859375000003
vt 0.24630318892013445 0.40206969517062785
vt 0.402343359375 0.3828125
vt 0.401438671875 0.38738984374999996
vt 0.403248828125 0.38738984374999996
vt 0.6006121337808751 0.6798921143272968
vt 0.597447241219125 0.68331953125
vt 0.5981754574168221 0.686759024492771
vt 0.6126046875 0.9765625
vt 0.609375 0.98003359375
vt 0.61005 0.983359375
vt 0.613281640625 0.906884375
vt 0.612187890625 0.9140625
vt 0.614374609375 0.9140625
vt 0.60614453125 0.46875
vt 0.60869921875 0.47554609375
vt 0.609375 0.47222031249999996
vt 0.613280859375 0.71875
vt 0.612187890625 0.7233632812499999
vt 0.614374609375 0.7233632812499999
vt 0.011592180807010188 0.776459375
vt 0.02205235044298981 0.7712380036649797
vt 0.022046378515463552 0.76981770371999
vt 0.009831642739932936 0.7698690629536935
vt 0.009583587057010193 0.78239375
vt 0.011592180807010188 0.776459375
vt 0.009829680807010188 0.76986171875
vt 0.006814055807010194 0.7852234375
vt 0.02200646546170587 0.7867396205034966
vt 0.009583587057010193 0.78239375
vt 0.006813578623609873 0.7852239250481737
vt 0.02197829692427404 0.7909568430991387
vt 0.565713671875 0.483603125
vt 0.567447265625 0.483603125
vt 0.568950390625 0.47788906249999996
vt 0.568126171875 0.4765625
vt 0.568126171875 0.4765625
vt 0.568950390625 0.47788906249999996
vt 0.571674609375 0.47788906249999996
vt 0.572498828125 0.4765625
vt 0.572498828125 0.4765625
vt 0.571674609375 0.47788906249999996
vt 0.573177734375 0.483603125
vt 0.574911328125 0.483603125
vt 0.5 0.43062187499999993
vt 0.5078125 0.43062187499999993
vt 0.5078125 0.4235234375
vt 0.5 0.421875
vt 0.479173046875 0.92784921875
vt 0.480906640625 0.92949765625
vt 0.486637109375 0.92949765625
vt 0.48837070312499997 0.92784921875
vt 0.48837070312499997 0.92784921875
vt 0.486637109375 0.92949765625
vt 0.486637109375 0.93659609375
vt 0.48837070312499997 0.93659609375
vt 0.414952734375 0.40547890624999994
vt 0.416090234375 0.40547890624999994
vt 0.416841015625 0.39976484375
vt 0.416158984375 0.3984375
vt 0.416158984375 0.3984375
vt 0.416841015625 0.39976484375
vt 0.419095703125 0.39976484375
vt 0.419778515625 0.3984375
vt 0.419778515625 0.3984375
vt 0.419095703125 0.39976484375
vt 0.419847265625 0.40547890624999994
vt 0.420984765625 0.40547890624999994
vt 0.602452734375 0.84913125
vt 0.603590234375 0.84913125
vt 0.603590234375 0.8447640625
vt 0.602452734375 0.84375
vt 0.602452734375 0.84375
vt 0.603590234375 0.8447640625
vt 0.607347265625 0.8447640625
vt 0.608484765625 0.84375
vt 0.608484765625 0.84375
vt 0.607347265625 0.8447640625
vt 0.607347265625 0.84913125
vt 0.608484765625 0.84913125
vt 0.15625 0.5546875
vt 0.1484375 0.5546875
vt 0.1484375 0.5625
vt 0.15625 0.5625
vt 0.6100381533164747 0.65501796875
vt 0.6047713754992271 0.6539792659067384
vt 0.6045063779335254 0.6552522162242588
vt 0.610181702559219 0.6562482793793901
vt 0.6139787072045909 0.6333358969949798
vt 0.6087118542442451 0.63437421875
vt 0.6085682150597435 0.635605300238908
vt 0.6142436145057549 0.6346073039845461
vt 0.6087118542442451 0.63437421875
vt 0.605064197994245 0.6328125
vt 0.6045063854942451 0.63400234375
vt 0.6085681042442451 0.6356062499999999
vt 0.6136858095664747 0.6534562500000001
vt 0.6100381533164747 0.65501796875
vt 0.6101819033164747 0.65625
vt 0.6142436220664746 0.65464609375
vt 0.25 0.4140625
vt 0.2421875 0.4140625
vt 0.2421875 0.421875
vt 0.25 0.421875
vt 0.578125 0.8515625
vt 0.5703125 0.8515625
vt 0.5703125 0.859375
vt 0.578125 0.859375
vt 0.3278242385258008 0.3828125
vt 0.3222199932954712 0.3829201373027955
vt 0.3222199932954712 0.38422064285728796
vt 0.328125 0.3840356519787731
vt 0.609375 0.42380508863373767
vt 0.609375 0.4294108528898857
vt 0.6106069996209085 0.4296875
vt 0.6106719021227575 0.42378069738909463
vt 0.24932861583292215 0.38909153549257414
vt 0.24254825814335956 0.38931988452004596
vt 0.24254825814335956 0.390625
vt 0.24963924185664044 0.39031470087129505
vt 0.6126290620139782 0.6882590186602444
vt 0.6126290620139782 0.695043220431769
vt 0.6138619896616712 0.6953125
vt 0.6139334379860218 0.688215089859094
vt 0.5859375 0.9453125
vt 0.578125 0.9453125
vt 0.578125 0.953125
vt 0.5859375 0.953125
vt 0.5544031812478758 0.8828125
vt 0.5425864509320716 0.8828125
vt 0.5430128433704593 0.890625
vt 0.5546875 0.8899931189306242
vt 0.5859375 0.9140625
vt 0.578125 0.9140625
vt 0.578125 0.921875
vt 0.5859375 0.921875
vt 0.3671875 0.38491159461386704
vt 0.3671875 0.39818437150663943
vt 0.368458635309335 0.3984375
vt 0.36909381986113643 0.3852912110644282
vn 0 1 0
vn -5.4187357581931427e-17 -0.9697656287977189 -0.2440381634141782
vn 0 1 0
vn 0 -1 0
vn 0.3610494008325438 0.9325466906050665 -8.016907156628145e-17
vn 0.14525761706877077 0 0.9893938673165013
vn 0.3254151566003635 -0.9455712431407594 -7.225667988394491e-17
vn 0.33902217772293086 0 -0.9407783814544219
vn 0.3927738222755045 0 -0.9196351040141358
vn 0.6074823892296323 0.7943331459632399 -1.348881871154078e-16
vn 0.1409446518276978 0 0.9900174771796553
vn 0 -1 0
vn -0.9364455788627822 0 -0.35081288150287315
vn -0.24234598691307785 0.9701898899839797 5.381161891928118e-17
vn 2.220446049250313e-16 0 1
vn 0.2530233537662916 -0.9674601709883763 -5.618247062384265e-17
vn -2.220446049250313e-16 0 -1
vn -0.33318573640647847 0 -0.9428612119794052
vn -2.220446049250313e-16 0 -1
vn -0.3446022202486845 0.9387488001588483 7.651706385140777e-17
vn -4.248782114599297e-15 9.469517545254647e-16 1
vn 0.39368958966781603 -0.919243442721887 -8.74166494008879e-17
vn 0.3524129225391429 0.9358446089108065 -7.825138815567965e-17
vn 0.16528926116523787 -0.035009398861536145 -0.9856235600546509
vn -0.19647673990439896 -0.9805084857748755 4.36266000890304e-17
vn 0.1652892611652421 -0.03500939886153693 0.98562356005465
vn 0.3172721832964547 -0.06720042387745588 0.945950561465551
vn 0.5090838747754904 0.8607169153929606 -1.1303932784822789e-16
vn 0.31727218329645607 -0.06720042387745628 -0.9459505614655506
vn -0.1878595605368702 -0.9821958997648556 4.1713201900799345e-17
vn 0.8789688598549438 0.4768791706557339 -1.951702932278962e-16
vn 0.6001209157762801 -0.1271097248390411 0.7897455313575267
vn 0.6307422888243224 -0.7759923743753255 -1.4005292233150665e-16
vn 0.6001209157762946 -0.12710972483904423 -0.7897455313575152
vn 0.5290038978601636 -0.11204665281297421 -0.8411898856038169
vn 0.887336273915899 0.4611229087705889 -1.9702823237730515e-16
vn 0.5290038978601675 -0.11204665281297499 0.8411898856038142
vn 0.6436510417061838 -0.7653191076345504 -1.4291924126523443e-16
vn 0.26076400895366364 0.9654025749056265 -5.790124134678357e-17
vn -2.220446049250313e-16 0 -1
vn -0.26076400895366114 -0.9654025749056271 5.790124134678301e-17
vn 2.220446049250313e-16 0 1
vn 2.220446049250313e-16 0 1
vn 0.26076400895365576 0.9654025749056286 -5.790124134678182e-17
vn -2.220446049250313e-16 0 -1
vn -0.26076400895366025 -0.9654025749056273 5.790124134678282e-17
vn 0.9466235245887697 0.32234128295199055 -2.1019264653005404e-16
vn 0.23248327488220635 -0.04924155169917975 -0.9713530750897439
vn -0.7439088950083329 -0.668281045614404 1.6518095669234187e-16
vn 0.2324832748822068 -0.04924155169917975 0.9713530750897439
vn 0.2773375570857705 -0.058741996224383766 0.9589751077631116
vn 0.9452143345594604 0.32645039706411233 -2.0987974348673174e-16
vn 0.27733755708577335 -0.05874199622438446 -0.9589751077631108
vn -0.7510005215840371 -0.6603016103119121 1.6675561411361996e-16
vn -4.118054156351522e-17 -0.9826516876669503 -0.18546067164036237
vn 0 -1 0
vn 0.11410047521165484 -0.9866058617564003 -0.11657596280702674
vn -0.17561520125633395 -0.9844588874542692 3.8994407981792534e-17
vn -0.17561520125633048 -0.9844588874542699 3.8994407981791764e-17
vn -0.1756152012563329 -0.9844588874542693 4.081604180717739e-15
vn 0.24339734929092022 -0.9699266623606931 -5.404506826310223e-17
vn 0.24339734929091258 -0.969926662360695 -5.4045068263100534e-17
vn 0.2433973492909202 -0.9699266623606931 -7.4868520589711e-15
vn -0.1756152012563352 -0.9844588874542689 3.899440798179281e-17
vn -0.17561520125633048 -0.9844588874542698 3.8994407981791764e-17
vn -0.17561520125633423 -0.9844588874542691 7.479254176425586e-15
vn 0.36713805266834354 -0.9301664637487728 -8.152102385768768e-17
vn 0.3671380526683457 -0.9301664637487717 -8.152102385768816e-17
vn 0.36713805266834354 -0.9301664637487725 1.965757701809542e-15
vn 0.9782965062030091 -0.20720990794599065 -2.172254612193856e-16
vn 0.1369830642232163 -0.029013952260770234 -0.99014838821776
vn 0.14607828898008737 0.017111891279917215 0.989125025800821
vn -2.946238903367307e-15 -1.4848010054136802e-15 1
vn 3.4004080819220548e-15 4.243410638005294e-16 -1
vn -0.9054953856793823 -0.42435610813719504 2.0106036517461729e-16
vn 0.9782965062030066 -0.20720990794600302 -2.1722546121938503e-16
vn 0.2623801473017886 -0.05557391427296021 -0.9633629629346737
vn 0.27462304457790193 0.01121650302048141 0.9614865435598957
vn 2.220446049250313e-16 0 1
vn -2.220446049250313e-16 0 -1
vn -0.9583636899710927 -0.28555041191528996 2.1279948691412646e-16
vn 0.8934882705571222 0 -0.4490865288302947
vn 0.3206312300516039 0 -0.9472041038316904
vn -0.9456239472094602 0 -0.32526197205329743
vn 0 1 0
vn 5.4187357581931427e-17 -0.9697656287977189 0.2440381634141782
vn 0 1 0
vn 0 -1 0
vn 0.3610494008325438 0.9325466906050665 -8.016907156628145e-17
vn 0.14525761706877033 0 -0.9893938673165013
vn 0.3254151566003636 -0.9455712431407594 -7.225667988394492e-17
vn 0.3390221777229313 0 0.9407783814544217
vn 0.39277382227550495 0 0.9196351040141356
vn 0.6074823892296323 0.79433314596324 -1.348881871154078e-16
vn 0.14094465182769736 0 -0.9900174771796553
vn 0 -1 0
vn -0.936445578862782 0 0.3508128815028736
vn -0.24234598691307785 0.9701898899839797 5.381161891928118e-17
vn -2.220446049250313e-16 0 -1
vn 0.25302335376629154 -0.9674601709883762 -5.618247062384264e-17
vn 2.220446049250313e-16 0 1
vn -0.333185736406478 0 0.9428612119794052
vn 2.220446049250313e-16 0 1
vn -0.3446022202486845 0.9387488001588484 7.651706385140777e-17
vn -2.220446049250313e-16 0 -1
vn 0.393689589667816 -0.9192434427218868 -8.741664940088789e-17
vn 0.3524129225391429 0.9358446089108063 -7.825138815567965e-17
vn 0.1652892611652346 -0.03500939886153533 0.9856235600546513
vn -0.19647673990439893 -0.9805084857748755 4.3626600089030394e-17
vn 0.16528926116523793 -0.03500939886153614 -0.9856235600546507
vn 0.31727218329645585 -0.06720042387745624 -0.9459505614655506
vn 0.5090838747754904 0.8607169153929605 -1.1303932784822789e-16
vn 0.3172721832964565 -0.0672004238774563 0.9459505614655503
vn -0.1878595605368702 -0.9821958997648557 4.1713201900799345e-17
vn 0.8789688598549438 0.4768791706557339 -1.951702932278962e-16
vn 0.600120915776275 -0.12710972483904007 -0.7897455313575308
vn 0.6307422888243224 -0.7759923743753254 -1.4005292233150665e-16
vn 0.600120915776295 -0.12710972483904423 0.789745531357515
vn 0.5290038978601755 -0.11204665281297667 0.841189885603809
vn 0.8873362739158991 0.46112290877058887 -1.9702823237730518e-16
vn 0.5290038978601672 -0.11204665281297499 -0.8411898856038145
vn 0.6436510417061838 -0.7653191076345502 -1.4291924126523443e-16
vn 0.26076400895366364 0.9654025749056265 -5.790124134678357e-17
vn 2.220446049250313e-16 0 1
vn -0.26076400895366114 -0.9654025749056271 5.790124134678301e-17
vn -2.220446049250313e-16 0 -1
vn -2.220446049250313e-16 0 -1
vn 0.26076400895365576 0.9654025749056286 -5.790124134678182e-17
vn 2.220446049250313e-16 0 1
vn -0.26076400895366025 -0.9654025749056273 5.790124134678282e-17
vn 0.9466235245887697 0.32234128295199055 -2.1019264653005404e-16
vn 0.23248327488220683 -0.04924155169917976 0.9713530750897439
vn -0.7439088950083329 -0.668281045614404 1.6518095669234187e-16
vn 0.23248327488220638 -0.04924155169917976 -0.9713530750897439
vn 0.27733755708577007 -0.05874199622438378 -0.9589751077631118
vn 0.9452143345594605 0.32645039706411233 -2.0987974348673177e-16
vn 0.2773375570857738 -0.058741996224384474 0.9589751077631108
vn -0.7510005215840371 -0.6603016103119121 1.6675561411361996e-16
vn 4.11805415635152e-17 -0.9826516876669503 0.18546067164036228
vn 0 -1 0
vn 0.1141004752116549 -0.9866058617564003 0.11657596280702667
vn -0.17561520125633392 -0.9844588874542691 3.899440798179253e-17
vn -0.1756152012563305 -0.9844588874542699 3.899440798179177e-17
vn -0.17561520125633295 -0.9844588874542695 -3.9404495870551456e-15
vn 0.24339734929092022 -0.9699266623606931 -5.404506826310223e-17
vn 0.2433973492909126 -0.9699266623606949 -5.404506826310054e-17
vn 0.24339734929092025 -0.9699266623606931 7.378761922444954e-15
vn -0.17561520125633523 -0.984458887454269 3.899440798179282e-17
vn -0.17561520125633048 -0.9844588874542698 3.8994407981791764e-17
vn -0.17561520125633426 -0.9844588874542691 -7.401265360462002e-15
vn 0.3671380526683435 -0.9301664637487728 -8.152102385768767e-17
vn 0.3671380526683457 -0.9301664637487717 -8.152102385768816e-17
vn 0.3671380526683435 -0.9301664637487728 -2.214103029761046e-15
vn 0.9782965062030091 -0.20720990794599065 -2.172254612193856e-16
vn 0.13698306422321924 -0.029013952260770776 0.9901483882177596
vn 0.14607828898008693 0.017111891279917284 -0.989125025800821
vn -3.3903281132173696e-15 -1.4848010054136802e-15 -1
vn 2.220446049250313e-16 0 1
vn -0.9054953856793823 -0.42435610813719504 2.0106036517461729e-16
vn 0.9782965062030066 -0.20720990794600305 -2.1722546121938503e-16
vn 0.2623801473017914 -0.05557391427296065 0.963362962934673
vn 0.27462304457790376 0.011216503020481479 -0.9614865435598953
vn -2.220446049250313e-16 0 -1
vn 2.220446049250313e-16 0 1
vn -0.9583636899710927 -0.28555041191528996 2.1279948691412646e-16
vn 0.8934882705571224 0 0.44908652883029426
vn 0.3206312300516043 0 0.9472041038316902
vn -0.9456239472094602 0 0.325261972053298
usemtl m_5ec4fc5d-6ec2-3614-e281-4cafd1b8b2e4
f 7/1/1 1/2/1 2/3/1 8/4/1
f 82/5/2 81/6/2 83/7/2 84/8/2
f 11/9/3 7/10/3 8/11/3
f 12/12/4 10/13/4 9/14/4
f 14/15/5 13/16/5 8/17/5 2/18/5
f 15/19/6 14/20/6 2/21/6 3/22/6
f 16/23/7 15/24/7 3/25/7 10/26/7
f 13/27/8 16/28/8 10/29/8 8/30/8
f 18/31/9 17/32/9 12/33/9 11/34/9
f 19/35/10 18/36/10 11/37/10 8/38/10
f 20/39/11 19/40/11 8/41/11 10/42/11
f 17/43/12 20/44/12 10/45/12 12/46/12
f 9/47/13 4/48/13 1/49/13 7/50/13
f 22/51/14 21/52/14 13/53/14 14/54/14
f 23/55/15 22/56/15 14/57/15 15/58/15
f 77/59/16 78/60/16 79/61/16 80/62/16
f 21/63/17 24/64/17 16/65/17 13/66/17
f 7/67/18 11/68/18 12/69/18 9/70/18
f 26/71/19 25/72/19 17/73/19 18/74/19
f 27/75/20 26/76/20 18/77/20 19/78/20
f 28/79/21 27/80/21 19/81/21 20/82/21
f 71/83/22 72/84/22 73/85/22 74/86/22
f 27/87/23 35/88/23 34/89/23 26/90/23
f 26/91/24 34/92/24 33/93/24 25/94/24
f 71/95/25 70/96/25 69/97/25 72/98/25
f 28/99/26 36/100/26 35/101/26 27/102/26
f 23/103/27 31/104/27 30/105/27 22/106/27
f 22/107/28 30/108/28 29/109/28 21/110/28
f 21/111/29 29/112/29 32/113/29 24/114/29
f 77/115/30 76/116/30 75/117/30 78/118/30
f 38/119/31 37/120/31 29/121/31 30/122/31
f 39/123/32 38/124/32 30/125/32 31/126/32
f 40/127/33 39/128/33 31/129/33 32/130/33
f 37/131/34 40/132/34 32/133/34 29/134/34
f 42/135/35 41/136/35 33/137/35 34/138/35
f 43/139/36 42/140/36 34/141/36 35/142/36
f 44/143/37 43/144/37 35/145/37 36/146/37
f 41/147/38 44/148/38 36/149/38 33/150/38
f 43/151/39 47/152/39 45/153/39 42/154/39
f 42/155/40 45/156/40 46/157/40 41/158/40
f 41/159/41 46/160/41 48/161/41 44/162/41
f 44/163/42 48/164/42 47/165/42 43/166/42
f 39/167/43 51/168/43 49/169/43 38/170/43
f 38/171/44 49/172/44 50/173/44 37/174/44
f 37/175/45 50/176/45 52/177/45 40/178/45
f 40/179/46 52/180/46 51/181/46 39/182/46
f 47/183/47 53/184/47 45/185/47
f 45/186/48 53/187/48 46/188/48
f 46/189/49 53/190/49 48/191/49
f 48/192/50 53/193/50 47/194/50
f 51/195/51 54/196/51 49/197/51
f 49/198/52 54/199/52 50/200/52
f 50/201/53 54/202/53 52/203/53
f 52/204/54 54/205/54 51/206/54
f 3/207/55 5/208/55 55/209/55 10/210/55
f 10/211/56 55/212/56 56/213/56 9/214/56
f 9/215/57 56/216/57 6/217/57 4/218/57
f 57/219/58 59/220/58 24/221/58 32/222/58
f 58/223/59 57/224/59 32/225/59 31/226/59
f 60/227/60 58/228/60 31/229/60 23/230/60
f 61/231/61 60/232/61 23/233/61 15/234/61
f 62/235/62 61/236/62 15/237/62 16/238/62
f 59/239/63 62/240/63 16/241/63 24/242/63
f 63/243/64 65/244/64 25/245/64 33/246/64
f 64/247/65 63/248/65 33/249/65 36/250/65
f 66/251/66 64/252/66 36/253/66 28/254/66
f 67/255/67 66/256/67 28/257/67 20/258/67
f 68/259/68 67/260/68 20/261/68 17/262/68
f 65/263/69 68/264/69 17/265/69 25/266/69
f 64/267/70 69/268/70 70/269/70 63/270/70
f 63/271/71 70/272/71 71/273/71 65/274/71
f 66/275/72 72/276/72 69/277/72 64/278/72
f 67/279/73 73/280/73 72/281/73 66/282/73
f 65/283/74 71/284/74 74/285/74 68/286/74
f 68/287/75 74/288/75 73/289/75 67/290/75
f 58/291/76 75/292/76 76/293/76 57/294/76
f 57/295/77 76/296/77 77/297/77 59/298/77
f 60/299/78 78/300/78 75/301/78 58/302/78
f 61/303/79 79/304/79 78/305/79 60/306/79
f 59/307/80 77/308/80 80/309/80 62/310/80
f 62/311/81 80/312/81 79/313/81 61/314/81
f 5/315/82 81/316/82 82/317/82 55/318/82
f 55/319/83 82/320/83 84/321/83 56/322/83
f 56/323/84 84/324/84 83/325/84 6/326/84
f 2/327/85 1/328/85 85/329/85 86/330/85
f 83/331/86 81/332/86 159/333/86 160/334/86
f 85/335/87 89/336/87 86/337/87
f 88/338/88 90/339/88 87/340/88
f 86/341/89 91/342/89 92/343/89 2/344/89
f 2/345/90 92/346/90 93/347/90 3/348/90
f 3/349/91 93/350/91 94/351/91 88/352/91
f 88/353/92 94/354/92 91/355/92 86/356/92
f 90/357/93 95/358/93 96/359/93 89/360/93
f 89/361/94 96/362/94 97/363/94 86/364/94
f 86/365/95 97/366/95 98/367/95 88/368/95
f 88/369/96 98/370/96 95/371/96 90/372/96
f 1/373/97 4/374/97 87/375/97 85/376/97
f 91/377/98 99/378/98 100/379/98 92/380/98
f 92/381/99 100/382/99 101/383/99 93/384/99
f 157/385/100 156/386/100 155/387/100 158/388/100
f 94/389/101 102/390/101 99/391/101 91/392/101
f 90/393/102 89/394/102 85/395/102 87/396/102
f 95/397/103 103/398/103 104/399/103 96/400/103
f 96/401/104 104/402/104 105/403/104 97/404/104
f 97/405/105 105/406/105 106/407/105 98/408/105
f 151/409/106 150/410/106 149/411/106 152/412/106
f 112/413/107 113/414/107 105/415/107 104/416/107
f 111/417/108 112/418/108 104/419/108 103/420/108
f 147/421/109 148/422/109 149/423/109 150/424/109
f 113/425/110 114/426/110 106/427/110 105/428/110
f 108/429/111 109/430/111 101/431/111 100/432/111
f 107/433/112 108/434/112 100/435/112 99/436/112
f 110/437/113 107/438/113 99/439/113 102/440/113
f 153/441/114 154/442/114 155/443/114 156/444/114
f 107/445/115 115/446/115 116/447/115 108/448/115
f 108/449/116 116/450/116 117/451/116 109/452/116
f 109/453/117 117/454/117 118/455/117 110/456/117
f 110/457/118 118/458/118 115/459/118 107/460/118
f 111/461/119 119/462/119 120/463/119 112/464/119
f 112/465/120 120/466/120 121/467/120 113/468/120
f 113/469/121 121/470/121 122/471/121 114/472/121
f 114/473/122 122/474/122 119/475/122 111/476/122
f 123/477/123 125/478/123 121/479/123 120/480/123
f 124/481/124 123/482/124 120/483/124 119/484/124
f 126/485/125 124/486/125 119/487/125 122/488/125
f 125/489/126 126/490/126 122/491/126 121/492/126
f 127/493/127 129/494/127 117/495/127 116/496/127
f 128/497/128 127/498/128 116/499/128 115/500/128
f 130/501/129 128/502/129 115/503/129 118/504/129
f 129/505/130 130/506/130 118/507/130 117/508/130
f 131/509/131 125/510/131 123/511/131
f 131/512/132 123/513/132 124/514/132
f 131/515/133 124/516/133 126/517/133
f 131/518/134 126/519/134 125/520/134
f 132/521/135 129/522/135 127/523/135
f 132/524/136 127/525/136 128/526/136
f 132/527/137 128/528/137 130/529/137
f 132/530/138 130/531/138 129/532/138
f 133/533/139 5/534/139 3/535/139 88/536/139
f 134/537/140 133/538/140 88/539/140 87/540/140
f 6/541/141 134/542/141 87/543/141 4/544/141
f 102/545/142 137/546/142 135/547/142 110/548/142
f 110/549/143 135/550/143 136/551/143 109/552/143
f 109/553/144 136/554/144 138/555/144 101/556/144
f 101/557/145 138/558/145 139/559/145 93/560/145
f 93/561/146 139/562/146 140/563/146 94/564/146
f 94/565/147 140/566/147 137/567/147 102/568/147
f 103/569/148 143/570/148 141/571/148 111/572/148
f 111/573/149 141/574/149 142/575/149 114/576/149
f 114/577/150 142/578/150 144/579/150 106/580/150
f 106/581/151 144/582/151 145/583/151 98/584/151
f 98/585/152 145/586/152 146/587/152 95/588/152
f 95/589/153 146/590/153 143/591/153 103/592/153
f 148/593/154 147/594/154 142/595/154 141/596/154
f 149/597/155 148/598/155 141/599/155 143/600/155
f 147/601/156 150/602/156 144/603/156 142/604/156
f 150/605/157 151/606/157 145/607/157 144/608/157
f 152/609/158 149/610/158 143/611/158 146/612/158
f 151/613/159 152/614/159 146/615/159 145/616/159
f 154/617/160 153/618/160 136/619/160 135/620/160
f 155/621/161 154/622/161 135/623/161 137/624/161
f 153/625/162 156/626/162 138/627/162 136/628/162
f 156/629/163 157/630/163 139/631/163 138/632/163
f 158/633/164 155/634/164 137/635/164 140/636/164
f 157/637/165 158/638/165 140/639/165 139/640/165
f 159/641/166 81/642/166 5/643/166 133/644/166
f 160/645/167 159/646/167 133/647/167 134/648/167
f 83/649/168 160/650/168 134/651/168 6/652/168
o Forearm
v 0.6187499999999998 1.11648153614473 -0.08214355845744499
v 0.6187500000000002 1.11648153614473 0.082143558457441
v 0.6374999999999996 0.9931872859279574 -0.08214355845744503
v 0.6375000000000001 0.9931872859279574 0.08214355845744095
v 0.33749999999999974 1.1571919017823424 -0.12105366509518034
v 0.3375000000000004 1.1571919017823424 0.12105366509517798
v 0.33749999999999974 0.9931872859279574 -0.12105366509518031
v 0.3375000000000004 0.9931872859279574 0.12105366509517801
v 0.6374999999999996 1.0629764841638663 -0.08214355845744505
v 0.33749999999999974 1.051344951124548 -0.12105366509518033
v 0.3375000000000004 1.051344951124548 0.121053665095178
v 0.6375000000000001 1.0629764841638663 0.08214355845744094
v 0.7249999999999996 1.1001973898896844 -0.0648501777295626
v 0.725 1.0629764841638663 0.06485017772955796
v 0.7249999999999995 1.0629764841638663 -0.0648501777295626
v 0.7250000000000001 1.1001973898896844 0.06485017772955796
v 0.4781226166020413 1.0571606190750622 -0.10159894151237923
v 0.4781226166020413 1.1385812517811431 -0.10159894151237923
v 0.47812261660204186 1.1385812517811431 0.10159894151237607
v 0.47812261660204186 1.0571606190750622 0.10159894151237607
v 0.47812261660204186 0.9931872859279574 0.10159894151237608
v 0.4781226166020413 0.9931872859279574 -0.10159894151237922
v 0.4781226166020416 1.1385812517811431 3.297360650009249e-7
v 0.3375000000000001 1.1571919017823424 3.92875739272836e-7
v 0.3375000000000001 1.051344951124548 3.928757392857985e-7
v 0.3376927205863501 0.9551402977324723 3.9287573929700915e-7
v 0.4781226187796176 0.9606189315133407 3.29736065022719e-7
v 0.6185572772360738 0.9660977510077862 2.665942504542987e-7
v 0.6187499999999999 1.0629764841638663 2.6659425044186344e-7
v 0.7499999999999996 1.0629764841638663 1.9643786783845218e-7
v 0.7499999999999997 1.1001973898896844 1.9643786783389395e-7
v 0.61875 1.11648153614473 2.6659425043531095e-7
v 0.6094783075419052 1.160925548972241 -0.04064309533175384
v 0.6094783075419056 1.1609255489722408 0.04064335138508212
v 0.4738458853952642 1.1838420603062922 0.050804285251944914
v 0.47384588539526384 1.1838420603062922 -0.050803955485701144
v 0.3250011837872496 1.222472472401993 -0.06156242087009491
v 0.32500118378724996 1.222472472401993 0.06156282046906651
v 0.5986899583578456 1.1084647526032816 -0.13771777380138042
v 0.4606935667471562 1.1237803508549278 -0.15998033799616504
v 0.3200685667471563 1.1491904674995106 -0.18316153057047957
v 0.3325685667471569 1.0162225188478704 -0.18196614164817318
v 0.4731935667471569 1.0141340161099592 -0.1589362392532041
v 0.4731935667471578 1.0141340161099592 0.158936239253201
v 0.332568566747158 1.0162225188478704 0.1819661416481709
v 0.5986899583578464 1.1084647526032816 0.13771777380137654
v 0.4606935667471572 1.1237803508549278 0.159980337996162
v 0.3200685667471574 1.1491904674995106 0.18316153057047735
vt 0.359375 0.7734375
vt 0.359375 0.78125
vt 0.3671875 0.78125
vt 0.3671875 0.7734375
vt 0.0234375 0.92919140625
vt 0.0234375 0.91596015625
vt 0.00830546875 0.91596015625
vt 0.00830546875 0.92919140625
vt 0.0234375 0.91596015625
vt 0.0234375 0.903934375
vt 0.00830546875 0.90868984375
vt 0.00830546875 0.91596015625
vt 0.5390625 0.8125
vt 0.5390625 0.82461015625
vt 0.546875 0.82461015625
vt 0.546875 0.8158867187500001
vt 0.112890625 0.66651796875
vt 0.129296875 0.66651796875
vt 0.126171875 0.65841171875
vt 0.115234375 0.65625
vt 0.0234375 0.91596015625
vt 0.0234375 0.92919140625
vt 0.03856953125 0.92919140625
vt 0.03856953125 0.91596015625
vt 0.023437500000000003 0.903934375
vt 0.0234375 0.91596015625
vt 0.03856953125 0.91596015625
vt 0.038569531250000004 0.90868984375
vt 0.0546875 0.4574274135786792
vt 0.0546875 0.4453125
vt 0.046875 0.4487039769681552
vt 0.046875 0.4574274135786792
vt 0.129296875 0.66651796875
vt 0.112890625 0.66651796875
vt 0.115234375 0.6767859375
vt 0.126171875 0.67462421875
vt 0.1171875 0.796875
vt 0.1171875 0.7890625
vt 0.109375 0.7890625
vt 0.109375 0.796875
vt 0.11779405600474546 0.47724178371659054
vt 0.125 0.4921875
vt 0.125 0.47238925577877766
vt 0.5234375 0.921875
vt 0.5432358948336293 0.921875
vt 0.5387738336457261 0.9157018374409224
vt 0.588616015625 0.8984375
vt 0.593696484375 0.90411328125
vt 0.598883984375 0.8984375
vt 0.5328257779885257 0.49550349960116225
vt 0.5390625 0.5
vt 0.5390625 0.48340810713590887
vt 0.096428515625 0.40625
vt 0.101616015625 0.41192578125
vt 0.106696484375 0.40625
vt 0.16570235279415996 0.47210105581549056
vt 0.171875 0.4765625
vt 0.171875 0.4567645147404612
vt 0.5078125 0.828125
vt 0.5276107442212223 0.828125
vt 0.512665027937813 0.8209190560047455
vt 0.53125 0.515625
vt 0.5478418928640911 0.515625
vt 0.5433448986482161 0.50938767259915
vt 0.5639625 0.6640625
vt 0.57031171875 0.6697453125
vt 0.5766625 0.6640625
vt 0.500676685809166 0.9953407798169892
vt 0.5078125 1
vt 0.5078125 0.9790402498996869
vt 0.02467648572356941 0.5625
vt 0.04563601427643059 0.5625
vt 0.027787701858446846 0.5527147296198288
vt 0.4921875 0.9140625
vt 0.5125425111941234 0.9140625
vt 0.5085040931110217 0.9065590752730405
vt 0.4404198648099144 0.8649641875820162
vt 0.45020513519008554 0.8828125
vt 0.4502051351900856 0.8618529714471388
vt 0.4921875 0.6796875
vt 0.5131472501003131 0.6796875
vt 0.5084885015185145 0.6725523086605601
vt 0.3374 0.4296875
vt 0.34375078125 0.4353703125
vt 0.3501 0.4296875
vt 0.17218407527304047 0.5037740819168983
vt 0.1796875 0.5078125
vt 0.1796875 0.4874574888058766
vt 0.1736988547089144 0.6217061725447138
vt 0.1856761452910856 0.640625
vt 0.1856761452910856 0.6174830800391874
vt 0.453125 0.6953125
vt 0.47626650746333915 0.6953125
vt 0.46871737355752924 0.6868710459278493
vt 0.0234375 0.92919140625
vt 0.0311328125 0.9375
vt 0.03856953125 0.92919140625
vt 0.2489910215964316 0.5400554217909606
vt 0.2578125 0.546875
vt 0.2578125 0.5244837427443375
vt 0.00830546875 0.92919140625
vt 0.0157421875 0.9375
vt 0.0234375 0.92919140625
vt 0.311871653865925 0.5393263567701103
vt 0.3203125 0.546875
vt 0.3203125 0.5237334925366608
vt 0.2188977900195937 0.6328125
vt 0.2420397099804063 0.6328125
vt 0.22312088252512013 0.6208352094178289
vt 0.4453125 0.71875
vt 0.4677032576158407 0.71875
vt 0.460883916027267 0.7099283386784474
vt 0.0658704677734494 0.4262181441253041
vt 0.0658704677734494 0.4453125
vt 0.0703125 0.42760375661222494
vt 0.36224383972486296 0.43486745467140286
vt 0.36224383972486296 0.453125
vt 0.3671875 0.4475473716464924
vt 0.59375 0.5152654055261187
vt 0.59375 0.5078125
vt 0.5866640035356742 0.5151552080332042
vt 0.5421011520427642 0.7366379878004268
vt 0.546875 0.7456568604456939
vt 0.546875 0.7265625
vt 0.5174847783402529 0.4935832250733081
vt 0.5174847783402529 0.515625
vt 0.5234375 0.5105268061961805
vt 0.5665381416174473 0.625
vt 0.5703125 0.6181316331678718
vt 0.5590278910979916 0.6181316331678718
vt 0.006941200839677364 0.5649836177160368
vt 0.015625 0.5721907515272731
vt 0.015625 0.546875
vt 0.502000091118874 0.6387473230341075
vt 0.502000091118874 0.6640625
vt 0.5078125 0.642801464786948
vt 0.06009927527900402 0.600467100625567
vt 0.07031249999999994 0.6109697773689954
vt 0.0703125 0.5859375
vt 0.13158593401626487 0.5609058181095117
vt 0.1315859340162649 0.5859375
vt 0.140625 0.5655827414515546
vt 0.18926607841463677 0.4621029985966957
vt 0.18926607841463675 0.484375
vt 0.1953125 0.4789479072745594
vt 0.5432723283058903 0.84375
vt 0.546875 0.8364672241355775
vt 0.5322257382315241 0.8364672241355775
vt 0.13811652270607822 0.9141859375
vt 0.1365694088912813 0.9222018201485347
vt 0.15586025624950128 0.9139492189695466
vt 0.5059006626952929 0.6172350217073095
vt 0.48640821591771416 0.625
vt 0.5078125 0.625
vt 0.5067961254656006 0.5631613559608453
vt 0.4853913745343994 0.5631613559608453
vt 0.49053882245623603 0.5703125
vt 0.03856953125 0.91596015625
vt 0.04620859375 0.9115703125
vt 0.038569531250000004 0.908690625
vt 0.5039269082822614 0.7737014917608325
vt 0.4804480917177386 0.7737014917608325
vt 0.4853165184183269 0.78125
vt 0.125 0.4140625
vt 0.125 0.40508014666088066
vt 0.11859549581725873 0.4092737281387735
vt 0.15586031314295312 0.9139488763292506
vt 0.1543664486057901 0.9214570069868224
vt 0.17593058987708898 0.9139867664712586
vt 0.47429404430756844 0.8118891710507139
vt 0.453083674635887 0.8203125
vt 0.4765625 0.8203125
vt 0.09751641858970447 0.8514084505466162
vt 0.11906431749745586 0.8589254136827658
vt 0.11758673030505129 0.8514140627180322
vt 0.1370060814778929 0.4076579958172587
vt 0.1328125 0.4140625
vt 0.1417948533391194 0.4140625
vt 0.21080550411958376 0.5048271101360655
vt 0.20325699588041624 0.4999586834354772
vt 0.20325699588041624 0.5234375
vt 0.08654832894928613 0.546875
vt 0.08654832894928613 0.5233961746358871
vt 0.078125 0.5446065443075685
vt 0.16373182201957734 0.49155519699063543
vt 0.15658067798042266 0.4864077490687988
vt 0.15658067798042266 0.5078125
vt 0.4921399782926905 0.65625
vt 0.49213997829269057 0.6348457159177141
vt 0.484375 0.6543381626952929
vt 0.1175859505756742 0.8514140625
vt 0.13685858141029553 0.8597091163714333
vt 0.13532911992911895 0.8516898468680052
vt 0.00830546875 0.90868984375
vt 0.0006664062500000012 0.9115695312500001
vt 0.00830546875 0.915959375
vt 0.5560731124869207 0.9375
vt 0.5737818558746959 0.9330579677734494
vt 0.5546875 0.9330579677734494
vt 0.2578125 0.4578988479572358
vt 0.27690686044569385 0.4578988479572358
vt 0.2678879878004267 0.453125
vt 0.5074520044563484 0.40625
vt 0.5 0.413220963831199
vt 0.5074520044563484 0.41333685327771663
vt 0.4033049169750896 0.453125
vt 0.4088825453285972 0.44818133972486296
vt 0.390625 0.44818133972486296
vt 0.4140625 0.6414962991603226
vt 0.439378251527273 0.6414962991603226
vt 0.43217111771603683 0.6328125
vt 0.3046875 0.43402789109799156
vt 0.3046875 0.4453125
vt 0.3115558668321282 0.4415381416174473
vt 0.5325685811228724 0.6484375
vt 0.5376667749266919 0.6424847783402529
vt 0.515625 0.6424847783402529
vt 0.4962416417528404 0.609375
vt 0.5175026769658925 0.603562591118874
vt 0.4921875 0.603562591118874
vt 0.5324699086778637 0.859375
vt 0.5378970014033043 0.8533285784146367
vt 0.515625 0.8533285784146367
vt 0.41092692334204295 0.7265625
vt 0.4312816818904883 0.7175234340162648
vt 0.40625 0.7175234340162648
vt 0.3828125 0.939900724720996
vt 0.4078447773689954 0.939900724720996
vt 0.39734210062556696 0.9296875
vt 0.46875 0.4541007382315241
vt 0.46875 0.46875
vt 0.4760327758644225 0.46514732830589034
vt 0.1574243352060782 0.9007046875
vt 0.14000480395607823 0.8984375
vt 0.13811652270607822 0.9141859375
vt 0.15586027270607822 0.91394921875
vt 0.17484508407011626 0.9029725905535405
vt 0.1574243352060782 0.9007046875
vt 0.15586031314295312 0.9139488763292506
vt 0.1759305911087187 0.9139867664735838
vt 0.11605168553055847 0.8381665743966026
vt 0.09862614860494479 0.8403958288028088
vt 0.09751641858970447 0.8514084505466162
vt 0.1175859505756742 0.8514140625
vt 0.1334765755756742 0.8359375
vt 0.11605157557567419 0.838165625
vt 0.1175859505756742 0.8514140625
vt 0.1353289193256742 0.85168984375
vn 0.9330671710905551 -7.021696079998328e-17 0.35970217435132223
vn -1 1.224646799147357e-16 2.9629076969683865e-15
vn -0.9999975304112414 -0.002003230650642024 -0.0009624127902965335
vn 0.9749226549069568 -0.0019394327583244727 -0.222535515254862
vn -1.224646799147353e-16 -1 1.224646799147357e-16
vn -1 1.224646799147357e-16 2.9629076969683865e-15
vn -0.9999979935296088 -0.002003231578377224 2.9631470770958616e-15
vn 0.974564360005224 -0.0019387199952492485 0.22409941894701255
vn -1.224646799147353e-16 -1 1.224646799147357e-16
vn 0.9330679024669778 -1.5831844132144426e-16 -0.3597002771556825
vn 0.43131058773362846 0.8867496756249394 -0.1662714337700167
vn 0.0846139628229838 0.6819842736041147 0.7264557301391867
vn -0.9789253089084682 -0.20421860732670796 2.9254748989009543e-15
vn 0.2180848008359486 0.689978506415729 -0.6901946684296139
vn -0.9789253089084685 -0.20421860732670657 2.925474898900955e-15
vn 0.08461287639193679 0.6819817765196099 -0.7264582008924118
vn 0.4313106300584331 0.8867494631010827 0.16627245739610333
vn 0.21808481932226614 0.6899764489806546 0.6901967193729776
vn -0.9955654155490873 -0.09407179897596028 2.9612889053165153e-15
vn 0.11729648362398222 0.7463959812140363 -0.6550836390545752
vn 0.4215417224764027 0.9068090075708487 -1.3600412889746079e-15
vn 0.20492270834273577 0.7392680734910799 0.6414743947518602
vn 0.42154172247640265 0.9068090075708487 -1.3600412889746077e-15
vn 0.11729739426828795 0.7463980326134853 0.6550811386451213
vn -0.9955654155490873 -0.09407179897596028 2.9612889053165153e-15
vn 0.2049227038763896 0.7392701119350741 -0.641472046963461
vn 0.48048648612075806 0.8770021303596284 -1.5310388931955206e-15
vn 0.09163979837176045 0.6924305731261409 0.7156410055010732
vn -0.9821599676888765 -0.18804732880151584 2.9330784838500926e-15
vn 0.18803893388714407 0.6809826579368169 -0.7077457021641986
vn -0.9821599676888764 -0.18804732880151584 2.9330784838500923e-15
vn 0.0916388581792005 0.6924283248697408 -0.7156433012260347
vn 0.48048648612075806 0.8770021303596284 -1.5310388931955206e-15
vn 0.1880389356025361 0.6809803496083199 0.7077479227414205
vn 0.499704024388826 -1.6727453597480792e-16 -0.8661962179608104
vn 0.1806667166213891 0.9621540592725798 -0.20400760704087498
vn -0.8797196896426591 -0.3082838642358334 0.36201426312625595
vn 0.13484840954969743 -0.7185301677414566 -0.6822978121666164
vn 0.18792221808826512 0.9372399162945662 -0.2937117281501391
vn -0.9582110626628277 1.523795219413156e-16 0.28606216001172663
vn 0.11625385614872667 -0.6372288747139107 -0.7618558933035791
vn 0.4422086053460206 0.15496501812956553 -0.8834236766772957
vn 0.13841501757096364 -0.5130553085424007 -0.8471219117029687
vn 0.4585821174269874 -1.6498859940334639e-16 -0.8886520362752683
vn 0.1521632240160151 0.9739412580796448 -0.16818079280135095
vn -0.962797882560805 1.5100145505096039e-16 0.270222569998197
vn 0.049359956416222164 -0.9328821258789298 -0.3567835953602647
vn 0.4833609660562486 -1.6640281598122507e-16 -0.8754211423613039
vn 0.033591278255874144 0.864636742894024 -0.5012733075506317
vn -0.9967388161246141 1.319476249104333e-16 0.08069530612435062
vn 0.04440258189050059 0.7972166580209173 -0.6020581457761514
vn -0.9963252907727935 1.3250375227434703e-16 0.08564995602163954
vn 0.042241353944590825 -0.9372688250743122 -0.3460387515304413
vn 0.4234121677468079 -1.6279833980484992e-16 -0.9059371590811082
vn 0.04224135394459287 -0.937268825074312 0.3460387515304412
vn -0.996325290772794 1.1152556337654528e-16 -0.08564995602163362
vn 0.04440258189050417 0.7972166580209173 0.6020581457761508
vn 0.42341216774681323 5.909226861461487e-17 0.9059371590811057
vn 0.033591278255877106 0.864636742894024 0.5012733075506312
vn 0.48336096605625384 4.801352399851259e-17 0.875421142361301
vn 0.049359956416224274 -0.9328821258789298 0.3567835953602646
vn -0.9967388161246146 1.1218297524015368e-16 -0.08069530612434471
vn 0.4997040243888311 4.488234917704159e-17 0.8661962179608075
vn 0.13484840954970148 -0.7185301677414564 0.6822978121666158
vn -0.8797196896426611 -0.3082838642358335 -0.36201426312625057
vn 0.1806667166213904 0.9621540592725798 0.20400760704087365
vn 0.11625385614873122 -0.6372288747139104 0.7618558933035786
vn -0.9582110626628293 8.23145002182085e-17 -0.2860621600117209
vn 0.18792221808826687 0.9372399162945664 0.29371172815013774
vn 0.4422086053460258 0.15496501812956576 0.883423676677293
vn 0.1521632240160161 0.9739412580796448 0.16818079280134976
vn 0.4585821174269926 5.266837495271025e-17 0.8886520362752657
vn 0.1384150175709686 -0.5130553085424003 0.8471219117029679
vn -0.9627978825608066 8.481601396982837e-17 -0.27022256999819133
vn 0.03719177263091069 -0.9533135403809725 -0.2996832757677121
vn 0.03712544934696793 -0.9516135849247804 -0.305046366963112
vn 0.03712324185263531 -0.9515499683704064 0.3052450206123427
vn 0.03712570085369126 -0.9516130004531602 0.30504815964803983
usemtl m_5ec4fc5d-6ec2-3614-e281-4cafd1b8b2e4
f 190/653/169 191/654/169 176/655/169 174/656/169
f 184/657/170 185/658/170 171/659/170 166/660/170
f 185/661/171 186/662/171 168/663/171 171/664/171
f 188/665/172 189/666/172 172/667/172 164/668/172
f 189/669/173 190/670/173 174/671/173 172/672/173
f 185/673/174 184/674/174 165/675/174 170/676/174
f 186/677/175 185/678/175 170/679/175 167/680/175
f 189/681/176 188/682/176 163/683/176 169/684/176
f 190/685/177 189/686/177 169/687/177 175/688/177
f 191/689/178 190/690/178 175/691/178 173/692/178
f 173/693/179 193/694/179 191/695/179
f 191/696/180 193/697/180 192/698/180
f 192/699/181 193/700/181 161/701/181
f 161/702/182 193/703/182 173/704/182
f 162/705/183 194/706/183 192/707/183
f 192/708/184 194/709/184 191/710/184
f 191/711/185 194/712/185 176/713/185
f 176/714/186 194/715/186 162/716/186
f 179/717/187 195/718/187 183/719/187
f 183/720/188 195/721/188 192/722/188
f 192/723/189 195/724/189 162/725/189
f 162/726/190 195/727/190 179/728/190
f 161/729/191 196/730/191 192/731/191
f 192/732/192 196/733/192 183/734/192
f 183/735/193 196/736/193 178/737/193
f 178/738/194 196/739/194 161/740/194
f 178/741/195 197/742/195 183/743/195
f 183/744/196 197/745/196 184/746/196
f 184/747/197 197/748/197 165/749/197
f 165/750/198 197/751/198 178/752/198
f 166/753/199 198/754/199 184/755/199
f 184/756/200 198/757/200 183/758/200
f 183/759/201 198/760/201 179/761/201
f 179/762/202 198/763/202 166/764/202
f 175/765/203 199/766/203 173/767/203
f 173/768/204 199/769/204 161/770/204
f 161/771/205 199/772/205 169/773/205
f 169/774/206 199/775/206 175/776/206
f 161/777/207 200/778/207 178/779/207
f 178/780/208 200/781/208 177/782/208
f 177/783/209 200/784/209 169/785/209
f 169/786/210 200/787/210 161/788/210
f 170/789/211 201/790/211 177/791/211
f 177/792/212 201/793/212 178/794/212
f 178/795/213 201/796/213 165/797/213
f 165/798/214 201/799/214 170/800/214
f 167/801/215 202/802/215 182/803/215
f 182/804/216 202/805/216 177/806/216
f 177/807/217 202/808/217 170/809/217
f 170/810/218 202/811/218 167/812/218
f 169/813/219 203/814/219 177/815/219
f 177/816/220 203/817/220 182/818/220
f 182/819/221 203/820/221 163/821/221
f 163/822/222 203/823/222 169/824/222
f 164/825/223 204/826/223 181/827/223
f 181/828/224 204/829/224 180/830/224
f 180/831/225 204/832/225 172/833/225
f 172/834/226 204/835/226 164/836/226
f 171/837/227 205/838/227 180/839/227
f 180/840/228 205/841/228 181/842/228
f 181/843/229 205/844/229 168/845/229
f 168/846/230 205/847/230 171/848/230
f 176/849/231 206/850/231 174/851/231
f 174/852/232 206/853/232 172/854/232
f 172/855/233 206/856/233 162/857/233
f 162/858/234 206/859/234 176/860/234
f 172/861/235 207/862/235 180/863/235
f 180/864/236 207/865/236 179/866/236
f 179/867/237 207/868/237 162/869/237
f 162/870/238 207/871/238 172/872/238
f 166/873/239 208/874/239 179/875/239
f 179/876/240 208/877/240 180/878/240
f 180/879/241 208/880/241 171/881/241
f 171/882/242 208/883/242 166/884/242
f 187/885/243 186/886/243 167/887/243 182/888/243
f 188/889/244 187/890/244 182/891/244 163/892/244
f 187/893/245 188/894/245 164/895/245 181/896/245
f 186/897/246 187/898/246 181/899/246 168/900/246
o Arm
v 0.3343749999999953 1.0218750000000016 5.389023147467818e-16
v 0.15937499999999533 1.021875000000001 8.772126480466929e-16
v 0.3343749999999951 1.0550182628834883 -0.05624999999999942
v 0.15937499999999508 1.0550182628834877 -0.05624999999999908
v 0.33437499999999504 1.0781250000000013 -0.037362012883486
v 0.15937499999999502 1.0781250000000007 -0.03736201288348566
v 0.33437499999999515 1.0781250000000013 0.037362012883487165
v 0.1593749999999952 1.0781250000000007 0.037362012883487505
v 0.3343749999999953 1.0550182628834883 0.056250000000000556
v 0.1593749999999953 1.0550182628834877 0.056250000000000897
v 0.33437499999999554 0.988731737116515 0.056250000000000494
v 0.15937499999999558 0.9887317371165143 0.056250000000000834
v 0.3343749999999956 0.965625000000002 0.0373620128834871
v 0.15937499999999563 0.9656250000000013 0.03736201288348744
v 0.3343749999999955 0.965625000000002 -0.03736201288348612
v 0.15937499999999546 0.9656250000000013 -0.03736201288348578
v 0.3343749999999953 0.988731737116515 -0.05624999999999947
v 0.15937499999999535 0.9887317371165143 -0.05624999999999913
v 0.3177083333333285 1.0550182628834883 -0.056249999999999384
v 0.3177083333333287 0.988731737116515 -0.05624999999999944
v 0.29466911764705395 1.055018262883488 -0.056249999999999335
v 0.29466911764705417 0.9887317371165147 -0.05624999999999939
v 0.3177083333333289 0.965625000000002 -0.03736201288348608
v 0.29466911764705433 0.9656250000000017 -0.03736201288348604
v 0.317708333333329 0.965625000000002 0.03736201288348714
v 0.29466911764705445 0.9656250000000017 0.03736201288348718
v 0.31770833333332893 0.988731737116515 0.05625000000000052
v 0.2946691176470544 0.9887317371165147 0.05625000000000057
v 0.3177083333333287 1.0550182628834883 0.05625000000000059
v 0.29466911764705417 1.055018262883488 0.05625000000000064
v 0.31770833333332854 1.0781250000000013 0.03736201288348719
v 0.294669117647054 1.078125000000001 0.03736201288348724
v 0.31770833333332843 1.0781250000000013 -0.03736201288348597
v 0.2946691176470539 1.078125000000001 -0.03736201288348592
vt 0.46508046875 0.928125
vt 0.46796875 0.9257640625
vt 0.4609375 0.92109375
vt 0.1171875 0.42840078125000003
vt 0.11345625 0.42840078125000003
vt 0.11345625 0.4453125
vt 0.1171875 0.4453125
vt 0.13203125 0.5351734375
vt 0.12914296874999998 0.5328125
vt 0.12499999999999999 0.53984375
vt 0.46796875 0.9257640625
vt 0.46796875 0.9164234375
vt 0.4609375 0.92109375
vt 0.0671703125 0.53777578125
vt 0.0578296875 0.53777578125
vt 0.0578296875 0.5546875
vt 0.0671703125 0.5546875
vt 0.13203125 0.5445140625
vt 0.13203125 0.5351734375
vt 0.12499999999999999 0.53984375
vt 0.46796875 0.9164234375
vt 0.46508046875 0.9140625
vt 0.4609375 0.92109375
vt 0.09748125 0.42840078125000003
vt 0.09375 0.42840078125000003
vt 0.09375 0.4453125
vt 0.09748125 0.4453125
vt 0.12914296874999998 0.546875
vt 0.13203125 0.5445140625
vt 0.12499999999999999 0.53984375
vt 0.46508046875 0.9140625
vt 0.45679453125 0.9140625
vt 0.4609375 0.92109375
vt 0.47289296875 0.51433828125
vt 0.46460703125 0.51433828125
vt 0.46460703125 0.53125
vt 0.47289296875 0.53125
vt 0.12085703125000001 0.546875
vt 0.12914296874999998 0.546875
vt 0.12499999999999999 0.53984375
vt 0.45679453125 0.9140625
vt 0.45390625 0.9164234375
vt 0.4609375 0.92109375
vt 0.5625 0.83465078125
vt 0.5587695312500001 0.83465078125
vt 0.5587695312500001 0.8515625
vt 0.5625 0.8515625
vt 0.11796875 0.5445140625
vt 0.12085703125000001 0.546875
vt 0.12499999999999999 0.53984375
vt 0.45390625 0.9164234375
vt 0.45390625 0.9257640625
vt 0.4609375 0.92109375
vt 0.4577953125 0.83465078125
vt 0.4484546875 0.83465078125
vt 0.4484546875 0.8515625
vt 0.4577953125 0.8515625
vt 0.11796875 0.5351734375
vt 0.11796875 0.5445140625
vt 0.12499999999999999 0.53984375
vt 0.45390625 0.9257640625
vt 0.45679453125 0.928125
vt 0.4609375 0.92109375
vt 0.15216796875 0.42840078125000003
vt 0.1484375 0.42840078125000003
vt 0.1484375 0.4453125
vt 0.15216796875 0.4453125
vt 0.12085703125000001 0.5328125
vt 0.11796875 0.5351734375
vt 0.12499999999999999 0.53984375
vt 0.45679453125 0.928125
vt 0.46508046875 0.928125
vt 0.4609375 0.92109375
vt 0.06664296874999999 0.50652578125
vt 0.05835703125000001 0.50652578125
vt 0.05835703125000001 0.5234375
vt 0.06664296874999999 0.5234375
vt 0.12914296874999998 0.5328125
vt 0.12085703125000001 0.5328125
vt 0.12499999999999999 0.53984375
vt 0.05835703125000001 0.50364609375
vt 0.06664296874999999 0.50364609375
vt 0.06664296874999999 0.5015625
vt 0.05835703125000001 0.5015625
vt 0.05835703125000001 0.50652578125
vt 0.06664296874999999 0.50652578125
vt 0.06664296874999999 0.50364609375
vt 0.05835703125000001 0.50364609375
vt 0.1484375 0.42552109375
vt 0.15216796875 0.42552109375
vt 0.15216796875 0.4234375
vt 0.1484375 0.4234375
vt 0.1484375 0.42840078125000003
vt 0.15216796875 0.42840078125000003
vt 0.15216796875 0.42552109375
vt 0.1484375 0.42552109375
vt 0.4484546875 0.83177109375
vt 0.4577953125 0.83177109375
vt 0.4577953125 0.8296875
vt 0.4484546875 0.8296875
vt 0.4484546875 0.83465078125
vt 0.4577953125 0.83465078125
vt 0.4577953125 0.83177109375
vt 0.4484546875 0.83177109375
vt 0.5587695312500001 0.83177109375
vt 0.5625 0.83177109375
vt 0.5625 0.8296875
vt 0.5587695312500001 0.8296875
vt 0.5587695312500001 0.83465078125
vt 0.5625 0.83465078125
vt 0.5625 0.83177109375
vt 0.5587695312500001 0.83177109375
vt 0.46460703125 0.51145859375
vt 0.47289296875 0.51145859375
vt 0.47289296875 0.509375
vt 0.46460703125 0.509375
vt 0.46460703125 0.51433828125
vt 0.47289296875 0.51433828125
vt 0.47289296875 0.51145859375
vt 0.46460703125 0.51145859375
vt 0.09375 0.42552109375
vt 0.09748125 0.42552109375
vt 0.09748125 0.4234375
vt 0.09375 0.4234375
vt 0.09375 0.42840078125000003
vt 0.09748125 0.42840078125000003
vt 0.09748125 0.42552109375
vt 0.09375 0.42552109375
vt 0.0578296875 0.53489609375
vt 0.0671703125 0.53489609375
vt 0.0671703125 0.5328125
vt 0.0578296875 0.5328125
vt 0.0578296875 0.53777578125
vt 0.0671703125 0.53777578125
vt 0.0671703125 0.53489609375
vt 0.0578296875 0.53489609375
vt 0.11345625 0.42552109375
vt 0.1171875 0.42552109375
vt 0.1171875 0.4234375
vt 0.11345625 0.4234375
vt 0.11345625 0.42840078125000003
vt 0.1171875 0.42840078125000003
vt 0.1171875 0.42552109375
vt 0.11345625 0.42552109375
vn 1 3.996802888650565e-15 -1.9332019045709208e-15
vn -4.026292430662373e-15 0.6328859753093352 -0.7742450143570521
vn -1 -3.996802888650565e-15 1.9332019045709208e-15
vn 1 3.996802888650565e-15 -1.9332019045709208e-15
vn -3.996802888650562e-15 1 1.010643099614868e-15
vn -1 -3.996802888650565e-15 1.9332019045709208e-15
vn 1 3.996802888650565e-15 -1.9332019045709208e-15
vn -1.0327485579431824e-15 0.6328859753093342 0.7742450143570528
vn -1 -3.996802888650565e-15 1.9332019045709208e-15
vn 1 3.996802888650565e-15 -1.9332019045709208e-15
vn 1.9332019045709247e-15 -1.0106430996148602e-15 1
vn -1 -3.996802888650565e-15 1.9332019045709208e-15
vn 1 3.996802888650565e-15 -1.9332019045709208e-15
vn 4.026292430662372e-15 -0.6328859753093347 0.7742450143570525
vn -1 -3.996802888650565e-15 1.9332019045709208e-15
vn 1 3.996802888650565e-15 -1.9332019045709208e-15
vn 3.996802888650562e-15 -1 -1.010643099614868e-15
vn -1 -3.996802888650565e-15 1.9332019045709208e-15
vn 1 3.996802888650565e-15 -1.9332019045709208e-15
vn 1.0327485579431777e-15 -0.6328859753093334 -0.7742450143570535
vn -1 -3.996802888650565e-15 1.9332019045709208e-15
vn 1 3.996802888650565e-15 -1.9332019045709208e-15
vn -1.933201904570924e-15 8.012824845088422e-16 -1
vn -1 -3.996802888650565e-15 1.9332019045709208e-15
vn -1.933201904570924e-15 8.012824845088421e-16 -1
vn -1.933201904570924e-15 8.012824845088421e-16 -1
vn 1.0327485579431778e-15 -0.6328859753093334 -0.7742450143570534
vn 1.0327485579431777e-15 -0.6328859753093334 -0.7742450143570535
vn 3.996802888650562e-15 -1 -1.010643099614868e-15
vn 3.996802888650562e-15 -1 -1.010643099614868e-15
vn 4.026292430662372e-15 -0.6328859753093348 0.7742450143570525
vn 4.026292430662372e-15 -0.6328859753093348 0.7742450143570525
vn 1.9332019045709247e-15 -1.0106430996148602e-15 1
vn 1.9332019045709247e-15 -1.0106430996148602e-15 1
vn -1.0327485579431824e-15 0.6328859753093342 0.7742450143570527
vn -1.0327485579431824e-15 0.6328859753093342 0.7742450143570527
vn -3.996802888650562e-15 1 1.010643099614868e-15
vn -3.996802888650562e-15 1 1.010643099614868e-15
vn -4.026292430662373e-15 0.6328859753093352 -0.774245014357052
vn -4.026292430662373e-15 0.6328859753093352 -0.774245014357052
usemtl m_5ec4fc5d-6ec2-3614-e281-4cafd1b8b2e4
f 211/901/247 213/902/247 209/903/247
f 242/904/248 229/905/248 212/906/248 214/907/248
f 214/908/249 212/909/249 210/910/249
f 213/911/250 215/912/250 209/913/250
f 240/914/251 242/915/251 214/916/251 216/917/251
f 216/918/252 214/919/252 210/920/252
f 215/921/253 217/922/253 209/923/253
f 238/924/254 240/925/254 216/926/254 218/927/254
f 218/928/255 216/929/255 210/930/255
f 217/931/256 219/932/256 209/933/256
f 236/934/257 238/935/257 218/936/257 220/937/257
f 220/938/258 218/939/258 210/940/258
f 219/941/259 221/942/259 209/943/259
f 234/944/260 236/945/260 220/946/260 222/947/260
f 222/948/261 220/949/261 210/950/261
f 221/951/262 223/952/262 209/953/262
f 232/954/263 234/955/263 222/956/263 224/957/263
f 224/958/264 222/959/264 210/960/264
f 223/961/265 225/962/265 209/963/265
f 230/964/266 232/965/266 224/966/266 226/967/266
f 226/968/267 224/969/267 210/970/267
f 225/971/268 211/972/268 209/973/268
f 229/974/269 230/975/269 226/976/269 212/977/269
f 212/978/270 226/979/270 210/980/270
f 228/981/271 227/982/271 211/983/271 225/984/271
f 230/985/272 229/986/272 227/987/272 228/988/272
f 231/989/273 228/990/273 225/991/273 223/992/273
f 232/993/274 230/994/274 228/995/274 231/996/274
f 233/997/275 231/998/275 223/999/275 221/1000/275
f 234/1001/276 232/1002/276 231/1003/276 233/1004/276
f 235/1005/277 233/1006/277 221/1007/277 219/1008/277
f 236/1009/278 234/1010/278 233/1011/278 235/1012/278
f 237/1013/279 235/1014/279 219/1015/279 217/1016/279
f 238/1017/280 236/1018/280 235/1019/280 237/1020/280
f 239/1021/281 237/1022/281 217/1023/281 215/1024/281
f 240/1025/282 238/1026/282 237/1027/282 239/1028/282
f 241/1029/283 239/1030/283 215/1031/283 213/1032/283
f 242/1033/284 240/1034/284 239/1035/284 241/1036/284
f 227/1037/285 241/1038/285 213/1039/285 211/1040/285
f 229/1041/286 242/1042/286 241/1043/286 227/1044/286
o cylinder
v 0.16875000052683556 1.0187499982877835 0.06250000000000058
v 0.16875000052683556 1.0187499982877821 -0.06249999999999971
v 0.23750000013863135 1.037171506716221 0.06250000000000035
v 0.23750000013863135 1.0371715067162197 -0.062499999999999924
v 0.21907849248660222 1.0690784923687373 0.06250000000000003
v 0.21907849248660222 1.069078492368736 -0.06250000000000025
v 0.18717150605767735 1.0874999986759875 0.062499999999999854
v 0.18717150605767735 1.0874999986759861 -0.06250000000000043
v 0.15032849209839794 1.0874999978995792 0.06249999999999987
v 0.15032849209839794 1.0874999978995779 -0.06250000000000042
v 0.11842150644588156 1.0690784902475499 0.06250000000000007
v 0.11842150644588156 1.0690784902475485 -0.06250000000000021
v 0.10000000013863133 1.037171503818625 0.06250000000000042
v 0.10000000013863133 1.0371715038186238 -0.06249999999999986
v 0.10000000091503974 1.0003284898593456 0.06250000000000079
v 0.10000000091503974 1.0003284898593443 -0.06249999999999948
v 0.1184215085670689 0.9684215042068294 0.06250000000000111
v 0.1184215085670689 0.968421504206828 -0.06249999999999916
v 0.1503284949959938 0.9499999978995791 0.06250000000000129
v 0.1503284949959938 0.9499999978995778 -0.06249999999999899
v 0.18717150895527312 0.9499999986759876 0.06250000000000128
v 0.18717150895527312 0.9499999986759863 -0.062499999999999
v 0.21907849460778955 0.9684215063280167 0.06250000000000107
v 0.21907849460778955 0.9684215063280154 -0.0624999999999992
v 0.23750000091503978 1.0003284927569416 0.06250000000000072
v 0.23750000091503978 1.0003284927569402 -0.06249999999999954
vt 0.36558359375 0.8296875
vt 0.36957265625 0.82738515625
vt 0.36328125 0.82109375
vt 0.4375 0.4765625
vt 0.4375 0.4609375
vt 0.4296875 0.4609375
vt 0.4296875 0.4765625
vt 0.36957265625 0.85230234375
vt 0.36558359375 0.85
vt 0.36328125 0.85859375
vt 0.36957265625 0.82738515625
vt 0.371875 0.82339609375
vt 0.36328125 0.82109375
vt 0.3671875 0.4765625
vt 0.3671875 0.4609375
vt 0.359375 0.4609375
vt 0.359375 0.4765625
vt 0.371875 0.85629140625
vt 0.36957265625 0.85230234375
vt 0.36328125 0.85859375
vt 0.371875 0.82339609375
vt 0.371875 0.81879140625
vt 0.36328125 0.82109375
vt 0.0859375 0.859375
vt 0.0859375 0.84375
vt 0.078125 0.84375
vt 0.078125 0.859375
vt 0.371875 0.86089609375
vt 0.371875 0.85629140625
vt 0.36328125 0.85859375
vt 0.371875 0.81879140625
vt 0.36957265625 0.81480234375
vt 0.36328125 0.82109375
vt 0.40625 0.4765625
vt 0.40625 0.4609375
vt 0.3984375 0.4609375
vt 0.3984375 0.4765625
vt 0.36957265625 0.86488515625
vt 0.371875 0.86089609375
vt 0.36328125 0.85859375
vt 0.36957265625 0.81480234375
vt 0.36558359375 0.8125
vt 0.36328125 0.82109375
vt 0.53125 0.5546875
vt 0.53125 0.5390625
vt 0.5234375 0.5390625
vt 0.5234375 0.5546875
vt 0.36558359375 0.8671875
vt 0.36957265625 0.86488515625
vt 0.36328125 0.85859375
vt 0.36558359375 0.8125
vt 0.36097890625 0.8125
vt 0.36328125 0.82109375
vt 0.28125 0.9140625
vt 0.28125 0.8984375
vt 0.2734375 0.8984375
vt 0.2734375 0.9140625
vt 0.36097890625 0.8671875
vt 0.36558359375 0.8671875
vt 0.36328125 0.85859375
vt 0.36097890625 0.8125
vt 0.35698984375 0.81480234375
vt 0.36328125 0.82109375
vt 0.5 0.4765625
vt 0.5 0.4609375
vt 0.4921875 0.4609375
vt 0.4921875 0.4765625
vt 0.35698984375 0.86488515625
vt 0.36097890625 0.8671875
vt 0.36328125 0.85859375
vt 0.35698984375 0.81480234375
vt 0.3546875 0.81879140625
vt 0.36328125 0.82109375
vt 0.3359375 0.4765625
vt 0.3359375 0.4609375
vt 0.328125 0.4609375
vt 0.328125 0.4765625
vt 0.3546875 0.86089609375
vt 0.35698984375 0.86488515625
vt 0.36328125 0.85859375
vt 0.3546875 0.81879140625
vt 0.3546875 0.82339609375
vt 0.36328125 0.82109375
vt 0.203125 0.859375
vt 0.203125 0.84375
vt 0.1953125 0.84375
vt 0.1953125 0.859375
vt 0.3546875 0.85629140625
vt 0.3546875 0.86089609375
vt 0.36328125 0.85859375
vt 0.3546875 0.82339609375
vt 0.35698984375 0.82738515625
vt 0.36328125 0.82109375
vt 0.3515625 0.4765625
vt 0.3515625 0.4609375
vt 0.34375 0.4609375
vt 0.34375 0.4765625
vt 0.35698984375 0.85230234375
vt 0.3546875 0.85629140625
vt 0.36328125 0.85859375
vt 0.35698984375 0.82738515625
vt 0.36097890625 0.8296875
vt 0.36328125 0.82109375
vt 0.421875 0.4765625
vt 0.421875 0.4609375
vt 0.4140625 0.4609375
vt 0.4140625 0.4765625
vt 0.36097890625 0.85
vt 0.35698984375 0.85230234375
vt 0.36328125 0.85859375
vt 0.36097890625 0.8296875
vt 0.36558359375 0.8296875
vt 0.36328125 0.82109375
vt 0.09375 0.734375
vt 0.09375 0.71875
vt 0.0859375 0.71875
vt 0.0859375 0.734375
vt 0.36558359375 0.85
vt 0.36097890625 0.85
vt 0.36328125 0.85859375
vn 4.4408899109558276e-16 1.038058528960369e-14 1
vn 0.8660253932477264 0.5000000182501207 -5.329070712713109e-15
vn -4.4408899109558276e-16 -1.038058528960369e-14 -1
vn 4.4408899109558276e-16 1.038058528960369e-14 1
vn 0.4999999817498789 0.8660254143211509 -9.230221006942869e-15
vn -4.4408899109558276e-16 -1.038058528960369e-14 -1
vn 4.4408899109558276e-16 1.038058528960369e-14 1
vn -2.1073424449902227e-8 0.9999999999999998 -1.0658141036401495e-14
vn -4.4408899109558276e-16 -1.038058528960369e-14 -1
vn 4.4408899109558276e-16 1.038058528960369e-14 1
vn -0.5000000182501207 0.8660253932477264 -9.230220782339336e-15
vn -4.4408899109558276e-16 -1.038058528960369e-14 -1
vn 4.4408899109558276e-16 1.038058528960369e-14 1
vn -0.8660254143211507 0.49999998174987914 -5.329070323688387e-15
vn -4.4408899109558276e-16 -1.038058528960369e-14 -1
vn 4.4408899109558276e-16 1.038058528960369e-14 1
vn -0.9999999999999998 -2.1073423363488276e-8 2.246035183278565e-22
vn -4.4408899109558276e-16 -1.038058528960369e-14 -1
vn 4.4408899109558276e-16 1.038058528960369e-14 1
vn -0.8660253932477265 -0.5000000182501205 5.3290707127131075e-15
vn -4.4408899109558276e-16 -1.038058528960369e-14 -1
vn 4.4408899109558276e-16 1.038058528960369e-14 1
vn -0.4999999817498787 -0.866025414321151 9.23022100694287e-15
vn -4.4408899109558276e-16 -1.038058528960369e-14 -1
vn 4.4408899109558276e-16 1.038058528960369e-14 1
vn 2.1073424449902227e-8 -0.9999999999999998 1.0658141036401495e-14
vn -4.4408899109558276e-16 -1.038058528960369e-14 -1
vn 4.4408899109558276e-16 1.038058528960369e-14 1
vn 0.5000000182501203 -0.8660253932477265 9.230220782339339e-15
vn -4.4408899109558276e-16 -1.038058528960369e-14 -1
vn 4.4408899109558276e-16 1.038058528960369e-14 1
vn 0.8660254143211507 -0.499999981749879 5.329070323688386e-15
vn -4.4408899109558276e-16 -1.038058528960369e-14 -1
vn 4.4408899109558276e-16 1.038058528960369e-14 1
vn 0.9999999999999998 2.107342411683532e-8 -2.2460352635713555e-22
vn -4.4408899109558276e-16 -1.038058528960369e-14 -1
usemtl m_5ec4fc5d-6ec2-3614-e281-4cafd1b8b2e4
f 245/1045/287 247/1046/287 243/1047/287
f 248/1048/288 247/1049/288 245/1050/288 246/1051/288
f 248/1052/289 246/1053/289 244/1054/289
f 247/1055/290 249/1056/290 243/1057/290
f 250/1058/291 249/1059/291 247/1060/291 248/1061/291
f 250/1062/292 248/1063/292 244/1064/292
f 249/1065/293 251/1066/293 243/1067/293
f 252/1068/294 251/1069/294 249/1070/294 250/1071/294
f 252/1072/295 250/1073/295 244/1074/295
f 251/1075/296 253/1076/296 243/1077/296
f 254/1078/297 253/1079/297 251/1080/297 252/1081/297
f 254/1082/298 252/1083/298 244/1084/298
f 253/1085/299 255/1086/299 243/1087/299
f 256/1088/300 255/1089/300 253/1090/300 254/1091/300
f 256/1092/301 254/1093/301 244/1094/301
f 255/1095/302 257/1096/302 243/1097/302
f 258/1098/303 257/1099/303 255/1100/303 256/1101/303
f 258/1102/304 256/1103/304 244/1104/304
f 257/1105/305 259/1106/305 243/1107/305
f 260/1108/306 259/1109/306 257/1110/306 258/1111/306
f 260/1112/307 258/1113/307 244/1114/307
f 259/1115/308 261/1116/308 243/1117/308
f 262/1118/309 261/1119/309 259/1120/309 260/1121/309
f 262/1122/310 260/1123/310 244/1124/310
f 261/1125/311 263/1126/311 243/1127/311
f 264/1128/312 263/1129/312 261/1130/312 262/1131/312
f 264/1132/313 262/1133/313 244/1134/313
f 263/1135/314 265/1136/314 243/1137/314
f 266/1138/315 265/1139/315 263/1140/315 264/1141/315
f 266/1142/316 264/1143/316 244/1144/316
f 265/1145/317 267/1146/317 243/1147/317
f 268/1148/318 267/1149/318 265/1150/318 266/1151/318
f 268/1152/319 266/1153/319 244/1154/319
f 267/1155/320 245/1156/320 243/1157/320
f 246/1158/321 245/1159/321 267/1160/321 268/1161/321
f 246/1162/322 268/1163/322 244/1164/322