# Made in Blockbench 5.1.5
mtllib TurboHead.mtl

o sphere
v 0 1.35310353854498 -0.17318228336629438
v 0.02910917866486864 1.244922918171205 0.19720381271379994
v 0.04769324795933341 1.1758575498731023 0.10783450072386935
v 0.055071419095697426 1.1484375 0.004639708054513143
v 0.04769324795933342 1.175857549873102 -0.12803931109180192
v 0.014947956611689298 1.297551328082771 -0.16138859277551074
v 0.07952775507902111 1.2739098280370558 0.19720381271379991
v 0.13030037660287955 1.2233504693993877 0.10783450072386933
v 0.15045791501436426 1.2032775997462044 0.004639708054513119
v 0.13030037660287958 1.2233504693993877 -0.09855508461484304
v 0.04083857693247029 1.3124364980138836 -0.16138859277551074
v 0.10863693374388976 1.324116628679129 0.1972038127137999
v 0.177993624562213 1.3056106190186945 0.10783450072386928
v 0.20552933411006172 1.2982634387987755 0.0046397080545130765
v 0.17799362456221302 1.3056106190186942 -0.09855508461484308
v 0.04110586682201234 1.327716141225951 -0.16138859277551076
v 0.10863693374388976 1.382090448410831 0.1972038127137999
v 0.177993624562213 1.4005964580712655 0.10783450072386924
v 0.20552933411006172 1.4079436382911843 0.004639708054513028
v 0.17799362456221302 1.4005964580712655 -0.09855508461484312
v 0.04110586682201234 1.3562935062735222 -0.16138859277551076
v 0.07952775507902111 1.4322972490529042 0.19720381271379986
v 0.13030037660287958 1.482856607690572 0.10783450072386921
v 0.15045791501436429 1.5029294773437554 0.004639708054512986
v 0.13030037660287958 1.482856607690572 -0.09855508461484315
v 0.04083857693247029 1.3937705790760762 -0.1613885927755108
v 0.029109178664868667 1.461284158918755 0.19720381271379983
v 0.04769324795933347 1.5303495272168577 0.10783450072386919
v 0.05507141909569749 1.5577695770899598 0.004639708054512961
v 0.047693247959333475 1.5303495272168577 -0.09855508461484318
v 0.014947956611689314 1.4086557490071887 -0.1613885927755108
v -0.029109178664868597 1.461284158918755 0.19720381271379983
v -0.04769324795933334 1.5303495272168577 0.10783450072386919
v -0.05507141909569735 1.5577695770899598 0.004639708054512961
v -0.04769324795933335 1.5303495272168577 -0.09855508461484318
v -0.014947956611689277 1.4086557490071887 -0.1613885927755108
v -0.07952775507902111 1.4322972490529042 0.19720381271379986
v -0.13030037660287955 1.4828566076905723 0.10783450072386921
v -0.15045791501436426 1.5029294773437556 0.004639708054512986
v -0.13030037660287958 1.482856607690572 -0.09855508461484315
v -0.04083857693247029 1.3937705790760762 -0.1613885927755108
v -0.10863693374388976 1.382090448410831 0.1972038127137999
v -0.177993624562213 1.4005964580712655 0.10783450072386924
v -0.20552933411006172 1.4079436382911843 0.004639708054513028
v -0.17799362456221302 1.4005964580712655 -0.09855508461484312
v -0.04110586682201234 1.3562935062735222 -0.16138859277551076
v -0.10863693374388976 1.3241166286791293 0.1972038127137999
v -0.17799362456221302 1.3056106190186945 0.10783450072386928
v -0.20552933411006172 1.2982634387987757 0.0046397080545130765
v -0.17799362456221302 1.3056106190186945 -0.09855508461484308
v -0.04110586682201234 1.327716141225951 -0.16138859277551076
v -0.07952775507902111 1.2739098280370558 0.19720381271379991
v -0.1303003766028796 1.2233504693993877 0.10783450072386933
v -0.1504579150143643 1.2032775997462044 0.004639708054513119
v -0.1303003766028796 1.2233504693993877 -0.09855508461484304
v -0.0408385769324703 1.3124364980138836 -0.16138859277551074
v -0.029109178664868632 1.244922918171205 0.19720381271379994
v -0.0476932479593334 1.1758575498731023 0.10783450072386935
v -0.05507141909569742 1.1484375 0.004639708054513143
v -0.047693247959333405 1.175857549873102 -0.12803931109180192
v -0.014947956611689295 1.297551328082771 -0.16138859277551074
v 0.13450687911976303 1.327716141225951 -0.1422238455654875
v 0.13450687911976303 1.388993163251925 -0.14222384556548753
v 0.09846586948319186 1.4511558167089333 -0.14222384556548756
v 0.036041009636571184 1.4870454414158787 -0.14222384556548756
v -0.03604100963657108 1.4870454414158787 -0.14222384556548756
v -0.09846586948319186 1.4511558167089333 -0.14222384556548756
v -0.13450687911976303 1.388993163251925 -0.14222384556548753
v -0.13450687911976303 1.327716141225951 -0.1422238455654875
v -0.09846586948319187 1.2550512603810264 -0.14222384556548745
v 0.09846586948319186 1.2550512603810264 -0.14222384556548745
v 0.03803231239208524 1.3562935062735222 -0.13195228447114532
v 0.13143332468983593 1.327716141225951 -0.13195228447114532
v 0.13143332468983593 1.388993163251925 -0.13195228447114535
v 0.03803231239208524 1.327716141225951 -0.13195228447114532
v -0.03803231239208524 1.327716141225951 -0.13195228447114532
v -0.13143332468983593 1.388993163251925 -0.13195228447114535
v -0.13143332468983593 1.327716141225951 -0.13195228447114532
v -0.03803231239208524 1.3562935062735222 -0.13195228447114532
v -0.051550760145070616 1.3106658587779583 -0.1776815279395665
v -0.15130371116232574 1.3200527410637646 -0.15150433549850248
v -0.11692491179372966 1.2512576105509476 -0.15150433549850245
v -0.05180572263303865 1.325131788354128 -0.17768152793956654
v -0.20991549141377747 1.288829876281658 -0.08692474871974225
v -0.16442185459937275 1.2109504706697334 -0.08692474871974222
v -0.24290726898361298 1.2766584489096815 0.04591762512225558
v -0.19037574206118976 1.1867310573209362 0.04591762512225562
v -0.20857535383734632 1.2300556512974168 0.25282725590719446
v -0.19037574206118968 1.5239005229281868 0.045917625122255466
v -0.24290726898361298 1.4339731313394415 0.04591762512225551
v -0.19389468711519897 1.4659569261984935 0.25282725590719435
v -0.16487022888930397 1.5013144514227128 -0.08575674336935127
v -0.2103638657037087 1.4234350458107883 -0.08575674336935123
v -0.11595810372412686 1.4607191690158683 -0.15067506685090148
v -0.150336903092723 1.4018669723581123 -0.15067506685090146
v -0.04897535791397061 1.3639081958988846 -0.17768152793956654
v -0.04872039542600258 1.3993894364199047 -0.17878859201333994
v -0.01425855730751486 1.4195707248468128 -0.17863282355748158
v 0.014258557307514895 1.4195707248468128 -0.17863282355748158
v 0 1.3650072001494307 -0.17768152793956654
v 0.03437879936859612 1.508513470791259 -0.1503709932069726
v -0.03437879936859602 1.508513470791259 -0.1503709932069726
v 0.04549363681440478 1.5694337071089395 -0.0857567433693513
v -0.045493636814404645 1.5694337071089395 -0.0857567433693513
v 0.05253152692242333 1.6025578641430667 0.04591762512225543
v -0.05253152692242317 1.6025578641430667 0.04591762512225543
v 7.171478253181536e-17 1.591217065025638 0.2528272559071943
v 0.24290726898361298 1.4339731313394415 0.04591762512225551
v 0.1903757420611897 1.5239005229281868 0.045917625122255466
v 0.193894687115199 1.4659569261984935 0.25282725590719435
v 0.2103638657037087 1.4234350458107883 -0.08575674336935123
v 0.16487022888930397 1.5013144514227128 -0.08575674336935127
v 0.15142616466018702 1.4024885321290321 -0.15037099320697253
v 0.1170473652915909 1.4613407287867881 -0.15037099320697256
v 0.05089891856093066 1.4006325559617443 -0.1781804447254822
v 0.051153881048898696 1.3651513154407242 -0.17768152793956654
v 0.05087507606866454 1.3255860859874502 -0.17768152793956654
v 0.1176871282883669 1.250885532510961 -0.15026645332248467
v 0.15206592765696303 1.3196806630237776 -0.1502664533224847
v 0.0506201135806965 1.3111201564112804 -0.1776815279395665
v 0.16564939437619708 1.2103512438130852 -0.08555087179997276
v 0.2111430311906018 1.2882306494250098 -0.0855508717999728
v 0.19037574206118968 1.1867310573209362 0.04591762512225562
v 0.24290726898361298 1.2766584489096815 0.04591762512225558
v 0.20857535383734624 1.2300556512974168 0.25282725590719446
v -0.2067739642920863 1.393846213592373 -0.08280832072165528
v -0.14558290601405147 1.3840028808792793 -0.13969449880984428
v -0.14558290601405147 1.3320202220862027 -0.13969449880984425
v -0.2067739642920863 1.3132676166176225 -0.08280832072165525
v -0.23876200789088414 1.4000789897592925 0.048866047769951404
v -0.23876200789088414 1.3070348404507033 0.048866047769951446
v -0.20677396429208628 1.3938462135923733 0.1805404162615582
v -0.2067739642920863 1.3132676166176227 0.18054041626155826
v -0.13430055171988906 1.3613782488439292 0.34301223090200517
v -0.06578285806831846 1.5398557729182574 -0.08280832072165535
v -0.045554781254031604 1.4876603716319334 -0.1474225705592767
v -0.10238842778679469 1.457214405857652 -0.1474225705592767
v -0.14099110622376773 1.499566474430882 -0.08280832072165534
v -0.07595950162761321 1.5686763065214082 0.04886604776995133
v -0.1628025062632708 1.5221542318671137 0.04886604776995135
v -0.06578285806831845 1.5398557729182576 0.18054041626155815
v -0.1409911062237677 1.4995664744308823 0.18054041626155817
v -0.06568220918772978 1.4639761569466199 0.34301223090200517
v 0.1409911062237678 1.499566474430882 0.18054041626155817
v 0.0657828580683186 1.5398557729182576 0.18054041626155815
v 0.06568220918772982 1.4639761569466199 0.34301223090200517
v 0.16280250626327084 1.5221542318671137 0.04886604776995135
v 0.07595950162761338 1.5686763065214082 0.04886604776995133
v 0.1409911062237678 1.499566474430882 -0.08280832072165534
v 0.06578285806831861 1.5398557729182574 -0.08280832072165535
v 0.10238842778679473 1.457214405857652 -0.1474225705592767
v 0.045554781254031715 1.4876603716319334 -0.1474225705592767
v -0.04376246253943407 1.398633146995446 -0.17523202207778624
v -0.020190789852612735 1.4112605672587546 -0.17523202207778624
v 0.020190789852612783 1.4112605672587546 -0.17523202207778624
v 0.04376246253943408 1.398633146995446 -0.17523202207778624
v 0.2067739642920863 1.3132676166176225 -0.08280832072165525
v 0.14558290601405147 1.3320202220862027 -0.13969449880984425
v 0.14558290601405147 1.3840028808792793 -0.13969449880984428
v 0.2067739642920863 1.3938462135923733 -0.08280832072165528
v 0.23876200789088414 1.3070348404507033 0.048866047769951446
v 0.23876200789088414 1.4000789897592925 0.048866047769951404
v 0.20677396429208628 1.3132676166176227 0.18054041626155826
v 0.20677396429208628 1.3938462135923733 0.1805404162615582
v 0.13430055171988906 1.3613782488439292 0.3430122309020052
v 0.02535409461710061 1.4473288588905382 0.19720381271379983
v -0.025354094617100545 1.4473288588905382 0.19720381271379983
v -0.06926867467382739 1.422081260397382 0.19720381271379986
v -0.09462276929092797 1.378351137038136 0.1972038127137999
v -0.09462276929092797 1.327855940051824 0.1972038127137999
v -0.0692686746738274 1.284125816692578 0.19720381271379991
v -0.025354094617100576 1.2588782181994218 0.19720381271379991
v 0.025354094617100583 1.2588782181994218 0.19720381271379991
v 0.06926867467382739 1.284125816692578 0.19720381271379991
v 0.09462276929092797 1.327855940051824 0.1972038127137999
v 0.09462276929092797 1.3783511370381363 0.1972038127137999
v 0.06926867467382739 1.422081260397382 0.19720381271379986
v 0.01748674903200097 1.4180908533841123 0.09106059739674777
v -0.017486749032000926 1.4180908533841123 0.09106059739674777
v 0 1.35310353854498 0.0910605973967478
v -0.04777468681463249 1.4006775548546997 0.09106059739674777
v -0.06526143584663345 1.3705168370743925 0.09106059739674778
v -0.06526143584663345 1.3356902400155675 0.09106059739674781
v -0.0477746868146325 1.3055295222352603 0.09106059739674781
v -0.017486749032000946 1.2881162237058477 0.09106059739674782
v 0.01748674903200095 1.2881162237058477 0.09106059739674782
v 0.04777468681463249 1.3055295222352603 0.09106059739674781
v 0.06526143584663345 1.3356902400155672 0.09106059739674781
v 0.06526143584663345 1.3705168370743925 0.09106059739674778
v 0.04777468681463249 1.4006775548546997 0.09106059739674777
v 0.03455096416295208 1.3136285377210466 -0.15638433081690914
v 0.03126276459363972 1.2120085599718333 -0.15483955011106765
v 0.08890937939732903 1.2611624981242013 -0.1404004918531118
v 0.011804150226930194 1.2986982075103222 -0.15595112877165854
v -0.03159009043974175 1.2115436506653536 -0.15461743712631643
v -0.012303697405132414 1.2980448398864883 -0.15580779087554755
v -0.08956403108953313 1.2602326795112422 -0.13995626588360935
v -0.03555005851935653 1.3123218024733787 -0.15609765502468717
v -0.1177852182286759 1.2338280032003244 -0.08162032711573501
v -0.041435668772231544 1.1893660735583558 -0.11123253375028891
v 0.04128056425822968 1.1896425245474809 -0.11153342182368037
v 0.11747500920067212 1.2343809051785746 -0.0822221032625179
vt 0.2014046875 0.640003125
vt 0.20519062500000002 0.6421796875
vt 0.19921875 0.6481265625
vt 0.154440625 0.59375
vt 0.1521515625 0.578125
vt 0.1640625 0.578125
vt 0.1617109375 0.59375
vt 0.1512171875 0.6171875
vt 0.15030859375 0.6015625
vt 0.1640625 0.6015625
vt 0.163128125 0.6171875
vt 0.1269171643215681 0.6263356336518442
vt 0.1269171643215681 0.609375
vt 0.1390275375238777 0.6123408334460465
vt 0.140625 0.6255985447188509
vt 0.45972147684628284 0.78125
vt 0.4652252309404683 0.789179582400882
vt 0.4566497690595317 0.7935836337875594
vt 0.4566497690595317 0.7825023873952781
vt 0.48949982299918593 0.9193363755537411
vt 0.48624375 0.92116171875
vt 0.484375027175787 0.9140626032384518
vt 0.20519062500000002 0.6421796875
vt 0.2073765625 0.64594921875
vt 0.19921875 0.6481265625
vt 0.4044609375 0.59375
vt 0.4021765625 0.578125
vt 0.4140625 0.578125
vt 0.41171484375 0.59375
vt 0.2843328332662429 0.6719432444932654
vt 0.296875 0.668455901091962
vt 0.296875 0.6953125
vt 0.40104453125 0.953125
vt 0.40203515625 0.9375
vt 0.41330859375 0.9375
vt 0.4140625 0.953125
vt 0.45562462721418545 0.7421875
vt 0.46875 0.7421875
vt 0.4650924792555933 0.75
vt 0.45569512470033174 0.742903435936784
vt 0.46971659923799186 0.5172725384100311
vt 0.46875 0.515625
vt 0.47593255427572534 0.517200800156087
vt 0.2073765625 0.64594921875
vt 0.2073765625 0.650303125
vt 0.19921875 0.6481265625
vt 0.174651171875 0.7433867187500001
vt 0.184723046875 0.7433867187500001
vt 0.180665234375 0.765625
vt 0.174651171875 0.7433867187500001
vt 0.173872265625 0.7264484375
vt 0.185502734375 0.7264484375
vt 0.184723046875 0.7433867187500001
vt 0.416059765625 0.6875
vt 0.416838671875 0.671875
vt 0.426910546875 0.671875
vt 0.427690234375 0.6875
vt 0.328125 0.5197125
vt 0.3359375 0.515625
vt 0.3359375 0.523284375
vt 0.328125 0.523284375
vt 0.4715751619425386 0.5203227901519194
vt 0.46971659923799186 0.5172725384100311
vt 0.47593321218103884 0.5172007925632106
vt 0.2073765625 0.650303125
vt 0.20519062500000002 0.65407265625
vt 0.19921875 0.6481265625
vt 0.221096875 0.5859375
vt 0.21875 0.5703125
vt 0.23063515625 0.5703125
vt 0.2283515625 0.5859375
vt 0.296875 0.796875
vt 0.3000436270670724 0.7842485470980249
vt 0.323752884531337 0.796875
vt 0.3984375 0.9140625
vt 0.3993515625 0.8984375
vt 0.41062578125 0.8984375
vt 0.41145546875 0.9140625
vt 0.4494521774538021 0.9857938600925642
vt 0.45371340998673126 0.9967423797795111
vt 0.4453125 0.9981591098577425
vt 0.4453125 0.984375
vt 0.4740403639277825 0.5243069422899362
vt 0.4715751619425386 0.5203227901519194
vt 0.47593236268717043 0.5172014011192537
vt 0.20519062500000002 0.65407265625
vt 0.2014046875 0.65625
vt 0.19921875 0.6481265625
vt 0.22763203125 0.97803515625
vt 0.23829765625 0.97803515625
vt 0.2338296875 1
vt 0.22763203125 0.97803515625
vt 0.2265625 0.9611484375
vt 0.23887734375 0.9611484375
vt 0.23829765625 0.97803515625
vt 0.3046875 0.6015625
vt 0.30575703125 0.5859375
vt 0.31642265625 0.5859375
vt 0.31700234375 0.6015625
vt 0.48290703125 0.796875
vt 0.484621875 0.8046875
vt 0.4765625 0.8046875
vt 0.4795640625 0.796875
vt 0.47777395767778247 0.5243069422899362
vt 0.4740403639277825 0.5243069422899362
vt 0.47593255142778246 0.5172006922899361
vt 0.2014046875 0.65625
vt 0.1970328125 0.65625
vt 0.19921875 0.6481265625
vt 0.01979921875 0.59375
vt 0.01747578125 0.578125
vt 0.02939921875 0.578125
vt 0.02707578125 0.59375
vt 0.2991391513856417 0.953125
vt 0.3023663184829249 0.9403948720868025
vt 0.3258608486143583 0.953125
vt 0.21999609375 0.609375
vt 0.22087578125000001 0.59375
vt 0.23224921874999999 0.59375
vt 0.23312890625 0.609375
vt 0.48615703125 0.8515625
vt 0.48867265625 0.859375
vt 0.48007734375 0.859375
vt 0.48259296875 0.8515625
vt 0.49431171875 0.9921875
vt 0.49787578125 0.9921875
vt 0.49609375 0.999009375
vt 0.19703281250000002 0.65625
vt 0.193246875 0.65407265625
vt 0.19921875 0.6481265625
vt 0.22263984375 0.76709765625
vt 0.23330546875 0.76709765625
vt 0.2271078125 0.7890625
vt 0.22263984375 0.76709765625
vt 0.22206015625 0.7502109375
vt 0.234375 0.7502109375
vt 0.23330546875 0.76709765625
vt 0.37831740515597434 0.6110133436403269
vt 0.37831740515597434 0.5941158972697165
vt 0.38897675203224397 0.59375
vt 0.390625 0.6105908679105774
vt 0.2001234375 0.515625
vt 0.203125 0.5234375
vt 0.195065625 0.5234375
vt 0.19678046875 0.515625
vt 0.03377213607221754 0.5164944422899362
vt 0.03003854232221754 0.5164944422899362
vt 0.031879948572217535 0.5093881922899361
vt 0.193246875 0.65407265625
vt 0.1910609375 0.650303125
vt 0.19921875 0.6481265625
vt 0.2013359375 0.5859375
vt 0.19905234375 0.5703125
vt 0.2109375 0.5703125
vt 0.208590625 0.5859375
vt 0.307686047098025 0.7497282425357354
vt 0.3203125 0.7465596154686631
vt 0.3203125 0.7734375
vt 0.07291953125 0.6015625
vt 0.07374921875 0.5859375
vt 0.0850234375 0.5859375
vt 0.0859375 0.6015625
vt 0.13449364019733814 0.5390625
vt 0.1484375 0.5390625
vt 0.14703604623603164 0.546875
vt 0.13594006021761584 0.5426119604141451
vt 0.0362373380574614 0.5125102901519194
vt 0.03377213607221754 0.5164944422899362
vt 0.03188013731282958 0.5093889011192537
vt 0.1910609375 0.650303125
vt 0.1910609375 0.64594921875
vt 0.19921875 0.6481265625
vt 0.049651953125 0.7355742187500001
vt 0.059723828125 0.7355742187500001
vt 0.053709765625 0.7578125
vt 0.049651953125 0.7355742187500001
vt 0.048872265625 0.7186359375
vt 0.060502734375 0.7186359375
vt 0.059723828125 0.7355742187500001
vt 0.376997265625 0.5859375
vt 0.377776953125 0.5703125
vt 0.387848828125 0.5703125
vt 0.388627734375 0.5859375
vt 0.3515625 0.523284375
vt 0.34375 0.523284375
vt 0.34375 0.515625
vt 0.3515625 0.5197125
vt 0.03809590076200815 0.5094600384100311
vt 0.0362373380574614 0.5125102901519194
vt 0.03187928781896117 0.5093882925632106
vt 0.1910609375 0.64594921875
vt 0.193246875 0.6421796875
vt 0.19921875 0.6481265625
vt 0.40859765625 0.6640625
vt 0.40625 0.6484375
vt 0.4181359375 0.6484375
vt 0.4158515625 0.6640625
vt 0.3046875 0.6953125
vt 0.3081748434013034 0.6827703332662429
vt 0.331544098908038 0.6953125
vt 0.125 0.6015625
vt 0.12576640625 0.5859375
vt 0.137040625 0.5859375
vt 0.13801796875 0.6015625
vt 0.24398012389624923 0.5391169688144949
vt 0.2510486474926847 0.5482093416253553
vt 0.2421875 0.5519369737832391
vt 0.2421875 0.5390625
vt 0.0390625 0.5078125
vt 0.03809590076200815 0.5094600384100311
vt 0.031879945724274675 0.509388300156087
vt 0.193246875 0.6421796875
vt 0.1970328125 0.640003125
vt 0.19921875 0.6481265625
vt 0.4086015625 0.8671875
vt 0.40625 0.8515625
vt 0.4181609375 0.8515625
vt 0.415871875 0.8671875
vt 0.383746875 0.6640625
vt 0.3828125 0.6484375
vt 0.39656640625 0.6484375
vt 0.3956578125 0.6640625
vt 0.36000827842769373 0.8125
vt 0.3467220744754012 0.8109159413478418
vt 0.34375 0.796875
vt 0.3606741844172319 0.796875
vt 0.41040669127382373 0.7119583425928132
vt 0.41071762614630086 0.7230332490054663
vt 0.40199174885369915 0.7189385835340156
vt 0.4072352118064416 0.7109375
vt 0.48250625 0.92116171875
vt 0.47925017700081407 0.9193363755537411
vt 0.484374972824213 0.9140626032384518
vt 0.1970328125 0.640003125
vt 0.2014046875 0.640003125
vt 0.19921875 0.6481265625
vt 0.40261171875 0.6171875
vt 0.40028828125 0.6015625
vt 0.41221171875 0.6015625
vt 0.40988828125 0.6171875
vt 0.37685078125 0.640625
vt 0.37592890625 0.625
vt 0.38969609375 0.625
vt 0.38877421875 0.640625
vt 0.31342890625 0.625
vt 0.31435078125 0.609375
vt 0.32627421875 0.609375
vt 0.32719609375 0.625
vt 0.4133082511463009 0.7111410615054663
vt 0.41832075114630085 0.7210527802554663
vt 0.41071762614630086 0.7230332490054663
vt 0.41040668864630087 0.7119582490054662
vt 0.48624375 0.92116171875
vt 0.48250625 0.92116171875
vt 0.484375 0.9140625
vt 0.4715265625 0.546875
vt 0.4738703125 0.5390625
vt 0.48036796875 0.5390625
vt 0.4815984375 0.546875
vt 0.3671875 0.5390625
vt 0.36864296875 0.53125
vt 0.3771625 0.53125
vt 0.37846171875 0.5390625
vt 0.46875 0.9375
vt 0.47050390625 0.9296875
vt 0.47856328125 0.9296875
vt 0.479415625 0.9375
vt 0.19743828125000001 0.5390625
vt 0.19882734375 0.53125
vt 0.20742265625 0.53125
vt 0.20881171874999999 0.5390625
vt 0.2472916810788077 0.5744712343864691
vt 0.2463830841820371 0.5638235412599977
vt 0.254333037887796 0.5625
vt 0.2578125 0.5727196848244791
vt 0.34810078125 0.5390625
vt 0.3493984375 0.53125
vt 0.35791796875 0.53125
vt 0.359375 0.5390625
vt 0.4480890625 0.53125
vt 0.44931953125 0.5234375
vt 0.4558171875 0.5234375
vt 0.4581609375 0.53125
vt 0.16001686612991847 0.5659453906486149
vt 0.1484375 0.5659453906486149
vt 0.1486171621785827 0.5563337883944022
vt 0.15969986522378252 0.5546875
vt 0.4616507873663944 0.644406312124068
vt 0.453125 0.6424517056352337
vt 0.453125 0.6328125
vt 0.45929862253598497 0.6330181407145751
vt 0.4835011542211699 0.8228398551851286
vt 0.4774186584560162 0.8215695594909389
vt 0.4774186584560162 0.8137124660954156
vt 0.4835188415439838 0.8125
vt 0.30900911434632017 0.5374697392429265
vt 0.30900911434632017 0.53125
vt 0.3186461758732632 0.5315109336806154
vt 0.3203125 0.5400635822825841
vt 0.07447187499999999 0.5385578125
vt 0.07632421875 0.53125
vt 0.0859375 0.53125
vt 0.085721875 0.5390625
vt 0.46863872136183976 0.6226497035440774
vt 0.45649373318082725 0.625
vt 0.4561509785138993 0.6171875
vt 0.46875 0.6171875
vt 0.3203125 0.5234375
vt 0.3125 0.5234375
vt 0.3125 0.515625
vt 0.3203125 0.515625
vt 0.14778567359563405 0.53125
vt 0.13611067359563406 0.53125
vt 0.13572629859563407 0.529965625
vt 0.14740129859563406 0.5275703125
vt 0.390625 0.8359375
vt 0.3828125 0.8359375
vt 0.3828125 0.828125
vt 0.390625 0.828125
vt 0.46677819399827775 0.5757785628428003
vt 0.455341417456467 0.578125
vt 0.454978407221467 0.5703125
vt 0.466896592778533 0.5703125
vt 0.1171875 0.59375
vt 0.109375 0.59375
vt 0.109375 0.5859375
vt 0.1171875 0.5859375
vt 0.12867658381837507 0.5033664128678202
vt 0.12633590148678497 0.5155132576256262
vt 0.125 0.515625
vt 0.125 0.5030279042033584
vt 0.4140625 0.9296875
vt 0.40625 0.9296875
vt 0.40625 0.921875
vt 0.4140625 0.921875
vt 0.4794751405535143 0.8393625
vt 0.4904712343035143 0.8359375
vt 0.4916735780535143 0.83806875
vt 0.4816032655535143 0.8407687500000001
vt 0.158999350910438 0.5390625
vt 0.171875 0.5390625
vt 0.1700940730696016 0.5465698699890068
vt 0.15820841659297005 0.546875
vt 0.49503984375 0.765625
vt 0.4968484375 0.765625
vt 0.49714765625 0.7734375
vt 0.4952375 0.7734375
vt 0.10450256989609634 0.7175063081759434
vt 0.11280335114609634 0.7255789644259434
vt 0.10829475739609634 0.7241250581759433
vt 0.10219788239609634 0.7186672456759433
vt 0.09985988971985212 0.6805038010633289
vt 0.1070259396655163 0.671875
vt 0.109375 0.6730467047868194
vt 0.10436979527660539 0.6790486670223643
vt 0.11280335114609634 0.7255789644259434
vt 0.1171875 0.7421875
vt 0.11176834255286278 0.7370511645205104
vt 0.10830764097698384 0.7241292128014903
vt 0.09584270221985211 0.6972155198133287
vt 0.09985988971985212 0.6805038010633289
vt 0.10439504596985211 0.6790405198133288
vt 0.10122629596985211 0.6920397385633288
vt 0.36376861472018523 0.9921875
vt 0.390625 0.9921875
vt 0.3717338679937664 1
vt 0.3589605801281134 0.9966193576480923
vt 0.375 0.8359375
vt 0.3484774163659165 0.8359375
vt 0.3434405428512195 0.8304219415242441
vt 0.3563153940934204 0.8275100772104043
vt 0.08164814055146133 0.6328125
vt 0.0703125 0.6155957246625707
vt 0.08164814055146133 0.6120209850158312
vt 0.0390625 0.6059496785292728
vt 0.0390625 0.6328125
vt 0.03125 0.6146624115369965
vt 0.03344027251021185 0.6016068821736956
vt 0.3906374600593033 0.9296875
vt 0.3637591962108907 0.9296875
vt 0.359375 0.9233772437097476
vt 0.3724350785422087 0.9218294114744693
vt 0.3984375 0.859375
vt 0.37845762630712587 0.859375
vt 0.3820690554350729 0.8480518149913229
vt 0.29919680911222757 0.8599448471675881
vt 0.30324680911222757 0.876456565917588
vt 0.29762493411222757 0.8712807846675881
vt 0.2943132153622276 0.8583190659175881
vt 0.1953125 0.7124650887566961
vt 0.19936015625 0.695947901256696
vt 0.20431015624999999 0.694342432506696
vt 0.201003125 0.7073072762566961
vt 0.2915335260395957 0.8515625
vt 0.29919680911222757 0.8599448471675881
vt 0.2943072341826368 0.8583170747426195
vt 0.2890625 0.8525269828723487
vt 0.19936015625 0.695947901256696
vt 0.20697989607890743 0.6875
vt 0.20953393648136473 0.6885475272853876
vt 0.2042870794168157 0.6943499171803378
vt 0.484375 0.6865438183578871
vt 0.484375 0.6726000259862572
vt 0.4867201959424971 0.671875
vt 0.48613063692888986 0.6844544501972145
vt 0.4536313631994906 0.6015625
vt 0.4655373176382844 0.6015625
vt 0.46353603902761115 0.6088489423011957
vt 0.453125 0.609375
vt 0.2839717737253847 0.5044377719161848
vt 0.2839717737253847 0.5
vt 0.2863407262746153 0.5007630232267066
vt 0.2862080253392141 0.5054456027100676
vt 0.196075 0.500121875
vt 0.203125 0.5
vt 0.201828125 0.50219921875
vt 0.19463671875 0.50074765625
vt 0.4921875 0.78125
vt 0.4992359375 0.7813953124999999
vt 0.50067109375 0.7820812500000001
vt 0.49348046875 0.78327109375
vt 0.40625 0.5125479311233381
vt 0.40625 0.5006146396480338
vt 0.4087273315717413 0.5
vt 0.408086294108986 0.5103933987979815
vt 0.39431632492867313 0.5390625
vt 0.40625 0.5390625
vt 0.4040955458292099 0.5463970522545141
vt 0.39370158402780103 0.546875
vt 0.16673510360392044 0.6796875
vt 0.1741152058567083 0.6880954038316284
vt 0.16923172190489183 0.686465229147088
vt 0.1640625 0.6806151214757583
vt 0.12261734708269864 0.6879908551072895
vt 0.13011436558300196 0.6796875
vt 0.1328125 0.6806875331971238
vt 0.1274848834829271 0.6863950307333404
vt 0.1741152058567083 0.6880954038316284
vt 0.17809645585670833 0.7046172788316284
vt 0.1725066121067083 0.6994375913316284
vt 0.16923786210670833 0.6864672788316284
vt 0.11856109708269864 0.7044939801072895
vt 0.12261734708269864 0.6879908551072895
vt 0.12750953458269865 0.6863869488572895
vt 0.12416656583269864 0.6993385113572894
vt 0.2890625 0.6295278373775675
vt 0.2890625 0.65625
vt 0.28125 0.6376461515806029
vt 0.2843107701822348 0.6247527105017274
vt 0.3752468529356051 0.703125
vt 0.3485250606997192 0.703125
vt 0.34375 0.6971861153319727
vt 0.35664309739708233 0.6948448218364867
vt 0.3807050848839812 0.890625
vt 0.3692949151160188 0.8735452376953636
vt 0.3807050848839812 0.8700845459028628
vt 0.0078125 0.6215584928496117
vt 0.0078125 0.6484375
vt 0 0.630234722360389
vt 0.002219194728541183 0.6171747449545961
vt 0.390625 0.71875
vt 0.3637621378699811 0.71875
vt 0.3594198188670902 0.7124625841691158
vt 0.3724751137560892 0.7109852094850972
vt 0.3863231850086771 0.8203125
vt 0.375 0.803944055435073
vt 0.3863231850086771 0.8003326263071259
vt 0.152284375 0.6881928366561191
vt 0.15625 0.704729555406119
vt 0.15057890625 0.699545961656119
vt 0.14734921875 0.686561586656119
vt 0.17011206006562682 0.8872348811160796
vt 0.174716562115112 0.8708689073555248
vt 0.17965932501809978 0.8694107779395823
vt 0.17589740036047222 0.8822492639215356
vt 0.1449349106954848 0.6796875
vt 0.152284375 0.6881928366561191
vt 0.1473432311893435 0.686559607547895
vt 0.14224849366411313 0.6806242754796008
vt 0.174716562115112 0.8708689073555248
vt 0.18258125 0.86286328125
vt 0.1852067276076501 0.8639410505063851
vt 0.17963382034339817 0.8694183018927146
vt 0.18258125 0.86286328125
vt 0.19380078125 0.859375
vt 0.1953125 0.86148125
vt 0.18516953125 0.86392578125
vt 0.06432152939361807 0.546875
vt 0.078125 0.546875
vt 0.07588614814436873 0.5541454907401505
vt 0.06331001248994887 0.5546875
vt 0.4855001966688079 0.9609375
vt 0.4899359608677166 0.9609375
vt 0.4910623033311921 0.9686943185581969
vt 0.4863782081962393 0.96875
vt 0.13346432640436592 0.5288818328321208
vt 0.14615290738788436 0.5255233614925152
vt 0.14737907963372024 0.5275748710744933
vt 0.13572629859563407 0.529965625
vt 0.47851077236902756 0.8984375
vt 0.48950686611902755 0.90265703125
vt 0.4871568661190276 0.90389453125
vt 0.47736389736902757 0.90035703125
vt 0.49531171875 0.75
vt 0.4971203125 0.75
vt 0.49697734375 0.7578125
vt 0.4950671875 0.7578125
vt 0.4539156308648325 0.5859375
vt 0.46518720609649933 0.5859375
vt 0.46094029179404994 0.59375
vt 0.453125 0.5936353149947995
vt 0.27759985237557744 0.7882375928606297
vt 0.28595766487557744 0.7801399366106296
vt 0.2883717273755774 0.7811461866106296
vt 0.2822748523755774 0.7866063428606297
vt 0.4245346428898318 0.7421875
vt 0.44151532944309907 0.7421875
vt 0.4352539213734682 0.7498652236490247
vt 0.421875 0.75
vt 0.2734375 0.8046875
vt 0.27759985237557744 0.7882375928606297
vt 0.2822761829457879 0.7866058785841258
vt 0.2788263554634608 0.7995315612686772
vt 0.11441243855241219 0.640625
vt 0.14093445665922313 0.640625
vt 0.1222501309267342 0.6484375
vt 0.109375 0.6450693939468779
vt 0.36760245439773026 0.65625
vt 0.3407462110793549 0.65625
vt 0.3359375 0.6505382450117911
vt 0.3487110269027178 0.6481889796331972
vt 0.390625 0.953125
vt 0.36983348501583124 0.953125
vt 0.3734082246625708 0.9417893594485387
vt 0.4660463778790426 0.9609375
vt 0.4765625 0.9609375
vt 0.4727134669258402 0.96875
vt 0.46489856084462544 0.9681413225968949
vt 0.3665734375 0.5234375
vt 0.36007578125 0.5234375
vt 0.3594515625 0.515625
vt 0.3671109375 0.515625
vt 0.4921875 0.9492851687590398
vt 0.4921875 0.9385817139283554
vt 0.4932531834004592 0.9375
vt 0.4942039652322702 0.945616369409093
vt 0.42835672075789405 0.7890625
vt 0.4453125 0.7890625
vt 0.4390114798139103 0.7967324268436545
vt 0.4256360690919173 0.796875
vt 0.171875 0.5196713986533068
vt 0.171875 0.5027155800128931
vt 0.1750937471857119 0.5
vt 0.17491400687900066 0.5133753580811177
vt 0.19171863037099804 0.9081136601222927
vt 0.18778503662099805 0.9246074101222926
vt 0.18413659912099803 0.9155003788722926
vt 0.18750534912099803 0.9025527226222927
vt 0.45889358865506413 0.6796875
vt 0.44193758405731337 0.6796875
vt 0.4375 0.674272097944406
vt 0.450875869079294 0.6740261028618998
vt 0.18778503662099805 0.9246074101222926
vt 0.1787127791324087 0.9453125
vt 0.17546886962900196 0.926909582077894
vt 0.1841377989137036 0.9155033737295879
vt 0.1484375 0.671875
vt 0.12540059081994043 0.671875
vt 0.11855350021371044 0.664834851654187
vt 0.13241535679172303 0.6616585289053547
vt 0.45094795459545434 0.96875
vt 0.43186454540454566 0.96875
vt 0.43363314690060334 0.9617230573232783
vt 0.2463830841820371 0.5638235412599977
vt 0.24729167793203713 0.5744711975099976
vt 0.24537683418203712 0.5718766662599977
vt 0.24524636543203712 0.5640844787599977
vt 0.08192343724899319 0.8576681499767839
vt 0.08899748877745833 0.8495130217432229
vt 0.0899017445453727 0.8501594533903115
vt 0.0843848543821436 0.855706664610501
vt 0.426315443166115 0.6171875
vt 0.4432130225515452 0.6171875
vt 0.4373404757625604 0.625
vt 0.4239744774484548 0.6249561738392594
vt 0.078125 0.87415703125
vt 0.08192343724899319 0.8576681499767839
vt 0.08439965935603015 0.8556948666347596
vt 0.0809742007891901 0.8686288477511055
vt 0.2734375 0.5846650798170878
vt 0.2734375 0.6015625
vt 0.265625 0.5931330866810866
vt 0.26599880006210974 0.5797677043255145
vt 0.08201484375 0.890625
vt 0.078125 0.87415703125
vt 0.08097578125 0.86862578125
vt 0.0844890625 0.8815359375
vt 0.1171875 0.6103980689485468
vt 0.1171875 0.6328125
vt 0.109375 0.6164440048216221
vt 0.11321063284005183 0.6026673047750454
vt 0.3658888215575958 0.6796875
vt 0.3430665986590211 0.6796875
vt 0.3359375 0.6735291859194398
vt 0.34972758508095275 0.6705305405965339
vt 0.1015625 0.5703125
vt 0.09444274912589949 0.5529871029633923
vt 0.1015625 0.5515190320913048
vt 0.11328515625 0.7839484710424243
vt 0.10375952017705979 0.8046875
vt 0.10189850604201184 0.7860490941526178
vt 0.11085021994070755 0.7749851939481733
vt 0.3671875 0.859375
vt 0.3447726407290232 0.859375
vt 0.3370428464763975 0.8539557741813791
vt 0.3508187211160235 0.8501765080652927
vt 0.4484809679086952 0.8671875
vt 0.4296875 0.8671875
vt 0.43115557087208745 0.8600677491258995
vt 0.1171875 0.7674844085424242
vt 0.11328515625 0.7839484710424243
vt 0.110815625 0.7748578460424242
vt 0.11434375 0.7619508147924242
vt 0.484375 0.984375
vt 0.467478669261297 0.984375
vt 0.46258048502104604 0.9804699631557433
vt 0.47594629588869464 0.980154194513225
vt 0.2877663310793373 0.5703125
vt 0.3046875 0.5703125
vt 0.2986607075601305 0.5777147017958819
vt 0.2852881871137533 0.578125
vt 0.14621961332339853 0.5114253917708876
vt 0.14621961332339853 0.4945285035321225
vt 0.1484375 0.4921875
vt 0.14831980131921477 0.5055524531318241
vt 0.473579526338001 0.9453125
vt 0.484375 0.9453125
vt 0.48128128007230153 0.952847316075603
vt 0.4734749349319281 0.953125
vt 0.27199134191652796 0.5028730549788056
vt 0.27199134191652796 0.4921875
vt 0.27333916373295775 0.4923497703713611
vt 0.2734375 0.5001250787453495
vt 0.08899748877745833 0.8495130217432229
vt 0.09928097187164932 0.8458171773724976
vt 0.10000859842751147 0.8475396631635225
vt 0.08989806882288885 0.8501568257008636
vt 0.109375 0.5234375
vt 0.12002088563631252 0.5234375
vt 0.11981024150930032 0.5311395438133721
vt 0.10945304184765306 0.53125
vt 0.48842109375 0.65625
vt 0.4917640625 0.65625
vt 0.4921875 0.66402578125
vt 0.48845625 0.6640625
vt 0.07624771726869836 0.5028339362114234
vt 0.07624771726869836 0.4921875
vt 0.078125 0.49226543868958883
vt 0.0772841257134928 0.5026228786844327
vt 0.004698184096630306 0.5234375
vt 0.015625 0.5234375
vt 0.01499596567326291 0.5303115009899599
vt 0.004595817974926305 0.53125
vt 0.4222984375 0.5078125
vt 0.42564140625 0.5078125
vt 0.42560625 0.515625
vt 0.421875 0.5155828124999999
vt 0.4502343694114978 0.5390625
vt 0.4609375 0.5390625
vt 0.4572689177457961 0.546875
vt 0.4491525765228752 0.5458476727535593
vt 0.48367421875 0.6484375
vt 0.4771765625 0.6484375
vt 0.4766390625 0.640625
vt 0.4842984375 0.640625
vt 0.4921875 0.824163389670562
vt 0.4921875 0.8136475926054301
vt 0.4932308477008423 0.8125
vt 0.4938280279251191 0.8203143221264761
vt 0.4283567573125502 0.7734375
vt 0.4453125 0.7734375
vt 0.4390164273371545 0.7811213470898999
vt 0.4256410881022257 0.78125
vt 0.21875 0.639740625
vt 0.22229393840419015 0.6231593857822724
vt 0.22597483921745234 0.6211644573764072
vt 0.22299041210589837 0.6342037513562055
vt 0.1953125 0.9623663800766786
vt 0.19140078124999998 0.9788648175766786
vt 0.18773125 0.9697546613266786
vt 0.19107578125 0.9568015363266786
vt 0.22261328125 0.65625
vt 0.21875 0.639740625
vt 0.222996875 0.6341953124999999
vt 0.22628984375 0.6471609375
vt 0.19140078124999998 0.9788648175766786
vt 0.18223700959714956 1
vt 0.1791002218215269 0.9811765728838245
vt 0.18775838660725125 0.9698220319839401
vt 0.359375 0.78125
vt 0.3367693586115543 0.78125
vt 0.32989491771604795 0.77425119377533
vt 0.3438208043491106 0.7709002214403904
vt 0.0542947213383608 0.5703125
vt 0.04726777866163919 0.5529976923051491
vt 0.05429472133836081 0.5512290908090913
vt 0.07495546875 0.8341937500000001
vt 0.08129453125 0.8341937500000001
vt 0.08176328125 0.8359375
vt 0.07448671875 0.8359375
vt 0.06946640625 0.8310375
vt 0.07495546875 0.8341937500000001
vt 0.07448671875 0.8359375
vt 0.068184375 0.83231484375
vt 0.066296875 0.82557109375
vt 0.06946640625 0.8310375
vt 0.068184375 0.83231484375
vt 0.06454531250000001 0.82603828125
vt 0.066296875 0.819259375
vt 0.066296875 0.82557109375
vt 0.06454531250000001 0.82603828125
vt 0.06454531250000001 0.8187921874999999
vt 0.06946640625 0.8137929687500001
vt 0.066296875 0.819259375
vt 0.06454531250000001 0.8187921874999999
vt 0.06818437499999999 0.81251640625
vt 0.07495546875 0.8106375
vt 0.06946640625 0.8137929687500001
vt 0.06818437499999999 0.81251640625
vt 0.07448671874999999 0.8088929687499999
vt 0.08129453125 0.8106375
vt 0.07495546875 0.8106375
vt 0.07448671875 0.8088929687499999
vt 0.08176328124999999 0.8088929687499999
vt 0.089953125 0.819259375
vt 0.08678359375 0.8137929687500001
vt 0.08806562500000001 0.81251640625
vt 0.09170468749999999 0.8187921874999999
vt 0.08678359375 0.8137929687500001
vt 0.08129453125 0.8106375
vt 0.08176328125000001 0.8088929687499999
vt 0.08806562500000001 0.81251640625
vt 0.089953125 0.82557109375
vt 0.089953125 0.819259375
vt 0.09170468749999999 0.8187921874999999
vt 0.09170468749999999 0.82603828125
vt 0.08678359375 0.8310375
vt 0.089953125 0.82557109375
vt 0.09170468749999999 0.82603828125
vt 0.08806562500000001 0.83231484375
vt 0.08129453125 0.8341937500000001
vt 0.08678359375 0.8310375
vt 0.08806562500000001 0.83231484375
vt 0.08176328125 0.8359375
vt 0.32886978259280764 0.5330773964792781
vt 0.33323053477684716 0.5327657373625827
vt 0.33519271740719236 0.5464231054194306
vt 0.32886978259280764 0.546875
vt 0.4624344871320487 0.8768257205432534
vt 0.4667902819416536 0.8765104774041124
vt 0.46875 0.8901679256453063
vt 0.4624344871320487 0.890625
vt 0.4624476528474259 0.8299493310841679
vt 0.46679415289899095 0.8296355364269461
vt 0.46875 0.8432950033726049
vt 0.4624476528474259 0.84375
vt 0.21950833913121046 0.5252613334374834
vt 0.22385127941386032 0.5249525141778408
vt 0.22580416086878954 0.5386148145884351
vt 0.21950833913121046 0.5390625
vt 0.453125 0.9199199321209436
vt 0.4534387946572218 0.9140625
vt 0.4672394635730539 0.9140625
vt 0.4667845232014238 0.921875
vt 0.453125 0.9042910537295592
vt 0.4534400149647069 0.8984375
vt 0.4672384588343125 0.8984375
vt 0.46678177166544227 0.90625
vt 0.09449478259280764 0.5252648964792781
vt 0.09885553477684719 0.5249532373625827
vt 0.10081771740719236 0.5386106054194306
vt 0.09449478259280764 0.5390625
vt 0.46244843206937847 0.8065118310841679
vt 0.4667949321209436 0.8061980364269461
vt 0.46875 0.8198575596283699
vt 0.46244843206937847 0.8203125
vt 0.4624352424122308 0.8533890561303944
vt 0.46679105372955926 0.8530740411656875
vt 0.46875 0.8667308128311297
vt 0.4624352424122308 0.8671875
vt 0.46169583913121043 0.7596363334374834
vt 0.46603877941386035 0.7593275141778408
vt 0.46799166086878957 0.7729898145884351
vt 0.46169583913121043 0.7734375
vt 0.4453125 0.560544152898991
vt 0.4456262946572218 0.5546875
vt 0.4594269635730539 0.5546875
vt 0.4589719669456588 0.5625
vt 0.4453125 0.9355402819416536
vt 0.44562774313914094 0.9296875
vt 0.45942702259588764 0.9296875
vt 0.45896994824119397 0.9375
vt 0.48572725261321725 0.9040354221423101
vt 0.4765625 0.901006039567974
vt 0.4773333247610253 0.900345987550835
vt 0.4871568661190276 0.90389453125
vt 0.30411640625 0.50775234375
vt 0.300715625 0.5078125
vt 0.3009625 0.50705390625
vt 0.3046875 0.50694296875
vt 0.44288515625 0.5156070312500001
vt 0.4398703125 0.515625
vt 0.43953828125 0.5078125
vt 0.44327421875 0.5078125
vt 0.4921875 0.8388487751050838
vt 0.4828623753159956 0.8411034684401069
vt 0.48158594846128683 0.8407733929690254
vt 0.4916735780535143 0.83806875
vt 0.31647890625 0.5078125
vt 0.31306875 0.507771875
vt 0.3125 0.5070296875
vt 0.31623046875 0.5070875
vt 0.4590322267179603 0.5
vt 0.4609375 0.508537391777032
vt 0.4579975055263857 0.508537391777032
vt 0.4579472832557089 0.500710147038669
vt 0.36253386216818484 0.7513855493139563
vt 0.3528401389861501 0.7449281249999999
vt 0.35363341507052204 0.7422356756298902
vt 0.3641485508187071 0.7489331179987468
vt 0.3528401389861501 0.7449281249999999
vt 0.3425010764861501 0.74487890625
vt 0.3417104514861501 0.7421875
vt 0.3536331077361501 0.7422367187500001
vt 0.48515602985272516 0.875
vt 0.4765625 0.873268059798173
vt 0.4773987057422761 0.8671875
vt 0.48521504468189136 0.8671875
vt 0.3425010764861501 0.74487890625
vt 0.3327884447930198 0.7512870873955045
vt 0.3311639491812929 0.7488371913630207
vt 0.34171096798901673 0.7421892582533356
vn 0 4.440892098500626e-16 1
vn 0.39422389011851017 -0.6856959717406936 0.6118893354181089
vn 0.4816741206554851 -0.837803117730686 0.25705247987815233
vn 0.540866295498742 -0.8172357526041014 -0.19897078946186
vn 0.2614163315924229 -0.023127575440710334 -0.9649490229183066
vn 0.10340394226511758 -0.17985634166408268 -0.9782429765080071
vn 0 4.440892098500626e-16 1
vn 0.6837146941841167 -0.3964079155468687 0.6126948518214484
vn 0.8630902840235536 -0.5041784231773453 0.029652642825681013
vn 0.8370902267682537 -0.48899036219212844 -0.2452924334998635
vn 0.25253866434693856 -0.12620044485240378 -0.9593214637069891
vn 0.27305374896559376 -0.004776584465167462 -0.9619869200860695
vn 0 4.440892098500626e-16 1
vn 0.9132605542236959 1.809112612731841e-16 0.40737594442851915
vn 0.9717368064685584 1.0483476090931693e-16 0.2360668950833374
vn 0.9717368064685584 -1.0483476090931693e-16 -0.2360668950833374
vn 0 -4.440892098500626e-16 -1
vn 0.2757836983779674 -4.268673063148764e-16 -0.9612197208281623
vn 0 4.440892098500626e-16 1
vn 0.6837146941841166 0.3964079155468693 0.6126948518214481
vn 0.8566357604162759 0.500407981550419 0.1255668187725755
vn 0.8369402479047682 0.48890275130332367 -0.24597788763453068
vn 0.26089286600109474 0.15240184744688945 -0.9532620780061011
vn 0.275642204269975 0.0019659052541427836 -0.9612582953825268
vn 0 4.440892098500626e-16 1
vn 0.43661355827799186 0.8150288555978303 0.38091543060201905
vn 0.4602554009379595 0.8591612092594366 0.22362241035124517
vn 0.46025540093795897 0.859161209259437 -0.22362241035124616
vn 0.15622922999290229 0.2916339360468813 -0.9436853686698912
vn 0.10340394226511757 0.1798563416640817 -0.9782429765080073
vn 0 4.440892098500626e-16 1
vn 4.830499667824409e-16 0.791253885340047 0.611487766790375
vn 0 0.9985012861211756 0.05472825243289044
vn 0 0.9697852204999008 -0.2439602961548436
vn 0 0.3028325813466119 -0.9530437700729951
vn 0 -0.01743199463374472 -0.9998480512373314
vn 0 4.440892098500626e-16 1
vn -0.4366135582779916 0.8150288555978306 0.380915430602019
vn -0.4602554009379584 0.8591612092594373 0.22362241035124525
vn -0.46025540093795847 0.859161209259437 -0.22362241035124614
vn -0.15622922999290212 0.2916339360468814 -0.9436853686698913
vn -0.10340394226511748 0.17985634166408185 -0.9782429765080073
vn 0 4.440892098500626e-16 1
vn -0.6837146941841167 0.3964079155468691 0.612694851821448
vn -0.856635760416276 0.5004079815504188 0.12556681877257556
vn -0.8369402479047685 0.48890275130332334 -0.2459778876345306
vn -0.21192646513786104 0.12379788418500969 -0.9694128414898816
vn -0.275642204269975 0.0019659052541427828 -0.9612582953825269
vn 0 4.440892098500626e-16 1
vn -0.9132605542236958 4.954870086949198e-16 0.4073759444285193
vn -0.9717368064685586 1.0483476090931695e-16 0.23606689508333742
vn -0.9717368064685585 -1.0483476090931696e-16 -0.23606689508333745
vn 0 -4.440892098500626e-16 -1
vn -0.2757836983779674 -4.268673063148764e-16 -0.9612197208281623
vn 0 4.440892098500626e-16 1
vn -0.6837146941841167 -0.3964079155468684 0.6126948518214486
vn -0.8630902840235541 -0.5041784231773446 0.02965264282568089
vn -0.8355512418541954 -0.48809135660531205 -0.2522319366041859
vn -0.2631815213205075 -0.1315189701880714 -0.9557396336430193
vn -0.27305374896559387 -0.00477658446516734 -0.9619869200860695
vn 0 4.440892098500626e-16 1
vn -0.39422389011851 -0.6856959717406935 0.6118893354181089
vn -0.48167412065548515 -0.8378031177306858 0.2570524798781521
vn -0.5495551097786103 -0.793418854330546 -0.26167862524291835
vn -0.2172794924321494 0.03502113988360594 -0.9754809797887811
vn -0.10340394226511755 -0.17985634166408268 -0.9782429765080071
vn 0 4.440892098500626e-16 1
vn 0 -0.7912538853400466 0.6114877667903756
vn 0 -0.966464365642521 0.25680075923407913
vn 0 -0.9793054725626283 -0.20238772544027275
vn -0.003432973624486643 -0.013591822936266026 -0.9999017336925479
vn 0 -0.20767082880914683 -0.9781987665406874
vn 0.6808746021383795 -3.252509421943572e-16 -0.7324000110342049
vn 0.6256630200500382 0.3654841222619942 -0.6891785992877647
vn 0.35804432618301896 0.6683632514142915 -0.6519929636484312
vn 0 0.7275993583470992 -0.6860023132124916
vn -0.3580443261830183 0.6683632514142916 -0.6519929636484314
vn -0.6210349813697089 0.362780630764703 -0.6947702971897184
vn -0.6808746021383795 -3.2525094219435726e-16 -0.732400011034205
vn -0.6237365020266916 -0.311698108604512 -0.7167963902893743
vn -0.6136137060857857 -0.5643269575251255 -0.5522800962501747
vn 0.004984190067423286 -0.8908560357680158 -0.45425838614721026
vn 0.6390826334506602 -0.6130650467926424 -0.46446166259757565
vn 0.6508193460993182 -0.32523214300147213 -0.6860453570293482
vn 0.33023767382679775 -0.9432677857950986 0.03448134374814453
vn -0.9580292008383002 -1.2730733374712786e-16 -0.2866706304125482
vn 0 1 -4.440892098500626e-16
vn 0.994593058440436 4.611829155636744e-17 0.10384916033411015
vn 0 1 -4.440892098500626e-16
vn 0.9580292008383005 -1.2730733374712786e-16 -0.2866706304125482
vn -0.32883068918358527 -0.9392489733026553 0.09839585357603522
vn -0.994593058440436 4.611829155636745e-17 0.10384916033411017
vn 0.5751161792336825 -0.7629497364221389 -0.29521023030552235
vn -0.16065677433412942 0.8839371952879983 -0.4391405647932558
vn 0.8347058583407222 0.014711718403124381 -0.5504994962698018
vn -0.46287853735065054 0.886381508256775 0.008442836050025559
vn 0.33735338478591403 -0.8898214805958019 -0.30726279703827203
vn -0.548134737424691 0.8342571450970072 -0.059693596666277875
vn 0.3051964038077625 -0.945588804202594 -0.11276953697483034
vn -0.5947110105308219 0.7574964416424615 0.26929157961662575
vn 0.556675625997623 -0.8019203017585796 0.2168780234315675
vn 0.7907266711956589 0.4584519159267575 0.4056761913680887
vn 0.34929177383952387 0.9007412789950013 0.2581867638793441
vn -0.37452488803373823 -0.8988342981459881 0.22765766562917406
vn 0.8237188157301198 -0.4775802853410396 0.3056213076108081
vn 0.397731408197931 0.9140300367841417 -0.07974220205933252
vn -0.5963119352033964 -0.7984001934163197 -0.08348177697416105
vn 0.3719342668950929 0.8868019909651467 -0.27431210314067783
vn -0.5381516967978727 -0.8114172974722937 -0.22802350886768186
vn -0.3938851472317135 -0.8909094571045514 -0.22613011748089942
vn 0.5669168813763852 0.7634139249798416 -0.30952290506091185
vn 0.9083398167100958 -0.01956235041111865 -0.41777516899100475
vn 0.9477402697467364 -0.25109533188858874 -0.19682356414856167
vn -0.7904704997613724 -0.2165550037411527 -0.5729400661165839
vn -0.9736525215786406 -0.17307659939676118 -0.14847645592755876
vn 0.9138760846530656 -0.08027433442375308 -0.3979780560935569
vn 0.9396589640239932 0.1530706652469428 -0.3059581716022871
vn -0.9840674953790304 0.00880281686114561 -0.17757723658665028
vn 0.9868626219871312 0.13614004014023975 -0.08699456761947051
vn -0.9941060247877683 0.07993048446487137 -0.07324158063471899
vn 0.9561002924827289 0.1511868754575518 0.2510274076745865
vn -0.9585630182375349 -0.16176144785521002 0.2344998380705914
vn -5.782571480131885e-16 -0.9220488855546526 0.3870734460634356
vn 0.6270498638204288 -0.7336194710045344 0.2619369008860893
vn -0.6226958405429867 0.7506621889344774 0.22080798960762876
vn -0.8237188157301198 -0.4775802853410398 0.30562130761080825
vn 0.6384971657342782 -0.7635251642206824 -0.09669898112738289
vn -0.4510708840099697 0.890095690626237 -0.065304817028047
vn 0.6284154454977241 -0.6958855779612516 -0.3476165851127243
vn -0.5212419102476038 0.8425862908604915 -0.13548141368980648
vn -0.6541478570560828 0.7516011339348124 -0.08477214505271755
vn 0.41650506730416564 -0.7918353919888346 -0.44667688646698667
vn -0.8477690072956523 -0.013547194849724878 -0.5301925912162937
vn 0.08014260986477736 0.9934195699676822 -0.08182126917426527
vn -0.3975934056707413 -0.708216988467443 -0.5833936758426912
vn -0.856722241076705 0.015099757878145447 -0.5155569793500323
vn -0.16737792694517745 -0.8865703605780475 -0.43125123224872747
vn 0.4320753195106359 0.9007958800925943 0.043332443711271186
vn -0.2711630196372295 -0.9549519773667826 -0.12057088249030687
vn 0.4755234755757699 0.8789021787708778 -0.03752844691889276
vn -0.331158722100977 -0.9172817059099629 0.22119713555866063
vn 0.25938006649603124 0.9320565005571229 0.2529677071756876
vn -0.7907266711956586 0.458451915926758 0.4056761913680886
vn -0.4861520956569222 0.6075972874001746 -0.6280777628863584
vn -0.22263102143033248 -4.3294380476004113e-16 -0.974902778894843
vn -0.4002461055697622 -0.6508837185128595 -0.6450995581699864
vn -0.40088527954704883 0.9053304449081351 -0.14024185596648064
vn -0.31673629065535763 -0.9407030747565543 -0.1214736486874813
vn -0.07091536195113872 0.9954048123197928 0.0643449380288554
vn -0.14961326966181548 -0.9852561661327058 0.0829828695489786
vn 0.09136561171607299 0.9835547573739875 0.15579590573164798
vn 0.21713157898700786 -0.9580920073126377 0.18685176726552352
vn 0.984861233078088 7.698046802229367e-17 0.17334460355000408
vn -0.17996925715486192 0.7368981157335986 -0.6516074228455344
vn -0.7997315589752174 -0.5937866508281313 -0.08858242984576419
vn 0.06850298032255525 0.9756720210439129 -0.20825813078728528
vn -0.8647331459463755 -0.49891124167672796 -0.05765552211427746
vn 0.7281648977359595 0.6791488131397558 0.09237300101242127
vn -0.8058641574113558 -0.5912314711380691 0.03206723149260694
vn 0.8682683452535241 0.44969574648181815 0.20948464437010086
vn -0.5895125565029974 -0.8018407290280586 0.09760323251333292
vn 0.4935387994987324 -0.8584400265856175 0.13964302397554576
vn 0.7472086959865616 -0.6311736662163062 0.2080840400346189
vn -0.9084038687689034 0.37903189095701456 0.17645746468551257
vn -0.493538799498733 -0.858440026585617 0.1396430239755457
vn 0.7886148688185034 -0.6143691792397172 0.025240845443273142
vn -0.6419261396005722 0.7578990810730521 0.11627473588931499
vn 0.9150232961147327 -0.39458342853938666 -0.08388256964014108
vn -0.33266471133657244 0.9262797407918757 -0.1770311600535082
vn 0.8918281656513253 -0.17911903399921733 -0.4154020878741217
vn -0.3375367161168694 0.7811031937686816 -0.5253063543851391
vn -0.7245266937902946 -0.683717266965413 -0.08713075713346571
vn 0.45346005899327957 0.43392284309105195 -0.7785145734933867
vn 0.4464355931542677 -0.833363700435049 -0.32588372767322865
vn -0.8835499255481516 0.3885215020560047 -0.2615159106134878
vn 0.7380615733083572 -0.6457411645511666 -0.19566160177637262
vn -0.43701451428669674 -0.8157773223156475 -0.37884782525213834
vn 0.5162195439520847 -0.4757990871986103 -0.7121324392715663
vn 0.22263102143033245 -4.3294380476004113e-16 -0.974902778894843
vn 0.43977802126615756 0.6769526218853519 -0.5901952556008655
vn 0.43031106268547775 -0.8906808658330755 -0.14669691397346457
vn 0.2857788469946283 0.9514352912917144 -0.11446107240049565
vn 0.09018008756848964 -0.9935367651558776 0.06893655118827922
vn 0.1297180513159006 0.9884544359724029 0.07830105471374059
vn -0.0628766663347984 -0.9642359565508751 0.2574792126076225
vn -0.12481854119896282 0.9821674914603805 0.1405964099519844
vn -0.984861233078088 7.698046802229366e-17 0.17334460355000406
vn 0 4.440892098500626e-16 1
vn 0 4.440892098500626e-16 1
vn 0 4.440892098500626e-16 1
vn 0 4.440892098500626e-16 1
vn 0 4.440892098500626e-16 1
vn 0 4.440892098500626e-16 1
vn 0 4.440892098500626e-16 1
vn 0 4.440892098500626e-16 1
vn 0 4.440892098500626e-16 1
vn 0 4.440892098500626e-16 1
vn 0 4.440892098500626e-16 1
vn 0 4.440892098500626e-16 1
vn -7.651204745671243e-16 -0.9640923973824492 0.26556703355153405
vn 0.48048965029790996 -0.8357429012567655 0.2658260689915805
vn 0.833861577205311 -0.48346091211192893 0.2663464220157143
vn 0.9638051199315945 1.183976237328103e-16 0.2666077470623183
vn 0.8338615772053112 0.48346091211192893 0.2663464220157137
vn 0.48048965029791013 0.8357429012567658 0.26582606899157973
vn 0 0.9640923973824495 0.26556703355153316
vn -0.8338615772053108 0.4834609121119295 0.2663464220157139
vn -0.4804896502979103 0.8357429012567658 0.26582606899157984
vn -0.9638051199315943 1.183976237328103e-16 0.2666077470623183
vn -0.833861577205311 -0.4834609121119294 0.26634642201571423
vn -0.48048965029791035 -0.8357429012567655 0.26582606899158057
vn -0.524426579071341 -0.6937374871642434 -0.49366492894125247
vn 0.4973893749732446 -0.7448852440644099 0.4446906597162006
vn 0.027461737658080028 -0.9967951478383501 0.0751351196892697
vn 0.5292065114852263 -0.6981774774718894 -0.48217079769789706
vn -0.4704454072997949 -0.7567853588258955 0.4538248995122356
vn 0.6588337117037177 -0.751977168442233 -0.021644363337929216
vn 0.17379443735432176 0.7349733594510638 -0.6554461491548427
vn -0.004897835702062493 0.7665870111920802 -0.6421217684185991
vn -0.550342866099809 -0.8275625911652559 -0.11073792230710978
vn -0.18610857373089454 0.7402464757366446 -0.6460640478647064
usemtl m_8af1fcb1-45d2-045a-0a68-e8a7a77c7c93
f 186/1/1 187/2/1 180/3/1
f 2/4/2 3/5/2 8/6/2 7/7/2
f 3/8/3 4/9/3 9/10/3 8/11/3
f 4/12/4 5/13/4 10/14/4 9/15/4
f 191/16/5 193/17/5 192/18/5 194/19/5
f 11/20/6 6/21/6 1/22/6
f 187/23/7 188/24/7 180/25/7
f 7/26/8 8/27/8 13/28/8 12/29/8
f 123/30/9 124/31/9 125/32/9
f 123/33/10 121/34/10 122/35/10 124/36/10
f 117/37/11 119/38/11 118/39/11 120/40/11
f 16/41/12 11/42/12 1/43/12
f 188/44/13 189/45/13 180/46/13
f 163/47/14 164/48/14 165/49/14
f 163/50/15 161/51/15 162/52/15 164/53/15
f 161/54/16 157/55/16 160/56/16 162/57/16
f 72/58/17 74/59/17 73/60/17 75/61/17
f 21/62/18 16/63/18 1/64/18
f 189/65/19 190/66/19 180/67/19
f 17/68/20 18/69/20 23/70/20 22/71/20
f 108/72/21 109/73/21 110/74/21
f 108/75/22 111/76/22 112/77/22 109/78/22
f 115/79/23 114/80/23 113/81/23 116/82/23
f 26/83/24 21/84/24 1/85/24
f 190/86/25 178/87/25 180/88/25
f 144/89/26 145/90/26 146/91/26
f 144/92/27 147/93/27 148/94/27 145/95/27
f 147/96/28 149/97/28 150/98/28 148/99/28
f 155/100/29 152/101/29 151/102/29 156/103/29
f 31/104/30 26/105/30 1/106/30
f 178/107/31 179/108/31 180/109/31
f 27/110/32 28/111/32 33/112/32 32/113/32
f 105/114/33 106/115/33 107/116/33
f 105/117/34 103/118/34 104/119/34 106/120/34
f 98/121/35 102/122/35 101/123/35 99/124/35
f 98/125/36 99/126/36 100/127/36
f 179/128/37 181/129/37 180/130/37
f 141/131/38 142/132/38 143/133/38
f 141/134/39 139/135/39 140/136/39 142/137/39
f 139/138/40 135/139/40 138/140/40 140/141/40
f 153/142/41 137/143/41 136/144/41 154/145/41
f 41/146/42 36/147/42 1/148/42
f 181/149/43 182/150/43 180/151/43
f 37/152/44 38/153/44 43/154/44 42/155/44
f 89/156/45 90/157/45 91/158/45
f 89/159/46 92/160/46 93/161/46 90/162/46
f 96/163/47 95/164/47 94/165/47 97/166/47
f 46/167/48 41/168/48 1/169/48
f 182/170/49 183/171/49 180/172/49
f 132/173/50 133/174/50 134/175/50
f 132/176/51 130/177/51 131/178/51 133/179/51
f 130/180/52 126/181/52 129/182/52 131/183/52
f 76/184/53 78/185/53 77/186/53 79/187/53
f 51/188/54 46/189/54 1/190/54
f 183/191/55 184/192/55 180/193/55
f 47/194/56 48/195/56 53/196/56 52/197/56
f 86/198/57 87/199/57 88/200/57
f 86/201/58 84/202/58 85/203/58 87/204/58
f 80/205/59 82/206/59 81/207/59 83/208/59
f 56/209/60 51/210/60 1/211/60
f 184/212/61 185/213/61 180/214/61
f 52/215/62 53/216/62 58/217/62 57/218/62
f 53/219/63 54/220/63 59/221/63 58/222/63
f 54/223/64 55/224/64 60/225/64 59/226/64
f 196/227/65 195/228/65 197/229/65 198/230/65
f 61/231/66 56/232/66 1/233/66
f 185/234/67 186/235/67 180/236/67
f 57/237/68 58/238/68 3/239/68 2/240/68
f 58/241/69 59/242/69 4/243/69 3/244/69
f 59/245/70 60/246/70 5/247/70 4/248/70
f 194/249/71 192/250/71 195/251/71 196/252/71
f 6/253/72 61/254/72 1/255/72
f 157/256/73 158/257/73 159/258/73 160/259/73
f 111/260/74 113/261/74 114/262/74 112/263/74
f 149/264/75 151/265/75 152/266/75 150/267/75
f 103/268/76 101/269/76 102/270/76 104/271/76
f 135/272/77 136/273/77 137/274/77 138/275/77
f 92/276/78 94/277/78 95/278/78 93/279/78
f 126/280/79 127/281/79 128/282/79 129/283/79
f 84/284/80 81/285/80 82/286/80 85/287/80
f 199/288/81 197/289/81 195/290/81 200/291/81
f 200/292/82 195/293/82 192/294/82 201/295/82
f 201/296/83 192/297/83 193/298/83 202/299/83
f 121/300/84 118/301/84 119/302/84 122/303/84
f 74/304/85 72/305/85 21/306/85 63/307/85
f 73/308/86 74/309/86 63/310/86 62/311/86
f 75/312/87 73/313/87 62/314/87 16/315/87
f 72/316/88 75/317/88 16/318/88 21/319/88
f 78/320/89 76/321/89 51/322/89 69/323/89
f 77/324/90 78/325/90 69/326/90 68/327/90
f 79/328/91 77/329/91 68/330/91 46/331/91
f 76/332/92 79/333/92 46/334/92 51/335/92
f 82/336/93 80/337/93 56/338/93 70/339/93
f 83/340/94 81/341/94 69/342/94 51/343/94
f 80/344/95 83/345/95 51/346/95 56/347/95
f 81/348/96 84/349/96 50/350/96 69/351/96
f 85/352/97 82/353/97 70/354/97 55/355/97
f 84/356/98 86/357/98 49/358/98 50/359/98
f 87/360/99 85/361/99 55/362/99 54/363/99
f 86/364/100 88/365/100 48/366/100 49/367/100
f 88/368/101 87/369/101 54/370/101 53/371/101
f 88/372/102 53/373/102 48/374/102
f 89/375/103 91/376/103 38/377/103 39/378/103
f 91/379/104 90/380/104 44/381/104 43/382/104
f 91/383/105 43/384/105 38/385/105
f 92/386/106 89/387/106 39/388/106 40/389/106
f 90/390/107 93/391/107 45/392/107 44/393/107
f 94/394/108 92/395/108 40/396/108 67/397/108
f 93/398/109 95/399/109 68/400/109 45/401/109
f 95/402/110 96/403/110 46/404/110 68/405/110
f 97/406/111 94/407/111 67/408/111 41/409/111
f 96/410/112 97/411/112 41/412/112 46/413/112
f 100/414/113 99/415/113 31/416/113 1/417/113
f 98/418/114 100/419/114 1/420/114 36/421/114
f 102/422/115 98/423/115 36/424/115 66/425/115
f 99/426/116 101/427/116 65/428/116 31/429/116
f 101/430/117 103/431/117 30/432/117 65/433/117
f 104/434/118 102/435/118 66/436/118 35/437/118
f 103/438/119 105/439/119 29/440/119 30/441/119
f 106/442/120 104/443/120 35/444/120 34/445/120
f 105/446/121 107/447/121 28/448/121 29/449/121
f 107/450/122 106/451/122 34/452/122 33/453/122
f 107/454/123 33/455/123 28/456/123
f 108/457/124 110/458/124 18/459/124 19/460/124
f 110/461/125 109/462/125 24/463/125 23/464/125
f 110/465/126 23/466/126 18/467/126
f 111/468/127 108/469/127 19/470/127 20/471/127
f 109/472/128 112/473/128 25/474/128 24/475/128
f 113/476/129 111/477/129 20/478/129 63/479/129
f 112/480/130 114/481/130 64/482/130 25/483/130
f 114/484/131 115/485/131 26/486/131 64/487/131
f 116/488/132 113/489/132 63/490/132 21/491/132
f 115/492/133 116/493/133 21/494/133 26/495/133
f 119/496/134 117/497/134 16/498/134 62/499/134
f 120/500/135 118/501/135 71/502/135 11/503/135
f 117/504/136 120/505/136 11/506/136 16/507/136
f 118/508/137 121/509/137 10/510/137 71/511/137
f 122/512/138 119/513/138 62/514/138 15/515/138
f 121/516/139 123/517/139 9/518/139 10/519/139
f 124/520/140 122/521/140 15/522/140 14/523/140
f 123/524/141 125/525/141 8/526/141 9/527/141
f 125/528/142 124/529/142 14/530/142 13/531/142
f 125/532/143 13/533/143 8/534/143
f 127/535/144 126/536/144 45/537/144 68/538/144
f 128/539/145 127/540/145 68/541/145 69/542/145
f 129/543/146 128/544/146 69/545/146 50/546/146
f 126/547/147 130/548/147 44/549/147 45/550/147
f 131/551/148 129/552/148 50/553/148 49/554/148
f 130/555/149 132/556/149 43/557/149 44/558/149
f 133/559/150 131/560/150 49/561/150 48/562/150
f 132/563/151 134/564/151 42/565/151 43/566/151
f 134/567/152 133/568/152 48/569/152 47/570/152
f 134/571/153 47/572/153 42/573/153
f 136/574/154 135/575/154 35/576/154 66/577/154
f 138/578/155 137/579/155 67/580/155 40/581/155
f 135/582/156 139/583/156 34/584/156 35/585/156
f 140/586/157 138/587/157 40/588/157 39/589/157
f 139/590/158 141/591/158 33/592/158 34/593/158
f 142/594/159 140/595/159 39/596/159 38/597/159
f 141/598/160 143/599/160 32/600/160 33/601/160
f 143/602/161 142/603/161 38/604/161 37/605/161
f 143/606/162 37/607/162 32/608/162
f 144/609/163 146/610/163 22/611/163 23/612/163
f 146/613/164 145/614/164 28/615/164 27/616/164
f 146/617/165 27/618/165 22/619/165
f 147/620/166 144/621/166 23/622/166 24/623/166
f 145/624/167 148/625/167 29/626/167 28/627/167
f 149/628/168 147/629/168 24/630/168 25/631/168
f 148/632/169 150/633/169 30/634/169 29/635/169
f 151/636/170 149/637/170 25/638/170 64/639/170
f 150/640/171 152/641/171 65/642/171 30/643/171
f 137/644/172 153/645/172 41/646/172 67/647/172
f 154/648/173 136/649/173 66/650/173 36/651/173
f 153/652/174 154/653/174 36/654/174 41/655/174
f 152/656/175 155/657/175 31/658/175 65/659/175
f 156/660/176 151/661/176 64/662/176 26/663/176
f 155/664/177 156/665/177 26/666/177 31/667/177
f 158/668/178 157/669/178 15/670/178 62/671/178
f 159/672/179 158/673/179 62/674/179 63/675/179
f 160/676/180 159/677/180 63/678/180 20/679/180
f 157/680/181 161/681/181 14/682/181 15/683/181
f 162/684/182 160/685/182 20/686/182 19/687/182
f 161/688/183 163/689/183 13/690/183 14/691/183
f 164/692/184 162/693/184 19/694/184 18/695/184
f 163/696/185 165/697/185 12/698/185 13/699/185
f 165/700/186 164/701/186 18/702/186 17/703/186
f 165/704/187 17/705/187 12/706/187
f 167/707/188 166/708/188 27/709/188 32/710/188
f 168/711/189 167/712/189 32/713/189 37/714/189
f 169/715/190 168/716/190 37/717/190 42/718/190
f 170/719/191 169/720/191 42/721/191 47/722/191
f 171/723/192 170/724/192 47/725/192 52/726/192
f 172/727/193 171/728/193 52/729/193 57/730/193
f 173/731/194 172/732/194 57/733/194 2/734/194
f 175/735/195 174/736/195 7/737/195 12/738/195
f 174/739/196 173/740/196 2/741/196 7/742/196
f 176/743/197 175/744/197 12/745/197 17/746/197
f 177/747/198 176/748/198 17/749/198 22/750/198
f 166/751/199 177/752/199 22/753/199 27/754/199
f 179/755/200 178/756/200 166/757/200 167/758/200
f 181/759/201 179/760/201 167/761/201 168/762/201
f 182/763/202 181/764/202 168/765/202 169/766/202
f 183/767/203 182/768/203 169/769/203 170/770/203
f 184/771/204 183/772/204 170/773/204 171/774/204
f 185/775/205 184/776/205 171/777/205 172/778/205
f 186/779/206 185/780/206 172/781/206 173/782/206
f 188/783/207 187/784/207 174/785/207 175/786/207
f 187/787/208 186/788/208 173/789/208 174/790/208
f 189/791/209 188/792/209 175/793/209 176/794/209
f 190/795/210 189/796/210 176/797/210 177/798/210
f 178/799/211 190/800/211 177/801/211 166/802/211
f 193/803/212 191/804/212 11/805/212 71/806/212
f 191/807/213 194/808/213 6/809/213 11/810/213
f 194/811/214 196/812/214 61/813/214 6/814/214
f 198/815/215 197/816/215 70/817/215 56/818/215
f 196/819/216 198/820/216 56/821/216 61/822/216
f 197/823/217 199/824/217 55/825/217 70/826/217
f 199/827/218 200/828/218 60/829/218 55/830/218
f 200/831/219 201/832/219 5/833/219 60/834/219
f 202/835/220 193/836/220 71/837/220 10/838/220
f 201/839/221 202/840/221 10/841/221 5/842/221