# Made in Blockbench 5.1.5
mtllib TurboBody.mtl

o Toe
v -0.22499999999999928 0.032812499999999856 -0.22500000000000078
v -0.225 0.14531249999999957 0.012499999999999248
v -0.22499999999999928 0.0015624999999998557 -0.22500000000000078
v -0.22499999999999998 0.0015624999999998557 0.012499999999999265
v -0.0499999999999994 0.032812499999999856 -0.22500000000000028
v -0.050000000000000114 0.14531249999999957 0.012499999999999767
v -0.0499999999999994 0.0015624999999998557 -0.22500000000000028
v -0.0500000000000001 0.0015624999999998557 0.012499999999999784
v -0.22499999999999973 0.14531249999999957 -0.08125000000000066
v -0.2249999999999997 0.0015624999999998557 -0.08125000000000063
v -0.04999999999999982 0.0015624999999998557 -0.08125000000000011
v -0.049999999999999836 0.14531249999999957 -0.08125000000000013
vt 0.19609375 0.88046875
vt 0.2140625 0.88046875
vt 0.2140625 0.8984375
vt 0.19609375 0.884375
vt 0.15546875 0.7828125
vt 0.1375 0.796875
vt 0.1375 0.77890625
vt 0.15546875 0.77890625
vt 0.2265625 0.9296875
vt 0.2265625 0.953125
vt 0.203125 0.953125
vt 0.203125 0.9296875
vt 0.16484375 0.803125
vt 0.16484375 0.78515625
vt 0.18671875 0.78515625
vt 0.18671875 0.803125
vt 0.1640625 0.9375
vt 0.1640625 0.9453125
vt 0.140625 0.9453125
vt 0.140625 0.9375
vt 0.296875 0.765625
vt 0.2734375 0.765625
vt 0.2734375 0.75
vt 0.296875 0.75
vt 0.22578125 0.8984375
vt 0.2140625 0.8984375
vt 0.2140625 0.88046875
vt 0.22578125 0.88046875
vt 0.18671875 0.7734375
vt 0.18671875 0.78515625
vt 0.16484375 0.78515625
vt 0.16484375 0.7734375
vt 0.12578125 0.77890625
vt 0.1375 0.77890625
vt 0.1375 0.796875
vt 0.12578125 0.796875
vt 0.2734375 0.7421875
vt 0.2734375 0.7265625
vt 0.296875 0.7265625
vt 0.296875 0.7421875
vn -1 -1.224646799147357e-16 -2.9629076969683865e-15
vn 1 1.224646799147357e-16 2.9629076969683865e-15
vn 1.729622944292371e-15 0.787505001007587 -0.6163082616581094
vn 1.224646799147353e-16 -1 1.224646799147357e-16
vn 2.9629076969683865e-15 -1.224646799147353e-16 -1
vn -2.9629076969683865e-15 1.224646799147353e-16 1
vn -1 -1.224646799147357e-16 -2.9629076969683865e-15
vn 1.224646799147353e-16 -1 1.224646799147357e-16
vn 1 1.224646799147357e-16 2.9629076969683865e-15
vn -1.224646799147353e-16 1 -1.224646799147357e-16
usemtl m_8af1fcb1-45d2-045a-0a68-e8a7a77c7c93
f 3/1/1 10/2/1 9/3/1 1/4/1
f 5/5/2 12/6/2 11/7/2 7/8/2
f 1/9/3 9/10/3 12/11/3 5/12/3
f 7/13/4 11/14/4 10/15/4 3/16/4
f 3/17/5 1/18/5 5/19/5 7/20/5
f 6/21/6 2/22/6 4/23/6 8/24/6
f 2/25/7 9/26/7 10/27/7 4/28/7
f 4/29/8 10/30/8 11/31/8 8/32/8
f 8/33/9 11/34/9 12/35/9 6/36/9
f 6/37/10 12/38/10 9/39/10 2/40/10
o Shin
v -0.05375000000000028 0.42031249999999964 0.054166666666666426
v -0.22124999999999972 0.42031249999999964 -0.06250000000000068
v -0.22125000000000042 0.42031249999999964 0.07499999999999922
v -0.2749999999999998 0.147395833333333 -0.07500000000000082
v -0.27500000000000036 0.17031249999999992 0.10624999999999908
v -0.05374999999999982 0.42031249999999964 -0.0625000000000002
v -0.053750000000000436 0.42031249999999964 0.0749999999999997
v 2.5394758465539785e-16 0.14739583333333306 -0.07500000000000001
v -6.467084006713439e-16 0.17031249999999998 0.1062499999999999
v -0.2284027777777775 0.147395833333333 -0.1125000000000007
v -0.2215277777777784 0.17031249999999998 0.13749999999999926
v -0.046597222222221936 0.14739583333333306 -0.11250000000000017
v -0.05347222222222279 0.17031249999999998 0.13749999999999976
v -0.18868055555555596 0.42031249999999964 0.10624999999999934
v -0.08631944444444486 0.42031249999999964 0.10624999999999964
v -0.18868055555555535 0.42031249999999964 -0.10000000000000062
v -0.08631944444444425 0.42031249999999964 -0.10000000000000032
v -0.2212500000000002 0.42031249999999964 0.037499999999999235
v -0.2750000000000002 0.147395833333333 0.056707317073169866
v -0.22125000000000003 0.42031249999999964 -0.0229166666666674
v -0.27499999999999997 0.147395833333333 -0.027896341463415505
v -0.22840277777777793 0.147395833333333 0.03147865853658464
v -0.04659722222222236 0.14739583333333306 0.03147865853658518
v -2.7506691692589993e-16 0.14739583333333306 0.056707317073170685
v -2.4394085856165992e-17 0.14739583333333306 -0.02789634146341469
v -0.05375000000000005 0.42031249999999964 -0.022916666666666904
v -0.08631944444444471 0.42031249999999964 0.05416666666666633
v -0.08631944444444448 0.42031249999999964 -0.022916666666667
v -0.18868055555555582 0.42031249999999964 0.05416666666666602
v -0.1886805555555556 0.42031249999999964 -0.022916666666667307
v -0.22840277777777748 0.0015624999999998557 -0.11250000000000068
v -0.27499999999999997 0.0015624999999998557 -0.027896341463415488
v -0.22496527777777772 0.0015624999999999112 0.031478658536584665
v -0.2749999999999998 0.0015624999999998557 -0.0750000000000008
v -0.2750000000000002 0.0015624999999998557 0.05670731707316989
v -0.2249652777777779 0.0015624999999999112 0.08795731707317006
v -0.27500000000000036 0.0015624999999998557 0.10624999999999911
v -0.22496527777777806 0.0015624999999999112 0.1374999999999993
v -0.0500347222222225 0.0015624999999999112 0.08795731707317057
v -0.05003472222222265 0.0015624999999999112 0.1374999999999998
v -0.05003472222222233 0.0015624999999999112 0.031478658536585186
v -6.53465336860045e-18 0.0015624999999999112 -0.027896341463414673
v -2.572074844383344e-16 0.0015624999999999112 0.0567073170731707
v -6.260424859357324e-16 0.0015624999999999112 0.10624999999999993
v 2.7180701714296345e-16 0.0015624999999999112 -0.07499999999999998
v -0.04659722222222192 0.0015624999999999112 -0.11250000000000014
v -0.22152777777777857 0.1987110550171005 0.2117507521094431
v -0.05347222222222296 0.1987110550171005 0.2117507521094436
v -0.06980416666666739 0.19362771366903953 0.1984598674818531
v -0.20519583333333405 0.19362771366903953 0.1984598674818527
v -0.20519583333333397 0.17539584134806097 0.15079088462758977
v -0.06980416666666728 0.17539584134806097 0.1507908846275902
v -0.205195833333334 0.24032850885866042 0.1805982961999894
v -0.2051958333333339 0.22209663653768186 0.13292931334572647
v -0.06980416666666722 0.22209663653768186 0.13292931334572686
v -0.06980416666666736 0.24032850885866042 0.1805982961999898
v -0.14997257236227796 0.47865371398559253 -0.13418091988020994
v -0.12502742763772146 0.47865371398559253 -0.1341809198802099
v -0.11534722222222187 0.20727381452398408 -0.16568817480112516
v -0.15965277777777734 0.20727381452398408 -0.1656881748011253
vt 0.078515625 0.96523046875
vt 0.08440390625 0.96523046875
vt 0.08502578125 1
vt 0.080078125 1
vt 0.06837146314341305 0.953125
vt 0.06342380689341305 0.953125
vt 0.06404568189341305 0.9183546874999999
vt 0.06993396314341305 0.9183546874999999
vt 0.06782109375 0.77109375
vt 0.06782109375 0.78072890625
vt 0.06375 0.78072890625
vt 0.06375 0.77578125
vt 0.03359375 0.8859375
vt 0.03359375 0.88004921875
vt 0.0398484375 0.8726273437500001
vt 0.03941875 0.890625
vt 0 0.8646695182006776
vt 0.0074773437500000005 0.8646695182006776
vt 0.010365625 0.8990577994506777
vt 0.0042546875 0.8991960807006777
vt 0.24004375 0.65625
vt 0.23440234375 0.65625
vt 0.23466015625 0.62449140625
vt 0.2421875 0.6241687499999999
vt 0.06214375 0.890625
vt 0.0617140625 0.8726273437500001
vt 0.06796875 0.88004921875
vt 0.06796875 0.8859375
vt 0.265625 0.8984375
vt 0.265625 0.8828125
vt 0.2890625 0.8828125
vt 0.2890625 0.8984375
vt 0 0.7493019665398286
vt 0.007742187144886479 0.7493043114728357
vt 0.009306017209452573 0.7810250990764438
vt 0.0038200113404349284 0.78125
vt 0.0012156249999999997 0.7890625
vt 0.022221875000000002 0.7890625
vt 0.01811640625 0.8203125
vt 0.00532109375 0.8203125
vt 0.0846875 0.77578125
vt 0.0846875 0.78072890625
vt 0.08061640625 0.78072890625
vt 0.08061640625 0.77109375
vt 0.08061640625 0.77109375
vt 0.08061640625 0.78072890625
vt 0.06782109375 0.78072890625
vt 0.06782109375 0.77109375
vt 0.12872397576161498 0.9929543119803
vt 0.12251731347589671 0.9927994584250242
vt 0.1254516163137448 0.9584150734237001
vt 0.1328125 0.9584150734237001
vt 0.1015625 0.6639521254972975
vt 0.09616723478789087 0.6640625
vt 0.09375 0.629975912845282
vt 0.1015625 0.6297799372753534
vt 0.097265625 1
vt 0.092578125 1
vt 0.09497890625 0.96523046875
vt 0.101171875 0.96804140625
vt 0.092578125 1
vt 0.08502578125 1
vt 0.08440390625 0.96523046875
vt 0.09497890625 0.96523046875
vt 0.06796875 0.86328125
vt 0.06796875 0.86947421875
vt 0.0617140625 0.86556796875
vt 0.0617140625 0.859375
vt 0.06796875 0.86947421875
vt 0.06796875 0.88004921875
vt 0.0617140625 0.8726273437500001
vt 0.0617140625 0.86556796875
vt 0.0617140625 0.859375
vt 0.0617140625 0.86556796875
vt 0.0398484375 0.86556796875
vt 0.0398484375 0.859375
vt 0.0617140625 0.86556796875
vt 0.0617140625 0.8726273437500001
vt 0.0398484375 0.8726273437500001
vt 0.0398484375 0.86556796875
vt 0.0398484375 0.859375
vt 0.0398484375 0.86556796875
vt 0.03359375 0.86947421875
vt 0.03359375 0.86328125
vt 0.0398484375 0.86556796875
vt 0.0398484375 0.8726273437500001
vt 0.03359375 0.88004921875
vt 0.03359375 0.86947421875
vt 0.04725353685658695 0.921165454444043
vt 0.05347068189341305 0.9183546874999999
vt 0.05378786829787714 0.9531248799065981
vt 0.051193736150186894 0.9531241763111523
vt 0.05347068189341305 0.9183546874999999
vt 0.06404568189341305 0.9183546874999999
vt 0.06342380689341305 0.953125
vt 0.05378786939341305 0.953125
vt 0.06375 0.79296875
vt 0.06375 0.7903648437499999
vt 0.06782109375 0.7903648437499999
vt 0.06782109375 0.796875
vt 0.06375 0.7903648437499999
vt 0.06375 0.78072890625
vt 0.06782109375 0.78072890625
vt 0.06782109375 0.7903648437499999
vt 0.06782109375 0.796875
vt 0.06782109375 0.7903648437499999
vt 0.08061640625 0.7903648437499999
vt 0.08061640625 0.796875
vt 0.06782109375 0.7903648437499999
vt 0.06782109375 0.78072890625
vt 0.08061640625 0.78072890625
vt 0.08061640625 0.7903648437499999
vt 0.08061640625 0.796875
vt 0.08061640625 0.7903648437499999
vt 0.0846875 0.78828125
vt 0.0846875 0.79296875
vt 0.08061640625 0.7903648437499999
vt 0.08061640625 0.78072890625
vt 0.0846875 0.78072890625
vt 0.0846875 0.78828125
vt 0.3125 0.6328125
vt 0.328125 0.6328125
vt 0.328125 0.6484375
vt 0.31251015625 0.6484375
vt 0.078515625 0.9470015625
vt 0.08440390625 0.9470015625
vt 0.08440390625 0.96523046875
vt 0.078515625 0.96523046875
vt 0.1253359375 0.9401861671737002
vt 0.1328125 0.9401861671737002
vt 0.1328125 0.9584150734237001
vt 0.1253359375 0.9584150734237001
vt 0.08440390625 0.9470015625
vt 0.09497890625 0.9470015625
vt 0.09497890625 0.96523046875
vt 0.08440390625 0.96523046875
vt 0.09497890625 0.9470015625
vt 0.101171875 0.9470015625
vt 0.101171875 0.9680953125
vt 0.09497890625 0.96523046875
vt 0.000003905894886479383 0.7282089989728356
vt 0.007378124644886479 0.7282089989728356
vt 0.007742187144886479 0.7493043114728357
vt 0.000003905894886479383 0.7493019677228356
vt 0.2039109375 0.8203125
vt 0.2257765625 0.8203125
vt 0.225346875 0.84375
vt 0.204340625 0.84375
vt 0.2820359375 0.828125
vt 0.3039015625 0.828125
vt 0.30433125 0.84375
vt 0.28160625 0.84375
vt 0.05347068189341305 0.90012578125
vt 0.06404568189341305 0.90012578125
vt 0.06404568189341305 0.9183546874999999
vt 0.05347068189341305 0.9183546874999999
vt 0.04727771314341305 0.90012578125
vt 0.05347068189341305 0.90012578125
vt 0.05347068189341305 0.9183546874999999
vt 0.04727771314341305 0.92121953125
vt 0.0003648437499999997 0.6953125
vt 0.0078125 0.6953125
vt 0.0078125 0.71875
vt 0 0.71875
vt 0.06404568189341305 0.90012578125
vt 0.06993396314341305 0.90012578125
vt 0.06993396314341305 0.9183546874999999
vt 0.06404568189341305 0.9183546874999999
vt 0.338655078125 0.8671875
vt 0.356657421875 0.8671875
vt 0.356647265625 0.8828125
vt 0.338655078125 0.88280234375
vt 0 0.8464406119506777
vt 0.0074773437500000005 0.8464406119506777
vt 0.0074773437500000005 0.8646695182006776
vt 0 0.8646695182006776
vt 0.3203125 0.734375
vt 0.3046875 0.734375
vt 0.3046875 0.7265625
vt 0.3203125 0.7265625
vt 0.3341277247109759 0.9765625
vt 0.3317765973038301 0.9669080563563358
vt 0.3635359026961699 0.9669080563563358
vt 0.05170222182183211 0.650279322014806
vt 0.04204777817816789 0.6796875
vt 0.042047778178167905 0.6479281946076602
vt 0.39388203125 0.8831578125
vt 0.41080546875 0.8831578125
vt 0.412846875 0.88493671875
vt 0.391840625 0.88493671875
vt 0.39388203125 0.87677890625
vt 0.39388203125 0.8831578125
vt 0.391840625 0.88493671875
vt 0.391840625 0.875
vt 0.41080546875 0.87677890625
vt 0.39388203125 0.87677890625
vt 0.391840625 0.875
vt 0.412846875 0.875
vt 0.41080546875 0.8831578125
vt 0.41080546875 0.87677890625
vt 0.412846875 0.875
vt 0.412846875 0.88493671875
vt 0.2890625 0.9765625
vt 0.2734375 0.9765625
vt 0.2734375 0.96875
vt 0.2890625 0.96875
vt 0.0078125 0.828125
vt 0.0078125 0.8359375
vt 0 0.8359375
vt 0 0.828125
vt 0.2109375 0.7578125
vt 0.1953125 0.7578125
vt 0.1953125 0.75
vt 0.2109375 0.75
vt 0.0390625 0.90625
vt 0.03125 0.90625
vt 0.03125 0.8984375
vt 0.0390625 0.8984375
vt 0.1796875 0.953125
vt 0.1796875 0.9609375
vt 0.171875 0.9609375
vt 0.171875 0.953125
vt 0.0625 0.84375
vt 0.0703125 0.84375
vt 0.0703125 0.8515625
vt 0.0625 0.8515625
vt 0.462496875 0.703125
vt 0.459378125 0.703125
vt 0.45453984375 0.6953125
vt 0.46733515625 0.6953125
vt 0.018325781528074646 0.8721065758793096
vt 0.016932285997700247 0.90625
vt 0.010365625 0.8990577994506777
vt 0.007479076191082578 0.8646901448869455
vt 0.4363625 0.921875
vt 0.430825 0.921875
vt 0.42223125 0.9140625
vt 0.44495625 0.9140625
vt 0.11600053852104361 1
vt 0.11455310512521924 0.9658589645238177
vt 0.12545097341660386 0.9584226069415513
vt 0.12251731347589671 0.9927994584250242
vn -0.9811525762852591 0.19323462952793632 -2.9307289372295375e-15
vn 0.9811525762852591 0.19323462952793655 5.635311296879477e-15
vn -1.224646799147353e-16 1 -1.224646799147357e-16
vn 1.224646799147353e-16 -1 1.224646799147357e-16
vn 0.6219672512913093 0.12592331033353277 -0.7728518992897527
vn 0.6812506604505931 0.17826058948457219 0.7100145772251748
vn 1.224646799147353e-16 -1 1.224646799147357e-16
vn 1.224646799147353e-16 -1 1.224646799147357e-16
vn -0.4970808904097258 0.17163098521646847 0.850560634701077
vn -2.7278456625818368e-15 0.42985471293507543 0.9028980705303916
vn -1.224646799147353e-16 1 -1.224646799147357e-16
vn -1.224646799147353e-16 1 -1.224646799147357e-16
vn -0.7477128535910247 0.13857104199290832 -0.6494024598781303
vn 2.9290151368364774e-15 0.11532552983065548 -0.9933277516355207
vn -0.9811525762852593 0.19323462952793616 -5.835524086195367e-15
vn -0.9811525762852592 0.19323462952793635 -2.930728937229538e-15
vn 1.224646799147353e-16 -1 1.224646799147357e-16
vn 1.224646799147353e-16 -1 1.224646799147357e-16
vn 1.224646799147353e-16 -1 1.224646799147357e-16
vn 1.224646799147353e-16 -1 1.224646799147357e-16
vn 1.224646799147353e-16 -1 1.224646799147357e-16
vn 1.224646799147353e-16 -1 1.224646799147357e-16
vn 0.9774445797436401 0.19167895851452957 -0.08866380542568895
vn 0.9811525762852591 0.19323462952793663 2.883400103122375e-15
vn -1.224646799147353e-16 1 -1.224646799147357e-16
vn -1.224646799147353e-16 1 -1.224646799147357e-16
vn -1.224646799147353e-16 1 -1.224646799147357e-16
vn -1.224646799147353e-16 1 -1.224646799147357e-16
vn -1.224646799147353e-16 1 -1.224646799147357e-16
vn -1.224646799147353e-16 1 -1.224646799147357e-16
vn 0.9997151123953085 1.195067718779361e-16 -0.023868264462162593
vn -1 -1.224646799147357e-16 -2.9629076969683865e-15
vn -0.62695784894121 -1.7218669048877166e-16 -0.7790531789621369
vn -1 -1.224646799147357e-16 -2.9629076969683865e-15
vn -1 -1.224646799147357e-16 -2.9629076969683865e-15
vn -0.5297035384042136 0.010790257263788518 0.8481142209338534
vn -2.9629076969683865e-15 1.224646799147353e-16 1
vn 2.9629076969683865e-15 -1.224646799147353e-16 -1
vn 1 1.224646799147357e-16 2.9629076969683865e-15
vn 1 1.2246467991473623e-16 7.444792645609021e-15
vn 0.5297343776964657 1.6874383455707665e-16 0.8481635980673412
vn 1 1.2246467991473606e-16 5.909130610213141e-15
vn -0.9994376591818771 0.02355817339500118 -0.023861640248336702
vn 0.6269578489412135 -1.8626305907538292e-17 -0.7790531789621338
vn -9.44059781926435e-16 -0.9340159037924175 0.3572314256372663
vn 0.9911081501095045 0.1242790020986115 -0.04753277210398384
vn -0.9911081501095043 0.12427900209861226 -0.047532772103988805
vn -9.440597819264323e-16 -0.934015903792418 0.35723142563726534
vn -1.6361529769973795e-16 -0.9340159037924174 0.3572314256372663
vn -9.440597819264323e-16 -0.9340159037924177 0.35723142563726534
vn -1.6361529769973657e-16 -0.9340159037924174 0.35723142563726623
vn 2.81115114263359e-15 -0.35723142563726606 -0.9340159037924175
vn 1 -2.660865400557951e-16 1.9470031800490807e-15
vn -2.81115114263359e-15 0.357231425637266 0.9340159037924175
vn -1 7.181093007052968e-17 -2.4549554385087334e-15
vn -1 2.660865400557951e-16 -1.9470031800490807e-15
vn 1 -7.181093007052968e-17 2.4549554385087334e-15
vn -2.6183665913012913e-15 0.5055092306922746 0.8628211968217431
vn 0.7413924297346915 0.10342635578318454 -0.6630537339171696
vn 2.2965085730151433e-15 -0.6641078378935663 -0.7476367966120532
vn -0.6660934396995168 0.10941833980862573 -0.7377988591091683
usemtl m_8af1fcb1-45d2-045a-0a68-e8a7a77c7c93
f 16/41/11 33/42/11 32/43/11 14/44/11
f 18/45/12 38/46/12 37/47/12 20/48/12
f 29/49/13 40/50/13 38/51/13 18/52/13
f 57/53/14 54/54/14 53/55/14 58/56/14
f 20/57/15 24/58/15 29/59/15 18/60/15
f 19/61/16 27/62/16 25/63/16 21/64/16
f 43/65/17 45/66/17 44/67/17 46/68/17
f 24/69/18 35/70/18 34/71/18 22/72/18
f 17/73/19 23/74/19 26/75/19 15/76/19
f 59/77/20 60/78/20 27/79/20 26/80/20
f 14/81/21 32/82/21 42/83/21 28/84/21
f 28/85/22 42/86/22 40/87/22 29/88/22
f 14/89/23 28/90/23 22/91/23 16/92/23
f 69/93/24 70/94/24 71/95/24 72/96/24
f 15/97/25 30/98/25 31/99/25 17/100/25
f 30/101/26 32/102/26 33/103/26 31/104/26
f 49/105/27 47/106/27 48/107/27 50/108/27
f 47/109/28 44/110/28 45/111/28 48/112/28
f 50/113/29 48/114/29 51/115/29 52/116/29
f 48/117/30 45/118/30 53/119/30 51/120/30
f 52/121/31 51/122/31 55/123/31 56/124/31
f 51/125/32 53/126/32 54/127/32 55/128/32
f 21/129/33 36/130/33 13/131/33 19/132/33
f 36/133/34 37/134/34 38/135/34 13/136/34
f 19/137/35 13/138/35 39/139/35 27/140/35
f 13/141/36 38/142/36 40/143/36 39/144/36
f 27/145/37 39/146/37 41/147/37 26/148/37
f 39/149/38 40/150/38 42/151/38 41/152/38
f 26/153/39 41/154/39 30/155/39 15/156/39
f 41/157/40 42/158/40 32/159/40 30/160/40
f 45/161/41 43/162/41 22/163/41 34/164/41
f 46/165/42 44/166/42 33/167/42 16/168/42
f 43/169/43 46/170/43 16/171/43 22/172/43
f 44/173/44 47/174/44 31/175/44 33/176/44
f 47/177/45 49/178/45 17/179/45 31/180/45
f 49/181/46 50/182/46 23/183/46 17/184/46
f 50/185/47 52/186/47 25/187/47 23/188/47
f 53/189/48 45/190/48 34/191/48 35/192/48
f 55/193/49 54/194/49 37/195/49 36/196/49
f 56/197/50 55/198/50 36/199/50 21/200/50
f 52/201/51 56/202/51 21/203/51 25/204/51
f 54/205/52 57/206/52 20/207/52 37/208/52
f 58/209/53 53/210/53 35/211/53 24/212/53
f 57/213/54 58/214/54 24/215/54 20/216/54
f 68/217/55 65/218/55 66/219/55 67/220/55
f 60/221/56 25/222/56 27/223/56
f 59/224/57 26/225/57 23/226/57
f 62/227/58 61/228/58 60/229/58 59/230/58
f 63/231/59 62/232/59 59/233/59 23/234/59
f 64/235/60 63/236/60 23/237/60 25/238/60
f 61/239/61 64/240/61 25/241/61 60/242/61
f 65/243/62 68/244/62 61/245/62 62/246/62
f 66/247/63 65/248/63 62/249/63 63/250/63
f 67/251/64 66/252/64 63/253/64 64/254/64
f 68/255/65 67/256/65 64/257/65 61/258/65
f 62/259/66 65/260/66 66/261/66 63/262/66
f 64/263/67 67/264/67 68/265/67 61/266/67
f 70/267/68 69/268/68 28/269/68 29/270/68
f 71/271/69 70/272/69 29/273/69 24/274/69
f 72/275/70 71/276/70 24/277/70 22/278/70
f 69/279/71 72/280/71 22/281/71 28/282/71
o Thigh
v -0.20729166666666654 0.7015625 -0.06250000000000074
v -0.20729166666666693 0.7015625 0.062499999999999264
v -0.20208333333333317 0.3765624999999998 -0.06250000000000068
v -0.20208333333333356 0.3765624999999998 0.06249999999999932
v -0.07187499999999993 0.6565625 -0.06250000000000033
v -0.07187500000000029 0.6565625 0.062499999999999674
v -0.0718749999999999 0.3765624999999998 -0.06250000000000029
v -0.07187500000000026 0.3765624999999998 0.06249999999999971
v -0.2281249999999999 0.5650624999999999 -0.07812500000000078
v -0.22812500000000036 0.5650624999999999 0.07812499999999922
v -0.07187500000000033 0.5650624999999999 0.07812499999999968
v -0.07187499999999986 0.5650624999999999 -0.07812500000000032
v -0.13749999999999976 0.5650624999999999 -0.09687500000000052
v -0.13749999999999982 0.7040624999999999 -0.07750000000000054
v -0.13750000000000026 0.7040624999999999 0.07749999999999949
v -0.13750000000000032 0.5650624999999999 0.09687499999999949
v -0.13750000000000023 0.3765624999999998 0.07749999999999953
v -0.1374999999999998 0.3765624999999998 -0.0775000000000005
vt 0.25390625 0.9296875
vt 0.255859375 0.953125
vt 0.236328125 0.953125
vt 0.23828125 0.9296875
vt 0.19140625 0.8165625
vt 0.193359375 0.840125
vt 0.173828125 0.840125
vt 0.17578125 0.8165625
vt 0.36328125 0.5703125
vt 0.36515625 0.578125
vt 0.34578125 0.578125
vt 0.34765625 0.5703125
vt 0.238606640625 0.6815625000000001
vt 0.230533984375 0.6834374999999999
vt 0.230533984375 0.6640625
vt 0.238606640625 0.6659375000000001
vt 0.140625 0.7424515625
vt 0.12905703125 0.7424515625
vt 0.12954765625 0.7187703125
vt 0.13783359374999998 0.71875
vt 0.15122245287604658 0.7243877684354422
vt 0.1595107109590746 0.7244073650734821
vt 0.16000237607553916 0.7480890625000001
vt 0.1484375 0.7480890625000001
vt 0.19140625 0.6796875
vt 0.189453125 0.6640625
vt 0.208984375 0.6640625
vt 0.20703125 0.6796875
vt 0.1484375 0.7480890625000001
vt 0.16000546875 0.7480890625000001
vt 0.15951484375 0.765625
vt 0.15059140625 0.765325
vt 0.17578125 0.8515625
vt 0.173828125 0.840125
vt 0.193359375 0.840125
vt 0.19140625 0.8515625
vt 0.13847362141852435 0.7596871603397757
vt 0.12954968402554257 0.7599883203689508
vt 0.12905779730346803 0.7424515625
vt 0.140625 0.7424515625
vt 0.0162233319630425 0.7189475945637109
vt 0.02475446129893459 0.7189929687500001
vt 0.023995608408795444 0.7365196493691726
vt 0.015625 0.7305305136099838
vt 0.44140625 0.6328125
vt 0.44328125 0.640625
vt 0.42390625 0.640625
vt 0.42578125 0.6328125
vt 0.0859375 0.7227624085065679
vt 0.07752898361165982 0.728707625919042
vt 0.07686274046885863 0.71117734375
vt 0.0853870755356001 0.71117734375
vt 0.0853870755356001 0.71117734375
vt 0.0768558255356001 0.71117734375
vt 0.0775214505356001 0.6875
vt 0.0859237942856001 0.6875445312499999
vt 0.222330859375 0.6659375000000001
vt 0.230533984375 0.6640625
vt 0.230533984375 0.6834374999999999
vt 0.222330859375 0.6815625000000001
vt 0.015799773798934588 0.6953125
vt 0.024214617548934586 0.6953125
vt 0.02475446129893459 0.7189929687500001
vt 0.016234930048934587 0.71894765625
vn -0.9905914679213684 -0.1368522695514715 -2.918271515469209e-15
vn 1 1.224646799147357e-16 2.9629076969683865e-15
vn -0.03579793606485861 0.9993590484773209 -2.284521662938213e-16
vn 1.224646799147353e-16 -1 1.224646799147357e-16
vn -0.2015870269920683 -0.10014740123003547 -0.9743372971283454
vn -0.22511074044321092 -0.09962211794776119 0.9692267991304779
vn -0.9885523967182339 0.15087796042708115 -2.947466726222892e-15
vn -0.2007441419376974 0.13524354286719686 0.970263352698857
vn 1 1.224646799147357e-16 2.9629076969683865e-15
vn -0.2128227099273538 0.13489110899099133 -0.967734923857953
vn 0.2722864984807443 0.13283761279298734 -0.9530027446825933
vn 0.5863352796608684 0.8100684784788328 1.6380525361853716e-15
vn 0.3102100678762183 0.13124334134047771 0.9415651327136213
vn 0.2733892154324483 -0.09835122637407441 0.9568622540135786
vn 1.224646799147353e-16 -1 1.224646799147357e-16
vn 0.22171454824222794 -0.09970170956681602 -0.9700011485597321
usemtl m_8af1fcb1-45d2-045a-0a68-e8a7a77c7c93
f 76/283/72 82/284/72 81/285/72 75/286/72
f 79/287/73 84/288/73 83/289/73 80/290/73
f 74/291/74 87/292/74 86/293/74 73/294/74
f 75/295/75 90/296/75 89/297/75 76/298/75
f 81/299/76 85/300/76 90/301/76 75/302/76
f 76/303/77 89/304/77 88/305/77 82/306/77
f 73/307/78 81/308/78 82/309/78 74/310/78
f 82/311/79 88/312/79 87/313/79 74/314/79
f 78/315/80 83/316/80 84/317/80 77/318/80
f 73/319/81 86/320/81 85/321/81 81/322/81
f 84/323/82 85/324/82 86/325/82 77/326/82
f 77/327/83 86/328/83 87/329/83 78/330/83
f 78/331/84 87/332/84 88/333/84 83/334/84
f 83/335/85 88/336/85 89/337/85 80/338/85
f 80/339/86 89/340/86 90/341/86 79/342/86
f 79/343/87 90/344/87 85/345/87 84/346/87
o Toe
v 0.22499999999999928 0.032812499999999856 -0.22500000000000078
v 0.225 0.14531249999999957 0.012499999999999248
v 0.22499999999999928 0.0015624999999998557 -0.22500000000000078
v 0.22499999999999998 0.0015624999999998557 0.012499999999999265
v 0.0499999999999994 0.032812499999999856 -0.22500000000000028
v 0.050000000000000114 0.14531249999999957 0.012499999999999767
v 0.0499999999999994 0.0015624999999998557 -0.22500000000000028
v 0.0500000000000001 0.0015624999999998557 0.012499999999999784
v 0.22499999999999973 0.14531249999999957 -0.08125000000000066
v 0.2249999999999997 0.0015624999999998557 -0.08125000000000063
v 0.04999999999999982 0.0015624999999998557 -0.08125000000000011
v 0.049999999999999836 0.14531249999999957 -0.08125000000000013
vt 0.2140625 0.8984375
vt 0.2140625 0.88046875
vt 0.19609375 0.88046875
vt 0.19609375 0.884375
vt 0.1375 0.77890625
vt 0.1375 0.796875
vt 0.15546875 0.7828125
vt 0.15546875 0.77890625
vt 0.203125 0.953125
vt 0.2265625 0.953125
vt 0.2265625 0.9296875
vt 0.203125 0.9296875
vt 0.18671875 0.78515625
vt 0.16484375 0.78515625
vt 0.16484375 0.803125
vt 0.18671875 0.803125
vt 0.140625 0.9453125
vt 0.1640625 0.9453125
vt 0.1640625 0.9375
vt 0.140625 0.9375
vt 0.2734375 0.75
vt 0.2734375 0.765625
vt 0.296875 0.765625
vt 0.296875 0.75
vt 0.2140625 0.88046875
vt 0.2140625 0.8984375
vt 0.22578125 0.8984375
vt 0.22578125 0.88046875
vt 0.16484375 0.78515625
vt 0.18671875 0.78515625
vt 0.18671875 0.7734375
vt 0.16484375 0.7734375
vt 0.1375 0.796875
vt 0.1375 0.77890625
vt 0.12578125 0.77890625
vt 0.12578125 0.796875
vt 0.296875 0.7265625
vt 0.2734375 0.7265625
vt 0.2734375 0.7421875
vt 0.296875 0.7421875
vn 1 -1.224646799147357e-16 -2.9629076969683865e-15
vn -1 1.224646799147357e-16 2.9629076969683865e-15
vn -1.729622944292371e-15 0.787505001007587 -0.6163082616581094
vn -1.224646799147353e-16 -1 1.224646799147357e-16
vn -2.9629076969683865e-15 -1.224646799147353e-16 -1
vn 2.9629076969683865e-15 1.224646799147353e-16 1
vn 1 -1.224646799147357e-16 -2.9629076969683865e-15
vn -1.224646799147353e-16 -1 1.224646799147357e-16
vn -1 1.224646799147357e-16 2.9629076969683865e-15
vn 1.224646799147353e-16 1 -1.224646799147357e-16
usemtl m_8af1fcb1-45d2-045a-0a68-e8a7a77c7c93
f 99/347/88 100/348/88 93/349/88 91/350/88
f 101/351/89 102/352/89 95/353/89 97/354/89
f 102/355/90 99/356/90 91/357/90 95/358/90
f 100/359/91 101/360/91 97/361/91 93/362/91
f 95/363/92 91/364/92 93/365/92 97/366/92
f 94/367/93 92/368/93 96/369/93 98/370/93
f 100/371/94 99/372/94 92/373/94 94/374/94
f 101/375/95 100/376/95 94/377/95 98/378/95
f 102/379/96 101/380/96 98/381/96 96/382/96
f 99/383/97 102/384/97 96/385/97 92/386/97
o Shin
v 0.05375000000000028 0.42031249999999964 0.054166666666666426
v 0.22124999999999972 0.42031249999999964 -0.06250000000000068
v 0.22125000000000042 0.42031249999999964 0.07499999999999922
v 0.2749999999999998 0.147395833333333 -0.07500000000000082
v 0.27500000000000036 0.17031249999999992 0.10624999999999908
v 0.05374999999999982 0.42031249999999964 -0.0625000000000002
v 0.053750000000000436 0.42031249999999964 0.0749999999999997
v -2.5394758465539785e-16 0.14739583333333306 -0.07500000000000001
v 6.467084006713439e-16 0.17031249999999998 0.1062499999999999
v 0.2284027777777775 0.147395833333333 -0.1125000000000007
v 0.2215277777777784 0.17031249999999998 0.13749999999999926
v 0.046597222222221936 0.14739583333333306 -0.11250000000000017
v 0.05347222222222279 0.17031249999999998 0.13749999999999976
v 0.18868055555555596 0.42031249999999964 0.10624999999999934
v 0.08631944444444486 0.42031249999999964 0.10624999999999964
v 0.18868055555555535 0.42031249999999964 -0.10000000000000062
v 0.08631944444444425 0.42031249999999964 -0.10000000000000032
v 0.2212500000000002 0.42031249999999964 0.037499999999999235
v 0.2750000000000002 0.147395833333333 0.056707317073169866
v 0.22125000000000003 0.42031249999999964 -0.0229166666666674
v 0.27499999999999997 0.147395833333333 -0.027896341463415505
v 0.22840277777777793 0.147395833333333 0.03147865853658464
v 0.04659722222222236 0.14739583333333306 0.03147865853658518
v 2.7506691692589993e-16 0.14739583333333306 0.056707317073170685
v 2.4394085856165992e-17 0.14739583333333306 -0.02789634146341469
v 0.05375000000000005 0.42031249999999964 -0.022916666666666904
v 0.08631944444444471 0.42031249999999964 0.05416666666666633
v 0.08631944444444448 0.42031249999999964 -0.022916666666667
v 0.18868055555555582 0.42031249999999964 0.05416666666666602
v 0.1886805555555556 0.42031249999999964 -0.022916666666667307
v 0.22840277777777748 0.0015624999999998557 -0.11250000000000068
v 0.27499999999999997 0.0015624999999998557 -0.027896341463415488
v 0.22496527777777772 0.0015624999999999112 0.031478658536584665
v 0.2749999999999998 0.0015624999999998557 -0.0750000000000008
v 0.2750000000000002 0.0015624999999998557 0.05670731707316989
v 0.2249652777777779 0.0015624999999999112 0.08795731707317006
v 0.27500000000000036 0.0015624999999998557 0.10624999999999911
v 0.22496527777777806 0.0015624999999999112 0.1374999999999993
v 0.0500347222222225 0.0015624999999999112 0.08795731707317057
v 0.05003472222222265 0.0015624999999999112 0.1374999999999998
v 0.05003472222222233 0.0015624999999999112 0.031478658536585186
v 6.53465336860045e-18 0.0015624999999999112 -0.027896341463414673
v 2.572074844383344e-16 0.0015624999999999112 0.0567073170731707
v 6.260424859357324e-16 0.0015624999999999112 0.10624999999999993
v -2.7180701714296345e-16 0.0015624999999999112 -0.07499999999999998
v 0.04659722222222192 0.0015624999999999112 -0.11250000000000014
v 0.22152777777777857 0.1987110550171005 0.2117507521094431
v 0.05347222222222296 0.1987110550171005 0.2117507521094436
v 0.06980416666666739 0.19362771366903953 0.1984598674818531
v 0.20519583333333405 0.19362771366903953 0.1984598674818527
v 0.20519583333333397 0.17539584134806097 0.15079088462758977
v 0.06980416666666728 0.17539584134806097 0.1507908846275902
v 0.205195833333334 0.24032850885866042 0.1805982961999894
v 0.2051958333333339 0.22209663653768186 0.13292931334572647
v 0.06980416666666722 0.22209663653768186 0.13292931334572686
v 0.06980416666666736 0.24032850885866042 0.1805982961999898
v 0.14997257236227796 0.47865371398559253 -0.13418091988020994
v 0.12502742763772146 0.47865371398559253 -0.1341809198802099
v 0.11534722222222187 0.20727381452398408 -0.16568817480112516
v 0.15965277777777734 0.20727381452398408 -0.1656881748011253
vt 0.08502578125 1
vt 0.08440390625 0.96523046875
vt 0.078515625 0.96523046875
vt 0.080078125 1
vt 0.06404568189341305 0.9183546874999999
vt 0.06342380689341305 0.953125
vt 0.06837146314341305 0.953125
vt 0.06993396314341305 0.9183546874999999
vt 0.06375 0.78072890625
vt 0.06782109375 0.78072890625
vt 0.06782109375 0.77109375
vt 0.06375 0.77578125
vt 0.0398484375 0.8726273437500001
vt 0.03359375 0.88004921875
vt 0.03359375 0.8859375
vt 0.03941875 0.890625
vt 0.010365625 0.8990577994506777
vt 0.0074773437500000005 0.8646695182006776
vt 0 0.8646695182006776
vt 0.0042546875 0.8991960807006777
vt 0.23466015625 0.62449140625
vt 0.23440234375 0.65625
vt 0.24004375 0.65625
vt 0.2421875 0.6241687499999999
vt 0.06796875 0.88004921875
vt 0.0617140625 0.8726273437500001
vt 0.06214375 0.890625
vt 0.06796875 0.8859375
vt 0.2890625 0.8828125
vt 0.265625 0.8828125
vt 0.265625 0.8984375
vt 0.2890625 0.8984375
vt 0.009306017209452573 0.7810250990764438
vt 0.007742187144886479 0.7493043114728357
vt 0 0.7493019665398286
vt 0.0038200113404349284 0.78125
vt 0.01811640625 0.8203125
vt 0.022221875000000002 0.7890625
vt 0.0012156249999999997 0.7890625
vt 0.00532109375 0.8203125
vt 0.08061640625 0.78072890625
vt 0.0846875 0.78072890625
vt 0.0846875 0.77578125
vt 0.08061640625 0.77109375
vt 0.06782109375 0.78072890625
vt 0.08061640625 0.78072890625
vt 0.08061640625 0.77109375
vt 0.06782109375 0.77109375
vt 0.1254516163137448 0.9584150734237001
vt 0.12251731347589671 0.9927994584250242
vt 0.12872397576161498 0.9929543119803
vt 0.1328125 0.9584150734237001
vt 0.09375 0.629975912845282
vt 0.09616723478789087 0.6640625
vt 0.1015625 0.6639521254972975
vt 0.1015625 0.6297799372753534
vt 0.09497890625 0.96523046875
vt 0.092578125 1
vt 0.097265625 1
vt 0.101171875 0.96804140625
vt 0.08440390625 0.96523046875
vt 0.08502578125 1
vt 0.092578125 1
vt 0.09497890625 0.96523046875
vt 0.0617140625 0.86556796875
vt 0.06796875 0.86947421875
vt 0.06796875 0.86328125
vt 0.0617140625 0.859375
vt 0.0617140625 0.8726273437500001
vt 0.06796875 0.88004921875
vt 0.06796875 0.86947421875
vt 0.0617140625 0.86556796875
vt 0.0398484375 0.86556796875
vt 0.0617140625 0.86556796875
vt 0.0617140625 0.859375
vt 0.0398484375 0.859375
vt 0.0398484375 0.8726273437500001
vt 0.0617140625 0.8726273437500001
vt 0.0617140625 0.86556796875
vt 0.0398484375 0.86556796875
vt 0.03359375 0.86947421875
vt 0.0398484375 0.86556796875
vt 0.0398484375 0.859375
vt 0.03359375 0.86328125
vt 0.03359375 0.88004921875
vt 0.0398484375 0.8726273437500001
vt 0.0398484375 0.86556796875
vt 0.03359375 0.86947421875
vt 0.05378786829787714 0.9531248799065981
vt 0.05347068189341305 0.9183546874999999
vt 0.04725353685658695 0.921165454444043
vt 0.051193736150186894 0.9531241763111523
vt 0.06342380689341305 0.953125
vt 0.06404568189341305 0.9183546874999999
vt 0.05347068189341305 0.9183546874999999
vt 0.05378786939341305 0.953125
vt 0.06782109375 0.7903648437499999
vt 0.06375 0.7903648437499999
vt 0.06375 0.79296875
vt 0.06782109375 0.796875
vt 0.06782109375 0.78072890625
vt 0.06375 0.78072890625
vt 0.06375 0.7903648437499999
vt 0.06782109375 0.7903648437499999
vt 0.08061640625 0.7903648437499999
vt 0.06782109375 0.7903648437499999
vt 0.06782109375 0.796875
vt 0.08061640625 0.796875
vt 0.08061640625 0.78072890625
vt 0.06782109375 0.78072890625
vt 0.06782109375 0.7903648437499999
vt 0.08061640625 0.7903648437499999
vt 0.0846875 0.78828125
vt 0.08061640625 0.7903648437499999
vt 0.08061640625 0.796875
vt 0.0846875 0.79296875
vt 0.0846875 0.78072890625
vt 0.08061640625 0.78072890625
vt 0.08061640625 0.7903648437499999
vt 0.0846875 0.78828125
vt 0.328125 0.6484375
vt 0.328125 0.6328125
vt 0.3125 0.6328125
vt 0.31251015625 0.6484375
vt 0.08440390625 0.96523046875
vt 0.08440390625 0.9470015625
vt 0.078515625 0.9470015625
vt 0.078515625 0.96523046875
vt 0.1328125 0.9584150734237001
vt 0.1328125 0.9401861671737002
vt 0.1253359375 0.9401861671737002
vt 0.1253359375 0.9584150734237001
vt 0.09497890625 0.96523046875
vt 0.09497890625 0.9470015625
vt 0.08440390625 0.9470015625
vt 0.08440390625 0.96523046875
vt 0.101171875 0.9680953125
vt 0.101171875 0.9470015625
vt 0.09497890625 0.9470015625
vt 0.09497890625 0.96523046875
vt 0.007742187144886479 0.7493043114728357
vt 0.007378124644886479 0.7282089989728356
vt 0.000003905894886479383 0.7282089989728356
vt 0.000003905894886479383 0.7493019677228356
vt 0.225346875 0.84375
vt 0.2257765625 0.8203125
vt 0.2039109375 0.8203125
vt 0.204340625 0.84375
vt 0.30433125 0.84375
vt 0.3039015625 0.828125
vt 0.2820359375 0.828125
vt 0.28160625 0.84375
vt 0.06404568189341305 0.9183546874999999
vt 0.06404568189341305 0.90012578125
vt 0.05347068189341305 0.90012578125
vt 0.05347068189341305 0.9183546874999999
vt 0.05347068189341305 0.9183546874999999
vt 0.05347068189341305 0.90012578125
vt 0.04727771314341305 0.90012578125
vt 0.04727771314341305 0.92121953125
vt 0.0078125 0.71875
vt 0.0078125 0.6953125
vt 0.0003648437499999997 0.6953125
vt 0 0.71875
vt 0.06993396314341305 0.9183546874999999
vt 0.06993396314341305 0.90012578125
vt 0.06404568189341305 0.90012578125
vt 0.06404568189341305 0.9183546874999999
vt 0.356647265625 0.8828125
vt 0.356657421875 0.8671875
vt 0.338655078125 0.8671875
vt 0.338655078125 0.88280234375
vt 0.0074773437500000005 0.8646695182006776
vt 0.0074773437500000005 0.8464406119506777
vt 0 0.8464406119506777
vt 0 0.8646695182006776
vt 0.3046875 0.7265625
vt 0.3046875 0.734375
vt 0.3203125 0.734375
vt 0.3203125 0.7265625
vt 0.3317765973038301 0.9669080563563358
vt 0.3341277247109759 0.9765625
vt 0.3635359026961699 0.9669080563563358
vt 0.04204777817816789 0.6796875
vt 0.05170222182183211 0.650279322014806
vt 0.042047778178167905 0.6479281946076602
vt 0.412846875 0.88493671875
vt 0.41080546875 0.8831578125
vt 0.39388203125 0.8831578125
vt 0.391840625 0.88493671875
vt 0.391840625 0.88493671875
vt 0.39388203125 0.8831578125
vt 0.39388203125 0.87677890625
vt 0.391840625 0.875
vt 0.391840625 0.875
vt 0.39388203125 0.87677890625
vt 0.41080546875 0.87677890625
vt 0.412846875 0.875
vt 0.412846875 0.875
vt 0.41080546875 0.87677890625
vt 0.41080546875 0.8831578125
vt 0.412846875 0.88493671875
vt 0.2734375 0.96875
vt 0.2734375 0.9765625
vt 0.2890625 0.9765625
vt 0.2890625 0.96875
vt 0 0.8359375
vt 0.0078125 0.8359375
vt 0.0078125 0.828125
vt 0 0.828125
vt 0.1953125 0.75
vt 0.1953125 0.7578125
vt 0.2109375 0.7578125
vt 0.2109375 0.75
vt 0.03125 0.8984375
vt 0.03125 0.90625
vt 0.0390625 0.90625
vt 0.0390625 0.8984375
vt 0.171875 0.9609375
vt 0.1796875 0.9609375
vt 0.1796875 0.953125
vt 0.171875 0.953125
vt 0.0703125 0.8515625
vt 0.0703125 0.84375
vt 0.0625 0.84375
vt 0.0625 0.8515625
vt 0.45453984375 0.6953125
vt 0.459378125 0.703125
vt 0.462496875 0.703125
vt 0.46733515625 0.6953125
vt 0.010365625 0.8990577994506777
vt 0.016932285997700247 0.90625
vt 0.018325781528074646 0.8721065758793096
vt 0.007479076191082578 0.8646901448869455
vt 0.42223125 0.9140625
vt 0.430825 0.921875
vt 0.4363625 0.921875
vt 0.44495625 0.9140625
vt 0.12545097341660386 0.9584226069415513
vt 0.11455310512521924 0.9658589645238177
vt 0.11600053852104361 1
vt 0.12251731347589671 0.9927994584250242
vn 0.9811525762852591 0.19323462952793632 -2.9307289372295375e-15
vn -0.9811525762852591 0.19323462952793657 5.561786952008105e-15
vn 1.224646799147353e-16 1 -1.224646799147357e-16
vn -1.224646799147353e-16 -1 1.224646799147357e-16
vn -0.6219672512913094 0.12592331033353277 -0.7728518992897528
vn -0.6812506604505931 0.17826058948457219 0.7100145772251748
vn -1.224646799147353e-16 -1 1.224646799147357e-16
vn -1.224646799147353e-16 -1 1.224646799147357e-16
vn 0.4970808904097258 0.17163098521646844 0.850560634701077
vn 2.7278456625818368e-15 0.42985471293507543 0.9028980705303916
vn 1.224646799147353e-16 1 -1.224646799147357e-16
vn 1.224646799147353e-16 1 -1.224646799147357e-16
vn 0.7477128535910247 0.13857104199290832 -0.6494024598781303
vn -2.9290151368364774e-15 0.11532552983065547 -0.9933277516355207
vn 0.9811525762852592 0.1932346295279362 -5.757915055497807e-15
vn 0.9811525762852592 0.19323462952793635 -2.930728937229538e-15
vn -1.224646799147353e-16 -1 1.224646799147357e-16
vn -1.224646799147353e-16 -1 1.224646799147357e-16
vn -1.224646799147353e-16 -1 1.224646799147357e-16
vn -1.224646799147353e-16 -1 1.224646799147357e-16
vn -1.224646799147353e-16 -1 1.224646799147357e-16
vn -1.224646799147353e-16 -1 1.224646799147357e-16
vn -0.9774445797436401 0.19167895851452957 -0.08866380542568886
vn -0.9811525762852591 0.1932346295279366 2.883400103122375e-15
vn 1.224646799147353e-16 1 -1.224646799147357e-16
vn 1.224646799147353e-16 1 -1.224646799147357e-16
vn 1.224646799147353e-16 1 -1.224646799147357e-16
vn 1.224646799147353e-16 1 -1.224646799147357e-16
vn 1.224646799147353e-16 1 -1.224646799147357e-16
vn 1.224646799147353e-16 1 -1.224646799147357e-16
vn -0.9997151123953085 1.195067718779361e-16 -0.023868264462162593
vn 1 -1.224646799147357e-16 -2.9629076969683865e-15
vn 0.62695784894121 -1.7218669048877166e-16 -0.7790531789621369
vn 1 -1.224646799147357e-16 -2.9629076969683865e-15
vn 1 -1.224646799147357e-16 -2.9629076969683865e-15
vn 0.5297035384042136 0.010790257263788506 0.8481142209338534
vn 2.9629076969683865e-15 1.224646799147353e-16 1
vn -2.9629076969683865e-15 -1.224646799147353e-16 -1
vn -1 1.224646799147357e-16 2.9629076969683865e-15
vn -1 1.2246467991473623e-16 7.444792645609021e-15
vn -0.5297343776964657 1.6874383455707665e-16 0.8481635980673412
vn -1 1.2246467991473606e-16 5.909130610213141e-15
vn 0.9994376591818771 0.02355817339500118 -0.023861640248336702
vn -0.6269578489412135 -1.8626305907538292e-17 -0.7790531789621338
vn 9.440597819264354e-16 -0.9340159037924175 0.35723142563726634
vn -0.9911081501095045 0.1242790020986115 -0.04753277210398384
vn 0.9911081501095043 0.12427900209861226 -0.04753277210398883
vn 9.440597819264323e-16 -0.9340159037924177 0.35723142563726534
vn -3.149582335693643e-17 -0.9340159037924175 0.3572314256372664
vn 9.440597819264323e-16 -0.9340159037924177 0.35723142563726534
vn -3.149582335693761e-17 -0.9340159037924174 0.35723142563726634
vn -2.81115114263359e-15 -0.35723142563726606 -0.9340159037924175
vn -1 -2.660865400557951e-16 1.9470031800490807e-15
vn 2.81115114263359e-15 0.357231425637266 0.9340159037924175
vn 1 7.181093007052968e-17 -2.4549554385087334e-15
vn 1 2.660865400557951e-16 -1.9470031800490807e-15
vn -1 -7.181093007052968e-17 2.4549554385087334e-15
vn 2.6183665913012917e-15 0.5055092306922744 0.8628211968217432
vn -0.7413924297346915 0.10342635578318453 -0.6630537339171695
vn -2.2965085730151433e-15 -0.6641078378935665 -0.7476367966120532
vn 0.666093439699517 0.10941833980862573 -0.7377988591091682
usemtl m_8af1fcb1-45d2-045a-0a68-e8a7a77c7c93
f 122/387/98 123/388/98 106/389/98 104/390/98
f 127/391/99 128/392/99 108/393/99 110/394/99
f 128/395/100 130/396/100 119/397/100 108/398/100
f 143/399/101 144/400/101 147/401/101 148/402/101
f 119/403/102 114/404/102 110/405/102 108/406/102
f 115/407/103 117/408/103 109/409/103 111/410/103
f 134/411/104 135/412/104 133/413/104 136/414/104
f 124/415/105 125/416/105 114/417/105 112/418/105
f 116/419/106 113/420/106 107/421/106 105/422/106
f 117/423/107 150/424/107 149/425/107 116/426/107
f 132/427/108 122/428/108 104/429/108 118/430/108
f 130/431/109 132/432/109 118/433/109 119/434/109
f 112/435/110 118/436/110 104/437/110 106/438/110
f 161/439/111 160/440/111 159/441/111 162/442/111
f 121/443/112 120/444/112 105/445/112 107/446/112
f 123/447/113 122/448/113 120/449/113 121/450/113
f 138/451/114 137/452/114 139/453/114 140/454/114
f 135/455/115 134/456/115 137/457/115 138/458/115
f 141/459/116 138/460/116 140/461/116 142/462/116
f 143/463/117 135/464/117 138/465/117 141/466/117
f 145/467/118 141/468/118 142/469/118 146/470/118
f 144/471/119 143/472/119 141/473/119 145/474/119
f 103/475/120 126/476/120 111/477/120 109/478/120
f 128/479/121 127/480/121 126/481/121 103/482/121
f 129/483/122 103/484/122 109/485/122 117/486/122
f 130/487/123 128/488/123 103/489/123 129/490/123
f 131/491/124 129/492/124 117/493/124 116/494/124
f 132/495/125 130/496/125 129/497/125 131/498/125
f 120/499/126 131/500/126 116/501/126 105/502/126
f 122/503/127 132/504/127 131/505/127 120/506/127
f 112/507/128 133/508/128 135/509/128 124/510/128
f 123/511/129 134/512/129 136/513/129 106/514/129
f 106/515/130 136/516/130 133/517/130 112/518/130
f 121/519/131 137/520/131 134/521/131 123/522/131
f 107/523/132 139/524/132 137/525/132 121/526/132
f 113/527/133 140/528/133 139/529/133 107/530/133
f 115/531/134 142/532/134 140/533/134 113/534/134
f 124/535/135 135/536/135 143/537/135 125/538/135
f 127/539/136 144/540/136 145/541/136 126/542/136
f 126/543/137 145/544/137 146/545/137 111/546/137
f 111/547/138 146/548/138 142/549/138 115/550/138
f 110/551/139 147/552/139 144/553/139 127/554/139
f 125/555/140 143/556/140 148/557/140 114/558/140
f 114/559/141 148/560/141 147/561/141 110/562/141
f 156/563/142 155/564/142 158/565/142 157/566/142
f 115/567/143 150/568/143 117/569/143
f 116/570/144 149/571/144 113/572/144
f 150/573/145 151/574/145 152/575/145 149/576/145
f 149/577/146 152/578/146 153/579/146 113/580/146
f 113/581/147 153/582/147 154/583/147 115/584/147
f 115/585/148 154/586/148 151/587/148 150/588/148
f 151/589/149 158/590/149 155/591/149 152/592/149
f 152/593/150 155/594/150 156/595/150 153/596/150
f 153/597/151 156/598/151 157/599/151 154/600/151
f 154/601/152 157/602/152 158/603/152 151/604/152
f 156/605/153 155/606/153 152/607/153 153/608/153
f 158/609/154 157/610/154 154/611/154 151/612/154
f 118/613/155 159/614/155 160/615/155 119/616/155
f 119/617/156 160/618/156 161/619/156 114/620/156
f 114/621/157 161/622/157 162/623/157 112/624/157
f 112/625/158 162/626/158 159/627/158 118/628/158
o Thigh
v 0.20729166666666654 0.7015625 -0.06250000000000074
v 0.20729166666666693 0.7015625 0.062499999999999264
v 0.20208333333333317 0.3765624999999998 -0.06250000000000068
v 0.20208333333333356 0.3765624999999998 0.06249999999999932
v 0.07187499999999993 0.6565625 -0.06250000000000033
v 0.07187500000000029 0.6565625 0.062499999999999674
v 0.0718749999999999 0.3765624999999998 -0.06250000000000029
v 0.07187500000000026 0.3765624999999998 0.06249999999999971
v 0.2281249999999999 0.5650624999999999 -0.07812500000000078
v 0.22812500000000036 0.5650624999999999 0.07812499999999922
v 0.07187500000000033 0.5650624999999999 0.07812499999999968
v 0.07187499999999986 0.5650624999999999 -0.07812500000000032
v 0.13749999999999976 0.5650624999999999 -0.09687500000000052
v 0.13749999999999982 0.7040624999999999 -0.07750000000000054
v 0.13750000000000026 0.7040624999999999 0.07749999999999949
v 0.13750000000000032 0.5650624999999999 0.09687499999999949
v 0.13750000000000023 0.3765624999999998 0.07749999999999953
v 0.1374999999999998 0.3765624999999998 -0.0775000000000005
vt 0.236328125 0.953125
vt 0.255859375 0.953125
vt 0.25390625 0.9296875
vt 0.23828125 0.9296875
vt 0.173828125 0.840125
vt 0.193359375 0.840125
vt 0.19140625 0.8165625
vt 0.17578125 0.8165625
vt 0.34578125 0.578125
vt 0.36515625 0.578125
vt 0.36328125 0.5703125
vt 0.34765625 0.5703125
vt 0.230533984375 0.6640625
vt 0.230533984375 0.6834374999999999
vt 0.238606640625 0.6815625000000001
vt 0.238606640625 0.6659375000000001
vt 0.12954765625 0.7187703125
vt 0.12905703125 0.7424515625
vt 0.140625 0.7424515625
vt 0.13783359374999998 0.71875
vt 0.16000237607553916 0.7480890625000001
vt 0.1595107109590746 0.7244073650734821
vt 0.15122245287604658 0.7243877684354422
vt 0.1484375 0.7480890625000001
vt 0.208984375 0.6640625
vt 0.189453125 0.6640625
vt 0.19140625 0.6796875
vt 0.20703125 0.6796875
vt 0.15951484375 0.765625
vt 0.16000546875 0.7480890625000001
vt 0.1484375 0.7480890625000001
vt 0.15059140625 0.765325
vt 0.193359375 0.840125
vt 0.173828125 0.840125
vt 0.17578125 0.8515625
vt 0.19140625 0.8515625
vt 0.12905779730346803 0.7424515625
vt 0.12954968402554257 0.7599883203689508
vt 0.13847362141852435 0.7596871603397757
vt 0.140625 0.7424515625
vt 0.023995608408795444 0.7365196493691726
vt 0.02475446129893459 0.7189929687500001
vt 0.0162233319630425 0.7189475945637109
vt 0.015625 0.7305305136099838
vt 0.42390625 0.640625
vt 0.44328125 0.640625
vt 0.44140625 0.6328125
vt 0.42578125 0.6328125
vt 0.07686274046885863 0.71117734375
vt 0.07752898361165982 0.728707625919042
vt 0.0859375 0.7227624085065679
vt 0.0853870755356001 0.71117734375
vt 0.0775214505356001 0.6875
vt 0.0768558255356001 0.71117734375
vt 0.0853870755356001 0.71117734375
vt 0.0859237942856001 0.6875445312499999
vt 0.230533984375 0.6834374999999999
vt 0.230533984375 0.6640625
vt 0.222330859375 0.6659375000000001
vt 0.222330859375 0.6815625000000001
vt 0.02475446129893459 0.7189929687500001
vt 0.024214617548934586 0.6953125
vt 0.015799773798934588 0.6953125
vt 0.016234930048934587 0.71894765625
vn 0.9905914679213684 -0.1368522695514715 -2.918271515469209e-15
vn -1 1.224646799147357e-16 2.9629076969683865e-15
vn 0.0357979360648586 0.9993590484773209 -2.284521662938213e-16
vn -1.224646799147353e-16 -1 1.224646799147357e-16
vn 0.20158702699206826 -0.10014740123003549 -0.9743372971283454
vn 0.22511074044321094 -0.09962211794776119 0.9692267991304779
vn 0.9885523967182339 0.15087796042708115 -2.947466726222892e-15
vn 0.20074414193769743 0.13524354286719686 0.970263352698857
vn -1 1.224646799147357e-16 2.9629076969683865e-15
vn 0.2128227099273538 0.13489110899099133 -0.967734923857953
vn -0.2722864984807443 0.13283761279298734 -0.9530027446825933
vn -0.5863352796608684 0.8100684784788329 1.6380525361853716e-15
vn -0.3102100678762183 0.13124334134047771 0.9415651327136213
vn -0.27338921543244826 -0.0983512263740744 0.9568622540135785
vn -1.224646799147353e-16 -1 1.224646799147357e-16
vn -0.22171454824222797 -0.09970170956681602 -0.9700011485597321
usemtl m_8af1fcb1-45d2-045a-0a68-e8a7a77c7c93
f 171/629/159 172/630/159 166/631/159 165/632/159
f 173/633/160 174/634/160 169/635/160 170/636/160
f 176/637/161 177/638/161 164/639/161 163/640/161
f 179/641/162 180/642/162 165/643/162 166/644/162
f 180/645/163 175/646/163 171/647/163 165/648/163
f 178/649/164 179/650/164 166/651/164 172/652/164
f 172/653/165 171/654/165 163/655/165 164/656/165
f 177/657/166 178/658/166 172/659/166 164/660/166
f 174/661/167 173/662/167 168/663/167 167/664/167
f 175/665/168 176/666/168 163/667/168 171/668/168
f 176/669/169 175/670/169 174/671/169 167/672/169
f 177/673/170 176/674/170 167/675/170 168/676/170
f 178/677/171 177/678/171 168/679/171 173/680/171
f 179/681/172 178/682/172 173/683/172 170/684/172
f 180/685/173 179/686/173 170/687/173 169/688/173
f 175/689/174 180/690/174 169/691/174 174/692/174
o Pelvis
v -0.13749999999999984 0.7890624999999994 -0.10036764705882407
v -0.13750000000000046 0.7890624999999994 0.10036764705882299
v -0.13749999999999984 0.6678539078674947 -0.10036764705882406
v -0.13750000000000046 0.6678539078674947 0.100367647058823
v 0.13750000000000018 0.7890624999999994 -0.10036764705882326
v 0.13749999999999957 0.7890624999999994 0.10036764705882381
v 0.13750000000000018 0.6678539078674947 -0.10036764705882324
v 0.13749999999999957 0.6678539078674947 0.10036764705882383
v -0.04583333333333307 0.6078124999999999 -0.13125000000000026
v -0.04583333333333385 0.6078124999999999 0.13124999999999976
v 0.045833333333333615 0.6078124999999999 -0.13125
v 0.04583333333333284 0.6078124999999999 0.13125000000000003
v -0.04583333333333387 0.7890624999999994 0.13124999999999973
v 0.04583333333333282 0.7890624999999994 0.13125
v -0.045833333333333094 0.7890624999999994 -0.13125000000000028
v 0.045833333333333594 0.7890624999999994 -0.13125
v 0.13750000000000012 0.7646653920807452 -0.08076360294117618
v 0.13749999999999965 0.7771653920807452 0.08076360294117674
v 0.13750000000000012 0.7422510157867491 -0.08076360294117618
v 0.13749999999999965 0.7297510157867492 0.08076360294117674
v -0.1374999999999999 0.7646653920807452 -0.080763602941177
v -0.1374999999999999 0.7422510157867491 -0.08076360294117699
v -0.13750000000000037 0.7771653920807452 0.08076360294117592
v -0.13750000000000037 0.7297510157867492 0.08076360294117592
v -0.20000000000000034 0.7646653920807452 0.14326360294117574
v -0.20000000000000034 0.7422510157867491 0.14326360294117574
v 0.19999999999999968 0.7646653920807452 0.1432636029411769
v 0.19999999999999968 0.7422510157867491 0.14326360294117693
vt 0.08046875 0.90854765625
vt 0.09192734375 0.9046875
vt 0.09192734375 0.9375
vt 0.08046875 0.93363984375
vt 0.21011015625 0.921875
vt 0.20625 0.90625
vt 0.2390625 0.90625
vt 0.23520234375 0.921875
vt 0.21875 0.70359921875
vt 0.234375 0.69609375
vt 0.234375 0.71875
vt 0.21875 0.71875
vt 0.2578125 0.71875
vt 0.2421875 0.71875
vt 0.2421875 0.69609375
vt 0.2578125 0.70359921875
vt 0.21011015625 0.8671875
vt 0.20625 0.8515625
vt 0.2390625 0.8515625
vt 0.23520234375 0.8671875
vt 0.3046875 0.6484375
vt 0.296875 0.6484375
vt 0.296875 0.6171875
vt 0.3046875 0.6171875
vt 0.265625 0.70359921875
vt 0.28125 0.69609375
vt 0.28125 0.71875
vt 0.265625 0.71875
vt 0.09375 0.8671875
vt 0.1015625 0.8671875
vt 0.1015625 0.890625
vt 0.09375 0.890625
vt 0.11484375 0.93363984375
vt 0.10338515625 0.9375
vt 0.10338515625 0.9046875
vt 0.11484375 0.90854765625
vt 0.10338515625 0.9375
vt 0.09192734375 0.9375
vt 0.09192734375 0.9046875
vt 0.10338515625 0.9046875
vt 0.3046875 0.9296875
vt 0.2890625 0.9296875
vt 0.2890625 0.90703125
vt 0.3046875 0.91453671875
vt 0.15625 0.890625
vt 0.1484375 0.890625
vt 0.1484375 0.8671875
vt 0.15625 0.8671875
vt 0.2757203125 0.918825
vt 0.2757203125 0.9160234375
vt 0.27817109375 0.90672421875
vt 0.27817109375 0.921875
vt 0.2555296875 0.9203875
vt 0.2757203125 0.918825
vt 0.27817109375 0.921875
vt 0.25307890625 0.921875
vt 0.2555296875 0.9144609375
vt 0.2555296875 0.9203875
vt 0.25307890625 0.921875
vt 0.25307890625 0.90672421875
vt 0.2757203125 0.9160234375
vt 0.2555296875 0.9144609375
vt 0.25307890625 0.90672421875
vt 0.27817109375 0.90672421875
vt 0.2555296875 0.8641375
vt 0.2757203125 0.8657
vt 0.27817109375 0.8671875
vt 0.25307890625 0.8671875
vt 0.2555296875 0.8613359375
vt 0.2555296875 0.8641375
vt 0.25307890625 0.8671875
vt 0.25307890625 0.85203671875
vt 0.2757203125 0.8597734375
vt 0.2555296875 0.8613359375
vt 0.25307890625 0.85203671875
vt 0.27817109375 0.85203671875
vt 0.2757203125 0.8657
vt 0.2757203125 0.8597734375
vt 0.27817109375 0.85203671875
vt 0.27817109375 0.8671875
vt 0.453125 0.80685390625
vt 0.44350078125 0.8125
vt 0.42405234375 0.80685390625
vt 0.390625 0.8984375
vt 0.390625 0.90625
vt 0.359375 0.90625
vt 0.359375 0.8984375
vt 0.453125 0.84158359375
vt 0.42405234375 0.84158359375
vt 0.44350078125 0.8359375
vt 0.4810291229925044 0.890625
vt 0.48063682208679837 0.8878510402957526
vt 0.4913576074537964 0.8847568298057945
vt 0.4921875 0.890625
vt 0.359375 0.734375
vt 0.359375 0.7265625
vt 0.390625 0.7265625
vt 0.390625 0.734375
vt 0.421875 0.82247890625
vt 0.45094765625 0.82247890625
vt 0.43149921875 0.828125
vt 0.0580333770074956 0.53125
vt 0.05842567791320165 0.5359682895100419
vt 0.047704892546203595 0.5390625
vt 0.046875 0.53125
vt 0.421875 0.88064609375
vt 0.43149921875 0.875
vt 0.45094765625 0.88064609375
vn -1.224646799147353e-16 1 -1.224646799147357e-16
vn 0.547923688440741 -0.8365283208866833 1.7258924868893783e-15
vn 0.3192667777280183 -7.695657244431613e-17 -0.9476648799228387
vn 0.31926677772801265 1.5515437992805709e-16 0.9476648799228407
vn -0.5479236884407408 -0.8365283208866834 -1.5210021407753805e-15
vn 1.224646799147353e-16 -1 1.224646799147357e-16
vn -0.3192667777280184 7.695657244431611e-17 0.9476648799228387
vn -2.9629076969683865e-15 1.224646799147353e-16 1
vn -1.224646799147353e-16 1 -1.224646799147357e-16
vn -1.224646799147353e-16 1 -1.224646799147357e-16
vn -0.31926677772801276 -1.551543799280571e-16 -0.9476648799228407
vn 2.9629076969683865e-15 -1.224646799147353e-16 -1
vn 1 1.224646799147357e-16 2.9629076969683865e-15
vn 1 1.224646799147357e-16 2.9629076969683865e-15
vn 1 1.224646799147357e-16 2.9629076969683865e-15
vn 1 1.224646799147357e-16 2.9629076969683865e-15
vn -1 -1.224646799147357e-16 -2.9629076969683865e-15
vn -1 -1.224646799147357e-16 -2.9629076969683865e-15
vn -1 -1.224646799147357e-16 -2.9629076969683865e-15
vn -1 -1.224646799147357e-16 -2.9629076969683865e-15
vn -0.2665535787734936 0.9609470114945463 -0.0743641764745851
vn -0.9632176939101087 -1.508691369420479e-16 -0.2687222992951876
vn -0.26655357877349345 -0.9609470114945465 -0.07436417647458488
vn 0.7071067811865467 1.731912112470989e-16 0.7071067811865483
vn 0.9632176939101098 8.505115620377463e-17 -0.26872229929518376
vn 0.26655357877349206 0.960947011494547 -0.07436417647458357
vn -0.7071067811865485 1.232595164407831e-32 0.7071067811865467
vn 0.2665535787734923 -0.960947011494547 -0.07436417647458334
usemtl m_8af1fcb1-45d2-045a-0a68-e8a7a77c7c93
f 185/693/175 196/694/175 194/695/175 186/696/175
f 188/697/176 192/698/176 191/699/176 187/700/176
f 187/701/177 191/702/177 196/703/177 185/704/177
f 186/705/178 194/706/178 192/707/178 188/708/178
f 183/709/179 189/710/179 190/711/179 184/712/179
f 189/713/180 191/714/180 192/715/180 190/716/180
f 184/717/181 190/718/181 193/719/181 182/720/181
f 190/721/182 192/722/182 194/723/182 193/724/182
f 182/725/183 193/726/183 195/727/183 181/728/183
f 193/729/184 194/730/184 196/731/184 195/732/184
f 181/733/185 195/734/185 189/735/185 183/736/185
f 195/737/186 196/738/186 191/739/186 189/740/186
f 197/741/187 199/742/187 187/743/187 185/744/187
f 198/745/188 197/746/188 185/747/188 186/748/188
f 200/749/189 198/750/189 186/751/189 188/752/189
f 199/753/190 200/754/190 188/755/190 187/756/190
f 201/757/191 203/758/191 182/759/191 181/760/191
f 202/761/192 201/762/192 181/763/192 183/764/192
f 204/765/193 202/766/193 183/767/193 184/768/193
f 203/769/194 204/770/194 184/771/194 182/772/194
f 205/773/195 203/774/195 201/775/195
f 206/776/196 205/777/196 201/778/196 202/779/196
f 206/780/197 202/781/197 204/782/197
f 205/783/198 206/784/198 204/785/198 203/786/198
f 207/787/199 208/788/199 199/789/199 197/790/199
f 207/791/200 197/792/200 198/793/200
f 208/794/201 207/795/201 198/796/201 200/797/201
f 208/798/202 200/799/202 199/800/202
o cylinder
v -0.21109926442140153 0.8617765857600449 0.1717800000000002
v 0.12280186604905528 1.1265624999999995 0.15000000000000027
v 0.12280186604905528 1.1265624999999997 -0.16249999999999973
v 0.166476252168559 1.0894930231718578 0.15000000000000027
v 0.166476252168559 1.089493023171858 -0.16249999999999973
v 0.18573361736797814 0.9890625000000001 0.15000000000000024
v 0.18573361736797814 0.9890625000000001 -0.16249999999999976
v 0.166476252168559 0.9198819768281422 0.15000000000000024
v 0.166476252168559 0.9198819768281422 -0.16249999999999978
v 0.06358827000869118 0.8578125000000002 0.15000000000000022
v 0.06358827000869118 0.8578125000000003 -0.16249999999999978
v -0.0635882700086912 0.8578125000000002 0.15000000000000022
v -0.0635882700086912 0.8578125000000003 -0.16249999999999978
v -0.16647625216855896 0.919881976828142 0.15000000000000024
v -0.16647625216855896 0.919881976828142 -0.16249999999999978
v -0.18573361736797814 0.9890625000000001 0.15000000000000024
v -0.18573361736797814 0.9890625000000001 -0.16249999999999976
v -0.16647625216855905 1.0894930231718578 0.15000000000000027
v -0.16647625216855905 1.089493023171858 -0.16249999999999973
v -0.12280186604905534 1.1265624999999995 0.15000000000000027
v -0.12280186604905534 1.1265624999999997 -0.16249999999999973
v -0.0635882700086912 0.8265625000000002 0.10250000000000023
v -0.15083727888025908 0.8791974163502644 0.10250000000000023
v -0.15083727888025908 0.8791974163502644 -0.1149999999999998
v -0.05739484419343918 0.8265625000000002 -0.1149999999999998
v 0.06358827000869118 0.8265625000000002 0.10250000000000023
v 0.05739484419343915 0.8265625000000002 -0.1149999999999998
v 0.1508372788802591 0.8791974163502646 0.10250000000000023
v 0.1508372788802591 0.8791974163502646 -0.1149999999999998
v -0.055398636109564775 0.7991139586194459 0.10250000000000022
v -0.12619963169912957 0.7991139586194459 0.10250000000000022
v -0.12619963169912957 0.7991139586194459 -0.11499999999999982
v -0.055398636109564775 0.7991139586194459 -0.11499999999999982
v 0.05539863610956481 0.7991139586194459 0.10250000000000022
v 0.05539863610956481 0.7991139586194459 -0.11499999999999982
v 0.12619963169912968 0.7991139586194459 0.10250000000000022
v 0.12619963169912968 0.7991139586194459 -0.11499999999999982
v -0.08794098283178711 1.1265624999999995 0.11250000000000027
v 0.08794098283178706 1.1265624999999995 0.11250000000000027
v 0.08794098283178706 1.1265624999999997 -0.05624999999999969
v -0.08794098283178711 1.1265624999999997 -0.05624999999999969
v -0.06591420802962007 1.2390625000000002 0.10000000000000031
v 0.06591420802962002 1.2390625000000002 0.10000000000000031
v 0.06591420802962002 1.2390625000000002 -0.006249999999999659
v -0.06591420802962007 1.2390625000000002 -0.006249999999999659
v -0.1623271854872062 1.0930146234705314 0.12031250000000027
v -0.1269509327304082 1.123040899701326 0.12031250000000027
v -0.14031249736491325 1.1257045319723284 -0.13281249999999972
v -0.16391096646778294 1.1055146234705315 -0.13281249999999972
v 0.12695093273040814 1.123040899701326 0.12031250000000027
v 0.16232718548720615 1.0930146234705314 0.12031250000000027
v 0.1639109664677829 1.1055146234705315 -0.13281249999999972
v 0.1403124973649132 1.1257045319723284 -0.13281249999999972
v -0.19385609766499104 1.1366391560765954 0.18281250000000027
v -0.17025762856212137 1.156829064578392 0.18281250000000027
v 0.17025762856212132 1.156829064578392 0.18281250000000027
v 0.19385609766499098 1.1366391560765954 0.18281250000000027
v -0.0921013995367915 1.0921874999999999 -0.16249999999999973
v 0.09210139953679146 1.0921874999999999 -0.16249999999999973
v -0.12485718912641929 1.0643853923788935 -0.16249999999999973
v -0.1393002130259836 0.9890625000000001 -0.16249999999999976
v -0.12485718912641922 0.9371771076211065 -0.16249999999999976
v -0.047691202506518406 0.8906250000000001 -0.16249999999999978
v 0.047691202506518385 0.8906250000000001 -0.16249999999999978
v 0.12485718912641924 0.9371771076211067 -0.16249999999999976
v 0.1393002130259836 0.9890625000000001 -0.16249999999999976
v 0.12485718912641924 1.0643853923788935 -0.16249999999999973
v -0.03909564558537437 1.0421874999999998 -0.0562499999999997
v 0.03909564558537436 1.0421874999999998 -0.0562499999999997
v 1.9130577888605266e-18 0.9902252906976744 -0.05624999999999972
v -0.05299998088435777 1.0281786860823883 -0.0562499999999997
v -0.059130825218953305 0.9902252906976744 -0.05624999999999972
v -0.052999980884357735 0.9640814883362164 -0.05624999999999972
v -0.020244191294729968 0.9406250000000002 -0.05624999999999973
v 0.020244191294729964 0.9406250000000002 -0.05624999999999973
v 0.05299998088435775 0.9640814883362167 -0.05624999999999972
v 0.05913082521895331 0.9902252906976744 -0.05624999999999972
v 0.05299998088435775 1.0281786860823883 -0.0562499999999997
v 0.10556422956094784 0.9908066860465116 0.25625000000000026
v 0.09461904392649752 1.0351829637270997 0.25625000000000026
v 0.06979611209763818 1.0515624999999995 0.2562500000000003
v -0.0697961120976382 1.0515624999999995 0.2562500000000003
v -0.09461904392649753 1.0351829637270997 0.25625000000000026
v -0.10556422956094784 0.9908066860465116 0.25625000000000026
v -0.09461904392649748 0.960238547900807 0.25625000000000026
v -0.036141258796902775 0.9328125000000002 0.25625000000000026
v 0.036141258796902755 0.9328125000000002 0.25625000000000026
v 0.09461904392649752 0.9602385479008072 0.25625000000000026
v 0.09131305857021987 0.9908066860465116 0.25625000000000026
v 0.08184547299642034 1.0291921662402204 0.25625000000000026
v 0.060373636964457016 1.0433604651162787 0.25625000000000026
v -0.06037363696445704 1.0433604651162787 0.25625000000000026
v -0.08184547299642037 1.0291921662402204 0.25625000000000026
v -0.09131305857021987 0.9908066860465116 0.25625000000000026
v -0.08184547299642032 0.9643652465504772 0.25625000000000026
v -0.031262188859320895 0.9406417151162793 0.25625000000000026
v 0.03126218885932088 0.9406417151162793 0.25625000000000026
v 0.08184547299642034 0.9643652465504774 0.25625000000000026
v 0.06458992930120977 0.9908066860465116 0.18125000000000024
v 0.05789307024906651 1.0291921662402204 0.18125000000000024
v 1.9130577888605266e-18 0.9908066860465116 0.18125000000000024
v 0.04270505231398465 1.0433604651162787 0.18125000000000024
v -0.042705052313984665 1.0433604651162787 0.18125000000000024
v -0.05789307024906653 1.0291921662402204 0.18125000000000024
v -0.06458992930120977 0.9908066860465116 0.18125000000000024
v -0.05789307024906649 0.9643652465504772 0.18125000000000024
v -0.022113185122058083 0.9406417151162793 0.18125000000000024
v 0.022113185122058076 0.9406417151162793 0.18125000000000024
v 0.05789307024906651 0.9643652465504774 0.18125000000000024
v 0.15276087259472 0.8842016172890436 0.09365500000000021
v 0.15276087259472 0.8842016172890436 -0.13740499999999978
v 0.1645526584540981 0.9148777758893633 -0.10615499999999978
v 0.1645526584540981 0.9148777758893633 0.09365500000000022
v -0.15276087259471996 0.8842016172890433 -0.10615499999999978
v -0.15276087259471996 0.8842016172890433 0.09365500000000021
v -0.16455265845409808 0.914877775889363 0.09365500000000022
v -0.16455265845409808 0.914877775889363 -0.10615499999999978
v 0.21109926442140156 0.8617765857600451 0.1717800000000002
v 0.22289105028077968 0.8924527443603648 0.1717800000000002
v -0.22289105028077966 0.8924527443603646 0.1717800000000002
vt 0.40958046875 0.78450625
vt 0.40768203125 0.78627734375
vt 0.40234375 0.7797078125
vt 0.36426171875 0.5888671875
vt 0.366 0.5906179687499999
vt 0.359375 0.5953625
vt 0.4104171875 0.7797078125
vt 0.40958046875 0.78450625
vt 0.40234375 0.7797078125
vt 0.0546875 0.9609375
vt 0.0703125 0.9609375
vt 0.0703125 1
vt 0.0546875 1
vt 0.366 0.5906179687499999
vt 0.36676640625 0.5953625
vt 0.359375 0.5953625
vt 0.40958046875 0.7764023437500001
vt 0.4104171875 0.7797078125
vt 0.40234375 0.7797078125
vt 0.203125 0.9609375
vt 0.21210078125 0.9609375
vt 0.21210078125 1
vt 0.203125 1
vt 0.36676640625 0.5953625
vt 0.366 0.59863046875
vt 0.359375 0.5953625
vt 0.4051078125 0.7734375
vt 0.40958046875 0.7764023437500001
vt 0.40234375 0.7797078125
vt 0.12875625 0.9025
vt 0.13760624999999999 0.9025
vt 0.13760624999999999 0.9296875
vt 0.12875625 0.9296875
vt 0.366 0.59863046875
vt 0.36190546875 0.6015625
vt 0.359375 0.5953625
vt 0.3995796875 0.7734375
vt 0.4051078125 0.7734375
vt 0.40234375 0.7797078125
vt 0.13760624999999999 0.9025
vt 0.15145625000000001 0.9025
vt 0.15145625000000001 0.9296875
vt 0.13760624999999999 0.9296875
vt 0.36190546875 0.6015625
vt 0.35684453125 0.6015625
vt 0.359375 0.5953625
vt 0.39510703125 0.7764023437500001
vt 0.3995796875 0.7734375
vt 0.40234375 0.7797078125
vt 0.15145625000000001 0.9025
vt 0.16030624999999998 0.9025
vt 0.16030624999999998 0.9296875
vt 0.15145625000000001 0.9296875
vt 0.35684453125 0.6015625
vt 0.35275 0.59863046875
vt 0.359375 0.5953625
vt 0.3942703125 0.7797078125
vt 0.39510703125 0.7764023437500001
vt 0.40234375 0.7797078125
vt 0.13164921875 0.8515625
vt 0.140625 0.8515625
vt 0.140625 0.890625
vt 0.13164921875 0.890625
vt 0.35275 0.59863046875
vt 0.35198359375 0.5953625
vt 0.359375 0.5953625
vt 0.39510703125 0.78450625
vt 0.3942703125 0.7797078125
vt 0.40234375 0.7797078125
vt 0.1953125 0.765625
vt 0.20809453125 0.765625
vt 0.20809453125 0.8046875
vt 0.1953125 0.8046875
vt 0.35198359375 0.5953625
vt 0.35275 0.5906179687499999
vt 0.359375 0.5953625
vt 0.39700546875 0.78627734375
vt 0.39510703125 0.78450625
vt 0.40234375 0.7797078125
vt 0.35275 0.5906179687499999
vt 0.35448828125 0.5888671875
vt 0.359375 0.5953625
vt 0.40768203125 0.78627734375
vt 0.39700546875 0.78627734375
vt 0.40234375 0.7797078125
vt 0.15625 0.625
vt 0.171875 0.625
vt 0.171875 0.640625
vt 0.15625 0.640625
vt 0.35448828125 0.5888671875
vt 0.36426171875 0.5888671875
vt 0.359375 0.5953625
vt 0.26171094078259016 0.7805612598406191
vt 0.24899326132174648 0.7812715663809486
vt 0.25062806027268275 0.7743547950530161
vt 0.265625 0.7735171875
vt 0.0625 0.6796875
vt 0.0625 0.640625
vt 0.0703125 0.640625
vt 0.0703125 0.6796875
vt 0.4277078125 0.5859375
vt 0.44111328125 0.5859375
vt 0.4453125 0.59375
vt 0.43029921875 0.5935234375
vt 0.2852921875 0.96086484375
vt 0.2693953125 0.96086484375
vt 0.2693953125 0.95375703125
vt 0.2852921875 0.95375703125
vt 0.43423203125 0.65625
vt 0.44858046875 0.65625
vt 0.4493546875 0.6640625
vt 0.4334578125 0.6640625
vt 0.2665784144556199 0.992269176653441
vt 0.2538658803788356 0.9914720671273421
vt 0.25 0.984401438895438
vt 0.26499087218843564 0.98534140625
vt 0.3125 0.5738329194591953
vt 0.3126820525933222 0.5604286869462727
vt 0.3203125 0.5631103341145934
vt 0.3203125 0.578125
vt 0.2734375 0.6484375
vt 0.2734375 0.6875
vt 0.265625 0.683670810795997
vt 0.26576824405513755 0.6484375
vt 0.19906875000000002 0.7265625
vt 0.20791875 0.7265625
vt 0.2068953125 0.72999375
vt 0.1959890625 0.7365734375
vt 0.11572734374999999 0.8846875
vt 0.11572734374999999 0.8574999999999999
vt 0.12620078125 0.8574999999999999
vt 0.12620078125 0.8846875
vt 0.27041875 0.8203125
vt 0.26156875 0.8203125
vt 0.2584890625 0.8103015625
vt 0.27016953125 0.81688125
vt 0.20791875 0.7265625
vt 0.22176875000000001 0.7265625
vt 0.22279218750000002 0.72999375
vt 0.2068953125 0.72999375
vt 0.28426875 0.8203125
vt 0.27041875 0.8203125
vt 0.27016953125 0.81688125
vt 0.28451796875 0.81688125
vt 0.22176875000000001 0.7265625
vt 0.23061875 0.7265625
vt 0.2336984375 0.7365734375
vt 0.22279218750000002 0.72999375
vt 0.29311875 0.8203125
vt 0.28426875 0.8203125
vt 0.28451796875 0.81688125
vt 0.2961984375 0.8103015625
vt 0.011143750000000008 0.65751171875
vt 0.011143750000000008 0.6846992187500001
vt 0.0006703124999999921 0.6846992187500001
vt 0.0006703124999999921 0.65751171875
vt 0.029428515625 0.91875
vt 0.007442578124999998 0.91875
vt 0.0030855468749999976 0.9140625
vt 0.033785546875 0.9140625
vt 0.029428515625 0.93984375
vt 0.029428515625 0.91875
vt 0.033785546875 0.9140625
vt 0.033785546875 0.953125
vt 0.007442578124999998 0.93984375
vt 0.029428515625 0.93984375
vt 0.033785546874999996 0.953125
vt 0.0030855468749999976 0.953125
vt 0.007442578124999998 0.91875
vt 0.007442578124999998 0.93984375
vt 0.0030855468749999976 0.953125
vt 0.0030855468749999976 0.9140625
vt 0.3168328125 0.9765625
vt 0.3003546875 0.9765625
vt 0.29760078125 0.9609375
vt 0.31958671875 0.9609375
vt 0.3125 0.9234375
vt 0.3125 0.91015625
vt 0.328125 0.90859375
vt 0.328125 0.9296875
vt 0.0425421875 0.6875
vt 0.0590203125 0.6875
vt 0.06177421875 0.703125
vt 0.03978828125 0.703125
vt 0.328125 0.87890625
vt 0.328125 0.8921875
vt 0.3125 0.8984375
vt 0.3125 0.87734375
vt 0.38148046874999997 0.5234375
vt 0.3756796875 0.5234375
vt 0.375 0.515625
vt 0.38216015625 0.515625
vt 0.4765625 0.6135399014486865
vt 0.4765625 0.5818534013238521
vt 0.4771400018888101 0.578125
vt 0.47794897284334803 0.6171306744429399
vt 0.024982812500000007 0.68355390625
vt 0.028864843750000008 0.68355390625
vt 0.030597656250000008 0.6875
vt 0.0234375 0.687490625
vt 0.20860078125 0.7693328125
vt 0.21012265624999998 0.8009765625
vt 0.20809453125 0.8046875
vt 0.20809453125 0.765628125
vt 0.4836953125 0.6328125
vt 0.47789453125000003 0.6328125
vt 0.47721484375 0.625
vt 0.484375 0.625
vt 0.11598379223743285 0.5119666543903154
vt 0.11598379223743285 0.4802870737319722
vt 0.11658321251194237 0.4765625
vt 0.1171875 0.5155765703874163
vt 0.25238515625 0.6835546875
vt 0.2562671875 0.6835546875
vt 0.2578125 0.687490625
vt 0.25065234375 0.6875
vt 0.034316796875 0.91776796875
vt 0.035976953125 0.9494109374999999
vt 0.033785546875 0.95312265625
vt 0.033785546875 0.9140625
vt 0.4765625 0.7739477750294936
vt 0.4804108484795756 0.7734375
vt 0.48231022467031776 0.7835718611826391
vt 0.4765625 0.7843489592788502
vt 0.37424188678809345 0.984375
vt 0.3829039900519563 0.9786178844548947
vt 0.4140625 0.984375
vt 0.024667968750000005 0.643734375
vt 0.028550000000000006 0.643734375
vt 0.028864843750000008 0.68355390625
vt 0.024982812500000007 0.68355390625
vt 0.2578125 0.5929916779050902
vt 0.2578125 0.6328125
vt 0.25219188226174477 0.601634846445456
vt 0.4734635407211498 0.9981006238092578
vt 0.47397381575064346 0.9921875
vt 0.484375 0.9921875
vt 0.48359790190378893 1
vt 0.375 0.765625
vt 0.3836431685403658 0.7600043822617448
vt 0.4148208220949098 0.765625
vt 0.2527 0.64373515625
vt 0.25658203125 0.64373515625
vt 0.2562671875 0.6835546875
vt 0.25238515625 0.6835546875
vt 0.18544461554510527 0.5929918867880934
vt 0.18544461554510527 0.6328125
vt 0.1796875 0.6016539900519563
vt 0.034949999999999995 0.970703125
vt 0.011925 0.970703125
vt 0.0080875 0.96640625
vt 0.0387875 0.96640625
vt 0.011925 0.970703125
vt 0.00783046875 0.974178125
vt 0.0026281249999999985 0.9710398437500001
vt 0.0080875 0.96640625
vt 0.00783046875 0.974178125
vt 0.006024999999999999 0.98359375
vt 0.00022109375000000167 0.98359375
vt 0.0026281249999999985 0.9710398437500001
vt 0.006024999999999999 0.98359375
vt 0.00783046875 0.9900796875
vt 0.0026281249999999985 0.99224140625
vt 0.00022109375000000167 0.98359375
vt 0.00783046875 0.9900796875
vt 0.01747578125 0.9958984375
vt 0.0154890625 1
vt 0.0026281249999999985 0.99224140625
vt 0.01747578125 0.9958984375
vt 0.02939921875 0.9958984375
vt 0.0313859375 1
vt 0.0154890625 1
vt 0.02939921875 0.9958984375
vt 0.03904453125 0.9900796875
vt 0.044246875000000005 0.99224140625
vt 0.0313859375 1
vt 0.03904453125 0.9900796875
vt 0.04085 0.98359375
vt 0.04665390625 0.98359375
vt 0.044246875000000005 0.99224140625
vt 0.04085 0.98359375
vt 0.03904453125 0.974178125
vt 0.044246875000000005 0.9710398437500001
vt 0.04665390625 0.98359375
vt 0.03904453125 0.974178125
vt 0.034949999999999995 0.970703125
vt 0.0387875 0.96640625
vt 0.044246875000000005 0.9710398437500001
vt 0.28808203125 0.984375
vt 0.29785546875 0.984375
vt 0.30448125 1
vt 0.28145625 1
vt 0.4296875 0.762842353371234
vt 0.4301487738184739 0.7578125
vt 0.44680895104222973 0.7578125
vt 0.44554530704395545 0.765625
vt 0.109375 0.5614663362150032
vt 0.1140999933987446 0.5605905695285813
vt 0.11882780167450752 0.5765429799076054
vt 0.109375 0.578125
vt 0.03241289941548117 0.5380508422789626
vt 0.03574110750375875 0.5376178931091706
vt 0.0390625 0.5536601947816353
vt 0.03241289941548117 0.5546875
vt 0.37526735081850887 0.7437926277807165
vt 0.37555105982215164 0.7421875
vt 0.390625 0.7421875
vt 0.3904080993701338 0.75
vt 0.40371953125 0.625
vt 0.40878046875 0.625
vt 0.41221171875 0.640625
vt 0.40028828125 0.640625
vt 0.0705529098606906 0.563071699626104
vt 0.07558472441673744 0.5628679625959372
vt 0.08155138882720675 0.578125
vt 0.0703125 0.578125
vt 0.4296875 0.7310540033846987
vt 0.4301204088510549 0.7265625
vt 0.44675861601841943 0.7265625
vt 0.4457282924598794 0.734375
vt 0.42777661395237815 0.5733977491128831
vt 0.4286522998791609 0.5703125
vt 0.4453125 0.5703125
vt 0.44372756879841946 0.578125
vt 0.41940781250000003 0.5234375
vt 0.421875 0.5234375
vt 0.42164375 0.538803125
vt 0.41629296875 0.5390625
vt 0.3393205341163824 0.6108326148577017
vt 0.344844748229558 0.609375
vt 0.3515625 0.624597687431593
vt 0.3393205341163824 0.6282350692274399
vt 0.4355820943102614 0.7180557867626458
vt 0.43565991446585794 0.7143386325219181
vt 0.4527364064883699 0.7109375
vt 0.453125 0.7180557867626458
vt 0.22565078125 0.796875
vt 0.24309921875 0.796875
vt 0.249725 0.8125
vt 0.219025 0.8125
vt 0.003757812499999999 0.5390625
vt 0.007475781249999994 0.5390625
vt 0.007108593749999989 0.5546875
vt 0 0.55412421875
vt 0.40104921875 0.828125
vt 0.4067625 0.828125
vt 0.41120234375 0.84375
vt 0.3984375 0.84333828125
vt 0.1786334949975376 0.5551032841941236
vt 0.18267073498686895 0.5546875
vt 0.1875 0.5706101326938622
vt 0.1786334949975376 0.5719033945293384
vt 0.25156093749999997 0.7578125
vt 0.259634375 0.7578125
vt 0.265625 0.7735171875
vt 0.2506859375 0.7743515624999999
vt 0.27282578125 0.9375
vt 0.28186171875 0.9375
vt 0.2852921875 0.95375703125
vt 0.2693953125 0.95375703125
vt 0.2560424346884357 0.96875
vt 0.2641158721884357 0.96875
vt 0.26499087218843564 0.98534140625
vt 0.25005180968843566 0.9844046875
vt 0.015625 0.5654848689234786
vt 0.016040572734340272 0.5625
vt 0.032849231627718564 0.5625
vt 0.03154011417780346 0.5703125
vt 0.09616796875 0.75423515625
vt 0.0973515625 0.74943671875
vt 0.0991328125 0.74943671875
vt 0.09776484375 0.75498359375
vt 0.09348437500000001 0.75600625
vt 0.09616796875 0.75423515625
vt 0.09776484375 0.75498359375
vt 0.09466171875 0.75703125
vt 0.078390625 0.75600625
vt 0.09348437500000001 0.75600625
vt 0.09466171875 0.75703125
vt 0.07721328125 0.75703125
vt 0.07570703125 0.75423515625
vt 0.078390625 0.75600625
vt 0.07721328125 0.75703125
vt 0.07411015625 0.75498359375
vt 0.0745234375 0.74943671875
vt 0.07570703125 0.75423515625
vt 0.07411015625 0.75498359375
vt 0.0727421875 0.74943671875
vt 0.07570703125 0.74613125
vt 0.0745234375 0.74943671875
vt 0.0727421875 0.74943671875
vt 0.07411015625 0.745615625
vt 0.0820296875 0.74316640625
vt 0.07570703125 0.74613125
vt 0.07411015625 0.745615625
vt 0.08141953125 0.7421875
vt 0.0898453125 0.74316640625
vt 0.0820296875 0.74316640625
vt 0.08141953125 0.7421875
vt 0.09045546875 0.7421875
vt 0.09616796875 0.74613125
vt 0.0898453125 0.74316640625
vt 0.09045546875 0.7421875
vt 0.09776484375 0.745615625
vt 0.0973515625 0.74943671875
vt 0.09616796875 0.74613125
vt 0.09776484375 0.745615625
vt 0.0991328125 0.74943671875
vt 0.015625 0.5078660201857629
vt 0.015344003248539864 0.5127282197572866
vt 0.005391486924676947 0.5127282197572866
vt 0.0057890469882534365 0.5078125
vt 0.5 0.7114719643809424
vt 0.49942239299240376 0.7140037878168085
vt 0.4895805427292895 0.7140037878168085
vt 0.4903970749391179 0.7109375
vt 0.41158828125 1
vt 0.40091171875 1
vt 0.398703125 0.9921875
vt 0.413796875 0.9921875
vt 0.4765625 0.6817023789027712
vt 0.46929082298943664 0.6822808364687133
vt 0.46875 0.6726643823247127
vt 0.4765625 0.671875
vt 0.0986136639439662 0.5099469061309703
vt 0.09375 0.5102013012720776
vt 0.09375 0.500359741371862
vt 0.09866839226610297 0.5
vt 0.2265625 0.507888350871589
vt 0.22628147112702598 0.5112861237691176
vt 0.21632963628496632 0.5112861237691176
vt 0.2167266872369523 0.5078125
vt 0.0625 0.51733203125
vt 0.05713359375 0.51733203125
vt 0.054638281250000004 0.5078125
vt 0.061546875 0.50798984375
vt 0.4871390625 0.703125
vt 0.4816109375 0.703125
vt 0.4804671875 0.6953125
vt 0.4882828125 0.6953125
vt 0.4375 0.5332257506958378
vt 0.4311612067362263 0.5345938052146496
vt 0.4296875 0.525265181871411
vt 0.4375 0.5234375
vt 0.4877748495956724 0.7365093613360738
vt 0.484375 0.7367640388133487
vt 0.484375 0.7269224801224796
vt 0.48785235637072155 0.7265625
vt 0 0.6875
vt 0 0.6586171875
vt 0.0006703124999999921 0.65751171875
vt 0.0006703124999999921 0.6846992187500001
vt 0.21277109375 0.99295703125
vt 0.21754921875 0.9940625
vt 0.21687890625 0.99686328125
vt 0.21210078125 1
vt 0.21277109375 0.96798046875
vt 0.21277109375 0.99295703125
vt 0.21210078125 1
vt 0.21210078125 0.9609375
vt 0.21687890625 0.96798046875
vt 0.21277109375 0.96798046875
vt 0.21210078125 0.9609375
vt 0.21754921875 0.966875
vt 0.12687109375 0.85860546875
vt 0.12687109375 0.88358203125
vt 0.12620078125 0.8846875
vt 0.12620078125 0.8574999999999999
vt 0.13097890625 0.85860546875
vt 0.12687109375 0.85860546875
vt 0.12620078125 0.8574999999999999
vt 0.13164921875 0.8515625
vt 0.13097890625 0.88358203125
vt 0.13097890625 0.85860546875
vt 0.13164921875 0.8515625
vt 0.13164921875 0.890625
vt 0.12687109375 0.88358203125
vt 0.13097890625 0.88358203125
vt 0.13164921875 0.890625
vt 0.12620078125 0.8846875
vt 0.3824448481179516 0.96875
vt 0.393564797770252 0.9630272989226303
vt 0.421875 0.96875
vt 0.1015625 0.5815777436327465
vt 0.1015625 0.6171875
vt 0.09608283896219831 0.5928194473648959
vt 0.375 0.546875
vt 0.3828125 0.546875
vt 0.3828125 0.5625
vt 0.375 0.5625
vt 0.005479661037801686 0.5659527436327465
vt 0.005479661037801682 0.6015625
vt 0 0.5771944473648959
vt 0.4140625 0.546875
vt 0.421875 0.546875
vt 0.421875 0.5625
vt 0.4140625 0.5625
vt 0.390625 0.703125
vt 0.40186670373214944 0.6976453389621984
vt 0.42623475636725355 0.703125
vn 0 -2.220446049250313e-16 1
vn 0 2.220446049250313e-16 -1
vn 0 -2.220446049250313e-16 1
vn 0.982108217478245 0.18831741598084975 4.181486623197056e-17
vn 0 2.220446049250313e-16 -1
vn 0 -2.220446049250313e-16 1
vn 0.9633721364338176 -0.26816809419269466 -5.954527852851547e-17
vn 0 2.220446049250313e-16 -1
vn 0 -2.220446049250313e-16 1
vn 0 -1 -2.220446049250313e-16
vn 0 2.220446049250313e-16 -1
vn 0 -2.220446049250313e-16 1
vn 0 -1 -2.220446049250313e-16
vn 0 2.220446049250313e-16 -1
vn 0 -2.220446049250313e-16 1
vn 0 -1 -2.220446049250313e-16
vn 0 2.220446049250313e-16 -1
vn 0 -2.220446049250313e-16 1
vn -0.9633721364338177 -0.2681680941926942 -5.954527852851537e-17
vn 0 2.220446049250313e-16 -1
vn 0 -2.220446049250313e-16 1
vn -0.9821082174782452 0.18831741598084925 4.181486623197045e-17
vn 0 2.220446049250313e-16 -1
vn 0 -2.220446049250313e-16 1
vn 0 2.220446049250313e-16 -1
vn 0 -2.220446049250313e-16 1
vn 0 1 2.220446049250313e-16
vn 0 2.220446049250313e-16 -1
vn -0.45005753018638217 -0.7460270893686051 0.4908072956372402
vn -0.9106728836346887 -0.35005881185040905 -0.21939400005096027
vn -0.42367824619771594 -0.7521533155881563 -0.5047396690855308
vn 0 -0.8354170822439402 0.5496165014762764
vn 0 -0.83541708224394 -0.5496165014762767
vn 0.45005753018638334 -0.7460270893686044 0.4908072956372402
vn 0.4373440674636258 -0.776414161802553 -0.4537744109211213
vn 0.9655214040160187 -0.17278886797557977 -0.1947111334532612
vn 0 -2.220446049250313e-16 1
vn -0.9557904700625168 -0.2940485968979844 -6.529190452697273e-17
vn 0 2.220446049250313e-16 -1
vn 0 -2.220446049250313e-16 1
vn 0 2.220446049250313e-16 -1
vn 0 -2.220446049250313e-16 1
vn 0 2.220446049250313e-16 -1
vn 0.9557904700625173 -0.29404859689798274 -6.529190452697236e-17
vn 0 1 2.220446049250313e-16
vn 0 1 2.220446049250313e-16
vn 0 1 2.220446049250313e-16
vn 0 1 2.220446049250313e-16
vn 0 0.1104315260748455 0.9938837346736191
vn 0.9813665007328407 0.19214523475584752 4.266481273958956e-17
vn 0 0.4061384660534458 -0.9138115486202582
vn -0.9813665007328407 0.19214523475584752 4.266481273958956e-17
vn -0.6471035166202982 0.762402150297101 3.160122785908725e-15
vn -0.8284273313583811 0.557896004231252 0.04960045484906341
vn -0.6113782459711264 0.7145941570974544 -0.33995857246942257
vn -0.9907872627523848 0.13481580632561965 0.012856839907615452
vn 0.6471035166202982 0.762402150297101 -2.6641358225715066e-15
vn 0.42798500015557106 0.9025499676334957 0.04724823347609772
vn 0.612851762544675 0.7163164400553171 -0.33362175416534606
vn 0.02858329440375138 0.9995190607422694 0.01202674078545338
vn 0.4933040018211139 -0.5765860327827426 0.6513061558031927
vn 0.594213367019406 0.8039812089925436 -0.022906113645687454
vn -0.6441153276867914 0.7528580754959271 -0.13535199591992106
vn -0.82542534210624 -0.5640551128700121 -0.022689959321130864
vn -0.49259227067671524 -0.5757541436526284 0.6525795131142154
vn 0.82542534210624 -0.5640551128700121 -0.022689959321130864
vn 0.6441153276867914 0.7528580754959272 -0.13535199591992153
vn -0.594213367019406 0.8039812089925436 -0.022906113645687454
vn 0 2.220446049250313e-16 -1
vn 0 2.220446049250313e-16 -1
vn 0 2.220446049250313e-16 -1
vn 0 2.220446049250313e-16 -1
vn 0 2.220446049250313e-16 -1
vn 0 2.220446049250313e-16 -1
vn 0 2.220446049250313e-16 -1
vn 0 2.220446049250313e-16 -1
vn 0 2.220446049250313e-16 -1
vn 0 2.220446049250313e-16 -1
vn 0 -0.904818702200994 -0.4257970363298801
vn 0.5759684546791786 -0.5716728455810648 -0.5843376565306458
vn 0.7923659265536181 -0.12799571955278496 -0.5964673790015603
vn 0.7915041358996168 0.18561143403313718 -0.5822968301562043
vn 0.5137896586185435 0.7174810529950983 -0.4703627592504378
vn 0 0.9048187022009941 -0.42579703632987953
vn -0.4993274959338081 0.697285380432258 -0.5142617524567761
vn -0.7836943408794989 0.1837800004531467 -0.5933364066926026
vn -0.800392938502715 -0.12929237194008875 -0.5853670870087377
vn -0.5853850918304406 -0.5810192528579438 -0.5654563838803693
vn 0.7846906214098568 0.19353999402027358 0.5888997362760877
vn 0.43025404614936696 0.6520432983397183 0.6242763753838195
vn 0 0.8169678632647619 0.5766831975986553
vn -0.41676445104776494 0.6316000272954704 0.653749797600899
vn -0.7659200158673225 0.1889103185974528 0.6145562796206786
vn -0.7655176588182929 -0.27410020336464075 0.5821097770634182
vn -0.35909549582161593 -0.765662968343462 0.5336765347924773
vn 0 -0.816967863264762 0.5766831975986548
vn 0.3398948278265012 -0.7247233279904634 0.5993726752891064
vn 0.7478440851747187 -0.2677720278169192 0.6074762261916126
vn 0 -2.220446049250313e-16 1
vn 0 -2.220446049250313e-16 1
vn 0 -2.220446049250313e-16 1
vn 0 -2.220446049250313e-16 1
vn 0 -2.220446049250313e-16 1
vn 0 -2.220446049250313e-16 1
vn 0 -2.220446049250313e-16 1
vn 0 -2.220446049250313e-16 1
vn 0 -2.220446049250313e-16 1
vn 0 -2.220446049250313e-16 1
vn -0.9295217379768406 -0.1621674662846695 0.3311963941641339
vn -0.6665011070473402 -0.7144704425096896 0.21285737263406745
vn 0 -1 -2.220446049250313e-16
vn 0.6734927337762092 -0.7219652697350599 0.15866217837603994
vn 0.9397103099654263 -0.1639449985756775 0.300110930801768
vn 0.9162743196942298 0.2320660330543281 0.3264762278808426
vn 0.5441965552649108 0.8207585067130417 0.1737975342057035
vn 0 1 2.220446049250313e-16
vn -0.5513551358430001 0.8315550945425872 0.06725800264515552
vn -0.9260288968764673 0.23453658797674512 0.2957415612489724
vn 0.9334142692269063 -0.35880050446397216 -7.966971626060463e-17
vn 0.9334142692269055 -0.35880050446397377 -5.594767727218004e-16
vn 0.9334142692269062 -0.35880050446397216 -7.966971626060463e-17
vn 0.9334142692269053 -0.3588005044639742 1.545310666360338e-16
vn -0.9334142692269062 -0.35880050446397216 -7.966971626060463e-17
vn -0.9334142692269053 -0.3588005044639742 -1.571590927375482e-15
vn -0.9334142692269062 -0.35880050446397216 -7.966971626060463e-17
vn -0.9334142692269053 -0.3588005044639742 -3.1387049915724394e-16
vn -0.35880050446397493 -0.9334142692269051 -2.0725960264187494e-16
vn 0.358800504463975 0.933414269226905 2.0725960264187492e-16
vn -0.7288740891283497 0.2801761227483421 0.6246950475544244
vn 0.358800504463975 -0.933414269226905 -2.0725960264187492e-16
vn 0.7288740891283497 0.2801761227483421 0.6246950475544244
vn -0.358800504463975 0.933414269226905 2.0725960264187492e-16
usemtl m_8af1fcb1-45d2-045a-0a68-e8a7a77c7c93
f 308/801/203 310/802/203 309/803/203
f 277/804/204 286/805/204 278/806/204
f 307/807/205 308/808/205 309/809/205
f 212/810/206 214/811/206 215/812/206 213/813/206
f 286/814/207 285/815/207 278/816/207
f 317/817/208 307/818/208 309/819/208
f 214/820/209 216/821/209 217/822/209 215/823/209
f 285/824/210 284/825/210 278/826/210
f 316/827/211 317/828/211 309/829/211
f 244/830/212 242/831/212 243/832/212 245/833/212
f 284/834/213 283/835/213 278/836/213
f 315/837/214 316/838/214 309/839/214
f 242/840/215 238/841/215 241/842/215 243/843/215
f 283/844/216 282/845/216 278/846/216
f 314/847/217 315/848/217 309/849/217
f 238/850/218 239/851/218 240/852/218 241/853/218
f 282/854/219 281/855/219 278/856/219
f 313/857/220 314/858/220 309/859/220
f 222/860/221 224/861/221 225/862/221 223/863/221
f 281/864/222 280/865/222 278/866/222
f 312/867/223 313/868/223 309/869/223
f 224/870/224 226/871/224 227/872/224 225/873/224
f 280/874/225 279/875/225 278/876/225
f 311/877/226 312/878/226 309/879/226
f 279/880/227 276/881/227 278/882/227
f 310/883/228 311/884/228 309/885/228
f 250/886/229 251/887/229 252/888/229 253/889/229
f 276/890/230 277/891/230 278/892/230
f 231/893/231 230/894/231 220/895/231 222/896/231
f 322/897/232 209/898/232 328/899/232 325/900/232
f 233/901/233 232/902/233 223/903/233 221/904/233
f 230/905/234 234/906/234 218/907/234 220/908/234
f 235/909/235 233/910/235 221/911/235 219/912/235
f 234/913/236 236/914/236 216/915/236 218/916/236
f 237/917/237 235/918/237 219/919/237 217/920/237
f 326/921/238 319/922/238 320/923/238 327/924/238
f 239/925/239 238/926/239 230/927/239 231/928/239
f 240/929/240 239/930/240 231/931/240 232/932/240
f 241/933/241 240/934/241 232/935/241 233/936/241
f 238/937/242 242/938/242 234/939/242 230/940/242
f 243/941/243 241/942/243 233/943/243 235/944/243
f 242/945/244 244/946/244 236/947/244 234/948/244
f 245/949/245 243/950/245 235/951/245 237/952/245
f 244/953/246 245/954/246 237/955/246 236/956/246
f 247/957/247 246/958/247 228/959/247 210/960/247
f 248/961/248 247/962/248 210/963/248 211/964/248
f 249/965/249 248/966/249 211/967/249 229/968/249
f 246/969/250 249/970/250 229/971/250 228/972/250
f 251/973/251 250/974/251 246/975/251 247/976/251
f 252/977/252 251/978/252 247/979/252 248/980/252
f 253/981/253 252/982/253 248/983/253 249/984/253
f 250/985/254 253/986/254 249/987/254 246/988/254
f 255/989/255 254/990/255 226/991/255 228/992/255
f 256/993/256 255/994/256 228/995/256 229/996/256
f 257/997/257 256/998/257 229/999/257 227/1000/257
f 254/1001/258 257/1002/258 227/1003/258 226/1004/258
f 259/1005/259 258/1006/259 210/1007/259 212/1008/259
f 260/1009/260 259/1010/260 212/1011/260 213/1012/260
f 261/1013/261 260/1014/261 213/1015/261 211/1016/261
f 258/1017/262 261/1018/262 211/1019/262 210/1020/262
f 263/1021/263 262/1022/263 254/1023/263 255/1024/263
f 263/1025/264 255/1026/264 256/1027/264
f 262/1028/265 263/1029/265 256/1030/265 257/1031/265
f 262/1032/266 257/1033/266 254/1034/266
f 265/1035/267 264/1036/267 258/1037/267 259/1038/267
f 265/1039/268 259/1040/268 260/1041/268
f 264/1042/269 265/1043/269 260/1044/269 261/1045/269
f 264/1046/270 261/1047/270 258/1048/270
f 267/1049/271 266/1050/271 229/1051/271 211/1052/271
f 266/1053/272 268/1054/272 227/1055/272 229/1056/272
f 268/1057/273 269/1058/273 225/1059/273 227/1060/273
f 269/1061/274 270/1062/274 223/1063/274 225/1064/274
f 270/1065/275 271/1066/275 221/1067/275 223/1068/275
f 271/1069/276 272/1070/276 219/1071/276 221/1072/276
f 272/1073/277 273/1074/277 217/1075/277 219/1076/277
f 273/1077/278 274/1078/278 215/1079/278 217/1080/278
f 274/1081/279 275/1082/279 213/1083/279 215/1084/279
f 275/1085/280 267/1086/280 211/1087/280 213/1088/280
f 277/1089/281 276/1090/281 266/1091/281 267/1092/281
f 276/1093/282 279/1094/282 268/1095/282 266/1096/282
f 279/1097/283 280/1098/283 269/1099/283 268/1100/283
f 280/1101/284 281/1102/284 270/1103/284 269/1104/284
f 281/1105/285 282/1106/285 271/1107/285 270/1108/285
f 282/1109/286 283/1110/286 272/1111/286 271/1112/286
f 283/1113/287 284/1114/287 273/1115/287 272/1116/287
f 284/1117/288 285/1118/288 274/1119/288 273/1120/288
f 285/1121/289 286/1122/289 275/1123/289 274/1124/289
f 286/1125/290 277/1126/290 267/1127/290 275/1128/290
f 288/1129/291 287/1130/291 214/1131/291 212/1132/291
f 289/1133/292 288/1134/292 212/1135/292 210/1136/292
f 290/1137/293 289/1138/293 210/1139/293 228/1140/293
f 291/1141/294 290/1142/294 228/1143/294 226/1144/294
f 292/1145/295 291/1146/295 226/1147/295 224/1148/295
f 293/1149/296 292/1150/296 224/1151/296 222/1152/296
f 294/1153/297 293/1154/297 222/1155/297 220/1156/297
f 295/1157/298 294/1158/298 220/1159/298 218/1160/298
f 296/1161/299 295/1162/299 218/1163/299 216/1164/299
f 287/1165/300 296/1166/300 216/1167/300 214/1168/300
f 298/1169/301 297/1170/301 287/1171/301 288/1172/301
f 299/1173/302 298/1174/302 288/1175/302 289/1176/302
f 300/1177/303 299/1178/303 289/1179/303 290/1180/303
f 301/1181/304 300/1182/304 290/1183/304 291/1184/304
f 302/1185/305 301/1186/305 291/1187/305 292/1188/305
f 303/1189/306 302/1190/306 292/1191/306 293/1192/306
f 304/1193/307 303/1194/307 293/1195/307 294/1196/307
f 305/1197/308 304/1198/308 294/1199/308 295/1200/308
f 306/1201/309 305/1202/309 295/1203/309 296/1204/309
f 297/1205/310 306/1206/310 296/1207/310 287/1208/310
f 308/1209/311 307/1210/311 297/1211/311 298/1212/311
f 310/1213/312 308/1214/312 298/1215/312 299/1216/312
f 311/1217/313 310/1218/313 299/1219/313 300/1220/313
f 312/1221/314 311/1222/314 300/1223/314 301/1224/314
f 313/1225/315 312/1226/315 301/1227/315 302/1228/315
f 314/1229/316 313/1230/316 302/1231/316 303/1232/316
f 315/1233/317 314/1234/317 303/1235/317 304/1236/317
f 316/1237/318 315/1238/318 304/1239/318 305/1240/318
f 317/1241/319 316/1242/319 305/1243/319 306/1244/319
f 307/1245/320 317/1246/320 306/1247/320 297/1248/320
f 319/1249/321 318/1250/321 236/1251/321 237/1252/321
f 320/1253/322 237/1254/322 319/1255/322 217/1256/322
f 321/1257/323 320/1258/323 217/1259/323 216/1260/323
f 318/1261/324 321/1262/324 216/1263/324 236/1264/324
f 323/1265/325 322/1266/325 232/1267/325 231/1268/325
f 324/1269/326 323/1270/326 231/1271/326 222/1272/326
f 325/1273/327 324/1274/327 222/1275/327 223/1276/327
f 322/1277/328 325/1278/328 223/1279/328 232/1280/328
f 326/1281/329 318/1282/329 319/1283/329
f 327/1284/330 320/1285/330 321/1286/330
f 326/1287/331 327/1288/331 321/1289/331 318/1290/331
f 209/1291/332 322/1292/332 323/1293/332
f 328/1294/333 209/1295/333 323/1296/333 324/1297/333
f 328/1298/334 324/1299/334 325/1300/334