# Made in Blockbench 5.1.5
mtllib TurboLeftArm.mtl

o cuboid
v -0.6260294130467893 1.038782125172876 0.115625
v -0.6260294130467893 1.038782125172876 -0.115625
v -0.6260294130467893 0.9328125 0.07500000000000001
v -0.6260294130467893 0.9328125 -0.07500000000000001
v -0.7010761345132838 1.038782125172876 0.115625
v -0.7010761345132838 1.038782125172876 -0.115625
v -0.7010761345132838 0.9328125 0.07500000000000001
v -0.7010761345132838 0.9328125 -0.07500000000000001
v -0.7010761345132838 1.038782125172876 0
v -0.7010761345132838 0.9328125 0
v -0.6260294130467893 0.9328125 0
v -0.6260294130467893 1.038782125172876 0
v -0.7876685054361622 1.0255359220262665 -0.029647435897435903
v -0.7876685054361622 0.9460587031466096 -0.029647435897435903
v -0.6006771852632066 0.9660540387368292 -0.03813034336604004
v -0.6006771852632066 1.0720236639097052 -0.03813034336604004
v -0.7876685054361622 0.9460587031466096 -0.096875
v -0.7876685054361622 1.0255359220262665 -0.115625
v -0.7876685054361622 1.0255359220262665 0.10080128205128205
v -0.7876685054361622 1.0255359220262665 0.01482371794871795
v -0.7876685054361622 0.9460587031466096 0.01482371794871795
v -0.7876685054361622 0.9460587031466096 0.08205128205128205
v -0.9031250000000001 0.9350511094398285 -0.060977564102564094
v -0.9031250000000001 0.9615435157330475 -0.042785437832607645
v -0.9031250000000001 0.9350511094398285 -0.042785437832607645
v -0.9031250000000001 0.9615435157330475 -0.06722756410256409
v -0.9031250000000001 0.9615435157330475 0.05240384615384615
v -0.9031250000000001 0.9615435157330475 0.027961719883889694
v -0.9031250000000001 0.9350511094398285 0.027961719883889694
v -0.9031250000000001 0.9350511094398285 0.04615384615384615
v -0.6322794130467893 1.035915202762244 -0.1508939784374312
v -0.6322794130467893 0.9674455775893681 -0.1508939784374312
v -0.6948261345132838 1.035915202762244 -0.1508939784374312
v -0.6948261345132838 0.9674455775893681 -0.1508939784374312
v -0.6572794130467893 0.9720099664299301 -0.21182750289271357
v -0.6572794130467893 0.9535403412570542 -0.21182750289271357
v -0.6698261345132838 0.9720099664299301 -0.21182750289271357
v -0.6698261345132838 0.9535403412570542 -0.21182750289271357
vt 0.2661216566304232 0.84375
vt 0.25166853163042324 0.84375
vt 0.25166853163042324 0.83050390625
vt 0.2610435316304232 0.83050390625
vt 0.25859375 0.7890625
vt 0.265625 0.7890625
vt 0.265625 0.796875
vt 0.2578125 0.796875
vt 0.254691015625 0.74557734375
vt 0.254691015625 0.73112421875
vt 0.264071484375 0.73112421875
vt 0.264071484375 0.74557734375
vt 0.0525703125 0.830859375
vt 0.0525703125 0.840234375
vt 0.04318984375 0.840234375
vt 0.04318984375 0.830859375
vt 0.35782515526331093 0.9376532534725909
vt 0.3575933796483549 0.9518380787783856
vt 0.348214162871733 0.9516848253057947
vt 0.34844593848668903 0.9375
vt 0.3046875 0.8984375
vt 0.296875 0.8984375
vt 0.296875 0.890625
vt 0.3046875 0.890625
vt 0.497621484375 0.984375
vt 0.494566015625 0.984375
vt 0.494566015625 0.9765625
vt 0.496840234375 0.9765625
vt 0.04318984375 0.849609375
vt 0.04318984375 0.840234375
vt 0.0525703125 0.840234375
vt 0.0525703125 0.849609375
vt 0.24229353163042322 0.83050390625
vt 0.25166853163042324 0.83050390625
vt 0.25166853163042324 0.84375
vt 0.2372154066304232 0.84375
vt 0.326571484375 0.657421875
vt 0.326571484375 0.671875
vt 0.317191015625 0.671875
vt 0.317191015625 0.657421875
vt 0.032239843750000004 0.8365281250000001
vt 0.032239843750000004 0.828125
vt 0.04318984375 0.830859375
vt 0.04318984375 0.840234375
vt 0.3035875 0.71709453125
vt 0.3035875 0.707159375
vt 0.31502890625 0.7055039062499999
vt 0.31502890625 0.71875
vt 0.243741015625 0.74557734375
vt 0.243741015625 0.73483046875
vt 0.254691015625 0.73112421875
vt 0.254691015625 0.74557734375
vt 0.11239744982110075 0.5390625
vt 0.12260482980222724 0.5390625
vt 0.12421692491031669 0.5468076154982827
vt 0.11015807508968331 0.546875
vt 0.306241015625 0.670021875
vt 0.306241015625 0.659275
vt 0.317191015625 0.657421875
vt 0.317191015625 0.671875
vt 0.32141171875 0.808721875
vt 0.32141171875 0.81865703125
vt 0.31043046875 0.8203125
vt 0.31043046875 0.80706640625
vt 0.03223984375 0.850490625
vt 0.03223984375 0.8420875
vt 0.04318984375 0.840234375
vt 0.04318984375 0.849609375
vt 0.33748734473668907 0.94940859375
vt 0.33759359473668904 0.9392015625
vt 0.34844593848668903 0.9375
vt 0.34821625098668907 0.95155703125
vt 0.0177421875 0.8348859375
vt 0.0177421875 0.8326125
vt 0.03223984375 0.828125
vt 0.032239843750000004 0.8365281250000001
vt 0.2890625 0.7090953125
vt 0.2890625 0.70578359375
vt 0.3035875 0.707159375
vt 0.3035875 0.71709453125
vt 0.33089250679635307 0.5839883001604624
vt 0.33376048054253793 0.5829367097868614
vt 0.34098249320364693 0.5978628383173256
vt 0.33089250679635307 0.6015625
vt 0.1386168562381026 0.5546875
vt 0.140625 0.5564635478372362
vt 0.140625 0.5740380270772205
vt 0.1328125 0.5687095189412765
vt 0.4242809147529923 0.6021536103288712
vt 0.4253326543411076 0.6015625
vt 0.44290658524700777 0.6015625
vt 0.4392073447013379 0.609375
vt 0.3359375 0.80734609375
vt 0.3359375 0.8106578125
vt 0.32141171875 0.81865703125
vt 0.32141171875 0.808721875
vt 0.0177421875 0.84600390625
vt 0.0177421875 0.8437296875
vt 0.03223984375 0.8420875
vt 0.03223984375 0.850490625
vt 0.42365098763382325 0.8993309348226095
vt 0.421875 0.8964290653282659
vt 0.43589713935865504 0.890625
vt 0.44122615781950464 0.8993309348226095
vt 0.263290234375 0.75
vt 0.25547226562500003 0.75
vt 0.254691015625 0.74557734375
vt 0.264071484375 0.74557734375
vt 0.27055299693477736 0.8348098622453104
vt 0.27059709336957677 0.843368342395546
vt 0.2661216566304232 0.84375
vt 0.2610534751595394 0.8305298435632562
vt 0.082033984375 0.5234375
vt 0.07421601562499999 0.5234375
vt 0.073434765625 0.515625
vt 0.082815234375 0.515625
vt 0.432742122119918 0.5625
vt 0.4296875 0.5545050759426967
vt 0.4375 0.5470639631986896
vt 0.4375 0.5612439521977225
vt 0.26577010691403646 0.5354036430074729
vt 0.26727877368200464 0.534976500660936
vt 0.27329239308596354 0.5447452474031916
vt 0.26577010691403646 0.546875
vt 0.18417268199772185 0.5337961013435292
vt 0.1875 0.5354041954113865
vt 0.1875 0.546875
vt 0.1796875 0.5409153685678698
vt 0.296091015625 0.515625
vt 0.297658984375 0.515625
vt 0.300783984375 0.5234375
vt 0.292966015625 0.5234375
vt 0.4729041954113865 0.5625
vt 0.4712961013435292 0.5608425180666001
vt 0.47841536856786976 0.5563573360688783
vt 0.484375 0.5625
vn 1 0 0
vn -1 0 0
vn 0 1 0
vn 0 -1 0
vn 0 -0.35796144314512884 0.9337363681583023
vn 0 0 -1
vn -1 0 0
vn 0 -1 0
vn 1 0 0
vn 0 1 0
vn -0.1512129499343077 -0.9885012108096605 0
vn -0.3239197729354551 0 0.9460845526174937
vn -0.1512129499343077 0.9885012108096604 0
vn 0.03510276349260961 -0.22947190852558783 -0.9726820853664401
vn -0.1512129499343077 0.9885012108096604 0
vn -0.16873504110126775 0 -0.9856614458852258
vn -0.1512129499343077 -0.9885012108096605 0
vn 0.04408775952857141 -0.22939015556829992 0.9723355521568171
vn 0.09490938164478167 -0.9954859161614519 0
vn -0.11306215409491127 0 0.993587917253133
vn -0.4847738436373116 0.8746395374810744 0
vn -0.2702717974817454 -0.22106813935992153 -0.93706031462544
vn -0.4847738436373116 0.8746395374810743 0
vn -0.11306215409491129 0 -0.993587917253133
vn 0.09490938164478169 -0.9954859161614519 0
vn -0.2702717974817451 -0.2210681393599218 0.9370603146254401
vn 0 0.9967124651287531 -0.08102013241759157
vn 0.9846587785717802 0 -0.17449094469779802
vn 0 -0.9097521785592512 -0.4151517476859473
vn -0.9966262471785896 0 -0.08207389009131291
vn 0 0.6900790392945383 -0.7237340115859743
vn 0.9251599223289401 0 -0.37957755217650835
vn 0 -0.9749363912845184 0.22248378131702218
vn -0.9251599223289401 0 -0.37957755217650835
usemtl m_8af1fcb1-45d2-045a-0a68-e8a7a77c7c93
f 2/1/1 12/2/1 11/3/1 4/4/1
f 23/5/2 25/6/2 24/7/2 26/8/2
f 6/9/3 9/10/3 12/11/3 2/12/3
f 4/13/4 11/14/4 10/15/4 8/16/4
f 3/17/5 1/18/5 5/19/5 7/20/5
f 37/21/6 35/22/6 36/23/6 38/24/6
f 27/25/7 28/26/7 29/27/7 30/28/7
f 7/29/8 10/30/8 11/31/8 3/32/8
f 3/33/9 11/34/9 12/35/9 1/36/9
f 1/37/10 12/38/10 9/39/10 5/40/10
f 14/41/11 17/42/11 8/43/11 10/44/11
f 13/45/12 14/46/12 10/47/12 9/48/12
f 18/49/13 13/50/13 9/51/13 6/52/13
f 17/53/14 18/54/14 6/55/14 8/56/14
f 20/57/15 19/58/15 5/59/15 9/60/15
f 21/61/16 20/62/16 9/63/16 10/64/16
f 22/65/17 21/66/17 10/67/17 7/68/17
f 19/69/18 22/70/18 7/71/18 5/72/18
f 25/73/19 23/74/19 17/75/19 14/76/19
f 24/77/20 25/78/20 14/79/20 13/80/20
f 26/81/21 24/82/21 13/83/21 18/84/21
f 23/85/22 26/86/22 18/87/22 17/88/22
f 28/89/23 27/90/23 19/91/23 20/92/23
f 29/93/24 28/94/24 20/95/24 21/96/24
f 30/97/25 29/98/25 21/99/25 22/100/25
f 27/101/26 30/102/26 22/103/26 19/104/26
f 31/105/27 33/106/27 6/107/27 2/108/27
f 32/109/28 31/110/28 2/111/28 4/112/28
f 34/113/29 32/114/29 4/115/29 8/116/29
f 33/117/30 34/118/30 8/119/30 6/120/30
f 35/121/31 37/122/31 33/123/31 31/124/31
f 36/125/32 35/126/32 31/127/32 32/128/32
f 38/129/33 36/130/33 32/131/33 34/132/33
f 37/133/34 38/134/34 34/135/34 33/136/34
o cylinder
v -0.625 1.0390624999999984 5.898059818321144e-17
v -0.35624999999999996 1.0437499999999984 0.11838664690698059
v -0.6249999999999999 1.0437499999999984 0.11838664690698064
v -0.35624999999999996 1.0977745008298616 0.0837120008298634
v -0.6249999999999999 1.0977745008298618 0.08371200082986345
v -0.35624999999999996 1.1324491469069788 6.938893903907228e-18
v -0.5937499999999999 1.132449146906979 5.551115123125783e-17
v -0.35624999999999996 1.0977745008298618 -0.08371200082986337
v -0.625 1.0977745008298618 -0.08371200082986333
v -0.35625 1.0437499999999984 -0.11838664690698057
v -0.625 1.0437499999999984 -0.11838664690698053
v -0.35625000000000007 0.930350499170135 -0.08371200082986344
v -0.625 0.9303504991701351 -0.08371200082986338
v -0.35625000000000007 0.8956758530930178 3.469446951953614e-17
v -0.625 0.8956758530930179 9.020562075079397e-17
v -0.35625 0.9303504991701349 0.08371200082986333
v -0.625 0.930350499170135 0.08371200082986338
v -0.33124999999999993 1.076846500622396 0.06278400062239756
v -0.33125 1.0394531249999983 0.08878998518023544
v -0.33125 1.0265624999999983 -2.6020852139652106e-18
v -0.33125000000000004 0.9512784993776008 -0.06278400062239757
v -0.33125 1.0394531249999983 -0.08878998518023544
v -0.33124999999999993 1.1028524851802337 0
v -0.33125 1.076846500622396 -0.06278400062239753
v -0.33125000000000004 0.9252725148197629 3.469446951953614e-17
v -0.33125 0.9512784993776007 0.0627840006223975
v -0.64375 1.0437499999999984 0.11838664690698064
v -0.8187499999999998 1.0390624999999987 9.71445146547012e-17
v -0.64375 1.0437499999999984 -0.11838664690698052
v -0.2562500000000001 0.9533799144596223 0.1554888981505653
v -0.2562500000000001 0.9841693599964052 0.16614638820347774
v -0.54375 0.984169359996406 0.16614638820347832
v -0.5437500000000001 0.9533799144596232 0.15548889815056588
vt 0.2412386539495385 0.8955078047239171
vt 0.23644597217415278 0.8924335364415203
vt 0.2460837211026254 0.8866973321449187
vt 0.15603828125 0.8171875
vt 0.1640625 0.8171875
vt 0.1640625 0.85078125
vt 0.15603828125 0.85078125
vt 0.38109206007036456 0.6875
vt 0.3788661088167169 0.6794422771828618
vt 0.40625 0.6794422771828618
vt 0.24973396644386667 0.8955074942922011
vt 0.2412386539495385 0.8955078047239171
vt 0.24608364450971523 0.8866974714246674
vt 0.265625 0.609375
vt 0.2734375 0.609375
vt 0.2734375 0.63671875
vt 0.265625 0.640625
vt 0.3125 0.8420059014654484
vt 0.3232600999760535 0.8367360855706657
vt 0.3232600999760535 0.8671875
vt 0.255740465540785 0.889500976734275
vt 0.2497331394886353 0.895507836827187
vt 0.2460846997284619 0.8866970343401375
vt 0.015625 0.6015625
vt 0.0234375 0.6015625
vt 0.0234375 0.6328125
vt 0.015625 0.62890625
vt 0.3125 1
vt 0.31776981589478265 0.9892399000239465
vt 0.3429514144293343 1
vt 0.2569555798493929 0.8839382057261099
vt 0.255740465540785 0.889500976734275
vt 0.2460845470835404 0.8866969900135067
vt 0.3359375 0.89375
vt 0.34396171875 0.89375
vt 0.34396171875 0.92734375
vt 0.3359375 0.92734375
vt 0.1953125 0.5976161088167169
vt 0.20337022281713824 0.5998420600703646
vt 0.1953125 0.625
vt 0.2497343391988882 0.875
vt 0.2569555798493929 0.8839382057261099
vt 0.2460845470835404 0.8866969900135067
vt 0.0234375 0.75
vt 0.0390625 0.75
vt 0.0390625 0.78125
vt 0.0234375 0.78125
vt 0.043024609375 0.8203125
vt 0.031587109375 0.81088359375
vt 0.048146484375 0.80641640625
vt 0.24123902669888822 0.875
vt 0.2497343391988882 0.875
vt 0.24608433919888822 0.88669765625
vt 0.359375 0.609375
vt 0.3671875 0.609375
vt 0.3671875 0.640625
vt 0.359375 0.640625
vt 0.031587109375 0.81088359375
vt 0.031587109375 0.79955703125
vt 0.048146484375 0.80641640625
vt 0.23523192015060712 0.8810070796057864
vt 0.24123902669888822 0.875
vt 0.24608433919888822 0.88669765625
vt 0.140625 0.96640625
vt 0.1519515625 0.96640625
vt 0.1519515625 1
vt 0.140625 1
vt 0.031587109375 0.79955703125
vt 0.039595703125 0.7915484375
vt 0.048146484375 0.80641640625
vt 0.23644597217415278 0.8924335364415203
vt 0.23523192015060712 0.8810070796057864
vt 0.2460837211026254 0.8866973321449187
vt 0.078125 0.640625
vt 0.0859375 0.640625
vt 0.0859375 0.6796875
vt 0.078125 0.6796875
vt 0.039595703125 0.7915484375
vt 0.054350390625 0.79296875
vt 0.048146484375 0.80641640625
vt 0.015625 0.5522899967265342
vt 0.0157073679553989 0.5407996669483882
vt 0.0234375 0.5390625
vt 0.0234375 0.5538847558194806
vt 0.46450234375 0.7265625
vt 0.47299765625 0.7265625
vt 0.47441328125 0.734375
vt 0.46308671875 0.734375
vt 0.462353125 0.7109375
vt 0.4708484375 0.7109375
vt 0.4722640625 0.71875
vt 0.4609375 0.71875
vt 0.4765625 0.7572374311561361
vt 0.4767166372877467 0.7515465494243653
vt 0.484375 0.75
vt 0.484375 0.7580216907178385
vt 0.28481484375 0.53125
vt 0.29331015625 0.53125
vt 0.29472578125 0.5390625
vt 0.28339921875 0.5390625
vt 0.462353125 0.65625
vt 0.4708484375 0.65625
vt 0.4722640625 0.6640625
vt 0.4609375 0.6640625
vt 0.15603828125 0.853125
vt 0.15603828125 0.85078125
vt 0.1640625 0.85078125
vt 0.1311828125 0.821875
vt 0.11637265625 0.84375
vt 0.11637265625 0.81953125
vt 0.1311828125 0.81953125
vt 0.34396171875 0.9296875
vt 0.3359375 0.92734375
vt 0.34396171875 0.92734375
vt 0.11637265625 0.84375
vt 0.1015625 0.821875
vt 0.1015625 0.81953125
vt 0.11637265625 0.81953125
vt 0.04772414506215978 0.6106923579191315
vt 0.05157785717434016 0.609375
vt 0.06165085493784021 0.6213578128001891
vt 0.04772414506215978 0.6264132892492011
vt 0.14649296875 0.840625
vt 0.14649296875 0.8046875
vt 0.15603828125 0.8171875
vt 0.15603828125 0.85078125
vt 0.373248828125 0.7734375
vt 0.377321484375 0.7734375
vt 0.382406640625 0.7890625
vt 0.367593359375 0.78872578125
vt 0.16137421875 0.95390625
vt 0.16137421875 0.98984375
vt 0.1519515625 1
vt 0.1519515625 0.96640625
vt 0.4457140625 0.95301875
vt 0.44748359375 0.9453125
vt 0.45897421875 0.9453125
vt 0.4605359375 0.953125
vt 0.27323125 0.5232203125
vt 0.27490234375 0.515625
vt 0.2805953125 0.515625
vt 0.28125 0.5234375
vn 1 -6.707813349193072e-16 -2.1360498688045712e-16
vn 4.633497335463497e-16 0.540146916263815 0.841570739065167
vn -0.4644067374597913 0.5868755822091153 0.6632521641190964
vn 1 -5.931887568110054e-16 -2.7574924667933654e-16
vn 5.872073570939821e-16 0.9238795325112868 0.3826834323650897
vn -0.3728040762490487 0.8982110390962759 0.23288205164349163
vn 1 -5.931887568110053e-16 -2.0040032752366775e-16
vn 4.385049718799748e-16 0.9238795325112868 -0.38268343236508956
vn -0.3728040762490488 0.8982110390962759 -0.2328820516434913
vn 1 -6.707813349193071e-16 -2.625445873225471e-16
vn 1.363338095700143e-16 0.540146916263815 -0.8415707390651669
vn -0.46440673745979155 0.5868755822091151 -0.6632521641190962
vn 1 -4.20019256386317e-16 -2.261386805975072e-16
vn -3.4811730489414573e-16 -0.29240979771283904 -0.956293108937598
vn -1 5.022345655431206e-16 2.3807478710150215e-16
vn 1 -4.337293338406955e-16 -2.0969899103684635e-16
vn -5.872073570939821e-16 -0.9238795325112867 -0.38268343236509
vn -1 5.022345655431206e-16 2.3807478710150215e-16
vn 1 -4.3372933384069556e-16 -2.664505831661579e-16
vn -4.385049718799748e-16 -0.9238795325112868 0.38268343236508956
vn -1 5.022345655431206e-16 2.3807478710150215e-16
vn 1 -4.2001925638631704e-16 -2.500108936054971e-16
vn 9.482297790974221e-16 -0.32709973936161674 0.9449898203206015
vn -1 5.022345655431206e-16 2.3807478710150215e-16
vn 0.7207459419420748 -0.19609902047282313 -0.6648837953685071
vn 0.7380288120022738 0.62340545262859 0.25822299333609994
vn 0.7380288120022737 0.6234054526285898 -0.2582229933361002
vn 0.730619890792996 0.3898452591178352 -0.5605490604050447
vn 0.7380288120022729 -0.6234054526285907 -0.2582229933361004
vn 0.7380288120022731 -0.6234054526285907 0.2582229933360998
vn 4.633497335463496e-16 0.540146916263815 0.841570739065167
vn -5.469900656201459e-16 -0.9992170449260545 0.03956383612901113
vn 1.3633380957001432e-16 0.540146916263815 -0.8415707390651669
vn -5.623637042546695e-16 -0.9992170449260545 -0.039563836129010856
vn 0.5163554049586329 0.28011983975009286 -0.8092650808903029
vn 3.4513566140489623e-15 0.6254551843249242 0.7802600927902663
vn -0.6224681041720106 -0.25600303052702283 0.7395917168610552
vn -2.1994511000053687e-15 -0.9521897068348675 0.3055073848497432
vn 0.7207459419420752 -0.19609902047282357 0.6648837953685065
vn 0.730619890792996 0.3898452591178355 0.5605490604050445
usemtl m_8af1fcb1-45d2-045a-0a68-e8a7a77c7c93
f 56/137/35 57/138/35 58/139/35
f 40/140/36 42/141/36 43/142/36 41/143/36
f 65/144/37 43/145/37 66/146/37
f 61/147/38 56/148/38 58/149/38
f 42/150/39 44/151/39 45/152/39 43/153/39
f 43/154/40 45/155/40 66/156/40
f 62/157/41 61/158/41 58/159/41
f 44/160/42 46/161/42 47/162/42 45/163/42
f 45/164/43 47/165/43 66/166/43
f 60/167/44 62/168/44 58/169/44
f 46/170/45 48/171/45 49/172/45 47/173/45
f 47/174/46 67/175/46 66/176/46
f 59/177/47 60/178/47 58/179/47
f 48/180/48 50/181/48 51/182/48 49/183/48
f 49/184/49 51/185/49 39/186/49
f 63/187/50 59/188/50 58/189/50
f 50/190/51 52/191/51 53/192/51 51/193/51
f 51/194/52 53/195/52 39/196/52
f 64/197/53 63/198/53 58/199/53
f 52/200/54 54/201/54 55/202/54 53/203/54
f 53/204/55 55/205/55 39/206/55
f 57/207/56 64/208/56 58/209/56
f 68/210/57 69/211/57 70/212/57 71/213/57
f 55/214/58 41/215/58 39/216/58
f 60/217/59 59/218/59 50/219/59 48/220/59
f 56/221/60 61/222/60 44/223/60 42/224/60
f 61/225/61 62/226/61 46/227/61 44/228/61
f 62/229/62 60/230/62 48/231/62 46/232/62
f 59/233/63 63/234/63 52/235/63 50/236/63
f 63/237/64 64/238/64 54/239/64 52/240/64
f 65/241/65 41/242/65 43/243/65
f 65/244/66 66/245/66 39/246/66 41/247/66
f 67/248/67 47/249/67 49/250/67
f 66/251/68 67/252/68 49/253/68 39/254/68
f 69/255/69 68/256/69 54/257/69 40/258/69
f 70/259/70 69/260/70 40/261/70 41/262/70
f 71/263/71 70/264/71 41/265/71 55/266/71
f 68/267/72 71/268/72 55/269/72 54/270/72
f 54/271/73 64/272/73 57/273/73 40/274/73
f 40/275/74 57/276/74 56/277/74 42/278/74
o Arm
v -0.3343749999999953 1.0171875000000017 5.389023147467818e-16
v -0.15937499999999533 1.017187500000001 8.772126480466929e-16
v -0.3343749999999951 1.0503307628834884 -0.05624999999999942
v -0.15937499999999508 1.0503307628834877 -0.05624999999999908
v -0.33437499999999504 1.0734375000000014 -0.037362012883486
v -0.15937499999999502 1.0734375000000007 -0.03736201288348566
v -0.33437499999999515 1.0734375000000014 0.037362012883487165
v -0.1593749999999952 1.0734375000000007 0.037362012883487505
v -0.3343749999999953 1.0503307628834884 0.056250000000000556
v -0.1593749999999953 1.0503307628834877 0.056250000000000897
v -0.33437499999999554 0.984044237116515 0.056250000000000494
v -0.15937499999999558 0.9840442371165143 0.056250000000000834
v -0.3343749999999956 0.960937500000002 0.0373620128834871
v -0.15937499999999563 0.9609375000000013 0.03736201288348744
v -0.3343749999999955 0.960937500000002 -0.03736201288348612
v -0.15937499999999546 0.9609375000000013 -0.03736201288348578
v -0.3343749999999953 0.984044237116515 -0.05624999999999947
v -0.15937499999999535 0.9840442371165143 -0.05624999999999913
v -0.3177083333333285 1.0503307628834884 -0.056249999999999384
v -0.3177083333333287 0.984044237116515 -0.05624999999999944
v -0.29466911764705395 1.0503307628834881 -0.056249999999999335
v -0.29466911764705417 0.9840442371165148 -0.05624999999999939
v -0.3177083333333289 0.960937500000002 -0.03736201288348608
v -0.29466911764705433 0.9609375000000018 -0.03736201288348604
v -0.317708333333329 0.960937500000002 0.03736201288348714
v -0.29466911764705445 0.9609375000000018 0.03736201288348718
v -0.31770833333332893 0.984044237116515 0.05625000000000052
v -0.2946691176470544 0.9840442371165148 0.05625000000000057
v -0.3177083333333287 1.0503307628834884 0.05625000000000059
v -0.29466911764705417 1.0503307628834881 0.05625000000000064
v -0.31770833333332854 1.0734375000000014 0.03736201288348719
v -0.294669117647054 1.0734375000000012 0.03736201288348724
v -0.31770833333332843 1.0734375000000014 -0.03736201288348597
v -0.2946691176470539 1.0734375000000012 -0.03736201288348592
vt 0.41328125 0.8163890625
vt 0.41039296875 0.81875
vt 0.40625 0.81171875
vt 0.23845624999999998 0.53125
vt 0.23845624999999998 0.51433828125
vt 0.2421875 0.51433828125
vt 0.2421875 0.53125
vt 0.41039296875 0.7359375
vt 0.41328125 0.7382984375
vt 0.40625 0.74296875
vt 0.41328125 0.8070484375
vt 0.41328125 0.8163890625
vt 0.40625 0.81171875
vt 0.2843921875 0.609375
vt 0.2843921875 0.59246328125
vt 0.2937328125 0.59246328125
vt 0.2937328125 0.609375
vt 0.41328125 0.7382984375
vt 0.41328125 0.7476390625
vt 0.40625 0.74296875
vt 0.41039296875 0.8046875
vt 0.41328125 0.8070484375
vt 0.40625 0.81171875
vt 0.15625 0.53125
vt 0.15625 0.51433828125
vt 0.15998125000000002 0.51433828125
vt 0.15998125000000002 0.53125
vt 0.41328125 0.7476390625
vt 0.41039296875 0.75
vt 0.40625 0.74296875
vt 0.40210703125 0.8046875
vt 0.41039296875 0.8046875
vt 0.40625 0.81171875
vt 0.42554453125 1
vt 0.42554453125 0.98308828125
vt 0.43383046875 0.98308828125
vt 0.43383046875 1
vt 0.41039296875 0.75
vt 0.40210703125 0.75
vt 0.40625 0.74296875
vt 0.39921875 0.8070484375
vt 0.40210703125 0.8046875
vt 0.40625 0.81171875
vt 0.39470703125 0.53125
vt 0.39470703125 0.51433828125
vt 0.3984375 0.51433828125
vt 0.3984375 0.53125
vt 0.40210703125 0.75
vt 0.39921875 0.7476390625
vt 0.40625 0.74296875
vt 0.39921875 0.8163890625
vt 0.39921875 0.8070484375
vt 0.40625 0.81171875
vt 0.0500171875 0.6015625
vt 0.0500171875 0.58465078125
vt 0.059357812499999996 0.58465078125
vt 0.059357812499999996 0.6015625
vt 0.39921875 0.7476390625
vt 0.39921875 0.7382984375
vt 0.40625 0.74296875
vt 0.40210703125 0.81875
vt 0.39921875 0.8163890625
vt 0.40625 0.81171875
vt 0.25 0.53125
vt 0.25 0.51433828125
vt 0.25373046875 0.51433828125
vt 0.25373046875 0.53125
vt 0.39921875 0.7382984375
vt 0.40210703125 0.7359375
vt 0.40625 0.74296875
vt 0.41039296875 0.81875
vt 0.40210703125 0.81875
vt 0.40625 0.81171875
vt 0.42554453125 0.953125
vt 0.42554453125 0.93621328125
vt 0.43383046875 0.93621328125
vt 0.43383046875 0.953125
vt 0.40210703125 0.7359375
vt 0.41039296875 0.7359375
vt 0.40625 0.74296875
vt 0.43383046875 0.93125
vt 0.43383046875 0.93333359375
vt 0.42554453125 0.93333359375
vt 0.42554453125 0.93125
vt 0.43383046875 0.93333359375
vt 0.43383046875 0.93621328125
vt 0.42554453125 0.93621328125
vt 0.42554453125 0.93333359375
vt 0.25373046875 0.509375
vt 0.25373046875 0.51145859375
vt 0.25 0.51145859375
vt 0.25 0.509375
vt 0.25373046875 0.51145859375
vt 0.25373046875 0.51433828125
vt 0.25 0.51433828125
vt 0.25 0.51145859375
vt 0.059357812499999996 0.5796875
vt 0.059357812499999996 0.58177109375
vt 0.0500171875 0.58177109375
vt 0.0500171875 0.5796875
vt 0.059357812499999996 0.58177109375
vt 0.059357812499999996 0.58465078125
vt 0.0500171875 0.58465078125
vt 0.0500171875 0.58177109375
vt 0.3984375 0.509375
vt 0.3984375 0.51145859375
vt 0.39470703125 0.51145859375
vt 0.39470703125 0.509375
vt 0.3984375 0.51145859375
vt 0.3984375 0.51433828125
vt 0.39470703125 0.51433828125
vt 0.39470703125 0.51145859375
vt 0.43383046875 0.978125
vt 0.43383046875 0.98020859375
vt 0.42554453125 0.98020859375
vt 0.42554453125 0.978125
vt 0.43383046875 0.98020859375
vt 0.43383046875 0.98308828125
vt 0.42554453125 0.98308828125
vt 0.42554453125 0.98020859375
vt 0.15998125000000002 0.509375
vt 0.15998125000000002 0.51145859375
vt 0.15625 0.51145859375
vt 0.15625 0.509375
vt 0.15998125000000002 0.51145859375
vt 0.15998125000000002 0.51433828125
vt 0.15625 0.51433828125
vt 0.15625 0.51145859375
vt 0.2937328125 0.5875
vt 0.2937328125 0.58958359375
vt 0.2843921875 0.58958359375
vt 0.2843921875 0.5875
vt 0.2937328125 0.58958359375
vt 0.2937328125 0.59246328125
vt 0.2843921875 0.59246328125
vt 0.2843921875 0.58958359375
vt 0.2421875 0.509375
vt 0.2421875 0.51145859375
vt 0.23845624999999998 0.51145859375
vt 0.23845624999999998 0.509375
vt 0.2421875 0.51145859375
vt 0.2421875 0.51433828125
vt 0.23845624999999998 0.51433828125
vt 0.23845624999999998 0.51145859375
vn -1 3.996802888650565e-15 -1.9332019045709208e-15
vn 4.026292430662373e-15 0.6328859753093352 -0.7742450143570521
vn 1 -3.996802888650565e-15 1.9332019045709208e-15
vn -1 3.996802888650565e-15 -1.9332019045709208e-15
vn 3.996802888650562e-15 1 1.010643099614868e-15
vn 1 -3.996802888650565e-15 1.9332019045709208e-15
vn -1 3.996802888650565e-15 -1.9332019045709208e-15
vn 1.0327485579431824e-15 0.6328859753093342 0.7742450143570528
vn 1 -3.996802888650565e-15 1.9332019045709208e-15
vn -1 3.996802888650565e-15 -1.9332019045709208e-15
vn -1.9332019045709247e-15 -1.0106430996148602e-15 1
vn 1 -3.996802888650565e-15 1.9332019045709208e-15
vn -1 3.996802888650565e-15 -1.9332019045709208e-15
vn -4.026292430662372e-15 -0.6328859753093347 0.7742450143570525
vn 1 -3.996802888650565e-15 1.9332019045709208e-15
vn -1 3.996802888650565e-15 -1.9332019045709208e-15
vn -3.996802888650562e-15 -1 -1.010643099614868e-15
vn 1 -3.996802888650565e-15 1.9332019045709208e-15
vn -1 3.996802888650565e-15 -1.9332019045709208e-15
vn -1.0327485579431777e-15 -0.6328859753093334 -0.7742450143570535
vn 1 -3.996802888650565e-15 1.9332019045709208e-15
vn -1 3.996802888650565e-15 -1.9332019045709208e-15
vn 1.933201904570924e-15 8.012824845088422e-16 -1
vn 1 -3.996802888650565e-15 1.9332019045709208e-15
vn 1.933201904570924e-15 8.012824845088421e-16 -1
vn 1.933201904570924e-15 8.012824845088421e-16 -1
vn -1.0327485579431778e-15 -0.6328859753093334 -0.7742450143570534
vn -1.0327485579431777e-15 -0.6328859753093334 -0.7742450143570535
vn -3.996802888650562e-15 -1 -1.010643099614868e-15
vn -3.996802888650562e-15 -1 -1.010643099614868e-15
vn -4.026292430662372e-15 -0.6328859753093348 0.7742450143570525
vn -4.026292430662372e-15 -0.6328859753093348 0.7742450143570525
vn -1.9332019045709247e-15 -1.0106430996148602e-15 1
vn -1.9332019045709247e-15 -1.0106430996148602e-15 1
vn 1.0327485579431824e-15 0.6328859753093342 0.7742450143570527
vn 1.0327485579431824e-15 0.6328859753093342 0.7742450143570527
vn 3.996802888650562e-15 1 1.010643099614868e-15
vn 3.996802888650562e-15 1 1.010643099614868e-15
vn 4.026292430662373e-15 0.6328859753093352 -0.774245014357052
vn 4.026292430662373e-15 0.6328859753093352 -0.774245014357052
usemtl m_8af1fcb1-45d2-045a-0a68-e8a7a77c7c93
f 76/279/75 74/280/75 72/281/75
f 75/282/76 92/283/76 105/284/76 77/285/76
f 75/286/77 77/287/77 73/288/77
f 78/289/78 76/290/78 72/291/78
f 77/292/79 105/293/79 103/294/79 79/295/79
f 77/296/80 79/297/80 73/298/80
f 80/299/81 78/300/81 72/301/81
f 79/302/82 103/303/82 101/304/82 81/305/82
f 79/306/83 81/307/83 73/308/83
f 82/309/84 80/310/84 72/311/84
f 81/312/85 101/313/85 99/314/85 83/315/85
f 81/316/86 83/317/86 73/318/86
f 84/319/87 82/320/87 72/321/87
f 83/322/88 99/323/88 97/324/88 85/325/88
f 83/326/89 85/327/89 73/328/89
f 86/329/90 84/330/90 72/331/90
f 85/332/91 97/333/91 95/334/91 87/335/91
f 85/336/92 87/337/92 73/338/92
f 88/339/93 86/340/93 72/341/93
f 87/342/94 95/343/94 93/344/94 89/345/94
f 87/346/95 89/347/95 73/348/95
f 74/349/96 88/350/96 72/351/96
f 89/352/97 93/353/97 92/354/97 75/355/97
f 89/356/98 75/357/98 73/358/98
f 74/359/99 90/360/99 91/361/99 88/362/99
f 90/363/100 92/364/100 93/365/100 91/366/100
f 88/367/101 91/368/101 94/369/101 86/370/101
f 91/371/102 93/372/102 95/373/102 94/374/102
f 86/375/103 94/376/103 96/377/103 84/378/103
f 94/379/104 95/380/104 97/381/104 96/382/104
f 84/383/105 96/384/105 98/385/105 82/386/105
f 96/387/106 97/388/106 99/389/106 98/390/106
f 82/391/107 98/392/107 100/393/107 80/394/107
f 98/395/108 99/396/108 101/397/108 100/398/108
f 80/399/109 100/400/109 102/401/109 78/402/109
f 100/403/110 101/404/110 103/405/110 102/406/110
f 78/407/111 102/408/111 104/409/111 76/410/111
f 102/411/112 103/412/112 105/413/112 104/414/112
f 76/415/113 104/416/113 90/417/113 74/418/113
f 104/419/114 105/420/114 92/421/114 90/422/114
o cylinder
v -0.16875000052683556 1.014062498287785 0.06250000000000058
v -0.16875000052683556 1.0140624982877837 -0.06249999999999971
v -0.23750000013863135 1.0324840067162226 0.06250000000000035
v -0.23750000013863135 1.0324840067162213 -0.062499999999999924
v -0.21907849248660222 1.064390992368739 0.06250000000000003
v -0.21907849248660222 1.0643909923687376 -0.06250000000000025
v -0.18717150605767735 1.082812498675989 0.062499999999999854
v -0.18717150605767735 1.0828124986759877 -0.06250000000000043
v -0.15032849209839794 1.0828124978995808 0.06249999999999987
v -0.15032849209839794 1.0828124978995795 -0.06250000000000042
v -0.11842150644588156 1.0643909902475515 0.06250000000000007
v -0.11842150644588156 1.0643909902475501 -0.06250000000000021
v -0.10000000013863133 1.0324840038186267 0.06250000000000042
v -0.10000000013863133 1.0324840038186254 -0.06249999999999986
v -0.10000000091503974 0.9956409898593473 0.06250000000000079
v -0.10000000091503974 0.995640989859346 -0.06249999999999948
v -0.1184215085670689 0.963734004206831 0.06250000000000111
v -0.1184215085670689 0.9637340042068296 -0.06249999999999916
v -0.1503284949959938 0.9453124978995807 0.06250000000000129
v -0.1503284949959938 0.9453124978995794 -0.06249999999999899
v -0.18717150895527312 0.9453124986759892 0.06250000000000128
v -0.18717150895527312 0.9453124986759879 -0.062499999999999
v -0.21907849460778955 0.9637340063280183 0.06250000000000107
v -0.21907849460778955 0.963734006328017 -0.0624999999999992
v -0.23750000091503978 0.9956409927569432 0.06250000000000072
v -0.23750000091503978 0.9956409927569418 -0.06249999999999954
vt 0.34613515625 0.72582265625
vt 0.34214609375 0.728125
vt 0.33984375 0.71953125
vt 0.4375 0.6875
vt 0.4453125 0.6875
vt 0.4453125 0.703125
vt 0.4375 0.703125
vt 0.17027109375 0.6546875
vt 0.17426015625 0.65698984375
vt 0.16796875 0.66328125
vt 0.3484375 0.72183359375
vt 0.34613515625 0.72582265625
vt 0.33984375 0.71953125
vt 0.2265625 0.546875
vt 0.234375 0.546875
vt 0.234375 0.5625
vt 0.2265625 0.5625
vt 0.17426015625 0.65698984375
vt 0.1765625 0.66097890625
vt 0.16796875 0.66328125
vt 0.3484375 0.71722890625
vt 0.3484375 0.72183359375
vt 0.33984375 0.71953125
vt 0.046875 0.765625
vt 0.0546875 0.765625
vt 0.0546875 0.78125
vt 0.046875 0.78125
vt 0.1765625 0.66097890625
vt 0.1765625 0.66558359375
vt 0.16796875 0.66328125
vt 0.34613515625 0.71323984375
vt 0.3484375 0.71722890625
vt 0.33984375 0.71953125
vt 0.28125 0.546875
vt 0.2890625 0.546875
vt 0.2890625 0.5625
vt 0.28125 0.5625
vt 0.1765625 0.66558359375
vt 0.17426015625 0.66957265625
vt 0.16796875 0.66328125
vt 0.34214609375 0.7109375
vt 0.34613515625 0.71323984375
vt 0.33984375 0.71953125
vt 0.34375 0.546875
vt 0.3515625 0.546875
vt 0.3515625 0.5625
vt 0.34375 0.5625
vt 0.17426015625 0.66957265625
vt 0.17027109375 0.671875
vt 0.16796875 0.66328125
vt 0.33754140625 0.7109375
vt 0.34214609375 0.7109375
vt 0.33984375 0.71953125
vt 0.3984375 0.5546875
vt 0.40625 0.5546875
vt 0.40625 0.5703125
vt 0.3984375 0.5703125
vt 0.17027109375 0.671875
vt 0.16566640625 0.671875
vt 0.16796875 0.66328125
vt 0.33355234375 0.71323984375
vt 0.33754140625 0.7109375
vt 0.33984375 0.71953125
vt 0.359375 0.546875
vt 0.3671875 0.546875
vt 0.3671875 0.5625
vt 0.359375 0.5625
vt 0.16566640625 0.671875
vt 0.16167734375 0.66957265625
vt 0.16796875 0.66328125
vt 0.33125 0.71722890625
vt 0.33355234375 0.71323984375
vt 0.33984375 0.71953125
vt 0.1953125 0.546875
vt 0.203125 0.546875
vt 0.203125 0.5625
vt 0.1953125 0.5625
vt 0.16167734375 0.66957265625
vt 0.159375 0.66558359375
vt 0.16796875 0.66328125
vt 0.33125 0.72183359375
vt 0.33125 0.71722890625
vt 0.33984375 0.71953125
vt 0.265625 0.5546875
vt 0.2734375 0.5546875
vt 0.2734375 0.5703125
vt 0.265625 0.5703125
vt 0.159375 0.66558359375
vt 0.159375 0.66097890625
vt 0.16796875 0.66328125
vt 0.33355234375 0.72582265625
vt 0.33125 0.72183359375
vt 0.33984375 0.71953125
vt 0.2109375 0.546875
vt 0.21875 0.546875
vt 0.21875 0.5625
vt 0.2109375 0.5625
vt 0.159375 0.66097890625
vt 0.16167734375 0.65698984375
vt 0.16796875 0.66328125
vt 0.33754140625 0.728125
vt 0.33355234375 0.72582265625
vt 0.33984375 0.71953125
vt 0.296875 0.546875
vt 0.3046875 0.546875
vt 0.3046875 0.5625
vt 0.296875 0.5625
vt 0.16167734375 0.65698984375
vt 0.16566640625 0.6546875
vt 0.16796875 0.66328125
vt 0.34214609375 0.728125
vt 0.33754140625 0.728125
vt 0.33984375 0.71953125
vt 0.328125 0.5546875
vt 0.3359375 0.5546875
vt 0.3359375 0.5703125
vt 0.328125 0.5703125
vt 0.16566640625 0.6546875
vt 0.17027109375 0.6546875
vt 0.16796875 0.66328125
vn -4.4408899109558276e-16 1.038058528960369e-14 1
vn -0.8660253932477264 0.5000000182501207 -5.329070712713109e-15
vn 4.4408899109558276e-16 -1.038058528960369e-14 -1
vn -4.4408899109558276e-16 1.038058528960369e-14 1
vn -0.4999999817498789 0.8660254143211509 -9.230221006942869e-15
vn 4.4408899109558276e-16 -1.038058528960369e-14 -1
vn -4.4408899109558276e-16 1.038058528960369e-14 1
vn 2.1073424449902227e-8 0.9999999999999998 -1.0658141036401495e-14
vn 4.4408899109558276e-16 -1.038058528960369e-14 -1
vn -4.4408899109558276e-16 1.038058528960369e-14 1
vn 0.5000000182501207 0.8660253932477264 -9.230220782339336e-15
vn 4.4408899109558276e-16 -1.038058528960369e-14 -1
vn -4.4408899109558276e-16 1.038058528960369e-14 1
vn 0.8660254143211507 0.49999998174987914 -5.329070323688387e-15
vn 4.4408899109558276e-16 -1.038058528960369e-14 -1
vn -4.4408899109558276e-16 1.038058528960369e-14 1
vn 0.9999999999999998 -2.1073423363488276e-8 2.246035183278565e-22
vn 4.4408899109558276e-16 -1.038058528960369e-14 -1
vn -4.4408899109558276e-16 1.038058528960369e-14 1
vn 0.8660253932477265 -0.5000000182501205 5.3290707127131075e-15
vn 4.4408899109558276e-16 -1.038058528960369e-14 -1
vn -4.4408899109558276e-16 1.038058528960369e-14 1
vn 0.4999999817498787 -0.866025414321151 9.23022100694287e-15
vn 4.4408899109558276e-16 -1.038058528960369e-14 -1
vn -4.4408899109558276e-16 1.038058528960369e-14 1
vn -2.1073424449902227e-8 -0.9999999999999998 1.0658141036401495e-14
vn 4.4408899109558276e-16 -1.038058528960369e-14 -1
vn -4.4408899109558276e-16 1.038058528960369e-14 1
vn -0.5000000182501203 -0.8660253932477265 9.230220782339339e-15
vn 4.4408899109558276e-16 -1.038058528960369e-14 -1
vn -4.4408899109558276e-16 1.038058528960369e-14 1
vn -0.8660254143211507 -0.499999981749879 5.329070323688386e-15
vn 4.4408899109558276e-16 -1.038058528960369e-14 -1
vn -4.4408899109558276e-16 1.038058528960369e-14 1
vn -0.9999999999999998 2.107342411683532e-8 -2.2460352635713555e-22
vn 4.4408899109558276e-16 -1.038058528960369e-14 -1
usemtl m_8af1fcb1-45d2-045a-0a68-e8a7a77c7c93
f 110/423/115 108/424/115 106/425/115
f 108/426/116 110/427/116 111/428/116 109/429/116
f 109/430/117 111/431/117 107/432/117
f 112/433/118 110/434/118 106/435/118
f 110/436/119 112/437/119 113/438/119 111/439/119
f 111/440/120 113/441/120 107/442/120
f 114/443/121 112/444/121 106/445/121
f 112/446/122 114/447/122 115/448/122 113/449/122
f 113/450/123 115/451/123 107/452/123
f 116/453/124 114/454/124 106/455/124
f 114/456/125 116/457/125 117/458/125 115/459/125
f 115/460/126 117/461/126 107/462/126
f 118/463/127 116/464/127 106/465/127
f 116/466/128 118/467/128 119/468/128 117/469/128
f 117/470/129 119/471/129 107/472/129
f 120/473/130 118/474/130 106/475/130
f 118/476/131 120/477/131 121/478/131 119/479/131
f 119/480/132 121/481/132 107/482/132
f 122/483/133 120/484/133 106/485/133
f 120/486/134 122/487/134 123/488/134 121/489/134
f 121/490/135 123/491/135 107/492/135
f 124/493/136 122/494/136 106/495/136
f 122/496/137 124/497/137 125/498/137 123/499/137
f 123/500/138 125/501/138 107/502/138
f 126/503/139 124/504/139 106/505/139
f 124/506/140 126/507/140 127/508/140 125/509/140
f 125/510/141 127/511/141 107/512/141
f 128/513/142 126/514/142 106/515/142
f 126/516/143 128/517/143 129/518/143 127/519/143
f 127/520/144 129/521/144 107/522/144
f 130/523/145 128/524/145 106/525/145
f 128/526/146 130/527/146 131/528/146 129/529/146
f 129/530/147 131/531/147 107/532/147
f 108/533/148 130/534/148 106/535/148
f 130/536/149 108/537/149 109/538/149 131/539/149
f 131/540/150 109/541/150 107/542/150