# Made in Blockbench 5.1.5
mtllib TexasRedRightArm.mtl

o cuboid
v 0.8250000000000001 1.0437500000000015 0.10937499999999997
v 0.8250000000000001 1.0437500000000015 -0.11718749999999994
v 0.8250000000000001 0.9187500000000018 0.10937499999999997
v 0.8250000000000001 0.9187500000000018 -0.11718749999999994
v 0.6250000000000001 1.0437500000000015 0.08437499999999995
v 0.6250000000000001 1.0437500000000015 -0.11718749999999994
v 0.6250000000000001 0.9187500000000018 0.08437499999999995
v 0.6250000000000001 0.9187500000000018 -0.11718749999999994
v 0.6250000000000001 0.993750000000002 -0.11718749999999994
v 0.85 0.993750000000002 -0.11718749999999994
v 0.85 0.993750000000002 0.10937499999999997
v 0.6250000000000001 0.993750000000002 0.08437499999999995
v 0.7250000000000001 0.993750000000002 -0.11718749999999994
v 0.7250000000000001 1.0437500000000015 -0.11718749999999994
v 0.7250000000000001 1.0437500000000015 0.10937499999999997
v 0.7250000000000001 0.993750000000002 0.10937499999999997
v 0.7250000000000001 0.9187500000000018 0.10937499999999997
v 0.7250000000000001 0.9187500000000018 -0.11718749999999994
v 0.85 0.993750000000002 -0.042187500000000024
v 0.8250000000000001 0.9187500000000018 -0.042187500000000024
v 0.7250000000000001 0.9187500000000018 -0.042187500000000024
v 0.6250000000000001 0.9187500000000018 -0.042187500000000024
v 0.6250000000000001 0.993750000000002 -0.042187500000000024
v 0.6250000000000001 1.0437500000000015 -0.042187500000000024
v 0.7250000000000001 1.0437500000000015 -0.042187500000000024
v 0.8250000000000001 1.0437500000000015 -0.042187500000000024
v 0.6250000000000001 0.8812500000000015 -0.14843749999999997
v 0.7250000000000001 0.8812500000000015 -0.14843749999999997
v 0.7250000000000001 0.8812500000000018 -0.042187500000000024
v 0.6250000000000001 0.8812500000000018 -0.042187500000000024
v 0.6812500000000001 0.9187500000000018 -0.042187500000000024
v 0.6812500000000001 0.9187500000000018 0.10937499999999997
v 0.6812500000000001 0.993750000000002 0.10937499999999997
v 0.6812500000000001 1.0437500000000015 0.10937499999999997
v 0.6812500000000001 1.0437500000000015 -0.042187500000000024
v 0.6812500000000001 1.0437500000000015 -0.11718749999999994
v 0.6812500000000001 0.993750000000002 -0.11718749999999994
v 0.6812500000000001 0.8812500000000015 -0.14843749999999997
v 0.6812500000000001 0.8812500000000018 -0.042187500000000024
v 0.7250000000000001 0.8937500000000017 -0.11718749999999994
v 0.8171875000000001 0.8937500000000017 -0.042187500000000024
v 0.7250000000000001 0.8937500000000017 -0.042187500000000024
v 0.8171875000000001 0.8937500000000017 -0.11718749999999994
v 0.8171875000000001 0.8937500000000017 0.10937499999999997
v 0.7250000000000001 0.8937500000000017 0.10937499999999997
v 0.6812500000000001 0.8937500000000017 -0.042187500000000024
v 0.6812500000000001 0.8937500000000017 0.10937499999999997
vt 0.37802734375 0.89596875
vt 0.37802734375 0.88608671875
vt 0.36865234375 0.88608671875
vt 0.36865234375 0.89596875
vt 0.1953125 0.6859375
vt 0.1828125 0.6859375
vt 0.1828125 0.6953125
vt 0.1953125 0.6953125
vt 0.003222656250000004 0.6265625
vt 0.014746093750000001 0.6265625
vt 0.014746093750000001 0.6171875
vt 0.003222656250000004 0.6171875
vt 0.383984375 0.99375
vt 0.383984375 0.984375
vt 0.371484375 0.984375
vt 0.368359375 0.99375
vt 0.35 0.859375
vt 0.35 0.86875
vt 0.365625 0.86875
vt 0.3625 0.859375
vt 0.33720703125 0.953125
vt 0.33720703125 0.9625
vt 0.34658203125 0.9625
vt 0.34658203125 0.953125
vt 0.35 0.86875
vt 0.35 0.875
vt 0.3625 0.875
vt 0.365625 0.86875
vt 0.45615234375 0.9296875
vt 0.45615234375 0.9227
vt 0.44677734375 0.9227
vt 0.44677734375 0.9296875
vt 0.383984375 1
vt 0.383984375 0.99375
vt 0.368359375 0.99375
vt 0.371484375 1
vt 0.33720703125 0.9625
vt 0.33720703125 0.96875
vt 0.34658203125 0.96875
vt 0.34658203125 0.9625
vt 0.34453125 0.875
vt 0.34453125 0.86875
vt 0.3375 0.86875
vt 0.3375 0.875
vt 0.20078125 0.6859375
vt 0.20078125 0.6953125
vt 0.2078125 0.6953125
vt 0.2078125 0.6859375
vt 0.40636796875000003 0.5171875
vt 0.40636796875000003 0.5234375
vt 0.4140625 0.5234375
vt 0.4140625 0.5171875
vt 0.40636796875000003 0.5078125
vt 0.40636796875000003 0.5171875
vt 0.4140625 0.5171875
vt 0.4140625 0.5078125
vt 0.46796875 0.9609375
vt 0.46796875 0.97421875
vt 0.475 0.97421875
vt 0.475 0.9609375
vt 0.039843750000000004 0.546875
vt 0.039843750000000004 0.5322796875
vt 0.0328125 0.5322796875
vt 0.0328125 0.546875
vt 0.37802734375 0.88608671875
vt 0.37802734375 0.89596875
vt 0.39697265625 0.89596875
vt 0.39697265625 0.88608671875
vt 0.014746093750000001 0.6265625
vt 0.003222656250000004 0.6265625
vt 0.003222656250000004 0.6455078125
vt 0.014746093750000001 0.6455078125
vt 0.34375 0.5078125
vt 0.34375 0.5234375
vt 0.3515625 0.5203125
vt 0.3515625 0.5078125
vt 0.33720703125 0.9625
vt 0.33720703125 0.953125
vt 0.32138671875 0.953125
vt 0.32138671875 0.9625
vt 0.33720703125 0.96875
vt 0.33720703125 0.9625
vt 0.32138671875 0.9625
vt 0.32138671875 0.96875
vt 0.20078125 0.6669921875
vt 0.20078125 0.6859375
vt 0.2078125 0.6859375
vt 0.2078125 0.6701171875
vt 0.1828125 0.6859375
vt 0.1953125 0.6859375
vt 0.1953125 0.6669921875
vt 0.1828125 0.6669921875
vt 0.45615234375 0.9227
vt 0.45615234375 0.9296875
vt 0.47509765625 0.9296875
vt 0.47509765625 0.9227
vt 0.411328125 0.553125
vt 0.407421875 0.5484375
vt 0.411328125 0.5625
vt 0.34658203125 0.9625
vt 0.35048828125 0.9484375
vt 0.34658203125 0.953125
vt 0.34658203125 0.953125
vt 0.35048828125 0.9484375
vt 0.33720703125 0.9484375
vt 0.33720703125 0.953125
vt 0.37421875 0.48750000000000004
vt 0.37421875 0.4921875
vt 0.38125 0.4921875
vt 0.38125 0.48750000000000004
vt 0.420703125 0.553125
vt 0.420703125 0.5484375
vt 0.407421875 0.5484375
vt 0.411328125 0.553125
vt 0.020214843749999996 0.6455078125
vt 0.020214843749999996 0.6265625
vt 0.014746093750000001 0.6265625
vt 0.014746093750000001 0.6455078125
vt 0.389453125 0.99375
vt 0.389453125 0.984375
vt 0.383984375 0.984375
vt 0.383984375 0.99375
vt 0.389453125 1
vt 0.389453125 0.99375
vt 0.383984375 0.99375
vt 0.383984375 1
vt 0.20078125 0.6859375
vt 0.20078125 0.6669921875
vt 0.1953125 0.6669921875
vt 0.1953125 0.6859375
vt 0.20078125 0.6953125
vt 0.20078125 0.6859375
vt 0.1953125 0.6859375
vt 0.1953125 0.6953125
vt 0.34453125 0.86875
vt 0.34453125 0.875
vt 0.35 0.875
vt 0.35 0.86875
vt 0.039843750000000004 0.5322796875
vt 0.039843750000000004 0.546875
vt 0.0453125 0.546875
vt 0.0453125 0.5322796875
vt 0.46796875 0.97421875
vt 0.46796875 0.9609375
vt 0.4625 0.9609375
vt 0.4625 0.97421875
vt 0.37421875 0.4921875
vt 0.37421875 0.48750000000000004
vt 0.36875 0.48750000000000004
vt 0.36875 0.4921875
vt 0.515625 0.671875
vt 0.515625 0.6640625
vt 0.5078125 0.6640625
vt 0.5078125 0.671875
vt 0.37802734375 0.88608671875
vt 0.37802734375 0.8828125
vt 0.36865234375 0.8828125
vt 0.36865234375 0.88608671875
vt 0.3625 0.859375
vt 0.3615234375 0.85625
vt 0.35 0.85625
vt 0.35 0.859375
vt 0.39697265625 0.88608671875
vt 0.39697265625 0.8828125
vt 0.37802734375 0.8828125
vt 0.37802734375 0.88608671875
vt 0.383984375 0.984375
vt 0.383984375 0.98125
vt 0.3724609375 0.98125
vt 0.371484375 0.984375
vt 0.515625 0.65625
vt 0.515625 0.6484375
vt 0.5078125 0.6484375
vt 0.5078125 0.65625
vt 0.4921875 0.6015625
vt 0.4921875 0.59375
vt 0.4765625 0.59375
vt 0.4765625 0.6015625
vt 0.389453125 0.984375
vt 0.389453125 0.98125
vt 0.383984375 0.98125
vt 0.383984375 0.984375
vn 0.9486832980505144 -0.3162277660168363 0
vn 0 1 0
vn 0 -1 0
vn 0 0 1
vn 0 0 -1
vn -1 0 0
vn 0 0 -1
vn 0.8944271909999143 0.44721359549996115 0
vn 0 0 1
vn -1 0 0
vn 0 0 -1
vn 0 1 0
vn -0.4061384660534478 0 0.9138115486202572
vn -0.4061384660534478 0 0.913811548620257
vn 0 -1 2.0898315757650014e-15
vn 0 0.2676438637860938 -0.963517909629941
vn 0.9486832980505144 -0.3162277660168363 0
vn 0 -1 0
vn 0 -1 0
vn -1 0 0
vn -1 0 0
vn 0 1 0
vn 0 1 0
vn 0.8944271909999143 0.44721359549996115 0
vn 1 0 0
vn -1 0 0
vn -1 0 0
vn 0 0 1
vn 1 0 0
vn 0 -1 0
vn 0 0 1
vn 0 0 1
vn 0 1 0
vn 0 1 0
vn 0 0 -1
vn 0 0.2676438637860938 -0.963517909629941
vn 0 -1 2.0898315757650014e-15
vn 0 0 1
vn -1 0 0
vn 0.9544799780350304 -0.2982749931359454 0
vn 0 0 -1
vn 0.9544799780350303 -0.29827499313594535 0
vn 0 0 1
vn 0 0 -1
vn -1 0 0
vn 0 0 1
usemtl m_0152a11c-830e-9911-f60c-488da9c31993
f 19/1/1 20/2/1 4/3/1 10/4/1
f 25/5/2 26/6/2 2/7/2 14/8/2
f 41/9/3 42/10/3 40/11/3 43/12/3
f 16/13/4 17/14/4 3/15/4 11/16/4
f 18/17/5 13/18/5 10/19/5 4/20/5
f 22/21/6 23/22/6 9/23/6 8/24/6
f 13/25/7 14/26/7 2/27/7 10/28/7
f 26/29/8 19/30/8 10/31/8 2/32/8
f 15/33/9 16/34/9 11/35/9 1/36/9
f 23/37/10 24/38/10 6/39/10 9/40/10
f 36/41/11 37/42/11 9/43/11 6/44/11
f 35/45/12 36/46/12 6/47/12 24/48/12
f 33/49/13 34/50/13 5/51/13 12/52/13
f 32/53/14 33/54/14 12/55/14 7/56/14
f 38/57/15 39/58/15 30/59/15 27/60/15
f 37/61/16 38/62/16 27/63/16 9/64/16
f 20/65/17 19/66/17 11/67/17 3/68/17
f 42/69/18 41/70/18 44/71/18 45/72/18
f 31/73/19 32/74/19 7/75/19 22/76/19
f 23/77/20 22/78/20 7/79/20 12/80/20
f 24/81/21 23/82/21 12/83/21 5/84/21
f 34/85/22 35/86/22 24/87/22 5/88/22
f 26/89/23 25/90/23 15/91/23 1/92/23
f 19/93/24 26/94/24 1/95/24 11/96/24
f 18/97/25 28/98/25 13/99/25
f 9/100/26 27/101/26 8/102/26
f 8/103/27 27/104/27 30/105/27 22/106/27
f 39/107/28 31/108/28 22/109/28 30/110/28
f 21/111/29 29/112/29 28/113/29 18/114/29
f 47/115/30 46/116/30 42/117/30 45/118/30
f 33/119/31 32/120/31 17/121/31 16/122/31
f 34/123/32 33/124/32 16/125/32 15/126/32
f 35/127/33 34/128/33 15/129/33 25/130/33
f 36/131/34 35/132/34 25/133/34 14/134/34
f 37/135/35 36/136/35 14/137/35 13/138/35
f 38/139/36 37/140/36 13/141/36 28/142/36
f 39/143/37 38/144/37 28/145/37 29/146/37
f 31/147/38 39/148/38 29/149/38 21/150/38
f 18/151/39 40/152/39 42/153/39 21/154/39
f 20/155/40 41/156/40 43/157/40 4/158/40
f 4/159/41 43/160/41 40/161/41 18/162/41
f 3/163/42 44/164/42 41/165/42 20/166/42
f 17/167/43 45/168/43 44/169/43 3/170/43
f 21/171/44 42/172/44 46/173/44 31/174/44
f 31/175/45 46/176/45 47/177/45 32/178/45
f 32/179/46 47/180/46 45/181/46 17/182/46
o Forearm
v 0.6249999999999997 1.0037980617469473 -0.0003379555832684067
v 0.3375 1.0037980617469473 -0.0003379555832683581
v 0.6249999999999997 1.0035386117609553 -0.13380494097275844
v 0.3375 1.0035386117609553 -0.1338049409727584
v 0.6249999999999997 1.0572949567964287 -0.14789928666269653
v 0.3375 1.0572949567964287 -0.14789928666269647
v 0.6249999999999997 1.1044176555448557 -0.12060254912716087
v 0.3375 1.1044176555448557 -0.12060254912716084
v 0.6249999999999997 1.1180194737325857 -0.06684675799913298
v 0.3375 1.1180194737325857 -0.06684675799913294
v 0.6249999999999997 1.158034541914497 -0.027534008446313714
v 0.3375 1.158034541914497 -0.02753400844631368
v 0.6249999999999997 1.158061741738566 0.0270123551475139
v 0.3375 1.158061741738566 0.027012355147513913
v 0.6249999999999997 1.1182789237185777 0.06662022739035686
v 0.3375 1.1182789237185777 0.06662022739035686
v 0.6249999999999997 1.1045376468650159 0.12002732263311414
v 0.3375 1.1045376468650159 0.12002732263311416
v 0.6249999999999998 1.0574421479406575 0.147276948691406
v 0.3375000000000001 1.0574421479406575 0.14727694869140603
v 0.6249999999999998 1.0040575117329393 0.1331290298062214
v 0.3375000000000001 1.0040575117329393 0.13312902980622143
v 0.6249999999999998 0.950301166697466 0.14722337549615944
v 0.33750000000000013 0.9503011666974659 0.1472233754961595
v 0.6249999999999998 0.9031784679490389 0.11992663796062389
v 0.33750000000000013 0.9031784679490389 0.11992663796062389
v 0.6249999999999998 0.8895766497613091 0.0661708468325963
v 0.33750000000000013 0.8895766497613091 0.06617084683259636
v 0.6249999999999998 0.8495615815793975 0.026858097279776942
v 0.3375000000000001 0.8495615815793974 0.02685809727977697
v 0.6249999999999998 0.8495343817553288 -0.027688266314050636
v 0.3375000000000001 0.8495343817553287 -0.027688266314050608
v 0.6249999999999998 0.8893171997753169 -0.06729613855689386
v 0.3375000000000001 0.8893171997753169 -0.06729613855689381
v 0.6249999999999997 0.9030584766288786 -0.12070323379965112
v 0.3375 0.9030584766288786 -0.12070323379965109
v 0.6249999999999997 0.9501539755532371 -0.1479528598579428
v 0.3375 0.9501539755532371 -0.14795285985794282
vt 0.073177734375 0.801396875
vt 0.080101171875 0.80196484375
vt 0.070312109375 0.7849609375
vt 0.40625 1
vt 0.40625 0.9609375
vt 0.3984375 0.9609375
vt 0.3984375 1
vt 0.259788671875 0.87772265625
vt 0.252865234375 0.878290625
vt 0.249999609375 0.8947265625
vt 0.080101171875 0.80196484375
vt 0.085308984375 0.79758125
vt 0.070312109375 0.7849609375
vt 0.25 0.59375
vt 0.25 0.5546875
vt 0.2421875 0.5546875
vt 0.2421875 0.59375
vt 0.264996484375 0.88210625
vt 0.259788671875 0.87772265625
vt 0.249999609375 0.8947265625
vt 0.085308984375 0.79758125
vt 0.085816796875 0.79066875
vt 0.070312109375 0.7849609375
vt 0.3671875 0.609375
vt 0.3671875 0.5703125
vt 0.359375 0.5703125
vt 0.359375 0.609375
vt 0.265504296875 0.88901875
vt 0.264996484375 0.88210625
vt 0.249999609375 0.8947265625
vt 0.085816796875 0.79066875
vt 0.089889453125 0.7849609375
vt 0.070312109375 0.7849609375
vt 0.4140625 0.828125
vt 0.4140625 0.7890625
vt 0.40625 0.7890625
vt 0.40625 0.828125
vt 0.269576953125 0.8947265625
vt 0.265504296875 0.88901875
vt 0.249999609375 0.8947265625
vt 0.089889453125 0.7849609375
vt 0.088708984375 0.7782453125
vt 0.070312109375 0.7849609375
vt 0.15625 0.6015625
vt 0.15625 0.5625
vt 0.1484375 0.5625
vt 0.1484375 0.6015625
vt 0.26839648437499997 0.9014421875
vt 0.269576953125 0.8947265625
vt 0.249999609375 0.8947265625
vt 0.088708984375 0.7782453125
vt 0.082951953125 0.77423359375
vt 0.070312109375 0.7849609375
vt 0.296875 0.59375
vt 0.296875 0.5546875
vt 0.2890625 0.5546875
vt 0.2890625 0.59375
vt 0.26263945312500003 0.90545390625
vt 0.26839648437499997 0.9014421875
vt 0.249999609375 0.8947265625
vt 0.082951953125 0.77423359375
vt 0.080101171875 0.76795703125
vt 0.070312109375 0.7849609375
vt 0.03125 0.59375
vt 0.03125 0.5546875
vt 0.0234375 0.5546875
vt 0.0234375 0.59375
vt 0.259788671875 0.91173046875
vt 0.26263945312500003 0.90545390625
vt 0.249999609375 0.8947265625
vt 0.080101171875 0.76795703125
vt 0.073712109375 0.765625
vt 0.070312109375 0.7849609375
vt 0.4140625 0.8984375
vt 0.4140625 0.859375
vt 0.40625 0.859375
vt 0.40625 0.8984375
vt 0.253399609375 0.9140625
vt 0.259788671875 0.91173046875
vt 0.249999609375 0.8947265625
vt 0.073712109375 0.765625
vt 0.067447265625 0.76852578125
vt 0.070312109375 0.7849609375
vt 0.234375 0.59375
vt 0.234375 0.5546875
vt 0.2265625 0.5546875
vt 0.2265625 0.59375
vt 0.247134765625 0.91116171875
vt 0.253399609375 0.9140625
vt 0.249999609375 0.8947265625
vt 0.067447265625 0.76852578125
vt 0.060523828125 0.76795703125
vt 0.070312109375 0.7849609375
vt 0.140625 0.6015625
vt 0.140625 0.5625
vt 0.1328125 0.5625
vt 0.1328125 0.6015625
vt 0.240211328125 0.91173046875
vt 0.247134765625 0.91116171875
vt 0.249999609375 0.8947265625
vt 0.060523828125 0.76795703125
vt 0.055315234375 0.772340625
vt 0.070312109375 0.7849609375
vt 0.265625 0.59375
vt 0.265625 0.5546875
vt 0.2578125 0.5546875
vt 0.2578125 0.59375
vt 0.235002734375 0.907346875
vt 0.240211328125 0.91173046875
vt 0.249999609375 0.8947265625
vt 0.055315234375 0.772340625
vt 0.054808203124999996 0.779253125
vt 0.070312109375 0.7849609375
vt 0.15625 0.7421875
vt 0.15625 0.703125
vt 0.1484375 0.703125
vt 0.1484375 0.7421875
vt 0.234495703125 0.900434375
vt 0.235002734375 0.907346875
vt 0.249999609375 0.8947265625
vt 0.054808203124999996 0.779253125
vt 0.050735546874999995 0.7849609375
vt 0.070312109375 0.7849609375
vt 0.21875 0.59375
vt 0.21875 0.5546875
vt 0.2109375 0.5546875
vt 0.2109375 0.59375
vt 0.230423046875 0.8947265625
vt 0.234495703125 0.900434375
vt 0.249999609375 0.8947265625
vt 0.050735546874999995 0.7849609375
vt 0.051916015625 0.7916765625
vt 0.070312109375 0.7849609375
vt 0.171875 0.6015625
vt 0.171875 0.5625
vt 0.1640625 0.5625
vt 0.1640625 0.6015625
vt 0.231603515625 0.8880109375
vt 0.230423046875 0.8947265625
vt 0.249999609375 0.8947265625
vt 0.051916015625 0.7916765625
vt 0.057673046875 0.79568828125
vt 0.070312109375 0.7849609375
vt 0.28125 0.59375
vt 0.28125 0.5546875
vt 0.2734375 0.5546875
vt 0.2734375 0.59375
vt 0.237360546875 0.88399921875
vt 0.231603515625 0.8880109375
vt 0.249999609375 0.8947265625
vt 0.057673046875 0.79568828125
vt 0.060523828125 0.80196484375
vt 0.070312109375 0.7849609375
vt 0.1875 0.6015625
vt 0.1875 0.5625
vt 0.1796875 0.5625
vt 0.1796875 0.6015625
vt 0.240211328125 0.87772265625
vt 0.237360546875 0.88399921875
vt 0.249999609375 0.8947265625
vt 0.060523828125 0.80196484375
vt 0.066912890625 0.804296875
vt 0.07031210937500001 0.7849609375
vt 0.046875 0.59375
vt 0.046875 0.5546875
vt 0.0390625 0.5546875
vt 0.0390625 0.59375
vt 0.246600390625 0.875390625
vt 0.240211328125 0.87772265625
vt 0.249999609375 0.8947265625
vt 0.066912890625 0.804296875
vt 0.073177734375 0.801396875
vt 0.070312109375 0.7849609375
vt 0.4140625 0.78125
vt 0.4140625 0.7421875
vt 0.40625 0.7421875
vt 0.40625 0.78125
vt 0.252865234375 0.878290625
vt 0.246600390625 0.875390625
vt 0.249999609375 0.8947265625
vn 1 1.8252346000157336e-16 -2.4356193642291506e-16
vn -7.567688348794537e-17 -0.2536170717648677 -0.9673046991043794
vn -1 -1.8252346000157336e-16 2.4356193642291506e-16
vn 1 1.8252346000157336e-16 -2.4356193642291506e-16
vn -2.0464545236395737e-16 0.5012449601124116 -0.8653054316031462
vn -1 -1.8252346000157336e-16 2.4356193642291506e-16
vn 1 1.8252346000157336e-16 -2.4356193642291506e-16
vn -2.6606245130878935e-16 0.969447443293436 -0.24529911270084187
vn -1 -1.8252346000157336e-16 2.4356193642291506e-16
vn 1 1.8252346000157336e-16 -2.4356193642291506e-16
vn -2.3979826078597366e-16 0.7008190369406325 -0.7133391041164112
vn -1 -1.8252346000157336e-16 2.4356193642291506e-16
vn 1 1.8252346000157336e-16 -2.4356193642291506e-16
vn -2.555957818118568e-16 0.9999998756715535 -0.0004986550687327561
vn -1 -1.8252346000157336e-16 2.4356193642291506e-16
vn 1 1.8252346000157336e-16 -2.4356193642291506e-16
vn -1.4788074189687493e-16 0.7055468836342436 0.7086632451270541
vn -1 -1.8252346000157336e-16 2.4356193642291506e-16
vn 1 1.8252346000157336e-16 -2.4356193642291506e-16
vn -1.9618011025726888e-16 0.9684578293142752 0.24917751270907693
vn -1 -1.8252346000157336e-16 2.4356193642291506e-16
vn 1 1.8252346000157336e-16 -2.4356193642291506e-16
vn 2.3130261038423458e-18 0.5008134111866276 0.8655552710113977
vn -1 -1.8252346000157336e-16 2.4356193642291506e-16
vn 1 1.8252346000157336e-16 -2.4356193642291506e-16
vn 1.9732474249236556e-16 -0.25617499295166885 0.9666304221294779
vn -1 -1.8252346000157336e-16 2.4356193642291506e-16
vn 1 1.8252346000157336e-16 -2.4356193642291506e-16
vn 7.567688348794537e-17 0.25361707176486775 0.9673046991043793
vn -1 -1.8252346000157336e-16 2.4356193642291506e-16
vn 1 1.8252346000157336e-16 -2.4356193642291506e-16
vn 1.677127141494876e-16 -0.50124496011241 0.8653054316031469
vn -1 -1.8252346000157336e-16 2.4356193642291506e-16
vn 1 1.8252346000157336e-16 -2.4356193642291506e-16
vn 2.660624513087892e-16 -0.9694474432934367 0.24529911270083965
vn -1 -1.8252346000157336e-16 2.4356193642291506e-16
vn 1 1.8252346000157336e-16 -2.4356193642291506e-16
vn 2.397982607859736e-16 -0.7008190369406319 0.7133391041164121
vn -1 -1.8252346000157336e-16 2.4356193642291506e-16
vn 1 1.8252346000157336e-16 -2.4356193642291506e-16
vn 2.472373916627762e-16 -0.9999998756715535 0.0004986550687327006
vn -1 -1.8252346000157336e-16 2.4356193642291506e-16
vn 1 1.8252346000157336e-16 -2.4356193642291506e-16
vn 6.867704624866592e-17 -0.7055468836342462 -0.7086632451270514
vn -1 -1.8252346000157336e-16 2.4356193642291506e-16
vn 1 1.8252346000157336e-16 -2.4356193642291506e-16
vn 1.9618011025726933e-16 -0.9684578293142758 -0.24917751270907504
vn -1 -1.8252346000157336e-16 2.4356193642291506e-16
vn 1 1.8252346000157336e-16 -2.4356193642291506e-16
vn 1.7906283079135958e-16 -0.500813411186624 -0.8655552710113997
vn -1 -1.8252346000157336e-16 2.4356193642291506e-16
vn 1 1.8252346000157336e-16 -2.4356193642291506e-16
vn -1.9732474249236472e-16 0.2561749929516648 -0.9666304221294788
vn -1 -1.8252346000157336e-16 2.4356193642291506e-16
usemtl m_0152a11c-830e-9911-f60c-488da9c31993
f 50/183/47 52/184/47 48/185/47
f 53/186/48 52/187/48 50/188/48 51/189/48
f 53/190/49 51/191/49 49/192/49
f 52/193/50 54/194/50 48/195/50
f 55/196/51 54/197/51 52/198/51 53/199/51
f 55/200/52 53/201/52 49/202/52
f 54/203/53 56/204/53 48/205/53
f 57/206/54 56/207/54 54/208/54 55/209/54
f 57/210/55 55/211/55 49/212/55
f 56/213/56 58/214/56 48/215/56
f 59/216/57 58/217/57 56/218/57 57/219/57
f 59/220/58 57/221/58 49/222/58
f 58/223/59 60/224/59 48/225/59
f 61/226/60 60/227/60 58/228/60 59/229/60
f 61/230/61 59/231/61 49/232/61
f 60/233/62 62/234/62 48/235/62
f 63/236/63 62/237/63 60/238/63 61/239/63
f 63/240/64 61/241/64 49/242/64
f 62/243/65 64/244/65 48/245/65
f 65/246/66 64/247/66 62/248/66 63/249/66
f 65/250/67 63/251/67 49/252/67
f 64/253/68 66/254/68 48/255/68
f 67/256/69 66/257/69 64/258/69 65/259/69
f 67/260/70 65/261/70 49/262/70
f 66/263/71 68/264/71 48/265/71
f 69/266/72 68/267/72 66/268/72 67/269/72
f 69/270/73 67/271/73 49/272/73
f 68/273/74 70/274/74 48/275/74
f 71/276/75 70/277/75 68/278/75 69/279/75
f 71/280/76 69/281/76 49/282/76
f 70/283/77 72/284/77 48/285/77
f 73/286/78 72/287/78 70/288/78 71/289/78
f 73/290/79 71/291/79 49/292/79
f 72/293/80 74/294/80 48/295/80
f 75/296/81 74/297/81 72/298/81 73/299/81
f 75/300/82 73/301/82 49/302/82
f 74/303/83 76/304/83 48/305/83
f 77/306/84 76/307/84 74/308/84 75/309/84
f 77/310/85 75/311/85 49/312/85
f 76/313/86 78/314/86 48/315/86
f 79/316/87 78/317/87 76/318/87 77/319/87
f 79/320/88 77/321/88 49/322/88
f 78/323/89 80/324/89 48/325/89
f 81/326/90 80/327/90 78/328/90 79/329/90
f 81/330/91 79/331/91 49/332/91
f 80/333/92 82/334/92 48/335/92
f 83/336/93 82/337/93 80/338/93 81/339/93
f 83/340/94 81/341/94 49/342/94
f 82/343/95 84/344/95 48/345/95
f 85/346/96 84/347/96 82/348/96 83/349/96
f 85/350/97 83/351/97 49/352/97
f 84/353/98 50/354/98 48/355/98
f 51/356/99 50/357/99 84/358/99 85/359/99
f 51/360/100 85/361/100 49/362/100
o Arm
v 0.33437499999998327 1.015625000000005 5.023969674161014e-16
v 0.1593749999999833 1.0156250000000027 8.598129030573164e-16
v 0.3343749999999827 1.0487682628834918 -0.05624999999999945
v 0.1593749999999827 1.0487682628834893 -0.05624999999999909
v 0.33437499999998244 1.0718750000000048 -0.037362012883486034
v 0.15937499999998242 1.0718750000000024 -0.03736201288348568
v 0.33437499999998255 1.0718750000000048 0.03736201288348713
v 0.1593749999999826 1.0718750000000024 0.037362012883487485
v 0.33437499999998294 1.0487682628834918 0.05625000000000052
v 0.15937499999998292 1.0487682628834893 0.05625000000000088
v 0.3343749999999839 0.9824817371165184 0.05625000000000046
v 0.1593749999999839 0.982481737116516 0.05625000000000081
v 0.33437499999998416 0.9593750000000054 0.03736201288348707
v 0.1593749999999842 0.959375000000003 0.03736201288348743
v 0.33437499999998405 0.9593750000000054 -0.03736201288348615
v 0.15937499999998403 0.959375000000003 -0.03736201288348579
v 0.33437499999998366 0.9824817371165184 -0.0562499999999995
v 0.15937499999998367 0.982481737116516 -0.05624999999999915
v 0.3177083333333161 1.0487682628834916 -0.05624999999999942
v 0.31770833333331705 0.9824817371165182 -0.056249999999999474
v 0.29466911764704157 1.0487682628834913 -0.05624999999999937
v 0.2946691176470425 0.982481737116518 -0.056249999999999425
v 0.31770833333331744 0.9593750000000052 -0.03736201288348612
v 0.2946691176470429 0.959375000000005 -0.03736201288348607
v 0.31770833333331755 0.9593750000000052 0.0373620128834871
v 0.294669117647043 0.959375000000005 0.03736201288348715
v 0.31770833333331727 0.9824817371165182 0.05625000000000049
v 0.29466911764704273 0.982481737116518 0.056250000000000536
v 0.31770833333331633 1.0487682628834916 0.056250000000000556
v 0.2946691176470418 1.0487682628834913 0.056250000000000605
v 0.31770833333331594 1.0718750000000046 0.03736201288348716
v 0.2946691176470414 1.0718750000000044 0.03736201288348721
v 0.31770833333331583 1.0718750000000046 -0.03736201288348601
v 0.2946691176470413 1.0718750000000044 -0.03736201288348596
vt 0.45726796875 0.896875
vt 0.46015625 0.8945140625
vt 0.453125 0.88984375
vt 0.234375 0.49871328125000003
vt 0.23064374999999998 0.49871328125000003
vt 0.23064374999999998 0.515625
vt 0.234375 0.515625
vt 0.14765625 0.5429859375
vt 0.14476796874999998 0.540625
vt 0.140625 0.54765625
vt 0.46015625 0.8945140625
vt 0.46015625 0.8851734375
vt 0.453125 0.88984375
vt 0.0671703125 0.53777578125
vt 0.0578296875 0.53777578125
vt 0.0578296875 0.5546875
vt 0.0671703125 0.5546875
vt 0.14765625 0.5523265625
vt 0.14765625 0.5429859375
vt 0.140625 0.54765625
vt 0.46015625 0.8851734375
vt 0.45726796875 0.8828125
vt 0.453125 0.88984375
vt 0.21466875000000002 0.49871328125000003
vt 0.2109375 0.49871328125000003
vt 0.2109375 0.515625
vt 0.21466875000000002 0.515625
vt 0.14476796874999998 0.5546875
vt 0.14765625 0.5523265625
vt 0.140625 0.54765625
vt 0.45726796875 0.8828125
vt 0.44898203125 0.8828125
vt 0.453125 0.88984375
vt 0.20726796874999998 0.52996328125
vt 0.19898203125000002 0.52996328125
vt 0.19898203125000002 0.546875
vt 0.20726796874999998 0.546875
vt 0.13648203125000002 0.5546875
vt 0.14476796874999998 0.5546875
vt 0.140625 0.54765625
vt 0.44898203125 0.8828125
vt 0.44609375 0.8851734375
vt 0.453125 0.88984375
vt 0.265625 0.49871328125000003
vt 0.26189453125 0.49871328125000003
vt 0.26189453125 0.515625
vt 0.265625 0.515625
vt 0.13359375 0.5523265625
vt 0.13648203125000002 0.5546875
vt 0.140625 0.54765625
vt 0.44609375 0.8851734375
vt 0.44609375 0.8945140625
vt 0.453125 0.88984375
vt 0.0906078125 0.53777578125
vt 0.0812671875 0.53777578125
vt 0.0812671875 0.5546875
vt 0.0906078125 0.5546875
vt 0.13359375 0.5429859375
vt 0.13359375 0.5523265625
vt 0.140625 0.54765625
vt 0.44609375 0.8945140625
vt 0.44898203125 0.896875
vt 0.453125 0.88984375
vt 0.24591796875 0.49871328125000003
vt 0.2421875 0.49871328125000003
vt 0.2421875 0.515625
vt 0.24591796875 0.515625
vt 0.13648203125000002 0.540625
vt 0.13359375 0.5429859375
vt 0.140625 0.54765625
vt 0.44898203125 0.896875
vt 0.45726796875 0.896875
vt 0.453125 0.88984375
vt 0.23070546874999998 0.52996328125
vt 0.22241953125000002 0.52996328125
vt 0.22241953125000002 0.546875
vt 0.23070546874999998 0.546875
vt 0.14476796874999998 0.540625
vt 0.13648203125000002 0.540625
vt 0.140625 0.54765625
vt 0.22241953125000002 0.52708359375
vt 0.23070546874999998 0.52708359375
vt 0.23070546874999998 0.525
vt 0.22241953125000002 0.525
vt 0.22241953125000002 0.52996328125
vt 0.23070546874999998 0.52996328125
vt 0.23070546874999998 0.52708359375
vt 0.22241953125000002 0.52708359375
vt 0.2421875 0.49583359375
vt 0.24591796875 0.49583359375
vt 0.24591796875 0.49375
vt 0.2421875 0.49375
vt 0.2421875 0.49871328125000003
vt 0.24591796875 0.49871328125000003
vt 0.24591796875 0.49583359375
vt 0.2421875 0.49583359375
vt 0.0812671875 0.53489609375
vt 0.0906078125 0.53489609375
vt 0.0906078125 0.5328125
vt 0.0812671875 0.5328125
vt 0.0812671875 0.53777578125
vt 0.0906078125 0.53777578125
vt 0.0906078125 0.53489609375
vt 0.0812671875 0.53489609375
vt 0.26189453125 0.49583359375
vt 0.265625 0.49583359375
vt 0.265625 0.49375
vt 0.26189453125 0.49375
vt 0.26189453125 0.49871328125000003
vt 0.265625 0.49871328125000003
vt 0.265625 0.49583359375
vt 0.26189453125 0.49583359375
vt 0.19898203125000002 0.52708359375
vt 0.20726796874999998 0.52708359375
vt 0.20726796874999998 0.525
vt 0.19898203125000002 0.525
vt 0.19898203125000002 0.52996328125
vt 0.20726796874999998 0.52996328125
vt 0.20726796874999998 0.52708359375
vt 0.19898203125000002 0.52708359375
vt 0.2109375 0.49583359375
vt 0.21466875000000002 0.49583359375
vt 0.21466875000000002 0.49375
vt 0.2109375 0.49375
vt 0.2109375 0.49871328125000003
vt 0.21466875000000002 0.49871328125000003
vt 0.21466875000000002 0.49583359375
vt 0.2109375 0.49583359375
vt 0.0578296875 0.53489609375
vt 0.0671703125 0.53489609375
vt 0.0671703125 0.5328125
vt 0.0578296875 0.5328125
vt 0.0578296875 0.53777578125
vt 0.0671703125 0.53777578125
vt 0.0671703125 0.53489609375
vt 0.0578296875 0.53489609375
vt 0.23064374999999998 0.49583359375
vt 0.234375 0.49583359375
vt 0.234375 0.49375
vt 0.23064374999999998 0.49375
vt 0.23064374999999998 0.49871328125000003
vt 0.234375 0.49871328125000003
vt 0.234375 0.49583359375
vt 0.23064374999999998 0.49583359375
vn 1 1.4321877017664523e-14 -2.0423767750926573e-15
vn -1.057515068196401e-14 0.6328859753093352 -0.7742450143570521
vn -1 -1.4321877017664523e-14 2.0423767750926573e-15
vn 1 1.4321877017664523e-14 -2.0423767750926573e-15
vn -1.4210854715202002e-14 1 1.0106430996148898e-15
vn -1 -1.4321877017664523e-14 2.0423767750926573e-15
vn 1 1.4321877017664523e-14 -2.0423767750926573e-15
vn -7.412550610855745e-15 0.6328859753093342 0.7742450143570528
vn -1 -1.4321877017664523e-14 2.0423767750926573e-15
vn 1 1.4321877017664523e-14 -2.0423767750926573e-15
vn 2.0423767750926715e-15 -1.0106430996148604e-15 1
vn -1 -1.4321877017664523e-14 2.0423767750926573e-15
vn 1 1.4321877017664523e-14 -2.0423767750926573e-15
vn 1.0575150681964002e-14 -0.6328859753093347 0.7742450143570525
vn -1 -1.4321877017664523e-14 2.0423767750926573e-15
vn 1 1.4321877017664523e-14 -2.0423767750926573e-15
vn 1.4210854715202002e-14 -1 -1.0106430996148898e-15
vn -1 -1.4321877017664523e-14 2.0423767750926573e-15
vn 1 1.4321877017664523e-14 -2.0423767750926573e-15
vn 7.412550610855733e-15 -0.6328859753093334 -0.7742450143570535
vn -1 -1.4321877017664523e-14 2.0423767750926573e-15
vn 1 1.4321877017664523e-14 -2.0423767750926573e-15
vn -2.0423767750926683e-15 8.012824845088424e-16 -1
vn -1 -1.4321877017664523e-14 2.0423767750926573e-15
vn -2.0423767750926683e-15 8.012824845088423e-16 -1
vn -2.0423767750926683e-15 8.012824845088423e-16 -1
vn 7.412550610855733e-15 -0.6328859753093334 -0.7742450143570534
vn 7.412550610855733e-15 -0.6328859753093334 -0.7742450143570535
vn 1.4210854715202002e-14 -1 -1.0106430996148898e-15
vn 1.4210854715202002e-14 -1 -1.0106430996148898e-15
vn 1.0575150681964003e-14 -0.6328859753093348 0.7742450143570525
vn 1.0575150681964003e-14 -0.6328859753093348 0.7742450143570525
vn 2.0423767750926715e-15 -1.0106430996148604e-15 1
vn 2.0423767750926715e-15 -1.0106430996148604e-15 1
vn -7.412550610855745e-15 0.6328859753093342 0.7742450143570527
vn -7.412550610855745e-15 0.6328859753093342 0.7742450143570527
vn -1.4210854715202002e-14 1 1.0106430996148898e-15
vn -1.4210854715202002e-14 1 1.0106430996148898e-15
vn -1.057515068196401e-14 0.6328859753093352 -0.774245014357052
vn -1.057515068196401e-14 0.6328859753093352 -0.774245014357052
usemtl m_0152a11c-830e-9911-f60c-488da9c31993
f 88/363/101 90/364/101 86/365/101
f 119/366/102 106/367/102 89/368/102 91/369/102
f 91/370/103 89/371/103 87/372/103
f 90/373/104 92/374/104 86/375/104
f 117/376/105 119/377/105 91/378/105 93/379/105
f 93/380/106 91/381/106 87/382/106
f 92/383/107 94/384/107 86/385/107
f 115/386/108 117/387/108 93/388/108 95/389/108
f 95/390/109 93/391/109 87/392/109
f 94/393/110 96/394/110 86/395/110
f 113/396/111 115/397/111 95/398/111 97/399/111
f 97/400/112 95/401/112 87/402/112
f 96/403/113 98/404/113 86/405/113
f 111/406/114 113/407/114 97/408/114 99/409/114
f 99/410/115 97/411/115 87/412/115
f 98/413/116 100/414/116 86/415/116
f 109/416/117 111/417/117 99/418/117 101/419/117
f 101/420/118 99/421/118 87/422/118
f 100/423/119 102/424/119 86/425/119
f 107/426/120 109/427/120 101/428/120 103/429/120
f 103/430/121 101/431/121 87/432/121
f 102/433/122 88/434/122 86/435/122
f 106/436/123 107/437/123 103/438/123 89/439/123
f 89/440/124 103/441/124 87/442/124
f 105/443/125 104/444/125 88/445/125 102/446/125
f 107/447/126 106/448/126 104/449/126 105/450/126
f 108/451/127 105/452/127 102/453/127 100/454/127
f 109/455/128 107/456/128 105/457/128 108/458/128
f 110/459/129 108/460/129 100/461/129 98/462/129
f 111/463/130 109/464/130 108/465/130 110/466/130
f 112/467/131 110/468/131 98/469/131 96/470/131
f 113/471/132 111/472/132 110/473/132 112/474/132
f 114/475/133 112/476/133 96/477/133 94/478/133
f 115/479/134 113/480/134 112/481/134 114/482/134
f 116/483/135 114/484/135 94/485/135 92/486/135
f 117/487/136 115/488/136 114/489/136 116/490/136
f 118/491/137 116/492/137 92/493/137 90/494/137
f 119/495/138 117/496/138 116/497/138 118/498/138
f 104/499/139 118/500/139 90/501/139 88/502/139
f 106/503/140 119/504/140 118/505/140 104/506/140