# Made in Blockbench 5.1.5
mtllib TexasRedHead.mtl

o sphere
v 0 1.5078125 -0.05025368111126312
v 0.1844454996120338 1.4841683883064236 0.09372277429401711
v 0.1844454996120338 1.4841683883064236 -0.12088369283537949
v 0.05227200393863304 1.4841683883064236 -0.23330205789584174
v -0.052272003938633065 1.4841683883064236 -0.23330205789584174
v -0.1844454996120338 1.4841683883064236 -0.12088369283537954
v -0.1844454996120338 1.4841683883064236 0.09372277429401711
v -0.1844454996120338 1.298393224999752 -0.12088369283537954
v -0.1844454996120338 1.3468307249997522 0.09372277429401711
v 0.1844454996120338 1.3468307249997522 0.09372277429401711
v 0.1844454996120338 1.298393224999752 -0.12088369283537949
v -0.05227200393863308 1.3152818762094496 -0.23955205789584172
v 0.05227200393863304 1.3152818762094496 -0.23955205789584177
v 2.6529637630156475e-17 1.3468307249997522 0.19891640877674366
v 2.6529637630156475e-17 1.4841683883064236 0.19891640877674366
v -0.16398321164637517 1.298393224999752 -0.14453761293884587
v -0.16398321164637517 1.4841683883064236 -0.13828761293884587
v 0.1639819528436837 1.298393224999752 -0.14453868359631603
v 0.1639819528436837 1.4841683883064236 -0.13828868359631602
v -0.16398321164637517 1.4250581090724825 -0.13828761293884587
v -0.052272003938633065 1.364258964717572 -0.23330205789584174
v 0.05227200393863304 1.364258964717572 -0.23330205789584174
v 0.1639819528436837 1.4031831090724827 -0.13828868359631602
v 0.1844454996120338 1.4182104114918774 -0.12088369283537949
v 0.1844454996120338 1.4369604114918775 0.09372277429401711
v 2.6529637630156475e-17 1.4369604114918775 0.19891640877674366
v -0.1844454996120338 1.4369604114918775 0.09372277429401711
v -0.1844454996120338 1.4182104114918774 -0.12088369283537954
v -0.1543419398256983 1.298393224999752 -0.11118577977647688
v -0.15434193982569827 1.4250581090724825 -0.11118577977647688
v -0.047451368028294624 1.364258964717572 -0.20442481028017678
v -0.04745136802829464 1.3152818762094496 -0.20442481028017678
v 0.0474513680282946 1.364258964717572 -0.20442481028017678
v 0.0474513680282946 1.3152818762094496 -0.20442481028017678
v 0.15434068102300683 1.4250581090724825 -0.11118685043394706
v 0.15434068102300683 1.298393224999752 -0.11118685043394706
v -0.05893673759042397 1.21995891636296 -0.25208235865105455
v -0.17731267894995695 1.2189662947498068 -0.15415482166730177
v -0.1784451193773905 1.2764379784271456 -0.15550286268239935
v -0.059502957804140735 1.2933266296368429 -0.2531804293193392
v 0.059502957804140694 1.2933266296368429 -0.25318042931933926
v 0.058936737590423935 1.21995891636296 -0.25208235865105466
v 0.17731142014726547 1.2189662947498068 -0.15415589232477195
v 0.17844386057469902 1.2764379784271456 -0.15550393333986953
v 5.527007839615931e-19 1.1135949174480484 -0.08930595501248517
v -0.1994724551467717 1.2168594157716388 -0.1288172971996075
v -0.19638924928244636 1.2142145715593964 0.10008087727009664
v -0.20287759717867712 1.2764379784271456 -0.12949131770715627
v -0.20116994337792782 1.3123754784271455 0.10352800621275955
v 2.6685084725645674e-17 1.213676606325322 0.21163261472890266
v 2.6529637630156475e-17 1.3217504784271454 0.21852687261422854
v 0.20116994337792782 1.3123754784271455 0.10352800621275955
v 0.19638924928244636 1.2142145715593964 0.10008087727009664
v 0.1994724551467717 1.2168594157716388 -0.12881729719960744
v 0.20287759717867712 1.2764379784271456 -0.12949131770715622
v -0.052272003938633065 1.4242136765119977 -0.23330205789584174
v -0.16398321164637517 1.4546132486894532 -0.13828761293884587
v -0.1844454996120338 1.4715018998991505 -0.12088369283537954
v -0.1844454996120338 1.4715018998991505 0.09372277429401711
v 2.6529637630156475e-17 1.4715018998991505 0.19891640877674366
v 0.1844454996120338 1.4715018998991505 0.09372277429401711
v 0.1844454996120338 1.4715018998991505 -0.12088369283537949
v 0.1639819528436837 1.4546132486894532 -0.13828868359631602
v 0.05227200393863304 1.4242136765119977 -0.23330205789584174
v -0.11301127762518473 1.364258964717572 -0.37346496381648175
v 0.11301127762518473 1.3929636765119977 -0.37346496381648175
v -0.11301127762518473 1.3929636765119977 -0.37346496381648175
v 0.11301127762518473 1.364258964717572 -0.37346496381648175
v -0.28546175901947857 1.4250581090724825 -0.2561134247801257
v -0.28546175901947857 1.4546132486894532 -0.2561134247801257
v 0.28546050021678704 1.4546132486894532 -0.25611449543759585
v 0.28546050021678704 1.4031831090724827 -0.25611449543759585
v 0.33893477329858546 1.4715018998991505 -0.16729659875601938
v 0.33893477329858546 1.4369604114918775 -0.16729659875601938
v 0.3246406784340303 1.4715018998991505 0.2001593008910716
v 0.3246406784340303 1.4369604114918775 0.2001593008910716
v 4.214214891394774e-17 1.4183768998991506 0.3867894619708526
v 4.214214891394774e-17 1.3838354114918774 0.3867894619708526
v -0.32464067843403027 1.4715018998991505 0.2001593008910716
v -0.32464067843403027 1.4369604114918775 0.2001593008910716
v -0.33893477329858557 1.4715018998991505 -0.16729659875601943
v -0.33893477329858557 1.4369604114918775 -0.16729659875601943
v 0.2590726367576861 1.463057574294302 -0.1898305470968077
v 0.17421372622785875 1.4630575742943017 -0.12958618821584778
v 0.17421372622785875 1.4841683883064236 -0.12958618821584778
v 0.2590726367576861 1.4200717602821802 -0.1898305470968077
v 0.17421372622785875 1.41069676028218 -0.12958618821584778
v 0.17421372622785875 1.298393224999752 -0.12958618821584778
v 0.19066072887668806 1.2764379784271456 -0.14249762552351286
v 0.1883919376470186 1.2179128552607228 -0.14148659476218972
vt 0.128881104198391 0.8614325946682432
vt 0.12920889402399074 0.8346088161591837
vt 0.15234381719581042 0.8437203118586752
vt 0.39694378621664195 0.921875
vt 0.3972903797790706 0.9293268696435011
vt 0.3683346202209294 0.9348231512685752
vt 0.3683346202209294 0.9225315343018677
vt 0.0696108899377989 0.6899645200990686
vt 0.047576610062201104 0.7082242105810193
vt 0.047576610062201104 0.671875
vt 0.15234375073252462 0.8437202856826669
vt 0.13177881530070026 0.8324477031550416
vt 0.1458093417683571 0.8206490720144661
vt 0.39089607933723647 0.564148357278081
vt 0.37164687161078547 0.5621386748561188
vt 0.3716118864706872 0.5549512593223127
vt 0.3908154208832726 0.5549775622860387
vt 0.0929625 0.6484376118514152
vt 0.08021875 0.6730290181014152
vt 0.078125 0.6727805806014152
vt 0.1458093417683571 0.8206490720144661
vt 0.1588780917683571 0.8206490720144661
vt 0.15234371676835712 0.8437201657644662
vt 0.4917421875 0.578125
vt 0.4918125 0.5859375
vt 0.4769375 0.5859375
vt 0.4770078125 0.578125
vt 0.2101754257327685 0.6148733816129011
vt 0.1960745742672315 0.6191474656770588
vt 0.1960745742672315 0.59375
vt 0.15234368280418958 0.8437202856826669
vt 0.17290861823601394 0.8324477031550416
vt 0.17547853951272346 0.8346088161591837
vt 0.4609375 0.64026796875
vt 0.4564765625 0.64026796875
vt 0.45650234375 0.63308046875
vt 0.4607078125 0.6328125
vt 0.11797481405937363 0.65625
vt 0.12862578125 0.68109027740233
vt 0.10944327234076373 0.6801721015513298
vt 0.17547860597600923 0.8346087899831753
vt 0.175806395801609 0.8614325684922348
vt 0.15234368280418958 0.8437202856826669
vt 0.14261878748302467 0.609375
vt 0.1549104044497321 0.609375
vt 0.14941568440406533 0.640625
vt 0.1419645955502679 0.6402784332517687
vt 0.03770585529050962 0.6953125
vt 0.019446164808558986 0.7173467798755978
vt 0.0013566447094903802 0.6953125
vt 0.15234272188578918 0.8437211387213173
vt 0.15169276258377273 0.875
vt 0.128881104198391 0.8614325946682432
vt 0.2890625 0.6372725690864876
vt 0.2601489193302676 0.6393572311669318
vt 0.2601489193302676 0.6258200647622673
vt 0.2883699011557963 0.625
vt 0.2421875 0.921875
vt 0.28183013178706584 0.921875
vt 0.26861937688006954 0.9468261262178334
vt 0.5227434259306952 0.5504264708876287
vt 0.5234375 0.5546875
vt 0.510307326447471 0.5546875
vt 0.5097133567996711 0.5510410275656165
vt 0.3359375 0.84375
vt 0.3359375 0.8515625
vt 0.2890625 0.8515625
vt 0.2890625 0.84375
vt 0.4212685927583499 0.90625
vt 0.421875 0.9140625
vt 0.3745984813948216 0.9140625
vt 0.3739920741531714 0.90625
vt 0.1796875 0.8828125
vt 0.1796875 0.890625
vt 0.1328125 0.890625
vt 0.1328125 0.8828125
vt 0.19803663203387653 0.5577320178565404
vt 0.203125 0.558749075401857
vt 0.203125 0.5859375
vt 0.1953125 0.5841152995775287
vt 0.453125 0.734375
vt 0.453125 0.7421875
vt 0.421875 0.7421875
vt 0.421875 0.734375
vt 0.0546875 0.5849295741531715
vt 0.0625 0.5855359813948215
vt 0.0625 0.6328125
vt 0.0546875 0.6322060927583499
vt 0.175806395801609 0.8614325684922348
vt 0.15299473741622727 0.8749999738239916
vt 0.1523447781142108 0.843721112545309
vt 0.03125 0.630188191086209
vt 0.03125 0.6019560798888308
vt 0.0447814437196733 0.6015625
vt 0.04353829701915138 0.6305244672918768
vt 0.2265625 0.7295568768800695
vt 0.20161137378216665 0.7427676317870658
vt 0.20161137378216668 0.703125
vt 0.5067653559549481 0.5667694715628944
vt 0.5078125 0.5703125
vt 0.48062332618972486 0.5703125
vt 0.4796062966699694 0.5668713645354988
vt 0.1588780917683571 0.8206490720144661
vt 0.17290861823601394 0.8324477031550416
vt 0.15234368280418958 0.8437202856826669
vt 0.43729810390009455 0.6331316287338165
vt 0.45650234375 0.63308046875
vt 0.4564765626652433 0.6402679226821706
vt 0.4372296176157706 0.6423033095603892
vt 0.1328125 0.68059340240233
vt 0.12862578125 0.68109027740233
vt 0.117975 0.65625043365233
vt 0.3984375 0.49113203125000005
vt 0.390625 0.4921875
vt 0.390625 0.48681406250000003
vt 0.3984375 0.484703125
vt 0.15234375073252462 0.8437202856826669
vt 0.13049385466234553 0.8335282596571126
vt 0.1317788153007003 0.8324477031550416
vt 0.37164687161078547 0.5621386748561188
vt 0.3694164046885147 0.5621415302689821
vt 0.36950859375 0.5548195312499999
vt 0.3716118900516386 0.5549519949999562
vt 0.10149347151795754 0.6723598220019968
vt 0.08231171875 0.6732774556014152
vt 0.0929625479594384 0.6484375
vt 0.4375 0.7576046875
vt 0.4375 0.7734375
vt 0.421875 0.7658375
vt 0.421875 0.759715625
vt 0.3984375 0.515625
vt 0.3984375 0.5234375
vt 0.3828125 0.5234375
vt 0.3828125 0.515625
vt 0.4375 0.790965625
vt 0.4375 0.7970875
vt 0.421875 0.8046875
vt 0.421875 0.7888546875
vt 0.4252328125 0.49030859375
vt 0.42355390625 0.49124765625
vt 0.42355390625 0.47721015624999996
vt 0.4257390625 0.47721015624999996
vt 0.3520700817218548 0.6497064445143732
vt 0.3666799182781452 0.6530039438099218
vt 0.36306003806102666 0.6796875
vt 0.3520700817218548 0.6772070223336756
vt 0.0234375 0.5390625
vt 0.0234375 0.546875
vt 0 0.546875
vt 0 0.5390625
vt 0.46875 0.5703125
vt 0.46875 0.578125
vt 0.4453125 0.578125
vt 0.4453125 0.5703125
vt 0.379697550076489 0.7109375
vt 0.38217802774281345 0.7229426197828814
vt 0.35549447155273517 0.7265625
vt 0.35219697225718655 0.7109375
vt 0.1875 0.5078125
vt 0.1875 0.52258203125
vt 0.18019375 0.5234375
vt 0.1796875 0.5078125
vt 0.2890625 0.5078125
vt 0.2890625 0.4921875
vt 0.29340234375 0.4921875
vt 0.2926515625 0.5078125
vt 0.46270072025913955 0.7421875
vt 0.4819913527577713 0.7421875
vt 0.4807792080693384 0.75
vt 0.4609375 0.7498101696441475
vt 0.31649883644036364 0.7651826374297117
vt 0.3300065498327104 0.7768592013861658
vt 0.3294034009839773 0.78125
vt 0.31529919057915523 0.7693519175014357
vt 0.2488525117436728 0.8570671875
vt 0.2369900117436728 0.8570671875
vt 0.23638688674367278 0.8534578125
vt 0.24945563674367277 0.8534578125
vt 0.3300065498327104 0.7768592013861658
vt 0.3418690498327104 0.7768592013861658
vt 0.3424721748327104 0.7812498263861658
vt 0.3294034248327104 0.7812498263861658
vt 0.3092928002025143 0.5054290655161149
vt 0.3092928002025143 0.48613869306667057
vt 0.3125 0.484375
vt 0.3120734602017753 0.5031394102946978
vt 0.328125 0.921875
vt 0.328125 0.9375
vt 0.3210484375 0.934765625
vt 0.3203125 0.921875
vt 0.3418690498327104 0.7768592013861658
vt 0.35537499193828487 0.7651802479337287
vt 0.35657580942084477 0.7693506533274516
vt 0.34247204694243355 0.781248895371456
vt 0.4295045261309751 0.53576796875
vt 0.4486654636309751 0.5330406249999999
vt 0.4483381198809751 0.5365859374999999
vt 0.4300553073809751 0.5390625
vt 0.42225 0.515625
vt 0.437125 0.515625
vt 0.436221875 0.5234375
vt 0.423153125 0.5234375
vt 0.10598414932057347 0.546395337261202
vt 0.12466064046821079 0.5514730739477128
vt 0.12370269928441924 0.5546875
vt 0.10587414845185408 0.5499403297963854
vt 0.4486654636309751 0.5330406249999999
vt 0.453125 0.5331524228186306
vt 0.45224064917587536 0.5367876514387928
vt 0.4483382692915305 0.5365843193016699
vt 0.4314646567993835 0.671875
vt 0.4609375 0.671875
vt 0.4603980622355394 0.6796875
vt 0.43296308483599005 0.6780583237039538
vt 0.4296875 0.65625
vt 0.458675687680923 0.65625
vt 0.4575870647508557 0.6631853712128803
vt 0.4310670973103608 0.6640625
vt 0.46400424574339966 0.5625
vt 0.46400424574339966 0.5335119251645437
vt 0.46875 0.5348913699099
vt 0.46779937562130974 0.5614114161849036
vt 0.1171875 0.5390625
vt 0.1171875 0.5095897341474039
vt 0.12061531975763105 0.5110883656684113
vt 0.12189165343898185 0.5385226032337398
vt 0.10587414845185408 0.5499403297963854
vt 0.10360930470185409 0.5499403297963854
vt 0.10378039845185409 0.5461543922963854
vt 0.10598430470185409 0.5463903297963855
vt 0.39237265625 0.5390625
vt 0.39237265625 0.53156796875
vt 0.4107046875 0.5353679687499999
vt 0.4107046875 0.5390625
vt 0.4107046875 0.5390625
vt 0.4107046875 0.5353679687499999
vt 0.4140625 0.53747890625
vt 0.4140625 0.5390625
vt 0.4453125 0.609375
vt 0.4453125 0.6015625
vt 0.46875 0.6015625
vt 0.46875 0.609375
vt 0.4296875 0.5546875
vt 0.4296875 0.546875
vt 0.453125 0.546875
vt 0.453125 0.5546875
vt 0.453125 0.8359375
vt 0.453125 0.828125
vt 0.4765625 0.828125
vt 0.4765625 0.8359375
vt 0.4453125 0.59375
vt 0.4453125 0.5859375
vt 0.46875 0.5859375
vt 0.46875 0.59375
vt 0.3314828125 0.5390625
vt 0.32980390625 0.5390625
vt 0.32980390625 0.5364234375
vt 0.3314828125 0.5353679687499999
vt 0.3314828125 0.5390625
vt 0.3314828125 0.5353679687499999
vt 0.34981484375 0.53156796875
vt 0.34981484375 0.5390625
vt 0.4765625 0.6171875
vt 0.4765625 0.609375
vt 0.4921875 0.609375
vt 0.4921875 0.6171875
vt 0.19681748841009894 0.9695844002031602
vt 0.22507061341009893 0.9695844002031602
vt 0.21747842591009892 0.9875351814531602
vt 0.20440967591009893 0.9875351814531602
vt 0.22879469924367277 0.8359375
vt 0.2570478242436728 0.8359375
vt 0.24945563674367277 0.8534578125
vt 0.23638688674367278 0.8534578125
vt 0.22507061341009893 0.9695844002031602
vt 0.2469423126973942 0.985735618691715
vt 0.23132026964552338 1
vt 0.21750540987655403 0.9874713812270602
vt 0.08730462734031093 0.9862718369968818
vt 0.07290766352684051 0.9632434718113191
vt 0.0906559442934525 0.9562007696674869
vt 0.10262185059294837 0.9718635118657728
vt 0.1749326873026058 0.9857183822133461
vt 0.19681748841009894 0.9695844002031602
vt 0.20440973687843916 0.9875353256052032
vt 0.19049641155735114 0.9999326348380427
vt 0.2570478242436728 0.8359375
vt 0.2790178007563272 0.8507980216993867
vt 0.2639253786432558 0.8656216379243006
vt 0.24947527616794307 0.8534124910625966
vt 0.484375 0.8671875
vt 0.4842144149156627 0.8733334526180858
vt 0.4713130145584776 0.875
vt 0.4632934715237365 0.8671875
vt 0.4375 0.9845282232155144
vt 0.42933258223106796 0.9886865566190265
vt 0.4164926325835641 0.9862929325182749
vt 0.41634581014658717 0.984375
vt 0.042987423714616425 0.8730453902373727
vt 0.044774142464616425 0.9189766402373728
vt 0.025462423714616423 0.9131750777373727
vt 0.025462423714616423 0.8863492964873727
vt 0.3125 0.921875
vt 0.3125 0.9678409884094109
vt 0.29791773024471635 0.955228341147531
vt 0.296875 0.9284228332562485
vt 0.0021008575353835754 0.8493096386902701
vt 0.042987423714616425 0.8730453902373727
vt 0.025462098585050646 0.8863495433058185
vt 0.002579266612541785 0.87342585547708
vt 0.11843221963982858 0.7425891272576977
vt 0.11843221963982858 0.6953125
vt 0.13938028036017142 0.7078335061867607
vt 0.13841379983168098 0.734112041420774
vt 0.16530721963982858 0.75
vt 0.16530721963982858 0.7027233727423023
vt 0.18625528036017142 0.715244378929063
vt 0.18528879983168098 0.7415229141630764
vt 0.16927983647315947 0.9534989027093774
vt 0.14411578752952792 0.9935213922506695
vt 0.1314387647696902 0.975537215769324
vt 0.14516240461070995 0.953125
vt 0.14917664161902938 0.8012292576071485
vt 0.15096336036902938 0.7552980076071485
vt 0.16848836036902937 0.7686019138571485
vt 0.16848836036902937 0.7954276951071484
vt 0.14411578752952792 0.9935213922506695
vt 0.09814938127952792 0.9935213922506695
vt 0.10469703752952793 0.9743073297506695
vt 0.13150250627952792 0.9756276422506694
vt 0.1559119995679517 0.8125
vt 0.14917664161902938 0.8012292576071485
vt 0.16848809458171907 0.7954277749540908
vt 0.17113585838097062 0.7979010229210264
vt 0.09814938127952792 0.9935213922506695
vt 0.08730462734031093 0.9862718369968818
vt 0.10271342883760334 0.9717773677192678
vt 0.1046848920799463 0.9743429705079789
vt 0.044774142464616425 0.9189766402373728
vt 0.034758403132543934 0.921875
vt 0.024131671126774633 0.9143719287468333
vt 0.025479093138029135 0.9131800855102706
vt 0.328125 0.53747890625
vt 0.32980390625 0.5364234375
vt 0.32980390625 0.5390625
vt 0.328125 0.5390625
vt 0.12920889402399074 0.8346088161591837
vt 0.13049385466234553 0.8335282596571126
vt 0.15234375073252462 0.8437202856826669
vt 0.3515625 0.49132625159018795
vt 0.3515625 0.4807408203868895
vt 0.3568279274538189 0.4818127832103942
vt 0.35579290885574344 0.4921875
vt 0.4166395075835641 0.988211682518275
vt 0.4164926325835641 0.9862929325182749
vt 0.4293332575835641 0.988686682518275
vt 0.4344629450835641 0.9975812137682749
vt 0.421875 0.47721015624999996
vt 0.42355390625 0.47721015624999996
vt 0.42355390625 0.49124765625
vt 0.421875 0.4921875
vt 0.1015625 0.5459179239010559
vt 0.10378039845185409 0.5461543922963854
vt 0.10360930141912643 0.5499404024361035
vt 0.10196362232703153 0.549635306205988
vt 0.3674046875 0.5546875
vt 0.36950859375 0.5548195312499999
vt 0.36941640625 0.56214140625
vt 0.3671875 0.56214453125
vt 0.08231171875 0.6732774556014152
vt 0.08021875 0.6730290181014152
vt 0.0929625 0.6484376118514152
vn 0.12714978122310008 0.991883528008666 0
vn 0.9982518746001917 -0.056871910401045056 0.016086661074907155
vn 0.4590943468021507 -0.8883781435632147 -0.004081026033130613
vn 0.08758204794882593 0.9908208731653547 -0.10297272540305813
vn 0.6317451777801373 -0.030616253565418073 -0.7745712848854914
vn 0.3622026696227612 -0.8478355991301277 -0.3872777078090118
vn 0 0.9917606896045659 -0.12810438928887694
vn -4.671588844452017e-16 -0.014964998298276605 -0.9998880181429982
vn -5.152150894393112e-16 -0.8371267580253533 -0.5470089496506997
vn -0.08758204794882599 0.9908208731653548 -0.10297272540305799
vn -0.7285475356187918 -0.030406768200445036 -0.6843200397411944
vn -0.3433078112389034 -0.8383282628001231 -0.4234919958309497
vn -0.12714978122310008 0.991883528008666 0
vn -0.9986796822739709 -0.04916159337946843 0.014900669433038981
vn -0.4590943468021508 -0.8883781435632148 -0.004081026033130612
vn 0.05379879650691092 0.9940862568942216 0.0943302886057495
vn 0.4935767936279797 -0.05536757698535747 0.867938004819868
vn -0.17891409219976617 -0.9335909281145596 0.3104798327662026
vn -0.8567135300998788 0 -0.5157925235439188
vn -0.9992442462190172 0 0.03887076534091172
vn 0.49839439873534297 0 0.8669504157154756
vn 0.9992442462190172 0 0.038870765340911266
vn 0.5625886295907742 0 -0.8267369798522228
vn 0 0 -1
vn -0.49839439873534297 0 0.8669504157154756
vn -0.053798796506910905 0.9940862568942216 0.09433028860574953
vn -0.4932554912153133 -0.05537918067745487 0.8681199034312218
vn 0.17891409219976623 -0.9335909281145596 0.31047983276620256
vn -0.5625893309733467 0 -0.8267365025659398
vn -0.08758204794882592 0.9908208731653548 -0.10297272540305816
vn -0.6369666665068958 -0.030618555603858073 -0.7702830452579277
vn -0.36220310359615004 -0.8478359707979823 -0.3872764882695042
vn 0.9290830769611111 0 0.36987110742050955
vn 0.0875820479488259 0.9908208731653548 -0.10297272540305809
vn 0.7282961998811672 -0.04005099004055598 -0.6840910490829581
vn 0.3433076820606205 -0.8383282848084145 -0.42349205698377157
vn -0.6573449852486234 1.4404140956025692e-16 -0.7535897891880484
vn 0 0 -1
vn 0.6573450948606009 0 -0.7535896935751627
vn 0.6478855859898844 0 -0.7617376631534928
vn 1 0 0
vn 0.4954152407679626 0 0.8686562837019149
vn -0.4954152407679625 0 0.868656283701915
vn -1 0 0
vn -0.6478855859898852 0 -0.7617376631534921
vn 0.9606657999932673 -2.1050690132674422e-16 -0.27770707719339055
vn -0.3942593223989912 -0.9082335531344125 0.14025476698611267
vn -0.13969801140043234 0.9900085498516069 0.019171250128332686
vn 0 -1 0
vn 0 1 0
vn 0.44348775018939846 -0.8932175596202132 0.07403382077170267
vn -0.9421591038926622 0 -0.3351659632960599
vn 0.12510856513710658 0.9914836661529148 0.03616609850827277
vn -0.5429387319029928 0.6331544323973775 -0.5516638452310655
vn -3.9631276398867146e-16 0.5273901545704699 -0.8496232252370082
vn 0.5717276237202836 0.560312861441042 -0.5993137922481926
vn -0.5470926593648072 0.6607694868903317 -0.5138806352294576
vn -0.9045196696262169 0.422397992148046 -0.058515839638333504
vn -0.43202429891294786 0.5555165224930184 0.7104621020054764
vn 0.46050390865753527 0.4425087008000693 0.7694947692007836
vn 0.7433157811919532 0.6619235022387759 -0.0966381219547947
vn 0.5982271416250485 0.6888760870523609 -0.4093580629602311
vn -0.6478855859898845 0 -0.7617376631534928
vn -0.6478855859898852 0 -0.7617376631534922
vn -1 0 0
vn -0.49541524076796245 0 0.8686562837019149
vn 0.49541524076796273 0 0.868656283701915
vn 1 0 0
vn 0.6478855859898844 0 -0.7617376631534928
vn 0.6478855859898848 0 -0.7617376631534928
vn 0 0 -1
vn 0 0.9760353951339856 -0.21761182744888807
vn 0 -1 0
vn 0.2011346872043751 0.9573622521756779 -0.20737009358225206
vn -0.2610208160484862 -0.9586832816204804 0.11311277174028261
vn -0.15080557036495967 0.9489819253297704 -0.27693137298670456
vn 0.1303048507395843 -0.9823299926243001 0.1343444508138584
vn -0.31501173504593205 0.8389763182676032 -0.44371876697914087
vn 0.35107080524947915 -0.8643781758174935 0.359999526210667
vn 0 1 0
vn 0 -1 0
vn -0.09204070190350017 0.9883475959483982 0.12123340618877702
vn 0.001041744024895388 -0.9622680651992408 -0.27210124120829815
vn 0.0010417440248953874 0.9622680651992409 0.272101241208298
vn -0.09204070190350024 -0.9883475959483982 -0.1212334061887771
vn 0 1 0
vn -0.12188581621637906 -0.9925328040610646 0.004741378275090832
vn 0.04770704480667706 0.9861579867092628 -0.15879692416840835
vn -0.0814962475681053 -0.9931256432786978 0.08402272487006789
vn -0.07502582632785312 0.9915658888699262 -0.10567976823127502
vn 0.6478855859898852 0 -0.7617376631534923
vn 0.08758204794882597 0.9908208731653547 -0.10297272540305807
vn 0.2715576204019973 0 -0.962422183244757
vn 0.34380996642562367 -0.8719379484303603 0.3485956412140951
vn 0.6478855859898851 0 -0.7617376631534922
vn 0.5287976139296282 0.6882302234193929 -0.49670136206217963
vn 0.7504394580905339 -0.04048800275392722 -0.6596979167571958
vn 0.3622026696227617 -0.8478355991301281 -0.38727770780901094
usemtl m_0152a11c-830e-9911-f60c-488da9c31993
f 2/1/1 3/2/1 1/3/1
f 54/4/2 55/5/2 52/6/2 53/7/2
f 54/8/3 53/9/3 45/10/3
f 1/11/4 19/12/4 4/13/4
f 41/14/5 44/15/5 43/16/5 42/17/5
f 45/18/6 90/19/6 54/20/6
f 4/21/7 5/22/7 1/23/7
f 37/24/8 40/25/8 41/26/8 42/27/8
f 37/28/9 42/29/9 45/30/9
f 1/31/10 17/32/10 6/33/10
f 48/34/11 39/35/11 38/36/11 46/37/11
f 45/38/12 38/39/12 37/40/12
f 6/41/13 7/42/13 1/43/13
f 47/44/14 49/45/14 48/46/14 46/47/14
f 47/48/15 46/49/15 45/50/15
f 1/51/16 15/52/16 2/53/16
f 52/54/17 51/55/17 50/56/17 53/57/17
f 45/58/18 50/59/18 47/60/18
f 82/61/19 81/62/19 70/63/19 69/64/19
f 80/65/20 79/66/20 81/67/20 82/68/20
f 76/69/21 75/70/21 77/71/21 78/72/21
f 74/73/22 73/74/22 75/75/22 76/76/22
f 68/77/23 66/78/23 71/79/23 72/80/23
f 65/81/24 67/82/24 66/83/24 68/84/24
f 78/85/25 77/86/25 79/87/25 80/88/25
f 7/89/26 15/90/26 1/91/26
f 47/92/27 50/93/27 51/94/27 49/95/27
f 53/96/28 50/97/28 45/98/28
f 69/99/29 70/100/29 67/101/29 65/102/29
f 5/103/30 17/104/30 1/105/30
f 37/106/31 38/107/31 39/108/31 40/109/31
f 46/110/32 38/111/32 45/112/32
f 71/113/33 83/114/33 86/115/33 72/116/33
f 1/117/34 85/118/34 19/119/34
f 44/120/35 89/121/35 90/122/35 43/123/35
f 42/124/36 43/125/36 45/126/36
f 29/127/37 30/128/37 31/129/37 32/130/37
f 32/131/38 31/132/38 33/133/38 34/134/38
f 34/135/39 33/136/39 35/137/39 36/138/39
f 23/139/40 87/140/40 88/141/40 18/142/40
f 11/143/41 24/144/41 25/145/41 10/146/41
f 10/147/42 25/148/42 26/149/42 14/150/42
f 14/151/43 26/152/43 27/153/43 9/154/43
f 9/155/44 27/156/44 28/157/44 8/158/44
f 8/159/45 28/160/45 20/161/45 16/162/45
f 30/163/46 29/164/46 16/165/46 20/166/46
f 31/167/47 30/168/47 20/169/47 21/170/47
f 29/171/48 32/172/48 12/173/48 16/174/48
f 33/175/49 31/176/49 21/177/49 22/178/49
f 32/179/50 34/180/50 13/181/50 12/182/50
f 35/183/51 33/184/51 22/185/51 23/186/51
f 36/187/52 35/188/52 23/189/52 18/190/52
f 34/191/53 36/192/53 18/193/53 13/194/53
f 40/195/54 39/196/54 16/197/54 12/198/54
f 41/199/55 40/200/55 12/201/55 13/202/55
f 44/203/56 41/204/56 13/205/56 18/206/56
f 39/207/57 48/208/57 8/209/57 16/210/57
f 48/211/58 49/212/58 9/213/58 8/214/58
f 49/215/59 51/216/59 14/217/59 9/218/59
f 51/219/60 52/220/60 10/221/60 14/222/60
f 52/223/61 55/224/61 11/225/61 10/226/61
f 18/227/62 88/228/62 89/229/62 44/230/62
f 5/231/63 56/232/63 57/233/63 17/234/63
f 17/235/64 57/236/64 58/237/64 6/238/64
f 6/239/65 58/240/65 59/241/65 7/242/65
f 7/243/66 59/244/66 60/245/66 15/246/66
f 15/247/67 60/248/67 61/249/67 2/250/67
f 2/251/68 61/252/68 62/253/68 3/254/68
f 19/255/69 85/256/69 84/257/69 63/258/69
f 19/259/70 63/260/70 64/261/70 4/262/70
f 4/263/71 64/264/71 56/265/71 5/266/71
f 66/267/72 67/268/72 56/269/72 64/270/72
f 65/271/73 68/272/73 22/273/73 21/274/73
f 67/275/74 70/276/74 57/277/74 56/278/74
f 69/279/75 65/280/75 21/281/75 20/282/75
f 71/283/76 66/284/76 64/285/76 63/286/76
f 68/287/77 72/288/77 23/289/77 22/290/77
f 63/291/78 84/292/78 83/293/78 71/294/78
f 72/295/79 86/296/79 87/297/79 23/298/79
f 75/299/80 73/300/80 62/301/80 61/302/80
f 74/303/81 76/304/81 25/305/81 24/306/81
f 77/307/82 75/308/82 61/309/82 60/310/82
f 76/311/83 78/312/83 26/313/83 25/314/83
f 79/315/84 77/316/84 60/317/84 59/318/84
f 78/319/85 80/320/85 27/321/85 26/322/85
f 81/323/86 79/324/86 59/325/86 58/326/86
f 80/327/87 82/328/87 28/329/87 27/330/87
f 70/331/88 81/332/88 58/333/88 57/334/88
f 82/335/89 69/336/89 20/337/89 28/338/89
f 73/339/90 83/340/90 84/341/90 62/342/90
f 62/343/91 84/344/91 85/345/91 3/346/91
f 3/347/92 85/348/92 1/349/92
f 74/350/93 86/351/93 83/352/93 73/353/93
f 24/354/94 87/355/94 86/356/94 74/357/94
f 11/358/95 88/359/95 87/360/95 24/361/95
f 55/362/96 89/363/96 88/364/96 11/365/96
f 54/366/97 90/367/97 89/368/97 55/369/97
f 43/370/98 90/371/98 45/372/98
o cuboid
v 0.1875 1.6218750000000004 0.12187500000000007
v 0.1984375 1.5843750000000003 -0.14687499999999998
v 0.1875 1.4640625000000003 0.12187500000000007
v 0.1984375 1.4562500000000003 -0.14687499999999998
v -0.1875 1.6218750000000004 0.12187500000000007
v -0.1984375 1.5843750000000003 -0.14687499999999998
v -0.1875 1.4640625000000003 0.12187500000000007
v -0.1984375 1.4562500000000003 -0.14687499999999998
v 0.09375 1.7296875000000003 0.14999999999999983
v 0.09375 1.4531250000000004 0.18124999999999983
v 2.7755575615628914e-17 1.6218750000000004 0.2312500000000001
v 2.7755575615628914e-17 1.4546875000000004 0.2312500000000001
v -0.09374999999999999 1.7296875000000003 0.14999999999999983
v -0.09374999999999999 1.4640625000000003 0.18124999999999983
v 0.09375 1.4156250000000004 -0.24062499999999987
v 2.7755575615628914e-17 1.4078125000000004 -0.24062499999999987
v -0.09374999999999999 1.4156250000000004 -0.24062499999999987
v 0.09375 1.6640625000000002 -0.20937499999999984
v 2.7755575615628914e-17 1.5843750000000003 -0.22812499999999986
v -0.09374999999999999 1.6640625000000002 -0.20937499999999984
v 0.1875 1.5250000000000004 0.12187500000000007
v 0.1984375 1.5250000000000004 -0.14687499999999998
v 0.09375 1.4937500000000004 -0.24062499999999987
v 2.7755575615628914e-17 1.4937500000000004 -0.24062499999999987
v -0.09374999999999999 1.4937500000000004 -0.24062499999999987
v -0.1984375 1.5250000000000004 -0.14687499999999998
v -0.1875 1.5250000000000004 0.12187500000000007
v -0.09374999999999999 1.5250000000000004 0.18124999999999983
v 2.7755575615628914e-17 1.5250000000000004 0.2312500000000001
v 0.09375 1.5250000000000004 0.18124999999999983
v -0.10876388781708621 1.4156250000000004 -0.27555711367569413
v 3.0186760745341866e-17 1.4937500000000004 -0.27812499999999984
v -0.10876388781708621 1.4937500000000004 -0.27555711367569413
v 3.0186760745341866e-17 1.4078125000000004 -0.27812499999999984
v 0.10876388781708622 1.4937500000000004 -0.27555711367569413
v 0.10876388781708622 1.4156250000000004 -0.27555711367569413
v 0.23280899387616286 1.5250000000000004 -0.16439765553128413
v 0.23280899387616286 1.4562500000000003 -0.16439765553128413
v 0.21956686254591315 1.5250000000000004 0.14022976980919083
v 0.21956686254591315 1.4640625000000003 0.14022976980919083
v 0.11221550435609297 1.5250000000000004 0.21246922804539572
v 0.11221550435609297 1.4531250000000004 0.21246922804539572
v 3.131876427329219e-17 1.5250000000000004 0.2665441176470589
v 3.131876427329219e-17 1.4546875000000004 0.2665441176470589
v -0.11221550435609295 1.5250000000000004 0.21246922804539572
v -0.11221550435609295 1.4640625000000003 0.21246922804539572
v -0.21956686254591315 1.5250000000000004 0.14022976980919083
v -0.21956686254591315 1.4640625000000003 0.14022976980919083
v -0.23280899387616286 1.5250000000000004 -0.16439765553128413
v -0.23280899387616286 1.4562500000000003 -0.16439765553128413
vt 0.4296875 0.71796875
vt 0.4296875 0.7265625
vt 0.390625 0.7265625
vt 0.390625 0.7189453125
vt 0.4296875 0.8439453125
vt 0.4296875 0.8515625
vt 0.390625 0.8515625
vt 0.390625 0.84296875
vt 0.32224543851152637 0.795273716329095
vt 0.328125 0.8125
vt 0.28245950611070414 0.8125
vt 0.28835590907030134 0.7953872206972903
vt 0.2934716796746547 0.8359375
vt 0.28125 0.8203125
vt 0.3343309679942633 0.8203125
vt 0.32695745004143917 0.833842247371379
vt 0.4302375 0.9689453125
vt 0.4302375 0.9765625
vt 0.4140625 0.9765625
vt 0.4140625 0.9689453125
vt 0.47452615782648355 0.7734375
vt 0.4765625 0.7801114996029885
vt 0.45540953286755825 0.78125
vt 0.4530955076703804 0.7734375
vt 0.4140625 0.5861328125
vt 0.4140625 0.59375
vt 0.3978875 0.59375
vt 0.3978875 0.584765625
vt 0.3978875 0.584765625
vt 0.3978875 0.59375
vt 0.38231640625 0.59375
vt 0.38231640625 0.5849609375
vt 0.44580859375 0.9677734375
vt 0.44580859375 0.9765625
vt 0.4302375 0.9765625
vt 0.4302375 0.9689453125
vt 0.0544661363558681 0.9804762064249412
vt 0.04246852545185481 0.9875710515842917
vt 0.043253345689465386 0.9346343289239044
vt 0.05665075535331793 0.9469566965391241
vt 0.04246852545185481 0.9875710515842917
vt 0.030653144840046862 0.993639782273633
vt 0.031509845322298086 0.934371306491728
vt 0.04325329627070529 0.9346376622569046
vt 0.030653144840046862 0.993639782273633
vt 0.01888913088300535 0.9873643624701973
vt 0.01978510884246631 0.9342918781501246
vt 0.031509752092100274 0.9343777563675417
vt 0.3046875 0.5390330076703804
vt 0.314175003308429 0.5413470328675583
vt 0.31303650291141755 0.5625
vt 0.3046875 0.5604636578264836
vt 0.421875 0.9423828125
vt 0.421875 0.953125
vt 0.40827578125 0.953125
vt 0.40827578125 0.943359375
vt 0.43547421875 0.943359375
vt 0.43547421875 0.953125
vt 0.421875 0.953125
vt 0.421875 0.9423828125
vt 0.140625 0.6555434479509347
vt 0.15625 0.6496472590974867
vt 0.15625 0.6953125
vt 0.14073851258877576 0.6894329235145829
vt 0.2814711940969225 0.7314851280372638
vt 0.278324707074371 0.71875
vt 0.3359375 0.71875
vt 0.32691142173303805 0.734375
vt 0.0859375 0.6925597495706646
vt 0.1011719899747271 0.6957158782657311
vt 0.10400519607206524 0.7412927531358001
vt 0.0859375 0.75
vt 0.34375 0.75
vt 0.34375 0.734375
vt 0.375 0.734375
vt 0.375 0.7453125
vt 0.0009018678365026508 0.6013057576214274
vt 0 0.5939388815588682
vt 0.015625 0.5879269995992306
vt 0.015625 0.609375
vt 0.1640625 0.65625
vt 0.1640625 0.63460546875
vt 0.17578125 0.63460546875
vt 0.17578125 0.6460296875
vt 0.17578125 0.6460296875
vt 0.17578125 0.63459453125
vt 0.1875 0.63459453125
vt 0.1875 0.65621796875
vt 0.390625 0.7890625
vt 0.3689808383276905 0.7890625
vt 0.374938085220423 0.7720817074382138
vt 0.38223833439753235 0.7729354415608267
vt 0.078125 0.909375
vt 0.078125 0.8984375
vt 0.109375 0.8984375
vt 0.109375 0.9140625
vt 0 0.6738127323554337
vt 0 0.6617033573554337
vt 0.01387109375 0.6617033573554337
vt 0.01178125 0.6872892948554337
vt 0.011764039732466725 0.6875
vt 0.01387109375 0.6617033573554337
vt 0.02715162347967747 0.661841674605453
vt 0.02702663350351306 0.6738425862352944
vt 0.22284823133908097 0.6816054771905622
vt 0.22284823133908097 0.6694961021905622
vt 0.23612948133908096 0.6694961021905622
vt 0.23796776258908098 0.6950820396905623
vt 0.23798432054658042 0.6953125
vt 0.23612948133908096 0.6694961021905622
vt 0.25 0.6696224109328797
vt 0.24989063676172088 0.6816320692473999
vt 0.0937307400570749 0.9375
vt 0.0801354275570749 0.93717890625
vt 0.0820119900570749 0.9328125
vt 0.0937307400570749 0.9328125
vt 0.017945265335561005 0.929911878672298
vt 0.0315777202827712 0.9296906284671005
vt 0.031543387183028654 0.9343780027308288
vt 0.01978510884246631 0.9342918781501246
vt 0.10732605255707489 0.93717890625
vt 0.0937307400570749 0.9375
vt 0.0937307400570749 0.9328125
vt 0.1054494900570749 0.9328125
vt 0.031614363422183406 0.9296875
vt 0.04523383971691612 0.9303125993891183
vt 0.04326500636412817 0.9346379278560806
vt 0.03150984532229808 0.934371306491728
vt 0.12318419456748882 0.9231330266074982
vt 0.10732605255707489 0.93717890625
vt 0.10544958224823385 0.9328127145114019
vt 0.11894136491498487 0.9209198923616324
vt 0.04523383971691612 0.9303125993891183
vt 0.06096200242865146 0.9448703261168324
vt 0.05665432466807162 0.9470387185205892
vt 0.04329089069033916 0.934581062599887
vt 0.12188168189150236 0.8850404478992007
vt 0.12318419456748882 0.9231330266074982
vt 0.11890854052660882 0.920902770585845
vt 0.11785204268160543 0.887297814805095
vt 0.06100087828612798 0.944827198999426
vt 0.05841802369400326 0.9828669046554143
vt 0.0544661363558681 0.9804762064249412
vt 0.05665369388713791 0.9469116094033152
vt 0.10854621912652974 0.8758870601022475
vt 0.12188168189150236 0.8850404478992007
vt 0.11785204268160543 0.887297814805095
vt 0.10620242150151893 0.8797678973793456
vt 0.05816271795800647 0.9822627898981703
vt 0.04468272995531597 0.9913052782620335
vt 0.04237957941670488 0.9874002853188216
vt 0.054164488898346366 0.9799588961086216
vt 0.09458275817281217 0.8689982747121344
vt 0.10854621912652974 0.8758870601022475
vt 0.10620242150151893 0.8797678973793456
vt 0.09454196434914652 0.8734098048540525
vt 0.04468272995531597 0.9913052782620335
vt 0.030646621324725943 0.9980480592844697
vt 0.030651838494546 0.9936363436193072
vt 0.04237953386683731 0.9874002080889973
vt 0.07893719652862732 0.8758384581766656
vt 0.09289823864262986 0.8689447720039363
vt 0.092940580921029 0.8733562875553722
vt 0.08128235619208503 0.8797184725363312
vt 0.030646621324725943 0.9980480592844697
vt 0.016581364024170823 0.991266629044293
vt 0.018889130883005353 0.9873643624701973
vt 0.030651835254221462 0.9936390836854766
vt 0.06560494744534795 0.8849965261879209
vt 0.07893719652862732 0.8758384581766656
vt 0.08128235619208503 0.8797184725363312
vt 0.06963537874800003 0.8872524785421093
vt 0.01658136402417082 0.991266629044293
vt 0.003161832774170821 0.982236941544293
vt 0.007170426524170822 0.979942410294293
vt 0.018889176524170822 0.987364285294293
vt 0.06431580543251118 0.9230895597346166
vt 0.06560494744534795 0.8849965261879209
vt 0.06963537874800003 0.8872524785421092
vt 0.06859067638500194 0.9208578030859282
vt 0.003161832774170821 0.982236941544293
vt 0.0014991217138720266 0.9441467896689846
vt 0.005796489746498566 0.9463355430351325
vt 0.007168972630299083 0.9799432425075655
vt 0.0801354275570749 0.93717890625
vt 0.06431580543251118 0.9230895597346166
vt 0.06859092949431202 0.9208576709466445
vt 0.08199693254676461 0.9328475359804846
vt 0.0014991217138720266 0.9441467896689846
vt 0.017366109887349216 0.9297416397177966
vt 0.019312506099283137 0.9340771111920809
vt 0.005741334326282158 0.9463074510470264
vn 0.9990565197247826 0 0.04342891197583843
vn -0.9990565197247826 0 0.043428911975838425
vn -0.7329440811656437 0.6692224639464004 -0.12220584124238613
vn -0.27264303684629654 -0.9558357628971905 0.10974410611041828
vn -0.5582898633448745 0 0.8296459657506697
vn -0.6673672776474877 0 -0.7447287537925343
vn 0.5582898633448745 0 0.8296459657506696
vn 0.43411018439227417 0 0.900859782544934
vn -0.43411018439227406 0 0.900859782544934
vn 0.16978238816734498 -0.9816112377983552 0.08725433224874277
vn 0.03611204104324149 -0.994453166722691 0.09878673841616138
vn -0.15816594168667283 -0.9809679384854878 0.11262965219648205
vn 0.6673672776474877 0 -0.7447287537925342
vn 0.023603155238072538 0 -0.9997214067242971
vn -0.02360315523807253 0 -0.9997214067242972
vn 0.6503162314293487 0.7473059751175445 -0.13646456936929072
vn -0.6390835334886596 0.7665873473915383 -0.06257855897073786
vn 0.6248117810952718 0.7680743434094742 -0.140257054013904
vn 0.9991728769800886 0 0.04066401243523611
vn 0.6671198031439451 0 -0.7449504468440729
vn 0 0.18047337080641704 -0.9835798708949719
vn 0 0.13663739713703107 -0.9906211292434749
vn -0.6372744606235059 0.1390794425464984 -0.7579829618784154
vn -0.9991728769800885 0 0.04066401243523611
vn -0.5350520811843431 0 0.8448190755542296
vn -0.46637562845670244 0.13350447379485694 0.8744543033563127
vn 0.4705882352941198 0 0.8823529411764697
vn 0.5306563297413796 0.12792036876047777 0.8378784153811291
vn 0 1 0
vn -0.07164531700038085 -0.9974301722686731 0
vn 0 1 0
vn 0.07089630142813977 -0.9970181595540398 0.030471363003408757
vn -0.17841233628586473 0.9809632591959992 -0.0766819559517248
vn 0.11489301578206426 -0.967475525005525 0.22536792904001696
vn 0 1 0
vn -0.014317239394053804 -0.9995845954770948 0.02501305940955841
vn 0 1 0
vn 0.07261821890391315 -0.9964344984233517 -0.04295212026229705
vn 0 1 0
vn -0.013922751243510417 -0.9999030738015617 0
vn 0 1 0
vn -0.06482934970916075 -0.9971593670388977 -0.038345171050240844
vn 0 1 0
vn 0 -1 0
vn 0 1 0
vn -0.01336494285797939 -0.9995669573855253 0.026215949447739938
vn 0.0895568919792675 0.9803670888473621 -0.1756699581714591
vn -0.22897611484768587 -0.9684443980251978 0.0984143625842899
usemtl m_0152a11c-830e-9911-f60c-488da9c31993
f 128/373/99 127/374/99 129/375/99 130/376/99
f 138/377/100 137/378/100 139/379/100 140/380/100
f 95/381/101 103/382/101 110/383/101 96/384/101
f 98/385/102 107/386/102 104/387/102 97/388/102
f 136/389/103 135/390/103 137/391/103 138/392/103
f 140/393/104 139/394/104 123/395/104 121/396/104
f 130/397/105 129/398/105 131/399/105 132/400/105
f 132/401/106 131/402/106 133/403/106 134/404/106
f 134/405/107 133/406/107 135/407/107 136/408/107
f 93/409/108 100/410/108 105/411/108 94/412/108
f 100/413/109 102/414/109 106/415/109 105/416/109
f 102/417/110 104/418/110 107/419/110 106/420/110
f 126/421/111 125/422/111 127/423/111 128/424/111
f 124/425/112 122/426/112 125/427/112 126/428/112
f 121/429/113 123/430/113 122/431/113 124/432/113
f 92/433/114 108/434/114 99/435/114 91/436/114
f 108/437/115 109/438/115 101/439/115 99/440/115
f 109/441/116 110/442/116 103/443/116 101/444/116
f 91/445/117 111/446/117 112/447/117 92/448/117
f 92/449/118 112/450/118 113/451/118 108/452/118
f 108/453/119 113/454/119 114/455/119 109/456/119
f 109/457/120 114/458/120 115/459/120 110/460/120
f 110/461/121 115/462/121 116/463/121 96/464/121
f 96/465/122 116/466/122 117/467/122 95/468/122
f 95/469/123 117/470/123 118/471/123 103/472/123
f 103/473/124 118/474/124 119/475/124 101/476/124
f 101/477/125 119/478/125 120/479/125 99/480/125
f 99/481/126 120/482/126 111/483/126 91/484/126
f 122/485/127 123/486/127 115/487/127 114/488/127
f 121/489/128 124/490/128 106/491/128 107/492/128
f 125/493/129 122/494/129 114/495/129 113/496/129
f 124/497/130 126/498/130 105/499/130 106/500/130
f 127/501/131 125/502/131 113/503/131 112/504/131
f 126/505/132 128/506/132 94/507/132 105/508/132
f 129/509/133 127/510/133 112/511/133 111/512/133
f 128/513/134 130/514/134 93/515/134 94/516/134
f 131/517/135 129/518/135 111/519/135 120/520/135
f 130/521/136 132/522/136 100/523/136 93/524/136
f 133/525/137 131/526/137 120/527/137 119/528/137
f 132/529/138 134/530/138 102/531/138 100/532/138
f 135/533/139 133/534/139 119/535/139 118/536/139
f 134/537/140 136/538/140 104/539/140 102/540/140
f 137/541/141 135/542/141 118/543/141 117/544/141
f 136/545/142 138/546/142 97/547/142 104/548/142
f 139/549/143 137/550/143 117/551/143 116/552/143
f 138/553/144 140/554/144 98/555/144 97/556/144
f 123/557/145 139/558/145 116/559/145 115/560/145
f 140/561/146 121/562/146 107/563/146 98/564/146
o plane
v -0.0023427015350128075 1.2566708440504388 0.2929993206369501
v 0.004805636455971721 1.3236934576416781 0.1987894091748757
v -0.05193201208798794 1.1786705446030608 0.3233870999901381
v -0.06433457753924468 1.2840134802146195 0.2595679535711087
v 0.011164562421476433 1.279906683674398 0.2736399921986769
v -0.07395546948559467 1.252576049989316 0.28694395133631384
v -0.03265158539298864 1.2746251319892596 0.2894780816369385
v -0.015849965491502048 1.23343500442648 0.31235864907522337
v -0.04694094157261618 1.2990477292372342 0.24822529445976743
vt 0.53125 0.99558359375
vt 0.52739609375 1
vt 0.52296875 0.99558359375
vt 0.52600234375 0.99461796875
vt 0.2734375 0.5040408761471671
vt 0.27979404327300833 0.509398299119958
vt 0.27922168682599463 0.515625
vt 0.2734375 0.5147007724544596
vt 0.5078125 0.745584375
vt 0.50395859375 0.75
vt 0.49953203125 0.7421875
vt 0.503671875 0.7421875
vt 0.4453125 0.510931745585153
vt 0.45228216377843017 0.5173305097575385
vt 0.45093899334099996 0.5234375
vt 0.4453125 0.521800350391409
vn -0.41509099188886134 0.7125679805769809 0.5656379951074405
vn -0.2926407967424205 0.3703439631389796 0.8815932809683134
vn 0.2271105671191822 0.5420644226577885 0.8090654806574571
vn 0.05822967467118735 0.8677584993060293 0.4935630576429276
usemtl m_0152a11c-830e-9911-f60c-488da9c31993
f 146/565/147 147/566/147 149/567/147 144/568/147
f 143/569/148 148/570/148 147/571/148 146/572/148
f 145/573/149 147/574/149 148/575/149 141/576/149
f 142/577/150 149/578/150 147/579/150 145/580/150
o plane
v 0.08215865553834294 1.3089163340675496 0.2998074651433085
v 0.01449175255048605 1.3212899796786792 0.2066048899608172
v 0.09115677892230072 1.2489903946936447 0.37592894131620125
v 0.006870200444274256 1.3059209912850434 0.30537030596302744
v 0.07357156611587763 1.3215105596818981 0.27040029940726684
v 0.025730915859961692 1.290860864732229 0.34069430399377626
v 0.04955974893418018 1.3176662776846915 0.3104908070881993
v 0.09074574496080823 1.2963221084532008 0.3292146308793502
v 0.008556737015031103 1.3160493159609261 0.28187997252169295
vt 0.53125 0.97995859375
vt 0.52739609375 0.984375
vt 0.52296875 0.97995859375
vt 0.52600234375 0.97899296875
vt 0.359375 0.5040408761471671
vt 0.36573154327300833 0.509398299119958
vt 0.36515918682599463 0.515625
vt 0.359375 0.5147007724544596
vt 0.5078125 0.683084375
vt 0.50395859375 0.6875
vt 0.49953203125 0.6796875
vt 0.503671875 0.6796875
vt 0.4765625 0.542181745585153
vt 0.48353216377843017 0.5485805097575385
vt 0.48218899334099996 0.5546875
vt 0.4765625 0.553050350391409
vn -0.3485581555961217 0.8204592084440873 0.4531599049416572
vn 0.04061011901136333 0.7020487064872082 0.7109700640347109
vn 0.33486634850170416 0.8976100820551015 0.2866368246303488
vn -0.08297230135542656 0.9945774045677326 0.06270074585758428
usemtl m_0152a11c-830e-9911-f60c-488da9c31993
f 155/581/151 156/582/151 158/583/151 153/584/151
f 152/585/152 157/586/152 156/587/152 155/588/152
f 154/589/153 156/590/153 157/591/153 150/592/153
f 151/593/154 158/594/154 156/595/154 154/596/154