# Made in Blockbench 5.1.5
mtllib Colossus Head.mtl

o cylinder
v 0.1418 1.220723006472047 0.16700561065704472
v 0.112925625 1.3492553870749684 0.09281167062075728
v 0.1961 1.1824325489395036 0.01894739710629593
v 0.156168125 1.3208921837281788 -0.016860699173550004
v 0.138274375 1.1299602550023118 -0.18394790898001934
v 0.1101175 1.2783471439767404 -0.18137016150342378
v -0.138274375 1.1299602550023118 -0.18394790898001934
v -0.1101175 1.2783471439767404 -0.18137016150342378
v -0.1961 1.182432392452001 0.018946792014020695
v -0.156168125 1.3208920272406761 -0.01686130426582524
v -0.1418 1.220723006472047 0.16700561065704472
v -0.112925625 1.3492553870749684 0.09281167062075728
v 0 1.3208921837281788 -0.016860699173550004
v 0 1.1454154239096468 0.0285206765613175
v 0.1418 1.18370588144219 0.1765788901120663
v 0.1961 1.1454154239096468 0.0285206765613175
v 0.138274375 1.092943129972455 -0.17437462952499777
v -0.138274375 1.092943129972455 -0.17437462952499777
v -0.1961 1.1454152674221443 0.028520071469042264
v -0.1418 1.18370588144219 0.1765788901120663
v 0 1.1299602550023118 -0.18394790898001934
v 0 1.2783471439767404 -0.18137016150342378
v 0 1.092943129972455 -0.17437462952499777
v 0.14547125 1.238288398981246 0.12954113051483673
v 0.188733125 1.2079783346154305 0.012340807724314427
v 0.163535625 1.295346398052252 -0.010254109791568499
v 0.12725125 1.3193924241791328 0.08272497431351926
v 0.142661875 1.1661029048873353 -0.14957946475982312
v 0.124895 1.2597350065630912 -0.1479531435902715
v -0.142661875 1.1661029048873353 -0.14957946475982312
v -0.188733125 1.207978178127928 0.012340202632039192
v -0.163535625 1.2953462415647494 -0.010254714883843736
v -0.124895 1.2597350065630912 -0.1479531435902715
v -0.14547125 1.238288398981246 0.12954113051483673
v -0.12725125 1.3193924241791328 0.08272497431351926
v 0.134086875 1.2462330537003277 0.12328453552028702
v 0.17721375 1.2168322442974395 0.009607529418698154
v 0.152016875 1.280057731044607 -0.006743693233579675
v 0.115866875 1.3031945022085607 0.08271207418257465
v 0.131008125 1.1758657774150014 -0.14878805970445297
v 0.11324125 1.2453559074933789 -0.14091820015879877
v -0.131025 1.1758191435943386 -0.1487811638799648
v -0.177251875 1.216730807855907 0.009642154981209544
v -0.152055 1.2799562946030747 -0.00670906767106828
v -0.113258125 1.2453092736727158 -0.14091130433431062
v -0.13414625 1.246077419730201 0.12334673433331911
v -0.11592625 1.303038868238434 0.08277427299560673
v 0 1.228883884374728 -0.1822298071045608
v -0.119503125 1.228883884374728 -0.1822298071045608
v 0 1.1794207812602182 -0.18308884761342265
v -0.12888875 1.1794207812602182 -0.18308884761342265
v -0.1308175 1.2285239026096557 -0.14849514632178704
v -0.13674 1.1973127986562204 -0.14903714905330256
v -0.119180625 1.222145291887648 -0.14353443436202615
v -0.125103125 1.1989819151948558 -0.14615772087724418
v -0.160454375 1.2588809306565936 -0.001258607957808161
v -0.168853125 1.2378055667101127 0.004191851755451958
v -0.122 1.2840509119459893 0.09629863542484755
v -0.128073125 1.2650635607458198 0.10982284136658586
v -0.133324375 1.2923573457183204 0.0983304640389601
v -0.139398125 1.2653224237450105 0.11393655885667618
v -0.122550625 1.30641060990513 0.11754379770846503
v -0.132175625 1.2635656762477894 0.1422753197038976
v 0.122550625 1.30641060990513 0.11754379770846503
v 0.132175625 1.2635656762477894 0.1422753197038976
v 0.133324375 1.2923573457183204 0.0983304640389601
v 0.139398125 1.2653224237450105 0.11393655885667618
v 0.121940625 1.2842071510083912 0.09623628012431294
v 0.12801375 1.2652197998082217 0.10976048606605124
v 0.16041625 1.258981762005851 -0.00129307703281702
v 0.168815625 1.2379063980593699 0.004157382680443102
v 0.11916375 1.2221917692208086 -0.14354193527878953
v 0.12508625 1.1990283925280163 -0.14616522179400762
v 0.1308175 1.2285239026096557 -0.14849514632178704
v 0.13674 1.1973127986562204 -0.14903714905330256
v 0.119503125 1.228883884374728 -0.1822298071045608
v 0.12888875 1.1794207812602182 -0.18308884761342265
v 0 1.218521270180226 -0.18240969559336395
v 0 1.1897833954547203 -0.18290895912461946
v -0.10090375 1.1897833954547203 -0.18290895912461946
v -0.095450625 1.218521270180226 -0.18240969559336395
v 0.095450625 1.218521270180226 -0.18240969559336395
v 0.10090375 1.1897833954547203 -0.18290895912461946
v 0 1.2226254134639996 -0.15858723956903148
v 0 1.193887538738494 -0.159086503100287
v -0.10090375 1.193887538738494 -0.159086503100287
v -0.095450625 1.2226254134639996 -0.15858723956903148
v 0.095450625 1.2226254134639996 -0.15858723956903148
v 0.10090375 1.193887538738494 -0.159086503100287
vt 0.05185625 0.97932109375
vt 0.04506875 0.9984375
vt 0.02734375 0.97932109375
vt 0.453125 0.56156671875
vt 0.45275703125 0.5644596875
vt 0.4382 0.56446046875
vt 0.4374890625 0.56153546875
vt 0.033646875 0.8474125
vt 0.03905234375 0.86157265625
vt 0.01953125 0.86157265625
vt 0.044628125 0.953125
vt 0.05185625 0.97932109375
vt 0.02734375 0.97932109375
vt 0.32593828125 0.585046171875
vt 0.32513515625 0.587943828125
vt 0.304971875 0.587943828125
vt 0.3046875 0.585041484375
vt 0.03905234375 0.86157265625
vt 0.03329609375 0.8828125
vt 0.01953125 0.86157265625
vt 0.02734375 0.97932109375
vt 0.02734375 0.953125
vt 0.044628125 0.953125
vt 0.325878125 0.91113671875
vt 0.3247046875 0.9173203125
vt 0.30859375 0.9173203125
vt 0.30859375 0.91113671875
vt 0.01953125 0.86157265625
vt 0.01953125 0.8828125
vt 0.00576640625 0.8828125
vt 0.00283125 0.97932109375
vt 0.010059375 0.953125
vt 0.02734375 0.97932109375
vt 0.4296875 0.7569154687499999
vt 0.42940375 0.7598178906249999
vt 0.409238125 0.759829921875
vt 0.408434375 0.756933203125
vt 0.00576640625 0.8828125
vt 0.00001015625 0.86157265625
vt 0.01953125 0.86157265625
vt 0.00961875 0.9984375
vt 0.00283125 0.97932109375
vt 0.02734375 0.97932109375
vt 0.45313671875 0.8037234375
vt 0.4524259375 0.806650078125
vt 0.437868125 0.806657890625
vt 0.4375 0.803766484375
vt 0.00001015625 0.86157265625
vt 0.005415625 0.8474125
vt 0.01953125 0.86157265625
vt 0.04506875 0.9984375
vt 0.00961875 0.9984375
vt 0.02734375 0.97932109375
vt 0.29506875 0.70801171875
vt 0.293865625 0.71419453125
vt 0.260821875 0.71419453125
vt 0.25961875 0.70801171875
vt 0.005415625 0.8474125
vt 0.033646875 0.8474125
vt 0.01953125 0.86157265625
vt 0.21875 0.5703125
vt 0.2421875 0.5703125
vt 0.2421875 0.578125
vt 0.21875 0.578125
vt 0.1875 0.5703125
vt 0.2109375 0.5703125
vt 0.2109375 0.578125
vt 0.1875 0.578125
vt 0.474315625 0.9296875
vt 0.45703125 0.9296875
vt 0.45703125 0.9249078125
vt 0.474315625 0.9249078125
vt 0.14469921875 0.6876704687499999
vt 0.171875 0.6876704687499999
vt 0.171875 0.6924501562500001
vt 0.14469921875 0.6924501562500001
vt 0.0625 0.554301328125
vt 0.08278515625 0.554301328125
vt 0.08278515625 0.559081015625
vt 0.0625 0.559081015625
vt 0.375 0.8671875
vt 0.4140625 0.8671875
vt 0.4140625 0.875
vt 0.375 0.875
vt 0.30859375 0.91113671875
vt 0.30859375 0.9173203125
vt 0.2924828125 0.9173203125
vt 0.291309375 0.91113671875
vt 0.03329609375 0.8828125
vt 0.01953125 0.8828125
vt 0.01953125 0.86157265625
vt 0.439746875 0.9249078125
vt 0.45703125 0.9249078125
vt 0.45703125 0.9296875
vt 0.439746875 0.9296875
vt 0.010059375 0.953125
vt 0.02734375 0.953125
vt 0.02734375 0.97932109375
vt 0.054378125 0.6332778906250001
vt 0.03830859375 0.6332778906250001
vt 0.03440234375 0.629856796875
vt 0.0546875 0.629867734375
vt 0.04048765625 0.6450022656250001
vt 0.0533203125 0.644937421875
vt 0.053012578125 0.648348359375
vt 0.03785578125 0.6484375
vt 0.03830859375 0.6332778906250001
vt 0.0390353125 0.637185625
vt 0.035553046875 0.6360504687499999
vt 0.0344025 0.629856875
vt 0.162553125 0.66459921875
vt 0.14086796875 0.6645894531250001
vt 0.140625 0.661173671875
vt 0.16780078125 0.6611890625
vt 0.16780078125 0.6611890625
vt 0.1665171875 0.66735
vt 0.16174296875 0.6684875
vt 0.162553125 0.66459921875
vt 0.14169921875 0.6762711718750001
vt 0.16012265625 0.67626328125
vt 0.163949140625 0.679674140625
vt 0.141942109375 0.6796875
vt 0.171630078125 0.69586578125
vt 0.149944921875 0.6958632812500001
vt 0.14469921875 0.6924501562500001
vt 0.171875 0.6924501562500001
vt 0.4347015625 0.9921875
vt 0.453125 0.9921875
vt 0.45288359375 1
vt 0.4308765625 1
vt 0.149944921875 0.6958632812500001
vt 0.150752890625 0.6997520312500001
vt 0.145979296875 0.6986117968750001
vt 0.14469921875 0.6924501562500001
vt 0.07887703125 0.5625
vt 0.0628075 0.562491328125
vt 0.0625 0.559081015625
vt 0.08278515625 0.559081015625
vt 0.386071796875 0.7157865625
vt 0.384935078125 0.72198265625
vt 0.381455390625 0.723125625
vt 0.382173359375 0.71921625
vt 0.3671875 0.73091046875
vt 0.380020234375 0.73094515625
vt 0.382660234375 0.734375
vt 0.36750328125 0.7343199218750001
vt 0.46050390625 0.765515078125
vt 0.444868359375 0.765625
vt 0.444868359375 0.7578125
vt 0.4609375 0.7578125
vt 0.109375 0.53629796875
vt 0.109457265625 0.523895859375
vt 0.1171875 0.5234375
vt 0.1171875 0.53626984375
vt 0.493700234375 0.5636225781249999
vt 0.49475390625 0.5664428125000001
vt 0.493243515625 0.566322578125
vt 0.4921875 0.5625
vt 0.04877578125 0.4765625
vt 0.0486709375 0.499565859375
vt 0.046875 0.5
vt 0.046875 0.4765625
vt 0.0234375 0.484375
vt 0.0224609375 0.48822421875
vt 0.02095 0.4883453125
vt 0.0219265625 0.48551015625000005
vt 0.500433046875 0.890671171875
vt 0.515625 0.890625
vt 0.515625 0.8931
vt 0.5 0.8930621875
vt 0.460505703125 0.94520453125
vt 0.439252890625 0.9453125
vt 0.439252890625 0.9375
vt 0.4609375 0.9375
vt 0.03658671875 0.49499101562500003
vt 0.03658671875 0.47699960937499997
vt 0.038987734375 0.4765625
vt 0.0390625 0.49499101562500003
vt 0.001509765625 0.48548437499999997
vt 0.00248453125 0.48832789062500004
vt 0.000975859375 0.488213046875
vt 0 0.484375
vt 0.234375 0.546419296875
vt 0.234375 0.5620560156250001
vt 0.22666296875 0.5625
vt 0.2265625 0.546431171875
vt 0.5 0.5390625
vt 0.49894375 0.54289453125
vt 0.497440625 0.5429937499999999
vt 0.498496875 0.5401812500000001
vt 0.50043046875 0.90647765625
vt 0.515625 0.90625
vt 0.515625 0.908736328125
vt 0.5 0.908876953125
vt 0.30859375 0.9296875
vt 0.30859375 0.92350390625
vt 0.32353203125 0.92350390625
vt 0.32235859375 0.9296875
vt 0.4765625 0.75
vt 0.4765625 0.74640703125
vt 0.48917578125 0.74640703125
vt 0.48849375 0.75
vt 0.1485403125 0.7109375
vt 0.147260234375 0.704775078125
vt 0.151560859375 0.70364
vt 0.152368828125 0.70752875
vt 0.147260234375 0.704775078125
vt 0.145979296875 0.6986117968750001
vt 0.150752890625 0.6997520312500001
vt 0.151560859375 0.70364
vt 0.002939296875 0.495910390625
vt 0.001952421875 0.492063046875
vt 0.003473046875 0.49115507812500003
vt 0.004483671875 0.49398078125
vt 0.001952421875 0.492063046875
vt 0.000975859375 0.488213046875
vt 0.002484453125 0.48832789062500004
vt 0.003461015625 0.491162265625
vt 0.410845078125 0.765625
vt 0.410041171875 0.76272734375
vt 0.429120078125 0.7627203124999999
vt 0.428836484375 0.76562265625
vt 0.410041171875 0.76272734375
vt 0.409238125 0.759829921875
vt 0.42940375 0.7598178906249999
vt 0.429120078125 0.7627203124999999
vt 0.438604375 0.8124446875
vt 0.43823609375 0.8095516406250001
vt 0.4517165625 0.809575078125
vt 0.451006640625 0.8125
vt 0.43823609375 0.8095516406250001
vt 0.437868125 0.806657890625
vt 0.45242671875 0.806650078125
vt 0.45171578125 0.809575078125
vt 0.49532078125 0.548630859375
vt 0.496383125 0.545813203125
vt 0.497903125 0.54672734375
vt 0.496873515625 0.550560859375
vt 0.496383125 0.545813203125
vt 0.497440625 0.5429937499999999
vt 0.49894390625 0.54289453125
vt 0.49788484375 0.546716328125
vt 0.380020234375 0.73094515625
vt 0.380738203125 0.72703578125
vt 0.383797578125 0.72817875
vt 0.382660078125 0.73437484375
vt 0.380738203125 0.72703578125
vt 0.381455390625 0.723125625
vt 0.384935078125 0.72198265625
vt 0.383797578125 0.72817875
vt 0.263228125 0.7265625
vt 0.262025 0.72037890625
vt 0.2926625 0.72037890625
vt 0.291459375 0.7265625
vt 0.262025 0.72037890625
vt 0.260821875 0.71419453125
vt 0.293865625 0.71419453125
vt 0.2926625 0.72037890625
vt 0.03785578125 0.6484375
vt 0.036704453125 0.6422439843750001
vt 0.03976125 0.6410941406249999
vt 0.04048796875 0.645001953125
vt 0.036704453125 0.6422439843750001
vt 0.035553046875 0.6360504687499999
vt 0.0390353125 0.637185625
vt 0.03976125 0.6410941406249999
vt 0.49535875 0.5739853125000001
vt 0.494297421875 0.5701546093750001
vt 0.49581859375 0.5692500781250001
vt 0.4968990625 0.5720560156250001
vt 0.494297421875 0.5701546093750001
vt 0.493243515625 0.566322578125
vt 0.494754453125 0.566442890625
vt 0.495808359375 0.569256171875
vt 0.43962109375 0.5703125
vt 0.4389103125 0.56738625
vt 0.452389921875 0.5673510937499999
vt 0.4520225 0.5702427343750001
vt 0.4389103125 0.56738625
vt 0.4382 0.56446046875
vt 0.45275703125 0.5644596875
vt 0.45238921875 0.5673510937499999
vt 0.305541484375 0.59375
vt 0.30525625 0.590846953125
vt 0.3243328125 0.5908414843750001
vt 0.323529765625 0.5937385937499999
vt 0.30525625 0.590846953125
vt 0.304971875 0.587943828125
vt 0.32513515625 0.587943828125
vt 0.3243328125 0.5908414843750001
vt 0.01899265625 0.49403054687500003
vt 0.019975859375 0.491189609375
vt 0.0215078125 0.492074609375
vt 0.020565859375 0.49592570312499995
vt 0.019975859375 0.491189609375
vt 0.02095 0.4883453125
vt 0.0224603125 0.488224296875
vt 0.021485078125 0.49206148437499997
vt 0.16012265625 0.67626328125
vt 0.1609328125 0.672375
vt 0.1652328125 0.6735125
vt 0.16394921875 0.67967421875
vt 0.1609328125 0.672375
vt 0.16174296875 0.6684875
vt 0.1665171875 0.66735
vt 0.1652328125 0.6735125
vt 0.29482890625 0.9296875
vt 0.29365546875 0.92350390625
vt 0.30859375 0.92350390625
vt 0.30859375 0.9296875
vt 0.46463125 0.75
vt 0.46394921875 0.74640703125
vt 0.4765625 0.74640703125
vt 0.4765625 0.75
vt 0.32120703125 0.918615625
vt 0.30859375 0.918615625
vt 0.30859375 0.9173203125
vt 0.3247046875 0.9173203125
vt 0.320525 0.92220859375
vt 0.32120703125 0.918615625
vt 0.3247046875 0.9173203125
vt 0.32353203125 0.92350390625
vt 0.30859375 0.92220859375
vt 0.320525 0.92220859375
vt 0.32353203125 0.92350390625
vt 0.30859375 0.92350390625
vt 0.29598046875 0.918615625
vt 0.2966625 0.92220859375
vt 0.29365546875 0.92350390625
vt 0.2924828125 0.9173203125
vt 0.30859375 0.918615625
vt 0.29598046875 0.918615625
vt 0.2924828125 0.9173203125
vt 0.30859375 0.9173203125
vt 0.2966625 0.92220859375
vt 0.30859375 0.92220859375
vt 0.30859375 0.92350390625
vt 0.29365546875 0.92350390625
vt 0.47176171875 0.981353125
vt 0.484375 0.981353125
vt 0.484375 0.984375
vt 0.47176171875 0.984375
vt 0.509728125 0.98008828125
vt 0.5106984375 0.9765625
vt 0.513709375 0.976815625
vt 0.5127390625 0.98034140625
vt 0.484375 0.9375
vt 0.49630625 0.9375
vt 0.49630625 0.940521875
vt 0.484375 0.940521875
vt 0.5127390625 0.9609375
vt 0.513709375 0.96446328125
vt 0.5106984375 0.96471640625
vt 0.509728125 0.961190625
vt 0.484375 0.981353125
vt 0.49698828125 0.981353125
vt 0.49698828125 0.984375
vt 0.484375 0.984375
vt 0.47244375 0.9375
vt 0.484375 0.9375
vt 0.484375 0.940521875
vt 0.47244375 0.940521875
vn 0 -0.9681476403781077 0.2503800040544414
vn 0.8808728033531449 0.4115230614296814 0.23390569515151782
vn 0 0.9681476403781077 -0.2503800040544414
vn 0 -0.9681476403781077 0.2503800040544414
vn 0.9039986817252283 0.26877064935604666 -0.3324886787302365
vn 0 0.9681476403781077 -0.2503800040544414
vn 0 -0.9681476403781077 0.2503800040544414
vn 0 0.017366006485005223 -0.999849199538992
vn 0 0.9681476403781077 -0.2503800040544414
vn 0 -0.9681476403781077 0.2503800040544414
vn -0.9023433570366144 0.27343744345278204 -0.33317927686142135
vn 0 0.9681476403781077 -0.2503800040544414
vn 0 -0.9681476403781077 0.2503800040544414
vn -0.8709682701817105 0.43766142084439696 0.22330864972307485
vn 0 0.9681476403781077 -0.2503800040544414
vn 0 -0.9681476403781077 0.2503800040544414
vn 0 0.4999251622381988 0.8660686070751616
vn 0 0.9681476403781077 -0.2503800040544414
vn 0.9423602646837781 0.08377713871027194 0.32394215930415654
vn 0.9639772416640328 -0.06659725822795554 -0.2575124904743884
vn 0 -0.2503800040544414 -0.9681476403781077
vn -0.9639770382730896 -0.06659744278927147 -0.2575132041200456
vn -0.9423606958606603 0.08377683465882017 0.3239409836244264
vn 0 0.2503800040544414 0.9681476403781077
vn 0 0.017366006485005223 -0.999849199538992
vn 0 0.9681476403781077 -0.2503800040544414
vn 0 -0.2503800040544414 -0.9681476403781077
vn 0 -0.9681476403781077 0.2503800040544414
vn 0.9078546028786982 0.338364800212772 0.24760711219375772
vn 0.9050962034995756 0.3302879617670229 0.2677885821360587
vn 0.9030059193556159 0.34815887827208253 0.2517254557827721
vn 0.9309552606290183 0.1874284571134905 -0.313357425588118
vn 0.9327725599630874 0.18240290238674456 -0.3109092031137069
vn 0.9327526799005816 0.18481398522664091 -0.3095419664648564
vn -0.9317676788832195 0.18432047760214432 -0.31278579591326533
vn -0.9317871774871819 0.1885010743583671 -0.3102257256196083
vn -0.9327767498982867 0.1823907302452496 -0.310903773489152
vn -0.9107252296085973 0.32765942677011434 0.25143360197684034
vn -0.9030054779924493 0.34816005175027775 0.25172541604071724
vn -0.9015316194942308 0.3436648595262348 0.2629357400182085
vn 0.5707393318481149 0.8211207779721872 0.004157290453826568
vn 0.7650441320411205 -0.47707942333329045 0.43255369592852166
vn 0.30484949318513954 -0.4859317017785501 -0.8191075434345395
vn 0.6206387321875432 0.6960191309001708 -0.36106084463648225
vn 0.243241667892274 0.029306708799842568 0.9695228763780183
vn 0.7627393593335918 -0.6444687326934603 -0.05374683529164538
vn -0.5837121451329057 0.7285482462987999 -0.3584655972883381
vn -0.7914269621812579 -0.6069982322271604 -0.07208681991632224
vn -0.2330720147367986 -0.050405851630140774 0.9711522465957486
vn -0.6027375702318694 0.7976183085192872 0.02263747657786913
vn -0.3184152782664016 -0.4192277222587584 -0.8502116368624129
vn -0.7421086227230088 -0.5126157414688904 0.4318563345355244
vn 0 0.017376853266393186 -0.9998490110864532
vn 0 0.01737039390708098 -0.9998491233258712
vn -0.9327765794585658 0.18239710728624517 -0.31090054369072456
vn -0.9327756955972484 0.18239379313847467 -0.310905139757497
vn -0.36665402204868064 0.053445239666157746 0.9288209916192423
vn -0.2440743149484623 0.029481891918122928 0.969308282659014
vn -0.904279850881699 0.26876875562643154 -0.33172474627074733
vn -0.9040025008079454 0.26879061617174765 -0.3324621530204502
vn -0.878843948370764 0.4123313689534498 0.24003365720052736
vn -0.8808790288527697 0.41152469934734076 0.23387936709868673
vn -0.4487919380015277 -0.4187414492320343 -0.7894563921331494
vn -0.3084393854147246 -0.48444475226357964 -0.8186442618923474
vn -0.903013830172991 0.34814796529778586 0.2517121704950245
vn -0.9029979120943914 0.3481801669756332 0.2517247347361596
vn 0 0.49993455768335626 0.8660631836268917
vn 0 0.49992401371992345 0.8660692700391592
vn 0.9030124602615137 0.3481566849063745 0.2517050245176921
vn 0.9030047936255138 0.3481618713083251 0.25172535441712834
vn 0.4232163828763133 -0.3797595176051227 -0.8225999039955054
vn 0.3158539065513363 -0.4201254280942398 -0.850723770906216
vn 0.8681661024141076 0.44050922994844605 0.2285590447768902
vn 0.8709711981404111 0.43764831045661895 0.2233229239561481
vn 0.9025140279739395 0.27368355226251195 -0.33251427417665536
vn 0.9023306247406879 0.2734405449344695 -0.3332112123578979
vn 0.3928700336353676 -0.003711714283615165 0.9195865156951912
vn 0.23192669581859912 -0.05071375840103025 0.9714103779945472
vn 0.932776241491519 0.1823990644445086 -0.3109004094540941
vn 0.9327739868511876 0.1823987572108838 -0.31090735408102793
vn 0 0.01737685326639313 -0.9998490110864532
vn 0 0.017370393907080926 -0.9998491233258712
vn 0 0.01735675834760697 -0.9998493601236453
vn -0.0000054323579401534216 0.01737142440711992 -0.9998491054076898
vn 0 0.01735675834760456 -0.9998493601236454
vn -0.000005432317678084227 0.017369363414150407 -0.9998491412133518
vn 0 0.01735675834760697 -0.9998493601236453
vn 0 0.01735675834760456 -0.9998493601236454
vn 0 0.9854821109578769 -0.16977929491550747
vn 0.981856886239448 -0.18687052339104593 0.032194136604859945
vn 0 -0.985482110957877 0.1697792949155074
vn -0.981856886239448 -0.18687052339104593 0.03219413660485988
vn 0 0.9854821109578769 -0.16977929491550747
vn 0 -0.985482110957877 0.1697792949155074
usemtl m_5a10c0e1-a80d-0a53-8c8d-6dd2cd0dfae8
f 16/1/1 15/2/1 14/3/1
f 37/4/2 71/5/2 69/6/2 36/7/2
f 2/8/3 4/9/3 13/10/3
f 17/11/4 16/12/4 14/13/4
f 40/14/5 73/15/5 71/16/5 37/17/5
f 4/18/6 6/19/6 13/20/6
f 14/21/7 23/22/7 17/23/7
f 7/24/8 51/25/8 50/26/8 21/27/8
f 13/28/9 22/29/9 8/30/9
f 19/31/10 18/32/10 14/33/10
f 43/34/11 57/35/11 55/36/11 42/37/11
f 8/38/12 10/39/12 13/40/12
f 20/41/13 19/42/13 14/43/13
f 46/44/14 59/45/14 57/46/14 43/47/14
f 10/48/15 12/49/15 13/50/15
f 15/51/16 20/52/16 14/53/16
f 1/54/17 65/55/17 63/56/17 11/57/17
f 12/58/18 2/59/18 13/60/18
f 15/61/19 16/62/19 3/63/19 1/64/19
f 16/65/20 17/66/20 5/67/20 3/68/20
f 7/69/21 21/70/21 23/71/21 18/72/21
f 18/73/22 19/74/22 9/75/22 7/76/22
f 19/77/23 20/78/23 11/79/23 9/80/23
f 20/81/24 15/82/24 1/83/24 11/84/24
f 21/85/25 50/86/25 77/87/25 5/88/25
f 6/89/26 22/90/26 13/91/26
f 17/92/27 23/93/27 21/94/27 5/95/27
f 18/96/28 23/97/28 14/98/28
f 25/99/29 24/100/29 1/101/29 3/102/29
f 27/103/30 26/104/30 4/105/30 2/106/30
f 24/107/31 67/108/31 65/109/31 1/110/31
f 28/111/32 25/112/32 3/113/32 5/114/32
f 5/115/33 77/116/33 75/117/33 28/118/33
f 26/119/34 29/120/34 6/121/34 4/122/34
f 31/123/35 30/124/35 7/125/35 9/126/35
f 33/127/36 32/128/36 10/129/36 8/130/36
f 30/131/37 53/132/37 51/133/37 7/134/37
f 34/135/38 31/136/38 9/137/38 11/138/38
f 11/139/39 63/140/39 61/141/39 34/142/39
f 32/143/40 35/144/40 12/145/40 10/146/40
f 37/147/41 36/148/41 24/149/41 25/150/41
f 39/151/42 38/152/42 26/153/42 27/154/42
f 36/155/43 69/156/43 67/157/43 24/158/43
f 40/159/44 37/160/44 25/161/44 28/162/44
f 28/163/45 75/164/45 73/165/45 40/166/45
f 38/167/46 41/168/46 29/169/46 26/170/46
f 43/171/47 42/172/47 30/173/47 31/174/47
f 45/175/48 44/176/48 32/177/48 33/178/48
f 42/179/49 55/180/49 53/181/49 30/182/49
f 46/183/50 43/184/50 31/185/50 34/186/50
f 34/187/51 61/188/51 59/189/51 46/190/51
f 44/191/52 47/192/52 35/193/52 32/194/52
f 22/195/53 48/196/53 49/197/53 8/198/53
f 84/199/54 85/200/54 86/201/54 87/202/54
f 8/203/55 49/204/55 52/205/55 33/206/55
f 49/207/56 51/208/56 53/209/56 52/210/56
f 33/211/57 52/212/57 54/213/57 45/214/57
f 52/215/58 53/216/58 55/217/58 54/218/58
f 45/219/59 54/220/59 56/221/59 44/222/59
f 54/223/60 55/224/60 57/225/60 56/226/60
f 44/227/61 56/228/61 58/229/61 47/230/61
f 56/231/62 57/232/62 59/233/62 58/234/62
f 47/235/63 58/236/63 60/237/63 35/238/63
f 58/239/64 59/240/64 61/241/64 60/242/64
f 35/243/65 60/244/65 62/245/65 12/246/65
f 60/247/66 61/248/66 63/249/66 62/250/66
f 12/251/67 62/252/67 64/253/67 2/254/67
f 62/255/68 63/256/68 65/257/68 64/258/68
f 2/259/69 64/260/69 66/261/69 27/262/69
f 64/263/70 65/264/70 67/265/70 66/266/70
f 27/267/71 66/268/71 68/269/71 39/270/71
f 66/271/72 67/272/72 69/273/72 68/274/72
f 39/275/73 68/276/73 70/277/73 38/278/73
f 68/279/74 69/280/74 71/281/74 70/282/74
f 38/283/75 70/284/75 72/285/75 41/286/75
f 70/287/76 71/288/76 73/289/76 72/290/76
f 41/291/77 72/292/77 74/293/77 29/294/77
f 72/295/78 73/296/78 75/297/78 74/298/78
f 29/299/79 74/300/79 76/301/79 6/302/79
f 74/303/80 75/304/80 77/305/80 76/306/80
f 6/307/81 76/308/81 48/309/81 22/310/81
f 88/311/82 89/312/82 85/313/82 84/314/82
f 80/315/83 79/316/83 50/317/83 51/318/83
f 81/319/84 80/320/84 51/321/84 49/322/84
f 78/323/85 81/324/85 49/325/85 48/326/85
f 83/327/86 82/328/86 76/329/86 77/330/86
f 79/331/87 83/332/87 77/333/87 50/334/87
f 82/335/88 78/336/88 48/337/88 76/338/88
f 86/339/89 85/340/89 79/341/89 80/342/89
f 87/343/90 86/344/90 80/345/90 81/346/90
f 84/347/91 87/348/91 81/349/91 78/350/91
f 89/351/92 88/352/92 82/353/92 83/354/92
f 85/355/93 89/356/93 83/357/93 79/358/93
f 88/359/94 84/360/94 78/361/94 82/362/94