# Made in Blockbench 5.1.5
mtllib Colossus Left Arm.mtl

o cuboid
v -0.825 1.0437500000000002 -0.1171875
v -0.825 0.9187500000000001 -0.1171875
v -0.85 0.99375 -0.1171875
v -0.725 0.99375 -0.1171875
v -0.725 1.0437500000000002 -0.1171875
v -0.725 0.9187500000000001 -0.1171875
v -0.85 0.99375 -0.0421875
v -0.825 0.9187500000000001 -0.0421875
v -0.825 1.0437500000000002 -0.0421875
v -0.625 0.88125 -0.1484375
v -0.725 0.88125 -0.1484375
v -0.625 0.88125 -0.0421875
v -0.68125 1.0437500000000002 -0.1171875
v -0.68125 0.99375 -0.1171875
v -0.68125 0.88125 -0.1484375
v -0.68125 0.88125 -0.0421875
v -0.725 0.8937499999999999 -0.1171875
v -0.8171875 0.8937499999999999 -0.0421875
v -0.8171875 0.8937499999999999 -0.1171875
v -0.825 1.0437500000000002 0.109375
v -0.825 0.9187500000000001 0.109375
v -0.625 1.0437500000000002 0.084375
v -0.625 1.0437500000000002 -0.1171875
v -0.625 0.9187500000000001 0.084375
v -0.625 0.9187500000000001 -0.1171875
v -0.625 0.99375 -0.1171875
v -0.85 0.99375 0.109375
v -0.625 0.99375 0.084375
v -0.725 1.0437500000000002 0.109375
v -0.725 0.99375 0.109375
v -0.725 0.9187500000000001 0.109375
v -0.725 0.9187500000000001 -0.0421875
v -0.625 0.9187500000000001 -0.0421875
v -0.625 0.99375 -0.0421875
v -0.625 1.0437500000000002 -0.0421875
v -0.725 1.0437500000000002 -0.0421875
v -0.725 0.88125 -0.0421875
v -0.68125 0.9187500000000001 -0.0421875
v -0.68125 0.9187500000000001 0.109375
v -0.68125 0.99375 0.109375
v -0.68125 1.0437500000000002 0.109375
v -0.68125 1.0437500000000002 -0.0421875
v -0.725 0.8937499999999999 -0.0421875
v -0.8171875 0.8937499999999999 0.109375
v -0.725 0.8937499999999999 0.109375
v -0.68125 0.8937499999999999 -0.0421875
v -0.68125 0.8937499999999999 0.109375
vt 0.34521484375 0.74546171875
vt 0.35458984375 0.74546171875
vt 0.35458984375 0.75534375
vt 0.34521484375 0.75534375
vt 0.334375 0.8140625
vt 0.31875 0.8140625
vt 0.31875 0.8046875
vt 0.33125 0.8046875
vt 0.33125 0.8203125
vt 0.31875 0.8203125
vt 0.31875 0.8140625
vt 0.334375 0.8140625
vt 0.39990234375 0.6336375000000001
vt 0.40927734375 0.6336375000000001
vt 0.40927734375 0.640625
vt 0.39990234375 0.640625
vt 0.1234375 0.56015625
vt 0.11640625 0.56015625
vt 0.11640625 0.546875
vt 0.1234375 0.546875
vt 0.407421875 0.775
vt 0.411328125 0.7796875
vt 0.411328125 0.7890625
vt 0.31875 0.8203125
vt 0.31328125 0.8203125
vt 0.31328125 0.8140625
vt 0.31875 0.8140625
vt 0.44375 0.96875
vt 0.43828125 0.96875
vt 0.43828125 0.9541546875
vt 0.44375 0.9541546875
vt 0.34521484375 0.7421875
vt 0.35458984375 0.7421875
vt 0.35458984375 0.74546171875
vt 0.34521484375 0.74546171875
vt 0.31875 0.8015625
vt 0.3302734375 0.8015625
vt 0.33125 0.8046875
vt 0.31875 0.8046875
vt 0.26875 0.96875
vt 0.26875 0.959375
vt 0.28125 0.959375
vt 0.28125 0.96875
vt 0.11630859375 0.6328125
vt 0.11630859375 0.6421875
vt 0.10478515625 0.6421875
vt 0.10478515625 0.6328125
vt 0.004296875 0.6328125
vt 0.016796875 0.6328125
vt 0.016796875 0.6421875
vt 0.001171875 0.6421875
vt 0.32314453125 0.7828125
vt 0.31376953125 0.7828125
vt 0.31376953125 0.7734375
vt 0.32314453125 0.7734375
vt 0.001171875 0.6421875
vt 0.016796875 0.6421875
vt 0.016796875 0.6484375
vt 0.004296875 0.6484375
vt 0.32314453125 0.7890625
vt 0.31376953125 0.7890625
vt 0.31376953125 0.7828125
vt 0.32314453125 0.7828125
vt 0.30625 0.8140625
vt 0.31328125 0.8140625
vt 0.31328125 0.8203125
vt 0.30625 0.8203125
vt 0.29375 0.96875
vt 0.28671875 0.96875
vt 0.28671875 0.959375
vt 0.29375 0.959375
vt 0.0078125 0.5390625
vt 0.00011796875 0.5390625
vt 0.00011796875 0.5328125
vt 0.0078125 0.5328125
vt 0.0078125 0.5328125
vt 0.00011796875 0.5328125
vt 0.00011796875 0.5234375
vt 0.0078125 0.5234375
vt 0.43125 0.9541546875
vt 0.43828125 0.9541546875
vt 0.43828125 0.96875
vt 0.43125 0.96875
vt 0.37353515625 0.75534375
vt 0.35458984375 0.75534375
vt 0.35458984375 0.74546171875
vt 0.37353515625 0.74546171875
vt 0.10478515625 0.6611328125
vt 0.10478515625 0.6421875
vt 0.11630859375 0.6421875
vt 0.11630859375 0.6611328125
vt 0.3515625 0.54375
vt 0.34375 0.546875
vt 0.34375 0.53125
vt 0.3515625 0.53125
vt 0.29794921875 0.7734375
vt 0.31376953125 0.7734375
vt 0.31376953125 0.7828125
vt 0.29794921875 0.7828125
vt 0.29794921875 0.7828125
vt 0.31376953125 0.7828125
vt 0.31376953125 0.7890625
vt 0.29794921875 0.7890625
vt 0.29375 0.959375
vt 0.28671875 0.959375
vt 0.28671875 0.9404296875
vt 0.29375 0.9435546875
vt 0.28125 0.9404296875
vt 0.28125 0.959375
vt 0.26875 0.959375
vt 0.26875 0.9404296875
vt 0.42822265625 0.640625
vt 0.40927734375 0.640625
vt 0.40927734375 0.6336375000000001
vt 0.42822265625 0.6336375000000001
vt 0.32705078125 0.76875
vt 0.32314453125 0.7828125
vt 0.32314453125 0.7734375
vt 0.31376953125 0.76875
vt 0.32705078125 0.76875
vt 0.32314453125 0.7734375
vt 0.31376953125 0.7734375
vt 0.50625 0.59375
vt 0.49921875 0.59375
vt 0.49921875 0.5890625
vt 0.50625 0.5890625
vt 0.407421875 0.775
vt 0.420703125 0.775
vt 0.420703125 0.7796875
vt 0.411328125 0.7796875
vt 0.11630859375 0.6421875
vt 0.12177734375 0.6421875
vt 0.12177734375 0.6611328125
vt 0.11630859375 0.6611328125
vt 0.016796875 0.6328125
vt 0.022265625 0.6328125
vt 0.022265625 0.6421875
vt 0.016796875 0.6421875
vt 0.016796875 0.6421875
vt 0.022265625 0.6421875
vt 0.022265625 0.6484375
vt 0.016796875 0.6484375
vt 0.28125 0.9404296875
vt 0.28671875 0.9404296875
vt 0.28671875 0.959375
vt 0.28125 0.959375
vt 0.28125 0.959375
vt 0.28671875 0.959375
vt 0.28671875 0.96875
vt 0.28125 0.96875
vt 0.1109375 0.546875
vt 0.11640625 0.546875
vt 0.11640625 0.56015625
vt 0.1109375 0.56015625
vt 0.49375 0.5890625
vt 0.49921875 0.5890625
vt 0.49921875 0.59375
vt 0.49375 0.59375
vt 0.46875 0.6640625
vt 0.4765625 0.6640625
vt 0.4765625 0.671875
vt 0.46875 0.671875
vt 0.35458984375 0.7421875
vt 0.37353515625 0.7421875
vt 0.37353515625 0.74546171875
vt 0.35458984375 0.74546171875
vt 0.0052734375 0.6296875
vt 0.016796875 0.6296875
vt 0.016796875 0.6328125
vt 0.004296875 0.6328125
vt 0.46875 0.6484375
vt 0.4765625 0.6484375
vt 0.4765625 0.65625
vt 0.46875 0.65625
vt 0.453125 0.953125
vt 0.46875 0.953125
vt 0.46875 0.9609375
vt 0.453125 0.9609375
vt 0.016796875 0.6296875
vt 0.022265625 0.6296875
vt 0.022265625 0.6328125
vt 0.016796875 0.6328125
vn -0.9486832980505137 -0.3162277660168384 0
vn 0 0 -1
vn 0 0 -1
vn -0.8944271909999161 0.44721359549995804 0
vn 0 -1 0
vn -1 0 0
vn 0 0 -1
vn 0 0.26764386378609456 -0.9635179096299407
vn -0.9544799780350304 -0.2982749931359454 0
vn 0 0 -1
vn 0 1 0
vn 0 -1 0
vn 0 0 1
vn 1 0 0
vn 0 0 1
vn 1 0 0
vn 0 0 -1
vn 0 1 0
vn 0.4061384660534474 0 0.9138115486202573
vn 0.40613846605344744 0 0.9138115486202574
vn 0 0.26764386378609456 -0.9635179096299407
vn -0.9486832980505137 -0.3162277660168384 0
vn 0 -1 0
vn 0 -1 0
vn 1 0 0
vn 1 0 0
vn 0 1 0
vn 0 1 0
vn -0.894427190999916 0.447213595499958 0
vn 1 0 0
vn 1 0 0
vn 0 0 1
vn -1 0 0
vn 0 -1 0
vn 0 0 1
vn 0 0 1
vn 0 1 0
vn 0 1 0
vn 0 -1 0
vn 0 0 1
vn 1 0 0
vn -0.9544799780350303 -0.29827499313594535 0
vn 0 0 1
vn 0 0 -1
vn 1 0 0
vn 0 0 1
usemtl m_5a10c0e1-a80d-0a53-8c8d-6dd2cd0dfae8
f 2/1/1 8/2/1 7/3/1 3/4/1
f 3/5/2 4/6/2 6/7/2 2/8/2
f 1/9/3 5/10/3 4/11/3 3/12/3
f 3/13/4 7/14/4 9/15/4 1/16/4
f 12/17/5 16/18/5 15/19/5 10/20/5
f 11/21/6 6/22/6 4/23/6
f 5/24/7 13/25/7 14/26/7 4/27/7
f 4/28/8 14/29/8 15/30/8 11/31/8
f 19/32/9 18/33/9 8/34/9 2/35/9
f 17/36/10 19/37/10 2/38/10 6/39/10
f 1/40/11 9/41/11 36/42/11 5/43/11
f 17/44/12 43/45/12 18/46/12 19/47/12
f 21/48/13 31/49/13 30/50/13 27/51/13
f 26/52/14 34/53/14 33/54/14 25/55/14
f 27/56/15 30/57/15 29/58/15 20/59/15
f 23/60/16 35/61/16 34/62/16 26/63/16
f 26/64/17 14/65/17 13/66/17 23/67/17
f 23/68/18 13/69/18 42/70/18 35/71/18
f 22/72/19 41/73/19 40/74/19 28/75/19
f 28/76/20 40/77/20 39/78/20 24/79/20
f 10/80/21 15/81/21 14/82/21 26/83/21
f 27/84/22 7/85/22 8/86/22 21/87/22
f 44/88/23 18/89/23 43/90/23 45/91/23
f 24/92/24 39/93/24 38/94/24 33/95/24
f 24/96/25 33/97/25 34/98/25 28/99/25
f 28/100/26 34/101/26 35/102/26 22/103/26
f 35/104/27 42/105/27 41/106/27 22/107/27
f 29/108/28 36/109/28 9/110/28 20/111/28
f 20/112/29 9/113/29 7/114/29 27/115/29
f 10/116/30 26/117/30 25/118/30
f 12/119/31 10/120/31 25/121/31 33/122/31
f 33/123/32 38/124/32 16/125/32 12/126/32
f 11/127/33 37/128/33 32/129/33 6/130/33
f 43/131/34 46/132/34 47/133/34 45/134/34
f 31/135/35 39/136/35 40/137/35 30/138/35
f 30/139/36 40/140/36 41/141/36 29/142/36
f 29/143/37 41/144/37 42/145/37 36/146/37
f 36/147/38 42/148/38 13/149/38 5/150/38
f 11/151/39 15/152/39 16/153/39 37/154/39
f 37/155/40 16/156/40 38/157/40 32/158/40
f 43/159/41 17/160/41 6/161/41 32/162/41
f 18/163/42 44/164/42 21/165/42 8/166/42
f 44/167/43 45/168/43 31/169/43 21/170/43
f 46/171/44 43/172/44 32/173/44 38/174/44
f 47/175/45 46/176/45 38/177/45 39/178/45
f 45/179/46 47/180/46 39/181/46 31/182/46
o Forearm
v -0.6187500000000002 1.184375 -0.14250562500000016
v -0.6187500000000002 1.184375 0.13625562499999982
v -0.6187500000000001 0.9624999999999999 -0.14250562500000014
v -0.6187500000000001 0.9624999999999999 0.13625562499999985
v -0.3375000000000002 1.184375 -0.14250562500000016
v -0.3375000000000002 1.184375 0.13625562499999982
v -0.3375000000000002 0.9624999999999999 -0.14250562500000014
v -0.3375000000000002 0.9624999999999999 0.13625562499999985
v -0.6187500000000001 1.0484375 -0.14250562500000016
v -0.3375000000000002 1.0484375 -0.14250562500000016
v -0.3375000000000002 1.0484375 0.13625562499999982
v -0.6187500000000001 1.0484375 0.13625562499999982
v -0.8500000000000002 1.184375 -0.14250562500000016
v -0.8500000000000001 1.0484375 0.13625562499999982
v -0.8500000000000001 1.0484375 -0.14250562500000016
v -0.8500000000000002 1.184375 0.13625562499999982
v -0.8812500000000002 1.165625 -0.12508312500000016
v -0.8812500000000001 1.0671875 0.11883312499999983
v -0.8812500000000001 1.0671875 -0.12508312500000016
v -0.8812500000000002 1.165625 0.11883312499999982
v -0.5816250000000002 1.184375 -0.14250562500000016
v -0.5816250000000002 1.184375 0.13625562499999982
v -0.37462500000000015 1.184375 -0.14250562500000016
v -0.37462500000000015 1.184375 0.13625562499999982
v -0.5816250000000001 1.07015625 -0.14250562500000016
v -0.37462500000000015 1.07015625 -0.14250562500000016
v -0.37462500000000015 1.07015625 0.13625562499999982
v -0.5816250000000001 1.07015625 0.13625562499999982
v -0.5816250000000002 1.175 0.12968749999999984
v -0.37462500000000015 1.07015625 0.12968749999999984
v -0.5816250000000001 1.07015625 0.12968749999999984
v -0.37462500000000015 1.175 0.12968749999999984
v -0.5816250000000002 1.175 -0.13593750000000016
v -0.37462500000000015 1.175 -0.13593750000000016
v -0.5816250000000001 1.07015625 -0.13593750000000016
v -0.37462500000000015 1.07015625 -0.13593750000000016
v -0.8169643750000002 1.184375 -0.14250562500000016
v -0.8169643750000001 1.0484375 -0.14250562500000016
v -0.7839287500000002 1.184375 -0.14250562500000016
v -0.7839287500000001 1.0484375 -0.14250562500000016
v -0.7508931250000003 1.184375 -0.14250562500000016
v -0.7508931250000002 1.0484375 -0.14250562500000016
v -0.7178568750000002 1.184375 -0.14250562500000016
v -0.7178568750000001 1.0484375 -0.14250562500000016
v -0.6848212500000003 1.184375 -0.14250562500000016
v -0.6848212500000002 1.0484375 -0.14250562500000016
v -0.6517856250000003 1.184375 -0.14250562500000016
v -0.6517856250000001 1.0484375 -0.14250562500000016
v -0.8169643750000001 1.0484375 0.13625562499999982
v -0.7839287500000001 1.0484375 0.13625562499999982
v -0.7508931250000002 1.0484375 0.13625562499999982
v -0.7178568750000001 1.0484375 0.13625562499999982
v -0.6848212500000002 1.0484375 0.13625562499999982
v -0.6517856250000001 1.0484375 0.13625562499999982
v -0.8169643750000002 1.184375 0.13625562499999982
v -0.7839287500000002 1.184375 0.13625562499999982
v -0.7508931250000003 1.184375 0.13625562499999982
v -0.7178568750000002 1.184375 0.13625562499999982
v -0.6848212500000003 1.184375 0.13625562499999982
v -0.6517856250000003 1.184375 0.13625562499999982
v -0.7839287500000002 1.184375 -0.17375562500000016
v -0.7839287500000001 1.0484375 -0.17375562500000016
v -0.7178568750000002 1.184375 -0.17375562500000016
v -0.7178568750000001 1.0484375 -0.17375562500000016
v -0.6517856250000003 1.184375 -0.17375562500000016
v -0.6517856250000001 1.0484375 -0.17375562500000016
v -0.8500000000000002 1.184375 -0.17375562500000016
v -0.8500000000000001 1.0484375 -0.17375562500000016
v -0.8169643750000002 1.184375 -0.17375562500000016
v -0.8169643750000001 1.0484375 -0.17375562500000016
v -0.7508931250000003 1.184375 -0.17375562500000016
v -0.7508931250000002 1.0484375 -0.17375562500000016
v -0.6848212500000003 1.184375 -0.17375562500000016
v -0.6848212500000002 1.0484375 -0.17375562500000016
vt 0.203125 0.6796875
vt 0.203125 0.6640625
vt 0.234375 0.6640625
vt 0.234375 0.6796875
vt 0.08804609375 0.78125
vt 0.08804609375 0.7642578125
vt 0.12289140625 0.7642578125
vt 0.12289140625 0.78125
vt 0.2578125 0.890625
vt 0.28125 0.890625
vt 0.28125 0.921875
vt 0.2578125 0.921875
vt 0.0859375 0.8046875
vt 0.0859375 0.8359375
vt 0.046875 0.8359375
vt 0.046875 0.8046875
vt 0.3359375 0.6484375
vt 0.3359375 0.6328125
vt 0.359375 0.6328125
vt 0.359375 0.6484375
vt 0.0625 0.6328125
vt 0.0625 0.6171875
vt 0.0859375 0.6171875
vt 0.0859375 0.6328125
vt 0.248046875 0.886328125
vt 0.248046875 0.8970703125
vt 0.212890625 0.8970703125
vt 0.212890625 0.886328125
vt 0.12289140625 0.753515625
vt 0.12289140625 0.7642578125
vt 0.08804609375 0.7642578125
vt 0.08804609375 0.753515625
vt 0.1296875 0.972265625
vt 0.1296875 0.9830078125
vt 0.09453125 0.9830078125
vt 0.09453125 0.972265625
vt 0.4296875 0.921875
vt 0.4296875 0.9296875
vt 0.3984375 0.9296875
vt 0.3984375 0.921875
vt 0.4375 0.625
vt 0.4453125 0.625
vt 0.4453125 0.640625
vt 0.4375 0.640625
vt 0.188671875 0.8359375
vt 0.1928015625 0.8359375
vt 0.1928015625 0.8707828125
vt 0.188671875 0.8707828125
vt 0.09453125 1
vt 0.0904015625 1
vt 0.0904015625 0.9830078125
vt 0.09453125 0.9830078125
vt 0.0073984375 0.8010921875
vt 0.011528125 0.8010921875
vt 0.011528125 0.8359375
vt 0.0073984375 0.8359375
vt 0.203125 0.5478515625
vt 0.203125 0.56015625
vt 0.1953125 0.5625
vt 0.1953125 0.5455078125
vt 0.03477578125 0.6171875
vt 0.00428671875 0.6171875
vt 0.00210859375 0.609375
vt 0.03695390625 0.609375
vt 0.2109375 0.56015625
vt 0.2109375 0.5478515625
vt 0.21875 0.5455078125
vt 0.21875 0.5625
vt 0.38709921875 0.9921875
vt 0.41758828125 0.9921875
vt 0.41976640625 1
vt 0.38492109375 1
vt 0.0027578125 0.8359375
vt 0.0027578125 0.8010921875
vt 0.0073984375 0.8010921875
vt 0.0073984375 0.8359375
vt 0.265625 0.578125
vt 0.265625 0.609375
vt 0.2578125 0.609375
vt 0.2578125 0.578125
vt 0.21753125 0.89978515625
vt 0.21753125 0.9140625
vt 0.212890625 0.9140625
vt 0.212890625 0.8970703125
vt 0.24340625 0.89978515625
vt 0.21753125 0.89978515625
vt 0.212890625 0.8970703125
vt 0.248046875 0.8970703125
vt 0.24340625 0.9140625
vt 0.24340625 0.89978515625
vt 0.248046875 0.8970703125
vt 0.248046875 0.9140625
vt 0.099171875 0.98572265625
vt 0.099171875 1
vt 0.09453125 1
vt 0.09453125 0.9830078125
vt 0.125046875 0.98572265625
vt 0.099171875 0.98572265625
vt 0.09453125 0.9830078125
vt 0.1296875 0.9830078125
vt 0.125046875 1
vt 0.125046875 0.98572265625
vt 0.1296875 0.9830078125
vt 0.1296875 1
vt 0.3388671875 0.98572265625
vt 0.3388671875 0.998828125
vt 0.33804609375 1
vt 0.33804609375 0.98572265625
vt 0.125 0.5703125
vt 0.1484375 0.5703125
vt 0.1484375 0.578125
vt 0.125 0.578125
vt 0.3720703125 0.959765625
vt 0.3720703125 0.94666015625
vt 0.37289140625 0.94666015625
vt 0.37289140625 0.9609375
vt 0.3388671875 0.998828125
vt 0.3720703125 0.998828125
vt 0.37289140625 1
vt 0.33804609375 1
vt 0.3388671875 0.959765625
vt 0.3720703125 0.959765625
vt 0.37289140625 0.9609375
vt 0.33804609375 0.9609375
vt 0.3388671875 0.94666015625
vt 0.3388671875 0.959765625
vt 0.33804609375 0.9609375
vt 0.33804609375 0.94666015625
vt 0.15625 0.5703125
vt 0.1796875 0.5703125
vt 0.1796875 0.578125
vt 0.15625 0.578125
vt 0.3720703125 0.998828125
vt 0.3720703125 0.98572265625
vt 0.37289140625 0.98572265625
vt 0.37289140625 1
vt 0.375 0.5625
vt 0.3671875 0.5625
vt 0.3671875 0.546875
vt 0.375 0.546875
vt 0.4453125 0.6171875
vt 0.4375 0.6171875
vt 0.4375 0.6015625
vt 0.4453125 0.6015625
vt 0.4453125 0.59375
vt 0.4375 0.59375
vt 0.4375 0.578125
vt 0.4453125 0.578125
vt 0.4609375 0.984375
vt 0.453125 0.984375
vt 0.453125 0.96875
vt 0.4609375 0.96875
vt 0.4609375 0.9140625
vt 0.453125 0.9140625
vt 0.453125 0.8984375
vt 0.4609375 0.8984375
vt 0.1015625 0.546875
vt 0.09375 0.546875
vt 0.09375 0.53125
vt 0.1015625 0.53125
vt 0.217578125 0.8707828125
vt 0.2134484375 0.8707828125
vt 0.2134484375 0.8359375
vt 0.217578125 0.8359375
vt 0.2134484375 0.8707828125
vt 0.20931953125 0.8707828125
vt 0.20931953125 0.8359375
vt 0.2134484375 0.8359375
vt 0.20931953125 0.8707828125
vt 0.20518984375 0.8707828125
vt 0.20518984375 0.8359375
vt 0.20931953125 0.8359375
vt 0.20518984375 0.8707828125
vt 0.20106015625 0.8707828125
vt 0.20106015625 0.8359375
vt 0.20518984375 0.8359375
vt 0.20106015625 0.8707828125
vt 0.19693046875 0.8707828125
vt 0.19693046875 0.8359375
vt 0.20106015625 0.8359375
vt 0.19693046875 0.8707828125
vt 0.1928015625 0.8707828125
vt 0.1928015625 0.8359375
vt 0.19693046875 0.8359375
vt 0.065625 0.9830078125
vt 0.0697546875 0.9830078125
vt 0.0697546875 1
vt 0.065625 1
vt 0.0697546875 0.9830078125
vt 0.07388359375 0.9830078125
vt 0.07388359375 1
vt 0.0697546875 1
vt 0.07388359375 0.9830078125
vt 0.07801328125 0.9830078125
vt 0.07801328125 1
vt 0.07388359375 1
vt 0.07801328125 0.9830078125
vt 0.08214296875 0.9830078125
vt 0.08214296875 1
vt 0.07801328125 1
vt 0.08214296875 0.9830078125
vt 0.08627265625 0.9830078125
vt 0.08627265625 1
vt 0.08214296875 1
vt 0.08627265625 0.9830078125
vt 0.0904015625 0.9830078125
vt 0.0904015625 1
vt 0.08627265625 1
vt 0.0363046875 0.8359375
vt 0.032175 0.8359375
vt 0.032175 0.8010921875
vt 0.0363046875 0.8010921875
vt 0.032175 0.8359375
vt 0.02804609375 0.8359375
vt 0.02804609375 0.8010921875
vt 0.032175 0.8010921875
vt 0.02804609375 0.8359375
vt 0.02391640625 0.8359375
vt 0.02391640625 0.8010921875
vt 0.02804609375 0.8010921875
vt 0.02391640625 0.8359375
vt 0.01978671875 0.8359375
vt 0.01978671875 0.8010921875
vt 0.02391640625 0.8010921875
vt 0.01978671875 0.8359375
vt 0.01565703125 0.8359375
vt 0.01565703125 0.8010921875
vt 0.01978671875 0.8010921875
vt 0.01565703125 0.8359375
vt 0.011528125 0.8359375
vt 0.011528125 0.8010921875
vt 0.01565703125 0.8010921875
vt 0.1928015625 0.8746890625
vt 0.188671875 0.8707828125
vt 0.1928015625 0.8707828125
vt 0.234375 0.8359375
vt 0.234375 0.8203125
vt 0.2421875 0.8203125
vt 0.2421875 0.8359375
vt 0.011528125 0.7971859375
vt 0.011528125 0.8010921875
vt 0.0073984375 0.8010921875
vt 0.01978671875 0.7971859375
vt 0.01978671875 0.8010921875
vt 0.01565703125 0.8010921875
vt 0.20106015625 0.8746890625
vt 0.19693046875 0.8707828125
vt 0.20106015625 0.8707828125
vt 0.203125 0.7421875
vt 0.203125 0.7265625
vt 0.2109375 0.7265625
vt 0.2109375 0.7421875
vt 0.02804609375 0.7971859375
vt 0.02804609375 0.8010921875
vt 0.02391640625 0.8010921875
vt 0.20931953125 0.8746890625
vt 0.20518984375 0.8707828125
vt 0.20931953125 0.8707828125
vt 0.2421875 0.71875
vt 0.2421875 0.703125
vt 0.25 0.703125
vt 0.25 0.71875
vt 0.0363046875 0.7971859375
vt 0.0363046875 0.8010921875
vt 0.032175 0.8010921875
vt 0.217578125 0.8746890625
vt 0.2134484375 0.8707828125
vt 0.217578125 0.8707828125
vt 0.4375 0.734375
vt 0.4375 0.71875
vt 0.4453125 0.71875
vt 0.4453125 0.734375
vt 0.032175 0.7971859375
vt 0.032175 0.8010921875
vt 0.02804609375 0.8010921875
vt 0.2134484375 0.8746890625
vt 0.20931953125 0.8707828125
vt 0.2134484375 0.8707828125
vt 0.4375 0.7109375
vt 0.4375 0.6953125
vt 0.4453125 0.6953125
vt 0.4453125 0.7109375
vt 0.02391640625 0.7971859375
vt 0.02391640625 0.8010921875
vt 0.01978671875 0.8010921875
vt 0.20518984375 0.8746890625
vt 0.20106015625 0.8707828125
vt 0.20518984375 0.8707828125
vt 0.4375 0.6875
vt 0.4375 0.671875
vt 0.4453125 0.671875
vt 0.4453125 0.6875
vt 0.01565703125 0.7971859375
vt 0.01565703125 0.8010921875
vt 0.011528125 0.8010921875
vt 0.19693046875 0.8746890625
vt 0.1928015625 0.8707828125
vt 0.19693046875 0.8707828125
vt 0.4375 0.6640625
vt 0.4375 0.6484375
vt 0.4453125 0.6484375
vt 0.4453125 0.6640625
vn -1 -1.2246467991473532e-16 1.4997597826618576e-32
vn 1 1.2246467991473532e-16 -1.4997597826618576e-32
vn -1.2246467991473532e-16 1 -1.2246467991473532e-16
vn 1.2246467991473532e-16 -1 1.2246467991473532e-16
vn 0 -1.2246467991473532e-16 -1
vn 0 1.2246467991473532e-16 1
vn 0 -1.2246467991473532e-16 -1
vn 1 1.2246467991473532e-16 -1.4997597826618576e-32
vn 0 1.2246467991473532e-16 1
vn -1 -1.2246467991473532e-16 1.4997597826618576e-32
vn 0.6872008340771092 -4.80877841662193e-18 -0.7264674897362755
vn 1.2246467991473532e-16 -1 1.2246467991473532e-16
vn 0 1.2246467991473532e-16 1
vn -1.2246467991473532e-16 1 -1.2246467991473532e-16
vn -0.4869535155344896 -1.6659867301768862e-16 -0.8734278869538123
vn -0.5144957554275272 -0.8574929257125437 1.0501259667653657e-16
vn -0.48695351553448935 4.7329460191115947e-17 0.8734278869538126
vn -0.5144957554275276 0.8574929257125437 -1.0501259667653657e-16
vn -1.2246467991473532e-16 1 -1.2246467991473532e-16
vn -1.2246467991473532e-16 1 -1.2246467991473532e-16
vn 0 -1.2246467991473532e-16 -1
vn 0 -1.2246467991473532e-16 -1
vn 0 -1.2246467991473532e-16 -1
vn 0 1.2246467991473532e-16 1
vn 0 1.2246467991473532e-16 1
vn 0 1.2246467991473532e-16 1
vn 1 1.2246467991473532e-16 -1.4997597826618576e-32
vn -1.2246467991473532e-16 1 -1.2246467991473532e-16
vn -1 -1.2246467991473532e-16 1.4997597826618576e-32
vn 1 1.2246467991473532e-16 -1.4997597826618576e-32
vn -1 -1.2246467991473532e-16 1.4997597826618576e-32
vn -1 -1.2246467991473532e-16 1.4997597826618576e-32
vn -1.2246467991473532e-16 1 -1.2246467991473532e-16
vn 1 1.2246467991473532e-16 -1.4997597826618576e-32
vn 0.6872008340771092 -4.80877841662193e-18 -0.7264674897362755
vn 0.6872008340771092 -4.80877841662193e-18 -0.7264674897362755
vn 0.6872008340771104 -4.808778416621634e-18 -0.7264674897362743
vn 0.6871939727023699 -4.810413543046148e-18 -0.7264739801820396
vn 0.6872008340771104 -4.808778416621634e-18 -0.7264674897362743
vn 0.6872008340771092 -4.80877841662193e-18 -0.7264674897362755
vn 1.2246467991473532e-16 -1 1.2246467991473532e-16
vn 1.2246467991473532e-16 -1 1.2246467991473532e-16
vn 1.2246467991473532e-16 -1 1.2246467991473532e-16
vn 1.2246467991473532e-16 -1 1.2246467991473532e-16
vn 1.2246467991473532e-16 -1 1.2246467991473532e-16
vn 1.2246467991473532e-16 -1 1.2246467991473532e-16
vn 0 1.2246467991473532e-16 1
vn 0 1.2246467991473532e-16 1
vn 0 1.2246467991473532e-16 1
vn 0 1.2246467991473532e-16 1
vn 0 1.2246467991473532e-16 1
vn 0 1.2246467991473532e-16 1
vn -1.2246467991473532e-16 1 -1.2246467991473532e-16
vn -1.2246467991473532e-16 1 -1.2246467991473532e-16
vn -1.2246467991473532e-16 1 -1.2246467991473532e-16
vn -1.2246467991473532e-16 1 -1.2246467991473532e-16
vn -1.2246467991473532e-16 1 -1.2246467991473532e-16
vn -1.2246467991473532e-16 1 -1.2246467991473532e-16
vn 1.2246467991473532e-16 -1 1.2246467991473532e-16
vn -1 -1.2246467991473532e-16 1.4997597826618576e-32
vn -1.2246467991473532e-16 1 -1.2246467991473532e-16
vn -1.2246467991473532e-16 1 -1.2246467991473532e-16
vn 1.2246467991473532e-16 -1 1.2246467991473532e-16
vn -1 -1.2246467991473532e-16 1.4997597826618576e-32
vn -1.2246467991473532e-16 1 -1.2246467991473532e-16
vn 1.2246467991473532e-16 -1 1.2246467991473532e-16
vn -1 -1.2246467991473532e-16 1.4997597826618576e-32
vn -1.2246467991473532e-16 1 -1.2246467991473532e-16
vn 1.2246467991473532e-16 -1 1.2246467991473532e-16
vn -1 -1.2246467991473532e-16 1.4997597826618576e-32
vn -1.2246467991473532e-16 1 -1.2246467991473532e-16
vn 1.2246467991473532e-16 -1 1.2246467991473532e-16
vn -1 -1.2246467991473532e-16 1.4997597826618576e-32
vn -1.2246467991473532e-16 1 -1.2246467991473532e-16
vn 1.2246467991473532e-16 -1 1.2246467991473532e-16
vn -1 -1.2246467991473532e-16 1.4997597826618576e-32
vn -1.2246467991473532e-16 1 -1.2246467991473532e-16
vn 1.2246467991473532e-16 -1 1.2246467991473532e-16
vn -1 -1.2246467991473532e-16 1.4997597826618576e-32
usemtl m_5a10c0e1-a80d-0a53-8c8d-6dd2cd0dfae8
f 64/183/47 66/184/47 65/185/47 67/186/47
f 53/187/48 58/188/48 57/189/48 52/190/48
f 81/191/49 80/192/49 76/193/49 79/194/49
f 51/195/50 50/196/50 54/197/50 55/198/50
f 81/199/51 83/200/51 82/201/51 80/202/51
f 76/203/52 78/204/52 77/205/52 79/206/52
f 50/207/53 56/208/53 57/209/53 54/210/53
f 54/211/54 57/212/54 58/213/54 55/214/54
f 55/215/55 58/216/55 59/217/55 51/218/55
f 51/219/56 59/220/56 56/221/56 50/222/56
f 56/223/57 113/224/57 112/225/57 48/226/57
f 59/227/58 101/228/58 95/229/58 56/230/58
f 49/231/59 107/232/59 101/233/59 59/234/59
f 48/235/60 94/236/60 107/237/60 49/238/60
f 66/239/61 64/240/61 60/241/61 62/242/61
f 65/243/62 66/244/62 62/245/62 61/246/62
f 67/247/63 65/248/63 61/249/63 63/250/63
f 64/251/64 67/252/64 63/253/64 60/254/64
f 69/255/65 68/256/65 48/257/65 49/258/65
f 70/259/66 71/260/66 53/261/66 52/262/66
f 73/263/67 70/264/67 52/265/67 57/266/67
f 72/267/68 73/268/68 57/269/68 56/270/68
f 68/271/69 72/272/69 56/273/69 48/274/69
f 75/275/70 69/276/70 49/277/70 59/278/70
f 74/279/71 75/280/71 59/281/71 58/282/71
f 71/283/72 74/284/72 58/285/72 53/286/72
f 78/287/73 76/288/73 69/289/73 75/290/73
f 77/291/74 78/292/74 75/293/74 74/294/74
f 79/295/75 77/296/75 74/297/75 71/298/75
f 76/299/76 80/300/76 68/301/76 69/302/76
f 81/303/77 79/304/77 71/305/77 70/306/77
f 83/307/78 81/308/78 70/309/78 73/310/78
f 82/311/79 83/312/79 73/313/79 72/314/79
f 80/315/80 82/316/80 72/317/80 68/318/80
f 114/319/81 84/320/81 85/321/81 115/322/81
f 116/323/82 86/324/82 87/325/82 117/326/82
f 108/327/83 88/328/83 89/329/83 109/330/83
f 118/331/84 90/332/84 91/333/84 119/334/84
f 110/335/85 92/336/85 93/337/85 111/338/85
f 120/339/86 94/340/86 95/341/86 121/342/86
f 62/343/87 85/344/87 96/345/87 61/346/87
f 85/347/88 87/348/88 97/349/88 96/350/88
f 87/351/89 89/352/89 98/353/89 97/354/89
f 89/355/90 91/356/90 99/357/90 98/358/90
f 91/359/91 93/360/91 100/361/91 99/362/91
f 93/363/92 95/364/92 101/365/92 100/366/92
f 61/367/93 96/368/93 102/369/93 63/370/93
f 96/371/94 97/372/94 103/373/94 102/374/94
f 97/375/95 98/376/95 104/377/95 103/378/95
f 98/379/96 99/380/96 105/381/96 104/382/96
f 99/383/97 100/384/97 106/385/97 105/386/97
f 100/387/98 101/388/98 107/389/98 106/390/98
f 63/391/99 102/392/99 84/393/99 60/394/99
f 102/395/100 103/396/100 86/397/100 84/398/100
f 103/399/101 104/400/101 88/401/101 86/402/101
f 104/403/102 105/404/102 90/405/102 88/406/102
f 105/407/103 106/408/103 92/409/103 90/410/103
f 106/411/104 107/412/104 94/413/104 92/414/104
f 113/415/105 56/416/105 95/417/105
f 112/418/106 113/419/106 95/420/106 94/421/106
f 112/422/107 94/423/107 48/424/107
f 110/425/108 90/426/108 92/427/108
f 111/428/109 93/429/109 91/430/109
f 110/431/110 111/432/110 91/433/110 90/434/110
f 108/435/111 86/436/111 88/437/111
f 109/438/112 89/439/112 87/440/112
f 108/441/113 109/442/113 87/443/113 86/444/113
f 114/445/114 60/446/114 84/447/114
f 115/448/115 85/449/115 62/450/115
f 114/451/116 115/452/116 62/453/116 60/454/116
f 116/455/117 84/456/117 86/457/117
f 117/458/118 87/459/118 85/460/118
f 116/461/119 117/462/119 85/463/119 84/464/119
f 118/465/120 88/466/120 90/467/120
f 119/468/121 91/469/121 89/470/121
f 118/471/122 119/472/122 89/473/122 88/474/122
f 120/475/123 92/476/123 94/477/123
f 121/478/124 95/479/124 93/480/124
f 120/481/125 121/482/125 93/483/125 92/484/125
o cylinder
v -0.875 1.1171875 -0.075
v -0.875 1.12891 -0.03125
v -0.95625 1.12891 -0.03125
v -0.875 1.1492149999999999 -0.0429725
v -0.95625 1.149215 -0.0429725
v -0.875 1.1609375 -0.0632775
v -0.95625 1.1609375 -0.0632775
v -0.875 1.1609375 -0.0867225
v -0.95625 1.1609375 -0.0867225
v -0.875 1.1492149999999999 -0.1070275
v -0.95625 1.149215 -0.1070275
v -0.875 1.12891 -0.11875
v -0.95625 1.12891 -0.11875
v -0.875 1.105465 -0.11875
v -0.95625 1.105465 -0.11875
v -0.875 1.08516 -0.1070275
v -0.95625 1.08516 -0.1070275
v -0.875 1.0734375 -0.0867225
v -0.95625 1.0734375 -0.0867225
v -0.875 1.0734375 -0.0632775
v -0.95625 1.0734375 -0.0632775
v -0.875 1.08516 -0.0429725
v -0.95625 1.08516 -0.0429725
v -0.875 1.105465 -0.03125
v -0.95625 1.105465 -0.03125
v -0.975 1.124338125 -0.0483125
v -0.975 1.136724375 -0.055463125
v -0.975 1.143875 -0.067849375
v -0.975 1.143875 -0.082150625
v -0.975 1.136724375 -0.094536875
v -0.975 1.124338125 -0.1016875
v -0.975 1.110036875 -0.1016875
v -0.975 1.097650625 -0.094536875
v -0.975 1.0905 -0.082150625
v -0.975 1.0905 -0.067849375
v -0.975 1.097650625 -0.055463125
v -0.975 1.110036875 -0.0483125
v -0.9 1.1171875 -0.075
v -0.9 1.124338125 -0.0483125
v -0.9 1.136724375 -0.055463125
v -0.9 1.143875 -0.067849375
v -0.9 1.143875 -0.082150625
v -0.9 1.136724375 -0.094536875
v -0.9 1.124338125 -0.1016875
v -0.9 1.110036875 -0.1016875
v -0.9 1.097650625 -0.094536875
v -0.9 1.0905 -0.082150625
v -0.9 1.0905 -0.067849375
v -0.9 1.097650625 -0.055463125
v -0.9 1.110036875 -0.0483125
vt 0.043065625 0.532909375
vt 0.040528125 0.534375
vt 0.0390625 0.52890625
vt 0.4765625 0.6328125
vt 0.484375 0.6328125
vt 0.484375 0.640625
vt 0.4765625 0.640625
vt 0.0673 0.493328125
vt 0.0688484375 0.49422187500000003
vt 0.06640625 0.49666406249999995
vt 0.04453125 0.5303718749999999
vt 0.043065625 0.532909375
vt 0.0390625 0.52890625
vt 0.15625 0.515625
vt 0.1640625 0.515625
vt 0.1640625 0.5234375
vt 0.15625 0.5234375
vt 0.0688484375 0.49422187500000003
vt 0.0697421875 0.49577031250000003
vt 0.06640625 0.49666406249999995
vt 0.04453125 0.527440625
vt 0.04453125 0.5303718749999999
vt 0.0390625 0.52890625
vt 0.375 0.5234375
vt 0.3828125 0.5234375
vt 0.3828125 0.53125
vt 0.375 0.53125
vt 0.0697421875 0.49577031250000003
vt 0.0697421875 0.4975578125
vt 0.06640625 0.49666406249999995
vt 0.043065625 0.524903125
vt 0.04453125 0.527440625
vt 0.0390625 0.52890625
vt 0.171875 0.515625
vt 0.1796875 0.515625
vt 0.1796875 0.5234375
vt 0.171875 0.5234375
vt 0.0697421875 0.4975578125
vt 0.0688484375 0.49910625
vt 0.06640625 0.49666406249999995
vt 0.040528125 0.5234375
vt 0.043065625 0.524903125
vt 0.0390625 0.52890625
vt 0.4765625 0.6171875
vt 0.484375 0.6171875
vt 0.484375 0.625
vt 0.4765625 0.625
vt 0.0688484375 0.49910625
vt 0.0673 0.5
vt 0.06640625 0.49666406249999995
vt 0.037596875 0.5234375
vt 0.040528125 0.5234375
vt 0.0390625 0.52890625
vt 0.4765625 0.9609375
vt 0.484375 0.9609375
vt 0.484375 0.96875
vt 0.4765625 0.96875
vt 0.0673 0.5
vt 0.0655125 0.5
vt 0.06640625 0.49666406249999995
vt 0.035059375 0.524903125
vt 0.037596875 0.5234375
vt 0.0390625 0.52890625
vt 0.2890625 0.515625
vt 0.296875 0.515625
vt 0.296875 0.5234375
vt 0.2890625 0.5234375
vt 0.0655125 0.5
vt 0.0639640625 0.49910625
vt 0.06640625 0.49666406249999995
vt 0.03359375 0.527440625
vt 0.035059375 0.524903125
vt 0.0390625 0.52890625
vt 0.09375 0.515625
vt 0.1015625 0.515625
vt 0.1015625 0.5234375
vt 0.09375 0.5234375
vt 0.0639640625 0.49910625
vt 0.0630703125 0.4975578125
vt 0.06640625 0.49666406249999995
vt 0.03359375 0.5303718749999999
vt 0.03359375 0.527440625
vt 0.0390625 0.52890625
vt 0.390625 0.5234375
vt 0.3984375 0.5234375
vt 0.3984375 0.53125
vt 0.390625 0.53125
vt 0.0630703125 0.4975578125
vt 0.0630703125 0.49577031250000003
vt 0.06640625 0.49666406249999995
vt 0.035059375 0.532909375
vt 0.03359375 0.5303718749999999
vt 0.0390625 0.52890625
vt 0.4765625 0.859375
vt 0.484375 0.859375
vt 0.484375 0.8671875
vt 0.4765625 0.8671875
vt 0.0630703125 0.49577031250000003
vt 0.0639640625 0.49422187500000003
vt 0.06640625 0.49666406249999995
vt 0.037596875 0.534375
vt 0.035059375 0.532909375
vt 0.0390625 0.52890625
vt 0.4765625 0.6015625
vt 0.484375 0.6015625
vt 0.484375 0.609375
vt 0.4765625 0.609375
vt 0.0639640625 0.49422187500000003
vt 0.0655125 0.493328125
vt 0.06640625 0.49666406249999995
vt 0.040528125 0.534375
vt 0.037596875 0.534375
vt 0.0390625 0.52890625
vt 0.40625 0.5234375
vt 0.4140625 0.5234375
vt 0.4140625 0.53125
vt 0.40625 0.53125
vt 0.0655125 0.493328125
vt 0.0673 0.493328125
vt 0.06640625 0.49666406249999995
vt 0.38224140625 0.5
vt 0.380453125 0.5
vt 0.37988203125 0.4921875
vt 0.3828125 0.4921875
vt 0.507240625 0.515625
vt 0.505453125 0.515625
vt 0.50488203125 0.5078125
vt 0.5078125 0.5078125
vt 0.207925 0.5
vt 0.2061375 0.5
vt 0.205565625 0.4921875
vt 0.208496875 0.4921875
vt 0.50235859375 0.5
vt 0.50057109375 0.5
vt 0.5 0.4921875
vt 0.50293046875 0.4921875
vt 0.392984375 0.5
vt 0.39119609375 0.5
vt 0.390625 0.4921875
vt 0.39355546875 0.4921875
vt 0.1923 0.5
vt 0.1905125 0.5
vt 0.189940625 0.4921875
vt 0.192871875 0.4921875
vt 0.50724140625 0.6640625
vt 0.505453125 0.6640625
vt 0.50488203125 0.65625
vt 0.5078125 0.65625
vt 0.50724140625 0.53125
vt 0.50545390625 0.53125
vt 0.50488203125 0.5234375
vt 0.5078125 0.5234375
vt 0.22355 0.5
vt 0.2217625 0.5
vt 0.221190625 0.4921875
vt 0.224121875 0.4921875
vt 0.486734375 0.5
vt 0.484946875 0.5
vt 0.484375 0.4921875
vt 0.48730546875 0.4921875
vt 0.408609375 0.5
vt 0.40682109375 0.5
vt 0.40625 0.4921875
vt 0.40918046875 0.4921875
vt 0.5048 0.8515625
vt 0.5030125 0.8515625
vt 0.502440625 0.84375
vt 0.505371875 0.84375
vt 0.3203125 0.515625
vt 0.328125 0.515625
vt 0.328125 0.5234375
vt 0.3203125 0.5234375
vt 0.2421875 0.515625
vt 0.25 0.515625
vt 0.25 0.5234375
vt 0.2421875 0.5234375
vt 0.421875 0.5234375
vt 0.4296875 0.5234375
vt 0.4296875 0.53125
vt 0.421875 0.53125
vt 0.2578125 0.515625
vt 0.265625 0.515625
vt 0.265625 0.5234375
vt 0.2578125 0.5234375
vt 0.3359375 0.515625
vt 0.34375 0.515625
vt 0.34375 0.5234375
vt 0.3359375 0.5234375
vt 0.46875 0.5234375
vt 0.4765625 0.5234375
vt 0.4765625 0.53125
vt 0.46875 0.53125
vt 0.2734375 0.515625
vt 0.28125 0.515625
vt 0.28125 0.5234375
vt 0.2734375 0.5234375
vt 0.125 0.515625
vt 0.1328125 0.515625
vt 0.1328125 0.5234375
vt 0.125 0.5234375
vt 0.4375 0.5234375
vt 0.4453125 0.5234375
vt 0.4453125 0.53125
vt 0.4375 0.53125
vt 0.140625 0.515625
vt 0.1484375 0.515625
vt 0.1484375 0.5234375
vt 0.140625 0.5234375
vt 0.4765625 0.5859375
vt 0.484375 0.5859375
vt 0.484375 0.59375
vt 0.4765625 0.59375
vt 0.453125 0.5234375
vt 0.4609375 0.5234375
vt 0.4609375 0.53125
vt 0.453125 0.53125
vn 1 -2.220446049250313e-16 0
vn 1.1101806048090326e-16 0.4999808958131911 0.866036433310885
vn -1 2.220446049250313e-16 0
vn 1 -2.220446049250313e-16 0
vn 1.9229871768519873e-16 0.8660364333108852 0.4999808958131911
vn -1 2.220446049250313e-16 0
vn 1 -2.220446049250313e-16 0
vn 2.220446049250313e-16 1 0
vn -1 2.220446049250313e-16 0
vn 1 -2.220446049250313e-16 0
vn 1.9229871768519873e-16 0.8660364333108852 -0.4999808958131911
vn -1 2.220446049250313e-16 0
vn 1 -2.220446049250313e-16 0
vn 1.1101806048090326e-16 0.4999808958131911 -0.866036433310885
vn -1 2.220446049250313e-16 0
vn 1 -2.220446049250313e-16 0
vn 0 0 -1
vn -1 2.220446049250313e-16 0
vn 1 -2.220446049250313e-16 0
vn -1.1101806048090326e-16 -0.4999808958131911 -0.866036433310885
vn -1 2.220446049250313e-16 0
vn 1 -2.220446049250313e-16 0
vn -1.9229871768519873e-16 -0.8660364333108852 -0.4999808958131911
vn -1 2.220446049250313e-16 0
vn 1 -2.220446049250313e-16 0
vn -2.220446049250313e-16 -1 0
vn -1 2.220446049250313e-16 0
vn 1 -2.220446049250313e-16 0
vn -1.9229871768519873e-16 -0.8660364333108852 0.4999808958131911
vn -1 2.220446049250313e-16 0
vn 1 -2.220446049250313e-16 0
vn -1.1101806048090326e-16 -0.4999808958131911 0.866036433310885
vn -1 2.220446049250313e-16 0
vn 1 -2.220446049250313e-16 0
vn 0 0 1
vn -1 2.220446049250313e-16 0
vn -0.6730442157335941 0.3697786370353069 0.6405273165602402
vn -0.6730376152412152 0.6405325184033458 0.36978164007733755
vn -0.6730408400909949 0.7396053187813132 0
vn -0.673044215733594 0.6405273165602405 -0.3697786370353067
vn -0.673037615241215 0.3697816400773377 -0.6405325184033459
vn -0.673040840090995 1.4944508743641615e-16 -0.7396053187813132
vn -0.6730442157335942 -0.3697786370353064 -0.6405273165602403
vn -0.6730376152412152 -0.6405325184033455 -0.3697816400773378
vn -0.6730408400909951 -0.7396053187813131 0
vn -0.6730442157335942 -0.6405273165602401 0.36977863703530683
vn -0.6730376152412154 -0.3697816400773375 0.6405325184033455
vn -0.6730408400909951 1.4944508743641617e-16 0.7396053187813131
vn -1.1101555154918106e-16 -0.4999695965892219 -0.8660429564902717
vn -1.9230016612198852e-16 -0.866042956490272 -0.4999695965892218
vn -2.220446049250313e-16 -1 0
vn -1.9230016612198852e-16 -0.866042956490272 0.4999695965892218
vn -1.11015551549181e-16 -0.49996959658922163 0.8660429564902719
vn 0 0 1
vn 1.11015551549181e-16 0.49996959658922163 0.8660429564902719
vn 1.9230016612198847e-16 0.8660429564902717 0.49996959658922213
vn 2.220446049250313e-16 1 0
vn 1.9230016612198847e-16 0.8660429564902717 -0.49996959658922213
vn 1.1101555154918108e-16 0.499969596589222 -0.8660429564902719
vn 0 0 -1
usemtl m_5a10c0e1-a80d-0a53-8c8d-6dd2cd0dfae8
f 125/485/126 123/486/126 122/487/126
f 123/488/127 125/489/127 126/490/127 124/491/127
f 160/492/128 161/493/128 159/494/128
f 127/495/129 125/496/129 122/497/129
f 125/498/130 127/499/130 128/500/130 126/501/130
f 161/502/131 162/503/131 159/504/131
f 129/505/132 127/506/132 122/507/132
f 127/508/133 129/509/133 130/510/133 128/511/133
f 162/512/134 163/513/134 159/514/134
f 131/515/135 129/516/135 122/517/135
f 129/518/136 131/519/136 132/520/136 130/521/136
f 163/522/137 164/523/137 159/524/137
f 133/525/138 131/526/138 122/527/138
f 131/528/139 133/529/139 134/530/139 132/531/139
f 164/532/140 165/533/140 159/534/140
f 135/535/141 133/536/141 122/537/141
f 133/538/142 135/539/142 136/540/142 134/541/142
f 165/542/143 166/543/143 159/544/143
f 137/545/144 135/546/144 122/547/144
f 135/548/145 137/549/145 138/550/145 136/551/145
f 166/552/146 167/553/146 159/554/146
f 139/555/147 137/556/147 122/557/147
f 137/558/148 139/559/148 140/560/148 138/561/148
f 167/562/149 168/563/149 159/564/149
f 141/565/150 139/566/150 122/567/150
f 139/568/151 141/569/151 142/570/151 140/571/151
f 168/572/152 169/573/152 159/574/152
f 143/575/153 141/576/153 122/577/153
f 141/578/154 143/579/154 144/580/154 142/581/154
f 169/582/155 170/583/155 159/584/155
f 145/585/156 143/586/156 122/587/156
f 143/588/157 145/589/157 146/590/157 144/591/157
f 170/592/158 171/593/158 159/594/158
f 123/595/159 145/596/159 122/597/159
f 145/598/160 123/599/160 124/600/160 146/601/160
f 171/602/161 160/603/161 159/604/161
f 148/605/162 147/606/162 124/607/162 126/608/162
f 149/609/163 148/610/163 126/611/163 128/612/163
f 150/613/164 149/614/164 128/615/164 130/616/164
f 151/617/165 150/618/165 130/619/165 132/620/165
f 152/621/166 151/622/166 132/623/166 134/624/166
f 153/625/167 152/626/167 134/627/167 136/628/167
f 154/629/168 153/630/168 136/631/168 138/632/168
f 155/633/169 154/634/169 138/635/169 140/636/169
f 156/637/170 155/638/170 140/639/170 142/640/170
f 157/641/171 156/642/171 142/643/171 144/644/171
f 158/645/172 157/646/172 144/647/172 146/648/172
f 147/649/173 158/650/173 146/651/173 124/652/173
f 161/653/174 160/654/174 147/655/174 148/656/174
f 162/657/175 161/658/175 148/659/175 149/660/175
f 163/661/176 162/662/176 149/663/176 150/664/176
f 164/665/177 163/666/177 150/667/177 151/668/177
f 165/669/178 164/670/178 151/671/178 152/672/178
f 166/673/179 165/674/179 152/675/179 153/676/179
f 167/677/180 166/678/180 153/679/180 154/680/180
f 168/681/181 167/682/181 154/683/181 155/684/181
f 169/685/182 168/686/182 155/687/182 156/688/182
f 170/689/183 169/690/183 156/691/183 157/692/183
f 171/693/184 170/694/184 157/695/184 158/696/184
f 160/697/185 171/698/185 158/699/185 147/700/185
o cylinder
v -0.875 1.1171875 0.025
v -0.875 1.12891 0.06875
v -0.95625 1.12891 0.06875
v -0.875 1.1492149999999999 0.0570275
v -0.95625 1.149215 0.0570275
v -0.875 1.1609375 0.0367225
v -0.95625 1.1609375 0.0367225
v -0.875 1.1609375 0.0132775
v -0.95625 1.1609375 0.0132775
v -0.875 1.1492149999999999 -0.0070275
v -0.95625 1.149215 -0.0070275
v -0.875 1.12891 -0.01875
v -0.95625 1.12891 -0.01875
v -0.875 1.105465 -0.01875
v -0.95625 1.105465 -0.01875
v -0.875 1.08516 -0.0070275
v -0.95625 1.08516 -0.0070275
v -0.875 1.0734375 0.0132775
v -0.95625 1.0734375 0.0132775
v -0.875 1.0734375 0.0367225
v -0.95625 1.0734375 0.0367225
v -0.875 1.08516 0.0570275
v -0.95625 1.08516 0.0570275
v -0.875 1.105465 0.06875
v -0.95625 1.105465 0.06875
v -0.975 1.124338125 0.0516875
v -0.975 1.136724375 0.044536875
v -0.975 1.143875 0.032150625
v -0.975 1.143875 0.017849375
v -0.975 1.136724375 0.005463125
v -0.975 1.124338125 -0.0016875
v -0.975 1.110036875 -0.0016875
v -0.975 1.097650625 0.005463125
v -0.975 1.0905 0.017849375
v -0.975 1.0905 0.032150625
v -0.975 1.097650625 0.044536875
v -0.975 1.110036875 0.0516875
v -0.9 1.1171875 0.025
v -0.9 1.124338125 0.0516875
v -0.9 1.136724375 0.044536875
v -0.9 1.143875 0.032150625
v -0.9 1.143875 0.017849375
v -0.9 1.136724375 0.005463125
v -0.9 1.124338125 -0.0016875
v -0.9 1.110036875 -0.0016875
v -0.9 1.097650625 0.005463125
v -0.9 1.0905 0.017849375
v -0.9 1.0905 0.032150625
v -0.9 1.097650625 0.044536875
v -0.9 1.110036875 0.0516875
vt 0.066503125 0.532909375
vt 0.063965625 0.534375
vt 0.0625 0.52890625
vt 0.34375 0.5
vt 0.3515625 0.5
vt 0.3515625 0.5078125
vt 0.34375 0.5078125
vt 0.5048 0.923015625
vt 0.5063484375 0.923909375
vt 0.50390625 0.9263515625000001
vt 0.06796875 0.5303718749999999
vt 0.066503125 0.532909375
vt 0.0625 0.52890625
vt 0.234375 0.5
vt 0.2421875 0.5
vt 0.2421875 0.5078125
vt 0.234375 0.5078125
vt 0.5063484375 0.923909375
vt 0.5072421875 0.9254578125
vt 0.50390625 0.9263515625000001
vt 0.06796875 0.527440625
vt 0.06796875 0.5303718749999999
vt 0.0625 0.52890625
vt 0.09375 0.5
vt 0.1015625 0.5
vt 0.1015625 0.5078125
vt 0.09375 0.5078125
vt 0.5072421875 0.9254578125
vt 0.5072421875 0.9272453125
vt 0.50390625 0.9263515625000001
vt 0.066503125 0.524903125
vt 0.06796875 0.527440625
vt 0.0625 0.52890625
vt 0.25 0.5
vt 0.2578125 0.5
vt 0.2578125 0.5078125
vt 0.25 0.5078125
vt 0.5072421875 0.9272453125
vt 0.5063484375 0.92879375
vt 0.50390625 0.9263515625000001
vt 0.063965625 0.5234375
vt 0.066503125 0.524903125
vt 0.0625 0.52890625
vt 0.4921875 0.6171875
vt 0.5 0.6171875
vt 0.5 0.625
vt 0.4921875 0.625
vt 0.5063484375 0.92879375
vt 0.5048 0.9296875
vt 0.50390625 0.9263515625000001
vt 0.061034375 0.5234375
vt 0.063965625 0.5234375
vt 0.0625 0.52890625
vt 0.171875 0.5
vt 0.1796875 0.5
vt 0.1796875 0.5078125
vt 0.171875 0.5078125
vt 0.5048 0.9296875
vt 0.5030125 0.9296875
vt 0.50390625 0.9263515625000001
vt 0.058496875 0.524903125
vt 0.061034375 0.5234375
vt 0.0625 0.52890625
vt 0.296875 0.5
vt 0.3046875 0.5
vt 0.3046875 0.5078125
vt 0.296875 0.5078125
vt 0.5030125 0.9296875
vt 0.5014640625 0.92879375
vt 0.50390625 0.9263515625000001
vt 0.05703125 0.527440625
vt 0.058496875 0.524903125
vt 0.0625 0.52890625
vt 0.4921875 0.8125
vt 0.5 0.8125
vt 0.5 0.8203125
vt 0.4921875 0.8203125
vt 0.5014640625 0.92879375
vt 0.5005703125 0.9272453125
vt 0.50390625 0.9263515625000001
vt 0.05703125 0.5303718749999999
vt 0.05703125 0.527440625
vt 0.0625 0.52890625
vt 0.4921875 0.875
vt 0.5 0.875
vt 0.5 0.8828125
vt 0.4921875 0.8828125
vt 0.5005703125 0.9272453125
vt 0.5005703125 0.9254578125
vt 0.50390625 0.9263515625000001
vt 0.058496875 0.532909375
vt 0.05703125 0.5303718749999999
vt 0.0625 0.52890625
vt 0.4921875 0.765625
vt 0.5 0.765625
vt 0.5 0.7734375
vt 0.4921875 0.7734375
vt 0.5005703125 0.9254578125
vt 0.5014640625 0.923909375
vt 0.50390625 0.9263515625000001
vt 0.061034375 0.534375
vt 0.058496875 0.532909375
vt 0.0625 0.52890625
vt 0.4921875 0.6015625
vt 0.5 0.6015625
vt 0.5 0.609375
vt 0.4921875 0.609375
vt 0.5014640625 0.923909375
vt 0.5030125 0.923015625
vt 0.50390625 0.9263515625000001
vt 0.063965625 0.534375
vt 0.061034375 0.534375
vt 0.0625 0.52890625
vt 0.125 0.5
vt 0.1328125 0.5
vt 0.1328125 0.5078125
vt 0.125 0.5078125
vt 0.5030125 0.923015625
vt 0.5048 0.923015625
vt 0.50390625 0.9263515625000001
vt 0.44474140625 0.5
vt 0.442953125 0.5
vt 0.44238203125 0.4921875
vt 0.4453125 0.4921875
vt 0.116615625 0.5
vt 0.114828125 0.5
vt 0.11425625 0.4921875
vt 0.1171875 0.4921875
vt 0.5048 0.7109375
vt 0.5030125 0.7109375
vt 0.502440625 0.703125
vt 0.505371875 0.703125
vt 0.502359375 0.6796875
vt 0.500571875 0.6796875
vt 0.5 0.671875
vt 0.50293125 0.671875
vt 0.455484375 0.5
vt 0.45369609375 0.5
vt 0.453125 0.4921875
vt 0.45605546875 0.4921875
vt 0.5048 0.7421875
vt 0.5030125 0.7421875
vt 0.502440625 0.734375
vt 0.505371875 0.734375
vt 0.42911640625 0.5
vt 0.427328125 0.5
vt 0.42675703125 0.4921875
vt 0.4296875 0.4921875
vt 0.085365625 0.5
vt 0.083578125 0.5
vt 0.08300625 0.4921875
vt 0.0859375 0.4921875
vt 0.5048 0.7265625
vt 0.5030125 0.7265625
vt 0.502440625 0.71875
vt 0.505371875 0.71875
vt 0.502359375 0.6953125
vt 0.500571875 0.6953125
vt 0.5 0.6875
vt 0.50293125 0.6875
vt 0.471109375 0.5
vt 0.46932109375 0.5
vt 0.46875 0.4921875
vt 0.47168046875 0.4921875
vt 0.5048 0.7578125
vt 0.5030125 0.7578125
vt 0.502440625 0.75
vt 0.505371875 0.75
vt 0.328125 0.5
vt 0.3359375 0.5
vt 0.3359375 0.5078125
vt 0.328125 0.5078125
vt 0.265625 0.5
vt 0.2734375 0.5
vt 0.2734375 0.5078125
vt 0.265625 0.5078125
vt 0.4921875 0.859375
vt 0.5 0.859375
vt 0.5 0.8671875
vt 0.4921875 0.8671875
vt 0.28125 0.5
vt 0.2890625 0.5
vt 0.2890625 0.5078125
vt 0.28125 0.5078125
vt 0.4921875 0.6328125
vt 0.5 0.6328125
vt 0.5 0.640625
vt 0.4921875 0.640625
vt 0.4921875 0.828125
vt 0.5 0.828125
vt 0.5 0.8359375
vt 0.4921875 0.8359375
vt 0.3125 0.5
vt 0.3203125 0.5
vt 0.3203125 0.5078125
vt 0.3125 0.5078125
vt 0.4921875 0.796875
vt 0.5 0.796875
vt 0.5 0.8046875
vt 0.4921875 0.8046875
vt 0.140625 0.5
vt 0.1484375 0.5
vt 0.1484375 0.5078125
vt 0.140625 0.5078125
vt 0.4921875 0.78125
vt 0.5 0.78125
vt 0.5 0.7890625
vt 0.4921875 0.7890625
vt 0.359375 0.5
vt 0.3671875 0.5
vt 0.3671875 0.5078125
vt 0.359375 0.5078125
vt 0.15625 0.5
vt 0.1640625 0.5
vt 0.1640625 0.5078125
vt 0.15625 0.5078125
vn 1 -2.220446049250313e-16 0
vn 1.1101806048090333e-16 0.49998089581319144 0.8660364333108849
vn -1 2.220446049250313e-16 0
vn 1 -2.220446049250313e-16 0
vn 1.9229871768519873e-16 0.8660364333108852 0.4999808958131911
vn -1 2.220446049250313e-16 0
vn 1 -2.220446049250313e-16 0
vn 2.220446049250313e-16 1 0
vn -1 2.220446049250313e-16 0
vn 1 -2.220446049250313e-16 0
vn 1.9229871768519868e-16 0.866036433310885 -0.4999808958131911
vn -1 2.220446049250313e-16 0
vn 1 -2.220446049250313e-16 0
vn 1.1101806048090331e-16 0.49998089581319133 -0.866036433310885
vn -1 2.220446049250313e-16 0
vn 1 -2.220446049250313e-16 0
vn 0 0 -1
vn -1 2.220446049250313e-16 0
vn 1 -2.220446049250313e-16 0
vn -1.1101806048090331e-16 -0.49998089581319133 -0.866036433310885
vn -1 2.220446049250313e-16 0
vn 1 -2.220446049250313e-16 0
vn -1.9229871768519868e-16 -0.866036433310885 -0.4999808958131911
vn -1 2.220446049250313e-16 0
vn 1 -2.220446049250313e-16 0
vn -2.220446049250313e-16 -1 0
vn -1 2.220446049250313e-16 0
vn 1 -2.220446049250313e-16 0
vn -1.9229871768519873e-16 -0.8660364333108852 0.4999808958131911
vn -1 2.220446049250313e-16 0
vn 1 -2.220446049250313e-16 0
vn -1.1101806048090333e-16 -0.49998089581319144 0.8660364333108849
vn -1 2.220446049250313e-16 0
vn 1 -2.220446049250313e-16 0
vn 0 0 1
vn -1 2.220446049250313e-16 0
vn -0.6730442157335943 0.36977863703530683 0.6405273165602401
vn -0.6730376152412152 0.6405325184033457 0.36978164007733766
vn -0.6730408400909949 0.7396053187813132 0
vn -0.673044215733594 0.6405273165602403 -0.36977863703530656
vn -0.6730376152412151 0.3697816400773379 -0.6405325184033457
vn -0.673040840090995 1.4944508743641615e-16 -0.7396053187813131
vn -0.6730442157335943 -0.36977863703530656 -0.6405273165602401
vn -0.6730376152412153 -0.6405325184033454 -0.36978164007733777
vn -0.6730408400909951 -0.7396053187813131 0
vn -0.6730442157335941 -0.6405273165602401 0.36977863703530706
vn -0.6730376152412154 -0.3697816400773375 0.6405325184033455
vn -0.6730408400909952 1.494450874364162e-16 0.7396053187813129
vn -1.1101555154918106e-16 -0.4999695965892219 -0.8660429564902717
vn -1.923001661219885e-16 -0.8660429564902719 -0.499969596589222
vn -2.220446049250313e-16 -1 0
vn -1.9230016612198852e-16 -0.866042956490272 0.4999695965892218
vn -1.1101555154918106e-16 -0.4999695965892219 0.8660429564902717
vn 0 0 1
vn 1.1101555154918108e-16 0.499969596589222 0.8660429564902719
vn 1.9230016612198847e-16 0.8660429564902717 0.49996959658922213
vn 2.220446049250313e-16 1 0
vn 1.9230016612198844e-16 0.8660429564902716 -0.49996959658922235
vn 1.1101555154918108e-16 0.499969596589222 -0.8660429564902719
vn 0 0 -1
usemtl m_5a10c0e1-a80d-0a53-8c8d-6dd2cd0dfae8
f 175/701/186 173/702/186 172/703/186
f 173/704/187 175/705/187 176/706/187 174/707/187
f 210/708/188 211/709/188 209/710/188
f 177/711/189 175/712/189 172/713/189
f 175/714/190 177/715/190 178/716/190 176/717/190
f 211/718/191 212/719/191 209/720/191
f 179/721/192 177/722/192 172/723/192
f 177/724/193 179/725/193 180/726/193 178/727/193
f 212/728/194 213/729/194 209/730/194
f 181/731/195 179/732/195 172/733/195
f 179/734/196 181/735/196 182/736/196 180/737/196
f 213/738/197 214/739/197 209/740/197
f 183/741/198 181/742/198 172/743/198
f 181/744/199 183/745/199 184/746/199 182/747/199
f 214/748/200 215/749/200 209/750/200
f 185/751/201 183/752/201 172/753/201
f 183/754/202 185/755/202 186/756/202 184/757/202
f 215/758/203 216/759/203 209/760/203
f 187/761/204 185/762/204 172/763/204
f 185/764/205 187/765/205 188/766/205 186/767/205
f 216/768/206 217/769/206 209/770/206
f 189/771/207 187/772/207 172/773/207
f 187/774/208 189/775/208 190/776/208 188/777/208
f 217/778/209 218/779/209 209/780/209
f 191/781/210 189/782/210 172/783/210
f 189/784/211 191/785/211 192/786/211 190/787/211
f 218/788/212 219/789/212 209/790/212
f 193/791/213 191/792/213 172/793/213
f 191/794/214 193/795/214 194/796/214 192/797/214
f 219/798/215 220/799/215 209/800/215
f 195/801/216 193/802/216 172/803/216
f 193/804/217 195/805/217 196/806/217 194/807/217
f 220/808/218 221/809/218 209/810/218
f 173/811/219 195/812/219 172/813/219
f 195/814/220 173/815/220 174/816/220 196/817/220
f 221/818/221 210/819/221 209/820/221
f 198/821/222 197/822/222 174/823/222 176/824/222
f 199/825/223 198/826/223 176/827/223 178/828/223
f 200/829/224 199/830/224 178/831/224 180/832/224
f 201/833/225 200/834/225 180/835/225 182/836/225
f 202/837/226 201/838/226 182/839/226 184/840/226
f 203/841/227 202/842/227 184/843/227 186/844/227
f 204/845/228 203/846/228 186/847/228 188/848/228
f 205/849/229 204/850/229 188/851/229 190/852/229
f 206/853/230 205/854/230 190/855/230 192/856/230
f 207/857/231 206/858/231 192/859/231 194/860/231
f 208/861/232 207/862/232 194/863/232 196/864/232
f 197/865/233 208/866/233 196/867/233 174/868/233
f 211/869/234 210/870/234 197/871/234 198/872/234
f 212/873/235 211/874/235 198/875/235 199/876/235
f 213/877/236 212/878/236 199/879/236 200/880/236
f 214/881/237 213/882/237 200/883/237 201/884/237
f 215/885/238 214/886/238 201/887/238 202/888/238
f 216/889/239 215/890/239 202/891/239 203/892/239
f 217/893/240 216/894/240 203/895/240 204/896/240
f 218/897/241 217/898/241 204/899/241 205/900/241
f 219/901/242 218/902/242 205/903/242 206/904/242
f 220/905/243 219/906/243 206/907/243 207/908/243
f 221/909/244 220/910/244 207/911/244 208/912/244
f 210/913/245 221/914/245 208/915/245 197/916/245
o Arm
v -0.3343749999999997 1.0218749999999999 1.4274789252561334e-16
v -0.15937499999999974 1.0218749999999999 1.4274789252561334e-16
v -0.3343749999999997 1.055018125 -0.056249999999999856
v -0.1593749999999997 1.055018125 -0.056249999999999856
v -0.3343749999999997 1.078125 -0.03736187499999985
v -0.1593749999999997 1.078125 -0.03736187499999985
v -0.3343749999999997 1.078125 0.037361875000000155
v -0.1593749999999997 1.078125 0.037361875000000155
v -0.3343749999999997 1.055018125 0.05625000000000015
v -0.1593749999999997 1.055018125 0.05625000000000015
v -0.3343749999999997 0.988731875 0.05625000000000014
v -0.15937499999999974 0.988731875 0.05625000000000014
v -0.33437499999999976 0.965625 0.03736187500000014
v -0.15937499999999974 0.965625 0.03736187500000014
v -0.33437499999999976 0.965625 -0.037361874999999864
v -0.15937499999999974 0.965625 -0.037361874999999864
v -0.3343749999999997 0.988731875 -0.05624999999999986
v -0.15937499999999974 0.988731875 -0.05624999999999986
v -0.31770812499999973 1.055018125 -0.056249999999999856
v -0.31770812499999973 0.988731875 -0.05624999999999986
v -0.29466937499999973 1.055018125 -0.056249999999999856
v -0.29466937499999973 0.988731875 -0.05624999999999986
v -0.3177081249999998 0.965625 -0.037361874999999864
v -0.2946693749999998 0.965625 -0.037361874999999864
v -0.3177081249999998 0.965625 0.03736187500000014
v -0.2946693749999998 0.965625 0.03736187500000014
v -0.31770812499999973 0.988731875 0.05625000000000014
v -0.29466937499999973 0.988731875 0.05625000000000014
v -0.31770812499999973 1.055018125 0.05625000000000015
v -0.29466937499999973 1.055018125 0.05625000000000015
v -0.31770812499999973 1.078125 0.037361875000000155
v -0.29466937499999973 1.078125 0.037361875000000155
v -0.31770812499999973 1.078125 -0.03736187499999985
v -0.29466937499999973 1.078125 -0.03736187499999985
vt 0.41328125 0.6210765625
vt 0.41039296875 0.6234375
vt 0.40625 0.61640625
vt 0.36345625 0.5390625
vt 0.36345625 0.5221507812499999
vt 0.3671875 0.5221507812499999
vt 0.3671875 0.5390625
vt 0.41039296875 0.5875
vt 0.41328125 0.5898609375
vt 0.40625 0.59453125
vt 0.41328125 0.6117359375
vt 0.41328125 0.6210765625
vt 0.40625 0.61640625
vt 0.4015796875 0.734375
vt 0.4015796875 0.7174632812499999
vt 0.4109203125 0.7174632812499999
vt 0.4109203125 0.734375
vt 0.41328125 0.5898609375
vt 0.41328125 0.5992015625
vt 0.40625 0.59453125
vt 0.41039296875 0.609375
vt 0.41328125 0.6117359375
vt 0.40625 0.61640625
vt 0.3046875 0.5390625
vt 0.3046875 0.5221507812499999
vt 0.30841875 0.5221507812499999
vt 0.30841875 0.5390625
vt 0.41328125 0.5992015625
vt 0.41039296875 0.6015625
vt 0.40625 0.59453125
vt 0.40210703125 0.609375
vt 0.41039296875 0.609375
vt 0.40625 0.61640625
vt 0.25366953125 0.5703125
vt 0.25366953125 0.5534007812499999
vt 0.26195546875 0.5534007812499999
vt 0.26195546875 0.5703125
vt 0.41039296875 0.6015625
vt 0.40210703125 0.6015625
vt 0.40625 0.59453125
vt 0.39921875 0.6117359375
vt 0.40210703125 0.609375
vt 0.40625 0.61640625
vt 0.47283203125 0.9140625
vt 0.47283203125 0.89715078125
vt 0.4765625 0.89715078125
vt 0.4765625 0.9140625
vt 0.40210703125 0.6015625
vt 0.39921875 0.5992015625
vt 0.40625 0.59453125
vt 0.39921875 0.6210765625
vt 0.39921875 0.6117359375
vt 0.40625 0.61640625
vt 0.4015796875 0.703125
vt 0.4015796875 0.6862132812499999
vt 0.4109203125 0.6862132812499999
vt 0.4109203125 0.703125
vt 0.39921875 0.5992015625
vt 0.39921875 0.5898609375
vt 0.40625 0.59453125
vt 0.40210703125 0.6234375
vt 0.39921875 0.6210765625
vt 0.40625 0.61640625
vt 0.4609375 0.578125
vt 0.4609375 0.5612132812499999
vt 0.46466796875 0.5612132812499999
vt 0.46466796875 0.578125
vt 0.39921875 0.5898609375
vt 0.40210703125 0.5875
vt 0.40625 0.59453125
vt 0.41039296875 0.6234375
vt 0.40210703125 0.6234375
vt 0.40625 0.61640625
vt 0.30835703125 0.5703125
vt 0.30835703125 0.5534007812499999
vt 0.31664296875 0.5534007812499999
vt 0.31664296875 0.5703125
vt 0.40210703125 0.5875
vt 0.41039296875 0.5875
vt 0.40625 0.59453125
vt 0.31664296875 0.5484375
vt 0.31664296875 0.55052109375
vt 0.30835703125 0.55052109375
vt 0.30835703125 0.5484375
vt 0.31664296875 0.55052109375
vt 0.31664296875 0.5534007812499999
vt 0.30835703125 0.5534007812499999
vt 0.30835703125 0.55052109375
vt 0.46466796875 0.55625
vt 0.46466796875 0.55833359375
vt 0.4609375 0.55833359375
vt 0.4609375 0.55625
vt 0.46466796875 0.55833359375
vt 0.46466796875 0.5612132812499999
vt 0.4609375 0.5612132812499999
vt 0.4609375 0.55833359375
vt 0.4109203125 0.68125
vt 0.4109203125 0.68333359375
vt 0.4015796875 0.68333359375
vt 0.4015796875 0.68125
vt 0.4109203125 0.68333359375
vt 0.4109203125 0.6862132812499999
vt 0.4015796875 0.6862132812499999
vt 0.4015796875 0.68333359375
vt 0.4765625 0.8921875
vt 0.4765625 0.89427109375
vt 0.47283203125 0.89427109375
vt 0.47283203125 0.8921875
vt 0.4765625 0.89427109375
vt 0.4765625 0.89715078125
vt 0.47283203125 0.89715078125
vt 0.47283203125 0.89427109375
vt 0.26195546875 0.5484375
vt 0.26195546875 0.55052109375
vt 0.25366953125 0.55052109375
vt 0.25366953125 0.5484375
vt 0.26195546875 0.55052109375
vt 0.26195546875 0.5534007812499999
vt 0.25366953125 0.5534007812499999
vt 0.25366953125 0.55052109375
vt 0.30841875 0.5171875
vt 0.30841875 0.51927109375
vt 0.3046875 0.51927109375
vt 0.3046875 0.5171875
vt 0.30841875 0.51927109375
vt 0.30841875 0.5221507812499999
vt 0.3046875 0.5221507812499999
vt 0.3046875 0.51927109375
vt 0.4109203125 0.7125
vt 0.4109203125 0.71458359375
vt 0.4015796875 0.71458359375
vt 0.4015796875 0.7125
vt 0.4109203125 0.71458359375
vt 0.4109203125 0.7174632812499999
vt 0.4015796875 0.7174632812499999
vt 0.4015796875 0.71458359375
vt 0.3671875 0.5171875
vt 0.3671875 0.51927109375
vt 0.36345625 0.51927109375
vt 0.36345625 0.5171875
vt 0.3671875 0.51927109375
vt 0.3671875 0.5221507812499999
vt 0.36345625 0.5221507812499999
vt 0.36345625 0.51927109375
vn -1 2.220446049250313e-16 2.719262146893782e-32
vn 1.4052902862729186e-16 0.6328864809606095 -0.7742446010256038
vn 1 -2.220446049250313e-16 -2.719262146893782e-32
vn -1 2.220446049250313e-16 2.719262146893782e-32
vn 2.220446049250313e-16 1 1.2246467991473532e-16
vn 1 -2.220446049250313e-16 -2.719262146893782e-32
vn -1 2.220446049250313e-16 2.719262146893782e-32
vn 1.4052902862729186e-16 0.6328864809606093 0.774244601025604
vn 1 -2.220446049250313e-16 -2.719262146893782e-32
vn -1 2.220446049250313e-16 2.719262146893782e-32
vn -2.5407181807812022e-33 -1.2246467991473532e-16 1
vn 1 -2.220446049250313e-16 -2.719262146893782e-32
vn -1 2.220446049250313e-16 2.719262146893782e-32
vn -1.4052902862729186e-16 -0.6328864809606095 0.7742446010256038
vn 1 -2.220446049250313e-16 -2.719262146893782e-32
vn -1 2.220446049250313e-16 2.719262146893782e-32
vn -2.220446049250313e-16 -1 -1.2246467991473532e-16
vn 1 -2.220446049250313e-16 -2.719262146893782e-32
vn -1 2.220446049250313e-16 2.719262146893782e-32
vn -1.4052902862729186e-16 -0.6328864809606093 -0.774244601025604
vn 1 -2.220446049250313e-16 -2.719262146893782e-32
vn -1 2.220446049250313e-16 2.719262146893782e-32
vn 2.5407181807812022e-33 1.2246467991473532e-16 -1
vn 1 -2.220446049250313e-16 -2.719262146893782e-32
vn 2.5407181807812022e-33 1.2246467991473532e-16 -1
vn 2.5407181807812022e-33 1.2246467991473532e-16 -1
vn -1.4052902862729184e-16 -0.6328864809606092 -0.7742446010256039
vn -1.4052902862729186e-16 -0.6328864809606093 -0.7742446010256039
vn -2.220446049250313e-16 -1 -1.2246467991473532e-16
vn -2.220446049250313e-16 -1 -1.2246467991473532e-16
vn -1.4052902862729184e-16 -0.6328864809606094 0.7742446010256037
vn -1.4052902862729186e-16 -0.6328864809606095 0.7742446010256037
vn -2.5407181807812022e-33 -1.2246467991473532e-16 1
vn -2.5407181807812022e-33 -1.2246467991473532e-16 1
vn 1.4052902862729184e-16 0.6328864809606092 0.7742446010256039
vn 1.4052902862729186e-16 0.6328864809606093 0.7742446010256039
vn 2.220446049250313e-16 1 1.2246467991473532e-16
vn 2.220446049250313e-16 1 1.2246467991473532e-16
vn 1.4052902862729184e-16 0.6328864809606094 -0.7742446010256037
vn 1.4052902862729186e-16 0.6328864809606095 -0.7742446010256037
usemtl m_5a10c0e1-a80d-0a53-8c8d-6dd2cd0dfae8
f 226/917/246 224/918/246 222/919/246
f 225/920/247 242/921/247 255/922/247 227/923/247
f 225/924/248 227/925/248 223/926/248
f 228/927/249 226/928/249 222/929/249
f 227/930/250 255/931/250 253/932/250 229/933/250
f 227/934/251 229/935/251 223/936/251
f 230/937/252 228/938/252 222/939/252
f 229/940/253 253/941/253 251/942/253 231/943/253
f 229/944/254 231/945/254 223/946/254
f 232/947/255 230/948/255 222/949/255
f 231/950/256 251/951/256 249/952/256 233/953/256
f 231/954/257 233/955/257 223/956/257
f 234/957/258 232/958/258 222/959/258
f 233/960/259 249/961/259 247/962/259 235/963/259
f 233/964/260 235/965/260 223/966/260
f 236/967/261 234/968/261 222/969/261
f 235/970/262 247/971/262 245/972/262 237/973/262
f 235/974/263 237/975/263 223/976/263
f 238/977/264 236/978/264 222/979/264
f 237/980/265 245/981/265 243/982/265 239/983/265
f 237/984/266 239/985/266 223/986/266
f 224/987/267 238/988/267 222/989/267
f 239/990/268 243/991/268 242/992/268 225/993/268
f 239/994/269 225/995/269 223/996/269
f 224/997/270 240/998/270 241/999/270 238/1000/270
f 240/1001/271 242/1002/271 243/1003/271 241/1004/271
f 238/1005/272 241/1006/272 244/1007/272 236/1008/272
f 241/1009/273 243/1010/273 245/1011/273 244/1012/273
f 236/1013/274 244/1014/274 246/1015/274 234/1016/274
f 244/1017/275 245/1018/275 247/1019/275 246/1020/275
f 234/1021/276 246/1022/276 248/1023/276 232/1024/276
f 246/1025/277 247/1026/277 249/1027/277 248/1028/277
f 232/1029/278 248/1030/278 250/1031/278 230/1032/278
f 248/1033/279 249/1034/279 251/1035/279 250/1036/279
f 230/1037/280 250/1038/280 252/1039/280 228/1040/280
f 250/1041/281 251/1042/281 253/1043/281 252/1044/281
f 228/1045/282 252/1046/282 254/1047/282 226/1048/282
f 252/1049/283 253/1050/283 255/1051/283 254/1052/283
f 226/1053/284 254/1054/284 240/1055/284 224/1056/284
f 254/1057/285 255/1058/285 242/1059/285 240/1060/285
o cylinder
v -0.16875 1.0187499999999998 0.06249999999999999
v -0.16875 1.01875 -0.0625
v -0.2375 1.0371712499999999 0.0625
v -0.2375 1.0371712499999999 -0.0625
v -0.21907875 1.0690787499999999 0.0625
v -0.21907875 1.0690787499999999 -0.06249999999999999
v -0.18717124999999998 1.0875 0.06250000000000001
v -0.18717124999999998 1.0875 -0.06249999999999999
v -0.15032874999999998 1.0875 0.06250000000000001
v -0.15032874999999998 1.0875 -0.06249999999999999
v -0.11842125 1.0690787499999999 0.0625
v -0.11842125 1.0690787499999999 -0.06249999999999999
v -0.1 1.0371712499999999 0.0625
v -0.1 1.0371712499999999 -0.0625
v -0.1 1.00032875 0.06249999999999999
v -0.1 1.00032875 -0.06250000000000001
v -0.11842125000000003 0.9684212499999999 0.062499999999999986
v -0.11842125000000003 0.9684212499999999 -0.06250000000000001
v -0.15032875 0.95 0.06249999999999998
v -0.15032875 0.95 -0.06250000000000003
v -0.18717125 0.95 0.06249999999999998
v -0.18717125 0.95 -0.06250000000000003
v -0.21907875000000002 0.9684212499999999 0.062499999999999986
v -0.21907875000000002 0.96842125 -0.06250000000000001
v -0.23750000000000002 1.00032875 0.06249999999999999
v -0.23750000000000002 1.00032875 -0.06250000000000001
vt 0.35394765625 0.61644765625
vt 0.34995859375 0.61875
vt 0.34765625 0.61015625
vt 0.453125 0.671875
vt 0.4609375 0.671875
vt 0.4609375 0.6875
vt 0.453125 0.6875
vt 0.31870859375 0.6078125
vt 0.32269765625 0.61011484375
vt 0.31640625 0.61640625
vt 0.35625 0.61245859375
vt 0.35394765625 0.61644765625
vt 0.34765625 0.61015625
vt 0.453125 0.71875
vt 0.4609375 0.71875
vt 0.4609375 0.734375
vt 0.453125 0.734375
vt 0.32269765625 0.61011484375
vt 0.325 0.61410390625
vt 0.31640625 0.61640625
vt 0.35625 0.60785390625
vt 0.35625 0.61245859375
vt 0.34765625 0.61015625
vt 0.453125 0.875
vt 0.4609375 0.875
vt 0.4609375 0.890625
vt 0.453125 0.890625
vt 0.325 0.61410390625
vt 0.325 0.61870859375
vt 0.31640625 0.61640625
vt 0.35394765625 0.60386484375
vt 0.35625 0.60785390625
vt 0.34765625 0.61015625
vt 0.2890625 0.53125
vt 0.296875 0.53125
vt 0.296875 0.546875
vt 0.2890625 0.546875
vt 0.325 0.61870859375
vt 0.32269765625 0.62269765625
vt 0.31640625 0.61640625
vt 0.34995859375 0.6015625
vt 0.35394765625 0.60386484375
vt 0.34765625 0.61015625
vt 0.328125 0.53125
vt 0.3359375 0.53125
vt 0.3359375 0.546875
vt 0.328125 0.546875
vt 0.32269765625 0.62269765625
vt 0.31870859375 0.625
vt 0.31640625 0.61640625
vt 0.34535390625 0.6015625
vt 0.34995859375 0.6015625
vt 0.34765625 0.61015625
vt 0.1640625 0.53125
vt 0.171875 0.53125
vt 0.171875 0.546875
vt 0.1640625 0.546875
vt 0.31870859375 0.625
vt 0.31410390625 0.625
vt 0.31640625 0.61640625
vt 0.34136484375 0.60386484375
vt 0.34535390625 0.6015625
vt 0.34765625 0.61015625
vt 0.453125 0.6484375
vt 0.4609375 0.6484375
vt 0.4609375 0.6640625
vt 0.453125 0.6640625
vt 0.31410390625 0.625
vt 0.31011484375 0.62269765625
vt 0.31640625 0.61640625
vt 0.3390625 0.60785390625
vt 0.34136484375 0.60386484375
vt 0.34765625 0.61015625
vt 0.1796875 0.53125
vt 0.1875 0.53125
vt 0.1875 0.546875
vt 0.1796875 0.546875
vt 0.31011484375 0.62269765625
vt 0.3078125 0.61870859375
vt 0.31640625 0.61640625
vt 0.3390625 0.61245859375
vt 0.3390625 0.60785390625
vt 0.34765625 0.61015625
vt 0.1328125 0.53125
vt 0.140625 0.53125
vt 0.140625 0.546875
vt 0.1328125 0.546875
vt 0.3078125 0.61870859375
vt 0.3078125 0.61410390625
vt 0.31640625 0.61640625
vt 0.34136484375 0.61644765625
vt 0.3390625 0.61245859375
vt 0.34765625 0.61015625
vt 0.453125 0.7734375
vt 0.4609375 0.7734375
vt 0.4609375 0.7890625
vt 0.453125 0.7890625
vt 0.3078125 0.61410390625
vt 0.31011484375 0.61011484375
vt 0.31640625 0.61640625
vt 0.34535390625 0.61875
vt 0.34136484375 0.61644765625
vt 0.34765625 0.61015625
vt 0.453125 0.6953125
vt 0.4609375 0.6953125
vt 0.4609375 0.7109375
vt 0.453125 0.7109375
vt 0.31011484375 0.61011484375
vt 0.31410390625 0.6078125
vt 0.31640625 0.61640625
vt 0.34995859375 0.61875
vt 0.34535390625 0.61875
vt 0.34765625 0.61015625
vt 0.1484375 0.53125
vt 0.15625 0.53125
vt 0.15625 0.546875
vt 0.1484375 0.546875
vt 0.31410390625 0.6078125
vt 0.31870859375 0.6078125
vt 0.31640625 0.61640625
vn -4.930380657631324e-32 -2.220446049250313e-16 1
vn -0.866031911409066 0.49998872829410845 1.1101979964103413e-16
vn 4.930380657631324e-32 2.220446049250313e-16 -1
vn -4.930380657631324e-32 -2.220446049250313e-16 1
vn -0.4999887282941079 0.8660319114090662 1.9229771362129582e-16
vn 4.930380657631324e-32 2.220446049250313e-16 -1
vn -4.930380657631324e-32 -2.220446049250313e-16 1
vn 2.220446049250313e-16 1 2.220446049250313e-16
vn 4.930380657631324e-32 2.220446049250313e-16 -1
vn -4.930380657631324e-32 -2.220446049250313e-16 1
vn 0.49998872829410845 0.866031911409066 1.9229771362129577e-16
vn 4.930380657631324e-32 2.220446049250313e-16 -1
vn -4.930380657631324e-32 -2.220446049250313e-16 1
vn 0.8660319114090662 0.4999887282941081 1.1101979964103406e-16
vn 4.930380657631324e-32 2.220446049250313e-16 -1
vn -4.930380657631324e-32 -2.220446049250313e-16 1
vn 1 -2.220446049250313e-16 -4.930380657631324e-32
vn 4.930380657631324e-32 2.220446049250313e-16 -1
vn -4.930380657631324e-32 -2.220446049250313e-16 1
vn 0.866031911409066 -0.49998872829410845 -1.1101979964103413e-16
vn 4.930380657631324e-32 2.220446049250313e-16 -1
vn -4.930380657631324e-32 -2.220446049250313e-16 1
vn 0.4999887282941082 -0.8660319114090662 -1.9229771362129582e-16
vn 4.930380657631324e-32 2.220446049250313e-16 -1
vn -4.930380657631324e-32 -2.220446049250313e-16 1
vn -2.220446049250313e-16 -1 -2.220446049250313e-16
vn 4.930380657631324e-32 2.220446049250313e-16 -1
vn -4.930380657631324e-32 -2.220446049250313e-16 1
vn -0.49998872829410834 -0.866031911409066 -1.9229771362129577e-16
vn 4.930380657631324e-32 2.220446049250313e-16 -1
vn -4.930380657631324e-32 -2.220446049250313e-16 1
vn -0.8660319114090662 -0.4999887282941081 -1.1101979964103406e-16
vn 4.930380657631324e-32 2.220446049250313e-16 -1
vn -4.930380657631324e-32 -2.220446049250313e-16 1
vn -1 2.220446049250313e-16 4.930380657631324e-32
vn 4.930380657631324e-32 2.220446049250313e-16 -1
usemtl m_5a10c0e1-a80d-0a53-8c8d-6dd2cd0dfae8
f 260/1061/286 258/1062/286 256/1063/286
f 258/1064/287 260/1065/287 261/1066/287 259/1067/287
f 259/1068/288 261/1069/288 257/1070/288
f 262/1071/289 260/1072/289 256/1073/289
f 260/1074/290 262/1075/290 263/1076/290 261/1077/290
f 261/1078/291 263/1079/291 257/1080/291
f 264/1081/292 262/1082/292 256/1083/292
f 262/1084/293 264/1085/293 265/1086/293 263/1087/293
f 263/1088/294 265/1089/294 257/1090/294
f 266/1091/295 264/1092/295 256/1093/295
f 264/1094/296 266/1095/296 267/1096/296 265/1097/296
f 265/1098/297 267/1099/297 257/1100/297
f 268/1101/298 266/1102/298 256/1103/298
f 266/1104/299 268/1105/299 269/1106/299 267/1107/299
f 267/1108/300 269/1109/300 257/1110/300
f 270/1111/301 268/1112/301 256/1113/301
f 268/1114/302 270/1115/302 271/1116/302 269/1117/302
f 269/1118/303 271/1119/303 257/1120/303
f 272/1121/304 270/1122/304 256/1123/304
f 270/1124/305 272/1125/305 273/1126/305 271/1127/305
f 271/1128/306 273/1129/306 257/1130/306
f 274/1131/307 272/1132/307 256/1133/307
f 272/1134/308 274/1135/308 275/1136/308 273/1137/308
f 273/1138/309 275/1139/309 257/1140/309
f 276/1141/310 274/1142/310 256/1143/310
f 274/1144/311 276/1145/311 277/1146/311 275/1147/311
f 275/1148/312 277/1149/312 257/1150/312
f 278/1151/313 276/1152/313 256/1153/313
f 276/1154/314 278/1155/314 279/1156/314 277/1157/314
f 277/1158/315 279/1159/315 257/1160/315
f 280/1161/316 278/1162/316 256/1163/316
f 278/1164/317 280/1165/317 281/1166/317 279/1167/317
f 279/1168/318 281/1169/318 257/1170/318
f 258/1171/319 280/1172/319 256/1173/319
f 280/1174/320 258/1175/320 259/1176/320 281/1177/320
f 281/1178/321 259/1179/321 257/1180/321