# Made in Blockbench 5.1.5
mtllib SeriphRightArm.mtl

o cuboid
v 0.825 1.04375 0.109375
v 0.825 1.04375 -0.1171875
v 0.825 0.91875 0.109375
v 0.825 0.91875 -0.1171875
v 0.625 1.04375 0.084375
v 0.625 1.04375 -0.1171875
v 0.625 0.91875 0.084375
v 0.625 0.91875 -0.1171875
v 0.625 0.9937499999999999 -0.1171875
v 0.85 0.9937499999999999 -0.1171875
v 0.85 0.9937499999999999 0.109375
v 0.625 0.9937499999999999 0.084375
v 0.725 0.9937499999999999 -0.1171875
v 0.725 1.04375 -0.1171875
v 0.725 1.04375 0.109375
v 0.725 0.9937499999999999 0.109375
v 0.725 0.91875 0.109375
v 0.725 0.91875 -0.1171875
v 0.85 0.9937499999999999 -0.0421875
v 0.825 0.91875 -0.0421875
v 0.725 0.91875 -0.0421875
v 0.625 0.91875 -0.0421875
v 0.625 0.9937499999999999 -0.0421875
v 0.625 1.04375 -0.0421875
v 0.725 1.04375 -0.0421875
v 0.825 1.04375 -0.0421875
v 0.625 0.8812499999999999 -0.1484375
v 0.725 0.8812499999999999 -0.1484375
v 0.725 0.8812499999999999 -0.0421875
v 0.625 0.8812499999999999 -0.0421875
v 0.68125 0.91875 -0.0421875
v 0.68125 0.91875 0.109375
v 0.68125 0.9937499999999999 0.109375
v 0.68125 1.04375 0.109375
v 0.68125 1.04375 -0.0421875
v 0.68125 1.04375 -0.1171875
v 0.68125 0.9937499999999999 -0.1171875
v 0.68125 0.8812499999999999 -0.1484375
v 0.68125 0.8812499999999999 -0.0421875
v 0.725 0.8937499999999998 -0.1171875
v 0.8171875 0.8937499999999998 -0.0421875
v 0.725 0.8937499999999998 -0.0421875
v 0.8171875 0.8937499999999998 -0.1171875
v 0.8171875 0.8937499999999998 0.109375
v 0.725 0.8937499999999998 0.109375
v 0.68125 0.8937499999999998 -0.0421875
v 0.68125 0.8937499999999998 0.109375
v -0.825 1.04375 0.109375
v -0.825 1.04375 -0.1171875
v -0.825 0.91875 0.109375
v -0.825 0.91875 -0.1171875
v -0.625 1.04375 0.084375
v -0.625 1.04375 -0.1171875
v -0.625 0.91875 0.084375
v -0.625 0.91875 -0.1171875
v -0.625 0.9937499999999999 -0.1171875
v -0.85 0.9937499999999999 -0.1171875
v -0.85 0.9937499999999999 0.109375
v -0.625 0.9937499999999999 0.084375
v -0.725 0.9937499999999999 -0.1171875
v -0.725 1.04375 -0.1171875
v -0.725 1.04375 0.109375
v -0.725 0.9937499999999999 0.109375
v -0.725 0.91875 0.109375
v -0.725 0.91875 -0.1171875
v -0.85 0.9937499999999999 -0.0421875
v -0.825 0.91875 -0.0421875
v -0.725 0.91875 -0.0421875
v -0.625 0.91875 -0.0421875
v -0.625 0.9937499999999999 -0.0421875
v -0.625 1.04375 -0.0421875
v -0.725 1.04375 -0.0421875
v -0.825 1.04375 -0.0421875
v -0.625 0.8812499999999999 -0.1484375
v -0.725 0.8812499999999999 -0.1484375
v -0.725 0.8812499999999999 -0.0421875
v -0.625 0.8812499999999999 -0.0421875
v -0.68125 0.91875 -0.0421875
v -0.68125 0.91875 0.109375
v -0.68125 0.9937499999999999 0.109375
v -0.68125 1.04375 0.109375
v -0.68125 1.04375 -0.0421875
v -0.68125 1.04375 -0.1171875
v -0.68125 0.9937499999999999 -0.1171875
v -0.68125 0.8812499999999999 -0.1484375
v -0.68125 0.8812499999999999 -0.0421875
v -0.725 0.8937499999999998 -0.1171875
v -0.8171875 0.8937499999999998 -0.0421875
v -0.725 0.8937499999999998 -0.0421875
v -0.8171875 0.8937499999999998 -0.1171875
v -0.8171875 0.8937499999999998 0.109375
v -0.725 0.8937499999999998 0.109375
v -0.68125 0.8937499999999998 -0.0421875
v -0.68125 0.8937499999999998 0.109375
vt 0.35634765625 0.59128125
vt 0.35634765625 0.58139921875
vt 0.36572265625 0.58139921875
vt 0.36572265625 0.59128125
vt 0.0703125 0.6703125
vt 0.0828125 0.6703125
vt 0.0828125 0.6796875
vt 0.0703125 0.6796875
vt 0.19208984375 0.6109375
vt 0.18056640625 0.6109375
vt 0.18056640625 0.6015625
vt 0.19208984375 0.6015625
vt 0.287890625 0.603125
vt 0.287890625 0.59375
vt 0.300390625 0.59375
vt 0.303515625 0.603125
vt 0.3765625 0.921875
vt 0.3765625 0.93125
vt 0.3609375 0.93125
vt 0.3640625 0.921875
vt 0.27998046875 0.6484375
vt 0.27998046875 0.6578125
vt 0.27060546875 0.6578125
vt 0.27060546875 0.6484375
vt 0.3765625 0.93125
vt 0.3765625 0.9375
vt 0.3640625 0.9375
vt 0.3609375 0.93125
vt 0.19228515625 0.515625
vt 0.19228515625 0.5086375000000001
vt 0.20166015625 0.5086375000000001
vt 0.20166015625 0.515625
vt 0.287890625 0.609375
vt 0.287890625 0.603125
vt 0.303515625 0.603125
vt 0.300390625 0.609375
vt 0.27998046875 0.6578125
vt 0.27998046875 0.6640625
vt 0.27060546875 0.6640625
vt 0.27060546875 0.6578125
vt 0.38203125 0.9375
vt 0.38203125 0.93125
vt 0.3890625 0.93125
vt 0.3890625 0.9375
vt 0.06484375 0.6703125
vt 0.06484375 0.6796875
vt 0.0578125 0.6796875
vt 0.0578125 0.6703125
vt 0.35144453125 0.4546875
vt 0.35144453125 0.4609375
vt 0.34375 0.4609375
vt 0.34375 0.4546875
vt 0.35144453125 0.4453125
vt 0.35144453125 0.4546875
vt 0.34375 0.4546875
vt 0.34375 0.4453125
vt 0.32890625 0.484375
vt 0.32890625 0.49765625
vt 0.321875 0.49765625
vt 0.321875 0.484375
vt 0.49921875 0.7890625
vt 0.49921875 0.7744671875
vt 0.50625 0.7744671875
vt 0.50625 0.7890625
vt 0.35634765625 0.58139921875
vt 0.35634765625 0.59128125
vt 0.33740234375 0.59128125
vt 0.33740234375 0.58139921875
vt 0.18056640625 0.6109375
vt 0.19208984375 0.6109375
vt 0.19208984375 0.6298828125
vt 0.18056640625 0.6298828125
vt 0.15625 0.453125
vt 0.15625 0.46875
vt 0.1484375 0.46562499999999996
vt 0.1484375 0.453125
vt 0.27998046875 0.6578125
vt 0.27998046875 0.6484375
vt 0.29580078125 0.6484375
vt 0.29580078125 0.6578125
vt 0.27998046875 0.6640625
vt 0.27998046875 0.6578125
vt 0.29580078125 0.6578125
vt 0.29580078125 0.6640625
vt 0.06484375 0.6513671875
vt 0.06484375 0.6703125
vt 0.0578125 0.6703125
vt 0.0578125 0.6544921875
vt 0.0828125 0.6703125
vt 0.0703125 0.6703125
vt 0.0703125 0.6513671875
vt 0.0828125 0.6513671875
vt 0.19228515625 0.5086375000000001
vt 0.19228515625 0.515625
vt 0.17333984375 0.515625
vt 0.17333984375 0.5086375000000001
vt 0.494921875 0.5140625
vt 0.498828125 0.509375
vt 0.494921875 0.5234375
vt 0.27060546875 0.6578125
vt 0.26669921875 0.64375
vt 0.27060546875 0.6484375
vt 0.27060546875 0.6484375
vt 0.26669921875 0.64375
vt 0.27998046875 0.64375
vt 0.27998046875 0.6484375
vt 0.20390625 0.40156250000000004
vt 0.20390625 0.40625
vt 0.196875 0.40625
vt 0.196875 0.40156250000000004
vt 0.485546875 0.5140625
vt 0.485546875 0.509375
vt 0.498828125 0.509375
vt 0.494921875 0.5140625
vt 0.17509765625 0.6298828125
vt 0.17509765625 0.6109375
vt 0.18056640625 0.6109375
vt 0.18056640625 0.6298828125
vt 0.282421875 0.603125
vt 0.282421875 0.59375
vt 0.287890625 0.59375
vt 0.287890625 0.603125
vt 0.282421875 0.609375
vt 0.282421875 0.603125
vt 0.287890625 0.603125
vt 0.287890625 0.609375
vt 0.06484375 0.6703125
vt 0.06484375 0.6513671875
vt 0.0703125 0.6513671875
vt 0.0703125 0.6703125
vt 0.06484375 0.6796875
vt 0.06484375 0.6703125
vt 0.0703125 0.6703125
vt 0.0703125 0.6796875
vt 0.38203125 0.93125
vt 0.38203125 0.9375
vt 0.3765625 0.9375
vt 0.3765625 0.93125
vt 0.49921875 0.7744671875
vt 0.49921875 0.7890625
vt 0.49375 0.7890625
vt 0.49375 0.7744671875
vt 0.32890625 0.49765625
vt 0.32890625 0.484375
vt 0.334375 0.484375
vt 0.334375 0.49765625
vt 0.20390625 0.40625
vt 0.20390625 0.40156250000000004
vt 0.209375 0.40156250000000004
vt 0.209375 0.40625
vt 0.5703125 0.96875
vt 0.5703125 0.9609375
vt 0.578125 0.9609375
vt 0.578125 0.96875
vt 0.35634765625 0.58139921875
vt 0.35634765625 0.578125
vt 0.36572265625 0.578125
vt 0.36572265625 0.58139921875
vt 0.3640625 0.921875
vt 0.3650390625 0.91875
vt 0.3765625 0.91875
vt 0.3765625 0.921875
vt 0.33740234375 0.58139921875
vt 0.33740234375 0.578125
vt 0.35634765625 0.578125
vt 0.35634765625 0.58139921875
vt 0.287890625 0.59375
vt 0.287890625 0.590625
vt 0.2994140625 0.590625
vt 0.300390625 0.59375
vt 0.5703125 0.9375
vt 0.5703125 0.9296875
vt 0.578125 0.9296875
vt 0.578125 0.9375
vt 0.1640625 0.46875
vt 0.1640625 0.4609375
vt 0.1796875 0.4609375
vt 0.1796875 0.46875
vt 0.282421875 0.59375
vt 0.282421875 0.590625
vt 0.287890625 0.590625
vt 0.287890625 0.59375
vn 0.9486832980505137 -0.3162277660168384 0
vn 0 1 0
vn 0 -1 0
vn 0 0 1
vn 0 0 -1
vn -1 0 0
vn 0 0 -1
vn 0.8944271909999161 0.44721359549995804 0
vn 0 0 1
vn -1 0 0
vn 0 0 -1
vn 0 1 0
vn -0.4061384660534474 0 0.9138115486202573
vn -0.40613846605344744 0 0.9138115486202574
vn 0 -1 0
vn 0 0.26764386378609456 -0.9635179096299407
vn 0.9486832980505137 -0.3162277660168384 0
vn 0 -1 0
vn 0 -1 0
vn -1 0 0
vn -1 0 0
vn 0 1 0
vn 0 1 0
vn 0.894427190999916 0.447213595499958 0
vn 1 0 0
vn -1 0 0
vn -1 0 0
vn 0 0 1
vn 1 0 0
vn 0 -1 0
vn 0 0 1
vn 0 0 1
vn 0 1 0
vn 0 1 0
vn 0 0 -1
vn 0 0.26764386378609456 -0.9635179096299407
vn 0 -1 0
vn 0 0 1
vn -1 0 0
vn 0.9544799780350304 -0.2982749931359454 0
vn 0 0 -1
vn 0.9544799780350303 -0.29827499313594535 0
vn 0 0 1
vn 0 0 -1
vn -1 0 0
vn 0 0 1
usemtl m_760b25d0-8ffc-19f6-35fe-305143ee9831
f 19/1/1 20/2/1 4/3/1 10/4/1
f 25/5/2 26/6/2 2/7/2 14/8/2
f 41/9/3 42/10/3 40/11/3 43/12/3
f 16/13/4 17/14/4 3/15/4 11/16/4
f 18/17/5 13/18/5 10/19/5 4/20/5
f 22/21/6 23/22/6 9/23/6 8/24/6
f 13/25/7 14/26/7 2/27/7 10/28/7
f 26/29/8 19/30/8 10/31/8 2/32/8
f 15/33/9 16/34/9 11/35/9 1/36/9
f 23/37/10 24/38/10 6/39/10 9/40/10
f 36/41/11 37/42/11 9/43/11 6/44/11
f 35/45/12 36/46/12 6/47/12 24/48/12
f 33/49/13 34/50/13 5/51/13 12/52/13
f 32/53/14 33/54/14 12/55/14 7/56/14
f 38/57/15 39/58/15 30/59/15 27/60/15
f 37/61/16 38/62/16 27/63/16 9/64/16
f 20/65/17 19/66/17 11/67/17 3/68/17
f 42/69/18 41/70/18 44/71/18 45/72/18
f 31/73/19 32/74/19 7/75/19 22/76/19
f 23/77/20 22/78/20 7/79/20 12/80/20
f 24/81/21 23/82/21 12/83/21 5/84/21
f 34/85/22 35/86/22 24/87/22 5/88/22
f 26/89/23 25/90/23 15/91/23 1/92/23
f 19/93/24 26/94/24 1/95/24 11/96/24
f 18/97/25 28/98/25 13/99/25
f 9/100/26 27/101/26 8/102/26
f 8/103/27 27/104/27 30/105/27 22/106/27
f 39/107/28 31/108/28 22/109/28 30/110/28
f 21/111/29 29/112/29 28/113/29 18/114/29
f 47/115/30 46/116/30 42/117/30 45/118/30
f 33/119/31 32/120/31 17/121/31 16/122/31
f 34/123/32 33/124/32 16/125/32 15/126/32
f 35/127/33 34/128/33 15/129/33 25/130/33
f 36/131/34 35/132/34 25/133/34 14/134/34
f 37/135/35 36/136/35 14/137/35 13/138/35
f 38/139/36 37/140/36 13/141/36 28/142/36
f 39/143/37 38/144/37 28/145/37 29/146/37
f 31/147/38 39/148/38 29/149/38 21/150/38
f 18/151/39 40/152/39 42/153/39 21/154/39
f 20/155/40 41/156/40 43/157/40 4/158/40
f 4/159/41 43/160/41 40/161/41 18/162/41
f 3/163/42 44/164/42 41/165/42 20/166/42
f 17/167/43 45/168/43 44/169/43 3/170/43
f 21/171/44 42/172/44 46/173/44 31/174/44
f 31/175/45 46/176/45 47/177/45 32/178/45
f 32/179/46 47/180/46 45/181/46 17/182/46
o Forearm
v 0.6187499999999999 1.1500000000000001 -0.10000000000000002
v 0.6187499999999999 1.1500000000000001 0.09999999999999999
v 0.6187499999999999 0.9437500000000001 -0.09999999999999999
v 0.6187499999999999 0.9437500000000001 0.10000000000000002
v 0.38749999999999996 1.1812500000000001 -0.11875000000000001
v 0.38749999999999996 1.1812500000000001 0.11874999999999998
v 0.38749999999999996 0.9437500000000001 -0.11874999999999998
v 0.38749999999999996 0.9437500000000001 0.11875000000000001
v 0.6187499999999999 1.0562500000000001 -0.1
v 0.38749999999999996 1.0718750000000001 -0.11875
v 0.38749999999999996 1.0718750000000001 0.11875
v 0.6187499999999999 1.0562500000000001 0.1
v 0.725 1.13125 -0.08750000000000001
v 0.725 1.0562500000000001 0.0875
v 0.725 1.0562500000000001 -0.0875
v 0.725 1.13125 0.08749999999999998
v 0.38749999999999996 1.1539062500000001 0.09687499999999999
v 0.38749999999999996 1.0718750000000001 -0.096875
v 0.38749999999999996 1.0718750000000001 0.096875
v 0.38749999999999996 1.1539062500000001 -0.09687500000000002
v 0.38749999999999996 0.9710937500000001 -0.09687499999999999
v 0.38749999999999996 0.9710937500000001 0.09687500000000002
v 0.4375 1.1414062500000002 0.07812499999999999
v 0.43749999999999994 1.0718750000000001 -0.078125
v 0.43749999999999994 1.0718750000000001 0.078125
v 0.4375 1.1414062500000002 -0.07812500000000001
v 0.43749999999999994 0.9929687500000001 -0.07812499999999999
v 0.43749999999999994 0.9929687500000002 0.07812500000000001
v 0.7999999999999999 1.0562500000000001 3.3486435914185827e-19
v 0.7999999999999999 1.125 -8.084582384996194e-18
v 0.38749999999999996 1.1812500000000001 -1.4973220630200065e-17
v 0.38749999999999996 1.1539062500000001 -1.1624577038781519e-17
v 0.4375 1.1414062500000002 -1.0093768539847327e-17
v 0.43749999999999994 1.0718750000000001 -1.5786462645258865e-18
v 0.43749999999999994 0.9929687500000001 8.084582384996197e-18
v 0.38749999999999996 0.9710937500000001 1.0763497258131033e-17
v 0.38749999999999996 0.9437500000000001 1.4112140849549573e-17
v 0.6187499999999999 0.9437500000000001 1.4112140849549577e-17
v 0.6187499999999999 1.0562500000000001 3.348643591418556e-19
v 0.6187499999999999 1.175 -0.07500000000000001
v 0.6187499999999999 1.175 -1.4207816380732965e-17
v 0.4453125 1.1984375 -1.7078082316234576e-17
v 0.4453125 1.1984375 -0.08671875000000001
v 0.4453125 1.1984375 0.08671874999999998
v 0.6187499999999999 1.175 0.07499999999999998
v 0.7546875 1.15625 -1.1911603632331674e-17
v 0.7078125 1.16015625 0.06718749999999998
v 0.7078125 1.16015625 -0.06718750000000001
v 0.44675374999999995 1.132195 -0.11406250000000001
v 0.6176231249999999 1.078648125 -0.1
v 0.444423125 1.087725 -0.1140625
v 0.61995375 1.123118125 -0.10000000000000002
v 0.7237275 1.0730875 -0.0875
v 0.726058125 1.1175575 -0.08750000000000001
v 0.7986249999999999 1.069161875 -1.246384279832215e-18
v 0.800955625 1.1136325 -6.692465136065441e-18
v 0.61995375 1.1231181250000002 0.09999999999999999
v 0.444423125 1.087725 0.1140625
v 0.6176231249999999 1.0786481250000002 0.1
v 0.44675374999999995 1.132195 0.11406249999999998
v 0.726058125 1.1175575 0.08749999999999998
v 0.7237275 1.0730875 0.0875
v 0.458041875 1.1159568750000002 -0.194821875
v 0.633245 1.093475625 -0.18422875
v 0.45734687499999993 1.102694375 -0.194821875
v 0.63394 1.10673875 -0.18422875
v 0.7901624999999999 1.085251875 -0.155811875
v 0.7908575 1.0985150000000001 -0.155811875
v 0.913175 1.078805 -2.4273264963349953e-18
v 0.91387 1.092068125 -4.05159085412912e-18
v 0.63394 1.10673875 0.18422875
v 0.45734687499999993 1.102694375 0.194821875
v 0.633245 1.0934756250000002 0.18422875
v 0.458041875 1.1159568750000002 0.194821875
v 0.7908575 1.0985150000000001 0.155811875
v 0.7901624999999999 1.085251875 0.155811875
vt 0.1796875 0.671875
vt 0.1875 0.671875
vt 0.1875 0.6953125
vt 0.1796875 0.6953125
vt 0.43359375 0.8203125
vt 0.43359375 0.81162109375
vt 0.443359375 0.81162109375
vt 0.443359375 0.8203125
vt 0.20703125 0.6890609375000001
vt 0.20703125 0.7109375
vt 0.19619140625 0.7109375
vt 0.19765625 0.6890609375000001
vt 0.296875 0.88828125
vt 0.296875 0.859375
vt 0.309375 0.859375
vt 0.31171875 0.88828125
vt 0.53024640625 0.993234375
vt 0.55227296875 0.99438671875
vt 0.55218625 0.99604453125
vt 0.5301596875 0.9948921875
vt 0.51022703125 0.885011640625
vt 0.53225359375 0.883859296875
vt 0.5323403125 0.885517109375
vt 0.51031375 0.886669453125
vt 0.271253671875 0.89882890625
vt 0.242252109375 0.89687578125
vt 0.242252109375 0.8828125
vt 0.271253671875 0.8828125
vt 0.43359375 0.81162109375
vt 0.43359375 0.80175703125
vt 0.443359375 0.80175703125
vt 0.443359375 0.81162109375
vt 0.259933359375 0.859375234375
vt 0.230931796875 0.861328359375
vt 0.230931796875 0.845311953125
vt 0.259933359375 0.845311953125
vt 0.2890625 0.56406171875
vt 0.2890625 0.578125
vt 0.2765625 0.578125
vt 0.2765625 0.56406171875
vt 0.5301596875 0.994892109375
vt 0.51022703125 0.993846015625
vt 0.51031375 0.9921875
vt 0.53024640625 0.993234375
vt 0.023046875 0.6296875
vt 0.000390625 0.6296875
vt 0.009765625 0.61875
vt 0.023046875 0.6171875
vt 0.53225359375 0.883859375
vt 0.55218625 0.8828125
vt 0.55227296875 0.884471015625
vt 0.5323403125 0.885517109375
vt 0.20703125 0.6719078125
vt 0.20703125 0.6890609375000001
vt 0.19765625 0.6890609375000001
vt 0.1986328125 0.6777789062499999
vt 0.31171875 1
vt 0.308984375 0.99658203125
vt 0.308984375 0.986328125
vt 0.31171875 0.986328125
vt 0.28203125 0.986328125
vt 0.284765625 0.986328125
vt 0.284765625 0.99658203125
vt 0.28203125 1
vt 0.296875 1
vt 0.296875 0.99658203125
vt 0.308984375 0.99658203125
vt 0.31171875 1
vt 0.28203125 0.97031171875
vt 0.284765625 0.9737296875
vt 0.284765625 0.986328125
vt 0.28203125 0.986328125
vt 0.31171875 0.986328125
vt 0.308984375 0.986328125
vt 0.308984375 0.9737296875
vt 0.31171875 0.97031171875
vt 0.296875 0.9737296875
vt 0.296875 0.97031171875
vt 0.31171875 0.97031171875
vt 0.308984375 0.9737296875
vt 0.421875 0.4921875
vt 0.4152 0.490625
vt 0.4152 0.48193359375
vt 0.421875 0.48193359375
vt 0.3984375 0.48193359375
vt 0.4051125 0.48193359375
vt 0.4051125 0.490625
vt 0.3984375 0.4921875
vt 0.5234375 0.8580046875
vt 0.5234375 0.8515625
vt 0.533203125 0.8515625
vt 0.535546875 0.8580046875
vt 0.3984375 0.46933515625
vt 0.4051125 0.47206953124999995
vt 0.4051125 0.48193359375
vt 0.3984375 0.48193359375
vt 0.421875 0.48193359375
vt 0.4152 0.48193359375
vt 0.4152 0.47206953124999995
vt 0.421875 0.46933515625
vt 0.515625 0.65625
vt 0.515625 0.649428125
vt 0.527734375 0.649428125
vt 0.525390625 0.65625
vt 0.4921875 0.96875
vt 0.4921875 0.9609375
vt 0.515625 0.9609375
vt 0.515625 0.96875
vt 0.20703125 0.6890609375000001
vt 0.20703234375 0.6719076562499999
vt 0.215436640625 0.677779296875
vt 0.216399765625 0.6890609375000001
vt 0.20703125 0.7109375
vt 0.20703125 0.6890609375000001
vt 0.21640625 0.6890609375000001
vt 0.21787109375 0.7109375
vt 0.296875 0.99658203125
vt 0.296875 1
vt 0.28203125 1
vt 0.284765625 0.99658203125
vt 0.5234375 0.8515625
vt 0.5234375 0.8580046875
vt 0.511328125 0.8580046875
vt 0.513671875 0.8515625
vt 0.43359375 0.81162109375
vt 0.43359375 0.8203125
vt 0.423828125 0.8203125
vt 0.423828125 0.81162109375
vt 0.43359375 0.80175703125
vt 0.43359375 0.81162109375
vt 0.423828125 0.81162109375
vt 0.423828125 0.80175703125
vt 0.515625 0.649428125
vt 0.515625 0.65625
vt 0.505859375 0.65625
vt 0.503515625 0.649428125
vt 0.296875 0.97031171875
vt 0.296875 0.9737296875
vt 0.284765625 0.9737296875
vt 0.28203125 0.97031171875
vt 0.296875 0.859375
vt 0.296875 0.88828125
vt 0.28203125 0.88828125
vt 0.284375 0.859375
vt 0.2890625 0.578125
vt 0.2890625 0.56406171875
vt 0.3015625 0.56406171875
vt 0.3015625 0.578125
vt 0.000390625 0.6296875
vt 0.023046875 0.6296875
vt 0.023046875 0.6421875
vt 0.009765625 0.640625
vt 0.4921875 0.58621015625
vt 0.4921875 0.59375
vt 0.48134765625 0.59375
vt 0.47734375 0.58621015625
vt 0.135803671875 0.6218078125
vt 0.127886484375 0.625
vt 0.106397421875 0.6206476562500001
vt 0.107067734375 0.6162867187500001
vt 0.50703125 0.58621015625
vt 0.50302734375 0.59375
vt 0.4921875 0.59375
vt 0.4921875 0.58621015625
vt 0.40853015625 0.66339765625
vt 0.40915046875 0.6677734375
vt 0.3876121875 0.671875
vt 0.3797340625 0.6685992187500001
vt 0.33026859375 0.430909296875
vt 0.3359375 0.434808203125
vt 0.33510140625 0.44502617187500004
vt 0.33026859375 0.4453125
vt 0.421875 0.66093
vt 0.4202628125 0.665568515625
vt 0.40915046875 0.6677734375
vt 0.4085325 0.663414453125
vt 0.522203828125 0.453125
vt 0.52186953125 0.46021140625
vt 0.5116434375 0.4609375
vt 0.5078125 0.453125
vt 0.107068828125 0.616279765625
vt 0.106397421875 0.6206476562500001
vt 0.095311953125 0.618315
vt 0.09375 0.6136734374999999
vt 0.271253671875 0.91250078125
vt 0.263823203125 0.90636875
vt 0.264113828125 0.9008101562499999
vt 0.271253671875 0.89882890625
vt 0.271253671875 0.89882890625
vt 0.264113828125 0.9008101562499999
vt 0.242392734375 0.89967578125
vt 0.242252109375 0.89687578125
vt 0.24225140625 0.908595625
vt 0.24210125 0.9052354687499999
vt 0.263823203125 0.90636875
vt 0.271253203125 0.912500390625
vt 0.228878125 0.906255625
vt 0.228746328125 0.904543984375
vt 0.24210125 0.9052354687499999
vt 0.24225140625 0.908595625
vt 0.242252109375 0.89687578125
vt 0.242392734375 0.89967578125
vt 0.2290378125 0.89898421875
vt 0.228879453125 0.89687953125
vt 0.428459609375 0.404146171875
vt 0.428634609375 0.40625
vt 0.414229375 0.40625
vt 0.4140625 0.40463601562499996
vt 0.484500859375 0.46064734375000005
vt 0.484375 0.453125
vt 0.498780234375 0.453125
vt 0.498924609375 0.4609375
vt 0.259932578125 0.859375234375
vt 0.259791953125 0.862175234375
vt 0.238070859375 0.863309609375
vt 0.230931796875 0.861328359375
vt 0.230931015625 0.861328125
vt 0.238070859375 0.863309609375
vt 0.238361328125 0.8688689843749999
vt 0.230930625 0.875
vt 0.230930703125 0.874999921875
vt 0.238361328125 0.8688689843749999
vt 0.260082578125 0.867737734375
vt 0.25993203125 0.871097890625
vt 0.273306015625 0.8593790625
vt 0.273146796875 0.861483671875
vt 0.259791953125 0.862175234375
vt 0.259932578125 0.8593753125
vt 0.25993203125 0.8710978125
vt 0.260082578125 0.867737734375
vt 0.2734375 0.867047421875
vt 0.273305625 0.868759140625
vt 0.4453125 0.40625
vt 0.4436015625 0.406105625
vt 0.4436015625 0.39169960937500004
vt 0.44502234375 0.39182625000000004
vt 0.43017578125 0.446365234375
vt 0.4375 0.44653140625
vt 0.4375 0.4609375
vt 0.4296875 0.46076242187500005
vt 0.609375 0.765625
vt 0.598981484375 0.765625
vt 0.598669921875 0.763994296875
vt 0.608328984375 0.760158359375
vt 0.21591140625 0.88778234375
vt 0.213198515625 0.89781484375
vt 0.191484921875 0.893936796875
vt 0.1945815625 0.883520390625
vt 0.273655625 0.76010546875
vt 0.2754384375 0.74938515625
vt 0.29665484375 0.75541875
vt 0.2946946875 0.765625
vt 0.2606090625 0.7571759375
vt 0.25573390625 0.746201640625
vt 0.2754384375 0.74938515625
vt 0.273655859375 0.7601040625
vt 0.194581796875 0.883519609375
vt 0.191484921875 0.893936796875
vt 0.172378671875 0.888159453125
vt 0.181570859375 0.880434453125
vt 0.1815715625 0.88043390625
vt 0.172378671875 0.888159453125
vt 0.15908859375 0.8671875
vt 0.173390625 0.868577109375
vt 0.248058125 0.764245078125
vt 0.23459515625 0.759223515625
vt 0.25573390625 0.746201640625
vt 0.26060875 0.757175234375
vt 0.18809953125 0.984299765625
vt 0.19096765625 0.994781640625
vt 0.16917390625 0.99818203125
vt 0.166681875 0.988091875
vt 0.5546875 0.6640625
vt 0.565080390625 0.6640625
vt 0.565392734375 0.668038828125
vt 0.555733046875 0.671875
vt 0.26771890625 0.8359375
vt 0.265868125 0.8257109375
vt 0.28714703125 0.8199046875
vt 0.288815 0.83064296875
vt 0.2011746875 0.981498046875
vt 0.210195 0.989423828125
vt 0.19096765625 0.994781640625
vt 0.1880996875 0.984300390625
vt 0.288815078125 0.830643359375
vt 0.28714703125 0.8199046875
vt 0.306884765625 0.8169328124999999
vt 0.301892265625 0.8278525
vt 0.30189171875 0.827853828125
vt 0.306884765625 0.8169328124999999
vt 0.327881875 0.830181484375
vt 0.314365625 0.835058125
vt 0.209614140625 0.96982390625
vt 0.223943125 0.96875
vt 0.210195 0.989423828125
vt 0.201175078125 0.9814984375
vn 0.7833867651277132 -0.04105019003920734 0.6201774408348649
vn -1 1.2246467991473532e-16 -1.4997597826618576e-32
vn 0.13391789600139525 0.9909924304103235 -1.2136157078812589e-16
vn -1.2246467991473532e-16 -1 1.2246467991473532e-16
vn 0.05994980551134301 -0.0031415732200102057 -0.9981964492708114
vn 0.059949813248846795 -0.003141425584690429 0.9981964492707457
vn 0.08081586876605475 -1.3196119333954875e-16 -0.996729048114676
vn -1 1.2246467991473532e-16 -1.4997597826618576e-32
vn 0.08081586876605476 1.1216701433861643e-16 0.9967290481146759
vn 1 -1.2246467991473532e-16 1.4997597826618576e-32
vn 0.1777156546856713 -0.009312464446089632 -0.9840378163899921
vn -1.2246467991473532e-16 -1 1.2246467991473532e-16
vn 0.17771565468567135 -0.009312464446089394 0.9840378163899921
vn 0.13663739713703116 0.9906211292434749 -1.213160995095758e-16
vn -1 1.2246467991473532e-16 -1.4997597826618576e-32
vn -1 1.2246467991473532e-16 -1.4997597826618576e-32
vn -1 1.2246467991473532e-16 -1.4997597826618576e-32
vn -1 1.2246467991473532e-16 -1.4997597826618576e-32
vn -1 1.2246467991473532e-16 -1.4997597826618576e-32
vn -1 1.2246467991473532e-16 -1.4997597826618576e-32
vn -0.3511234415883917 -7.166703314113776e-17 -0.9363291775690445
vn -0.3511234415883917 1.5766747291050307e-16 0.9363291775690445
vn -0.24253562503633302 -0.9701425001453319 1.1880819075197913e-16
vn -0.3511234415883917 1.5766747291050304e-16 0.9363291775690444
vn -0.3511234415883917 -7.166703314113775e-17 -0.9363291775690444
vn -0.4008188340197078 0.9161573349021893 -1.121969147703336e-16
vn 0.7833867651277132 -0.04105019003920749 -0.6201774408348649
vn 0.13654022414168507 0.9899166250272159 -0.03770732934145379
vn 0.13391789600139525 0.9909924304103234 -1.2136157078812586e-16
vn -1 1.2246467991473532e-16 -1.4997597826618576e-32
vn -0.24253562503633302 -0.970142500145332 1.1880819075197915e-16
vn -1 1.2246467991473532e-16 -1.4997597826618576e-32
vn -1 1.2246467991473532e-16 -1.4997597826618576e-32
vn -0.4008188340197078 0.9161573349021892 -1.1219691477033357e-16
vn -1 1.2246467991473532e-16 -1.4997597826618576e-32
vn -1.2246467991473532e-16 -1 1.2246467991473532e-16
vn 1 -1.2246467991473532e-16 1.4997597826618576e-32
vn -1.2246467991473532e-16 -1 1.2246467991473532e-16
vn -0.28497026808296194 0.9585363562790538 -1.17386848058351e-16
vn 0.14436248407760385 0.739580110736031 -0.6574045428764725
vn -0.2849702680829619 0.9585363562790536 -1.17386848058351e-16
vn 0.1418824351053677 0.6999533465198134 0.6999533465198128
vn 0.5361544693671741 0.7774239805824018 0.32886218905951653
vn 0.17168983045507138 0.6327088196399848 0.755117309871841
vn 0.633445069613246 0.6602211293191197 -0.40355347128138563
vn 0.17703673135397646 0.6959374956673553 -0.6959374956673551
vn 0.07560166424742057 -0.003962202130349667 -0.997130226859711
vn 0.08110672408945911 0.0034813863777567104 -0.996699342458078
vn 0.08111453492958579 0.003632247431456535 -0.9966981684551015
vn 0.11746378633640328 0.009077332037042472 -0.9930356795919295
vn 0.11730242490661939 0.005901617660703456 -0.9930787038397381
vn 0.7597140137317178 0.05741565448989425 -0.6477175773121651
vn 0.7595590312019012 0.06385340657069072 -0.6472965476417649
vn 0.08113781693676643 0.0040821353332308455 0.996694532358765
vn 0.08327633538529922 -0.004364423412578304 0.9965169360191884
vn 0.08106508187671213 0.0026776966137396874 0.9967052134112506
vn 0.11745362190429286 0.00887659889373199 0.993038696473427
vn 0.11726923190478235 0.005251227375522914 0.9930862761409569
vn 0.7596853112196466 0.0587067387207802 0.6476355045439363
vn 0.7589990805764253 0.08082666040312146 0.6460552968997465
vn -0.9875659901669163 0.05175180872128252 -0.14844246481284934
vn -0.040088790277147235 -0.9812919904144344 -0.18830538612209843
vn 0.06231381727159207 0.981592424906565 -0.18053614469986998
vn 0.08585705385570881 0.9778029250926444 -0.19112824486058136
vn -0.01954451224579321 -0.9840429658350867 -0.17685432828053946
vn 0.07694460725290848 -0.9918262546365575 -0.1017851071046957
vn 0.18651571871120978 0.9766249105736684 -0.10684414219139644
vn -0.04063211582170333 -0.9827290846297141 0.18053414465606185
vn -0.987565548967795 0.05175178560095152 0.14844540807667583
vn 0.06270376684166548 0.980107102764281 0.18830375656070464
vn -0.01682303168351111 -0.9814217767391236 0.19112373412843722
vn 0.08342402948803411 0.9806948084194693 0.1768562242135687
vn 0.18020111268499125 0.9783490540460381 0.10178746206833986
vn 0.08340579080985497 -0.9907714913234973 0.10684252917259032
usemtl m_760b25d0-8ffc-19f6-35fe-305143ee9831
f 163/183/47 164/184/47 169/185/47 170/186/47
f 127/187/48 128/188/48 119/189/48 117/190/48
f 135/191/49 136/192/49 138/193/49 139/194/49
f 131/195/50 132/196/50 98/197/50 102/198/50
f 158/199/51 159/200/51 157/201/51 160/202/51
f 166/203/52 167/204/52 165/205/52 168/206/52
f 104/207/53 103/208/53 97/209/53 101/210/53
f 128/211/54 129/212/54 122/213/54 119/214/54
f 106/215/55 105/216/55 102/217/55 98/218/55
f 132/219/56 133/220/56 106/221/56 98/222/56
f 160/223/57 162/224/57 161/225/57 158/226/57
f 133/227/58 123/228/58 108/229/58 106/230/58
f 167/231/59 170/232/59 169/233/59 165/234/59
f 140/235/60 135/236/60 139/237/60 141/238/60
f 100/239/61 111/240/61 113/241/61 105/242/61
f 104/243/62 112/244/62 114/245/62 99/246/62
f 125/247/63 126/248/63 111/249/63 100/250/63
f 101/251/64 115/252/64 112/253/64 104/254/64
f 105/255/65 113/256/65 116/257/65 102/258/65
f 130/259/66 131/260/66 102/261/66 116/262/66
f 111/263/67 117/264/67 119/265/67 113/266/67
f 112/267/68 118/268/68 120/269/68 114/270/68
f 126/271/69 127/272/69 117/273/69 111/274/69
f 115/275/70 121/276/70 118/277/70 112/278/70
f 113/279/71 119/280/71 122/281/71 116/282/71
f 129/283/72 130/284/72 116/285/72 122/286/72
f 164/287/73 163/288/73 161/289/73 162/290/73
f 135/291/74 140/292/74 142/293/74 134/294/74
f 136/295/75 135/296/75 134/297/75 137/298/75
f 126/299/76 125/300/76 99/301/76 114/302/76
f 127/303/77 126/304/77 114/305/77 120/306/77
f 128/307/78 127/308/78 120/309/78 118/310/78
f 129/311/79 128/312/79 118/313/79 121/314/79
f 130/315/80 129/316/80 121/317/80 115/318/80
f 131/319/81 130/320/81 115/321/81 101/322/81
f 132/323/82 131/324/82 101/325/82 97/326/82
f 133/327/83 132/328/83 97/329/83 103/330/83
f 123/331/84 133/332/84 103/333/84 109/334/84
f 125/335/85 136/336/85 137/337/85 99/338/85
f 99/339/86 137/340/86 134/341/86 95/342/86
f 100/343/87 138/344/87 136/345/87 125/346/87
f 96/347/88 139/348/88 138/349/88 100/350/88
f 124/351/89 140/352/89 141/353/89 110/354/89
f 110/355/90 141/356/90 139/357/90 96/358/90
f 107/359/91 142/360/91 140/361/91 124/362/91
f 95/363/92 134/364/92 142/365/92 107/366/92
f 99/367/93 143/368/93 145/369/93 104/370/93
f 104/371/94 145/372/94 144/373/94 103/374/94
f 95/375/95 146/376/95 143/377/95 99/378/95
f 107/379/96 148/380/96 146/381/96 95/382/96
f 103/383/97 144/384/97 147/385/97 109/386/97
f 109/387/98 147/388/98 149/389/98 123/390/98
f 124/391/99 150/392/99 148/393/99 107/394/99
f 106/395/100 153/396/100 152/397/100 105/398/100
f 105/399/101 152/400/101 154/401/101 100/402/101
f 100/403/102 154/404/102 151/405/102 96/406/102
f 108/407/103 156/408/103 153/409/103 106/410/103
f 96/411/104 151/412/104 155/413/104 110/414/104
f 110/415/105 155/416/105 150/417/105 124/418/105
f 123/419/106 149/420/106 156/421/106 108/422/106
f 143/423/107 157/424/107 159/425/107 145/426/107
f 145/427/108 159/428/108 158/429/108 144/430/108
f 146/431/109 160/432/109 157/433/109 143/434/109
f 148/435/110 162/436/110 160/437/110 146/438/110
f 144/439/111 158/440/111 161/441/111 147/442/111
f 147/443/112 161/444/112 163/445/112 149/446/112
f 150/447/113 164/448/113 162/449/113 148/450/113
f 153/451/114 167/452/114 166/453/114 152/454/114
f 152/455/115 166/456/115 168/457/115 154/458/115
f 154/459/116 168/460/116 165/461/116 151/462/116
f 156/463/117 170/464/117 167/465/117 153/466/117
f 151/467/118 165/468/118 169/469/118 155/470/118
f 155/471/119 169/472/119 164/473/119 150/474/119
f 149/475/120 163/476/120 170/477/120 156/478/120
o cylinder
v 0.1875 1.01875 0.0625
v 0.1875 1.01875 -0.0625
v 0.234539375 1.03717125 0.0625
v 0.234539375 1.03717125 -0.06249999999999999
v 0.234539375 1.06907875 0.06250000000000001
v 0.234539375 1.06907875 -0.062499999999999986
v 0.21217125 1.0875000000000001 0.06250000000000001
v 0.21217125 1.0875000000000001 -0.062499999999999986
v 0.15657875 1.0875000000000001 0.06250000000000001
v 0.15657875 1.0875000000000001 -0.062499999999999986
v 0.12467125 1.06907875 0.06250000000000001
v 0.12467125 1.06907875 -0.062499999999999986
v 0.10625000000000001 1.03717125 0.0625
v 0.10625000000000001 1.03717125 -0.06249999999999999
v 0.10625000000000001 1.00032875 0.06249999999999999
v 0.10625000000000001 1.00032875 -0.0625
v 0.12467125000000003 0.96842125 0.062499999999999986
v 0.12467125000000003 0.96842125 -0.06250000000000001
v 0.15657875000000002 0.9500000000000001 0.062499999999999986
v 0.15657875000000002 0.9500000000000001 -0.06250000000000001
v 0.21217125000000003 0.9500000000000001 0.062499999999999986
v 0.21217125000000003 0.9500000000000001 -0.06250000000000001
v 0.23453937500000002 0.96842125 0.062499999999999986
v 0.23453937500000002 0.9684212500000001 -0.06250000000000001
v 0.234539375 1.00032875 0.06249999999999999
v 0.234539375 1.00032875 -0.0625
v 0.234539375 1.00032875 0.049999999999999996
v 0.234539375 1.03717125 0.05000000000000001
v 0.234539375 1.03717125 -0.049999999999999996
v 0.234539375 1.00032875 -0.05000000000000001
v 0.234539375 1.061101875 0.05000000000000001
v 0.234539375 1.061101875 -0.049999999999999996
v 0.23453937500000002 0.976398125 0.049999999999999996
v 0.23453937500000002 0.9763981250000001 -0.05000000000000001
v 0.20953937500000003 1.00032875 0.049999999999999996
v 0.209539375 1.03717125 0.05000000000000001
v 0.215789375 1.03717125 -0.049999999999999996
v 0.215789375 1.00032875 -0.05000000000000001
v 0.215789375 1.061101875 0.05000000000000001
v 0.215789375 1.061101875 -0.049999999999999996
v 0.215789375 0.976398125 0.049999999999999996
v 0.215789375 0.9763981250000001 -0.05000000000000001
vt 0.48597890625 0.8441609375
vt 0.48198984375 0.8441609375
vt 0.48828125 0.83828125
vt 0.30159609375 0.40625
vt 0.30159609375 0.390625
vt 0.3046875 0.390625
vt 0.30448984375 0.40625
vt 0.48198984375 0.8042765625
vt 0.48597890625 0.8042765625
vt 0.48828125 0.81015625
vt 0.48198984375 0.8441609375
vt 0.4796875 0.84136484375
vt 0.48828125 0.83828125
vt 0.5 0.484375
vt 0.5 0.46875
vt 0.5078125 0.46875
vt 0.5078125 0.484375
vt 0.4796875 0.80707265625
vt 0.48198984375 0.8042765625
vt 0.48828125 0.81015625
vt 0.4796875 0.84136484375
vt 0.4796875 0.83441640625
vt 0.48828125 0.83828125
vt 0.34375 0.484375
vt 0.34375 0.46875
vt 0.3515625 0.46875
vt 0.3515625 0.484375
vt 0.4796875 0.81402109375
vt 0.4796875 0.80707265625
vt 0.48828125 0.81015625
vt 0.4796875 0.83441640625
vt 0.48198984375 0.83042734375
vt 0.48828125 0.83828125
vt 0.484375 0.484375
vt 0.484375 0.46875
vt 0.4921875 0.46875
vt 0.4921875 0.484375
vt 0.48198984375 0.81801015625
vt 0.4796875 0.81402109375
vt 0.48828125 0.81015625
vt 0.48198984375 0.83042734375
vt 0.48597890625 0.828125
vt 0.48828125 0.83828125
vt 0.5234375 0.7265625
vt 0.5234375 0.7109375
vt 0.53125 0.7109375
vt 0.53125 0.7265625
vt 0.48597890625 0.8203125
vt 0.48198984375 0.81801015625
vt 0.48828125 0.81015625
vt 0.48597890625 0.828125
vt 0.49058359375 0.828125
vt 0.48828125 0.83828125
vt 0.4296875 0.484375
vt 0.4296875 0.46875
vt 0.4375 0.46875
vt 0.4375 0.484375
vt 0.49058359375 0.8203125
vt 0.48597890625 0.8203125
vt 0.48828125 0.81015625
vt 0.49058359375 0.828125
vt 0.49457265625 0.83042734375
vt 0.48828125 0.83828125
vt 0.5234375 0.75
vt 0.5234375 0.734375
vt 0.53125 0.734375
vt 0.53125 0.75
vt 0.49457265625 0.81801015625
vt 0.49058359375 0.8203125
vt 0.48828125 0.81015625
vt 0.49457265625 0.83042734375
vt 0.496875 0.83441640625
vt 0.48828125 0.83828125
vt 0.46875 0.484375
vt 0.46875 0.46875
vt 0.4765625 0.46875
vt 0.4765625 0.484375
vt 0.496875 0.81402109375
vt 0.49457265625 0.81801015625
vt 0.48828125 0.81015625
vt 0.496875 0.83441640625
vt 0.496875 0.84136484375
vt 0.48828125 0.83828125
vt 0.359375 0.484375
vt 0.359375 0.46875
vt 0.3671875 0.46875
vt 0.3671875 0.484375
vt 0.496875 0.80707265625
vt 0.496875 0.81402109375
vt 0.48828125 0.81015625
vt 0.496875 0.84136484375
vt 0.49457265625 0.8441609375
vt 0.48828125 0.83828125
vt 0.515625 0.484375
vt 0.515625 0.46875
vt 0.5234375 0.46875
vt 0.5234375 0.484375
vt 0.49457265625 0.8042765625
vt 0.496875 0.80707265625
vt 0.48828125 0.81015625
vt 0.49457265625 0.8441609375
vt 0.49058359375 0.8441609375
vt 0.48828125 0.83828125
vt 0.551538046875 0.48908671875
vt 0.551538046875 0.4765625
vt 0.554629140625 0.47661125000000004
vt 0.5544321875 0.489087109375
vt 0.49058359375 0.8042765625
vt 0.49457265625 0.8042765625
vt 0.48828125 0.81015625
vt 0.49058359375 0.8441609375
vt 0.48597890625 0.8441609375
vt 0.48828125 0.83828125
vt 0.546933359375 0.48908671875
vt 0.546933359375 0.4765625
vt 0.551538046875 0.4765625
vt 0.551538046875 0.48908671875
vt 0.48597890625 0.8042765625
vt 0.49058359375 0.8042765625
vt 0.48828125 0.81015625
vt 0.49448984375 0.6640625
vt 0.49448984375 0.665625
vt 0.48988515625 0.665625
vt 0.48988515625 0.6640625
vt 0.48988515625 0.6796875
vt 0.48988515625 0.678125
vt 0.49448984375 0.678125
vt 0.49448984375 0.6796875
vt 0.48988515625 0.6640625
vt 0.48988515625 0.665625
vt 0.48689375 0.665625
vt 0.48589609375 0.6640625
vt 0.48589609375 0.6640625
vt 0.48689375 0.665625
vt 0.48689375 0.678125
vt 0.48589609375 0.6796875
vt 0.48589609375 0.6796875
vt 0.48689375 0.678125
vt 0.48988515625 0.678125
vt 0.48988515625 0.6796875
vt 0.49847890625 0.6640625
vt 0.49748125 0.665625
vt 0.49448984375 0.665625
vt 0.49448984375 0.6640625
vt 0.49448984375 0.6796875
vt 0.49448984375 0.678125
vt 0.49748125 0.678125
vt 0.49847890625 0.6796875
vt 0.49847890625 0.6796875
vt 0.49748125 0.678125
vt 0.49748125 0.665625
vt 0.49847890625 0.6640625
vt 0.60386484375 0.60625
vt 0.60386484375 0.609375
vt 0.59926015625 0.609375
vt 0.59926015625 0.60625
vt 0.59926015625 0.49453125
vt 0.59926015625 0.4921875
vt 0.60386484375 0.4921875
vt 0.60386484375 0.49453125
vt 0.59926015625 0.60625
vt 0.59926015625 0.609375
vt 0.59626875 0.60859375
vt 0.59626875 0.60625
vt 0.515625 0.625
vt 0.5234375 0.625
vt 0.5234375 0.640625
vt 0.515625 0.640625
vt 0.59626875 0.49453125
vt 0.59626875 0.4921875
vt 0.59926015625 0.4921875
vt 0.59926015625 0.49453125
vt 0.60685625 0.60625
vt 0.60685625 0.60859375
vt 0.60386484375 0.609375
vt 0.60386484375 0.60625
vt 0.60386484375 0.49453125
vt 0.60386484375 0.4921875
vt 0.60685625 0.4921875
vt 0.60685625 0.49453125
vt 0.5234375 0.6171875
vt 0.515625 0.6171875
vt 0.515625 0.6015625
vt 0.5234375 0.6015625
vn 4.930380657631324e-32 -2.220446049250313e-16 1
vn 0.9675458528161578 -0.2526955138071396 -5.610967552963411e-17
vn -4.930380657631324e-32 2.220446049250313e-16 -1
vn 4.930380657631324e-32 -2.220446049250313e-16 1
vn 0.6357163250192425 0.7719227643385245 1.714012852401857e-16
vn -4.930380657631324e-32 2.220446049250313e-16 -1
vn 4.930380657631324e-32 -2.220446049250313e-16 1
vn -2.220446049250313e-16 1 2.220446049250313e-16
vn -4.930380657631324e-32 2.220446049250313e-16 -1
vn 4.930380657631324e-32 -2.220446049250313e-16 1
vn -0.4999887282941086 0.866031911409066 1.9229771362129577e-16
vn -4.930380657631324e-32 2.220446049250313e-16 -1
vn 4.930380657631324e-32 -2.220446049250313e-16 1
vn -0.8660319114090662 0.4999887282941081 1.1101979964103406e-16
vn -4.930380657631324e-32 2.220446049250313e-16 -1
vn 4.930380657631324e-32 -2.220446049250313e-16 1
vn -1 -2.220446049250313e-16 -4.930380657631324e-32
vn -4.930380657631324e-32 2.220446049250313e-16 -1
vn 4.930380657631324e-32 -2.220446049250313e-16 1
vn -0.866031911409066 -0.49998872829410845 -1.1101979964103413e-16
vn -4.930380657631324e-32 2.220446049250313e-16 -1
vn 4.930380657631324e-32 -2.220446049250313e-16 1
vn -0.4999887282941083 -0.8660319114090662 -1.9229771362129582e-16
vn -4.930380657631324e-32 2.220446049250313e-16 -1
vn 4.930380657631324e-32 -2.220446049250313e-16 1
vn 2.220446049250313e-16 -1 -2.220446049250313e-16
vn -4.930380657631324e-32 2.220446049250313e-16 -1
vn 4.930380657631324e-32 -2.220446049250313e-16 1
vn 0.6357163250192428 -0.771922764338524 -1.7140128524018561e-16
vn -4.930380657631324e-32 2.220446049250313e-16 -1
vn 4.930380657631324e-32 -2.220446049250313e-16 1
vn 0.9657816212162391 0.2522347465894225 0.06036135132601499
vn -4.930380657631324e-32 2.220446049250313e-16 -1
vn 4.930380657631324e-32 -2.220446049250313e-16 1
vn 0.9980525784828888 2.0776142857841424e-16 0.06237828615518053
vn -4.930380657631324e-32 2.220446049250313e-16 -1
vn 1 2.220446049250313e-16 4.930380657631324e-32
vn 1 2.220446049250313e-16 4.930380657631324e-32
vn 1 2.220446049250313e-16 4.930380657631324e-32
vn 1 2.220446049250313e-16 4.930380657631324e-32
vn 1 2.220446049250313e-16 4.930380657631324e-32
vn 1 2.220446049250313e-16 4.930380657631324e-32
vn 1 2.220446049250313e-16 4.930380657631324e-32
vn 1 2.220446049250313e-16 4.930380657631324e-32
vn -4.930380657631324e-32 2.220446049250313e-16 -1
vn 4.930380657631324e-32 -2.220446049250313e-16 1
vn -4.930380657631324e-32 2.220446049250313e-16 -1
vn 2.220446049250313e-16 -1 -2.220446049250313e-16
vn 4.930380657631324e-32 -2.220446049250313e-16 1
vn -4.930380657631324e-32 2.220446049250313e-16 -1
vn 4.930380657631324e-32 -2.220446049250313e-16 1
vn -2.220446049250313e-16 1 2.220446049250313e-16
usemtl m_760b25d0-8ffc-19f6-35fe-305143ee9831
f 173/479/121 175/480/121 171/481/121
f 210/482/122 209/483/122 206/484/122 207/485/122
f 176/486/123 174/487/123 172/488/123
f 175/489/124 177/490/124 171/491/124
f 178/492/125 177/493/125 175/494/125 176/495/125
f 178/496/126 176/497/126 172/498/126
f 177/499/127 179/500/127 171/501/127
f 180/502/128 179/503/128 177/504/128 178/505/128
f 180/506/129 178/507/129 172/508/129
f 179/509/130 181/510/130 171/511/130
f 182/512/131 181/513/131 179/514/131 180/515/131
f 182/516/132 180/517/132 172/518/132
f 181/519/133 183/520/133 171/521/133
f 184/522/134 183/523/134 181/524/134 182/525/134
f 184/526/135 182/527/135 172/528/135
f 183/529/136 185/530/136 171/531/136
f 186/532/137 185/533/137 183/534/137 184/535/137
f 186/536/138 184/537/138 172/538/138
f 185/539/139 187/540/139 171/541/139
f 188/542/140 187/543/140 185/544/140 186/545/140
f 188/546/141 186/547/141 172/548/141
f 187/549/142 189/550/142 171/551/142
f 190/552/143 189/553/143 187/554/143 188/555/143
f 190/556/144 188/557/144 172/558/144
f 189/559/145 191/560/145 171/561/145
f 192/562/146 191/563/146 189/564/146 190/565/146
f 192/566/147 190/567/147 172/568/147
f 191/569/148 193/570/148 171/571/148
f 194/572/149 193/573/149 191/574/149 192/575/149
f 194/576/150 192/577/150 172/578/150
f 193/579/151 195/580/151 171/581/151
f 208/582/152 205/583/152 211/584/152 212/585/152
f 196/586/153 194/587/153 172/588/153
f 195/589/154 173/590/154 171/591/154
f 207/592/155 206/593/155 205/594/155 208/595/155
f 174/596/156 196/597/156 172/598/156
f 195/599/157 197/600/157 198/601/157 173/602/157
f 174/603/158 199/604/158 200/605/158 196/606/158
f 173/607/159 198/608/159 201/609/159 175/610/159
f 175/611/160 201/612/160 202/613/160 176/614/160
f 176/615/161 202/616/161 199/617/161 174/618/161
f 193/619/162 203/620/162 197/621/162 195/622/162
f 196/623/163 200/624/163 204/625/163 194/626/163
f 194/627/164 204/628/164 203/629/164 193/630/164
f 197/631/165 205/632/165 206/633/165 198/634/165
f 199/635/166 207/636/166 208/637/166 200/638/166
f 198/639/167 206/640/167 209/641/167 201/642/167
f 201/643/168 209/644/168 210/645/168 202/646/168
f 202/647/169 210/648/169 207/649/169 199/650/169
f 203/651/170 211/652/170 205/653/170 197/654/170
f 200/655/171 208/656/171 212/657/171 204/658/171
f 204/659/172 212/660/172 211/661/172 203/662/172