# Made in Blockbench 5.1.5
mtllib SeriphHead.mtl

o cuboid
v -0.189770625 1.3877975 -0.02180499999999999
v 0 1.40625 -0.19374999999999998
v 0 1.14375 -0.19374999999999998
v 0 1.14375 -0.13125
v 0 1.40625 -0.13125
v 0 1.34375 -0.19374999999999998
v 0 1.34375 -0.13125
v 0.0742 1.4375 -0.11875
v 0.0742 1.4375 -0.18125
v 0.0742 1.1625 -0.11875
v 0.0742 1.1625 -0.18125
v 0.138506875 1.45625 -0.06875
v 0.153346875 1.45625 -0.125
v 0.138506875 1.20625 -0.06875
v 0.153346875 1.20625 -0.125
v 0.174930625 1.46875 0.02819500000000001
v 0.189770625 1.46875 -0.02180499999999999
v 0.174930625 1.26875 0.02819500000000001
v 0.189770625 1.26875 -0.02180499999999999
v 0.0742 1.37202375 -0.18125
v 0.153346875 1.39672625 -0.125
v 0.189770625 1.42113125 -0.02180499999999999
v 0.174930625 1.42113125 0.02819500000000001
v 0.138506875 1.39672625 -0.06875
v 0.0742 1.37202375 -0.11875
v -0.0742 1.4375 -0.11875
v -0.0742 1.4375 -0.18125
v -0.0742 1.1625 -0.11875
v -0.0742 1.1625 -0.18125
v -0.138506875 1.45625 -0.06875
v -0.153346875 1.45625 -0.125
v -0.138506875 1.20625 -0.06875
v -0.153346875 1.20625 -0.125
v -0.174930625 1.46875 0.02819500000000001
v -0.189770625 1.46875 -0.02180499999999999
v -0.174930625 1.26875 0.02819500000000001
v -0.189770625 1.26875 -0.02180499999999999
v -0.0742 1.37202375 -0.18125
v -0.153346875 1.39672625 -0.125
v -0.189770625 1.42113125 -0.02180499999999999
v -0.174930625 1.42113125 0.02819500000000001
v -0.138506875 1.39672625 -0.06875
v -0.0742 1.37202375 -0.11875
v 0 1.3 -0.19374999999999998
v -0.0742 1.326190625 -0.18125
v -0.153346875 1.35506 -0.125
v -0.174930625 1.3877975 0.02819500000000001
v -0.138506875 1.35506 -0.06875
v -0.0742 1.326190625 -0.11875
v 0 1.3 -0.13125
v 0.189770625 1.3877975 -0.02180499999999999
v 0.0742 1.326190625 -0.18125
v 0.153346875 1.35506 -0.125
v 0.174930625 1.3877975 0.02819500000000001
v 0.138506875 1.35506 -0.06875
v 0.0742 1.326190625 -0.11875
v 0.0742 1.3326075 -0.18125
v 0.0742 1.3656075 -0.18125
v 0.14226625 1.357143125 -0.132875
v 0.14226625 1.387143125 -0.132875
v 0 1.306125 -0.19374999999999998
v 0 1.337625 -0.19374999999999998
v -0.0742 1.3326075 -0.18125
v -0.0742 1.3656075 -0.18125
v -0.14226625 1.357143125 -0.132875
v -0.14226625 1.387143125 -0.132875
v 0.068575 1.3326075 -0.16403812499999998
v 0.068575 1.3656075 -0.16403812499999998
v 0.133455625 1.357143125 -0.11699625
v 0.133455625 1.387143125 -0.11699625
v 0 1.306125 -0.175204375
v 0 1.337625 -0.175204375
v -0.068575 1.3326075 -0.16403812499999998
v -0.068575 1.3656075 -0.16403812499999998
v -0.133455625 1.357143125 -0.11699625
v -0.133455625 1.387143125 -0.11699625
vt 0.390625 0.48988125000000005
vt 0.38410546875 0.48988125000000005
vt 0.38410546875 0.475
vt 0.390625 0.475
vt 0.47034296875 0.5193617187499999
vt 0.4609375 0.5226359375
vt 0.4609375 0.50217421875
vt 0.47034296875 0.49983046875000003
vt 0.464887578125 0.9765625
vt 0.472700078125 0.9765625
vt 0.471137578125 0.98612890625
vt 0.463325078125 0.98612890625
vt 0.23596875 0.56421171875
vt 0.2265625 0.5609375
vt 0.2265625 0.54140625
vt 0.23596875 0.54375
vt 0.3235046875 0.67312046875
vt 0.33101171875 0.675283828125
vt 0.329726328125 0.68538703125
vt 0.322219375 0.683223671875
vt 0.10393203125 0.5889140625
vt 0.09375 0.58530546875
vt 0.09375 0.56484375
vt 0.10393203125 0.5703125
vt 0.329726328125 0.68538703125
vt 0.333428125 0.6951578125
vt 0.32615953125 0.6949398437500001
vt 0.322233828125 0.683227890625
vt 0.0590125 0.59311796875
vt 0.046875 0.5967265625
vt 0.046875 0.578125
vt 0.0590125 0.57265625
vt 0.471137578125 0.98612890625
vt 0.46406203125 0.997405859375
vt 0.456987421875 0.99572375
vt 0.463373046875 0.98612890625
vt 0.1379453125 0.59925625
vt 0.125 0.5951640625
vt 0.125 0.5765625
vt 0.1379453125 0.584375
vt 0.333428125 0.6951578125
vt 0.34375 0.703125
vt 0.33723046875 0.703125
vt 0.326159375 0.6949398437500001
vt 0.16211640625 0.6107890625
vt 0.1484375 0.61488125
vt 0.1484375 0.6
vt 0.16211640625 0.5921875
vt 0.125 0.46875
vt 0.125 0.48450328125
vt 0.117608515625 0.489085078125
vt 0.1171875 0.47397171875
vt 0.3828125 0.452753125
vt 0.39221796875 0.44921875
vt 0.39221796875 0.45703125
vt 0.3828125 0.4609375
vt 0.046875 0.601934375
vt 0.0590125 0.598846875
vt 0.0590125 0.60703125
vt 0.046875 0.609375
vt 0.1484375 0.61904765625
vt 0.16211640625 0.615996875
vt 0.16211640625 0.6234375
vt 0.1484375 0.625
vt 0.38410546875 0.49404765625
vt 0.390625 0.49404765625
vt 0.390625 0.5
vt 0.38410546875 0.5
vt 0.125 0.600371875
vt 0.1379453125 0.60342265625
vt 0.1379453125 0.609375
vt 0.125 0.6078125
vt 0.09375 0.591034375
vt 0.10393203125 0.594121875
vt 0.10393203125 0.6015625
vt 0.09375 0.59921875
vt 0.2265625 0.56640625
vt 0.23596875 0.569940625
vt 0.23596875 0.578125
vt 0.2265625 0.57421875
vt 0.50651953125 0.615625
vt 0.50651953125 0.63050625
vt 0.5 0.63050625
vt 0.5 0.615625
vt 0.453125 0.50217421875
vt 0.453125 0.5226359375
vt 0.44371953125 0.5193617187499999
vt 0.44371953125 0.49983046875000003
vt 0.458549921875 0.54081640625
vt 0.456987421875 0.53125
vt 0.464799921875 0.53125
vt 0.466362421875 0.54081640625
vt 0.1640625 0.54140625
vt 0.1640625 0.5609375
vt 0.15465625 0.56421171875
vt 0.15465625 0.54375
vt 0.342148671875 0.84944953125
vt 0.34086328125 0.839346328125
vt 0.3483703125 0.83718296875
vt 0.349655625 0.847286171875
vt 0.328125 0.56484375
vt 0.328125 0.58530546875
vt 0.31794296875 0.5889140625
vt 0.31794296875 0.5703125
vt 0.34571546875 0.8590023437500001
vt 0.338446875 0.8592203125
vt 0.342148671875 0.84944953125
vt 0.349641171875 0.847290390625
vt 0.0859375 0.578125
vt 0.0859375 0.5967265625
vt 0.0738 0.59311796875
vt 0.0738 0.57265625
vt 0.472700078125 0.55041125
vt 0.46562546875 0.5520933593749999
vt 0.458549921875 0.54081640625
vt 0.466314453125 0.54081640625
vt 0.21875 0.5765625
vt 0.21875 0.5951640625
vt 0.2058046875 0.59925625
vt 0.2058046875 0.584375
vt 0.33464453125 0.8671875
vt 0.328125 0.8671875
vt 0.338446875 0.8592203125
vt 0.345715625 0.8590023437500001
vt 0.2734375 0.5921875
vt 0.2734375 0.60706875
vt 0.25975859375 0.6029765625
vt 0.25975859375 0.584375
vt 0.567210078125 0.758233515625
vt 0.56262828125 0.7628715625
vt 0.546875 0.7628715625
vt 0.55209671875 0.7578125
vt 0.36559453125 0.45703125
vt 0.36559453125 0.44921875
vt 0.375 0.452753125
vt 0.375 0.4609375
vt 0.0738 0.60703125
vt 0.0738 0.598846875
vt 0.0859375 0.601934375
vt 0.0859375 0.609375
vt 0.25975859375 0.615625
vt 0.25975859375 0.608184375
vt 0.2734375 0.61123515625
vt 0.2734375 0.6171875
vt 0.5 0.640625
vt 0.5 0.63467265625
vt 0.50651953125 0.63467265625
vt 0.50651953125 0.640625
vt 0.2058046875 0.609375
vt 0.2058046875 0.60342265625
vt 0.21875 0.600371875
vt 0.21875 0.6078125
vt 0.31794296875 0.6015625
vt 0.31794296875 0.594121875
vt 0.328125 0.591034375
vt 0.328125 0.59921875
vt 0.15465625 0.578125
vt 0.15465625 0.569940625
vt 0.1640625 0.56640625
vt 0.1640625 0.57421875
vt 0.553139375 0.523262265625
vt 0.551736953125 0.515625
vt 0.56103078125 0.515625
vt 0.5625 0.5234375
vt 0.552133515625 0.703125
vt 0.550925859375 0.6953125
vt 0.561402109375 0.6953125
vt 0.5625 0.70276640625
vt 0.25975859375 0.608184375
vt 0.25975859375 0.6029765625
vt 0.2734375 0.60706875
vt 0.2734375 0.61123515625
vt 0.5 0.63467265625
vt 0.5 0.63050625
vt 0.50651953125 0.63050625
vt 0.50651953125 0.63467265625
vt 0.2058046875 0.60342265625
vt 0.2058046875 0.59925625
vt 0.21875 0.5951640625
vt 0.21875 0.600371875
vt 0.31794296875 0.594121875
vt 0.31794296875 0.5889140625
vt 0.328125 0.58530546875
vt 0.328125 0.591034375
vt 0.15465625 0.569940625
vt 0.15465625 0.56421171875
vt 0.1640625 0.5609375
vt 0.1640625 0.56640625
vt 0.59375 0.6313432812499999
vt 0.59375 0.622049453125
vt 0.597429296875 0.623451875
vt 0.59760453125 0.6328125
vt 0.328125 0.405152109375
vt 0.328125 0.39467585937500005
vt 0.33206921875 0.395883515625
vt 0.331710703125 0.40625
vt 0.1484375 0.61488125
vt 0.16211640625 0.6107890625
vt 0.16211640625 0.615996875
vt 0.1484375 0.61904765625
vt 0.38410546875 0.48988125000000005
vt 0.390625 0.48988125000000005
vt 0.390625 0.49404765625
vt 0.38410546875 0.49404765625
vt 0.125 0.5951640625
vt 0.1379453125 0.59925625
vt 0.1379453125 0.60342265625
vt 0.125 0.600371875
vt 0.09375 0.58530546875
vt 0.10393203125 0.5889140625
vt 0.10393203125 0.594121875
vt 0.09375 0.591034375
vt 0.2265625 0.5609375
vt 0.23596875 0.56421171875
vt 0.23596875 0.569940625
vt 0.2265625 0.56640625
vt 0.0590125 0.5939195312500001
vt 0.04857421875 0.59698671875
vt 0.046875 0.5967265625
vt 0.0590125 0.59311796875
vt 0.04857421875 0.60073671875
vt 0.0590125 0.59804453125
vt 0.0590125 0.598846875
vt 0.046875 0.601934375
vt 0.04857421875 0.59698671875
vt 0.04857421875 0.60073671875
vt 0.046875 0.601934375
vt 0.046875 0.5967265625
vt 0.47034296875 0.52012734375
vt 0.4609375 0.5234375
vt 0.4609375 0.5226359375
vt 0.47034296875 0.5193617187499999
vt 0.3828125 0.45195078125
vt 0.39221796875 0.448453125
vt 0.39221796875 0.44921875
vt 0.3828125 0.452753125
vt 0.453125 0.5234375
vt 0.44371953125 0.52012734375
vt 0.44371953125 0.5193617187499999
vt 0.453125 0.5226359375
vt 0.36559453125 0.448453125
vt 0.375 0.45195078125
vt 0.375 0.452753125
vt 0.36559453125 0.44921875
vt 0.08423828125 0.59698671875
vt 0.0738 0.5939195312500001
vt 0.0738 0.59311796875
vt 0.0859375 0.5967265625
vt 0.08423828125 0.60073671875
vt 0.08423828125 0.59698671875
vt 0.0859375 0.5967265625
vt 0.0859375 0.601934375
vt 0.0738 0.59804453125
vt 0.08423828125 0.60073671875
vt 0.0859375 0.601934375
vt 0.0738 0.598846875
vt 0.551704609375 0.63803125
vt 0.552911640625 0.6484375
vt 0.550641328125 0.6484375
vt 0.549481953125 0.63762109375
vt 0.16654140625 0.44953195312500005
vt 0.16961171875 0.439624140625
vt 0.171875 0.439624140625
vt 0.1687703125 0.44994679687500005
vt 0.2734375 0.8046875
vt 0.2734375 0.8125
vt 0.265625 0.8125
vt 0.265625 0.8046875
vt 0.5546875 0.62922875
vt 0.551704609375 0.63803125
vt 0.54947890625 0.637620546875
vt 0.552642890625 0.628168203125
vt 0.16961171875 0.439624140625
vt 0.16826703125 0.43035882812500004
vt 0.17048640625 0.4296875
vt 0.17185953125 0.439624140625
vt 0.5499453125 0.8645742187500001
vt 0.548599296875 0.85537859375
vt 0.5508171875 0.854702109375
vt 0.552194765625 0.8645742187500001
vt 0.55211328125 0.774497578125
vt 0.54909984375 0.7833615625
vt 0.546875 0.782946328125
vt 0.550069921875 0.7734375
vt 0.546875 0.874590625
vt 0.5499453125 0.8645742187500001
vt 0.55220859375 0.8645742187500001
vt 0.54910390625 0.875
vt 0.109375 0.71875
vt 0.109375 0.7109375
vt 0.1171875 0.7109375
vt 0.1171875 0.71875
vt 0.54909984375 0.7833615625
vt 0.550306875 0.7936639062499999
vt 0.5480365625 0.7936639062499999
vt 0.5468771875 0.78294671875
vn 0.9586664804206765 0 0.28453221138885665
vn 0.1661228216831817 0 -0.9861050695113669
vn 0.24499439718375476 -0.9695244944551781 0
vn -0.16612282168318174 0 0.9861050695113669
vn -0.3881402888130943 0.9216003017578109 0
vn -0.6138147146696862 0 0.7894501225884838
vn -0.234705840880159 0.9700922664921189 -0.061920616509538805
vn 0.5793033676905529 0 -0.815112021861035
vn 0.4194182105660082 -0.901024158381511 0.11065184435199223
vn -0.9361087553723183 0 0.35171067387170546
vn -0.1880035918471429 0.9805820052601242 -0.05579946606023199
vn 0.9429846398360286 0 -0.3328362495782504
vn 0.6682933965547841 -0.7169668192227152 0.19834948009745992
vn 0.16612282168318174 0 -0.986105069511367
vn 0.5793033676905528 0 -0.8151120218610349
vn 0.9429846398360288 0 -0.33283624957825036
vn 0.9586664804206764 0 0.2845322113888566
vn -0.9361087553723184 0 0.35171067387170546
vn -0.6138147146696862 0 0.7894501225884836
vn -0.16612282168318174 0 0.986105069511367
vn -0.9586664804206765 0 0.28453221138885665
vn -0.1661228216831817 0 -0.9861050695113669
vn -0.24499439718375476 -0.9695244944551781 0
vn 0.16612282168318174 0 0.9861050695113669
vn 0.38814028881309426 0.9216003017578107 0
vn 0.6138147146696862 0 0.7894501225884836
vn 0.234705840880159 0.9700922664921189 -0.06192061650953882
vn -0.5793033676905528 0 -0.8151120218610349
vn -0.4194182105660082 -0.901024158381511 0.11065184435199217
vn 0.9361087553723183 0 0.3517106738717054
vn 0.1880035918471429 0.9805820052601242 -0.055799466060231985
vn -0.9429846398360286 0 -0.3328362495782504
vn -0.6682933965547843 -0.7169668192227151 0.19834948009745987
vn -0.16612282168318174 0 -0.986105069511367
vn -0.5793033676905528 0 -0.8151120218610349
vn -0.9429846398360288 0 -0.3328362495782504
vn -0.9586664804206764 0 0.2845322113888566
vn 0.9361087553723184 0 0.35171067387170546
vn 0.6138147146696862 0 0.7894501225884838
vn 0.16612282168318174 0 0.986105069511367
vn -0.16071595432230648 0 -0.9870007001143771
vn -0.5869955587667613 0 -0.8095901518596293
vn -0.9429846398360288 0 -0.3328362495782504
vn -0.9586664804206764 0 0.2845322113888566
vn 0.9361087553723183 0 0.3517106738717054
vn 0.6138147146696863 0 0.7894501225884836
vn 0.16612282168318174 0 0.9861050695113669
vn 0.16071595432230643 0 -0.9870007001143771
vn 0.5869955587667612 0 -0.8095901518596293
vn 0.9429846398360288 0 -0.33283624957825036
vn 0.9586664804206764 0 0.2845322113888566
vn -0.9361087553723183 0 0.3517106738717054
vn -0.6138147146696862 0 0.7894501225884838
vn -0.16612282168318177 0 0.9861050695113669
vn 0.5793020619808995 0.000006927494891620358 -0.815112949803086
vn 0.5793037211085343 0 -0.8151117706853495
vn 0.5793011967014521 0 -0.8151135647873037
vn 0.1661228216831817 0 -0.9861050695113669
vn 0.1661228216831817 0 -0.9861050695113669
vn -0.16612282168318165 0 -0.9861050695113671
vn -0.16612282168318168 0 -0.9861050695113671
vn -0.5793037211085342 0 -0.8151117706853495
vn -0.5793011967014521 0 -0.8151135647873037
vn -0.5793051773454494 -0.0000069274990096557495 -0.8151107356996148
vn -0.2576965735958965 0.9555872324408035 -0.1429878216949287
vn 0.2582484542244642 -0.9623849105979824 0.08439798424126439
vn -0.8744120403431862 0 -0.4851840719797653
vn -0.34209957162407284 0.9329889341489567 -0.11180130522592152
vn 0.3778125557252787 -0.9258821052036448 0
vn 0.36025266347144363 0.9328547681508259 0
vn -0.3587797762393081 -0.9260285695271541 0.11725255042498924
vn 0.29103978400445796 0.951971153511427 -0.09511449420967091
vn 0.8744120403431862 0 -0.4851840719797653
vn -0.2284771845847488 -0.9652597076603366 0.12677489061997985
usemtl m_760b25d0-8ffc-19f6-35fe-305143ee9831
f 51/1/1 54/2/1 18/3/1 19/4/1
f 44/5/2 52/6/2 11/7/2 3/8/2
f 4/9/3 3/10/3 11/11/3 10/12/3
f 56/13/4 50/14/4 4/15/4 10/16/4
f 2/17/5 5/18/5 8/19/5 9/20/5
f 55/21/6 56/22/6 10/23/6 14/24/6
f 8/25/7 12/26/7 13/27/7 9/28/7
f 52/29/8 53/30/8 15/31/8 11/32/8
f 11/33/9 15/34/9 14/35/9 10/36/9
f 54/37/10 55/38/10 14/39/10 18/40/10
f 12/41/11 16/42/11 17/43/11 13/44/11
f 53/45/12 51/46/12 19/47/12 15/48/12
f 15/49/13 19/50/13 18/51/13 14/52/13
f 20/53/14 6/54/14 2/55/14 9/56/14
f 21/57/15 20/58/15 9/59/15 13/60/15
f 22/61/16 21/62/16 13/63/16 17/64/16
f 23/65/17 22/66/17 17/67/17 16/68/17
f 24/69/18 23/70/18 16/71/18 12/72/18
f 25/73/19 24/74/19 12/75/19 8/76/19
f 7/77/20 25/78/20 8/79/20 5/80/20
f 36/81/21 47/82/21 1/83/21 37/84/21
f 29/85/22 45/86/22 44/87/22 3/88/22
f 29/89/23 3/90/23 4/91/23 28/92/23
f 4/93/24 50/94/24 49/95/24 28/96/24
f 26/97/25 5/98/25 2/99/25 27/100/25
f 28/101/26 49/102/26 48/103/26 32/104/26
f 31/105/27 30/106/27 26/107/27 27/108/27
f 33/109/28 46/110/28 45/111/28 29/112/28
f 32/113/29 33/114/29 29/115/29 28/116/29
f 32/117/30 48/118/30 47/119/30 36/120/30
f 35/121/31 34/122/31 30/123/31 31/124/31
f 37/125/32 1/126/32 46/127/32 33/128/32
f 36/129/33 37/130/33 33/131/33 32/132/33
f 2/133/34 6/134/34 38/135/34 27/136/34
f 27/137/35 38/138/35 39/139/35 31/140/35
f 31/141/36 39/142/36 40/143/36 35/144/36
f 35/145/37 40/146/37 41/147/37 34/148/37
f 34/149/38 41/150/38 42/151/38 30/152/38
f 30/153/39 42/154/39 43/155/39 26/156/39
f 26/157/40 43/158/40 7/159/40 5/160/40
f 72/161/41 71/162/41 73/163/41 74/164/41
f 74/165/42 73/166/42 75/167/42 76/168/42
f 39/169/43 46/170/43 1/171/43 40/172/43
f 40/173/44 1/174/44 47/175/44 41/176/44
f 41/177/45 47/178/45 48/179/45 42/180/45
f 42/181/46 48/182/46 49/183/46 43/184/46
f 43/185/47 49/186/47 50/187/47 7/188/47
f 67/189/48 71/190/48 72/191/48 68/192/48
f 69/193/49 67/194/49 68/195/49 70/196/49
f 51/197/50 53/198/50 21/199/50 22/200/50
f 54/201/51 51/202/51 22/203/51 23/204/51
f 55/205/52 54/206/52 23/207/52 24/208/52
f 56/209/53 55/210/53 24/211/53 25/212/53
f 50/213/54 56/214/54 25/215/54 7/216/54
f 57/217/55 59/218/55 53/219/55 52/220/55
f 60/221/56 58/222/56 20/223/56 21/224/56
f 59/225/57 60/226/57 21/227/57 53/228/57
f 61/229/58 57/230/58 52/231/58 44/232/58
f 58/233/59 62/234/59 6/235/59 20/236/59
f 63/237/60 61/238/60 44/239/60 45/240/60
f 62/241/61 64/242/61 38/243/61 6/244/61
f 65/245/62 63/246/62 45/247/62 46/248/62
f 66/249/63 65/250/63 46/251/63 39/252/63
f 64/253/64 66/254/64 39/255/64 38/256/64
f 67/257/65 69/258/65 59/259/65 57/260/65
f 70/261/66 68/262/66 58/263/66 60/264/66
f 69/265/67 70/266/67 60/267/67 59/268/67
f 71/269/68 67/270/68 57/271/68 61/272/68
f 68/273/69 72/274/69 62/275/69 58/276/69
f 73/277/70 71/278/70 61/279/70 63/280/70
f 72/281/71 74/282/71 64/283/71 62/284/71
f 75/285/72 73/286/72 63/287/72 65/288/72
f 76/289/73 75/290/73 65/291/73 66/292/73
f 74/293/74 76/294/74 66/295/74 64/296/74
o tube
v 0.050240625 1.4875 0.1875
v 0.050240625 1.525 0.1875
v 0.0394525 1.4875 0.147239375
v 0.0394525 1.525 0.147239375
v 0.137259375 1.4875 0.137259375
v 0.137259375 1.575 0.137259375
v 0.107786875 1.4875 0.107786875
v 0.107786875 1.575 0.107786875
v 0.1875 1.4875 0.050240625
v 0.1875 1.525 0.050240625
v 0.147239375 1.4875 0.0394525
v 0.147239375 1.525 0.0394525
v 0.1875 1.4875 -0.050240625
v 0.1875 1.575 -0.050240625
v 0.147239375 1.4875 -0.0394525
v 0.147239375 1.575 -0.0394525
v 0.137259375 1.4875 -0.137259375
v 0.137259375 1.525 -0.137259375
v 0.107786875 1.4875 -0.107786875
v 0.107786875 1.525 -0.107786875
v 0.050240625 1.4875 -0.1875
v 0.050240625 1.575 -0.1875
v 0.0394525 1.4875 -0.147239375
v 0.0394525 1.575 -0.147239375
v -0.050240625 1.4875 0.1875
v -0.050240625 1.575 0.1875
v -0.0394525 1.4875 0.147239375
v -0.0394525 1.575 0.147239375
v -0.137259375 1.4875 0.137259375
v -0.137259375 1.525 0.137259375
v -0.107786875 1.4875 0.107786875
v -0.107786875 1.525 0.107786875
v -0.1875 1.4875 0.050240625
v -0.1875 1.575 0.050240625
v -0.147239375 1.4875 0.0394525
v -0.147239375 1.575 0.0394525
v -0.1875 1.4875 -0.050240625
v -0.1875 1.525 -0.050240625
v -0.147239375 1.4875 -0.0394525
v -0.147239375 1.525 -0.0394525
v -0.137259375 1.4875 -0.137259375
v -0.137259375 1.575 -0.137259375
v -0.107786875 1.4875 -0.107786875
v -0.107786875 1.575 -0.107786875
v -0.050240625 1.4875 -0.1875
v -0.050240625 1.525 -0.1875
v -0.0394525 1.4875 -0.147239375
v -0.0394525 1.525 -0.147239375
vt 0.5234375 0.5390625
vt 0.5390625 0.5390625
vt 0.5390625 0.546875
vt 0.5234375 0.540625
vt 0.4453125 0.43125
vt 0.4375 0.4375
vt 0.4375 0.4296875
vt 0.4453125 0.4296875
vt 0.09086875 0.8934046875
vt 0.0994109375 0.8884734375
vt 0.1030953125 0.8921578125
vt 0.0922171875 0.8984375
vt 0.125 0.4453125
vt 0.13902875 0.4453125
vt 0.13782140625 0.453125
vt 0.126207109375 0.45298218749999997
vt 0.5234375 0.6953125
vt 0.5390625 0.6953125
vt 0.5390625 0.696875
vt 0.5234375 0.703125
vt 0.4296875 0.4375
vt 0.421875 0.43125
vt 0.421875 0.4296875
vt 0.4296875 0.4296875
vt 0.0994109375 0.8884734375
vt 0.1043421875 0.87993125
vt 0.109375 0.8812796875
vt 0.1030953125 0.8921578125
vt 0.57652875 0.8828125
vt 0.5625 0.8828125
vt 0.56370734375 0.877744140625
vt 0.5753215625 0.87788703125
vt 0.0390625 0.9921875
vt 0.0546875 0.9921875
vt 0.0546875 1
vt 0.0390625 0.99375
vt 0.328125 0.8453125
vt 0.3203125 0.8515625
vt 0.3203125 0.84375
vt 0.328125 0.84375
vt 0.1043421875 0.87993125
vt 0.1043421875 0.87006875
vt 0.109375 0.8687203125
vt 0.109375 0.8812796875
vt 0.03284625 0.4453125
vt 0.046875 0.4453125
vt 0.04566765625 0.453125
vt 0.0340534375 0.45298218749999997
vt 0.5234375 0.9609375
vt 0.5390625 0.9609375
vt 0.5390625 0.9625
vt 0.5234375 0.96875
vt 0.3984375 0.4375
vt 0.390625 0.43125
vt 0.390625 0.4296875
vt 0.3984375 0.4296875
vt 0.1043421875 0.87006875
vt 0.0994109375 0.8615265625
vt 0.1030953125 0.8578421875
vt 0.109375 0.8687203125
vt 0.578125 0.796875
vt 0.56409625 0.796875
vt 0.56530359375 0.791806640625
vt 0.576917890625 0.79194953125
vt 0.53125 0.9453125
vt 0.546875 0.9453125
vt 0.546875 0.953125
vt 0.53125 0.946875
vt 0.5703125 0.5328125
vt 0.5625 0.5390625
vt 0.5625 0.53125
vt 0.5703125 0.53125
vt 0.0994109375 0.8615265625
vt 0.09086875 0.8565953125
vt 0.0922171875 0.8515625
vt 0.1030953125 0.8578421875
vt 0.54847125 0.9296875
vt 0.5625 0.9296875
vt 0.56129265625 0.9375
vt 0.5496784375 0.9373571875
vt 0.203125 0.90625
vt 0.21875 0.90625
vt 0.21875 0.9078125
vt 0.203125 0.9140625
vt 0.5703125 0.78125
vt 0.5625 0.775
vt 0.5625 0.7734375
vt 0.5703125 0.7734375
vt 0.09086875 0.8565953125
vt 0.08100625 0.8565953125
vt 0.0796578125 0.8515625
vt 0.0922171875 0.8515625
vt 0.13902875 0.4375
vt 0.125 0.4375
vt 0.12620734375 0.43243164062499995
vt 0.1378215625 0.43257453125
vt 0.140625 0.9921875
vt 0.15625 0.9921875
vt 0.15625 0.99375
vt 0.140625 1
vt 0.3984375 0.921875
vt 0.390625 0.915625
vt 0.390625 0.9140625
vt 0.3984375 0.9140625
vt 0.08100625 0.8934046875
vt 0.09086875 0.8934046875
vt 0.0922171875 0.8984375
vt 0.0796578125 0.8984375
vt 0.57652875 0.8671875
vt 0.5625 0.8671875
vt 0.56370734375 0.862119140625
vt 0.5753215625 0.86226203125
vt 0.5234375 0.5546875
vt 0.5390625 0.5546875
vt 0.5390625 0.5625
vt 0.5234375 0.55625
vt 0.5703125 0.5484375
vt 0.5625 0.5546875
vt 0.5625 0.546875
vt 0.5703125 0.546875
vt 0.0724640625 0.8884734375
vt 0.08100625 0.8934046875
vt 0.0796578125 0.8984375
vt 0.0687796875 0.8921578125
vt 0.05628375 0.4453125
vt 0.0703125 0.4453125
vt 0.06910515625 0.453125
vt 0.0574909375 0.45298218749999997
vt 0.515625 0.5859375
vt 0.53125 0.5859375
vt 0.53125 0.5875
vt 0.515625 0.59375
vt 0.5703125 0.6875
vt 0.5625 0.68125
vt 0.5625 0.6796875
vt 0.5703125 0.6796875
vt 0.0675328125 0.87993125
vt 0.0724640625 0.8884734375
vt 0.0687796875 0.8921578125
vt 0.0625 0.8812796875
vt 0.2109375 0.4375
vt 0.19690875 0.4375
vt 0.19811609375 0.43243164062499995
vt 0.209730390625 0.43257453125
vt 0.046875 0.8125
vt 0.0625 0.8125
vt 0.0625 0.8203125
vt 0.046875 0.8140625
vt 0.4140625 0.86875
vt 0.40625 0.875
vt 0.40625 0.8671875
vt 0.4140625 0.8671875
vt 0.0675328125 0.87006875
vt 0.0675328125 0.87993125
vt 0.0625 0.8812796875
vt 0.0625 0.8687203125
vt 0.54847125 0.9609375
vt 0.5625 0.9609375
vt 0.56129265625 0.96875
vt 0.5496784375 0.9686071875
vt 0.203125 0.8671875
vt 0.21875 0.8671875
vt 0.21875 0.86875
vt 0.203125 0.875
vt 0.5703125 0.609375
vt 0.5625 0.603125
vt 0.5625 0.6015625
vt 0.5703125 0.6015625
vt 0.0724640625 0.8615265625
vt 0.0675328125 0.87006875
vt 0.0625 0.8687203125
vt 0.0687796875 0.8578421875
vt 0.57652875 0.8984375
vt 0.5625 0.8984375
vt 0.56370734375 0.893369140625
vt 0.5753215625 0.89351203125
vt 0.3203125 0.46875
vt 0.3359375 0.46875
vt 0.3359375 0.4765625
vt 0.3203125 0.4703125
vt 0.5703125 0.5640625
vt 0.5625 0.5703125
vt 0.5625 0.5625
vt 0.5703125 0.5625
vt 0.08100625 0.8565953125
vt 0.0724640625 0.8615265625
vt 0.0687796875 0.8578421875
vt 0.0796578125 0.8515625
vt 0.078125 0.4453125
vt 0.09215375 0.4453125
vt 0.09094640625 0.453125
vt 0.079332109375 0.45298218749999997
vn 0.500002435262396 0 0.8660239977804736
vn -0.4999964850232392 0 -0.866027433147707
vn 0 -1 0
vn -0.3238289262500352 0.8889711204800179 0.3238289262500353
vn 0.8660239977804737 0 0.5000024352623961
vn -0.8660274331477068 0 -0.4999964850232391
vn 0 -1 0
vn 0.11853287838005741 0.8889712135155747 -0.4423574779333847
vn 1 0 0
vn -1 0 0
vn 0 -1 0
vn 0.11853272737365404 0.8889715140743537 0.44235691438669134
vn 0.8660239977804737 0 -0.5000024352623961
vn -0.8660274331477068 0 0.4999964850232391
vn 0 -1 0
vn -0.3238289262500353 0.8889711204800179 -0.3238289262500352
vn 0.500002435262396 0 -0.8660239977804736
vn -0.4999964850232392 0 0.866027433147707
vn 0 -1 0
vn 0.4423574779333848 0.888971213515575 0.11853287838005744
vn 0 0 -1
vn 0 0 1
vn 0 -1 0
vn -0.44235691438669134 0.8889715140743537 0.11853272737365404
vn 0 0 1
vn 0 0 -1
vn 0 -1 0
vn 0.44235691438669134 0.8889715140743537 -0.11853272737365404
vn -0.500002435262396 0 0.8660239977804736
vn 0.4999964850232392 0 -0.866027433147707
vn 0 -1 0
vn -0.4423574779333848 0.888971213515575 -0.11853287838005744
vn -0.8660239977804737 0 0.5000024352623961
vn 0.8660274331477068 0 -0.4999964850232391
vn 0 -1 0
vn 0.3238289262500353 0.8889711204800179 0.3238289262500352
vn -1 0 0
vn 1 0 0
vn 0 -1 0
vn -0.11853272737365404 0.8889715140743537 -0.44235691438669134
vn -0.8660239977804737 0 -0.5000024352623961
vn 0.8660274331477068 0 0.4999964850232391
vn 0 -1 0
vn -0.11853287838005741 0.8889712135155747 0.4423574779333847
vn -0.500002435262396 0 -0.8660239977804736
vn 0.4999964850232392 0 0.866027433147707
vn 0 -1 0
vn 0.3238289262500352 0.8889711204800179 -0.3238289262500353
usemtl m_760b25d0-8ffc-19f6-35fe-305143ee9831
f 77/297/75 81/298/75 82/299/75 78/300/75
f 80/301/76 84/302/76 83/303/76 79/304/76
f 79/305/77 83/306/77 81/307/77 77/308/77
f 78/309/78 82/310/78 84/311/78 80/312/78
f 81/313/79 85/314/79 86/315/79 82/316/79
f 84/317/80 88/318/80 87/319/80 83/320/80
f 83/321/81 87/322/81 85/323/81 81/324/81
f 82/325/82 86/326/82 88/327/82 84/328/82
f 85/329/83 89/330/83 90/331/83 86/332/83
f 88/333/84 92/334/84 91/335/84 87/336/84
f 87/337/85 91/338/85 89/339/85 85/340/85
f 86/341/86 90/342/86 92/343/86 88/344/86
f 89/345/87 93/346/87 94/347/87 90/348/87
f 92/349/88 96/350/88 95/351/88 91/352/88
f 91/353/89 95/354/89 93/355/89 89/356/89
f 90/357/90 94/358/90 96/359/90 92/360/90
f 93/361/91 97/362/91 98/363/91 94/364/91
f 96/365/92 100/366/92 99/367/92 95/368/92
f 95/369/93 99/370/93 97/371/93 93/372/93
f 94/373/94 98/374/94 100/375/94 96/376/94
f 97/377/95 121/378/95 122/379/95 98/380/95
f 100/381/96 124/382/96 123/383/96 99/384/96
f 99/385/97 123/386/97 121/387/97 97/388/97
f 98/389/98 122/390/98 124/391/98 100/392/98
f 101/393/99 77/394/99 78/395/99 102/396/99
f 104/397/100 80/398/100 79/399/100 103/400/100
f 103/401/101 79/402/101 77/403/101 101/404/101
f 102/405/102 78/406/102 80/407/102 104/408/102
f 105/409/103 101/410/103 102/411/103 106/412/103
f 108/413/104 104/414/104 103/415/104 107/416/104
f 107/417/105 103/418/105 101/419/105 105/420/105
f 106/421/106 102/422/106 104/423/106 108/424/106
f 109/425/107 105/426/107 106/427/107 110/428/107
f 112/429/108 108/430/108 107/431/108 111/432/108
f 111/433/109 107/434/109 105/435/109 109/436/109
f 110/437/110 106/438/110 108/439/110 112/440/110
f 113/441/111 109/442/111 110/443/111 114/444/111
f 116/445/112 112/446/112 111/447/112 115/448/112
f 115/449/113 111/450/113 109/451/113 113/452/113
f 114/453/114 110/454/114 112/455/114 116/456/114
f 117/457/115 113/458/115 114/459/115 118/460/115
f 120/461/116 116/462/116 115/463/116 119/464/116
f 119/465/117 115/466/117 113/467/117 117/468/117
f 118/469/118 114/470/118 116/471/118 120/472/118
f 121/473/119 117/474/119 118/475/119 122/476/119
f 124/477/120 120/478/120 119/479/120 123/480/120
f 123/481/121 119/482/121 117/483/121 121/484/121
f 122/485/122 118/486/122 120/487/122 124/488/122