# Made in Blockbench 5.1.5
mtllib SeriphLeftArm.mtl

o cuboid
v -0.825 1.04375 0.109375
v -0.825 1.04375 -0.1171875
v -0.825 0.91875 0.109375
v -0.825 0.91875 -0.1171875
v -0.625 1.04375 0.084375
v -0.625 1.04375 -0.1171875
v -0.625 0.91875 0.084375
v -0.625 0.91875 -0.1171875
v -0.625 0.9937499999999999 -0.1171875
v -0.85 0.9937499999999999 -0.1171875
v -0.85 0.9937499999999999 0.109375
v -0.625 0.9937499999999999 0.084375
v -0.725 0.9937499999999999 -0.1171875
v -0.725 1.04375 -0.1171875
v -0.725 1.04375 0.109375
v -0.725 0.9937499999999999 0.109375
v -0.725 0.91875 0.109375
v -0.725 0.91875 -0.1171875
v -0.85 0.9937499999999999 -0.0421875
v -0.825 0.91875 -0.0421875
v -0.725 0.91875 -0.0421875
v -0.625 0.91875 -0.0421875
v -0.625 0.9937499999999999 -0.0421875
v -0.625 1.04375 -0.0421875
v -0.725 1.04375 -0.0421875
v -0.825 1.04375 -0.0421875
v -0.625 0.8812499999999999 -0.1484375
v -0.725 0.8812499999999999 -0.1484375
v -0.725 0.8812499999999999 -0.0421875
v -0.625 0.8812499999999999 -0.0421875
v -0.68125 0.91875 -0.0421875
v -0.68125 0.91875 0.109375
v -0.68125 0.9937499999999999 0.109375
v -0.68125 1.04375 0.109375
v -0.68125 1.04375 -0.0421875
v -0.68125 1.04375 -0.1171875
v -0.68125 0.9937499999999999 -0.1171875
v -0.68125 0.8812499999999999 -0.1484375
v -0.68125 0.8812499999999999 -0.0421875
v -0.725 0.8937499999999998 -0.1171875
v -0.8171875 0.8937499999999998 -0.0421875
v -0.725 0.8937499999999998 -0.0421875
v -0.8171875 0.8937499999999998 -0.1171875
v -0.8171875 0.8937499999999998 0.109375
v -0.725 0.8937499999999998 0.109375
v -0.68125 0.8937499999999998 -0.0421875
v -0.68125 0.8937499999999998 0.109375
v 0.825 1.04375 0.109375
v 0.825 1.04375 -0.1171875
v 0.825 0.91875 0.109375
v 0.825 0.91875 -0.1171875
v 0.625 1.04375 0.084375
v 0.625 1.04375 -0.1171875
v 0.625 0.91875 0.084375
v 0.625 0.91875 -0.1171875
v 0.625 0.9937499999999999 -0.1171875
v 0.85 0.9937499999999999 -0.1171875
v 0.85 0.9937499999999999 0.109375
v 0.625 0.9937499999999999 0.084375
v 0.725 0.9937499999999999 -0.1171875
v 0.725 1.04375 -0.1171875
v 0.725 1.04375 0.109375
v 0.725 0.9937499999999999 0.109375
v 0.725 0.91875 0.109375
v 0.725 0.91875 -0.1171875
v 0.85 0.9937499999999999 -0.0421875
v 0.825 0.91875 -0.0421875
v 0.725 0.91875 -0.0421875
v 0.625 0.91875 -0.0421875
v 0.625 0.9937499999999999 -0.0421875
v 0.625 1.04375 -0.0421875
v 0.725 1.04375 -0.0421875
v 0.825 1.04375 -0.0421875
v 0.625 0.8812499999999999 -0.1484375
v 0.725 0.8812499999999999 -0.1484375
v 0.725 0.8812499999999999 -0.0421875
v 0.625 0.8812499999999999 -0.0421875
v 0.68125 0.91875 -0.0421875
v 0.68125 0.91875 0.109375
v 0.68125 0.9937499999999999 0.109375
v 0.68125 1.04375 0.109375
v 0.68125 1.04375 -0.0421875
v 0.68125 1.04375 -0.1171875
v 0.68125 0.9937499999999999 -0.1171875
v 0.68125 0.8812499999999999 -0.1484375
v 0.68125 0.8812499999999999 -0.0421875
v 0.725 0.8937499999999998 -0.1171875
v 0.8171875 0.8937499999999998 -0.0421875
v 0.725 0.8937499999999998 -0.0421875
v 0.8171875 0.8937499999999998 -0.1171875
v 0.8171875 0.8937499999999998 0.109375
v 0.725 0.8937499999999998 0.109375
v 0.68125 0.8937499999999998 -0.0421875
v 0.68125 0.8937499999999998 0.109375
vt 0.40771484375 0.88608671875
vt 0.41708984375 0.88608671875
vt 0.41708984375 0.89596875
vt 0.40771484375 0.89596875
vt 0.3234375 0.96875
vt 0.3234375 0.959375
vt 0.3359375 0.959375
vt 0.3359375 0.96875
vt 0.37412109375 0.703125
vt 0.37412109375 0.7125
vt 0.36259765625 0.7125
vt 0.36259765625 0.703125
vt 0.394921875 0.71875
vt 0.407421875 0.71875
vt 0.407421875 0.728125
vt 0.391796875 0.728125
vt 0.3890625 0.9625
vt 0.3734375 0.9625
vt 0.3734375 0.953125
vt 0.3859375 0.953125
vt 0.25283203125 0.6578125
vt 0.24345703125 0.6578125
vt 0.24345703125 0.6484375
vt 0.25283203125 0.6484375
vt 0.3859375 0.96875
vt 0.3734375 0.96875
vt 0.3734375 0.9625
vt 0.3890625 0.9625
vt 0.05615234375 0.5086375000000001
vt 0.06552734375 0.5086375000000001
vt 0.06552734375 0.515625
vt 0.05615234375 0.515625
vt 0.391796875 0.728125
vt 0.407421875 0.728125
vt 0.407421875 0.734375
vt 0.394921875 0.734375
vt 0.25283203125 0.6640625
vt 0.24345703125 0.6640625
vt 0.24345703125 0.6578125
vt 0.25283203125 0.6578125
vt 0.3609375 0.9625
vt 0.36796875 0.9625
vt 0.36796875 0.96875
vt 0.3609375 0.96875
vt 0.3484375 0.96875
vt 0.34140625 0.96875
vt 0.34140625 0.959375
vt 0.3484375 0.959375
vt 0.546875 0.671875
vt 0.53918046875 0.671875
vt 0.53918046875 0.665625
vt 0.546875 0.665625
vt 0.546875 0.665625
vt 0.53918046875 0.665625
vt 0.53918046875 0.65625
vt 0.546875 0.65625
vt 0.3109375 0.50546875
vt 0.30390625 0.50546875
vt 0.30390625 0.4921875
vt 0.3109375 0.4921875
vt 0.0953125 0.4932171875
vt 0.10234375 0.4932171875
vt 0.10234375 0.5078125
vt 0.0953125 0.5078125
vt 0.43603515625 0.89596875
vt 0.41708984375 0.89596875
vt 0.41708984375 0.88608671875
vt 0.43603515625 0.88608671875
vt 0.36259765625 0.7314453125
vt 0.36259765625 0.7125
vt 0.37412109375 0.7125
vt 0.37412109375 0.7314453125
vt 0.5390625 0.934375
vt 0.53125 0.9375
vt 0.53125 0.921875
vt 0.5390625 0.921875
vt 0.22763671875 0.6484375
vt 0.24345703125 0.6484375
vt 0.24345703125 0.6578125
vt 0.22763671875 0.6578125
vt 0.22763671875 0.6578125
vt 0.24345703125 0.6578125
vt 0.24345703125 0.6640625
vt 0.22763671875 0.6640625
vt 0.3484375 0.959375
vt 0.34140625 0.959375
vt 0.34140625 0.9404296875
vt 0.3484375 0.9435546875
vt 0.3359375 0.9404296875
vt 0.3359375 0.959375
vt 0.3234375 0.959375
vt 0.3234375 0.9404296875
vt 0.08447265625 0.515625
vt 0.06552734375 0.515625
vt 0.06552734375 0.5086375000000001
vt 0.08447265625 0.5086375000000001
vt 0.251171875 0.9234375
vt 0.255078125 0.928125
vt 0.255078125 0.9375
vt 0.25673828125 0.64375
vt 0.25283203125 0.6578125
vt 0.25283203125 0.6484375
vt 0.24345703125 0.64375
vt 0.25673828125 0.64375
vt 0.25283203125 0.6484375
vt 0.24345703125 0.6484375
vt 0.1859375 0.40625
vt 0.17890625 0.40625
vt 0.17890625 0.40156250000000004
vt 0.1859375 0.40156250000000004
vt 0.251171875 0.9234375
vt 0.264453125 0.9234375
vt 0.264453125 0.928125
vt 0.255078125 0.928125
vt 0.37412109375 0.7125
vt 0.37958984375 0.7125
vt 0.37958984375 0.7314453125
vt 0.37412109375 0.7314453125
vt 0.407421875 0.71875
vt 0.412890625 0.71875
vt 0.412890625 0.728125
vt 0.407421875 0.728125
vt 0.407421875 0.728125
vt 0.412890625 0.728125
vt 0.412890625 0.734375
vt 0.407421875 0.734375
vt 0.3359375 0.9404296875
vt 0.34140625 0.9404296875
vt 0.34140625 0.959375
vt 0.3359375 0.959375
vt 0.3359375 0.959375
vt 0.34140625 0.959375
vt 0.34140625 0.96875
vt 0.3359375 0.96875
vt 0.3734375 0.96875
vt 0.36796875 0.96875
vt 0.36796875 0.9625
vt 0.3734375 0.9625
vt 0.1078125 0.5078125
vt 0.10234375 0.5078125
vt 0.10234375 0.4932171875
vt 0.1078125 0.4932171875
vt 0.2984375 0.4921875
vt 0.30390625 0.4921875
vt 0.30390625 0.50546875
vt 0.2984375 0.50546875
vt 0.1734375 0.40156250000000004
vt 0.17890625 0.40156250000000004
vt 0.17890625 0.40625
vt 0.1734375 0.40625
vt 0.5625 0.5
vt 0.5703125 0.5
vt 0.5703125 0.5078125
vt 0.5625 0.5078125
vt 0.40771484375 0.8828125
vt 0.41708984375 0.8828125
vt 0.41708984375 0.88608671875
vt 0.40771484375 0.88608671875
vt 0.3734375 0.95
vt 0.3849609375 0.95
vt 0.3859375 0.953125
vt 0.3734375 0.953125
vt 0.41708984375 0.8828125
vt 0.43603515625 0.8828125
vt 0.43603515625 0.88608671875
vt 0.41708984375 0.88608671875
vt 0.3958984375 0.715625
vt 0.407421875 0.715625
vt 0.407421875 0.71875
vt 0.394921875 0.71875
vt 0.5625 0.484375
vt 0.5703125 0.484375
vt 0.5703125 0.4921875
vt 0.5625 0.4921875
vt 0.53125 0.90625
vt 0.546875 0.90625
vt 0.546875 0.9140625
vt 0.53125 0.9140625
vt 0.407421875 0.715625
vt 0.412890625 0.715625
vt 0.412890625 0.71875
vt 0.407421875 0.71875
vn -0.9486832980505137 -0.3162277660168384 0
vn 0 1 0
vn 0 -1 0
vn 0 0 1
vn 0 0 -1
vn 1 0 0
vn 0 0 -1
vn -0.8944271909999161 0.44721359549995804 0
vn 0 0 1
vn 1 0 0
vn 0 0 -1
vn 0 1 0
vn 0.4061384660534474 0 0.9138115486202573
vn 0.40613846605344744 0 0.9138115486202574
vn 0 -1 0
vn 0 0.26764386378609456 -0.9635179096299407
vn -0.9486832980505137 -0.3162277660168384 0
vn 0 -1 0
vn 0 -1 0
vn 1 0 0
vn 1 0 0
vn 0 1 0
vn 0 1 0
vn -0.894427190999916 0.447213595499958 0
vn -1 0 0
vn 1 0 0
vn 1 0 0
vn 0 0 1
vn -1 0 0
vn 0 -1 0
vn 0 0 1
vn 0 0 1
vn 0 1 0
vn 0 1 0
vn 0 0 -1
vn 0 0.26764386378609456 -0.9635179096299407
vn 0 -1 0
vn 0 0 1
vn 1 0 0
vn -0.9544799780350304 -0.2982749931359454 0
vn 0 0 -1
vn -0.9544799780350303 -0.29827499313594535 0
vn 0 0 1
vn 0 0 -1
vn 1 0 0
vn 0 0 1
usemtl m_760b25d0-8ffc-19f6-35fe-305143ee9831
f 4/1/1 20/2/1 19/3/1 10/4/1
f 2/5/2 26/6/2 25/7/2 14/8/2
f 40/9/3 42/10/3 41/11/3 43/12/3
f 3/13/4 17/14/4 16/15/4 11/16/4
f 10/17/5 13/18/5 18/19/5 4/20/5
f 9/21/6 23/22/6 22/23/6 8/24/6
f 2/25/7 14/26/7 13/27/7 10/28/7
f 10/29/8 19/30/8 26/31/8 2/32/8
f 11/33/9 16/34/9 15/35/9 1/36/9
f 6/37/10 24/38/10 23/39/10 9/40/10
f 9/41/11 37/42/11 36/43/11 6/44/11
f 6/45/12 36/46/12 35/47/12 24/48/12
f 5/49/13 34/50/13 33/51/13 12/52/13
f 12/53/14 33/54/14 32/55/14 7/56/14
f 30/57/15 39/58/15 38/59/15 27/60/15
f 27/61/16 38/62/16 37/63/16 9/64/16
f 11/65/17 19/66/17 20/67/17 3/68/17
f 44/69/18 41/70/18 42/71/18 45/72/18
f 7/73/19 32/74/19 31/75/19 22/76/19
f 7/77/20 22/78/20 23/79/20 12/80/20
f 12/81/21 23/82/21 24/83/21 5/84/21
f 24/85/22 35/86/22 34/87/22 5/88/22
f 15/89/23 25/90/23 26/91/23 1/92/23
f 1/93/24 26/94/24 19/95/24 11/96/24
f 28/97/25 18/98/25 13/99/25
f 27/100/26 9/101/26 8/102/26
f 30/103/27 27/104/27 8/105/27 22/106/27
f 22/107/28 31/108/28 39/109/28 30/110/28
f 28/111/29 29/112/29 21/113/29 18/114/29
f 42/115/30 46/116/30 47/117/30 45/118/30
f 17/119/31 32/120/31 33/121/31 16/122/31
f 16/123/32 33/124/32 34/125/32 15/126/32
f 15/127/33 34/128/33 35/129/33 25/130/33
f 25/131/34 35/132/34 36/133/34 14/134/34
f 14/135/35 36/136/35 37/137/35 13/138/35
f 13/139/36 37/140/36 38/141/36 28/142/36
f 28/143/37 38/144/37 39/145/37 29/146/37
f 29/147/38 39/148/38 31/149/38 21/150/38
f 42/151/39 40/152/39 18/153/39 21/154/39
f 43/155/40 41/156/40 20/157/40 4/158/40
f 40/159/41 43/160/41 4/161/41 18/162/41
f 41/163/42 44/164/42 3/165/42 20/166/42
f 44/167/43 45/168/43 17/169/43 3/170/43
f 46/171/44 42/172/44 21/173/44 31/174/44
f 47/175/45 46/176/45 31/177/45 32/178/45
f 45/179/46 47/180/46 32/181/46 17/182/46
o Forearm
v -0.6187499999999999 1.1500000000000001 -0.10000000000000002
v -0.6187499999999999 1.1500000000000001 0.09999999999999999
v -0.6187499999999999 0.9437500000000001 -0.09999999999999999
v -0.6187499999999999 0.9437500000000001 0.10000000000000002
v -0.38749999999999996 1.1812500000000001 -0.11875000000000001
v -0.38749999999999996 1.1812500000000001 0.11874999999999998
v -0.38749999999999996 0.9437500000000001 -0.11874999999999998
v -0.38749999999999996 0.9437500000000001 0.11875000000000001
v -0.6187499999999999 1.0562500000000001 -0.1
v -0.38749999999999996 1.0718750000000001 -0.11875
v -0.38749999999999996 1.0718750000000001 0.11875
v -0.6187499999999999 1.0562500000000001 0.1
v -0.725 1.13125 -0.08750000000000001
v -0.725 1.0562500000000001 0.0875
v -0.725 1.0562500000000001 -0.0875
v -0.725 1.13125 0.08749999999999998
v -0.38749999999999996 1.1539062500000001 0.09687499999999999
v -0.38749999999999996 1.0718750000000001 -0.096875
v -0.38749999999999996 1.0718750000000001 0.096875
v -0.38749999999999996 1.1539062500000001 -0.09687500000000002
v -0.38749999999999996 0.9710937500000001 -0.09687499999999999
v -0.38749999999999996 0.9710937500000001 0.09687500000000002
v -0.4375 1.1414062500000002 0.07812499999999999
v -0.43749999999999994 1.0718750000000001 -0.078125
v -0.43749999999999994 1.0718750000000001 0.078125
v -0.4375 1.1414062500000002 -0.07812500000000001
v -0.43749999999999994 0.9929687500000001 -0.07812499999999999
v -0.43749999999999994 0.9929687500000002 0.07812500000000001
v -0.7999999999999999 1.0562500000000001 3.3486435914185827e-19
v -0.7999999999999999 1.125 -8.084582384996194e-18
v -0.38749999999999996 1.1812500000000001 -1.4973220630200065e-17
v -0.38749999999999996 1.1539062500000001 -1.1624577038781519e-17
v -0.4375 1.1414062500000002 -1.0093768539847327e-17
v -0.43749999999999994 1.0718750000000001 -1.5786462645258865e-18
v -0.43749999999999994 0.9929687500000001 8.084582384996197e-18
v -0.38749999999999996 0.9710937500000001 1.0763497258131033e-17
v -0.38749999999999996 0.9437500000000001 1.4112140849549573e-17
v -0.6187499999999999 0.9437500000000001 1.4112140849549577e-17
v -0.6187499999999999 1.0562500000000001 3.348643591418556e-19
v -0.6187499999999999 1.175 -0.07500000000000001
v -0.6187499999999999 1.175 -1.4207816380732965e-17
v -0.4453125 1.1984375 -1.7078082316234576e-17
v -0.4453125 1.1984375 -0.08671875000000001
v -0.4453125 1.1984375 0.08671874999999998
v -0.6187499999999999 1.175 0.07499999999999998
v -0.7546875 1.15625 -1.1911603632331674e-17
v -0.7078125 1.16015625 0.06718749999999998
v -0.7078125 1.16015625 -0.06718750000000001
v -0.44675374999999995 1.132195 -0.11406250000000001
v -0.6176231249999999 1.078648125 -0.1
v -0.444423125 1.087725 -0.1140625
v -0.61995375 1.123118125 -0.10000000000000002
v -0.7237275 1.0730875 -0.0875
v -0.726058125 1.1175575 -0.08750000000000001
v -0.7986249999999999 1.069161875 -1.246384279832215e-18
v -0.800955625 1.1136325 -6.692465136065441e-18
v -0.61995375 1.1231181250000002 0.09999999999999999
v -0.444423125 1.087725 0.1140625
v -0.6176231249999999 1.0786481250000002 0.1
v -0.44675374999999995 1.132195 0.11406249999999998
v -0.726058125 1.1175575 0.08749999999999998
v -0.7237275 1.0730875 0.0875
v -0.458041875 1.1159568750000002 -0.194821875
v -0.633245 1.093475625 -0.18422875
v -0.45734687499999993 1.102694375 -0.194821875
v -0.63394 1.10673875 -0.18422875
v -0.7901624999999999 1.085251875 -0.155811875
v -0.7908575 1.0985150000000001 -0.155811875
v -0.913175 1.078805 -2.4273264963349953e-18
v -0.91387 1.092068125 -4.05159085412912e-18
v -0.63394 1.10673875 0.18422875
v -0.45734687499999993 1.102694375 0.194821875
v -0.633245 1.0934756250000002 0.18422875
v -0.458041875 1.1159568750000002 0.194821875
v -0.7908575 1.0985150000000001 0.155811875
v -0.7901624999999999 1.085251875 0.155811875
vt 0.0234375 0.6953125
vt 0 0.6953125
vt 0 0.6875
vt 0.0234375 0.6875
vt 0.423828125 0.84287109375
vt 0.43359375 0.84287109375
vt 0.43359375 0.8515625
vt 0.423828125 0.8515625
vt 0.13193359375 0.703125
vt 0.12109375 0.703125
vt 0.12109375 0.6812484375000001
vt 0.13046875 0.6812484375000001
vt 0.284375 0.8984375
vt 0.296875 0.8984375
vt 0.296875 0.92734375
vt 0.28203125 0.92734375
vt 0.48687625 0.49604453125000003
vt 0.48678953125 0.49438671874999995
vt 0.50881609375 0.493234375
vt 0.5089028125 0.49489218749999997
vt 0.5301596875 0.979267109375
vt 0.53024640625 0.977609296875
vt 0.55227296875 0.978761640625
vt 0.55218625 0.980419453125
vt 0.242122890625 0.8046875
vt 0.242122890625 0.81875078125
vt 0.213121328125 0.82070390625
vt 0.213121328125 0.8046875
vt 0.423828125 0.83300703125
vt 0.43359375 0.83300703125
vt 0.43359375 0.84287109375
vt 0.423828125 0.84287109375
vt 0.269068203125 0.970311953125
vt 0.269068203125 0.986328359375
vt 0.240066640625 0.984375234375
vt 0.240066640625 0.970311953125
vt 0.45 0.7421875
vt 0.4375 0.7421875
vt 0.4375 0.72812421875
vt 0.45 0.72812421875
vt 0.52874875 0.4921875
vt 0.52883546875 0.49384601562499997
vt 0.5089028125 0.49489210937500006
vt 0.50881609375 0.493234375
vt 0.357421875 0.6578125
vt 0.366796875 0.66875
vt 0.344140625 0.66875
vt 0.344140625 0.65625
vt 0.51022703125 0.978221015625
vt 0.51031375 0.9765625
vt 0.53024640625 0.977609375
vt 0.5301596875 0.979267109375
vt 0.13046875 0.6812484375000001
vt 0.12109375 0.6812484375000001
vt 0.12109375 0.6640953125
vt 0.1294921875 0.6699664062499999
vt 0.276953125 0.720703125
vt 0.276953125 0.73095703125
vt 0.27421875 0.734375
vt 0.27421875 0.720703125
vt 0.301171875 0.73095703125
vt 0.301171875 0.720703125
vt 0.30390625 0.720703125
vt 0.30390625 0.734375
vt 0.276953125 0.73095703125
vt 0.2890625 0.73095703125
vt 0.2890625 0.734375
vt 0.27421875 0.734375
vt 0.301171875 0.720703125
vt 0.301171875 0.7081046875
vt 0.30390625 0.70468671875
vt 0.30390625 0.720703125
vt 0.276953125 0.7081046875
vt 0.276953125 0.720703125
vt 0.27421875 0.720703125
vt 0.27421875 0.70468671875
vt 0.27421875 0.70468671875
vt 0.2890625 0.70468671875
vt 0.2890625 0.7081046875
vt 0.276953125 0.7081046875
vt 0.5144875 0.70068359375
vt 0.5144875 0.709375
vt 0.5078125 0.7109375
vt 0.5078125 0.70068359375
vt 0.50895 0.740625
vt 0.50895 0.73193359375
vt 0.515625 0.73193359375
vt 0.515625 0.7421875
vt 0.513671875 0.8671875
vt 0.5234375 0.8671875
vt 0.5234375 0.8736296875
vt 0.511328125 0.8736296875
vt 0.50895 0.73193359375
vt 0.50895 0.7220695312500001
vt 0.515625 0.71933515625
vt 0.515625 0.73193359375
vt 0.5144875 0.6908195312500001
vt 0.5144875 0.70068359375
vt 0.5078125 0.70068359375
vt 0.5078125 0.68808515625
vt 0.347265625 0.493178125
vt 0.359375 0.493178125
vt 0.359375 0.5
vt 0.349609375 0.5
vt 0.1015625 0.9296875
vt 0.1015625 0.90625
vt 0.109375 0.90625
vt 0.109375 0.9296875
vt 0.112688984375 0.6699664062499999
vt 0.12109375 0.6640953125
vt 0.12109375 0.68124859375
vt 0.111725234375 0.6812479687499999
vt 0.11171875 0.6812484375000001
vt 0.12109375 0.6812484375000001
vt 0.12109375 0.703125
vt 0.11025390625 0.703125
vt 0.30390625 0.734375
vt 0.2890625 0.734375
vt 0.2890625 0.73095703125
vt 0.301171875 0.73095703125
vt 0.535546875 0.8736296875
vt 0.5234375 0.8736296875
vt 0.5234375 0.8671875
vt 0.533203125 0.8671875
vt 0.443359375 0.8515625
vt 0.43359375 0.8515625
vt 0.43359375 0.84287109375
vt 0.443359375 0.84287109375
vt 0.443359375 0.84287109375
vt 0.43359375 0.84287109375
vt 0.43359375 0.83300703125
vt 0.443359375 0.83300703125
vt 0.369140625 0.5
vt 0.359375 0.5
vt 0.359375 0.493178125
vt 0.371484375 0.493178125
vt 0.301171875 0.7081046875
vt 0.2890625 0.7081046875
vt 0.2890625 0.70468671875
vt 0.30390625 0.70468671875
vt 0.31171875 0.92734375
vt 0.296875 0.92734375
vt 0.296875 0.8984375
vt 0.309375 0.8984375
vt 0.425 0.72812421875
vt 0.4375 0.72812421875
vt 0.4375 0.7421875
vt 0.425 0.7421875
vt 0.344140625 0.68125
vt 0.344140625 0.66875
vt 0.366796875 0.66875
vt 0.357421875 0.6796875
vt 0.42490234375 0.5234375
vt 0.4140625 0.5234375
vt 0.4140625 0.51589765625
vt 0.42890625 0.51589765625
vt 0.292040078125 0.6284601562500001
vt 0.270551015625 0.6328125
vt 0.262633828125 0.6296203125
vt 0.291369765625 0.6240992187500001
vt 0.4140625 0.5234375
vt 0.40322265625 0.5234375
vt 0.39921875 0.51589765625
vt 0.4140625 0.51589765625
vt 0.4092628125 0.6953125
vt 0.38772453125 0.6912109375
vt 0.38834484375 0.68683515625
vt 0.4171409375 0.6920367187500001
vt 0.553179375 0.50697640625
vt 0.54296140625 0.5078125
vt 0.5390625 0.5
vt 0.553465703125 0.5
vt 0.38772453125 0.6912109375
vt 0.3766121875 0.689006015625
vt 0.375 0.6843675
vt 0.3883425 0.686851953125
vt 0.4140625 0.43475203124999995
vt 0.41333640625 0.444978203125
vt 0.4084365625 0.4453125
vt 0.4084365625 0.430921171875
vt 0.303125546875 0.6261275
vt 0.292040078125 0.6284601562500001
vt 0.291368671875 0.624092265625
vt 0.3046875 0.6214859374999999
vt 0.220261171875 0.8226851562499999
vt 0.220551796875 0.82824375
vt 0.213121328125 0.83437578125
vt 0.213121328125 0.82070390625
vt 0.241982265625 0.82155078125
vt 0.220261171875 0.8226851562499999
vt 0.213121328125 0.82070390625
vt 0.242122890625 0.81875078125
vt 0.220551796875 0.82824375
vt 0.24227375 0.8271104687499999
vt 0.24212359375 0.830470625
vt 0.213121796875 0.834375390625
vt 0.24227375 0.8271104687499999
vt 0.255628671875 0.826418984375
vt 0.255496875 0.828130625
vt 0.24212359375 0.830470625
vt 0.2553371875 0.82085921875
vt 0.241982265625 0.82155078125
vt 0.242122890625 0.81875078125
vt 0.255495546875 0.81875453125
vt 0.453125 0.44653226562500004
vt 0.453125 0.4609375
vt 0.4453125 0.46076249999999996
vt 0.44580234375 0.446365390625
vt 0.5998515625 0.562355625
vt 0.5998515625 0.5479503906250001
vt 0.60127234375 0.54807625
vt 0.6015625 0.5625
vt 0.261929140625 0.988309609375
vt 0.240208046875 0.987175234375
vt 0.240067421875 0.984375234375
vt 0.269068203125 0.986328359375
vt 0.261638671875 0.993868984375
vt 0.261929140625 0.988309609375
vt 0.269068984375 0.986328125
vt 0.269069375 1
vt 0.239917421875 0.992737734375
vt 0.261638671875 0.993868984375
vt 0.269069296875 0.999999921875
vt 0.24006796875 0.996097890625
vt 0.240208046875 0.987175234375
vt 0.226853203125 0.986483671875
vt 0.226693984375 0.9843790625
vt 0.240067421875 0.9843753125
vt 0.2265625 0.992047421875
vt 0.239917421875 0.992737734375
vt 0.24006796875 0.9960978125
vt 0.226694375 0.993759140625
vt 0.4609375 0.453125
vt 0.475343515625 0.453125
vt 0.475487890625 0.4609375
vt 0.461064140625 0.46064734375000005
vt 0.608322265625 0.578125
vt 0.593916171875 0.578125
vt 0.59375 0.576511015625
vt 0.6081471875 0.576022734375
vt 0.565080390625 0.9453125
vt 0.565392734375 0.949288828125
vt 0.555733046875 0.953125
vt 0.5546875 0.9453125
vt 0.074140078125 0.839249296875
vt 0.052426484375 0.84312734375
vt 0.04971359375 0.83309484375
vt 0.0710434375 0.828832890625
vt 0.23459515625 0.78666875
vt 0.2558115625 0.78063515625
vt 0.257594375 0.79135546875
vt 0.2365553125 0.796875
vt 0.2558115625 0.78063515625
vt 0.27551609375 0.777451640625
vt 0.2706409375 0.7884259375
vt 0.257594140625 0.7913540625
vt 0.093246328125 0.833471953125
vt 0.074140078125 0.839249296875
vt 0.071043203125 0.828832109375
vt 0.084054140625 0.825746953125
vt 0.10653640625 0.8125
vt 0.093246328125 0.833471953125
vt 0.0840534375 0.82574640625
vt 0.092234375 0.813889609375
vt 0.27551609375 0.777451640625
vt 0.29665484375 0.790473515625
vt 0.283191875 0.795495078125
vt 0.27064125 0.788425234375
vt 0.21363859375 0.85755703125
vt 0.19184484375 0.854156640625
vt 0.19471296875 0.843674765625
vt 0.216130625 0.8474668750000001
vt 0.598981484375 0.78125
vt 0.598669921875 0.779619296875
vt 0.608328984375 0.775783359375
vt 0.609375 0.78125
vt 0.29097796875 0.9449046875
vt 0.312256875 0.9507109375
vt 0.31040609375 0.9609375
vt 0.28931 0.95564296875
vt 0.19184484375 0.854156640625
vt 0.1726175 0.848798828125
vt 0.1816378125 0.840873046875
vt 0.1947128125 0.843675390625
vt 0.271240234375 0.9419328125
vt 0.29097796875 0.9449046875
vt 0.289309921875 0.955643359375
vt 0.276232734375 0.9528525
vt 0.250243125 0.955181484375
vt 0.271240234375 0.9419328125
vt 0.27623328125 0.952853828125
vt 0.263759375 0.960058125
vt 0.1726175 0.848798828125
vt 0.158869375 0.828125
vt 0.173198359375 0.82919890625
vt 0.181637421875 0.8408734375
vn -0.7833867651277132 -0.04105019003920769 0.6201774408348648
vn 1 1.2246467991473532e-16 -1.4997597826618576e-32
vn -0.13391789600139525 0.9909924304103235 -1.2136157078812589e-16
vn 1.2246467991473532e-16 -1 1.2246467991473532e-16
vn -0.059949805511343025 -0.003141573220010193 -0.9981964492708114
vn -0.059949813248846795 -0.0031414255846904156 0.9981964492707457
vn -0.08081586876605476 -1.3196119333954875e-16 -0.996729048114676
vn 1 1.2246467991473532e-16 -1.4997597826618576e-32
vn -0.08081586876605475 1.1216701433861645e-16 0.9967290481146759
vn -1 -1.2246467991473532e-16 1.4997597826618576e-32
vn -0.17771565468567138 -0.009312464446089718 -0.9840378163899921
vn 1.2246467991473532e-16 -1 1.2246467991473532e-16
vn -0.17771565468567138 -0.009312464446089479 0.9840378163899921
vn -0.13663739713703116 0.9906211292434749 -1.213160995095758e-16
vn 1 1.2246467991473532e-16 -1.4997597826618576e-32
vn 1 1.2246467991473532e-16 -1.4997597826618576e-32
vn 1 1.2246467991473532e-16 -1.4997597826618576e-32
vn 1 1.2246467991473532e-16 -1.4997597826618576e-32
vn 1 1.2246467991473532e-16 -1.4997597826618576e-32
vn 1 1.2246467991473532e-16 -1.4997597826618576e-32
vn 0.3511234415883917 -7.166703314113776e-17 -0.9363291775690445
vn 0.3511234415883917 1.5766747291050307e-16 0.9363291775690445
vn 0.24253562503633302 -0.9701425001453319 1.1880819075197913e-16
vn 0.3511234415883917 1.5766747291050304e-16 0.9363291775690444
vn 0.3511234415883917 -7.166703314113775e-17 -0.9363291775690444
vn 0.4008188340197078 0.9161573349021893 -1.121969147703336e-16
vn -0.7833867651277132 -0.041050190039207846 -0.6201774408348649
vn -0.1365402241416851 0.9899166250272159 -0.03770732934145383
vn -0.13391789600139525 0.9909924304103234 -1.2136157078812586e-16
vn 1 1.2246467991473532e-16 -1.4997597826618576e-32
vn 0.24253562503633302 -0.970142500145332 1.1880819075197915e-16
vn 1 1.2246467991473532e-16 -1.4997597826618576e-32
vn 1 1.2246467991473532e-16 -1.4997597826618576e-32
vn 0.4008188340197078 0.9161573349021892 -1.1219691477033357e-16
vn 1 1.2246467991473532e-16 -1.4997597826618576e-32
vn 1.2246467991473532e-16 -1 1.2246467991473532e-16
vn -1 -1.2246467991473532e-16 1.4997597826618576e-32
vn 1.2246467991473532e-16 -1 1.2246467991473532e-16
vn 0.28497026808296194 0.9585363562790538 -1.17386848058351e-16
vn -0.14436248407760383 0.7395801107360309 -0.6574045428764725
vn 0.28497026808296194 0.9585363562790538 -1.17386848058351e-16
vn -0.14188243510536766 0.6999533465198134 0.6999533465198128
vn -0.5361544693671741 0.7774239805824019 0.32886218905951653
vn -0.17168983045507138 0.6327088196399849 0.7551173098718411
vn -0.6334450696132461 0.6602211293191197 -0.40355347128138563
vn -0.1770367313539764 0.6959374956673554 -0.6959374956673551
vn -0.07560166424742057 -0.003962202130349664 -0.997130226859711
vn -0.0811067240894591 0.0034813863777567768 -0.996699342458078
vn -0.08111453492958579 0.0036322474314566112 -0.9966981684551015
vn -0.11746378633640328 0.009077332037042522 -0.9930356795919294
vn -0.11730242490661938 0.005901617660703452 -0.993078703839738
vn -0.7597140137317179 0.05741565448989435 -0.6477175773121652
vn -0.7595590312019012 0.06385340657069112 -0.6472965476417649
vn -0.08113781693676643 0.004082135333230793 0.996694532358765
vn -0.08327633538529922 -0.0043644234125783015 0.9965169360191884
vn -0.08106508187671212 0.0026776966137396874 0.9967052134112506
vn -0.11745362190429288 0.00887659889373203 0.993038696473427
vn -0.11726923190478236 0.005251227375522849 0.9930862761409569
vn -0.7596853112196466 0.05870673872078031 0.6476355045439363
vn -0.7589990805764255 0.08082666040312136 0.6460552968997465
vn 0.9875659901669163 0.051751808721282495 -0.1484424648128493
vn 0.040088790277147235 -0.9812919904144344 -0.18830538612209843
vn -0.06231381727159206 0.981592424906565 -0.18053614469986998
vn -0.08585705385570881 0.9778029250926444 -0.19112824486058133
vn 0.019544512245793202 -0.9840429658350867 -0.17685432828053946
vn -0.07694460725290847 -0.9918262546365575 -0.1017851071046957
vn -0.18651571871120978 0.9766249105736684 -0.10684414219139643
vn 0.04063211582170332 -0.9827290846297141 0.1805341446560618
vn 0.987565548967795 0.05175178560095158 0.14844540807667586
vn -0.06270376684166547 0.980107102764281 0.18830375656070467
vn 0.016823031683511125 -0.9814217767391236 0.19112373412843717
vn -0.08342402948803412 0.9806948084194693 0.17685622421356872
vn -0.18020111268499125 0.9783490540460381 0.10178746206833986
vn -0.08340579080985498 -0.9907714913234973 0.10684252917259031
usemtl m_760b25d0-8ffc-19f6-35fe-305143ee9831
f 169/183/47 164/184/47 163/185/47 170/186/47
f 119/187/48 128/188/48 127/189/48 117/190/48
f 138/191/49 136/192/49 135/193/49 139/194/49
f 98/195/50 132/196/50 131/197/50 102/198/50
f 157/199/51 159/200/51 158/201/51 160/202/51
f 165/203/52 167/204/52 166/205/52 168/206/52
f 97/207/53 103/208/53 104/209/53 101/210/53
f 122/211/54 129/212/54 128/213/54 119/214/54
f 102/215/55 105/216/55 106/217/55 98/218/55
f 106/219/56 133/220/56 132/221/56 98/222/56
f 161/223/57 162/224/57 160/225/57 158/226/57
f 108/227/58 123/228/58 133/229/58 106/230/58
f 169/231/59 170/232/59 167/233/59 165/234/59
f 139/235/60 135/236/60 140/237/60 141/238/60
f 113/239/61 111/240/61 100/241/61 105/242/61
f 114/243/62 112/244/62 104/245/62 99/246/62
f 111/247/63 126/248/63 125/249/63 100/250/63
f 112/251/64 115/252/64 101/253/64 104/254/64
f 116/255/65 113/256/65 105/257/65 102/258/65
f 102/259/66 131/260/66 130/261/66 116/262/66
f 119/263/67 117/264/67 111/265/67 113/266/67
f 120/267/68 118/268/68 112/269/68 114/270/68
f 117/271/69 127/272/69 126/273/69 111/274/69
f 118/275/70 121/276/70 115/277/70 112/278/70
f 122/279/71 119/280/71 113/281/71 116/282/71
f 116/283/72 130/284/72 129/285/72 122/286/72
f 161/287/73 163/288/73 164/289/73 162/290/73
f 142/291/74 140/292/74 135/293/74 134/294/74
f 134/295/75 135/296/75 136/297/75 137/298/75
f 99/299/76 125/300/76 126/301/76 114/302/76
f 114/303/77 126/304/77 127/305/77 120/306/77
f 120/307/78 127/308/78 128/309/78 118/310/78
f 118/311/79 128/312/79 129/313/79 121/314/79
f 121/315/80 129/316/80 130/317/80 115/318/80
f 115/319/81 130/320/81 131/321/81 101/322/81
f 101/323/82 131/324/82 132/325/82 97/326/82
f 97/327/83 132/328/83 133/329/83 103/330/83
f 103/331/84 133/332/84 123/333/84 109/334/84
f 137/335/85 136/336/85 125/337/85 99/338/85
f 134/339/86 137/340/86 99/341/86 95/342/86
f 136/343/87 138/344/87 100/345/87 125/346/87
f 138/347/88 139/348/88 96/349/88 100/350/88
f 141/351/89 140/352/89 124/353/89 110/354/89
f 139/355/90 141/356/90 110/357/90 96/358/90
f 140/359/91 142/360/91 107/361/91 124/362/91
f 142/363/92 134/364/92 95/365/92 107/366/92
f 145/367/93 143/368/93 99/369/93 104/370/93
f 144/371/94 145/372/94 104/373/94 103/374/94
f 143/375/95 146/376/95 95/377/95 99/378/95
f 146/379/96 148/380/96 107/381/96 95/382/96
f 147/383/97 144/384/97 103/385/97 109/386/97
f 149/387/98 147/388/98 109/389/98 123/390/98
f 148/391/99 150/392/99 124/393/99 107/394/99
f 152/395/100 153/396/100 106/397/100 105/398/100
f 154/399/101 152/400/101 105/401/101 100/402/101
f 151/403/102 154/404/102 100/405/102 96/406/102
f 153/407/103 156/408/103 108/409/103 106/410/103
f 155/411/104 151/412/104 96/413/104 110/414/104
f 150/415/105 155/416/105 110/417/105 124/418/105
f 156/419/106 149/420/106 123/421/106 108/422/106
f 159/423/107 157/424/107 143/425/107 145/426/107
f 158/427/108 159/428/108 145/429/108 144/430/108
f 157/431/109 160/432/109 146/433/109 143/434/109
f 160/435/110 162/436/110 148/437/110 146/438/110
f 161/439/111 158/440/111 144/441/111 147/442/111
f 163/443/112 161/444/112 147/445/112 149/446/112
f 162/447/113 164/448/113 150/449/113 148/450/113
f 166/451/114 167/452/114 153/453/114 152/454/114
f 168/455/115 166/456/115 152/457/115 154/458/115
f 165/459/116 168/460/116 154/461/116 151/462/116
f 167/463/117 170/464/117 156/465/117 153/466/117
f 169/467/118 165/468/118 151/469/118 155/470/118
f 164/471/119 169/472/119 155/473/119 150/474/119
f 170/475/120 163/476/120 149/477/120 156/478/120
o cylinder
v -0.1875 1.01875 0.0625
v -0.1875 1.01875 -0.0625
v -0.234539375 1.03717125 0.0625
v -0.234539375 1.03717125 -0.06249999999999999
v -0.234539375 1.06907875 0.06250000000000001
v -0.234539375 1.06907875 -0.062499999999999986
v -0.21217125 1.0875000000000001 0.06250000000000001
v -0.21217125 1.0875000000000001 -0.062499999999999986
v -0.15657875 1.0875000000000001 0.06250000000000001
v -0.15657875 1.0875000000000001 -0.062499999999999986
v -0.12467125 1.06907875 0.06250000000000001
v -0.12467125 1.06907875 -0.062499999999999986
v -0.10625000000000001 1.03717125 0.0625
v -0.10625000000000001 1.03717125 -0.06249999999999999
v -0.10625000000000001 1.00032875 0.06249999999999999
v -0.10625000000000001 1.00032875 -0.0625
v -0.12467125000000003 0.96842125 0.062499999999999986
v -0.12467125000000003 0.96842125 -0.06250000000000001
v -0.15657875000000002 0.9500000000000001 0.062499999999999986
v -0.15657875000000002 0.9500000000000001 -0.06250000000000001
v -0.21217125000000003 0.9500000000000001 0.062499999999999986
v -0.21217125000000003 0.9500000000000001 -0.06250000000000001
v -0.23453937500000002 0.96842125 0.062499999999999986
v -0.23453937500000002 0.9684212500000001 -0.06250000000000001
v -0.234539375 1.00032875 0.06249999999999999
v -0.234539375 1.00032875 -0.0625
v -0.234539375 1.00032875 0.049999999999999996
v -0.234539375 1.03717125 0.05000000000000001
v -0.234539375 1.03717125 -0.049999999999999996
v -0.234539375 1.00032875 -0.05000000000000001
v -0.234539375 1.061101875 0.05000000000000001
v -0.234539375 1.061101875 -0.049999999999999996
v -0.23453937500000002 0.976398125 0.049999999999999996
v -0.23453937500000002 0.9763981250000001 -0.05000000000000001
v -0.20953937500000003 1.00032875 0.049999999999999996
v -0.209539375 1.03717125 0.05000000000000001
v -0.215789375 1.03717125 -0.049999999999999996
v -0.215789375 1.00032875 -0.05000000000000001
v -0.215789375 1.061101875 0.05000000000000001
v -0.215789375 1.061101875 -0.049999999999999996
v -0.215789375 0.976398125 0.049999999999999996
v -0.215789375 0.9763981250000001 -0.05000000000000001
vt 0.48676015625 0.6410359375
vt 0.48277109375 0.6410359375
vt 0.48046875 0.63515625
vt 0.2265625 0.46875
vt 0.234375 0.46875
vt 0.234375 0.484375
vt 0.22676015625 0.484375
vt 0.49058359375 0.8667765625
vt 0.49457265625 0.8667765625
vt 0.48828125 0.87265625
vt 0.4890625 0.63823984375
vt 0.48676015625 0.6410359375
vt 0.48046875 0.63515625
vt 0.2578125 0.46875
vt 0.265625 0.46875
vt 0.265625 0.484375
vt 0.2578125 0.484375
vt 0.49457265625 0.8667765625
vt 0.496875 0.86957265625
vt 0.48828125 0.87265625
vt 0.4890625 0.63129140625
vt 0.4890625 0.63823984375
vt 0.48046875 0.63515625
vt 0.140625 0.9375
vt 0.1484375 0.9375
vt 0.1484375 0.953125
vt 0.140625 0.953125
vt 0.496875 0.86957265625
vt 0.496875 0.87652109375
vt 0.48828125 0.87265625
vt 0.48676015625 0.62730234375
vt 0.4890625 0.63129140625
vt 0.48046875 0.63515625
vt 0.2421875 0.46875
vt 0.25 0.46875
vt 0.25 0.484375
vt 0.2421875 0.484375
vt 0.496875 0.87652109375
vt 0.49457265625 0.88051015625
vt 0.48828125 0.87265625
vt 0.48277109375 0.625
vt 0.48676015625 0.62730234375
vt 0.48046875 0.63515625
vt 0.3046875 0.46875
vt 0.3125 0.46875
vt 0.3125 0.484375
vt 0.3046875 0.484375
vt 0.49457265625 0.88051015625
vt 0.49058359375 0.8828125
vt 0.48828125 0.87265625
vt 0.47816640625 0.625
vt 0.48277109375 0.625
vt 0.48046875 0.63515625
vt 0.2109375 0.46875
vt 0.21875 0.46875
vt 0.21875 0.484375
vt 0.2109375 0.484375
vt 0.49058359375 0.8828125
vt 0.48597890625 0.8828125
vt 0.48828125 0.87265625
vt 0.47417734375 0.62730234375
vt 0.47816640625 0.625
vt 0.48046875 0.63515625
vt 0.2890625 0.46875
vt 0.296875 0.46875
vt 0.296875 0.484375
vt 0.2890625 0.484375
vt 0.48597890625 0.8828125
vt 0.48198984375 0.88051015625
vt 0.48828125 0.87265625
vt 0.471875 0.63129140625
vt 0.47417734375 0.62730234375
vt 0.48046875 0.63515625
vt 0.515625 0.7578125
vt 0.5234375 0.7578125
vt 0.5234375 0.7734375
vt 0.515625 0.7734375
vt 0.48198984375 0.88051015625
vt 0.4796875 0.87652109375
vt 0.48828125 0.87265625
vt 0.471875 0.63823984375
vt 0.471875 0.63129140625
vt 0.48046875 0.63515625
vt 0.03125 0.765625
vt 0.0390625 0.765625
vt 0.0390625 0.78125
vt 0.03125 0.78125
vt 0.4796875 0.87652109375
vt 0.4796875 0.86957265625
vt 0.48828125 0.87265625
vt 0.47417734375 0.6410359375
vt 0.471875 0.63823984375
vt 0.48046875 0.63515625
vt 0.2734375 0.46875
vt 0.28125 0.46875
vt 0.28125 0.484375
vt 0.2734375 0.484375
vt 0.4796875 0.86957265625
vt 0.48198984375 0.8667765625
vt 0.48828125 0.87265625
vt 0.47816640625 0.6410359375
vt 0.47417734375 0.6410359375
vt 0.48046875 0.63515625
vt 0.546933359375 0.5312987499999999
vt 0.550024453125 0.53125
vt 0.550024453125 0.54377421875
vt 0.5471303125 0.543774609375
vt 0.48198984375 0.8667765625
vt 0.48597890625 0.8667765625
vt 0.48828125 0.87265625
vt 0.48277109375 0.6410359375
vt 0.47816640625 0.6410359375
vt 0.48046875 0.63515625
vt 0.550024453125 0.53125
vt 0.554629140625 0.53125
vt 0.554629140625 0.54377421875
vt 0.550024453125 0.54377421875
vt 0.48597890625 0.8667765625
vt 0.49058359375 0.8667765625
vt 0.48828125 0.87265625
vt 0.12730234375 0.5015625
vt 0.12269765625 0.5015625
vt 0.12269765625 0.5
vt 0.12730234375 0.5
vt 0.12269765625 0.5140625
vt 0.12730234375 0.5140625
vt 0.12730234375 0.515625
vt 0.12269765625 0.515625
vt 0.13029375 0.5015625
vt 0.12730234375 0.5015625
vt 0.12730234375 0.5
vt 0.13129140625 0.5
vt 0.13029375 0.5140625
vt 0.13029375 0.5015625
vt 0.13129140625 0.5
vt 0.13129140625 0.515625
vt 0.12730234375 0.5140625
vt 0.13029375 0.5140625
vt 0.13129140625 0.515625
vt 0.12730234375 0.515625
vt 0.12269765625 0.5015625
vt 0.11970625 0.5015625
vt 0.11870859375 0.5
vt 0.12269765625 0.5
vt 0.11970625 0.5140625
vt 0.12269765625 0.5140625
vt 0.12269765625 0.515625
vt 0.11870859375 0.515625
vt 0.11970625 0.5015625
vt 0.11970625 0.5140625
vt 0.11870859375 0.515625
vt 0.11870859375 0.5
vt 0.40073984375 0.40625
vt 0.39613515625 0.40625
vt 0.39613515625 0.40312499999999996
vt 0.40073984375 0.40312499999999996
vt 0.59926015625 0.5078125
vt 0.60386484375 0.5078125
vt 0.60386484375 0.51015625
vt 0.59926015625 0.51015625
vt 0.40373125 0.40546875000000004
vt 0.40073984375 0.40625
vt 0.40073984375 0.40312499999999996
vt 0.40373125 0.40312499999999996
vt 0.09375 0.6796875
vt 0.09375 0.6640625
vt 0.1015625 0.6640625
vt 0.1015625 0.6796875
vt 0.60386484375 0.5078125
vt 0.60685625 0.5078125
vt 0.60685625 0.51015625
vt 0.60386484375 0.51015625
vt 0.39613515625 0.40625
vt 0.39314375 0.40546875000000004
vt 0.39314375 0.40312499999999996
vt 0.39613515625 0.40312499999999996
vt 0.59626875 0.5078125
vt 0.59926015625 0.5078125
vt 0.59926015625 0.51015625
vt 0.59626875 0.51015625
vt 0.5234375 0.78125
vt 0.5234375 0.796875
vt 0.515625 0.796875
vt 0.515625 0.78125
vn -4.930380657631324e-32 -2.220446049250313e-16 1
vn -0.9675458528161578 -0.2526955138071396 -5.610967552963411e-17
vn 4.930380657631324e-32 2.220446049250313e-16 -1
vn -4.930380657631324e-32 -2.220446049250313e-16 1
vn -0.6357163250192425 0.7719227643385245 1.714012852401857e-16
vn 4.930380657631324e-32 2.220446049250313e-16 -1
vn -4.930380657631324e-32 -2.220446049250313e-16 1
vn 2.220446049250313e-16 1 2.220446049250313e-16
vn 4.930380657631324e-32 2.220446049250313e-16 -1
vn -4.930380657631324e-32 -2.220446049250313e-16 1
vn 0.4999887282941086 0.866031911409066 1.9229771362129577e-16
vn 4.930380657631324e-32 2.220446049250313e-16 -1
vn -4.930380657631324e-32 -2.220446049250313e-16 1
vn 0.8660319114090662 0.4999887282941081 1.1101979964103406e-16
vn 4.930380657631324e-32 2.220446049250313e-16 -1
vn -4.930380657631324e-32 -2.220446049250313e-16 1
vn 1 -2.220446049250313e-16 -4.930380657631324e-32
vn 4.930380657631324e-32 2.220446049250313e-16 -1
vn -4.930380657631324e-32 -2.220446049250313e-16 1
vn 0.866031911409066 -0.49998872829410845 -1.1101979964103413e-16
vn 4.930380657631324e-32 2.220446049250313e-16 -1
vn -4.930380657631324e-32 -2.220446049250313e-16 1
vn 0.4999887282941083 -0.8660319114090662 -1.9229771362129582e-16
vn 4.930380657631324e-32 2.220446049250313e-16 -1
vn -4.930380657631324e-32 -2.220446049250313e-16 1
vn -2.220446049250313e-16 -1 -2.220446049250313e-16
vn 4.930380657631324e-32 2.220446049250313e-16 -1
vn -4.930380657631324e-32 -2.220446049250313e-16 1
vn -0.6357163250192428 -0.771922764338524 -1.7140128524018561e-16
vn 4.930380657631324e-32 2.220446049250313e-16 -1
vn -4.930380657631324e-32 -2.220446049250313e-16 1
vn -0.9657816212162391 0.2522347465894225 0.06036135132601499
vn 4.930380657631324e-32 2.220446049250313e-16 -1
vn -4.930380657631324e-32 -2.220446049250313e-16 1
vn -0.9980525784828888 2.0776142857841424e-16 0.06237828615518053
vn 4.930380657631324e-32 2.220446049250313e-16 -1
vn -1 2.220446049250313e-16 4.930380657631324e-32
vn -1 2.220446049250313e-16 4.930380657631324e-32
vn -1 2.220446049250313e-16 4.930380657631324e-32
vn -1 2.220446049250313e-16 4.930380657631324e-32
vn -1 2.220446049250313e-16 4.930380657631324e-32
vn -1 2.220446049250313e-16 4.930380657631324e-32
vn -1 2.220446049250313e-16 4.930380657631324e-32
vn -1 2.220446049250313e-16 4.930380657631324e-32
vn 4.930380657631324e-32 2.220446049250313e-16 -1
vn -4.930380657631324e-32 -2.220446049250313e-16 1
vn 4.930380657631324e-32 2.220446049250313e-16 -1
vn -2.220446049250313e-16 -1 -2.220446049250313e-16
vn -4.930380657631324e-32 -2.220446049250313e-16 1
vn 4.930380657631324e-32 2.220446049250313e-16 -1
vn -4.930380657631324e-32 -2.220446049250313e-16 1
vn 2.220446049250313e-16 1 2.220446049250313e-16
usemtl m_760b25d0-8ffc-19f6-35fe-305143ee9831
f 175/479/121 173/480/121 171/481/121
f 206/482/122 209/483/122 210/484/122 207/485/122
f 174/486/123 176/487/123 172/488/123
f 177/489/124 175/490/124 171/491/124
f 175/492/125 177/493/125 178/494/125 176/495/125
f 176/496/126 178/497/126 172/498/126
f 179/499/127 177/500/127 171/501/127
f 177/502/128 179/503/128 180/504/128 178/505/128
f 178/506/129 180/507/129 172/508/129
f 181/509/130 179/510/130 171/511/130
f 179/512/131 181/513/131 182/514/131 180/515/131
f 180/516/132 182/517/132 172/518/132
f 183/519/133 181/520/133 171/521/133
f 181/522/134 183/523/134 184/524/134 182/525/134
f 182/526/135 184/527/135 172/528/135
f 185/529/136 183/530/136 171/531/136
f 183/532/137 185/533/137 186/534/137 184/535/137
f 184/536/138 186/537/138 172/538/138
f 187/539/139 185/540/139 171/541/139
f 185/542/140 187/543/140 188/544/140 186/545/140
f 186/546/141 188/547/141 172/548/141
f 189/549/142 187/550/142 171/551/142
f 187/552/143 189/553/143 190/554/143 188/555/143
f 188/556/144 190/557/144 172/558/144
f 191/559/145 189/560/145 171/561/145
f 189/562/146 191/563/146 192/564/146 190/565/146
f 190/566/147 192/567/147 172/568/147
f 193/569/148 191/570/148 171/571/148
f 191/572/149 193/573/149 194/574/149 192/575/149
f 192/576/150 194/577/150 172/578/150
f 195/579/151 193/580/151 171/581/151
f 211/582/152 205/583/152 208/584/152 212/585/152
f 194/586/153 196/587/153 172/588/153
f 173/589/154 195/590/154 171/591/154
f 205/592/155 206/593/155 207/594/155 208/595/155
f 196/596/156 174/597/156 172/598/156
f 198/599/157 197/600/157 195/601/157 173/602/157
f 200/603/158 199/604/158 174/605/158 196/606/158
f 201/607/159 198/608/159 173/609/159 175/610/159
f 202/611/160 201/612/160 175/613/160 176/614/160
f 199/615/161 202/616/161 176/617/161 174/618/161
f 197/619/162 203/620/162 193/621/162 195/622/162
f 204/623/163 200/624/163 196/625/163 194/626/163
f 203/627/164 204/628/164 194/629/164 193/630/164
f 206/631/165 205/632/165 197/633/165 198/634/165
f 208/635/166 207/636/166 199/637/166 200/638/166
f 209/639/167 206/640/167 198/641/167 201/642/167
f 210/643/168 209/644/168 201/645/168 202/646/168
f 207/647/169 210/648/169 202/649/169 199/650/169
f 205/651/170 211/652/170 203/653/170 197/654/170
f 212/655/171 208/656/171 200/657/171 204/658/171
f 211/659/172 212/660/172 204/661/172 203/662/172