# Made in Blockbench 5.1.5
mtllib BusterBomber Head.mtl

o cylinder
v 0.01250456419307466 1.3619918955879546 -0.026050440635058736
v 0.012504564193074656 1.5515624999999984 -0.022295204059554968
v 0.04508657889148801 1.3619918955879546 0.20188445697758028
v 0.034530304903033465 1.5069576519030468 0.11763859709738297
v 0.16258833282789859 1.3619918955879546 0.14080948523540307
v 0.11394049058074876 1.5069576519030468 0.08014344808356412
v 0.21752280484395028 1.3619918955879546 0.03502453110711853
v 0.15106861649504577 1.5069576519030468 0.015199944954263842
v 0.21752280484395028 1.3619918955879546 -0.08712541237723599
v 0.15106861649504577 1.5069576519030468 -0.0597903530733738
v 0.16258833282789859 1.3731431076121927 -0.20398576056920412
v 0.11394049058074876 1.5069576519030468 -0.12473385620267403
v 0.04059713891812712 1.3229626535031214 -0.2553900140554263
v 0.03956844231234452 1.5069576519030468 -0.16222900521649286
v -0.015588010531977673 1.3229626535031214 -0.2553900140554263
v -0.014559313926195114 1.5069576519030468 -0.16222900521649292
v -0.1375792044417492 1.3731431076121927 -0.20398576056920412
v -0.08893136219459943 1.5069576519030468 -0.12473385620267406
v -0.19251367645780093 1.3619918955879546 -0.08712541237723595
v -0.12605948810889644 1.5069576519030468 -0.059790353073373756
v -0.19251367645780096 1.3619918955879546 0.035024531107118416
v -0.12605948810889647 1.5069576519030468 0.015199944954263779
v -0.1375792044417493 1.3619918955879546 0.14080948523540304
v -0.08893136219459948 1.5069576519030468 0.08014344808356412
v -0.020047877633018695 1.3619918955879546 0.20188445697758028
v -0.009491603644564164 1.5069576519030468 0.11763859709738297
v -0.17031424912617749 1.4288991677333818 -0.07585970265072467
v -0.13240390207503117 1.4288991677333818 -0.20398576056920412
v -0.017912913267844076 1.4288991677333818 -0.2553900140554263
v 0.04292204165399353 1.4288991677333818 -0.2553900140554263
v 0.15741303046118052 1.4288991677333818 -0.20398576056920412
v 0.1953233775123268 1.4288991677333818 -0.07585970265072473
v 0.1953233775123268 1.4288991677333818 0.031269294531614776
v 0.146337224122217 1.4288991677333818 0.12404572757347235
v 0.04156019111786821 1.4288991677333818 0.17761022616464206
v -0.016521489859398903 1.4288991677333818 0.17761022616464206
v -0.12132809573606772 1.4288991677333818 0.12404572757347232
v -0.17031424912617749 1.4288991677333818 0.03126929453161467
v -0.025556282406392575 1.3731431076121927 -0.18397305014271018
v -0.10391074528948277 1.3731431076121927 -0.1602247134055149
v -0.14652170594952624 1.3619918955879546 -0.07698218710284453
v -0.14652170594952635 1.3619918955879546 0.01913800283489775
v -0.10391074528948284 1.3619918955879546 0.10238052913756815
v -0.030106396466968815 1.3619918955879546 0.15044062410643935
v 0.055115524853118145 1.3619918955879546 0.15044062410643935
v 0.12891987367563212 1.3619918955879546 0.10238052913756815
v 0.17153083433567562 1.3619918955879546 0.019138002834897826
v 0.17153083433567562 1.3619918955879546 -0.07698218710284457
v 0.12891987367563212 1.3731431076121927 -0.16022471340551483
v 0.05056681060975085 1.3731431076121927 -0.18397885828430988
v -0.09130526591876001 1.169633488169849 -0.13981334642922524
v -0.17031424912617749 1.1821786016971165 -0.07585970265072467
v -0.12930230090223827 1.1821786016971165 -0.06680726790515451
v -0.12132809573606766 1.169633488169849 -0.16863613569258223
v 0.15431142928838762 1.1821786016971165 -0.06680726790515454
v 0.14633722412221703 1.169633488169849 -0.1686361356925822
v 0.11631439430490934 1.169633488169849 -0.13981334642922522
v 0.1953233775123268 1.1821786016971165 -0.07585970265072473
v 0.15431142928838762 1.193329813721356 0.01749289027154781
v 0.1953233775123268 1.193329813721356 0.031269294531614776
v 0.11631439430490934 1.215632237769831 0.09049896879561851
v 0.146337224122217 1.215632237769831 0.12404572757347235
v -0.17031424912617749 1.193329813721356 0.03126929453161467
v -0.1293023009022383 1.193329813721356 0.017492890271547733
v -0.12132809573606772 1.215632237769831 0.12404572757347232
v -0.09130526591876004 1.215632237769831 0.09049896879561849
v -0.03648158919703512 1.2281773512970993 0.17761022616464206
v -0.02549247079040359 1.2281773512970993 0.13264904788396972
v 0.061490717583184445 1.2281773512970993 0.17761022616464206
v 0.05050159917655292 1.2281773512970993 0.13264904788396972
v 0.16258833282789859 1.2574492828607235 -0.19291036650552043
v 0.21752280484395028 1.2637218396243577 -0.08712541237723599
v 0.21752280484395028 1.2692974456364772 0.03502453110711853
v 0.16258833282789859 1.2804486576607144 0.14080948523540307
v 0.04508657889148801 1.2867212144243485 0.20188445697758028
v -0.020047877633018695 1.2867212144243485 0.20188445697758028
v -0.1375792044417493 1.2804486576607144 0.14080948523540304
v -0.19251367645780096 1.2692974456364772 0.035024531107118416
v -0.19251367645780093 1.2637218396243577 -0.08712541237723595
v -0.1375792044417492 1.2574492828607235 -0.1929103665055205
v -0.10391074528948277 1.2574492828607235 -0.1602247134055149
v -0.14652170594952624 1.2637218396243577 -0.07698218710284453
v -0.14652170594952635 1.2692974456364772 0.01913800283489775
v -0.10391074528948284 1.2804486576607144 0.10238052913756815
v -0.030106396466968815 1.2867212144243485 0.15044062410643935
v 0.055115524853118145 1.2867212144243485 0.15044062410643935
v 0.12891987367563212 1.2804486576607144 0.10238052913756815
v 0.17153083433567562 1.2692974456364772 0.019138002834897826
v 0.17153083433567562 1.2637218396243577 -0.07698218710284457
v 0.12891987367563212 1.2574492828607235 -0.16022471340551483
v -0.015588010531977673 1.3229626535031214 -0.2753805570778459
v -0.017912913267844076 1.4363031535085924 -0.2718952774184343
v 0.04292204165399353 1.4363031535085924 -0.2718952774184343
v 0.04059713891812712 1.3229626535031214 -0.2753805570778459
v 0.03956844231234452 1.5217656234534684 -0.17524898892008908
v -0.014559313926195114 1.5217656234534684 -0.17524898892008914
v -0.1882871633146998 1.1766652144991951 -0.08003850656509998
v -0.21048659064632325 1.2582084524264363 -0.09130421629161124
v -0.15450865313344717 1.2518354984698272 -0.20152725191830625
v -0.13825754442776564 1.1640197037789524 -0.17725302110536803
v -0.18797660914333386 1.1874864243704002 0.03606455078233328
v -0.2101760364749573 1.2634540562855214 0.03981978735783703
v -0.13423909468704967 1.2088855587428449 0.136658331285262
v -0.15049020339273123 1.2737019786337285 0.15342208894719273
v -0.041238417973534044 1.2209066943760845 0.19482229749234695
v -0.02192789604869801 1.2818741098103388 0.2200226855368568
v 0.06635649385527861 1.2213410141513885 0.19494859214729898
v 0.047009656098577504 1.282163656327208 0.22010688197349149
v 0.1595348373935582 1.209869125727611 0.13681796520367623
v 0.17578594609923978 1.2746855456184947 0.15358172286560695
v 0.21321767384019835 1.1882279167288357 0.03608868166785237
v 0.23541710117182188 1.2641955486439567 0.03984391824335613
v 0.2133831587236595 1.1769943467042436 -0.08007349677941361
v 0.23558258605528298 1.2585375846314848 -0.09133920650592492
v 0.16333186788763335 1.1642934778911032 -0.17730458477810887
v 0.1795829765933149 1.2521092725819778 -0.20157881559104712
v -0.020047877633018695 1.3619918955879546 0.22187499999999996
v 0.04508657889148801 1.3619918955879546 0.22187499999999996
v -0.07777079351943667 1.1449392059579726 -0.11532909373804977
v -0.1451842068708959 1.1574514139022511 -0.060877615106626606
v -0.10975625951807497 1.1574514139022511 -0.053138059151285014
v -0.10370585098957685 1.1449392059579726 -0.1399717005684313
v -0.14258282303718572 1.1689432465253993 0.03107014235618099
v -0.10715487568436484 1.1689432465253993 0.0192917363658621
v -0.0989869631596233 1.1913018474065158 0.10941549371487701
v -0.07305190568948305 1.1913018474065158 0.08073403684951815
v -0.027931291617527828 1.2033534814408136 0.1532287171356019
v -0.018438401734847138 1.2033534814408136 0.11478827929741282
v 0.0536554974141011 1.2033393992848187 0.15394814779509744
v 0.0441626075314204 1.2033393992848187 0.11550770995690837
v 0.12604011929678505 1.191239578922537 0.11083207447450663
v 0.10010506182664486 1.191239578922537 0.08215061760914776
v 0.16996037827468014 1.1688882425751597 0.03176806349693837
v 0.1345324309218592 1.1688882425751597 0.019989657506619463
v 0.17204306592612495 1.1574465036711643 -0.061294499843356345
v 0.13661511857330408 1.1574465036711643 -0.053554943888014725
v 0.13058733863130095 1.1449430207403104 -0.14080701212313715
v 0.10465228116116074 1.1449430207403104 -0.11616440529275562
vt 0.29050806348133007 0.7211251334773745
vt 0.28812567868552513 0.7131948196468668
vt 0.2923998027539054 0.7109375
vt 0.29543806724743304 0.7211251334773745
vt 0.3629203125 0.78125
vt 0.360290625 0.765625
vt 0.375 0.765625
vt 0.3738921875 0.7810476562499999
vt 0.1668157457933774 0.755078125
vt 0.17683734139922755 0.7595580465750356
vt 0.16406275625682792 0.7734365966540615
vt 0.1186019520554822 0.7457973657502307
vt 0.12464882919451781 0.7387166786701133
vt 0.12867423497859004 0.741078615890641
vt 0.12108351052057731 0.7498811846508224
vt 0.004592187499999999 0.6875
vt 0.0016296874999999992 0.67596953125
vt 0.01474453125 0.67596953125
vt 0.0139375 0.6873328125
vt 0.11208692417723984 0.7674991389274862
vt 0.12031339321840388 0.76305365615279
vt 0.12500037762112665 0.78125
vt 0.12464882919451781 0.7387166786701133
vt 0.1268652354445178 0.7296776161701133
vt 0.13139804794451782 0.7296776161701133
vt 0.1286605479445178 0.7410705849201134
vt 0.26828125 0.703125
vt 0.26627265625 0.69190859375
vt 0.2796640625 0.69190859375
vt 0.2776546875 0.703125
vt 0.12031339321840388 0.76305365615279
vt 0.1296868307184039 0.76305365615279
vt 0.12500011196840388 0.7812489686527899
vt 0.12688466601351772 0.7296776161701133
vt 0.12464138122615048 0.7210389110955827
vt 0.12848306731589587 0.71875
vt 0.13139804794451782 0.7296776161701133
vt 0.375 0.8273030433063497
vt 0.375 0.8159084104166333
vt 0.3916941786283357 0.8153862163259129
vt 0.3841309432559069 0.828125
vt 0.1296868307184039 0.76305365615279
vt 0.13791307582276016 0.7674995533027931
vt 0.12499998848843279 0.7812494480407758
vt 0.1837221972143447 0.7008236235363687
vt 0.17377627454570624 0.6984109375
vt 0.1725310211572334 0.6875012991248286
vt 0.18730185045429376 0.6964199495147416
vt 0.12430371611832061 0.640625
vt 0.109375 0.640625
vt 0.1103207444222329 0.6249660337589669
vt 0.12457748025108947 0.6302218008072636
vt 0.22159619646723341 0.8298745331359111
vt 0.2309920725158139 0.825390658370865
vt 0.23437492292584533 0.8437494578593934
vt 0.17377627454570624 0.6984109375
vt 0.16426064954570624 0.6984109375
vt 0.16550752454570625 0.6875
vt 0.17253096204570625 0.68750078125
vt 0.3598984375 0.546875
vt 0.35947890625 0.53125
vt 0.36708359375 0.53125
vt 0.3666640625 0.546875
vt 0.2309920725158139 0.825390658370865
vt 0.2377576975158139 0.825390658370865
vt 0.2343748850158139 0.8437492521208649
vt 0.06554534184166991 0.9073640625
vt 0.05575081059166991 0.9103328125
vt 0.051542216841669916 0.9048625
vt 0.06679143559166992 0.8984375
vt 0.3646311702151817 0.953125
vt 0.359375 0.9388649836639509
vt 0.375 0.9379198597382149
vt 0.375 0.9528454094534433
vt 0.2377576975158139 0.825390658370865
vt 0.24715380353276659 0.8298740512096748
vt 0.2343747472092411 0.84375
vt 0.2567486393360697 0.7851499897889587
vt 0.25046542316393033 0.7914254900202017
vt 0.24655497502134704 0.7891331583504115
vt 0.25460198091187675 0.78125
vt 0.3424609375 0.8203125
vt 0.33450390625 0.8046875
vt 0.35120546875 0.8046875
vt 0.3515625 0.81894921875
vt 0.221461788372192 0.8924990050017606
vt 0.2296883035173733 0.888053607544676
vt 0.2343750992040973 0.90625
vt 0.25046542316393033 0.7914254900202017
vt 0.24791776691393033 0.8002372087702017
vt 0.24325136066393033 0.8002372087702017
vt 0.24656854816393034 0.7891411150202017
vt 0.2926578125 0.703125
vt 0.2906484375 0.69190859375
vt 0.30403984375 0.69190859375
vt 0.30203125 0.703125
vt 0.2296883035173733 0.888053607544676
vt 0.23906174101737332 0.888053607544676
vt 0.2343750222673733 0.9062497012946761
vt 0.24786056146837182 0.8002372087702017
vt 0.2495026338532696 0.8093076765574998
vt 0.24524235632523197 0.8115910214557
vt 0.24325136066393033 0.8002372087702017
vt 0.07199921875 0.6873390625
vt 0.07119296875 0.67597265625
vt 0.08430703125 0.67597265625
vt 0.0813453125 0.6875
vt 0.23906174101737332 0.888053607544676
vt 0.247288211627808 0.8924990874153993
vt 0.2343751344541723 0.9062492657316263
vt 0.28268693275256696 0.7344366592741269
vt 0.28852556724743306 0.7287001334773746
vt 0.29290625135463794 0.7310049342828417
vt 0.28541064114181364 0.7384059103206233
vt 0.36048359375 0.8669914062499999
vt 0.359375 0.8515625
vt 0.3740875 0.8515625
vt 0.37145859375 0.8671875
vt 0.15128765860077245 0.7595581726567295
vt 0.1613126207933774 0.755078125
vt 0.1640624736462323 0.7734365176255938
vt 0.28852556724743306 0.7287001334773746
vt 0.290488848497433 0.7211251334773745
vt 0.29543806724743304 0.7211251334773745
vt 0.29290603599743303 0.7310048209773745
vt 0.001154296875 0.5390625
vt 0.00027617187499999994 0.5234375
vt 0.007536328125 0.5234375
vt 0.006657421875 0.5390625
vt 0.1613126207933774 0.755078125
vt 0.1668157457933774 0.755078125
vt 0.1640626207933774 0.7734375
vt 0.4525625 0.70203203125
vt 0.453125 0.7109375
vt 0.4364234375 0.7109375
vt 0.43660625 0.70417890625
vt 0.31839877662366645 0.8046875
vt 0.3203125 0.8147657659793078
vt 0.30563832547624237 0.8203125
vt 0.3007134327669838 0.8046875
vt 0.32773046875 0.53125
vt 0.32802109375 0.546875
vt 0.32041640625 0.546875
vt 0.32070703125 0.53125
vt 0.390625 0.7890625
vt 0.390625 0.8023081324105005
vt 0.3757294435802598 0.802622726086239
vt 0.375 0.7956687682654877
vt 0.28214375 0.797690625
vt 0.28232734375 0.8046875
vt 0.265625 0.8046875
vt 0.26618828125 0.7960859375
vt 0.28107187499999997 0.6830968749999999
vt 0.2796640625 0.69190859375
vt 0.26627265625 0.69190859375
vt 0.265803125 0.6830968749999999
vt 0.015625 0.6671890625
vt 0.01474453125 0.67596953125
vt 0.0016296875 0.67596953125
vt 0.0007257812499999999 0.6671578125
vt 0.453125 0.65524609375
vt 0.4522703125 0.6640625
vt 0.4375609375 0.6640625
vt 0.436571875 0.65521015625
vt 0.49625859375 0.5625
vt 0.49581796875 0.5703125
vt 0.4885578125 0.5703125
vt 0.48811640625 0.5625
vt 0.3359375 0.553756209282297
vt 0.34478763015639513 0.5547641209411892
vt 0.3447550005886625 0.5694765847580117
vt 0.3359375 0.5703125
vt 0.08521171875 0.6671609375
vt 0.08430703125 0.67597265625
vt 0.07119296875 0.67597265625
vt 0.0703125 0.66719296875
vt 0.30450937499999997 0.683096875
vt 0.30403984375 0.69190859375
vt 0.2906484375 0.69190859375
vt 0.289240625 0.683096875
vt 0.06554534184166991 0.9073640625
vt 0.07031720957858098 0.927150111908657
vt 0.05575099233991653 0.9103327574115947
vt 0.055751427399524794 0.9103332597075264
vt 0.07031720957858098 0.927150111908657
vt 0.050424066360768655 0.920831043002064
vt 0.05042399323152852 0.9208310197725168
vt 0.07031720957858098 0.927150111908657
vt 0.050452580191957724 0.9328458295139405
vt 0.050452580191957724 0.9328458295139405
vt 0.07031720957858098 0.927150111908657
vt 0.055803104135857935 0.9432385971605218
vt 0.055803104135857935 0.9432385971605218
vt 0.07031720957858098 0.927150111908657
vt 0.06504315182265236 0.9492236604732273
vt 0.06504315182265236 0.9492236604732273
vt 0.07031720957858098 0.927150111908657
vt 0.07569546542069584 0.9491983153138898
vt 0.07562184972646643 0.9492159476790881
vt 0.07031688423123482 0.9271499953906379
vt 0.08485329420228484 0.9432176231629245
vt 0.08485329420228484 0.9432176231629245
vt 0.07031688423123482 0.9271499953906379
vt 0.09018967136791972 0.9328171843875783
vt 0.09018967136791972 0.9328171843875783
vt 0.07031688423123482 0.9271499953906379
vt 0.09020100676847148 0.9208023459847695
vt 0.09020100676847148 0.9208023459847695
vt 0.07031695732704529 0.9271499720561117
vt 0.08485932216879354 0.910311985244788
vt 0.08485932216879354 0.910311985244788
vt 0.07031737441479796 0.9271494891279116
vt 0.07506096387495513 0.9073565484942901
vt 0.07506096387495513 0.9073565484942901
vt 0.07031721739317048 0.9271501443110334
vt 0.06554534184166991 0.9073640625
vt 0.0508109375 0.69391875
vt 0.0508109375 0.681634375
vt 0.0625 0.68085078125
vt 0.0625 0.6953125
vt 0.35904828388272203 0.6634442602155688
vt 0.35904828388272203 0.6489163431540795
vt 0.37396127082601094 0.6484375
vt 0.375 0.660665335365212
vt 0.3388453125 0.6953125
vt 0.3388453125 0.68085078125
vt 0.3447109375 0.68085078125
vt 0.345675 0.6953125
vt 0.3046875321248389 0.7421875
vt 0.3046875321248389 0.72772578125
vt 0.3163765946248389 0.728509375
vt 0.3163765946248389 0.74079375
vt 0.3027625 0.6583125
vt 0.3037265625 0.64381640625
vt 0.3095921875 0.64381640625
vt 0.3095921875 0.65824453125
vt 0.26603599580409165 0.7960706217135878
vt 0.2662084232995446 0.7837874568974895
vt 0.2811179542172861 0.7832130816038448
vt 0.28214375 0.797690625
vt 0.11899269227984863 0.671875
vt 0.11899269227984863 0.659590625
vt 0.13100753602984863 0.6602882812499999
vt 0.13100753602984863 0.671875
vt 0.3828125 0.6640625
vt 0.3828125 0.6524757812499999
vt 0.3984375 0.651778125
vt 0.3984375 0.6640625
vt 0.33987265625 0.7265625
vt 0.33987265625 0.7149757812499999
vt 0.3515625 0.71636953125
vt 0.3515625 0.7265625
vt 0.40625 0.7578125
vt 0.40625 0.74761953125
vt 0.421875 0.7462257812499999
vt 0.421875 0.7578125
vt 0.16586762290626028 0.6796875
vt 0.16586762290626028 0.6681007812499999
vt 0.17788246665626029 0.667403125
vt 0.17788246665626029 0.6796875
vt 0.3515625 0.6171875
vt 0.3515625 0.604903125
vt 0.3671875 0.6056007812499999
vt 0.3671875 0.6171875
vt 0.3359375 0.9609375
vt 0.3359375 0.95074453125
vt 0.34762734375 0.9493507812499999
vt 0.34762734375 0.9609375
vt 0.40625 0.8828125
vt 0.40625 0.8712257812499999
vt 0.421875 0.87261953125
vt 0.421875 0.8828125
vt 0.07031285855819293 0.6171875
vt 0.07031285855819293 0.6077781250000001
vt 0.08132145230819293 0.60699453125
vt 0.08132145230819293 0.6171875
vt 0.1015625 0.5859375
vt 0.1015625 0.57574453125
vt 0.1171875 0.5765281250000001
vt 0.1171875 0.5859375
vt 0.3984375 0.5078125
vt 0.3984375 0.5
vt 0.40625 0.5
vt 0.40625 0.5078125
vt 0.4803432987450118 0.71875
vt 0.4800663687813279 0.7109375
vt 0.4886836312186721 0.7109375
vt 0.48848541543900914 0.7187160437563078
vt 0.1484375 0.5234375
vt 0.1484375 0.51324453125
vt 0.15625 0.5140281250000001
vt 0.15625 0.5234375
vt 0.2578125 0.5859375
vt 0.2578125 0.5765281250000001
vt 0.2734375 0.57574453125
vt 0.2734375 0.5859375
vt 0.453125 0.6730881610829436
vt 0.4609375 0.671875
vt 0.4609375 0.687351498631399
vt 0.4539876164289729 0.686821207447539
vt 0.1015625 0.5400333714635086
vt 0.109375 0.5390625
vt 0.109375 0.5554749618634423
vt 0.10231124924076729 0.5546008623159371
vt 0.4354081707488574 0.9140625
vt 0.4453125 0.9140625
vt 0.44515406129242213 0.9296875
vt 0.4367176427797045 0.9280350190209015
vt 0.007013035637801257 0.546875
vt 0.015625 0.546875
vt 0.014730432957200418 0.5625
vt 0.0073833528849958086 0.5581537476313643
vt 0.07703717485911082 0.53125
vt 0.07465417860408982 0.5390625
vt 0.06603690256759995 0.5390625
vt 0.06358782514088918 0.53125
vt 0.44344568057707656 0.9612821678747787
vt 0.44779662570627154 0.9686916484214173
vt 0.4296875 0.9695003724400069
vt 0.4296875 0.9609375
vt 0.03797726359835526 0.5639151213646236
vt 0.03952984387819688 0.5723855417252655
vt 0.0234375 0.5723855417252655
vt 0.023553684680867028 0.5625
vt 0.43314084296202815 0.985113628865876
vt 0.433983296673917 0.9949824071368023
vt 0.417579203326083 0.9949824071368023
vt 0.4185857004769879 0.984375
vt 0.42134977531891793 0.6492958411979166
vt 0.421875 0.6599400321154671
vt 0.406401790316954 0.6599400321154671
vt 0.40761961255037604 0.6484375
vt 0.34113984375 0.6698468750000001
vt 0.3447109375 0.68085078125
vt 0.3388453125 0.68085078125
vt 0.3359375 0.66984921875
vt 0.060927324446190353 0.6695807433085784
vt 0.0625 0.68085078125
vt 0.050810288574582724 0.6816344185016838
vt 0.050639340080013695 0.6711419061334865
vt 0.17659689206750726 0.6569874668032241
vt 0.17788246665626029 0.667403125
vt 0.16586753334373971 0.6681007864505547
vt 0.16605846385781406 0.6583650773346768
vt 0.3468050060444383 0.9396462587960438
vt 0.34762734375 0.9493507812499999
vt 0.33593772991337556 0.9507445038380197
vt 0.3365111020787092 0.9423865964478859
vt 0.08079319092722853 0.598624483450418
vt 0.08132145230819293 0.60699453125
vt 0.0703125 0.6077781505222388
vt 0.07102074403152056 0.6001462419581071
vt 0.481312109375 0.546875
vt 0.481888671875 0.5546875
vt 0.471236328125 0.5546875
vt 0.471812890625 0.546875
vt 0.4831265313262503 0.8674319197341651
vt 0.484375 0.875
vt 0.4733383387917813 0.875
vt 0.4732711873303288 0.866620172474449
vt 0.3509895966521648 0.7080029794160033
vt 0.3515625 0.71636953125
vt 0.33987330880702543 0.7149758590526956
vt 0.340694393824117 0.7052826956534359
vt 0.1308162731827821 0.6505510447026527
vt 0.13100753602984863 0.6602882812499999
vt 0.11899246397015137 0.6595906117429248
vt 0.12027757848436836 0.6491762640948314
vt 0.3165485243271469 0.7180160404344571
vt 0.3163765946248389 0.728509375
vt 0.3046875 0.7277257790964635
vt 0.30626022143876763 0.7164569781003804
vt 0.3125 0.6328148437500001
vt 0.3095921875 0.64381640625
vt 0.3037265625 0.64381640625
vt 0.30729765625 0.6328125
vt 0.032425611658487556 0.7016703125
vt 0.03198967415848755 0.6875
vt 0.034488892908487556 0.6875
vt 0.034488892908487556 0.7007453125
vt 0.2883261718749999 0.9140625
vt 0.287887890625 0.92823359375
vt 0.28582539062499995 0.9273078125
vt 0.285827734375 0.9140625
vt 0.4921875 0.59375
vt 0.5 0.59375
vt 0.5 0.6015625
vt 0.4921875 0.6015625
vt 0.287887890625 0.92823359375
vt 0.2758011718750001 0.9389179687500001
vt 0.2741738281250001 0.9370664062500002
vt 0.28582539062499995 0.9273078125
vt 0.04450739874444686 0.7123600591130104
vt 0.032425611658487556 0.7016703125
vt 0.03448918464307024 0.7007451817110012
vt 0.04613532584151245 0.7105097909479448
vt 0.4375 0.5078125
vt 0.4296875 0.5078125
vt 0.4296875 0.5
vt 0.4375 0.5
vt 0.3595289067474108 0.7007916064038904
vt 0.3741921870025892 0.6958519510322758
vt 0.3744548620481815 0.6982449519684601
vt 0.36035540332408844 0.703125
vt 0.46875 0.7265625
vt 0.4803180258121862 0.7265625
vt 0.48033020020931505 0.734375
vt 0.4687614248609126 0.734375
vt 0.212903151253804 0.9140625
vt 0.2265625 0.9157039425221208
vt 0.22619736739358015 0.9181524745642176
vt 0.213099164796689 0.916460737411155
vt 0.3741921870025892 0.6958519510322758
vt 0.3904710932525892 0.6978691385322758
vt 0.3896242182525892 0.7001160135322758
vt 0.3744546870025892 0.6982433572822758
vt 0.199109401253804 0.91877109375
vt 0.212903151253804 0.9140625
vt 0.21309924500380398 0.91646171875
vt 0.200360182503804 0.920815625
vt 0.328125 0.740217963346686
vt 0.34312505777854213 0.7343925617825394
vt 0.3434348803285983 0.7367811684626444
vt 0.3294828855723875 0.7421875
vt 0.1891924217867078 0.9293569844411869
vt 0.199109401253804 0.91877109375
vt 0.20036289637275662 0.9208200610993436
vt 0.19121785942975825 0.9306188404943248
vt 0.34312505777854213 0.7343925617825394
vt 0.3609266202785421 0.7378128742825394
vt 0.35972349527854214 0.7398417805325395
vt 0.34343443277854213 0.7367777180325394
vt 0.1875 0.47473094939512306
vt 0.1875 0.4609375
vt 0.18982696180009423 0.4615583139123076
vt 0.18984119642689917 0.4741966876210706
vt 0.0859375 0.5368866645638612
vt 0.0859375 0.5234375
vt 0.09375 0.5240329087033262
vt 0.09375 0.5362796076778951
vt 0.003399533426595318 0.8820237198001412
vt 0.014911570931298709 0.8680018185329609
vt 0.016185557348599777 0.8700428607328805
vt 0.005623461526111685 0.8828125
vt 0.017447629098416358 0.53125
vt 0.03125 0.53125
vt 0.030711176423984785 0.5390625
vt 0.01807363473180252 0.5390240080690836
vt 0.014911570931298707 0.8680018185329609
vt 0.030245945931298708 0.8630768185329609
vt 0.030432664681298707 0.8654721310329608
vt 0.016181883431298706 0.8700369747829608
vt 0.1993765345357195 0.80922265625
vt 0.2094119165284564 0.8197184724962426
vt 0.20737213947328625 0.8209939467569063
vt 0.1981495290547755 0.8112666318995574
vt 0.030245945931298708 0.8630768185329609
vt 0.046443684547993934 0.8657302240934626
vt 0.045514880749858794 0.867951090688134
vt 0.03043266811654509 0.8654721751018537
vt 0.1855116907857195 0.8046875
vt 0.1993765345357195 0.80922265625
vt 0.1981398157857195 0.8112828125
vt 0.1853468470357195 0.8070867187499999
vt 0.46875 0.8084670051418499
vt 0.46875 0.7968988905316481
vt 0.4765625 0.796875
vt 0.4765625 0.8084431146102018
vt 0.046443684547993934 0.8657302240934626
vt 0.05910046657340468 0.8746379097089261
vt 0.057642990882645476 0.8766405996630258
vt 0.04551533046903142 0.8679500153627645
vt 0.171875 0.806537358224251
vt 0.1855116907857195 0.8046875
vt 0.18534667365545174 0.8070892422135181
vt 0.17227454792041455 0.8089795953597262
vt 0.24711171875 0.4665453125
vt 0.24734296875 0.4765625
vt 0.24484453125 0.4765625
vt 0.24484453125 0.46715624999999994
vt 0.2734375 0.4765625
vt 0.2734375 0.4665785428368925
vt 0.275738884578625 0.46710375542199334
vt 0.2759236163044892 0.47650740984975104
vt 0.4140625 0.5
vt 0.421875 0.5
vt 0.421875 0.5078125
vt 0.4140625 0.5078125
vt 0.5111672765103444 0.5467262666979975
vt 0.5111672765103444 0.5378454444096843
vt 0.515625 0.5364717311460832
vt 0.515453818630315 0.546875
vt 0.1213082316760002 0.53125
vt 0.1325808782070706 0.53125
vt 0.1328125 0.5389181931083955
vt 0.11960697936458085 0.5390625
vt 0.359375 0.5078125
vt 0.363846875 0.5078125
vt 0.36791171875 0.515625
vt 0.362709375 0.515615625
vt 0.015625 0.5232797587037413
vt 0.015625 0.5141073845890742
vt 0.0234375 0.5128184366171648
vt 0.0234375 0.5234375
vt 0.04062495303089429 0.53125
vt 0.05221231228705141 0.53125
vt 0.05251739327484715 0.5390625
vt 0.0390625 0.5389595033252381
vt 0.015625 0.4834910571876947
vt 0.015625 0.4742734797993482
vt 0.01971345529453508 0.47372946250791603
vt 0.01948839343076303 0.484375
vt 0.461814133834947 0.8984375
vt 0.47336521098917167 0.8984375
vt 0.4743334117419984 0.9061603316004444
vt 0.4609375 0.90625
vt 0.0625 0.4755661603804936
vt 0.0625 0.46738089462796883
vt 0.06642996995861986 0.46667272017834294
vt 0.06628654147631571 0.4765625
vt 0.4619051324566204 0.65625
vt 0.47244844308117195 0.65625
vt 0.47357423222847206 0.6639946531124312
vt 0.4609375 0.6640625
vt 0.23825433144604644 0.515625
vt 0.24608011304701227 0.515625
vt 0.24693672824706492 0.5234375
vt 0.23743827175293508 0.5233755009480485
vt 0.40797863533851886 0.4877662037447823
vt 0.40797863533851886 0.477566984725489
vt 0.41226089752916795 0.4765625
vt 0.41233386466148114 0.4888086108409667
vt 0.2173049714878121 0.515625
vt 0.2255854379159536 0.515625
vt 0.2265625 0.5234375
vt 0.21667663800777684 0.5234375
vt 0.39419880580890654 0.4880891715122391
vt 0.39419880580890654 0.4774493376289739
vt 0.3984033530504254 0.4765625
vt 0.3984375 0.48919617734367615
vt 0.46640200894402206 0.5234375
vt 0.47571275178500827 0.5234375
vt 0.4765625 0.531076602204803
vt 0.46591554360875825 0.53125
vt 0.5112979201210601 0.9187101386042724
vt 0.5112979201210601 0.9070643704189625
vt 0.515625 0.90625
vt 0.5154618031770921 0.9196471024562684
vt 0.48278813333682785 0.9921875
vt 0.49209553235006465 0.9921875
vt 0.4921875 1
vt 0.48156535463506156 1
vt 0.003432528711741878 0.4897793746415955
vt 0.003432528711741878 0.478056618972032
vt 0.007803763402985248 0.4765625
vt 0.0078125 0.49002015827512346
vt 0.03264901147699523 0.515625
vt 0.04157340544741461 0.515625
vt 0.041652463413247624 0.5232958843763114
vt 0.03125 0.5234375
vt 0.495528125 0.578125
vt 0.5 0.578125
vt 0.49690703125 0.585928125
vt 0.4917046875 0.5859375
vt 0.4609375 0.513045025187363
vt 0.4609375 0.501727547162737
vt 0.4656829547270145 0.5
vt 0.46554899708921116 0.513205327305405
vn -0.13806733491800174 -0.9825226312995125 0.12484666600643622
vn 0.36851371547430756 0.5870078105369515 0.7208463580236331
vn 0.13311320589022782 0.950159624241904 0.28191765265429825
vn -0.0961516801988023 -0.9524238857740845 0.28921202637847
vn 0.7483297037167154 0.5328068135149234 0.3951196704889882
vn 0.2654304558223695 0.952113300965074 0.1517462857776758
vn 0.03376769259777538 -0.987404265806761 0.1545721799135724
vn 0.8699188186610772 0.49319494009906084 0
vn 0.3064226030059064 0.9518955763985274 0
vn 0.12563107315874 -0.9832266606090578 0.1322201471960451
vn 0.8215097243710122 0.5157890079095511 -0.24307091986402873
vn 0.26543045582236946 0.952113300965074 -0.15174628577767585
vn -0.1765326866602615 -0.7935810321961594 0.5822931872167048
vn 0.26818998264255406 0.7558242019275534 -0.5973306529810466
vn 0.13924530539590874 0.9509612372440606 -0.2761946237428348
vn 0.00004386567702759237 -0.8182127416288822 0.5749155655502384
vn 0 0.7491208868475202 -0.6624333150504924
vn 3.1146304055278637e-16 0.9527673721518056 -0.303701061181786
vn 0 -1 0
vn -0.2746490748769036 0.7418695795093215 -0.6117167748786392
vn -0.1392453053959087 0.9509612372440606 -0.2761946237428348
vn -0.0388521120742552 -0.9832910271898774 0.17784619544776725
vn -0.7407283754152584 0.6350483365733679 -0.21916907644572214
vn -0.2654304558223695 0.952113300965074 -0.15174628577767582
vn 0.0514290919398335 -0.9866232216869008 0.15469216829046312
vn -0.8699188186610772 0.49319494009906084 0
vn -0.30642260300590635 0.9518955763985274 -1.1341381421012347e-16
vn 0.23636538756037823 -0.9478660056276212 0.2137321663647535
vn -0.7591294023473649 0.5128979698744458 0.4008219342680799
vn -0.26543045582236957 0.952113300965074 0.15174628577767574
vn 0.18762036292287881 -0.9811482333518644 0.046332964584655724
vn -0.37462906953931124 0.567751278517136 0.733015379100785
vn -0.13307877903491866 0.9501549370269512 0.2819497015672939
vn -0.0002255911713777333 -0.9999999730025162 0.00005570987920086232
vn 0 0.609242455250938 0.7929840040756237
vn 0 0.9527673721518056 0.303701061181786
vn -0.9005076972100547 0.3436464754279922 -0.26644509226360896
vn -0.4092956134912801 0.03799100138325125 -0.9116105443612939
vn 0 0.030735994600571845 -0.999527537707648
vn 0.40957475830124396 -0.008988604949249752 -0.9122322743378157
vn 0.9551300961797479 0.08865560149943547 -0.28260694204926895
vn 0.9491207082052541 0.31491249777669494 0
vn 0.8423261225227365 0.3044407323930975 0.44474997894970864
vn 0.43179042890271385 0.31649924486225006 0.8446213669506805
vn 0 0.34105195411976463 0.9400444481997062
vn -0.42993413525339247 0.3278607542121384 0.8412276536059461
vn -0.839315003624173 0.31489593340744 0.4431601017858129
vn -0.9491207082052541 0.31491249777669494 0
vn -0.01989775699640043 -0.9976443044090286 -0.06564998969335549
vn 0.0365945093130872 -0.9927765978651049 -0.11426052957833956
vn 0 -1 0
vn 0 -1 0
vn 0 -1 0
vn 0 -1 0
vn 0 -1 0
vn 0 -1 0
vn 0 -1 0
vn -0.03659450931308725 -0.9927765978651049 -0.11426052957833967
vn 0.01990189448950017 -0.9976444572679002 -0.06564641253233879
vn -0.0000053741597362923405 -0.9975163564821659 -0.07043520796919094
vn 0.8901537859976958 0 0.45566022129868733
vn -0.8876767729136186 -0.04388000590886996 -0.4583715653387561
vn 0.6965570448526321 0 -0.7175014169088229
vn -0.8901537859976955 0 0.4556602212986877
vn -0.6949197124764903 -0.06852510568680169 -0.7158148525297618
vn 0.8874697631851205 0 -0.4608659451859581
vn -1 0 0
vn 1 0 0
vn -0.8901537859976957 0 -0.45566022129868755
vn 0.8874697631851207 0 0.46086594518595775
vn 1 0 1.1550362367617623e-15
vn -1 0 -2.2722544787082934e-16
vn 0.8901537859976956 0 -0.4556602212986875
vn -0.8874697631851209 0 0.46086594518595725
vn 0.5456847266193484 0 -0.837990560289534
vn -0.46110716922548545 0 0.8873444531233967
vn 0 0 -1
vn -0.0011240474975110618 -0.023087337147578792 0.999732819997752
vn -0.5456847266193486 0 -0.837990560289534
vn 0.4611985385995794 0 0.8872969671950944
vn 0.8632187957428982 -0.27650034293257353 -0.42237527275439535
vn 0.9652432420641461 -0.26105518135740835 0.012477016307870105
vn 0.8425122422759166 -0.2692633726202184 0.4665515596162903
vn 0.41920773905718794 -0.32441507987791346 0.8479503095478931
vn 0.0004761835806473528 -0.3820965770359358 0.9241222749542501
vn -0.4373892227584165 -0.22169771436074845 0.8715163746379113
vn -0.82435763499588 -0.3263181417446785 0.46254833260136113
vn -0.9595887549065835 -0.2810813110787235 0.013517322926486186
vn -0.8594702835337392 -0.2919550449475527 -0.4196106331494788
vn 0.6948842487878308 -0.06926235499947694 -0.715778322503901
vn 0.8740136724356403 0.2255008820599208 0.4304061484060876
vn 0.9786527158953803 0.2051760570323722 -0.011901566755886758
vn 0.8598326747848953 0.20502242932508447 -0.46760407915873986
vn 0.5132858602521763 0.2503046015875427 -0.8209051297740105
vn 0 0.2907708781155706 -0.9567927134128374
vn -0.5054546062474269 0.28711528271746783 -0.813683264823191
vn -0.8477321365615423 0.250566614474594 -0.467511065485666
vn -0.975119890224636 0.22130613531039076 -0.012837217855632172
vn -0.8718169253867329 0.23755292318451657 0.4283735020933425
vn -0.6950088325843465 -0.06663623463910918 -0.7159066523387427
vn -0.9997896840027798 -0.02050823643372729 0
vn 0.9997542040682906 -0.020228473613295276 -0.009074155776437526
vn 0 -1 0
vn 0.9996623169553116 0.017158625950005647 0.019514958750818615
vn -0.9995931726397267 0.02602335929229491 0.011673644811701574
vn -7.701847026056355e-16 0.6603125447882705 0.750990907531668
vn -0.24952877286547206 0.9511639725326487 -0.1817209092761818
vn 0.4871133797436868 -0.1477839958086812 -0.8607441233360253
vn 0.20042367009806955 -0.9530218069035041 0.22711184035800636
vn -0.3229359296268189 0.9456946543897257 -0.037067587118125814
vn 0.2732468023391241 -0.9578600967550043 0.08854501711523732
vn -0.3718642390702763 0.9214754499478696 0.11224964518454301
vn 0.3212280047605527 -0.9465343605013852 0.02975354344928379
vn -0.1829585164997099 0.954356784157911 0.23607056100241702
vn 0.26481436322133806 -0.9365006293120972 -0.22986936361708438
vn 0.004175709960596921 -0.921590647366946 -0.3881407504142006
vn 0.18091084470369237 0.9529883235563897 0.24307307838133488
vn -0.2876534358116436 -0.9157813282712196 -0.2803570217696671
vn 0.2617995961201619 0.9639100524587925 0.048356822064818145
vn -0.3913227781601454 -0.9201894785932024 -0.010853883148264788
vn 0.266791984101261 0.9628734184897324 -0.041192440874625036
vn -0.2957569912102205 -0.9508677484865715 0.0915332018360324
vn -0.4859108937451336 -0.14817572695405815 -0.861356231347659
vn 0.21730360281858507 0.961803809847545 -0.16647094510697813
vn -0.21700851685955877 -0.9473476275096686 0.235456527329817
vn -0.9997247945527898 0.023459223268943345 0
vn 0.9947989240795518 0.026145364794183862 -0.09844552072057619
vn 0 1 0
vn 0.7271039270009247 0.6413520916575584 0.2449231999348138
vn -0.6211222565416636 -0.756124631419565 -0.2061132799923841
vn 0.6501534660237284 -0.3303011747556177 -0.6842525882832974
vn 0.81005907820988 0.5739059581223978 -0.12015090944879332
vn -0.6557688354642371 -0.7466275852449814 0.11186815179096504
vn 0.6379672307875399 0.5388074802048072 -0.550167530591023
vn -0.4842984907658401 -0.7324435334061321 0.47852005413929066
vn 0.34531996413549654 0.561017845417656 -0.752338420853535
vn -0.27138367295486815 -0.7203812109383071 0.6382803560979952
vn 0.009445332194761343 0.5857783429498964 -0.8104162625654819
vn -0.006512320528499847 -0.6886680880840942 0.7250474840559978
vn -0.3143000759049826 0.5922418678247015 -0.7419333071655639
vn 0.3115323933840636 -0.6398079241433168 0.7025620172453225
vn -0.6012968968152246 0.5856164550103501 -0.5435948946609893
vn 0.602618347306778 -0.6149577148632729 0.5086041057830629
vn -0.7777804655458805 0.6173468029544791 -0.11806977723836583
vn 0.752582159475796 -0.6513266774799661 0.09692085658750686
vn -0.7238492334519278 0.6467310964826021 0.24037715380931698
vn -0.6462190116826282 -0.34619207823986375 -0.6801117804478108
vn 0.6724185445377985 -0.7000080156935365 -0.2405038023118682
usemtl m_349ca9e1-c03b-a562-42cd-191c9d89e767
f 130/1/1 132/2/1 131/3/1 129/4/1
f 4/5/2 35/6/2 34/7/2 6/8/2
f 4/9/3 6/10/3 2/11/3
f 132/12/4 134/13/4 133/14/4 131/15/4
f 6/16/5 34/17/5 33/18/5 8/19/5
f 6/20/6 8/21/6 2/22/6
f 134/23/7 136/24/7 135/25/7 133/26/7
f 8/27/8 33/28/8 32/29/8 10/30/8
f 8/31/9 10/32/9 2/33/9
f 136/34/10 138/35/10 137/36/10 135/37/10
f 10/38/11 32/39/11 31/40/11 12/41/11
f 10/42/12 12/43/12 2/44/12
f 49/45/13 50/46/13 13/47/13 11/48/13
f 12/49/14 31/50/14 30/51/14 14/52/14
f 12/53/15 14/54/15 2/55/15
f 50/56/16 39/57/16 15/58/16 13/59/16
f 95/60/17 93/61/17 92/62/17 96/63/17
f 14/64/18 16/65/18 2/66/18
f 39/67/19 40/68/19 17/69/19 15/70/19
f 16/71/20 29/72/20 28/73/20 18/74/20
f 16/75/21 18/76/21 2/77/21
f 119/78/22 121/79/22 120/80/22 122/81/22
f 18/82/23 28/83/23 27/84/23 20/85/23
f 18/86/24 20/87/24 2/88/24
f 121/89/25 124/90/25 123/91/25 120/92/25
f 20/93/26 27/94/26 38/95/26 22/96/26
f 20/97/27 22/98/27 2/99/27
f 124/100/28 126/101/28 125/102/28 123/103/28
f 22/104/29 38/105/29 37/106/29 24/107/29
f 22/108/30 24/109/30 2/110/30
f 126/111/31 128/112/31 127/113/31 125/114/31
f 24/115/32 37/116/32 36/117/32 26/118/32
f 24/119/33 26/120/33 2/121/33
f 128/122/34 130/123/34 129/124/34 127/125/34
f 26/126/35 36/127/35 35/128/35 4/129/35
f 26/130/36 4/131/36 2/132/36
f 19/133/37 27/134/37 28/135/37 17/136/37
f 17/137/38 28/138/38 29/139/38 15/140/38
f 91/141/39 92/142/39 93/143/39 94/144/39
f 13/145/40 30/146/40 31/147/40 11/148/40
f 11/149/41 31/150/41 32/151/41 9/152/41
f 9/153/42 32/154/42 33/155/42 7/156/42
f 7/157/43 33/158/43 34/159/43 5/160/43
f 5/161/44 34/162/44 35/163/44 3/164/44
f 3/165/45 35/166/45 36/167/45 25/168/45
f 25/169/46 36/170/46 37/171/46 23/172/46
f 23/173/47 37/174/47 38/175/47 21/176/47
f 21/177/48 38/178/48 27/179/48 19/180/48
f 39/181/49 1/182/49 40/183/49
f 40/184/50 1/185/50 41/186/50
f 41/187/51 1/188/51 42/189/51
f 42/190/52 1/191/52 43/192/52
f 43/193/53 1/194/53 44/195/53
f 44/196/54 1/197/54 45/198/54
f 45/199/55 1/200/55 46/201/55
f 46/202/56 1/203/56 47/204/56
f 47/205/57 1/206/57 48/207/57
f 48/208/58 1/209/58 49/210/58
f 49/211/59 1/212/59 50/213/59
f 50/214/60 1/215/60 39/216/60
f 41/217/61 82/218/61 81/219/61 40/220/61
f 17/221/62 80/222/62 79/223/62 19/224/62
f 40/225/63 81/226/63 80/227/63 17/228/63
f 49/229/64 90/230/64 89/231/64 48/232/64
f 11/233/65 71/234/65 90/235/65 49/236/65
f 9/237/66 72/238/66 71/239/66 11/240/66
f 48/241/67 89/242/67 88/243/67 47/244/67
f 7/245/68 73/246/68 72/247/68 9/248/68
f 47/249/69 88/250/69 87/251/69 46/252/69
f 5/253/70 74/254/70 73/255/70 7/256/70
f 42/257/71 83/258/71 82/259/71 41/260/71
f 19/261/72 79/262/72 78/263/72 21/264/72
f 43/265/73 84/266/73 83/267/73 42/268/73
f 21/269/74 78/270/74 77/271/74 23/272/74
f 44/273/75 85/274/75 84/275/75 43/276/75
f 23/277/76 77/278/76 76/279/76 25/280/76
f 45/281/77 86/282/77 85/283/77 44/284/77
f 117/285/78 106/286/78 108/287/78 118/288/78
f 46/289/79 87/290/79 86/291/79 45/292/79
f 3/293/80 75/294/80 74/295/80 5/296/80
f 115/297/81 116/298/81 114/299/81 113/300/81
f 113/301/82 114/302/82 112/303/82 111/304/82
f 111/305/83 112/306/83 110/307/83 109/308/83
f 109/309/84 110/310/84 108/311/84 107/312/84
f 107/313/85 108/314/85 106/315/85 105/316/85
f 105/317/86 106/318/86 104/319/86 103/320/86
f 103/321/87 104/322/87 102/323/87 101/324/87
f 101/325/88 102/326/88 98/327/88 97/328/88
f 97/329/89 98/330/89 99/331/89 100/332/89
f 54/333/90 80/334/90 81/335/90 51/336/90
f 51/337/91 81/338/91 82/339/91 53/340/91
f 53/341/92 82/342/92 83/343/92 64/344/92
f 64/345/93 83/346/93 84/347/93 66/348/93
f 66/349/94 84/350/94 85/351/94 68/352/94
f 68/353/95 85/354/95 86/355/95 70/356/95
f 70/357/96 86/358/96 87/359/96 61/360/96
f 61/361/97 87/362/97 88/363/97 59/364/97
f 59/365/98 88/366/98 89/367/98 55/368/98
f 55/369/99 89/370/99 90/371/99 57/372/99
f 57/373/100 90/374/100 71/375/100 56/376/100
f 92/377/101 91/378/101 15/379/101 29/380/101
f 94/381/102 93/382/102 30/383/102 13/384/102
f 91/385/103 94/386/103 13/387/103 15/388/103
f 93/389/104 95/390/104 14/391/104 30/392/104
f 96/393/105 92/394/105 29/395/105 16/396/105
f 95/397/106 96/398/106 16/399/106 14/400/106
f 99/401/107 98/402/107 79/403/107 80/404/107
f 100/405/108 99/406/108 80/407/108 54/408/108
f 97/409/109 100/410/109 54/411/109 52/412/109
f 98/413/110 102/414/110 78/415/110 79/416/110
f 101/417/111 97/418/111 52/419/111 63/420/111
f 102/421/112 104/422/112 77/423/112 78/424/112
f 103/425/113 101/426/113 63/427/113 65/428/113
f 104/429/114 106/430/114 76/431/114 77/432/114
f 105/433/115 103/434/115 65/435/115 67/436/115
f 107/437/116 105/438/116 67/439/116 69/440/116
f 108/441/117 110/442/117 74/443/117 75/444/117
f 109/445/118 107/446/118 69/447/118 62/448/118
f 110/449/119 112/450/119 73/451/119 74/452/119
f 111/453/120 109/454/120 62/455/120 60/456/120
f 112/457/121 114/458/121 72/459/121 73/460/121
f 113/461/122 111/462/122 60/463/122 58/464/122
f 116/465/123 115/466/123 56/467/123 71/468/123
f 114/469/124 116/470/124 71/471/124 72/472/124
f 115/473/125 113/474/125 58/475/125 56/476/125
f 106/477/126 117/478/126 25/479/126 76/480/126
f 118/481/127 108/482/127 75/483/127 3/484/127
f 117/485/128 118/486/128 3/487/128 25/488/128
f 121/489/129 119/490/129 51/491/129 53/492/129
f 122/493/130 120/494/130 52/495/130 54/496/130
f 119/497/131 122/498/131 54/499/131 51/500/131
f 124/501/132 121/502/132 53/503/132 64/504/132
f 120/505/133 123/506/133 63/507/133 52/508/133
f 126/509/134 124/510/134 64/511/134 66/512/134
f 123/513/135 125/514/135 65/515/135 63/516/135
f 128/517/136 126/518/136 66/519/136 68/520/136
f 125/521/137 127/522/137 67/523/137 65/524/137
f 130/525/138 128/526/138 68/527/138 70/528/138
f 127/529/139 129/530/139 69/531/139 67/532/139
f 132/533/140 130/534/140 70/535/140 61/536/140
f 129/537/141 131/538/141 62/539/141 69/540/141
f 134/541/142 132/542/142 61/543/142 59/544/142
f 131/545/143 133/546/143 60/547/143 62/548/143
f 136/549/144 134/550/144 59/551/144 55/552/144
f 133/553/145 135/554/145 58/555/145 60/556/145
f 138/557/146 136/558/146 55/559/146 57/560/146
f 137/561/147 138/562/147 57/563/147 56/564/147
f 135/565/148 137/566/148 56/567/148 58/568/148
o cylinder
v 0.012499999999999983 1.4187499999999986 -0.014300053053046737
v 0.05939110867544643 1.245140081342641 0.15939722938681028
v 0.05939110867544645 1.4187499999999986 0.16249999999999992
v 0.14060889132455326 1.2365076308307459 0.11285518282956979
v 0.14060889132455348 1.4187499999999986 0.11512656856265645
v 0.1874999999999999 1.2215557879503185 0.03224199350419356
v 0.18749999999999997 1.4187499999999986 0.03307337838429676
v 0.1874999999999999 1.204290886926528 -0.06084209961028707
v 0.18749999999999997 1.4187499999999986 -0.06167348449039027
v 0.1406088913245533 1.189339044046101 -0.1414552889356634
v 0.1406088913245535 1.4187499999999986 -0.14372667466874994
v 0.0827244420087798 1.1820082745739393 -0.17738247424594367
v 0.08272444200877983 1.4187499999999986 -0.21027910109455158
v -0.05772444200877967 1.1820082745739393 -0.17738247424594372
v -0.05772444200877974 1.4187499999999986 -0.21027910109455158
v -0.1156088913245533 1.189339044046101 -0.1414552889356634
v -0.11560889132455353 1.4187499999999986 -0.14372667466874997
v -0.1624999999999999 1.204290886926528 -0.060842099610287026
v -0.16249999999999995 1.4187499999999986 -0.06167348449039023
v -0.16249999999999992 1.2215557879503185 0.032241993504193475
v -0.1625 1.4187499999999986 0.03307337838429669
v -0.11560889132455333 1.2365076308307459 0.11285518282956973
v -0.11560889132455356 1.4187499999999986 0.11512656856265645
v -0.03439110867544645 1.245140081342641 0.15939722938681028
v -0.034391108675446466 1.4187499999999986 0.16249999999999992
v -0.07077077936095985 1.1561210808790583 -0.11998658128291038
v -0.017979220639040193 1.152715655203058 -0.1505813716018402
v 0.01249999999999998 1.126562500000001 -0.0835467404988234
v 0.09577077936095979 1.1747286728155228 0.04718646191355515
v 0.04297922063904019 1.178134098491523 0.07778125223248504
v -0.017979220639040224 1.178134098491523 0.07778125223248504
v -0.07077077936095987 1.1747286728155228 0.04718646191355512
v -0.10125 1.168830302523291 -0.005805269365747802
v -0.10124999999999997 1.1620194511712902 -0.06699485000360739
v 0.04297922063904023 1.152715655203058 -0.15058137160184015
v 0.0957707793609598 1.1561210808790583 -0.11998658128291038
v 0.12624999999999995 1.1620194511712902 -0.06699485000360741
v 0.12624999999999995 1.168830302523291 -0.005805269365747753
v -0.05772444200877967 1.2641525587593019 -0.21027910109455158
v 0.0827244420087798 1.2641525587593019 -0.21027910109455158
v 0.1406088913245534 1.2694976155922362 -0.1425909563423624
v 0.18749999999999992 1.2769737046268772 -0.06125778273138889
v 0.18749999999999992 1.285606348660148 0.03265767662529538
v 0.14060889132455337 1.293082437694789 0.11399085023626888
v 0.05939110867544643 1.297398759711424 0.16094857991461115
v -0.03439110867544645 1.297398759711424 0.16094857991461115
v -0.11560889132455344 1.293082437694789 0.11399085023626883
v -0.16249999999999995 1.285606348660148 0.0326576766252953
v -0.16249999999999992 1.2769737046268772 -0.06125778273138885
v -0.11560889132455342 1.2694976155922362 -0.1425909563423624
v 0.012497224657886923 1.2863632767392457 -0.21027910109455158
v 0.012497224657886935 1.4187499999999986 -0.21027910109455158
v 0.012497224657886923 1.170493496248816 -0.19506247955124834
v 0.012498795429878924 1.152715655203058 -0.1505813716018402
v 0.012579742776748028 1.1641453217107667 -0.22270300656284603
v 0.012579742776748028 1.2800151022011963 -0.25058628428150537
vt 0.2213865494843173 0.8689541004930161
vt 0.21474765625 0.87273359375
vt 0.21093754364556794 0.8515627425161464
vt 0.19123096061919784 0.6712203174265786
vt 0.19132783561919783 0.6560507861765786
vt 0.20305439811919782 0.6555109424265786
vt 0.20298330436919781 0.6712195361765786
vt 0.02929921875 0.95340234375
vt 0.039450781250000004 0.95932421875
vt 0.0234375 0.97550234375
vt 0.22534538798309964 0.8623766099812811
vt 0.2213865494843173 0.8689541004930161
vt 0.21093747749054112 0.851562632407513
vt 0.31622109374999996 0.69652421875
vt 0.31634453125 0.6808156249999999
vt 0.3280796875 0.67988125
vt 0.32803437499999993 0.69652421875
vt 0.039450781250000004 0.95932421875
vt 0.0453125 0.96958046875
vt 0.0234375 0.97550234375
vt 0.17473733596823351 0.616281698762071
vt 0.16757952346823352 0.619109042512071
vt 0.17166233596823352 0.6015629487620711
vt 0.244078125 0.70649453125
vt 0.24413046875 0.6898515625
vt 0.25586953125 0.6887726562500001
vt 0.255921875 0.70649453125
vt 0.0453125 0.96958046875
vt 0.0453125 0.98142421875
vt 0.0234375 0.97550234375
vt 0.1796875 0.6104139341779338
vt 0.17473733596823351 0.616281698762071
vt 0.1716622422141193 0.6015625
vt 0.1329018045551494 0.8177382893933919
vt 0.1328564920551494 0.8000164143933919
vt 0.1445924295551494 0.799082039393392
vt 0.1447150858051494 0.8177390706433919
vt 0.0453125 0.98142421875
vt 0.039450781250000004 0.99168046875
vt 0.0234375 0.97550234375
vt 0.03921372180777845 0.8449312830690597
vt 0.03241958874677624 0.8414391614474521
vt 0.0430252138657551 0.8359375001091659
vt 0.1447150852024336 0.8177389789653265
vt 0.1445924295551494 0.799082039393392
vt 0.15572470710858455 0.7984052137995964
vt 0.15574008109175239 0.8177294264339703
vt 0.039450781250000004 0.99168046875
vt 0.032215625 1
vt 0.0234375 0.97550234375
vt 0.0430252138657551 0.8359375001091659
vt 0.04302381251191329 0.8449320312499999
vt 0.03921365630815686 0.8449314376251684
vt 0.30955937499999997 0.90625
vt 0.30078125 0.90625
vt 0.30078125 0.8897015625
vt 0.30955937499999997 0.886925
vt 0.023437500000000007 0.97550234375
vt 0.0234375 1
vt 0.014659375 1
vt 0.05351791125322376 0.8414409682011431
vt 0.046723234199852554 0.8449320312499999
vt 0.04291314342539341 0.8359376545663116
vt 0.10205894819375434 0.8186747759860723
vt 0.10208772699771365 0.799349797414792
vt 0.11321953125 0.8000351256656586
vt 0.11308393596857272 0.8186911944240362
vt 0.014659375 1
vt 0.007424218749999999 0.99168046875
vt 0.0234375 0.97550234375
vt 0.21588766403176649 0.616281698762071
vt 0.2109375 0.6104139341779338
vt 0.2189627577858807 0.6015625
vt 0.11309687500000004 0.8186913756656586
vt 0.11321953125 0.8000351256656586
vt 0.1249546875 0.8009695006656585
vt 0.12491015625000004 0.8186913756656585
vt 0.007424218749999999 0.99168046875
vt 0.0015625000000000014 0.98142421875
vt 0.0234375 0.97550234375
vt 0.22304547653176648 0.619109042512071
vt 0.21588766403176649 0.616281698762071
vt 0.21896266403176648 0.6015629487620711
vt 0.298765625 0.99555703125
vt 0.29881796875 0.9778351562500001
vt 0.31055703125 0.9789140625
vt 0.310609375 0.99555703125
vt 0.0015625000000000014 0.98142421875
vt 0.0015625000000000014 0.96958046875
vt 0.0234375 0.97550234375
vt 0.2004884505156827 0.8689541004930161
vt 0.19652961201690036 0.8623766099812811
vt 0.21093752250945888 0.851562632407513
vt 0.32040234375 0.99339921875
vt 0.32035703125 0.97675625
vt 0.3320921875 0.977690625
vt 0.332215625 0.99339921875
vt 0.0015625000000000014 0.96958046875
vt 0.007424218749999999 0.95932421875
vt 0.0234375 0.97550234375
vt 0.20712734375 0.87273359375
vt 0.2004884505156827 0.8689541004930161
vt 0.21093745635443206 0.8515627425161464
vt 0.14076794545317725 0.6712195673570849
vt 0.14069685170317725 0.655510192357085
vt 0.15242341420317726 0.6560500361070849
vt 0.15252028920317726 0.6712195673570849
vt 0.007424218749999999 0.95932421875
vt 0.01757578125 0.95340234375
vt 0.0234375 0.97550234375
vt 0.21474765625 0.87273359375
vt 0.20712734375 0.87273359375
vt 0.2109375 0.8515625
vt 0.27538828125 0.67014296875
vt 0.27538828125 0.65497265625
vt 0.28711171875 0.65497265625
vt 0.28711171875 0.67014296875
vt 0.01757578125 0.95340234375
vt 0.02929921875 0.95340234375
vt 0.0234375 0.97550234375
vt 0.4730063674066466 0.6796875
vt 0.4806459588580231 0.6796875
vt 0.484375 0.6875
vt 0.4758249915888535 0.6874358121090878
vt 0.4325118117840295 0.7891918456800299
vt 0.4325118117840295 0.7815528916833061
vt 0.44509511925334944 0.78125
vt 0.4453125 0.7929932632264924
vt 0.39092756638244214 0.984375
vt 0.3985667087008787 0.984375
vt 0.40236831265611006 1
vt 0.390625 0.9997719505700822
vt 0.09775234375 0.59375
vt 0.10537265625 0.59375
vt 0.10742421875 0.609375
vt 0.09570078125 0.609375
vt 0.0546875 0.5472208463214827
vt 0.062375654249322135 0.546875
vt 0.06826376557738667 0.5563622802885482
vt 0.05644924728812804 0.5563622802885482
vt 0.1171875 0.5510957823229505
vt 0.1202627720097018 0.546875
vt 0.13284939164224865 0.546875
vt 0.1277420630216777 0.5546875
vt 0.338592656411691 0.5315733759314551
vt 0.3462626534071451 0.53125
vt 0.3515625 0.5389336099623887
vt 0.3397693206068001 0.5389336099623887
vt 0.05206206189164074 0.8494025177521463
vt 0.04302287968294016 0.8509193550774861
vt 0.04302381251191329 0.8449320312499999
vt 0.046723234199852554 0.8449320312499999
vt 0.2578125 0.5154513735371137
vt 0.2578125 0.5078125
vt 0.26424424451315087 0.510630853746395
vt 0.2642688407539879 0.5191808663749113
vt 0.4609375 0.7029835441925857
vt 0.4612345298761919 0.6953125
vt 0.46875 0.6964628098028129
vt 0.46875 0.7082551015708114
vt 0.4609375 0.9764393840514497
vt 0.461249789161898 0.96875
vt 0.46875 0.9704730278639931
vt 0.46875 0.9822854506171301
vt 0.43379666233290615 0.6326774517107245
vt 0.43379666233290615 0.625
vt 0.44492319286641363 0.6259374939717577
vt 0.4453125 0.637719954355523
vt 0.0703125 0.5820555803698116
vt 0.06074812017892893 0.5859375
vt 0.05956011718991437 0.5703125
vt 0.07015592569313461 0.5703125
vt 0.46875 0.6118805772467899
vt 0.4765625 0.609375
vt 0.4765625 0.6205283370288843
vt 0.46980595641139866 0.6200363948540186
vt 0.1444696548411384 0.7890625
vt 0.1445924295551494 0.799082039393392
vt 0.13285643022082566 0.8000164193164282
vt 0.1328125 0.7909304788905926
vt 0.25581796875 0.6796875
vt 0.25586953125 0.6887726562500001
vt 0.24413046875 0.6898515625
vt 0.24418203125 0.6818453125
vt 0.328125 0.671875
vt 0.3280796875 0.67988125
vt 0.31634453125 0.6808156249999999
vt 0.3164671875 0.67374375
vt 0.203125 0.6484375
vt 0.20305439811919782 0.6555109424265786
vt 0.19132709188259975 0.6560508204152188
vt 0.19142351255271411 0.6495172199445718
vt 0.28711171875 0.6484375
vt 0.28711171875 0.65497265625
vt 0.27538828125 0.65497265625
vt 0.27538828125 0.6484375
vt 0.15232655920052615 0.649515660810646
vt 0.15242341420317726 0.6560500361070849
vt 0.14069607210533258 0.6555101564675373
vt 0.140625 0.6484375
vt 0.33196953125 0.97061875
vt 0.3320921875 0.977690625
vt 0.32035703125 0.97675625
vt 0.3203125 0.96875
vt 0.31050546875 0.9709078125
vt 0.31055703125 0.9789140625
vt 0.29881796875 0.9778351562500001
vt 0.29886953125 0.96875
vt 0.125 0.7918843444156586
vt 0.1249546875 0.8009695006656585
vt 0.11321953125 0.8000351256656586
vt 0.11334296875 0.7900148131656586
vt 0.11334296652927714 0.7900149934377565
vt 0.11321953125 0.8000351256656586
vt 0.10208777372735618 0.799349800291697
vt 0.10523037922439399 0.7890625
vt 0.292003125 0.886925
vt 0.30078125 0.8897015625
vt 0.30078125 0.90625
vt 0.292003125 0.90625
vt 0.032215625 1
vt 0.0234375 1
vt 0.0234375 0.97550234375
vt 0.125 0.5731750907090061
vt 0.125 0.5625
vt 0.1398508108617766 0.5636798279612918
vt 0.13598247663856033 0.5731406097122081
vt 0.03921365630815686 0.8449314376251684
vt 0.04302381251191329 0.8449320312499999
vt 0.04302287965550369 0.8509195311773301
vt 0.034244991262565534 0.8494001948081469
vt 0.046723234199852554 0.8449320312499999
vt 0.04291307794985255 0.8449320312499999
vt 0.04291307794985255 0.8359375
vt 0.44076839567678333 0.4921875
vt 0.44076839567678333 0.48186505658117873
vt 0.4453125 0.4898717742765418
vt 0.5234375 0.765625
vt 0.5263607773761941 0.7676301981500813
vt 0.5234375 0.7763167471744146
vt 0.2080749425384853 0.46875
vt 0.21875 0.46875
vt 0.21006590130566635 0.47168304845695763
vt 0.4634300716617171 0.4876360034093067
vt 0.4611279289987679 0.4921875
vt 0.453125 0.4876360034093066
vn 0.10371049648209822 -0.9528951289594796 0.2850175540641904
vn 0.5000608257015159 -0.011070384895192985 0.865919521189464
vn 0 1 0
vn 0.20230719075432177 -0.9537078190953712 0.22251560926246325
vn 0.8661439763491808 -0.004516699957377415 0.49977416065211394
vn 0 1 0
vn 0.28179680800678586 -0.9535851484034444 0.1061410558717391
vn 1 -4.1704644901844596e-16 3.8334620991869494e-17
vn 0 1 0
vn 0.306174950242126 -0.9493663023812189 -0.07043098570404953
vn 0.8663898183641519 -0.0014641896305085116 -0.4993661370013568
vn 0 1 0
vn 0.21594463927980417 -0.9388741185122019 -0.26811061589249147
vn 0.7601828181330412 -0.004943742238453963 -0.6496904204526857
vn 0 1 0
vn 6.920728484498632e-16 -0.9316091542450594 -0.3634616674792614
vn 0 0 -1
vn 0 1 0
vn -0.2159446392798042 -0.9388741185122019 -0.26811061589249147
vn -0.7599993105533328 -3.411152565430682e-16 -0.6499238785876842
vn 0 1 0
vn -0.3061749502421261 -0.9493663023812189 -0.07043098570404939
vn -0.8664773123280839 -0.0037986184492761533 -0.49920200091603895
vn 0 1 0
vn -0.281796808006786 -0.9535851484034444 0.10614105587173905
vn -1 -1.9658377651914679e-16 -2.774680337904182e-16
vn 0 1 0
vn -0.20230719075432194 -0.9537078190953714 0.2225156092624632
vn -0.8662694173567831 -0.0015597745163701937 0.49957468276104383
vn 0 1 0
vn -0.10371049648209833 -0.9528951289594796 0.2850175540641904
vn -0.5002054581056098 -0.007825297062602616 0.8658713902233053
vn 0 1 0
vn 0 -0.9525155540246897 0.3044899330701073
vn 0 -0.012783497817402439 0.9999182877533306
vn 0 1 0
vn -0.34405841956083677 -0.79119027138186 -0.5056102831232747
vn 0.27089257022300944 -0.7865251261064254 0.5549733699928707
vn -0.28305568536857856 -0.7684179140711433 0.5739454576134192
vn 0 -0.7728921055049255 0.6345374640225455
vn -0.6183602743849956 -0.781071177890251 0.08693897935706824
vn -0.5094095517107565 -0.7725727358373362 0.3789898105050583
vn -0.5677056951102804 -0.7878245298354221 -0.23883624919377208
vn -0.23860861420847426 -0.9017633459268716 -0.3604008839726741
vn 0.31403487465947444 -0.8366673694076213 -0.4487424767794321
vn 0.5173355095452521 -0.8308476241194148 -0.2050760738328059
vn 0.5593575024866364 -0.8238388292143307 0.0916993341888236
vn 0.47004744412270055 -0.8058632046059458 0.3600554064806586
vn -0.45051327415125497 -0.2088761757269385 -0.867991090407733
vn 0.7459026579769787 -0.24761909150947187 -0.6183154618339267
vn 0.8665919036098803 -0.007069250844960518 -0.4989674320938142
vn 1 -3.8167194219700665e-16 3.5083020804490366e-17
vn 0.8661989473401805 -0.0032429409708730514 0.49968877009656976
vn 0.4997643111443989 -0.017383588893968783 0.8659869768902589
vn 0 -0.029672916684971278 0.9995596620589524
vn -0.49934272116998485 -0.025708750071362627 0.8660230406775117
vn -0.8658892645939547 -0.010039574433887458 0.500134970189175
vn -1 -4.316780262150767e-16 -2.558583330468379e-16
vn -0.8664425321960373 -0.0028553866978442612 -0.49926865029613554
vn -0.760325924909439 -0.009201628226814834 -0.6494765722861616
vn 0 0 -1
vn 0 1 0
vn 0.566668252660067 -0.19277389680041368 -0.801077596827904
vn 6.759005315012818e-16 -0.928581768259824 -0.37112787507200073
vn 0 -0.9316091542450593 -0.3634616674792614
vn -0.29819841535506186 0.9427876101303927 -0.14909469227424843
vn -0.1029935880929697 -0.9695095871082914 0.22235890204092607
vn 0.10281840844590988 -0.9693932052645098 0.22294660453043486
vn 0.29823101258697543 0.9429652008834073 -0.1479016330344684
usemtl m_349ca9e1-c03b-a562-42cd-191c9d89e767
f 167/569/149 168/570/149 166/571/149
f 141/572/150 183/573/150 182/574/150 143/575/150
f 141/576/151 143/577/151 139/578/151
f 176/579/152 167/580/152 166/581/152
f 143/582/153 182/583/153 181/584/153 145/585/153
f 143/586/154 145/587/154 139/588/154
f 175/589/155 176/590/155 166/591/155
f 145/592/156 181/593/156 180/594/156 147/595/156
f 145/596/157 147/597/157 139/598/157
f 174/599/158 175/600/158 166/601/158
f 147/602/159 180/603/159 179/604/159 149/605/159
f 147/606/160 149/607/160 139/608/160
f 173/609/161 174/610/161 166/611/161
f 149/612/162 179/613/162 178/614/162 151/615/162
f 149/616/163 151/617/163 139/618/163
f 166/619/164 192/620/164 173/621/164
f 153/622/165 190/623/165 189/624/165 177/625/165
f 139/626/166 190/627/166 153/628/166
f 164/629/167 165/630/167 166/631/167
f 153/632/168 177/633/168 188/634/168 155/635/168
f 153/636/169 155/637/169 139/638/169
f 172/639/170 164/640/170 166/641/170
f 155/642/171 188/643/171 187/644/171 157/645/171
f 155/646/172 157/647/172 139/648/172
f 171/649/173 172/650/173 166/651/173
f 157/652/174 187/653/174 186/654/174 159/655/174
f 157/656/175 159/657/175 139/658/175
f 170/659/176 171/660/176 166/661/176
f 159/662/177 186/663/177 185/664/177 161/665/177
f 159/666/178 161/667/178 139/668/178
f 169/669/179 170/670/179 166/671/179
f 161/672/180 185/673/180 184/674/180 163/675/180
f 161/676/181 163/677/181 139/678/181
f 168/679/182 169/680/182 166/681/182
f 163/682/183 184/683/183 183/684/183 141/685/183
f 163/686/184 141/687/184 139/688/184
f 165/689/185 164/690/185 154/691/185 152/692/185
f 168/693/186 167/694/186 142/695/186 140/696/186
f 170/697/187 169/698/187 162/699/187 160/700/187
f 169/701/188 168/702/188 140/703/188 162/704/188
f 172/705/189 171/706/189 158/707/189 156/708/189
f 171/709/190 170/710/190 160/711/190 158/712/190
f 164/713/191 172/714/191 156/715/191 154/716/191
f 152/717/192 191/718/192 192/719/192 165/720/192
f 174/721/193 173/722/193 150/723/193 148/724/193
f 175/725/194 174/726/194 148/727/194 146/728/194
f 176/729/195 175/730/195 146/731/195 144/732/195
f 167/733/196 176/734/196 144/735/196 142/736/196
f 177/737/197 194/738/197 193/739/197 152/740/197
f 150/741/198 178/742/198 179/743/198 148/744/198
f 148/745/199 179/746/199 180/747/199 146/748/199
f 146/749/200 180/750/200 181/751/200 144/752/200
f 144/753/201 181/754/201 182/755/201 142/756/201
f 142/757/202 182/758/202 183/759/202 140/760/202
f 140/761/203 183/762/203 184/763/203 162/764/203
f 162/765/204 184/766/204 185/767/204 160/768/204
f 160/769/205 185/770/205 186/771/205 158/772/205
f 158/773/206 186/774/206 187/775/206 156/776/206
f 156/777/207 187/778/207 188/779/207 154/780/207
f 154/781/208 188/782/208 177/783/208 152/784/208
f 178/785/209 189/786/209 190/787/209 151/788/209
f 151/789/210 190/790/210 139/791/210
f 150/792/211 193/793/211 194/794/211 178/795/211
f 173/796/212 192/797/212 191/798/212 150/799/212
f 165/800/213 192/801/213 166/802/213
f 194/803/214 177/804/214 189/805/214
f 193/806/215 191/807/215 152/808/215
f 193/809/216 150/810/216 191/811/216
f 194/812/217 189/813/217 178/814/217
o cylinder
v 0.009375000000000393 1.3562500000000002 -0.03125000000000005
v 0.0093750000000004 1.3873160171779821 0.04374999999999996
v -0.2227678571428568 1.3873160171779821 0.04374999999999996
v 0.009375000000000409 1.4312500000000004 -0.00018398282201790433
v -0.22276785714285677 1.4312500000000004 -0.00018398282201790433
v 0.009375000000000409 1.4312500000000004 -0.06231601717798217
v -0.22276785714285677 1.4312500000000004 -0.06231601717798217
v 0.0093750000000004 1.3873160171779821 -0.1062500000000001
v -0.2227678571428568 1.3873160171779821 -0.1062500000000001
v 0.009375000000000386 1.3251839828220184 -0.1062500000000001
v -0.2227678571428568 1.3251839828220184 -0.1062500000000001
v 0.009375000000000376 1.28125 -0.06231601717798223
v -0.22276785714285682 1.28125 -0.06231601717798223
v 0.009375000000000376 1.28125 -0.0001839828220178974
v -0.22276785714285682 1.28125 -0.0001839828220178974
v 0.009375000000000386 1.3251839828220182 0.04374999999999996
v -0.2227678571428568 1.3251839828220182 0.04374999999999996
v -0.2227678571428568 1.3795495128834867 0.02499999999999994
v -0.22276785714285677 1.4125000000000003 -0.007950487116513444
v -0.22276785714285677 1.4125000000000003 -0.05454951288348663
v -0.2227678571428568 1.3795495128834867 -0.0875000000000001
v -0.2227678571428568 1.3329504871165139 -0.0875000000000001
v -0.2227678571428568 1.3 -0.05454951288348668
v -0.2227678571428568 1.3 -0.007950487116513437
v -0.2227678571428568 1.3329504871165136 0.02499999999999994
v -0.24062499999999962 1.3795495128834867 0.02499999999999994
v -0.24062499999999962 1.4125000000000003 -0.007950487116513444
v -0.24062499999999962 1.4125000000000003 -0.05454951288348663
v -0.24062499999999962 1.3795495128834867 -0.0875000000000001
v -0.24062499999999967 1.3329504871165139 -0.0875000000000001
v -0.24062499999999967 1.3 -0.05454951288348668
v -0.24062499999999967 1.3 -0.007950487116513437
v -0.24062499999999967 1.3329504871165136 0.02499999999999994
v -0.24062499999999962 1.3562500000000002 -0.03125000000000005
vt 0.30234375 0.84138359375
vt 0.29685234375 0.846875
vt 0.29296875 0.8375
vt 0.3515625 0.8984375
vt 0.359375 0.8984375
vt 0.359375 0.9296875
vt 0.3515625 0.9296875
vt 0.3935375 0.6734375
vt 0.39765625 0.67755625
vt 0.390625 0.68046875
vt 0.30234375 0.83361640625
vt 0.30234375 0.84138359375
vt 0.29296875 0.8375
vt 0.046875 0.625
vt 0.0546875 0.625
vt 0.0546875 0.65625
vt 0.046875 0.65625
vt 0.39765625 0.67755625
vt 0.39765625 0.68338125
vt 0.390625 0.68046875
vt 0.29685234375 0.828125
vt 0.30234375 0.83361640625
vt 0.29296875 0.8375
vt 0.34375 0.765625
vt 0.3515625 0.765625
vt 0.3515625 0.796875
vt 0.34375 0.796875
vt 0.39765625 0.68338125
vt 0.3935375 0.6875
vt 0.390625 0.68046875
vt 0.28908515625 0.828125
vt 0.29685234375 0.828125
vt 0.29296875 0.8375
vt 0.0625 0.625
vt 0.0703125 0.625
vt 0.0703125 0.65625
vt 0.0625 0.65625
vt 0.3935375 0.6875
vt 0.3877125 0.6875
vt 0.390625 0.68046875
vt 0.28359375 0.83361640625
vt 0.28908515625 0.828125
vt 0.29296875 0.8375
vt 0.09375 0.6171875
vt 0.1015625 0.6171875
vt 0.1015625 0.6484375
vt 0.09375 0.6484375
vt 0.3877125 0.6875
vt 0.38359375 0.68338125
vt 0.390625 0.68046875
vt 0.28359375 0.84138359375
vt 0.28359375 0.83361640625
vt 0.29296875 0.8375
vt 0.078125 0.625
vt 0.0859375 0.625
vt 0.0859375 0.65625
vt 0.078125 0.65625
vt 0.38359375 0.68338125
vt 0.38359375 0.67755625
vt 0.390625 0.68046875
vt 0.28908515625 0.846875
vt 0.28359375 0.84138359375
vt 0.29296875 0.8375
vt 0.3359375 0.625
vt 0.34375 0.625
vt 0.34375 0.65625
vt 0.3359375 0.65625
vt 0.38359375 0.67755625
vt 0.3877125 0.6734375
vt 0.390625 0.68046875
vt 0.29685234375 0.846875
vt 0.28908515625 0.846875
vt 0.29296875 0.8375
vt 0.34375 0.8515625
vt 0.3515625 0.8515625
vt 0.3515625 0.8828125
vt 0.34375 0.8828125
vt 0.3877125 0.6734375
vt 0.3935375 0.6734375
vt 0.390625 0.68046875
vt 0.30000000000000004 0.76115
vt 0.29588125 0.75703125
vt 0.29685234375 0.7546875
vt 0.30234375 0.76017890625
vt 0.30000000000000004 0.766975
vt 0.30000000000000004 0.76115
vt 0.30234375 0.76017890625
vt 0.30234375 0.76794609375
vt 0.29588125 0.77109375
vt 0.30000000000000004 0.766975
vt 0.30234375 0.76794609375
vt 0.29685234375 0.7734375
vt 0.29005625 0.77109375
vt 0.29588125 0.77109375
vt 0.29685234375 0.7734375
vt 0.28908515625 0.7734375
vt 0.2859375 0.766975
vt 0.29005625 0.77109375
vt 0.28908515625 0.7734375
vt 0.28359375 0.76794609375
vt 0.2859375 0.76115
vt 0.2859375 0.766975
vt 0.28359375 0.76794609375
vt 0.28359375 0.76017890625
vt 0.29005625 0.75703125
vt 0.2859375 0.76115
vt 0.28359375 0.76017890625
vt 0.28908515625 0.7546875
vt 0.29588125 0.75703125
vt 0.29005625 0.75703125
vt 0.28908515625 0.7546875
vt 0.29685234375 0.7546875
vt 0.5078125 0.7890625
vt 0.5 0.7890625
vt 0.5 0.78125
vt 0.5078125 0.78125
vt 0.453125 0.5078125
vt 0.4453125 0.5078125
vt 0.4453125 0.5
vt 0.453125 0.5
vt 0.5078125 0.984375
vt 0.5 0.984375
vt 0.5 0.9765625
vt 0.5078125 0.9765625
vt 0.5 0.5546875
vt 0.4921875 0.5546875
vt 0.4921875 0.546875
vt 0.5 0.546875
vt 0.265625 0.5
vt 0.2578125 0.5
vt 0.2578125 0.4921875
vt 0.265625 0.4921875
vt 0.5078125 1
vt 0.5 1
vt 0.5 0.9921875
vt 0.5078125 0.9921875
vt 0.15625 0.5
vt 0.1484375 0.5
vt 0.1484375 0.4921875
vt 0.15625 0.4921875
vt 0.0234375 0.5
vt 0.015625 0.5
vt 0.015625 0.4921875
vt 0.0234375 0.4921875
vn 1 -2.220446049250313e-16 0
vn 1.5700924586837688e-16 0.7071067811865447 0.7071067811865503
vn -1 2.220446049250313e-16 0
vn 1 -2.220446049250313e-16 0
vn 2.220446049250313e-16 1 0
vn -1 2.220446049250313e-16 0
vn 1 -2.220446049250313e-16 0
vn 1.5700924586837697e-16 0.7071067811865451 -0.7071067811865499
vn -1 2.220446049250313e-16 0
vn 1 -2.220446049250313e-16 0
vn 0 0 -1
vn -1 2.220446049250313e-16 0
vn 1 -2.220446049250313e-16 0
vn -1.5700924586837648e-16 -0.7071067811865429 -0.7071067811865522
vn -1 2.220446049250313e-16 0
vn 1 -2.220446049250313e-16 0
vn -2.220446049250313e-16 -1 0
vn -1 2.220446049250313e-16 0
vn 1 -2.220446049250313e-16 0
vn -1.5700924586837688e-16 -0.7071067811865447 0.7071067811865505
vn -1 2.220446049250313e-16 0
vn 1 -2.220446049250313e-16 0
vn 0 0 1
vn -1 2.220446049250313e-16 0
vn -1 2.220446049250313e-16 0
vn -1 2.220446049250313e-16 0
vn -1 2.220446049250313e-16 0
vn -1 2.220446049250313e-16 0
vn -1 2.220446049250313e-16 0
vn -1 2.220446049250313e-16 0
vn -1 2.220446049250313e-16 0
vn -1 2.220446049250313e-16 0
vn 1.5700924586837697e-16 0.7071067811865451 0.70710678118655
vn 2.220446049250313e-16 1 0
vn 1.5700924586837717e-16 0.707106781186546 -0.707106781186549
vn 0 0 -1
vn -1.5700924586837653e-16 -0.7071067811865431 -0.7071067811865519
vn -2.220446049250313e-16 -1 0
vn -1.5700924586837697e-16 -0.7071067811865451 0.70710678118655
vn 0 0 1
usemtl m_349ca9e1-c03b-a562-42cd-191c9d89e767
f 198/815/218 196/816/218 195/817/218
f 196/818/219 198/819/219 199/820/219 197/821/219
f 220/822/220 221/823/220 228/824/220
f 200/825/221 198/826/221 195/827/221
f 198/828/222 200/829/222 201/830/222 199/831/222
f 221/832/223 222/833/223 228/834/223
f 202/835/224 200/836/224 195/837/224
f 200/838/225 202/839/225 203/840/225 201/841/225
f 222/842/226 223/843/226 228/844/226
f 204/845/227 202/846/227 195/847/227
f 202/848/228 204/849/228 205/850/228 203/851/228
f 223/852/229 224/853/229 228/854/229
f 206/855/230 204/856/230 195/857/230
f 204/858/231 206/859/231 207/860/231 205/861/231
f 224/862/232 225/863/232 228/864/232
f 208/865/233 206/866/233 195/867/233
f 206/868/234 208/869/234 209/870/234 207/871/234
f 225/872/235 226/873/235 228/874/235
f 210/875/236 208/876/236 195/877/236
f 208/878/237 210/879/237 211/880/237 209/881/237
f 226/882/238 227/883/238 228/884/238
f 196/885/239 210/886/239 195/887/239
f 210/888/240 196/889/240 197/890/240 211/891/240
f 227/892/241 220/893/241 228/894/241
f 213/895/242 212/896/242 197/897/242 199/898/242
f 214/899/243 213/900/243 199/901/243 201/902/243
f 215/903/244 214/904/244 201/905/244 203/906/244
f 216/907/245 215/908/245 203/909/245 205/910/245
f 217/911/246 216/912/246 205/913/246 207/914/246
f 218/915/247 217/916/247 207/917/247 209/918/247
f 219/919/248 218/920/248 209/921/248 211/922/248
f 212/923/249 219/924/249 211/925/249 197/926/249
f 221/927/250 220/928/250 212/929/250 213/930/250
f 222/931/251 221/932/251 213/933/251 214/934/251
f 223/935/252 222/936/252 214/937/252 215/938/252
f 224/939/253 223/940/253 215/941/253 216/942/253
f 225/943/254 224/944/254 216/945/254 217/946/254
f 226/947/255 225/948/255 217/949/255 218/950/255
f 227/951/256 226/952/256 218/953/256 219/954/256
f 220/955/257 227/956/257 219/957/257 212/958/257
o cylinder
v -0.009375000000000393 1.3562500000000002 -0.03125000000000005
v -0.0093750000000004 1.3873160171779821 0.04374999999999996
v 0.2227678571428568 1.3873160171779821 0.04374999999999996
v -0.009375000000000409 1.4312500000000004 -0.00018398282201790433
v 0.22276785714285677 1.4312500000000004 -0.00018398282201790433
v -0.009375000000000409 1.4312500000000004 -0.06231601717798217
v 0.22276785714285677 1.4312500000000004 -0.06231601717798217
v -0.0093750000000004 1.3873160171779821 -0.1062500000000001
v 0.2227678571428568 1.3873160171779821 -0.1062500000000001
v -0.009375000000000386 1.3251839828220184 -0.1062500000000001
v 0.2227678571428568 1.3251839828220184 -0.1062500000000001
v -0.009375000000000376 1.28125 -0.06231601717798223
v 0.22276785714285682 1.28125 -0.06231601717798223
v -0.009375000000000376 1.28125 -0.0001839828220178974
v 0.22276785714285682 1.28125 -0.0001839828220178974
v -0.009375000000000386 1.3251839828220182 0.04374999999999996
v 0.2227678571428568 1.3251839828220182 0.04374999999999996
v 0.2227678571428568 1.3795495128834867 0.02499999999999994
v 0.22276785714285677 1.4125000000000003 -0.007950487116513444
v 0.22276785714285677 1.4125000000000003 -0.05454951288348663
v 0.2227678571428568 1.3795495128834867 -0.0875000000000001
v 0.2227678571428568 1.3329504871165139 -0.0875000000000001
v 0.2227678571428568 1.3 -0.05454951288348668
v 0.2227678571428568 1.3 -0.007950487116513437
v 0.2227678571428568 1.3329504871165136 0.02499999999999994
v 0.24062499999999962 1.3795495128834867 0.02499999999999994
v 0.24062499999999962 1.4125000000000003 -0.007950487116513444
v 0.24062499999999962 1.4125000000000003 -0.05454951288348663
v 0.24062499999999962 1.3795495128834867 -0.0875000000000001
v 0.24062499999999967 1.3329504871165139 -0.0875000000000001
v 0.24062499999999967 1.3 -0.05454951288348668
v 0.24062499999999967 1.3 -0.007950487116513437
v 0.24062499999999967 1.3329504871165136 0.02499999999999994
v 0.24062499999999962 1.3562500000000002 -0.03125000000000005
vt 0.29685234375 0.846875
vt 0.30234375 0.84138359375
vt 0.29296875 0.8375
vt 0.359375 0.9296875
vt 0.359375 0.8984375
vt 0.3515625 0.8984375
vt 0.3515625 0.9296875
vt 0.39765625 0.67755625
vt 0.3935375 0.6734375
vt 0.390625 0.68046875
vt 0.30234375 0.84138359375
vt 0.30234375 0.83361640625
vt 0.29296875 0.8375
vt 0.0546875 0.65625
vt 0.0546875 0.625
vt 0.046875 0.625
vt 0.046875 0.65625
vt 0.39765625 0.68338125
vt 0.39765625 0.67755625
vt 0.390625 0.68046875
vt 0.30234375 0.83361640625
vt 0.29685234375 0.828125
vt 0.29296875 0.8375
vt 0.3515625 0.796875
vt 0.3515625 0.765625
vt 0.34375 0.765625
vt 0.34375 0.796875
vt 0.3935375 0.6875
vt 0.39765625 0.68338125
vt 0.390625 0.68046875
vt 0.29685234375 0.828125
vt 0.28908515625 0.828125
vt 0.29296875 0.8375
vt 0.0703125 0.65625
vt 0.0703125 0.625
vt 0.0625 0.625
vt 0.0625 0.65625
vt 0.3877125 0.6875
vt 0.3935375 0.6875
vt 0.390625 0.68046875
vt 0.28908515625 0.828125
vt 0.28359375 0.83361640625
vt 0.29296875 0.8375
vt 0.1015625 0.6484375
vt 0.1015625 0.6171875
vt 0.09375 0.6171875
vt 0.09375 0.6484375
vt 0.38359375 0.68338125
vt 0.3877125 0.6875
vt 0.390625 0.68046875
vt 0.28359375 0.83361640625
vt 0.28359375 0.84138359375
vt 0.29296875 0.8375
vt 0.0859375 0.65625
vt 0.0859375 0.625
vt 0.078125 0.625
vt 0.078125 0.65625
vt 0.38359375 0.67755625
vt 0.38359375 0.68338125
vt 0.390625 0.68046875
vt 0.28359375 0.84138359375
vt 0.28908515625 0.846875
vt 0.29296875 0.8375
vt 0.34375 0.65625
vt 0.34375 0.625
vt 0.3359375 0.625
vt 0.3359375 0.65625
vt 0.3877125 0.6734375
vt 0.38359375 0.67755625
vt 0.390625 0.68046875
vt 0.28908515625 0.846875
vt 0.29685234375 0.846875
vt 0.29296875 0.8375
vt 0.3515625 0.8828125
vt 0.3515625 0.8515625
vt 0.34375 0.8515625
vt 0.34375 0.8828125
vt 0.3935375 0.6734375
vt 0.3877125 0.6734375
vt 0.390625 0.68046875
vt 0.29685234375 0.7546875
vt 0.29588125 0.75703125
vt 0.30000000000000004 0.76115
vt 0.30234375 0.76017890625
vt 0.30234375 0.76017890625
vt 0.30000000000000004 0.76115
vt 0.30000000000000004 0.766975
vt 0.30234375 0.76794609375
vt 0.30234375 0.76794609375
vt 0.30000000000000004 0.766975
vt 0.29588125 0.77109375
vt 0.29685234375 0.7734375
vt 0.29685234375 0.7734375
vt 0.29588125 0.77109375
vt 0.29005625 0.77109375
vt 0.28908515625 0.7734375
vt 0.28908515625 0.7734375
vt 0.29005625 0.77109375
vt 0.2859375 0.766975
vt 0.28359375 0.76794609375
vt 0.28359375 0.76794609375
vt 0.2859375 0.766975
vt 0.2859375 0.76115
vt 0.28359375 0.76017890625
vt 0.28359375 0.76017890625
vt 0.2859375 0.76115
vt 0.29005625 0.75703125
vt 0.28908515625 0.7546875
vt 0.28908515625 0.7546875
vt 0.29005625 0.75703125
vt 0.29588125 0.75703125
vt 0.29685234375 0.7546875
vt 0.5 0.78125
vt 0.5 0.7890625
vt 0.5078125 0.7890625
vt 0.5078125 0.78125
vt 0.4453125 0.5
vt 0.4453125 0.5078125
vt 0.453125 0.5078125
vt 0.453125 0.5
vt 0.5 0.9765625
vt 0.5 0.984375
vt 0.5078125 0.984375
vt 0.5078125 0.9765625
vt 0.4921875 0.546875
vt 0.4921875 0.5546875
vt 0.5 0.5546875
vt 0.5 0.546875
vt 0.2578125 0.4921875
vt 0.2578125 0.5
vt 0.265625 0.5
vt 0.265625 0.4921875
vt 0.5 0.9921875
vt 0.5 1
vt 0.5078125 1
vt 0.5078125 0.9921875
vt 0.1484375 0.4921875
vt 0.1484375 0.5
vt 0.15625 0.5
vt 0.15625 0.4921875
vt 0.015625 0.4921875
vt 0.015625 0.5
vt 0.0234375 0.5
vt 0.0234375 0.4921875
vn -1 -2.220446049250313e-16 0
vn -1.5700924586837688e-16 0.7071067811865447 0.7071067811865503
vn 1 2.220446049250313e-16 0
vn -1 -2.220446049250313e-16 0
vn -2.220446049250313e-16 1 0
vn 1 2.220446049250313e-16 0
vn -1 -2.220446049250313e-16 0
vn -1.5700924586837697e-16 0.7071067811865451 -0.7071067811865499
vn 1 2.220446049250313e-16 0
vn -1 -2.220446049250313e-16 0
vn 0 0 -1
vn 1 2.220446049250313e-16 0
vn -1 -2.220446049250313e-16 0
vn 1.5700924586837648e-16 -0.7071067811865429 -0.7071067811865522
vn 1 2.220446049250313e-16 0
vn -1 -2.220446049250313e-16 0
vn 2.220446049250313e-16 -1 0
vn 1 2.220446049250313e-16 0
vn -1 -2.220446049250313e-16 0
vn 1.5700924586837688e-16 -0.7071067811865447 0.7071067811865505
vn 1 2.220446049250313e-16 0
vn -1 -2.220446049250313e-16 0
vn 0 0 1
vn 1 2.220446049250313e-16 0
vn 1 2.220446049250313e-16 0
vn 1 2.220446049250313e-16 0
vn 1 2.220446049250313e-16 0
vn 1 2.220446049250313e-16 0
vn 1 2.220446049250313e-16 0
vn 1 2.220446049250313e-16 0
vn 1 2.220446049250313e-16 0
vn 1 2.220446049250313e-16 0
vn -1.5700924586837697e-16 0.7071067811865451 0.70710678118655
vn -2.220446049250313e-16 1 0
vn -1.5700924586837717e-16 0.707106781186546 -0.707106781186549
vn 0 0 -1
vn 1.5700924586837653e-16 -0.7071067811865431 -0.7071067811865519
vn 2.220446049250313e-16 -1 0
vn 1.5700924586837697e-16 -0.7071067811865451 0.70710678118655
vn 0 0 1
usemtl m_349ca9e1-c03b-a562-42cd-191c9d89e767
f 230/959/258 232/960/258 229/961/258
f 233/962/259 232/963/259 230/964/259 231/965/259
f 255/966/260 254/967/260 262/968/260
f 232/969/261 234/970/261 229/971/261
f 235/972/262 234/973/262 232/974/262 233/975/262
f 256/976/263 255/977/263 262/978/263
f 234/979/264 236/980/264 229/981/264
f 237/982/265 236/983/265 234/984/265 235/985/265
f 257/986/266 256/987/266 262/988/266
f 236/989/267 238/990/267 229/991/267
f 239/992/268 238/993/268 236/994/268 237/995/268
f 258/996/269 257/997/269 262/998/269
f 238/999/270 240/1000/270 229/1001/270
f 241/1002/271 240/1003/271 238/1004/271 239/1005/271
f 259/1006/272 258/1007/272 262/1008/272
f 240/1009/273 242/1010/273 229/1011/273
f 243/1012/274 242/1013/274 240/1014/274 241/1015/274
f 260/1016/275 259/1017/275 262/1018/275
f 242/1019/276 244/1020/276 229/1021/276
f 245/1022/277 244/1023/277 242/1024/277 243/1025/277
f 261/1026/278 260/1027/278 262/1028/278
f 244/1029/279 230/1030/279 229/1031/279
f 231/1032/280 230/1033/280 244/1034/280 245/1035/280
f 254/1036/281 261/1037/281 262/1038/281
f 231/1039/282 246/1040/282 247/1041/282 233/1042/282
f 233/1043/283 247/1044/283 248/1045/283 235/1046/283
f 235/1047/284 248/1048/284 249/1049/284 237/1050/284
f 237/1051/285 249/1052/285 250/1053/285 239/1054/285
f 239/1055/286 250/1056/286 251/1057/286 241/1058/286
f 241/1059/287 251/1060/287 252/1061/287 243/1062/287
f 243/1063/288 252/1064/288 253/1065/288 245/1066/288
f 245/1067/289 253/1068/289 246/1069/289 231/1070/289
f 246/1071/290 254/1072/290 255/1073/290 247/1074/290
f 247/1075/291 255/1076/291 256/1077/291 248/1078/291
f 248/1079/292 256/1080/292 257/1081/292 249/1082/292
f 249/1083/293 257/1084/293 258/1085/293 250/1086/293
f 250/1087/294 258/1088/294 259/1089/294 251/1090/294
f 251/1091/295 259/1092/295 260/1093/295 252/1094/295
f 252/1095/296 260/1096/296 261/1097/296 253/1098/296
f 253/1099/297 261/1100/297 254/1101/297 246/1102/297