# Made in Blockbench 5.1.5
mtllib BusterBomber Right Arm.mtl

o cylinder
v 0.3562499999999998 1.0156249999999998 0
v 0.3562499999999998 1.0366567279215182 0.0784914771740717
v 0.7089992120501825 1.0366167816364642 0.0783423956086756
v 0.3562499999999998 1.0730847492525533 0.057459749252553295
v 0.7089992120501825 1.0729756139722115 0.05735061397221145
v 0.3562499999999998 1.0941164771740717 0.021031727921518417
v 0.7089992120501825 1.093967395608676 0.02099178163646416
v 0.3562499999999998 1.0941164771740717 -0.02103172792151842
v 0.7089992120501825 1.093967395608676 -0.020991781636464167
v 0.3562499999999998 1.0730847492525533 -0.05745974925255328
v 0.7089992120501825 1.0729756139722115 -0.05735061397221144
v 0.3562499999999998 1.0366567279215182 -0.07849147717407168
v 0.7089992120501825 1.0366167816364642 -0.07834239560867558
v 0.3562499999999998 0.9945932720784814 -0.0784914771740717
v 0.7089992120501825 0.9946332183635358 -0.0783423956086756
v 0.3562499999999998 0.9581652507474463 -0.057459749252553295
v 0.7089992120501826 0.9582743860277885 -0.05735061397221145
v 0.3562499999999998 0.9371335228259279 -0.021031727921518403
v 0.7089992120501826 0.937282604391324 -0.020991781636464146
v 0.3562499999999998 0.9371335228259279 0.021031727921518376
v 0.7089992120501826 0.937282604391324 0.02099178163646412
v 0.3562499999999998 0.9581652507474463 0.05745974925255327
v 0.7089992120501826 0.9582743860277885 0.05735061397221142
v 0.3562499999999998 0.9945932720784814 0.0784914771740717
v 0.7089992120501825 0.9946332183635358 0.0783423956086756
v 0.46455750488078323 1.047465530459432 -0.11883047741454592
v 0.4645575048807832 1.1026149469551134 -0.08698994695511357
v 0.5728650097615666 1.0480966622189052 -0.12118589320717
v 0.5728650097615666 1.104339230988265 -0.08871423098826453
v 0.68117251464235 1.0446621594842136 -0.1083681545025655
v 0.68117251464235 1.094955995018352 -0.07933099501835195
v 0.4645575048807832 1.1344554774145457 -0.031840530459432345
v 0.5728650097615666 1.13681089320717 -0.032471662218905496
v 0.68117251464235 1.1239931545025654 -0.02903715948421356
v 0.4645575048807832 1.1344554774145457 0.031840530459432345
v 0.5728650097615666 1.13681089320717 0.03247166221890548
v 0.68117251464235 1.1239931545025654 0.02903715948421356
v 0.4645575048807832 1.1026149469551134 0.0869899469551136
v 0.5728650097615666 1.104339230988265 0.08871423098826456
v 0.68117251464235 1.094955995018352 0.07933099501835196
v 0.46455750488078323 1.047465530459432 0.11883047741454593
v 0.5728650097615666 1.0480966622189052 0.12118589320717003
v 0.68117251464235 1.0446621594842136 0.10836815450256553
v 0.46455750488078323 0.9837844695405675 0.11883047741454593
v 0.5728650097615666 0.9831533377810948 0.12118589320717003
v 0.68117251464235 0.9865878405157864 0.10836815450256553
v 0.46455750488078323 0.9286350530448861 0.08698994695511354
v 0.5728650097615667 0.9269107690117351 0.0887142309882645
v 0.6811725146423501 0.9362940049816479 0.07933099501835192
v 0.46455750488078323 0.8967945225854539 0.03184053045943228
v 0.5728650097615667 0.8944391067928299 0.032471662218905434
v 0.6811725146423501 0.9072568454974346 0.02903715948421351
v 0.46455750488078323 0.8967945225854539 -0.03184053045943233
v 0.5728650097615667 0.8944391067928299 -0.032471662218905475
v 0.6811725146423501 0.9072568454974346 -0.02903715948421355
v 0.46455750488078323 0.9286350530448861 -0.0869899469551136
v 0.5728650097615667 0.9269107690117351 -0.08871423098826456
v 0.6811725146423501 0.9362940049816479 -0.07933099501835196
v 0.46455750488078323 0.9837844695405675 -0.11883047741454593
v 0.5728650097615666 0.9831533377810948 -0.12118589320717003
v 0.68117251464235 0.9865878405157864 -0.10836815450256553
v 0.6725079142518878 1.0767320685747674 -0.01637358967644205
v 0.6725079142518878 1.060358478898325 -0.04473347889832492
v 0.6725079142518878 1.0767320685747674 0.016373589676442046
v 0.6725079142518878 1.060358478898325 0.04473347889832492
v 0.6725079142518878 1.031998589676442 0.06110706857476696
v 0.6725079142518878 0.9992514103235579 0.06110706857476696
v 0.6725079142518879 0.9708915211016751 0.044733478898324915
v 0.6725079142518879 0.9545179314252326 0.016373589676442014
v 0.6725079142518879 0.9545179314252326 -0.01637358967644204
v 0.6725079142518879 0.9708915211016751 -0.04473347889832492
v 0.6725079142518878 0.9992514103235579 -0.06110706857476696
v 0.6725079142518878 1.031998589676442 -0.06110706857476696
v 0.581279669756151 1.0767320685747674 -0.01637358967644205
v 0.581279669756151 1.060358478898325 -0.04473347889832492
v 0.581279669756151 1.015625 0
v 0.581279669756151 1.0767320685747674 0.016373589676442046
v 0.581279669756151 1.060358478898325 0.04473347889832492
v 0.581279669756151 1.031998589676442 0.06110706857476696
v 0.581279669756151 0.9992514103235579 0.06110706857476696
v 0.5812796697561511 0.9708915211016751 0.044733478898324915
v 0.5812796697561511 0.9545179314252326 0.016373589676442014
v 0.5812796697561511 0.9545179314252326 -0.01637358967644204
v 0.5812796697561511 0.9708915211016751 -0.04473347889832492
v 0.581279669756151 0.9992514103235579 -0.06110706857476696
v 0.581279669756151 1.031998589676442 -0.06110706857476696
v 0.6303630849681326 1.046273360160993 0.11438123728949669
v 0.6303630849681326 0.984976639839007 0.11438123728949669
v 0.6303630849681328 0.9318921228714965 0.08373287712850337
v 0.6303630849681328 0.9012437627105034 0.030648360160993187
v 0.6303630849681328 0.9012437627105034 -0.03064836016099323
v 0.6303630849681328 0.9318921228714965 -0.08373287712850341
v 0.6303630849681326 0.984976639839007 -0.11438123728949669
v 0.6303630849681326 1.046273360160993 -0.11438123728949665
v 0.6303630849681326 1.0993578771285035 -0.0837328771285034
v 0.6303630849681326 1.1300062372894966 -0.030648360160993246
v 0.6303630849681326 1.1300062372894966 0.03064836016099324
v 0.6303630849681326 1.0993578771285035 0.08373287712850341
v 0.5728650097615666 1.0480966622189052 0.1037139824200076
v 0.6289979030923438 1.046273360160993 0.1037139824200076
v 0.6289979030923438 0.984976639839007 0.1037139824200076
v 0.5728650097615666 0.9831533377810948 0.1037139824200076
v 0.465922686756572 1.047465530459432 0.11372697174834287
v 0.465922686756572 0.9837844695405675 0.11372697174834287
v 0.7244059860163207 1.0008635306919602 0.08260478877750332
v 0.7090792886084883 1.0360439975840023 0.10402557714983053
v 0.7090792886084883 0.9952060024159977 0.10402557714983053
v 0.7244059860163207 1.0303864693080398 0.08260478877750332
v 0.7244059860163209 1.0787581574664717 0.05427183931904206
v 0.7090792886084885 1.1146338097456623 0.03407263240406416
v 0.7090792886084885 1.09421481216166 0.0699529447457662
v 0.7244059860163209 1.0935196267745118 0.02833294945846109
v 0.7244059860163206 1.093519626774512 -0.028332949458461185
v 0.7090792886084881 1.09421481216166 -0.06995294474576626
v 0.7090792886084881 1.1146338097456625 -0.034072632404064246
v 0.7244059860163206 1.0787581574664717 -0.054271839319042114
v 0.7244059860163207 1.0303864693080398 -0.08260478877750331
v 0.7090792886084883 0.9952060024159977 -0.10402557714983053
v 0.7090792886084883 1.0360439975840023 -0.10402557714983052
v 0.7244059860163207 1.0008635306919602 -0.08260478877750332
v 0.724405986016321 0.9524918425335283 -0.05427183931904206
v 0.7090792886084886 0.9166161902543377 -0.034072632404064135
v 0.7090792886084886 0.9370351878383401 -0.0699529447457662
v 0.724405986016321 0.9377303732254882 -0.02833294945846108
v 0.7244059860163208 0.937730373225488 0.02833294945846115
v 0.7090792886084883 0.9370351878383401 0.06995294474576624
v 0.7090792886084883 0.9166161902543375 0.03407263240406419
v 0.7244059860163208 0.9524918425335283 0.054271839319042114
v 0.6684701572237957 1.09605646554589 0.08043146554588981
v 0.6430654423866871 1.1285029665927637 0.03024555999179832
v 0.6430654423866871 1.0982574066009654 0.08263240660096555
v 0.6684701572237957 1.1254964251992983 0.02943995965340848
v 0.6684701572237957 1.0450649596534085 0.10987142519929832
v 0.6430654423866871 1.0458705599917981 0.11287796659276389
v 0.6684701572237957 0.9861850403465915 0.10987142519929832
v 0.6430654423866871 0.9853794400082019 0.11287796659276389
v 0.6684701572237958 0.93519353445411 0.08043146554588977
v 0.6430654423866872 0.9329925933990346 0.08263240660096549
v 0.6684701572237958 0.9057535748007017 0.02943995965340843
v 0.6430654423866872 0.9027470334072363 0.030245559991798267
v 0.6684701572237958 0.9057535748007017 -0.029439959653408464
v 0.6430654423866872 0.9027470334072363 -0.030245559991798305
v 0.6684701572237958 0.93519353445411 -0.08043146554588981
v 0.6430654423866872 0.9329925933990346 -0.08263240660096555
v 0.6684701572237957 1.0450649596534085 -0.1098714251992983
v 0.6430654423866871 0.9853794400082019 -0.11287796659276389
v 0.6430654423866871 1.0458705599917981 -0.11287796659276385
v 0.6684701572237957 0.9861850403465915 -0.10987142519929832
v 0.6684701572237957 1.09605646554589 -0.0804314655458898
v 0.6430654423866871 1.0982574066009654 -0.08263240660096553
v 0.6684701572237957 1.1254964251992983 -0.02943995965340848
v 0.6430654423866871 1.1285029665927637 -0.030245559991798322
v 0.6705179300374787 1.1073907622782442 0.09176576227824397
v 0.6451132152003701 1.1439859038631908 0.034394200529870876
v 0.6451132152003701 1.1095917033333198 0.09396670333331969
v 0.6705179300374787 1.140979362469725 0.033588600191481036
v 0.6705179300374787 1.049213600191481 0.12535436246972506
v 0.6451132152003701 1.0500192005298707 0.1283609038631906
v 0.6705179300374787 0.9820363998085191 0.12535436246972506
v 0.6451132152003701 0.9812307994701293 0.1283609038631906
v 0.6705179300374788 0.9238592377217558 0.09176576227824394
v 0.6451132152003702 0.9216582966666802 0.09396670333331965
v 0.6705179300374788 0.8902706375302749 0.03358860019148099
v 0.6451132152003702 0.8872640961368092 0.03439420052987083
v 0.6705179300374788 0.8902706375302749 -0.03358860019148103
v 0.6451132152003702 0.8872640961368092 -0.03439420052987087
v 0.6705179300374788 0.9238592377217558 -0.09176576227824397
v 0.6451132152003702 0.9216582966666802 -0.09396670333331969
v 0.6705179300374787 1.049213600191481 -0.12535436246972503
v 0.6451132152003701 0.9812307994701293 -0.1283609038631906
v 0.6451132152003701 1.0500192005298707 -0.1283609038631906
v 0.6705179300374787 0.9820363998085191 -0.12535436246972506
v 0.6705179300374787 1.1073907622782442 -0.09176576227824396
v 0.6451132152003701 1.1095917033333198 -0.09396670333331968
v 0.6705179300374787 1.140979362469725 -0.033588600191481036
v 0.6451132152003701 1.1439859038631908 -0.03439420052987088
v 0.3874945896628678 0.9903311700689277 -0.09439785842076734
v 0.3874945896628678 1.0409188299310719 -0.09439785842076731
v 0.3874945896628678 1.0847290284896953 -0.06910402848969528
v 0.38749458966286776 1.110022858420767 -0.02529382993107207
v 0.38749458966286776 1.110022858420767 0.025293829931072067
v 0.3874945896628678 1.0847290284896953 0.0691040284896953
v 0.3874945896628678 1.0409188299310719 0.09439785842076734
v 0.3874945896628678 0.9903311700689277 0.09439785842076734
v 0.3874945896628678 0.9465209715103042 0.06910402848969525
v 0.3874945896628678 0.9212271415792326 0.02529382993107202
v 0.3874945896628678 0.9212271415792326 -0.025293829931072053
v 0.3874945896628678 0.9465209715103042 -0.0691040284896953
v 0.352452757398976 0.9514374001372119 -0.06418759986278741
v 0.38369734706184405 0.9397931209000703 -0.07583187909992942
v 0.38369734706184405 0.9878686058327151 -0.10358827326721383
v 0.352452757398976 0.9921307078422688 -0.08768189202051818
v 0.352452757398976 0.9279431079794815 -0.02349429215773072
v 0.38369734706184405 0.9120367267327858 -0.027756394167284367
v 0.352452757398976 1.0391192921577308 -0.08768189202051817
v 0.38369734706184405 1.0433813941672845 -0.10358827326721379
v 0.38369734706184405 1.0914568790999293 -0.0758318790999294
v 0.352452757398976 1.0798125998627877 -0.06418759986278741
v 0.383697347061844 1.1192132732672138 -0.02775639416728438
v 0.35245275739897597 1.103306892020518 -0.023494292157730735
v 0.383697347061844 1.1192132732672138 0.02775639416728438
v 0.35245275739897597 1.103306892020518 0.02349429215773073
v 0.38369734706184405 1.0914568790999293 0.07583187909992942
v 0.352452757398976 1.0798125998627877 0.06418759986278741
v 0.38369734706184405 1.0433813941672845 0.10358827326721383
v 0.352452757398976 1.0391192921577308 0.08768189202051818
v 0.38369734706184405 0.9878686058327151 0.10358827326721383
v 0.352452757398976 0.9921307078422688 0.08768189202051818
v 0.38369734706184405 0.9397931209000703 0.07583187909992938
v 0.352452757398976 0.9514374001372119 0.0641875998627874
v 0.38369734706184405 0.9120367267327858 0.02775639416728433
v 0.352452757398976 0.9279431079794815 0.02349429215773069
vt 0.26434765625 0.7696234375
vt 0.2689015625 0.76699453125
vt 0.26171875 0.75981171875
vt 0.203125 0.484375
vt 0.19586562500000002 0.484375
vt 0.196871875 0.4921875
vt 0.20211953125 0.4921875
vt 0.37277890625 0.8773953125
vt 0.369234375 0.8753484375
vt 0.3671875 0.88298671875
vt 0.2689015625 0.76699453125
vt 0.27153046875 0.762440625
vt 0.26171875 0.75981171875
vt 0.5234375 0.703125
vt 0.5182765625 0.703125
vt 0.519025 0.7109375
vt 0.52275546875 0.7109375
vt 0.37482578125 0.88093984375
vt 0.37277890625 0.8773953125
vt 0.3671875 0.88298671875
vt 0.27153046875 0.762440625
vt 0.27153046875 0.7571828125
vt 0.26171875 0.75981171875
vt 0.1872234375 0.484375
vt 0.1799640625 0.484375
vt 0.18096953125 0.4921875
vt 0.18621796875 0.4921875
vt 0.37482578125 0.88503359375
vt 0.37482578125 0.88093984375
vt 0.3671875 0.88298671875
vt 0.27153046875 0.7571828125
vt 0.2689015625 0.75262890625
vt 0.26171875 0.75981171875
vt 0.5207859375 0.65625
vt 0.515625 0.65625
vt 0.51630703125 0.6640625
vt 0.5200375 0.6640625
vt 0.37277890625 0.888578125
vt 0.37482578125 0.88503359375
vt 0.3671875 0.88298671875
vt 0.2689015625 0.75262890625
vt 0.26434765625 0.75
vt 0.26171875 0.75981171875
vt 0.515071875 0.8046875
vt 0.5078125 0.8046875
vt 0.50881796875 0.8125
vt 0.514065625 0.8125
vt 0.369234375 0.890625
vt 0.37277890625 0.888578125
vt 0.3671875 0.88298671875
vt 0.26434765625 0.75
vt 0.25908984375 0.75
vt 0.26171875 0.75981171875
vt 0.037708593750000005 0.46875
vt 0.032603906249999995 0.46875
vt 0.03331093750000001 0.4765625
vt 0.037001562500000015 0.4765625
vt 0.365140625 0.890625
vt 0.369234375 0.890625
vt 0.3671875 0.88298671875
vt 0.25908984375 0.75
vt 0.2545359375 0.75262890625
vt 0.26171875 0.75981171875
vt 0.21875 0.484375
vt 0.21149062500000002 0.484375
vt 0.21249609375 0.4921875
vt 0.21774375 0.4921875
vt 0.36159609375 0.888578125
vt 0.365140625 0.890625
vt 0.3671875 0.88298671875
vt 0.2545359375 0.75262890625
vt 0.25190703125 0.7571828125
vt 0.26171875 0.75981171875
vt 0.359375 0.4765625
vt 0.35421484375 0.4765625
vt 0.35496328125 0.484375
vt 0.35869375000000003 0.484375
vt 0.35954921875 0.88503359375
vt 0.36159609375 0.888578125
vt 0.3671875 0.88298671875
vt 0.25190703125 0.7571828125
vt 0.25190703125 0.762440625
vt 0.26171875 0.75981171875
vt 0.5153484375 0.8203125
vt 0.5080890625 0.8203125
vt 0.50909453125 0.828125
vt 0.51434296875 0.828125
vt 0.35954921875 0.88093984375
vt 0.35954921875 0.88503359375
vt 0.3671875 0.88298671875
vt 0.25190703125 0.762440625
vt 0.2545359375 0.76699453125
vt 0.26171875 0.75981171875
vt 0.48172265625 0.4765625
vt 0.4765625 0.4765625
vt 0.47724374999999997 0.484375
vt 0.48097421875 0.484375
vt 0.36159609375 0.8773953125
vt 0.35954921875 0.88093984375
vt 0.3671875 0.88298671875
vt 0.2545359375 0.76699453125
vt 0.25908984375 0.7696234375
vt 0.26171875 0.75981171875
vt 0.515071875 0.765625
vt 0.5078125 0.765625
vt 0.50881875 0.7734375
vt 0.51406640625 0.7734375
vt 0.365140625 0.8753484375
vt 0.36159609375 0.8773953125
vt 0.3671875 0.88298671875
vt 0.25908984375 0.7696234375
vt 0.26434765625 0.7696234375
vt 0.26171875 0.75981171875
vt 0.49864609375 0.4765625
vt 0.49354140625 0.4765625
vt 0.49424843749999997 0.484375
vt 0.4979390625 0.484375
vt 0.369234375 0.8753484375
vt 0.365140625 0.8753484375
vt 0.3671875 0.88298671875
vt 0.4915171875 0.53125
vt 0.48519375 0.53125
vt 0.484375 0.5390625
vt 0.49233515625 0.5390625
vt 0.1875 0.59166640625
vt 0.19561796874999998 0.59166640625
vt 0.1955390625 0.578125
vt 0.18757890624999998 0.578125
vt 0.4929734375 0.796875
vt 0.484375 0.796875
vt 0.48447578125 0.8046875
vt 0.49287265625 0.8046875
vt 0.49932890625000004 0.8671875
vt 0.49300546875 0.8671875
vt 0.4921875 0.875
vt 0.500146875 0.875
vt 0.2109375 0.5838546875
vt 0.2190546875 0.5838546875
vt 0.21897578125 0.5703125
vt 0.21101640625 0.5703125
vt 0.4929734375 0.8125
vt 0.484375 0.8125
vt 0.48447578125 0.8203125
vt 0.49287265625 0.8203125
vt 0.21409921875 0.5
vt 0.20777578125 0.5
vt 0.2069578125 0.5078125
vt 0.2149171875 0.5078125
vt 0.41000390625 0.77916640625
vt 0.41812109375 0.77916640625
vt 0.4180421875 0.765625
vt 0.4100828125 0.765625
vt 0.48867421875 0.640625
vt 0.48007578125 0.640625
vt 0.4801765625 0.6484375
vt 0.4885734375 0.6484375
vt 0.11636953124999999 0.5
vt 0.11004609374999999 0.5
vt 0.109228125 0.5078125
vt 0.1171875 0.5078125
vt 0.4137578125 0.8338546875
vt 0.421875 0.8338546875
vt 0.42179609375 0.8203125
vt 0.41383671875 0.8203125
vt 0.5 0.8984375
vt 0.4914015625 0.8984375
vt 0.49150234375 0.90625
vt 0.49989921875 0.90625
vt 0.49136875 0.5078125
vt 0.4850453125 0.5078125
vt 0.48422734375 0.515625
vt 0.4921875 0.515625
vt 0.41375703125 0.96666640625
vt 0.421875 0.96666640625
vt 0.42179609375000005 0.953125
vt 0.41383593750000003 0.953125
vt 0.5 0.75
vt 0.4914015625 0.75
vt 0.49150234375 0.7578125
vt 0.49989921875 0.7578125
vt 0.50316171875 0.9453125
vt 0.49683828125 0.9453125
vt 0.4960203125 0.953125
vt 0.5039796875 0.953125
vt 0.08187890625000001 0.5789203125
vt 0.08999609374999999 0.5789203125
vt 0.08991718750000001 0.5654945312499999
vt 0.08195781249999999 0.5654945312499999
vt 0.48867421875 0.6953125
vt 0.48007578125 0.6953125
vt 0.4801765625 0.703125
vt 0.48857343750000004 0.703125
vt 0.49932890625000004 0.9609375
vt 0.49300546875 0.9609375
vt 0.4921875 0.96875
vt 0.50014765625 0.96875
vt 0.40625 0.93541640625
vt 0.41436796875 0.93541640625
vt 0.41428906249999997 0.921875
vt 0.40632890624999995 0.921875
vt 0.4929734375 0.765625
vt 0.484375 0.765625
vt 0.48447578125 0.7734375
vt 0.49287265625 0.7734375
vt 0.13214140624999998 0.5
vt 0.12581796875 0.5
vt 0.125 0.5078125
vt 0.132959375 0.5078125
vt 0.3125 0.58385390625
vt 0.3206171875 0.58385390625
vt 0.32053828125 0.5703125
vt 0.31257890625 0.5703125
vt 0.4929734375 0.828125
vt 0.484375 0.828125
vt 0.48447578125 0.8359375
vt 0.49287265625 0.8359375
vt 0.19066171875 0.5
vt 0.18433828125 0.5
vt 0.1835203125 0.5078125
vt 0.1914796875 0.5078125
vt 0.15219140625 0.5838546875
vt 0.16030859375 0.5838546875
vt 0.1602296875 0.5703125
vt 0.1522703125 0.5703125
vt 0.34804921875 0.515625
vt 0.33945078125 0.515625
vt 0.3395515625 0.5234375
vt 0.3479484375 0.5234375
vt 0.50699453125 0.9296875
vt 0.50067109375 0.9296875
vt 0.499853125 0.9375
vt 0.5078125 0.9375
vt 0.2965703125 0.58385390625
vt 0.3046875 0.58385390625
vt 0.30460859375 0.5703125
vt 0.29664921875 0.5703125
vt 0.5 0.84375
vt 0.4914015625 0.84375
vt 0.49150234375 0.8515625
vt 0.49989921875 0.8515625
vt 0.04605703124999999 0.5
vt 0.03973359374999999 0.5
vt 0.03891484374999998 0.5078125
vt 0.046875 0.5078125
vt 0.41375703125 0.90416640625
vt 0.421875 0.90416640625
vt 0.42179609375000005 0.890625
vt 0.41383593750000003 0.890625
vt 0.5 0.6640625
vt 0.4914015625 0.6640625
vt 0.49150234375 0.671875
vt 0.49989921875 0.671875
vt 0.06566171875 0.5
vt 0.05933828125 0.5
vt 0.05852031249999999 0.5078125
vt 0.06647968750000001 0.5078125
vt 0.23812890625 0.58385390625
vt 0.24624609375 0.58385390625
vt 0.2461671875 0.5703125
vt 0.2382078125 0.5703125
vt 0.32461171875 0.515625
vt 0.31601328125 0.515625
vt 0.31611406249999996 0.5234375
vt 0.3245109375 0.5234375
vt 0.5286859316836756 0.8183453136544345
vt 0.5281160986608188 0.8132999284695401
vt 0.5240223531975171 0.8132938338656048
vt 0.5234375 0.8183374999999999
vt 0.52215546875 0.8828125
vt 0.521578125 0.875
vt 0.517484375 0.875
vt 0.51690703125 0.8828125
vt 0.1640625 0.47458749895952823
vt 0.1634783976882284 0.4695437458106049
vt 0.1593846513629552 0.46954923095530154
vt 0.1588140672112242 0.47459453124999995
vt 0.5234375 0.796875
vt 0.5228609375 0.7890625
vt 0.5187671875 0.7890625
vt 0.51818984375 0.796875
vt 0.52996796875 0.8651890625
vt 0.529390625 0.86014375
vt 0.525296875 0.86014375
vt 0.52471953125 0.8651890625
vt 0.26306015625 0.484375
vt 0.26248359374999997 0.4765625
vt 0.25838984375 0.4765625
vt 0.2578125 0.484375
vt 0.1771234327887758 0.47459453229047177
vt 0.1765528486370448 0.46954923199577336
vt 0.17245910231177158 0.4695437468510767
vt 0.171875 0.47458750000000005
vt 0.14715546875 0.484375
vt 0.146578125 0.4765625
vt 0.142484375 0.4765625
vt 0.14190703125 0.484375
vt 0.53125 0.8339624989595282
vt 0.5306658976882284 0.8289187458106049
vt 0.5265721513629552 0.8289242309553015
vt 0.5260015672112242 0.83396953125
vt 0.234375 0.484375
vt 0.23379765624999999 0.4765625
vt 0.22970390625 0.4765625
vt 0.22912734375 0.484375
vt 0.52996796875 0.8495640625
vt 0.529390625 0.84451875
vt 0.525296875 0.84451875
vt 0.52471953125 0.8495640625
vt 0.52087265625 0.7265625
vt 0.5202953125 0.71875
vt 0.5162015625 0.71875
vt 0.515625 0.7265625
vt 0.5 0.6875
vt 0.5 0.6796875
vt 0.4921875 0.6796875
vt 0.4921875 0.6875
vt 0.5 0.7421875
vt 0.5 0.734375
vt 0.4921875 0.734375
vt 0.4921875 0.7421875
vt 0.125 0.984375
vt 0.125 0.9765625
vt 0.1171875 0.9765625
vt 0.1171875 0.984375
vt 0.4140625 0.609375
vt 0.4140625 0.6015625
vt 0.40625 0.6015625
vt 0.40625 0.609375
vt 0.3359375 0.5078125
vt 0.3359375 0.5
vt 0.328125 0.5
vt 0.328125 0.5078125
vt 0.0234375 0.8515625
vt 0.0234375 0.84375
vt 0.015625 0.84375
vt 0.015625 0.8515625
vt 0.3515625 0.5078125
vt 0.3515625 0.5
vt 0.34375 0.5
vt 0.34375 0.5078125
vt 0.25 0.5078125
vt 0.25 0.5
vt 0.2421875 0.5
vt 0.2421875 0.5078125
vt 0.2890625 0.8203125
vt 0.2890625 0.8125
vt 0.28125 0.8125
vt 0.28125 0.8203125
vt 0.28125 0.5078125
vt 0.28125 0.5
vt 0.2734375 0.5
vt 0.2734375 0.5078125
vt 0.3203125 0.5078125
vt 0.3203125 0.5
vt 0.3125 0.5
vt 0.3125 0.5078125
vt 0.328125 0.890625
vt 0.328125 0.8828125
vt 0.3203125 0.8828125
vt 0.3203125 0.890625
vt 0.08210625 0.5859375
vt 0.08976875 0.5859375
vt 0.08999609374999999 0.5789203125
vt 0.08187890625000001 0.5789203125
vt 0.406478125 0.94265390625
vt 0.41413984375 0.94265390625
vt 0.41436796875 0.93541640625
vt 0.40625 0.93541640625
vt 0.31272734375 0.59109140625
vt 0.32038984375 0.59109140625
vt 0.3206171875 0.58385390625
vt 0.3125 0.58385390625
vt 0.15241875 0.5910921875
vt 0.16008125 0.5910921875
vt 0.16030859375 0.5838546875
vt 0.15219140625 0.5838546875
vt 0.29679765625 0.59109140625
vt 0.30446015625 0.59109140625
vt 0.3046875 0.58385390625
vt 0.2965703125 0.58385390625
vt 0.41398515625 0.91140390625
vt 0.421646875 0.91140390625
vt 0.421875 0.90416640625
vt 0.41375703125 0.90416640625
vt 0.23835625 0.59109140625
vt 0.24601875 0.59109140625
vt 0.24624609375 0.58385390625
vt 0.23812890625 0.58385390625
vt 0.187728125 0.59890390625
vt 0.19538984375 0.59890390625
vt 0.19561796874999998 0.59166640625
vt 0.1875 0.59166640625
vt 0.21116484375 0.5910921874999999
vt 0.21882734375000001 0.5910921874999999
vt 0.2190546875 0.5838546875
vt 0.2109375 0.5838546875
vt 0.41023125 0.78640390625
vt 0.41789375 0.78640390625
vt 0.41812109375 0.77916640625
vt 0.41000390625 0.77916640625
vt 0.41398515625 0.8410921874999999
vt 0.42164765625 0.8410921874999999
vt 0.421875 0.8338546875
vt 0.4137578125 0.8338546875
vt 0.41398515625 0.97390390625
vt 0.421646875 0.97390390625
vt 0.421875 0.96666640625
vt 0.41375703125 0.96666640625
vt 0.5206234375 0.99280859375
vt 0.5184390625 0.99280859375
vt 0.5184390625 0.99982890625
vt 0.51977265625 1
vt 0.34375 0.9296875
vt 0.34375 0.921875
vt 0.3359375 0.921875
vt 0.3359375 0.9296875
vt 0.511477734375 0.5078125
vt 0.512811328125 0.5076421875
vt 0.512810546875 0.500621875
vt 0.510626171875 0.500621875
vt 0.520328125 0.97926953125
vt 0.519690625 0.979440625
vt 0.5184390625 0.99280859375
vt 0.5206234375 0.99280859375
vt 0.510626171875 0.500621875
vt 0.512810546875 0.500621875
vt 0.511558984375 0.48725390625
vt 0.510920703125 0.48708281249999996
vt 0.34375 0.96875
vt 0.34375 0.9765625
vt 0.3515625 0.9765625
vt 0.3515625 0.96875
vt 0.369228125 0.47448984375000003
vt 0.36977734375 0.4765625
vt 0.3724390625 0.47450000000000003
vt 0.372959375 0.47085703125
vt 0.10965156250000002 0.47303281249999996
vt 0.11072890625000001 0.4765625
vt 0.11583359375000002 0.4765625
vt 0.1169109375 0.47303281249999996
vt 0.306694921875 0.47091875000000005
vt 0.307289453125 0.47456171875
vt 0.309998046875 0.4765625
vt 0.310492578125 0.47448671875000004
vt 0.52471953125 0.8651890625
vt 0.5254984375 0.8671875
vt 0.5291890625 0.8671875
vt 0.52996796875 0.8651890625
vt 0.5234375 0.59951328125
vt 0.5238625 0.6015625
vt 0.526525 0.5995242187500001
vt 0.52720390625 0.5959171875
vt 0.07862811991330086 0.4730052414582405
vt 0.07959657294487928 0.4765563904140422
vt 0.08475750682857375 0.4765625
vt 0.0858875 0.4730052414582405
vt 0.2890625 0.47089375
vt 0.28979921875000003 0.47455234375
vt 0.29246562499999995 0.4765625
vt 0.29284765625 0.47447421874999995
vt 0.1588140672112242 0.47459453124999995
vt 0.1596390672112242 0.4765625
vt 0.1633695359612242 0.4765625
vt 0.16406172346122422 0.47458749999999994
vt 0.3400390625 0.474475
vt 0.34048203125 0.4765625
vt 0.34309687499999997 0.4744859375
vt 0.34375 0.47082109375000003
vt 0.523487493946408 0.9261295818385575
vt 0.5246178709498694 0.9296875
vt 0.5297788041461678 0.9296808349980246
vt 0.530746875 0.9261295818385575
vt 0.3242984375 0.470978125
vt 0.32504609375 0.4745828125
vt 0.327753125 0.4765625
vt 0.328125 0.47451484374999997
vt 0.5234375 0.8183374999999999
vt 0.5241296875 0.8203125
vt 0.52786015625 0.8203125
vt 0.52868515625 0.8183453125
vt 0.525478515625 0.6307390625
vt 0.526026953125 0.6328125
vt 0.528689453125 0.6307499999999999
vt 0.529208984375 0.62710625
vt 0.1252765625 0.47303281249999996
vt 0.12635390624999998 0.4765625
vt 0.13145859375 0.4765625
vt 0.13253593749999998 0.47303281249999996
vt 0.525444921875 0.68966875
vt 0.526038671875 0.69331171875
vt 0.528748046875 0.6953125
vt 0.529242578125 0.69323671875
vt 0.52471953125 0.8495640625
vt 0.5254984375 0.8515625
vt 0.5291890625 0.8515625
vt 0.52996796875 0.8495640625
vt 0.5234375 0.61513828125
vt 0.52386171875 0.6171875
vt 0.526525 0.6151484375
vt 0.52720390625 0.6115421875
vt 0.5239414011627533 0.8948802416022186
vt 0.5249098537418623 0.8984313906814155
vt 0.5300700063753258 0.8984375
vt 0.5312 0.8948802416022186
vt 0.5234375 0.73651796875
vt 0.52417421875 0.74017734375
vt 0.52684140625 0.7421875
vt 0.52722265625 0.7400984374999999
vt 0.5260015672112242 0.83396953125
vt 0.5268265672112242 0.8359375
vt 0.5305570359612242 0.8359375
vt 0.5312492234612242 0.8339624999999999
vt 0.52753984375 0.64634921875
vt 0.52798203125 0.6484375
vt 0.530596875 0.64636015625
vt 0.53125 0.64269609375
vt 0.5234882751957565 0.9105045819956779
vt 0.5246186526937617 0.9140625
vt 0.5297788046397853 0.9140558352897048
vt 0.530746875 0.9105045819956779
vt 0.5274234375 0.674103125
vt 0.528171875 0.6777078125
vt 0.530878125 0.6796875
vt 0.53125 0.67763984375
vt 0.171875 0.47458750000000005
vt 0.1725671875 0.4765625
vt 0.17629765625 0.4765625
vt 0.17712265625 0.47459453124999995
vt 0.41398515625 0.8410921874999999
vt 0.4140359375 0.842690625
vt 0.421596875 0.842690625
vt 0.42164765625 0.8410921874999999
vt 0.0858875 0.4730052414582405
vt 0.0859375 0.4714060227082406
vt 0.078578125 0.4714060227082406
vt 0.07862812500000001 0.4730052414582405
vt 0.41398515625 0.97390390625
vt 0.41403515625 0.97550234375
vt 0.421596875 0.97550234375
vt 0.421646875 0.97390390625
vt 0.11713671874999998 0.4921875
vt 0.1171875 0.484375
vt 0.10982734375 0.484375
vt 0.10987734375 0.4921875
vt 0.35945 0.4921875
vt 0.35950078125 0.5
vt 0.36706171875 0.5
vt 0.3671125 0.4921875
vt 0.1169109375 0.47303281249999996
vt 0.1169609375 0.47143359375000005
vt 0.1096015625 0.47143359375000005
vt 0.10965156250000002 0.47303281249999996
vt 0.406478125 0.94265390625
vt 0.406528125 0.94425234375
vt 0.41408984375 0.94425234375
vt 0.41413984375 0.94265390625
vt 0.13230937499999998 0.4921875
vt 0.13236015625 0.484375
vt 0.125 0.484375
vt 0.12505 0.4921875
vt 0.31272734375 0.59109140625
vt 0.312778125 0.59268984375
vt 0.3203390625 0.59268984375
vt 0.32038984375 0.59109140625
vt 0.530746875 0.9105045819956779
vt 0.5307968750000001 0.9089061444956779
vt 0.5234375 0.9089061444956779
vt 0.5234875 0.9105045819956779
vt 0.15241875 0.5910921875
vt 0.15246953125 0.5926914062499999
vt 0.16003046875 0.5926914062499999
vt 0.16008125 0.5910921875
vt 0.5153484375 0.84375
vt 0.5153984375 0.8359375
vt 0.5080390625 0.8359375
vt 0.5080890625 0.84375
vt 0.29679765625 0.59109140625
vt 0.2968484375 0.59268984375
vt 0.304409375 0.59268984375
vt 0.30446015625 0.59109140625
vt 0.5312 0.8948802416022186
vt 0.53125 0.8932818041022186
vt 0.5238906249999999 0.8932818041022186
vt 0.523940625 0.8948802416022186
vt 0.23835625 0.59109140625
vt 0.23840703125 0.592690625
vt 0.24596796875 0.592690625
vt 0.24601875 0.59109140625
vt 0.13253593749999998 0.47303281249999996
vt 0.1325859375 0.47143359375000005
vt 0.1252265625 0.47143359375000005
vt 0.1252765625 0.47303281249999996
vt 0.41398515625 0.91140390625
vt 0.41403515625 0.91300234375
vt 0.421596875 0.91300234375
vt 0.421646875 0.91140390625
vt 0.515575 0.859375
vt 0.515625 0.8515625
vt 0.50826484375 0.8515625
vt 0.508315625 0.859375
vt 0.187728125 0.59890390625
vt 0.187778125 0.60050234375
vt 0.19533984375 0.60050234375
vt 0.19538984375 0.59890390625
vt 0.51512265625 0.8984375
vt 0.51517265625 0.890625
vt 0.5078125 0.890625
vt 0.50786328125 0.8984375
vt 0.21116484375 0.5910921874999999
vt 0.21121562500000002 0.592690625
vt 0.2187765625 0.592690625
vt 0.21882734375000001 0.5910921874999999
vt 0.530746875 0.9261295818385575
vt 0.5307968750000001 0.9245303630885575
vt 0.5234375 0.9245303630885575
vt 0.5234875 0.9261295818385575
vt 0.41023125 0.78640390625
vt 0.41028203125 0.7880031249999999
vt 0.41784296875 0.7880031249999999
vt 0.41789375 0.78640390625
vt 0.1715984375 0.4921875
vt 0.1716484375 0.484375
vt 0.1642890625 0.484375
vt 0.1643390625 0.4921875
vt 0.12610721653634804 0.83398421003792
vt 0.12465189204166317 0.8325832181407864
vt 0.12047932034173293 0.8401013810048341
vt 0.12243811341878265 0.84059522041392
vt 0.06822617944298062 0.8474281921016078
vt 0.06628070984993809 0.8479721550996242
vt 0.07054260883131874 0.8552070515631633
vt 0.07196148725881665 0.8537691601595292
vt 0.1325729668737377 0.8300633828841683
vt 0.132004267062741 0.828125
vt 0.12465189204166315 0.8325832181407864
vt 0.12610707210461058 0.8339840709983488
vt 0.07196134644412056 0.8537693028611427
vt 0.07054260883131874 0.8552070515631633
vt 0.07783203374646097 0.859375
vt 0.07835078374646098 0.85742265625
vt 0.48840703125 0.9140625
vt 0.48788828125 0.921875
vt 0.49648671875 0.921875
vt 0.49596796875000004 0.9140625
vt 0.07835078374646098 0.85742265625
vt 0.07783203374646097 0.859375
vt 0.08622890874646097 0.859375
vt 0.08571015874646098 0.85742265625
vt 0.14733149906468218 0.8339858934559342
vt 0.14878710190957284 0.8325851907613518
vt 0.1414339463332317 0.8281282601458352
vt 0.1408649178523066 0.8300663376293318
vt 0.08571021022911249 0.8574228500077501
vt 0.08622890874646097 0.859375
vt 0.09351989116868095 0.8552097767065253
vt 0.09210101274118307 0.853771885302891
vt 0.15099928849334499 0.8405976327570482
vt 0.15295817965826708 0.8401041825724762
vt 0.14878710190957284 0.8325851907613518
vt 0.14733149906468218 0.8339858934559342
vt 0.09210101274118307 0.853771885302891
vt 0.09351989116868095 0.8552097767065253
vt 0.09778179015006172 0.8479748802429862
vt 0.09583632055701918 0.8474309172449698
vt 0.15090147676695165 0.8481579375620866
vt 0.15284694635999418 0.848701900560103
vt 0.15295817965826708 0.8401041825724761
vt 0.15099928849334499 0.8405976327570482
vt 0.09583632055701918 0.8474309172449698
vt 0.09778179015006172 0.8479748802429862
vt 0.0978904159441594 0.8395787078887237
vt 0.0959315247792373 0.8400721580732957
vt 0.1470638643421468 0.8546725754457981
vt 0.14848274276964468 0.8561104668494323
vt 0.15284694635999418 0.848701900560103
vt 0.15090147676695165 0.8481579375620866
vt 0.0959315247792373 0.8400721580732957
vt 0.0978904159441594 0.8395787078887237
vt 0.09381711559498943 0.8322359744718634
vt 0.09236151275009874 0.8336366771664457
vt 0.13293705670814931 0.8584233303536177
vt 0.13241830670814936 0.8603756741036177
vt 0.14101674420814936 0.8603756741036177
vt 0.14049799420814935 0.8584233303536177
vt 0.48850781249999997 0.609375
vt 0.4879890625 0.6171875
vt 0.4963859375 0.6171875
vt 0.4958671875 0.609375
vt 0.14049804569080082 0.8584235241113678
vt 0.14101674420814936 0.8603756741036177
vt 0.14848274276964468 0.8561104668494323
vt 0.1470638643421468 0.8546725754457981
vt 0.09236151275009874 0.8336366771664457
vt 0.0938171155949894 0.8322359744718634
vt 0.08663633091985631 0.827883522149896
vt 0.08606730243893118 0.8298215996333926
vt 0.12637264065365894 0.8546699275884391
vt 0.12495390304085714 0.8561076762904597
vt 0.13241830670814936 0.8603756741036177
vt 0.13293705670814931 0.8584233303536177
vt 0.07799362655188408 0.8298163829136567
vt 0.07742454159288165 0.8278781130691559
vt 0.07024538440501074 0.8322332493285014
vt 0.07170084279053948 0.8336338130122141
vt 0.12253516904355023 0.8481551470031139
vt 0.1205896994505077 0.8486991100011303
vt 0.12495390304085714 0.8561076762904597
vt 0.12637278146835507 0.8546697848868254
vt 0.07170098724990137 0.8336339520230838
vt 0.07024538440501071 0.8322332493285014
vt 0.0661720840558406 0.8395759827453617
vt 0.0681309752207627 0.8400694329299337
vt 0.12243738128676056 0.8405950358330934
vt 0.1204793203417329 0.8401013810048341
vt 0.1205896994505077 0.8486991100011303
vt 0.12253444189140551 0.8481553503184791
vt 0.0681309752207627 0.8400694329299337
vt 0.0661720840558406 0.8395759827453617
vt 0.06628070984993809 0.8479721550996242
vt 0.06822617944298062 0.8474281921016078
vt 0.50824921875 0.7421875
vt 0.51518828125 0.7421875
vt 0.51465546875 0.734375
vt 0.50878203125 0.734375
vt 0.3046875 0.4921875
vt 0.3116265625 0.4921875
vt 0.31109375 0.484375
vt 0.30522031250000003 0.484375
vt 0.5078125 0.640625
vt 0.5147515625 0.640625
vt 0.51421875 0.6328125
vt 0.5083453125 0.6328125
vt 0.50824921875 0.6796875
vt 0.51518828125 0.6796875
vt 0.51465546875 0.671875
vt 0.50878203125 0.671875
vt 0.5086859375 0.625
vt 0.515625 0.625
vt 0.5150921875 0.6171875
vt 0.50921875 0.6171875
vt 0.2743109375 0.4921875
vt 0.28125 0.4921875
vt 0.28071718749999997 0.484375
vt 0.27484375 0.484375
vt 0.24262421875 0.4921875
vt 0.24956328125 0.4921875
vt 0.24903046875 0.484375
vt 0.24315703125 0.484375
vt 0.5078125 0.6953125
vt 0.5147515625 0.6953125
vt 0.51421875 0.6875
vt 0.5083453125 0.6875
vt 0.3359375 0.4921875
vt 0.3428765625 0.4921875
vt 0.34234375 0.484375
vt 0.3364703125 0.484375
vt 0.32074921875 0.4921875
vt 0.32768828125 0.4921875
vt 0.32715546875 0.484375
vt 0.32128203125 0.484375
vt 0.3758734375 0.4921875
vt 0.3828125 0.4921875
vt 0.3822796875 0.484375
vt 0.37640625 0.484375
vt 0.2899359375 0.4921875
vt 0.296875 0.4921875
vt 0.29634218749999997 0.484375
vt 0.29046875 0.484375
vt 0.49703586450302867 0.890625
vt 0.4978881562313846 0.8896693229319436
vt 0.4917510185330888 0.8864310935930821
vt 0.4914432060330888 0.8876740623430821
vt 0.48565234375 0.49343046874999996
vt 0.48534453125 0.4921875
vt 0.48014986774901064 0.494928437645751
vt 0.4810021594773665 0.49588411471380744
vt 0.18824453125 0.5204865623430821
vt 0.18793671875 0.5192435935930821
vt 0.18179958105170418 0.5224818229319436
vt 0.1826518727800601 0.5234375
vt 0.08149784052263348 0.48807161471380744
vt 0.08235013225098937 0.487115937645751
vt 0.07715546875 0.484375
vt 0.07684765625000001 0.48561796874999996
vt 0.4851199508280735 0.8876747984631854
vt 0.4848119560330888 0.8864310935930821
vt 0.4786743437686154 0.8896684233677409
vt 0.4795268598948775 0.8906249163641186
vt 0.4955603405226335 0.49588411471380744
vt 0.49641263225098936 0.494928437645751
vt 0.49121796875 0.4921875
vt 0.49091015625 0.49343046874999996
vt 0.4914432060330888 0.8876740623430821
vt 0.4917510185330888 0.8864310935930821
vt 0.4848119560330888 0.8864310935930821
vt 0.4851197685330888 0.8876740623430821
vt 0.49091015625 0.49343046874999996
vt 0.49121796875 0.4921875
vt 0.48534453125 0.4921875
vt 0.48565234375 0.49343046874999996
vt 0.13766062721993988 0.5234375
vt 0.13851291894829576 0.5224818229319436
vt 0.13237578125 0.5192435935930821
vt 0.13206796875000001 0.5204865623430821
vt 0.04033984374999999 0.48561796874999996
vt 0.04003203125 0.484375
vt 0.03483736774901061 0.487115937645751
vt 0.035689659477366506 0.48807161471380744
vt 0.13206796875 0.5204865623430821
vt 0.13237578125 0.5192435935930821
vt 0.12543671875 0.5192435935930821
vt 0.12574453125 0.5204865623430821
vt 0.04559765625 0.48561796874999996
vt 0.04590546875 0.484375
vt 0.04003203125 0.484375
vt 0.04033984375 0.48561796874999996
vt 0.12574453124999999 0.5204865623430821
vt 0.12543671875 0.5192435935930821
vt 0.11929958105170423 0.5224818229319436
vt 0.12015187278006012 0.5234375
vt 0.050247840522633494 0.48807161471380744
vt 0.05110013225098939 0.487115937645751
vt 0.04590546875 0.484375
vt 0.04559765625000001 0.48561796874999996
vt 0.07516064010512252 0.5234374163641186
vt 0.07601315623138458 0.522480923367741
vt 0.0698755439669112 0.5192435935930821
vt 0.06956754917192648 0.5204872984631854
vt 0.50908984375 0.51686796875
vt 0.50878203125 0.515625
vt 0.5035873677490106 0.518365937645751
vt 0.5044396594773666 0.5193216147138074
vt 0.0695677314669112 0.5204865623430821
vt 0.0698755439669112 0.5192435935930821
vt 0.06293648146691119 0.5192435935930821
vt 0.0632442939669112 0.5204865623430821
vt 0.51434765625 0.51686796875
vt 0.51465546875 0.515625
vt 0.50878203125 0.515625
vt 0.50908984375 0.51686796875
vt 0.0632442939669112 0.5204865623430821
vt 0.06293648146691119 0.5192435935930821
vt 0.05679934376861542 0.5224818229319436
vt 0.05765163549697133 0.5234375
vt 0.5189978405226334 0.5193216147138074
vt 0.5198501322509894 0.518365937645751
vt 0.51465546875 0.515625
vt 0.51434765625 0.51686796875
vt 0.2001606272199399 0.5234375
vt 0.20101291894829582 0.5224818229319436
vt 0.19487578125 0.5192435935930821
vt 0.19456796875 0.5204865623430821
vt 0.07158984374999999 0.48561796874999996
vt 0.07128203125 0.484375
vt 0.06608736774901063 0.487115937645751
vt 0.06693965947736652 0.48807161471380744
vt 0.19456796875 0.5204865623430821
vt 0.19487578125 0.5192435935930821
vt 0.18793671875 0.5192435935930821
vt 0.18824453125 0.5204865623430821
vt 0.07684765625000001 0.48561796874999996
vt 0.07715546875 0.484375
vt 0.07128203125 0.484375
vt 0.07158984374999999 0.48561796874999996
vn -1 -2.220446049250313e-16 0
vn 0.7334553199365622 0.33986883266076146 0.5886700860775641
vn 1 2.220446049250313e-16 0
vn -1 -2.220446049250313e-16 0
vn 0.8102597901182248 0.5093651424468036 0.2898727723980262
vn 1 2.220446049250313e-16 0
vn -1 -2.220446049250313e-16 0
vn 0.7334553199365571 0.6797376653215288 0
vn 1 2.220446049250313e-16 0
vn -1 -2.220446049250313e-16 0
vn 0.8102597901182187 0.5093651424468096 -0.289872772398033
vn 1 2.220446049250313e-16 0
vn -1 -2.220446049250313e-16 0
vn 0.7334553199365621 0.3398688326607613 -0.5886700860775642
vn 1 2.220446049250313e-16 0
vn -1 -2.220446049250313e-16 0
vn 0.8132639141407547 3.7832356665465675e-16 -0.5818950128300289
vn 1 2.220446049250313e-16 0
vn -1 -2.220446049250313e-16 0
vn 0.7334553199365623 -0.33986883266076107 -0.588670086077564
vn 1 2.220446049250313e-16 0
vn -1 -2.220446049250313e-16 0
vn 0.8102597901182251 -0.5093651424468033 -0.28987277239802606
vn 1 2.220446049250313e-16 0
vn -1 -2.220446049250313e-16 0
vn 0.7334553199365574 -0.6797376653215286 0
vn 1 2.220446049250313e-16 0
vn -1 -2.220446049250313e-16 0
vn 0.8102597901182187 -0.5093651424468095 0.28987277239803283
vn 1 2.220446049250313e-16 0
vn -1 -2.220446049250313e-16 0
vn 0.7334553199365622 -0.33986883266076146 0.5886700860775639
vn 1 2.220446049250313e-16 0
vn -1 -2.220446049250313e-16 0
vn 0.8132639141407547 1.8058086451516846e-16 0.5818950128300289
vn 1 2.220446049250313e-16 0
vn -0.3022217873805094 0.476618818143105 -0.8255280088672948
vn -0.021742343636583374 0.49988180365291607 -0.865820681706031
vn 0.11752564915285892 0.49653492369399205 -0.860023715570333
vn -0.30222178738051253 0.8255280088672958 -0.4766188181431013
vn -0.021742343636586968 0.8658206817060302 -0.4998818036529173
vn 0.11752564915286477 0.8600237155703311 -0.4965349236939938
vn -0.3022217873805122 0.9532376362862142 0
vn -0.021742343636585525 0.9997636073058415 0
vn 0.11752564915286536 0.9930698473879861 0
vn -0.3022217873805085 0.8255280088672969 0.4766188181431018
vn -0.021742343636585355 0.8658206817060304 0.49988180365291707
vn 0.11752564915285746 0.860023715570332 0.49653492369399416
vn -0.3022217873805104 0.476618818143105 0.8255280088672943
vn -0.02174234363658581 0.4998818036529161 0.8658206817060311
vn 0.11752564915286025 0.49653492369399177 0.8600237155703327
vn -0.3022217873805109 -6.710671737864236e-17 0.9532376362862145
vn 0.09322208349809574 2.069946070062295e-17 0.9956453400424642
vn 0.1175256491528602 2.6095936334704685e-17 0.9930698473879865
vn -0.3022217873805093 -0.4766188181431059 0.8255280088672943
vn -0.021742343636583235 -0.4998818036529168 0.8658206817060308
vn 0.1175256491528586 -0.4965349236939923 0.8600237155703326
vn -0.30222178738051214 -0.825528008867296 0.476618818143101
vn -0.021742343636586607 -0.8658206817060303 0.49988180365291707
vn 0.1175256491528651 -0.8600237155703311 0.4965349236939936
vn -0.30222178738051175 -0.9532376362862143 0
vn -0.02174234363658508 -0.9997636073058415 0
vn 0.11752564915286579 -0.9930698473879859 0
vn -0.3022217873805081 -0.825528008867297 -0.4766188181431016
vn -0.021742343636585032 -0.8658206817060304 -0.499881803652917
vn 0.11752564915285806 -0.8600237155703317 -0.49653492369399405
vn -0.3022217873805102 -0.47661881814310514 -0.8255280088672943
vn -0.021742343636585587 -0.4998818036529161 -0.8658206817060311
vn 0.11752564915286047 -0.49653492369399177 -0.8600237155703327
vn -0.3022217873805111 4.558994735719735e-16 -0.9532376362862145
vn -0.021742343636584283 4.22452703148846e-16 -0.9997636073058416
vn 0.11752564915286128 2.6095936334704922e-17 -0.9930698473879864
vn 0.4270736777519691 -0.7830747444072923 0.4521084144791612
vn 0.42707367775197 -0.9042168289583017 0
vn 0.4270736777519757 -0.7830747444072899 -0.4521084144791597
vn 0.4270736777519725 -0.4521084144791506 -0.7830747444072966
vn 0.4270736777519727 9.482940605031691e-17 -0.9042168289583006
vn 0.4270736777519731 0.4521084144791509 -0.7830747444072964
vn 0.42707367775196864 0.7830747444072929 -0.45210841447916095
vn 0.4270736777519696 0.904216828958302 0
vn 0.42707367775197536 0.7830747444072901 0.4521084144791597
vn 0.4270736777519723 0.45210841447915084 0.7830747444072966
vn 0.42707367775197197 9.482940605031675e-17 0.9042168289583007
vn 0.42707367775197347 -0.4521084144791504 0.7830747444072962
vn 1.110223024625158e-16 -0.5000000000000007 -0.8660254037844385
vn 1.9229626863835495e-16 -0.8660254037844322 -0.5000000000000112
vn 2.220446049250313e-16 -1 0
vn 1.9229626863835498e-16 -0.8660254037844323 0.5000000000000113
vn 1.110223024625158e-16 -0.5000000000000007 0.8660254037844385
vn 0 0 1
vn -1.110223024625158e-16 0.5000000000000007 0.8660254037844385
vn -1.9229626863835498e-16 0.8660254037844323 0.5000000000000112
vn -2.220446049250313e-16 1 0
vn -1.92296268638355e-16 0.8660254037844324 -0.5000000000000109
vn -1.1102230246251583e-16 0.5000000000000008 -0.8660254037844384
vn 0 0 -1
vn 0 0 1
vn 0.11752564915285935 -0.4965349236939918 0.8600237155703329
vn 0.11752564915286429 -0.860023715570333 0.4965349236939904
vn 0.11752564915286343 -0.9930698473879863 0
vn 0.11752564915286313 -0.8600237155703331 -0.49653492369399044
vn 0.11752564915286282 -0.4965349236939911 -0.8600237155703327
vn 0.11752564915285986 7.005991992170714e-16 -0.9930698473879865
vn 0.11752564915285936 0.496534923693991 -0.8600237155703333
vn 0.1175256491528639 0.8600237155703331 -0.4965349236939906
vn 0.117525649152863 0.9930698473879863 0
vn 0.1175256491528627 0.8600237155703331 0.4965349236939905
vn 0.11752564915286262 0.4965349236939912 0.860023715570333
vn -0.032464760893589704 -0.9994728807226948 0
vn -0.9919099634105497 -2.2024825594669777e-16 0.12694339087515338
vn -0.03246448068806666 0.9994642542053866 0.0041547634498740795
vn 0.006053098074247552 -0.999980368910106 0.0016191967490225877
vn 0.005901506075294561 0.9999825859613973 0
vn 0.9660345035728086 2.1450274968977304e-16 0.25841311481199497
vn 0.37016773789951474 -0.9287590066819172 0.019558970463059835
vn 0.1537596791990721 3.414150722115752e-17 0.9881082739521001
vn 0.28814639028314565 0.9564594227518111 -0.04644384131470583
vn 0.26664097179723023 5.92061892395424e-17 -0.9637959286897972
vn 0.3417460656643071 -0.4805154604838638 0.8076599029535559
vn 0.1859913803540112 0.8539537477149325 0.48597345935517033
vn 0.3020852521441648 0.4480198456684188 -0.8414408584827829
vn 0.20590541342017193 -0.8504951096168786 -0.48400519547009185
vn 0.3860367796125231 0.49229616524994896 0.7801410708753816
vn 0.1982251744442188 0.8518723232562111 -0.48478894901454217
vn 0.25173452894289877 -0.5548486223230518 -0.7929519110539482
vn 0.22170559465483214 -0.8474894806882192 0.4822947329398901
vn 0.3701677378995143 0.9287590066819175 -0.019558970463059825
vn 0.1537596791990717 3.631512852693704e-16 -0.9881082739521001
vn 0.2881463902831461 -0.9564594227518108 0.04644384131470583
vn 0.2666409717972304 -4.002605323576202e-16 0.9637959286897972
vn 0.3417460656643069 0.4805154604838639 -0.8076599029535559
vn 0.18599138035401147 -0.8539537477149324 -0.48597345935516995
vn 0.30208525214416426 -0.4480198456684176 0.8414408584827836
vn 0.2059054134201716 0.8504951096168788 0.4840051954700918
vn 0.3860367796125219 -0.49229616524994735 -0.7801410708753832
vn 0.1982251744442187 -0.8518723232562114 0.4847889490145419
vn 0.25173452894289716 0.5548486223230525 0.7929519110539482
vn 0.22170559465483103 0.8474894806882196 -0.4822947329398897
vn 0.11752564915287902 0.8600237155703301 0.4965349236939923
vn 0.11752564915286473 0.8600237155703329 0.4965349236939905
vn 0.11752564915286096 0.49653492369399316 0.8600237155703319
vn 0.11752564915286275 0.4965349236939924 0.8600237155703321
vn 0.11752564915286134 2.6095936334704938e-17 0.9930698473879864
vn 0.11752564915286237 2.6095936334705166e-17 0.9930698473879864
vn 0.11752564915287243 -0.49653492369399316 0.8600237155703303
vn 0.11752564915286219 -0.49653492369399305 0.8600237155703319
vn 0.11752564915286418 -0.8600237155703315 0.4965349236939933
vn 0.11752564915286495 -0.860023715570333 0.4965349236939904
vn 0.11752564915286477 -0.993069847387986 0
vn 0.1175256491528658 -0.993069847387986 0
vn 0.11752564915287939 -0.86002371557033 -0.4965349236939921
vn 0.11752564915286501 -0.8600237155703331 -0.4965349236939905
vn 0.11752564915286136 7.092029345715848e-16 -0.9930698473879864
vn 0.11752564915286237 4.984610925798242e-16 -0.9930698473879864
vn 0.11752564915286118 -0.49653492369399316 -0.8600237155703319
vn 0.11752564915286297 -0.4965349236939924 -0.8600237155703321
vn 0.11752564915287123 0.49653492369399216 -0.860023715570331
vn 0.11752564915286198 0.4965349236939923 -0.8600237155703322
vn 0.11752564915286391 0.8600237155703315 -0.4965349236939933
vn 0.11752564915286455 0.8600237155703329 -0.4965349236939905
vn 0.11752564915286436 0.9930698473879862 0
vn 0.11752564915286536 0.9930698473879861 0
vn -0.9913667506606882 0.11355163699107045 0.06555906818371743
vn 0.991366750660688 -0.1135516369910717 -0.06555906818371772
vn -0.9913667506606878 0.06555906818371778 0.1135516369910723
vn 0.991366750660688 -0.06555906818371778 -0.1135516369910724
vn -0.9913667506606879 -2.2012763848626447e-16 0.13111813636743672
vn 0.9913667506606879 2.2012763848626447e-16 -0.1311181363674365
vn -0.991366750660688 -0.06555906818371783 0.1135516369910715
vn 0.9913667506606878 0.0655590681837186 -0.11355163699107296
vn -0.9913667506606881 -0.1135516369910706 0.06555906818371725
vn 0.9913667506606878 0.11355163699107247 -0.06555906818371789
vn -0.9913667506606881 -0.13111813636743413 0
vn 0.991366750660688 0.13111813636743602 0
vn -0.991366750660688 -0.11355163699107086 -0.06555906818371741
vn 0.991366750660688 0.1135516369910721 0.06555906818371769
vn -0.9913667506606879 -2.2012763848626447e-16 -0.13111813636743638
vn 0.9913667506606879 1.619987666633595e-16 0.1311181363674365
vn -0.9913667506606878 -0.06555906818371822 -0.1135516369910723
vn 0.9913667506606878 0.0655590681837182 0.11355163699107237
vn -0.991366750660688 0.0655590681837174 -0.1135516369910716
vn 0.9913667506606878 -0.06555906818371808 0.11355163699107297
vn -0.9913667506606881 0.11355163699107014 -0.06555906818371728
vn 0.991366750660688 -0.11355163699107207 0.06555906818371796
vn -0.9913667506606884 0.13111813636743372 0
vn 0.991366750660688 -0.13111813636743558 0
vn -0.4536840529879507 5.676141432083632e-16 -0.8911626002388264
vn -0.4536840529879505 0.4455813001194146 -0.7717694507094193
vn -0.4536840529879439 0.7717694507094225 -0.4455813001194161
vn -0.4536840529879532 0.8911626002388252 0
vn -0.4536840529879529 0.7717694507094186 0.4455813001194137
vn -0.4536840529879472 0.44558130011941577 0.7717694507094206
vn -0.4536840529879508 -1.007380963064965e-16 0.8911626002388264
vn -0.4536840529879507 -0.4455813001194155 0.7717694507094186
vn -0.4536840529879433 -0.7717694507094229 0.445581300119416
vn -0.4536840529879528 -0.8911626002388254 0
vn -0.4536840529879524 -0.7717694507094187 -0.4455813001194135
vn -0.45368405298794695 -0.445581300119416 -0.7717694507094206
vn 0.9242187808256136 -0.19093169273932598 -0.33070339259964093
vn -0.9242187808256171 0.19093169273932037 0.33070339259963405
vn 0.9242187808256189 -0.3307033925996299 -0.19093169273931937
vn -0.9242187808256179 0.3307033925996334 0.19093169273931776
vn 0.9242187808256171 0.19093169273932198 -0.33070339259963366
vn -0.9242187808256167 -0.19093169273932123 0.33070339259963494
vn 0.9242187808256153 4.998282554860764e-16 -0.3818633854786466
vn -0.9242187808256153 -3.067340621125568e-16 0.3818633854786465
vn 0.9242187808256125 0.3307033925996433 -0.19093169273932697
vn -0.9242187808256134 -0.3307033925996431 0.19093169273932314
vn 0.9242187808256195 0.3818633854786364 0
vn -0.924218780825613 -0.38186338547865223 0
vn 0.9242187808256186 0.33070339259963033 0.19093169273931943
vn -0.9242187808256179 -0.3307033925996338 -0.19093169273931784
vn 0.9242187808256136 0.19093169273932636 0.33070339259964093
vn -0.9242187808256171 -0.19093169273932076 -0.33070339259963405
vn 0.9242187808256153 2.0521779405271784e-16 0.38186338547864657
vn -0.9242187808256151 -2.0521779405271782e-16 -0.38186338547864707
vn 0.9242187808256174 -0.1909316927393218 0.3307033925996333
vn -0.9242187808256167 0.19093169273932092 -0.33070339259963477
vn 0.9242187808256128 -0.3307033925996429 0.19093169273932692
vn -0.9242187808256135 0.33070339259964265 -0.190931692739323
vn 0.9242187808256196 -0.38186338547863596 0
vn -0.9242187808256132 0.38186338547865173 0
usemtl m_349ca9e1-c03b-a562-42cd-191c9d89e767
f 2/1/1 4/2/1 1/3/1
f 40/4/2 43/5/2 3/6/2 5/7/2
f 78/8/3 79/9/3 76/10/3
f 4/11/4 6/12/4 1/13/4
f 110/14/5 111/15/5 109/16/5 112/17/5
f 77/18/6 78/19/6 76/20/6
f 6/21/7 8/22/7 1/23/7
f 34/24/8 37/25/8 7/26/8 9/27/8
f 74/28/9 77/29/9 76/30/9
f 8/31/10 10/32/10 1/33/10
f 114/34/11 115/35/11 113/36/11 116/37/11
f 75/38/12 74/39/12 76/40/12
f 10/41/13 12/42/13 1/43/13
f 30/44/14 31/45/14 11/46/14 13/47/14
f 86/48/15 75/49/15 76/50/15
f 12/51/16 14/52/16 1/53/16
f 118/54/17 119/55/17 117/56/17 120/57/17
f 85/58/18 86/59/18 76/60/18
f 14/61/19 16/62/19 1/63/19
f 58/64/20 61/65/20 15/66/20 17/67/20
f 84/68/21 85/69/21 76/70/21
f 16/71/22 18/72/22 1/73/22
f 122/74/23 123/75/23 121/76/23 124/77/23
f 83/78/24 84/79/24 76/80/24
f 18/81/25 20/82/25 1/83/25
f 52/84/26 55/85/26 19/86/26 21/87/26
f 82/88/27 83/89/27 76/90/27
f 20/91/28 22/92/28 1/93/28
f 126/94/29 127/95/29 125/96/29 128/97/29
f 81/98/30 82/99/30 76/100/30
f 22/101/31 24/102/31 1/103/31
f 46/104/32 49/105/32 23/106/32 25/107/32
f 80/108/33 81/109/33 76/110/33
f 24/111/34 2/112/34 1/113/34
f 106/114/35 107/115/35 105/116/35 108/117/35
f 79/118/36 80/119/36 76/120/36
f 178/121/37 179/122/37 27/123/37 26/124/37
f 29/125/38 28/126/38 26/127/38 27/128/38
f 171/129/39 174/130/39 173/131/39 169/132/39
f 179/133/40 180/134/40 32/135/40 27/136/40
f 33/137/41 29/138/41 27/139/41 32/140/41
f 174/141/42 176/142/42 175/143/42 173/144/42
f 180/145/43 181/146/43 35/147/43 32/148/43
f 36/149/44 33/150/44 32/151/44 35/152/44
f 176/153/45 154/154/45 156/155/45 175/156/45
f 181/157/46 182/158/46 38/159/46 35/160/46
f 39/161/47 36/162/47 35/163/47 38/164/47
f 154/165/48 155/166/48 153/167/48 156/168/48
f 182/169/49 183/170/49 41/171/49 38/172/49
f 42/173/50 39/174/50 38/175/50 41/176/50
f 155/177/51 158/178/51 157/179/51 153/180/51
f 183/181/52 184/182/52 44/183/52 41/184/52
f 102/185/53 99/186/53 103/187/53 104/188/53
f 158/189/54 160/190/54 159/191/54 157/192/54
f 184/193/55 185/194/55 47/195/55 44/196/55
f 48/197/56 45/198/56 44/199/56 47/200/56
f 160/201/57 162/202/57 161/203/57 159/204/57
f 185/205/58 186/206/58 50/207/58 47/208/58
f 51/209/59 48/210/59 47/211/59 50/212/59
f 162/213/60 164/214/60 163/215/60 161/216/60
f 186/217/61 187/218/61 53/219/61 50/220/61
f 54/221/62 51/222/62 50/223/62 53/224/62
f 164/225/63 166/226/63 165/227/63 163/228/63
f 187/229/64 188/230/64 56/231/64 53/232/64
f 57/233/65 54/234/65 53/235/65 56/236/65
f 166/237/66 168/238/66 167/239/66 165/240/66
f 188/241/67 177/242/67 59/243/67 56/244/67
f 60/245/68 57/246/68 56/247/68 59/248/68
f 168/249/69 170/250/69 172/251/69 167/252/69
f 177/253/70 178/254/70 26/255/70 59/256/70
f 28/257/71 60/258/71 59/259/71 26/260/71
f 170/261/72 171/262/72 169/263/72 172/264/72
f 9/265/73 62/266/73 63/267/73 11/268/73
f 7/269/74 64/270/74 62/271/74 9/272/74
f 5/273/75 65/274/75 64/275/75 7/276/75
f 3/277/76 66/278/76 65/279/76 5/280/76
f 25/281/77 67/282/77 66/283/77 3/284/77
f 23/285/78 68/286/78 67/287/78 25/288/78
f 21/289/79 69/290/79 68/291/79 23/292/79
f 19/293/80 70/294/80 69/295/80 21/296/80
f 17/297/81 71/298/81 70/299/81 19/300/81
f 15/301/82 72/302/82 71/303/82 17/304/82
f 13/305/83 73/306/83 72/307/83 15/308/83
f 11/309/84 63/310/84 73/311/84 13/312/84
f 66/313/85 79/314/85 78/315/85 65/316/85
f 65/317/86 78/318/86 77/319/86 64/320/86
f 64/321/87 77/322/87 74/323/87 62/324/87
f 62/325/88 74/326/88 75/327/88 63/328/88
f 63/329/89 75/330/89 86/331/89 73/332/89
f 73/333/90 86/334/90 85/335/90 72/336/90
f 72/337/91 85/338/91 84/339/91 71/340/91
f 71/341/92 84/342/92 83/343/92 70/344/92
f 70/345/93 83/346/93 82/347/93 69/348/93
f 69/349/94 82/350/94 81/351/94 68/352/94
f 68/353/95 81/354/95 80/355/95 67/356/95
f 67/357/96 80/358/96 79/359/96 66/360/96
f 101/361/97 100/362/97 99/363/97 102/364/97
f 89/365/98 88/366/98 45/367/98 48/368/98
f 90/369/99 89/370/99 48/371/99 51/372/99
f 91/373/100 90/374/100 51/375/100 54/376/100
f 92/377/101 91/378/101 54/379/101 57/380/101
f 93/381/102 92/382/102 57/383/102 60/384/102
f 94/385/103 93/386/103 60/387/103 28/388/103
f 95/389/104 94/390/104 28/391/104 29/392/104
f 96/393/105 95/394/105 29/395/105 33/396/105
f 97/397/106 96/398/106 33/399/106 36/400/106
f 98/401/107 97/402/107 36/403/107 39/404/107
f 87/405/108 98/406/108 39/407/108 42/408/108
f 42/409/109 99/410/109 100/411/109 87/412/109
f 87/413/110 100/414/110 101/415/110 88/416/110
f 88/417/111 101/418/111 102/419/111 45/420/111
f 41/421/112 103/422/112 99/423/112 42/424/112
f 45/425/113 102/426/113 104/427/113 44/428/113
f 44/429/114 104/430/114 103/431/114 41/432/114
f 25/433/115 105/434/115 107/435/115 46/436/115
f 46/437/116 107/438/116 106/439/116 43/440/116
f 43/441/117 106/442/117 108/443/117 3/444/117
f 3/445/118 108/446/118 105/447/118 25/448/118
f 5/449/119 109/450/119 111/451/119 40/452/119
f 40/453/120 111/454/120 110/455/120 37/456/120
f 37/457/121 110/458/121 112/459/121 7/460/121
f 7/461/122 112/462/122 109/463/122 5/464/122
f 9/465/123 113/466/123 115/467/123 34/468/123
f 34/469/124 115/470/124 114/471/124 31/472/124
f 31/473/125 114/474/125 116/475/125 11/476/125
f 11/477/126 116/478/126 113/479/126 9/480/126
f 13/481/127 117/482/127 119/483/127 30/484/127
f 30/485/128 119/486/128 118/487/128 61/488/128
f 61/489/129 118/490/129 120/491/129 15/492/129
f 15/493/130 120/494/130 117/495/130 13/496/130
f 17/497/131 121/498/131 123/499/131 58/500/131
f 58/501/132 123/502/132 122/503/132 55/504/132
f 55/505/133 122/506/133 124/507/133 19/508/133
f 19/509/134 124/510/134 121/511/134 17/512/134
f 21/513/135 125/514/135 127/515/135 52/516/135
f 52/517/136 127/518/136 126/519/136 49/520/136
f 49/521/137 126/522/137 128/523/137 23/524/137
f 23/525/138 128/526/138 125/527/138 21/528/138
f 98/529/139 131/530/139 130/531/139 97/532/139
f 37/533/140 132/534/140 129/535/140 40/536/140
f 87/537/141 134/538/141 131/539/141 98/540/141
f 40/541/142 129/542/142 133/543/142 43/544/142
f 88/545/143 136/546/143 134/547/143 87/548/143
f 43/549/144 133/550/144 135/551/144 46/552/144
f 89/553/145 138/554/145 136/555/145 88/556/145
f 46/557/146 135/558/146 137/559/146 49/560/146
f 90/561/147 140/562/147 138/563/147 89/564/147
f 49/565/148 137/566/148 139/567/148 52/568/148
f 91/569/149 142/570/149 140/571/149 90/572/149
f 52/573/150 139/574/150 141/575/150 55/576/150
f 92/577/151 144/578/151 142/579/151 91/580/151
f 55/581/152 141/582/152 143/583/152 58/584/152
f 94/585/153 147/586/153 146/587/153 93/588/153
f 61/589/154 148/590/154 145/591/154 30/592/154
f 93/593/155 146/594/155 144/595/155 92/596/155
f 58/597/156 143/598/156 148/599/156 61/600/156
f 95/601/157 150/602/157 147/603/157 94/604/157
f 30/605/158 145/606/158 149/607/158 31/608/158
f 96/609/159 152/610/159 150/611/159 95/612/159
f 31/613/160 149/614/160 151/615/160 34/616/160
f 97/617/161 130/618/161 152/619/161 96/620/161
f 34/621/162 151/622/162 132/623/162 37/624/162
f 131/625/163 155/626/163 154/627/163 130/628/163
f 132/629/164 156/630/164 153/631/164 129/632/164
f 134/633/165 158/634/165 155/635/165 131/636/165
f 129/637/166 153/638/166 157/639/166 133/640/166
f 136/641/167 160/642/167 158/643/167 134/644/167
f 133/645/168 157/646/168 159/647/168 135/648/168
f 138/649/169 162/650/169 160/651/169 136/652/169
f 135/653/170 159/654/170 161/655/170 137/656/170
f 140/657/171 164/658/171 162/659/171 138/660/171
f 137/661/172 161/662/172 163/663/172 139/664/172
f 142/665/173 166/666/173 164/667/173 140/668/173
f 139/669/174 163/670/174 165/671/174 141/672/174
f 144/673/175 168/674/175 166/675/175 142/676/175
f 141/677/176 165/678/176 167/679/176 143/680/176
f 147/681/177 171/682/177 170/683/177 146/684/177
f 148/685/178 172/686/178 169/687/178 145/688/178
f 146/689/179 170/690/179 168/691/179 144/692/179
f 143/693/180 167/694/180 172/695/180 148/696/180
f 150/697/181 174/698/181 171/699/181 147/700/181
f 145/701/182 169/702/182 173/703/182 149/704/182
f 152/705/183 176/706/183 174/707/183 150/708/183
f 149/709/184 173/710/184 175/711/184 151/712/184
f 130/713/185 154/714/185 176/715/185 152/716/185
f 151/717/186 175/718/186 156/719/186 132/720/186
f 196/721/187 191/722/187 192/723/187 195/724/187
f 197/725/188 196/726/188 195/727/188 198/728/188
f 199/729/189 197/730/189 198/731/189 200/732/189
f 201/733/190 199/734/190 200/735/190 202/736/190
f 203/737/191 201/738/191 202/739/191 204/740/191
f 205/741/192 203/742/192 204/743/192 206/744/192
f 207/745/193 205/746/193 206/747/193 208/748/193
f 209/749/194 207/750/194 208/751/194 210/752/194
f 211/753/195 209/754/195 210/755/195 212/756/195
f 194/757/196 211/758/196 212/759/196 193/760/196
f 190/761/197 194/762/197 193/763/197 189/764/197
f 191/765/198 190/766/198 189/767/198 192/768/198
f 188/769/199 190/770/199 191/771/199 177/772/199
f 14/773/200 192/774/200 189/775/200 16/776/200
f 187/777/201 194/778/201 190/779/201 188/780/201
f 16/781/202 189/782/202 193/783/202 18/784/202
f 178/785/203 196/786/203 197/787/203 179/788/203
f 10/789/204 198/790/204 195/791/204 12/792/204
f 177/793/205 191/794/205 196/795/205 178/796/205
f 12/797/206 195/798/206 192/799/206 14/800/206
f 179/801/207 197/802/207 199/803/207 180/804/207
f 8/805/208 200/806/208 198/807/208 10/808/208
f 180/809/209 199/810/209 201/811/209 181/812/209
f 6/813/210 202/814/210 200/815/210 8/816/210
f 181/817/211 201/818/211 203/819/211 182/820/211
f 4/821/212 204/822/212 202/823/212 6/824/212
f 182/825/213 203/826/213 205/827/213 183/828/213
f 2/829/214 206/830/214 204/831/214 4/832/214
f 183/833/215 205/834/215 207/835/215 184/836/215
f 24/837/216 208/838/216 206/839/216 2/840/216
f 184/841/217 207/842/217 209/843/217 185/844/217
f 22/845/218 210/846/218 208/847/218 24/848/218
f 185/849/219 209/850/219 211/851/219 186/852/219
f 20/853/220 212/854/220 210/855/220 22/856/220
f 186/857/221 211/858/221 194/859/221 187/860/221
f 18/861/222 193/862/222 212/863/222 20/864/222
o Arm
v 0.3562499999999953 1.0156250000000018 4.966135230842929e-16
v 0.15937499999999533 1.015625000000001 8.772126480466929e-16
v 0.35624999999999507 1.0487682628834885 -0.05624999999999946
v 0.15937499999999508 1.0487682628834878 -0.05624999999999908
v 0.356249999999995 1.0718750000000015 -0.03736201288348604
v 0.15937499999999502 1.0718750000000008 -0.03736201288348566
v 0.3562499999999951 1.0718750000000015 0.037362012883487124
v 0.1593749999999952 1.0718750000000008 0.037362012883487505
v 0.3562499999999953 1.0487682628834885 0.056250000000000515
v 0.1593749999999953 1.0487682628834878 0.056250000000000897
v 0.3562499999999955 0.9824817371165151 0.05625000000000045
v 0.15937499999999558 0.9824817371165144 0.056250000000000834
v 0.35624999999999557 0.9593750000000021 0.03736201288348706
v 0.15937499999999563 0.9593750000000014 0.03736201288348744
v 0.35624999999999546 0.9593750000000021 -0.03736201288348616
v 0.15937499999999546 0.9593750000000014 -0.03736201288348578
v 0.3562499999999953 0.9824817371165151 -0.05624999999999951
v 0.15937499999999535 0.9824817371165144 -0.05624999999999913
v 0.33958333333332846 1.0487682628834885 -0.056249999999999425
v 0.3395833333333287 0.9824817371165151 -0.05624999999999948
v 0.3165441176470539 1.0487682628834885 -0.056249999999999384
v 0.31654411764705415 0.9824817371165151 -0.05624999999999943
v 0.33958333333332885 0.9593750000000021 -0.037362012883486125
v 0.3165441176470543 0.9593750000000021 -0.03736201288348608
v 0.33958333333332896 0.9593750000000021 0.037362012883487096
v 0.3165441176470544 0.9593750000000021 0.03736201288348714
v 0.3395833333333289 0.9824817371165151 0.05625000000000048
v 0.31654411764705437 0.9824817371165151 0.05625000000000053
v 0.3395833333333287 1.0487682628834885 0.05625000000000055
v 0.31654411764705415 1.0487682628834885 0.05625000000000059
v 0.3395833333333285 1.0718750000000015 0.03736201288348715
v 0.316544117647054 1.0718750000000015 0.0373620128834872
v 0.3395833333333284 1.0718750000000015 -0.037362012883486014
v 0.31654411764705387 1.0718750000000015 -0.037362012883485965
vt 0.39476796875 0.7796875
vt 0.39765625 0.7773265625
vt 0.390625 0.77265625
vt 0.171875 0.51160390625
vt 0.16814374999999998 0.51160390625
vt 0.16814374999999998 0.53125
vt 0.171875 0.53125
vt 0.39765625 0.7461109375
vt 0.39476796875 0.74375
vt 0.390625 0.75078125
vt 0.39765625 0.7773265625
vt 0.39765625 0.7679859375
vt 0.390625 0.77265625
vt 0.1999828125 0.62097890625
vt 0.1906421875 0.62097890625
vt 0.1906421875 0.640625
vt 0.1999828125 0.640625
vt 0.39765625 0.7554515625
vt 0.39765625 0.7461109375
vt 0.390625 0.75078125
vt 0.39765625 0.7679859375
vt 0.39476796875 0.765625
vt 0.390625 0.77265625
vt 0.47248125 0.83191640625
vt 0.46875 0.83191640625
vt 0.46875 0.8515625
vt 0.47248125 0.8515625
vt 0.39476796875 0.7578125
vt 0.39765625 0.7554515625
vt 0.390625 0.75078125
vt 0.39476796875 0.765625
vt 0.38648203125 0.765625
vt 0.390625 0.77265625
vt 0.39476796875 0.87879140625
vt 0.38648203125 0.87879140625
vt 0.38648203125 0.8984375
vt 0.39476796875 0.8984375
vt 0.38648203125 0.7578125
vt 0.39476796875 0.7578125
vt 0.390625 0.75078125
vt 0.38648203125 0.765625
vt 0.38359375 0.7679859375
vt 0.390625 0.77265625
vt 0.3046875 0.51160390625
vt 0.30095703125 0.51160390625
vt 0.30095703125 0.53125
vt 0.3046875 0.53125
vt 0.38359375 0.7554515625
vt 0.38648203125 0.7578125
vt 0.390625 0.75078125
vt 0.38359375 0.7679859375
vt 0.38359375 0.7773265625
vt 0.390625 0.77265625
vt 0.2859203125 0.62097890625
vt 0.2765796875 0.62097890625
vt 0.2765796875 0.640625
vt 0.2859203125 0.640625
vt 0.38359375 0.7461109375
vt 0.38359375 0.7554515625
vt 0.390625 0.75078125
vt 0.38359375 0.7773265625
vt 0.38648203125 0.7796875
vt 0.390625 0.77265625
vt 0.47248046875 0.75379140625
vt 0.46875 0.75379140625
vt 0.46875 0.7734375
vt 0.47248046875 0.7734375
vt 0.38648203125 0.74375
vt 0.38359375 0.7461109375
vt 0.390625 0.75078125
vt 0.38648203125 0.7796875
vt 0.39476796875 0.7796875
vt 0.390625 0.77265625
vt 0.13695546874999998 0.59754140625
vt 0.12866953125000002 0.59754140625
vt 0.12866953125000002 0.6171875
vt 0.13695546874999998 0.6171875
vt 0.39476796875 0.74375
vt 0.38648203125 0.74375
vt 0.390625 0.75078125
vt 0.12866953125000002 0.5946617187500001
vt 0.13695546874999998 0.5946617187500001
vt 0.13695546874999998 0.592578125
vt 0.12866953125000002 0.592578125
vt 0.12866953125000002 0.59754140625
vt 0.13695546874999998 0.59754140625
vt 0.13695546874999998 0.5946617187500001
vt 0.12866953125000002 0.5946617187500001
vt 0.46875 0.7509117187500001
vt 0.47248046875 0.7509117187500001
vt 0.47248046875 0.748828125
vt 0.46875 0.748828125
vt 0.46875 0.75379140625
vt 0.47248046875 0.75379140625
vt 0.47248046875 0.7509117187500001
vt 0.46875 0.7509117187500001
vt 0.2765796875 0.6180992187500001
vt 0.2859203125 0.6180992187500001
vt 0.2859203125 0.616015625
vt 0.2765796875 0.616015625
vt 0.2765796875 0.62097890625
vt 0.2859203125 0.62097890625
vt 0.2859203125 0.6180992187500001
vt 0.2765796875 0.6180992187500001
vt 0.30095703125 0.5087242187500001
vt 0.3046875 0.5087242187500001
vt 0.3046875 0.506640625
vt 0.30095703125 0.506640625
vt 0.30095703125 0.51160390625
vt 0.3046875 0.51160390625
vt 0.3046875 0.5087242187500001
vt 0.30095703125 0.5087242187500001
vt 0.38648203125 0.87591171875
vt 0.39476796875 0.87591171875
vt 0.39476796875 0.873828125
vt 0.38648203125 0.873828125
vt 0.38648203125 0.87879140625
vt 0.39476796875 0.87879140625
vt 0.39476796875 0.87591171875
vt 0.38648203125 0.87591171875
vt 0.46875 0.8290367187500001
vt 0.47248125 0.8290367187500001
vt 0.47248125 0.826953125
vt 0.46875 0.826953125
vt 0.46875 0.83191640625
vt 0.47248125 0.83191640625
vt 0.47248125 0.8290367187500001
vt 0.46875 0.8290367187500001
vt 0.1906421875 0.6180992187500001
vt 0.1999828125 0.6180992187500001
vt 0.1999828125 0.616015625
vt 0.1906421875 0.616015625
vt 0.1906421875 0.62097890625
vt 0.1999828125 0.62097890625
vt 0.1999828125 0.6180992187500001
vt 0.1906421875 0.6180992187500001
vt 0.16814374999999998 0.5087242187500001
vt 0.171875 0.5087242187500001
vt 0.171875 0.506640625
vt 0.16814374999999998 0.506640625
vt 0.16814374999999998 0.51160390625
vt 0.171875 0.51160390625
vt 0.171875 0.5087242187500001
vt 0.16814374999999998 0.5087242187500001
vn 1 3.996802888650565e-15 -1.9332019045709208e-15
vn -4.026292430662373e-15 0.6328859753093353 -0.774245014357052
vn -1 -3.996802888650565e-15 1.9332019045709208e-15
vn 1 3.996802888650565e-15 -1.9332019045709208e-15
vn -3.996802888650562e-15 1 1.010643099614868e-15
vn -1 -3.996802888650565e-15 1.9332019045709208e-15
vn 1 3.996802888650565e-15 -1.9332019045709208e-15
vn -1.0327485579431824e-15 0.6328859753093342 0.7742450143570527
vn -1 -3.996802888650565e-15 1.9332019045709208e-15
vn 1 3.996802888650565e-15 -1.9332019045709208e-15
vn 1.9332019045709247e-15 -1.0106430996148602e-15 1
vn -1 -3.996802888650565e-15 1.9332019045709208e-15
vn 1 3.996802888650565e-15 -1.9332019045709208e-15
vn 4.0262924306623715e-15 -0.6328859753093347 0.7742450143570524
vn -1 -3.996802888650565e-15 1.9332019045709208e-15
vn 1 3.996802888650565e-15 -1.9332019045709208e-15
vn 3.996802888650562e-15 -1 -1.010643099614868e-15
vn -1 -3.996802888650565e-15 1.9332019045709208e-15
vn 1 3.996802888650565e-15 -1.9332019045709208e-15
vn 1.0327485579431778e-15 -0.6328859753093334 -0.7742450143570534
vn -1 -3.996802888650565e-15 1.9332019045709208e-15
vn 1 3.996802888650565e-15 -1.9332019045709208e-15
vn -1.933201904570924e-15 8.012824845088422e-16 -1
vn -1 -3.996802888650565e-15 1.9332019045709208e-15
vn -1.933201904570924e-15 8.012824845088421e-16 -1
vn -1.933201904570924e-15 8.012824845088421e-16 -1
vn 1.0327485579431778e-15 -0.6328859753093334 -0.7742450143570534
vn 1.0327485579431777e-15 -0.6328859753093334 -0.7742450143570535
vn 3.996802888650562e-15 -1 -1.010643099614868e-15
vn 3.996802888650562e-15 -1 -1.010643099614868e-15
vn 4.026292430662372e-15 -0.6328859753093348 0.7742450143570525
vn 4.026292430662372e-15 -0.6328859753093348 0.7742450143570525
vn 1.9332019045709247e-15 -1.0106430996148602e-15 1
vn 1.9332019045709247e-15 -1.0106430996148602e-15 1
vn -1.0327485579431824e-15 0.6328859753093342 0.7742450143570527
vn -1.0327485579431824e-15 0.6328859753093342 0.7742450143570527
vn -3.996802888650562e-15 1 1.010643099614868e-15
vn -3.996802888650562e-15 1 1.010643099614868e-15
vn -4.026292430662373e-15 0.6328859753093352 -0.774245014357052
vn -4.026292430662373e-15 0.6328859753093352 -0.774245014357052
usemtl m_349ca9e1-c03b-a562-42cd-191c9d89e767
f 215/865/223 217/866/223 213/867/223
f 246/868/224 233/869/224 216/870/224 218/871/224
f 218/872/225 216/873/225 214/874/225
f 217/875/226 219/876/226 213/877/226
f 244/878/227 246/879/227 218/880/227 220/881/227
f 220/882/228 218/883/228 214/884/228
f 219/885/229 221/886/229 213/887/229
f 242/888/230 244/889/230 220/890/230 222/891/230
f 222/892/231 220/893/231 214/894/231
f 221/895/232 223/896/232 213/897/232
f 240/898/233 242/899/233 222/900/233 224/901/233
f 224/902/234 222/903/234 214/904/234
f 223/905/235 225/906/235 213/907/235
f 238/908/236 240/909/236 224/910/236 226/911/236
f 226/912/237 224/913/237 214/914/237
f 225/915/238 227/916/238 213/917/238
f 236/918/239 238/919/239 226/920/239 228/921/239
f 228/922/240 226/923/240 214/924/240
f 227/925/241 229/926/241 213/927/241
f 234/928/242 236/929/242 228/930/242 230/931/242
f 230/932/243 228/933/243 214/934/243
f 229/935/244 215/936/244 213/937/244
f 233/938/245 234/939/245 230/940/245 216/941/245
f 216/942/246 230/943/246 214/944/246
f 232/945/247 231/946/247 215/947/247 229/948/247
f 234/949/248 233/950/248 231/951/248 232/952/248
f 235/953/249 232/954/249 229/955/249 227/956/249
f 236/957/250 234/958/250 232/959/250 235/960/250
f 237/961/251 235/962/251 227/963/251 225/964/251
f 238/965/252 236/966/252 235/967/252 237/968/252
f 239/969/253 237/970/253 225/971/253 223/972/253
f 240/973/254 238/974/254 237/975/254 239/976/254
f 241/977/255 239/978/255 223/979/255 221/980/255
f 242/981/256 240/982/256 239/983/256 241/984/256
f 243/985/257 241/986/257 221/987/257 219/988/257
f 244/989/258 242/990/258 241/991/258 243/992/258
f 245/993/259 243/994/259 219/995/259 217/996/259
f 246/997/260 244/998/260 243/999/260 245/1000/260
f 231/1001/261 245/1002/261 217/1003/261 215/1004/261
f 233/1005/262 246/1006/262 245/1007/262 231/1008/262
o cylinder
v 0.16875000052683556 1.0124999982877854 0.06250000000000058
v 0.16875000052683556 1.012499998287784 -0.06249999999999971
v 0.23750000013863135 1.030921506716223 0.06250000000000035
v 0.23750000013863135 1.0309215067162216 -0.062499999999999924
v 0.21907849248660222 1.0628284923687392 0.06250000000000003
v 0.21907849248660222 1.0628284923687379 -0.06250000000000025
v 0.18717150605767735 1.0812499986759896 0.062499999999999854
v 0.18717150605767735 1.0812499986759883 -0.06250000000000043
v 0.15032849209839794 1.081249997899581 0.06249999999999987
v 0.15032849209839794 1.0812499978995798 -0.06250000000000042
v 0.11842150644588156 1.0628284902475518 0.06250000000000007
v 0.11842150644588156 1.0628284902475504 -0.06250000000000021
v 0.10000000013863133 1.030921503818627 0.06250000000000042
v 0.10000000013863133 1.0309215038186257 -0.06249999999999986
v 0.10000000091503974 0.9940784898593477 0.06250000000000079
v 0.10000000091503974 0.9940784898593463 -0.06249999999999948
v 0.1184215085670689 0.9621715042068313 0.06250000000000111
v 0.1184215085670689 0.96217150420683 -0.06249999999999916
v 0.1503284949959938 0.943749997899581 0.06250000000000129
v 0.1503284949959938 0.9437499978995797 -0.06249999999999899
v 0.18717150895527312 0.9437499986759895 0.06250000000000128
v 0.18717150895527312 0.9437499986759882 -0.062499999999999
v 0.21907849460778955 0.9621715063280186 0.06250000000000107
v 0.21907849460778955 0.9621715063280173 -0.0624999999999992
v 0.23750000091503978 0.9940784927569435 0.06250000000000072
v 0.23750000091503978 0.9940784927569422 -0.06249999999999954
vt 0.32652109375 0.790625
vt 0.33051015625 0.78832265625
vt 0.32421875 0.78203125
vt 0.2265625 0.546875
vt 0.2265625 0.53125
vt 0.21875 0.53125
vt 0.21875 0.546875
vt 0.33051015625 0.86011484375
vt 0.32652109375 0.8578125
vt 0.32421875 0.86640625
vt 0.33051015625 0.78832265625
vt 0.3328125 0.78433359375
vt 0.32421875 0.78203125
vt 0.1953125 0.546875
vt 0.1953125 0.53125
vt 0.1875 0.53125
vt 0.1875 0.546875
vt 0.3328125 0.86410390625
vt 0.33051015625 0.86011484375
vt 0.32421875 0.86640625
vt 0.3328125 0.78433359375
vt 0.3328125 0.77972890625
vt 0.32421875 0.78203125
vt 0.4140625 0.5546875
vt 0.4140625 0.5390625
vt 0.40625 0.5390625
vt 0.40625 0.5546875
vt 0.3328125 0.86870859375
vt 0.3328125 0.86410390625
vt 0.32421875 0.86640625
vt 0.3328125 0.77972890625
vt 0.33051015625 0.77573984375
vt 0.32421875 0.78203125
vt 0.4609375 0.8125
vt 0.4609375 0.796875
vt 0.453125 0.796875
vt 0.453125 0.8125
vt 0.33051015625 0.87269765625
vt 0.3328125 0.86870859375
vt 0.32421875 0.86640625
vt 0.33051015625 0.77573984375
vt 0.32652109375 0.7734375
vt 0.32421875 0.78203125
vt 0.2421875 0.546875
vt 0.2421875 0.53125
vt 0.234375 0.53125
vt 0.234375 0.546875
vt 0.32652109375 0.875
vt 0.33051015625 0.87269765625
vt 0.32421875 0.86640625
vt 0.32652109375 0.7734375
vt 0.32191640625 0.7734375
vt 0.32421875 0.78203125
vt 0.4609375 0.859375
vt 0.4609375 0.84375
vt 0.453125 0.84375
vt 0.453125 0.859375
vt 0.32191640625 0.875
vt 0.32652109375 0.875
vt 0.32421875 0.86640625
vt 0.32191640625 0.7734375
vt 0.31792734375 0.77573984375
vt 0.32421875 0.78203125
vt 0.2578125 0.546875
vt 0.2578125 0.53125
vt 0.25 0.53125
vt 0.25 0.546875
vt 0.31792734375 0.87269765625
vt 0.32191640625 0.875
vt 0.32421875 0.86640625
vt 0.31792734375 0.77573984375
vt 0.315625 0.77972890625
vt 0.32421875 0.78203125
vt 0.15625 0.546875
vt 0.15625 0.53125
vt 0.1484375 0.53125
vt 0.1484375 0.546875
vt 0.315625 0.86870859375
vt 0.31792734375 0.87269765625
vt 0.32421875 0.86640625
vt 0.315625 0.77972890625
vt 0.315625 0.78433359375
vt 0.32421875 0.78203125
vt 0.4609375 0.953125
vt 0.4609375 0.9375
vt 0.453125 0.9375
vt 0.453125 0.953125
vt 0.315625 0.86410390625
vt 0.315625 0.86870859375
vt 0.32421875 0.86640625
vt 0.315625 0.78433359375
vt 0.31792734375 0.78832265625
vt 0.32421875 0.78203125
vt 0.4609375 0.8359375
vt 0.4609375 0.8203125
vt 0.453125 0.8203125
vt 0.453125 0.8359375
vt 0.31792734375 0.86011484375
vt 0.315625 0.86410390625
vt 0.32421875 0.86640625
vt 0.31792734375 0.78832265625
vt 0.32191640625 0.790625
vt 0.32421875 0.78203125
vt 0.2109375 0.546875
vt 0.2109375 0.53125
vt 0.203125 0.53125
vt 0.203125 0.546875
vt 0.32191640625 0.8578125
vt 0.31792734375 0.86011484375
vt 0.32421875 0.86640625
vt 0.32191640625 0.790625
vt 0.32652109375 0.790625
vt 0.32421875 0.78203125
vt 0.4609375 0.9296875
vt 0.4609375 0.9140625
vt 0.453125 0.9140625
vt 0.453125 0.9296875
vt 0.32652109375 0.8578125
vt 0.32191640625 0.8578125
vt 0.32421875 0.86640625
vn 4.4408899109558276e-16 1.038058528960369e-14 1
vn 0.8660253932477264 0.5000000182501207 -5.329070712713109e-15
vn -4.4408899109558276e-16 -1.038058528960369e-14 -1
vn 4.4408899109558276e-16 1.038058528960369e-14 1
vn 0.4999999817498789 0.8660254143211509 -9.230221006942869e-15
vn -4.4408899109558276e-16 -1.038058528960369e-14 -1
vn 4.4408899109558276e-16 1.038058528960369e-14 1
vn -2.1073424449902227e-8 0.9999999999999998 -1.0658141036401495e-14
vn -4.4408899109558276e-16 -1.038058528960369e-14 -1
vn 4.4408899109558276e-16 1.038058528960369e-14 1
vn -0.5000000182501207 0.8660253932477264 -9.230220782339336e-15
vn -4.4408899109558276e-16 -1.038058528960369e-14 -1
vn 4.4408899109558276e-16 1.038058528960369e-14 1
vn -0.8660254143211507 0.49999998174987914 -5.329070323688387e-15
vn -4.4408899109558276e-16 -1.038058528960369e-14 -1
vn 4.4408899109558276e-16 1.038058528960369e-14 1
vn -0.9999999999999998 -2.1073423363488276e-8 2.246035183278565e-22
vn -4.4408899109558276e-16 -1.038058528960369e-14 -1
vn 4.4408899109558276e-16 1.038058528960369e-14 1
vn -0.8660253932477265 -0.5000000182501205 5.3290707127131075e-15
vn -4.4408899109558276e-16 -1.038058528960369e-14 -1
vn 4.4408899109558276e-16 1.038058528960369e-14 1
vn -0.4999999817498787 -0.866025414321151 9.23022100694287e-15
vn -4.4408899109558276e-16 -1.038058528960369e-14 -1
vn 4.4408899109558276e-16 1.038058528960369e-14 1
vn 2.1073424449902227e-8 -0.9999999999999998 1.0658141036401495e-14
vn -4.4408899109558276e-16 -1.038058528960369e-14 -1
vn 4.4408899109558276e-16 1.038058528960369e-14 1
vn 0.5000000182501203 -0.8660253932477265 9.230220782339339e-15
vn -4.4408899109558276e-16 -1.038058528960369e-14 -1
vn 4.4408899109558276e-16 1.038058528960369e-14 1
vn 0.8660254143211507 -0.499999981749879 5.329070323688386e-15
vn -4.4408899109558276e-16 -1.038058528960369e-14 -1
vn 4.4408899109558276e-16 1.038058528960369e-14 1
vn 0.9999999999999998 2.107342411683532e-8 -2.2460352635713555e-22
vn -4.4408899109558276e-16 -1.038058528960369e-14 -1
usemtl m_349ca9e1-c03b-a562-42cd-191c9d89e767
f 249/1009/263 251/1010/263 247/1011/263
f 252/1012/264 251/1013/264 249/1014/264 250/1015/264
f 252/1016/265 250/1017/265 248/1018/265
f 251/1019/266 253/1020/266 247/1021/266
f 254/1022/267 253/1023/267 251/1024/267 252/1025/267
f 254/1026/268 252/1027/268 248/1028/268
f 253/1029/269 255/1030/269 247/1031/269
f 256/1032/270 255/1033/270 253/1034/270 254/1035/270
f 256/1036/271 254/1037/271 248/1038/271
f 255/1039/272 257/1040/272 247/1041/272
f 258/1042/273 257/1043/273 255/1044/273 256/1045/273
f 258/1046/274 256/1047/274 248/1048/274
f 257/1049/275 259/1050/275 247/1051/275
f 260/1052/276 259/1053/276 257/1054/276 258/1055/276
f 260/1056/277 258/1057/277 248/1058/277
f 259/1059/278 261/1060/278 247/1061/278
f 262/1062/279 261/1063/279 259/1064/279 260/1065/279
f 262/1066/280 260/1067/280 248/1068/280
f 261/1069/281 263/1070/281 247/1071/281
f 264/1072/282 263/1073/282 261/1074/282 262/1075/282
f 264/1076/283 262/1077/283 248/1078/283
f 263/1079/284 265/1080/284 247/1081/284
f 266/1082/285 265/1083/285 263/1084/285 264/1085/285
f 266/1086/286 264/1087/286 248/1088/286
f 265/1089/287 267/1090/287 247/1091/287
f 268/1092/288 267/1093/288 265/1094/288 266/1095/288
f 268/1096/289 266/1097/289 248/1098/289
f 267/1099/290 269/1100/290 247/1101/290
f 270/1102/291 269/1103/291 267/1104/291 268/1105/291
f 270/1106/292 268/1107/292 248/1108/292
f 269/1109/293 271/1110/293 247/1111/293
f 272/1112/294 271/1113/294 269/1114/294 270/1115/294
f 272/1116/295 270/1117/295 248/1118/295
f 271/1119/296 249/1120/296 247/1121/296
f 250/1122/297 249/1123/297 271/1124/297 272/1125/297
f 250/1126/298 272/1127/298 248/1128/298