# Made in Blockbench 5.1.5
mtllib StingerHead.mtl

o sphere
v 0 1.2015625000000003 -0.15625
v 0 1.6328125000000004 -0.05
v 0.02861683933248065 1.6111494398536546 0.07616206793196585
v 0.03903548555071041 1.5754508941565983 0.12102563678988153
v 0.04867645430294378 1.4877389543029442 0.16326548078977393
v 0.04867645430294378 1.3903860456970567 0.16326548078977393
v 0.03903548555071041 1.3026741058434024 0.13977563678988153
v 0.028616839332480642 1.2419755601463462 0.11366206793196591
v 0.08018260200514166 1.6111494398536546 0.051174123101816876
v 0.109375 1.5754508941565983 0.08715191193185824
v 0.13638839415659795 1.4877389543029442 0.12102563678988153
v 0.13638839415659795 1.3903860456970567 0.12102563678988153
v 0.125 1.3026741058434024 0.10590191193185823
v 0.08018260200514166 1.2419755601463462 0.09486356885791576
v 0.11586721697560481 1.6111494398536546 0.006147402372162054
v 0.1580514543029438 1.5754508941565983 0.0261135688579157
v 0.1954184699268271 1.4877389543029442 0.044912067931965866
v 0.1954184699268271 1.3903860456970567 0.044912067931965866
v 0.17367645430294382 1.3026741058434024 0.04486356885791572
v 0.1158672169756048 1.2419755601463462 0.042239843999892404
v 0.12860290860588758 1.6111494398536546 -0.049999999999999996
v 0.17542387970730838 1.5754508941565983 -0.04999999999999999
v 0.1954184699268271 1.537738954302944 -0.04999999999999999
v 0.1954184699268271 1.3403860456970567 -0.04999999999999999
v 0.19104887970730838 1.3026741058434024 -0.04999999999999999
v 0.12860290860588758 1.2419755601463462 -0.049999999999999996
v 0.11586721697560481 1.6111494398536546 -0.10614740237216204
v 0.1580514543029438 1.5754508941565983 -0.1261135688579157
v 0.1954184699268271 1.4877389543029442 -0.14491206793196584
v 0.1954184699268271 1.3903860456970567 -0.14491206793196584
v 0.18930145430294376 1.3026741058434024 -0.1261135688579157
v 0.1158672169756048 1.2419755601463462 -0.1234898439998924
v 0.08018260200514167 1.6111494398536546 -0.15117412310181688
v 0.10937500000000003 1.5754508941565983 -0.18715191193185826
v 0.13638839415659798 1.5127389543029441 -0.2085256367898815
v 0.13638839415659798 1.3963020791698293 -0.22102563678988152
v 0.10937500000000003 1.3026741058434024 -0.24340191193185828
v 0.08018260200514167 1.2419755601463462 -0.16986356885791576
v 0.028616839332480663 1.6111494398536546 -0.17616206793196587
v 0.03903548555071043 1.5754508941565983 -0.22102563678988152
v 0.036176454302943806 1.4408469112665219 -0.26951548078977394
v 0.036176454302943806 1.3403860456970567 -0.26951548078977394
v 0.07028548555071043 1.3026741058434024 -0.2522756367898816
v 0.04424183933248066 1.2419755601463462 -0.21366206793196596
v -0.028616839332480635 1.6111494398536546 -0.17616206793196587
v -0.03903548555071039 1.5754508941565983 -0.22102563678988152
v -0.03617645430294375 1.4408469112665219 -0.26951548078977394
v -0.03617645430294375 1.3403860456970567 -0.26951548078977394
v -0.07028548555071037 1.3026741058434024 -0.2522756367898816
v -0.04424183933248063 1.2419755601463462 -0.21366206793196596
v -0.0801826020051416 1.6111494398536546 -0.15117412310181694
v -0.10937499999999992 1.5754508941565983 -0.18715191193185832
v -0.13638839415659787 1.5127389543029441 -0.20852563678988162
v -0.13638839415659787 1.3963020791698293 -0.22102563678988163
v -0.10937499999999992 1.3026741058434024 -0.24340191193185834
v -0.0801826020051416 1.2419755601463462 -0.16986356885791576
v -0.11586721697560481 1.6111494398536546 -0.10614740237216208
v -0.15805145430294376 1.5754508941565983 -0.12611356885791572
v -0.1954184699268271 1.4877389543029442 -0.14491206793196587
v -0.1954184699268271 1.3903860456970567 -0.14491206793196587
v -0.18930145430294376 1.3026741058434024 -0.12611356885791572
v -0.11586721697560479 1.2419755601463462 -0.12348984399989242
v -0.12860290860588758 1.6111494398536546 -0.050000000000000024
v -0.17542387970730838 1.5754508941565983 -0.05000000000000004
v -0.1954184699268271 1.537738954302944 -0.050000000000000044
v -0.1954184699268271 1.3403860456970567 -0.050000000000000044
v -0.19104887970730838 1.3026741058434024 -0.05000000000000004
v -0.12860290860588758 1.2419755601463462 -0.050000000000000024
v -0.11586721697560483 1.6111494398536546 0.006147402372162027
v -0.15805145430294382 1.5754508941565983 0.02611356885791566
v -0.1954184699268271 1.4877389543029442 0.04491206793196581
v -0.1954184699268271 1.3903860456970567 0.04491206793196581
v -0.17367645430294382 1.3026741058434024 0.04486356885791566
v -0.11586721697560483 1.2419755601463462 0.042239843999892404
v -0.08018260200514168 1.6111494398536546 0.05117412310181686
v -0.10937500000000004 1.5754508941565983 0.08715191193185821
v -0.136388394156598 1.4877389543029442 0.12102563678988153
v -0.136388394156598 1.3903860456970567 0.12102563678988153
v -0.12500000000000006 1.3026741058434024 0.10590191193185823
v -0.08018260200514168 1.2419755601463462 0.09486356885791576
v -0.02861683933248068 1.6111494398536546 0.07616206793196582
v -0.03903548555071045 1.5754508941565983 0.12102563678988153
v -0.04867645430294384 1.4877389543029442 0.16326548078977393
v -0.04867645430294384 1.3903860456970567 0.16326548078977393
v -0.03903548555071045 1.3026741058434024 0.13977563678988153
v -0.02861683933248068 1.2419755601463462 0.11366206793196591
v -0.027964580275153413 1.3424673410741612 -0.25238021537030986
v -0.12817652012880754 1.398383374546934 -0.20429853798270814
v -0.027964580275153413 1.4429282066436266 -0.25238021537030986
v -0.12817652012880754 1.514820249680049 -0.19179853798270813
v 0.1300446226897008 1.3944187161875592 -0.2034822047581269
v 0.02983268283604663 1.3385026827147863 -0.25238021537030986
v 0.1300446226897008 1.5108555913206738 -0.19098220475812688
v 0.02983268283604663 1.4389635482842518 -0.25238021537030986
v 0.000001910667519366971 1.2232255601463462 -0.21366206793196596
v 0.00000241540218329922 1.3560110456970567 -0.28514048078977394
v 0.00000241540218329922 1.4408469112665219 -0.28514048078977394
v 0.0000026062918227209853 1.5754508941565983 -0.23665063678988152
v 0.000001910667519366971 1.6111494398536546 -0.17616206793196587
v 0.05366611985490976 1.282826865652476 -0.27078686819082404
v 0.00007469467568192293 1.282971192379199 -0.2801540627533052
v -0.0015910043927128482 1.3243381092824775 -0.30436863168362666
v 0.028823670834272515 1.3125626922439921 -0.28931816620345424
v -0.032008973775786924 1.3127881015027878 -0.2885714837171063
v -0.05352028499734241 1.2827882864852231 -0.270774113031604
v 0.0017397892246052607 1.2221423665629856 -0.23177674600582715
v -0.03401310453777823 1.2356591050365409 -0.23189875587361436
v 0.03749007719442718 1.2359616726298421 -0.23117758370570635
vt 0.0462171875 0.5148726848873408
vt 0.059147452661987385 0.5210382236181166
vt 0.039062400210974665 0.5468746937247568
vt 0.8892515625 0.23434687499999995
vt 0.88673125 0.21875
vt 0.90625 0.21875
vt 0.9035765625 0.234375
vt 0.759321875 0.46875
vt 0.7569125 0.4375
vt 0.78125 0.4375
vt 0.778840625 0.46875
vt 0.671875 0.4375
vt 0.671875 0.40625
vt 0.703125 0.40625
vt 0.703125 0.4375
vt 0.006976562500000002 0.28955286605438024
vt 0.006887500000000001 0.26672474105438015
vt 0.0299875 0.26672474105438015
vt 0.03125 0.2890559910543802
vt 0.006887500000000001 0.26672474105438015
vt 0.006857615066641627 0.25
vt 0.02057868599424038 0.2501485466776112
vt 0.02998104073188337 0.26672474105438027
vt 0.3169396161994474 0.9073297325333757
vt 0.3040296875 0.9119798502190704
vt 0.2968749829369862 0.84375
vt 0.059147452661987385 0.5210382236181166
vt 0.06820950318094499 0.5321809632561886
vt 0.03906216211520164 0.546875
vt 0.8892140625 0.14059062499999997
vt 0.88673125 0.125
vt 0.90625 0.125
vt 0.9035765625 0.140625
vt 0.8262009986515226 0.609375
vt 0.8017439330245503 0.609375
vt 0.8042578258334425 0.5854253247515149
vt 0.828125 0.5899525429727566
vt 0.55404375 0.34375
vt 0.55404375 0.3194125
vt 0.578125 0.3194125
vt 0.578125 0.34375
vt 0.55404375 0.3194125
vt 0.5552875043848444 0.2970143208544961
vt 0.574804615901862 0.2970687813214158
vt 0.578121968739678 0.3194125
vt 0.8671459750820123 0.453125
vt 0.8483215625607923 0.4501191022216997
vt 0.8540695291066731 0.4375
vt 0.875 0.4375
vt 0.3260235112077204 0.8942858139905708
vt 0.3169396161994474 0.9073297325333757
vt 0.29687499624978403 0.8437500421848789
vt 0.06820950318094499 0.5321809632561886
vt 0.07165851783315307 0.5461553804888089
vt 0.03906397019912164 0.5468740884914169
vt 0.5767515625 0.12498437500000004
vt 0.57423125 0.109375
vt 0.59375 0.109375
vt 0.5911453125 0.125
vt 0.8425397529562804 0.1875
vt 0.8281629682848151 0.171875
vt 0.8549815983023165 0.171875
vt 0.859375 0.17763343781947905
vt 0.398146875 0.846875
vt 0.398146875 0.8225375
vt 0.421875 0.8100375
vt 0.421875 0.859375
vt 0.84375 0.774087269286343
vt 0.8211589739496451 0.774087269286343
vt 0.8221911663821994 0.75
vt 0.831605025986653 0.7502063488966987
vt 0.48835578900433024 0.3375123183527654
vt 0.4870292265043302 0.3165888808527654
vt 0.5103073515043303 0.3165888808527654
vt 0.5124432890043302 0.3382404433527654
vt 0.47724371371413254 0.4275173096653524
vt 0.45396558871413256 0.4275173096653524
vt 0.49915933871413254 0.3906251221653524
vt 0.4283414322723343 0.9367803804888089
vt 0.4317904469245423 0.9228059632561886
vt 0.4609359799063657 0.9374990884914169
vt 0.6901046875 0.125
vt 0.6875 0.109375
vt 0.70701875 0.109375
vt 0.7044984375 0.12498437500000004
vt 0.8066002525351296 0.453125
vt 0.796875 0.44872951556248275
vt 0.796875 0.42191107034456876
vt 0.8164388631663725 0.4362889997064072
vt 0.421875 0.859375
vt 0.421875 0.8100375
vt 0.445603125 0.8225375
vt 0.445603125 0.846875
vt 0.421875 0.8100375
vt 0.42190582228821205 0.8005453296200655
vt 0.4409401937075432 0.8005570048747634
vt 0.4455892167381603 0.8225301731137418
vt 0.5124447566648327 0.33825532072773423
vt 0.5103073515043303 0.3165888808527654
vt 0.5285003996446919 0.3125
vt 0.53125 0.3360851452776722
vt 0.4950911692303443 0.4221159877102688
vt 0.47724371371413254 0.4275173096653524
vt 0.49915941128586744 0.390625
vt 0.4317904469245423 0.9228059632561886
vt 0.44085249744349997 0.9116632236181166
vt 0.4609377879902857 0.9375
vt 0.8776734375 0.203125
vt 0.875 0.1875
vt 0.89451875 0.1875
vt 0.8920359375 0.20309218750000002
vt 0.8615663958201343 0.34375
vt 0.859375 0.3195547403499098
vt 0.875 0.32586478161873733
vt 0.875 0.34371857202949463
vt 0.3933910621372458 0.49375
vt 0.3933910621372458 0.4694125
vt 0.4174723121372458 0.470890625
vt 0.41500199963724577 0.5
vt 0.3933910621372458 0.4694125
vt 0.390625 0.44710563799218483
vt 0.42610700962141645 0.4475153480925418
vt 0.4174100156405375 0.47088680119479065
vt 0.40625 0.2566839575137
vt 0.4160550608013607 0.23496745838424926
vt 0.430671183203645 0.234375
vt 0.44170409061735905 0.2566839575137
vt 0.38959990897996066 0.394977779217769
vt 0.375 0.39406964993595406
vt 0.4003890098192746 0.37500123284133313
vt 0.44085249744349997 0.9116632236181166
vt 0.45378276260548733 0.9054976848873408
vt 0.4609375498945127 0.9374996937247568
vt 0.8776734375 0.296875
vt 0.875 0.28125
vt 0.89451875 0.28125
vt 0.8919984375 0.2968484375
vt 0.630075 0.609375
vt 0.625 0.592221875
vt 0.653221875 0.572559375
vt 0.6492859375 0.6079765625
vt 0.359375 0.40625
vt 0.328125 0.3896254343461073
vt 0.33107169789425506 0.3585799987142665
vt 0.359375 0.37189627675518633
vt 0.09375 0.15625
vt 0.078125 0.13799312359628302
vt 0.08293307677542286 0.1292017038975486
vt 0.09375 0.12534406609584037
vt 0.39837360208448463 0.41831383712947323
vt 0.38959990897996066 0.394977779217769
vt 0.40375534209737535 0.3954721270328807
vt 0.40644415360978037 0.4139709910756648
vt 0.40375534209737535 0.3954721270328807
vt 0.38959990897996066 0.394977779217769
vt 0.40038967566256956 0.375
vt 0.4609374501054873 0.9374992473873409
vt 0.4609374501054873 0.9054976848873408
vt 0.46809213760548735 0.9054976848873408
vt 0.8978790004305399 0.9374996959282869
vt 0.8907243129305399 0.9374996959282869
vt 0.8907243129305399 0.9199403209282868
vt 0.9004836879305399 0.9233043834282868
vt 0.39789678771216985 0.35871497145001074
vt 0.3873850668000486 0.3585869881867617
vt 0.3833126947036568 0.3230519635224768
vt 0.3931609375 0.32325625
vt 0.875 0.796875
vt 0.859375 0.796875
vt 0.859375 0.775665625
vt 0.875 0.771759375
vt 0.49404760163650746 0.13691280808148454
vt 0.485842688022893 0.14071374476129195
vt 0.4864626092990353 0.12873878974220976
vt 0.5 0.12868124999999997
vt 0.5 0.12868124999999997
vt 0.4863984375 0.1287390625
vt 0.4880421875 0.109375
vt 0.4968453125 0.11298593749999997
vt 0.40038967566256956 0.375
vt 0.4111099881625696 0.38597499999999996
vt 0.4037553006625696 0.39547187500000003
vt 0.46809223739451267 0.9054972385499249
vt 0.4810225025565001 0.9116627772807006
vt 0.4609374501054873 0.9374992473873409
vt 0.8111265625 0.12497187499999995
vt 0.80860625 0.109375
vt 0.828125 0.109375
vt 0.8254515625 0.125
vt 0.397896875 0.358715625
vt 0.3931609375 0.32325625
vt 0.421875 0.3421953125
vt 0.4173015625 0.359375
vt 0.6845144445876143 0.9375
vt 0.6713300557962008 0.9161232249546973
vt 0.7023187399777142 0.9134335061099033
vt 0.71875 0.9375
vt 0.8296903917115573 0.6729676915449887
vt 0.8342079846260789 0.6603276095974111
vt 0.8433611131933371 0.65625
vt 0.859375 0.6729676915449887
vt 0.8636958481127374 0.5710625422750307
vt 0.859375 0.5524300010530869
vt 0.875 0.546875
vt 0.875 0.5713091187118865
vt 0.1921744152094045 0.5356027792177691
vt 0.17801898209198982 0.5360971270328807
vt 0.1813846485267956 0.515625
vt 0.4810225025565001 0.9116627772807006
vt 0.4900845530754577 0.9228055169187726
vt 0.4609372120097143 0.937499553662584
vt 0.9048390625 0.999965625
vt 0.90235625 0.984375
vt 0.921875 0.984375
vt 0.9192015625 1
vt 0.84375 0.5625
vt 0.8258634050663545 0.5625
vt 0.8195636576470466 0.5408190233191459
vt 0.8437135963302278 0.5430358485575562
vt 0.5224517264296038 0.5625
vt 0.5199751639296039 0.5333296875
vt 0.5440548514296039 0.531846875
vt 0.5440548514296039 0.5561328125
vt 0.5199751639296039 0.5333296875
vt 0.5113914184435004 0.5098537523076299
vt 0.546875 0.5096164569982079
vt 0.5440001826112825 0.5318502414725577
vt 0.18348800446329672 0.5589699257884935
vt 0.1921744152094045 0.5356027792177691
vt 0.20677432418936514 0.5346946499359541
vt 0.21875 0.5552486463351982
vt 0.20677432418936514 0.5346946499359541
vt 0.1921744152094045 0.5356027792177691
vt 0.18138531437009056 0.515626232841333
vt 0.4900845530754577 0.9228055169187726
vt 0.49353356772766577 0.9367799341513928
vt 0.4609390200936343 0.9374986421540009
vt 0.8892515625 0.42185937500000004
vt 0.88673125 0.40625
vt 0.90625 0.40625
vt 0.9036453125 0.421875
vt 0.8581647529562804 1
vt 0.8437879682848151 0.984375
vt 0.8706065983023165 0.984375
vt 0.875 0.990133437819479
vt 0.17920599990613195 0.628125
vt 0.17920599990613195 0.6037874999999999
vt 0.20293412490613194 0.5912875
vt 0.20293412490613194 0.640625
vt 0.17920599990613195 0.6037874999999999
vt 0.18387542245665064 0.5817999064772059
vt 0.20290979651333624 0.5818058990392232
vt 0.20293181105331523 0.5912887189399798
vt 0.65625 0.7267899398856135
vt 0.6590263171837581 0.703125
vt 0.6772178855424598 0.7072204594267693
vt 0.6750894612688771 0.7288114319225775
vt 0.5852562862858675 0.5368923096653524
vt 0.5674088307696558 0.5314909877102687
vt 0.5633405887141325 0.5
vt 0.006466482166846935 0.5461553804888089
vt 0.00991549681905501 0.5321809632561886
vt 0.03906102980087836 0.5468740884914169
vt 0.8776046875 0.390625
vt 0.875 0.375
vt 0.89451875 0.375
vt 0.8919984375 0.39060937500000004
vt 0.5253502525351296 0.203125
vt 0.515625 0.19872951556248275
vt 0.515625 0.17191107034456876
vt 0.5351888631663725 0.18628899970640722
vt 0.20293412490613194 0.640625
vt 0.20293412490613194 0.5912875
vt 0.22666224990613196 0.6037874999999999
vt 0.22666224990613196 0.628125
vt 0.20293412490613194 0.5912875
vt 0.2029395315269791 0.5817963969206429
vt 0.22704400009386805 0.5813100246368035
vt 0.22652873989664174 0.6037171667933674
vt 0.6750819480424598 0.7288876469267692
vt 0.6772178855424598 0.7072204594267693
vt 0.7004960105424598 0.7072204594267693
vt 0.6991694480424597 0.7281313969267692
vt 0.6085344112858675 0.5368923096653524
vt 0.5852562862858675 0.5368923096653524
vt 0.5633406612858675 0.5000001221653524
vt 0.009915496819055014 0.5321809632561886
vt 0.018977547338012615 0.5210382236181166
vt 0.03906283788479836 0.546875
vt 0.8776734375 0.171875
vt 0.875 0.15625
vt 0.89451875 0.15625
vt 0.8920359375 0.17184218750000002
vt 0.6582609375 0.24988750000000004
vt 0.65625 0.21875
vt 0.68033125 0.21875
vt 0.677778125 0.25
vt 0.59375 0.34375
vt 0.59375 0.3194125
vt 0.61783125 0.3194125
vt 0.61783125 0.34375
vt 0.59375 0.3194125
vt 0.5970716944796697 0.29706630256886224
vt 0.6165888162290653 0.2970156416428418
vt 0.6178282061160217 0.3194125
vt 0.84375 0.8392048758543604
vt 0.84375 0.8182379811432181
vt 0.8585735128047548 0.8125
vt 0.8615537548367439 0.8312929190613068
vt 0.2768103838005526 0.9073297325333757
vt 0.2677264887922796 0.8942858139905708
vt 0.29687500375021597 0.8437500421848789
vt 0.018977547338012615 0.5210382236181166
vt 0.0319078125 0.5148726848873408
vt 0.039062599789025335 0.5468746937247568
vt 0.8776734375 0.265625
vt 0.875 0.25
vt 0.89451875 0.25
vt 0.8919984375 0.2655984375
vt 0.752409375 0.515625
vt 0.75 0.484375
vt 0.7743375 0.484375
vt 0.771928125 0.515625
vt 0.046875 0.34375
vt 0.046875 0.3194125
vt 0.0712125 0.3194125
vt 0.0712125 0.34375
vt 0.046875 0.3194125
vt 0.047801478716972545 0.2969992103440253
vt 0.07089888096282322 0.29665278648028004
vt 0.0711511675222905 0.3194125
vt 0.859375 0.87476875
vt 0.86895625 0.859375
vt 0.882678125 0.859375
vt 0.8824671875 0.875
vt 0.2897203125 0.9119798502190704
vt 0.2768103838005526 0.9073297325333757
vt 0.2968750170630138 0.84375
vt 0.0319078125 0.5148726848873408
vt 0.0462171875 0.5148726848873408
vt 0.0390625 0.5468742473873409
vt 0.8834703125 0.484375
vt 0.880865625 0.46875
vt 0.900384375 0.46875
vt 0.8977796875 0.484375
vt 0.474615625 0.265625
vt 0.47220625 0.234375
vt 0.49654375 0.234375
vt 0.494134375 0.265625
vt 0.15970625 0.34375
vt 0.15970625 0.3194125
vt 0.18404375 0.3194125
vt 0.18404375 0.34375
vt 0.15970625 0.3194125
vt 0.16211562499999999 0.29671250000000005
vt 0.18163437500000001 0.29671250000000005
vt 0.18404375 0.3194125
vt 0.521490625 0.125
vt 0.5240953125 0.109375
vt 0.5384046875 0.109375
vt 0.541009375 0.125
vt 0.3040296875 0.9119798502190704
vt 0.2897203125 0.9119798502190704
vt 0.296875 0.8437501627190703
vt 0.859375 0.24050937500000003
vt 0.859375 0.265625
vt 0.84375 0.26510468750000005
vt 0.84375 0.23998906249999996
vt 0.9532153306915505 0.9375
vt 0.922110325622719 0.9375
vt 0.921875 0.932728168460033
vt 0.9530204196170298 0.9328155426119256
vt 0.1875 0.15625
vt 0.1875 0.1269722026698744
vt 0.203125 0.1260090682416971
vt 0.203125 0.15528516087841937
vt 0.828125 0.797539223395735
vt 0.828125 0.8318917346829506
vt 0.8125867009684151 0.8312722275441965
vt 0.8125 0.796875
vt 0.828125 0.390625
vt 0.859375 0.390625
vt 0.859375 0.40625
vt 0.828125 0.40625
vt 0.8281900689152948 0.28125
vt 0.859375 0.28125
vt 0.8591404496649266 0.296875
vt 0.8279955399598248 0.2967822851517776
vt 0.765625 0.155778125
vt 0.765625 0.13066250000000001
vt 0.78125 0.13113437500000003
vt 0.78125 0.15625
vt 0.042220244296590125 0.0662013498212426
vt 0.042220244296590125 0.03175902866937874
vt 0.04678305691101727 0.03125
vt 0.046875 0.06564587957619272
vt 0.2677643895316073 0.12858829309057507
vt 0.2766509903816955 0.125
vt 0.27914219439589627 0.1442750386627435
vt 0.265625 0.14423466565248577
vt 0.265625 0.14423466565248577
vt 0.2792265625 0.1442752906524858
vt 0.2806703125 0.1561784156524858
vt 0.2725359375 0.15242841565248577
vt 0.859375 0.724884375
vt 0.875 0.728790625
vt 0.875 0.75
vt 0.859375 0.75
vt 0.653221875 0.572559375
vt 0.6630644898283177 0.5721395928746225
vt 0.6597728220627402 0.6077543877942723
vt 0.6492707582559863 0.6081131515925197
vt 0.8807663120694601 0.9233045483254225
vt 0.8907243129305399 0.9199403209282868
vt 0.8907243129305399 0.9375
vt 0.8837148682743966 0.9374997438979212
vt 0.45378276260548733 0.9054976848873408
vt 0.4609374501054873 0.9054976848873408
vt 0.4609374501054873 0.9374992473873409
vt 0.17801898209198982 0.5360971270328807
vt 0.17066429459198984 0.5265986895328807
vt 0.18138460709198984 0.5156252520328807
vt 0.7982262429831154 0.078125
vt 0.8072065831096954 0.078125
vt 0.8074504200622681 0.09375
vt 0.796875 0.0931063696419312
vt 0.5218390625 0.07892343749999997
vt 0.5293640625 0.0865828125
vt 0.5243734375 0.09375
vt 0.515625 0.0836734375
vt 0.1469941975206115 0.07654147512815968
vt 0.14780097069531617 0.0625
vt 0.15625 0.0625
vt 0.1561230617631758 0.078125
vt 0.9295410684333745 0.8256906305620783
vt 0.9295410684333745 0.815445240497365
vt 0.9375 0.8148760415696299
vt 0.9373428528177533 0.828125
vt 0.23989811169946595 0.07205538593624694
vt 0.23989811169946595 0.0625
vt 0.2444301776921292 0.06298780980366459
vt 0.24447688830053405 0.07499179741235895
vt 0.17961281092435424 0.07486448598759843
vt 0.18203916264397974 0.0625
vt 0.1875 0.0625
vt 0.18687430138344271 0.078125
vt 0.5819825641690357 0.078125
vt 0.5915659335785013 0.078125
vt 0.59375 0.09363425561574301
vt 0.5817453047021366 0.09375
vt 0.9223119610943957 0.8462156674244318
vt 0.9379830095138908 0.84375
vt 0.940999198627512 0.8511126040029007
vt 0.921875 0.8511126040029007
vn 0.0738831611625121 0.9855430161305653 0.1524671828719317
vn 0.26987080358675336 0.7830261793859521 0.560392497958064
vn 0.3909157412340151 0.4338837391175583 0.8117449009293666
vn 0.43388373911755845 0 0.900968867902419
vn 0.352152165435272 -0.27804325609353847 0.8936894315813251
vn 0.31080863494802424 -0.4201404980517894 0.852572550777082
vn 0.051944382293155185 -0.9884326406556018 0.1424875294009161
vn 0.13312274763427545 0.9854681858685207 0.10550255306535339
vn 0.48421222199099584 0.7851302512897688 0.38614636160943844
vn 0.7123751076654625 0.43276175312137727 0.5524843626872467
vn 0.7902035796264738 0 0.6128444360076276
vn 0.7652930698234532 -0.20459565037099517 0.6103008578803283
vn 0.6738445824650149 -0.5806369962026464 0.45693999313183103
vn 0.15837070712780402 -0.9815220590367001 0.10739258237045948
vn 0.16599124466003054 0.9854081889715061 0.03765113283967523
vn 0.6012265711966006 0.787207484479083 0.13722604150558892
vn 0.8788727051062535 0.4220710107017947 0.22234844308962928
vn 1 0 0
vn 0.9556232546478133 -0.2369764400886525 0.17500389144024853
vn 0.7184153611935771 -0.6885057609150008 0.09919267103953784
vn 0.27128661595511405 -0.9617694886714186 0.037456944140444495
vn 0.1659912446600305 0.9854081889715061 -0.03765113283967523
vn 0.6005926473770834 0.7877164303891272 -0.13708135253052373
vn 0.857771526957072 0.45478408827637223 -0.23958180355019085
vn 1 0 0
vn 0.9930959792129934 -0.11506760179009934 -0.022799629147446952
vn 0.6919730279418779 -0.7118939541234648 -0.1199179998307481
vn 0.3437190049280611 -0.9371814830102299 -0.05956604363233975
vn 0.13312274763427553 0.9854681858685207 -0.10550255306535335
vn 0.48306420046854126 0.7862863182644136 -0.3852308449954164
vn 0.7403946158459848 0.42672896309237557 -0.5193440140064993
vn 0.7902035796264743 0 -0.6128444360076273
vn 0.8135345289346566 -0.1755520916757849 -0.5543852751826326
vn 0.5645681262250847 -0.7018037865422752 -0.43443558330967996
vn 0.38852942397768475 -0.8715845506544625 -0.29897367403172354
vn 0.0738831611625121 0.9855430161305653 -0.1524671828719317
vn 0.26935670205805196 0.7839659186604282 -0.559324955133705
vn 0.24493781692821964 0.40563857898499994 -0.880603661744299
vn 0.3916075521736092 0.09821582477162195 -0.9148754980023369
vn 0.21827575353827994 0.16681917197551852 -0.9615233014746437
vn 0.5096905444228241 -0.751853405546735 -0.41824873639228377
vn 0.38395585782142616 -0.8679330275656831 -0.31507167264811364
vn 0 0.9855763242119208 -0.16923152529277483
vn 0 0.8612051324974398 -0.5082575329103026
vn -0.3524041152383973 0.3171780226074792 -0.8804597898472433
vn -0.3964853399704957 0 -0.9180410531062762
vn -0.24364392471962537 -0.49724060660868913 -0.8327000763099766
vn -0.13332979146331891 -0.6191263437837561 -0.7738900032571208
vn 0.3686145141343248 -0.8697322565425004 -0.3281602381444259
vn -0.07388316116251205 0.9855430161305653 -0.1524671828719317
vn -0.2698708035867532 0.7830261793859521 -0.560392497958064
vn -0.31794363546587334 0.31534859482052074 -0.8941292459211179
vn -0.4325844259387439 0 -0.9015934307853222
vn -0.21498999834148103 -0.23848895426652605 -0.9470492697352071
vn -0.6228211398344056 -0.5923580256447465 -0.5110829651139136
vn -0.3839558578214264 -0.867933027565683 -0.31507167264811364
vn -0.13312274763427542 0.9854681858685207 -0.10550255306535344
vn -0.48421222199099573 0.7851302512897687 -0.38614636160943866
vn -0.7290112775208567 0.4802589241284126 -0.4877437063073475
vn -0.7909684536375037 0.06531020652741468 -0.608361308988041
vn -0.8219484391150573 -0.10328367613638104 -0.5601189567226557
vn -0.5278303072054994 -0.745938674248298 -0.40616580488273485
vn -0.3885294239776849 -0.8715845506544624 -0.29897367403172403
vn -0.16599124466003054 0.9854081889715061 -0.03765113283967523
vn -0.6012265711966008 0.7872074844790828 -0.13722604150558923
vn -0.8788727051062534 0.4220710107017949 -0.22234844308962942
vn -1 0 0
vn -0.9969632754802475 -0.07443351261558025 -0.022888415047845594
vn -0.6309587542372758 -0.7680721794170576 -0.10934430783939475
vn -0.3437190049280612 -0.9371814830102299 -0.059566043632339825
vn -0.16599124466003054 0.9854081889715061 0.03765113283967519
vn -0.6005926473770834 0.7877164303891272 0.13708135253052345
vn -0.8577715269570718 0.45478408827637207 0.2395818035501908
vn -1 0 0
vn -0.9773148906548647 -0.1132390856627255 0.17897629447091612
vn -0.6937973740719271 -0.713770820602023 0.09579362916193024
vn -0.2712866159551141 -0.9617694886714186 0.03745694414044442
vn -0.1331227476342755 0.9854681858685207 0.10550255306535335
vn -0.48306420046854104 0.7862863182644135 0.38523084499541643
vn -0.715706436492951 0.42386770408426205 0.5550679834010409
vn -0.7902035796264743 0 0.612844436007627
vn -0.7675008491609606 -0.19058636598229783 0.6120615031505136
vn -0.642348410017868 -0.6306002718892607 0.4355821590018438
vn -0.158370707127804 -0.9815220590367001 0.10739258237045946
vn -0.07388316116251208 0.9855430161305653 0.15246718287193173
vn -0.26935670205805223 0.7839659186604282 0.5593249551337048
vn -0.39091574123401496 0.43388373911755834 0.8117449009293669
vn -0.43388373911755823 0 0.9009688679024191
vn -0.35892455712681515 -0.20366004722325484 0.9108763623326392
vn -0.3153593131753954 -0.39016358752676816 0.8650554193586587
vn -0.05194438229315519 -0.9884326406556018 0.14248752940091608
vn -8.206913318132427e-17 0.9855763242119207 0.16923152529277485
vn 0 0.7825023387360933 0.6226476450389452
vn -2.7455139329470276e-16 0.4338837391175582 0.9009688679024193
vn -2.851026847897417e-16 0 1
vn 0 -0.25869060911091163 0.9659602314577064
vn 0 -0.395196262764388 0.9185967090606525
vn 0 -0.9889759593823271 0.14807616879094954
vn -0.901790883274956 0 0.4321726539731257
vn 0.3612237031516091 0.8890993427314533 -0.2811045980341408
vn 0.8942704777946449 0.047769456770697244 -0.44497010185491126
vn -0.421501106660434 -0.851158571570365 0.3128352651577594
vn -0.9410259193230426 0.03611415265534922 -0.336401526661531
vn -0.45936319643722356 0.8854019043072084 -0.07105576407404236
vn 0.9377955092478247 0 0.3471881087171814
vn 0.5357927349274147 -0.8376321774437667 0.10629431080643705
vn 0.24449206372628315 -0.5994517161751256 -0.7621556735664702
vn 0.14829745887436135 -0.4951358062144877 -0.8560656499917144
vn 0.39652996310891514 0 -0.9180217798924176
vn 0.37647677854561024 0.3139838472976776 -0.8715958804698818
vn 0.199371979572527 0.843916479892013 -0.4980519940006319
vn 0 0.9855763242119208 -0.16923152529277483
vn -0.3685840346842125 -0.869735460509846 -0.32818598097364465
vn 0.5279851529845679 0.42114662333744735 -0.7374735248667093
vn 0.7490364972777362 0.24122841841716552 -0.6170520042053609
vn -0.5388694132024081 0.4220259987966211 -0.7290499378332096
vn -0.6966193237071147 0.07630215531241259 -0.7133719218840358
vn -0.3536116936314267 -0.9351337213139037 0.021993030457951864
vn -0.7980142195119628 -0.5440712723781503 -0.25915199406821815
vn 0.3520622498700429 -0.9185687184054588 0.17967660332774638
vn 0.8415373805055112 -0.487375442072241 -0.2329807195387854
usemtl m_743acc1f-0072-7819-3a38-c0be208073c2
f 3/1/1 9/2/1 2/3/1
f 3/4/2 4/5/2 10/6/2 9/7/2
f 4/8/3 5/9/3 11/10/3 10/11/3
f 5/12/4 6/13/4 12/14/4 11/15/4
f 6/16/5 7/17/5 13/18/5 12/19/5
f 7/20/6 8/21/6 14/22/6 13/23/6
f 14/24/7 8/25/7 1/26/7
f 9/27/8 15/28/8 2/29/8
f 9/30/9 10/31/9 16/32/9 15/33/9
f 10/34/10 11/35/10 17/36/10 16/37/10
f 11/38/11 12/39/11 18/40/11 17/41/11
f 12/42/12 13/43/12 19/44/12 18/45/12
f 13/46/13 14/47/13 20/48/13 19/49/13
f 20/50/14 14/51/14 1/52/14
f 15/53/15 21/54/15 2/55/15
f 15/56/16 16/57/16 22/58/16 21/59/16
f 16/60/17 17/61/17 23/62/17 22/63/17
f 17/64/18 18/65/18 24/66/18 23/67/18
f 18/68/19 19/69/19 25/70/19 24/71/19
f 19/72/20 20/73/20 26/74/20 25/75/20
f 26/76/21 20/77/21 1/78/21
f 21/79/22 27/80/22 2/81/22
f 21/82/23 22/83/23 28/84/23 27/85/23
f 22/86/24 23/87/24 29/88/24 28/89/24
f 23/90/25 24/91/25 30/92/25 29/93/25
f 24/94/26 25/95/26 31/96/26 30/97/26
f 25/98/27 26/99/27 32/100/27 31/101/27
f 32/102/28 26/103/28 1/104/28
f 27/105/29 33/106/29 2/107/29
f 27/108/30 28/109/30 34/110/30 33/111/30
f 28/112/31 29/113/31 35/114/31 34/115/31
f 29/116/32 30/117/32 36/118/32 35/119/32
f 30/120/33 31/121/33 37/122/33 36/123/33
f 31/124/34 32/125/34 38/126/34 37/127/34
f 38/128/35 32/129/35 1/130/35
f 33/131/36 39/132/36 2/133/36
f 33/134/37 34/135/37 40/136/37 39/137/37
f 34/138/38 35/139/38 41/140/38 40/141/38
f 93/142/39 91/143/39 92/144/39 94/145/39
f 36/146/40 37/147/40 43/148/40 42/149/40
f 37/150/41 38/151/41 44/152/41 43/153/41
f 44/154/42 38/155/42 1/156/42
f 2/157/43 99/158/43 45/159/43
f 45/160/44 99/161/44 98/162/44 46/163/44
f 46/164/45 98/165/45 97/166/45 47/167/45
f 47/168/46 97/169/46 96/170/46 48/171/46
f 104/172/47 102/173/47 101/174/47 105/175/47
f 105/176/48 101/177/48 106/178/48 107/179/48
f 1/180/49 95/181/49 44/182/49
f 45/183/50 51/184/50 2/185/50
f 45/186/51 46/187/51 52/188/51 51/189/51
f 46/190/52 47/191/52 53/192/52 52/193/52
f 89/194/53 87/195/53 88/196/53 90/197/53
f 48/198/54 49/199/54 55/200/54 54/201/54
f 49/202/55 50/203/55 56/204/55 55/205/55
f 56/206/56 50/207/56 1/208/56
f 51/209/57 57/210/57 2/211/57
f 51/212/58 52/213/58 58/214/58 57/215/58
f 52/216/59 53/217/59 59/218/59 58/219/59
f 53/220/60 54/221/60 60/222/60 59/223/60
f 54/224/61 55/225/61 61/226/61 60/227/61
f 55/228/62 56/229/62 62/230/62 61/231/62
f 62/232/63 56/233/63 1/234/63
f 57/235/64 63/236/64 2/237/64
f 57/238/65 58/239/65 64/240/65 63/241/65
f 58/242/66 59/243/66 65/244/66 64/245/66
f 59/246/67 60/247/67 66/248/67 65/249/67
f 60/250/68 61/251/68 67/252/68 66/253/68
f 61/254/69 62/255/69 68/256/69 67/257/69
f 68/258/70 62/259/70 1/260/70
f 63/261/71 69/262/71 2/263/71
f 63/264/72 64/265/72 70/266/72 69/267/72
f 64/268/73 65/269/73 71/270/73 70/271/73
f 65/272/74 66/273/74 72/274/74 71/275/74
f 66/276/75 67/277/75 73/278/75 72/279/75
f 67/280/76 68/281/76 74/282/76 73/283/76
f 74/284/77 68/285/77 1/286/77
f 69/287/78 75/288/78 2/289/78
f 69/290/79 70/291/79 76/292/79 75/293/79
f 70/294/80 71/295/80 77/296/80 76/297/80
f 71/298/81 72/299/81 78/300/81 77/301/81
f 72/302/82 73/303/82 79/304/82 78/305/82
f 73/306/83 74/307/83 80/308/83 79/309/83
f 80/310/84 74/311/84 1/312/84
f 75/313/85 81/314/85 2/315/85
f 75/316/86 76/317/86 82/318/86 81/319/86
f 76/320/87 77/321/87 83/322/87 82/323/87
f 77/324/88 78/325/88 84/326/88 83/327/88
f 78/328/89 79/329/89 85/330/89 84/331/89
f 79/332/90 80/333/90 86/334/90 85/335/90
f 86/336/91 80/337/91 1/338/91
f 81/339/92 3/340/92 2/341/92
f 81/342/93 82/343/93 4/344/93 3/345/93
f 82/346/94 83/347/94 5/348/94 4/349/94
f 83/350/95 84/351/95 6/352/95 5/353/95
f 84/354/96 85/355/96 7/356/96 6/357/96
f 85/358/97 86/359/97 8/360/97 7/361/97
f 8/362/98 86/363/98 1/364/98
f 87/365/99 89/366/99 47/367/99 48/368/99
f 88/369/100 87/370/100 48/371/100 54/372/100
f 90/373/101 88/374/101 54/375/101 53/376/101
f 89/377/102 90/378/102 53/379/102 47/380/102
f 91/381/103 93/382/103 35/383/103 36/384/103
f 92/385/104 91/386/104 36/387/104 42/388/104
f 94/389/105 92/390/105 42/391/105 41/392/105
f 93/393/106 94/394/106 41/395/106 35/396/106
f 108/397/107 106/398/107 101/399/107 100/400/107
f 100/401/108 101/402/108 102/403/108 103/404/108
f 42/405/109 96/406/109 97/407/109 41/408/109
f 41/409/110 97/410/110 98/411/110 40/412/110
f 40/413/111 98/414/111 99/415/111 39/416/111
f 39/417/112 99/418/112 2/419/112
f 50/420/113 95/421/113 1/422/113
f 103/423/114 102/424/114 96/425/114 42/426/114
f 100/427/115 103/428/115 42/429/115 43/430/115
f 102/431/116 104/432/116 48/433/116 96/434/116
f 104/435/117 105/436/117 49/437/117 48/438/117
f 107/439/118 106/440/118 95/441/118 50/442/118
f 105/443/119 107/444/119 50/445/119 49/446/119
f 106/447/120 108/448/120 44/449/120 95/450/120
f 108/451/121 100/452/121 43/453/121 44/454/121
o sphere
v -0.12929874507826494 1.4962510763985115 0.1466136443923522
v -0.12929874507826494 1.5913511840490935 0.10328762017700245
v -0.12929874507826494 1.6260299879726074 0.038778152632701596
v -0.12929874507826494 1.6260299879726074 -0.1374511400845892
v -0.12929874507826494 1.58484158548566 -0.20196060762889
v -0.12929874507826494 1.5092702735253785 -0.24603741557238396
v -0.04422721373060032 1.476722280708211 -0.2845869398536541
v -0.04422721373060032 1.4962510763985115 0.17201817376988798
v -0.12929874507826494 1.6455587836629078 -0.049337466838299954
v -0.04422721373060032 1.5978607826125268 -0.22267831272347438
v -0.04422721373060032 1.6390491850994744 -0.1496331579604614
v -0.04422721373060032 1.6390491850994744 0.04991423330378532
v -0.04422721373060032 1.5978607826125268 0.12295938806679836
v -0.04422721373060032 1.658577980789775 -0.04986056419982083
v -0.12929874507826494 1.4134419261036162 0.1488443017646644
v -0.04422721373060032 1.348345940469281 0.17454398461884446
v -0.12929874507826494 1.468655684416158 0.03607367672838681
v -0.04422721373060032 1.518918086959733 0.041435622955168894
v -0.04422721373060032 1.468655684416158 0.061478206105922584
v -0.12929874507826494 1.5124084883962994 0.021763855065372983
v -0.04422721373060032 1.5262114843470385 0.009408522422578482
v -0.12929874507826494 1.5131922872201715 -0.0017275582485052274
v -0.12929874507826494 1.513801365174613 -0.09566190792785377
v -0.04422721373060032 1.539131534238816 -0.04841878095869858
v -0.12929874507826494 1.5261123371119492 -0.047895683597177705
v -0.04422721373060032 1.5268205623014799 -0.10784392580372598
v -0.04422721373060032 1.5181551015333254 -0.1422068298232993
v -0.12929874507826494 1.5051359044064583 -0.12148912472871493
v -0.04422721373060032 1.422642680535624 -0.18150285297744356
v -0.12929874507826494 1.4551906733527917 -0.14295332869617347
v -0.12929874507826494 1.4102285414313698 0.03263649380466552
v -0.04422721373060032 1.3451325557970348 0.058336176658845565
v -0.0435603842995322 1.3760913061261708 -0.1871744663596407
v -0.1286319156471968 1.408639298943338 -0.14862494207837063
v -0.0435603842995322 1.4301709062987578 -0.2902585532358512
v -0.1286319156471968 1.462718899115925 -0.2517090289545811
vt 0.921875 0.5003116306119841
vt 0.921875 0.5138394217403429
vt 0.90625 0.5114845378830409
vt 0.9064456533618376 0.5
vt 0.8589631938427937 0.9054334460323159
vt 0.8587288188427937 0.9136412585323159
vt 0.8374288188427937 0.9085990710323159
vt 0.8374538188427937 0.9028287585323159
vt 0.84375 0.734240625
vt 0.822234375 0.734375
vt 0.8217640625 0.7220515625
vt 0.8432796875 0.7190921875
vt 0.8429601967802395 0.7102376675975783
vt 0.8432906568295411 0.7190906787193063
vt 0.8217640625 0.7220515625
vt 0.8214166068537223 0.7152687941170202
vt 0.5679303450348474 0.140625
vt 0.59375 0.140625
vt 0.5927115987453915 0.15625
vt 0.5791221049852068 0.15619224947487387
vt 0.8378602919349809 0.8908648179689959
vt 0.859375 0.890625
vt 0.8589631938427937 0.9054334460323159
vt 0.8374345337058987 0.9028264231899358
vt 0.109375 0.15625
vt 0.12524333762538353 0.140625
vt 0.1398754994168416 0.140625
vt 0.14024734139947728 0.1559134650799643
vt 0.04547421874999999 0.99936875
vt 0.038575781249999996 0.971734375
vt 0.05114140624999999 0.9667234375
vt 0.07087734375 0.9871046875
vt 0.12456173644463975 0.9886109375
vt 0.14429767394463974 0.9682296875
vt 0.15523517394463976 0.9718078125
vt 0.14833673644463977 0.9994421875
vt 0.07087734375 0.9871046875
vt 0.05114140624999999 0.9667234375
vt 0.052964843750000004 0.958715625
vt 0.08117421875 0.9688421875
vt 0.11589142394463975 0.972484375
vt 0.14410079894463976 0.9623578125
vt 0.14429767394463974 0.9682296875
vt 0.12456173644463975 0.9886109375
vt 0.11589142394463975 0.9284265625
vt 0.14394923644463975 0.9388734375
vt 0.14087111144463976 0.9508156249999999
vt 0.11101017394463975 0.9504546875
vt 0.08605546875 0.9438984375
vt 0.05619453125 0.944259375
vt 0.05311640625 0.929403125
vt 0.08117421875 0.91895625
vt 0.08117421875 0.91895625
vt 0.05311640625 0.929403125
vt 0.050950781249999993 0.9208125
vt 0.07087734375 0.90069375
vt 0.12618829894463976 0.9122984375000001
vt 0.14611486144463975 0.9324171875
vt 0.14394923644463975 0.9388734375
vt 0.11589142394463975 0.9284265625
vt 0.07087734375 0.90069375
vt 0.050950781249999993 0.9208125
vt 0.027072656249999993 0.9109890625
vt 0.040592968749999986 0.8852171875
vt 0.671875 0.75
vt 0.7009767076338663 0.75
vt 0.7057322795546982 0.78125
vt 0.6766290569955012 0.78125
vt 0.14508204894463975 0.9012796875
vt 0.15860079894463977 0.92705
vt 0.14611486144463975 0.9324171875
vt 0.12618829894463976 0.9122984375000001
vt 0.08117421875 0.9688421875
vt 0.052964843750000004 0.958715625
vt 0.05619453125 0.944259375
vt 0.08605546875 0.9438984375
vt 0.11101017394463975 0.9504546875
vt 0.14087111144463976 0.9508156249999999
vt 0.14410079894463976 0.9623578125
vt 0.11589142394463975 0.972484375
vt 0.14833673644463977 0.9994421875
vt 0.15523517394463976 0.9718078125
vt 0.16984142394463975 0.9709484375
vt 0.16903829894463976 1
vt 0.09375 0.3221528942735875
vt 0.09375 0.29309091368347095
vt 0.125 0.29906301940988345
vt 0.125 0.328125
vt 0.008497656249999985 1
vt 0.007694531249999997 0.9709484375
vt 0.038575781249999996 0.971734375
vt 0.04547421874999999 0.99936875
vt 0.75 0.15250745041872682
vt 0.75 0.174380433026594
vt 0.734375 0.17458259184898806
vt 0.7348952869336479 0.140625
vt 0.04056312261698557 0.14596482155125057
vt 0.04056312261698557 0.125
vt 0.0625 0.12791147632207378
vt 0.06224293828752546 0.1470174256097232
vt 0.5721501580212894 0.19729146752184623
vt 0.5721501580212894 0.171875
vt 0.59375 0.17423832509372716
vt 0.5936535436538246 0.19679391777303157
vt 0.8035489641224532 0.140625
vt 0.8261112499269248 0.140625
vt 0.828125 0.15625
vt 0.8027164195367891 0.15613953323106977
vt 0.25 0.15625
vt 0.22903523184229668 0.15625
vt 0.22820952036868739 0.13457096431439663
vt 0.24651490847918867 0.13464177857196535
vt 0.25 0.203125
vt 0.2217923847930375 0.203125
vt 0.2211200013650641 0.18124486856752575
vt 0.2472408612860927 0.1811092430862984
vt 0.7763573274440995 0.875
vt 0.7393744598879488 0.875
vt 0.7392676725559005 0.8528044430829875
vt 0.7599751335297787 0.8528631602919337
vt 0.015433625785621186 0.9095716119229692
vt 0.028952958303112564 0.8838000424934676
vt 0.040591988732174206 0.885219055570498
vt 0.027072656249999993 0.9109890625
vt 0.3235981720206838 0.15625
vt 0.298871491827441 0.15625
vt 0.3033983198067572 0.140625
vt 0.328125 0.140625
vt 0.15672043327204851 0.8998594218905588
vt 0.17023982605536025 0.9256309597055334
vt 0.15860079894463977 0.92705
vt 0.14508140616132803 0.9012784621850254
vt 0.390625 0.125
vt 0.390625 0.14972668019324287
vt 0.375 0.1542519509129886
vt 0.375 0.12952527071974584
vn 0.26729280428131863 -0.3569199421415207 -0.8950769305937464
vn 0.12496599444156231 -0.9673940013631337 -0.22030058184184867
vn 0.1480792380641231 -0.9576791279957806 0.24682630948825215
vn 0.18039821107647103 -0.9537359554899045 0.24050823820852363
vn 0.2727015146260044 -0.36605904885576157 0.8897385327563926
vn 0.14641982635956732 -0.965419766115292 -0.2156986547077409
vn 0.3274118819967672 0.05549006532011215 -0.943250927472698
vn 1 0 0
vn -1 0 0
vn 1 0 0
vn -1 0 0
vn -1 0 0
vn 1 0 0
vn 1 0 0
vn -1 0 0
vn 1 0 0
vn -0.4814598300988309 -0.7761455756919518 -0.407178679863047
vn -1 0 0
vn 1 0 0
vn -1 0 0
vn -1 0 0
vn -0.6117059708491768 -0.7907829344800076 0.02186677302790809
vn 1 0 0
vn -0.2762802526204986 0.4842059834193283 -0.8301890071741945
vn -0.24520111414353618 0.8444713390807096 -0.47617703755431307
vn -0.1749541517500883 0.9662414936345458 -0.18912541014969234
vn -0.17499442181811578 0.9612449506761578 0.2130377833440226
vn -0.19385313740941348 0.8545393687011287 0.4818541568321306
vn -0.23475770314468197 0.4226402236658551 0.8753651022024521
vn -0.28610108141689555 0.01636101208027847 0.9580597520487917
vn 0.9998844341052514 0.013462457226753603 0.007062625534411213
vn 0.376215730077323 -0.10674377970492951 0.9203626947767344
vn -0.9998844341052512 -0.013462457226753878 -0.0070626255344113644
vn -0.376215730077324 0.10674377970492939 -0.9203626947767339
usemtl m_743acc1f-0072-7819-3a38-c0be208073c2
f 126/455/122 127/456/122 125/457/122 128/458/122
f 129/459/123 126/460/123 128/461/123 130/462/123
f 132/463/124 133/464/124 131/465/124 134/466/124
f 135/467/125 134/468/125 131/469/125 136/470/125
f 137/471/126 135/472/126 136/473/126 138/474/126
f 133/475/127 132/476/127 129/477/127 130/478/127
f 140/479/128 139/480/128 125/481/128 127/482/128
f 116/483/129 127/484/129 126/485/129 121/486/129
f 110/487/130 128/488/130 125/489/130 109/490/130
f 121/491/131 126/492/131 129/493/131 120/494/131
f 111/495/132 130/496/132 128/497/132 110/498/132
f 112/499/133 131/500/133 133/501/133 117/502/133
f 122/503/134 132/504/134 134/505/134 119/506/134
f 119/507/135 134/508/135 135/509/135 118/510/135
f 113/511/136 136/512/136 131/513/136 112/514/136
f 118/515/137 135/516/137 137/517/137 115/518/137
f 143/519/138 141/520/138 142/521/138 144/522/138
f 114/523/139 138/524/139 136/525/139 113/526/139
f 120/527/140 129/528/140 132/529/140 122/530/140
f 117/531/141 133/532/141 130/533/141 111/534/141
f 109/535/142 125/536/142 139/537/142 123/538/142
f 123/539/143 139/540/143 140/541/143 124/542/143
f 124/543/144 140/544/144 127/545/144 116/546/144
f 114/547/145 113/548/145 118/549/145 115/550/145
f 119/551/146 118/552/146 113/553/146 112/554/146
f 122/555/147 119/556/147 112/557/147 117/558/147
f 117/559/148 111/560/148 120/561/148 122/562/148
f 121/563/149 120/564/149 111/565/149 110/566/149
f 116/567/150 121/568/150 110/569/150 109/570/150
f 124/571/151 116/572/151 109/573/151 123/574/151
f 141/575/152 143/576/152 115/577/152 137/578/152
f 142/579/153 141/580/153 137/581/153 138/582/153
f 144/583/154 142/584/154 138/585/154 114/586/154
f 143/587/155 144/588/155 114/589/155 115/590/155
o cylinder
v 0.21875000000000006 1.4862341646160533 0.02499999999999998
v -0.21875000000000006 1.4862341646160535 0.02499999999999998
v 0.21875000000000006 1.520753175473055 -0.049999999999999996
v -0.21875 1.5207531754730552 -0.049999999999999996
v 0.21875000000000006 1.4862341646160533 -0.12499999999999999
v -0.21875000000000006 1.4862341646160535 -0.12499999999999999
v 0.21875 1.391890835383947 -0.12499999999999999
v -0.21875000000000006 1.3918908353839472 -0.12499999999999999
v 0.21875 1.3573718245269453 -0.05000000000000002
v -0.2187500000000001 1.3573718245269455 -0.05000000000000002
v 0.21875 1.391890835383947 0.024999999999999967
v -0.21875000000000006 1.3918908353839472 0.024999999999999967
v 0.21875 1.377794493395209 -0.05000000000000002
v 0.21875 1.4036837515379603 -0.10624999999999998
v 0.21875000000000006 1.47444124846204 -0.10624999999999998
v 0.21875000000000006 1.5003305066047912 -0.049999999999999996
v 0.21875000000000006 1.47444124846204 0.006249999999999985
v 0.21875 1.4036837515379603 0.006249999999999978
v -0.21875000000000006 1.5003305066047914 -0.049999999999999996
v -0.21875000000000006 1.4744412484620402 -0.10624999999999998
v -0.21875000000000006 1.4744412484620402 0.006249999999999985
v -0.21875000000000006 1.4036837515379605 0.006249999999999978
v -0.21875000000000006 1.3777944933952093 -0.05000000000000002
v -0.21875000000000006 1.4036837515379605 -0.10624999999999998
v 0.2058823529411765 1.377794493395209 -0.05000000000000002
v 0.20588235294117652 1.4036837515379603 -0.10624999999999998
v 0.20588235294117652 1.4390625000000001 -0.05
v 0.20588235294117652 1.47444124846204 -0.10624999999999998
v 0.20588235294117654 1.5003305066047912 -0.049999999999999996
v 0.20588235294117652 1.47444124846204 0.006249999999999985
v 0.20588235294117652 1.4036837515379603 0.006249999999999978
v -0.20588235294117652 1.5003305066047914 -0.049999999999999996
v -0.20588235294117652 1.4744412484620402 -0.10624999999999998
v -0.20588235294117652 1.4390625000000004 -0.05
v -0.20588235294117652 1.4744412484620402 0.006249999999999985
v -0.20588235294117652 1.4036837515379605 0.006249999999999978
v -0.20588235294117652 1.3777944933952093 -0.05000000000000002
v -0.20588235294117652 1.4036837515379605 -0.10624999999999998
vt 0.6403171875 0.2640625
vt 0.6338453125 0.27812499999999996
vt 0.625 0.2640625
vt 0.265625 0.34375
vt 0.28125 0.34375
vt 0.28125 0.453125
vt 0.265625 0.453125
vt 0.07134531250000001 0.23750000000000004
vt 0.0778171875 0.2515625
vt 0.0625 0.2515625
vt 0.6338453125 0.25
vt 0.6403171875 0.2640625
vt 0.625 0.2640625
vt 0.296875 0.34375
vt 0.3125 0.34375
vt 0.3125 0.453125
vt 0.296875 0.453125
vt 0.0778171875 0.2515625
vt 0.07134531250000001 0.265625
vt 0.0625 0.2515625
vt 0.6161546875 0.25
vt 0.6338453125 0.25
vt 0.625 0.2640625
vt 0 0.5625
vt 0.03125 0.5625
vt 0.03125 0.671875
vt 0 0.671875
vt 0.07134531250000001 0.265625
vt 0.0536546875 0.265625
vt 0.0625 0.2515625
vt 0.6096828125 0.2640625
vt 0.6161546875 0.25
vt 0.625 0.2640625
vt 0.5625 0.890625
vt 0.578125 0.890625
vt 0.578125 1
vt 0.5625 1
vt 0.0536546875 0.265625
vt 0.047182812500000004 0.2515625
vt 0.0625 0.2515625
vt 0.6161546875 0.27812499999999996
vt 0.6096828125 0.2640625
vt 0.625 0.2640625
vt 0.125 0.34375
vt 0.140625 0.34375
vt 0.140625 0.453125
vt 0.125 0.453125
vt 0.047182812500000004 0.2515625
vt 0.0536546875 0.23750000000000004
vt 0.0625 0.2515625
vt 0.6338453125 0.27812499999999996
vt 0.6161546875 0.27812499999999996
vt 0.625 0.2640625
vt 0.046875 0.5625
vt 0.078125 0.5625
vt 0.078125 0.671875
vt 0.046875 0.671875
vt 0.0536546875 0.23750000000000004
vt 0.07134531250000001 0.23750000000000004
vt 0.0625 0.2515625
vt 0.6083421875 0.9578125
vt 0.6018703125 0.971875
vt 0.5967640625 0.971875
vt 0.6053953125 0.953125
vt 0.6260328125 0.9578125
vt 0.6083421875 0.9578125
vt 0.6053953125 0.953125
vt 0.6289796875 0.953125
vt 0.6325046875 0.971875
vt 0.6260328125 0.9578125
vt 0.6289796875 0.953125
vt 0.6376109375 0.971875
vt 0.6260328125 0.9859375
vt 0.6325046875 0.971875
vt 0.6376109375 0.971875
vt 0.6289796875 0.990625
vt 0.6018703125 0.971875
vt 0.6083421875 0.9859375
vt 0.6053953125 0.990625
vt 0.5967640625 0.971875
vt 0.6083421875 0.9859375
vt 0.6260328125 0.9859375
vt 0.6289796875 0.990625
vt 0.6053953125 0.990625
vt 0.6260328125 0.9328125
vt 0.6325046875 0.91875
vt 0.6376109375 0.91875
vt 0.6289796875 0.9375
vt 0.6325046875 0.91875
vt 0.6260328125 0.9046875
vt 0.6289796875 0.9
vt 0.6376109375 0.91875
vt 0.6260328125 0.9046875
vt 0.6083421875 0.9046875
vt 0.6053953125 0.9
vt 0.6289796875 0.9
vt 0.6083421875 0.9046875
vt 0.6018703125 0.91875
vt 0.5967640625 0.91875
vt 0.6053953125 0.9
vt 0.6018703125 0.91875
vt 0.6083421875 0.9328125
vt 0.6053953125 0.9375
vt 0.5967640625 0.91875
vt 0.6083421875 0.9328125
vt 0.6260328125 0.9328125
vt 0.6289796875 0.9375
vt 0.6053953125 0.9375
vt 0.921875 0.96875
vt 0.90625 0.96875
vt 0.90625 0.953125
vt 0.921875 0.953125
vt 0.5 0.375
vt 0.484375 0.375
vt 0.484375 0.359375
vt 0.5 0.359375
vt 0.890625 0.109375
vt 0.875 0.109375
vt 0.875 0.09375
vt 0.890625 0.09375
vt 0.921875 0.890625
vt 0.90625 0.890625
vt 0.90625 0.875
vt 0.921875 0.875
vt 0.90625 0.328125
vt 0.890625 0.328125
vt 0.890625 0.3125
vt 0.90625 0.3125
vt 0.90625 0.453125
vt 0.890625 0.453125
vt 0.890625 0.4375
vt 0.90625 0.4375
vt 0.109375 0.078125
vt 0.125 0.078125
vt 0.125 0.09375
vt 0.109375 0.09375
vt 0.28125 0.078125
vt 0.296875 0.078125
vt 0.296875 0.09375
vt 0.28125 0.09375
vt 0.890625 0.34375
vt 0.90625 0.34375
vt 0.90625 0.359375
vt 0.890625 0.359375
vt 0.765625 0.09375
vt 0.78125 0.09375
vt 0.78125 0.109375
vt 0.765625 0.109375
vt 0.84375 0.09375
vt 0.859375 0.09375
vt 0.859375 0.109375
vt 0.84375 0.109375
vt 0.890625 0.5625
vt 0.90625 0.5625
vt 0.90625 0.578125
vt 0.890625 0.578125
vn 1 -4.440892098500626e-16 0
vn 4.034119755756366e-16 0.9084030114396163 0.4180956455255621
vn -1 4.440892098500626e-16 0
vn 1 -4.440892098500626e-16 0
vn 4.034119755756366e-16 0.9084030114396163 -0.4180956455255621
vn -1 4.440892098500626e-16 0
vn 1 -4.440892098500626e-16 0
vn 0 0 -1
vn -1 4.440892098500626e-16 0
vn 1 -4.440892098500626e-16 0
vn -4.0341197557563666e-16 -0.9084030114396164 -0.418095645525562
vn -1 4.440892098500626e-16 0
vn 1 -4.440892098500626e-16 0
vn -4.0341197557563675e-16 -0.9084030114396167 0.41809564552556167
vn -1 4.440892098500626e-16 0
vn 1 -4.440892098500626e-16 0
vn -6.532497710438877e-32 -1.4709877127265573e-16 1
vn -1 4.440892098500626e-16 0
vn 1 -4.440892098500626e-16 0
vn 1 -4.440892098500626e-16 0
vn 1 -4.440892098500626e-16 0
vn 1 -4.440892098500626e-16 0
vn 1 -4.440892098500626e-16 0
vn 1 -4.440892098500626e-16 0
vn -1 4.440892098500626e-16 0
vn -1 4.440892098500626e-16 0
vn -1 4.440892098500626e-16 0
vn -1 4.440892098500626e-16 0
vn -1 4.440892098500626e-16 0
vn -1 4.440892098500626e-16 0
vn 4.0341197557563666e-16 0.9084030114396164 0.418095645525562
vn 0 0 1
vn -4.034119755756366e-16 -0.9084030114396163 0.41809564552556194
vn -4.034119755756366e-16 -0.9084030114396163 -0.4180956455255621
vn 4.0341197557563675e-16 0.9084030114396167 -0.41809564552556155
vn 4.3549984736259187e-32 9.806584751510383e-17 -1
vn -4.0341197557563666e-16 -0.9084030114396164 0.4180956455255621
vn -4.0341197557563656e-16 -0.9084030114396162 -0.4180956455255621
vn 4.3549984736259187e-32 9.806584751510383e-17 -1
vn 4.0341197557563675e-16 0.9084030114396167 -0.4180956455255616
vn 4.034119755756366e-16 0.9084030114396163 0.4180956455255619
vn 0 0 1
usemtl m_743acc1f-0072-7819-3a38-c0be208073c2
f 173/591/156 174/592/156 171/593/156
f 145/594/157 147/595/157 148/596/157 146/597/157
f 179/598/158 176/599/158 178/600/158
f 172/601/159 173/602/159 171/603/159
f 147/604/160 149/605/160 150/606/160 148/607/160
f 176/608/161 177/609/161 178/610/161
f 170/611/162 172/612/162 171/613/162
f 149/614/163 151/615/163 152/616/163 150/617/163
f 177/618/164 182/619/164 178/620/164
f 169/621/165 170/622/165 171/623/165
f 151/624/166 153/625/166 154/626/166 152/627/166
f 182/628/167 181/629/167 178/630/167
f 175/631/168 169/632/168 171/633/168
f 153/634/169 155/635/169 156/636/169 154/637/169
f 181/638/170 180/639/170 178/640/170
f 174/641/171 175/642/171 171/643/171
f 155/644/172 145/645/172 146/646/172 156/647/172
f 180/648/173 179/649/173 178/650/173
f 158/651/174 157/652/174 153/653/174 151/654/174
f 159/655/175 158/656/175 151/657/175 149/658/175
f 160/659/176 159/660/176 149/661/176 147/662/176
f 161/663/177 160/664/177 147/665/177 145/666/177
f 157/667/178 162/668/178 155/669/178 153/670/178
f 162/671/179 161/672/179 145/673/179 155/674/179
f 164/675/180 163/676/180 148/677/180 150/678/180
f 163/679/181 165/680/181 146/681/181 148/682/181
f 165/683/182 166/684/182 156/685/182 146/686/182
f 166/687/183 167/688/183 154/689/183 156/690/183
f 167/691/184 168/692/184 152/693/184 154/694/184
f 168/695/185 164/696/185 150/697/185 152/698/185
f 170/699/186 169/700/186 157/701/186 158/702/186
f 172/703/187 170/704/187 158/705/187 159/706/187
f 173/707/188 172/708/188 159/709/188 160/710/188
f 174/711/189 173/712/189 160/713/189 161/714/189
f 169/715/190 175/716/190 162/717/190 157/718/190
f 175/719/191 174/720/191 161/721/191 162/722/191
f 177/723/192 176/724/192 163/725/192 164/726/192
f 176/727/193 179/728/193 165/729/193 163/730/193
f 179/731/194 180/732/194 166/733/194 165/734/194
f 180/735/195 181/736/195 167/737/195 166/738/195
f 181/739/196 182/740/196 168/741/196 167/742/196
f 182/743/197 177/744/197 164/745/197 168/746/197
o sphere
v 0.12929874507826494 1.4962510763985115 0.1466136443923522
v 0.12929874507826494 1.5913511840490935 0.10328762017700245
v 0.12929874507826494 1.6260299879726074 0.038778152632701596
v 0.12929874507826494 1.6260299879726074 -0.1374511400845892
v 0.12929874507826494 1.58484158548566 -0.20196060762889
v 0.12929874507826494 1.5092702735253785 -0.24603741557238396
v 0.04422721373060032 1.476722280708211 -0.2845869398536541
v 0.04422721373060032 1.4962510763985115 0.17201817376988798
v 0.12929874507826494 1.6455587836629078 -0.049337466838299954
v 0.04422721373060032 1.5978607826125268 -0.22267831272347438
v 0.04422721373060032 1.6390491850994744 -0.1496331579604614
v 0.04422721373060032 1.6390491850994744 0.04991423330378532
v 0.04422721373060032 1.5978607826125268 0.12295938806679836
v 0.04422721373060032 1.658577980789775 -0.04986056419982083
v 0.12929874507826494 1.4134419261036162 0.1488443017646644
v 0.04422721373060032 1.348345940469281 0.17454398461884446
v 0.12929874507826494 1.468655684416158 0.03607367672838681
v 0.04422721373060032 1.518918086959733 0.041435622955168894
v 0.04422721373060032 1.468655684416158 0.061478206105922584
v 0.12929874507826494 1.5124084883962994 0.021763855065372983
v 0.04422721373060032 1.5262114843470385 0.009408522422578482
v 0.12929874507826494 1.5131922872201715 -0.0017275582485052274
v 0.12929874507826494 1.513801365174613 -0.09566190792785377
v 0.04422721373060032 1.539131534238816 -0.04841878095869858
v 0.12929874507826494 1.5261123371119492 -0.047895683597177705
v 0.04422721373060032 1.5268205623014799 -0.10784392580372598
v 0.04422721373060032 1.5181551015333254 -0.1422068298232993
v 0.12929874507826494 1.5051359044064583 -0.12148912472871493
v 0.04422721373060032 1.422642680535624 -0.18150285297744356
v 0.12929874507826494 1.4551906733527917 -0.14295332869617347
v 0.12929874507826494 1.4102285414313698 0.03263649380466552
v 0.04422721373060032 1.3451325557970348 0.058336176658845565
v 0.0435603842995322 1.3760913061261708 -0.1871744663596407
v 0.1286319156471968 1.408639298943338 -0.14862494207837063
v 0.0435603842995322 1.4301709062987578 -0.2902585532358512
v 0.1286319156471968 1.462718899115925 -0.2517090289545811
vt 0.90625 0.5114845378830409
vt 0.921875 0.5138394217403429
vt 0.921875 0.5003116306119841
vt 0.9064456533618376 0.5
vt 0.8374288188427937 0.9085990710323159
vt 0.8587288188427937 0.9136412585323159
vt 0.8589631938427937 0.9054334460323159
vt 0.8374538188427937 0.9028287585323159
vt 0.8217640625 0.7220515625
vt 0.822234375 0.734375
vt 0.84375 0.734240625
vt 0.8432796875 0.7190921875
vt 0.8217640625 0.7220515625
vt 0.8432906568295411 0.7190906787193063
vt 0.8429601967802395 0.7102376675975783
vt 0.8214166068537223 0.7152687941170202
vt 0.5927115987453915 0.15625
vt 0.59375 0.140625
vt 0.5679303450348474 0.140625
vt 0.5791221049852068 0.15619224947487387
vt 0.8589631938427937 0.9054334460323159
vt 0.859375 0.890625
vt 0.8378602919349809 0.8908648179689959
vt 0.8374345337058987 0.9028264231899358
vt 0.1398754994168416 0.140625
vt 0.12524333762538353 0.140625
vt 0.109375 0.15625
vt 0.14024734139947728 0.1559134650799643
vt 0.05114140624999999 0.9667234375
vt 0.038575781249999996 0.971734375
vt 0.04547421874999999 0.99936875
vt 0.07087734375 0.9871046875
vt 0.15523517394463976 0.9718078125
vt 0.14429767394463974 0.9682296875
vt 0.12456173644463975 0.9886109375
vt 0.14833673644463977 0.9994421875
vt 0.052964843750000004 0.958715625
vt 0.05114140624999999 0.9667234375
vt 0.07087734375 0.9871046875
vt 0.08117421875 0.9688421875
vt 0.14429767394463974 0.9682296875
vt 0.14410079894463976 0.9623578125
vt 0.11589142394463975 0.972484375
vt 0.12456173644463975 0.9886109375
vt 0.14087111144463976 0.9508156249999999
vt 0.14394923644463975 0.9388734375
vt 0.11589142394463975 0.9284265625
vt 0.11101017394463975 0.9504546875
vt 0.05311640625 0.929403125
vt 0.05619453125 0.944259375
vt 0.08605546875 0.9438984375
vt 0.08117421875 0.91895625
vt 0.050950781249999993 0.9208125
vt 0.05311640625 0.929403125
vt 0.08117421875 0.91895625
vt 0.07087734375 0.90069375
vt 0.14394923644463975 0.9388734375
vt 0.14611486144463975 0.9324171875
vt 0.12618829894463976 0.9122984375000001
vt 0.11589142394463975 0.9284265625
vt 0.027072656249999993 0.9109890625
vt 0.050950781249999993 0.9208125
vt 0.07087734375 0.90069375
vt 0.040592968749999986 0.8852171875
vt 0.7057322795546982 0.78125
vt 0.7009767076338663 0.75
vt 0.671875 0.75
vt 0.6766290569955012 0.78125
vt 0.14611486144463975 0.9324171875
vt 0.15860079894463977 0.92705
vt 0.14508204894463975 0.9012796875
vt 0.12618829894463976 0.9122984375000001
vt 0.05619453125 0.944259375
vt 0.052964843750000004 0.958715625
vt 0.08117421875 0.9688421875
vt 0.08605546875 0.9438984375
vt 0.14410079894463976 0.9623578125
vt 0.14087111144463976 0.9508156249999999
vt 0.11101017394463975 0.9504546875
vt 0.11589142394463975 0.972484375
vt 0.16984142394463975 0.9709484375
vt 0.15523517394463976 0.9718078125
vt 0.14833673644463977 0.9994421875
vt 0.16903829894463976 1
vt 0.125 0.29906301940988345
vt 0.09375 0.29309091368347095
vt 0.09375 0.3221528942735875
vt 0.125 0.328125
vt 0.038575781249999996 0.971734375
vt 0.007694531249999997 0.9709484375
vt 0.008497656249999985 1
vt 0.04547421874999999 0.99936875
vt 0.734375 0.17458259184898806
vt 0.75 0.174380433026594
vt 0.75 0.15250745041872682
vt 0.7348952869336479 0.140625
vt 0.0625 0.12791147632207378
vt 0.04056312261698557 0.125
vt 0.04056312261698557 0.14596482155125057
vt 0.06224293828752546 0.1470174256097232
vt 0.59375 0.17423832509372716
vt 0.5721501580212894 0.171875
vt 0.5721501580212894 0.19729146752184623
vt 0.5936535436538246 0.19679391777303157
vt 0.828125 0.15625
vt 0.8261112499269248 0.140625
vt 0.8035489641224532 0.140625
vt 0.8027164195367891 0.15613953323106977
vt 0.22820952036868739 0.13457096431439663
vt 0.22903523184229668 0.15625
vt 0.25 0.15625
vt 0.24651490847918867 0.13464177857196535
vt 0.2211200013650641 0.18124486856752575
vt 0.2217923847930375 0.203125
vt 0.25 0.203125
vt 0.2472408612860927 0.1811092430862984
vt 0.7392676725559005 0.8528044430829875
vt 0.7393744598879488 0.875
vt 0.7763573274440995 0.875
vt 0.7599751335297787 0.8528631602919337
vt 0.040591988732174206 0.885219055570498
vt 0.028952958303112564 0.8838000424934676
vt 0.015433625785621186 0.9095716119229692
vt 0.027072656249999993 0.9109890625
vt 0.3033983198067572 0.140625
vt 0.298871491827441 0.15625
vt 0.3235981720206838 0.15625
vt 0.328125 0.140625
vt 0.15860079894463977 0.92705
vt 0.17023982605536025 0.9256309597055334
vt 0.15672043327204851 0.8998594218905588
vt 0.14508140616132803 0.9012784621850254
vt 0.375 0.1542519509129886
vt 0.390625 0.14972668019324287
vt 0.390625 0.125
vt 0.375 0.12952527071974584
vn -0.26729280428131863 -0.3569199421415206 -0.8950769305937464
vn -0.12496599444156228 -0.9673940013631336 -0.22030058184184867
vn -0.14807923806412313 -0.9576791279957806 0.2468263094882522
vn -0.18039821107647105 -0.9537359554899045 0.24050823820852357
vn -0.2727015146260044 -0.3660590488557616 0.8897385327563926
vn -0.14641982635956735 -0.965419766115292 -0.2156986547077409
vn -0.32741188199676713 0.055490065320112095 -0.943250927472698
vn -1 0 0
vn 1 0 0
vn -1 0 0
vn 1 0 0
vn 1 0 0
vn -1 0 0
vn -1 0 0
vn 1 0 0
vn -1 0 0
vn 0.48145983009883103 -0.7761455756919518 -0.4071786798630471
vn 1 0 0
vn -1 0 0
vn 1 0 0
vn 1 0 0
vn 0.6117059708491768 -0.7907829344800076 0.021866773027908085
vn -1 0 0
vn 0.2762802526204986 0.4842059834193283 -0.8301890071741945
vn 0.24520111414353626 0.8444713390807096 -0.47617703755431307
vn 0.1749541517500883 0.9662414936345458 -0.1891254101496923
vn 0.17499442181811575 0.9612449506761578 0.21303778334402254
vn 0.19385313740941348 0.8545393687011287 0.4818541568321306
vn 0.23475770314468197 0.4226402236658551 0.875365102202452
vn 0.28610108141689555 0.016361012080278466 0.9580597520487917
vn -0.9998844341052514 0.013462457226753603 0.007062625534411213
vn -0.37621573007732295 -0.10674377970492942 0.9203626947767344
vn 0.9998844341052512 -0.013462457226753878 -0.0070626255344113644
vn 0.37621573007732406 0.1067437797049294 -0.9203626947767342
usemtl m_743acc1f-0072-7819-3a38-c0be208073c2
f 199/747/198 201/748/198 200/749/198 202/750/198
f 202/751/199 200/752/199 203/753/199 204/754/199
f 205/755/200 207/756/200 206/757/200 208/758/200
f 205/759/201 208/760/201 209/761/201 210/762/201
f 210/763/202 209/764/202 211/765/202 212/766/202
f 203/767/203 206/768/203 207/769/203 204/770/203
f 199/771/204 213/772/204 214/773/204 201/774/204
f 200/775/205 201/776/205 190/777/205 195/778/205
f 199/779/206 202/780/206 184/781/206 183/782/206
f 203/783/207 200/784/207 195/785/207 194/786/207
f 202/787/208 204/788/208 185/789/208 184/790/208
f 207/791/209 205/792/209 186/793/209 191/794/209
f 208/795/210 206/796/210 196/797/210 193/798/210
f 209/799/211 208/800/211 193/801/211 192/802/211
f 205/803/212 210/804/212 187/805/212 186/806/212
f 211/807/213 209/808/213 192/809/213 189/810/213
f 216/811/214 215/812/214 217/813/214 218/814/214
f 210/815/215 212/816/215 188/817/215 187/818/215
f 206/819/216 203/820/216 194/821/216 196/822/216
f 204/823/217 207/824/217 191/825/217 185/826/217
f 213/827/218 199/828/218 183/829/218 197/830/218
f 214/831/219 213/832/219 197/833/219 198/834/219
f 201/835/220 214/836/220 198/837/220 190/838/220
f 192/839/221 187/840/221 188/841/221 189/842/221
f 187/843/222 192/844/222 193/845/222 186/846/222
f 186/847/223 193/848/223 196/849/223 191/850/223
f 194/851/224 185/852/224 191/853/224 196/854/224
f 185/855/225 194/856/225 195/857/225 184/858/225
f 184/859/226 195/860/226 190/861/226 183/862/226
f 183/863/227 190/864/227 198/865/227 197/866/227
f 189/867/228 217/868/228 215/869/228 211/870/228
f 211/871/229 215/872/229 216/873/229 212/874/229
f 212/875/230 216/876/230 218/877/230 188/878/230
f 188/879/231 218/880/231 217/881/231 189/882/231