# Made in Blockbench 5.1.5
mtllib StingerRightArm.mtl

o cuboid
v 0.8250000000000001 1.1265625000000015 0.10937499999999997
v 0.8250000000000001 1.1265625000000015 -0.11718749999999994
v 0.8250000000000001 1.001562500000002 0.10937499999999997
v 0.8250000000000001 1.001562500000002 -0.11718749999999994
v 0.6250000000000001 1.1265625000000015 0.08437499999999995
v 0.6250000000000001 1.1265625000000015 -0.11718749999999994
v 0.6250000000000001 1.001562500000002 0.08437499999999995
v 0.6250000000000001 1.001562500000002 -0.11718749999999994
v 0.6250000000000001 1.076562500000002 -0.11718749999999994
v 0.85 1.076562500000002 -0.11718749999999994
v 0.85 1.076562500000002 0.10937499999999997
v 0.6250000000000001 1.076562500000002 0.08437499999999995
v 0.7250000000000001 1.076562500000002 -0.11718749999999994
v 0.7250000000000001 1.1265625000000015 -0.11718749999999994
v 0.7250000000000001 1.1265625000000015 0.10937499999999997
v 0.7250000000000001 1.076562500000002 0.10937499999999997
v 0.7250000000000001 1.001562500000002 0.10937499999999997
v 0.7250000000000001 1.001562500000002 -0.11718749999999994
v 0.85 1.076562500000002 -0.042187500000000024
v 0.8250000000000001 1.001562500000002 -0.042187500000000024
v 0.7250000000000001 1.001562500000002 -0.042187500000000024
v 0.6250000000000001 1.001562500000002 -0.042187500000000024
v 0.6250000000000001 1.076562500000002 -0.042187500000000024
v 0.6250000000000001 1.1265625000000015 -0.042187500000000024
v 0.7250000000000001 1.1265625000000015 -0.042187500000000024
v 0.8250000000000001 1.1265625000000015 -0.042187500000000024
v 0.6250000000000001 0.9640625000000016 -0.14843749999999997
v 0.7250000000000001 0.9640625000000016 -0.14843749999999997
v 0.7250000000000001 0.9640625000000018 -0.042187500000000024
v 0.6250000000000001 0.9640625000000018 -0.042187500000000024
v 0.6812500000000001 1.001562500000002 -0.042187500000000024
v 0.6812500000000001 1.001562500000002 0.10937499999999997
v 0.6812500000000001 1.076562500000002 0.10937499999999997
v 0.6812500000000001 1.1265625000000015 0.10937499999999997
v 0.6812500000000001 1.1265625000000015 -0.042187500000000024
v 0.6812500000000001 1.1265625000000015 -0.11718749999999994
v 0.6812500000000001 1.076562500000002 -0.11718749999999994
v 0.6812500000000001 0.9640625000000016 -0.14843749999999997
v 0.6812500000000001 0.9640625000000018 -0.042187500000000024
v 0.7250000000000001 0.9765625000000018 -0.11718749999999994
v 0.8171875000000001 0.9765625000000018 -0.042187500000000024
v 0.7250000000000001 0.9765625000000018 -0.042187500000000024
v 0.8171875000000001 0.9765625000000018 -0.11718749999999994
v 0.8171875000000001 0.9765625000000018 0.10937499999999997
v 0.7250000000000001 0.9765625000000018 0.10937499999999997
v 0.6812500000000001 0.9765625000000018 -0.042187500000000024
v 0.6812500000000001 0.9765625000000018 0.10937499999999997
vt 0.6154296875 0.43256249999999996
vt 0.6154296875 0.4127984375
vt 0.5966796875 0.4127984375
vt 0.5966796875 0.43256249999999996
vt 0.375 0.60625
vt 0.35 0.60625
vt 0.35 0.625
vt 0.375 0.625
vt 0.16269531250000002 0.45625000000000004
vt 0.1857421875 0.45625000000000004
vt 0.1857421875 0.4375
vt 0.16269531250000002 0.4375
vt 0.033593750000000006 0.40937500000000004
vt 0.033593750000000006 0.390625
vt 0.008593750000000011 0.390625
vt 0.0023437500000000056 0.40937500000000004
vt 0.121875 0.5625
vt 0.121875 0.58125
vt 0.153125 0.58125
vt 0.14687499999999998 0.5625
vt 0.4244140625 0.96875
vt 0.4244140625 0.9875
vt 0.4431640625 0.9875
vt 0.4431640625 0.96875
vt 0.121875 0.58125
vt 0.121875 0.59375
vt 0.14687499999999998 0.59375
vt 0.153125 0.58125
vt 0.7560546875 0.765625
vt 0.7560546875 0.7516499999999999
vt 0.7373046875 0.7516499999999999
vt 0.7373046875 0.765625
vt 0.033593750000000006 0.421875
vt 0.033593750000000006 0.40937500000000004
vt 0.0023437500000000056 0.40937500000000004
vt 0.008593750000000011 0.421875
vt 0.4244140625 0.9875
vt 0.4244140625 1
vt 0.4431640625 1
vt 0.4431640625 0.9875
vt 0.11093750000000001 0.59375
vt 0.11093750000000001 0.58125
vt 0.096875 0.58125
vt 0.096875 0.59375
vt 0.3859375 0.60625
vt 0.3859375 0.625
vt 0.4 0.625
vt 0.4 0.60625
vt 0.1564859375 0.14375000000000004
vt 0.1564859375 0.15625
vt 0.171875 0.15625
vt 0.171875 0.14375000000000004
vt 0.1564859375 0.125
vt 0.1564859375 0.14375000000000004
vt 0.171875 0.14375000000000004
vt 0.171875 0.125
vt 0.8109375 0.96875
vt 0.8109375 0.9953125
vt 0.825 0.9953125
vt 0.825 0.96875
vt 0.7984375 0.921875
vt 0.7984375 0.892684375
vt 0.784375 0.892684375
vt 0.784375 0.921875
vt 0.6154296875 0.4127984375
vt 0.6154296875 0.43256249999999996
vt 0.6533203125 0.43256249999999996
vt 0.6533203125 0.4127984375
vt 0.1857421875 0.45625000000000004
vt 0.16269531250000002 0.45625000000000004
vt 0.16269531250000002 0.494140625
vt 0.1857421875 0.494140625
vt 0.828125 0.3125
vt 0.828125 0.34375
vt 0.84375 0.3375
vt 0.84375 0.3125
vt 0.4244140625 0.9875
vt 0.4244140625 0.96875
vt 0.3927734375 0.96875
vt 0.3927734375 0.9875
vt 0.4244140625 1
vt 0.4244140625 0.9875
vt 0.3927734375 0.9875
vt 0.3927734375 1
vt 0.3859375 0.568359375
vt 0.3859375 0.60625
vt 0.4 0.60625
vt 0.4 0.574609375
vt 0.35 0.60625
vt 0.375 0.60625
vt 0.375 0.568359375
vt 0.35 0.568359375
vt 0.7560546875 0.7516499999999999
vt 0.7560546875 0.765625
vt 0.7939453125 0.765625
vt 0.7939453125 0.7516499999999999
vt 0.52578125 0.23124999999999996
vt 0.51796875 0.22187500000000004
vt 0.52578125 0.25
vt 0.4431640625 0.9875
vt 0.4509765625 0.959375
vt 0.4431640625 0.96875
vt 0.4431640625 0.96875
vt 0.4509765625 0.959375
vt 0.4244140625 0.959375
vt 0.4244140625 0.96875
vt 0.4828125 0.08437499999999998
vt 0.4828125 0.09375
vt 0.496875 0.09375
vt 0.496875 0.08437499999999998
vt 0.54453125 0.23124999999999996
vt 0.54453125 0.22187500000000004
vt 0.51796875 0.22187500000000004
vt 0.52578125 0.23124999999999996
vt 0.19667968749999998 0.494140625
vt 0.19667968749999998 0.45625000000000004
vt 0.1857421875 0.45625000000000004
vt 0.1857421875 0.494140625
vt 0.044531249999999994 0.40937500000000004
vt 0.044531249999999994 0.390625
vt 0.033593750000000006 0.390625
vt 0.033593750000000006 0.40937500000000004
vt 0.044531249999999994 0.421875
vt 0.044531249999999994 0.40937500000000004
vt 0.033593750000000006 0.40937500000000004
vt 0.033593750000000006 0.421875
vt 0.3859375 0.60625
vt 0.3859375 0.568359375
vt 0.375 0.568359375
vt 0.375 0.60625
vt 0.3859375 0.625
vt 0.3859375 0.60625
vt 0.375 0.60625
vt 0.375 0.625
vt 0.11093750000000001 0.58125
vt 0.11093750000000001 0.59375
vt 0.121875 0.59375
vt 0.121875 0.58125
vt 0.7984375 0.892684375
vt 0.7984375 0.921875
vt 0.809375 0.921875
vt 0.809375 0.892684375
vt 0.8109375 0.9953125
vt 0.8109375 0.96875
vt 0.8 0.96875
vt 0.8 0.9953125
vt 0.4828125 0.09375
vt 0.4828125 0.08437499999999998
vt 0.471875 0.08437499999999998
vt 0.471875 0.09375
vt 0.921875 0.640625
vt 0.921875 0.625
vt 0.90625 0.625
vt 0.90625 0.640625
vt 0.6154296875 0.4127984375
vt 0.6154296875 0.40625
vt 0.5966796875 0.40625
vt 0.5966796875 0.4127984375
vt 0.14687499999999998 0.5625
vt 0.14492187499999998 0.5562499999999999
vt 0.121875 0.5562499999999999
vt 0.121875 0.5625
vt 0.6533203125 0.4127984375
vt 0.6533203125 0.40625
vt 0.6154296875 0.40625
vt 0.6154296875 0.4127984375
vt 0.033593750000000006 0.390625
vt 0.033593750000000006 0.3843749999999999
vt 0.010546875000000011 0.3843749999999999
vt 0.008593750000000011 0.390625
vt 0.921875 0.546875
vt 0.921875 0.53125
vt 0.90625 0.53125
vt 0.90625 0.546875
vt 0.859375 0.21875
vt 0.859375 0.203125
vt 0.828125 0.203125
vt 0.828125 0.21875
vt 0.044531249999999994 0.390625
vt 0.044531249999999994 0.3843749999999999
vt 0.033593750000000006 0.3843749999999999
vt 0.033593750000000006 0.390625
vn 0.9486832980505144 -0.3162277660168363 0
vn 0 1 0
vn 0 -1 0
vn 0 0 1
vn 0 0 -1
vn -1 0 0
vn 0 0 -1
vn 0.8944271909999143 0.44721359549996115 0
vn 0 0 1
vn -1 0 0
vn 0 0 -1
vn 0 1 0
vn -0.4061384660534478 0 0.9138115486202572
vn -0.4061384660534478 0 0.913811548620257
vn 0 -1 2.0898315757650014e-15
vn 0 0.2676438637860938 -0.963517909629941
vn 0.9486832980505144 -0.3162277660168363 0
vn 0 -1 0
vn 0 -1 0
vn -1 0 0
vn -1 0 0
vn 0 1 0
vn 0 1 0
vn 0.8944271909999143 0.44721359549996115 0
vn 1 0 0
vn -1 0 0
vn -1 0 0
vn 0 0 1
vn 1 0 0
vn 0 -1 0
vn 0 0 1
vn 0 0 1
vn 0 1 0
vn 0 1 0
vn 0 0 -1
vn 0 0.2676438637860938 -0.963517909629941
vn 0 -1 2.0898315757650014e-15
vn 0 0 1
vn -1 0 0
vn 0.9544799780350304 -0.2982749931359454 0
vn 0 0 -1
vn 0.9544799780350303 -0.29827499313594535 0
vn 0 0 1
vn 0 0 -1
vn -1 0 0
vn 0 0 1
usemtl m_743acc1f-0072-7819-3a38-c0be208073c2
f 19/1/1 20/2/1 4/3/1 10/4/1
f 25/5/2 26/6/2 2/7/2 14/8/2
f 41/9/3 42/10/3 40/11/3 43/12/3
f 16/13/4 17/14/4 3/15/4 11/16/4
f 18/17/5 13/18/5 10/19/5 4/20/5
f 22/21/6 23/22/6 9/23/6 8/24/6
f 13/25/7 14/26/7 2/27/7 10/28/7
f 26/29/8 19/30/8 10/31/8 2/32/8
f 15/33/9 16/34/9 11/35/9 1/36/9
f 23/37/10 24/38/10 6/39/10 9/40/10
f 36/41/11 37/42/11 9/43/11 6/44/11
f 35/45/12 36/46/12 6/47/12 24/48/12
f 33/49/13 34/50/13 5/51/13 12/52/13
f 32/53/14 33/54/14 12/55/14 7/56/14
f 38/57/15 39/58/15 30/59/15 27/60/15
f 37/61/16 38/62/16 27/63/16 9/64/16
f 20/65/17 19/66/17 11/67/17 3/68/17
f 42/69/18 41/70/18 44/71/18 45/72/18
f 31/73/19 32/74/19 7/75/19 22/76/19
f 23/77/20 22/78/20 7/79/20 12/80/20
f 24/81/21 23/82/21 12/83/21 5/84/21
f 34/85/22 35/86/22 24/87/22 5/88/22
f 26/89/23 25/90/23 15/91/23 1/92/23
f 19/93/24 26/94/24 1/95/24 11/96/24
f 18/97/25 28/98/25 13/99/25
f 9/100/26 27/101/26 8/102/26
f 8/103/27 27/104/27 30/105/27 22/106/27
f 39/107/28 31/108/28 22/109/28 30/110/28
f 21/111/29 29/112/29 28/113/29 18/114/29
f 47/115/30 46/116/30 42/117/30 45/118/30
f 33/119/31 32/120/31 17/121/31 16/122/31
f 34/123/32 33/124/32 16/125/32 15/126/32
f 35/127/33 34/128/33 15/129/33 25/130/33
f 36/131/34 35/132/34 25/133/34 14/134/34
f 37/135/35 36/136/35 14/137/35 13/138/35
f 38/139/36 37/140/36 13/141/36 28/142/36
f 39/143/37 38/144/37 28/145/37 29/146/37
f 31/147/38 39/148/38 29/149/38 21/150/38
f 18/151/39 40/152/39 42/153/39 21/154/39
f 20/155/40 41/156/40 43/157/40 4/158/40
f 4/159/41 43/160/41 40/161/41 18/162/41
f 3/163/42 44/164/42 41/165/42 20/166/42
f 17/167/43 45/168/43 44/169/43 3/170/43
f 21/171/44 42/172/44 46/173/44 31/174/44
f 31/175/45 46/176/45 47/177/45 32/178/45
f 32/179/46 47/180/46 45/181/46 17/182/46
o Forearm
v 0.5250003322333882 1.0390624999999998 -0.108333370248156
v 0.5624999999999998 1.2703125000000013 -0.11875000000000187
v 0.5625000000000004 1.2703125000000013 0.11874999999999818
v 0.6187499999999996 1.0390624999999998 -0.118750000000002
v 0.6187500000000002 1.0390624999999998 0.11874999999999804
v 0.3374999999999998 1.1953125000000002 -0.08750000000000117
v 0.33750000000000036 1.1953125000000002 0.08749999999999884
v 0.3374999999999998 1.0390624999999998 -0.08750000000000116
v 0.33750000000000036 1.0390624999999998 0.08749999999999886
v 0.6187499999999996 1.1328125000000002 -0.11875000000000202
v 0.3374999999999998 1.1171875 -0.08750000000000117
v 0.33750000000000036 1.1171875 0.08749999999999884
v 0.6187500000000002 1.1328125000000002 0.11874999999999802
v 0.6937499999999996 1.2390625000000013 -0.11406250000000226
v 0.6937500000000002 1.1328125000000002 0.1140624999999978
v 0.6937499999999995 1.1328125000000002 -0.11406250000000225
v 0.6937500000000003 1.2390625000000013 0.11406249999999779
v 0.6937499999999998 1.2228781250000011 -0.09273281250000226
v 0.6937500000000001 1.1489968750000004 0.0927328124999978
v 0.6937499999999996 1.1489968750000004 -0.09273281250000225
v 0.6937500000000002 1.2228781250000011 0.09273281249999779
v 0.6187499999999998 1.2041281250000013 -0.08638125000000202
v 0.6187500000000001 1.155246875 0.08638124999999802
v 0.6187499999999997 1.155246875 -0.08638125000000202
v 0.6187500000000002 1.2041281250000013 0.08638124999999802
v 0.4250002214890999 1.1223958456382834 -0.0979166912765681
v 0.41366920522295314 1.2210329456274291 -0.09791669127656809
v 0.5125003322333882 1.1276041851240772 -0.10833337024815597
v 0.4875002657867105 1.2453125885955711 -0.10833337024815591
v 0.41366920522295364 1.2210329456274294 0.09791669127656528
v 0.4875002657867112 1.2453125885955711 0.10833337024815266
v 0.42500022148910044 1.1223958456382834 0.09791669127656527
v 0.5125003322333889 1.1276041851240772 0.10833337024815261
v 0.4312502214891004 1.0390624999999998 0.09791669127656526
v 0.5250003322333888 1.0390624999999998 0.10833337024815258
v 0.43125022148909986 1.0390624999999998 -0.09791669127656812
v 0.4298698274131642 1.0265624999999998 -0.11034023795998836
v 0.5236199381574526 1.0265624999999998 -0.12075691693157624
v 0.509764075978715 1.1271722285237356 -0.1331756548403852
v 0.4222639652344266 1.1219638890379418 -0.12275897586879736
v 0.4821915565327624 1.2567391732208608 -0.12075210815696491
v 0.40601316801043413 1.2310396595906834 -0.11033542918537709
v 0.4819914255893112 1.2566754146152206 0.1207262372222736
v 0.40583158085743154 1.2309340960544397 0.11030955825068624
v 0.5095639450352639 1.1271084699180953 0.1331497839056938
v 0.4220638342909755 1.1219001304323015 0.12273310493410644
v 0.5236199381574532 1.0265624999999998 0.12075691693157282
v 0.4298698274131649 1.0265624999999998 0.1103402379599855
vt 0.609375 0.21875
vt 0.5625 0.21875
vt 0.5625 0.234375
vt 0.609375 0.234375
vt 0.1078125 0.43359375
vt 0.0640625 0.43359375
vt 0.0640625 0.453125
vt 0.1078125 0.453125
vt 0.7614578125 0.34375
vt 0.7072921875 0.34375
vt 0.7046875 0.359375
vt 0.7640625 0.359375
vt 0.515625 0.8932296875
vt 0.515625 0.9473953125
vt 0.546875 0.95
vt 0.546875 0.890625
vt 0.35541460543780506 0.7298961519825101
vt 0.34912899862498353 0.7593163968427954
vt 0.3680381888750165 0.765625
vt 0.38208875086893235 0.7312562693055205
vt 0.546875 0.629694689863201
vt 0.540653125 0.6002618773632009
vt 0.5139640625 0.601563439863201
vt 0.5279609375 0.635958752363201
vt 0.3585717578525789 0.7077654152624975
vt 0.35541460543780506 0.7298961519825101
vt 0.3821007929154623 0.7312568833306683
vt 0.3821513803020515 0.7078210004281569
vt 0.0640625 0.43359375
vt 0.1078125 0.43359375
vt 0.1078125 0.4140625
vt 0.0640625 0.4140625
vt 0.54065133854784 0.6002619644842506
vt 0.5375428350259372 0.578125
vt 0.5139600228763184 0.5781290652113766
vt 0.5139640625 0.601563439863201
vt 0 0.859375
vt 0.0625 0.859375
vt 0.0625 0.828125
vt 0 0.828125
vt 0.3680381888750165 0.765625
vt 0.40087100137501647 0.7578125
vt 0.40087100137501647 0.73125
vt 0.3820913138750165 0.73125
vt 0.375 0.29374999999999996
vt 0.390625 0.292578125
vt 0.390625 0.23554687500000004
vt 0.375 0.234375
vt 0.69768828125 0.515625
vt 0.67890234375 0.515625
vt 0.67890234375 0.5390625
vt 0.71172265625 0.546875
vt 0.5609375 0.484375
vt 0.559765625 0.453125
vt 0.502734375 0.453125
vt 0.5015625 0.484375
vt 0.580859375 0.484375
vt 0.5861921875 0.48032968750000005
vt 0.5861921875 0.46185937499999996
vt 0.580859375 0.45781249999999996
vt 0.580859375 0.45781249999999996
vt 0.5861921875 0.46185937499999996
vt 0.6325578125 0.46185937499999996
vt 0.637890625 0.45781249999999996
vt 0.637890625 0.45781249999999996
vt 0.6325578125 0.46185937499999996
vt 0.6325578125 0.48032968750000005
vt 0.637890625 0.484375
vt 0.637890625 0.484375
vt 0.6325578125 0.48032968750000005
vt 0.5861921875 0.48032968750000005
vt 0.580859375 0.484375
vt 0.890625 0.84375
vt 0.90625 0.8390625
vt 0.90625 0.8268421875
vt 0.890625 0.8252796874999999
vt 0.7658796875 0.3125
vt 0.7674671875 0.328125
vt 0.8106578125 0.328125
vt 0.8122453125 0.3125
vt 0.21875 0.09090468749999991
vt 0.203125 0.09246718750000005
vt 0.203125 0.10468750000000004
vt 0.21875 0.109375
vt 0.4684953125 0.21875
vt 0.4669078125 0.203125
vt 0.4237171875 0.203125
vt 0.4221296875 0.21875
vt 0.3160917057610034 0.32674666438371824
vt 0.3189060520179056 0.30208437499999996
vt 0.2968764620161888 0.30078116333441396
vt 0.296875 0.3203108507796898
vt 0.2223453125 0.4375
vt 0.22956718750000002 0.40503124999999995
vt 0.2075375 0.403725
vt 0.203125 0.43110781249999997
vt 0.7411453125 0.546875
vt 0.7901046875 0.546875
vt 0.7875 0.53125
vt 0.74375 0.53125
vt 0.7041898333972311 0.390625
vt 0.7645601666027689 0.390625
vt 0.7619388340406964 0.375
vt 0.706776312843103 0.375
vt 0.2592167973172596 0.30208426115299414
vt 0.26203147974896907 0.32674597804565564
vt 0.28125 0.32030937424233885
vt 0.28124456020222877 0.30078125
vt 0.53599375 0.686296875
vt 0.5432875 0.71875
vt 0.5625 0.712303125
vt 0.5580078125 0.6849453125
vt 0.2576633102022287 0.28125
vt 0.25921487270222876 0.30208437499999996
vt 0.28124456020222877 0.30078125
vt 0.28124456020222877 0.28125156250000005
vt 0.5327999545348456 0.6609271560082932
vt 0.53599375 0.686296875
vt 0.5580196545927444 0.6849445854498031
vt 0.5563811692663696 0.6608863419217405
vt 0.1875 0.408334375
vt 0.1875 0.359375
vt 0.15625 0.3619796875
vt 0.15625 0.40572968750000005
vt 0.25 0.513503125
vt 0.25 0.453125
vt 0.21875 0.4557296875
vt 0.21875 0.5108984375000001
vt 0.3189060520179056 0.30208437499999996
vt 0.3204591770179056 0.28125
vt 0.2968779270179056 0.28125
vt 0.2968779270179056 0.30078125
vt 0.22956600067632457 0.4050311796273074
vt 0.23265871590848825 0.3796412287190908
vt 0.2090774668791317 0.3796479946610213
vt 0.2075375 0.403725
vt 0.671875 0.10088884096524176
vt 0.66876875 0.0977466534652418
vt 0.6649859375 0.1230435284652418
vt 0.6711984375 0.12322321596524177
vt 0.6498141018349115 0.78124947334645
vt 0.6560615817731439 0.7810947849389471
vt 0.6525914606749946 0.7572193238056035
vt 0.649489161340107 0.7603606555931193
vt 0.6712327473344525 0.12322420832715375
vt 0.6649859375 0.1230435284652418
vt 0.6669200724730836 0.15625
vt 0.6701892789410832 0.1532878710333777
vt 0.9347875274070042 0.09970245507608166
vt 0.9375 0.09620838752418082
vt 0.9098651705885261 0.09375
vt 0.9100393798871582 0.09970245507608166
vt 0.203125 0.29377097787219386
vt 0.21875 0.296875
vt 0.21875 0.2365046850533492
vt 0.203125 0.23960378633960977
vt 0.7255184305584927 0.40625
vt 0.7224187451205073 0.421875
vt 0.7775812548794927 0.421875
vt 0.7744762557740245 0.40625
vt 0.6104722123948365 0.13763357998534342
vt 0.6137309824949576 0.140625
vt 0.615996875 0.10744093707176405
vt 0.6097813022449148 0.10756531071368669
vt 0.5531247191343142 0.0625
vt 0.546875 0.0625
vt 0.550027396351494 0.09375
vt 0.5532846345237984 0.09098815909011049
vt 0.60975 0.1075659370717641
vt 0.615996875 0.10744093707176405
vt 0.6125 0.08211124957176408
vt 0.609375 0.085215937071764
vt 0.6005281200696106 0.76036380478294
vt 0.5974227106749945 0.7572193238056035
vt 0.5939384182268561 0.7810812885898036
vt 0.6001768198349712 0.78125
vt 0.5270828125 0.296875
vt 0.5301890625 0.28125
vt 0.4698109375 0.28125
vt 0.4729171875 0.296875
vt 0.6494867731749946 0.7603630738056035
vt 0.6525914606749946 0.7572193238056035
vt 0.5974227106749945 0.7572193238056035
vt 0.6005273981749946 0.7603630738056035
vn 1 -1.224646799147357e-16 -2.9629076969683865e-15
vn -1 1.224646799147357e-16 2.9629076969683865e-15
vn -0.31622776601684255 0.9486832980505124 8.207734854902093e-16
vn -1.224646799147353e-16 -1 1.224646799147357e-16
vn -0.1285806698587613 -0.02730922513111635 -0.991322963297739
vn -0.0965551255161681 -0.020507325581526157 0.9951163536662687
vn -0.09689804180246941 -0.013679720696906678 -0.995200298802458
vn -1 1.224646799147357e-16 2.9629076969683865e-15
vn -0.11041810786668127 -0.015588435508081448 0.9937629708001563
vn 1 -1.224646799147357e-16 -2.9629076969683865e-15
vn 0.03569153051240954 -1.267576039362185e-16 -0.9993628543475497
vn -1.224646799147353e-16 -1 1.224646799147357e-16
vn 0.062378286155183496 1.1458705271435921e-16 0.9980525784828884
vn 0.23162052730604005 0.9728062146853668 -8.054046448314512e-16
vn 1 -1.224646799147357e-16 -2.9629076969683865e-15
vn 1 -1.224646799147357e-16 -2.9629076969683865e-15
vn 1 -1.224646799147357e-16 -2.9629076969683865e-15
vn 1 -1.224646799147357e-16 -2.9629076969683865e-15
vn 0.08438543561336381 1.1169363606965097e-16 0.996433188054444
vn 0.08304547985373546 0.99654575824488 -3.6809774876091233e-16
vn 0.0843854356133579 -1.3236210679336255e-16 -0.9964331880544446
vn 0.2425356250363308 -0.9701425001453324 -5.998024794572038e-16
vn -0.11741046420865904 -0.013487621593807312 -0.9929918765821045
vn -0.12197895547610368 0.06898127017699791 -0.9901326773648707
vn -0.31992759121023046 0.9474419963155634 -3.3305119616134593e-16
vn -0.3196610550410157 0.9475319570719665 -0.00001474563751017397
vn -0.13050951727063623 -0.014992385859309466 0.9913336947103287
vn -0.15560591660304343 0.061420183251639254 0.9859078860661689
vn -0.11769018851268857 -0.00882676283509716 0.9930111317531646
vn -0.10908303065883947 -0.13660717661499752 0.9846011231557488
vn -1.224646799147353e-16 -1 1.224646799147357e-16
vn -1.224646799147353e-16 -1 1.224646799147357e-16
vn -0.11042773860415363 -0.008282079172384505 -0.9938496474373553
vn -0.10939643558207597 -0.1365958649405679 -0.9845679202386572
vn 0.9706024903727887 0.10706202882439304 -0.21556559944978576
vn -0.991782765831369 -0.06470312520256365 0.1103650804779367
vn 0.969885361590005 0.21700167495161013 -0.11060134918535694
vn -0.8954765084482592 -0.17979106466956435 0.4071817725319979
vn 0.9065435885249137 0.4221113333346693 0.0008627715804589204
vn -0.7846494499537504 -0.6199389910791785 -0.0009423518489676118
vn 0.9501523506195202 0.2230828451004162 0.21781771010205772
vn -0.9799871351704648 -0.15946924026424517 -0.11914183274538655
vn 0.9852343037838602 0.12306068923641537 0.11903542923092536
vn -0.9839756578079887 -0.058678947103244575 -0.1683706803698049
vn 0.9939576486092933 -0.10976425998969214 -2.9315625225593584e-15
vn -0.9939576486092933 0.10976425998969216 2.9315625225593584e-15
usemtl m_743acc1f-0072-7819-3a38-c0be208073c2
f 70/183/47 71/184/47 69/185/47 72/186/47
f 58/187/48 59/188/48 54/189/48 53/190/48
f 76/191/49 78/192/49 50/193/49 49/194/49
f 82/195/50 48/196/50 51/197/50 52/198/50
f 75/199/51 76/200/51 49/201/51 57/202/51
f 78/203/52 80/204/52 60/205/52 50/206/52
f 48/207/53 75/208/53 57/209/53 51/210/53
f 59/211/54 58/212/54 55/213/54 56/214/54
f 80/215/55 82/216/55 52/217/55 60/218/55
f 57/219/56 60/220/56 52/221/56 51/222/56
f 49/223/57 61/224/57 63/225/57 57/226/57
f 57/227/58 63/228/58 62/229/58 60/230/58
f 60/231/59 62/232/59 64/233/59 50/234/59
f 50/235/60 64/236/60 61/237/60 49/238/60
f 61/239/61 65/240/61 67/241/61 63/242/61
f 63/243/62 67/244/62 66/245/62 62/246/62
f 62/247/63 66/248/63 68/249/63 64/250/63
f 64/251/64 68/252/64 65/253/64 61/254/64
f 65/255/65 69/256/65 71/257/65 67/258/65
f 67/259/66 71/260/66 70/261/66 66/262/66
f 66/263/67 70/264/67 72/265/67 68/266/67
f 68/267/68 72/268/68 69/269/68 65/270/68
f 74/271/69 73/272/69 58/273/69 53/274/69
f 88/275/70 86/276/70 87/277/70 89/278/70
f 77/279/71 74/280/71 53/281/71 54/282/71
f 90/283/72 88/284/72 89/285/72 91/286/72
f 79/287/73 77/288/73 54/289/73 59/290/73
f 92/291/74 90/292/74 91/293/74 93/294/74
f 81/295/75 79/296/75 59/297/75 56/298/75
f 94/299/76 92/300/76 93/301/76 95/302/76
f 83/303/77 81/304/77 56/305/77 55/306/77
f 85/307/78 94/308/78 95/309/78 84/310/78
f 73/311/79 83/312/79 55/313/79 58/314/79
f 86/315/80 85/316/80 84/317/80 87/318/80
f 48/319/81 85/320/81 86/321/81 75/322/81
f 73/323/82 87/324/82 84/325/82 83/326/82
f 75/327/83 86/328/83 88/329/83 76/330/83
f 74/331/84 89/332/84 87/333/84 73/334/84
f 76/335/85 88/336/85 90/337/85 78/338/85
f 77/339/86 91/340/86 89/341/86 74/342/86
f 78/343/87 90/344/87 92/345/87 80/346/87
f 79/347/88 93/348/88 91/349/88 77/350/88
f 80/351/89 92/352/89 94/353/89 82/354/89
f 81/355/90 95/356/90 93/357/90 79/358/90
f 82/359/91 94/360/91 85/361/91 48/362/91
f 83/363/92 84/364/92 95/365/92 81/366/92
o cuboid
v 0.6062500000000001 1.198437499999999 0.07241379310344827
v 0.6062500000000001 1.198437499999999 -0.07241379310344827
v 0.6062500000000001 1.167187499999999 0.07241379310344827
v 0.6062500000000001 1.167187499999999 -0.07241379310344827
v 1.0652396744045824 1.198437499999999 0.07241379310344827
v 1.0652396744045824 1.198437499999999 -0.07241379310344827
v 1.0652396744045824 1.167187499999999 0.07241379310344827
v 1.0652396744045824 1.167187499999999 -0.07241379310344827
v 1.0652396744045824 1.1828124999999994 0.0875
v 1.0652396744045824 1.1828124999999994 -0.0875
v 0.6062500000000001 1.1828124999999994 -0.0875
v 0.6062500000000001 1.1828124999999994 0.0875
v 1.278125 1.1828124999999994 0
v 1.2440668202764977 1.167187499999999 0
v 0.6062500000000001 1.167187499999999 0
v 0.6062500000000001 1.1828124999999994 0
v 0.6062500000000001 1.198437499999999 0
v 1.2440668202764977 1.198437499999999 0
vt 0.3203125 0.12109375
vt 0.3203125 0.125
vt 0.338415625 0.125
vt 0.3421875 0.12109375
vt 0.773375 0.9998390625
vt 0.78125 0.984375
vt 0.7237078125 0.984375
vt 0.7251421875 1
vt 0.24378984375 0.856896875
vt 0.08433515625 0.856896875
vt 0.12904296875000001 0.875
vt 0.24378984375 0.875
vt 0.006210156250000001 0.783728125
vt 0.16566484375 0.783728125
vt 0.16566484375 0.765625
vt 0.05091796875000001 0.765625
vt 0.671875 0.859375
vt 0.5625 0.859375
vt 0.5625 0.875
vt 0.671875 0.875
vt 0.671875 0.828125
vt 0.5625 0.828125
vt 0.5625 0.84375
vt 0.671875 0.84375
vt 0.734375 0.4375
vt 0.718909788487323 0.4453754246081676
vt 0.71875 0.4936079724291098
vt 0.734375 0.495040940757701
vt 0.5625 0.8125
vt 0.671875 0.8125
vt 0.671875 0.796875
vt 0.5625 0.796875
vt 0.3203125 0.1171875
vt 0.3203125 0.12109375
vt 0.3421875 0.12109375
vt 0.338415625 0.1171875
vt 0.5625 0.640625
vt 0.671875 0.640625
vt 0.671875 0.625
vt 0.5625 0.625
vt 0.03912499999999999 0.09391093750000001
vt 0.03125 0.09898437500000001
vt 0.08879218750000001 0.09898437500000001
vt 0.08735781249999999 0.09375
vt 0.16566484375 0.783728125
vt 0.006210156250000001 0.783728125
vt 0.05091796875000001 0.80183125
vt 0.16566484375 0.80183125
vt 0.3203125 0.12109375
vt 0.3203125 0.1171875
vt 0.302209375 0.1171875
vt 0.2984375 0.12109375
vt 0.3203125 0.125
vt 0.3203125 0.12109375
vt 0.2984375 0.12109375
vt 0.302209375 0.125
vt 0.08433515625 0.856896875
vt 0.24378984375 0.856896875
vt 0.24378984375 0.83879375
vt 0.12904296875000001 0.83879375
vt 0.734375 0.125
vt 0.7394477791517355 0.11712443764049207
vt 0.7396062579115573 0.06889188549836667
vt 0.734375 0.06745906439742633
vn -1 0 0
vn 0.2927211504136676 0.6380511711781884 -0.7121832847369006
vn 0 1 0
vn 0 -1 0
vn 0 0.6945945136995738 0.7194014606174028
vn 0 0.6945945136995738 -0.7194014606174028
vn 0.29049997263557015 -0.6332096177724534 -0.7173948326125554
vn 0 -0.6945945136995623 -0.719401460617414
vn -1 0 0
vn 0 -0.6945945136995623 0.719401460617414
vn 0.2927211504136714 -0.6380511711781764 0.7121832847369098
vn 0 -1 0
vn -1 0 0
vn -1 0 0
vn 0 1 0
vn 0.29049997263556643 0.6332096177724656 0.7173948326125463
usemtl m_743acc1f-0072-7819-3a38-c0be208073c2
f 111/367/93 112/368/93 97/369/93 106/370/93
f 113/371/94 108/372/94 105/373/94 101/374/94
f 112/375/95 113/376/95 101/377/95 97/378/95
f 109/379/96 110/380/96 99/381/96 103/382/96
f 107/383/97 104/384/97 100/385/97 96/386/97
f 105/387/98 106/388/98 97/389/98 101/390/98
f 108/391/99 109/392/99 103/393/99 105/394/99
f 106/395/100 105/396/100 103/397/100 99/398/100
f 110/399/101 111/400/101 106/401/101 99/402/101
f 104/403/102 107/404/102 98/405/102 102/406/102
f 109/407/103 108/408/103 104/409/103 102/410/103
f 110/411/104 109/412/104 102/413/104 98/414/104
f 111/415/105 110/416/105 98/417/105 107/418/105
f 112/419/106 111/420/106 107/421/106 96/422/106
f 113/423/107 112/424/107 96/425/107 100/426/107
f 108/427/108 113/428/108 100/429/108 104/430/108
o Arm
v 0.3343749999999953 1.0984375000000017 5.389023147467818e-16
v 0.15937499999999533 1.098437500000001 8.772126480466929e-16
v 0.3343749999999951 1.1315807628834884 -0.05624999999999942
v 0.15937499999999508 1.1315807628834877 -0.05624999999999908
v 0.33437499999999504 1.1546875000000014 -0.037362012883486
v 0.15937499999999502 1.1546875000000008 -0.03736201288348566
v 0.33437499999999515 1.1546875000000014 0.037362012883487165
v 0.1593749999999952 1.1546875000000008 0.037362012883487505
v 0.3343749999999953 1.1315807628834884 0.056250000000000556
v 0.1593749999999953 1.1315807628834877 0.056250000000000897
v 0.33437499999999554 1.065294237116515 0.056250000000000494
v 0.15937499999999558 1.0652942371165144 0.056250000000000834
v 0.3343749999999956 1.042187500000002 0.0373620128834871
v 0.15937499999999563 1.0421875000000014 0.03736201288348744
v 0.3343749999999955 1.042187500000002 -0.03736201288348612
v 0.15937499999999546 1.0421875000000014 -0.03736201288348578
v 0.3343749999999953 1.065294237116515 -0.05624999999999947
v 0.15937499999999535 1.0652942371165144 -0.05624999999999913
v 0.3177083333333285 1.1315807628834884 -0.056249999999999384
v 0.3177083333333287 1.065294237116515 -0.05624999999999944
v 0.29466911764705395 1.1315807628834882 -0.056249999999999335
v 0.29466911764705417 1.0652942371165148 -0.05624999999999939
v 0.3177083333333289 1.042187500000002 -0.03736201288348608
v 0.29466911764705433 1.0421875000000018 -0.03736201288348604
v 0.317708333333329 1.042187500000002 0.03736201288348714
v 0.29466911764705445 1.0421875000000018 0.03736201288348718
v 0.31770833333332893 1.065294237116515 0.05625000000000052
v 0.2946691176470544 1.0652942371165148 0.05625000000000057
v 0.3177083333333287 1.1315807628834884 0.05625000000000059
v 0.29466911764705417 1.1315807628834882 0.05625000000000064
v 0.31770833333332854 1.1546875000000014 0.03736201288348719
v 0.294669117647054 1.1546875000000012 0.03736201288348724
v 0.31770833333332843 1.1546875000000014 -0.03736201288348597
v 0.2946691176470539 1.1546875000000012 -0.03736201288348592
vt 0.7582859375 0.684375
vt 0.7640625 0.679653125
vt 0.75 0.6703125
vt 0.890625 0.6380515625000001
vt 0.8831625 0.6380515625000001
vt 0.8831625 0.671875
vt 0.890625 0.671875
vt 0.7640625 0.617221875
vt 0.7582859375 0.6125
vt 0.75 0.6265625
vt 0.7640625 0.679653125
vt 0.7640625 0.660971875
vt 0.75 0.6703125
vt 0.759340625 0.7943015625000001
vt 0.740659375 0.7943015625000001
vt 0.740659375 0.828125
vt 0.759340625 0.828125
vt 0.7640625 0.635903125
vt 0.7640625 0.617221875
vt 0.75 0.6265625
vt 0.7640625 0.660971875
vt 0.7582859375 0.65625
vt 0.75 0.6703125
vt 0.007462500000000011 0.09117656250000006
vt 0 0.09117656250000006
vt 0 0.125
vt 0.007462500000000011 0.125
vt 0.7582859375 0.640625
vt 0.7640625 0.635903125
vt 0.75 0.6265625
vt 0.7582859375 0.65625
vt 0.7417140625 0.65625
vt 0.75 0.6703125
vt 0.8051609375 0.6380515625000001
vt 0.7885890625 0.6380515625000001
vt 0.7885890625 0.671875
vt 0.8051609375 0.671875
vt 0.7417140625 0.640625
vt 0.7582859375 0.640625
vt 0.75 0.6265625
vt 0.7417140625 0.65625
vt 0.7359375 0.660971875
vt 0.75 0.6703125
vt 0.453125 0.09117656250000006
vt 0.4456640625 0.09117656250000006
vt 0.4456640625 0.125
vt 0.453125 0.125
vt 0.7359375 0.635903125
vt 0.7417140625 0.640625
vt 0.75 0.6265625
vt 0.7359375 0.660971875
vt 0.7359375 0.679653125
vt 0.75 0.6703125
vt 0.259340625 0.23180156250000006
vt 0.240659375 0.23180156250000006
vt 0.240659375 0.265625
vt 0.259340625 0.265625
vt 0.7359375 0.617221875
vt 0.7359375 0.635903125
vt 0.75 0.6265625
vt 0.7359375 0.679653125
vt 0.7417140625 0.684375
vt 0.75 0.6703125
vt 0.4137109375 0.09117656250000006
vt 0.40625 0.09117656250000006
vt 0.40625 0.125
vt 0.4137109375 0.125
vt 0.7417140625 0.6125
vt 0.7359375 0.617221875
vt 0.75 0.6265625
vt 0.7417140625 0.684375
vt 0.7582859375 0.684375
vt 0.75 0.6703125
vt 0.39891093749999995 0.18492656250000006
vt 0.38233906250000005 0.18492656250000006
vt 0.38233906250000005 0.21875
vt 0.39891093749999995 0.21875
vt 0.7582859375 0.6125
vt 0.7417140625 0.6125
vt 0.75 0.6265625
vt 0.38233906250000005 0.17916718750000005
vt 0.39891093749999995 0.17916718750000005
vt 0.39891093749999995 0.17500000000000004
vt 0.38233906250000005 0.17500000000000004
vt 0.38233906250000005 0.18492656250000006
vt 0.39891093749999995 0.18492656250000006
vt 0.39891093749999995 0.17916718750000005
vt 0.38233906250000005 0.17916718750000005
vt 0.40625 0.08541718750000005
vt 0.4137109375 0.08541718750000005
vt 0.4137109375 0.08125000000000004
vt 0.40625 0.08125000000000004
vt 0.40625 0.09117656250000006
vt 0.4137109375 0.09117656250000006
vt 0.4137109375 0.08541718750000005
vt 0.40625 0.08541718750000005
vt 0.240659375 0.22604218750000005
vt 0.259340625 0.22604218750000005
vt 0.259340625 0.22187500000000004
vt 0.240659375 0.22187500000000004
vt 0.240659375 0.23180156250000006
vt 0.259340625 0.23180156250000006
vt 0.259340625 0.22604218750000005
vt 0.240659375 0.22604218750000005
vt 0.4456640625 0.08541718750000005
vt 0.453125 0.08541718750000005
vt 0.453125 0.08125000000000004
vt 0.4456640625 0.08125000000000004
vt 0.4456640625 0.09117656250000006
vt 0.453125 0.09117656250000006
vt 0.453125 0.08541718750000005
vt 0.4456640625 0.08541718750000005
vt 0.7885890625 0.6322921875
vt 0.8051609375 0.6322921875
vt 0.8051609375 0.628125
vt 0.7885890625 0.628125
vt 0.7885890625 0.6380515625000001
vt 0.8051609375 0.6380515625000001
vt 0.8051609375 0.6322921875
vt 0.7885890625 0.6322921875
vt 0 0.08541718750000005
vt 0.007462500000000011 0.08541718750000005
vt 0.007462500000000011 0.08125000000000004
vt 0 0.08125000000000004
vt 0 0.09117656250000006
vt 0.007462500000000011 0.09117656250000006
vt 0.007462500000000011 0.08541718750000005
vt 0 0.08541718750000005
vt 0.740659375 0.7885421875
vt 0.759340625 0.7885421875
vt 0.759340625 0.784375
vt 0.740659375 0.784375
vt 0.740659375 0.7943015625000001
vt 0.759340625 0.7943015625000001
vt 0.759340625 0.7885421875
vt 0.740659375 0.7885421875
vt 0.8831625 0.6322921875
vt 0.890625 0.6322921875
vt 0.890625 0.628125
vt 0.8831625 0.628125
vt 0.8831625 0.6380515625000001
vt 0.890625 0.6380515625000001
vt 0.890625 0.6322921875
vt 0.8831625 0.6322921875
vn 1 3.996802888650565e-15 -1.9332019045709208e-15
vn -4.026292430662373e-15 0.6328859753093352 -0.7742450143570521
vn -1 -3.996802888650565e-15 1.9332019045709208e-15
vn 1 3.996802888650565e-15 -1.9332019045709208e-15
vn -3.996802888650562e-15 1 1.010643099614868e-15
vn -1 -3.996802888650565e-15 1.9332019045709208e-15
vn 1 3.996802888650565e-15 -1.9332019045709208e-15
vn -1.0327485579431824e-15 0.6328859753093342 0.7742450143570528
vn -1 -3.996802888650565e-15 1.9332019045709208e-15
vn 1 3.996802888650565e-15 -1.9332019045709208e-15
vn 1.9332019045709247e-15 -1.0106430996148602e-15 1
vn -1 -3.996802888650565e-15 1.9332019045709208e-15
vn 1 3.996802888650565e-15 -1.9332019045709208e-15
vn 4.026292430662372e-15 -0.6328859753093347 0.7742450143570525
vn -1 -3.996802888650565e-15 1.9332019045709208e-15
vn 1 3.996802888650565e-15 -1.9332019045709208e-15
vn 3.996802888650562e-15 -1 -1.010643099614868e-15
vn -1 -3.996802888650565e-15 1.9332019045709208e-15
vn 1 3.996802888650565e-15 -1.9332019045709208e-15
vn 1.0327485579431777e-15 -0.6328859753093334 -0.7742450143570535
vn -1 -3.996802888650565e-15 1.9332019045709208e-15
vn 1 3.996802888650565e-15 -1.9332019045709208e-15
vn -1.933201904570924e-15 8.012824845088422e-16 -1
vn -1 -3.996802888650565e-15 1.9332019045709208e-15
vn -1.933201904570924e-15 8.012824845088421e-16 -1
vn -1.933201904570924e-15 8.012824845088421e-16 -1
vn 1.0327485579431778e-15 -0.6328859753093334 -0.7742450143570534
vn 1.0327485579431777e-15 -0.6328859753093334 -0.7742450143570535
vn 3.996802888650562e-15 -1 -1.010643099614868e-15
vn 3.996802888650562e-15 -1 -1.010643099614868e-15
vn 4.026292430662372e-15 -0.6328859753093348 0.7742450143570525
vn 4.026292430662372e-15 -0.6328859753093348 0.7742450143570525
vn 1.9332019045709247e-15 -1.0106430996148602e-15 1
vn 1.9332019045709247e-15 -1.0106430996148602e-15 1
vn -1.0327485579431824e-15 0.6328859753093342 0.7742450143570527
vn -1.0327485579431824e-15 0.6328859753093342 0.7742450143570527
vn -3.996802888650562e-15 1 1.010643099614868e-15
vn -3.996802888650562e-15 1 1.010643099614868e-15
vn -4.026292430662373e-15 0.6328859753093352 -0.774245014357052
vn -4.026292430662373e-15 0.6328859753093352 -0.774245014357052
usemtl m_743acc1f-0072-7819-3a38-c0be208073c2
f 116/431/109 118/432/109 114/433/109
f 147/434/110 134/435/110 117/436/110 119/437/110
f 119/438/111 117/439/111 115/440/111
f 118/441/112 120/442/112 114/443/112
f 145/444/113 147/445/113 119/446/113 121/447/113
f 121/448/114 119/449/114 115/450/114
f 120/451/115 122/452/115 114/453/115
f 143/454/116 145/455/116 121/456/116 123/457/116
f 123/458/117 121/459/117 115/460/117
f 122/461/118 124/462/118 114/463/118
f 141/464/119 143/465/119 123/466/119 125/467/119
f 125/468/120 123/469/120 115/470/120
f 124/471/121 126/472/121 114/473/121
f 139/474/122 141/475/122 125/476/122 127/477/122
f 127/478/123 125/479/123 115/480/123
f 126/481/124 128/482/124 114/483/124
f 137/484/125 139/485/125 127/486/125 129/487/125
f 129/488/126 127/489/126 115/490/126
f 128/491/127 130/492/127 114/493/127
f 135/494/128 137/495/128 129/496/128 131/497/128
f 131/498/129 129/499/129 115/500/129
f 130/501/130 116/502/130 114/503/130
f 134/504/131 135/505/131 131/506/131 117/507/131
f 117/508/132 131/509/132 115/510/132
f 133/511/133 132/512/133 116/513/133 130/514/133
f 135/515/134 134/516/134 132/517/134 133/518/134
f 136/519/135 133/520/135 130/521/135 128/522/135
f 137/523/136 135/524/136 133/525/136 136/526/136
f 138/527/137 136/528/137 128/529/137 126/530/137
f 139/531/138 137/532/138 136/533/138 138/534/138
f 140/535/139 138/536/139 126/537/139 124/538/139
f 141/539/140 139/540/140 138/541/140 140/542/140
f 142/543/141 140/544/141 124/545/141 122/546/141
f 143/547/142 141/548/142 140/549/142 142/550/142
f 144/551/143 142/552/143 122/553/143 120/554/143
f 145/555/144 143/556/144 142/557/144 144/558/144
f 146/559/145 144/560/145 120/561/145 118/562/145
f 147/563/146 145/564/146 144/565/146 146/566/146
f 132/567/147 146/568/147 118/569/147 116/570/147
f 134/571/148 147/572/148 146/573/148 132/574/148
o cylinder
v 0.16875000052683556 1.0953124982877864 0.08750000000000059
v 0.16875000052683556 1.0953124982877844 -0.0874999999999997
v 0.23750000013863135 1.113734006716224 0.08750000000000036
v 0.23750000013863135 1.113734006716222 -0.08749999999999994
v 0.21907849248660222 1.1456409923687403 0.08750000000000004
v 0.21907849248660222 1.1456409923687385 -0.08750000000000026
v 0.18717150605767735 1.1640624986759907 0.08749999999999986
v 0.18717150605767735 1.1640624986759887 -0.08750000000000044
v 0.15032849209839794 1.1640624978995822 0.08749999999999987
v 0.15032849209839794 1.1640624978995802 -0.08750000000000042
v 0.11842150644588156 1.145640990247553 0.08750000000000008
v 0.11842150644588156 1.145640990247551 -0.08750000000000022
v 0.10000000013863133 1.113734003818628 0.08750000000000042
v 0.10000000013863133 1.1137340038186263 -0.08749999999999987
v 0.10000000091503974 1.0768909898593488 0.0875000000000008
v 0.10000000091503974 1.0768909898593468 -0.0874999999999995
v 0.1184215085670689 1.0449840042068324 0.08750000000000112
v 0.1184215085670689 1.0449840042068306 -0.08749999999999918
v 0.1503284949959938 1.0265624978995822 0.0875000000000013
v 0.1503284949959938 1.0265624978995802 -0.087499999999999
v 0.18717150895527312 1.0265624986759905 0.08750000000000129
v 0.18717150895527312 1.0265624986759887 -0.08749999999999901
v 0.21907849460778955 1.0449840063280198 0.08750000000000108
v 0.21907849460778955 1.0449840063280178 -0.08749999999999922
v 0.23750000091503978 1.0768909927569446 0.08750000000000073
v 0.23750000091503978 1.0768909927569428 -0.08749999999999956
vt 0.6842921875 0.9875
vt 0.6922703125 0.9828953125
vt 0.6796875 0.9703125
vt 0.203125 0.21875
vt 0.203125 0.171875
vt 0.1875 0.171875
vt 0.1875 0.21875
vt 0.6766453125 0.36085468750000005
vt 0.6686671875 0.35624999999999996
vt 0.6640625 0.3734375
vt 0.6922703125 0.9828953125
vt 0.696875 0.9749171875
vt 0.6796875 0.9703125
vt 0.140625 0.21875
vt 0.140625 0.171875
vt 0.125 0.171875
vt 0.125 0.21875
vt 0.68125 0.3688328125
vt 0.6766453125 0.36085468750000005
vt 0.6640625 0.3734375
vt 0.696875 0.9749171875
vt 0.696875 0.9657078125
vt 0.6796875 0.9703125
vt 0.015625 0.234375
vt 0.015625 0.1875
vt 0 0.1875
vt 0 0.234375
vt 0.68125 0.37804218749999996
vt 0.68125 0.3688328125
vt 0.6640625 0.3734375
vt 0.696875 0.9657078125
vt 0.6922703125 0.9577296875
vt 0.6796875 0.9703125
vt 0.171875 0.21875
vt 0.171875 0.171875
vt 0.15625 0.171875
vt 0.15625 0.21875
vt 0.6766453125 0.3860203125
vt 0.68125 0.37804218749999996
vt 0.6640625 0.3734375
vt 0.6922703125 0.9577296875
vt 0.6842921875 0.953125
vt 0.6796875 0.9703125
vt 0.796875 0.734375
vt 0.796875 0.6875
vt 0.78125 0.6875
vt 0.78125 0.734375
vt 0.6686671875 0.390625
vt 0.6766453125 0.3860203125
vt 0.6640625 0.3734375
vt 0.6842921875 0.953125
vt 0.6750828125 0.953125
vt 0.6796875 0.9703125
vt 0.046875 0.21875
vt 0.046875 0.171875
vt 0.03125 0.171875
vt 0.03125 0.21875
vt 0.6594578125 0.390625
vt 0.6686671875 0.390625
vt 0.6640625 0.3734375
vt 0.6750828125 0.953125
vt 0.6671046875 0.9577296875
vt 0.6796875 0.9703125
vt 0.296875 0.21875
vt 0.296875 0.171875
vt 0.28125 0.171875
vt 0.28125 0.21875
vt 0.6514796875 0.3860203125
vt 0.6594578125 0.390625
vt 0.6640625 0.3734375
vt 0.6671046875 0.9577296875
vt 0.6625 0.9657078125
vt 0.6796875 0.9703125
vt 0.078125 0.21875
vt 0.078125 0.171875
vt 0.0625 0.171875
vt 0.0625 0.21875
vt 0.646875 0.37804218749999996
vt 0.6514796875 0.3860203125
vt 0.6640625 0.3734375
vt 0.6625 0.9657078125
vt 0.6625 0.9749171875
vt 0.6796875 0.9703125
vt 0.640625 0.234375
vt 0.640625 0.1875
vt 0.625 0.1875
vt 0.625 0.234375
vt 0.646875 0.3688328125
vt 0.646875 0.37804218749999996
vt 0.6640625 0.3734375
vt 0.6625 0.9749171875
vt 0.6671046875 0.9828953125
vt 0.6796875 0.9703125
vt 0.109375 0.21875
vt 0.109375 0.171875
vt 0.09375 0.171875
vt 0.09375 0.21875
vt 0.6514796875 0.36085468750000005
vt 0.646875 0.3688328125
vt 0.6640625 0.3734375
vt 0.6671046875 0.9828953125
vt 0.6750828125 0.9875
vt 0.6796875 0.9703125
vt 0.796875 0.84375
vt 0.796875 0.796875
vt 0.78125 0.796875
vt 0.78125 0.84375
vt 0.6594578125 0.35624999999999996
vt 0.6514796875 0.36085468750000005
vt 0.6640625 0.3734375
vt 0.6750828125 0.9875
vt 0.6842921875 0.9875
vt 0.6796875 0.9703125
vt 0.78125 0.265625
vt 0.78125 0.21875
vt 0.765625 0.21875
vt 0.765625 0.265625
vt 0.6686671875 0.35624999999999996
vt 0.6594578125 0.35624999999999996
vt 0.6640625 0.3734375
vn 4.4408899109558276e-16 1.038058528960369e-14 1
vn 0.8660253932477264 0.5000000182501207 -5.329070712713109e-15
vn -4.4408899109558276e-16 -1.038058528960369e-14 -1
vn 4.4408899109558276e-16 1.038058528960369e-14 1
vn 0.4999999817498788 0.8660254143211508 -9.230221006942868e-15
vn -4.4408899109558276e-16 -1.038058528960369e-14 -1
vn 4.4408899109558276e-16 1.038058528960369e-14 1
vn -2.1073424449902227e-8 0.9999999999999998 -1.0658141036401495e-14
vn -4.4408899109558276e-16 -1.038058528960369e-14 -1
vn 4.4408899109558276e-16 1.038058528960369e-14 1
vn -0.5000000182501206 0.8660253932477263 -9.230220782339336e-15
vn -4.4408899109558276e-16 -1.038058528960369e-14 -1
vn 4.4408899109558276e-16 1.038058528960369e-14 1
vn -0.8660254143211508 0.4999999817498792 -5.329070323688387e-15
vn -4.4408899109558276e-16 -1.038058528960369e-14 -1
vn 4.4408899109558276e-16 1.038058528960369e-14 1
vn -0.9999999999999998 -2.1073423363488276e-8 2.246035183278565e-22
vn -4.4408899109558276e-16 -1.038058528960369e-14 -1
vn 4.4408899109558276e-16 1.038058528960369e-14 1
vn -0.8660253932477265 -0.5000000182501205 5.3290707127131075e-15
vn -4.4408899109558276e-16 -1.038058528960369e-14 -1
vn 4.4408899109558276e-16 1.038058528960369e-14 1
vn -0.49999998174987864 -0.8660254143211509 9.230221006942868e-15
vn -4.4408899109558276e-16 -1.038058528960369e-14 -1
vn 4.4408899109558276e-16 1.038058528960369e-14 1
vn 2.1073424449902227e-8 -0.9999999999999998 1.0658141036401495e-14
vn -4.4408899109558276e-16 -1.038058528960369e-14 -1
vn 4.4408899109558276e-16 1.038058528960369e-14 1
vn 0.5000000182501204 -0.8660253932477265 9.230220782339339e-15
vn -4.4408899109558276e-16 -1.038058528960369e-14 -1
vn 4.4408899109558276e-16 1.038058528960369e-14 1
vn 0.8660254143211508 -0.49999998174987903 5.329070323688386e-15
vn -4.4408899109558276e-16 -1.038058528960369e-14 -1
vn 4.4408899109558276e-16 1.038058528960369e-14 1
vn 0.9999999999999998 2.107342411683532e-8 -2.2460352635713555e-22
vn -4.4408899109558276e-16 -1.038058528960369e-14 -1
usemtl m_743acc1f-0072-7819-3a38-c0be208073c2
f 150/575/149 152/576/149 148/577/149
f 153/578/150 152/579/150 150/580/150 151/581/150
f 153/582/151 151/583/151 149/584/151
f 152/585/152 154/586/152 148/587/152
f 155/588/153 154/589/153 152/590/153 153/591/153
f 155/592/154 153/593/154 149/594/154
f 154/595/155 156/596/155 148/597/155
f 157/598/156 156/599/156 154/600/156 155/601/156
f 157/602/157 155/603/157 149/604/157
f 156/605/158 158/606/158 148/607/158
f 159/608/159 158/609/159 156/610/159 157/611/159
f 159/612/160 157/613/160 149/614/160
f 158/615/161 160/616/161 148/617/161
f 161/618/162 160/619/162 158/620/162 159/621/162
f 161/622/163 159/623/163 149/624/163
f 160/625/164 162/626/164 148/627/164
f 163/628/165 162/629/165 160/630/165 161/631/165
f 163/632/166 161/633/166 149/634/166
f 162/635/167 164/636/167 148/637/167
f 165/638/168 164/639/168 162/640/168 163/641/168
f 165/642/169 163/643/169 149/644/169
f 164/645/170 166/646/170 148/647/170
f 167/648/171 166/649/171 164/650/171 165/651/171
f 167/652/172 165/653/172 149/654/172
f 166/655/173 168/656/173 148/657/173
f 169/658/174 168/659/174 166/660/174 167/661/174
f 169/662/175 167/663/175 149/664/175
f 168/665/176 170/666/176 148/667/176
f 171/668/177 170/669/177 168/670/177 169/671/177
f 171/672/178 169/673/178 149/674/178
f 170/675/179 172/676/179 148/677/179
f 173/678/180 172/679/180 170/680/180 171/681/180
f 173/682/181 171/683/181 149/684/181
f 172/685/182 150/686/182 148/687/182
f 151/688/183 150/689/183 172/690/183 173/691/183
f 151/692/184 173/693/184 149/694/184