# Made in Blockbench 5.1.5
mtllib StingerBody.mtl

o cylinder
v -0.1375 0.0015625000000000222 0
v -0.1375 0.46406249999999993 0
v -0.14888202154467206 0.1265624999999999 -0.020833333333333322
v -0.17287658773652742 0.46406249999999993 -0.06249999999999999
v -0.16026404308934414 0.1265624999999999 -1.4730211648957032e-18
v -0.2082531754730548 0.46406249999999993 -4.419063494687111e-18
v -0.14888202154467206 0.1265624999999999 0.020833333333333322
v -0.17287658773652742 0.46406249999999993 0.06249999999999999
v -0.12611797845532796 0.1265624999999999 0.020833333333333322
v -0.10212341226347262 0.46406249999999993 0.06249999999999999
v -0.11473595691065591 0.1265624999999999 4.419063494687109e-18
v -0.06674682452694522 0.46406249999999993 1.3257190484061335e-17
v -0.12611797845532796 0.1265624999999999 -0.020833333333333308
v -0.10212341226347257 0.46406249999999993 -0.062499999999999965
v -0.10743500961929618 0.3703124999999997 0.05113636363636363
v -0.16756499038070388 0.3703124999999997 0.05113636363636363
v -0.19762998076140767 0.3703124999999997 -3.615597404744e-18
v -0.16756499038070388 0.3703124999999997 -0.05113636363636363
v -0.10743500961929615 0.3703124999999997 -0.05113636363636361
v -0.0773700192385923 0.3703124999999997 1.0846792214232001e-17
vt 0.44704375 0.6878850950417985
vt 0.44110942771409584 0.6879101079913702
vt 0.4441822600074209 0.65625
vt 0.4351734375 0.7729304075417984
vt 0.4369484375 0.7493522825417984
vt 0.451778125 0.7493522825417984
vt 0.453125 0.7728991575417985
vt 0.67084375 0.484375
vt 0.6619984375 0.46875
vt 0.6796875 0.46875
vt 0.4338875 0.5472851079913702
vt 0.42795317771409586 0.5472600950417985
vt 0.4308146677066749 0.515625
vt 0.421875 0.6322757329913702
vt 0.423221875 0.6087272954913703
vt 0.4380515625 0.6087272954913703
vt 0.4398265625 0.6323038579913702
vt 0.6619984375 0.46875
vt 0.67084375 0.453125
vt 0.6796875 0.46875
vt 0.3622203125 0.45355625
vt 0.3565296875 0.45355625
vt 0.359375 0.421875
vt 0.35053125 0.5385703125
vt 0.351859375 0.5149625
vt 0.366890625 0.5149625
vt 0.36821875 0.5385703125
vt 0.67084375 0.453125
vt 0.68853125 0.453125
vt 0.6796875 0.46875
vt 0.2751703125 0.5003850982181973
vt 0.2692359901863337 0.5004101045803302
vt 0.2723088576241966 0.46875
vt 0.2632984375 0.5854319732181974
vt 0.265075 0.5618522857181973
vt 0.2799046875 0.5618522857181973
vt 0.28125 0.5853991607181974
vt 0.68853125 0.453125
vt 0.6973765625 0.46875
vt 0.6796875 0.46875
vt 0.3088875 0.5004101045803302
vt 0.3029531776863337 0.5003850982181973
vt 0.3058146325621371 0.46875
vt 0.296875 0.5854022920803302
vt 0.2982203125 0.5618522920803303
vt 0.31305 0.5618522920803303
vt 0.3148265625 0.5854304170803303
vt 0.6973765625 0.46875
vt 0.68853125 0.484375
vt 0.6796875 0.46875
vt 0.4715953125 0.48480625
vt 0.4659046875 0.48480625
vt 0.46875 0.453125
vt 0.45990625 0.5698203125
vt 0.461234375 0.5462125
vt 0.476265625 0.5462125
vt 0.47759375 0.5698203125
vt 0.68853125 0.484375
vt 0.67084375 0.484375
vt 0.6796875 0.46875
vt 0.3622203125 0.45355625
vt 0.366890625 0.5149625
vt 0.351859375 0.5149625
vt 0.3565296875 0.45355625
vt 0.4338875 0.5472851079913702
vt 0.4380515625 0.6087272954913703
vt 0.423221875 0.6087272954913703
vt 0.42795625 0.5472601079913701
vt 0.44704375 0.6878850950417985
vt 0.451778125 0.7493522825417984
vt 0.4369484375 0.7493522825417984
vt 0.4411125 0.6879100950417985
vt 0.4715953125 0.48480625
vt 0.476265625 0.5462125
vt 0.461234375 0.5462125
vt 0.4659046875 0.48480625
vt 0.3088875 0.5004101045803302
vt 0.31305 0.5618522920803303
vt 0.2982203125 0.5618522920803303
vt 0.3029546875 0.5003851045803303
vt 0.2751703125 0.5003850982181973
vt 0.2799046875 0.5618522857181973
vt 0.265075 0.5618522857181973
vt 0.2692375 0.5004100982181974
vn -0.8665729060379 -0.15781362378483946 -0.4734408713545188
vn -0.8568521961008084 -0.10961041872495059 -0.5037756148764677
vn 0 1 0
vn -0.8665729060379 -0.15781362378483946 0.4734408713545188
vn -0.8579628239329583 -0.09721926542927382 0.5044285947271189
vn 0 1 0
vn 0 -0.16439898730535735 0.9863939238321437
vn 0 -0.12033136751923706 0.9927337820337084
vn 0 1 0
vn 0.8665729060379005 -0.15781362378483935 0.47344087135451796
vn 0.8568521961008075 -0.1096104187249509 0.5037756148764688
vn 0 1 0
vn 0.8665729060379006 -0.15781362378483935 -0.4734408713545182
vn 0.857962823932958 -0.09721926542927327 -0.5044285947271199
vn 0 1 0
vn 6.013415769832127e-16 -0.1643989873053573 -0.9863939238321437
vn 3.436791913682552e-16 -0.12033136751923701 -0.9927337820337084
vn 0 1 0
vn 0 -0.12337040461478195 0.9923606921201511
vn -0.8549529489998317 -0.1280211261033934 0.5026589761137369
vn -0.8546164771655422 -0.1310094195663023 -0.502461151674494
vn 2.936325039410051e-16 -0.12337040461478192 -0.9923606921201511
vn 0.8549529489998311 -0.12802112610339342 -0.5026589761137379
vn 0.8546164771655415 -0.13100941956630247 0.5024611516744952
usemtl m_743acc1f-0072-7819-3a38-c0be208073c2
f 5/1/1 3/2/1 1/3/1
f 4/4/2 18/5/2 17/6/2 6/7/2
f 4/8/3 6/9/3 2/10/3
f 7/11/4 5/12/4 1/13/4
f 6/14/5 17/15/5 16/16/5 8/17/5
f 6/18/6 8/19/6 2/20/6
f 9/21/7 7/22/7 1/23/7
f 8/24/8 16/25/8 15/26/8 10/27/8
f 8/28/9 10/29/9 2/30/9
f 11/31/10 9/32/10 1/33/10
f 10/34/11 15/35/11 20/36/11 12/37/11
f 10/38/12 12/39/12 2/40/12
f 13/41/13 11/42/13 1/43/13
f 12/44/14 20/45/14 19/46/14 14/47/14
f 12/48/15 14/49/15 2/50/15
f 3/51/16 13/52/16 1/53/16
f 14/54/17 19/55/17 18/56/17 4/57/17
f 14/58/18 4/59/18 2/60/18
f 9/61/19 15/62/19 16/63/19 7/64/19
f 7/65/20 16/66/20 17/67/20 5/68/20
f 5/69/21 17/70/21 18/71/21 3/72/21
f 3/73/22 18/74/22 19/75/22 13/76/22
f 13/77/23 19/78/23 20/79/23 11/80/23
f 11/81/24 20/82/24 15/83/24 9/84/24
o Thigh
v -0.21874999999999978 0.7828125000000001 -0.09000000000000077
v -0.21875000000000033 0.7828125000000001 0.08999999999999925
v -0.21249999999999972 0.45781249999999996 -0.09000000000000072
v -0.21250000000000027 0.45781249999999996 0.0899999999999993
v -0.05624999999999984 0.7378125000000002 -0.09000000000000029
v -0.05625000000000037 0.7378125000000002 0.08999999999999973
v -0.05624999999999981 0.45781249999999996 -0.09000000000000026
v -0.056250000000000334 0.45781249999999996 0.08999999999999976
v -0.28124999999999967 0.6775625000000001 -0.13125000000000095
v -0.28125000000000044 0.6775625000000001 0.13124999999999906
v -0.05625000000000043 0.6775625000000001 0.11249999999999973
v -0.056249999999999765 0.6775625000000001 -0.11250000000000028
v -0.13749999999999965 0.6775625000000001 -0.13125000000000053
v -0.13749999999999976 0.7853125000000001 -0.09000000000000054
v -0.13750000000000032 0.7853125000000001 0.08999999999999948
v -0.13750000000000043 0.6775625000000001 0.13124999999999948
v -0.1375000000000003 0.45781249999999996 0.08999999999999952
v -0.13749999999999973 0.45781249999999996 -0.0900000000000005
v -0.20331875000000033 0.5074759999999999 0.09932249999999931
v -0.1375000000000004 0.6278990000000001 0.1219274999999995
v -0.13750000000000032 0.5074759999999999 0.09932249999999951
v -0.07461250000000039 0.6278990000000001 0.1095337499999997
v -0.07461250000000035 0.5074759999999999 0.09720374999999971
v -0.20331875000000058 0.49594530875518306 0.18412983051433518
v -0.13155747657480965 0.49605050920379357 0.1841298305143354
v -0.06272745314961879 0.4961557096524041 0.1841298305143356
v -0.24099375000000042 0.627899 0.12192749999999919
v -0.13248451022913937 0.4978328857680018 0.170899886954099
v -0.19258750817283563 0.49775230222436606 0.1708998869540988
v -0.19258750817283546 0.5056854178008001 0.11255244356023575
v -0.13657296634567057 0.5056936234357917 0.11255244356023592
v -0.0748554872854432 0.4979134693116374 0.17073462445409918
v -0.0830323995185057 0.5057018290707833 0.11092948106023608
v -0.13253004210051236 0.5365422428178287 0.16051530355903518
v -0.19263940398789317 0.5364586425634392 0.16053753178633073
v -0.19263940398789306 0.5443917581398733 0.11781508839246768
v -0.1366184982170436 0.5444029804856186 0.11779286016517208
v -0.0748946552131316 0.5366258430722181 0.1603278128317396
v -0.08307156744619416 0.544414202831364 0.11614766943787651
vt 0.1553125 0.6875
vt 0.165625 0.75
vt 0.1 0.75
vt 0.11031250000000001 0.6875
vt 0.24125000000000002 0.6643749999999999
vt 0.246875 0.7193125
vt 0.190625 0.7193125
vt 0.19625 0.6643749999999999
vt 0.796875 0.28125
vt 0.796875 0.296875
vt 0.75 0.296875
vt 0.75 0.28125
vt 0.57421875 0.7793749999999999
vt 0.55546875 0.7793749999999999
vt 0.55546875 0.734375
vt 0.57421875 0.734375
vt 0.403125 0.9308984375
vt 0.3671875 0.9308984375
vt 0.3671875 0.875
vt 0.3859375 0.875
vt 0.5732110557975917 0.5715632812447339
vt 0.5911516807975917 0.5715929687447339
vt 0.5896548057975917 0.6080382812447339
vt 0.5637829307975917 0.6080304687447339
vt 0.4853125 0.828125
vt 0.475 0.796875
vt 0.540625 0.796875
vt 0.5303125 0.828125
vt 0.5810172902464593 0.6899062499999999
vt 0.6169547902464593 0.6899062499999999
vt 0.6169547902464593 0.71875
vt 0.5966422902464593 0.718165625
vt 0.19625 0.734375
vt 0.190625 0.7193125
vt 0.246875 0.7193125
vt 0.24125000000000002 0.734375
vt 0.5597259151833237 0.436830345498573
vt 0.5394149776833237 0.437499095498573
vt 0.5392931026833238 0.40865534549857296
vt 0.5752290401833237 0.408505345498573
vt 0.5185209598166763 0.4104189435234116
vt 0.5392931026833238 0.40865534549857296
vt 0.5394149815051608 0.4375
vt 0.5186158146223133 0.4264966796893678
vt 0.625 0.359375
vt 0.625 0.390625
vt 0.578125 0.390625
vt 0.578125 0.359375
vt 0.6377057534504922 0.7076594864214094
vt 0.6169547902464593 0.71875
vt 0.6169547902464593 0.6899072957766775
vt 0.6377327097535407 0.6915828435591385
vt 0.6056239575587004 0.609375
vt 0.5896548057975917 0.6080382812447339
vt 0.5911517050616876 0.5715923779722527
vt 0.6080920692024083 0.5716102010639044
vt 0.53515625 0.734375
vt 0.55546875 0.734375
vt 0.55546875 0.7793749999999999
vt 0.53515625 0.7793749999999999
vt 0.346875 0.875
vt 0.3671875 0.875
vt 0.3671875 0.9308984375
vt 0.346875 0.9300328125
vt 0.13271492013473823 0.622025542493762
vt 0.11626023263473824 0.622025542493762
vt 0.11396492013473825 0.6093927299937619
vt 0.13271492013473823 0.6093927299937619
vt 0.10684148263473824 0.6526583549937619
vt 0.13271492013473823 0.6526583549937619
vt 0.13271492013473823 0.6652911674937619
vt 0.09677742013473824 0.6652911674937619
vt 0.11626023263473824 0.622025542493762
vt 0.10684148263473824 0.6526583549937619
vt 0.09677742013473824 0.6652911674937619
vt 0.11396492013473825 0.6093927299937619
vt 0.13253660417241364 0.6525844736778164
vt 0.14855676468747997 0.6521906690669882
vt 0.1532225022248826 0.6646000714990296
vt 0.13239653098323878 0.6651979751173126
vt 0.1484458571662727 0.6219263120931919
vt 0.13271492013473823 0.622025542493762
vt 0.13271492013473823 0.6093924786627741
vt 0.15301531460992118 0.6093909892443543
vt 0.14855676468747997 0.6521906690669882
vt 0.1484458571662727 0.6219263120931919
vt 0.15302114311330434 0.609375
vt 0.15322257986526178 0.6646002779981526
vt 0.8902913238146433 0.6875772172937257
vt 0.9053196832979362 0.6875
vt 0.9053680511853568 0.6983626512324325
vt 0.8913631529419017 0.69843144024863
vt 0.8059670363453465 0.171875
vt 0.8059670363453465 0.20954216711561446
vt 0.7877829636546535 0.1831533783086987
vt 0.8758819488146432 0.6876928422937256
vt 0.8902913238146433 0.6875772172937257
vt 0.8913631988146432 0.6984319047937257
vt 0.8779772613146433 0.6988990922937257
vt 0.78125 0.3603722628238206
vt 0.803364596887753 0.3603722628238206
vt 0.8041876837375431 0.390625
vt 0.7726701991336878 0.5661547508091377
vt 0.7576451864406597 0.5660060276625101
vt 0.7574459005330391 0.5626670310455195
vt 0.7753850210856417 0.5628424412521638
vt 0.7725275452493998 0.5808761588582144
vt 0.7726701991336878 0.5661547508091377
vt 0.7753849488122041 0.5628425294317948
vt 0.7751782752809603 0.5842387358100201
vt 0.7585232119036596 0.580733933809198
vt 0.7725271738058199 0.5808773463474264
vt 0.775175055374828 0.58424357011514
vt 0.758721233707149 0.5840738978987129
vt 0.7576451864406597 0.5660060276625101
vt 0.743238440574229 0.5659078399584044
vt 0.7402399789143583 0.5625
vt 0.7574459369551306 0.5626676412905786
vt 0.745133753074229 0.5810047149584043
vt 0.7585232119036596 0.580733933809198
vt 0.7587212703904744 0.5840745166234574
vt 0.7429942156025073 0.5844445410908072
vt 0.743238440574229 0.5659078399584044
vt 0.745133753074229 0.5810047149584043
vt 0.742994690574229 0.5844437774584044
vt 0.740240003074229 0.5625000274584044
vt 0.18659842654284686 0.10376718750000002
vt 0.17157186404284688 0.10378906249999997
vt 0.17155936404284688 0.09377031250000001
vt 0.1865859265428469 0.09375
vt 0.59375 0.671875
vt 0.5819953261991305 0.6713488791997542
vt 0.578125 0.65625
vt 0.59375 0.65625
vt 0.906550047235476 0.6035661961083761
vt 0.892545359735476 0.6035630711083761
vt 0.8925578597354761 0.5937974461083761
vt 0.906562547235476 0.5938005711083761
vt 0.17157186404284688 0.10378906249999997
vt 0.15716407685967732 0.10382285772610644
vt 0.1571515734571531 0.09380099003858566
vt 0.17155936210249978 0.09376875731179501
vt 0.9199437025880256 0.6035157468740419
vt 0.906550047235476 0.6035661961083761
vt 0.9065625473994747 0.5938004429844266
vt 0.919954640264524 0.59375
vt 0.07180935734558755 0.06630826959634228
vt 0.07226566449992011 0.0776994145215325
vt 0.0625 0.0776994145215325
vt 0.06256502973696826 0.0625
vn -0.9543833300869371 -0.29858409075529896 -2.7911837094709262e-15
vn 1 1.224646799147357e-16 2.9629076969683865e-15
vn -0.03075467578697342 0.9995269630766537 -2.135300152063207e-16
vn 1.224646799147353e-16 -1 1.224646799147357e-16
vn 2.9346406306888284e-15 -0.18449105991707082 -0.9828341919218501
vn -0.00062545901539985 0.42664965799090127 0.9044167613093355
vn -0.8598267248336418 0.5105859411126135 -2.6101159649160362e-15
vn -2.810852588492444e-15 0.3575266466594671 0.9339029376377592
vn 1 1.224646799147357e-16 2.9629076969683865e-15
vn -0.011000154308799517 0.3575050150360804 -0.933846433215459
vn 0.2106788743805564 0.3495020769886212 -0.9129417889823982
vn 0.5046965873311549 0.8632967941190827 1.3896460376739453e-15
vn 0.20459424438013132 0.34996383907128276 0.9141479675134724
vn 0.17488765055865482 0.42653343409977224 0.8874026928498296
vn 1.224646799147353e-16 -1 1.224646799147357e-16
vn 2.934640630688828e-15 -0.18449105991707082 -0.98283419192185
vn -2.8894533534890796e-15 -0.18449105991707077 0.9828341919218501
vn -2.6915416703609382e-15 -0.1844910599170708 0.9828341919218502
vn -3.319025217779851e-15 -0.18449105991707082 0.98283419192185
vn 0.1917431606458332 -0.12900493603146118 0.9729297440334861
vn 0.033094641429348814 -0.1843899998330525 0.9822958172924436
vn 0.11403573136975866 -0.10119211657384834 0.9883096718712556
vn 0.0012999130773049764 -0.9831922533821192 -0.18256862576955044
vn -0.9557295562835085 -0.29156393074317816 -0.03964201730128376
vn 0.0008376175302184987 -0.9834762297053844 -0.18103536671422865
vn 0.9909269450354423 0.013689684814345756 -0.13370258835343987
vn 0.0013287353924479222 -0.9910333668248871 -0.1336080098721107
vn 0.0007576777739245413 -0.9908829027138852 -0.1347237879281014
vn 0.0001451653212926487 -0.9909493865736866 -0.134235957091474
vn 0.001010574913214026 -0.9913809288320085 -0.13100699480000674
vn -0.0038872270386744053 -0.9910750838508514 -0.13324814308641478
vn -0.001282477334218036 -0.9916481951984761 -0.12896593430628167
vn 0.000003201823780335839 -0.25910868813640175 -0.9658481701188759
vn 0.9999989703681664 0.0014108949588553887 0.0002619885916108765
vn 0.00042015542469951353 -0.1347232616056173 0.9908831748757084
vn -0.0027649385418055472 -0.2596087154996624 -0.9657099305440923
vn 0.03046065521265146 -0.1340573432370524 0.9905053140737001
vn -0.9837720750729728 -0.024945529153630654 0.1776801195459493
usemtl m_743acc1f-0072-7819-3a38-c0be208073c2
f 24/85/25 30/86/25 29/87/25 23/88/25
f 27/89/26 32/90/26 31/91/26 28/92/26
f 22/93/27 35/94/27 34/95/27 21/96/27
f 23/97/28 38/98/28 37/99/28 24/100/28
f 29/101/29 33/102/29 38/103/29 23/104/29
f 44/105/30 45/106/30 40/107/30 47/108/30
f 21/109/31 29/110/31 30/111/31 22/112/31
f 30/113/32 36/114/32 35/115/32 22/116/32
f 26/117/33 31/118/33 32/119/33 25/120/33
f 21/121/34 34/122/34 33/123/34 29/124/34
f 32/125/35 33/126/35 34/127/35 25/128/35
f 25/129/36 34/130/36 35/131/36 26/132/36
f 26/133/37 35/134/37 36/135/37 31/136/37
f 42/137/38 40/138/38 45/139/38 46/140/38
f 28/141/39 37/142/39 38/143/39 27/144/39
f 27/145/40 38/146/40 33/147/40 32/148/40
f 41/149/41 39/150/41 24/151/41 37/152/41
f 47/153/42 40/154/42 36/155/42 30/156/42
f 39/157/43 47/158/43 30/159/43 24/160/43
f 40/161/44 42/162/44 31/163/44 36/164/44
f 43/165/45 41/166/45 37/167/45 28/168/45
f 42/169/46 43/170/46 28/171/46 31/172/46
f 54/173/47 55/174/47 56/175/47 57/176/47
f 44/177/48 47/178/48 39/179/48
f 58/180/49 54/181/49 57/182/49 59/183/49
f 46/184/50 43/185/50 42/186/50
f 49/187/51 48/188/51 45/189/51 44/190/51
f 50/191/52 49/192/52 44/193/52 39/194/52
f 51/195/53 50/196/53 39/197/53 41/198/53
f 48/199/54 52/200/54 46/201/54 45/202/54
f 53/203/55 51/204/55 41/205/55 43/206/55
f 52/207/56 53/208/56 43/209/56 46/210/56
f 55/211/57 54/212/57 48/213/57 49/214/57
f 56/215/58 55/216/58 49/217/58 50/218/58
f 57/219/59 56/220/59 50/221/59 51/222/59
f 54/223/60 58/224/60 52/225/60 48/226/60
f 59/227/61 57/228/61 51/229/61 53/230/61
f 58/231/62 59/232/62 53/233/62 52/234/62
o cylinder
v 0.1375 0.0015625000000000222 0
v 0.1375 0.46406249999999993 0
v 0.14888202154467206 0.1265624999999999 -0.020833333333333322
v 0.17287658773652742 0.46406249999999993 -0.06249999999999999
v 0.16026404308934414 0.1265624999999999 -1.4730211648957032e-18
v 0.2082531754730548 0.46406249999999993 -4.419063494687111e-18
v 0.14888202154467206 0.1265624999999999 0.020833333333333322
v 0.17287658773652742 0.46406249999999993 0.06249999999999999
v 0.12611797845532796 0.1265624999999999 0.020833333333333322
v 0.10212341226347262 0.46406249999999993 0.06249999999999999
v 0.11473595691065591 0.1265624999999999 4.419063494687109e-18
v 0.06674682452694522 0.46406249999999993 1.3257190484061335e-17
v 0.12611797845532796 0.1265624999999999 -0.020833333333333308
v 0.10212341226347257 0.46406249999999993 -0.062499999999999965
v 0.10743500961929618 0.3703124999999997 0.05113636363636363
v 0.16756499038070388 0.3703124999999997 0.05113636363636363
v 0.19762998076140767 0.3703124999999997 -3.615597404744e-18
v 0.16756499038070388 0.3703124999999997 -0.05113636363636363
v 0.10743500961929615 0.3703124999999997 -0.05113636363636361
v 0.0773700192385923 0.3703124999999997 1.0846792214232001e-17
vt 0.44110942771409584 0.6879101079913702
vt 0.44704375 0.6878850950417985
vt 0.4441822600074209 0.65625
vt 0.451778125 0.7493522825417984
vt 0.4369484375 0.7493522825417984
vt 0.4351734375 0.7729304075417984
vt 0.453125 0.7728991575417985
vt 0.6619984375 0.46875
vt 0.67084375 0.484375
vt 0.6796875 0.46875
vt 0.42795317771409586 0.5472600950417985
vt 0.4338875 0.5472851079913702
vt 0.4308146677066749 0.515625
vt 0.4380515625 0.6087272954913703
vt 0.423221875 0.6087272954913703
vt 0.421875 0.6322757329913702
vt 0.4398265625 0.6323038579913702
vt 0.67084375 0.453125
vt 0.6619984375 0.46875
vt 0.6796875 0.46875
vt 0.3565296875 0.45355625
vt 0.3622203125 0.45355625
vt 0.359375 0.421875
vt 0.366890625 0.5149625
vt 0.351859375 0.5149625
vt 0.35053125 0.5385703125
vt 0.36821875 0.5385703125
vt 0.68853125 0.453125
vt 0.67084375 0.453125
vt 0.6796875 0.46875
vt 0.2692359901863337 0.5004101045803302
vt 0.2751703125 0.5003850982181973
vt 0.2723088576241966 0.46875
vt 0.2799046875 0.5618522857181973
vt 0.265075 0.5618522857181973
vt 0.2632984375 0.5854319732181974
vt 0.28125 0.5853991607181974
vt 0.6973765625 0.46875
vt 0.68853125 0.453125
vt 0.6796875 0.46875
vt 0.3029531776863337 0.5003850982181973
vt 0.3088875 0.5004101045803302
vt 0.3058146325621371 0.46875
vt 0.31305 0.5618522920803303
vt 0.2982203125 0.5618522920803303
vt 0.296875 0.5854022920803302
vt 0.3148265625 0.5854304170803303
vt 0.68853125 0.484375
vt 0.6973765625 0.46875
vt 0.6796875 0.46875
vt 0.4659046875 0.48480625
vt 0.4715953125 0.48480625
vt 0.46875 0.453125
vt 0.476265625 0.5462125
vt 0.461234375 0.5462125
vt 0.45990625 0.5698203125
vt 0.47759375 0.5698203125
vt 0.67084375 0.484375
vt 0.68853125 0.484375
vt 0.6796875 0.46875
vt 0.351859375 0.5149625
vt 0.366890625 0.5149625
vt 0.3622203125 0.45355625
vt 0.3565296875 0.45355625
vt 0.423221875 0.6087272954913703
vt 0.4380515625 0.6087272954913703
vt 0.4338875 0.5472851079913702
vt 0.42795625 0.5472601079913701
vt 0.4369484375 0.7493522825417984
vt 0.451778125 0.7493522825417984
vt 0.44704375 0.6878850950417985
vt 0.4411125 0.6879100950417985
vt 0.461234375 0.5462125
vt 0.476265625 0.5462125
vt 0.4715953125 0.48480625
vt 0.4659046875 0.48480625
vt 0.2982203125 0.5618522920803303
vt 0.31305 0.5618522920803303
vt 0.3088875 0.5004101045803302
vt 0.3029546875 0.5003851045803303
vt 0.265075 0.5618522857181973
vt 0.2799046875 0.5618522857181973
vt 0.2751703125 0.5003850982181973
vt 0.2692375 0.5004100982181974
vn 0.8665729060379 -0.15781362378483946 -0.4734408713545188
vn 0.8568521961008085 -0.10961041872495057 -0.5037756148764675
vn 0 1 0
vn 0.8665729060379 -0.15781362378483946 0.4734408713545188
vn 0.8579628239329585 -0.09721926542927385 0.5044285947271189
vn 0 1 0
vn 0 -0.16439898730535735 0.9863939238321437
vn 0 -0.12033136751923706 0.9927337820337084
vn 0 1 0
vn -0.8665729060379005 -0.15781362378483935 0.47344087135451796
vn -0.8568521961008078 -0.10961041872495093 0.5037756148764688
vn 0 1 0
vn -0.8665729060379006 -0.15781362378483935 -0.4734408713545182
vn -0.857962823932958 -0.09721926542927327 -0.5044285947271199
vn 0 1 0
vn -6.013415769832127e-16 -0.1643989873053573 -0.9863939238321437
vn -3.43679191368256e-16 -0.12033136751923702 -0.9927337820337084
vn 0 1 0
vn 0 -0.12337040461478194 0.9923606921201511
vn 0.8549529489998317 -0.1280211261033934 0.5026589761137369
vn 0.8546164771655423 -0.1310094195663023 -0.5024611516744941
vn -3.4355002961097574e-16 -0.12337040461478191 -0.9923606921201511
vn -0.8549529489998312 -0.12802112610339345 -0.5026589761137379
vn -0.8546164771655415 -0.13100941956630247 0.5024611516744952
usemtl m_743acc1f-0072-7819-3a38-c0be208073c2
f 62/235/63 64/236/63 60/237/63
f 76/238/64 77/239/64 63/240/64 65/241/64
f 65/242/65 63/243/65 61/244/65
f 64/245/66 66/246/66 60/247/66
f 75/248/67 76/249/67 65/250/67 67/251/67
f 67/252/68 65/253/68 61/254/68
f 66/255/69 68/256/69 60/257/69
f 74/258/70 75/259/70 67/260/70 69/261/70
f 69/262/71 67/263/71 61/264/71
f 68/265/72 70/266/72 60/267/72
f 79/268/73 74/269/73 69/270/73 71/271/73
f 71/272/74 69/273/74 61/274/74
f 70/275/75 72/276/75 60/277/75
f 78/278/76 79/279/76 71/280/76 73/281/76
f 73/282/77 71/283/77 61/284/77
f 72/285/78 62/286/78 60/287/78
f 77/288/79 78/289/79 73/290/79 63/291/79
f 63/292/80 73/293/80 61/294/80
f 75/295/81 74/296/81 68/297/81 66/298/81
f 76/299/82 75/300/82 66/301/82 64/302/82
f 77/303/83 76/304/83 64/305/83 62/306/83
f 78/307/84 77/308/84 62/309/84 72/310/84
f 79/311/85 78/312/85 72/313/85 70/314/85
f 74/315/86 79/316/86 70/317/86 68/318/86
o Thigh
v 0.21874999999999978 0.7828125000000001 -0.09000000000000077
v 0.21875000000000033 0.7828125000000001 0.08999999999999925
v 0.21249999999999972 0.45781249999999996 -0.09000000000000072
v 0.21250000000000027 0.45781249999999996 0.0899999999999993
v 0.05624999999999984 0.7378125000000002 -0.09000000000000029
v 0.05625000000000037 0.7378125000000002 0.08999999999999973
v 0.05624999999999981 0.45781249999999996 -0.09000000000000026
v 0.056250000000000334 0.45781249999999996 0.08999999999999976
v 0.28124999999999967 0.6775625000000001 -0.13125000000000095
v 0.28125000000000044 0.6775625000000001 0.13124999999999906
v 0.05625000000000043 0.6775625000000001 0.11249999999999973
v 0.056249999999999765 0.6775625000000001 -0.11250000000000028
v 0.13749999999999965 0.6775625000000001 -0.13125000000000053
v 0.13749999999999976 0.7853125000000001 -0.09000000000000054
v 0.13750000000000032 0.7853125000000001 0.08999999999999948
v 0.13750000000000043 0.6775625000000001 0.13124999999999948
v 0.1375000000000003 0.45781249999999996 0.08999999999999952
v 0.13749999999999973 0.45781249999999996 -0.0900000000000005
v 0.20331875000000033 0.5074759999999999 0.09932249999999931
v 0.1375000000000004 0.6278990000000001 0.1219274999999995
v 0.13750000000000032 0.5074759999999999 0.09932249999999951
v 0.07461250000000039 0.6278990000000001 0.1095337499999997
v 0.07461250000000035 0.5074759999999999 0.09720374999999971
v 0.20331875000000058 0.49594530875518306 0.18412983051433518
v 0.13155747657480965 0.49605050920379357 0.1841298305143354
v 0.06272745314961879 0.4961557096524041 0.1841298305143356
v 0.24099375000000042 0.627899 0.12192749999999919
v 0.13248451022913937 0.4978328857680018 0.170899886954099
v 0.19258750817283563 0.49775230222436606 0.1708998869540988
v 0.19258750817283546 0.5056854178008001 0.11255244356023575
v 0.13657296634567057 0.5056936234357917 0.11255244356023592
v 0.0748554872854432 0.4979134693116374 0.17073462445409918
v 0.0830323995185057 0.5057018290707833 0.11092948106023608
v 0.13253004210051236 0.5365422428178287 0.16051530355903518
v 0.19263940398789317 0.5364586425634392 0.16053753178633073
v 0.19263940398789306 0.5443917581398733 0.11781508839246768
v 0.1366184982170436 0.5444029804856186 0.11779286016517208
v 0.0748946552131316 0.5366258430722181 0.1603278128317396
v 0.08307156744619416 0.544414202831364 0.11614766943787651
vt 0.1 0.75
vt 0.165625 0.75
vt 0.1553125 0.6875
vt 0.11031250000000001 0.6875
vt 0.190625 0.7193125
vt 0.246875 0.7193125
vt 0.24125000000000002 0.6643749999999999
vt 0.19625 0.6643749999999999
vt 0.75 0.296875
vt 0.796875 0.296875
vt 0.796875 0.28125
vt 0.75 0.28125
vt 0.55546875 0.734375
vt 0.55546875 0.7793749999999999
vt 0.57421875 0.7793749999999999
vt 0.57421875 0.734375
vt 0.3671875 0.875
vt 0.3671875 0.9308984375
vt 0.403125 0.9308984375
vt 0.3859375 0.875
vt 0.5896548057975917 0.6080382812447339
vt 0.5911516807975917 0.5715929687447339
vt 0.5732110557975917 0.5715632812447339
vt 0.5637829307975917 0.6080304687447339
vt 0.540625 0.796875
vt 0.475 0.796875
vt 0.4853125 0.828125
vt 0.5303125 0.828125
vt 0.6169547902464593 0.71875
vt 0.6169547902464593 0.6899062499999999
vt 0.5810172902464593 0.6899062499999999
vt 0.5966422902464593 0.718165625
vt 0.246875 0.7193125
vt 0.190625 0.7193125
vt 0.19625 0.734375
vt 0.24125000000000002 0.734375
vt 0.5392931026833238 0.40865534549857296
vt 0.5394149776833237 0.437499095498573
vt 0.5597259151833237 0.436830345498573
vt 0.5752290401833237 0.408505345498573
vt 0.5394149815051608 0.4375
vt 0.5392931026833238 0.40865534549857296
vt 0.5185209598166763 0.4104189435234116
vt 0.5186158146223133 0.4264966796893678
vt 0.578125 0.390625
vt 0.625 0.390625
vt 0.625 0.359375
vt 0.578125 0.359375
vt 0.6169547902464593 0.6899072957766775
vt 0.6169547902464593 0.71875
vt 0.6377057534504922 0.7076594864214094
vt 0.6377327097535407 0.6915828435591385
vt 0.5911517050616876 0.5715923779722527
vt 0.5896548057975917 0.6080382812447339
vt 0.6056239575587004 0.609375
vt 0.6080920692024083 0.5716102010639044
vt 0.55546875 0.7793749999999999
vt 0.55546875 0.734375
vt 0.53515625 0.734375
vt 0.53515625 0.7793749999999999
vt 0.3671875 0.9308984375
vt 0.3671875 0.875
vt 0.346875 0.875
vt 0.346875 0.9300328125
vt 0.11396492013473825 0.6093927299937619
vt 0.11626023263473824 0.622025542493762
vt 0.13271492013473823 0.622025542493762
vt 0.13271492013473823 0.6093927299937619
vt 0.13271492013473823 0.6652911674937619
vt 0.13271492013473823 0.6526583549937619
vt 0.10684148263473824 0.6526583549937619
vt 0.09677742013473824 0.6652911674937619
vt 0.09677742013473824 0.6652911674937619
vt 0.10684148263473824 0.6526583549937619
vt 0.11626023263473824 0.622025542493762
vt 0.11396492013473825 0.6093927299937619
vt 0.1532225022248826 0.6646000714990296
vt 0.14855676468747997 0.6521906690669882
vt 0.13253660417241364 0.6525844736778164
vt 0.13239653098323878 0.6651979751173126
vt 0.13271492013473823 0.6093924786627741
vt 0.13271492013473823 0.622025542493762
vt 0.1484458571662727 0.6219263120931919
vt 0.15301531460992118 0.6093909892443543
vt 0.15302114311330434 0.609375
vt 0.1484458571662727 0.6219263120931919
vt 0.14855676468747997 0.6521906690669882
vt 0.15322257986526178 0.6646002779981526
vt 0.9053680511853568 0.6983626512324325
vt 0.9053196832979362 0.6875
vt 0.8902913238146433 0.6875772172937257
vt 0.8913631529419017 0.69843144024863
vt 0.8059670363453465 0.20954216711561446
vt 0.8059670363453465 0.171875
vt 0.7877829636546535 0.1831533783086987
vt 0.8913631988146432 0.6984319047937257
vt 0.8902913238146433 0.6875772172937257
vt 0.8758819488146432 0.6876928422937256
vt 0.8779772613146433 0.6988990922937257
vt 0.803364596887753 0.3603722628238206
vt 0.78125 0.3603722628238206
vt 0.8041876837375431 0.390625
vt 0.7574459005330391 0.5626670310455195
vt 0.7576451864406597 0.5660060276625101
vt 0.7726701991336878 0.5661547508091377
vt 0.7753850210856417 0.5628424412521638
vt 0.7753849488122041 0.5628425294317948
vt 0.7726701991336878 0.5661547508091377
vt 0.7725275452493998 0.5808761588582144
vt 0.7751782752809603 0.5842387358100201
vt 0.775175055374828 0.58424357011514
vt 0.7725271738058199 0.5808773463474264
vt 0.7585232119036596 0.580733933809198
vt 0.758721233707149 0.5840738978987129
vt 0.7402399789143583 0.5625
vt 0.743238440574229 0.5659078399584044
vt 0.7576451864406597 0.5660060276625101
vt 0.7574459369551306 0.5626676412905786
vt 0.7587212703904744 0.5840745166234574
vt 0.7585232119036596 0.580733933809198
vt 0.745133753074229 0.5810047149584043
vt 0.7429942156025073 0.5844445410908072
vt 0.742994690574229 0.5844437774584044
vt 0.745133753074229 0.5810047149584043
vt 0.743238440574229 0.5659078399584044
vt 0.740240003074229 0.5625000274584044
vt 0.17155936404284688 0.09377031250000001
vt 0.17157186404284688 0.10378906249999997
vt 0.18659842654284686 0.10376718750000002
vt 0.1865859265428469 0.09375
vt 0.578125 0.65625
vt 0.5819953261991305 0.6713488791997542
vt 0.59375 0.671875
vt 0.59375 0.65625
vt 0.8925578597354761 0.5937974461083761
vt 0.892545359735476 0.6035630711083761
vt 0.906550047235476 0.6035661961083761
vt 0.906562547235476 0.5938005711083761
vt 0.1571515734571531 0.09380099003858566
vt 0.15716407685967732 0.10382285772610644
vt 0.17157186404284688 0.10378906249999997
vt 0.17155936210249978 0.09376875731179501
vt 0.9065625473994747 0.5938004429844266
vt 0.906550047235476 0.6035661961083761
vt 0.9199437025880256 0.6035157468740419
vt 0.919954640264524 0.59375
vt 0.0625 0.0776994145215325
vt 0.07226566449992011 0.0776994145215325
vt 0.07180935734558755 0.06630826959634228
vt 0.06256502973696826 0.0625
vn 0.954383330086937 -0.29858409075529896 -2.791183709470926e-15
vn -1 1.224646799147357e-16 2.9629076969683865e-15
vn 0.03075467578697342 0.9995269630766537 -2.135300152063207e-16
vn -1.224646799147353e-16 -1 1.224646799147357e-16
vn -2.9346406306888284e-15 -0.18449105991707082 -0.9828341919218501
vn 0.0006254590153998398 0.4266496579909012 0.9044167613093352
vn 0.8598267248336418 0.5105859411126135 -2.6101159649160362e-15
vn 2.810852588492444e-15 0.3575266466594671 0.9339029376377592
vn -1 1.224646799147357e-16 2.9629076969683865e-15
vn 0.011000154308799467 0.3575050150360804 -0.933846433215459
vn -0.2106788743805564 0.3495020769886212 -0.9129417889823982
vn -0.5046965873311549 0.8632967941190827 1.3896460376739453e-15
vn -0.20459424438013132 0.34996383907128276 0.9141479675134724
vn -0.17488765055865482 0.42653343409977224 0.8874026928498296
vn -1.224646799147353e-16 -1 1.224646799147357e-16
vn -2.934640630688828e-15 -0.18449105991707082 -0.98283419192185
vn 2.8894533534890796e-15 -0.18449105991707074 0.9828341919218501
vn 2.6925003133688496e-15 -0.1844910599170708 0.9828341919218502
vn 3.462215839210109e-15 -0.18449105991707077 0.9828341919218502
vn -0.1917431606458332 -0.1290049360314612 0.9729297440334861
vn -0.03309464142934881 -0.1843899998330525 0.9822958172924436
vn -0.11403573136975866 -0.10119211657384836 0.9883096718712556
vn -0.0012999130773049703 -0.9831922533821192 -0.18256862576955044
vn 0.9557295562835085 -0.2915639307431781 -0.0396420173012838
vn -0.0008376175302184877 -0.9834762297053844 -0.18103536671422865
vn -0.9909269450354423 0.013689684814345762 -0.13370258835343987
vn -0.0013287353924479237 -0.9910333668248871 -0.1336080098721107
vn -0.0007576777739245843 -0.9908829027138852 -0.1347237879281014
vn -0.0001451653212926459 -0.9909493865736866 -0.134235957091474
vn -0.0010105749132140263 -0.9913809288320085 -0.13100699480000674
vn 0.0038872270386744057 -0.9910750838508514 -0.13324814308641475
vn 0.0012824773342181234 -0.9916481951984761 -0.12896593430628167
vn -0.000003201823780332103 -0.2591086881364017 -0.9658481701188759
vn -0.9999989703681664 0.0014108949588553887 0.0002619885916108765
vn -0.0004201554246995144 -0.1347232616056173 0.9908831748757084
vn 0.002764938541805547 -0.25960871549966236 -0.9657099305440923
vn -0.030460655212651448 -0.1340573432370524 0.9905053140737001
vn 0.9837720750729728 -0.024945529153630658 0.17768011954594926
usemtl m_743acc1f-0072-7819-3a38-c0be208073c2
f 88/319/87 89/320/87 83/321/87 82/322/87
f 90/323/88 91/324/88 86/325/88 87/326/88
f 93/327/89 94/328/89 81/329/89 80/330/89
f 96/331/90 97/332/90 82/333/90 83/334/90
f 97/335/91 92/336/91 88/337/91 82/338/91
f 99/339/92 104/340/92 103/341/92 106/342/92
f 89/343/93 88/344/93 80/345/93 81/346/93
f 94/347/94 95/348/94 89/349/94 81/350/94
f 91/351/95 90/352/95 85/353/95 84/354/95
f 92/355/96 93/356/96 80/357/96 88/358/96
f 93/359/97 92/360/97 91/361/97 84/362/97
f 94/363/98 93/364/98 84/365/98 85/366/98
f 95/367/99 94/368/99 85/369/99 90/370/99
f 104/371/100 99/372/100 101/373/100 105/374/100
f 97/375/101 96/376/101 87/377/101 86/378/101
f 92/379/102 97/380/102 86/381/102 91/382/102
f 83/383/103 98/384/103 100/385/103 96/386/103
f 95/387/104 99/388/104 106/389/104 89/390/104
f 89/391/105 106/392/105 98/393/105 83/394/105
f 90/395/106 101/396/106 99/397/106 95/398/106
f 96/399/107 100/400/107 102/401/107 87/402/107
f 87/403/108 102/404/108 101/405/108 90/406/108
f 115/407/109 114/408/109 113/409/109 116/410/109
f 106/411/110 103/412/110 98/413/110
f 116/414/111 113/415/111 117/416/111 118/417/111
f 102/418/112 105/419/112 101/420/112
f 104/421/113 107/422/113 108/423/113 103/424/113
f 103/425/114 108/426/114 109/427/114 98/428/114
f 98/429/115 109/430/115 110/431/115 100/432/115
f 105/433/116 111/434/116 107/435/116 104/436/116
f 100/437/117 110/438/117 112/439/117 102/440/117
f 102/441/118 112/442/118 111/443/118 105/444/118
f 107/445/119 113/446/119 114/447/119 108/448/119
f 108/449/120 114/450/120 115/451/120 109/452/120
f 109/453/121 115/454/121 116/455/121 110/456/121
f 111/457/122 117/458/122 113/459/122 107/460/122
f 110/461/123 116/462/123 118/463/123 112/464/123
f 112/465/124 118/466/124 117/467/124 111/468/124
o Pelvis
v -0.13749999999999984 0.8703124999999996 -0.10036764705882407
v -0.13750000000000046 0.8703124999999996 0.10036764705882299
v -0.13749999999999982 0.7491039078674948 -0.10036764705882406
v -0.13750000000000043 0.7491039078674948 0.100367647058823
v 0.13750000000000018 0.8703124999999996 -0.10036764705882326
v 0.13749999999999957 0.8703124999999996 0.10036764705882381
v 0.1375000000000002 0.7491039078674948 -0.10036764705882324
v 0.1374999999999996 0.7491039078674948 0.10036764705882383
v -0.04583333333333308 0.6890625 -0.13125000000000026
v -0.04583333333333386 0.6890625 0.13124999999999976
v 0.04583333333333361 0.6890625 -0.13124999999999998
v 0.04583333333333283 0.6890625 0.13125000000000003
v -0.04583333333333388 0.8703124999999996 0.13124999999999973
v 0.04583333333333281 0.8703124999999996 0.13125
v -0.0458333333333331 0.8703124999999996 -0.13125000000000028
v 0.04583333333333359 0.8703124999999996 -0.13125
vt 0.109375 0.390625
vt 0.0625 0.390625
vt 0.0625 0.359375
vt 0.109375 0.359375
vt 0.5625 0.359375
vt 0.5625 0.390625
vt 0.515625 0.390625
vt 0.515625 0.359375
vt 0.1921875 0.9420953125
vt 0.2151046875 0.934375
vt 0.2151046875 1
vt 0.1921875 0.9922796875
vt 0.4827203125 1
vt 0.475 0.96875
vt 0.540625 0.96875
vt 0.5329046875 1
vt 0.4375 0.34469843749999995
vt 0.46875 0.3296875
vt 0.46875 0.375
vt 0.4375 0.375
vt 0.65625 0.546875
vt 0.625 0.546875
vt 0.625 0.5015625
vt 0.65625 0.5165734375
vt 0.4827203125 0.875
vt 0.475 0.84375
vt 0.540625 0.84375
vt 0.5329046875 0.875
vt 0.359375 0.328125
vt 0.34375 0.328125
vt 0.34375 0.265625
vt 0.359375 0.265625
vt 0 0.32907343749999995
vt 0.03125 0.3140625
vt 0.03125 0.359375
vt 0 0.359375
vt 0.46875 0.59375
vt 0.484375 0.59375
vt 0.484375 0.640625
vt 0.46875 0.640625
vt 0.2609375 0.9922796875
vt 0.2380203125 1
vt 0.2380203125 0.934375
vt 0.2609375 0.9420953125
vt 0.2380203125 1
vt 0.2151046875 1
vt 0.2151046875 0.934375
vt 0.2380203125 0.934375
vt 0.234375 0.359375
vt 0.203125 0.359375
vt 0.203125 0.3140625
vt 0.234375 0.32907343749999995
vt 0.359375 0.25
vt 0.34375 0.25
vt 0.34375 0.203125
vt 0.359375 0.203125
vn -1 -1.224646799147357e-16 -2.9629076969683865e-15
vn 1 1.224646799147357e-16 2.9629076969683865e-15
vn -1.224646799147353e-16 1 -1.224646799147357e-16
vn 0.547923688440741 -0.8365283208866833 1.7258924868893783e-15
vn 0.3192667777280183 -7.695657244431613e-17 -0.9476648799228387
vn 0.31926677772801265 1.5515437992805709e-16 0.9476648799228407
vn -0.5479236884407408 -0.8365283208866834 -1.5210021407753805e-15
vn 1.224646799147353e-16 -1 1.224646799147357e-16
vn -0.3192667777280184 7.695657244431611e-17 0.9476648799228387
vn -2.9629076969683865e-15 1.224646799147353e-16 1
vn -1.224646799147353e-16 1 -1.224646799147357e-16
vn -1.224646799147353e-16 1 -1.224646799147357e-16
vn -0.31926677772801276 -1.551543799280571e-16 -0.9476648799228407
vn 2.9629076969683865e-15 -1.224646799147353e-16 -1
usemtl m_743acc1f-0072-7819-3a38-c0be208073c2
f 120/469/125 119/470/125 121/471/125 122/472/125
f 125/473/126 123/474/126 124/475/126 126/476/126
f 123/477/127 134/478/127 132/479/127 124/480/127
f 126/481/128 130/482/128 129/483/128 125/484/128
f 125/485/129 129/486/129 134/487/129 123/488/129
f 124/489/130 132/490/130 130/491/130 126/492/130
f 121/493/131 127/494/131 128/495/131 122/496/131
f 127/497/132 129/498/132 130/499/132 128/500/132
f 122/501/133 128/502/133 131/503/133 120/504/133
f 128/505/134 130/506/134 132/507/134 131/508/134
f 120/509/135 131/510/135 133/511/135 119/512/135
f 131/513/136 132/514/136 134/515/136 133/516/136
f 119/517/137 133/518/137 127/519/137 121/520/137
f 133/521/138 134/522/138 129/523/138 127/524/138
o Body
v -0.1687499999999998 1.0101500427735617 -0.13660714285714354
v -0.16875000000000054 1.0101500427735617 0.11160714285714224
v -0.1214999999999999 0.8765625000000004 -0.08928571428571479
v -0.12150000000000043 0.8765625000000004 0.08928571428571382
v 0.16875000000000034 1.0101500427735617 -0.13660714285714254
v 0.1687499999999996 1.0101500427735617 0.11160714285714324
v 0.12150000000000018 0.8765625000000004 -0.08928571428571407
v 0.12149999999999965 0.8765625000000004 0.08928571428571454
v -6.101982099765442e-16 1.0101500427735617 0.15624999999999992
v -5.012475887799218e-16 0.8765625000000004 0.12499999999999993
v 2.394793354621751e-16 0.8765625000000004 -0.1250000000000002
v 3.9361015899762223e-16 0.9789000427735612 -0.18125000000000022
v -0.12149999999999991 0.9433562713867811 -0.0892857142857148
v -0.12150000000000044 0.9433562713867811 0.0892857142857138
v 0.12149999999999964 0.9433562713867811 0.08928571428571452
v 0.12150000000000016 0.9433562713867811 -0.08928571428571408
v 2.3129945762899496e-16 0.9433562713867811 -0.1250000000000002
v 0.16875000000000032 1.1704550941018361 -0.13660714285714257
v 3.6677431274968055e-16 1.1980313569339043 -0.18125000000000024
v -6.332070349771504e-16 1.1980313569339043 0.1562499999999999
v 0.16874999999999957 1.1704550941018361 0.11160714285714322
v -0.16875000000000057 1.1704550941018361 0.11160714285714222
v -0.16874999999999982 1.1704550941018361 -0.13660714285714357
v -0.10631250000000043 1.1871535369485313 0.07521350931676972
v 1.417382526130869e-16 1.1980313569339043 -0.10529891304347846
v -4.822436672647665e-16 1.1980313569339043 0.10529891304347813
v -0.10631249999999999 1.1871535369485313 -0.07521350931677069
v 0.1063125000000001 1.1871535369485313 -0.07521350931677005
v 0.10631249999999966 1.1871535369485313 0.07521350931677036
v -0.09095488903426244 1.265461706373783 0.06065605590062068
v 7.35040632590989e-17 1.2621220178044434 -0.08491847826086978
v -4.2970716244884735e-16 1.2621220178044434 0.08491847826086941
v -0.09095488903426208 1.265461706373783 -0.060656055900621585
v 0.09095488903426208 1.265461706373783 -0.06065605590062104
v 0.09095488903426172 1.265461706373783 0.060656055900621224
v -0.04218750000000061 1.1666574298317933 0.14508928571428548
v -0.12656250000000058 1.1666574298317933 0.12276785714285664
v -0.12656250000000055 1.030235838459639 0.12276785714285665
v -0.0421875000000006 1.030235838459639 0.14508928571428548
v 0.12656249999999952 1.1666574298317933 0.12276785714285739
v 0.04218749999999942 1.1666574298317933 0.14508928571428573
v 0.042187499999999434 1.030235838459639 0.14508928571428573
v 0.12656249999999955 1.030235838459639 0.1227678571428574
v 0.13629699789948177 1.1666574298317933 0.16443925920290103
v 0.0810570789188053 1.1666574298317933 0.18676068777432941
v 0.08105707891880531 1.0552358384596394 0.18676068777432941
v 0.13629699789948177 1.0552358384596394 0.16443925920290103
v -0.08105707891880674 1.1666574298317933 0.18676068777432892
v -0.1362969978994831 1.1666574298317933 0.16443925920290017
v -0.1362969978994831 1.0552358384596394 0.1644392592029002
v -0.08105707891880673 1.0552358384596394 0.18676068777432894
v -5.09427466613102e-16 0.9433562713867811 0.12499999999999992
v -5.850055241356836e-16 0.9934515999268665 0.14843749999999992
v -5.346201524539625e-16 0.9600547142334763 0.13281249999999992
v 0.0970312499999996 0.9600547142334761 0.10491071428571447
v 0.12065624999999956 0.9934515999268665 0.11607142857142881
v -0.12065625000000053 0.9934515999268665 0.1160714285714281
v -0.09703125000000049 0.9600547142334761 0.10491071428571389
v -0.00008158850586289661 1.0043154492078743 0.1268080837730917
v -0.00008158850586284622 0.9709185635144841 0.11118308377309168
v 0.09073002259751083 0.9703069559282909 0.08299756587081922
v 0.11435502259751079 1.0037038416216812 0.09415828015653357
v -0.1145181996092364 1.0049270567940671 0.09472574453250687
v -0.09089319960923635 0.9715301711006767 0.08356503024679265
v -0.1265624999999998 1.1455446141237762 -0.1946428571428577
v 3.7348327431166597e-16 1.1588735283938185 -0.22812500000000024
v 3.8690119743563686e-16 1.049307871313647 -0.22812500000000022
v -0.1265624999999998 1.0653920884596388 -0.1946428571428577
v 0.1265625000000003 1.1455446141237762 -0.19464285714285695
v 0.1265625000000003 1.0653920884596388 -0.19464285714285695
vt 0.328125 0.75
vt 0.328125 0.765625
vt 0.28125 0.765625
vt 0.28125 0.75
vt 0.75 0.234375
vt 0.75 0.25
vt 0.703125 0.25
vt 0.703125 0.234375
vt 0.4770234375 0.703125
vt 0.4709578125 0.6803703125
vt 0.5134171875 0.6803703125
vt 0.5073515625 0.703125
vt 0.32725 0.725446875
vt 0.296875 0.734375
vt 0.296875 0.671875
vt 0.32725 0.680803125
vt 0.375 0.84375
vt 0.375 0.859375
vt 0.34375 0.859375
vt 0.34375 0.84375
vt 0.859375 0.625
vt 0.859375 0.640625
vt 0.828125 0.640625
vt 0.828125 0.625
vt 0.859375 0.5
vt 0.859375 0.515625
vt 0.828125 0.515625
vt 0.828125 0.5
vt 0.2665 0.680803125
vt 0.296875 0.671875
vt 0.296875 0.734375
vt 0.2665 0.725446875
vt 0.859375 0.46875
vt 0.859375 0.484375
vt 0.828125 0.484375
vt 0.828125 0.46875
vt 0.5073515625 0.657615625
vt 0.5134171875 0.6803703125
vt 0.4709578125 0.6803703125
vt 0.4770234375 0.657615625
vt 0.1877234375 0.90625
vt 0.199553125 0.890625
vt 0.244196875 0.890625
vt 0.2497765625 0.90625
vt 0.9000285436219723 0.7640808833594619
vt 0.890625 0.7591870205468597
vt 0.890625 0.735458261696426
vt 0.8997597242521853 0.734375
vt 0.23587950327872617 0.10315170486874559
vt 0.23699417929532002 0.0940008501595242
vt 0.26076531866374847 0.09375
vt 0.265625 0.10315170486874559
vt 0.6877234375 0.328125
vt 0.693303125 0.3125
vt 0.737946875 0.3125
vt 0.7497765625 0.328125
vt 0 0.45973437500000003
vt 0.007996875 0.4375
vt 0.03965625 0.4375
vt 0.043621875 0.45308281250000004
vt 0.5498084628010552 0.27032646856140286
vt 0.5518001911308117 0.2538118348045275
vt 0.5832292531723938 0.25
vt 0.59375 0.27032646856140286
vt 0.125 0.265625
vt 0.09375 0.26229218749999994
vt 0.09375 0.2422546875
vt 0.125 0.23823281249999995
vt 0.40625 0.546875
vt 0.390625 0.546875
vt 0.390625 0.515625
vt 0.40625 0.515625
vt 0.328125 0.65625
vt 0.265625 0.65625
vt 0.265625 0.609375
vt 0.328125 0.609375
vt 0.015625 0.171875
vt 0 0.171875
vt 0 0.140625
vt 0.015625 0.140625
vt 0.765625 0.9185421874999999
vt 0.734375 0.921875
vt 0.734375 0.8944828125
vt 0.765625 0.8985046875
vt 0.40625 0.6875
vt 0.34375 0.6875
vt 0.34375 0.640625
vt 0.40625 0.640625
vt 0.35796768057160633 0.9995934905269036
vt 0.34988057289592117 0.9730433384247235
vt 0.3588763685689917 0.9568271320203336
vt 0.37048428961893193 0.999390255202628
vt 0.3122750853810681 0.9732828125
vt 0.30475321038106806 1
vt 0.28576571038106807 1
vt 0.2969266478810681 0.9573296875
vt 0.34988057289592117 0.9730433384247235
vt 0.3122750853810681 0.9732828125
vt 0.29682406721292626 0.9572230654271375
vt 0.358875934055409 0.95682791529312
vt 0.3516115469698209 0.8277975698185271
vt 0.34367213054833734 0.8012021610150262
vt 0.35893224402664775 0.7849603742201798
vt 0.3704429321402189 0.8275454703418414
vt 0.30606644285978113 0.8014078125
vt 0.2985445678597811 0.828125
vt 0.2858070678597811 0.828125
vt 0.29696800535978113 0.7854546875
vt 0.34367213054833734 0.8012021610150262
vt 0.30606644285978113 0.8014078124999999
vt 0.29687978167411644 0.7852999968198289
vt 0.35893197881818 0.7849606564893382
vt 0.8717206602384568 0.6063951617413039
vt 0.8483615722388224 0.609375
vt 0.84375 0.59375
vt 0.8714775627637268 0.59375
vt 0.6875 0.17972370657023384
vt 0.684866442892105 0.203125
vt 0.668052026397597 0.203125
vt 0.6677409261438362 0.1754113558759225
vt 0.8354765625 0.953125
vt 0.8051484375 0.953125
vt 0.801509375 0.9375
vt 0.839115625 0.9375
vt 0.5435956602384568 0.15327016174130392
vt 0.5202365722388224 0.15625
vt 0.515625 0.140625
vt 0.5433525627637268 0.140625
vt 0.828125 0.24222370657023384
vt 0.825491442892105 0.265625
vt 0.808677026397597 0.265625
vt 0.8083659261438362 0.2379113558759225
vt 0.8354765625 0.875
vt 0.8051484375 0.875
vt 0.801509375 0.859375
vt 0.839115625 0.859375
vt 0.104659375 0.52340625
vt 0.1264796875 0.52340625
vt 0.1373890625 0.53125
vt 0.09375 0.52435625
vt 0.104659375 0.4893015625
vt 0.104659375 0.52340625
vt 0.09375 0.52435625
vt 0.09375 0.48427968749999994
vt 0.1264796875 0.4893015625
vt 0.104659375 0.4893015625
vt 0.09375 0.48427968749999994
vt 0.1373890625 0.48427968749999994
vt 0.1264796875 0.52340625
vt 0.1264796875 0.4893015625
vt 0.1373890625 0.48427968749999994
vt 0.1373890625 0.53125
vt 0.4828953125 0.77340625
vt 0.504715625 0.77340625
vt 0.515625 0.77435625
vt 0.4719859375 0.78125
vt 0.4828953125 0.7393015625
vt 0.4828953125 0.77340625
vt 0.4719859375 0.78125
vt 0.4719859375 0.7342796875
vt 0.504715625 0.7393015625
vt 0.4828953125 0.7393015625
vt 0.4719859375 0.7342796875
vt 0.515625 0.7342796875
vt 0.504715625 0.77340625
vt 0.504715625 0.7393015625
vt 0.515625 0.7342796875
vt 0.515625 0.77435625
vt 0.9100636339354261 0.796875
vt 0.8953449761635306 0.7945829573334636
vt 0.8953449761635306 0.783885108154737
vt 0.9171550238364694 0.7845183712630006
vt 0.46875 0.15964531250000003
vt 0.46875 0.1875
vt 0.453125 0.1875
vt 0.453125 0.15339531250000005
vt 0.1403738703083976 0.12331230314642616
vt 0.12557447796265941 0.125
vt 0.11883625123477931 0.109375
vt 0.140625 0.109375
vt 0.34375 0.1875
vt 0.34375 0.15964531250000003
vt 0.359375 0.15339531250000005
vt 0.359375 0.1875
vt 0.3716022236638347 0.08786624605326021
vt 0.37346611893444726 0.10264522574103285
vt 0.36090888106555274 0.109375
vt 0.36090888106555274 0.08755576074515525
vt 0.4375 0.15964531250000003
vt 0.4375 0.1875
vt 0.421875 0.1875
vt 0.421875 0.15339531250000005
vt 0.8893708703703618 0.5070053386004371
vt 0.8873911782663363 0.5217685074217273
vt 0.875 0.5217685074217273
vt 0.875549626703333 0.5
vt 0.703125 0.1875
vt 0.703125 0.15964531250000003
vt 0.71875 0.15339531250000005
vt 0.71875 0.1875
vt 0.17072910944221042 0.23903121410112838
vt 0.14548692194221044 0.23903121410112838
vt 0.14602754694221043 0.23445308910112828
vt 0.17768692194221045 0.2343765266011284
vt 0.17563528521681696 0.2484299585532601
vt 0.17072910944221042 0.23903121410112838
vt 0.1776892039008625 0.234375
vt 0.1875 0.25317091938600533
vt 0.1444066026566723 0.24817942531120873
vt 0.17563528521681696 0.2484299585532601
vt 0.18749919874721188 0.25317059921749263
vt 0.14386364195478119 0.25275334171341
vt 0.29813697446826337 0.2390884774521389
vt 0.29315342462384414 0.24844642535517836
vt 0.28125 0.2530893391739313
vt 0.2912155313429401 0.234375
vt 0.32337833489996215 0.23929281379796896
vt 0.29813697446826337 0.2390884774521389
vt 0.291217082441536 0.23437605629247038
vt 0.32287474974210867 0.2347151497707799
vt 0.29315342462384414 0.24844642535517836
vt 0.3243831121238442 0.24844642535517836
vt 0.32488936212384417 0.25302767535517834
vt 0.2812518621238442 0.25308861285517836
vt 0.859375 0.13091262983904328
vt 0.859375 0.1546836445960562
vt 0.8441423376744228 0.15625
vt 0.84375 0.13101561765950553
vt 0.6981011065211447 0.09375
vt 0.6875 0.09375
vt 0.6878013566884831 0.078125
vt 0.6984011053767241 0.078125
vt 0.6428219618754768 0.6628734375
vt 0.6130719618754769 0.6625
vt 0.6131266493754769 0.65625
vt 0.6443453993754769 0.6570265625
vt 0.015625 0.9375
vt 0.015625 0.953125
vt 0 0.953125
vt 0 0.9375
vt 0.883102218821307 0.9683578684129093
vt 0.859375 0.96875
vt 0.859375 0.953125
vt 0.8846157023729283 0.953125
vt 0.6688356830503518 0.6772308691758698
vt 0.6428219618754768 0.6628734375
vt 0.6443475564910884 0.6570182836009041
vt 0.671875 0.6717706473666258
vt 0.3131213834952526 0.21875
vt 0.3131213834952526 0.18585183800726857
vt 0.3267667524582035 0.17264700704848335
vt 0.328125 0.2167593694610669
vt 0.7230117584456007 0.2854811855154259
vt 0.6900618510294924 0.2867713707084838
vt 0.6900618510294924 0.265625
vt 0.734375 0.26594414298265867
vt 0.484375 0.21252187499999997
vt 0.484375 0.19248437500000004
vt 0.5 0.1786734375000001
vt 0.5 0.21875
vt 0.7158253586395369 0.2047531545895953
vt 0.7487012025559457 0.20354787139270658
vt 0.7472683388822796 0.21875
vt 0.703125 0.21875
vt 0.8125 0.48935937500000004
vt 0.8125 0.509396875
vt 0.796875 0.515625
vt 0.796875 0.4755484375000001
vt 0.04688050906618681 0.4739256543894984
vt 0.014094012119117268 0.4774503226571276
vt 0 0.45973437500000003
vt 0.04380405456512801 0.45305503334645214
vn -1 -1.224646799147357e-16 -2.9629076969683865e-15
vn 1 1.224646799147357e-16 2.9629076969683865e-15
vn 0.03669334948326316 0.9993265722994158 -1.3663201195426186e-17
vn 1.224646799147353e-16 -1 1.224646799147357e-16
vn -0.2820136378753148 -1.5203059695334774e-16 -0.9594103960518309
vn -0.28201363787532047 8.295717716536581e-17 0.9594103960518291
vn 0.2820136378753148 1.5203059695334774e-16 0.9594103960518309
vn 1.224646799147353e-16 -1 1.224646799147357e-16
vn 0.28201363787532047 -8.295717716536581e-17 -0.9594103960518291
vn -0.03669334948326341 0.9993265722994158 -2.311012164184497e-16
vn -0.8163832246845807 -0.5775105457509896 -2.3481434959610366e-15
vn -0.2602281166744227 -0.46658171004046745 0.8453300155251772
vn 0.26808648462495177 -0.4082591457565946 0.872613377543303
vn 0.8163832246845807 -0.5775105457509893 2.4895927842265946e-15
vn 0.21179430943815972 -0.6602938656695921 -0.7205242407086107
vn -0.15511895413179153 -0.8351379074840016 -0.5277146819563604
vn 0.25575196639172215 -8.707121991079815e-17 -0.966742432960697
vn 0.37465063881545757 1.594265650651939e-16 0.9271660578532682
vn 1 1.224646799147357e-16 2.9629076969683865e-15
vn -0.3746506388154634 6.766362394042064e-17 0.9271660578532658
vn -0.25575196639171627 -1.4971238531425042e-16 -0.9667424329606984
vn -1 -1.224646799147357e-16 -2.9629076969683865e-15
vn -0.1517417216767682 0.9709229715543465 0.18515678008284733
vn -0.10178786102751095 0.9948061275180426 -4.234166508800751e-16
vn -0.2583623417917031 0.9660480838674166 -8.838105404744808e-16
vn 0.13675570034280762 0.9822883729852135 -0.1280914935575746
vn 0.10178786102751068 0.9948061275180428 1.797594229126454e-16
vn 0.2583623417917029 0.9660480838674168 6.47197001728347e-16
vn -0.2435756826844817 0.22322945791024743 0.9438429402850274
vn -0.23620349144140299 0.2944660099511994 -0.9260117059812534
vn -0.9813064897544227 0.19245148262835818 -2.931089060797606e-15
vn 0.24357568268448165 0.22322945791024726 -0.9438429402850275
vn 0.23620349144140293 0.29446600995119976 0.9260117059812533
vn 0.9813064897544227 0.1924514826283584 2.88395204235921e-15
vn -0.25575196639172176 -3.880666338793444e-16 0.966742432960697
vn -0.2557519663917218 8.707121991079823e-17 0.9667424329606971
vn -0.2557519663917218 8.707121991079819e-17 0.966742432960697
vn -0.2557519663917221 8.707121991079815e-17 0.9667424329606968
vn 0.25575196639171605 1.4971238531425037e-16 0.9667424329606985
vn 0.2557519663917163 1.4971238531425042e-16 0.9667424329606984
vn 0.25575196639171605 8.918756842568084e-16 0.9667424329606985
vn 0.25575196639171605 1.497123853142504e-16 0.9667424329606986
vn -1.224646799147353e-16 1 -1.224646799147357e-16
vn -0.7312629476961252 -6.021255078481523e-18 0.6820956687494608
vn 0.15934383043567565 -0.9050462716044233 0.3943358846935175
vn 0.9737834139429671 9.139615532096736e-17 -0.22747716968869738
vn -1.224646799147353e-16 1 -1.224646799147357e-16
vn -0.9737834139429655 -1.4711199286864054e-16 -0.22747716968870327
vn -0.19067708643531572 -0.8607982238372016 0.471877808915887
vn 0.7312629476961211 1.7308651056774211e-16 0.6820956687494651
vn 0.25204909609955095 -0.4100896677925888 0.8765259365958109
vn 0.2376124337210751 -0.4549030445688535 0.858256110600522
vn 0.23284464329558796 -0.4385627673865433 0.8680127137034382
vn -0.23761243372107743 -0.4549030445688523 0.8582561106005222
vn -0.24774036841846958 -0.44313683599927584 0.8615419052120635
vn -0.2361034816618961 -0.41179046122305324 0.8801612136380675
vn 0.14368468188398703 0.8845583320131267 0.4437468528993219
vn -0.7992136996181568 0.42250446428804733 0.4274896957814641
vn -0.11701678119194595 -0.9120384981738092 -0.3930557858222406
vn 0.793287619784673 0.41108595496006023 0.4491136715030434
vn -0.12807193568211164 0.8884261096786615 0.4407909106729358
vn 0.1202793629897191 -0.8869440051330619 -0.44594081064342017
vn -0.2238369346792645 0.8260333141652224 -0.5172678131902371
vn -0.2790902977183779 -0.532159508167537 -0.7993215020167744
vn -0.8088705946398506 -1.7106568165688467e-16 -0.5879867014882009
vn 0.24292703946810237 0.7444637504787203 -0.6219004564385051
vn 0.8088705946398519 2.705047527313757e-17 -0.587986701488199
vn 0.27587419519549145 -0.5880734105280476 -0.760304604915129
usemtl m_743acc1f-0072-7819-3a38-c0be208073c2
f 138/525/139 148/526/139 147/527/139 137/528/139
f 141/529/140 150/530/140 149/531/140 142/532/140
f 164/533/141 166/534/141 165/535/141 167/536/141
f 137/537/142 145/538/142 144/539/142 138/540/142
f 137/541/143 147/542/143 151/543/143 145/544/143
f 144/545/144 186/546/144 148/547/144 138/548/144
f 142/549/145 149/550/145 186/551/145 144/552/145
f 142/553/146 144/554/146 145/555/146 141/556/146
f 145/557/147 151/558/147 150/559/147 141/560/147
f 168/561/148 165/562/148 166/563/148 169/564/148
f 135/565/149 147/566/149 148/567/149 136/568/149
f 197/569/150 198/570/150 194/571/150 193/572/150
f 193/573/151 194/574/151 195/575/151 196/576/151
f 140/577/152 149/578/152 150/579/152 139/580/152
f 139/581/153 150/582/153 151/583/153 146/584/153
f 146/585/154 151/586/154 147/587/154 135/588/154
f 200/589/155 203/590/155 204/591/155 201/592/155
f 178/593/156 179/594/156 180/595/156 181/596/156
f 152/597/157 155/598/157 140/599/157 139/600/157
f 182/601/158 183/602/158 184/603/158 185/604/158
f 199/605/159 200/606/159 201/607/159 202/608/159
f 156/609/160 157/610/160 135/611/160 136/612/160
f 160/613/161 158/614/161 156/615/161 154/616/161
f 161/617/162 159/618/162 153/619/162 157/620/162
f 158/621/163 161/622/163 157/623/163 156/624/163
f 159/625/164 162/626/164 152/627/164 153/628/164
f 163/629/165 160/630/165 154/631/165 155/632/165
f 162/633/166 163/634/166 155/635/166 152/636/166
f 166/637/167 164/638/167 158/639/167 160/640/167
f 167/641/168 165/642/168 159/643/168 161/644/168
f 164/645/169 167/646/169 161/647/169 158/648/169
f 165/649/170 168/650/170 162/651/170 159/652/170
f 169/653/171 166/654/171 160/655/171 163/656/171
f 168/657/172 169/658/172 163/659/172 162/660/172
f 171/661/173 170/662/173 154/663/173 156/664/173
f 172/665/174 171/666/174 156/667/174 136/668/174
f 173/669/175 172/670/175 136/671/175 143/672/175
f 170/673/176 173/674/176 143/675/176 154/676/176
f 175/677/177 174/678/177 155/679/177 154/680/177
f 176/681/178 175/682/178 154/683/178 143/684/178
f 177/685/179 176/686/179 143/687/179 140/688/179
f 174/689/180 177/690/180 140/691/180 155/692/180
f 179/693/181 178/694/181 174/695/181 175/696/181
f 180/697/182 179/698/182 175/699/182 176/700/182
f 181/701/183 180/702/183 176/703/183 177/704/183
f 178/705/184 181/706/184 177/707/184 174/708/184
f 183/709/185 182/710/185 170/711/185 171/712/185
f 184/713/186 183/714/186 171/715/186 172/716/186
f 185/717/187 184/718/187 172/719/187 173/720/187
f 182/721/188 185/722/188 173/723/188 170/724/188
f 189/725/189 188/726/189 186/727/189 149/728/189
f 190/729/190 189/730/190 149/731/190 140/732/190
f 187/733/191 190/734/191 140/735/191 143/736/191
f 192/737/192 191/738/192 136/739/192 148/740/192
f 188/741/193 192/742/193 148/743/193 186/744/193
f 191/745/194 187/746/194 143/747/194 136/748/194
f 195/749/195 194/750/195 188/751/195 189/752/195
f 196/753/196 195/754/196 189/755/196 190/756/196
f 193/757/197 196/758/197 190/759/197 187/760/197
f 198/761/198 197/762/198 191/763/198 192/764/198
f 194/765/199 198/766/199 192/767/199 188/768/199
f 197/769/200 193/770/200 187/771/200 191/772/200
f 200/773/201 199/774/201 157/775/201 153/776/201
f 202/777/202 201/778/202 146/779/202 135/780/202
f 199/781/203 202/782/203 135/783/203 157/784/203
f 203/785/204 200/786/204 153/787/204 152/788/204
f 204/789/205 203/790/205 152/791/205 139/792/205
f 201/793/206 204/794/206 139/795/206 146/796/206
o cylinder
v -0.09835516897165439 1.1140624999999997 0.307626813418706
v -0.1923244310502451 1.1140624999999997 0.27342479908613926
v -0.14110768688736286 1.1839876345948126 0.42508839101694457
v -0.23507694896595357 1.1839876345948128 0.39088637668437776
v -0.09835516897165424 1.2539127691896255 0.30762681341870607
v -0.19232443105024494 1.2539127691896255 0.27342479908613926
v -0.05560265105594574 1.1839876345948126 0.19016523582046746
v -0.14957191313453644 1.1839876345948126 0.15596322148790065
v -0.05560265105594589 1.0441373654051869 0.19016523582046746
v -0.1495719131345366 1.0441373654051869 0.15596322148790065
v -0.09835516897165456 0.974212230810374 0.307626813418706
v -0.19232443105024527 0.9742122308103741 0.27342479908613926
v -0.141107686887363 1.0441373654051869 0.42508839101694446
v -0.2350769489659537 1.0441373654051869 0.3908863766843776
v -0.1688321155305974 1.1140624999999997 0.28197530266928095
v -0.12184748449130206 1.1140624999999997 0.2990763098355643
v -0.15391187292808353 1.0616186490538901 0.3871724930342431
v -0.20089650396737888 1.0616186490538901 0.3700714858679597
v -0.12184748449130219 1.0091747981077803 0.2990763098355643
v -0.16883211553059754 1.0091747981077805 0.28197530266928095
v -0.16212051906895694 1.1332951547474788 0.2635353429424322
v -0.11513588802966158 1.1332951547474788 0.2806363501087156
v -0.15912987551830302 1.1332951547474788 0.40150883732552717
v -0.2061145065575984 1.1332951547474788 0.3844078301592438
v -0.11513588802966172 1.0091747981077803 0.28063635010871557
v -0.16212051906895708 1.0091747981077805 0.2635353429424322
vt 0.261525 0.78125
vt 0.24404375 0.8125
vt 0.2265625 0.78125
vt 0.421875 0.28125
vt 0.453125 0.28125
vt 0.453125 0.3125
vt 0.421875 0.3125
vt 0.05654375 0.6875
vt 0.07402500000000001 0.71875
vt 0.03906249999999999 0.71875
vt 0.24404375 0.75
vt 0.261525 0.78125
vt 0.2265625 0.78125
vt 0.6875 0.609375
vt 0.71875 0.609375
vt 0.71875 0.640625
vt 0.6875 0.640625
vt 0.07402500000000001 0.71875
vt 0.05654375 0.75
vt 0.03906249999999999 0.71875
vt 0.20908125 0.75
vt 0.24404375 0.75
vt 0.2265625 0.78125
vt 0.6875 0.796875
vt 0.71875 0.796875
vt 0.71875 0.828125
vt 0.6875 0.828125
vt 0.05654375 0.75
vt 0.02158125 0.75
vt 0.03906249999999999 0.71875
vt 0.1916 0.78125
vt 0.20908125 0.75
vt 0.2265625 0.78125
vt 0.6875 0.5625
vt 0.71875 0.5625
vt 0.71875 0.59375
vt 0.6875 0.59375
vt 0.02158125 0.75
vt 0.0040999999999999995 0.71875
vt 0.03906249999999999 0.71875
vt 0.24404375 0.8125
vt 0.20908125 0.8125
vt 0.2265625 0.78125
vt 0.6875 0.65625
vt 0.71875 0.65625
vt 0.71875 0.6875
vt 0.6875 0.6875
vt 0.02158125 0.6875
vt 0.05654375 0.6875
vt 0.03906249999999999 0.71875
vt 0.609375 0.171875
vt 0.609375 0.15625
vt 0.640625 0.15625
vt 0.640625 0.171875
vt 0.828125 0.375
vt 0.828125 0.359375
vt 0.859375 0.359375
vt 0.859375 0.375
vt 0.7566734375 0.715625
vt 0.7298171875 0.715625
vt 0.7298171875 0.709375
vt 0.765625 0.709375
vt 0.7566734375 0.728125
vt 0.7566734375 0.715625
vt 0.765625 0.709375
vt 0.765625 0.734375
vt 0.7298171875 0.728125
vt 0.7566734375 0.728125
vt 0.765625 0.734375
vt 0.7298171875 0.734375
vt 0.749071875 0.95
vt 0.749071875 0.9625
vt 0.74033125 0.96875
vt 0.74033125 0.94375
vt 0.77529375 0.95
vt 0.749071875 0.95
vt 0.74033125 0.94375
vt 0.77529375 0.94375
vt 0.749071875 0.9625
vt 0.77529375 0.9625
vt 0.77529375 0.96875
vt 0.74033125 0.96875
vt 0.67176484375 0.29596718749999995
vt 0.67176484375 0.328125
vt 0.6669570312499999 0.32321875
vt 0.65384609375 0.29978125
vt 0.90625 0.671875
vt 0.90625 0.65625
vt 0.921875 0.65625
vt 0.921875 0.671875
vt 0.71863984375 0.84375
vt 0.71863984375 0.8759078124999999
vt 0.70072109375 0.87209375
vt 0.7138320312499999 0.84865625
vt 0.328125 0.078125
vt 0.328125 0.09375
vt 0.3125 0.09375
vt 0.3125 0.078125
vt 0.67176484375 0.328125
vt 0.64073515625 0.328125
vt 0.64073515625 0.32321875
vt 0.6669570312499999 0.32321875
vt 0.68761015625 0.84375
vt 0.71863984375 0.84375
vt 0.7138320312499999 0.84865625
vt 0.68761015625 0.84865625
vn 0.9396926207859085 -1.0622543155671595e-15 0.3420201433256686
vn -0.16697608288702565 0.8727287560761106 0.4587630173210893
vn -0.9396926207859085 1.0622543155671595e-15 -0.3420201433256686
vn 0.9396926207859085 -1.0622543155671595e-15 0.3420201433256686
vn 0.16697608288702756 0.8727287560761103 -0.4587630173210889
vn -0.9396926207859085 1.0622543155671595e-15 -0.3420201433256686
vn 0.9396926207859085 -1.0622543155671595e-15 0.3420201433256686
vn 0.34202014332566866 -3.275552188224099e-16 -0.9396926207859084
vn -0.9396926207859085 1.0622543155671595e-15 -0.3420201433256686
vn 0.9396926207859085 -1.0622543155671595e-15 0.3420201433256686
vn 0.16697608288702562 -0.8727287560761107 -0.4587630173210892
vn -0.9396926207859085 1.0622543155671595e-15 -0.3420201433256686
vn 0.9396926207859085 -1.0622543155671595e-15 0.3420201433256686
vn -0.34202014332566866 -4.663102710750626e-16 0.9396926207859084
vn -0.9396926207859085 1.0622543155671595e-15 -0.3420201433256686
vn -0.34202014332566866 3.275552188224099e-16 0.9396926207859084
vn -1.147691009118454e-15 -1 -9.281983249736373e-17
vn 0.16697608288702584 -0.8727287560761103 -0.4587630173210898
vn 0.16697608288702592 -0.8727287560761101 -0.45876301732109004
vn 0.16697608288702645 -0.8727287560761103 -0.4587630173210896
vn -0.34202014332566866 3.275552188224099e-16 0.9396926207859084
vn -0.34202014332566866 3.275552188224099e-16 0.9396926207859084
vn -0.34202014332566866 3.275552188224099e-16 0.9396926207859084
vn -0.9396926207859085 1.0622543155671595e-15 -0.3420201433256686
vn 0.33452613521913666 0.20818725999533869 -0.9191030027320013
vn 0.9396926207859085 -1.0622543155671595e-15 0.3420201433256686
vn 1.147691009118454e-15 1 9.281983249736373e-17
vn -0.9396926207859085 1.0622543155671595e-15 -0.3420201433256686
vn 0.9396926207859085 -1.0622543155671595e-15 0.3420201433256686
usemtl m_743acc1f-0072-7819-3a38-c0be208073c2
f 209/797/207 207/798/207 205/799/207
f 207/800/208 209/801/208 210/802/208 208/803/208
f 208/804/209 210/805/209 206/806/209
f 211/807/210 209/808/210 205/809/210
f 209/810/211 211/811/211 212/812/211 210/813/211
f 210/814/212 212/815/212 206/816/212
f 213/817/213 211/818/213 205/819/213
f 211/820/214 213/821/214 214/822/214 212/823/214
f 212/824/215 214/825/215 206/826/215
f 215/827/216 213/828/216 205/829/216
f 213/830/217 215/831/217 216/832/217 214/833/217
f 214/834/218 216/835/218 206/836/218
f 207/837/219 217/838/219 205/839/219
f 217/840/220 207/841/220 208/842/220 218/843/220
f 218/844/221 208/845/221 206/846/221
f 230/847/222 229/848/222 226/849/222 225/850/222
f 225/851/223 226/852/223 227/853/223 228/854/223
f 221/855/224 220/856/224 205/857/224 217/858/224
f 222/859/225 221/860/225 217/861/225 218/862/225
f 219/863/226 222/864/226 218/865/226 206/866/226
f 223/867/227 224/868/227 216/869/227 215/870/227
f 220/871/228 223/872/228 215/873/228 205/874/228
f 224/875/229 219/876/229 206/877/229 216/878/229
f 227/879/230 226/880/230 220/881/230 221/882/230
f 228/883/231 227/884/231 221/885/231 222/886/231
f 225/887/232 228/888/232 222/889/232 219/890/232
f 229/891/233 230/892/233 224/893/233 223/894/233
f 226/895/234 229/896/234 223/897/234 220/898/234
f 230/899/235 225/900/235 219/901/235 224/902/235
o cylinder
v 0.09835516897165439 1.1140624999999997 0.307626813418706
v 0.1923244310502451 1.1140624999999997 0.27342479908613926
v 0.14110768688736286 1.1839876345948126 0.42508839101694457
v 0.23507694896595357 1.1839876345948128 0.39088637668437776
v 0.09835516897165424 1.2539127691896255 0.30762681341870607
v 0.19232443105024494 1.2539127691896255 0.27342479908613926
v 0.05560265105594574 1.1839876345948126 0.19016523582046746
v 0.14957191313453644 1.1839876345948126 0.15596322148790065
v 0.05560265105594589 1.0441373654051869 0.19016523582046746
v 0.1495719131345366 1.0441373654051869 0.15596322148790065
v 0.09835516897165456 0.974212230810374 0.307626813418706
v 0.19232443105024527 0.9742122308103741 0.27342479908613926
v 0.141107686887363 1.0441373654051869 0.42508839101694446
v 0.2350769489659537 1.0441373654051869 0.3908863766843776
v 0.1688321155305974 1.1140624999999997 0.28197530266928095
v 0.12184748449130206 1.1140624999999997 0.2990763098355643
v 0.15391187292808353 1.0616186490538901 0.3871724930342431
v 0.20089650396737888 1.0616186490538901 0.3700714858679597
v 0.12184748449130219 1.0091747981077803 0.2990763098355643
v 0.16883211553059754 1.0091747981077805 0.28197530266928095
v 0.16212051906895694 1.1332951547474788 0.2635353429424322
v 0.11513588802966158 1.1332951547474788 0.2806363501087156
v 0.15912987551830302 1.1332951547474788 0.40150883732552717
v 0.2061145065575984 1.1332951547474788 0.3844078301592438
v 0.11513588802966172 1.0091747981077803 0.28063635010871557
v 0.16212051906895708 1.0091747981077805 0.2635353429424322
vt 0.24404375 0.8125
vt 0.261525 0.78125
vt 0.2265625 0.78125
vt 0.453125 0.3125
vt 0.453125 0.28125
vt 0.421875 0.28125
vt 0.421875 0.3125
vt 0.07402500000000001 0.71875
vt 0.05654375 0.6875
vt 0.03906249999999999 0.71875
vt 0.261525 0.78125
vt 0.24404375 0.75
vt 0.2265625 0.78125
vt 0.71875 0.640625
vt 0.71875 0.609375
vt 0.6875 0.609375
vt 0.6875 0.640625
vt 0.05654375 0.75
vt 0.07402500000000001 0.71875
vt 0.03906249999999999 0.71875
vt 0.24404375 0.75
vt 0.20908125 0.75
vt 0.2265625 0.78125
vt 0.71875 0.828125
vt 0.71875 0.796875
vt 0.6875 0.796875
vt 0.6875 0.828125
vt 0.02158125 0.75
vt 0.05654375 0.75
vt 0.03906249999999999 0.71875
vt 0.20908125 0.75
vt 0.1916 0.78125
vt 0.2265625 0.78125
vt 0.71875 0.59375
vt 0.71875 0.5625
vt 0.6875 0.5625
vt 0.6875 0.59375
vt 0.0040999999999999995 0.71875
vt 0.02158125 0.75
vt 0.03906249999999999 0.71875
vt 0.20908125 0.8125
vt 0.24404375 0.8125
vt 0.2265625 0.78125
vt 0.71875 0.6875
vt 0.71875 0.65625
vt 0.6875 0.65625
vt 0.6875 0.6875
vt 0.05654375 0.6875
vt 0.02158125 0.6875
vt 0.03906249999999999 0.71875
vt 0.640625 0.15625
vt 0.609375 0.15625
vt 0.609375 0.171875
vt 0.640625 0.171875
vt 0.859375 0.359375
vt 0.828125 0.359375
vt 0.828125 0.375
vt 0.859375 0.375
vt 0.7298171875 0.709375
vt 0.7298171875 0.715625
vt 0.7566734375 0.715625
vt 0.765625 0.709375
vt 0.765625 0.709375
vt 0.7566734375 0.715625
vt 0.7566734375 0.728125
vt 0.765625 0.734375
vt 0.765625 0.734375
vt 0.7566734375 0.728125
vt 0.7298171875 0.728125
vt 0.7298171875 0.734375
vt 0.74033125 0.96875
vt 0.749071875 0.9625
vt 0.749071875 0.95
vt 0.74033125 0.94375
vt 0.74033125 0.94375
vt 0.749071875 0.95
vt 0.77529375 0.95
vt 0.77529375 0.94375
vt 0.77529375 0.96875
vt 0.77529375 0.9625
vt 0.749071875 0.9625
vt 0.74033125 0.96875
vt 0.6669570312499999 0.32321875
vt 0.67176484375 0.328125
vt 0.67176484375 0.29596718749999995
vt 0.65384609375 0.29978125
vt 0.921875 0.65625
vt 0.90625 0.65625
vt 0.90625 0.671875
vt 0.921875 0.671875
vt 0.70072109375 0.87209375
vt 0.71863984375 0.8759078124999999
vt 0.71863984375 0.84375
vt 0.7138320312499999 0.84865625
vt 0.3125 0.09375
vt 0.328125 0.09375
vt 0.328125 0.078125
vt 0.3125 0.078125
vt 0.64073515625 0.32321875
vt 0.64073515625 0.328125
vt 0.67176484375 0.328125
vt 0.6669570312499999 0.32321875
vt 0.7138320312499999 0.84865625
vt 0.71863984375 0.84375
vt 0.68761015625 0.84375
vt 0.68761015625 0.84865625
vn -0.9396926207859085 -1.0622543155671595e-15 0.3420201433256686
vn 0.16697608288702565 0.8727287560761106 0.4587630173210893
vn 0.9396926207859085 1.0622543155671595e-15 -0.3420201433256686
vn -0.9396926207859085 -1.0622543155671595e-15 0.3420201433256686
vn -0.16697608288702756 0.8727287560761103 -0.4587630173210889
vn 0.9396926207859085 1.0622543155671595e-15 -0.3420201433256686
vn -0.9396926207859085 -1.0622543155671595e-15 0.3420201433256686
vn -0.34202014332566866 -3.275552188224099e-16 -0.9396926207859084
vn 0.9396926207859085 1.0622543155671595e-15 -0.3420201433256686
vn -0.9396926207859085 -1.0622543155671595e-15 0.3420201433256686
vn -0.16697608288702562 -0.8727287560761107 -0.4587630173210892
vn 0.9396926207859085 1.0622543155671595e-15 -0.3420201433256686
vn -0.9396926207859085 -1.0622543155671595e-15 0.3420201433256686
vn 0.34202014332566866 -4.663102710750626e-16 0.9396926207859084
vn 0.9396926207859085 1.0622543155671595e-15 -0.3420201433256686
vn 0.34202014332566866 3.275552188224099e-16 0.9396926207859084
vn 1.147691009118454e-15 -1 -9.281983249736373e-17
vn -0.16697608288702584 -0.8727287560761103 -0.4587630173210898
vn -0.16697608288702595 -0.8727287560761101 -0.45876301732109015
vn -0.1669760828870262 -0.8727287560761102 -0.4587630173210898
vn 0.34202014332566866 3.275552188224099e-16 0.9396926207859084
vn 0.34202014332566866 3.275552188224099e-16 0.9396926207859084
vn 0.34202014332566866 3.275552188224099e-16 0.9396926207859084
vn 0.9396926207859085 1.0622543155671595e-15 -0.3420201433256686
vn -0.33452613521913666 0.20818725999533869 -0.9191030027320013
vn -0.9396926207859085 -1.0622543155671595e-15 0.3420201433256686
vn -1.147691009118454e-15 1 9.281983249736373e-17
vn 0.9396926207859085 1.0622543155671595e-15 -0.3420201433256686
vn -0.9396926207859085 -1.0622543155671595e-15 0.3420201433256686
usemtl m_743acc1f-0072-7819-3a38-c0be208073c2
f 233/903/236 235/904/236 231/905/236
f 236/906/237 235/907/237 233/908/237 234/909/237
f 236/910/238 234/911/238 232/912/238
f 235/913/239 237/914/239 231/915/239
f 238/916/240 237/917/240 235/918/240 236/919/240
f 238/920/241 236/921/241 232/922/241
f 237/923/242 239/924/242 231/925/242
f 240/926/243 239/927/243 237/928/243 238/929/243
f 240/930/244 238/931/244 232/932/244
f 239/933/245 241/934/245 231/935/245
f 242/936/246 241/937/246 239/938/246 240/939/246
f 242/940/247 240/941/247 232/942/247
f 243/943/248 233/944/248 231/945/248
f 234/946/249 233/947/249 243/948/249 244/949/249
f 234/950/250 244/951/250 232/952/250
f 252/953/251 255/954/251 256/955/251 251/956/251
f 253/957/252 252/958/252 251/959/252 254/960/252
f 231/961/253 246/962/253 247/963/253 243/964/253
f 243/965/254 247/966/254 248/967/254 244/968/254
f 244/969/255 248/970/255 245/971/255 232/972/255
f 242/973/256 250/974/256 249/975/256 241/976/256
f 241/977/257 249/978/257 246/979/257 231/980/257
f 232/981/258 245/982/258 250/983/258 242/984/258
f 246/985/259 252/986/259 253/987/259 247/988/259
f 247/989/260 253/990/260 254/991/260 248/992/260
f 248/993/261 254/994/261 251/995/261 245/996/261
f 250/997/262 256/998/262 255/999/262 249/1000/262
f 249/1001/263 255/1002/263 252/1003/263 246/1004/263
f 245/1005/264 251/1006/264 256/1007/264 250/1008/264