# Made in Blockbench 5.1.5
mtllib Peacekeeper Left Arm.mtl

o cuboid
v -0.8250000000000001 1.0468750000000013 0.10937499999999997
v -0.8250000000000001 1.0468750000000013 -0.11718749999999994
v -0.8250000000000001 0.9218750000000018 0.10937499999999997
v -0.8250000000000001 0.9218750000000018 -0.11718749999999994
v -0.6250000000000001 1.0468750000000013 0.08437499999999995
v -0.6250000000000001 1.0468750000000013 -0.11718749999999994
v -0.6250000000000001 0.9218750000000018 0.08437499999999995
v -0.6250000000000001 0.9218750000000018 -0.11718749999999994
v -0.6250000000000001 0.996875000000002 -0.11718749999999994
v -0.85 0.996875000000002 -0.11718749999999994
v -0.85 0.996875000000002 0.10937499999999997
v -0.6250000000000001 0.996875000000002 0.08437499999999995
v -0.7250000000000001 0.996875000000002 -0.11718749999999994
v -0.7250000000000001 1.0468750000000013 -0.11718749999999994
v -0.7250000000000001 1.0468750000000013 0.10937499999999997
v -0.7250000000000001 0.996875000000002 0.10937499999999997
v -0.7250000000000001 0.9218750000000018 0.10937499999999997
v -0.7250000000000001 0.9218750000000018 -0.11718749999999994
v -0.85 0.996875000000002 -0.042187500000000024
v -0.8250000000000001 0.9218750000000018 -0.042187500000000024
v -0.7250000000000001 0.9218750000000018 -0.042187500000000024
v -0.6250000000000001 0.9218750000000018 -0.042187500000000024
v -0.6250000000000001 0.996875000000002 -0.042187500000000024
v -0.6250000000000001 1.0468750000000013 -0.042187500000000024
v -0.7250000000000001 1.0468750000000013 -0.042187500000000024
v -0.8250000000000001 1.0468750000000013 -0.042187500000000024
v -0.6250000000000001 0.8843750000000015 -0.14843749999999997
v -0.7250000000000001 0.8843750000000015 -0.14843749999999997
v -0.7250000000000001 0.8843750000000017 -0.042187500000000024
v -0.6250000000000001 0.8843750000000017 -0.042187500000000024
v -0.6812500000000001 0.9218750000000018 -0.042187500000000024
v -0.6812500000000001 0.9218750000000018 0.10937499999999997
v -0.6812500000000001 0.996875000000002 0.10937499999999997
v -0.6812500000000001 1.0468750000000013 0.10937499999999997
v -0.6812500000000001 1.0468750000000013 -0.042187500000000024
v -0.6812500000000001 1.0468750000000013 -0.11718749999999994
v -0.6812500000000001 0.996875000000002 -0.11718749999999994
v -0.6812500000000001 0.8843750000000015 -0.14843749999999997
v -0.6812500000000001 0.8843750000000017 -0.042187500000000024
v -0.7250000000000001 0.8968750000000016 -0.11718749999999994
v -0.8171875000000001 0.8968750000000016 -0.042187500000000024
v -0.7250000000000001 0.8968750000000016 -0.042187500000000024
v -0.8171875000000001 0.8968750000000016 -0.11718749999999994
v -0.8171875000000001 0.8968750000000016 0.10937499999999997
v -0.7250000000000001 0.8968750000000016 0.10937499999999997
v -0.6812500000000001 0.8968750000000016 -0.042187500000000024
v -0.6812500000000001 0.8968750000000016 0.10937499999999997
vt 0.26708984375 0.65952421875
vt 0.27646484375 0.65952421875
vt 0.27646484375 0.66940625
vt 0.26708984375 0.66940625
vt 0.253125 0.75
vt 0.253125 0.740625
vt 0.265625 0.740625
vt 0.265625 0.75
vt 0.32724609375 0.6875
vt 0.32724609375 0.696875
vt 0.31572265625 0.696875
vt 0.31572265625 0.6875
vt 0.332421875 0.890625
vt 0.344921875 0.890625
vt 0.344921875 0.9
vt 0.329296875 0.9
vt 0.31875 0.884375
vt 0.303125 0.884375
vt 0.303125 0.875
vt 0.315625 0.875
vt 0.30751953125 0.99375
vt 0.29814453125 0.99375
vt 0.29814453125 0.984375
vt 0.30751953125 0.984375
vt 0.315625 0.890625
vt 0.303125 0.890625
vt 0.303125 0.884375
vt 0.31875 0.884375
vt 0.41552734375 0.70395
vt 0.42490234375 0.70395
vt 0.42490234375 0.7109375
vt 0.41552734375 0.7109375
vt 0.329296875 0.9
vt 0.344921875 0.9
vt 0.344921875 0.90625
vt 0.332421875 0.90625
vt 0.30751953125 1
vt 0.29814453125 1
vt 0.29814453125 0.99375
vt 0.30751953125 0.99375
vt 0.290625 0.884375
vt 0.29765625 0.884375
vt 0.29765625 0.890625
vt 0.290625 0.890625
vt 0.278125 0.75
vt 0.27109375 0.75
vt 0.27109375 0.740625
vt 0.278125 0.740625
vt 0.296875 0.5078125
vt 0.28918046875000003 0.5078125
vt 0.28918046875000003 0.5015625
vt 0.296875 0.5015625
vt 0.296875 0.5015625
vt 0.28918046875000003 0.5015625
vt 0.28918046875000003 0.4921875
vt 0.296875 0.4921875
vt 0.0375 0.54453125
vt 0.030468749999999996 0.54453125
vt 0.030468749999999996 0.53125
vt 0.0375 0.53125
vt 0.43125 0.5713421875
vt 0.43828125 0.5713421875
vt 0.43828125 0.5859375
vt 0.43125 0.5859375
vt 0.29541015625 0.66940625
vt 0.27646484375 0.66940625
vt 0.27646484375 0.65952421875
vt 0.29541015625 0.65952421875
vt 0.31572265625 0.7158203125
vt 0.31572265625 0.696875
vt 0.32724609375 0.696875
vt 0.32724609375 0.7158203125
vt 0.390625 0.5125
vt 0.3828125 0.515625
vt 0.3828125 0.5
vt 0.390625 0.5
vt 0.28232421875 0.984375
vt 0.29814453125 0.984375
vt 0.29814453125 0.99375
vt 0.28232421875 0.99375
vt 0.28232421875 0.99375
vt 0.29814453125 0.99375
vt 0.29814453125 1
vt 0.28232421875 1
vt 0.278125 0.740625
vt 0.27109375 0.740625
vt 0.27109375 0.7216796875
vt 0.278125 0.7248046875
vt 0.265625 0.7216796875
vt 0.265625 0.740625
vt 0.253125 0.740625
vt 0.253125 0.7216796875
vt 0.44384765625 0.7109375
vt 0.42490234375 0.7109375
vt 0.42490234375 0.70395
vt 0.44384765625 0.70395
vt 0.204296875 0.821875
vt 0.208203125 0.8265625
vt 0.208203125 0.8359375
vt 0.31142578125 0.9796875
vt 0.30751953125 0.99375
vt 0.30751953125 0.984375
vt 0.29814453125 0.9796875
vt 0.31142578125 0.9796875
vt 0.30751953125 0.984375
vt 0.29814453125 0.984375
vt 0.553125 0.7265625
vt 0.54609375 0.7265625
vt 0.54609375 0.721875
vt 0.553125 0.721875
vt 0.204296875 0.821875
vt 0.217578125 0.821875
vt 0.217578125 0.8265625
vt 0.208203125 0.8265625
vt 0.32724609375 0.696875
vt 0.33271484375 0.696875
vt 0.33271484375 0.7158203125
vt 0.32724609375 0.7158203125
vt 0.344921875 0.890625
vt 0.350390625 0.890625
vt 0.350390625 0.9
vt 0.344921875 0.9
vt 0.344921875 0.9
vt 0.350390625 0.9
vt 0.350390625 0.90625
vt 0.344921875 0.90625
vt 0.265625 0.7216796875
vt 0.27109375 0.7216796875
vt 0.27109375 0.740625
vt 0.265625 0.740625
vt 0.265625 0.740625
vt 0.27109375 0.740625
vt 0.27109375 0.75
vt 0.265625 0.75
vt 0.303125 0.890625
vt 0.29765625 0.890625
vt 0.29765625 0.884375
vt 0.303125 0.884375
vt 0.44375 0.5859375
vt 0.43828125 0.5859375
vt 0.43828125 0.5713421875
vt 0.44375 0.5713421875
vt 0.025 0.53125
vt 0.030468749999999996 0.53125
vt 0.030468749999999996 0.54453125
vt 0.025 0.54453125
vt 0.540625 0.721875
vt 0.54609375 0.721875
vt 0.54609375 0.7265625
vt 0.540625 0.7265625
vt 0.4765625 0.4609375
vt 0.484375 0.4609375
vt 0.484375 0.46875
vt 0.4765625 0.46875
vt 0.26708984375 0.65625
vt 0.27646484375 0.65625
vt 0.27646484375 0.65952421875
vt 0.26708984375 0.65952421875
vt 0.303125 0.871875
vt 0.3146484375 0.871875
vt 0.315625 0.875
vt 0.303125 0.875
vt 0.27646484375 0.65625
vt 0.29541015625 0.65625
vt 0.29541015625 0.65952421875
vt 0.27646484375 0.65952421875
vt 0.3333984375 0.8875
vt 0.344921875 0.8875
vt 0.344921875 0.890625
vt 0.332421875 0.890625
vt 0.4921875 0.4609375
vt 0.5 0.4609375
vt 0.5 0.46875
vt 0.4921875 0.46875
vt 0.484375 0.5859375
vt 0.5 0.5859375
vt 0.5 0.59375
vt 0.484375 0.59375
vt 0.344921875 0.8875
vt 0.350390625 0.8875
vt 0.350390625 0.890625
vt 0.344921875 0.890625
vn -0.9486832980505144 -0.3162277660168363 0
vn 0 1 0
vn 0 -1 0
vn 0 0 1
vn 0 0 -1
vn 1 0 0
vn 0 0 -1
vn -0.8944271909999143 0.44721359549996115 0
vn 0 0 1
vn 1 0 0
vn 0 0 -1
vn 0 1 0
vn 0.4061384660534478 0 0.9138115486202572
vn 0.4061384660534478 0 0.913811548620257
vn 0 -1 2.0898315757650014e-15
vn 0 0.2676438637860938 -0.963517909629941
vn -0.9486832980505144 -0.3162277660168363 0
vn 0 -1 0
vn 0 -1 0
vn 1 0 0
vn 1 0 0
vn 0 1 0
vn 0 1 0
vn -0.8944271909999143 0.44721359549996115 0
vn -1 0 0
vn 1 0 0
vn 1 0 0
vn 0 0 1
vn -1 0 0
vn 0 -1 0
vn 0 0 1
vn 0 0 1
vn 0 1 0
vn 0 1 0
vn 0 0 -1
vn 0 0.2676438637860938 -0.963517909629941
vn 0 -1 2.0898315757650014e-15
vn 0 0 1
vn 1 0 0
vn -0.9544799780350304 -0.2982749931359454 0
vn 0 0 -1
vn -0.9544799780350303 -0.29827499313594535 0
vn 0 0 1
vn 0 0 -1
vn 1 0 0
vn 0 0 1
usemtl m_084e7548-2300-4378-46d0-9b20b1ffff30
f 4/1/1 20/2/1 19/3/1 10/4/1
f 2/5/2 26/6/2 25/7/2 14/8/2
f 40/9/3 42/10/3 41/11/3 43/12/3
f 3/13/4 17/14/4 16/15/4 11/16/4
f 10/17/5 13/18/5 18/19/5 4/20/5
f 9/21/6 23/22/6 22/23/6 8/24/6
f 2/25/7 14/26/7 13/27/7 10/28/7
f 10/29/8 19/30/8 26/31/8 2/32/8
f 11/33/9 16/34/9 15/35/9 1/36/9
f 6/37/10 24/38/10 23/39/10 9/40/10
f 9/41/11 37/42/11 36/43/11 6/44/11
f 6/45/12 36/46/12 35/47/12 24/48/12
f 5/49/13 34/50/13 33/51/13 12/52/13
f 12/53/14 33/54/14 32/55/14 7/56/14
f 30/57/15 39/58/15 38/59/15 27/60/15
f 27/61/16 38/62/16 37/63/16 9/64/16
f 11/65/17 19/66/17 20/67/17 3/68/17
f 44/69/18 41/70/18 42/71/18 45/72/18
f 7/73/19 32/74/19 31/75/19 22/76/19
f 7/77/20 22/78/20 23/79/20 12/80/20
f 12/81/21 23/82/21 24/83/21 5/84/21
f 24/85/22 35/86/22 34/87/22 5/88/22
f 15/89/23 25/90/23 26/91/23 1/92/23
f 1/93/24 26/94/24 19/95/24 11/96/24
f 28/97/25 18/98/25 13/99/25
f 27/100/26 9/101/26 8/102/26
f 30/103/27 27/104/27 8/105/27 22/106/27
f 22/107/28 31/108/28 39/109/28 30/110/28
f 28/111/29 29/112/29 21/113/29 18/114/29
f 42/115/30 46/116/30 47/117/30 45/118/30
f 17/119/31 32/120/31 33/121/31 16/122/31
f 16/123/32 33/124/32 34/125/32 15/126/32
f 15/127/33 34/128/33 35/129/33 25/130/33
f 25/131/34 35/132/34 36/133/34 14/134/34
f 14/135/35 36/136/35 37/137/35 13/138/35
f 13/139/36 37/140/36 38/141/36 28/142/36
f 28/143/37 38/144/37 39/145/37 29/146/37
f 29/147/38 39/148/38 31/149/38 21/150/38
f 42/151/39 40/152/39 18/153/39 21/154/39
f 43/155/40 41/156/40 20/157/40 4/158/40
f 40/159/41 43/160/41 4/161/41 18/162/41
f 41/163/42 44/164/42 3/165/42 20/166/42
f 44/167/43 45/168/43 17/169/43 3/170/43
f 46/171/44 42/172/44 21/173/44 31/174/44
f 47/175/45 46/176/45 31/177/45 32/178/45
f 45/179/46 47/180/46 32/181/46 17/182/46
o Forearm
v -0.6087147887323942 1.1156250000000003 -0.06562500000000199
v -0.6087147887323945 1.1156250000000003 0.053124999999998035
v -0.6187499999999996 0.9624999999999999 -0.103125000000002
v -0.6187500000000001 0.9624999999999999 0.09062499999999803
v -0.37499999999999983 1.1156250000000003 -0.0656250000000013
v -0.3750000000000002 1.1156250000000003 0.05312499999999872
v -0.33749999999999974 0.9624999999999999 -0.10312500000000117
v -0.33750000000000036 0.9624999999999999 0.09062499999999886
v -0.6187499999999996 1.0796875000000008 -0.10312500000000202
v -0.33749999999999974 1.0796875000000008 -0.10312500000000119
v -0.33750000000000036 1.0796875000000008 0.09062499999999885
v -0.6187500000000001 1.0796875000000008 0.09062499999999801
v -0.655457746478873 1.1156250000000003 -0.06562500000000213
v -0.6750000000000002 1.0796875000000008 0.09062499999999785
v -0.6749999999999996 1.0796875000000008 -0.10312500000000219
v -0.6554577464788733 1.1156250000000003 0.053124999999997896
v -0.37500000000000006 1.1156250000000003 -0.006250000000001277
v -0.3375000000000001 1.0796875000000008 -0.0062500000000011565
v -0.3375000000000001 0.9624999999999999 -0.006250000000001143
v -0.6187499999999999 0.9624999999999999 -0.006250000000001975
v -0.6187499999999999 1.0796875000000008 -0.00625000000000199
v -0.7812499999999996 1.0796875000000008 -0.0062500000000024715
v -0.7437499999999997 1.1156250000000003 -0.00625000000000237
v -0.6087147887323942 1.1593750000000005 -0.065625000000002
v -0.37500000000000006 1.1593750000000005 -0.006250000000001283
v -0.37499999999999983 1.1593750000000005 -0.06562500000000131
v -0.3750000000000002 1.1593750000000005 0.05312499999999872
v -0.6087147887323945 1.1593750000000005 0.05312499999999803
v -0.7437499999999997 1.1593750000000005 -0.006250000000002375
v -0.6554577464788733 1.1593750000000005 0.05312499999999789
v -0.655457746478873 1.1593750000000005 -0.06562500000000214
v -0.6003521126760563 1.1843750000000004 -0.03437500000000197
v -0.40625000000000006 1.1843750000000004 -0.006250000000001383
v -0.40624999999999994 1.1843750000000004 -0.0343750000000014
v -0.4062500000000001 1.1843750000000004 0.021874999999998625
v -0.6003521126760565 1.1843750000000004 0.02187499999999805
v -0.6874999999999996 1.1843750000000004 -0.0062500000000022165
v -0.6391725352112677 1.1843750000000004 0.021874999999997934
v -0.6391725352112675 1.1843750000000004 -0.03437500000000209
v -0.655457746478873 1.1515625000000005 -0.06562500000000213
v -0.6087147887323942 1.1515625000000005 -0.06562500000000199
v -0.6087147887323942 1.1234375000000003 -0.06562500000000199
v -0.655457746478873 1.1234375000000003 -0.06562500000000213
v -0.7437499999999997 1.1515625000000005 -0.006250000000002374
v -0.7437499999999997 1.1234375000000003 -0.006250000000002371
v -0.6554577464788733 1.1515625000000005 0.05312499999999789
v -0.6554577464788733 1.1234375000000003 0.053124999999997896
v -0.39592869718309864 1.1375000000000004 0.05312499999999866
v -0.6087147887323945 1.1515625000000005 0.05312499999999803
v -0.6087147887323945 1.1234375000000003 0.053124999999998035
v -0.39592869718309825 1.1375000000000004 -0.06562500000000136
v -0.9103963990137194 1.1375000000000002 -0.12642043417367918
v -0.614964788732394 1.1375000000000004 -0.1076704341736783
v -1.3661273050696938 1.1375000000000002 -0.006250000000004219
v -0.91039639901372 1.1375000000000002 0.11392043417367342
v -0.5021786971830989 1.1375000000000004 0.09517043417367463
v -0.6149647887323947 1.1375000000000004 0.0951704341736743
v -0.5021786971830983 1.1375000000000004 -0.10767043417367797
v -0.6003521126760564 1.1843750000000004 -0.006250000000001958
v -0.6750000000000002 1.0546875000000009 0.09062499999999785
v -0.6187499999999999 1.0546875000000009 -0.0062500000000019875
v -0.7812499999999996 1.0546875000000009 -0.006250000000002469
v -0.6187500000000001 1.0546875000000009 0.09062499999999801
v -0.6187499999999996 1.0546875000000009 -0.10312500000000202
v -0.6749999999999996 1.0546875000000009 -0.10312500000000219
vt 0.3111513682913842 0.48324491458385077
vt 0.3101611247935392 0.49650799936134404
vt 0.3046875 0.5
vt 0.3046875 0.4821723930392694
vt 0.456640625 0.7044453125
vt 0.46875 0.7044453125
vt 0.46875 0.7109375
vt 0.461328125 0.7109375
vt 0.400390625 0.859375
vt 0.400390625 0.855859375
vt 0.424653125 0.855859375
vt 0.424653125 0.859375
vt 0.263671875 0.796875
vt 0.263671875 0.808984375
vt 0.228515625 0.808984375
vt 0.228515625 0.796875
vt 0.38203125 0.9765625
vt 0.37734375 0.9700703125
vt 0.4125 0.9700703125
vt 0.4112453125 0.9765625
vt 0.4012546875 0.7890625
vt 0.4 0.7825703125
vt 0.43515625 0.7825703125
vt 0.43046875 0.7890625
vt 0.2890625 0.9140625
vt 0.2890625 0.9296875
vt 0.25 0.9296875
vt 0.25 0.9140625
vt 0.355078125 0.9853515625
vt 0.3671875 0.9853515625
vt 0.3671875 1
vt 0.355078125 1
vt 0.3125 0.8125
vt 0.3125 0.828125
vt 0.2734375 0.828125
vt 0.2734375 0.8125
vt 0.254296875 0.6484375
vt 0.2421875 0.6484375
vt 0.2421875 0.6337890625
vt 0.254296875 0.6337890625
vt 0.41953125 0.9700703125
vt 0.41708828124999997 0.9765625
vt 0.4112453125 0.9765625
vt 0.4125 0.9700703125
vt 0.008593750000000004 0.65625
vt 0.021875 0.668359375
vt 0.0015625000000000014 0.668359375
vt 0.0015625000000000014 0.65625
vt 0.39541171875000003 0.7890625
vt 0.39296875 0.7825703125
vt 0.4 0.7825703125
vt 0.4012546875 0.7890625
vt 0.424653125 0.859375
vt 0.424653125 0.855859375
vt 0.435546875 0.855859375
vt 0.42950625 0.859375
vt 0.424653125 0.85234375
vt 0.424653125 0.855859375
vt 0.400390625 0.855859375
vt 0.400390625 0.85234375
vt 0.476171875 0.7109375
vt 0.46875 0.7109375
vt 0.46875 0.7044453125
vt 0.480859375 0.7044453125
vt 0.379296875 1
vt 0.3671875 1
vt 0.3671875 0.9853515625
vt 0.379296875 0.9853515625
vt 0.228515625 0.82109375
vt 0.228515625 0.808984375
vt 0.263671875 0.808984375
vt 0.263671875 0.82109375
vt 0.230078125 0.6337890625
vt 0.2421875 0.6337890625
vt 0.2421875 0.6484375
vt 0.230078125 0.6484375
vt 0.0015625000000000014 0.68046875
vt 0.0015625000000000014 0.668359375
vt 0.021875 0.668359375
vt 0.008593750000000004 0.68046875
vt 0.4664015625 0.8203125
vt 0.484375 0.8203125
vt 0.4809109375 0.8270031250000001
vt 0.4677546875 0.828125
vt 0.42950625 0.85234375
vt 0.435546875 0.855859375
vt 0.424653125 0.855859375
vt 0.424653125 0.85234375
vt 0.538671875 0.859375
vt 0.53125 0.859375
vt 0.53125 0.85390625
vt 0.538671875 0.85390625
vt 0.53125 0.859375
vt 0.523828125 0.859375
vt 0.523828125 0.85390625
vt 0.53125 0.85390625
vt 0.534765625 0.671875
vt 0.53125 0.671875
vt 0.53125 0.66687265625
vt 0.538671875 0.66687265625
vt 0.467671484375 0.6796875
vt 0.443408984375 0.6796875
vt 0.439502734375 0.67468515625
vt 0.468716796875 0.67468515625
vt 0.53125 0.671875
vt 0.527734375 0.671875
vt 0.523828125 0.66687265625
vt 0.53125 0.66687265625
vt 0.470653515625 0.7734375
vt 0.446391015625 0.7734375
vt 0.445345703125 0.768434375
vt 0.474559765625 0.768434375
vt 0.3725375405938238 0.4637413450928084
vt 0.3721972955858204 0.4707221206917971
vt 0.3671875 0.4765625
vt 0.3671875 0.46327486991479483
vt 0.446391015625 0.7734375
vt 0.441537890625 0.7734375
vt 0.439502734375 0.768434375
vt 0.445345703125 0.768434375
vt 0.5176172396497192 0.9683798382908894
vt 0.5106379864706165 0.96875
vt 0.5101469714166662 0.9609375
vt 0.5234375 0.9609375
vt 0.472524609375 0.6796875
vt 0.467671484375 0.6796875
vt 0.468716796875 0.67468515625
vt 0.474559765625 0.67468515625
vt 0.460904296875 0.9755859375
vt 0.466747265625 0.9755859375
vt 0.466747265625 0.9765625
vt 0.460904296875 0.9765625
vt 0.466747265625 0.9720703125
vt 0.460904296875 0.9720703125
vt 0.460904296875 0.97109375
vt 0.466747265625 0.97109375
vt 0.4765625 0.8046875
vt 0.4921875 0.8046875
vt 0.4921875 0.8125
vt 0.4765625 0.8125
vt 0.4921875 0.796875
vt 0.4765625 0.796875
vt 0.4765625 0.7890625
vt 0.4921875 0.7890625
vt 0.2109375 0.515625
vt 0.2265625 0.515625
vt 0.2265625 0.5234375
vt 0.2109375 0.5234375
vt 0.25 0.5234375
vt 0.234375 0.5234375
vt 0.234375 0.515625
vt 0.25 0.515625
vt 0.437533203125 0.8427734375
vt 0.464130859375 0.841015625
vt 0.466747265625 0.84375
vt 0.437533203125 0.84375
vt 0.464130859375 0.841015625
vt 0.437533203125 0.8392578125
vt 0.437533203125 0.83828125
vt 0.466747265625 0.83828125
vt 0.464130859375 0.841015625
vt 0.466747265625 0.83828125
vt 0.466747265625 0.84375
vt 0.431690234375 0.8427734375
vt 0.437533203125 0.8427734375
vt 0.437533203125 0.84375
vt 0.431690234375 0.84375
vt 0.437533203125 0.8392578125
vt 0.431690234375 0.8392578125
vt 0.431690234375 0.83828125
vt 0.437533203125 0.83828125
vt 0.434306640625 0.973828125
vt 0.460904296875 0.9755859375
vt 0.460904296875 0.9765625
vt 0.431690234375 0.9765625
vt 0.434306640625 0.973828125
vt 0.431690234375 0.9765625
vt 0.431690234375 0.97109375
vt 0.460904296875 0.9720703125
vt 0.434306640625 0.973828125
vt 0.431690234375 0.97109375
vt 0.460904296875 0.97109375
vt 0.2047520120340324 0.9883466204996078
vt 0.21261036383611695 0.9867312814453104
vt 0.20470381326308684 0.994013795495593
vt 0.19898050883930746 0.9951902606613433
vt 0.23467387397452782 0.90269921875
vt 0.22681943075833413 0.9010649803741035
vt 0.22106440727547216 0.8942074761268028
vt 0.22678486504291911 0.8953977058291429
vt 0.21261036383611695 0.9867312814453104
vt 0.27249708258611693 0.9867312814453104
vt 0.21707833258611695 0.9988633126953105
vt 0.20472130133611696 0.9939976876953104
vt 0.29456059272452784 0.90269921875
vt 0.23467387397452782 0.90269921875
vt 0.22678481147452784 0.89539765625
vt 0.23914184272452782 0.890625
vt 0.2132518618621905 0.8629265625
vt 0.2731377993621905 0.8629265625
vt 0.28102764311219053 0.87022734375
vt 0.2686698306121905 0.875
vt 0.23270133955672298 0.9742034895897539
vt 0.17281540205672297 0.9742034895897539
vt 0.22823337080672298 0.9620722395897539
vt 0.240591183306723 0.9669370833397539
vt 0.426970703125 0.7734375
vt 0.406623046875 0.7734375
vt 0.393341796875 0.765625
vt 0.419939453125 0.765625
vt 0.2604909083128407 0.9684925790059101
vt 0.24055977105852872 0.9725885383096555
vt 0.2463316119472729 0.9657451829524452
vt 0.27249709794327703 0.9609375
vt 0.2731377993621905 0.8629265625
vt 0.2809924103821644 0.8645599941730642
vt 0.2867481381378095 0.8714169073118561
vt 0.28102755815744296 0.8702272651380467
vt 0.24055977105852872 0.9725885383096555
vt 0.23270133955672298 0.9742034895897539
vt 0.24060824947750903 0.9669213656989497
vt 0.2463316119472729 0.9657451829524452
vt 0.18482107692006874 0.9924435633050586
vt 0.2047520120340324 0.9883466204996078
vt 0.19898050883930746 0.9951902606613433
vt 0.17281541741388307 1
vt 0.434783203125 0.9609375
vt 0.414435546875 0.9609375
vt 0.401154296875 0.953125
vt 0.427751953125 0.953125
vt 0.4765625 0.84375
vt 0.4921875 0.84375
vt 0.4921875 0.8515625
vt 0.4765625 0.8515625
vt 0.222265625 0.47343749999999996
vt 0.234375 0.47343749999999996
vt 0.234375 0.4765625
vt 0.222265625 0.4765625
vt 0.3046875 0.4609375
vt 0.3125 0.4609375
vt 0.3125 0.46875
vt 0.3046875 0.46875
vt 0.234375 0.47343749999999996
vt 0.246484375 0.47343749999999996
vt 0.246484375 0.4765625
vt 0.234375 0.4765625
vt 0.140625 0.515625
vt 0.15625 0.515625
vt 0.15625 0.5234375
vt 0.140625 0.5234375
vt 0.34375 0.4609375
vt 0.3515625 0.4609375
vt 0.3515625 0.46875
vt 0.34375 0.46875
vn -0.48223735768324894 0.5032041993216555 0.7171001775482488
vn 0.6919053632356101 0.7219882051154288 1.9616336718628217e-15
vn -1.224646799147353e-16 1 -1.224646799147357e-16
vn 1.224646799147353e-16 -1 1.224646799147357e-16
vn 1.9616336718628205e-15 0.7219882051154288 -0.69190536323561
vn -2.138469780746171e-15 0.721988205115429 0.6919053632356098
vn 2.9629076969683865e-15 -1.224646799147353e-16 -1
vn 1 1.224646799147357e-16 2.9629076969683865e-15
vn -2.9629076969683865e-15 1.224646799147353e-16 1
vn -1 -1.224646799147357e-16 -2.9629076969683865e-15
vn 1.961633671862821e-15 0.7219882051154288 -0.6919053632356101
vn 1.224646799147353e-16 -1 1.224646799147357e-16
vn -2.138469780746171e-15 0.721988205115429 0.6919053632356098
vn -1.224646799147353e-16 1 -1.224646799147357e-16
vn -1.224646799147353e-16 1 -1.224646799147357e-16
vn 0.69190536323561 0.7219882051154288 1.9616336718628213e-15
vn 1 1.224646799147357e-16 2.9629076969683865e-15
vn 1.224646799147353e-16 -1 1.224646799147357e-16
vn -1 -1.224646799147357e-16 -2.9629076969683865e-15
vn 1.224646799147353e-16 -1 1.224646799147357e-16
vn -0.5511703976932041 0.5751343280277001 -0.6045094684377088
vn -1.224646799147353e-16 1 -1.224646799147357e-16
vn 1 1.224646799147357e-16 2.9629076969683865e-15
vn 1 1.224646799147357e-16 2.9629076969683865e-15
vn 0.6246950475544228 0.7808688094430315 1.7552849158531904e-15
vn 1.7552849158531908e-15 0.7808688094430315 -0.6246950475544231
vn 0.6246950475544227 0.7808688094430315 1.75528491585319e-15
vn -1.946542613460873e-15 0.7808688094430315 0.6246950475544227
vn -0.33305426248240744 0.7493720905854173 0.5722904228570849
vn -1.9465426134608734e-15 0.7808688094430315 0.6246950475544228
vn -0.2912514150061619 0.8152988553869681 -0.5004601778979106
vn 1.7552849158531908e-15 0.7808688094430313 -0.6246950475544231
vn 2.9629076969683865e-15 -1.224646799147353e-16 -1
vn 2.9629076969683865e-15 -1.224646799147353e-16 -1
vn -0.5580368811150975 -1.6996297696701087e-16 -0.8298161478998433
vn -0.5580368811150975 -1.6996297696701087e-16 -0.8298161478998433
vn -0.5580368811151024 3.3283360914254636e-17 0.8298161478998402
vn -0.5580368811151024 3.3283360914254636e-17 0.8298161478998402
vn -2.9629076969683865e-15 1.224646799147353e-16 1
vn -2.9629076969683865e-15 1.224646799147353e-16 1
vn -2.9629076969683865e-15 1.224646799147353e-16 1
vn -2.9629076969683865e-15 1.224646799147353e-16 1
vn -2.9629076969683865e-15 1.224646799147353e-16 1
vn 2.9629076969683865e-15 -1.224646799147353e-16 -1
vn 2.9629076969683865e-15 -1.224646799147353e-16 -1
vn 2.9629076969683865e-15 -1.224646799147353e-16 -1
vn 0.019075493424827658 0.9535720696759917 -0.30056019943506324
vn 0.020298866054190432 -0.9472554204893022 -0.3198360898812848
vn -0.02250661607981023 0.9960965021859933 -0.08535344495370703
vn -0.028780021712362026 -0.9936091697745574 -0.10914452844806845
vn -0.028780021712362908 0.9936091697745572 0.10914452844806827
vn -0.0225066160798105 -0.9960965021859933 0.08535344495370692
vn -1.224646799147353e-16 1 -1.224646799147357e-16
vn -8.236605982824745e-16 -0.9483623721931 0.31718892005912847
vn 0.02029886605418829 0.9472554204893022 0.3198360898812849
vn 0.019075493424826093 -0.9535720696759917 0.30056019943506335
vn 8.236605982824745e-16 0.9483623721931 -0.31718892005912847
vn 1.224646799147353e-16 -1 1.224646799147357e-16
vn -0.6737538576856862 7.984940373173172e-18 0.7389558439133262
vn 1 1.224646799147357e-16 2.9629076969683865e-15
vn -2.9629076969683865e-15 1.224646799147353e-16 1
vn 1 1.224646799147357e-16 2.9629076969683865e-15
vn -0.673753857685682 -1.7300704141876453e-16 -0.7389558439133301
vn 2.9629076969683865e-15 -1.224646799147353e-16 -1
usemtl m_084e7548-2300-4378-46d0-9b20b1ffff30
f 63/183/47 70/184/47 69/185/47 61/186/47
f 58/187/48 65/188/48 64/189/48 53/190/48
f 82/191/49 80/192/49 106/193/49 83/194/49
f 51/195/50 67/196/50 66/197/50 55/198/50
f 52/199/51 57/200/51 56/201/51 48/202/51
f 49/203/52 59/204/52 58/205/52 53/206/52
f 50/207/53 56/208/53 57/209/53 54/210/53
f 55/211/54 66/212/54 65/213/54 58/214/54
f 55/215/55 58/216/55 59/217/55 51/218/55
f 59/219/56 68/220/56 67/221/56 51/222/56
f 62/223/57 60/224/57 48/225/57 56/226/57
f 107/227/58 109/228/58 108/229/58 110/230/58
f 63/231/59 61/232/59 59/233/59 49/234/59
f 83/235/60 106/236/60 84/237/60 85/238/60
f 79/239/61 106/240/61 80/241/61 81/242/61
f 52/243/62 64/244/62 65/245/62 57/246/62
f 57/247/63 65/248/63 66/249/63 54/250/63
f 54/251/64 66/252/64 67/253/64 50/254/64
f 50/255/65 67/256/65 68/257/65 56/258/65
f 111/259/66 108/260/66 109/261/66 112/262/66
f 62/263/67 69/264/67 70/265/67 60/266/67
f 86/267/68 84/268/68 106/269/68 79/270/68
f 73/271/69 72/272/69 64/273/69 52/274/69
f 72/275/70 74/276/70 53/277/70 64/278/70
f 81/279/71 80/280/71 72/281/71 73/282/71
f 79/283/72 81/284/72 73/285/72 71/286/72
f 80/287/73 82/288/73 74/289/73 72/290/73
f 82/291/74 83/292/74 75/293/74 74/294/74
f 85/295/75 84/296/75 76/297/75 77/298/75
f 83/299/76 85/300/76 77/301/76 75/302/76
f 84/303/77 86/304/77 78/305/77 76/306/77
f 86/307/78 79/308/78 71/309/78 78/310/78
f 88/311/79 87/312/79 78/313/79 71/314/79
f 90/315/80 89/316/80 48/317/80 60/318/80
f 87/319/81 91/320/81 76/321/81 78/322/81
f 92/323/82 90/324/82 60/325/82 70/326/82
f 91/327/83 93/328/83 77/329/83 76/330/83
f 94/331/84 92/332/84 70/333/84 63/334/84
f 96/335/85 95/336/85 74/337/85 75/338/85
f 95/339/86 97/340/86 49/341/86 53/342/86
f 95/343/87 53/344/87 74/345/87
f 93/346/88 96/347/88 75/348/88 77/349/88
f 97/350/89 94/351/89 63/352/89 49/353/89
f 98/354/90 88/355/90 71/356/90 73/357/90
f 98/358/91 73/359/91 52/360/91
f 89/361/92 98/362/92 52/363/92 48/364/92
f 100/365/93 99/366/93 87/367/93 88/368/93
f 99/369/94 100/370/94 89/371/94 90/372/94
f 99/373/95 101/374/95 91/375/95 87/376/95
f 101/377/96 99/378/96 90/379/96 92/380/96
f 101/381/97 102/382/97 93/383/97 91/384/97
f 102/385/98 101/386/98 92/387/98 94/388/98
f 104/389/99 103/390/99 95/391/99 96/392/99
f 103/393/100 104/394/100 97/395/100 95/396/100
f 102/397/101 104/398/101 96/399/101 93/400/101
f 104/401/102 102/402/102 94/403/102 97/404/102
f 105/405/103 100/406/103 88/407/103 98/408/103
f 100/409/104 105/410/104 98/411/104 89/412/104
f 109/413/105 107/414/105 61/415/105 69/416/105
f 110/417/106 108/418/106 68/419/106 59/420/106
f 107/421/107 110/422/107 59/423/107 61/424/107
f 108/425/108 111/426/108 56/427/108 68/428/108
f 112/429/109 109/430/109 69/431/109 62/432/109
f 111/433/110 112/434/110 62/435/110 56/436/110
o cylinder
v -0.5375000000000001 1.156249999999999 -3.989863994746655e-18
v -0.5386898266861544 1.2624999999999986 -5.724571797083675e-18
v -0.5229646071760523 1.156249999999999 0.28750000000000003
v -0.5263139720814414 1.2062499999999978 0.275
v -0.38953539282394795 1.156249999999999 0.21046460717605217
v -0.3986860279185589 1.2062499999999978 0.20131397208144122
v -0.3125000000000001 1.156249999999999 0.07703539282394775
v -0.3250000000000001 1.2062499999999978 0.07368602791855872
v -0.3125000000000001 1.156249999999999 -0.0770353928239478
v -0.3250000000000001 1.2062499999999978 -0.07368602791855876
v -0.38953539282394783 1.156249999999999 -0.21046460717605217
v -0.3986860279185588 1.2062499999999978 -0.20131397208144122
v -0.5229646071760521 1.156249999999999 -0.2874999999999999
v -0.5263139720814412 1.2062499999999978 -0.2749999999999999
v -0.6770353928239478 1.156249999999999 -0.28750000000000003
v -0.6736860279185587 1.2062499999999978 -0.275
v -0.8104646071760522 1.156249999999999 -0.21046460717605225
v -0.8013139720814413 1.2062499999999978 -0.2013139720814413
v -0.8875 1.156249999999999 -0.07703539282394774
v -0.875 1.2062499999999978 -0.0736860279185587
v -0.8875 1.156249999999999 0.07703539282394761
v -0.875 1.2062499999999978 0.07368602791855859
v -0.8104646071760524 1.156249999999999 0.21046460717605217
v -0.8013139720814414 1.2062499999999978 0.20131397208144122
v -0.6770353928239479 1.156249999999999 0.28750000000000003
v -0.6736860279185588 1.2062499999999978 0.275
v -0.8437488325862705 1.2062499999999978 0.06531230284751997
v -0.8437504586277511 1.2062499999999978 -0.06531273854402164
v -0.7784377200837294 1.2062499999999978 -0.1784377200837294
v -0.6653127385440216 1.2062499999999978 -0.24375045862775108
v -0.5346872614559783 1.2062499999999978 -0.243750458627751
v -0.42156227991627077 1.2062499999999978 -0.17843772008372935
v -0.356249541372249 1.2062499999999978 -0.0653127385440217
v -0.356249541372249 1.2062499999999978 0.06531273854402166
v -0.42156227991627077 1.2062499999999978 0.17843772008372935
v -0.5346872614559786 1.2062499999999978 0.24375045862775108
v -0.6653127385440216 1.2062499999999978 0.24375045862775108
v -0.7784377200837294 1.2062499999999978 0.17843772008372935
v -0.7312497983409695 1.2374999999999983 0.04521637218837746
v -0.7312509240660409 1.2374999999999983 -0.04521667382550127
v -0.6860342502405395 1.2374999999999983 -0.12353425024053935
v -0.6452166738255014 1.2374999999999983 -0.16875092406604064
v -0.5547833261744988 1.2374999999999983 -0.1687509240660406
v -0.47646574975946077 1.2374999999999983 -0.12353425024053931
v -0.43124907593395945 1.2374999999999983 -0.045216673825501305
v -0.43124907593395945 1.2374999999999983 0.04521667382550128
v -0.47646574975946077 1.2374999999999983 0.12353425024053931
v -0.5547833261744988 1.2374999999999983 0.16875092406604064
v -0.6452166738255014 1.2374999999999983 0.16875092406604064
v -0.6860342502405395 1.2374999999999983 0.12353425024053931
v -0.5346872614559783 1.2249999999999979 -0.243750458627751
v -0.3986860279185588 1.2249999999999979 -0.20131397208144122
v -0.42156227991627077 1.2249999999999979 -0.17843772008372935
v -0.5263139720814412 1.2249999999999979 -0.2749999999999999
v -0.6653127385440216 1.2249999999999979 -0.24375045862775108
v -0.6736860279185587 1.2249999999999979 -0.275
v -0.7805195229279426 1.224519225472893 -0.17963964951623562
v -0.8013139720814413 1.2249999999999979 -0.2013139720814413
v -0.8458322614719643 1.224519225472893 -0.06651466797652786
v -0.875 1.2249999999999979 -0.0736860279185587
v -0.8458306563089284 1.2245192226261714 0.06651420978128236
v -0.875 1.2249999999999979 0.07368602791855859
v -0.7805195438063872 1.2245192226261714 0.17963962701749175
v -0.8013139720814414 1.2249999999999979 0.20131397208144122
v -0.6653127385440216 1.2249999999999979 0.24375045862775108
v -0.6736860279185588 1.2249999999999979 0.275
v -0.5346872614559786 1.2249999999999979 0.24375045862775108
v -0.5263139720814414 1.2249999999999979 0.275
v -0.42156227991627077 1.2249999999999979 0.17843772008372935
v -0.3986860279185589 1.2249999999999979 0.20131397208144122
v -0.356249541372249 1.2249999999999979 0.06531273854402166
v -0.3250000000000001 1.2249999999999979 0.07368602791855872
v -0.356249541372249 1.2249999999999979 -0.0653127385440217
v -0.3250000000000001 1.2249999999999979 -0.07368602791855876
v -0.6903468187279816 1.2554276168251204 0.1260240412401175
v -0.7355623668284116 1.2554276168251204 0.04770616318795565
v -0.5386898266861544 1.2810475664360552 -1.256904516131091e-8
v -0.7355634488012139 1.2554276217595357 -0.04770651114224034
v -0.6903467749757126 1.2554276217595357 -0.12602408755727842
vt 0.0653703125 0.9841203125
vt 0.0486921875 0.99375
vt 0.046875 0.9578125
vt 0.44949140625 0.7490265625
vt 0.46875 0.7490265625
vt 0.46833125 0.75546875
vt 0.44991015624999997 0.75546875
vt 0.12777900379647214 0.8730073949368515
vt 0.11363837879647215 0.8648433324368515
vt 0.11468525379647215 0.8609370824368515
vt 0.13063837879647217 0.8701480199368514
vt 0.075 0.9674421875
vt 0.0653703125 0.9841203125
vt 0.046875 0.9578125
vt 0.449490625 0.9052765625
vt 0.46875 0.9052765625
vt 0.46833125 0.91171875
vt 0.449909375 0.91171875
vt 0.13594306629647215 0.8871480199368516
vt 0.12777900379647214 0.8730073949368515
vt 0.13063837879647217 0.8701480199368514
vt 0.13984931629647215 0.8861011449368514
vt 0.075 0.9481828125
vt 0.075 0.9674421875
vt 0.046875 0.9578125
vt 0.4395890625 0.6084007812500001
vt 0.4588484375 0.6084007812500001
vt 0.4584296875 0.61484375
vt 0.4400078125 0.61484375
vt 0.13594306629647215 0.9034761449368515
vt 0.13594306629647215 0.8871480199368516
vt 0.13984931629647215 0.8861011449368514
vt 0.13984931629647215 0.9045230199368515
vt 0.0653703125 0.9315046875
vt 0.075 0.9481828125
vt 0.046875 0.9578125
vt 0.4453125 0.9287140625
vt 0.464571875 0.9287140625
vt 0.464153125 0.93515625
vt 0.44573125 0.93515625
vt 0.12777900379647214 0.9176167699368515
vt 0.13594306629647215 0.9034761449368515
vt 0.13984931629647215 0.9045230199368515
vt 0.13063837879647214 0.9204761449368515
vt 0.0486921875 0.921875
vt 0.0653703125 0.9315046875
vt 0.046875 0.9578125
vt 0.4453125 0.6552765625
vt 0.46457109375 0.6552765625
vt 0.46415234375000003 0.66171875
vt 0.44573125 0.66171875
vt 0.11363837879647215 0.9257808324368515
vt 0.12777900379647214 0.9176167699368515
vt 0.13063837879647214 0.9204761449368515
vt 0.11468525379647215 0.9296870824368515
vt 0.029432812500000002 0.921875
vt 0.0486921875 0.921875
vt 0.046875 0.9578125
vt 0.4474015625 0.8037140625000001
vt 0.4666609375 0.8037140625000001
vt 0.4662421875 0.81015625
vt 0.4478203125 0.81015625
vt 0.09731025379647215 0.9257808324368515
vt 0.11363837879647215 0.9257808324368515
vt 0.11468525379647215 0.9296870824368515
vt 0.09626337879647215 0.9296870824368515
vt 0.0127546875 0.9315046875
vt 0.029432812500000002 0.921875
vt 0.046875 0.9578125
vt 0.41042890625 0.5537132812500001
vt 0.4296875 0.5537132812500001
vt 0.42926875 0.56015625
vt 0.41084765624999997 0.56015625
vt 0.0829096266762962 0.9177665571060508
vt 0.09731025379647215 0.9257808324368515
vt 0.09626326688954835 0.9296875
vt 0.0803103019822054 0.9204758782248422
vt 0.0031250000000000028 0.9481828125
vt 0.0127546875 0.9315046875
vt 0.046875 0.9578125
vt 0.449490625 0.9521515625
vt 0.46875 0.9521515625
vt 0.46833125 0.95859375
vt 0.449909375 0.95859375
vt 0.07473511693379634 0.9036240032631522
vt 0.08289299616603406 0.917768142418571
vt 0.08029214505741135 0.9204767508876748
vt 0.07108818370352785 0.9045189135056282
vt 0.0031250000000000028 0.9674421875
vt 0.0031250000000000028 0.9481828125
vt 0.046875 0.9578125
vt 0.4474015625 0.8818390625
vt 0.4666609375 0.8818390625
vt 0.4662421875 0.88828125
vt 0.4478203125 0.88828125
vt 0.07474057602279191 0.8869952251102027
vt 0.07473459929046818 0.9036241302861293
vt 0.07108818370352785 0.9045189135056282
vt 0.07109480458074004 0.8860978209454603
vt 0.0127546875 0.9841203125
vt 0.0031250000000000028 0.9674421875
vt 0.046875 0.9578125
vt 0.4453125 0.9912140625
vt 0.464571875 0.9912140625
vt 0.464153125 0.99765625
vt 0.44573125 0.99765625
vt 0.08290913802194869 0.8728570811850678
vt 0.07474109357467758 0.8869953525052479
vt 0.07109480458074004 0.8860978209454603
vt 0.08030984381625225 0.8701472803015116
vt 0.029432812500000002 0.99375
vt 0.0127546875 0.9841203125
vt 0.046875 0.9578125
vt 0.4375 0.5537132812500001
vt 0.45675859375 0.5537132812500001
vt 0.45633984375000003 0.56015625
vt 0.43791875 0.56015625
vt 0.09731021636778316 0.8648431927775642
vt 0.08290909728876605 0.8728570387201502
vt 0.08030984381625225 0.8701472803015116
vt 0.09626337879647216 0.8609370824368515
vt 0.0486921875 0.99375
vt 0.029432812500000002 0.99375
vt 0.046875 0.9578125
vt 0.4474015625 0.8584015625000001
vt 0.4666609375 0.8584015625000001
vt 0.4662421875 0.86484375
vt 0.4478203125 0.86484375
vt 0.11363837879647215 0.8648433324368515
vt 0.09731025379647215 0.8648433324368515
vt 0.09626337879647215 0.8609370824368515
vt 0.11468525379647215 0.8609370824368515
vt 0.01737109375 0.7101031250000001
vt 0.0060671875 0.7101031250000001
vt 0.0035546875000000006 0.6955085937500001
vt 0.0198828125 0.6955085937500001
vt 0.04983203125 0.70205859375
vt 0.03852734375 0.70205859375
vt 0.038359375 0.68838828125
vt 0.0546875 0.68838828125
vt 0.0859375 0.5604682123479625
vt 0.08380549192328028 0.5677776917627162
vt 0.07365449869798633 0.5703125
vt 0.07365449869798633 0.5541299999992457
vt 0.23355553411512667 0.9318005690794661
vt 0.22225084661512667 0.9318005690794661
vt 0.21973912786512667 0.9216443190794661
vt 0.23606725286512664 0.9216443190794661
vt 0.49037890625 0.984375
vt 0.47907500000000003 0.984375
vt 0.4765625 0.9765625
vt 0.492890625 0.9765625
vt 0.07034141701800714 0.7883551396822417
vt 0.06033984375 0.7830859375
vt 0.0628515625 0.7729296875
vt 0.07729751144964403 0.7805403527113928
vt 0.06033984375 0.7830859375
vt 0.04903515625 0.7830859375
vt 0.0465234375 0.7729296875
vt 0.0628515625 0.7729296875
vt 0.04903515625 0.7830859375
vt 0.039033582981992866 0.7883551396822417
vt 0.03207748855035597 0.7805403527113928
vt 0.0465234375 0.7729296875
vt 0.052175 0.5234375
vt 0.04087109375 0.5234375
vt 0.038359374999999994 0.515625
vt 0.0546875 0.515625
vt 0.19386567238483984 0.87711328125
vt 0.18256098488483985 0.87711328125
vt 0.18004926613483985 0.86695703125
vt 0.19637739113483985 0.86695703125
vt 0.18256085238999645 0.8771130690794661
vt 0.17741910536759292 0.8827287956853035
vt 0.1654989597453149 0.8754013737075028
vt 0.17954384392808728 0.8671975538918972
vt 0.078659375 0.70205859375
vt 0.06735546875000001 0.70205859375
vt 0.0625 0.6883890625
vt 0.078828125 0.6883890625
vt 0.01737109375 0.7101031250000001
vt 0.01171953125 0.734375
vt 0.0060671875 0.7101031250000001
vt 0.04983203125 0.70205859375
vt 0.04269140625 0.7265625
vt 0.03852734375 0.70205859375
vt 0.2386972811375302 0.9374162956853035
vt 0.22023899537028324 0.953125
vt 0.23355553411512667 0.9318005690794661
vt 0.23355553411512667 0.9318005690794661
vt 0.22023912786512667 0.9531247878294661
vt 0.22225084661512667 0.9318005690794661
vt 0.22225080294363891 0.9318010319972363
vt 0.22023912786512667 0.9531247878294661
vt 0.21242441405697562 0.9373885518367401
vt 0.2124241978456518 0.9373881164590028
vt 0.22023912786512667 0.9531247878294661
vt 0.2066152188624698 0.9470861431987888
vt 0.06033984375 0.7830859375
vt 0.0546875 0.796875
vt 0.04903515625 0.7830859375
vt 0.2095010402546851 0.89239882782929
vt 0.19587713125202827 0.8984374724599672
vt 0.20369206127150313 0.8827008010895039
vt 0.20369206127150313 0.8827008010895039
vt 0.1958773474633521 0.8984370370822298
vt 0.19386567238483984 0.87711328125
vt 0.19386567238483984 0.87711328125
vt 0.19587739113483985 0.8984375
vt 0.18256098488483985 0.87711328125
vt 0.18256085238999645 0.8771130690794661
vt 0.19587739113483985 0.8984375
vt 0.17741910536759292 0.8827287956853035
vt 0.078659375 0.70205859375
vt 0.0744953125 0.7265625
vt 0.06735546875000001 0.70205859375
vt 0.25 0.5078125
vt 0.234375 0.5078125
vt 0.234375 0.5
vt 0.25 0.5
vt 0.46415234375000003 0.6640625
vt 0.44573125 0.6640625
vt 0.44573125 0.66171875
vt 0.46415234375000003 0.66171875
vt 0.1484375 0.5078125
vt 0.1328125 0.5078125
vt 0.1328125 0.5
vt 0.1484375 0.5
vt 0.4662421875 0.8125
vt 0.4478203125 0.8125
vt 0.4478203125 0.81015625
vt 0.4662421875 0.81015625
vt 0.5703125 0.921875
vt 0.5538319185903946 0.921875
vt 0.5539773281276105 0.9195767903830503
vt 0.5703038887913853 0.91954610967017
vt 0.42926875 0.5625
vt 0.41084765624999997 0.5625
vt 0.41084765624999997 0.56015625
vt 0.42926875 0.56015625
vt 0.46833125 0.9609375
vt 0.449909375 0.9609375
vt 0.449909375 0.95859375
vt 0.46833125 0.95859375
vt 0.488783203125 0.609375
vt 0.472154296875 0.609375
vt 0.472305078125 0.6015625
vt 0.488633203125 0.6015625
vt 0.4662421875 0.890625
vt 0.4478203125 0.890625
vt 0.4478203125 0.88828125
vt 0.4662421875 0.88828125
vt 0.464153125 1
vt 0.44573125 1
vt 0.44573125 0.99765625
vt 0.464153125 0.99765625
vt 0.48523046875 0.56243984375
vt 0.46875 0.5625
vt 0.46875 0.5546875
vt 0.4850765625 0.5546875
vt 0.45633984375000003 0.5625
vt 0.43791875 0.5625
vt 0.43791875 0.56015625
vt 0.45633984375000003 0.56015625
vt 0.5 0.578125
vt 0.484375 0.578125
vt 0.484375 0.5703125
vt 0.5 0.5703125
vt 0.4662421875 0.8671875
vt 0.4478203125 0.8671875
vt 0.4478203125 0.86484375
vt 0.4662421875 0.86484375
vt 0.5078125 0.7578125
vt 0.4921875 0.7578125
vt 0.4921875 0.75
vt 0.5078125 0.75
vt 0.46833125 0.7578125
vt 0.44991015624999997 0.7578125
vt 0.44991015624999997 0.75546875
vt 0.46833125 0.75546875
vt 0.5078125 0.8359375
vt 0.4921875 0.8359375
vt 0.4921875 0.828125
vt 0.5078125 0.828125
vt 0.46833125 0.9140625
vt 0.449909375 0.9140625
vt 0.449909375 0.91171875
vt 0.46833125 0.91171875
vt 0.125 0.5078125
vt 0.109375 0.5078125
vt 0.109375 0.5
vt 0.125 0.5
vt 0.4584296875 0.6171875
vt 0.4400078125 0.6171875
vt 0.4400078125 0.61484375
vt 0.4584296875 0.61484375
vt 0.2265625 0.5078125
vt 0.2109375 0.5078125
vt 0.2109375 0.5
vt 0.2265625 0.5
vt 0.464153125 0.9375
vt 0.44573125 0.9375
vt 0.44573125 0.93515625
vt 0.464153125 0.93515625
vt 0.390625 0.9554065734668635
vt 0.37666362147519744 0.959346099237875
vt 0.3760649267352781 0.9570986430676017
vt 0.3903308494159692 0.953125
vt 0.061289843749999996 0.63741875
vt 0.04816220095130789 0.6336037639324691
vt 0.04845443845878885 0.6313190611039567
vt 0.061904111805501046 0.6351750304232271
vt 0.0859375 0.640625
vt 0.061289843749999996 0.63741875
vt 0.061903906249999995 0.63517578125
vt 0.0859375 0.6383085937499999
vt 0.37666362147519744 0.959346099237875
vt 0.3513425277251975 0.9625492242378749
vt 0.3513425277251975 0.9602304742378749
vt 0.37606674647519744 0.957105474237875
vt 0.3971505201405783 0.9007222167950605
vt 0.38402265625 0.9045364419871484
vt 0.383408518239955 0.9022926868115954
vt 0.3968591962977373 0.8984375
vt 0.35773125 0.6844221275475965
vt 0.34375 0.6805549400475964
vt 0.3440328125 0.6782690025475965
vt 0.35831796875 0.6821736900475964
vt 0.3830681808242631 0.6875
vt 0.35773125 0.6844221275475965
vt 0.35831858297578956 0.6821713361969676
vt 0.3830559648876903 0.6851883135268824
vt 0.38402265625 0.9045364419871484
vt 0.359375 0.9077395669871484
vt 0.359375 0.9054208169871484
vt 0.383409375 0.9022958169871484
vn 0 -1 0
vn 0.48507125007266605 0.24253562503633747 0.8401680504168046
vn 0 1 0
vn 0 -1 0
vn 0.8401680504168048 0.24253562503633805 0.48507125007266577
vn 0 1 0
vn 0 -1 0
vn 0.9701425001453307 0.24253562503633802 0
vn 0 1 0
vn 0 -1 0
vn 0.840168050416805 0.24253562503633713 -0.4850712500726654
vn 0 1 0
vn 0 -1 0
vn 0.48507125007266566 0.24253562503633827 -0.8401680504168045
vn 0 1 0
vn 0 -1 0
vn 6.990777234629305e-16 0.24253562503633802 -0.9701425001453308
vn 0 1 0
vn 0 -1 0
vn -0.4850712500726656 0.24253562503633685 -0.8401680504168052
vn -0.0036316071756477657 0.9999929322412984 0.0009730862099418905
vn 0 -1 0
vn -0.8401680504168052 0.24253562503633685 -0.4850712500726652
vn 0.01443214715252085 0.9998611324436129 0.008332404043492206
vn 0 -1 0
vn -0.9701425001453309 0.24253562503633705 0
vn 0.01648089723869527 0.9998641807896591 -1.7746667158879791e-7
vn 0 -1 0
vn -0.8401680504168056 0.24253562503633805 0.48507125007266405
vn 0.01443147430722392 0.9998611473885565 -0.00833177605072245
vn 0 -1 0
vn -0.48507125007266544 0.24253562503633824 0.8401680504168046
vn 0.005325922065355454 0.9998401357220315 -0.017068613110137174
vn 0 -1 0
vn 0 0.24253562503633802 0.9701425001453307
vn 0 1 0
vn -0.2676454442883535 0.963517470594379 0.000003331693447884934
vn -0.2447680723267371 0.959227877527513 -0.14131691244686745
vn -0.32093923880653663 0.9017000909462561 -0.28971529297190074
vn 2.360916214390741e-16 0.9230760756632093 -0.38461741840198754
vn 0.1923087092009938 0.9230760756632093 -0.3330884550741096
vn 0.33308845507410945 0.9230760756632092 -0.19230870920099383
vn 0.3846174184019874 0.9230760756632092 0
vn 0.33308845507410967 0.9230760756632092 0.1923087092009939
vn 0.1923087092009941 0.9230760756632089 0.3330884550741098
vn 0 0.9230760756632092 0.3846174184019874
vn -0.2110401360583672 0.9587328558563497 0.19050819424369592
vn -0.2447698691856497 0.9592278646865785 0.1413138873135517
vn -0.12874876542810576 0.9916772435617196 0.0000016026852963652702
vn -0.11318306142645868 0.9914229468167691 -0.06534627098227185
vn -0.09577007281831093 0.9916420869839945 -0.08645267187544693
vn 8.995621094917935e-17 0.9892035786874459 -0.1465478758356807
vn 0.08906907566543985 0.984005487301985 -0.15427216443573855
vn 0.18297458069797695 0.9774253954946465 -0.10564042342083599
vn 0.22663199361629036 0.9739804615440218 0
vn 0.18297458069797695 0.9774253954946465 0.10564042342083596
vn 0.08906907566543991 0.984005487301985 0.1542721644357385
vn 0 0.9892035786874459 0.14654787583568066
vn -0.09577007281831099 0.9916420869839945 0.0864526718754469
vn -0.11318411803148846 0.9914229098021071 0.06534500244821481
vn -0.5000000000000001 0 0.8660254037844385
vn 0.5000000000000001 0 -0.8660254037844386
vn -6.3744629840290555e-16 0 1
vn 7.533470428425229e-16 0 -1
vn 0.48283762695337984 0.11215832613416825 0.8684977466158508
vn -0.49999999999999967 0 -0.8660254037844389
vn -0.8660254037844389 0 -0.49999999999999967
vn 0.9935698782704595 0.11322056725680976 -0.000011986264649198625
vn -1 0 0
vn -0.8660254037844393 0 0.4999999999999989
vn 0.48626326281244514 0 -0.8738123592848724
vn -0.5000000000000001 0 0.8660254037844387
vn 0 0 -1
vn 0 0 1
vn -0.5 0 -0.8660254037844387
vn 0.5000000000000004 0 0.8660254037844384
vn -0.8660254037844385 0 -0.5000000000000004
vn 0.8660254037844386 0 0.5000000000000001
vn -1 0 0
vn 1 0 0
vn -0.8660254037844385 0 0.5000000000000007
vn 0.8660254037844388 0 -0.49999999999999967
vn -0.19181263807650206 0.0895909257283571 -0.9773338108861624
vn 0.5106582318167762 0.001626898403687998 0.8597822535266403
vn 0.6339260314532095 0.04526882999037791 0.7720676911238334
vn -0.23550435835965153 -6.586049626221861e-7 -0.9718732927666934
vn 0.5102334177685104 0.0032943749342473462 -0.860029654422484
vn -0.179984641058989 0.044140772604633095 0.9826785441723723
vn -0.2441073557602804 0.07555142853688743 0.966800693271245
vn 0.6391162038905721 -5.211994093294132e-7 -0.769110185814902
usemtl m_084e7548-2300-4378-46d0-9b20b1ffff30
f 117/437/111 115/438/111 113/439/111
f 115/440/112 117/441/112 118/442/112 116/443/112
f 181/444/113 179/445/113 180/446/113 182/447/113
f 119/448/114 117/449/114 113/450/114
f 117/451/115 119/452/115 120/453/115 118/454/115
f 183/455/116 181/456/116 182/457/116 184/458/116
f 121/459/117 119/460/117 113/461/117
f 119/462/118 121/463/118 122/464/118 120/465/118
f 185/466/119 183/467/119 184/468/119 186/469/119
f 123/470/120 121/471/120 113/472/120
f 121/473/121 123/474/121 124/475/121 122/476/121
f 165/477/122 185/478/122 186/479/122 164/480/122
f 125/481/123 123/482/123 113/483/123
f 123/484/124 125/485/124 126/486/124 124/487/124
f 163/488/125 165/489/125 164/490/125 166/491/125
f 127/492/126 125/493/126 113/494/126
f 125/495/127 127/496/127 128/497/127 126/498/127
f 167/499/128 163/500/128 166/501/128 168/502/128
f 129/503/129 127/504/129 113/505/129
f 127/506/130 129/507/130 130/508/130 128/509/130
f 169/510/131 167/511/131 168/512/131 170/513/131
f 131/514/132 129/515/132 113/516/132
f 129/517/133 131/518/133 132/519/133 130/520/133
f 171/521/134 169/522/134 170/523/134 172/524/134
f 133/525/135 131/526/135 113/527/135
f 131/528/136 133/529/136 134/530/136 132/531/136
f 173/532/137 171/533/137 172/534/137 174/535/137
f 135/536/138 133/537/138 113/538/138
f 133/539/139 135/540/139 136/541/139 134/542/139
f 175/543/140 173/544/140 174/545/140 176/546/140
f 137/547/141 135/548/141 113/549/141
f 135/550/142 137/551/142 138/552/142 136/553/142
f 177/554/143 175/555/143 176/556/143 178/557/143
f 115/558/144 137/559/144 113/560/144
f 137/561/145 115/562/145 116/563/145 138/564/145
f 179/565/146 177/566/146 178/567/146 180/568/146
f 151/569/147 152/570/147 140/571/147 139/572/147
f 190/573/148 191/574/148 169/575/148 171/576/148
f 153/577/149 154/578/149 142/579/149 141/580/149
f 154/581/150 155/582/150 143/583/150 142/584/150
f 155/585/151 156/586/151 144/587/151 143/588/151
f 156/589/152 157/590/152 145/591/152 144/592/152
f 157/593/153 158/594/153 146/595/153 145/596/153
f 158/597/154 159/598/154 147/599/154 146/600/154
f 159/601/155 160/602/155 148/603/155 147/604/155
f 160/605/156 161/606/156 149/607/156 148/608/156
f 161/609/157 162/610/157 150/611/157 149/612/157
f 187/613/158 188/614/158 173/615/158 175/616/158
f 151/617/159 114/618/159 152/619/159
f 190/620/160 189/621/160 191/622/160
f 153/623/161 114/624/161 154/625/161
f 154/626/162 114/627/162 155/628/162
f 155/629/163 114/630/163 156/631/163
f 156/632/164 114/633/164 157/634/164
f 157/635/165 114/636/165 158/637/165
f 158/638/166 114/639/166 159/640/166
f 159/641/167 114/642/167 160/643/167
f 160/644/168 114/645/168 161/646/168
f 161/647/169 114/648/169 162/649/169
f 187/650/170 189/651/170 188/652/170
f 165/653/171 163/654/171 143/655/171 144/656/171
f 166/657/172 164/658/172 124/659/172 126/660/172
f 163/661/173 167/662/173 142/663/173 143/664/173
f 168/665/174 166/666/174 126/667/174 128/668/174
f 167/669/175 169/670/175 141/671/175 142/672/175
f 170/673/176 168/674/176 128/675/176 130/676/176
f 172/677/177 170/678/177 130/679/177 132/680/177
f 171/681/178 173/682/178 139/683/178 140/684/178
f 174/685/179 172/686/179 132/687/179 134/688/179
f 176/689/180 174/690/180 134/691/180 136/692/180
f 175/693/181 177/694/181 149/695/181 150/696/181
f 178/697/182 176/698/182 136/699/182 138/700/182
f 177/701/183 179/702/183 148/703/183 149/704/183
f 180/705/184 178/706/184 138/707/184 116/708/184
f 179/709/185 181/710/185 147/711/185 148/712/185
f 182/713/186 180/714/186 116/715/186 118/716/186
f 181/717/187 183/718/187 146/719/187 147/720/187
f 184/721/188 182/722/188 118/723/188 120/724/188
f 183/725/189 185/726/189 145/727/189 146/728/189
f 186/729/190 184/730/190 120/731/190 122/732/190
f 185/733/191 165/734/191 144/735/191 145/736/191
f 164/737/192 186/738/192 122/739/192 124/740/192
f 173/741/193 188/742/193 151/743/193 139/744/193
f 187/745/194 175/746/194 150/747/194 162/748/194
f 189/749/195 187/750/195 162/751/195 114/752/195
f 188/753/196 189/754/196 114/755/196 151/756/196
f 169/757/197 191/758/197 153/759/197 141/760/197
f 190/761/198 171/762/198 140/763/198 152/764/198
f 189/765/199 190/766/199 152/767/199 114/768/199
f 191/769/200 189/770/200 114/771/200 153/772/200
o Arm
v -0.3343749999999953 1.0218750000000016 5.389023147467818e-16
v -0.15937499999999533 1.021875000000001 8.772126480466929e-16
v -0.3343749999999951 1.0550182628834883 -0.05624999999999942
v -0.15937499999999508 1.0550182628834877 -0.05624999999999908
v -0.33437499999999504 1.0781250000000013 -0.037362012883486
v -0.15937499999999502 1.0781250000000007 -0.03736201288348566
v -0.33437499999999515 1.0781250000000013 0.037362012883487165
v -0.1593749999999952 1.0781250000000007 0.037362012883487505
v -0.3343749999999953 1.0550182628834883 0.056250000000000556
v -0.1593749999999953 1.0550182628834877 0.056250000000000897
v -0.33437499999999554 0.988731737116515 0.056250000000000494
v -0.15937499999999558 0.9887317371165143 0.056250000000000834
v -0.3343749999999956 0.965625000000002 0.0373620128834871
v -0.15937499999999563 0.9656250000000013 0.03736201288348744
v -0.3343749999999955 0.965625000000002 -0.03736201288348612
v -0.15937499999999546 0.9656250000000013 -0.03736201288348578
v -0.3343749999999953 0.988731737116515 -0.05624999999999947
v -0.15937499999999535 0.9887317371165143 -0.05624999999999913
v -0.3177083333333285 1.0550182628834883 -0.056249999999999384
v -0.3177083333333287 0.988731737116515 -0.05624999999999944
v -0.29466911764705395 1.055018262883488 -0.056249999999999335
v -0.29466911764705417 0.9887317371165147 -0.05624999999999939
v -0.3177083333333289 0.965625000000002 -0.03736201288348608
v -0.29466911764705433 0.9656250000000017 -0.03736201288348604
v -0.317708333333329 0.965625000000002 0.03736201288348714
v -0.29466911764705445 0.9656250000000017 0.03736201288348718
v -0.31770833333332893 0.988731737116515 0.05625000000000052
v -0.2946691176470544 0.9887317371165147 0.05625000000000057
v -0.3177083333333287 1.0550182628834883 0.05625000000000059
v -0.29466911764705417 1.055018262883488 0.05625000000000064
v -0.31770833333332854 1.0781250000000013 0.03736201288348719
v -0.294669117647054 1.078125000000001 0.03736201288348724
v -0.31770833333332843 1.0781250000000013 -0.03736201288348597
v -0.2946691176470539 1.078125000000001 -0.03736201288348592
vt 0.43671875 0.7538890625
vt 0.43383046875 0.75625
vt 0.4296875 0.74921875
vt 0.12908124999999998 0.4765625
vt 0.12908124999999998 0.45965078125000003
vt 0.1328125 0.45965078125000003
vt 0.1328125 0.4765625
vt 0.12914296874999998 0.55625
vt 0.13203125 0.5586109375
vt 0.12499999999999999 0.56328125
vt 0.43671875 0.7445484375
vt 0.43671875 0.7538890625
vt 0.4296875 0.74921875
vt 0.1906421875 0.578125
vt 0.1906421875 0.56121328125
vt 0.1999828125 0.56121328125
vt 0.1999828125 0.578125
vt 0.13203125 0.5586109375
vt 0.13203125 0.5679515625
vt 0.12499999999999999 0.56328125
vt 0.43383046875 0.7421875
vt 0.43671875 0.7445484375
vt 0.4296875 0.74921875
vt 0.109375 0.4765625
vt 0.109375 0.45965078125000003
vt 0.11310625 0.45965078125000003
vt 0.11310625 0.4765625
vt 0.13203125 0.5679515625
vt 0.12914296874999998 0.5703125
vt 0.12499999999999999 0.56328125
vt 0.42554453125 0.7421875
vt 0.43383046875 0.7421875
vt 0.4296875 0.74921875
vt 0.0036695312500000105 0.5625
vt 0.0036695312500000105 0.54558828125
vt 0.01195546874999999 0.54558828125
vt 0.01195546874999999 0.5625
vt 0.12914296874999998 0.5703125
vt 0.12085703125000001 0.5703125
vt 0.12499999999999999 0.56328125
vt 0.42265625 0.7445484375
vt 0.42554453125 0.7421875
vt 0.4296875 0.74921875
vt 0.17595703125 0.4765625
vt 0.17595703125 0.45965078125000003
vt 0.1796875 0.45965078125000003
vt 0.1796875 0.4765625
vt 0.12085703125000001 0.5703125
vt 0.11796875 0.5679515625
vt 0.12499999999999999 0.56328125
vt 0.42265625 0.7538890625
vt 0.42265625 0.7445484375
vt 0.4296875 0.74921875
vt 0.0500171875 0.5703125
vt 0.0500171875 0.55340078125
vt 0.059357812499999996 0.55340078125
vt 0.059357812499999996 0.5703125
vt 0.11796875 0.5679515625
vt 0.11796875 0.5586109375
vt 0.12499999999999999 0.56328125
vt 0.42554453125 0.75625
vt 0.42265625 0.7538890625
vt 0.4296875 0.74921875
vt 0.140625 0.4765625
vt 0.140625 0.45965078125000003
vt 0.14435546875 0.45965078125000003
vt 0.14435546875 0.4765625
vt 0.11796875 0.5586109375
vt 0.12085703125000001 0.55625
vt 0.12499999999999999 0.56328125
vt 0.43383046875 0.75625
vt 0.42554453125 0.75625
vt 0.4296875 0.74921875
vt 0.16773203125000002 0.5625
vt 0.16773203125000002 0.54558828125
vt 0.17601796874999998 0.54558828125
vt 0.17601796874999998 0.5625
vt 0.12085703125000001 0.55625
vt 0.12914296874999998 0.55625
vt 0.12499999999999999 0.56328125
vt 0.17601796874999998 0.540625
vt 0.17601796874999998 0.54270859375
vt 0.16773203125000002 0.54270859375
vt 0.16773203125000002 0.540625
vt 0.17601796874999998 0.54270859375
vt 0.17601796874999998 0.54558828125
vt 0.16773203125000002 0.54558828125
vt 0.16773203125000002 0.54270859375
vt 0.14435546875 0.4546875
vt 0.14435546875 0.45677109375
vt 0.140625 0.45677109375
vt 0.140625 0.4546875
vt 0.14435546875 0.45677109375
vt 0.14435546875 0.45965078125000003
vt 0.140625 0.45965078125000003
vt 0.140625 0.45677109375
vt 0.059357812499999996 0.5484375
vt 0.059357812499999996 0.55052109375
vt 0.0500171875 0.55052109375
vt 0.0500171875 0.5484375
vt 0.059357812499999996 0.55052109375
vt 0.059357812499999996 0.55340078125
vt 0.0500171875 0.55340078125
vt 0.0500171875 0.55052109375
vt 0.1796875 0.4546875
vt 0.1796875 0.45677109375
vt 0.17595703125 0.45677109375
vt 0.17595703125 0.4546875
vt 0.1796875 0.45677109375
vt 0.1796875 0.45965078125000003
vt 0.17595703125 0.45965078125000003
vt 0.17595703125 0.45677109375
vt 0.01195546874999999 0.540625
vt 0.01195546874999999 0.54270859375
vt 0.0036695312500000105 0.54270859375
vt 0.0036695312500000105 0.540625
vt 0.01195546874999999 0.54270859375
vt 0.01195546874999999 0.54558828125
vt 0.0036695312500000105 0.54558828125
vt 0.0036695312500000105 0.54270859375
vt 0.11310625 0.4546875
vt 0.11310625 0.45677109375
vt 0.109375 0.45677109375
vt 0.109375 0.4546875
vt 0.11310625 0.45677109375
vt 0.11310625 0.45965078125000003
vt 0.109375 0.45965078125000003
vt 0.109375 0.45677109375
vt 0.1999828125 0.55625
vt 0.1999828125 0.55833359375
vt 0.1906421875 0.55833359375
vt 0.1906421875 0.55625
vt 0.1999828125 0.55833359375
vt 0.1999828125 0.56121328125
vt 0.1906421875 0.56121328125
vt 0.1906421875 0.55833359375
vt 0.1328125 0.4546875
vt 0.1328125 0.45677109375
vt 0.12908124999999998 0.45677109375
vt 0.12908124999999998 0.4546875
vt 0.1328125 0.45677109375
vt 0.1328125 0.45965078125000003
vt 0.12908124999999998 0.45965078125000003
vt 0.12908124999999998 0.45677109375
vn -1 3.996802888650565e-15 -1.9332019045709208e-15
vn 4.026292430662373e-15 0.6328859753093352 -0.7742450143570521
vn 1 -3.996802888650565e-15 1.9332019045709208e-15
vn -1 3.996802888650565e-15 -1.9332019045709208e-15
vn 3.996802888650562e-15 1 1.010643099614868e-15
vn 1 -3.996802888650565e-15 1.9332019045709208e-15
vn -1 3.996802888650565e-15 -1.9332019045709208e-15
vn 1.0327485579431824e-15 0.6328859753093342 0.7742450143570528
vn 1 -3.996802888650565e-15 1.9332019045709208e-15
vn -1 3.996802888650565e-15 -1.9332019045709208e-15
vn -1.9332019045709247e-15 -1.0106430996148602e-15 1
vn 1 -3.996802888650565e-15 1.9332019045709208e-15
vn -1 3.996802888650565e-15 -1.9332019045709208e-15
vn -4.026292430662372e-15 -0.6328859753093347 0.7742450143570525
vn 1 -3.996802888650565e-15 1.9332019045709208e-15
vn -1 3.996802888650565e-15 -1.9332019045709208e-15
vn -3.996802888650562e-15 -1 -1.010643099614868e-15
vn 1 -3.996802888650565e-15 1.9332019045709208e-15
vn -1 3.996802888650565e-15 -1.9332019045709208e-15
vn -1.0327485579431777e-15 -0.6328859753093334 -0.7742450143570535
vn 1 -3.996802888650565e-15 1.9332019045709208e-15
vn -1 3.996802888650565e-15 -1.9332019045709208e-15
vn 1.933201904570924e-15 8.012824845088422e-16 -1
vn 1 -3.996802888650565e-15 1.9332019045709208e-15
vn 1.933201904570924e-15 8.012824845088421e-16 -1
vn 1.933201904570924e-15 8.012824845088421e-16 -1
vn -1.0327485579431778e-15 -0.6328859753093334 -0.7742450143570534
vn -1.0327485579431777e-15 -0.6328859753093334 -0.7742450143570535
vn -3.996802888650562e-15 -1 -1.010643099614868e-15
vn -3.996802888650562e-15 -1 -1.010643099614868e-15
vn -4.026292430662372e-15 -0.6328859753093348 0.7742450143570525
vn -4.026292430662372e-15 -0.6328859753093348 0.7742450143570525
vn -1.9332019045709247e-15 -1.0106430996148602e-15 1
vn -1.9332019045709247e-15 -1.0106430996148602e-15 1
vn 1.0327485579431824e-15 0.6328859753093342 0.7742450143570527
vn 1.0327485579431824e-15 0.6328859753093342 0.7742450143570527
vn 3.996802888650562e-15 1 1.010643099614868e-15
vn 3.996802888650562e-15 1 1.010643099614868e-15
vn 4.026292430662373e-15 0.6328859753093352 -0.774245014357052
vn 4.026292430662373e-15 0.6328859753093352 -0.774245014357052
usemtl m_084e7548-2300-4378-46d0-9b20b1ffff30
f 196/773/201 194/774/201 192/775/201
f 195/776/202 212/777/202 225/778/202 197/779/202
f 195/780/203 197/781/203 193/782/203
f 198/783/204 196/784/204 192/785/204
f 197/786/205 225/787/205 223/788/205 199/789/205
f 197/790/206 199/791/206 193/792/206
f 200/793/207 198/794/207 192/795/207
f 199/796/208 223/797/208 221/798/208 201/799/208
f 199/800/209 201/801/209 193/802/209
f 202/803/210 200/804/210 192/805/210
f 201/806/211 221/807/211 219/808/211 203/809/211
f 201/810/212 203/811/212 193/812/212
f 204/813/213 202/814/213 192/815/213
f 203/816/214 219/817/214 217/818/214 205/819/214
f 203/820/215 205/821/215 193/822/215
f 206/823/216 204/824/216 192/825/216
f 205/826/217 217/827/217 215/828/217 207/829/217
f 205/830/218 207/831/218 193/832/218
f 208/833/219 206/834/219 192/835/219
f 207/836/220 215/837/220 213/838/220 209/839/220
f 207/840/221 209/841/221 193/842/221
f 194/843/222 208/844/222 192/845/222
f 209/846/223 213/847/223 212/848/223 195/849/223
f 209/850/224 195/851/224 193/852/224
f 194/853/225 210/854/225 211/855/225 208/856/225
f 210/857/226 212/858/226 213/859/226 211/860/226
f 208/861/227 211/862/227 214/863/227 206/864/227
f 211/865/228 213/866/228 215/867/228 214/868/228
f 206/869/229 214/870/229 216/871/229 204/872/229
f 214/873/230 215/874/230 217/875/230 216/876/230
f 204/877/231 216/878/231 218/879/231 202/880/231
f 216/881/232 217/882/232 219/883/232 218/884/232
f 202/885/233 218/886/233 220/887/233 200/888/233
f 218/889/234 219/890/234 221/891/234 220/892/234
f 200/893/235 220/894/235 222/895/235 198/896/235
f 220/897/236 221/898/236 223/899/236 222/900/236
f 198/901/237 222/902/237 224/903/237 196/904/237
f 222/905/238 223/906/238 225/907/238 224/908/238
f 196/909/239 224/910/239 210/911/239 194/912/239
f 224/913/240 225/914/240 212/915/240 210/916/240
o cylinder
v -0.16875000052683556 1.0187499982877848 0.06250000000000058
v -0.16875000052683556 1.0187499982877835 -0.06249999999999971
v -0.23750000013863135 1.0371715067162224 0.06250000000000035
v -0.23750000013863135 1.037171506716221 -0.062499999999999924
v -0.21907849248660222 1.0690784923687386 0.06250000000000003
v -0.21907849248660222 1.0690784923687373 -0.06250000000000025
v -0.18717150605767735 1.0874999986759888 0.062499999999999854
v -0.18717150605767735 1.0874999986759875 -0.06250000000000043
v -0.15032849209839794 1.0874999978995805 0.06249999999999987
v -0.15032849209839794 1.0874999978995792 -0.06250000000000042
v -0.11842150644588156 1.0690784902475512 0.06250000000000007
v -0.11842150644588156 1.0690784902475499 -0.06250000000000021
v -0.10000000013863133 1.0371715038186264 0.06250000000000042
v -0.10000000013863133 1.037171503818625 -0.06249999999999986
v -0.10000000091503974 1.000328489859347 0.06250000000000079
v -0.10000000091503974 1.0003284898593456 -0.06249999999999948
v -0.1184215085670689 0.9684215042068307 0.06250000000000111
v -0.1184215085670689 0.9684215042068294 -0.06249999999999916
v -0.1503284949959938 0.9499999978995805 0.06250000000000129
v -0.1503284949959938 0.9499999978995791 -0.06249999999999899
v -0.18717150895527312 0.9499999986759889 0.06250000000000128
v -0.18717150895527312 0.9499999986759876 -0.062499999999999
v -0.21907849460778955 0.968421506328018 0.06250000000000107
v -0.21907849460778955 0.9684215063280167 -0.0624999999999992
v -0.23750000091503978 1.000328492756943 0.06250000000000072
v -0.23750000091503978 1.0003284927569416 -0.06249999999999954
vt 0.26801015625 0.60863515625
vt 0.26402109375 0.6109375
vt 0.26171875 0.60234375
vt 0.1796875 0.5
vt 0.1875 0.5
vt 0.1875 0.515625
vt 0.1796875 0.515625
vt 0.10777109375 0.6
vt 0.11176015624999999 0.60230234375
vt 0.10546875 0.60859375
vt 0.2703125 0.60464609375
vt 0.26801015625 0.60863515625
vt 0.26171875 0.60234375
vt 0.4375 0.5078125
vt 0.4453125 0.5078125
vt 0.4453125 0.5234375
vt 0.4375 0.5234375
vt 0.11176015624999999 0.60230234375
vt 0.1140625 0.60629140625
vt 0.10546875 0.60859375
vt 0.2703125 0.60004140625
vt 0.2703125 0.60464609375
vt 0.26171875 0.60234375
vt 0.4765625 0.7421875
vt 0.484375 0.7421875
vt 0.484375 0.7578125
vt 0.4765625 0.7578125
vt 0.1140625 0.60629140625
vt 0.1140625 0.61089609375
vt 0.10546875 0.60859375
vt 0.26801015625 0.59605234375
vt 0.2703125 0.60004140625
vt 0.26171875 0.60234375
vt 0.453125 0.5078125
vt 0.4609375 0.5078125
vt 0.4609375 0.5234375
vt 0.453125 0.5234375
vt 0.1140625 0.61089609375
vt 0.11176015624999999 0.61488515625
vt 0.10546875 0.60859375
vt 0.26402109375 0.59375
vt 0.26801015625 0.59605234375
vt 0.26171875 0.60234375
vt 0.1953125 0.5
vt 0.203125 0.5
vt 0.203125 0.515625
vt 0.1953125 0.515625
vt 0.11176015624999999 0.61488515625
vt 0.10777109375 0.6171875
vt 0.10546875 0.60859375
vt 0.25941640625 0.59375
vt 0.26402109375 0.59375
vt 0.26171875 0.60234375
vt 0.4765625 0.6484375
vt 0.484375 0.6484375
vt 0.484375 0.6640625
vt 0.4765625 0.6640625
vt 0.10777109375 0.6171875
vt 0.10316640625000001 0.6171875
vt 0.10546875 0.60859375
vt 0.25542734375 0.59605234375
vt 0.25941640625 0.59375
vt 0.26171875 0.60234375
vt 0.484375 0.765625
vt 0.4921875 0.765625
vt 0.4921875 0.78125
vt 0.484375 0.78125
vt 0.10316640625 0.6171875
vt 0.09917734375 0.61488515625
vt 0.10546875 0.60859375
vt 0.253125 0.60004140625
vt 0.25542734375 0.59605234375
vt 0.26171875 0.60234375
vt 0.34375 0.5078125
vt 0.3515625 0.5078125
vt 0.3515625 0.5234375
vt 0.34375 0.5234375
vt 0.09917734375 0.61488515625
vt 0.096875 0.61089609375
vt 0.10546875 0.60859375
vt 0.253125 0.60464609375
vt 0.253125 0.60004140625
vt 0.26171875 0.60234375
vt 0.2578125 0.5078125
vt 0.265625 0.5078125
vt 0.265625 0.5234375
vt 0.2578125 0.5234375
vt 0.096875 0.61089609375
vt 0.096875 0.60629140625
vt 0.10546875 0.60859375
vt 0.25542734375 0.60863515625
vt 0.253125 0.60464609375
vt 0.26171875 0.60234375
vt 0.421875 0.5078125
vt 0.4296875 0.5078125
vt 0.4296875 0.5234375
vt 0.421875 0.5234375
vt 0.096875 0.60629140625
vt 0.09917734375000001 0.60230234375
vt 0.10546875 0.60859375
vt 0.25941640625 0.6109375
vt 0.25542734375 0.60863515625
vt 0.26171875 0.60234375
vt 0.46875 0.5078125
vt 0.4765625 0.5078125
vt 0.4765625 0.5234375
vt 0.46875 0.5234375
vt 0.09917734375000001 0.60230234375
vt 0.10316640625000001 0.6
vt 0.10546875 0.60859375
vt 0.26402109375 0.6109375
vt 0.25941640625 0.6109375
vt 0.26171875 0.60234375
vt 0.3046875 0.5078125
vt 0.3125 0.5078125
vt 0.3125 0.5234375
vt 0.3046875 0.5234375
vt 0.10316640625000001 0.6
vt 0.10777109375 0.6
vt 0.10546875 0.60859375
vn -4.4408899109558276e-16 1.038058528960369e-14 1
vn -0.8660253932477264 0.5000000182501207 -5.329070712713109e-15
vn 4.4408899109558276e-16 -1.038058528960369e-14 -1
vn -4.4408899109558276e-16 1.038058528960369e-14 1
vn -0.4999999817498789 0.8660254143211509 -9.230221006942869e-15
vn 4.4408899109558276e-16 -1.038058528960369e-14 -1
vn -4.4408899109558276e-16 1.038058528960369e-14 1
vn 2.1073424449902227e-8 0.9999999999999998 -1.0658141036401495e-14
vn 4.4408899109558276e-16 -1.038058528960369e-14 -1
vn -4.4408899109558276e-16 1.038058528960369e-14 1
vn 0.5000000182501207 0.8660253932477264 -9.230220782339336e-15
vn 4.4408899109558276e-16 -1.038058528960369e-14 -1
vn -4.4408899109558276e-16 1.038058528960369e-14 1
vn 0.8660254143211507 0.49999998174987914 -5.329070323688387e-15
vn 4.4408899109558276e-16 -1.038058528960369e-14 -1
vn -4.4408899109558276e-16 1.038058528960369e-14 1
vn 0.9999999999999998 -2.1073423363488276e-8 2.246035183278565e-22
vn 4.4408899109558276e-16 -1.038058528960369e-14 -1
vn -4.4408899109558276e-16 1.038058528960369e-14 1
vn 0.8660253932477265 -0.5000000182501205 5.3290707127131075e-15
vn 4.4408899109558276e-16 -1.038058528960369e-14 -1
vn -4.4408899109558276e-16 1.038058528960369e-14 1
vn 0.4999999817498787 -0.866025414321151 9.23022100694287e-15
vn 4.4408899109558276e-16 -1.038058528960369e-14 -1
vn -4.4408899109558276e-16 1.038058528960369e-14 1
vn -2.1073424449902227e-8 -0.9999999999999998 1.0658141036401495e-14
vn 4.4408899109558276e-16 -1.038058528960369e-14 -1
vn -4.4408899109558276e-16 1.038058528960369e-14 1
vn -0.5000000182501203 -0.8660253932477265 9.230220782339339e-15
vn 4.4408899109558276e-16 -1.038058528960369e-14 -1
vn -4.4408899109558276e-16 1.038058528960369e-14 1
vn -0.8660254143211507 -0.499999981749879 5.329070323688386e-15
vn 4.4408899109558276e-16 -1.038058528960369e-14 -1
vn -4.4408899109558276e-16 1.038058528960369e-14 1
vn -0.9999999999999998 2.107342411683532e-8 -2.2460352635713555e-22
vn 4.4408899109558276e-16 -1.038058528960369e-14 -1
usemtl m_084e7548-2300-4378-46d0-9b20b1ffff30
f 230/917/241 228/918/241 226/919/241
f 228/920/242 230/921/242 231/922/242 229/923/242
f 229/924/243 231/925/243 227/926/243
f 232/927/244 230/928/244 226/929/244
f 230/930/245 232/931/245 233/932/245 231/933/245
f 231/934/246 233/935/246 227/936/246
f 234/937/247 232/938/247 226/939/247
f 232/940/248 234/941/248 235/942/248 233/943/248
f 233/944/249 235/945/249 227/946/249
f 236/947/250 234/948/250 226/949/250
f 234/950/251 236/951/251 237/952/251 235/953/251
f 235/954/252 237/955/252 227/956/252
f 238/957/253 236/958/253 226/959/253
f 236/960/254 238/961/254 239/962/254 237/963/254
f 237/964/255 239/965/255 227/966/255
f 240/967/256 238/968/256 226/969/256
f 238/970/257 240/971/257 241/972/257 239/973/257
f 239/974/258 241/975/258 227/976/258
f 242/977/259 240/978/259 226/979/259
f 240/980/260 242/981/260 243/982/260 241/983/260
f 241/984/261 243/985/261 227/986/261
f 244/987/262 242/988/262 226/989/262
f 242/990/263 244/991/263 245/992/263 243/993/263
f 243/994/264 245/995/264 227/996/264
f 246/997/265 244/998/265 226/999/265
f 244/1000/266 246/1001/266 247/1002/266 245/1003/266
f 245/1004/267 247/1005/267 227/1006/267
f 248/1007/268 246/1008/268 226/1009/268
f 246/1010/269 248/1011/269 249/1012/269 247/1013/269
f 247/1014/270 249/1015/270 227/1016/270
f 250/1017/271 248/1018/271 226/1019/271
f 248/1020/272 250/1021/272 251/1022/272 249/1023/272
f 249/1024/273 251/1025/273 227/1026/273
f 228/1027/274 250/1028/274 226/1029/274
f 250/1030/275 228/1031/275 229/1032/275 251/1033/275
f 251/1034/276 229/1035/276 227/1036/276