# Made in Blockbench 5.1.5
mtllib Peacekeeper Head.mtl

o cylinder
v 0 1.525 0
v 4.829607516129555e-20 1.1902024215929716 0.0002773647536474486
v -0.04311591970002122 1.1685230659173946 -0.18252335608561582
v -0.04311591970002122 1.318614724703953 -0.18236381082726194
v -0.1565506022476765 1.1830418066862702 -0.11280563780161058
v -0.1565506022476766 1.318614724703953 -0.11270703340920397
v -0.19350718629665978 1.2065336227241599 -2.5476569026347726e-17
v -0.15655060224767653 1.2300254387620497 0.11280563780161051
v -0.15655060224767664 1.318614724703953 0.1127070334092039
v -0.059797009099346835 1.244544179530925 0.18252335608561582
v -0.059797009099346835 1.318614724703953 0.18236381082726194
v -0.04311591970002122 1.430897677880139 -0.18236381082726194
v -0.1565506022476766 1.430897677880139 -0.11270703340920397
v -0.15655060224767664 1.430897677880139 0.1127070334092039
v -0.059797009099346835 1.449647677880139 0.18236381082726194
v -0.04486953158775356 1.4960695230112653 -0.14865460429094338
v -0.14430748988608258 1.4773195230112652 -0.10346173532502954
v -0.17837386716156148 1.4773195230112652 -3.233427918764336e-17
v -0.14430748988608263 1.4773195230112652 0.10346173532502949
v -0.05512055630530191 1.4773195230112652 0.1674046042909434
v -0.032906377936137966 1.5132855545735184 -0.12024993751659165
v -0.10583210105324362 1.5132855545735184 -0.07431854853030478
v -0.13081567110343617 1.5132855545735184 -2.3226332802654546e-17
v -0.10583210105324366 1.5132855545735184 0.07431854853030473
v -0.04042426550152556 1.5132855545735184 0.12024993751659165
v -0.04311591970002122 1.3824272524458514 -0.18236381082726194
v -0.1565506022476766 1.4125423761797329 -0.11270703340920397
v -0.15655060224767664 1.4125423761797329 0.1127070334092039
v -0.059797009099346835 1.4125423761797329 0.18236381082726194
v -0.04311591970002122 1.3773351868110169 -0.18236381082726194
v -0.13909216878443048 1.3246432284710816 -0.12057824925744452
v -0.13909216878443048 1.4049411095720052 -0.12057824925744452
v -0.01932495040269606 1.3246432284710816 -0.18236381082726194
v -0.01932495040269606 1.1881308880266606 -0.1825053274714218
v -0.03847560536466014 1.3773351868110169 -0.16602714712847813
v -0.13909216878443048 1.3246432284710816 -0.10555203739169675
v -0.13909216878443048 1.4049411095720052 -0.10555203739169675
v -0.01932495040269606 1.3246432284710816 -0.16559033216071103
v -0.01932495040269606 1.1881153158475324 -0.16485821886933674
v -0.05250495277431774 1.2282129783997369 0.1592712334635034
v -0.13745975094087176 1.2136942376308613 0.0985409796191768
v -0.16990959633310831 1.1902024215929716 0.0002773647536474259
v -0.13745975094087173 1.1667106055550818 -0.097986250111882
v -0.03785806952166804 1.1521918647862062 -0.15871650395620857
v -0.19350718629665967 1.318614724703953 -3.5223657067180627e-17
v -0.19350718629665967 1.430897677880139 -3.5223657067180627e-17
v -0.19350718629665967 1.4125423761797329 -3.5223657067180627e-17
v 0.04311591970002122 1.1685230659173946 -0.18252335608561582
v 0.04311591970002122 1.318614724703953 -0.18236381082726194
v 0.1565506022476765 1.1830418066862702 -0.11280563780161058
v 0.1565506022476766 1.318614724703953 -0.11270703340920397
v 0.19350718629665978 1.2065336227241599 -2.5476569026347726e-17
v 0.15655060224767653 1.2300254387620497 0.11280563780161051
v 0.15655060224767664 1.318614724703953 0.1127070334092039
v 0.059797009099346835 1.244544179530925 0.18252335608561582
v 0.059797009099346835 1.318614724703953 0.18236381082726194
v 0.1565506022476766 1.430897677880139 -0.11270703340920397
v 0.15655060224767664 1.430897677880139 0.1127070334092039
v 0.14430748988608258 1.4773195230112652 -0.10346173532502954
v 0.17837386716156148 1.4773195230112652 -3.233427918764336e-17
v 0.14430748988608263 1.4773195230112652 0.10346173532502949
v 0.032906377936137966 1.5132855545735184 -0.12024993751659165
v 0.10583210105324362 1.5132855545735184 -0.07431854853030478
v 0.13081567110343617 1.5132855545735184 -2.3226332802654546e-17
v 0.10583210105324366 1.5132855545735184 0.07431854853030473
v 0.04042426550152556 1.5132855545735184 0.12024993751659165
v 0.04311591970002122 1.3824272524458514 -0.18236381082726194
v 0.1565506022476766 1.4125423761797329 -0.11270703340920397
v 0.15655060224767664 1.4125423761797329 0.1127070334092039
v 0.059797009099346835 1.4125423761797329 0.18236381082726194
v 0.04311591970002122 1.3773351868110169 -0.18236381082726194
v 0.13909216878443048 1.3246432284710816 -0.12057824925744452
v 0.13909216878443048 1.4049411095720052 -0.12057824925744452
v 0.01932495040269606 1.3246432284710816 -0.18236381082726194
v 0.01932495040269606 1.1881308880266606 -0.1825053274714218
v 0.03847560536466014 1.3773351868110169 -0.16602714712847813
v 0.13909216878443048 1.3246432284710816 -0.10555203739169675
v 0.13909216878443048 1.4049411095720052 -0.10555203739169675
v 0.01932495040269606 1.3246432284710816 -0.16559033216071103
v 0.01932495040269606 1.1881153158475324 -0.16485821886933674
v 0.05250495277431774 1.2282129783997369 0.1592712334635034
v 0.13745975094087176 1.2136942376308613 0.0985409796191768
v 0.16990959633310831 1.1902024215929716 0.0002773647536474259
v 0.13745975094087173 1.1667106055550818 -0.097986250111882
v 0.03785806952166804 1.1521918647862062 -0.15871650395620857
v 0.19350718629665967 1.318614724703953 -3.5223657067180627e-17
v 0.19350718629665967 1.430897677880139 -3.5223657067180627e-17
v 0.19350718629665967 1.4125423761797329 -3.5223657067180627e-17
v 0.04311591970002122 1.430897677880139 -0.18236381082726194
v 0.059797009099346835 1.449647677880139 0.18236381082726194
v 0.04486953158775356 1.4960695230112653 -0.14865460429094338
v 0.05512055630530191 1.4773195230112652 0.1674046042909434
v 0.04311591970002122 1.433581967454913 -0.19958902037197424
v 0.04311591970002122 1.3824272524458514 -0.20001092635908185
v -0.04311591970002122 1.3824272524458514 -0.20001092635908185
v -0.04311591970002122 1.433581967454913 -0.19958902037197424
v -0.04486953158775356 1.5014381021608136 -0.1654579078485481
v 0.04486953158775356 1.5014381021608136 -0.1654579078485481
v -0.059797009099346835 1.449647677880139 0.20001092635908185
v -0.059797009099346835 1.4125423761797329 0.20001092635908185
v 0.059797009099346835 1.4125423761797329 0.20001092635908185
v 0.059797009099346835 1.449647677880139 0.20001092635908185
v 0.06325342443564265 1.3186374673051966 0.19889553630887294
v -0.06325342443564265 1.3186374673051966 0.19889553630887294
v -0.06498163210379056 1.2445782934327907 0.19849738654212234
v 0.06498163210379056 1.2445782934327907 0.19849738654212234
v -0.17014707222160888 1.2300437322262137 0.1226954418723048
v -0.170147072221609 1.318633018168117 0.1225968374798982
v -0.21033069279179667 1.2065366457018534 -5.738988268433162e-7
v -0.2103306927917966 1.3186177476816465 -5.738988268530633e-7
v 0.17014707222160888 1.2300437322262137 0.1226954418723048
v 0.170147072221609 1.318633018168117 0.1225968374798982
v 0.21033069279179667 1.2065366457018534 -5.738988268428264e-7
v 0.2103306927917966 1.3186177476816465 -5.738988268525734e-7
v 0.1696050078452412 1.1830472233875526 -0.1230571329545994
v 0.1696050078452413 1.3186201414052354 -0.1229585285621928
v -0.1696050078452412 1.1830472233875526 -0.1230571329545994
v -0.1696050078452413 1.3186201414052354 -0.1229585285621928
v -0.052401411843854065 1.1685338993199594 -0.19754657642172863
v -0.052401411843854065 1.3186255581065178 -0.19738703116337478
v 0.05240141184385406 1.1685338993199594 -0.19754657642172863
v 0.05240141184385406 1.3186255581065178 -0.19738703116337478
v 0.027320907276241185 1.339835186811017 -0.16602714712847813
v -0.027320907276241185 1.339835186811017 -0.16602714712847813
v -0.03061591970002121 1.339835186811017 -0.18236381082726194
v 0.03061591970002121 1.339835186811017 -0.18236381082726194
vt 0.07339296875 0.8046875
vt 0.08285703125 0.8046875
vt 0.078125 0.825121875
vt 0.411646875 0.8125
vt 0.416478125 0.8125
vt 0.416478125 0.829565625
vt 0.411646875 0.829565625
vt 0.10135546875 0.766603199865344
vt 0.10958203125 0.766603199865344
vt 0.10546875 0.781705543615344
vt 0.08468828125 0.84555625
vt 0.07156171875 0.84555625
vt 0.078125 0.825121875
vt 0.33172109375 0.750146875
vt 0.34796640624999997 0.750146875
vt 0.34775078125000003 0.75940390625
vt 0.33193671875 0.75940390625
vt 0.11031669107125507 0.796875
vt 0.10021136661858866 0.796738227309588
vt 0.10546841604949475 0.7817056530027768
vt 0.416478125 0.829565625
vt 0.418871875 0.83615234375
vt 0.409253125 0.83615234375
vt 0.411646875 0.829565625
vt 0.34775078125000003 0.75940390625
vt 0.34731875 0.77114296875
vt 0.33236875 0.77114296875
vt 0.33193671874999997 0.75940390625
vt 0.35717109375 0.484375
vt 0.34595390625 0.484375
vt 0.34617265625 0.4765625
vt 0.35695234375 0.4765625
vt 0.51470234375 0.8046875
vt 0.50092265625 0.8046875
vt 0.5003375 0.796875
vt 0.5152875 0.796875
vt 0.42598828125 0.484375
vt 0.41776171875 0.484375
vt 0.41626640625 0.4765625
vt 0.42748359375 0.4765625
vt 0.426928125 0.5
vt 0.416821875 0.5
vt 0.41498515625 0.4921875
vt 0.42876484375 0.4921875
vt 0.33236875 0.7734375
vt 0.33236875 0.77114296875
vt 0.34731875 0.77114296875
vt 0.34731875 0.7734375
vt 0.4453125 0.46875
vt 0.4453125 0.4609375
vt 0.453125 0.4609375
vt 0.453125 0.46875
vt 0.54148515625 0.6946765625
vt 0.55226484375 0.6946765625
vt 0.55226484375 0.6953125
vt 0.54148515625 0.6953125
vt 0.103978125 0.568873437708775
vt 0.099146875 0.568873437708775
vt 0.09617265625 0.5664226564587751
vt 0.10695234375 0.5664226564587751
vt 0.54638359375 0.7421875
vt 0.53955390625 0.7421875
vt 0.53914140625 0.734375
vt 0.54679609375 0.734375
vt 0.4296875 0.4609375
vt 0.4375 0.4609375
vt 0.4375 0.46875
vt 0.4296875 0.46875
vt 0.50124921875 0.78125
vt 0.51437578125 0.78125
vt 0.5152875 0.7890625
vt 0.5003375 0.7890625
vt 0.48745546875 0.4765625
vt 0.49691953125 0.4765625
vt 0.49757734375 0.484375
vt 0.48679765625 0.484375
vt 0.0609421875 0.81249296875
vt 0.07339296875 0.8046875
vt 0.078125 0.825121875
vt 0.3046875 0.7734375
vt 0.3065079645060139 0.7578125
vt 0.3203125 0.7578125
vt 0.3203125 0.7734375
vt 0.10958203125 0.766603199865344
vt 0.11871247062419714 0.7723217689521451
vt 0.10546866649179103 0.7817058502244965
vt 0.0568859375 0.825121875
vt 0.0609421875 0.81249296875
vt 0.078125 0.825121875
vt 0.390625 0.59242890625
vt 0.40625 0.59536484375
vt 0.40625 0.609375
vt 0.39063671875 0.609375
vt 0.11871247062419714 0.7723217689521451
vt 0.12188587338408566 0.7815937436567877
vt 0.10546883456713621 0.7817057311323774
vt 0.0609421875 0.83775078125
vt 0.0568859375 0.825121875
vt 0.078125 0.825121875
vt 0 0.571927351595313
vt 0.015625 0.5748485524583713
vt 0.015625 0.5859219961592038
vt 0.000014826599835635057 0.5859375
vt 0.12188587338408566 0.7815937436567877
vt 0.11883925607321892 0.7909081477150797
vt 0.10546883456713621 0.7817057311323774
vt 0.07156171875 0.84555625
vt 0.0609421875 0.83775078125
vt 0.078125 0.825121875
vt 0.4375 0.7233015618065702
vt 0.4537108376743357 0.7251172070239209
vt 0.4539164063243587 0.734375
vt 0.4375 0.734375
vt 0.11883925607321892 0.7909081477150797
vt 0.11072613338141134 0.796738227309588
vt 0.10546919898695974 0.7817059819504256
vt 0.375 0.5078125
vt 0.375 0.515625
vt 0.36139921875000003 0.51217421875
vt 0.359375 0.5078125
vt 0.421875 0.5719015625
vt 0.421875 0.58364296875
vt 0.40704843749999997 0.58364296875
vt 0.40704843749999997 0.5719015625
vt 0.42888906250000003 0.6187765625
vt 0.42888906250000003 0.63051796875
vt 0.4140625 0.63051796875
vt 0.4140625 0.6187765625
vt 0.42896484375 0.7203390625
vt 0.42896484375 0.73208046875
vt 0.4140625 0.73208046875
vt 0.4140625 0.7203390625
vt 0.28125 0.47624432282433815
vt 0.281175742490262 0.49102226125762016
vt 0.2751877805229571 0.4921875
vt 0.2751877805229571 0.4755513524766416
vt 0.51503359375 0.703125
vt 0.50141796875 0.703125
vt 0.5007984375 0.6953125
vt 0.515625 0.6953125
vt 0.265625 0.48579521018056093
vt 0.265625 0.4994108342543653
vt 0.2578125 0.5
vt 0.2578125 0.48517343649143085
vt 0.5217183944242406 0.7435285115084215
vt 0.5217104841208376 0.7572456967276002
vt 0.515625 0.7578125
vt 0.515625 0.7429101537721168
vt 0.513496875 0.6171875
vt 0.5027234375 0.6171875
vt 0.50084765625 0.6098609374999999
vt 0.515625 0.60997109375
vt 0.52154296875 0.5859375
vt 0.51174296875 0.5859375
vt 0.509821875 0.5786625000000001
vt 0.5234375 0.5787289062500001
vt 0.007264875020602753 0.4727153483780695
vt 0.007217641233686031 0.4825152345493152
vt 0 0.484375
vt 0 0.47075921685024136
vt 0.21051175019725485 0.4804115517300658
vt 0.2104343631586008 0.49040187700689597
vt 0.203125 0.4921875
vt 0.203125 0.47847068223939904
vt 0.3974129554152465 1
vt 0.3973899850010936 0.9939406685392942
vt 0.4140432000444038 0.9976424084088807
vt 0.4140518983562098 0.999936923171657
vt 0.40704843749999997 0.5859375
vt 0.40704843749999997 0.58364296875
vt 0.421875 0.58364296875
vt 0.421875 0.5859375
vt 0.4140625 0.6328125
vt 0.4140625 0.63051796875
vt 0.42888906250000003 0.63051796875
vt 0.42888906250000003 0.6328125
vt 0.4140625 0.734375
vt 0.4140625 0.73208046875
vt 0.42896484375 0.73208046875
vt 0.42896484375 0.734375
vt 0.3973899850010936 0.9939406685392942
vt 0.3973875420909569 0.9933047357314472
vt 0.41166866150592707 0.9967006821005304
vt 0.4140394808996654 0.9976415817032672
vt 0.4140624115059271 0.9976506821005303
vt 0.41166866150592707 0.9967006821005304
vt 0.41166866150592707 0.9866631821005304
vt 0.4140624115059271 0.9859092758505303
vt 0.4140625 0.9859092479795185
vt 0.41166866150592707 0.9866631821005304
vt 0.3948234999863085 0.9865918616923837
vt 0.3974705465834225 0.9856343102897509
vt 0.10694979235688576 0.5851840590087833
vt 0.10397545571161591 0.5859375
vt 0.103978125 0.568873437708775
vt 0.10695272720536776 0.5664223404883288
vt 0.4921875 0.71875
vt 0.49272764764225724 0.7109375
vt 0.5078020015262396 0.7109375
vt 0.506860140719169 0.718317928691942
vt 0.390625 0.46875
vt 0.3828125 0.46875
vt 0.3828125 0.4609375
vt 0.390625 0.4609375
vt 0.214655025885785 0.5388676425755945
vt 0.21381303591607057 0.53125
vt 0.23055979627573253 0.53125
vt 0.23149946408392943 0.5390625
vt 0.55186640625 0.890625
vt 0.5497695312499999 0.890625
vt 0.549678125 0.875
vt 0.551884375 0.875
vt 0.5 0.8203125
vt 0.5006148146153762 0.8125
vt 0.51379374874563 0.8125
vt 0.5150144947904057 0.8202028774123138
vt 0.5 0.8515625
vt 0.5004825521580495 0.84375
vt 0.5137473592818725 0.84375
vt 0.515120555877816 0.8513295218090807
vt 0.15650272825498024 0.5
vt 0.15703595071262103 0.4921875
vt 0.17030051212555658 0.4921875
vt 0.17162227174501976 0.4997139626378788
vt 0.4754474421116842 0.640625
vt 0.4761757967760158 0.6328125
vt 0.49087057331462064 0.6328125
vt 0.4921875 0.6404255657260494
vt 0.08285703125 0.8046875
vt 0.09530781249999999 0.81249296875
vt 0.078125 0.825121875
vt 0 0.6171875
vt 0 0.6002406238475014
vt 0.015625 0.5984201593414875
vt 0.015625 0.6171875
vt 0.09222502937580286 0.7723217689521451
vt 0.10135546875 0.766603199865344
vt 0.10546883350820897 0.7817058502244965
vt 0.09530781249999999 0.81249296875
vt 0.0993640625 0.825121875
vt 0.078125 0.825121875
vt 0.0234375 0.609375
vt 0.0234375 0.59536484375
vt 0.03963984375 0.59242890625
vt 0.039628125 0.609375
vt 0.08905162661591434 0.7815937436567877
vt 0.09222502937580286 0.7723217689521451
vt 0.10546866543286379 0.7817057311323774
vt 0.0993640625 0.825121875
vt 0.09530781249999999 0.83775078125
vt 0.078125 0.825121875
vt 0.22654699615920382 0.59375
vt 0.2154735524583713 0.59375
vt 0.21255235159531308 0.5776086182770535
vt 0.2265625 0.5776234448768891
vt 0.09209824392678108 0.7909081477150797
vt 0.08905162661591434 0.7815937436567877
vt 0.10546866543286379 0.7817057311323774
vt 0.09530781249999999 0.83775078125
vt 0.08468828125 0.84555625
vt 0.078125 0.825121875
vt 0.2265524804464403 0.5625
vt 0.21729481466100256 0.5622887810071323
vt 0.215489059744074 0.546875
vt 0.2265625 0.546875
vt 0.10021136661858866 0.796738227309588
vt 0.09209824392678108 0.7909081477150797
vt 0.10546830101304026 0.7817059819504256
vt 0.4834234375 0.62154921875
vt 0.46875 0.625
vt 0.46875 0.6171875
vt 0.48544765625 0.6171875
vt 0.43670156250000003 0.99770546875
vt 0.421875 0.99770546875
vt 0.421875 0.9859640625
vt 0.43670156250000003 0.9859640625
vt 0.4296875 0.60708046875
vt 0.41486093749999997 0.60708046875
vt 0.41486093749999997 0.5953390625
vt 0.4296875 0.5953390625
vt 0.4296875 0.67739296875
vt 0.41478515625 0.67739296875
vt 0.41478515625 0.6656515625
vt 0.4296875 0.6656515625
vt 0.5 0.7273609364914309
vt 0.5078125 0.7279827101805609
vt 0.5078125 0.7415983342543653
vt 0.5 0.7421875
vt 0.515625 0.765625
vt 0.51503359375 0.7734375
vt 0.50141796875 0.7734375
vt 0.5007984375 0.765625
vt 0.3828125 0.47857171306238
vt 0.3900780440112561 0.48052826523822145
vt 0.39003024793064894 0.4903281486831752
vt 0.3828125 0.4921875
vt 0.5234375 0.49279140624999995
vt 0.52154296875 0.5
vt 0.51174296875 0.5
vt 0.509821875 0.49272578125
vt 0.421875 0.99770546875
vt 0.43670156250000003 0.99770546875
vt 0.43670156250000003 1
vt 0.421875 1
vt 0.4148609375 0.60708046875
vt 0.4296875 0.60708046875
vt 0.4296875 0.609375
vt 0.4148609375 0.609375
vt 0.28364383849407293 0.6138881821005304
vt 0.2979249579090431 0.6104922357314471
vt 0.2979225149989064 0.6111281685392942
vt 0.2812730191003346 0.6148290817032673
vt 0.28364383849407293 0.6038506821005304
vt 0.28364383849407293 0.6138881821005304
vt 0.2812500884940729 0.6148381821005304
vt 0.2812500884940729 0.6030967758505303
vt 0.3004890000136915 0.6037793616923837
vt 0.28364383849407293 0.6038506821005304
vt 0.28125 0.6030967479795185
vt 0.2978419534165775 0.6028218102897509
vt 0.099146875 0.568873437708775
vt 0.09914954428838409 0.5859375
vt 0.09617520764311424 0.5851840590087833
vt 0.09617227279463224 0.5664223404883288
vt 0.5526347189400163 0.8671770015262394
vt 0.5526347189400163 0.8521026476422573
vt 0.5546875 0.8515625
vt 0.554255428691942 0.866235140719169
vt 0.421875 0.4609375
vt 0.421875 0.46875
vt 0.4140625 0.46875
vt 0.4140625 0.4609375
vt 0.15921897880447233 0.4521853321918031
vt 0.15921897880447233 0.4354385718321411
vt 0.16089866377112214 0.4362805618018556
vt 0.16109352119552767 0.453125
vt 0.546875 0.9040437487551862
vt 0.5625 0.9041531261625537
vt 0.5625 0.90625
vt 0.546875 0.90625
vt 0.5433162854458692 0.54504374874563
vt 0.5433162854458692 0.5318648146153762
vt 0.546875 0.53125
vt 0.5467653774123138 0.5462644947904057
vt 0.5433202598930107 0.5684348592818725
vt 0.5433202598930107 0.5551700521580495
vt 0.546875 0.5546875
vt 0.5466420218090807 0.569808055877816
vt 0.32241556432672736 0.4591102838705764
vt 0.32241556432672736 0.44584572245764076
vt 0.32602193567327264 0.4453125
vt 0.3257358983111515 0.4604320434900395
vt 0.2421875 0.45292313120293637
vt 0.2421875 0.43822835466433163
vt 0.24578189744107296 0.4375
vt 0.2455824631671223 0.4542400578883158
vt 0.2812692999555962 0.6148299084088807
vt 0.2979225149989064 0.6111281685392942
vt 0.2978995445847535 0.6171875
vt 0.2812606016437902 0.617124423171657
vt 0.3671875 0.4852222456812587
vt 0.37449987650926403 0.4871525884360619
vt 0.3744195692143251 0.4979257266188194
vt 0.3671875 0.5
vt 0.1953125 0.48489218749999996
vt 0.1934703125 0.4921875
vt 0.1834796875 0.4921875
vt 0.18159609375 0.4847859375
vt 0.41478515625 0.67739296875
vt 0.4296875 0.67739296875
vt 0.4296875 0.6796875
vt 0.41478515625 0.6796875
vt 0.2353859375 0.48620546875000004
vt 0.23419062499999999 0.4921875
vt 0.2194125 0.4921875
vt 0.21875 0.48612187500000004
vt 0.53125 0.82985234375
vt 0.5306796875 0.8359375
vt 0.5169625 0.8359375
vt 0.51634765625 0.82984375
vt 0.5450068434682868 0.4562133809707347
vt 0.5449537184682868 0.4626079122207347
vt 0.5428005934682868 0.4622727559707347
vt 0.5428005934682868 0.4562133809707347
vt 0.53125 0.578125
vt 0.5390625 0.578125
vt 0.5390625 0.5859375
vt 0.53125 0.5859375
vt 0.017546672156688703 0.44698291277423685
vt 0.017493547156688702 0.44058838152423685
vt 0.019699797156688702 0.44058838152423685
vt 0.019699797156688702 0.4466477565242368
vt 0.46875 0.46875
vt 0.4609375 0.46875
vt 0.4609375 0.4609375
vt 0.46875 0.4609375
vt 0.5449537184682868 0.4626079122207347
vt 0.5430308941291078 0.46875
vt 0.5409306565317132 0.4680796501989414
vt 0.5428004746004279 0.4622727374677189
vt 0.019467933995965747 0.453125
vt 0.017546672156688703 0.44698291277423685
vt 0.019699916024547626 0.44664773802122104
vt 0.021568952843311298 0.45245465047569244
vt 0.208134375 0.45083046875
vt 0.208134375 0.453125
vt 0.205928125 0.453125
vt 0.205928125 0.45083046875
vt 0.19027983624123426 0.453125
vt 0.19027983624123426 0.45083046875
vt 0.19248608624123426 0.45083046875
vt 0.19248608624123426 0.453125
vt 0.4765625 0.6875
vt 0.4921875 0.6875
vt 0.4921875 0.6953125
vt 0.4765625 0.6953125
vt 0.19027983624123426 0.45083046875
vt 0.19042176825043955 0.4390843513590579
vt 0.19253266375876574 0.4390980278885732
vt 0.1924392796419237 0.45083046875
vt 0.20799453125 0.43908437499999997
vt 0.208134375 0.45083046875
vt 0.205928125 0.45083046875
vt 0.205928125 0.43909765624999997
vt 0.0354483538539558 0.9098385686580286
vt 0.0192030413539558 0.9098385686580286
vt 0.0198506976039558 0.9078416936580286
vt 0.0348006976039558 0.9078416936580286
vt 0.0192030413539558 0.9098385686580286
vt 0.00596418073649798 0.9003187033083948
vt 0.007659637529859743 0.899076780334545
vt 0.01984935719920341 0.9078458264379407
vt 0.18353304012706254 0.8392726702764709
vt 0.18017691787740203 0.8232032302224301
vt 0.1822427904109264 0.8236392142269333
vt 0.18534839436404787 0.8382144597922903
vt 0.00596418073649798 0.9003187033083948
vt 0.000757859973796661 0.8847630010838448
vt 0.002860845853867096 0.8847387607196636
vt 0.007648630227941634 0.8990848431888658
vt 0.19554109616854964 0.8500375
vt 0.18353304012706254 0.8392726702764709
vt 0.1853490587458576 0.8382140725093115
vt 0.19638725806642574 0.84811234495257
vt 0.048695456954691636 0.9003301355543101
vt 0.0354483538539558 0.9098385686580286
vt 0.034800857825112906 0.9078421876571572
vt 0.04700380378762841 0.8990909128771392
vt 0.18679484984746544 0.9115254077248435
vt 0.17057569910596168 0.9140625
vt 0.17092504430749314 0.9119898747774913
vt 0.18565803927474062 0.9097466562279343
vt 0.05392964002620334 0.8847833883834891
vt 0.048695456954691636 0.9003301355543101
vt 0.04700008440992706 0.8990881882422777
vt 0.051839380311049 0.8847590416057609
vt 0.17057569910596168 0.9140625
vt 0.15626476160596167 0.9066296875
vt 0.15776710535596167 0.9051578125
vt 0.17092491785596167 0.911990625
vt 0.04902497067850253 0.8690641293806134
vt 0.05392964002620334 0.8847833883834891
vt 0.0518266570963472 0.88475889340921
vt 0.04737854852675822 0.870303281639974
vt 0.15626476160596167 0.9066296875
vt 0.14914265015253456 0.892089241027462
vt 0.15120470239446365 0.8918628526249724
vt 0.15776647598138221 0.9051584291103524
vt 0.000757859973796661 0.8847630010838448
vt 0.0057040898862173 0.8690564280377999
vt 0.0073614961671891604 0.8703048827568106
vt 0.002846084777693568 0.8847389308652959
vt 0.21165984616854963 0.8515625
vt 0.19554109616854964 0.8500375
vt 0.19638718991854964 0.8481125
vt 0.2111434399185496 0.84955234375
vt 0.0057040898862173 0.8690564280377999
vt 0.0202267702215946 0.859375306087868
vt 0.021428650279817482 0.8612273581261229
vt 0.007360270224735139 0.8703039593057175
vt 0.22607308212259797 0.8418953401759166
vt 0.21165984616854963 0.8515625
vt 0.211143477384927 0.849552489591133
vt 0.22482086952697183 0.8400770576793211
vt 0.28125 0.5
vt 0.28125 0.515625
vt 0.2734375 0.515625
vt 0.2734375 0.5
vt 0.03450713024712131 0.859375
vt 0.04902497067850253 0.8690641293806134
vt 0.047367061130177905 0.8703119274380225
vt 0.0333053346453561 0.8612250381258042
vt 0.5 0.6796875
vt 0.484375 0.6796875
vt 0.484375 0.671875
vt 0.5 0.671875
vt 0.14914265015253456 0.892089241027462
vt 0.153103550033507 0.8751919140502821
vt 0.15524656663574948 0.8757219701386076
vt 0.15120520947001698 0.8918627969542081
vt 0.52783515625 0.703125
vt 0.53466484375 0.703125
vt 0.536059375 0.7109375
vt 0.526440625 0.7109375
vt 0.5469051610565635 0.9298049941216551
vt 0.5546875 0.9296875
vt 0.5546875 0.9345780943614256
vt 0.546875 0.9347434591903273
vt 0.54304765625 0.6899890625
vt 0.55070234375 0.6899890625
vt 0.55226484375 0.6946765625
vt 0.54148515625 0.6946765625
vt 0.5496164685639658 0.953095472002389
vt 0.5497466036577319 0.9453125
vt 0.5546875 0.9453125
vt 0.5545038537025512 0.953125
vn 0 -0.9725923340452161 0.23251699240373594
vn 0 -0.005362293699264003 -0.9999856227997895
vn 0 0.9952884264754173 -0.09695848660167797
vn 0 -0.9725923340452161 0.23251699240373613
vn 0 -0.005376025579250476 0.999985549070071
vn 0 0.9952884264754174 0.096958486601678
vn 0 -0.00828968921517231 -0.9999656399360511
vn 0 -0.011877029541957568 0.9999294655970788
vn 0 0.4493508591990502 -0.8933553634120498
vn 0 0.47555276581591205 0.8796871983408855
vn 0 0.8551833918976489 -0.5183255407776393
vn 0 0.7951173113292067 0.606455654788224
vn 0 0 1
vn 0 0.008247365623458718 -0.9999659899017932
vn 0 0 -1
vn 0 0.0009194599212897251 -0.9999995772966374
vn 0 -1 0
vn 0 0.9999996106668214 0.0008824206512607455
vn 0 -0.8183262432043699 0.5747539992753617
vn 0 -0.8246237862522037 -0.5656815457013602
vn 1.1629179576080133e-15 -0.9725923340452162 0.23251699240373577
vn -0.5363359771834655 0.0006138581166022873 -0.8440043499632394
vn -0.05208616820943104 0.9952125988853076 -0.08269772730378357
vn -3.108358407616413e-17 -0.9725923340452157 0.2325169924037373
vn -0.9493596361979303 7.164322212165738e-16 -0.31419147212827697
vn -0.08915227990809886 0.9955670031306041 -0.02997020628450679
vn -5.0526644506275753e-17 -0.972592334045216 0.2325169924037364
vn -0.9503512828062418 0.0003463580032263645 0.311178918477239
vn -0.08915227990809887 0.9955670031306041 0.029970206284506744
vn -3.536865115439308e-16 -0.9725923340452161 0.232516992403736
vn -0.5855462254141707 0.009306220605582144 0.810585598293763
vn -0.05508960897945099 0.9953948056844563 0.07844944740974777
vn -0.5151543536131443 0 -0.8570974226734225
vn -0.9502209088638476 0 -0.3115769958741556
vn -0.9502209088638478 0 0.3115769958741554
vn -0.5842726319795716 0 0.8115574480710928
vn -0.4405650628409161 0.4030491026542519 -0.802155749373887
vn -0.9065240107870537 0.2985292184320403 -0.2984870576907972
vn -0.9073345883090544 0.29578712023204495 0.2987539528824224
vn -0.5556682492317713 0.30090562217475975 0.7750410333261839
vn -0.2625554372273551 0.8702245780341878 -0.41686187900499144
vn -0.585765558767095 0.786195128577051 -0.19691604801028117
vn -0.5911563939903536 0.7816912365698445 0.19872827809405874
vn -0.3541617503438287 0.7875356792081505 0.5043381886864736
vn -0.5232843211408831 0 -0.8521581538940559
vn -0.9502209088638477 0 -0.3115769958741556
vn -0.9502209088638477 0 0.3115769958741553
vn -0.5842726319795715 0 0.8115574480710926
vn -0.5412939705146894 0 -0.8408334183918017
vn -0.41101249157302616 0 -0.9116297119833979
vn -0.4521798218658607 0.1650605659889612 -0.8765206319606873
vn -0.0002626834797239348 0.0010366576587549014 -0.9999994281689807
vn -0.22769739780946413 -0.97158166426813 0.06467584316241565
vn 1 0 0
vn 0 1 0
vn 1 0 0
vn -0.2614279544305963 -0.7900022309677025 0.5545736197370796
vn -0.5339278488251515 -0.765390902829343 0.3593018481931729
vn -0.6378115659538255 -0.7697327405567173 -0.026606661770591275
vn -0.39557949767031475 -0.7957807621449589 -0.45853008584267424
vn -1.1629179576080133e-15 -0.9725923340452162 0.23251699240373577
vn 0.5363359771834655 0.0006138581166022361 -0.8440043499632393
vn 0.05208616820943105 0.9952125988853076 -0.08269772730378358
vn 2.5263322253137858e-17 -0.9725923340452157 0.2325169924037373
vn 0.9493596361979303 6.779701273348613e-16 -0.31419147212827697
vn 0.08915227990809887 0.9955670031306041 -0.029970206284506792
vn 3.1083584076164014e-17 -0.972592334045216 0.2325169924037364
vn 0.9503512828062418 0.0003463580032263308 0.3111789184772391
vn 0.08915227990809887 0.9955670031306041 0.029970206284506744
vn 3.6631817267049975e-16 -0.9725923340452161 0.232516992403736
vn 0.5855462254141707 0.009306220605582206 0.810585598293763
vn 0.05508960897945099 0.9953948056844563 0.07844944740974777
vn 0.5151543536131442 0 -0.8570974226734227
vn 0.9502209088638476 0 -0.3115769958741556
vn 0.9502209088638478 0 0.3115769958741554
vn 0.5842726319795716 0 0.8115574480710928
vn 0.9065240107870537 0.2985292184320403 -0.2984870576907972
vn 0.9073345883090544 0.295787120232045 0.2987539528824223
vn 0.5857655587670949 0.786195128577051 -0.19691604801028112
vn 0.5911563939903536 0.7816912365698444 0.19872827809405874
vn 0.9502209088638477 0 -0.3115769958741556
vn 0.9502209088638477 0 0.3115769958741553
vn 0.5412939705146895 0 -0.8408334183918017
vn 0.4110124915730261 0 -0.9116297119833979
vn 0.4521798218658606 0.16506056598896326 -0.8765206319606867
vn 0.00026268347972393445 0.0010366576587549014 -0.9999994281689807
vn 0.2276973978094642 -0.9715816642681301 0.06467584316241573
vn -1 0 0
vn 0 1 0
vn -1 0 0
vn 0.26142795443059635 -0.7900022309677026 0.5545736197370797
vn 0.5339278488251513 -0.7653909028293429 0.3593018481931728
vn 0.6378115659538256 -0.7697327405567173 -0.02660666177059128
vn 0.39557949767031486 -0.7957807621449589 -0.45853008584267424
vn 0.5232843211408831 0 -0.8521581538940559
vn 0.26255543722735514 0.870224578034188 -0.4168618790049916
vn 0.3541617503438287 0.7875356792081505 0.5043381886864736
vn 0.5842726319795715 0 0.8115574480710926
vn 0.44056506284091596 0.4030491026542519 -0.8021557493738869
vn 0.5556682492317713 0.30090562217475975 0.7750410333261839
vn 1 0 0
vn 0 -1 0
vn -1 0 0
vn 0 0.9525635566372875 0.30433972886647764
vn 0.9997269450063031 -0.022258934582885966 -0.007111628477291889
vn -0.9997060042172041 -0.023957600515026576 -0.0037334313485220087
vn -1 0 0
vn 1 0 0
vn 0 1 0
vn 0.9781009806562011 0.038431201537476666 -0.20455198456080442
vn -0.9993232874244676 0.03678270260808604 0
vn 0 -0.9999977196458822 0.002135580257379669
vn 0.06827157551297262 -0.9930665552287476 0.09569644122476763
vn 0.0008182150055519368 0.9999989397040199 -0.0012046223643331433
vn -0.00018289688023786553 -0.9821262016113947 0.18822351249805547
vn 0.0010132770340549456 0.9999993823569534 -0.0004566786221515375
vn -0.11000468346855118 -0.993211080902782 0.03782483822716822
vn -0.0006453726965954436 0.9999993285704568 -0.0009624721907449635
vn -0.10948106689417351 -0.9822469810517908 0.15233110058801716
vn -0.00017969398233791707 0.9999999670269689 -0.00018345608213995155
vn 0.00018289707603296628 -0.9822761468251991 0.18743942468674946
vn -0.00031715309614204737 0.9999999419550731 0.00012451411187837304
vn -0.11715012046422309 -0.9819243855385177 0.14866186585679098
vn 0.00017968503225877707 0.9999999807375315 0.00007898244227296989
vn -0.08875138249075726 -0.9945814597880214 0.05413789755714643
vn 0.00015996619745346918 0.9999999344974291 0.00032467823029088804
vn 0.8506348682711695 0.0005588716533748692 -0.5257566058013586
vn 0.06820880404693484 -0.9939286618431235 0.0863329266110268
vn -0.8506348682711692 0.0005588716533748698 -0.5257566058013591
vn -0.00029566589048820235 0.9999998113716265 0.0005383664112588989
vn 0 0 1
vn -0.9410697824611373 -0.27992931475968236 0.18980843837069722
vn 0 0 -1
vn 0.9317792292626162 -0.3105930764208722 0.1879345864767395
usemtl m_084e7548-2300-4378-46d0-9b20b1ffff30
f 44/1/1 85/2/1 2/3/1
f 80/4/2 39/5/2 38/6/2 79/7/2
f 62/8/3 21/9/3 1/10/3
f 81/11/4 40/12/4 2/13/4
f 105/14/5 106/15/5 103/16/5 104/17/5
f 25/18/6 66/19/6 1/20/6
f 38/21/7 35/22/7 76/23/7 79/24/7
f 103/25/8 101/26/8 100/27/8 104/28/8
f 97/29/9 98/30/9 93/31/9 96/32/9
f 92/33/10 20/34/10 15/35/10 90/36/10
f 21/37/11 62/38/11 91/39/11 16/40/11
f 66/41/12 25/42/12 20/43/12 92/44/12
f 99/45/13 100/46/13 101/47/13 102/48/13
f 93/49/14 94/50/14 95/51/14 96/52/14
f 71/53/15 30/54/15 26/55/15 67/56/15
f 34/57/16 75/58/16 48/59/16 3/60/16
f 123/61/17 124/62/17 125/63/17 126/64/17
f 39/65/18 80/66/18 75/67/18 34/68/18
f 40/69/19 81/70/19 55/71/19 10/72/19
f 85/73/20 44/74/20 3/75/20 48/76/20
f 43/77/21 44/78/21 2/79/21
f 119/80/22 117/81/22 118/82/22 120/83/22
f 21/84/23 22/85/23 1/86/23
f 42/87/24 43/88/24 2/89/24
f 117/90/25 109/91/25 110/92/25 118/93/25
f 22/94/26 23/95/26 1/96/26
f 41/97/27 42/98/27 2/99/27
f 109/100/28 107/101/28 108/102/28 110/103/28
f 23/104/29 24/105/29 1/106/29
f 40/107/30 41/108/30 2/109/30
f 107/110/31 105/111/31 104/112/31 108/113/31
f 24/114/32 25/115/32 1/116/32
f 36/117/33 37/118/33 35/119/33 38/120/33
f 45/121/34 47/122/34 27/123/34 6/124/34
f 9/125/35 28/126/35 47/127/35 45/128/35
f 11/129/36 29/130/36 28/131/36 9/132/36
f 17/133/37 16/134/37 12/135/37 13/136/37
f 18/137/38 17/138/38 13/139/38 46/140/38
f 19/141/39 18/142/39 46/143/39 14/144/39
f 20/145/40 19/146/40 14/147/40 15/148/40
f 22/149/41 21/150/41 16/151/41 17/152/41
f 23/153/42 22/154/42 17/155/42 18/156/42
f 24/157/43 23/158/43 18/159/43 19/160/43
f 25/161/44 24/162/44 19/163/44 20/164/44
f 12/165/45 26/166/45 27/167/45 13/168/45
f 13/169/46 27/170/46 47/171/46 46/172/46
f 46/173/47 47/174/47 28/175/47 14/176/47
f 14/177/48 28/178/48 29/179/48 15/180/48
f 26/181/49 30/182/49 32/183/49 27/184/49
f 27/185/50 32/186/50 31/187/50 6/188/50
f 6/189/51 31/190/51 33/191/51 4/192/51
f 4/193/52 33/194/52 34/195/52 3/196/52
f 30/197/53 35/198/53 37/199/53 32/200/53
f 32/201/54 37/202/54 36/203/54 31/204/54
f 31/205/55 36/206/55 38/207/55 33/208/55
f 33/209/56 38/210/56 39/211/56 34/212/56
f 8/213/57 41/214/57 40/215/57 10/216/57
f 7/217/58 42/218/58 41/219/58 8/220/58
f 5/221/59 43/222/59 42/223/59 7/224/59
f 3/225/60 44/226/60 43/227/60 5/228/60
f 85/229/61 84/230/61 2/231/61
f 116/232/62 115/233/62 121/234/62 122/235/62
f 63/236/63 62/237/63 1/238/63
f 84/239/64 83/240/64 2/241/64
f 114/242/65 113/243/65 115/244/65 116/245/65
f 64/246/66 63/247/66 1/248/66
f 83/249/67 82/250/67 2/251/67
f 112/252/68 111/253/68 113/254/68 114/255/68
f 65/256/69 64/257/69 1/258/69
f 82/259/70 81/260/70 2/261/70
f 103/262/71 106/263/71 111/264/71 112/265/71
f 66/266/72 65/267/72 1/268/72
f 76/269/73 78/270/73 77/271/73 79/272/73
f 68/273/74 88/274/74 86/275/74 51/276/74
f 88/277/75 69/278/75 54/279/75 86/280/75
f 69/281/76 70/282/76 56/283/76 54/284/76
f 57/285/77 59/286/77 60/287/77 87/288/77
f 87/289/78 60/290/78 61/291/78 58/292/78
f 59/293/79 63/294/79 64/295/79 60/296/79
f 60/297/80 64/298/80 65/299/80 61/300/80
f 88/301/81 68/302/81 57/303/81 87/304/81
f 69/305/82 88/306/82 87/307/82 58/308/82
f 73/309/83 71/310/83 67/311/83 68/312/83
f 72/313/84 73/314/84 68/315/84 51/316/84
f 74/317/85 72/318/85 51/319/85 49/320/85
f 75/321/86 74/322/86 49/323/86 48/324/86
f 78/325/87 76/326/87 71/327/87 73/328/87
f 77/329/88 78/330/88 73/331/88 72/332/88
f 79/333/89 77/334/89 72/335/89 74/336/89
f 80/337/90 79/338/90 74/339/90 75/340/90
f 81/341/91 82/342/91 53/343/91 55/344/91
f 82/345/92 83/346/92 52/347/92 53/348/92
f 83/349/93 84/350/93 50/351/93 52/352/93
f 84/353/94 85/354/94 48/355/94 50/356/94
f 68/357/95 67/358/95 89/359/95 57/360/95
f 91/361/96 62/362/96 63/363/96 59/364/96
f 61/365/97 65/366/97 66/367/97 92/368/97
f 70/369/98 69/370/98 58/371/98 90/372/98
f 89/373/99 91/374/99 59/375/99 57/376/99
f 58/377/100 61/378/100 92/379/100 90/380/100
f 94/381/101 93/382/101 89/383/101 67/384/101
f 95/385/102 94/386/102 67/387/102 26/388/102
f 96/389/103 95/390/103 26/391/103 12/392/103
f 98/393/104 97/394/104 16/395/104 91/396/104
f 93/397/105 98/398/105 91/399/105 89/400/105
f 97/401/106 96/402/106 12/403/106 16/404/106
f 100/405/107 99/406/107 15/407/107 29/408/107
f 102/409/108 101/410/108 70/411/108 90/412/108
f 99/413/109 102/414/109 90/415/109 15/416/109
f 101/417/110 103/418/110 56/419/110 70/420/110
f 104/421/111 100/422/111 29/423/111 11/424/111
f 106/425/112 105/426/112 10/427/112 55/428/112
f 105/429/113 107/430/113 8/431/113 10/432/113
f 108/433/114 104/434/114 11/435/114 9/436/114
f 107/437/115 109/438/115 7/439/115 8/440/115
f 110/441/116 108/442/116 9/443/116 45/444/116
f 111/445/117 106/446/117 55/447/117 53/448/117
f 103/449/118 112/450/118 54/451/118 56/452/118
f 113/453/119 111/454/119 53/455/119 52/456/119
f 112/457/120 114/458/120 86/459/120 54/460/120
f 115/461/121 113/462/121 52/463/121 50/464/121
f 114/465/122 116/466/122 51/467/122 86/468/122
f 109/469/123 117/470/123 5/471/123 7/472/123
f 118/473/124 110/474/124 45/475/124 6/476/124
f 117/477/125 119/478/125 3/479/125 5/480/125
f 120/481/126 118/482/126 6/483/126 4/484/126
f 119/485/127 120/486/127 4/487/127 3/488/127
f 121/489/128 115/490/128 50/491/128 48/492/128
f 122/493/129 121/494/129 48/495/129 49/496/129
f 116/497/130 122/498/130 49/499/130 51/500/130
f 124/501/131 123/502/131 76/503/131 35/504/131
f 125/505/132 124/506/132 35/507/132 30/508/132
f 126/509/133 125/510/133 30/511/133 71/512/133
f 123/513/134 126/514/134 71/515/134 76/516/134