# Made in Blockbench 5.1.5
mtllib Blackwing Left Arm.mtl

o cuboid
v -0.825 1.06875 -0.1171875
v -0.825 0.9437500000000001 -0.1171875
v -0.85 1.01875 -0.1171875
v -0.725 1.01875 -0.1171875
v -0.725 1.06875 -0.1171875
v -0.725 0.9437500000000001 -0.1171875
v -0.85 1.01875 -0.0421875
v -0.825 0.9437500000000001 -0.0421875
v -0.825 1.06875 -0.0421875
v -0.625 0.90625 -0.1484375
v -0.725 0.90625 -0.1484375
v -0.625 0.90625 -0.0421875
v -0.68125 1.06875 -0.1171875
v -0.68125 1.01875 -0.1171875
v -0.68125 0.90625 -0.1484375
v -0.68125 0.90625 -0.0421875
v -0.725 0.91875 -0.1171875
v -0.8171875 0.91875 -0.0421875
v -0.8171875 0.91875 -0.1171875
v -0.825 1.06875 0.109375
v -0.825 0.9437500000000001 0.109375
v -0.625 1.06875 0.084375
v -0.625 1.06875 -0.1171875
v -0.625 0.9437500000000001 0.084375
v -0.625 0.9437500000000001 -0.1171875
v -0.625 1.01875 -0.1171875
v -0.85 1.01875 0.109375
v -0.625 1.01875 0.084375
v -0.725 1.06875 0.109375
v -0.725 1.01875 0.109375
v -0.725 0.9437500000000001 0.109375
v -0.725 0.9437500000000001 -0.0421875
v -0.625 0.9437500000000001 -0.0421875
v -0.625 1.01875 -0.0421875
v -0.625 1.06875 -0.0421875
v -0.725 1.06875 -0.0421875
v -0.725 0.90625 -0.0421875
v -0.68125 0.9437500000000001 -0.0421875
v -0.68125 0.9437500000000001 0.109375
v -0.68125 1.01875 0.109375
v -0.68125 1.06875 0.109375
v -0.68125 1.06875 -0.0421875
v -0.725 0.91875 -0.0421875
v -0.8171875 0.91875 0.109375
v -0.725 0.91875 0.109375
v -0.68125 0.91875 -0.0421875
v -0.68125 0.91875 0.109375
v 0.825 1.06875 -0.1171875
v 0.825 0.9437500000000001 -0.1171875
v 0.85 1.01875 -0.1171875
v 0.725 1.01875 -0.1171875
v 0.725 1.06875 -0.1171875
v 0.725 0.9437500000000001 -0.1171875
v 0.85 1.01875 -0.0421875
v 0.825 0.9437500000000001 -0.0421875
v 0.825 1.06875 -0.0421875
v 0.625 0.90625 -0.1484375
v 0.725 0.90625 -0.1484375
v 0.625 0.90625 -0.0421875
v 0.68125 1.06875 -0.1171875
v 0.68125 1.01875 -0.1171875
v 0.68125 0.90625 -0.1484375
v 0.68125 0.90625 -0.0421875
v 0.725 0.91875 -0.1171875
v 0.8171875 0.91875 -0.0421875
v 0.8171875 0.91875 -0.1171875
v 0.825 1.06875 0.109375
v 0.825 0.9437500000000001 0.109375
v 0.625 1.06875 0.084375
v 0.625 1.06875 -0.1171875
v 0.625 0.9437500000000001 0.084375
v 0.625 0.9437500000000001 -0.1171875
v 0.625 1.01875 -0.1171875
v 0.85 1.01875 0.109375
v 0.625 1.01875 0.084375
v 0.725 1.06875 0.109375
v 0.725 1.01875 0.109375
v 0.725 0.9437500000000001 0.109375
v 0.725 0.9437500000000001 -0.0421875
v 0.625 0.9437500000000001 -0.0421875
v 0.625 1.01875 -0.0421875
v 0.625 1.06875 -0.0421875
v 0.725 1.06875 -0.0421875
v 0.725 0.90625 -0.0421875
v 0.68125 0.9437500000000001 -0.0421875
v 0.68125 0.9437500000000001 0.109375
v 0.68125 1.01875 0.109375
v 0.68125 1.06875 0.109375
v 0.68125 1.06875 -0.0421875
v 0.725 0.91875 -0.0421875
v 0.8171875 0.91875 0.109375
v 0.725 0.91875 0.109375
v 0.68125 0.91875 -0.0421875
v 0.68125 0.91875 0.109375
vt 0.32177734375 0.90171171875
vt 0.33115234375 0.90171171875
vt 0.33115234375 0.91159375
vt 0.32177734375 0.91159375
vt 0.303125 0.93125
vt 0.2875 0.93125
vt 0.2875 0.921875
vt 0.3 0.921875
vt 0.3 0.9375
vt 0.2875 0.9375
vt 0.2875 0.93125
vt 0.303125 0.93125
vt 0.37646484375 0.6883250000000001
vt 0.38583984375 0.6883250000000001
vt 0.38583984375 0.6953125
vt 0.37646484375 0.6953125
vt 0.1546875 0.57578125
vt 0.14765625 0.57578125
vt 0.14765625 0.5625
vt 0.1546875 0.5625
vt 0.243359375 0.603125
vt 0.247265625 0.6078125
vt 0.247265625 0.6171875
vt 0.2875 0.9375
vt 0.28203125 0.9375
vt 0.28203125 0.93125
vt 0.2875 0.93125
vt 0.25625 0.59375
vt 0.25078125 0.59375
vt 0.25078125 0.5791546875
vt 0.25625 0.5791546875
vt 0.32177734375 0.8984375
vt 0.33115234375 0.8984375
vt 0.33115234375 0.90171171875
vt 0.32177734375 0.90171171875
vt 0.2875 0.91875
vt 0.2990234375 0.91875
vt 0.3 0.921875
vt 0.2875 0.921875
vt 0.2140625 0.828125
vt 0.2140625 0.81875
vt 0.2265625 0.81875
vt 0.2265625 0.828125
vt 0.01474609375 0.671875
vt 0.01474609375 0.68125
vt 0.00322265625 0.68125
vt 0.00322265625 0.671875
vt 0.074609375 0.6796875
vt 0.087109375 0.6796875
vt 0.087109375 0.6890625
vt 0.071484375 0.6890625
vt 0.26845703125 0.8921875
vt 0.25908203125 0.8921875
vt 0.25908203125 0.8828125
vt 0.26845703125 0.8828125
vt 0.071484375 0.6890625
vt 0.087109375 0.6890625
vt 0.087109375 0.6953125
vt 0.074609375 0.6953125
vt 0.26845703125 0.8984375
vt 0.25908203125 0.8984375
vt 0.25908203125 0.8921875
vt 0.26845703125 0.8921875
vt 0.275 0.93125
vt 0.28203125 0.93125
vt 0.28203125 0.9375
vt 0.275 0.9375
vt 0.2390625 0.828125
vt 0.23203125 0.828125
vt 0.23203125 0.81875
vt 0.2390625 0.81875
vt 0.4609375 0.6328125
vt 0.45324296875 0.6328125
vt 0.45324296875 0.6265625
vt 0.4609375 0.6265625
vt 0.4609375 0.6265625
vt 0.45324296875 0.6265625
vt 0.45324296875 0.6171875
vt 0.4609375 0.6171875
vt 0.24375 0.5791546875
vt 0.25078125 0.5791546875
vt 0.25078125 0.59375
vt 0.24375 0.59375
vt 0.35009765625 0.91159375
vt 0.33115234375 0.91159375
vt 0.33115234375 0.90171171875
vt 0.35009765625 0.90171171875
vt 0.00322265625 0.7001953125
vt 0.00322265625 0.68125
vt 0.01474609375 0.68125
vt 0.01474609375 0.7001953125
vt 0.4609375 0.653125
vt 0.453125 0.65625
vt 0.453125 0.640625
vt 0.4609375 0.640625
vt 0.24326171875 0.8828125
vt 0.25908203125 0.8828125
vt 0.25908203125 0.8921875
vt 0.24326171875 0.8921875
vt 0.24326171875 0.8921875
vt 0.25908203125 0.8921875
vt 0.25908203125 0.8984375
vt 0.24326171875 0.8984375
vt 0.2390625 0.81875
vt 0.23203125 0.81875
vt 0.23203125 0.7998046875
vt 0.2390625 0.8029296875
vt 0.2265625 0.7998046875
vt 0.2265625 0.81875
vt 0.2140625 0.81875
vt 0.2140625 0.7998046875
vt 0.40478515625 0.6953125
vt 0.38583984375 0.6953125
vt 0.38583984375 0.6883250000000001
vt 0.40478515625 0.6883250000000001
vt 0.27236328125 0.878125
vt 0.26845703125 0.8921875
vt 0.26845703125 0.8828125
vt 0.25908203125 0.878125
vt 0.27236328125 0.878125
vt 0.26845703125 0.8828125
vt 0.25908203125 0.8828125
vt 0.19375 0.5
vt 0.18671875 0.5
vt 0.18671875 0.49531250000000004
vt 0.19375 0.49531250000000004
vt 0.243359375 0.603125
vt 0.256640625 0.603125
vt 0.256640625 0.6078125
vt 0.247265625 0.6078125
vt 0.01474609375 0.68125
vt 0.02021484375 0.68125
vt 0.02021484375 0.7001953125
vt 0.01474609375 0.7001953125
vt 0.087109375 0.6796875
vt 0.092578125 0.6796875
vt 0.092578125 0.6890625
vt 0.087109375 0.6890625
vt 0.087109375 0.6890625
vt 0.092578125 0.6890625
vt 0.092578125 0.6953125
vt 0.087109375 0.6953125
vt 0.2265625 0.7998046875
vt 0.23203125 0.7998046875
vt 0.23203125 0.81875
vt 0.2265625 0.81875
vt 0.2265625 0.81875
vt 0.23203125 0.81875
vt 0.23203125 0.828125
vt 0.2265625 0.828125
vt 0.1421875 0.5625
vt 0.14765625 0.5625
vt 0.14765625 0.57578125
vt 0.1421875 0.57578125
vt 0.18125 0.49531250000000004
vt 0.18671875 0.49531250000000004
vt 0.18671875 0.5
vt 0.18125 0.5
vt 0.1640625 0.4921875
vt 0.171875 0.4921875
vt 0.171875 0.5
vt 0.1640625 0.5
vt 0.33115234375 0.8984375
vt 0.35009765625 0.8984375
vt 0.35009765625 0.90171171875
vt 0.33115234375 0.90171171875
vt 0.0755859375 0.6765625
vt 0.087109375 0.6765625
vt 0.087109375 0.6796875
vt 0.074609375 0.6796875
vt 0.5 0.8203125
vt 0.5078125 0.8203125
vt 0.5078125 0.828125
vt 0.5 0.828125
vt 0.4453125 0.765625
vt 0.4609375 0.765625
vt 0.4609375 0.7734375
vt 0.4453125 0.7734375
vt 0.087109375 0.6765625
vt 0.092578125 0.6765625
vt 0.092578125 0.6796875
vt 0.087109375 0.6796875
vn -0.9486832980505137 -0.3162277660168384 0
vn 0 0 -1
vn 0 0 -1
vn -0.8944271909999161 0.44721359549995804 0
vn 0 -1 0
vn -1 0 0
vn 0 0 -1
vn 0 0.26764386378609456 -0.9635179096299407
vn -0.9544799780350304 -0.2982749931359454 0
vn 0 0 -1
vn 0 1 0
vn 0 -1 0
vn 0 0 1
vn 1 0 0
vn 0 0 1
vn 1 0 0
vn 0 0 -1
vn 0 1 0
vn 0.4061384660534474 0 0.9138115486202573
vn 0.40613846605344744 0 0.9138115486202574
vn 0 0.26764386378609456 -0.9635179096299407
vn -0.9486832980505137 -0.3162277660168384 0
vn 0 -1 0
vn 0 -1 0
vn 1 0 0
vn 1 0 0
vn 0 1 0
vn 0 1 0
vn -0.894427190999916 0.447213595499958 0
vn 1 0 0
vn 1 0 0
vn 0 0 1
vn -1 0 0
vn 0 -1 0
vn 0 0 1
vn 0 0 1
vn 0 1 0
vn 0 1 0
vn 0 -1 0
vn 0 0 1
vn 1 0 0
vn -0.9544799780350303 -0.29827499313594535 0
vn 0 0 1
vn 0 0 -1
vn 1 0 0
vn 0 0 1
usemtl m_7ecca7f4-36ac-79de-f5df-1a8ab898bcc7
f 2/1/1 8/2/1 7/3/1 3/4/1
f 3/5/2 4/6/2 6/7/2 2/8/2
f 1/9/3 5/10/3 4/11/3 3/12/3
f 3/13/4 7/14/4 9/15/4 1/16/4
f 12/17/5 16/18/5 15/19/5 10/20/5
f 11/21/6 6/22/6 4/23/6
f 5/24/7 13/25/7 14/26/7 4/27/7
f 4/28/8 14/29/8 15/30/8 11/31/8
f 19/32/9 18/33/9 8/34/9 2/35/9
f 17/36/10 19/37/10 2/38/10 6/39/10
f 1/40/11 9/41/11 36/42/11 5/43/11
f 17/44/12 43/45/12 18/46/12 19/47/12
f 21/48/13 31/49/13 30/50/13 27/51/13
f 26/52/14 34/53/14 33/54/14 25/55/14
f 27/56/15 30/57/15 29/58/15 20/59/15
f 23/60/16 35/61/16 34/62/16 26/63/16
f 26/64/17 14/65/17 13/66/17 23/67/17
f 23/68/18 13/69/18 42/70/18 35/71/18
f 22/72/19 41/73/19 40/74/19 28/75/19
f 28/76/20 40/77/20 39/78/20 24/79/20
f 10/80/21 15/81/21 14/82/21 26/83/21
f 27/84/22 7/85/22 8/86/22 21/87/22
f 44/88/23 18/89/23 43/90/23 45/91/23
f 24/92/24 39/93/24 38/94/24 33/95/24
f 24/96/25 33/97/25 34/98/25 28/99/25
f 28/100/26 34/101/26 35/102/26 22/103/26
f 35/104/27 42/105/27 41/106/27 22/107/27
f 29/108/28 36/109/28 9/110/28 20/111/28
f 20/112/29 9/113/29 7/114/29 27/115/29
f 10/116/30 26/117/30 25/118/30
f 12/119/31 10/120/31 25/121/31 33/122/31
f 33/123/32 38/124/32 16/125/32 12/126/32
f 11/127/33 37/128/33 32/129/33 6/130/33
f 43/131/34 46/132/34 47/133/34 45/134/34
f 31/135/35 39/136/35 40/137/35 30/138/35
f 30/139/36 40/140/36 41/141/36 29/142/36
f 29/143/37 41/144/37 42/145/37 36/146/37
f 36/147/38 42/148/38 13/149/38 5/150/38
f 11/151/39 15/152/39 16/153/39 37/154/39
f 37/155/40 16/156/40 38/157/40 32/158/40
f 43/159/41 17/160/41 6/161/41 32/162/41
f 18/163/42 44/164/42 21/165/42 8/166/42
f 44/167/43 45/168/43 31/169/43 21/170/43
f 46/171/44 43/172/44 32/173/44 38/174/44
f 47/175/45 46/176/45 38/177/45 39/178/45
f 45/179/46 47/180/46 39/181/46 31/182/46
o Forearm
v -0.6093750000000002 1.134375 -0.06562500000000017
v -0.6093750000000002 1.134375 0.06562499999999984
v -0.6187500000000001 0.9624999999999999 -0.10312500000000015
v -0.6187500000000001 0.9624999999999999 0.10312499999999984
v -0.37500000000000017 1.134375 -0.06562500000000017
v -0.37500000000000017 1.134375 0.06562499999999984
v -0.3375000000000002 0.9624999999999999 -0.10312500000000015
v -0.3375000000000002 0.9624999999999999 0.10312499999999984
v -0.6187500000000001 1.0734375 -0.10312500000000016
v -0.3375000000000002 1.0734375 -0.10312500000000016
v -0.3375000000000002 1.0734375 0.10312499999999983
v -0.6187500000000001 1.0734375 0.10312499999999983
v -0.6666668750000002 1.134375 -0.06562500000000017
v -0.6875000000000001 1.0734375 0.10312499999999983
v -0.6875000000000001 1.0734375 -0.10312500000000016
v -0.6666668750000002 1.134375 0.06562499999999984
v -0.7875000000000001 1.0734375 -1.6437056257305882e-16
v -0.7500000000000002 1.134375 -1.7183325400536298e-16
v -0.6093750000000002 1.134375 -1.7183325400536298e-16
v -0.37500000000000017 1.134375 -1.7183325400536298e-16
v -0.3375000000000002 1.0734375 -1.6437056257305882e-16
v -0.3375000000000002 0.9624999999999999 -1.5078463714501785e-16
v -0.6187500000000001 0.9624999999999999 -1.5078463714501785e-16
v -0.6187500000000001 1.0734375 -1.6437056257305882e-16
v -0.7052081250000001 1.088671875 -0.07265625000000017
v -0.7552081250000001 1.088671875 -0.018956875000000168
v -0.7364581250000002 1.119140625 -0.01895687500000017
v -0.6947918750000002 1.119140625 -0.05390625000000017
v -0.6947918750000002 1.119140625 0.053906249999999836
v -0.7552081250000001 1.088671875 0.017433749999999835
v -0.7364581250000002 1.119140625 0.01743374999999983
v -0.7052081250000001 1.088671875 0.07265624999999984
v -0.6319312500000003 1.11427125 0.04658687499999983
v -0.6319312500000002 1.0838025 0.017433749999999835
v -0.6319312500000003 1.11427125 0.01743374999999983
v -0.6319312500000002 1.0838025 0.06533687499999984
v -0.6294787500000001 1.08229375 -0.06838187500000016
v -0.6294787500000001 1.08229375 -0.018956875000000168
v -0.6294787500000002 1.1127624999999999 -0.01895687500000017
v -0.6294787500000002 1.1127624999999999 -0.049631875000000165
v -0.5632812500000002 1.134375 -0.042968750000000173
v -0.5632812500000002 1.134375 -0.022656250000000173
v -0.40234375000000017 1.134375 -0.022656250000000173
v -0.40234375000000017 1.134375 -0.042968750000000173
v -0.40234375000000017 1.134375 0.042968749999999827
v -0.5632812500000002 1.134375 0.022656249999999826
v -0.40234375000000017 1.134375 0.022656249999999826
v -0.5632812500000002 1.134375 0.042968749999999827
v -0.5632812500000002 1.1468749999999999 0.03281249999999983
v -0.40234375000000017 1.171875 0.03281249999999983
v -0.5632812500000002 1.1468749999999999 -0.032812500000000175
v -0.40234375000000017 1.171875 -0.032812500000000175
vt 0.473306640625 0.5
vt 0.469662109375 0.5
vt 0.469662109375 0.4921875
vt 0.475650390625 0.4921875
vt 0.362109375 0.90511875
vt 0.375 0.90511875
vt 0.375 0.9140625
vt 0.366796875 0.9140625
vt 0.224609375 0.890625
vt 0.224609375 0.903515625
vt 0.189453125 0.903515625
vt 0.189453125 0.890625
vt 0.1625 0.6875
vt 0.1578125 0.67855625
vt 0.19296875 0.67855625
vt 0.191796875 0.6875
vt 0.323828125 0.9375
vt 0.32265625 0.92855625
vt 0.3578125 0.92855625
vt 0.353125 0.9375
vt 0.2734375 0.9453125
vt 0.2734375 0.9609375
vt 0.234375 0.9609375
vt 0.234375 0.9453125
vt 0.323046875 0.7986328125
vt 0.3359375 0.7986328125
vt 0.3359375 0.8125
vt 0.323046875 0.8125
vt 0.0859375 0.75
vt 0.0859375 0.765625
vt 0.046875 0.765625
vt 0.046875 0.75
vt 0.317578125 0.6796875
vt 0.3046875 0.6796875
vt 0.3046875 0.6658203125
vt 0.317578125 0.6658203125
vt 0.2015625 0.67855625
vt 0.19895859375 0.6875
vt 0.191796875 0.6875
vt 0.19296875 0.67855625
vt 0.080078125 0.703125
vt 0.092578125 0.716015625
vt 0.071484375 0.716015625
vt 0.071484375 0.703125
vt 0.31666640625 0.9375
vt 0.3140625 0.92855625
vt 0.32265625 0.92855625
vt 0.323828125 0.9375
vt 0.216796875 0.8828125
vt 0.216796875 0.874609375
vt 0.234375 0.874609375
vt 0.22395859375 0.8828125
vt 0.5 0.8359375
vt 0.5078125 0.8359375
vt 0.5078125 0.84375
vt 0.50234375 0.84375
vt 0.22395859375 0.86640625
vt 0.234375 0.874609375
vt 0.216796875 0.874609375
vt 0.216796875 0.86640625
vt 0.383203125 0.9140625
vt 0.375 0.9140625
vt 0.375 0.90511875
vt 0.387890625 0.90511875
vt 0.348828125 0.8125
vt 0.3359375 0.8125
vt 0.3359375 0.7986328125
vt 0.348828125 0.7986328125
vt 0.189453125 0.91640625
vt 0.189453125 0.903515625
vt 0.224609375 0.903515625
vt 0.224609375 0.91640625
vt 0.291796875 0.6658203125
vt 0.3046875 0.6658203125
vt 0.3046875 0.6796875
vt 0.291796875 0.6796875
vt 0.071484375 0.72890625
vt 0.071484375 0.716015625
vt 0.092578125 0.716015625
vt 0.080078125 0.72890625
vt 0.0969253125 0.5719528125
vt 0.08777671875 0.571299453125
vt 0.083643984375 0.5688590625000001
vt 0.1015625 0.56997265625
vt 0.09505640625 0.575931953125
vt 0.096852734375 0.571836171875
vt 0.101468125 0.5697796875000001
vt 0.09787625 0.577970390625
vt 0.08825875 0.575931953125
vt 0.09505640625 0.575931953125
vt 0.0978759375 0.577970234375
vt 0.08462359375 0.578116328125
vt 0.08777671875 0.571299453125
vt 0.08825875 0.575931953125
vt 0.08460921875 0.578125
vt 0.083644296875 0.56885921875
vt 0.42827265625 0.95109296875
vt 0.43518828125 0.950799296875
vt 0.438891015625 0.952901953125
vt 0.4256465625 0.953093671875
vt 0.42640703125 0.94702890625
vt 0.42827265625 0.95109296875
vt 0.42560546875 0.953125
vt 0.421875 0.944996875
vt 0.52144921875 0.6484375
vt 0.5121375 0.6484375
vt 0.5078125 0.6459953125
vt 0.52575859375 0.6463796875000001
vt 0.43518828125 0.950799296875
vt 0.435556171875 0.9461563281250001
vt 0.4396271875 0.943615078125
vt 0.43889078125 0.952901796875
vt 0.1578765625 0.5078125
vt 0.16152109375 0.5078125
vt 0.1624359375 0.5182445312499999
vt 0.1578765625 0.5234375
vt 0.36729671875 0.531453984375
vt 0.375 0.53163140625
vt 0.375 0.54471125
vt 0.3671875 0.546875
vt 0.45403984375 0.703125
vt 0.4609375 0.703125
vt 0.4609375 0.71875
vt 0.453125 0.7125046875000001
vt 0.52202484375 0.965409609375
vt 0.52202484375 0.9609375
vt 0.53125 0.960976484375
vt 0.5299575 0.9654484375
vt 0.2427375 0.5234375
vt 0.248915625 0.5234375
vt 0.24945 0.532834375
vt 0.2427375 0.5390625
vt 0.08216890625 0.554568671875
vt 0.081975859375 0.546875
vt 0.097711640625 0.546875
vt 0.095563984375 0.5546875
vt 0.453659375 0.6796875
vt 0.4609375 0.6796875
vt 0.4609375 0.6953125
vt 0.453125 0.6901132812499999
vt 0.101625546875 0.5078125
vt 0.109375 0.508029453125
vt 0.109375 0.5162499218750001
vt 0.1015625 0.517326328125
vt 0.21103515625 0.87177734375
vt 0.21103515625 0.86923828125
vt 0.216796875 0.86640625
vt 0.216796875 0.874609375
vt 0.19091796875 0.87177734375
vt 0.21103515625 0.87177734375
vt 0.216796875 0.874609375
vt 0.1875 0.874609375
vt 0.19091796875 0.86923828125
vt 0.19091796875 0.87177734375
vt 0.1875 0.874609375
vt 0.1875 0.86640625
vt 0.21103515625 0.86923828125
vt 0.19091796875 0.86923828125
vt 0.1875 0.86640625
vt 0.216796875 0.86640625
vt 0.19091796875 0.87744140625
vt 0.19091796875 0.87998046875
vt 0.1875 0.8828125
vt 0.1875 0.874609375
vt 0.21103515625 0.87744140625
vt 0.19091796875 0.87744140625
vt 0.1875 0.874609375
vt 0.216796875 0.874609375
vt 0.21103515625 0.87998046875
vt 0.21103515625 0.87744140625
vt 0.216796875 0.874609375
vt 0.216796875 0.8828125
vt 0.19091796875 0.87998046875
vt 0.21103515625 0.87998046875
vt 0.216796875 0.8828125
vt 0.1875 0.8828125
vt 0.01953125 0.4765625
vt 0.01826171875 0.47187500000000004
vt 0.02080078125 0.47187500000000004
vt 0.47207078125 0.84705359375
vt 0.475084140625 0.8671875
vt 0.470228359375 0.8671875
vt 0.470228359375 0.84708625
vt 0.32421875 0.4765625
vt 0.32294921875 0.475
vt 0.32548828125 0.475
vt 0.4264628125 0.734375
vt 0.40625 0.731945625
vt 0.40625 0.7265625
vt 0.426271875 0.7265625
vt 0.52734375 0.671875
vt 0.52607421875 0.6703125
vt 0.52861328125 0.6703125
vt 0.442087734375 0.9296875
vt 0.421875 0.92725890625
vt 0.421875 0.921875
vt 0.441896875 0.921875
vt 0.03515625 0.4765625
vt 0.03388671875 0.47187500000000004
vt 0.03642578125 0.47187500000000004
vt 0.472067265625 0.87830328125
vt 0.475084765625 0.8984375
vt 0.470227734375 0.8984375
vt 0.470227734375 0.878337109375
vn -1 -1.2246467991473532e-16 1.4997597826618576e-32
vn 0.8516583167045434 0.5240974256643354 -6.418342347811962e-17
vn 1.2246467991473532e-16 -1 1.2246467991473532e-16
vn -6.418342347811963e-17 0.5240974256643354 -0.8516583167045435
vn -6.418342347811963e-17 0.5240974256643356 0.8516583167045435
vn 0 -1.2246467991473532e-16 -1
vn 1 1.2246467991473532e-16 -1.4997597826618576e-32
vn 0 1.2246467991473532e-16 1
vn -1 -1.2246467991473532e-16 1.4997597826618576e-32
vn -6.418342347811962e-17 0.5240974256643353 -0.8516583167045435
vn 1.2246467991473532e-16 -1 1.2246467991473532e-16
vn -6.418342347811965e-17 0.5240974256643357 0.8516583167045433
vn -1.2246467991473532e-16 1 -1.2246467991473532e-16
vn -1 -1.2246467991473532e-16 1.4997597826618576e-32
vn -1.2246467991473532e-16 1 -1.2246467991473532e-16
vn 0.8516583167045435 0.5240974256643356 -6.418342347811965e-17
vn 1 1.2246467991473532e-16 -1.4997597826618576e-32
vn 1.2246467991473532e-16 -1 1.2246467991473532e-16
vn -1 -1.2246467991473532e-16 1.4997597826618576e-32
vn 1.2246467991473532e-16 -1 1.2246467991473532e-16
vn -0.6513945589562337 0.4558716943040737 -0.6065196838475626
vn -0.5933776866968176 0.36515549950573406 -0.7173314311467548
vn -0.6003155625337514 0.3569451831026128 -0.7156894309961745
vn -0.5589020993675042 0.5647363366668848 -0.6072078008150616
vn -0.5554773660083341 0.53735948485379 0.634578348110076
vn -0.5673545192040325 0.3491412425870972 0.7457943699596417
vn -0.577944659611263 0.6262191078354978 0.5232873010197503
vn -0.5589109360032589 0.5647350745774031 0.6072008408739369
vn -0.07723166965526908 -0.9970131740364615 1.2209889922914956e-16
vn 0 1.2246467991473532e-16 1
vn 0.03946872285738086 0.9992208063866602 -1.2236925621828606e-16
vn -0.1190438166095042 -0.5203705697693768 -0.845602175875238
vn 0.08392546744563018 0.9964720346873928 -1.2203262877197658e-16
vn 0 -1.2246467991473532e-16 -1
vn -0.059514457011097574 -0.9982274437254641 1.2224760437794341e-16
vn -0.10631082954612432 -0.5211273372571532 0.8468319230428696
vn -1.2246467991473532e-16 1 -1.2246467991473532e-16
vn -1.2246467991473532e-16 1 -1.2246467991473532e-16
vn -1.2246467991473532e-16 1 -1.2246467991473532e-16
vn -1.2246467991473532e-16 1 -1.2246467991473532e-16
vn -1.2246467991473532e-16 1 -1.2246467991473532e-16
vn -1.2246467991473532e-16 1 -1.2246467991473532e-16
vn -1.2246467991473532e-16 1 -1.2246467991473532e-16
vn -1.2246467991473532e-16 1 -1.2246467991473532e-16
vn 1 1.2246467991473532e-16 -1.4997597826618576e-32
vn -0.040574788532926884 0.26120020118071496 -0.9644315120518732
vn -1 -1.2246467991473532e-16 1.4997597826618576e-32
vn -0.09748952686473009 0.6275888291916959 0.772417020543623
vn -1 -1.2246467991473532e-16 1.4997597826618576e-32
vn -0.0974895268647301 0.627588829191696 0.7724170205436229
vn 1 1.2246467991473532e-16 -1.4997597826618576e-32
vn -0.04057478853292686 0.2612002011807149 -0.9644315120518732
usemtl m_7ecca7f4-36ac-79de-f5df-1a8ab898bcc7
f 127/183/47 129/184/47 128/185/47 130/186/47
f 105/187/48 115/188/48 114/189/48 100/190/48
f 98/191/49 117/192/49 116/193/49 102/194/49
f 99/195/50 104/196/50 103/197/50 95/198/50
f 96/199/51 106/200/51 105/201/51 100/202/51
f 97/203/52 103/204/52 104/205/52 101/206/52
f 102/207/53 116/208/53 115/209/53 105/210/53
f 102/211/54 105/212/54 106/213/54 98/214/54
f 106/215/55 118/216/55 117/217/55 98/218/55
f 109/219/56 107/220/56 95/221/56 103/222/56
f 108/223/57 111/224/57 118/225/57 106/226/57
f 110/227/58 108/228/58 106/229/58 96/230/58
f 96/231/59 113/232/59 112/233/59 110/234/59
f 131/235/60 132/236/60 133/237/60 134/238/60
f 107/239/61 112/240/61 113/241/61 95/242/61
f 99/243/62 114/244/62 115/245/62 104/246/62
f 104/247/63 115/248/63 116/249/63 101/250/63
f 101/251/64 116/252/64 117/253/64 97/254/64
f 97/255/65 117/256/65 118/257/65 103/258/65
f 103/259/66 118/260/66 111/261/66 109/262/66
f 120/263/67 119/264/67 109/265/67 111/266/67
f 121/267/68 120/268/68 111/269/68 112/270/68
f 122/271/69 121/272/69 112/273/69 107/274/69
f 119/275/70 122/276/70 107/277/70 109/278/70
f 125/279/71 123/280/71 110/281/71 112/282/71
f 124/283/72 125/284/72 112/285/72 111/286/72
f 126/287/73 124/288/73 111/289/73 108/290/73
f 123/291/74 126/292/74 108/293/74 110/294/74
f 129/295/75 127/296/75 123/297/75 125/298/75
f 128/299/76 129/300/76 125/301/76 124/302/76
f 130/303/77 128/304/77 124/305/77 126/306/77
f 127/307/78 130/308/78 126/309/78 123/310/78
f 132/311/79 131/312/79 119/313/79 120/314/79
f 133/315/80 132/316/80 120/317/80 121/318/80
f 134/319/81 133/320/81 121/321/81 122/322/81
f 131/323/82 134/324/82 122/325/82 119/326/82
f 136/327/83 135/328/83 95/329/83 113/330/83
f 137/331/84 136/332/84 113/333/84 114/334/84
f 138/335/85 137/336/85 114/337/85 99/338/85
f 135/339/86 138/340/86 99/341/86 95/342/86
f 141/343/87 139/344/87 100/345/87 114/346/87
f 140/347/88 141/348/88 114/349/88 113/350/88
f 142/351/89 140/352/89 113/353/89 96/354/89
f 139/355/90 142/356/90 96/357/90 100/358/90
f 144/359/91 139/360/91 141/361/91
f 143/362/92 144/363/92 141/364/92 140/365/92
f 143/366/93 140/367/93 142/368/93
f 144/369/94 143/370/94 142/371/94 139/372/94
f 145/373/95 135/374/95 136/375/95
f 146/376/96 145/377/96 136/378/96 137/379/96
f 146/380/97 137/381/97 138/382/97
f 145/383/98 146/384/98 138/385/98 135/386/98
o Arm
v -0.3343749999999997 1.0218749999999999 1.4274789252561334e-16
v -0.15937499999999974 1.0218749999999999 1.4274789252561334e-16
v -0.3343749999999997 1.055018125 -0.056249999999999856
v -0.1593749999999997 1.055018125 -0.056249999999999856
v -0.3343749999999997 1.078125 -0.03736187499999985
v -0.1593749999999997 1.078125 -0.03736187499999985
v -0.3343749999999997 1.078125 0.037361875000000155
v -0.1593749999999997 1.078125 0.037361875000000155
v -0.3343749999999997 1.055018125 0.05625000000000015
v -0.1593749999999997 1.055018125 0.05625000000000015
v -0.3343749999999997 0.988731875 0.05625000000000014
v -0.15937499999999974 0.988731875 0.05625000000000014
v -0.33437499999999976 0.965625 0.03736187500000014
v -0.15937499999999974 0.965625 0.03736187500000014
v -0.33437499999999976 0.965625 -0.037361874999999864
v -0.15937499999999974 0.965625 -0.037361874999999864
v -0.3343749999999997 0.988731875 -0.05624999999999986
v -0.15937499999999974 0.988731875 -0.05624999999999986
v -0.31770812499999973 1.055018125 -0.056249999999999856
v -0.31770812499999973 0.988731875 -0.05624999999999986
v -0.29466937499999973 1.055018125 -0.056249999999999856
v -0.29466937499999973 0.988731875 -0.05624999999999986
v -0.3177081249999998 0.965625 -0.037361874999999864
v -0.2946693749999998 0.965625 -0.037361874999999864
v -0.3177081249999998 0.965625 0.03736187500000014
v -0.2946693749999998 0.965625 0.03736187500000014
v -0.31770812499999973 0.988731875 0.05625000000000014
v -0.29466937499999973 0.988731875 0.05625000000000014
v -0.31770812499999973 1.055018125 0.05625000000000015
v -0.29466937499999973 1.055018125 0.05625000000000015
v -0.31770812499999973 1.078125 0.037361875000000155
v -0.29466937499999973 1.078125 0.037361875000000155
v -0.31770812499999973 1.078125 -0.03736187499999985
v -0.29466937499999973 1.078125 -0.03736187499999985
vt 0.38984375 0.6210765625
vt 0.38695546875 0.6234375
vt 0.3828125 0.61640625
vt 0.47283125 0.7890625
vt 0.47283125 0.77215078125
vt 0.4765625 0.77215078125
vt 0.4765625 0.7890625
vt 0.05101796875 0.603125
vt 0.05390625 0.6054859375
vt 0.046875 0.61015625
vt 0.38984375 0.6117359375
vt 0.38984375 0.6210765625
vt 0.3828125 0.61640625
vt 0.2062671875 0.625
vt 0.2062671875 0.6080882812499999
vt 0.2156078125 0.6080882812499999
vt 0.2156078125 0.625
vt 0.05390625 0.6054859375
vt 0.05390625 0.6148265625
vt 0.046875 0.61015625
vt 0.38695546875 0.609375
vt 0.38984375 0.6117359375
vt 0.3828125 0.61640625
vt 0.203125 0.53125
vt 0.203125 0.5143382812499999
vt 0.20685625 0.5143382812499999
vt 0.20685625 0.53125
vt 0.05390625 0.6148265625
vt 0.05101796875 0.6171875
vt 0.046875 0.61015625
vt 0.37866953125 0.609375
vt 0.38695546875 0.609375
vt 0.3828125 0.61640625
vt 0.41773203125 0.8828125
vt 0.41773203125 0.86590078125
vt 0.42601796875 0.86590078125
vt 0.42601796875 0.8828125
vt 0.05101796875 0.6171875
vt 0.04273203125 0.6171875
vt 0.046875 0.61015625
vt 0.37578125 0.6117359375
vt 0.37866953125 0.609375
vt 0.3828125 0.61640625
vt 0.28533203125 0.53125
vt 0.28533203125 0.5143382812499999
vt 0.2890625 0.5143382812499999
vt 0.2890625 0.53125
vt 0.04273203125 0.6171875
vt 0.03984375 0.6148265625
vt 0.046875 0.61015625
vt 0.37578125 0.6210765625
vt 0.37578125 0.6117359375
vt 0.3828125 0.61640625
vt 0.3781421875 0.65625
vt 0.3781421875 0.6393382812499999
vt 0.3874828125 0.6393382812499999
vt 0.3874828125 0.65625
vt 0.03984375 0.6148265625
vt 0.03984375 0.6054859375
vt 0.046875 0.61015625
vt 0.37866953125 0.6234375
vt 0.37578125 0.6210765625
vt 0.3828125 0.61640625
vt 0.46875 0.734375
vt 0.46875 0.7174632812499999
vt 0.47248046875 0.7174632812499999
vt 0.47248046875 0.734375
vt 0.03984375 0.6054859375
vt 0.04273203125 0.603125
vt 0.046875 0.61015625
vt 0.38695546875 0.6234375
vt 0.37866953125 0.6234375
vt 0.3828125 0.61640625
vt 0.41773203125 0.703125
vt 0.41773203125 0.6862132812499999
vt 0.42601796875 0.6862132812499999
vt 0.42601796875 0.703125
vt 0.04273203125 0.603125
vt 0.05101796875 0.603125
vt 0.046875 0.61015625
vt 0.42601796875 0.68125
vt 0.42601796875 0.68333359375
vt 0.41773203125 0.68333359375
vt 0.41773203125 0.68125
vt 0.42601796875 0.68333359375
vt 0.42601796875 0.6862132812499999
vt 0.41773203125 0.6862132812499999
vt 0.41773203125 0.68333359375
vt 0.47248046875 0.7125
vt 0.47248046875 0.71458359375
vt 0.46875 0.71458359375
vt 0.46875 0.7125
vt 0.47248046875 0.71458359375
vt 0.47248046875 0.7174632812499999
vt 0.46875 0.7174632812499999
vt 0.46875 0.71458359375
vt 0.3874828125 0.634375
vt 0.3874828125 0.63645859375
vt 0.3781421875 0.63645859375
vt 0.3781421875 0.634375
vt 0.3874828125 0.63645859375
vt 0.3874828125 0.6393382812499999
vt 0.3781421875 0.6393382812499999
vt 0.3781421875 0.63645859375
vt 0.2890625 0.509375
vt 0.2890625 0.51145859375
vt 0.28533203125 0.51145859375
vt 0.28533203125 0.509375
vt 0.2890625 0.51145859375
vt 0.2890625 0.5143382812499999
vt 0.28533203125 0.5143382812499999
vt 0.28533203125 0.51145859375
vt 0.42601796875 0.8609375
vt 0.42601796875 0.86302109375
vt 0.41773203125 0.86302109375
vt 0.41773203125 0.8609375
vt 0.42601796875 0.86302109375
vt 0.42601796875 0.86590078125
vt 0.41773203125 0.86590078125
vt 0.41773203125 0.86302109375
vt 0.20685625 0.509375
vt 0.20685625 0.51145859375
vt 0.203125 0.51145859375
vt 0.203125 0.509375
vt 0.20685625 0.51145859375
vt 0.20685625 0.5143382812499999
vt 0.203125 0.5143382812499999
vt 0.203125 0.51145859375
vt 0.2156078125 0.603125
vt 0.2156078125 0.60520859375
vt 0.2062671875 0.60520859375
vt 0.2062671875 0.603125
vt 0.2156078125 0.60520859375
vt 0.2156078125 0.6080882812499999
vt 0.2062671875 0.6080882812499999
vt 0.2062671875 0.60520859375
vt 0.4765625 0.7671875
vt 0.4765625 0.76927109375
vt 0.47283125 0.76927109375
vt 0.47283125 0.7671875
vt 0.4765625 0.76927109375
vt 0.4765625 0.77215078125
vt 0.47283125 0.77215078125
vt 0.47283125 0.76927109375
vn -1 2.220446049250313e-16 2.719262146893782e-32
vn 1.4052902862729186e-16 0.6328864809606095 -0.7742446010256038
vn 1 -2.220446049250313e-16 -2.719262146893782e-32
vn -1 2.220446049250313e-16 2.719262146893782e-32
vn 2.220446049250313e-16 1 1.2246467991473532e-16
vn 1 -2.220446049250313e-16 -2.719262146893782e-32
vn -1 2.220446049250313e-16 2.719262146893782e-32
vn 1.4052902862729186e-16 0.6328864809606093 0.774244601025604
vn 1 -2.220446049250313e-16 -2.719262146893782e-32
vn -1 2.220446049250313e-16 2.719262146893782e-32
vn -2.5407181807812022e-33 -1.2246467991473532e-16 1
vn 1 -2.220446049250313e-16 -2.719262146893782e-32
vn -1 2.220446049250313e-16 2.719262146893782e-32
vn -1.4052902862729186e-16 -0.6328864809606095 0.7742446010256038
vn 1 -2.220446049250313e-16 -2.719262146893782e-32
vn -1 2.220446049250313e-16 2.719262146893782e-32
vn -2.220446049250313e-16 -1 -1.2246467991473532e-16
vn 1 -2.220446049250313e-16 -2.719262146893782e-32
vn -1 2.220446049250313e-16 2.719262146893782e-32
vn -1.4052902862729186e-16 -0.6328864809606093 -0.774244601025604
vn 1 -2.220446049250313e-16 -2.719262146893782e-32
vn -1 2.220446049250313e-16 2.719262146893782e-32
vn 2.5407181807812022e-33 1.2246467991473532e-16 -1
vn 1 -2.220446049250313e-16 -2.719262146893782e-32
vn 2.5407181807812022e-33 1.2246467991473532e-16 -1
vn 2.5407181807812022e-33 1.2246467991473532e-16 -1
vn -1.4052902862729184e-16 -0.6328864809606092 -0.7742446010256039
vn -1.4052902862729186e-16 -0.6328864809606093 -0.7742446010256039
vn -2.220446049250313e-16 -1 -1.2246467991473532e-16
vn -2.220446049250313e-16 -1 -1.2246467991473532e-16
vn -1.4052902862729184e-16 -0.6328864809606094 0.7742446010256037
vn -1.4052902862729186e-16 -0.6328864809606095 0.7742446010256037
vn -2.5407181807812022e-33 -1.2246467991473532e-16 1
vn -2.5407181807812022e-33 -1.2246467991473532e-16 1
vn 1.4052902862729184e-16 0.6328864809606092 0.7742446010256039
vn 1.4052902862729186e-16 0.6328864809606093 0.7742446010256039
vn 2.220446049250313e-16 1 1.2246467991473532e-16
vn 2.220446049250313e-16 1 1.2246467991473532e-16
vn 1.4052902862729184e-16 0.6328864809606094 -0.7742446010256037
vn 1.4052902862729186e-16 0.6328864809606095 -0.7742446010256037
usemtl m_7ecca7f4-36ac-79de-f5df-1a8ab898bcc7
f 151/387/99 149/388/99 147/389/99
f 150/390/100 167/391/100 180/392/100 152/393/100
f 150/394/101 152/395/101 148/396/101
f 153/397/102 151/398/102 147/399/102
f 152/400/103 180/401/103 178/402/103 154/403/103
f 152/404/104 154/405/104 148/406/104
f 155/407/105 153/408/105 147/409/105
f 154/410/106 178/411/106 176/412/106 156/413/106
f 154/414/107 156/415/107 148/416/107
f 157/417/108 155/418/108 147/419/108
f 156/420/109 176/421/109 174/422/109 158/423/109
f 156/424/110 158/425/110 148/426/110
f 159/427/111 157/428/111 147/429/111
f 158/430/112 174/431/112 172/432/112 160/433/112
f 158/434/113 160/435/113 148/436/113
f 161/437/114 159/438/114 147/439/114
f 160/440/115 172/441/115 170/442/115 162/443/115
f 160/444/116 162/445/116 148/446/116
f 163/447/117 161/448/117 147/449/117
f 162/450/118 170/451/118 168/452/118 164/453/118
f 162/454/119 164/455/119 148/456/119
f 149/457/120 163/458/120 147/459/120
f 164/460/121 168/461/121 167/462/121 150/463/121
f 164/464/122 150/465/122 148/466/122
f 149/467/123 165/468/123 166/469/123 163/470/123
f 165/471/124 167/472/124 168/473/124 166/474/124
f 163/475/125 166/476/125 169/477/125 161/478/125
f 166/479/126 168/480/126 170/481/126 169/482/126
f 161/483/127 169/484/127 171/485/127 159/486/127
f 169/487/128 170/488/128 172/489/128 171/490/128
f 159/491/129 171/492/129 173/493/129 157/494/129
f 171/495/130 172/496/130 174/497/130 173/498/130
f 157/499/131 173/500/131 175/501/131 155/502/131
f 173/503/132 174/504/132 176/505/132 175/506/132
f 155/507/133 175/508/133 177/509/133 153/510/133
f 175/511/134 176/512/134 178/513/134 177/514/134
f 153/515/135 177/516/135 179/517/135 151/518/135
f 177/519/136 178/520/136 180/521/136 179/522/136
f 151/523/137 179/524/137 165/525/137 149/526/137
f 179/527/138 180/528/138 167/529/138 165/530/138
o cylinder
v -0.16875 1.0187499999999998 0.06249999999999999
v -0.16875 1.01875 -0.0625
v -0.2375 1.0371712499999999 0.0625
v -0.2375 1.0371712499999999 -0.0625
v -0.21907875 1.0690787499999999 0.0625
v -0.21907875 1.0690787499999999 -0.06249999999999999
v -0.18717124999999998 1.0875 0.06250000000000001
v -0.18717124999999998 1.0875 -0.06249999999999999
v -0.15032874999999998 1.0875 0.06250000000000001
v -0.15032874999999998 1.0875 -0.06249999999999999
v -0.11842125 1.0690787499999999 0.0625
v -0.11842125 1.0690787499999999 -0.06249999999999999
v -0.1 1.0371712499999999 0.0625
v -0.1 1.0371712499999999 -0.0625
v -0.1 1.00032875 0.06249999999999999
v -0.1 1.00032875 -0.06250000000000001
v -0.11842125000000003 0.9684212499999999 0.062499999999999986
v -0.11842125000000003 0.9684212499999999 -0.06250000000000001
v -0.15032875 0.95 0.06249999999999998
v -0.15032875 0.95 -0.06250000000000003
v -0.18717125 0.95 0.06249999999999998
v -0.18717125 0.95 -0.06250000000000003
v -0.21907875000000002 0.9684212499999999 0.062499999999999986
v -0.21907875000000002 0.96842125 -0.06250000000000001
v -0.23750000000000002 1.00032875 0.06249999999999999
v -0.23750000000000002 1.00032875 -0.06250000000000001
vt 0.25238515625 0.66332265625
vt 0.24839609375 0.665625
vt 0.24609375 0.65703125
vt 0.15625 0.53125
vt 0.1640625 0.53125
vt 0.1640625 0.546875
vt 0.15625 0.546875
vt 0.34214609375 0.959375
vt 0.34613515625 0.96167734375
vt 0.33984375 0.96796875
vt 0.2546875 0.65933359375
vt 0.25238515625 0.66332265625
vt 0.24609375 0.65703125
vt 0.453125 0.9375
vt 0.4609375 0.9375
vt 0.4609375 0.953125
vt 0.453125 0.953125
vt 0.34613515625 0.96167734375
vt 0.3484375 0.96566640625
vt 0.33984375 0.96796875
vt 0.2546875 0.65472890625
vt 0.2546875 0.65933359375
vt 0.24609375 0.65703125
vt 0.2890625 0.5390625
vt 0.296875 0.5390625
vt 0.296875 0.5546875
vt 0.2890625 0.5546875
vt 0.3484375 0.96566640625
vt 0.3484375 0.97027109375
vt 0.33984375 0.96796875
vt 0.25238515625 0.65073984375
vt 0.2546875 0.65472890625
vt 0.24609375 0.65703125
vt 0.109375 0.53125
vt 0.1171875 0.53125
vt 0.1171875 0.546875
vt 0.109375 0.546875
vt 0.3484375 0.97027109375
vt 0.34613515625 0.97426015625
vt 0.33984375 0.96796875
vt 0.24839609375 0.6484375
vt 0.25238515625 0.65073984375
vt 0.24609375 0.65703125
vt 0.2265625 0.53125
vt 0.234375 0.53125
vt 0.234375 0.546875
vt 0.2265625 0.546875
vt 0.34613515625 0.97426015625
vt 0.34214609375 0.9765625
vt 0.33984375 0.96796875
vt 0.24379140625 0.6484375
vt 0.24839609375 0.6484375
vt 0.24609375 0.65703125
vt 0.421875 0.5390625
vt 0.4296875 0.5390625
vt 0.4296875 0.5546875
vt 0.421875 0.5546875
vt 0.34214609375 0.9765625
vt 0.33754140625 0.9765625
vt 0.33984375 0.96796875
vt 0.23980234375 0.65073984375
vt 0.24379140625 0.6484375
vt 0.24609375 0.65703125
vt 0.265625 0.53125
vt 0.2734375 0.53125
vt 0.2734375 0.546875
vt 0.265625 0.546875
vt 0.33754140625 0.9765625
vt 0.33355234375 0.97426015625
vt 0.33984375 0.96796875
vt 0.2375 0.65472890625
vt 0.23980234375 0.65073984375
vt 0.24609375 0.65703125
vt 0.4375 0.5390625
vt 0.4453125 0.5390625
vt 0.4453125 0.5546875
vt 0.4375 0.5546875
vt 0.33355234375 0.97426015625
vt 0.33125 0.97027109375
vt 0.33984375 0.96796875
vt 0.2375 0.65933359375
vt 0.2375 0.65472890625
vt 0.24609375 0.65703125
vt 0.3046875 0.5390625
vt 0.3125 0.5390625
vt 0.3125 0.5546875
vt 0.3046875 0.5546875
vt 0.33125 0.97027109375
vt 0.33125 0.96566640625
vt 0.33984375 0.96796875
vt 0.23980234375 0.66332265625
vt 0.2375 0.65933359375
vt 0.24609375 0.65703125
vt 0 0.53125
vt 0.0078125 0.53125
vt 0.0078125 0.546875
vt 0 0.546875
vt 0.33125 0.96566640625
vt 0.33355234375 0.96167734375
vt 0.33984375 0.96796875
vt 0.24379140625 0.665625
vt 0.23980234375 0.66332265625
vt 0.24609375 0.65703125
vt 0.453125 0.8671875
vt 0.4609375 0.8671875
vt 0.4609375 0.8828125
vt 0.453125 0.8828125
vt 0.33355234375 0.96167734375
vt 0.33754140625 0.959375
vt 0.33984375 0.96796875
vt 0.24839609375 0.665625
vt 0.24379140625 0.665625
vt 0.24609375 0.65703125
vt 0.3203125 0.5390625
vt 0.328125 0.5390625
vt 0.328125 0.5546875
vt 0.3203125 0.5546875
vt 0.33754140625 0.959375
vt 0.34214609375 0.959375
vt 0.33984375 0.96796875
vn -4.930380657631324e-32 -2.220446049250313e-16 1
vn -0.866031911409066 0.49998872829410845 1.1101979964103413e-16
vn 4.930380657631324e-32 2.220446049250313e-16 -1
vn -4.930380657631324e-32 -2.220446049250313e-16 1
vn -0.4999887282941079 0.8660319114090662 1.9229771362129582e-16
vn 4.930380657631324e-32 2.220446049250313e-16 -1
vn -4.930380657631324e-32 -2.220446049250313e-16 1
vn 2.220446049250313e-16 1 2.220446049250313e-16
vn 4.930380657631324e-32 2.220446049250313e-16 -1
vn -4.930380657631324e-32 -2.220446049250313e-16 1
vn 0.49998872829410845 0.866031911409066 1.9229771362129577e-16
vn 4.930380657631324e-32 2.220446049250313e-16 -1
vn -4.930380657631324e-32 -2.220446049250313e-16 1
vn 0.8660319114090662 0.4999887282941081 1.1101979964103406e-16
vn 4.930380657631324e-32 2.220446049250313e-16 -1
vn -4.930380657631324e-32 -2.220446049250313e-16 1
vn 1 -2.220446049250313e-16 -4.930380657631324e-32
vn 4.930380657631324e-32 2.220446049250313e-16 -1
vn -4.930380657631324e-32 -2.220446049250313e-16 1
vn 0.866031911409066 -0.49998872829410845 -1.1101979964103413e-16
vn 4.930380657631324e-32 2.220446049250313e-16 -1
vn -4.930380657631324e-32 -2.220446049250313e-16 1
vn 0.4999887282941082 -0.8660319114090662 -1.9229771362129582e-16
vn 4.930380657631324e-32 2.220446049250313e-16 -1
vn -4.930380657631324e-32 -2.220446049250313e-16 1
vn -2.220446049250313e-16 -1 -2.220446049250313e-16
vn 4.930380657631324e-32 2.220446049250313e-16 -1
vn -4.930380657631324e-32 -2.220446049250313e-16 1
vn -0.49998872829410834 -0.866031911409066 -1.9229771362129577e-16
vn 4.930380657631324e-32 2.220446049250313e-16 -1
vn -4.930380657631324e-32 -2.220446049250313e-16 1
vn -0.8660319114090662 -0.4999887282941081 -1.1101979964103406e-16
vn 4.930380657631324e-32 2.220446049250313e-16 -1
vn -4.930380657631324e-32 -2.220446049250313e-16 1
vn -1 2.220446049250313e-16 4.930380657631324e-32
vn 4.930380657631324e-32 2.220446049250313e-16 -1
usemtl m_7ecca7f4-36ac-79de-f5df-1a8ab898bcc7
f 185/531/139 183/532/139 181/533/139
f 183/534/140 185/535/140 186/536/140 184/537/140
f 184/538/141 186/539/141 182/540/141
f 187/541/142 185/542/142 181/543/142
f 185/544/143 187/545/143 188/546/143 186/547/143
f 186/548/144 188/549/144 182/550/144
f 189/551/145 187/552/145 181/553/145
f 187/554/146 189/555/146 190/556/146 188/557/146
f 188/558/147 190/559/147 182/560/147
f 191/561/148 189/562/148 181/563/148
f 189/564/149 191/565/149 192/566/149 190/567/149
f 190/568/150 192/569/150 182/570/150
f 193/571/151 191/572/151 181/573/151
f 191/574/152 193/575/152 194/576/152 192/577/152
f 192/578/153 194/579/153 182/580/153
f 195/581/154 193/582/154 181/583/154
f 193/584/155 195/585/155 196/586/155 194/587/155
f 194/588/156 196/589/156 182/590/156
f 197/591/157 195/592/157 181/593/157
f 195/594/158 197/595/158 198/596/158 196/597/158
f 196/598/159 198/599/159 182/600/159
f 199/601/160 197/602/160 181/603/160
f 197/604/161 199/605/161 200/606/161 198/607/161
f 198/608/162 200/609/162 182/610/162
f 201/611/163 199/612/163 181/613/163
f 199/614/164 201/615/164 202/616/164 200/617/164
f 200/618/165 202/619/165 182/620/165
f 203/621/166 201/622/166 181/623/166
f 201/624/167 203/625/167 204/626/167 202/627/167
f 202/628/168 204/629/168 182/630/168
f 205/631/169 203/632/169 181/633/169
f 203/634/170 205/635/170 206/636/170 204/637/170
f 204/638/171 206/639/171 182/640/171
f 183/641/172 205/642/172 181/643/172
f 205/644/173 183/645/173 184/646/173 206/647/173
f 206/648/174 184/649/174 182/650/174