# Made in Blockbench 5.1.5
mtllib Blackwing Right Arm.mtl

o cuboid
v 0.825 1.06875 -0.1171875
v 0.825 0.9437500000000001 -0.1171875
v 0.85 1.01875 -0.1171875
v 0.725 1.01875 -0.1171875
v 0.725 1.06875 -0.1171875
v 0.725 0.9437500000000001 -0.1171875
v 0.85 1.01875 -0.0421875
v 0.825 0.9437500000000001 -0.0421875
v 0.825 1.06875 -0.0421875
v 0.625 0.90625 -0.1484375
v 0.725 0.90625 -0.1484375
v 0.625 0.90625 -0.0421875
v 0.68125 1.06875 -0.1171875
v 0.68125 1.01875 -0.1171875
v 0.68125 0.90625 -0.1484375
v 0.68125 0.90625 -0.0421875
v 0.725 0.91875 -0.1171875
v 0.8171875 0.91875 -0.0421875
v 0.8171875 0.91875 -0.1171875
v 0.825 1.06875 0.109375
v 0.825 0.9437500000000001 0.109375
v 0.625 1.06875 0.084375
v 0.625 1.06875 -0.1171875
v 0.625 0.9437500000000001 0.084375
v 0.625 0.9437500000000001 -0.1171875
v 0.625 1.01875 -0.1171875
v 0.85 1.01875 0.109375
v 0.625 1.01875 0.084375
v 0.725 1.06875 0.109375
v 0.725 1.01875 0.109375
v 0.725 0.9437500000000001 0.109375
v 0.725 0.9437500000000001 -0.0421875
v 0.625 0.9437500000000001 -0.0421875
v 0.625 1.01875 -0.0421875
v 0.625 1.06875 -0.0421875
v 0.725 1.06875 -0.0421875
v 0.725 0.90625 -0.0421875
v 0.68125 0.9437500000000001 -0.0421875
v 0.68125 0.9437500000000001 0.109375
v 0.68125 1.01875 0.109375
v 0.68125 1.06875 0.109375
v 0.68125 1.06875 -0.0421875
v 0.725 0.91875 -0.0421875
v 0.8171875 0.91875 0.109375
v 0.725 0.91875 0.109375
v 0.68125 0.91875 -0.0421875
v 0.68125 0.91875 0.109375
v -0.825 1.06875 -0.1171875
v -0.825 0.9437500000000001 -0.1171875
v -0.85 1.01875 -0.1171875
v -0.725 1.01875 -0.1171875
v -0.725 1.06875 -0.1171875
v -0.725 0.9437500000000001 -0.1171875
v -0.85 1.01875 -0.0421875
v -0.825 0.9437500000000001 -0.0421875
v -0.825 1.06875 -0.0421875
v -0.625 0.90625 -0.1484375
v -0.725 0.90625 -0.1484375
v -0.625 0.90625 -0.0421875
v -0.68125 1.06875 -0.1171875
v -0.68125 1.01875 -0.1171875
v -0.68125 0.90625 -0.1484375
v -0.68125 0.90625 -0.0421875
v -0.725 0.91875 -0.1171875
v -0.8171875 0.91875 -0.0421875
v -0.8171875 0.91875 -0.1171875
v -0.825 1.06875 0.109375
v -0.825 0.9437500000000001 0.109375
v -0.625 1.06875 0.084375
v -0.625 1.06875 -0.1171875
v -0.625 0.9437500000000001 0.084375
v -0.625 0.9437500000000001 -0.1171875
v -0.625 1.01875 -0.1171875
v -0.85 1.01875 0.109375
v -0.625 1.01875 0.084375
v -0.725 1.06875 0.109375
v -0.725 1.01875 0.109375
v -0.725 0.9437500000000001 0.109375
v -0.725 0.9437500000000001 -0.0421875
v -0.625 0.9437500000000001 -0.0421875
v -0.625 1.01875 -0.0421875
v -0.625 1.06875 -0.0421875
v -0.725 1.06875 -0.0421875
v -0.725 0.90625 -0.0421875
v -0.68125 0.9437500000000001 -0.0421875
v -0.68125 0.9437500000000001 0.109375
v -0.68125 1.01875 0.109375
v -0.68125 1.06875 0.109375
v -0.68125 1.06875 -0.0421875
v -0.725 0.91875 -0.0421875
v -0.8171875 0.91875 0.109375
v -0.725 0.91875 0.109375
v -0.68125 0.91875 -0.0421875
v -0.68125 0.91875 0.109375
vt 0.33115234375 0.91159375
vt 0.33115234375 0.90171171875
vt 0.32177734375 0.90171171875
vt 0.32177734375 0.91159375
vt 0.2875 0.921875
vt 0.2875 0.93125
vt 0.303125 0.93125
vt 0.3 0.921875
vt 0.2875 0.93125
vt 0.2875 0.9375
vt 0.3 0.9375
vt 0.303125 0.93125
vt 0.38583984375 0.6953125
vt 0.38583984375 0.6883250000000001
vt 0.37646484375 0.6883250000000001
vt 0.37646484375 0.6953125
vt 0.14765625 0.5625
vt 0.14765625 0.57578125
vt 0.1546875 0.57578125
vt 0.1546875 0.5625
vt 0.247265625 0.6078125
vt 0.243359375 0.603125
vt 0.247265625 0.6171875
vt 0.28203125 0.93125
vt 0.28203125 0.9375
vt 0.2875 0.9375
vt 0.2875 0.93125
vt 0.25078125 0.5791546875
vt 0.25078125 0.59375
vt 0.25625 0.59375
vt 0.25625 0.5791546875
vt 0.33115234375 0.90171171875
vt 0.33115234375 0.8984375
vt 0.32177734375 0.8984375
vt 0.32177734375 0.90171171875
vt 0.3 0.921875
vt 0.2990234375 0.91875
vt 0.2875 0.91875
vt 0.2875 0.921875
vt 0.2265625 0.81875
vt 0.2140625 0.81875
vt 0.2140625 0.828125
vt 0.2265625 0.828125
vt 0.00322265625 0.68125
vt 0.01474609375 0.68125
vt 0.01474609375 0.671875
vt 0.00322265625 0.671875
vt 0.087109375 0.6890625
vt 0.087109375 0.6796875
vt 0.074609375 0.6796875
vt 0.071484375 0.6890625
vt 0.25908203125 0.8828125
vt 0.25908203125 0.8921875
vt 0.26845703125 0.8921875
vt 0.26845703125 0.8828125
vt 0.087109375 0.6953125
vt 0.087109375 0.6890625
vt 0.071484375 0.6890625
vt 0.074609375 0.6953125
vt 0.25908203125 0.8921875
vt 0.25908203125 0.8984375
vt 0.26845703125 0.8984375
vt 0.26845703125 0.8921875
vt 0.28203125 0.9375
vt 0.28203125 0.93125
vt 0.275 0.93125
vt 0.275 0.9375
vt 0.23203125 0.81875
vt 0.23203125 0.828125
vt 0.2390625 0.828125
vt 0.2390625 0.81875
vt 0.45324296875 0.6265625
vt 0.45324296875 0.6328125
vt 0.4609375 0.6328125
vt 0.4609375 0.6265625
vt 0.45324296875 0.6171875
vt 0.45324296875 0.6265625
vt 0.4609375 0.6265625
vt 0.4609375 0.6171875
vt 0.25078125 0.59375
vt 0.25078125 0.5791546875
vt 0.24375 0.5791546875
vt 0.24375 0.59375
vt 0.33115234375 0.90171171875
vt 0.33115234375 0.91159375
vt 0.35009765625 0.91159375
vt 0.35009765625 0.90171171875
vt 0.01474609375 0.68125
vt 0.00322265625 0.68125
vt 0.00322265625 0.7001953125
vt 0.01474609375 0.7001953125
vt 0.453125 0.640625
vt 0.453125 0.65625
vt 0.4609375 0.653125
vt 0.4609375 0.640625
vt 0.25908203125 0.8921875
vt 0.25908203125 0.8828125
vt 0.24326171875 0.8828125
vt 0.24326171875 0.8921875
vt 0.25908203125 0.8984375
vt 0.25908203125 0.8921875
vt 0.24326171875 0.8921875
vt 0.24326171875 0.8984375
vt 0.23203125 0.7998046875
vt 0.23203125 0.81875
vt 0.2390625 0.81875
vt 0.2390625 0.8029296875
vt 0.2140625 0.81875
vt 0.2265625 0.81875
vt 0.2265625 0.7998046875
vt 0.2140625 0.7998046875
vt 0.38583984375 0.6883250000000001
vt 0.38583984375 0.6953125
vt 0.40478515625 0.6953125
vt 0.40478515625 0.6883250000000001
vt 0.26845703125 0.8921875
vt 0.27236328125 0.878125
vt 0.26845703125 0.8828125
vt 0.26845703125 0.8828125
vt 0.27236328125 0.878125
vt 0.25908203125 0.878125
vt 0.25908203125 0.8828125
vt 0.18671875 0.49531250000000004
vt 0.18671875 0.5
vt 0.19375 0.5
vt 0.19375 0.49531250000000004
vt 0.256640625 0.6078125
vt 0.256640625 0.603125
vt 0.243359375 0.603125
vt 0.247265625 0.6078125
vt 0.02021484375 0.7001953125
vt 0.02021484375 0.68125
vt 0.01474609375 0.68125
vt 0.01474609375 0.7001953125
vt 0.092578125 0.6890625
vt 0.092578125 0.6796875
vt 0.087109375 0.6796875
vt 0.087109375 0.6890625
vt 0.092578125 0.6953125
vt 0.092578125 0.6890625
vt 0.087109375 0.6890625
vt 0.087109375 0.6953125
vt 0.23203125 0.81875
vt 0.23203125 0.7998046875
vt 0.2265625 0.7998046875
vt 0.2265625 0.81875
vt 0.23203125 0.828125
vt 0.23203125 0.81875
vt 0.2265625 0.81875
vt 0.2265625 0.828125
vt 0.14765625 0.57578125
vt 0.14765625 0.5625
vt 0.1421875 0.5625
vt 0.1421875 0.57578125
vt 0.18671875 0.5
vt 0.18671875 0.49531250000000004
vt 0.18125 0.49531250000000004
vt 0.18125 0.5
vt 0.171875 0.5
vt 0.171875 0.4921875
vt 0.1640625 0.4921875
vt 0.1640625 0.5
vt 0.35009765625 0.90171171875
vt 0.35009765625 0.8984375
vt 0.33115234375 0.8984375
vt 0.33115234375 0.90171171875
vt 0.087109375 0.6796875
vt 0.087109375 0.6765625
vt 0.0755859375 0.6765625
vt 0.074609375 0.6796875
vt 0.5078125 0.828125
vt 0.5078125 0.8203125
vt 0.5 0.8203125
vt 0.5 0.828125
vt 0.4609375 0.7734375
vt 0.4609375 0.765625
vt 0.4453125 0.765625
vt 0.4453125 0.7734375
vt 0.092578125 0.6796875
vt 0.092578125 0.6765625
vt 0.087109375 0.6765625
vt 0.087109375 0.6796875
vn 0.9486832980505137 -0.3162277660168384 0
vn 0 0 -1
vn 0 0 -1
vn 0.8944271909999161 0.44721359549995804 0
vn 0 -1 0
vn 1 0 0
vn 0 0 -1
vn 0 0.26764386378609456 -0.9635179096299407
vn 0.9544799780350304 -0.2982749931359454 0
vn 0 0 -1
vn 0 1 0
vn 0 -1 0
vn 0 0 1
vn -1 0 0
vn 0 0 1
vn -1 0 0
vn 0 0 -1
vn 0 1 0
vn -0.4061384660534474 0 0.9138115486202573
vn -0.40613846605344744 0 0.9138115486202574
vn 0 0.26764386378609456 -0.9635179096299407
vn 0.9486832980505137 -0.3162277660168384 0
vn 0 -1 0
vn 0 -1 0
vn -1 0 0
vn -1 0 0
vn 0 1 0
vn 0 1 0
vn 0.894427190999916 0.447213595499958 0
vn -1 0 0
vn -1 0 0
vn 0 0 1
vn 1 0 0
vn 0 -1 0
vn 0 0 1
vn 0 0 1
vn 0 1 0
vn 0 1 0
vn 0 -1 0
vn 0 0 1
vn -1 0 0
vn 0.9544799780350303 -0.29827499313594535 0
vn 0 0 1
vn 0 0 -1
vn -1 0 0
vn 0 0 1
usemtl m_7ecca7f4-36ac-79de-f5df-1a8ab898bcc7
f 7/1/1 8/2/1 2/3/1 3/4/1
f 6/5/2 4/6/2 3/7/2 2/8/2
f 4/9/3 5/10/3 1/11/3 3/12/3
f 9/13/4 7/14/4 3/15/4 1/16/4
f 15/17/5 16/18/5 12/19/5 10/20/5
f 6/21/6 11/22/6 4/23/6
f 14/24/7 13/25/7 5/26/7 4/27/7
f 15/28/8 14/29/8 4/30/8 11/31/8
f 8/32/9 18/33/9 19/34/9 2/35/9
f 2/36/10 19/37/10 17/38/10 6/39/10
f 36/40/11 9/41/11 1/42/11 5/43/11
f 18/44/12 43/45/12 17/46/12 19/47/12
f 30/48/13 31/49/13 21/50/13 27/51/13
f 33/52/14 34/53/14 26/54/14 25/55/14
f 29/56/15 30/57/15 27/58/15 20/59/15
f 34/60/16 35/61/16 23/62/16 26/63/16
f 13/64/17 14/65/17 26/66/17 23/67/17
f 42/68/18 13/69/18 23/70/18 35/71/18
f 40/72/19 41/73/19 22/74/19 28/75/19
f 39/76/20 40/77/20 28/78/20 24/79/20
f 14/80/21 15/81/21 10/82/21 26/83/21
f 8/84/22 7/85/22 27/86/22 21/87/22
f 43/88/23 18/89/23 44/90/23 45/91/23
f 38/92/24 39/93/24 24/94/24 33/95/24
f 34/96/25 33/97/25 24/98/25 28/99/25
f 35/100/26 34/101/26 28/102/26 22/103/26
f 41/104/27 42/105/27 35/106/27 22/107/27
f 9/108/28 36/109/28 29/110/28 20/111/28
f 7/112/29 9/113/29 20/114/29 27/115/29
f 26/116/30 10/117/30 25/118/30
f 25/119/31 10/120/31 12/121/31 33/122/31
f 16/123/32 38/124/32 33/125/32 12/126/32
f 32/127/33 37/128/33 11/129/33 6/130/33
f 47/131/34 46/132/34 43/133/34 45/134/34
f 40/135/35 39/136/35 31/137/35 30/138/35
f 41/139/36 40/140/36 30/141/36 29/142/36
f 42/143/37 41/144/37 29/145/37 36/146/37
f 13/147/38 42/148/38 36/149/38 5/150/38
f 16/151/39 15/152/39 11/153/39 37/154/39
f 38/155/40 16/156/40 37/157/40 32/158/40
f 6/159/41 17/160/41 43/161/41 32/162/41
f 21/163/42 44/164/42 18/165/42 8/166/42
f 31/167/43 45/168/43 44/169/43 21/170/43
f 32/171/44 43/172/44 46/173/44 38/174/44
f 38/175/45 46/176/45 47/177/45 39/178/45
f 39/179/46 47/180/46 45/181/46 31/182/46
o Forearm
v 0.6093750000000002 1.134375 -0.06562500000000017
v 0.6093750000000002 1.134375 0.06562499999999984
v 0.6187500000000001 0.9624999999999999 -0.10312500000000015
v 0.6187500000000001 0.9624999999999999 0.10312499999999984
v 0.37500000000000017 1.134375 -0.06562500000000017
v 0.37500000000000017 1.134375 0.06562499999999984
v 0.3375000000000002 0.9624999999999999 -0.10312500000000015
v 0.3375000000000002 0.9624999999999999 0.10312499999999984
v 0.6187500000000001 1.0734375 -0.10312500000000016
v 0.3375000000000002 1.0734375 -0.10312500000000016
v 0.3375000000000002 1.0734375 0.10312499999999983
v 0.6187500000000001 1.0734375 0.10312499999999983
v 0.6666668750000002 1.134375 -0.06562500000000017
v 0.6875000000000001 1.0734375 0.10312499999999983
v 0.6875000000000001 1.0734375 -0.10312500000000016
v 0.6666668750000002 1.134375 0.06562499999999984
v 0.7875000000000001 1.0734375 -1.6437056257305882e-16
v 0.7500000000000002 1.134375 -1.7183325400536298e-16
v 0.6093750000000002 1.134375 -1.7183325400536298e-16
v 0.37500000000000017 1.134375 -1.7183325400536298e-16
v 0.3375000000000002 1.0734375 -1.6437056257305882e-16
v 0.3375000000000002 0.9624999999999999 -1.5078463714501785e-16
v 0.6187500000000001 0.9624999999999999 -1.5078463714501785e-16
v 0.6187500000000001 1.0734375 -1.6437056257305882e-16
v 0.7052081250000001 1.088671875 -0.07265625000000017
v 0.7552081250000001 1.088671875 -0.018956875000000168
v 0.7364581250000002 1.119140625 -0.01895687500000017
v 0.6947918750000002 1.119140625 -0.05390625000000017
v 0.6947918750000002 1.119140625 0.053906249999999836
v 0.7552081250000001 1.088671875 0.017433749999999835
v 0.7364581250000002 1.119140625 0.01743374999999983
v 0.7052081250000001 1.088671875 0.07265624999999984
v 0.6319312500000003 1.11427125 0.04658687499999983
v 0.6319312500000002 1.0838025 0.017433749999999835
v 0.6319312500000003 1.11427125 0.01743374999999983
v 0.6319312500000002 1.0838025 0.06533687499999984
v 0.6294787500000001 1.08229375 -0.06838187500000016
v 0.6294787500000001 1.08229375 -0.018956875000000168
v 0.6294787500000002 1.1127624999999999 -0.01895687500000017
v 0.6294787500000002 1.1127624999999999 -0.049631875000000165
v 0.5632812500000002 1.134375 -0.042968750000000173
v 0.5632812500000002 1.134375 -0.022656250000000173
v 0.40234375000000017 1.134375 -0.022656250000000173
v 0.40234375000000017 1.134375 -0.042968750000000173
v 0.40234375000000017 1.134375 0.042968749999999827
v 0.5632812500000002 1.134375 0.022656249999999826
v 0.40234375000000017 1.134375 0.022656249999999826
v 0.5632812500000002 1.134375 0.042968749999999827
v 0.5632812500000002 1.1468749999999999 0.03281249999999983
v 0.40234375000000017 1.171875 0.03281249999999983
v 0.5632812500000002 1.1468749999999999 -0.032812500000000175
v 0.40234375000000017 1.171875 -0.032812500000000175
vt 0.469662109375 0.4921875
vt 0.469662109375 0.5
vt 0.473306640625 0.5
vt 0.475650390625 0.4921875
vt 0.375 0.9140625
vt 0.375 0.90511875
vt 0.362109375 0.90511875
vt 0.366796875 0.9140625
vt 0.189453125 0.903515625
vt 0.224609375 0.903515625
vt 0.224609375 0.890625
vt 0.189453125 0.890625
vt 0.19296875 0.67855625
vt 0.1578125 0.67855625
vt 0.1625 0.6875
vt 0.191796875 0.6875
vt 0.3578125 0.92855625
vt 0.32265625 0.92855625
vt 0.323828125 0.9375
vt 0.353125 0.9375
vt 0.234375 0.9609375
vt 0.2734375 0.9609375
vt 0.2734375 0.9453125
vt 0.234375 0.9453125
vt 0.3359375 0.8125
vt 0.3359375 0.7986328125
vt 0.323046875 0.7986328125
vt 0.323046875 0.8125
vt 0.046875 0.765625
vt 0.0859375 0.765625
vt 0.0859375 0.75
vt 0.046875 0.75
vt 0.3046875 0.6658203125
vt 0.3046875 0.6796875
vt 0.317578125 0.6796875
vt 0.317578125 0.6658203125
vt 0.191796875 0.6875
vt 0.19895859375 0.6875
vt 0.2015625 0.67855625
vt 0.19296875 0.67855625
vt 0.071484375 0.716015625
vt 0.092578125 0.716015625
vt 0.080078125 0.703125
vt 0.071484375 0.703125
vt 0.32265625 0.92855625
vt 0.3140625 0.92855625
vt 0.31666640625 0.9375
vt 0.323828125 0.9375
vt 0.234375 0.874609375
vt 0.216796875 0.874609375
vt 0.216796875 0.8828125
vt 0.22395859375 0.8828125
vt 0.5078125 0.84375
vt 0.5078125 0.8359375
vt 0.5 0.8359375
vt 0.50234375 0.84375
vt 0.216796875 0.874609375
vt 0.234375 0.874609375
vt 0.22395859375 0.86640625
vt 0.216796875 0.86640625
vt 0.375 0.90511875
vt 0.375 0.9140625
vt 0.383203125 0.9140625
vt 0.387890625 0.90511875
vt 0.3359375 0.7986328125
vt 0.3359375 0.8125
vt 0.348828125 0.8125
vt 0.348828125 0.7986328125
vt 0.224609375 0.903515625
vt 0.189453125 0.903515625
vt 0.189453125 0.91640625
vt 0.224609375 0.91640625
vt 0.3046875 0.6796875
vt 0.3046875 0.6658203125
vt 0.291796875 0.6658203125
vt 0.291796875 0.6796875
vt 0.092578125 0.716015625
vt 0.071484375 0.716015625
vt 0.071484375 0.72890625
vt 0.080078125 0.72890625
vt 0.083643984375 0.5688590625000001
vt 0.08777671875 0.571299453125
vt 0.0969253125 0.5719528125
vt 0.1015625 0.56997265625
vt 0.101468125 0.5697796875000001
vt 0.096852734375 0.571836171875
vt 0.09505640625 0.575931953125
vt 0.09787625 0.577970390625
vt 0.0978759375 0.577970234375
vt 0.09505640625 0.575931953125
vt 0.08825875 0.575931953125
vt 0.08462359375 0.578116328125
vt 0.08460921875 0.578125
vt 0.08825875 0.575931953125
vt 0.08777671875 0.571299453125
vt 0.083644296875 0.56885921875
vt 0.438891015625 0.952901953125
vt 0.43518828125 0.950799296875
vt 0.42827265625 0.95109296875
vt 0.4256465625 0.953093671875
vt 0.42560546875 0.953125
vt 0.42827265625 0.95109296875
vt 0.42640703125 0.94702890625
vt 0.421875 0.944996875
vt 0.5078125 0.6459953125
vt 0.5121375 0.6484375
vt 0.52144921875 0.6484375
vt 0.52575859375 0.6463796875000001
vt 0.4396271875 0.943615078125
vt 0.435556171875 0.9461563281250001
vt 0.43518828125 0.950799296875
vt 0.43889078125 0.952901796875
vt 0.1624359375 0.5182445312499999
vt 0.16152109375 0.5078125
vt 0.1578765625 0.5078125
vt 0.1578765625 0.5234375
vt 0.375 0.54471125
vt 0.375 0.53163140625
vt 0.36729671875 0.531453984375
vt 0.3671875 0.546875
vt 0.4609375 0.71875
vt 0.4609375 0.703125
vt 0.45403984375 0.703125
vt 0.453125 0.7125046875000001
vt 0.53125 0.960976484375
vt 0.52202484375 0.9609375
vt 0.52202484375 0.965409609375
vt 0.5299575 0.9654484375
vt 0.24945 0.532834375
vt 0.248915625 0.5234375
vt 0.2427375 0.5234375
vt 0.2427375 0.5390625
vt 0.097711640625 0.546875
vt 0.081975859375 0.546875
vt 0.08216890625 0.554568671875
vt 0.095563984375 0.5546875
vt 0.4609375 0.6953125
vt 0.4609375 0.6796875
vt 0.453659375 0.6796875
vt 0.453125 0.6901132812499999
vt 0.109375 0.5162499218750001
vt 0.109375 0.508029453125
vt 0.101625546875 0.5078125
vt 0.1015625 0.517326328125
vt 0.216796875 0.86640625
vt 0.21103515625 0.86923828125
vt 0.21103515625 0.87177734375
vt 0.216796875 0.874609375
vt 0.216796875 0.874609375
vt 0.21103515625 0.87177734375
vt 0.19091796875 0.87177734375
vt 0.1875 0.874609375
vt 0.1875 0.874609375
vt 0.19091796875 0.87177734375
vt 0.19091796875 0.86923828125
vt 0.1875 0.86640625
vt 0.1875 0.86640625
vt 0.19091796875 0.86923828125
vt 0.21103515625 0.86923828125
vt 0.216796875 0.86640625
vt 0.1875 0.8828125
vt 0.19091796875 0.87998046875
vt 0.19091796875 0.87744140625
vt 0.1875 0.874609375
vt 0.1875 0.874609375
vt 0.19091796875 0.87744140625
vt 0.21103515625 0.87744140625
vt 0.216796875 0.874609375
vt 0.216796875 0.874609375
vt 0.21103515625 0.87744140625
vt 0.21103515625 0.87998046875
vt 0.216796875 0.8828125
vt 0.216796875 0.8828125
vt 0.21103515625 0.87998046875
vt 0.19091796875 0.87998046875
vt 0.1875 0.8828125
vt 0.01826171875 0.47187500000000004
vt 0.01953125 0.4765625
vt 0.02080078125 0.47187500000000004
vt 0.470228359375 0.8671875
vt 0.475084140625 0.8671875
vt 0.47207078125 0.84705359375
vt 0.470228359375 0.84708625
vt 0.32294921875 0.475
vt 0.32421875 0.4765625
vt 0.32548828125 0.475
vt 0.40625 0.7265625
vt 0.40625 0.731945625
vt 0.4264628125 0.734375
vt 0.426271875 0.7265625
vt 0.52607421875 0.6703125
vt 0.52734375 0.671875
vt 0.52861328125 0.6703125
vt 0.421875 0.921875
vt 0.421875 0.92725890625
vt 0.442087734375 0.9296875
vt 0.441896875 0.921875
vt 0.03388671875 0.47187500000000004
vt 0.03515625 0.4765625
vt 0.03642578125 0.47187500000000004
vt 0.470227734375 0.8984375
vt 0.475084765625 0.8984375
vt 0.472067265625 0.87830328125
vt 0.470227734375 0.878337109375
vn 1 -1.2246467991473532e-16 1.4997597826618576e-32
vn -0.8516583167045434 0.5240974256643354 -6.418342347811962e-17
vn -1.2246467991473532e-16 -1 1.2246467991473532e-16
vn 6.418342347811962e-17 0.5240974256643353 -0.8516583167045435
vn 6.418342347811963e-17 0.5240974256643356 0.8516583167045435
vn 0 -1.2246467991473532e-16 -1
vn -1 1.2246467991473532e-16 -1.4997597826618576e-32
vn 0 1.2246467991473532e-16 1
vn 1 -1.2246467991473532e-16 1.4997597826618576e-32
vn 6.418342347811962e-17 0.5240974256643353 -0.8516583167045435
vn -1.2246467991473532e-16 -1 1.2246467991473532e-16
vn 6.418342347811963e-17 0.5240974256643356 0.8516583167045435
vn 1.2246467991473532e-16 1 -1.2246467991473532e-16
vn 1 -1.2246467991473532e-16 1.4997597826618576e-32
vn 1.2246467991473532e-16 1 -1.2246467991473532e-16
vn -0.8516583167045435 0.5240974256643356 -6.418342347811965e-17
vn -1 1.2246467991473532e-16 -1.4997597826618576e-32
vn -1.2246467991473532e-16 -1 1.2246467991473532e-16
vn 1 -1.2246467991473532e-16 1.4997597826618576e-32
vn -1.2246467991473532e-16 -1 1.2246467991473532e-16
vn 0.6513945589562337 0.45587169430407354 -0.6065196838475625
vn 0.5933776866968176 0.365155499505734 -0.7173314311467549
vn 0.6003155625337514 0.3569451831026128 -0.7156894309961745
vn 0.5589020993675041 0.5647363366668848 -0.6072078008150615
vn 0.5554773660083341 0.5373594848537903 0.634578348110076
vn 0.5673545192040323 0.3491412425870972 0.7457943699596418
vn 0.5779446596112628 0.6262191078354978 0.5232873010197502
vn 0.5589109360032589 0.564735074577403 0.6072008408739369
vn 0.07723166965526906 -0.9970131740364615 1.2209889922914956e-16
vn 0 1.2246467991473532e-16 1
vn -0.03946872285738086 0.9992208063866602 -1.2236925621828606e-16
vn 0.1190438166095042 -0.5203705697693768 -0.845602175875238
vn -0.08392546744563018 0.9964720346873928 -1.2203262877197658e-16
vn 0 -1.2246467991473532e-16 -1
vn 0.059514457011097574 -0.9982274437254641 1.2224760437794341e-16
vn 0.10631082954612434 -0.5211273372571532 0.8468319230428696
vn 1.2246467991473532e-16 1 -1.2246467991473532e-16
vn 1.2246467991473532e-16 1 -1.2246467991473532e-16
vn 1.2246467991473532e-16 1 -1.2246467991473532e-16
vn 1.2246467991473532e-16 1 -1.2246467991473532e-16
vn 1.2246467991473532e-16 1 -1.2246467991473532e-16
vn 1.2246467991473532e-16 1 -1.2246467991473532e-16
vn 1.2246467991473532e-16 1 -1.2246467991473532e-16
vn 1.2246467991473532e-16 1 -1.2246467991473532e-16
vn -1 1.2246467991473532e-16 -1.4997597826618576e-32
vn 0.04057478853292688 0.26120020118071496 -0.9644315120518732
vn 1 -1.2246467991473532e-16 1.4997597826618576e-32
vn 0.09748952686473007 0.6275888291916959 0.7724170205436228
vn 1 -1.2246467991473532e-16 1.4997597826618576e-32
vn 0.0974895268647301 0.627588829191696 0.7724170205436227
vn -1 1.2246467991473532e-16 -1.4997597826618576e-32
vn 0.040574788532926856 0.2612002011807149 -0.9644315120518732
usemtl m_7ecca7f4-36ac-79de-f5df-1a8ab898bcc7
f 128/183/47 129/184/47 127/185/47 130/186/47
f 114/187/48 115/188/48 105/189/48 100/190/48
f 116/191/49 117/192/49 98/193/49 102/194/49
f 103/195/50 104/196/50 99/197/50 95/198/50
f 105/199/51 106/200/51 96/201/51 100/202/51
f 104/203/52 103/204/52 97/205/52 101/206/52
f 115/207/53 116/208/53 102/209/53 105/210/53
f 106/211/54 105/212/54 102/213/54 98/214/54
f 117/215/55 118/216/55 106/217/55 98/218/55
f 95/219/56 107/220/56 109/221/56 103/222/56
f 118/223/57 111/224/57 108/225/57 106/226/57
f 106/227/58 108/228/58 110/229/58 96/230/58
f 112/231/59 113/232/59 96/233/59 110/234/59
f 133/235/60 132/236/60 131/237/60 134/238/60
f 113/239/61 112/240/61 107/241/61 95/242/61
f 115/243/62 114/244/62 99/245/62 104/246/62
f 116/247/63 115/248/63 104/249/63 101/250/63
f 117/251/64 116/252/64 101/253/64 97/254/64
f 118/255/65 117/256/65 97/257/65 103/258/65
f 111/259/66 118/260/66 103/261/66 109/262/66
f 109/263/67 119/264/67 120/265/67 111/266/67
f 111/267/68 120/268/68 121/269/68 112/270/68
f 112/271/69 121/272/69 122/273/69 107/274/69
f 107/275/70 122/276/70 119/277/70 109/278/70
f 110/279/71 123/280/71 125/281/71 112/282/71
f 112/283/72 125/284/72 124/285/72 111/286/72
f 111/287/73 124/288/73 126/289/73 108/290/73
f 108/291/74 126/292/74 123/293/74 110/294/74
f 123/295/75 127/296/75 129/297/75 125/298/75
f 125/299/76 129/300/76 128/301/76 124/302/76
f 124/303/77 128/304/77 130/305/77 126/306/77
f 126/307/78 130/308/78 127/309/78 123/310/78
f 119/311/79 131/312/79 132/313/79 120/314/79
f 120/315/80 132/316/80 133/317/80 121/318/80
f 121/319/81 133/320/81 134/321/81 122/322/81
f 122/323/82 134/324/82 131/325/82 119/326/82
f 95/327/83 135/328/83 136/329/83 113/330/83
f 113/331/84 136/332/84 137/333/84 114/334/84
f 114/335/85 137/336/85 138/337/85 99/338/85
f 99/339/86 138/340/86 135/341/86 95/342/86
f 100/343/87 139/344/87 141/345/87 114/346/87
f 114/347/88 141/348/88 140/349/88 113/350/88
f 113/351/89 140/352/89 142/353/89 96/354/89
f 96/355/90 142/356/90 139/357/90 100/358/90
f 139/359/91 144/360/91 141/361/91
f 141/362/92 144/363/92 143/364/92 140/365/92
f 140/366/93 143/367/93 142/368/93
f 142/369/94 143/370/94 144/371/94 139/372/94
f 135/373/95 145/374/95 136/375/95
f 136/376/96 145/377/96 146/378/96 137/379/96
f 137/380/97 146/381/97 138/382/97
f 138/383/98 146/384/98 145/385/98 135/386/98
o Arm
v 0.3343749999999997 1.0218749999999999 1.4274789252561334e-16
v 0.15937499999999974 1.0218749999999999 1.4274789252561334e-16
v 0.3343749999999997 1.055018125 -0.056249999999999856
v 0.1593749999999997 1.055018125 -0.056249999999999856
v 0.3343749999999997 1.078125 -0.03736187499999985
v 0.1593749999999997 1.078125 -0.03736187499999985
v 0.3343749999999997 1.078125 0.037361875000000155
v 0.1593749999999997 1.078125 0.037361875000000155
v 0.3343749999999997 1.055018125 0.05625000000000015
v 0.1593749999999997 1.055018125 0.05625000000000015
v 0.3343749999999997 0.988731875 0.05625000000000014
v 0.15937499999999974 0.988731875 0.05625000000000014
v 0.33437499999999976 0.965625 0.03736187500000014
v 0.15937499999999974 0.965625 0.03736187500000014
v 0.33437499999999976 0.965625 -0.037361874999999864
v 0.15937499999999974 0.965625 -0.037361874999999864
v 0.3343749999999997 0.988731875 -0.05624999999999986
v 0.15937499999999974 0.988731875 -0.05624999999999986
v 0.31770812499999973 1.055018125 -0.056249999999999856
v 0.31770812499999973 0.988731875 -0.05624999999999986
v 0.29466937499999973 1.055018125 -0.056249999999999856
v 0.29466937499999973 0.988731875 -0.05624999999999986
v 0.3177081249999998 0.965625 -0.037361874999999864
v 0.2946693749999998 0.965625 -0.037361874999999864
v 0.3177081249999998 0.965625 0.03736187500000014
v 0.2946693749999998 0.965625 0.03736187500000014
v 0.31770812499999973 0.988731875 0.05625000000000014
v 0.29466937499999973 0.988731875 0.05625000000000014
v 0.31770812499999973 1.055018125 0.05625000000000015
v 0.29466937499999973 1.055018125 0.05625000000000015
v 0.31770812499999973 1.078125 0.037361875000000155
v 0.29466937499999973 1.078125 0.037361875000000155
v 0.31770812499999973 1.078125 -0.03736187499999985
v 0.29466937499999973 1.078125 -0.03736187499999985
vt 0.38695546875 0.6234375
vt 0.38984375 0.6210765625
vt 0.3828125 0.61640625
vt 0.4765625 0.77215078125
vt 0.47283125 0.77215078125
vt 0.47283125 0.7890625
vt 0.4765625 0.7890625
vt 0.05390625 0.6054859375
vt 0.05101796875 0.603125
vt 0.046875 0.61015625
vt 0.38984375 0.6210765625
vt 0.38984375 0.6117359375
vt 0.3828125 0.61640625
vt 0.2156078125 0.6080882812499999
vt 0.2062671875 0.6080882812499999
vt 0.2062671875 0.625
vt 0.2156078125 0.625
vt 0.05390625 0.6148265625
vt 0.05390625 0.6054859375
vt 0.046875 0.61015625
vt 0.38984375 0.6117359375
vt 0.38695546875 0.609375
vt 0.3828125 0.61640625
vt 0.20685625 0.5143382812499999
vt 0.203125 0.5143382812499999
vt 0.203125 0.53125
vt 0.20685625 0.53125
vt 0.05101796875 0.6171875
vt 0.05390625 0.6148265625
vt 0.046875 0.61015625
vt 0.38695546875 0.609375
vt 0.37866953125 0.609375
vt 0.3828125 0.61640625
vt 0.42601796875 0.86590078125
vt 0.41773203125 0.86590078125
vt 0.41773203125 0.8828125
vt 0.42601796875 0.8828125
vt 0.04273203125 0.6171875
vt 0.05101796875 0.6171875
vt 0.046875 0.61015625
vt 0.37866953125 0.609375
vt 0.37578125 0.6117359375
vt 0.3828125 0.61640625
vt 0.2890625 0.5143382812499999
vt 0.28533203125 0.5143382812499999
vt 0.28533203125 0.53125
vt 0.2890625 0.53125
vt 0.03984375 0.6148265625
vt 0.04273203125 0.6171875
vt 0.046875 0.61015625
vt 0.37578125 0.6117359375
vt 0.37578125 0.6210765625
vt 0.3828125 0.61640625
vt 0.3874828125 0.6393382812499999
vt 0.3781421875 0.6393382812499999
vt 0.3781421875 0.65625
vt 0.3874828125 0.65625
vt 0.03984375 0.6054859375
vt 0.03984375 0.6148265625
vt 0.046875 0.61015625
vt 0.37578125 0.6210765625
vt 0.37866953125 0.6234375
vt 0.3828125 0.61640625
vt 0.47248046875 0.7174632812499999
vt 0.46875 0.7174632812499999
vt 0.46875 0.734375
vt 0.47248046875 0.734375
vt 0.04273203125 0.603125
vt 0.03984375 0.6054859375
vt 0.046875 0.61015625
vt 0.37866953125 0.6234375
vt 0.38695546875 0.6234375
vt 0.3828125 0.61640625
vt 0.42601796875 0.6862132812499999
vt 0.41773203125 0.6862132812499999
vt 0.41773203125 0.703125
vt 0.42601796875 0.703125
vt 0.05101796875 0.603125
vt 0.04273203125 0.603125
vt 0.046875 0.61015625
vt 0.41773203125 0.68333359375
vt 0.42601796875 0.68333359375
vt 0.42601796875 0.68125
vt 0.41773203125 0.68125
vt 0.41773203125 0.6862132812499999
vt 0.42601796875 0.6862132812499999
vt 0.42601796875 0.68333359375
vt 0.41773203125 0.68333359375
vt 0.46875 0.71458359375
vt 0.47248046875 0.71458359375
vt 0.47248046875 0.7125
vt 0.46875 0.7125
vt 0.46875 0.7174632812499999
vt 0.47248046875 0.7174632812499999
vt 0.47248046875 0.71458359375
vt 0.46875 0.71458359375
vt 0.3781421875 0.63645859375
vt 0.3874828125 0.63645859375
vt 0.3874828125 0.634375
vt 0.3781421875 0.634375
vt 0.3781421875 0.6393382812499999
vt 0.3874828125 0.6393382812499999
vt 0.3874828125 0.63645859375
vt 0.3781421875 0.63645859375
vt 0.28533203125 0.51145859375
vt 0.2890625 0.51145859375
vt 0.2890625 0.509375
vt 0.28533203125 0.509375
vt 0.28533203125 0.5143382812499999
vt 0.2890625 0.5143382812499999
vt 0.2890625 0.51145859375
vt 0.28533203125 0.51145859375
vt 0.41773203125 0.86302109375
vt 0.42601796875 0.86302109375
vt 0.42601796875 0.8609375
vt 0.41773203125 0.8609375
vt 0.41773203125 0.86590078125
vt 0.42601796875 0.86590078125
vt 0.42601796875 0.86302109375
vt 0.41773203125 0.86302109375
vt 0.203125 0.51145859375
vt 0.20685625 0.51145859375
vt 0.20685625 0.509375
vt 0.203125 0.509375
vt 0.203125 0.5143382812499999
vt 0.20685625 0.5143382812499999
vt 0.20685625 0.51145859375
vt 0.203125 0.51145859375
vt 0.2062671875 0.60520859375
vt 0.2156078125 0.60520859375
vt 0.2156078125 0.603125
vt 0.2062671875 0.603125
vt 0.2062671875 0.6080882812499999
vt 0.2156078125 0.6080882812499999
vt 0.2156078125 0.60520859375
vt 0.2062671875 0.60520859375
vt 0.47283125 0.76927109375
vt 0.4765625 0.76927109375
vt 0.4765625 0.7671875
vt 0.47283125 0.7671875
vt 0.47283125 0.77215078125
vt 0.4765625 0.77215078125
vt 0.4765625 0.76927109375
vt 0.47283125 0.76927109375
vn 1 2.220446049250313e-16 2.719262146893782e-32
vn -1.4052902862729186e-16 0.6328864809606095 -0.7742446010256038
vn -1 -2.220446049250313e-16 -2.719262146893782e-32
vn 1 2.220446049250313e-16 2.719262146893782e-32
vn -2.220446049250313e-16 1 1.2246467991473532e-16
vn -1 -2.220446049250313e-16 -2.719262146893782e-32
vn 1 2.220446049250313e-16 2.719262146893782e-32
vn -1.4052902862729186e-16 0.6328864809606093 0.774244601025604
vn -1 -2.220446049250313e-16 -2.719262146893782e-32
vn 1 2.220446049250313e-16 2.719262146893782e-32
vn 2.5407181807812022e-33 -1.2246467991473532e-16 1
vn -1 -2.220446049250313e-16 -2.719262146893782e-32
vn 1 2.220446049250313e-16 2.719262146893782e-32
vn 1.4052902862729186e-16 -0.6328864809606095 0.7742446010256038
vn -1 -2.220446049250313e-16 -2.719262146893782e-32
vn 1 2.220446049250313e-16 2.719262146893782e-32
vn 2.220446049250313e-16 -1 -1.2246467991473532e-16
vn -1 -2.220446049250313e-16 -2.719262146893782e-32
vn 1 2.220446049250313e-16 2.719262146893782e-32
vn 1.4052902862729186e-16 -0.6328864809606093 -0.774244601025604
vn -1 -2.220446049250313e-16 -2.719262146893782e-32
vn 1 2.220446049250313e-16 2.719262146893782e-32
vn -2.5407181807812022e-33 1.2246467991473532e-16 -1
vn -1 -2.220446049250313e-16 -2.719262146893782e-32
vn -2.5407181807812022e-33 1.2246467991473532e-16 -1
vn -2.5407181807812022e-33 1.2246467991473532e-16 -1
vn 1.4052902862729184e-16 -0.6328864809606092 -0.7742446010256039
vn 1.4052902862729186e-16 -0.6328864809606093 -0.7742446010256039
vn 2.220446049250313e-16 -1 -1.2246467991473532e-16
vn 2.220446049250313e-16 -1 -1.2246467991473532e-16
vn 1.4052902862729184e-16 -0.6328864809606094 0.7742446010256037
vn 1.4052902862729186e-16 -0.6328864809606095 0.7742446010256037
vn 2.5407181807812022e-33 -1.2246467991473532e-16 1
vn 2.5407181807812022e-33 -1.2246467991473532e-16 1
vn -1.4052902862729184e-16 0.6328864809606092 0.7742446010256039
vn -1.4052902862729186e-16 0.6328864809606093 0.7742446010256039
vn -2.220446049250313e-16 1 1.2246467991473532e-16
vn -2.220446049250313e-16 1 1.2246467991473532e-16
vn -1.4052902862729184e-16 0.6328864809606094 -0.7742446010256037
vn -1.4052902862729186e-16 0.6328864809606095 -0.7742446010256037
usemtl m_7ecca7f4-36ac-79de-f5df-1a8ab898bcc7
f 149/387/99 151/388/99 147/389/99
f 180/390/100 167/391/100 150/392/100 152/393/100
f 152/394/101 150/395/101 148/396/101
f 151/397/102 153/398/102 147/399/102
f 178/400/103 180/401/103 152/402/103 154/403/103
f 154/404/104 152/405/104 148/406/104
f 153/407/105 155/408/105 147/409/105
f 176/410/106 178/411/106 154/412/106 156/413/106
f 156/414/107 154/415/107 148/416/107
f 155/417/108 157/418/108 147/419/108
f 174/420/109 176/421/109 156/422/109 158/423/109
f 158/424/110 156/425/110 148/426/110
f 157/427/111 159/428/111 147/429/111
f 172/430/112 174/431/112 158/432/112 160/433/112
f 160/434/113 158/435/113 148/436/113
f 159/437/114 161/438/114 147/439/114
f 170/440/115 172/441/115 160/442/115 162/443/115
f 162/444/116 160/445/116 148/446/116
f 161/447/117 163/448/117 147/449/117
f 168/450/118 170/451/118 162/452/118 164/453/118
f 164/454/119 162/455/119 148/456/119
f 163/457/120 149/458/120 147/459/120
f 167/460/121 168/461/121 164/462/121 150/463/121
f 150/464/122 164/465/122 148/466/122
f 166/467/123 165/468/123 149/469/123 163/470/123
f 168/471/124 167/472/124 165/473/124 166/474/124
f 169/475/125 166/476/125 163/477/125 161/478/125
f 170/479/126 168/480/126 166/481/126 169/482/126
f 171/483/127 169/484/127 161/485/127 159/486/127
f 172/487/128 170/488/128 169/489/128 171/490/128
f 173/491/129 171/492/129 159/493/129 157/494/129
f 174/495/130 172/496/130 171/497/130 173/498/130
f 175/499/131 173/500/131 157/501/131 155/502/131
f 176/503/132 174/504/132 173/505/132 175/506/132
f 177/507/133 175/508/133 155/509/133 153/510/133
f 178/511/134 176/512/134 175/513/134 177/514/134
f 179/515/135 177/516/135 153/517/135 151/518/135
f 180/519/136 178/520/136 177/521/136 179/522/136
f 165/523/137 179/524/137 151/525/137 149/526/137
f 167/527/138 180/528/138 179/529/138 165/530/138
o cylinder
v 0.16875 1.0187499999999998 0.06249999999999999
v 0.16875 1.01875 -0.0625
v 0.2375 1.0371712499999999 0.0625
v 0.2375 1.0371712499999999 -0.0625
v 0.21907875 1.0690787499999999 0.0625
v 0.21907875 1.0690787499999999 -0.06249999999999999
v 0.18717124999999998 1.0875 0.06250000000000001
v 0.18717124999999998 1.0875 -0.06249999999999999
v 0.15032874999999998 1.0875 0.06250000000000001
v 0.15032874999999998 1.0875 -0.06249999999999999
v 0.11842125 1.0690787499999999 0.0625
v 0.11842125 1.0690787499999999 -0.06249999999999999
v 0.1 1.0371712499999999 0.0625
v 0.1 1.0371712499999999 -0.0625
v 0.1 1.00032875 0.06249999999999999
v 0.1 1.00032875 -0.06250000000000001
v 0.11842125000000003 0.9684212499999999 0.062499999999999986
v 0.11842125000000003 0.9684212499999999 -0.06250000000000001
v 0.15032875 0.95 0.06249999999999998
v 0.15032875 0.95 -0.06250000000000003
v 0.18717125 0.95 0.06249999999999998
v 0.18717125 0.95 -0.06250000000000003
v 0.21907875000000002 0.9684212499999999 0.062499999999999986
v 0.21907875000000002 0.96842125 -0.06250000000000001
v 0.23750000000000002 1.00032875 0.06249999999999999
v 0.23750000000000002 1.00032875 -0.06250000000000001
vt 0.24839609375 0.665625
vt 0.25238515625 0.66332265625
vt 0.24609375 0.65703125
vt 0.1640625 0.546875
vt 0.1640625 0.53125
vt 0.15625 0.53125
vt 0.15625 0.546875
vt 0.34613515625 0.96167734375
vt 0.34214609375 0.959375
vt 0.33984375 0.96796875
vt 0.25238515625 0.66332265625
vt 0.2546875 0.65933359375
vt 0.24609375 0.65703125
vt 0.4609375 0.953125
vt 0.4609375 0.9375
vt 0.453125 0.9375
vt 0.453125 0.953125
vt 0.3484375 0.96566640625
vt 0.34613515625 0.96167734375
vt 0.33984375 0.96796875
vt 0.2546875 0.65933359375
vt 0.2546875 0.65472890625
vt 0.24609375 0.65703125
vt 0.296875 0.5546875
vt 0.296875 0.5390625
vt 0.2890625 0.5390625
vt 0.2890625 0.5546875
vt 0.3484375 0.97027109375
vt 0.3484375 0.96566640625
vt 0.33984375 0.96796875
vt 0.2546875 0.65472890625
vt 0.25238515625 0.65073984375
vt 0.24609375 0.65703125
vt 0.1171875 0.546875
vt 0.1171875 0.53125
vt 0.109375 0.53125
vt 0.109375 0.546875
vt 0.34613515625 0.97426015625
vt 0.3484375 0.97027109375
vt 0.33984375 0.96796875
vt 0.25238515625 0.65073984375
vt 0.24839609375 0.6484375
vt 0.24609375 0.65703125
vt 0.234375 0.546875
vt 0.234375 0.53125
vt 0.2265625 0.53125
vt 0.2265625 0.546875
vt 0.34214609375 0.9765625
vt 0.34613515625 0.97426015625
vt 0.33984375 0.96796875
vt 0.24839609375 0.6484375
vt 0.24379140625 0.6484375
vt 0.24609375 0.65703125
vt 0.4296875 0.5546875
vt 0.4296875 0.5390625
vt 0.421875 0.5390625
vt 0.421875 0.5546875
vt 0.33754140625 0.9765625
vt 0.34214609375 0.9765625
vt 0.33984375 0.96796875
vt 0.24379140625 0.6484375
vt 0.23980234375 0.65073984375
vt 0.24609375 0.65703125
vt 0.2734375 0.546875
vt 0.2734375 0.53125
vt 0.265625 0.53125
vt 0.265625 0.546875
vt 0.33355234375 0.97426015625
vt 0.33754140625 0.9765625
vt 0.33984375 0.96796875
vt 0.23980234375 0.65073984375
vt 0.2375 0.65472890625
vt 0.24609375 0.65703125
vt 0.4453125 0.5546875
vt 0.4453125 0.5390625
vt 0.4375 0.5390625
vt 0.4375 0.5546875
vt 0.33125 0.97027109375
vt 0.33355234375 0.97426015625
vt 0.33984375 0.96796875
vt 0.2375 0.65472890625
vt 0.2375 0.65933359375
vt 0.24609375 0.65703125
vt 0.3125 0.5546875
vt 0.3125 0.5390625
vt 0.3046875 0.5390625
vt 0.3046875 0.5546875
vt 0.33125 0.96566640625
vt 0.33125 0.97027109375
vt 0.33984375 0.96796875
vt 0.2375 0.65933359375
vt 0.23980234375 0.66332265625
vt 0.24609375 0.65703125
vt 0.0078125 0.546875
vt 0.0078125 0.53125
vt 0 0.53125
vt 0 0.546875
vt 0.33355234375 0.96167734375
vt 0.33125 0.96566640625
vt 0.33984375 0.96796875
vt 0.23980234375 0.66332265625
vt 0.24379140625 0.665625
vt 0.24609375 0.65703125
vt 0.4609375 0.8828125
vt 0.4609375 0.8671875
vt 0.453125 0.8671875
vt 0.453125 0.8828125
vt 0.33754140625 0.959375
vt 0.33355234375 0.96167734375
vt 0.33984375 0.96796875
vt 0.24379140625 0.665625
vt 0.24839609375 0.665625
vt 0.24609375 0.65703125
vt 0.328125 0.5546875
vt 0.328125 0.5390625
vt 0.3203125 0.5390625
vt 0.3203125 0.5546875
vt 0.34214609375 0.959375
vt 0.33754140625 0.959375
vt 0.33984375 0.96796875
vn 4.930380657631324e-32 -2.220446049250313e-16 1
vn 0.866031911409066 0.49998872829410845 1.1101979964103413e-16
vn -4.930380657631324e-32 2.220446049250313e-16 -1
vn 4.930380657631324e-32 -2.220446049250313e-16 1
vn 0.4999887282941079 0.8660319114090662 1.9229771362129582e-16
vn -4.930380657631324e-32 2.220446049250313e-16 -1
vn 4.930380657631324e-32 -2.220446049250313e-16 1
vn -2.220446049250313e-16 1 2.220446049250313e-16
vn -4.930380657631324e-32 2.220446049250313e-16 -1
vn 4.930380657631324e-32 -2.220446049250313e-16 1
vn -0.49998872829410845 0.866031911409066 1.9229771362129577e-16
vn -4.930380657631324e-32 2.220446049250313e-16 -1
vn 4.930380657631324e-32 -2.220446049250313e-16 1
vn -0.8660319114090662 0.4999887282941081 1.1101979964103406e-16
vn -4.930380657631324e-32 2.220446049250313e-16 -1
vn 4.930380657631324e-32 -2.220446049250313e-16 1
vn -1 -2.220446049250313e-16 -4.930380657631324e-32
vn -4.930380657631324e-32 2.220446049250313e-16 -1
vn 4.930380657631324e-32 -2.220446049250313e-16 1
vn -0.866031911409066 -0.49998872829410845 -1.1101979964103413e-16
vn -4.930380657631324e-32 2.220446049250313e-16 -1
vn 4.930380657631324e-32 -2.220446049250313e-16 1
vn -0.4999887282941082 -0.8660319114090662 -1.9229771362129582e-16
vn -4.930380657631324e-32 2.220446049250313e-16 -1
vn 4.930380657631324e-32 -2.220446049250313e-16 1
vn 2.220446049250313e-16 -1 -2.220446049250313e-16
vn -4.930380657631324e-32 2.220446049250313e-16 -1
vn 4.930380657631324e-32 -2.220446049250313e-16 1
vn 0.49998872829410834 -0.866031911409066 -1.9229771362129577e-16
vn -4.930380657631324e-32 2.220446049250313e-16 -1
vn 4.930380657631324e-32 -2.220446049250313e-16 1
vn 0.8660319114090662 -0.4999887282941081 -1.1101979964103406e-16
vn -4.930380657631324e-32 2.220446049250313e-16 -1
vn 4.930380657631324e-32 -2.220446049250313e-16 1
vn 1 2.220446049250313e-16 4.930380657631324e-32
vn -4.930380657631324e-32 2.220446049250313e-16 -1
usemtl m_7ecca7f4-36ac-79de-f5df-1a8ab898bcc7
f 183/531/139 185/532/139 181/533/139
f 186/534/140 185/535/140 183/536/140 184/537/140
f 186/538/141 184/539/141 182/540/141
f 185/541/142 187/542/142 181/543/142
f 188/544/143 187/545/143 185/546/143 186/547/143
f 188/548/144 186/549/144 182/550/144
f 187/551/145 189/552/145 181/553/145
f 190/554/146 189/555/146 187/556/146 188/557/146
f 190/558/147 188/559/147 182/560/147
f 189/561/148 191/562/148 181/563/148
f 192/564/149 191/565/149 189/566/149 190/567/149
f 192/568/150 190/569/150 182/570/150
f 191/571/151 193/572/151 181/573/151
f 194/574/152 193/575/152 191/576/152 192/577/152
f 194/578/153 192/579/153 182/580/153
f 193/581/154 195/582/154 181/583/154
f 196/584/155 195/585/155 193/586/155 194/587/155
f 196/588/156 194/589/156 182/590/156
f 195/591/157 197/592/157 181/593/157
f 198/594/158 197/595/158 195/596/158 196/597/158
f 198/598/159 196/599/159 182/600/159
f 197/601/160 199/602/160 181/603/160
f 200/604/161 199/605/161 197/606/161 198/607/161
f 200/608/162 198/609/162 182/610/162
f 199/611/163 201/612/163 181/613/163
f 202/614/164 201/615/164 199/616/164 200/617/164
f 202/618/165 200/619/165 182/620/165
f 201/621/166 203/622/166 181/623/166
f 204/624/167 203/625/167 201/626/167 202/627/167
f 204/628/168 202/629/168 182/630/168
f 203/631/169 205/632/169 181/633/169
f 206/634/170 205/635/170 203/636/170 204/637/170
f 206/638/171 204/639/171 182/640/171
f 205/641/172 183/642/172 181/643/172
f 184/644/173 183/645/173 205/646/173 206/647/173
f 184/648/174 206/649/174 182/650/174