# Made in Blockbench 5.1.5
mtllib BlackwingHead.mtl

o sphere
v -0.172416875 1.329765625 0.08068375
v -0.09377749999999999 1.34854625 0.167568125
v 1.2336243138122428e-17 1.3555575 0.19375
v 0.09375375000000001 1.34854625 0.167568125
v 0.172416875 1.329765625 0.08068375
v -0.17241687499999997 1.375733125 0.058616875
v -0.09377749999999997 1.427043125 0.122220625
v 3.2462366128527266e-17 1.4461975 0.141386875
v 0.09375375000000002 1.427043125 0.122220625
v 0.17241687500000002 1.375733125 0.058616875
v -0.17241687499999997 1.4022725 0.020394375
v -0.09377749999999996 1.4723625 0.043675
v 4.408209908213223e-17 1.498528125 0.050690625
v 0.09375375000000004 1.4723625 0.043675
v 0.17241687500000002 1.4022725 0.020394375
v -0.17241687499999997 1.4022725 -0.02374
v 0.17241687500000002 1.4022725 -0.02374
v -0.17241687499999997 1.375733125 -0.061961875
v 0.17241687500000002 1.375733125 -0.061961875
v -0.172416875 1.329765625 -0.084029375
v 0.172416875 1.329765625 -0.084029375
v -0.172416875 1.2766875 -0.084029375
v -0.09377750000000001 1.2467462500000002 -0.17091375
v -2.2301605007157833e-18 1.2899562500000001 -0.197095625
v 0.09375374999999998 1.24674625 -0.17091375
v 0.172416875 1.2766875 -0.084029375
v -0.17241687500000002 1.23072 -0.061961875
v -0.09377750000000003 1.17941 -0.153483125
v -3.102948453737042e-17 1.160255625 -0.172649375
v 0.09375374999999997 1.17941 -0.153483125
v 0.17241687499999997 1.23072 -0.061961875
v -0.17241687500000002 1.204180625 -0.02374
v -0.09377750000000004 1.134090625 -0.047020625
v -3.95516952522712e-17 1.121875 -0.05403625
v 0.09375374999999996 1.134090625 -0.047020625
v 0.17241687499999997 1.204180625 -0.02374
v -0.17241687500000002 1.204180625 0.020394375
v -0.09377750000000004 1.134090625 0.043675
v -3.95516952522712e-17 1.121875 0.050690625
v 0.09375374999999996 1.134090625 0.043675
v 0.17241687499999997 1.204180625 0.020394375
v -0.17241687500000002 1.23072 0.058616875
v -0.09377750000000003 1.17941 0.122220625
v -3.102948453737042e-17 1.160255625 0.141386875
v 0.09375374999999997 1.17941 0.122220625
v 0.17241687499999997 1.23072 0.058616875
v -0.172416875 1.2766875 0.08068375
v -0.09377750000000001 1.257906875 0.167568125
v -1.0903361546965584e-17 1.250895625 0.19375
v 0.09375374999999998 1.257906875 0.167568125
v 0.172416875 1.2766875 0.08068375
v -0.188256875 1.329765625 0.08068375
v -0.18825687499999996 1.375733125 0.058616875
v -0.18825687499999996 1.4022725 0.020394375
v -0.18825687499999996 1.4022725 -0.02374
v -0.18825687499999996 1.375733125 -0.061961875
v -0.188256875 1.329765625 -0.084029375
v -0.188256875 1.2766875 -0.084029375
v -0.18825687500000002 1.23072 -0.061961875
v -0.18825687500000002 1.204180625 -0.02374
v -0.18825687500000002 1.204180625 0.020394375
v -0.18825687500000002 1.23072 0.058616875
v -0.188256875 1.2766875 0.08068375
v 0.188256875 1.329765625 0.08068375
v 0.18825687500000002 1.375733125 0.058616875
v 0.18825687500000002 1.4022725 0.020394375
v 0.18825687500000002 1.4022725 -0.02374
v 0.18825687500000002 1.375733125 -0.061961875
v 0.188256875 1.329765625 -0.084029375
v 0.188256875 1.2766875 -0.084029375
v 0.18825687499999996 1.23072 -0.061961875
v 0.18825687499999996 1.204180625 -0.02374
v 0.18825687499999996 1.204180625 0.020394375
v 0.18825687499999996 1.23072 0.058616875
v 0.188256875 1.2766875 0.08068375
v -0.20409625 1.30322625 -0.0016725
v -0.20409625 1.323785 0.05835
v -0.20409625 1.3593937500000002 0.042266875
v -0.20409624999999998 1.3799525000000001 0.01441
v -0.20409624999999998 1.3799525000000001 -0.017755625
v -0.20409625 1.3593937500000002 -0.0456125
v -0.20409625 1.323785 -0.061695625
v -0.20409625 1.282668125 -0.061695625
v -0.20409625 1.247059375 -0.0456125
v -0.20409625000000003 1.2265006250000001 -0.017755625
v -0.20409625000000003 1.2265006250000001 0.01441
v -0.20409625 1.247059375 0.042266875
v -0.20409625 1.282668125 0.05835
v 0.20409625 1.30322625 -0.0016725
v 0.20409625 1.323785 0.05835
v 0.20409625 1.35939375 0.042266875
v 0.20409625000000003 1.3799525 0.01441
v 0.20409625000000003 1.3799525 -0.017755625
v 0.20409625 1.35939375 -0.0456125
v 0.20409625 1.323785 -0.061695625
v 0.20409625 1.282668125 -0.061695625
v 0.20409625 1.247059375 -0.0456125
v 0.20409624999999998 1.226500625 -0.017755625
v 0.20409624999999998 1.226500625 0.01441
v 0.20409625 1.247059375 0.042266875
v 0.20409625 1.282668125 0.05835
v -0.09713374999999996 1.4820487500000001 0.043675
v -0.09716499999999996 1.48137625 -0.04943
v -0.17915562499999999 1.410865 0.020394375
v -0.17951374999999997 1.381725625 -0.067365
v -0.09732874999999999 1.37385 -0.17397625
v -0.17978 1.332265 -0.091291875
v -0.09722250000000002 1.247611875 -0.18030625
v -0.179814375 1.277045 -0.091990625
v -6.249999999819504e-7 1.381288125 -0.19586875
v -0.000021250000000002024 1.2908875 -0.207961875
v 0.09728375000000002 1.3734225 -0.174103125
v 0.09715999999999998 1.246991875 -0.180395
v 0.179691875 1.331524375 -0.09172375
v 0.179733125 1.2766875 -0.092081875
v 0.17942375000000002 1.381005 -0.068071875
v 4.631531269616573e-17 1.508585625 -0.0567325
v 0.09714437500000005 1.48129625 -0.04959
v 4.647573992322407e-17 1.509308125 0.050690625
v 0.09713375000000005 1.4820487500000001 0.043675
v 0.17917687500000004 1.410081875 -0.0261825
v 0.17915562500000004 1.410865 0.020394375
v -0.10669312499999996 1.4981075000000001 -0.059068125
v -0.10708374999999998 1.4472425 -0.144668125
v -0.19286312499999997 1.42500625 -0.03436625
v -0.19361687499999997 1.393750625 -0.078238125
v 0.10659125000000004 1.497711875 -0.05986375
v 0.10697312500000003 1.4466350000000001 -0.14541125
v 0.19266187500000004 1.424231875 -0.0359275
v 0.19334875000000004 1.39164125 -0.080314375
v 0.194056875 1.3386475 -0.1064625
v 0.10722125000000002 1.3831437500000001 -0.1903175
v -0.10733624999999998 1.384076875 -0.189825625
v -0.1943425 1.34155 -0.1045325
v 0.08042250000000001 1.385615625 -0.19622375
v 0.07420812500000001 1.378071875 -0.183830625
v 0.000006250000000018702 1.384224375 -0.2003875
v -0.08049562499999999 1.3863156250000002 -0.195854375
v -0.07424437499999999 1.378455625 -0.18369
v -0.08030687499999997 1.45268875 -0.1500925
v 0.08023562500000003 1.452233125 -0.15065
v 0.07994312500000005 1.505103125 -0.0617775
v -0.08002062499999996 1.505399375 -0.061180625
v -0.07406499999999996 1.4926062500000001 -0.05380875
v -6.249999999526472e-7 1.5132581250000001 -0.063616875
v 0.07403875000000004 1.4925068750000001 -0.058195625
v -0.00004562499999997993 1.39035625 -0.225121875
v 0.08269312500000002 1.382981875 -0.20715875
v 0.07469500000000001 1.366451875 -0.19234
v -0.00014312499999998384 1.372800625 -0.209201875
v -0.08291312499999999 1.38359875 -0.20727875
v -0.07502937499999998 1.367229375 -0.19281
v 0.000022500000000040063 1.4804275 -0.177266875
v -0.08433124999999995 1.463956875 -0.16107375
v 0.08425812500000004 1.4637675 -0.161470625
v 0.08250937500000004 1.5162375 -0.058681875
v 0.000053750000000052915 1.5383262500000001 -0.06435625
v -0.08247624999999996 1.5163662500000001 -0.05795125
v -0.07497812499999996 1.5005875 -0.04330375
v 0.00011437500000004917 1.52142 -0.049035
v 0.07518125000000005 1.50084875 -0.04372375
v -0.09377749999999997 1.421620625 0.11687
v -0.09377749999999996 1.4653575 0.039628125
v -0.16454062499999997 1.3703106250000001 0.05326625
v -0.16474562499999998 1.3952668750000001 0.0163475
v -0.09377749999999999 1.3466268750000001 0.160453125
v -0.16428625 1.3278462500000001 0.07356875
v -0.09377750000000001 1.2598731250000001 0.160371875
v -0.164376875 1.2786537500000001 0.0734875
v -0.09377750000000003 1.184965 0.11673875
v -0.16473812500000004 1.236275 0.053135
v -0.09377750000000004 1.14188 0.0416025
v -0.16502375000000002 1.2119706250000002 0.018321875
v -0.09377750000000004 1.1418581250000002 -0.045500625
v -0.16474750000000002 1.2119481250000002 -0.02222
v -0.09377750000000003 1.183896875 -0.148401875
v -0.16422312500000003 1.235206875 -0.056880625
v -0.09377750000000001 1.2485881250000002 -0.163790625
v -0.16404 1.27852875 -0.07690625
v 0.164053125 1.279874375 -0.0773825
v 0.16399312499999996 1.235281875 -0.056575
v 0.09375374999999998 1.24993375 -0.164266875
v 0.09375374999999997 1.1839718750000001 -0.14809625
v 0.16451062499999997 1.211350625 -0.021676875
v 0.09375374999999996 1.14126 -0.0449575
v 0.16506687499999997 1.211816875 0.018006875
v 0.09375374999999996 1.14172625 0.0412875
v 0.16481062499999996 1.23586875 0.05265375
v 0.09375374999999997 1.18455875 0.1162575
v 0.164406875 1.27840125 0.073320625
v 0.09375374999999998 1.259620625 0.160205
v 0.164245625 1.32812375 0.07347125
v 0.09375375000000001 1.346904375 0.160355625
v 0.16444312500000002 1.370814375 0.052914375
v 0.09375375000000002 1.422124375 0.116518125
v 0.16463187500000004 1.395719375 0.01583875
v 0.09375375000000004 1.465809375 0.039119375
v -0.17921812499999998 1.4102412500000001 -0.025861875
vt 0.0846015625 0.64905703125
vt 0.08905234375 0.6510671875
vt 0.08203125 0.6565601562500001
vt 0.436414921875 0.8046875
vt 0.4222328125 0.8046875
vt 0.42485296875 0.79416671875
vt 0.4375 0.79891453125
vt 0.37060625 0.71875
vt 0.369728125 0.703125
vt 0.3828125 0.703125
vt 0.38193828125 0.71875
vt 0.307228125 0.6328125
vt 0.30810625 0.6171875
vt 0.31943828125 0.6171875
vt 0.3203125 0.6328125
vt 0.426957890625 0.8277809375
vt 0.426957890625 0.81359984375
vt 0.43277765625 0.8125
vt 0.4375 0.825141171875
vt 0.34686484375 0.6770578125
vt 0.3424140625 0.67906796875
vt 0.33984375 0.6715648437499999
vt 0.08905234375 0.6510671875
vt 0.091621875 0.6545492187499999
vt 0.08203125 0.6565601562500001
vt 0.436248203125 0.78125
vt 0.422736015625 0.78125
vt 0.425822578125 0.770591796875
vt 0.4375 0.77583203125
vt 0.37060234375 0.7421875
vt 0.3697234375 0.7265625
vt 0.3828125 0.7265625
vt 0.3819375 0.7421875
vt 0.2837859375 0.6328125
vt 0.28466484375 0.6171875
vt 0.296 0.6171875
vt 0.296875 0.6328125
vt 0.2940375 0.577271875
vt 0.2940375 0.5637652343749999
vt 0.29947515625 0.5625
vt 0.3046875 0.574169921875
vt 0.349434375 0.6735757812500001
vt 0.34686484375 0.6770578125
vt 0.33984375 0.6715648437499999
vt 0.091621875 0.6545492187499999
vt 0.091621875 0.6585703125
vt 0.08203125 0.6565601562500001
vt 0.411221640625 0.757784765625
vt 0.408243359375 0.7421875
vt 0.419881640625 0.7421875
vt 0.417003671875 0.7578125
vt 0.36918515625 0.9375
vt 0.3682859375 0.921875
vt 0.3817140625 0.921875
vt 0.38082421875 0.9375
vt 0.0167234375 0.6328125
vt 0.01762296875 0.6171875
vt 0.0292815625 0.6171875
vt 0.0301515625 0.6328125
vt 0.466069609375 0.5703125
vt 0.45341125 0.564608515625
vt 0.4545734375 0.5625
vt 0.46846375 0.5625
vt 0.349434375 0.6695546875
vt 0.349434375 0.6735757812500001
vt 0.33984375 0.6715648437499999
vt 0.091621875 0.6585703125
vt 0.08905234375 0.66205234375
vt 0.08203125 0.6565601562500001
vt 0.271089609375 0.6640625
vt 0.265625 0.6506758593749999
vt 0.28125 0.64765875
vt 0.28125 0.66284125
vt 0.445855 0.9685434375
vt 0.4453125 0.9609375
vt 0.4611734375 0.9609375
vt 0.460314375 0.96875
vt 0.42472734375 0.609609296875
vt 0.4140625 0.60883
vt 0.4140625 0.5944024218749999
vt 0.42495609375 0.59375
vt 0.302509609375 0.65625
vt 0.2890625 0.650935234375
vt 0.290133203125 0.640625
vt 0.305277890625 0.640625
vt 0.34686484375 0.66607265625
vt 0.349434375 0.6695546875
vt 0.33984375 0.6715648437499999
vt 0.08905234375 0.66205234375
vt 0.0846015625 0.6640625
vt 0.08203125 0.6565601562500001
vt 0.392998671875 0.5625
vt 0.390625 0.547494921875
vt 0.3984375 0.546386015625
vt 0.3984375 0.5625
vt 0.4618128125 0.5859375
vt 0.4609375 0.578125
vt 0.47368671875 0.578125
vt 0.473393125 0.5856609374999999
vt 0.4249153125 0.640625
vt 0.4140625 0.63947203125
vt 0.414584765625 0.625
vt 0.425204453125 0.625
vt 0.40625 0.554283203125
vt 0.408496171875 0.53928328125
vt 0.4140625 0.5390625
vt 0.4140625 0.55511078125
vt 0.3424140625 0.6640625
vt 0.34686484375 0.66607265625
vt 0.33984375 0.6715648437499999
vt 0.0846015625 0.6640625
vt 0.07946171875 0.6640625
vt 0.08203125 0.6565601562500001
vt 0.093229140625 0.63595890625
vt 0.0784540625 0.640625
vt 0.0784540625 0.624825
vt 0.0934209375 0.629060703125
vt 0.33649953125 0.7184699218749999
vt 0.3359375 0.703125
vt 0.34733828125 0.703125
vt 0.352244921875 0.71875
vt 0.339326875 0.78886046875
vt 0.3401621875 0.7734375
vt 0.355985625 0.7734375
vt 0.35068875 0.7890625
vt 0.3631853125 0.960274609375
vt 0.367895546875 0.94553046875
vt 0.374746796875 0.9453125
vt 0.3790021875 0.960274609375
vt 0.33727421875 0.6640625
vt 0.3424140625 0.6640625
vt 0.33984375 0.6715648437499999
vt 0.07946171875 0.6640625
vt 0.0750109375 0.66205234375
vt 0.08203125 0.6565601562500001
vt 0.4396828125 0.6171875
vt 0.4375 0.602892734375
vt 0.4453125 0.601000859375
vt 0.4453125 0.616783125
vt 0.340978125 0.76551640625
vt 0.3350640625 0.75
vt 0.3515625 0.75
vt 0.349653125 0.765625
vt 0.3429140625 0.7420179687499999
vt 0.34896328125 0.7265625
vt 0.3576578125 0.7265625
vt 0.359375 0.7421875
vt 0.45911390625 0.734375
vt 0.4448025 0.732285625
vt 0.4451875 0.7265625
vt 0.4609375 0.7265625
vt 0.3328234375 0.66607265625
vt 0.33727421875 0.6640625
vt 0.33984375 0.6715648437499999
vt 0.0750109375 0.66205234375
vt 0.072440625 0.6585703125
vt 0.08203125 0.6565601562500001
vt 0.380818671875 0.6796875
vt 0.3650215625 0.6796875
vt 0.372203046875 0.6677928125
vt 0.3828125 0.6749219531249999
vt 0.398314296875 0.82695734375
vt 0.386168515625 0.828125
vt 0.38664984375 0.8125
vt 0.3984375 0.8125
vt 0.3280203125 0.65625
vt 0.32928671875 0.640625
vt 0.34375 0.640625
vt 0.34354140625 0.6558890625
vt 0.249538828125 0.640625
vt 0.23632703125 0.6319917187499999
vt 0.2373503125 0.625
vt 0.25 0.625
vt 0.330253125 0.6695546875
vt 0.3328234375 0.66607265625
vt 0.33984375 0.6715648437499999
vt 0.072440625 0.6585703125
vt 0.072440625 0.6545492187499999
vt 0.08203125 0.6565601562500001
vt 0.427155859375 0.97653671875
vt 0.424243359375 0.9609375
vt 0.435131640625 0.9609375
vt 0.432223828125 0.9765625
vt 0.025581640625 0.671875
vt 0.024704296875 0.6600539062499999
vt 0.037795703125 0.6600539062499999
vt 0.036918359375 0.671875
vt 0.024704296875 0.6600539062499999
vt 0.025581640625 0.6482359375
vt 0.036918359375 0.6482359375
vt 0.037795703125 0.6600539062499999
vt 0.3811196875 0.56546703125
vt 0.36872515625 0.562331015625
vt 0.36872515625 0.557369921875
vt 0.38127484375 0.5546875
vt 0.330253125 0.6735757812500001
vt 0.330253125 0.6695546875
vt 0.33984375 0.6715648437499999
vt 0.072440625 0.6545492187499999
vt 0.0750109375 0.6510671875
vt 0.08203125 0.6565601562500001
vt 0.0208684375 0.5390625
vt 0.015625 0.527355234375
vt 0.0234375 0.5243876562500001
vt 0.0234375 0.537911875
vt 0.3125 0.578125
vt 0.3125 0.5662678125
vt 0.324808203125 0.566047109375
vt 0.323751875 0.578125
vt 0.1796875 0.616966484375
vt 0.1796875 0.6015625
vt 0.19102265625 0.6015625
vt 0.191904765625 0.6171875
vt 0.472663359375 0.984375
vt 0.4609375 0.9791603125
vt 0.462079609375 0.9765625
vt 0.47559703125 0.9765625
vt 0.3328234375 0.6770578125
vt 0.330253125 0.6735757812500001
vt 0.33984375 0.6715648437499999
vt 0.0750109375 0.6510671875
vt 0.07946171875 0.64905703125
vt 0.08203125 0.6565601562500001
vt 0.45787671875 0.609375
vt 0.453125 0.59670828125
vt 0.4609375 0.5940825000000001
vt 0.4609375 0.608267734375
vt 0.32899921875 0.6328125
vt 0.328125 0.6171875
vt 0.341209375 0.6171875
vt 0.34033125 0.6328125
vt 0.3515625 0.6328125
vt 0.35243671875 0.6171875
vt 0.36376875 0.6171875
vt 0.364646875 0.6328125
vt 0.465808515625 0.9296875
vt 0.453125 0.92495765625
vt 0.454254921875 0.921875
vt 0.46843515625 0.921875
vt 0.33727421875 0.67906796875
vt 0.3328234375 0.6770578125
vt 0.33984375 0.6715648437499999
vt 0.07946171875 0.64905703125
vt 0.0846015625 0.64905703125
vt 0.08203125 0.6565601562500001
vt 0.436280625 0.8515625
vt 0.422091484375 0.8515625
vt 0.423877890625 0.840866875
vt 0.437283515625 0.84549640625
vt 0.12714765625 0.625
vt 0.12627109375 0.609375
vt 0.13935390625 0.609375
vt 0.13847734375 0.625
vt 0.37627109375 0.875
vt 0.37714765625 0.859375
vt 0.38847734375 0.859375
vt 0.38935390625 0.875
vt 0.424232421875 1
vt 0.426518125 0.984375
vt 0.432733828125 0.984375
vt 0.435142578125 0.99996640625
vt 0.3424140625 0.67906796875
vt 0.33727421875 0.67906796875
vt 0.33984375 0.6715648437499999
vt 0.2421875 0.515625
vt 0.234375 0.515625
vt 0.234375 0.5078125
vt 0.2421875 0.5078125
vt 0.484375 0.75
vt 0.4921875 0.75
vt 0.4921875 0.7578125
vt 0.484375 0.7578125
vt 0.4921875 0.984375
vt 0.484375 0.984375
vt 0.484375 0.9765625
vt 0.4921875 0.9765625
vt 0.484375 0.90625
vt 0.4921875 0.90625
vt 0.4921875 0.9140625
vt 0.484375 0.9140625
vt 0.0078125 0.9609375
vt 0 0.9609375
vt 0 0.953125
vt 0.0078125 0.953125
vt 0.0703125 0.9375
vt 0.078125 0.9375
vt 0.078125 0.9453125
vt 0.0703125 0.9453125
vt 0.4921875 0.8984375
vt 0.484375 0.8984375
vt 0.484375 0.890625
vt 0.4921875 0.890625
vt 0.1171875 0.5078125
vt 0.125 0.5078125
vt 0.125 0.515625
vt 0.1171875 0.515625
vt 0.4921875 0.7890625
vt 0.484375 0.7890625
vt 0.484375 0.78125
vt 0.4921875 0.78125
vt 0.484375 0.765625
vt 0.4921875 0.765625
vt 0.4921875 0.7734375
vt 0.484375 0.7734375
vt 0.1640625 0.703125
vt 0.15625 0.703125
vt 0.15625 0.6953125
vt 0.1640625 0.6953125
vt 0.03125 0.6796875
vt 0.0390625 0.6796875
vt 0.0390625 0.6875
vt 0.03125 0.6875
vt 0.1796875 0.515625
vt 0.171875 0.515625
vt 0.171875 0.5078125
vt 0.1796875 0.5078125
vt 0.1875 0.5078125
vt 0.1953125 0.5078125
vt 0.1953125 0.515625
vt 0.1875 0.515625
vt 0.4921875 0.8828125
vt 0.484375 0.8828125
vt 0.484375 0.875
vt 0.4921875 0.875
vt 0.1328125 0.5078125
vt 0.140625 0.5078125
vt 0.140625 0.515625
vt 0.1328125 0.515625
vt 0.09375 0.9765625
vt 0.0859375 0.9765625
vt 0.0859375 0.96875
vt 0.09375 0.96875
vt 0.140625 0.9296875
vt 0.1484375 0.9296875
vt 0.1484375 0.9375
vt 0.140625 0.9375
vt 0.4921875 0.8671875
vt 0.484375 0.8671875
vt 0.484375 0.859375
vt 0.4921875 0.859375
vt 0.484375 0.84375
vt 0.4921875 0.84375
vt 0.4921875 0.8515625
vt 0.484375 0.8515625
vt 0.4921875 0.7421875
vt 0.484375 0.7421875
vt 0.484375 0.734375
vt 0.4921875 0.734375
vt 0.484375 0.71875
vt 0.4921875 0.71875
vt 0.4921875 0.7265625
vt 0.484375 0.7265625
vt 0.1796875 0.921875
vt 0.171875 0.921875
vt 0.171875 0.9140625
vt 0.1796875 0.9140625
vt 0.15625 0.7890625
vt 0.1640625 0.7890625
vt 0.1640625 0.796875
vt 0.15625 0.796875
vt 0.4876290625 0.80468734375
vt 0.483038828125 0.8030178906250001
vt 0.48378640625 0.79959546875
vt 0.489732890625 0.801887890625
vt 0.483038515625 0.8141696093749999
vt 0.487628671875 0.8125
vt 0.489732890625 0.81530015625
vt 0.4837859375 0.817591328125
vt 0.5223828125 0.828125
vt 0.51805546875 0.828125
vt 0.5176234375 0.82464921875
vt 0.5234375 0.82478671875
vt 0.33836796875 0.484375
vt 0.3426953125 0.484375
vt 0.34375 0.49205234374999995
vt 0.3379359375 0.4921875
vt 0.396541796875 0.4921875
vt 0.392520703125 0.4921875
vt 0.391773046875 0.484375
vt 0.397289453125 0.484375
vt 0.509708203125 0.6015625
vt 0.513729296875 0.6015625
vt 0.514476953125 0.609375
vt 0.508960546875 0.609375
vt 0.5210078125 0.8125
vt 0.51668046875 0.8125
vt 0.515625 0.8091609375
vt 0.5214390625 0.80902578125
vt 0.32136796875 0.484375
vt 0.3256953125 0.484375
vt 0.3261265625 0.4921875
vt 0.3203125 0.49205
vt 0.181023984375 0.5295792968749999
vt 0.17643421875 0.53125
vt 0.174330078125 0.528450078125
vt 0.18027671875 0.5261582031250001
vt 0.473308828125 0.8281253125
vt 0.477898671875 0.8297957031250001
vt 0.477151015625 0.83321828125
vt 0.471205078125 0.830924609375
vt 0.186163828125 0.5295792968749999
vt 0.181023984375 0.5295792968749999
vt 0.180276328125 0.526156640625
vt 0.186911484375 0.526156640625
vt 0.477898671875 0.8297957031250001
vt 0.483038515625 0.8297957031250001
vt 0.483786171875 0.833218359375
vt 0.477151015625 0.833218359375
vt 0.190753671875 0.5312496875
vt 0.186163828125 0.5295792968749999
vt 0.186911484375 0.52615671875
vt 0.192857421875 0.528450390625
vt 0.483038515625 0.8297957031250001
vt 0.48762828125 0.828125
vt 0.489732421875 0.830924921875
vt 0.48378578125 0.8332167968749999
vt 0.17081953125 0.484375
vt 0.1664921875 0.484375
vt 0.16606015625 0.48089843750000005
vt 0.171875 0.48103671875
vt 0.0336796875 0.484375
vt 0.03800703125 0.484375
vt 0.0390625 0.49205234374999995
vt 0.03324765625 0.4921875
vt 0.412166796875 0.4921875
vt 0.408145703125 0.4921875
vt 0.407398046875 0.484375
vt 0.412914453125 0.484375
vt 0.423770703125 0.484375
vt 0.427791796875 0.484375
vt 0.428539453125 0.4921875
vt 0.423023046875 0.4921875
vt 0.18506953125 0.484375
vt 0.1807421875 0.484375
vt 0.1796875 0.48103593749999995
vt 0.1855015625 0.48090078125
vt 0.0791796875 0.484375
vt 0.08350703125 0.484375
vt 0.0839390625 0.4921875
vt 0.078125 0.49205
vt 0.477898984375 0.8030178906250001
vt 0.473308828125 0.8046875
vt 0.471204609375 0.80188734375
vt 0.4771515625 0.799596171875
vt 0.4733084375 0.81250015625
vt 0.477898671875 0.8141696093749999
vt 0.47715109375 0.81759203125
vt 0.471204609375 0.815299609375
vt 0.483038828125 0.8030178906250001
vt 0.477898984375 0.8030178906250001
vt 0.477151328125 0.799595234375
vt 0.483786484375 0.799595234375
vt 0.477898671875 0.8141696093749999
vt 0.483038515625 0.8141696093749999
vt 0.483786171875 0.817592265625
vt 0.477151015625 0.817592265625
vt 0.1328125 0.5251121875
vt 0.1328125 0.538996015625
vt 0.125 0.5390625
vt 0.125172734375 0.525577734375
vt 0.515625 0.65828046875
vt 0.515625 0.6640625
vt 0.507863828125 0.6638096875
vt 0.5078125 0.6582931249999999
vt 0.522174609375 0.887896015625
vt 0.515880859375 0.887951484375
vt 0.516006640625 0.886613984375
vt 0.521823046875 0.886606953125
vt 0.522493125 0.95041328125
vt 0.515625 0.9504234375
vt 0.515741796875 0.94909828125
vt 0.52211515625 0.949124453125
vt 0.535080703125 0.84375
vt 0.519524765625 0.84375
vt 0.520046796875 0.8426090625
vt 0.535162734375 0.842410703125
vt 0.5078125 0.8055653125
vt 0.5078125 0.8124684375
vt 0.5 0.8125
vt 0.500064609375 0.805865703125
vt 0.53125 0.516932578125
vt 0.517507734375 0.516932578125
vt 0.5178934375 0.515625
vt 0.5312071875 0.51569015625
vt 0.522135234375 0.5078125
vt 0.522135234375 0.494044453125
vt 0.523393359375 0.494111640625
vt 0.5234375 0.50742328125
vt 0.203125 0.49904242187500003
vt 0.203161875 0.4921875
vt 0.2109375 0.49240796875000004
vt 0.2109375 0.49904242187500003
vt 0.515625 0.86723125
vt 0.515625 0.85166953125
vt 0.516981015625 0.8515625
vt 0.51674828125 0.8666803125
vt 0.515625 0.932409296875
vt 0.52248046875 0.932459296875
vt 0.52221015625 0.933767890625
vt 0.51583671875 0.933734296875
vt 0.22549265625 0.702432421875
vt 0.222087265625 0.714606328125
vt 0.220875546875 0.714188125
vt 0.224145 0.702432421875
vt 0.222085625 0.690258984375
vt 0.22549265625 0.702432421875
vt 0.22414578125 0.702432421875
vt 0.2208746875 0.690680859375
vt 0.10986625 0.47924546874999996
vt 0.1162396875 0.47929234374999996
vt 0.11592875 0.48058218750000004
vt 0.11011234375 0.48055875000000003
vt 0.213085859375 0.6796875
vt 0.222085625 0.690258984375
vt 0.220873984375 0.69068109375
vt 0.21200734375 0.6805178125
vt 0.500994921875 0.5078125
vt 0.506817578125 0.5078125
vt 0.506799921875 0.515625
vt 0.50128421875 0.515553671875
vt 0.03716109375 0.7086709375
vt 0.027621875 0.719536015625
vt 0.0254925 0.717830390625
vt 0.034750859375 0.7074757031250001
vt 0.522359296875 0.890616640625
vt 0.515625 0.890625
vt 0.515880859375 0.887951484375
vt 0.522174609375 0.887896015625
vt 0.09375 0.5286796874999999
vt 0.09114453125 0.5390625
vt 0.08845546875 0.53811953125
vt 0.09089921875 0.5286632812500001
vt 0.091259453125 0.518279921875
vt 0.09375 0.5286796874999999
vt 0.09089765625 0.5286632812500001
vt 0.08857546875 0.5191921875000001
vt 0.063665703125 0.53125
vt 0.078125 0.53125
vt 0.077433984375 0.5389377343749999
vt 0.063544453125 0.5390625
vt 0.109375 0.47662351562500005
vt 0.116258203125 0.4765625
vt 0.11623828125 0.47929234374999996
vt 0.10986625 0.47924546874999996
vt 0.515644921875 0.9296875
vt 0.523030390625 0.9298446875
vt 0.5224803125 0.932459296875
vt 0.515625 0.932409296875
vt 0.025153125 0.7512449999999999
vt 0.0370171875 0.74038796875
vt 0.0390625 0.7421840625
vt 0.02751015625 0.75248328125
vt 0.45594375 0.5260140625
vt 0.4581640625 0.515625
vt 0.4609375 0.51662890625
vt 0.4589046875 0.52603359375
vt 0.4580396875 0.536434453125
vt 0.45594375 0.5260140625
vt 0.458906171875 0.52603359375
vt 0.460772734375 0.535458125
vt 0.03691546875 0.7890625
vt 0.025085 0.77809703125
vt 0.027447421875 0.776853984375
vt 0.038940078125 0.787245859375
vt 0.52324921875 0.95298984375
vt 0.51594375 0.953125
vt 0.515625 0.9504234375
vt 0.52249296875 0.95041328125
vt 0.026174296875 0.755373671875
vt 0.024360859375 0.75459671875
vt 0.025153125 0.7512449999999999
vt 0.027516640625 0.75248671875
vt 0.024002109375 0.7646570312500001
vt 0.026174296875 0.755373671875
vt 0.027516796875 0.752486328125
vt 0.024675546875 0.7646594531249999
vt 0.02612234375 0.773959140625
vt 0.024002109375 0.7646570312500001
vt 0.024675546875 0.7646594531249999
vt 0.02744734375 0.77685375
vt 0.024309296875 0.774735078125
vt 0.02612234375 0.773959140625
vt 0.027447421875 0.776853984375
vt 0.025085703125 0.7780966406250001
vt 0.46875 0.6484375
vt 0.47882734375 0.6484375
vt 0.47863796875 0.656221171875
vt 0.468933359375 0.65625
vt 0.3515625 0.515625
vt 0.3515625 0.52571484375
vt 0.34375 0.52549875
vt 0.343782734375 0.51577921875
vt 0.4765625 0.9375
vt 0.4765625 0.950425859375
vt 0.46876703125 0.95015
vt 0.46875 0.93769515625
vt 0.4609375 0.90625
vt 0.473857890625 0.90625
vt 0.47363125 0.9140625
vt 0.46118421875 0.91404546875
vt 0.0362484375 0.70458359375
vt 0.03809265625 0.705332421875
vt 0.03716109375 0.7086709375
vt 0.034749609375 0.707475078125
vt 0.0390625 0.6953125
vt 0.0362484375 0.70458359375
vt 0.03474921875 0.70747578125
vt 0.03827109375 0.6953484375000001
vt 0.466926953125 0.6640625
vt 0.4765625 0.6640625
vt 0.47634453125 0.671875
vt 0.463699609375 0.671875
vt 0.53125 0.99925078125
vt 0.52961796875 1
vt 0.52792890625 0.99706640625
vt 0.53030078125 0.9959890625
vt 0.359375 0.972382109375
vt 0.360096328125 0.96952265625
vt 0.361120234375 0.97052703125
vt 0.361168984375 0.972495078125
vt 0.46875 0.625
vt 0.46875 0.6153782812499999
vt 0.4765625 0.615324296875
vt 0.4765625 0.6248585156249999
vt 0.50960796875 0.47837101562499995
vt 0.5 0.47837101562499995
vt 0.50011375 0.476570625
vt 0.509654140625 0.4765625
vt 0.359375 0.760013125
vt 0.3599340625 0.7571638281249999
vt 0.361646796875 0.757750234375
vt 0.360788671875 0.75952328125
vt 0.369513203125 0.765625
vt 0.359375 0.760013125
vt 0.360790625 0.75952265625
vt 0.369983359375 0.763650859375
vt 0.360096328125 0.96952265625
vt 0.371673671875 0.96875
vt 0.371207265625 0.9707359375
vt 0.361119765625 0.9705265625
vt 0.371673671875 0.96875
vt 0.384283984375 0.97575828125
vt 0.382892265625 0.976260703125
vt 0.371207734375 0.97073390625
vt 0.383946015625 0.76471484375
vt 0.369513203125 0.765625
vt 0.369983515625 0.7636499999999999
vt 0.382903828125 0.76369140625
vt 0.38452609375 0.761925
vt 0.383946015625 0.76471484375
vt 0.3829028125 0.763690390625
vt 0.382891015625 0.7617025
vt 0.197374765625 0.46875
vt 0.197019765625 0.478510390625
vt 0.195367109375 0.478510390625
vt 0.1953125 0.46882710937500005
vt 0.468764140625 0.6328125
vt 0.47851609375 0.6328125
vt 0.478385 0.640625
vt 0.46875 0.640625
vt 0.384283984375 0.97575828125
vt 0.3836621875 0.97852421875
vt 0.381762265625 0.97764671875
vt 0.38289640625 0.97625921875
vt 0.04370390625 0.9189953125
vt 0.03823671875 0.90933984375
vt 0.03891484375 0.90867109375
vt 0.0445796875 0.9184890625
vt 0.140625 0.536903046875
vt 0.14125421875 0.52411546875
vt 0.1484375 0.5234375
vt 0.1484375 0.53692109375
vt 0.50997875 0.9921875
vt 0.51554921875 0.9921875
vt 0.515625 1
vt 0.509808984375 0.999965703125
vt 0.03823671875 0.90933984375
vt 0.0288625 0.90389140625
vt 0.02910234375 0.90300234375
vt 0.03891484375 0.90867109375
vt 0.3609753125 0.4921875
vt 0.3668590625 0.4921875
vt 0.3671875 0.4999675
vt 0.360814140625 0.5
vt 0.0288625 0.90389140625
vt 0.01801875 0.90390234375
vt 0.01777265625 0.90300234375
vt 0.02910234375 0.90300234375
vt 0.5 0.7173262499999999
vt 0.5 0.71117703125
vt 0.5078125 0.7109375
vt 0.5078125 0.71757265625
vt 0.01801875 0.90390234375
vt 0.0086546875 0.90935625
vt 0.0079609375 0.90867109375
vt 0.01777265625 0.90300234375
vt 0.5234375 0.779474296875
vt 0.5234375 0.773597421875
vt 0.524799375 0.7734375
vt 0.52476296875 0.7798109375
vt 0.0086546875 0.90935625
vt 0.00326953125 0.9187484375
vt 0.0022953125 0.9184890625
vt 0.0079609375 0.90867109375
vt 0.5234375 0.747652890625
vt 0.5234375 0.742345625
vt 0.52479765625 0.7421875
vt 0.52475921875 0.748003828125
vt 0.00326953125 0.9187484375
vt 0.00326640625 0.9296359375
vt 0.0022953125 0.92982578125
vt 0.0022953125 0.9184890625
vt 0.3763321875 0.484375
vt 0.3813996875 0.484375
vt 0.381664453125 0.49216351562500005
vt 0.376148046875 0.4921875
vt 0.00326640625 0.9296359375
vt 0.008521875 0.9424984375
vt 0.0079609375 0.94313359375
vt 0.0022953125 0.92982578125
vt 0.01782390625 0.484375
vt 0.023041875 0.484375
vt 0.0234375 0.4921875
vt 0.01762234375 0.492176015625
vt 0.12569 0.48376835937499996
vt 0.140625 0.48281359375
vt 0.140625 0.48420656250000005
vt 0.125 0.484375
vt 0.008521875 0.9424984375
vt 0.0166078125 0.94442265625
vt 0.01637734375 0.9453125
vt 0.0079609375 0.94313359375
vt 0.52504453125 0.7890625
vt 0.53101015625 0.7890921875
vt 0.53125 0.79039921875
vt 0.52487734375 0.7904453124999999
vt 0.14982234375 0.46923765625
vt 0.149041796875 0.48367984374999995
vt 0.1484375 0.484375
vt 0.1484375 0.46925523437500005
vt 0.085706953125 0.4765625
vt 0.0795553125 0.4765625
vt 0.079563984375 0.47516875000000003
vt 0.0859375 0.47520898437500003
vt 0.08708828125 0.95395546875
vt 0.07884375 0.95597734375
vt 0.0782734375 0.95530390625
vt 0.08668984375 0.953125
vt 0.5078125 0.4944903125
vt 0.5078125 0.49978
vt 0.5 0.5
vt 0.500034921875 0.49418343750000004
vt 0.07884375 0.95597734375
vt 0.0735046875 0.96886953125
vt 0.0726078125 0.96861171875
vt 0.0782734375 0.95530390625
vt 0.515625 0.565096171875
vt 0.515625 0.57005796875
vt 0.5078125 0.5703125
vt 0.507826875 0.564796171875
vt 0.0735046875 0.96886953125
vt 0.0735625 0.97965
vt 0.0726078125 0.9799484375
vt 0.0726078125 0.96861171875
vt 0.529014921875 0.734375
vt 0.52374203125 0.734375
vt 0.5234375 0.733051796875
vt 0.52925390625 0.733027578125
vt 0.0735625 0.97965
vt 0.07891640625 0.98902109375
vt 0.0782734375 0.98976640625
vt 0.0726078125 0.9799484375
vt 0.529609765625 0.765625
vt 0.523698359375 0.765625
vt 0.5234375 0.764281171875
vt 0.529810390625 0.764263828125
vt 0.07891640625 0.98902109375
vt 0.08829921875 0.99451484375
vt 0.08808515625 0.99543515625
vt 0.0782734375 0.98976640625
vt 0.296081015625 0.5
vt 0.28986609375 0.5
vt 0.2896515625 0.4921875
vt 0.2962859375 0.4921875
vt 0.08829921875 0.99451484375
vt 0.09921015625 0.99453359375
vt 0.09941484375 0.99543515625
vt 0.08808515625 0.99543515625
vt 0.3125 0.49387539062499997
vt 0.3125 0.499798203125
vt 0.3046875 0.5
vt 0.3047025 0.49362656250000003
vt 0.09921015625 0.99453359375
vt 0.1086125 0.98905390625
vt 0.10922734375 0.98976640625
vt 0.09941484375 0.99543515625
vt 0.4921875 0.4941725
vt 0.4921875 0.49975539062499996
vt 0.484416640625 0.5
vt 0.484375 0.49418484375000005
vt 0.48935734375 0.484375
vt 0.4765625 0.484375
vt 0.476579375 0.48298132812500005
vt 0.490047890625 0.48366875
vt 0.1086125 0.98905390625
vt 0.1140734375 0.97937890625
vt 0.1148921875 0.9799484375
vt 0.10922734375 0.98976640625
vn -1 2.220446049250313e-16 0
vn -0.7680205387259984 0.3217920744885873 0.5537095925585529
vn -0.2688700896554486 0.48180970653983823 0.8340073630206546
vn 0.26893358755600516 0.48179694724547617 0.8339942608370855
vn 0.7753131429403763 0.2710957364914524 0.5704354757902711
vn 1 -2.220446049250313e-16 0
vn -1 2.220446049250313e-16 0
vn -0.7318205200180683 0.5930282275089921 0.33579197110417547
vn -0.2687887235379039 0.8342858739953323 0.4813727272610166
vn 0.2688515804667152 0.8342729238297518 0.4813600692258411
vn 0.7417086403926072 0.555014863385819 0.37659898325376684
vn 1 -2.220446049250313e-16 0
vn -1 2.220446049250313e-16 0
vn -0.6545884945550274 0.7559672203423402 -0.005240664467272332
vn -0.269759763426892 0.9629058771051177 -0.006476254495560984
vn 0.26967281491280504 0.9629209148542771 -0.007738516214758073
vn 0.6533812616750838 0.7569269829149443 -0.012428573013639855
vn 1 -2.220446049250313e-16 0
vn -1 2.220446049250313e-16 0
vn -0.659089390282352 0.6478506678313074 -0.3819563951654251
vn -0.2626313001198959 0.858623822030741 -0.4402157794067088
vn 0.26078410689905795 0.8616377605472643 -0.4353986899244833
vn 0.6501532695407156 0.6172087985599998 -0.44311852261628526
vn 1 -2.220446049250313e-16 0
vn -1 2.220446049250313e-16 0
vn -0.701450290074538 0.4163508307614255 -0.5784630293101001
vn -0.2526780005103867 0.45411476275665813 -0.8543615220177799
vn 0.2518490692800201 0.4727062596555197 -0.8444648236518063
vn 0.6926239471460446 0.3265865945269672 -0.6431277199088152
vn 1 -2.220446049250313e-16 0
vn -1 2.220446049250313e-16 0
vn -0.7162703990740796 0.034345894313701844 -0.6969770978691128
vn -0.22699974944509366 0.12918102810752904 -0.9652892704930198
vn 0.22179344589475988 0.04824942625577987 -0.97389920434515
vn 0.7082806873153512 0.005142914890621536 -0.7059121888751615
vn 1 -2.220446049250313e-16 0
vn -1 2.220446049250313e-16 0
vn -0.7929894953392483 -0.14099063390565342 -0.5926966352464693
vn -0.18572746118763925 -0.1819982078693957 -0.965599276352837
vn 0.15302889844808812 -0.2476478394018441 -0.9566884048003107
vn 0.7925933425320478 -0.25870636779495026 -0.5521474518968825
vn 1 -2.220446049250313e-16 0
vn -1 2.220446049250313e-16 0
vn -0.7589632909546702 -0.6027719346200128 -0.24625336102823886
vn -0.2491419420671639 -0.9214294251644428 -0.2981545021362691
vn 0.2589122243432795 -0.8887294668929004 -0.378317848854474
vn 0.8035777469060322 -0.4852463936045307 -0.3446719341217414
vn 1 -2.220446049250313e-16 0
vn -1 2.220446049250313e-16 0
vn -0.7026521496413325 -0.7115335021437232 0.00017869387991974214
vn -0.12917050841343883 -0.9916223977685326 0
vn 0.12920268413067465 -0.9916182059711435 0
vn 0.7040063039129261 -0.7101920878163429 -0.0015239599485229107
vn 1 -2.220446049250313e-16 0
vn -1 2.220446049250313e-16 0
vn -0.712686419098495 -0.6085335861398308 0.3489483379704819
vn -0.14748714327092138 -0.910862604838635 0.38545668715999654
vn 0.14858596197098908 -0.8565488155519827 0.49421284734580867
vn 0.7041781331404994 -0.5808081980415296 0.40840542833624616
vn 1 -2.220446049250313e-16 0
vn -1 2.220446049250313e-16 0
vn -0.7513154224558102 -0.3321667975772117 0.5702546401103171
vn -0.26886605924570595 -0.48181026933715343 0.8340083372166879
vn 0.2689289327236899 -0.4817975973951576 0.8339953862512375
vn 0.7453962892287473 -0.2856059314673411 0.602340123115409
vn 1 -2.220446049250313e-16 0
vn -1 2.220446049250313e-16 0
vn -0.7761508905373449 -0.0005905443748248183 0.6305469422457205
vn -0.2689076870677486 5.970950113626219e-17 0.9631659544626119
vn 0.2689708799981808 -5.972353278553406e-17 0.9631483093028842
vn 0.7757894957164304 0.0006044136782315579 0.6309915158067912
vn 1 -2.220446049250313e-16 0
vn 9.609435848219032e-17 0.4327705170527992 0.9015041206616046
vn 9.609435848219032e-17 0.4327705170527992 0.9015041206616046
vn 1.82389773614839e-16 0.821410516487978 0.5703374118913764
vn 1.82389773614839e-16 0.821410516487978 0.5703374118913764
vn 2.220446049250313e-16 1 0
vn 2.220446049250313e-16 1 0
vn 1.8238880347950961e-16 0.8214061473868701 -0.5703437043003625
vn 1.8238880347950961e-16 0.8214061473868701 -0.5703437043003625
vn 9.609657040033345e-17 0.43278047864652436 -0.9014993384925389
vn 9.609657040033345e-17 0.43278047864652436 -0.9014993384925389
vn 0 0 -1
vn 0 0 -1
vn -9.609657040033345e-17 -0.43278047864652436 -0.9014993384925389
vn -9.609657040033345e-17 -0.43278047864652436 -0.9014993384925389
vn -1.8238880347950961e-16 -0.8214061473868701 -0.5703437043003625
vn -1.8238880347950961e-16 -0.8214061473868701 -0.5703437043003625
vn -2.220446049250313e-16 -1 0
vn -2.220446049250313e-16 -1 0
vn -1.82389773614839e-16 -0.821410516487978 0.5703374118913764
vn -1.82389773614839e-16 -0.821410516487978 0.5703374118913764
vn -9.609435848219032e-17 -0.4327705170527992 0.9015041206616046
vn -9.609435848219032e-17 -0.4327705170527992 0.9015041206616046
vn 0 0 1
vn 0 0 1
vn -0.8214521401897794 0.23473989439270881 0.519724507174841
vn 0.8067592439557947 0.24322051568356123 0.5385009777544487
vn -0.8219176190696633 0.45830842528533433 0.33823780802171316
vn 0.8052675946492293 0.47705989023342543 0.3520766424208184
vn -0.815517922536359 0.5787318187398905 0
vn 0.8155179225363592 0.5787318187398901 0
vn -0.805267594649229 0.4770598902334257 -0.3520766424208184
vn 0.8219132887399709 0.45831345280616864 -0.33824151839999356
vn -0.8067518250705522 0.2432246851268963 -0.5385102090863787
vn 0.8214521401897794 0.23473989439270837 -0.5197245071748409
vn -0.8156860853181125 1.8111869455730567e-16 -0.5784947797676425
vn 0.8156860853181125 -1.8111869455730567e-16 -0.5784947797676425
vn -0.8214521401897794 -0.23473989439270845 -0.519724507174841
vn 0.8067518250705524 -0.24322468512689635 -0.5385102090863787
vn -0.8219132887399708 -0.4583134528061685 -0.33824151839999367
vn 0.8052675946492288 -0.4770598902334259 -0.3520766424208187
vn -0.8155179225363589 -0.5787318187398904 0
vn 0.8155179225363587 -0.5787318187398909 0
vn -0.805267594649229 -0.4770598902334255 0.35207664242081865
vn 0.8219176190696632 -0.4583084252853341 0.3382378080217132
vn -0.8067592439557946 -0.24322051568356123 0.5385009777544487
vn 0.8214521401897792 -0.23473989439270884 0.519724507174841
vn -0.8156860853181123 1.8111869455730562e-16 0.5784947797676426
vn 0.8156860853181123 -1.8111869455730562e-16 0.5784947797676426
vn -0.1651252353582282 -0.12950103925170348 0.9777336741058981
vn -0.7618736407381957 -0.6476521006378243 0.009762790981088591
vn -0.7483017731003051 -0.5442447045592672 0.3792652870144268
vn -0.7196068710437118 -0.29924441806719815 0.6265929535211058
vn -0.3104919348963641 -0.950211838022947 0.026310097783269447
vn -0.7327263504335636 -0.008154547556872496 0.6804745393726743
vn 0.3864746300731288 -0.9188669743221355 -0.07950373456588379
vn -0.36937918984658447 -0.9160170647112713 -0.1564344951282412
vn 0.7270750827449703 -0.0039367246589011844 0.6865466672050449
vn 0.1770943654197622 -0.9709521102574873 0.16090240931416785
vn 0.7428294052623662 -0.2854434304946358 0.6055794932665847
vn -0.06566641637958744 -0.02275317176141338 0.9975821845515579
vn 0.07203878388918629 -1.599582330795408e-17 0.997401831568284
vn 0.7554524774173931 -0.536148519050687 0.3766116300430441
vn 0.2122805113770305 -0.07407491324861176 0.9743971940213688
vn 0.7868287907794017 -0.6170779765917611 0.010734281813077652
vn -0.10187009119156301 0.4241510041358695 0.8998435476298958
vn -0.7528369585228086 -0.5298942547052593 0.39044665796045064
vn -0.11346014289361313 0.6464580816083786 0.7544658671522363
vn 0.1279221272586007 0.6662532617454906 0.7346717093853071
vn 0.15025883047987323 0.4609176376882232 0.8746297588869982
vn 0.786318821580994 -0.49213084850066935 0.3735102927383507
vn 0.7466221898900699 -0.2863131608308552 0.6004832050097666
vn -0.02100681445158313 -0.8919902944212468 -0.4515661949314788
vn 0.09445615659117651 -0.6894799507748031 -0.7181193716657408
vn -0.10424243620700975 -0.6677785141474496 -0.7370246743065337
vn -0.07628737194751666 -0.8590664164966807 -0.5061473391502643
vn -0.7388950128129312 -0.2949096049594344 0.6058568188465396
vn 0.03249403559374576 -0.8608980789349653 -0.5077387471297803
vn 0.043243204609259726 -0.8576065923276309 -0.5124850808085152
vn -0.05730487278119629 -0.8371053409220559 -0.5440319841289659
vn -0.0506158033754763 -0.8504980182047186 -0.5235371634167926
vn -0.22621380317117223 0.5533480021571794 -0.8016441253845078
vn 0.2696036301573232 0.5442355196462724 -0.7944316092410634
vn 0.2652931403815909 0.8290100649662675 -0.49230261207015613
vn -0.2680310209752243 0.8291016154427494 -0.4906626978538335
vn -0.06093131120387596 0.47690310289664023 0.876841380046889
vn 0.05351261403151943 0.26528983586940524 0.9626825557388571
vn 0.18740745093365463 0.8127700298449255 0.55161882302948
vn -0.1761358261290526 0.3447485983312138 0.922022003372208
vn 0.9402919993210642 -0.23021960482488815 0.250698802484312
vn -0.22543342794835203 -0.5817457518944853 0.7815060138707668
vn 0.2135363270661026 -0.5985390565142981 0.7721096002835949
vn -0.9351746799623235 -0.18162921614265737 0.3040709552074477
vn -0.9584679789150605 -0.1546858044145408 0.23960683485056425
vn 0.9674144271069453 -0.13858362435285793 0.21190541589720455
vn 0.9535635691977566 -0.26138359272149714 0.14965004829547518
vn -0.9670138744000335 -0.21963285452505046 0.12901773494761948
vn -0.9435920520963312 -0.2683844774656697 0.19391702214120887
vn 0.2562159034663773 -0.7588184006721234 0.5987888155370884
vn -0.26385581788806406 -0.8407956857423847 0.47269728389701354
vn 0.936055288742943 -0.33172031146476283 0.11731211096083256
vn -1 2.220446049250313e-16 0
vn 0.20551769278087695 -0.48955680309406363 0.8474058145294647
vn 0.724914507579796 0.5725452198599124 0.383002516853227
vn -1 2.220446049250313e-16 0
vn 0.6736298808702609 0.32207223576326677 0.6652009159262853
vn -1 2.220446049250313e-16 0
vn 0.6582110708118272 -0.002456020118341333 0.7528294323589682
vn -1 2.220446049250313e-16 0
vn 0.6736531128318316 -0.32460395681505505 0.6639455962592068
vn -1 2.220446049250313e-16 0
vn 0.7073399879192738 -0.5823106164878309 0.4007299432484729
vn -1 2.220446049250313e-16 0
vn 0.7260394482998804 -0.6876324041591246 0.0053288143847915964
vn -1 2.220446049250313e-16 0
vn 0.6910866450114139 -0.6049620635823768 -0.39549987447914625
vn -0.04141336505681654 -0.9544687435660776 0.29542232608600233
vn -1 2.220446049250313e-16 0
vn 0.6215331726841222 -0.33086653221017853 -0.7100872151478437
vn -0.14871197373084874 -0.8916555585602036 0.42759222836455607
vn -0.6611726025229653 -0.3165030273415494 -0.6802033691159163
vn 1 -2.220446049250313e-16 0
vn -0.6275699152124867 -0.6464009026155215 -0.43396068326293286
vn 1 -2.220446049250313e-16 0
vn -0.6690675274422876 -0.7429809909150785 0.018107756932092708
vn 1 -2.220446049250313e-16 0
vn -0.7210767289411621 -0.5716424423423848 0.3915013015206298
vn 1 -2.220446049250313e-16 0
vn -0.708243805195124 -0.31396729465350576 0.6323094576951146
vn 1 -2.220446049250313e-16 0
vn -0.6772604248381903 -0.004425111071272629 0.7357300696179279
vn 1 -2.220446049250313e-16 0
vn -0.6613449583453114 0.3279060980472417 0.6746113228627808
vn 1 -2.220446049250313e-16 0
vn -0.6729910028522783 0.6155678303142053 0.4100723794187394
vn -0.14611376643162058 -0.44176326024004886 0.8851530879804062
vn 1 -2.220446049250313e-16 0
usemtl m_7ecca7f4-36ac-79de-f5df-1a8ab898bcc7
f 77/1/1 78/2/1 76/3/1
f 167/4/2 166/5/2 162/6/2 164/7/2
f 2/8/3 3/9/3 8/10/3 7/11/3
f 3/12/4 4/13/4 9/14/4 8/15/4
f 193/16/5 192/17/5 194/18/5 195/19/5
f 91/20/6 90/21/6 89/22/6
f 78/23/7 79/24/7 76/25/7
f 164/26/8 162/27/8 163/28/8 165/29/8
f 7/30/9 8/31/9 13/32/9 12/33/9
f 8/34/10 9/35/10 14/36/10 13/37/10
f 195/38/11 194/39/11 196/40/11 197/41/11
f 92/42/12 91/43/12 89/44/12
f 79/45/13 80/46/13 76/47/13
f 104/48/14 102/49/14 103/50/14 198/51/14
f 102/52/15 119/53/15 117/54/15 103/55/15
f 119/56/16 120/57/16 118/58/16 117/59/16
f 120/60/17 122/61/17 121/62/17 118/63/17
f 93/64/18 92/65/18 89/66/18
f 80/67/19 81/68/19 76/69/19
f 125/70/20 123/71/20 124/72/20 126/73/20
f 158/74/21 157/75/21 153/76/21 154/77/21
f 157/78/22 156/79/22 155/80/22 153/81/22
f 127/82/23 129/83/23 130/84/23 128/85/23
f 94/86/24 93/87/24 89/88/24
f 81/89/25 82/90/25 76/91/25
f 126/92/26 124/93/26 133/94/26 134/95/26
f 154/96/27 153/97/27 147/98/27 151/99/27
f 153/100/28 155/101/28 148/102/28 147/103/28
f 128/104/29 130/105/29 131/106/29 132/107/29
f 95/108/30 94/109/30 89/110/30
f 82/111/31 83/112/31 76/113/31
f 107/114/32 106/115/32 108/116/32 109/117/32
f 106/118/33 110/119/33 111/120/33 108/121/33
f 110/122/34 112/123/34 113/124/34 111/125/34
f 112/126/35 114/127/35 115/128/35 113/129/35
f 96/130/36 95/131/36 89/132/36
f 83/133/37 84/134/37 76/135/37
f 179/136/38 178/137/38 176/138/38 177/139/38
f 23/140/39 24/141/39 29/142/39 28/143/39
f 24/144/40 25/145/40 30/146/40 29/147/40
f 182/148/41 180/149/41 181/150/41 183/151/41
f 97/152/42 96/153/42 89/154/42
f 84/155/43 85/156/43 76/157/43
f 177/158/44 176/159/44 174/160/44 175/161/44
f 28/162/45 29/163/45 34/164/45 33/165/45
f 29/166/46 30/167/46 35/168/46 34/169/46
f 183/170/47 181/171/47 184/172/47 185/173/47
f 98/174/48 97/175/48 89/176/48
f 85/177/49 86/178/49 76/179/49
f 175/180/50 174/181/50 172/182/50 173/183/50
f 33/184/51 34/185/51 39/186/51 38/187/51
f 34/188/52 35/189/52 40/190/52 39/191/52
f 185/192/53 184/193/53 186/194/53 187/195/53
f 99/196/54 98/197/54 89/198/54
f 86/199/55 87/200/55 76/201/55
f 173/202/56 172/203/56 170/204/56 171/205/56
f 38/206/57 39/207/57 44/208/57 43/209/57
f 39/210/58 40/211/58 45/212/58 44/213/58
f 187/214/59 186/215/59 188/216/59 189/217/59
f 100/218/60 99/219/60 89/220/60
f 87/221/61 88/222/61 76/223/61
f 171/224/62 170/225/62 168/226/62 169/227/62
f 43/228/63 44/229/63 49/230/63 48/231/63
f 44/232/64 45/233/64 50/234/64 49/235/64
f 189/236/65 188/237/65 190/238/65 191/239/65
f 101/240/66 100/241/66 89/242/66
f 88/243/67 77/244/67 76/245/67
f 169/246/68 168/247/68 166/248/68 167/249/68
f 48/250/69 49/251/69 3/252/69 2/253/69
f 49/254/70 50/255/70 4/256/70 3/257/70
f 191/258/71 190/259/71 192/260/71 193/261/71
f 90/262/72 101/263/72 89/264/72
f 53/265/73 52/266/73 1/267/73 6/268/73
f 64/269/74 65/270/74 10/271/74 5/272/74
f 54/273/75 53/274/75 6/275/75 11/276/75
f 65/277/76 66/278/76 15/279/76 10/280/76
f 55/281/77 54/282/77 11/283/77 16/284/77
f 66/285/78 67/286/78 17/287/78 15/288/78
f 56/289/79 55/290/79 16/291/79 18/292/79
f 67/293/80 68/294/80 19/295/80 17/296/80
f 57/297/81 56/298/81 18/299/81 20/300/81
f 68/301/82 69/302/82 21/303/82 19/304/82
f 58/305/83 57/306/83 20/307/83 22/308/83
f 69/309/84 70/310/84 26/311/84 21/312/84
f 59/313/85 58/314/85 22/315/85 27/316/85
f 70/317/86 71/318/86 31/319/86 26/320/86
f 60/321/87 59/322/87 27/323/87 32/324/87
f 71/325/88 72/326/88 36/327/88 31/328/88
f 61/329/89 60/330/89 32/331/89 37/332/89
f 72/333/90 73/334/90 41/335/90 36/336/90
f 62/337/91 61/338/91 37/339/91 42/340/91
f 73/341/92 74/342/92 46/343/92 41/344/92
f 63/345/93 62/346/93 42/347/93 47/348/93
f 74/349/94 75/350/94 51/351/94 46/352/94
f 52/353/95 63/354/95 47/355/95 1/356/95
f 75/357/96 64/358/96 5/359/96 51/360/96
f 78/361/97 77/362/97 52/363/97 53/364/97
f 90/365/98 91/366/98 65/367/98 64/368/98
f 79/369/99 78/370/99 53/371/99 54/372/99
f 91/373/100 92/374/100 66/375/100 65/376/100
f 80/377/101 79/378/101 54/379/101 55/380/101
f 92/381/102 93/382/102 67/383/102 66/384/102
f 81/385/103 80/386/103 55/387/103 56/388/103
f 93/389/104 94/390/104 68/391/104 67/392/104
f 82/393/105 81/394/105 56/395/105 57/396/105
f 94/397/106 95/398/106 69/399/106 68/400/106
f 83/401/107 82/402/107 57/403/107 58/404/107
f 95/405/108 96/406/108 70/407/108 69/408/108
f 84/409/109 83/410/109 58/411/109 59/412/109
f 96/413/110 97/414/110 71/415/110 70/416/110
f 85/417/111 84/418/111 59/419/111 60/420/111
f 97/421/112 98/422/112 72/423/112 71/424/112
f 86/425/113 85/426/113 60/427/113 61/428/113
f 98/429/114 99/430/114 73/431/114 72/432/114
f 87/433/115 86/434/115 61/435/115 62/436/115
f 99/437/116 100/438/116 74/439/116 73/440/116
f 88/441/117 87/442/117 62/443/117 63/444/117
f 100/445/118 101/446/118 75/447/118 74/448/118
f 77/449/119 88/450/119 63/451/119 52/452/119
f 101/453/120 90/454/120 64/455/120 75/456/120
f 102/457/121 104/458/121 11/459/121 12/460/121
f 104/461/122 198/462/122 16/463/122 11/464/122
f 198/465/123 105/466/123 18/467/123 16/468/123
f 105/469/124 107/470/124 20/471/124 18/472/124
f 109/473/125 108/474/125 23/475/125 22/476/125
f 107/477/126 109/478/126 22/479/126 20/480/126
f 108/481/127 111/482/127 24/483/127 23/484/127
f 111/485/128 113/486/128 25/487/128 24/488/128
f 115/489/129 114/490/129 21/491/129 26/492/129
f 113/493/130 115/494/130 26/495/130 25/496/130
f 114/497/131 116/498/131 19/499/131 21/500/131
f 119/501/132 102/502/132 12/503/132 13/504/132
f 120/505/133 119/506/133 13/507/133 14/508/133
f 116/509/134 121/510/134 17/511/134 19/512/134
f 122/513/135 120/514/135 14/515/135 15/516/135
f 121/517/136 122/518/136 15/519/136 17/520/136
f 123/521/137 125/522/137 198/523/137 103/524/137
f 125/525/138 126/526/138 105/527/138 198/528/138
f 157/529/139 158/530/139 159/531/139 160/532/139
f 156/533/140 157/534/140 160/535/140 161/536/140
f 129/537/141 127/538/141 118/539/141 121/540/141
f 130/541/142 129/542/142 121/543/142 116/544/142
f 131/545/143 130/546/143 116/547/143 114/548/143
f 132/549/144 131/550/144 114/551/144 112/552/144
f 147/553/145 148/554/145 149/555/145 150/556/145
f 151/557/146 147/558/146 150/559/146 152/560/146
f 134/561/147 133/562/147 106/563/147 107/564/147
f 126/565/148 134/566/148 107/567/148 105/568/148
f 136/569/149 135/570/149 132/571/149 112/572/149
f 137/573/150 136/574/150 112/575/150 110/576/150
f 139/577/151 137/578/151 110/579/151 106/580/151
f 138/581/152 139/582/152 106/583/152 133/584/152
f 140/585/153 138/586/153 133/587/153 124/588/153
f 135/589/154 141/590/154 128/591/154 132/592/154
f 141/593/155 142/594/155 127/595/155 128/596/155
f 143/597/156 140/598/156 124/599/156 123/600/156
f 144/601/157 143/602/157 123/603/157 103/604/157
f 145/605/158 144/606/158 103/607/158 117/608/158
f 146/609/159 145/610/159 117/611/159 118/612/159
f 142/613/160 146/614/160 118/615/160 127/616/160
f 149/617/161 148/618/161 135/619/161 136/620/161
f 150/621/162 149/622/162 136/623/162 137/624/162
f 152/625/163 150/626/163 137/627/163 139/628/163
f 151/629/164 152/630/164 139/631/164 138/632/164
f 154/633/165 151/634/165 138/635/165 140/636/165
f 148/637/166 155/638/166 141/639/166 135/640/166
f 155/641/167 156/642/167 142/643/167 141/644/167
f 158/645/168 154/646/168 140/647/168 143/648/168
f 159/649/169 158/650/169 143/651/169 144/652/169
f 160/653/170 159/654/170 144/655/170 145/656/170
f 161/657/171 160/658/171 145/659/171 146/660/171
f 156/661/172 161/662/172 146/663/172 142/664/172
f 163/665/173 162/666/173 7/667/173 12/668/173
f 165/669/174 163/670/174 12/671/174 11/672/174
f 164/673/175 165/674/175 11/675/175 6/676/175
f 162/677/176 166/678/176 2/679/176 7/680/176
f 167/681/177 164/682/177 6/683/177 1/684/177
f 166/685/178 168/686/178 48/687/178 2/688/178
f 169/689/179 167/690/179 1/691/179 47/692/179
f 168/693/180 170/694/180 43/695/180 48/696/180
f 171/697/181 169/698/181 47/699/181 42/700/181
f 170/701/182 172/702/182 38/703/182 43/704/182
f 173/705/183 171/706/183 42/707/183 37/708/183
f 172/709/184 174/710/184 33/711/184 38/712/184
f 175/713/185 173/714/185 37/715/185 32/716/185
f 174/717/186 176/718/186 28/719/186 33/720/186
f 177/721/187 175/722/187 32/723/187 27/724/187
f 178/725/188 179/726/188 22/727/188 23/728/188
f 176/729/189 178/730/189 23/731/189 28/732/189
f 179/733/190 177/734/190 27/735/190 22/736/190
f 180/737/191 182/738/191 25/739/191 26/740/191
f 181/741/192 180/742/192 26/743/192 31/744/192
f 182/745/193 183/746/193 30/747/193 25/748/193
f 184/749/194 181/750/194 31/751/194 36/752/194
f 183/753/195 185/754/195 35/755/195 30/756/195
f 186/757/196 184/758/196 36/759/196 41/760/196
f 185/761/197 187/762/197 40/763/197 35/764/197
f 188/765/198 186/766/198 41/767/198 46/768/198
f 187/769/199 189/770/199 45/771/199 40/772/199
f 190/773/200 188/774/200 46/775/200 51/776/200
f 189/777/201 191/778/201 50/779/201 45/780/201
f 192/781/202 190/782/202 51/783/202 5/784/202
f 191/785/203 193/786/203 4/787/203 50/788/203
f 194/789/204 192/790/204 5/791/204 10/792/204
f 193/793/205 195/794/205 9/795/205 4/796/205
f 196/797/206 194/798/206 10/799/206 15/800/206
f 197/801/207 196/802/207 15/803/207 14/804/207
f 195/805/208 197/806/208 14/807/208 9/808/208