# Made in Blockbench 5.1.6
mtllib RadioVillainHead.mtl

o Head
v -0.16111111111111098 1.4509522767075311 -0.1356773839759878
v -0.18125000000000066 1.491079246935202 0.13465567998152778
v -0.16111111111111093 1.1834391418563928 -0.13567738397598778
v -0.1812500000000006 1.1834391418563928 0.1346556799815278
v 0.16111111111111132 1.4509522767075311 -0.13567738397598683
v 0.18124999999999944 1.491079246935202 0.13465567998152886
v 0.16111111111111137 1.1834391418563928 -0.1356773839759868
v 0.1812499999999995 1.1834391418563928 0.1346556799815289
v -7.912183372397608e-16 1.504454903677759 0.19374999999999978
v -7.519052447207222e-16 1.1834391418563928 0.19374999999999984
v 4.517760071726851e-16 1.1834391418563928 -0.21250000000000027
v 4.2065314226177965e-16 1.4375766199649742 -0.21250000000000033
v 0.13623958333333294 1.1500000000000006 0.10558127453244077
v -6.247016923715844e-16 1.1500000000000006 0.15220012699145677
v 2.802353777427276e-16 1.1500000000000006 -0.1532218309859157
v 0.12110185185185204 1.1500000000000006 -0.10660297852689894
v -0.12110185185185177 1.1500000000000006 -0.10660297852689966
v -0.13623958333333389 1.1500000000000006 0.10558127453243997
v 0.13421794871794887 1.488002845884414 -0.1176062471138304
v 3.236702285247482e-16 1.4770348073555173 -0.18139856557377082
v -6.629606920323899e-16 1.5318750000000008 0.1493288934426227
v 0.15099519230769184 1.520906961471104 0.10166932434772591
v -0.1509951923076929 1.520906961471104 0.10166932434772502
v -0.1342179487179486 1.488002845884414 -0.11760624711383119
v 4.2938938504378816e-16 1.3662397840046707 -0.2125000000000003
v -0.16111111111111096 1.3758608704335276 -0.1356773839759878
v 4.3881533120332374e-16 1.289271092573817 -0.2125000000000003
v -0.16111111111111096 1.294841195243155 -0.13567738397598778
v -0.18125000000000063 1.4047241297200976 0.13465567998152778
v -0.18125000000000063 1.3115515032511693 0.1346556799815278
v -7.801830831993289e-16 1.4143452161489545 0.19374999999999978
v -7.682766248925471e-16 1.3171216059205075 0.1937499999999998
v 0.18124999999999947 1.4047241297200979 0.13465567998152886
v 0.18124999999999947 1.3115515032511695 0.13465567998152886
v 0.16111111111111134 1.3758608704335276 -0.13567738397598683
v 0.16111111111111134 1.294841195243155 -0.13567738397598683
v -0.0161111111111107 1.3355235289963938 -0.20481773839759904
v -0.016111111111110698 1.297727521171812 -0.20481773839759904
v -0.1449999999999998 1.3272140720652839 -0.14335964557838907
v -0.1449999999999998 1.3669993434595804 -0.14335964557838907
v 0.14500000000000024 1.3669993434595806 -0.1433596455783882
v 0.14500000000000024 1.3272140720652839 -0.1433596455783882
v 0.01611111111111153 1.297727521171812 -0.20481773839759893
v 0.016111111111111527 1.3355235289963938 -0.20481773839759893
v -0.05639064121824944 1.3694469290854085 -0.18561124882833333
v -0.05639064121824945 1.4420353338577072 -0.18561124882833335
v -0.10472485068449786 1.372654016028479 -0.162564046254645
v -0.10472485068449786 1.446493966924903 -0.16256404625464502
v -0.04474093826726285 1.4806909527475582 -0.16013368848837045
v -0.0894810654911492 1.4843470318626588 -0.13886919688298877
v -0.050333555550671635 1.5282188546079596 0.1334417944436643
v -0.10066619867754367 1.5245627754928592 0.11755498343880964
v -0.060418857078368526 1.499996189785026 0.1740511791705411
v -0.12083661891117893 1.4955375567178302 0.15435271543234566
v -0.06041885707836851 1.4111380710682166 0.1740511791705411
v -0.12083661891117892 1.4079309841251462 0.1543527154323457
v -0.0604188570783685 1.3152648377158698 0.1740511791705411
v -0.1208366189111789 1.3134081031698817 0.1543527154323457
v -0.060418857078368485 1.1834391418563928 0.17405117917054114
v -0.12083661891117889 1.1834391418563928 0.15435271543234572
v -0.04541484090390704 1.1500000000000006 0.1366599461148838
v -0.0908288585482362 1.1500000000000006 0.12112004694364073
v -0.04036874747013884 1.1500000000000006 -0.13768165010934302
v -0.08073676315398706 1.1500000000000006 -0.12214175093810019
v -0.05639064121824942 1.1834391418563928 -0.18561124882833333
v -0.10472485068449783 1.1834391418563928 -0.162564046254645
v -0.05639064121824943 1.2911278607784547 -0.18561124882833333
v -0.10472485068449784 1.2929845953244428 -0.162564046254645
v -0.05639064121824943 1.3075567278154903 -0.18561124882833333
v -0.10472485068449784 1.3173857562797817 -0.162564046254645
v -0.05639064121824944 1.346015847536954 -0.18561124882833333
v -0.10472485068449784 1.3565079758775362 -0.162564046254645
v 0.10472046989286164 1.3726537253527897 -0.16256613514765414
v 0.10472046989286164 1.4464935628147981 -0.16256613514765414
v 0.056386260426613356 1.369446638409719 -0.18561333772134275
v 0.05638626042661334 1.4420349297476025 -0.18561333772134278
v 0.08947701045068583 1.484346700492373 -0.138871124199231
v 0.0447368832267996 1.4806906213772724 -0.16013561580461294
v 0.10066163675702078 1.5245631068631451 0.11755642334668406
v 0.050328993630148644 1.5282191859782457 0.13344323435153838
v 0.12083114292163159 1.495537960827935 0.15435450081098717
v 0.060413381088821085 1.4999965938951307 0.17405296454918226
v 0.1208311429216316 1.4079312748008355 0.15435450081098717
v 0.0604133810888211 1.4111383617439062 0.17405296454918226
v 0.12083114292163162 1.313408271455807 0.1543545008109872
v 0.06041338108882111 1.3152650060017954 0.17405296454918226
v 0.12083114292163163 1.1834391418563928 0.1543545008109872
v 0.060413381088821126 1.1834391418563928 0.1740529645491823
v 0.09082474242942641 1.1500000000000006 0.12112145540901346
v 0.045410724785097174 1.1500000000000006 0.1366613545802563
v 0.08073310438171302 1.1500000000000006 -0.1221431594034719
v 0.0403650886978649 1.1500000000000006 -0.13768305857471494
v 0.10472046989286167 1.1834391418563928 -0.1625661351476541
v 0.05638626042661338 1.1834391418563928 -0.18561333772134272
v 0.10472046989286166 1.2929844270385173 -0.16256613514765414
v 0.05638626042661336 1.291127692492529 -0.18561333772134275
v 0.10472046989286166 1.3173848654216056 -0.16256613514765414
v 0.05638626042661336 1.3075558369573141 -0.18561333772134275
v 0.10472046989286166 1.3565070249190205 -0.16256613514765414
v 0.056386260426613356 1.3460148965784382 -0.18561333772134275
v -0.1391839521613578 1.3669993434595804 -0.13135462395554395
v -0.09890880284585582 1.3173857562797817 -0.1505590246317999
v -0.09890880284585582 1.3565079758775362 -0.1505590246317999
v -0.1391839521613578 1.3272140720652839 -0.13135462395554395
v -0.05057459337960741 1.3075567278154903 -0.1736062272054882
v -0.050574593379607416 1.346015847536954 -0.17360622720548824
v -0.010295063272468688 1.297727521171812 -0.19281271677475392
v -0.010295063272468694 1.335523528996394 -0.19281271677475392
v 0.01029506327246944 1.335523528996394 -0.19281271677475387
v 0.05057021258797127 1.3075558369573141 -0.1736083160984977
v 0.050570212587971265 1.3460148965784382 -0.1736083160984977
v 0.010295063272469445 1.297727521171812 -0.19281271677475387
v 0.09890442205421955 1.3173848654216056 -0.15056111352480908
v 0.09890442205421955 1.3565070249190205 -0.15056111352480908
v 0.13918395216135818 1.3272140720652839 -0.13135462395554312
v 0.13918395216135818 1.3669993434595806 -0.13135462395554312
v 0.09890442205421954 1.3726537253527897 -0.15056111352480908
v 0.050570212587971265 1.369446638409719 -0.1736083160984977
v 0.0514262897196218 1.4381049977907667 -0.17462144196121357
v 0.09976049918587007 1.4425636308579626 -0.15157423938752496
v 0.09890442205421955 1.2929844270385173 -0.15056111352480905
v 0.05057021258797127 1.291127692492529 -0.1736083160984977
v 0.10047442420862879 1.1890202182426077 -0.1531426409976657
v 0.05214021474238049 1.1890202182426077 -0.1761898435713543
v -0.052064597167060196 1.1888683389451407 -0.175983219081356
v -0.10039880663330861 1.1888683389451407 -0.15293601650766767
v -0.09890880284585582 1.2929845953244428 -0.1505590246317999
v -0.05057459337960741 1.2911278607784547 -0.1736062272054882
v -0.09890880284585583 1.372654016028479 -0.1505590246317999
v -0.050574593379607416 1.3694469290854085 -0.17360622720548824
v -0.09977500759179478 1.4425384386069433 -0.15158814468804946
v -0.051440798125546375 1.4380798055397475 -0.1746353472617378
v -0.08748804092472952 1.4737836286839738 -0.13287022601144585
v -0.042747913700843146 1.4701275495688733 -0.15413471761682754
v -0.03753270720640242 1.1608583941774961 -0.1304306122382335
v -0.07790072289025063 1.1608583941774961 -0.11489071306699068
v 0.07805706085188933 1.1611621527724303 -0.1153011927263401
v 0.03768904516804121 1.1611621527724303 -0.13084109189758314
v 0.04271697013974538 1.470158093638029 -0.1540868421128923
v 0.0874570973636316 1.4738141727531295 -0.13282235050751037
v 0.04885342845872799 1.5160904509401043 0.1310626690582944
v 0.09918607158560011 1.5124343718250037 0.11517585805344008
v -0.09919643346252957 1.512457545246638 0.11509986170287109
v -0.04886379033565753 1.5161136243617384 0.13098667270772574
v -0.1172221995765095 1.4900402013323342 0.14454508372671163
v -0.05680443774369911 1.49449883439953 0.16424354746490705
v -0.116644899885793 1.4079309841251462 0.1416988557256945
v -0.056227138052982614 1.4111380710682166 0.16139731946388994
v -0.11664489988579299 1.3134081031698817 0.1416988557256945
v -0.0562271380529826 1.3152648377158698 0.16139731946388994
v 0.11663942389624578 1.4079312748008355 0.14170064110433597
v 0.056221662063435277 1.4111383617439062 0.16139910484253106
v 0.05622166206343529 1.3152650060017954 0.16139910484253106
v 0.11663942389624579 1.313408271455807 0.14170064110433597
v 0.11722768453690173 1.4900118215722014 0.14458761692140365
v 0.056809922704091236 1.494470454639397 0.16428608065959874
v 0.05697994623199888 1.188587910192125 0.16368819469532603
v 0.11739770806480938 1.188587910192125 0.14398973095713094
v -0.1174168399868505 1.1886237241001918 0.14402916977622196
v -0.05699907815404011 1.1886237241001918 0.16372763351441738
v 0.042735574096838494 1.160297536671465 0.12858567457919493
v 0.08814959174116774 1.160297536671465 0.11304577540795212
v -0.08818101972496534 1.1603691644875986 0.11312681533804445
v -0.042767002080636184 1.1603691644875986 0.12866671450928752
v -0.1362759282420368 1.3669993434595804 -0.1253521131441214
v -0.09600077892653482 1.3173857562797817 -0.14455651382037732
v -0.09600077892653482 1.3565079758775362 -0.14455651382037732
v -0.1362759282420368 1.3272140720652839 -0.1253521131441214
v -0.0476665694602864 1.3075567278154903 -0.16760371639406565
v -0.047666569460286405 1.346015847536954 -0.16760371639406565
v -0.00738703935314768 1.297727521171812 -0.18681020596333137
v -0.0073870393531476845 1.335523528996394 -0.18681020596333137
v 0.007387039353148399 1.335523528996394 -0.1868102059633313
v 0.047662188668650234 1.3075558369573141 -0.16760580528707514
v 0.04766218866865023 1.3460148965784382 -0.16760580528707514
v 0.0073870393531484035 1.297727521171812 -0.1868102059633313
v 0.09599639813489852 1.3173848654216056 -0.14455860271338652
v 0.09599639813489852 1.3565070249190205 -0.14455860271338652
v 0.13627592824203713 1.3272140720652839 -0.1253521131441206
v 0.13627592824203713 1.3669993434595806 -0.1253521131441206
vt 0.234375 0.80529453125
vt 0.234375 0.82130859375
vt 0.20048984375 0.8192203124999999
vt 0.20048984375 0.80529453125
vt 0.22919765625 0.90685703125
vt 0.22919765625 0.9207828124999999
vt 0.1953125 0.92287109375
vt 0.1953125 0.90685703125
vt 0.5183841205083762 0.9936256153614845
vt 0.5201436311525103 1
vt 0.4876688688474898 1
vt 0.4906032961484967 0.994531471706363
vt 0.22998125 0.7901625
vt 0.22493593750000002 0.79210546875
vt 0.22619765625 0.76169765625
vt 0.2318734375 0.76363984375
vt 0.3046875 0.5429867187499999
vt 0.29687890625 0.5427546875
vt 0.29687890625 0.5290609374999999
vt 0.3046875 0.5290609374999999
vt 0.421875 0.8438
vt 0.42981796875 0.8438
vt 0.42981796875 0.86004609375
vt 0.421875 0.8598140625
vt 0.42174453125 0.67081015625
vt 0.4296875 0.67081015625
vt 0.4296875 0.6872882812500001
vt 0.42174453125 0.6875203125
vt 0.21484375 0.7959898437499999
vt 0.2097984375 0.79404765625
vt 0.2091671875 0.7597546875
vt 0.21484375 0.7578125
vt 0.42187109375 0.54340390625
vt 0.4140625 0.5436359374999999
vt 0.4140625 0.5301750000000001
vt 0.42187109375 0.5301750000000001
vt 0.08568180339379665 0.6953119424650098
vt 0.07945180672370698 0.6930941754872538
vt 0.08124374139389633 0.6559560710762942
vt 0.08691147452629301 0.6534249999999999
vt 0.42342734375 0.4140625
vt 0.4294265625 0.4140625
vt 0.4296875 0.421875
vt 0.42174609375 0.42178671874999996
vt 0.2680151550303125 0.421875
vt 0.26508693883916445 0.4296875
vt 0.2578125 0.4275766459409852
vt 0.2595109695876057 0.421875
vt 0.109375 0.5532802342728247
vt 0.10944059621478054 0.5266904714347318
vt 0.1171875 0.5234375
vt 0.1171875 0.557322759361586
vt 0.4296875 0.405628125
vt 0.42187890625 0.405628125
vt 0.421346875 0.3984375
vt 0.4267375 0.39877734374999996
vt 0.1796875 0.4200613349380491
vt 0.17975536012373358 0.4140625
vt 0.1875 0.41634123924339006
vt 0.1875 0.42428393489314087
vt 0.443358203125 0.6875
vt 0.469948046875 0.6875
vt 0.473973828125 0.6953125
vt 0.440088671875 0.69522890625
vt 0.2890625 0.41566651089925555
vt 0.2890625 0.421875
vt 0.28125 0.42146759981638593
vt 0.2812589337497402 0.4136391602083347
vt 0.5952064130014881 0.46875
vt 0.5952064130014881 0.4607879388903213
vt 0.6015137467608344 0.46066017662342207
vt 0.6015625 0.46727257466150585
vt 0.1015625 0.5309053261667311
vt 0.1015625 0.5587004001602587
vt 0.09375 0.5625
vt 0.09375 0.5282460474963696
vt 0.5703125 0.515625
vt 0.5782750522006972 0.515625
vt 0.5794979467971928 0.5234375
vt 0.5728850143636023 0.5233894496839995
vt 0.615467605540969 0.9375
vt 0.6092589030637847 0.9375
vt 0.6093588504884716 0.9316030106173658
vt 0.6171875 0.9315934678752079
vt 0.47276294036855515 0.7109375
vt 0.4449672628499066 0.7109375
vt 0.44230805672026413 0.703125
vt 0.4765625 0.703125
vt 0.3046875 0.5625
vt 0.29687890625 0.5619429687499999
vt 0.29687890625 0.55271328125
vt 0.3046875 0.5531140625
vt 0.546875 0.546875
vt 0.54129765625 0.54556328125
vt 0.54129765625 0.5406734375
vt 0.546875 0.5419015625
vt 0.20048984375 0.83873359375
vt 0.20048984375 0.82934765625
vt 0.234375 0.83295546875
vt 0.234375 0.84375
vt 0.20048984375 0.82934765625
vt 0.20048984375 0.8192203124999999
vt 0.234375 0.82130859375
vt 0.234375 0.83295546875
vt 0.421875 0.8714609375
vt 0.42981796875 0.87186171875
vt 0.42981796875 0.8828125
vt 0.421875 0.8822554687499999
vt 0.421875 0.8598140625
vt 0.42981796875 0.86004609375
vt 0.42981796875 0.87186171875
vt 0.421875 0.8714609375
vt 0.42174453125 0.6996734375
vt 0.4296875 0.69927265625
vt 0.4296875 0.7103796875
vt 0.42174453125 0.7109375
vt 0.42174453125 0.6875203125
vt 0.4296875 0.6872882812500001
vt 0.4296875 0.69927265625
vt 0.42174453125 0.6996734375
vt 0.1953125 0.9453125
vt 0.1953125 0.93451796875
vt 0.22919765625 0.93091015625
vt 0.22919765625 0.94029609375
vt 0.1953125 0.93451796875
vt 0.1953125 0.92287109375
vt 0.22919765625 0.9207828124999999
vt 0.22919765625 0.93091015625
vt 0.42187109375 0.5619421875
vt 0.4140625 0.5625
vt 0.4140625 0.55342578125
vt 0.42187109375 0.553025
vt 0.54128671875 0.644503125
vt 0.535709375 0.6458140625
vt 0.535709375 0.64100703125
vt 0.54128671875 0.639778125
vt 0.400671875 0.5444609375
vt 0.400671875 0.5491859375
vt 0.398440625 0.553025
vt 0.398440625 0.54340390625
vt 0.30245625 0.5470328125
vt 0.29687890625 0.5458046875
vt 0.29687890625 0.5427546875
vt 0.3046875 0.5429867187499999
vt 0.30245625 0.55200625
vt 0.30245625 0.5470328125
vt 0.3046875 0.5429867187499999
vt 0.3046875 0.5531140625
vt 0.3046875 0.5531140625
vt 0.29687890625 0.55271328125
vt 0.29687890625 0.55069453125
vt 0.30245625 0.55200625
vt 0.22879375 0.5470328125
vt 0.22879375 0.55200625
vt 0.2265625 0.5531140625
vt 0.2265625 0.5429867187499999
vt 0.41963984375 0.5444609375
vt 0.4140625 0.54568984375
vt 0.4140625 0.5436359374999999
vt 0.42187109375 0.54340390625
vt 0.41963984375 0.5491859375
vt 0.41963984375 0.5444609375
vt 0.42187109375 0.54340390625
vt 0.42187109375 0.553025
vt 0.42187109375 0.553025
vt 0.4140625 0.55342578125
vt 0.4140625 0.550496875
vt 0.41963984375 0.5491859375
vt 0.398440625 0.553025
vt 0.40625 0.5534265625
vt 0.40625 0.5625
vt 0.398440625 0.5619421875
vt 0.13388806343648613 0.42054995525607686
vt 0.14058185729998807 0.42095078591464774
vt 0.140625 0.4296875
vt 0.13393118913883623 0.4291312005923583
vt 0.5855204887513419 0.65625
vt 0.5933500190175489 0.65625
vt 0.59375 0.6640625
vt 0.5875408744087767 0.6640543964927503
vt 0.5948458309454405 0.5078125
vt 0.6015625 0.5078125
vt 0.6015081193307962 0.5155731201962125
vt 0.5952993314154651 0.515625
vt 0.08691147452629301 0.6534249999999999
vt 0.09242319327629302 0.6562851562500001
vt 0.09203022452629302 0.6934640624999999
vt 0.08568178702629302 0.6953125
vt 0.16497981950090312 0.8545287055884435
vt 0.171875 0.8574830657146855
vt 0.171875 0.888887862400587
vt 0.1640625 0.890625
vt 0.553488094125749 0.40625
vt 0.546875 0.40625
vt 0.5469559288071755 0.39994178796891344
vt 0.554918185166391 0.3998838812617652
vt 0.10159533277956005 0.3984375
vt 0.09498165154903908 0.3984375
vt 0.09375 0.3934419617281205
vt 0.10171234606200151 0.39338322524809854
vt 0.41419375 0.6171875
vt 0.40625 0.6166296875
vt 0.40625 0.60552265625
vt 0.41419375 0.6059234375
vt 0.4298609822820556 0.7890625
vt 0.4219180135320556 0.7885046875
vt 0.42187660728205556 0.7782351562500001
vt 0.4298203572820556 0.7786359375
vt 0.41419375 0.6059234375
vt 0.40625 0.60552265625
vt 0.40625 0.5935382812500001
vt 0.41419375 0.5937703125
vt 0.4298203572820556 0.7786359375
vt 0.42187660728205556 0.7782351562500001
vt 0.42187660728205556 0.76641953125
vt 0.4298203572820556 0.7666515625
vt 0.41419375 0.5937703125
vt 0.40625 0.5935382812500001
vt 0.40625 0.57706015625
vt 0.41419375 0.57706015625
vt 0.42981957669806875 0.7666515396997007
vt 0.42187660728205556 0.76641953125
vt 0.421875 0.7508187500045495
vt 0.4298187499999673 0.7508187272020084
vt 0.53138125 0.40497343750000003
vt 0.5234375 0.40497343750000003
vt 0.523771875 0.3984375
vt 0.529771875 0.3985046875
vt 0.60169375 0.42783906250000003
vt 0.59375 0.42783906250000003
vt 0.59602734375 0.421875
vt 0.6020265625 0.4219453125
vt 0.21484375 0.7578125
vt 0.2205203125 0.7597546875
vt 0.21988984375 0.7940476562500001
vt 0.21484375 0.7959898437499999
vt 0.2205203125 0.7597546875
vt 0.22619765625 0.76169765625
vt 0.22493593750000002 0.79210546875
vt 0.21988984375 0.7940476562500001
vt 0.5787010982600329 0.95481844686345
vt 0.5838360982268438 0.953125
vt 0.5859375 0.9604025228854014
vt 0.5787010982600329 0.9633195820415544
vt 0.59523984375 0.4765625
vt 0.600646875 0.4765625
vt 0.6015625 0.48393906249999996
vt 0.59488984375 0.484375
vt 0.398440625 0.5301750000000001
vt 0.40625 0.5301750000000001
vt 0.40625 0.5436359374999999
vt 0.398440625 0.54340390625
vt 0.501118750045492 0.429242192232145
vt 0.5078125 0.42924297263223976
vt 0.5077703571002319 0.44226249905743475
vt 0.5010774154474025 0.44202968750000005
vt 0.398440625 0.54340390625
vt 0.40625 0.5436359374999999
vt 0.40625 0.54568984375
vt 0.400671875 0.5444609375
vt 0.5010774154474025 0.44202968750000005
vt 0.5077703841974025 0.4422625
vt 0.5077703841974025 0.4453125
vt 0.5010774154474025 0.44408359374999995
vt 0.52902578125 0.538215625
vt 0.53460390625 0.53944453125
vt 0.53460390625 0.54425234375
vt 0.52902578125 0.542940625
vt 0.53460390625 0.53944453125
vt 0.54129765625 0.5406734375
vt 0.54129765625 0.54556328125
vt 0.53460390625 0.54425234375
vt 0.400671875 0.5491859375
vt 0.40625 0.55049765625
vt 0.40625 0.5534265625
vt 0.398440625 0.553025
vt 0.13388888854998807 0.4176210984146477
vt 0.14058185729998807 0.41893203591464767
vt 0.14058185729998807 0.42095078591464774
vt 0.13388888854998807 0.42055000466464765
vt 0.2265625 0.5531140625
vt 0.234371875 0.55271328125
vt 0.234371875 0.5619429687499999
vt 0.2265625 0.5625
vt 0.14847788975321585 0.4209468702437411
vt 0.1551715930988419 0.42054531054256783
vt 0.15513040383358295 0.42912890914074464
vt 0.1484375 0.4296875
vt 0.4765625 0.421875
vt 0.4765625 0.41404604155509617
vt 0.484375 0.4139385057549675
vt 0.484375 0.42014777137588477
vt 0.1640625 0.3984375
vt 0.1640625 0.39172106825968833
vt 0.1689227764789576 0.3921748321134775
vt 0.16886994311471146 0.39838332178582125
vt 0.4437286508073242 0.6787867796749028
vt 0.4407936681313409 0.671875
vt 0.4732688318686591 0.671875
vt 0.47150874313179486 0.6796875
vt 0.4339781478964517 0.5773262209783594
vt 0.4311630271241205 0.5703125
vt 0.4672744728758795 0.5703125
vt 0.46537530041198055 0.578125
vt 0.5859375 0.8761989968381148
vt 0.5859375 0.8828125
vt 0.578125 0.8815448062711011
vt 0.5781825204967765 0.8735822483146506
vt 0.5859375 0.5948345875114409
vt 0.5859375 0.6014481065008179
vt 0.578125 0.6015625
vt 0.5781836646438835 0.593600116882506
vt 0.4375 0.9291304687499999
vt 0.42955625 0.9296875
vt 0.42955625 0.91873671875
vt 0.4375 0.9183359375
vt 0.43745378280705705 0.835380427445262
vt 0.42950998088251147 0.8359375
vt 0.42955235805261094 0.8255140664021207
vt 0.4374961454228127 0.8251132438467048
vt 0.4375 0.9183359375
vt 0.42955625 0.91873671875
vt 0.42955625 0.90692109375
vt 0.4375 0.9066890625
vt 0.4374961454228127 0.8251132438467048
vt 0.4295531766728127 0.8255140250967048
vt 0.4295531766728127 0.8135296500967047
vt 0.4374961454228127 0.8132976188467047
vt 0.4375 0.9066890625
vt 0.42955625 0.90692109375
vt 0.42955625 0.890675
vt 0.4375 0.890675
vt 0.437496948845384 0.8132975953769985
vt 0.4295531766728127 0.8135296500967047
vt 0.42955624996161756 0.797692150317816
vt 0.4375 0.797692126847054
vt 0.3359375 0.42073359374999997
vt 0.32799375 0.42073359374999997
vt 0.325715625 0.41413046875000004
vt 0.33171484375 0.4140625
vt 0.609375 0.4434703125
vt 0.60143125 0.4434703125
vt 0.6010984375 0.43756953125
vt 0.6070984375 0.4375
vt 0.1978140625 0.76363984375
vt 0.203490625 0.76169765625
vt 0.20475234375 0.79210546875
vt 0.19970625 0.7901625
vt 0.203490625 0.76169765625
vt 0.2091671875 0.7597546875
vt 0.2097984375 0.7940476562500001
vt 0.20475234375 0.79210546875
vt 0.21429921875 0.4140625
vt 0.21970625 0.4140625
vt 0.2187234375 0.421875
vt 0.2109375 0.42138515624999995
vt 0.594665625 0.4921875
vt 0.60007265625 0.4921875
vt 0.6004234375 0.5
vt 0.59375 0.49955312500000004
vt 0.2265625 0.5290609374999999
vt 0.234371875 0.5290609374999999
vt 0.234371875 0.5427546875
vt 0.2265625 0.5429867187499999
vt 0.515625 0.4292617233008881
vt 0.5223187499545185 0.42926094299165696
vt 0.5223585196932958 0.4420296884423456
vt 0.5156647967873115 0.4422625
vt 0.2265625 0.5429867187499999
vt 0.234371875 0.5427546875
vt 0.234371875 0.5458046875
vt 0.22879375 0.5470328125
vt 0.5156647967873115 0.4422625
vt 0.5223585467873114 0.44202968750000005
vt 0.5223585467873114 0.44408359374999995
vt 0.5156647967873115 0.4453125
vt 0.5234375 0.6434640625
vt 0.529015625 0.6422359375
vt 0.529015625 0.64712578125
vt 0.5234375 0.6484375
vt 0.529015625 0.6422359375
vt 0.535709375 0.64100703125
vt 0.535709375 0.6458140625
vt 0.529015625 0.64712578125
vt 0.22879375 0.55200625
vt 0.234371875 0.55069453125
vt 0.234371875 0.55271328125
vt 0.2265625 0.5531140625
vt 0.1484778430988419 0.4189281230425679
vt 0.1551715930988419 0.41761640429256786
vt 0.1551715930988419 0.42054531054256783
vt 0.1484778430988419 0.42094687304256784
vt 0.0017023437500000016 0.38755078125
vt 0.001667968750000002 0.39328046875
vt 0 0.39328046875
vt 0.00003515625000000133 0.38755078125
vt 0.01656953125 0.3984375
vt 0.01653515625 0.39272656250000004
vt 0.01820234375 0.39272656250000004
vt 0.0182375 0.3984375
vt 0.60239609375 0.7265625
vt 0.60239609375 0.7215890625
vt 0.6040640625 0.7215890625
vt 0.6040640625 0.7265625
vt 0.016493749999999998 0.38592109374999994
vt 0.016459375 0.38020937499999996
vt 0.0181265625 0.38020937499999996
vt 0.018160937499999998 0.38592109374999994
vt 0.001778125000000002 0.375
vt 0.0017437500000000022 0.3807296875
vt 0.00007656250000000198 0.3807296875
vt 0.00011093750000000166 0.375
vt 0.2985421875 0.3937125
vt 0.2985421875 0.3984375
vt 0.296875 0.3984375
vt 0.296875 0.3937125
vt 0.60763125 0.98229140625
vt 0.607596875 0.9765625
vt 0.6092640625 0.9765625
vt 0.6092984375 0.98229140625
vt 0.038228125 0.38021015625
vt 0.03819375 0.38592109374999994
vt 0.0365265625 0.38592109374999994
vt 0.0365609375 0.38021015625
vt 0.6077078124999999 0.6953125
vt 0.6077078124999999 0.6905875
vt 0.609375 0.6905875
vt 0.609375 0.6953125
vt 0.03815234375 0.39272578125
vt 0.03811796875 0.3984375
vt 0.036449999999999996 0.3984375
vt 0.03648515625 0.39272578125
vt 0.60770703125 0.99484140625
vt 0.60767265625 0.98911171875
vt 0.6093398437499999 0.98911171875
vt 0.609375 0.99484140625
vt 0.28822890624999997 0.3934640625
vt 0.28822890624999997 0.3984375
vt 0.2865609375 0.3984375
vt 0.2865609375 0.3934640625
vt 0.06880261254904832 0.4099492690290746
vt 0.06864438709388408 0.4013664061037798
vt 0.07031157451065284 0.40136693290939907
vt 0.07030870744389427 0.41044036995642463
vt 0.5833204515056815 0.8453904994505348
vt 0.5831610765056815 0.8541295619505349
vt 0.5816540452556815 0.8546209682005348
vt 0.5816540452556815 0.8453912807005348
vt 0.06864438709388408 0.4013664061037798
vt 0.06864531258323124 0.3984375
vt 0.0703125 0.39843802680561935
vt 0.07031157451065284 0.40136693290939907
vt 0.5833195050688422 0.8433717496723907
vt 0.5833204515056815 0.8453904994505348
vt 0.5816532641889014 0.8453912810667171
vt 0.5816523177520622 0.8433725312885729
vt 0.23270782521266392 0.46875
vt 0.23269980435431462 0.46669610941147777
vt 0.2343669791416507 0.46668959875658333
vt 0.234375 0.46874348934510557
vt 0.3933332261164955 0.4657
vt 0.3933332261164955 0.46875
vt 0.3916660386164955 0.46875
vt 0.3916660386164955 0.4657
vt 0.23269980435431462 0.46669610941147777
vt 0.23302495867901532 0.4539314610445335
vt 0.23431441185775626 0.45322876389913225
vt 0.2343669791416507 0.46668959875658333
vt 0.39295744486649553 0.45270468750000004
vt 0.3933332261164955 0.4657
vt 0.3916660386164955 0.4657
vt 0.3916660386164955 0.45200703124999997
vt 0.3020345270737006 0.4632139202269937
vt 0.3023821833237006 0.4501998577269938
vt 0.3037017145737006 0.4495209514769938
vt 0.3037017145737006 0.4632139202269937
vt 0.16541954897018707 0.45391243114602364
vt 0.16573498443194243 0.4666961005946221
vt 0.16406780248782812 0.4666917964831633
vt 0.16410255405316798 0.4532309038416029
vt 0.3020345270737006 0.4662639202269937
vt 0.3020345270737006 0.4632139202269937
vt 0.3037017145737006 0.4632139202269937
vt 0.3037017145737006 0.4662639202269937
vt 0.16573498443194243 0.4666961005946221
vt 0.1657296819441143 0.46875
vt 0.1640625 0.4687456958885412
vt 0.16406780248782812 0.4666917964831633
vt 0.23698276374749752 0.4078901715168697
vt 0.23698276374749752 0.4058714215168697
vt 0.23864995124749752 0.4058714215168697
vt 0.23864995124749752 0.4078901715168697
vt 0.0798083904414651 0.4050393028903787
vt 0.0798042454183585 0.4079682062073341
vt 0.0781370595879016 0.40796584678367187
vt 0.07814120461100821 0.4050369434667165
vt 0.23714604499749753 0.4166261090168697
vt 0.23698276374749752 0.4078901715168697
vt 0.23864995124749752 0.4078901715168697
vt 0.23864995124749752 0.41711985901686965
vt 0.0798042454183585 0.4079682062073341
vt 0.07963038585971796 0.416546875
vt 0.078125 0.4170392763030487
vt 0.07813784083711925 0.40796584788930623
vt 0.234375 0.4205518844121101
vt 0.23714604499749753 0.4166261090168697
vt 0.2386506473445514 0.4171200875536687
vt 0.23516045502988614 0.421875
vt 0.07963038585971796 0.416546875
vt 0.08241163585971796 0.42055390625
vt 0.08162257335971797 0.421875
vt 0.07812804210971797 0.41703828125
vt 0.0859375 0.7109375
vt 0.078125 0.7109375
vt 0.078125 0.703125
vt 0.0859375 0.703125
vt 0.3023821833237006 0.4501998577269938
vt 0.296875 0.44667124900056454
vt 0.29784635511926516 0.4453125
vt 0.3037014567048349 0.44952108415197556
vt 0.17138517397018704 0.4503928998960236
vt 0.16541954897018707 0.45391243114602364
vt 0.16410158022018706 0.45323039989602354
vt 0.17041251772018706 0.4490421186460236
vt 0.3046875 0.6875
vt 0.296875 0.6875
vt 0.296875 0.6796875
vt 0.3046875 0.6796875
vt 0.23302495867901532 0.4539314610445335
vt 0.2270765211790153 0.45044786729453357
vt 0.2279937086790153 0.4490517735445335
vt 0.23431089617901532 0.4532306797945336
vt 0.3984375 0.4491953782763899
vt 0.39295744486649553 0.45270468750000004
vt 0.3916653336288443 0.4520066503946022
vt 0.3975212491493628 0.4477988846452857
vt 0.06601433129904832 0.4139563002790746
vt 0.06880261254904832 0.4099492690290746
vt 0.07030964379904833 0.4104406752790746
vt 0.06680808129904833 0.41527192527907464
vt 0.5831610765056815 0.8541295619505349
vt 0.5859375 0.8580555098384312
vt 0.5851449802467912 0.859375
vt 0.5816538272713414 0.8546210392799283
vt 0.45630311986716304 0.40383015231676833
vt 0.45630311986716304 0.36771875602841464
vt 0.45774711958888586 0.3671875
vt 0.45775938013283696 0.4043688733440728
vt 0.4413259823046043 0.65625
vt 0.4727330921439689 0.65625
vt 0.47326875992561185 0.6640625
vt 0.44079374007438815 0.6640399578621828
vt 0.3125 0.5619561365361507
vt 0.3125 0.5305506613338764
vt 0.3203125 0.5300258102715912
vt 0.3203125 0.5625
vt 0.431153378728321 0.5859375
vt 0.467261994460954 0.5859375
vt 0.46780945421577785 0.59375
vt 0.43062804578422215 0.5937382716730135
vt 0.43320890574646287 0.5425251232662993
vt 0.4375 0.5453648872954133
vt 0.4371290423929831 0.546875
vt 0.43192093806199044 0.5432022306793682
vt 0.2834982286760371 0.5687993424037987
vt 0.2877560293381896 0.5660726878833446
vt 0.2890625 0.5667599336713347
vt 0.2838498025816795 0.5703125
vt 0.43356749949646284 0.5322610607662994
vt 0.43320890574646287 0.5425251232662993
vt 0.43190265574646286 0.5432118420162994
vt 0.43190265574646286 0.5322610607662994
vt 0.2877560293381896 0.5660726878833446
vt 0.28739587308818965 0.5556523753833447
vt 0.2890614980881896 0.5556523753833447
vt 0.2890614980881896 0.5667594066333448
vt 0.43356749949646284 0.5204454357662993
vt 0.43356749949646284 0.5322610607662994
vt 0.43190109324646286 0.5322610607662994
vt 0.43190109324646286 0.5204454357662993
vt 0.28739587308818965 0.5556523753833447
vt 0.28739587308818965 0.5436680003833447
vt 0.2890614980881896 0.5436680003833447
vt 0.2890614980881896 0.5556523753833447
vt 0.212603125 0.5749184692056523
vt 0.212603125 0.5869028442056523
vt 0.2109375 0.5869028442056523
vt 0.2109375 0.5749184692056523
vt 0.44921398763405784 0.5280617187500001
vt 0.44921398763405784 0.51624609375
vt 0.4508803938840579 0.51624609375
vt 0.4508803938840579 0.5280617187500001
vt 0.212603125 0.5869028442056523
vt 0.21223984375 0.5973192504556523
vt 0.21093828125 0.5980106567056522
vt 0.21093828125 0.5869028442056523
vt 0.44958039388405785 0.5383218750000001
vt 0.44921398763405784 0.5280617187500001
vt 0.4508803938840579 0.5280617187500001
vt 0.4508803938840579 0.5390125
vt 0.21223984375 0.5973192504556523
vt 0.21649601424729878 0.6000443468563758
vt 0.2161531355969983 0.6015625
vt 0.21093937506745172 0.5980100756561656
vt 0.4453125 0.5411926462416632
vt 0.44958039388405785 0.5383218750000001
vt 0.4508812623106738 0.5390129613516397
vt 0.4456703698657173 0.5426792871385451
vt 0.21230234375 0.5590840942056523
vt 0.212603125 0.5749184692056523
vt 0.2109375 0.5749184692056523
vt 0.2109375 0.5584403442056523
vt 0.44921398763405784 0.51624609375
vt 0.44951555013405786 0.50064375
vt 0.4508803938840579 0.5
vt 0.4508803938840579 0.51624609375
vt 0.43326046824646286 0.5048477795162993
vt 0.43356749949646284 0.5204454357662993
vt 0.43190109324646286 0.5204454357662993
vt 0.43190109324646286 0.5041993420162993
vt 0.28739587308818965 0.5436680003833447
vt 0.2877021230881896 0.5278383128833447
vt 0.2890614980881896 0.5271898753833447
vt 0.2890614980881896 0.5436680003833447
vt 0.21703115112196308 0.5555386464643193
vt 0.21230234375 0.5590840942056523
vt 0.2109378373215014 0.5584405033086386
vt 0.21596776448477237 0.5542526603635212
vt 0.0546875 0.3984375
vt 0.04868828125 0.3984375
vt 0.04867734375 0.390625
vt 0.05467734375 0.390625
vt 0.6079430096045476 0.7105924157375509
vt 0.6015625 0.7109375
vt 0.6015625 0.7092677930968047
vt 0.6085445175932213 0.7092269848464151
vt 0.2734375 0.390625
vt 0.2731688385539938 0.3978282115193005
vt 0.27179156820058153 0.3984375
vt 0.27179156820058153 0.390625
vt 0.6075625 0.953125
vt 0.6015625 0.953125
vt 0.60157265625 0.9453125
vt 0.60757265625 0.9453125
vt 0.2877021230881896 0.5278383128833447
vt 0.282978099238034 0.5242992382205515
vt 0.2840311650394468 0.5230035836080384
vt 0.289061469740911 0.5271898889053224
vt 0.0025359375000000017 0.38755078125
vt 0.002501562500000002 0.39328046875
vt 0.001667968750000002 0.39328046875
vt 0.0017023437500000016 0.38755078125
vt 0.015735937499999998 0.3984375
vt 0.0157015625 0.39272656250000004
vt 0.01653515625 0.39272656250000004
vt 0.01656953125 0.3984375
vt 0.6015625 0.7265625
vt 0.6015625 0.7215890625
vt 0.60239609375 0.7215890625
vt 0.60239609375 0.7265625
vt 0.0157015625 0.39272656250000004
vt 0.015660156249999998 0.38592109374999994
vt 0.016493749999999998 0.38592109374999994
vt 0.01653515625 0.39272656250000004
vt 0.0025773437500000024 0.3807296875
vt 0.0025359375000000017 0.38755078125
vt 0.0017023437500000016 0.38755078125
vt 0.0017437500000000022 0.3807296875
vt 0.015660156249999998 0.38592109374999994
vt 0.015625 0.38020937499999996
vt 0.016459375 0.38020937499999996
vt 0.016493749999999998 0.38592109374999994
vt 0.0026125000000000002 0.375
vt 0.0025773437500000024 0.3807296875
vt 0.0017437500000000022 0.3807296875
vt 0.001778125000000002 0.375
vt 0.2993765625 0.3937125
vt 0.2993765625 0.3984375
vt 0.2985421875 0.3984375
vt 0.2985421875 0.3937125
vt 0.60679765625 0.98229140625
vt 0.6067625 0.9765625
vt 0.607596875 0.9765625
vt 0.60763125 0.98229140625
vt 0.0390625 0.38021015625
vt 0.03902734375 0.38592109374999994
vt 0.03819375 0.38592109374999994
vt 0.038228125 0.38021015625
vt 0.6068734375 0.6953125
vt 0.6068734375 0.6905875
vt 0.6077078124999999 0.6905875
vt 0.6077078124999999 0.6953125
vt 0.03902734375 0.38592109374999994
vt 0.0389859375 0.39272578125
vt 0.03815234375 0.39272578125
vt 0.03819375 0.38592109374999994
vt 0.6068390625 0.98911171875
vt 0.60679765625 0.98229140625
vt 0.60763125 0.98229140625
vt 0.60767265625 0.98911171875
vt 0.0389859375 0.39272578125
vt 0.0389515625 0.3984375
vt 0.03811796875 0.3984375
vt 0.03815234375 0.39272578125
vt 0.6068734375 0.99484140625
vt 0.6068390625 0.98911171875
vt 0.60767265625 0.98911171875
vt 0.60770703125 0.99484140625
vt 0.2890625 0.3934640625
vt 0.2890625 0.3984375
vt 0.28822890624999997 0.3984375
vt 0.28822890624999997 0.3934640625
vn -0.9972366264391482 -1.312242533450756e-16 -0.07429071872224038
vn 0.9972366264391486 1.1302827516716673e-16 -0.07429071872223447
vn -0.022537192866617806 0.9875221731808146 -0.15585901454177756
vn 1.224646799147353e-16 -1 1.224646799147357e-16
vn -0.4304040999199309 -1.6325036729345767e-16 -0.9026363114633237
vn -0.3099782080470349 7.847113619962784e-17 0.9507436618436902
vn 0.3099782080470292 1.5439390025767409e-16 0.9507436618436921
vn 1.224646799147353e-16 -1 1.224646799147357e-16
vn 0.4304040999199363 -5.78317666320885e-17 -0.9026363114633211
vn 0.02112881816372057 0.986863379346412 -0.16016942138867923
vn 0.2069331817525721 -0.7690662233941004 0.6047444107423342
vn 0.23874367150723153 -0.8320527217730084 -0.5006892524364549
vn 0.6214972777298385 -0.7821605832226354 -0.04433910043321901
vn -0.25018002571900083 -0.8137123538412704 -0.524673384056538
vn -0.2041503780907009 -0.7761294067650009 0.5966119065858742
vn -0.6138585768881808 -0.7882003052028019 -0.04379413726776082
vn 0.30808126673665487 0.5865333042688732 -0.7490424661321785
vn 0.22926958820659107 0.8250519112288068 0.5164540634957514
vn 0.7728299236770398 0.6162390344150297 -0.1516026435540393
vn -0.2306577247519895 0.8214688874025184 0.5215226563073785
vn -0.3065019896110001 0.5906744137954495 -0.7464316896085674
vn -0.7629196331199101 0.6282150968469912 -0.15264149335520635
vn -0.43040409991993084 -1.6325036729345767e-16 -0.9026363114633237
vn -0.4304040999199304 -1.6325036729345763e-16 -0.9026363114633238
vn -0.9972366264391482 -1.312242533450756e-16 -0.07429071872224038
vn -0.9972366264391482 -1.312242533450756e-16 -0.07429071872224038
vn -0.3099782080470349 7.847113619962784e-17 0.9507436618436902
vn -0.3099782080470349 7.847113619962784e-17 0.9507436618436902
vn 0.3099782080470292 1.543939002576741e-16 0.9507436618436922
vn 0.3099782080470291 1.5439390025767409e-16 0.9507436618436921
vn 0.9972366264391486 1.1302827516716673e-16 -0.07429071872223446
vn 0.9972366264391486 1.1302827516716673e-16 -0.07429071872223447
vn 0.4304040999199363 -5.78317666320885e-17 -0.9026363114633211
vn 0.430404099919936 -5.783176663208855e-17 -0.9026363114633212
vn -0.4304040999199319 -1.6325036729345772e-16 -0.9026363114633232
vn -0.4304040999199308 -1.6325036729345767e-16 -0.9026363114633238
vn -0.43040409991993156 -1.6325036729345772e-16 -0.9026363114633235
vn -0.43040409991993095 -1.632503672934577e-16 -0.9026363114633237
vn 0.4304040999199368 -5.78317666320884e-17 -0.9026363114633208
vn 0.43040409991993583 -5.783176663208857e-17 -0.9026363114633212
vn 0.4304040999199372 -5.783176663208834e-17 -0.9026363114633208
vn 0.4304040999199362 -5.78317666320885e-17 -0.9026363114633211
vn -0.43040409991993117 -1.632503672934577e-16 -0.9026363114633237
vn -0.4313362478009674 -0.018629196657801685 -0.9019988882281772
vn -0.31032759203235255 0.5865768215367438 -0.7480804890245787
vn -0.30825782396692414 0.5751569927474008 -0.7577410822021882
vn 0.004753738050319541 0.9871505096148392 -0.15972248852842336
vn 0.00767279780353576 0.9880814071601806 -0.15374088915517423
vn -0.22353056241526628 0.8255259098488442 0.5182094748598799
vn -0.21933818218672313 0.8363273289265645 0.5024414002902049
vn -0.30997820804703446 7.847113619962789e-17 0.9507436618436903
vn -0.307443009819798 -0.03512414758724971 0.950918024841896
vn -0.30997820804703446 7.847113619962792e-17 0.9507436618436904
vn -0.3099782080470344 7.847113619962792e-17 0.9507436618436904
vn -0.30997820804703446 7.847113619962789e-17 0.9507436618436903
vn -0.31046456354709756 0.01966870618410329 0.9503814480399718
vn -0.198229064988603 -0.7687964608805553 0.6079944403785917
vn -0.18357701244086652 -0.8057722424764291 0.5630546809660611
vn 1.224646799147353e-16 -1 1.224646799147357e-16
vn 1.224646799147353e-16 -1 1.224646799147357e-16
vn -0.1983829107069263 -0.8337082114787615 -0.5153395374433561
vn -0.19421695049193777 -0.8412738852113077 -0.504517617336683
vn -0.4304040999199311 -1.632503672934577e-16 -0.9026363114633237
vn -0.4302499982876199 0.026757253942251136 -0.9023131320860698
vn -0.4304040999199312 -1.632503672934577e-16 -0.9026363114633237
vn -0.4304040999199309 -1.6325036729345767e-16 -0.9026363114633236
vn -0.4304040999199309 -1.6325036729345767e-16 -0.9026363114633238
vn -0.43040409991993095 -1.6325036729345767e-16 -0.9026363114633237
vn -0.4304040999199307 -1.6325036729345765e-16 -0.9026363114633237
vn -0.430404099919931 -1.6325036729345767e-16 -0.9026363114633237
vn 0.4304040999199365 -5.783176663208847e-17 -0.9026363114633211
vn 0.431338957999359 -0.01868811436080496 -0.9019963734370915
vn 0.308690612232658 0.5908855377077991 -0.7453619169552413
vn 0.3097743523270819 0.5711535284059917 -0.7601470236932609
vn -0.00724051531628802 0.9879463591928639 -0.15462718485285729
vn -0.00514477782771398 0.9872777957880169 -0.15892163227533965
vn 0.22515003962318825 0.821207097732093 0.5243342085846674
vn 0.21742041310921584 0.841092838061286 0.4952688176388952
vn 0.3099782080470289 1.5439390025767406e-16 0.9507436618436923
vn 0.3074437869459799 -0.03511413983267072 0.9509181431922132
vn 0.3099782080470289 1.5439390025767406e-16 0.9507436618436923
vn 0.30997820804702886 1.5439390025767406e-16 0.9507436618436923
vn 0.30997820804702886 1.5439390025767406e-16 0.9507436618436923
vn 0.3104507066240909 0.019032315128783485 0.9503989318898889
vn 0.196211180264607 -0.7741650498338416 0.6018053242992584
vn 0.18577111714191502 -0.8005216790460385 0.569784286737671
vn 1.224646799147353e-16 -1 1.224646799147357e-16
vn 1.224646799147353e-16 -1 1.224646799147357e-16
vn 0.2102168484465784 -0.8109284093137983 -0.546080572440534
vn 0.18171020741445038 -0.8626529889758905 -0.47202883506451127
vn 0.43040409991993633 -5.783176663208847e-17 -0.902636311463321
vn 0.43021771842584383 0.029425995945402125 -0.9022454352974487
vn 0.4304040999199364 -5.783176663208847e-17 -0.902636311463321
vn 0.4304040999199362 -5.78317666320885e-17 -0.9026363114633211
vn 0.43040409991993606 -5.783176663208854e-17 -0.9026363114633212
vn 0.43040409991993617 -5.783176663208851e-17 -0.9026363114633211
vn 0.43040409991993617 -5.783176663208851e-17 -0.9026363114633211
vn 0.4304040999199362 -5.78317666320885e-17 -0.902636311463321
vn -0.20599099417933522 -0.9734518288397703 0.09979602820511299
vn 0.1935941733514556 0.9765882964507546 -0.0937901662210903
vn 0.8999485140766411 5.681777366191523e-17 -0.43599618348243124
vn 0.19359082634593167 0.9765891156658213 -0.09378854470429013
vn -0.205987455686236 -0.9734527533524172 0.09979431391872658
vn -0.8999485140766408 -5.681777366191509e-17 0.435996183482432
vn 0.20599099417933492 -0.9734518288397703 0.09979602820511459
vn -0.19359417335145546 0.9765882964507546 -0.09379016622109142
vn 0.8999485140766381 1.6360603977036023e-16 0.43599618348243735
vn -0.19359082634593125 0.9765891156658213 -0.09378854470429117
vn 0.20598745568623533 -0.9734527533524172 0.09979431391872773
vn -0.8999485140766385 -1.6360603977036016e-16 -0.4359961834824366
vn 0.8999382004951871 -0.004787509765139141 0.43599118688309885
vn -0.9121859509559467 0.005232165442750212 -0.40974310893946136
vn 0.899948514076638 1.6360603977036026e-16 0.43599618348243796
vn -0.8999485140766378 -1.6360603977036028e-16 -0.43599618348243835
vn 0.899948514076638 1.6360603977036026e-16 0.43599618348243796
vn -0.8999485140766378 -1.6360603977036028e-16 -0.4359961834824383
vn 0.9125339512754179 0.0036909740864597535 0.4089843083542038
vn -0.8999450757620696 -0.002764257869046342 -0.4359945177293359
vn 0.912936345339549 -0.0037483525026046154 -0.40808476963932894
vn -0.899944522505862 0.00297836281768275 0.43599424969444533
vn 0.8999485140766402 5.681777366191491e-17 -0.4359961834824329
vn -0.8999485140766404 -5.681777366191499e-17 0.4359961834824325
vn 0.8999485140766403 5.681777366191493e-17 -0.4359961834824329
vn -0.8999485140766406 -5.681777366191501e-17 0.4359961834824325
vn 0.8999384291049592 0.004734153011329364 -0.43599129763719324
vn -0.9123002349028068 -0.005373922529836746 0.4094867547954723
vn 0.8951944368106122 -0.09061741529476275 -0.43636613565746324
vn -0.9342061005351144 0.025799967491690685 0.35579955508741656
vn -0.2919587234798366 0.5827150803372197 -0.758421544348268
vn 0.8824941308285104 0.07910562065656246 -0.46362313341093364
vn -0.9276868685393357 0.10254744868528237 0.3590001319050188
vn 0.30009069919672304 0.5497759770677239 -0.7795459879281348
vn 0.9467666632147477 0.030545749308673136 0.32046816163916225
vn -0.8854770553219591 0.0945324442336883 -0.45496593442317956
vn 0.9131440864605087 -0.012903682268858591 0.4074326598913094
vn -0.8917560678845565 -0.08430788528310884 -0.44459340511321604
vn 0.9829524085226349 -0.18366671686790642 0.008432063479111405
vn -0.9929295233757969 0.11509939448070244 0.02903602932373422
vn 0.9808386703400419 0.1941610854956648 0.01603045990369238
vn -0.9927542315032103 -0.1201472534080846 -0.0019165935833858367
vn 0.8535612805345291 -0.002028505927846197 0.5209885080651546
vn -0.9506025555340146 -0.10190749211629807 -0.29320580564301135
vn 0.9372929775109872 -0.005490362776995359 0.3484992542677318
vn -0.9492638348396871 0.004162580878182436 -0.3144532473769097
vn 0.9492720589315601 1.5476204876941347e-16 0.3144559716905323
vn -0.9492720589315603 -1.5476204876941345e-16 -0.31445597169053185
vn 0.9492720589315622 7.774254892869814e-17 -0.31445597169052575
vn -0.9492720589315619 -7.774254892869798e-17 0.31445597169052664
vn 0.937159981184055 0.005470252090615805 -0.3488570566996845
vn -0.9492634581383491 -0.004256845796343023 0.3144531225907754
vn 0.9603741611844576 -0.06357543604753595 -0.2713662367735078
vn -0.8916870247158968 -0.16412747685899268 0.42184881331255697
vn 0.9492720589315623 7.17231776157956e-17 -0.31445597169052586
vn -0.9492720589315621 -1.1161247450218482e-16 0.31445597169052636
vn 0.9492720589315602 1.761494026009727e-16 0.3144559716905323
vn -0.9492720589315604 -1.0386023276422729e-16 -0.31445597169053136
vn 0.9396219662309127 -0.05376030899899139 -0.33796507179394525
vn 0.2495995452552349 0.6368887619850975 0.7294331853332899
vn -0.8024131600978198 0.22500969448390265 0.5527239436555027
vn 0.8192220733913816 0.3555644745461845 0.44994343967772377
vn -0.251328519493889 0.6303684195731933 0.734485963714627
vn -0.9350996255256223 -0.03319762370703311 -0.3528265978098126
vn -0.20599099417933528 -0.9734518288397703 0.09979602820511273
vn 0.1935941733514558 0.9765882964507547 -0.09379016622108972
vn 0.8999485140766414 5.681777366191536e-17 -0.4359961834824304
vn 0.16247957392897838 0.9835670578063859 -0.07871614100009876
vn -0.1730480742048278 -0.9813388042980086 0.08383624033170445
vn 0.19359082634593175 0.9765891156658214 -0.09378854470429016
vn -0.2059874556862361 -0.9734527533524172 0.09979431391872624
vn -0.899948514076641 -5.681777366191521e-17 0.43599618348243124
vn 0.20599099417933517 -0.9734518288397703 0.09979602820511453
vn -0.19359417335145557 0.9765882964507545 -0.09379016622109106
vn 0.8999485140766386 1.6360603977036018e-16 0.4359961834824367
vn -0.16247957392897813 0.9835670578063859 -0.07871614100009962
vn 0.17304807420482737 -0.9813388042980086 0.08383624033170545
vn -0.1935908263459313 0.9765891156658212 -0.09378854470429089
vn 0.20598745568623564 -0.9734527533524172 0.0997943139187271
vn -0.899948514076639 -1.6360603977036013e-16 -0.43599618348243585
usemtl m_b486289d-1bb0-a945-f555-93e2e004edc1
f 4/1/1 30/2/1 28/3/1 3/4/1
f 7/5/2 36/6/2 34/7/2 8/8/2
f 23/9/3 52/10/3 50/11/3 24/12/3
f 17/13/4 64/14/4 62/15/4 18/16/4
f 28/17/5 68/18/5 66/19/5 3/20/5
f 4/21/6 60/22/6 58/23/6 30/24/6
f 10/25/7 88/26/7 86/27/7 32/28/7
f 15/29/8 92/30/8 90/31/8 14/32/8
f 27/33/9 96/34/9 94/35/9 11/36/9
f 21/37/10 80/38/10 78/39/10 20/40/10
f 14/41/11 90/42/11 88/43/11 10/44/11
f 11/45/12 94/46/12 92/47/12 15/48/12
f 13/49/13 16/50/13 7/51/13 8/52/13
f 3/53/14 66/54/14 64/55/14 17/56/14
f 18/57/15 62/58/15 60/59/15 4/60/15
f 17/61/16 18/62/16 4/63/16 3/64/16
f 20/65/17 78/66/17 76/67/17 12/68/17
f 9/69/18 82/70/18 80/71/18 21/72/18
f 19/73/19 22/74/19 6/75/19 5/76/19
f 2/77/20 54/78/20 52/79/20 23/80/20
f 24/81/21 50/82/21 48/83/21 1/84/21
f 23/85/22 24/86/22 1/87/22 2/88/22
f 1/89/23 48/90/23 47/91/23 26/92/23
f 165/93/24 167/94/24 166/95/24 168/96/24
f 1/97/25 26/98/25 29/99/25 2/100/25
f 26/101/26 28/102/26 30/103/26 29/104/26
f 29/105/27 56/106/27 54/107/27 2/108/27
f 30/109/28 58/110/28 56/111/28 29/112/28
f 31/113/29 84/114/29 82/115/29 9/116/29
f 32/117/30 86/118/30 84/119/30 31/120/30
f 6/121/31 33/122/31 35/123/31 5/124/31
f 33/125/32 34/126/32 36/127/32 35/128/32
f 12/129/33 76/130/33 75/131/33 25/132/33
f 173/133/34 175/134/34 174/135/34 176/136/34
f 38/137/35 37/138/35 25/139/35 27/140/35
f 39/141/36 70/142/36 68/143/36 28/144/36
f 40/145/37 39/146/37 28/147/37 26/148/37
f 26/149/38 47/150/38 72/151/38 40/152/38
f 42/153/39 41/154/39 35/155/39 36/156/39
f 43/157/40 98/158/40 96/159/40 27/160/40
f 44/161/41 43/162/41 27/163/41 25/164/41
f 25/165/42 75/166/42 100/167/42 44/168/42
f 25/169/43 45/170/43 46/171/43 12/172/43
f 130/173/44 129/174/44 131/175/44 132/176/44
f 12/177/45 46/178/45 49/179/45 20/180/45
f 132/181/46 131/182/46 133/183/46 134/184/46
f 20/185/47 49/186/47 51/187/47 21/188/47
f 134/189/48 133/190/48 143/191/48 144/192/48
f 21/193/49 51/194/49 53/195/49 9/196/49
f 144/197/50 143/198/50 145/199/50 146/200/50
f 9/201/51 53/202/51 55/203/51 31/204/51
f 146/205/52 145/206/52 147/207/52 148/208/52
f 31/209/53 55/210/53 57/211/53 32/212/53
f 148/213/54 147/214/54 149/215/54 150/216/54
f 32/217/55 57/218/55 59/219/55 10/220/55
f 150/221/56 149/222/56 159/223/56 160/224/56
f 10/225/57 59/226/57 61/227/57 14/228/57
f 160/229/58 159/230/58 163/231/58 164/232/58
f 14/233/59 61/234/59 63/235/59 15/236/59
f 61/237/60 62/238/60 64/239/60 63/240/60
f 15/241/61 63/242/61 65/243/61 11/244/61
f 135/245/62 136/246/62 126/247/62 125/248/62
f 11/249/63 65/250/63 67/251/63 27/252/63
f 125/253/64 126/254/64 127/255/64 128/256/64
f 27/257/65 67/258/65 69/259/65 38/260/65
f 128/261/66 127/262/66 102/263/66 105/264/66
f 171/265/67 169/266/67 170/267/67 172/268/67
f 169/269/68 166/270/68 167/271/68 170/272/68
f 37/273/69 71/274/69 45/275/69 25/276/69
f 106/277/70 103/278/70 129/279/70 130/280/70
f 35/281/71 73/282/71 74/283/71 5/284/71
f 117/285/72 118/286/72 119/287/72 120/288/72
f 5/289/73 74/290/73 77/291/73 19/292/73
f 120/293/74 119/294/74 139/295/74 140/296/74
f 19/297/75 77/298/75 79/299/75 22/300/75
f 140/301/76 139/302/76 141/303/76 142/304/76
f 22/305/77 79/306/77 81/307/77 6/308/77
f 142/309/78 141/310/78 156/311/78 155/312/78
f 6/313/79 81/314/79 83/315/79 33/316/79
f 155/317/80 156/318/80 152/319/80 151/320/80
f 33/321/81 83/322/81 85/323/81 34/324/81
f 151/325/82 152/326/82 153/327/82 154/328/82
f 34/329/83 85/330/83 87/331/83 8/332/83
f 154/333/84 153/334/84 157/335/84 158/336/84
f 8/337/85 87/338/85 89/339/85 13/340/85
f 158/341/86 157/342/86 161/343/86 162/344/86
f 13/345/87 89/346/87 91/347/87 16/348/87
f 89/349/88 90/350/88 92/351/88 91/352/88
f 16/353/89 91/354/89 93/355/89 7/356/89
f 137/357/90 138/358/90 124/359/90 123/360/90
f 7/361/91 93/362/91 95/363/91 36/364/91
f 123/365/92 124/366/92 122/367/92 121/368/92
f 36/369/93 95/370/93 97/371/93 42/372/93
f 121/373/94 122/374/94 110/375/94 113/376/94
f 179/377/95 177/378/95 178/379/95 180/380/95
f 177/381/96 174/382/96 175/383/96 178/384/96
f 41/385/97 99/386/97 73/387/97 35/388/97
f 114/389/98 111/390/98 118/391/98 117/392/98
f 103/393/99 101/394/99 40/395/99 72/396/99
f 104/397/100 102/398/100 70/399/100 39/400/100
f 101/401/101 104/402/101 39/403/101 40/404/101
f 105/405/102 107/406/102 38/407/102 69/408/102
f 108/409/103 106/410/103 71/411/103 37/412/103
f 107/413/104 108/414/104 37/415/104 38/416/104
f 111/417/105 109/418/105 44/419/105 100/420/105
f 112/421/106 110/422/106 98/423/106 43/424/106
f 109/425/107 112/426/107 43/427/107 44/428/107
f 113/429/108 115/430/108 42/431/108 97/432/108
f 116/433/109 114/434/109 99/435/109 41/436/109
f 115/437/110 116/438/110 41/439/110 42/440/110
f 119/441/111 118/442/111 75/443/111 76/444/111
f 117/445/112 120/446/112 74/447/112 73/448/112
f 118/449/113 111/450/113 100/451/113 75/452/113
f 114/453/114 117/454/114 73/455/114 99/456/114
f 110/457/115 122/458/115 96/459/115 98/460/115
f 121/461/116 113/462/116 97/463/116 95/464/116
f 122/465/117 124/466/117 94/467/117 96/468/117
f 123/469/118 121/470/118 95/471/118 93/472/118
f 127/473/119 126/474/119 66/475/119 68/476/119
f 125/477/120 128/478/120 67/479/120 65/480/120
f 102/481/121 127/482/121 68/483/121 70/484/121
f 128/485/122 105/486/122 69/487/122 67/488/122
f 129/489/123 103/490/123 72/491/123 47/492/123
f 106/493/124 130/494/124 45/495/124 71/496/124
f 131/497/125 129/498/125 47/499/125 48/500/125
f 130/501/126 132/502/126 46/503/126 45/504/126
f 133/505/127 131/506/127 48/507/127 50/508/127
f 132/509/128 134/510/128 49/511/128 46/512/128
f 136/513/129 135/514/129 63/515/129 64/516/129
f 126/517/130 136/518/130 64/519/130 66/520/130
f 135/521/131 125/522/131 65/523/131 63/524/131
f 138/525/132 137/526/132 91/527/132 92/528/132
f 124/529/133 138/530/133 92/531/133 94/532/133
f 137/533/134 123/534/134 93/535/134 91/536/134
f 139/537/135 119/538/135 76/539/135 78/540/135
f 120/541/136 140/542/136 77/543/136 74/544/136
f 141/545/137 139/546/137 78/547/137 80/548/137
f 140/549/138 142/550/138 79/551/138 77/552/138
f 143/553/139 133/554/139 50/555/139 52/556/139
f 134/557/140 144/558/140 51/559/140 49/560/140
f 145/561/141 143/562/141 52/563/141 54/564/141
f 144/565/142 146/566/142 53/567/142 51/568/142
f 147/569/143 145/570/143 54/571/143 56/572/143
f 146/573/144 148/574/144 55/575/144 53/576/144
f 149/577/145 147/578/145 56/579/145 58/580/145
f 148/581/146 150/582/146 57/583/146 55/584/146
f 153/585/147 152/586/147 84/587/147 86/588/147
f 151/589/148 154/590/148 85/591/148 83/592/148
f 152/593/149 156/594/149 82/595/149 84/596/149
f 155/597/150 151/598/150 83/599/150 81/600/150
f 156/601/151 141/602/151 80/603/151 82/604/151
f 142/605/152 155/606/152 81/607/152 79/608/152
f 157/609/153 153/610/153 86/611/153 88/612/153
f 154/613/154 158/614/154 87/615/154 85/616/154
f 159/617/155 149/618/155 58/619/155 60/620/155
f 150/621/156 160/622/156 59/623/156 57/624/156
f 161/625/157 157/626/157 88/627/157 90/628/157
f 162/629/158 161/630/158 90/631/158 89/632/158
f 158/633/159 162/634/159 89/635/159 87/636/159
f 163/637/160 159/638/160 60/639/160 62/640/160
f 164/641/161 163/642/161 62/643/161 61/644/161
f 160/645/162 164/646/162 61/647/162 59/648/162
f 167/649/163 165/650/163 101/651/163 103/652/163
f 168/653/164 166/654/164 102/655/164 104/656/164
f 165/657/165 168/658/165 104/659/165 101/660/165
f 166/661/166 169/662/166 105/663/166 102/664/166
f 170/665/167 167/666/167 103/667/167 106/668/167
f 169/669/168 171/670/168 107/671/168 105/672/168
f 172/673/169 170/674/169 106/675/169 108/676/169
f 171/677/170 172/678/170 108/679/170 107/680/170
f 175/681/171 173/682/171 109/683/171 111/684/171
f 176/685/172 174/686/172 110/687/172 112/688/172
f 173/689/173 176/690/173 112/691/173 109/692/173
f 174/693/174 177/694/174 113/695/174 110/696/174
f 178/697/175 175/698/175 111/699/175 114/700/175
f 177/701/176 179/702/176 115/703/176 113/704/176
f 180/705/177 178/706/177 114/707/177 116/708/177
f 179/709/178 180/710/178 116/711/178 115/712/178
o cuboid
v 0.2246022393506033 1.4402388474302836 0.08279382470119503
v 0.21011177229572564 1.3981989659774028 -0.05183640438247031
v 0.2246022393506033 1.3048627154122914 0.08279382470119503
v 0.21011177229572564 1.284035618178754 -0.05183640438247031
v -0.2246022393506037 1.4402388474302836 0.08279382470119503
v -0.21011177229572603 1.3981989659774028 -0.05183640438247031
v -0.2246022393506037 1.3048627154122914 0.08279382470119503
v -0.21011177229572603 1.284035618178754 -0.05183640438247031
v 0.18560583536468264 1.4402388474302836 0.08279382470119503
v 0.18560583536468264 1.3048627154122914 0.08279382470119503
v -0.18560583536468298 1.4402388474302836 0.08279382470119503
v -0.18560583536468298 1.3048627154122914 0.08279382470119503
v 0.17363126534115467 1.284035618178754 -0.05183640438247031
v -0.17363126534115503 1.284035618178754 -0.05183640438247031
v 0.17363126534115467 1.3981989659774028 -0.05183640438247031
v -0.17363126534115503 1.3981989659774028 -0.05183640438247031
v -0.21877227695470855 1.3216302642767248 0.08279382470119503
v -0.19143579776057812 1.4338848471826187 0.08279382470119503
v -0.19143579776057812 1.3216302642767248 0.08279382470119503
v -0.21877227695470855 1.4338848471826187 0.08279382470119503
v 0.21877227695470816 1.4338848471826187 0.08279382470119503
v 0.19143579776057776 1.4338848471826187 0.08279382470119503
v 0.19143579776057776 1.321630264276725 0.08279382470119503
v 0.21877227695470816 1.321630264276725 0.08279382470119503
v -0.20628131906549607 1.3810050401501603 -0.05183640438247031
v -0.17746171857138499 1.2908159953892278 -0.05183640438247031
v -0.17746171857138499 1.3810050401501603 -0.05183640438247031
v -0.20628131906549607 1.2908159953892278 -0.05183640438247031
v 0.20628131906549568 1.2908159953892278 -0.05183640438247031
v 0.17746171857138462 1.2908159953892278 -0.05183640438247031
v 0.17746171857138462 1.3810050401501603 -0.05183640438247031
v 0.20628131906549568 1.3810050401501603 -0.05183640438247031
v -0.19967537084930184 1.276869553982474 -0.15156250000000016
v -0.17177868857841122 1.2561041666666657 -0.15156250000000016
v -0.17177868857841122 1.276869553982474 -0.15156250000000016
v -0.19967537084930184 1.2561041666666657 -0.15156250000000016
v 0.19967537084930145 1.2561041666666657 -0.15156250000000016
v 0.17177868857841086 1.2561041666666657 -0.15156250000000016
v 0.17177868857841086 1.276869553982474 -0.15156250000000016
v 0.19967537084930145 1.276869553982474 -0.15156250000000016
v -0.23198417338709695 1.4708911277837422 0.26562499999999983
v -0.20299681439701434 1.506779687499999 0.26562499999999983
v -0.20299681439701434 1.4708911277837422 0.26562499999999983
v -0.23198417338709695 1.506779687499999 0.26562499999999983
v 0.23198417338709656 1.5067796874999992 0.26562499999999983
v 0.20299681439701397 1.5067796874999992 0.26562499999999983
v 0.20299681439701397 1.4708911277837422 0.26562499999999983
v 0.23198417338709656 1.4708911277837422 0.26562499999999983
vt 0.4296875 0.6509953125
vt 0.4140625 0.65625
vt 0.4140625 0.639328125
vt 0.4296875 0.636725
vt 0.4375 0.725265625
vt 0.4375 0.7421875
vt 0.421875 0.7369328125
vt 0.421875 0.7226625
vt 0.278075 0.8984375
vt 0.27320078125 0.8984375
vt 0.27170390625 0.88080703125
vt 0.2762640625 0.88080703125
vt 0.2315484375 0.9765625
vt 0.23610859375 0.9765625
vt 0.23461171875 0.99359140625
vt 0.2297375 0.99359140625
vt 0.046875 0.625
vt 0.0546875 0.625
vt 0.0546875 0.6328125
vt 0.046875 0.6328125
vt 0.375 0.78125
vt 0.3671875 0.78125
vt 0.3671875 0.7734375
vt 0.375 0.7734375
vt 0.453125 0.7265625
vt 0.4453125 0.7265625
vt 0.4453125 0.71875
vt 0.453125 0.71875
vt 0.29663828125 0.96875
vt 0.25023671875 0.96875
vt 0.25023671875 0.951828125
vt 0.29663828125 0.951828125
vt 0.2858875 0.99359140625
vt 0.28101328125 0.99359140625
vt 0.27951640625 0.9765625
vt 0.2840765625 0.9765625
vt 0.28101328125 0.99359140625
vt 0.23461171875 0.99359140625
vt 0.23610859375 0.9765625
vt 0.27951640625 0.9765625
vt 0.578125 0.5703125
vt 0.5859375 0.5703125
vt 0.5859375 0.578125
vt 0.578125 0.578125
vt 0.27907734375 0.8529171875
vt 0.32248515625 0.8529171875
vt 0.32248515625 0.8671875
vt 0.27907734375 0.8671875
vt 0.2237359375 0.88080703125
vt 0.22829609375 0.88080703125
vt 0.22679921875 0.8984375
vt 0.221925 0.8984375
vt 0.22829609375 0.88080703125
vt 0.27170390625 0.88080703125
vt 0.27320078125 0.8984375
vt 0.22679921875 0.8984375
vt 0.2495078125 0.95392421875
vt 0.246090625 0.95392421875
vt 0.2453625 0.951828125
vt 0.25023671875 0.951828125
vt 0.2495078125 0.96795625
vt 0.2495078125 0.95392421875
vt 0.25023671875 0.951828125
vt 0.25023671875 0.96875
vt 0.246090625 0.96795625
vt 0.2495078125 0.96795625
vt 0.25023671875 0.96875
vt 0.2453625 0.96875
vt 0.246090625 0.95392421875
vt 0.246090625 0.96795625
vt 0.2453625 0.96875
vt 0.2453625 0.951828125
vt 0.2973671875 0.96795625
vt 0.300784375 0.96795625
vt 0.3015125 0.96875
vt 0.29663828125 0.96875
vt 0.2973671875 0.95392421875
vt 0.2973671875 0.96795625
vt 0.29663828125 0.96875
vt 0.29663828125 0.951828125
vt 0.300784375 0.95392421875
vt 0.2973671875 0.95392421875
vt 0.29663828125 0.951828125
vt 0.3015125 0.951828125
vt 0.300784375 0.96795625
vt 0.300784375 0.95392421875
vt 0.3015125 0.951828125
vt 0.3015125 0.96875
vt 0.3229640625 0.8650382812499999
vt 0.32656640625 0.8650382812499999
vt 0.3270453125 0.8671875
vt 0.32248515625 0.8671875
vt 0.3229640625 0.8537648437500001
vt 0.3229640625 0.8650382812499999
vt 0.32248515625 0.8671875
vt 0.32248515625 0.8529171875
vt 0.32656640625 0.8537648437500001
vt 0.3229640625 0.8537648437500001
vt 0.32248515625 0.8529171875
vt 0.3270453125 0.8529171875
vt 0.32656640625 0.8650382812499999
vt 0.32656640625 0.8537648437500001
vt 0.3270453125 0.8529171875
vt 0.3270453125 0.8671875
vt 0.2785984375 0.8537648437500001
vt 0.27499609375 0.8537648437500001
vt 0.2745171875 0.8529171875
vt 0.27907734375 0.8529171875
vt 0.2785984375 0.8650382812499999
vt 0.2785984375 0.8537648437500001
vt 0.27907734375 0.8529171875
vt 0.27907734375 0.8671875
vt 0.27499609375 0.8650382812499999
vt 0.2785984375 0.8650382812499999
vt 0.27907734375 0.8671875
vt 0.2745171875 0.8671875
vt 0.27499609375 0.8537648437500001
vt 0.27499609375 0.8650382812499999
vt 0.2745171875 0.8671875
vt 0.2745171875 0.8529171875
vt 0.36199278556028947 0.468634496169534
vt 0.36215236941503987 0.4609375
vt 0.38019471443971053 0.4609375
vt 0.3800298385368976 0.46875
vt 0.5294447326533303 0.6910271706218885
vt 0.53125 0.6929001552490656
vt 0.53125 0.7109375
vt 0.5234375 0.7028016877874276
vt 0.16417795800960505 0.42206232464788573
vt 0.171875 0.421875
vt 0.171875 0.4350933091774162
vt 0.1640625 0.4352868458010777
vt 0.528832787314228 0.6796875
vt 0.5269603080334446 0.6778904278490574
vt 0.5387413828953332 0.671881434034286
vt 0.546875 0.6796875
vt 0.5557786306565963 0.5076971006226547
vt 0.5559963441909436 0.5
vt 0.5692213693434037 0.5
vt 0.5689964360906868 0.5078125
vt 0.5253104846271771 0.6640625
vt 0.5234375 0.662265954548581
vt 0.5352120171655391 0.6562587218952507
vt 0.5433478293781115 0.6640625
vt 0.3126155353502662 0.4507080248982519
vt 0.3203125 0.4505707483515994
vt 0.3203125 0.4686081711502096
vt 0.3125 0.46875
vt 0.5294464938147714 0.7378978080334446
vt 0.53125 0.739770287314228
vt 0.53125 0.7578125
vt 0.5234375 0.7496788828953332
vt 0.05259013925801045 0.4357869692247154
vt 0.04897236074198955 0.43598939927540925
vt 0.04897236074198955 0.4064409075122326
vt 0.05238421137352802 0.40625
vt 0.07072440593161955 0.609375
vt 0.06724668998590871 0.6065414285689514
vt 0.06724668998590871 0.5770035175621535
vt 0.078125 0.5858669408420324
vt 0.59055393672291 0.6916952918544554
vt 0.5903415584090173 0.6953125
vt 0.56569606327709 0.6953125
vt 0.5658963527865697 0.6919011872728305
vt 0.3877925322049513 0.5546875
vt 0.390625 0.5550974930077581
vt 0.3671030832187762 0.5625
vt 0.35824311211691806 0.5546875
vt 0.5682139043547307 0.6013199257810526
vt 0.5645985956452693 0.6015625
vt 0.5645985956452693 0.5769040564460979
vt 0.5680081170543215 0.5766752898152924
vt 0.4670379110067978 0.640625
vt 0.46987148243784643 0.6410369059316195
vt 0.4463634232798788 0.6484375
vt 0.4375 0.640625
vt 0.5851699450663986 0.609375
vt 0.5849927420007262 0.6129941018761458
vt 0.5554550549336014 0.6129941018761458
vt 0.5556221714082136 0.6095810032115788
vt 0.2847286148743312 0.6171875
vt 0.28125 0.6143550322049514
vt 0.28125 0.5848056121169181
vt 0.2921311218665731 0.5936655832187763
vn 0.9942575640815245 0 -0.10701353310060051
vn -0.9942575640815245 0 -0.10701353310060051
vn 0 0.9545446803196779 -0.29806786689176057
vn 0 -0.9882447596471274 0.15288000206041177
vn 0 0 1
vn 0 0 -1
vn 0 0 1
vn 0 0 1
vn 0 -0.9882447596471273 0.15288000206041177
vn 0 -0.9882447596471273 0.15288000206041175
vn 0 0 -1
vn 0 0 -1
vn 0 0.9545446803196779 -0.29806786689176057
vn 0 0.9545446803196779 -0.2980678668917605
vn 0 0 1
vn 0 0 1
vn 0 0 1
vn 0 0 1
vn 0 0 1
vn 0 0 1
vn 0 0 1
vn 0 0 1
vn 0 0 -1
vn 0 0 -1
vn 0 0 -1
vn 0 0 -1
vn 0 0 -1
vn 0 0 -1
vn 0 0 -1
vn 0 0 -1
vn 0 0.6916507634419659 -0.7222321104950582
vn 0.9983802198316634 0 0.05689408272289504
vn 0 -0.9444248075601028 0.32872752069923067
vn -0.9978132640206758 0 -0.06609606754115892
vn 0 -0.9444248075601027 0.3287275206992307
vn -0.9983802198316634 0 0.05689408272289504
vn 0 0.6916507634419657 -0.7222321104950582
vn 0.9978132640206758 0 -0.06609606754115892
vn 0 -0.7746385251593101 0.632404265750168
vn 0.9980067509903033 0 0.06310724980363884
vn 0 0.9288924187356609 -0.3703496650672358
vn -0.9973992237289003 0 -0.07207488123463902
vn 0 0.9288924187356605 -0.3703496650672365
vn -0.9980067509903033 0 0.06310724980363884
vn 0 -0.77463852515931 0.6324042657501681
vn 0.9973992237289003 0 -0.07207488123463902
usemtl m_b486289d-1bb0-a945-f555-93e2e004edc1
f 182/713/179 181/714/179 183/715/179 184/716/179
f 187/717/180 185/718/180 186/719/180 188/720/180
f 185/721/181 191/722/181 196/723/181 186/724/181
f 188/725/182 194/726/182 192/727/182 187/728/182
f 221/729/183 223/730/183 222/731/183 224/732/183
f 213/733/184 215/734/184 214/735/184 216/736/184
f 225/737/185 226/738/185 227/739/185 228/740/185
f 189/741/186 191/742/186 192/743/186 190/744/186
f 183/745/187 190/746/187 193/747/187 184/748/187
f 190/749/188 192/750/188 194/751/188 193/752/188
f 217/753/189 218/754/189 219/755/189 220/756/189
f 193/757/190 194/758/190 196/759/190 195/760/190
f 182/761/191 195/762/191 189/763/191 181/764/191
f 195/765/192 196/766/192 191/767/192 189/768/192
f 199/769/193 197/770/193 187/771/193 192/772/193
f 198/773/194 199/774/194 192/775/194 191/776/194
f 200/777/195 198/778/195 191/779/195 185/780/195
f 197/781/196 200/782/196 185/783/196 187/784/196
f 202/785/197 201/786/197 181/787/197 189/788/197
f 203/789/198 202/790/198 189/791/198 190/792/198
f 204/793/199 203/794/199 190/795/199 183/796/199
f 201/797/200 204/798/200 183/799/200 181/800/200
f 207/801/201 205/802/201 186/803/201 196/804/201
f 206/805/202 207/806/202 196/807/202 194/808/202
f 208/809/203 206/810/203 194/811/203 188/812/203
f 205/813/204 208/814/204 188/815/204 186/816/204
f 210/817/205 209/818/205 184/819/205 193/820/205
f 211/821/206 210/822/206 193/823/206 195/824/206
f 212/825/207 211/826/207 195/827/207 182/828/207
f 209/829/208 212/830/208 182/831/208 184/832/208
f 215/833/209 213/834/209 205/835/209 207/836/209
f 214/837/210 215/838/210 207/839/210 206/840/210
f 216/841/211 214/842/211 206/843/211 208/844/211
f 213/845/212 216/846/212 208/847/212 205/848/212
f 218/849/213 217/850/213 209/851/213 210/852/213
f 219/853/214 218/854/214 210/855/214 211/856/214
f 220/857/215 219/858/215 211/859/215 212/860/215
f 217/861/216 220/862/216 212/863/216 209/864/216
f 223/865/217 221/866/217 197/867/217 199/868/217
f 222/869/218 223/870/218 199/871/218 198/872/218
f 224/873/219 222/874/219 198/875/219 200/876/219
f 221/877/220 224/878/220 200/879/220 197/880/220
f 226/881/221 225/882/221 201/883/221 202/884/221
f 227/885/222 226/886/222 202/887/222 203/888/222
f 228/889/223 227/890/223 203/891/223 204/892/223
f 225/893/224 228/894/224 204/895/224 201/896/224