# Made in Blockbench 5.1.6
mtllib RadioVillain_ArmL.mtl

o cuboid
v -0.8250000000000001 1.0437500000000015 0.10937499999999997
v -0.8250000000000001 1.0437500000000015 -0.11718749999999994
v -0.8250000000000001 0.9187500000000018 0.10937499999999997
v -0.8250000000000001 0.9187500000000018 -0.11718749999999994
v -0.6250000000000001 1.0437500000000015 0.08437499999999995
v -0.6250000000000001 1.0437500000000015 -0.11718749999999994
v -0.6250000000000001 0.9187500000000018 0.08437499999999995
v -0.6250000000000001 0.9187500000000018 -0.11718749999999994
v -0.6250000000000001 0.993750000000002 -0.11718749999999994
v -0.85 0.993750000000002 -0.11718749999999994
v -0.85 0.993750000000002 0.10937499999999997
v -0.6250000000000001 0.993750000000002 0.08437499999999995
v -0.7250000000000001 0.993750000000002 -0.11718749999999994
v -0.7250000000000001 1.0437500000000015 -0.11718749999999994
v -0.7250000000000001 1.0437500000000015 0.10937499999999997
v -0.7250000000000001 0.993750000000002 0.10937499999999997
v -0.7250000000000001 0.9187500000000018 0.10937499999999997
v -0.7250000000000001 0.9187500000000018 -0.11718749999999994
v -0.8250000000000001 0.9187500000000018 -0.042187500000000024
v -0.7250000000000001 0.9187500000000018 -0.042187500000000024
v -0.6250000000000001 0.9187500000000018 -0.042187500000000024
v -0.6250000000000001 0.993750000000002 -0.042187500000000024
v -0.6250000000000001 1.0437500000000015 -0.042187500000000024
v -0.6250000000000001 0.8812500000000015 -0.14843749999999997
v -0.7250000000000001 0.8812500000000015 -0.14843749999999997
v -0.7250000000000001 0.8812500000000018 -0.042187500000000024
v -0.6250000000000001 0.8812500000000018 -0.042187500000000024
v -0.6812500000000001 0.9187500000000018 -0.042187500000000024
v -0.6812500000000001 0.9187500000000018 0.10937499999999997
v -0.6812500000000001 0.993750000000002 0.10937499999999997
v -0.6812500000000001 1.0437500000000015 0.10937499999999997
v -0.6812500000000001 1.0437500000000015 -0.11718749999999994
v -0.6812500000000001 0.993750000000002 -0.11718749999999994
v -0.6812500000000001 0.8812500000000015 -0.14843749999999997
v -0.6812500000000001 0.8812500000000018 -0.042187500000000024
v -0.7250000000000001 0.8937500000000017 -0.11718749999999994
v -0.8171875000000001 0.8937500000000017 -0.042187500000000024
v -0.7250000000000001 0.8937500000000017 -0.042187500000000024
v -0.8171875000000001 0.8937500000000017 -0.11718749999999994
v -0.8171875000000001 0.8937500000000017 0.10937499999999997
v -0.7250000000000001 0.8937500000000017 0.10937499999999997
v -0.6812500000000001 0.8937500000000017 -0.042187500000000024
v -0.6812500000000001 0.8937500000000017 0.10937499999999997
v -0.6390625000000001 1.0437500000000015 -0.09843749999999997
v -0.6812500000000001 1.0437500000000015 -0.09843749999999996
v -0.6390625000000001 1.0437500000000015 -0.042187500000000024
v -0.7250000000000001 1.0437500000000015 -0.09843749999999996
v -0.7250000000000001 1.0437500000000015 0.07617187499999997
v -0.6812500000000001 1.0437500000000015 0.07617187499999997
v -0.6390625000000001 1.0437500000000015 0.07617187499999997
v -0.8250000000000001 1.0437500000000015 -0.09843749999999996
v -0.8250000000000001 1.0437500000000015 0.07617187499999997
v -0.85 0.993750000000002 0.07617187499999997
v -0.85 0.993750000000002 -0.09843749999999996
v -0.83125 0.9375000000000019 -0.042187500000000024
v -0.83125 0.9375000000000019 0.07617187499999997
v -0.83125 0.9375000000000019 -0.09843749999999996
v -0.6390625000000001 1.0706813562148447 -0.09843749999999997
v -0.6812500000000001 1.0706813562148447 -0.09843749999999996
v -0.6390625000000001 1.0706813562148447 -0.042187500000000024
v -0.6812500000000001 1.0706813562148447 0.07617187499999997
v -0.6390625000000001 1.0706813562148447 0.07617187499999997
v -0.7250000000000001 1.0706813562148447 -0.09843749999999996
v -0.7250000000000001 1.0706813562148447 0.07617187499999997
v -0.8389754248593737 1.0706813562148447 0.07617187499999997
v -0.8389754248593737 1.0706813562148447 -0.09843749999999996
v -0.878798601391413 0.9957966535856758 -0.09843749999999996
v -0.878798601391413 0.9957966535856758 0.07617187499999997
v -0.8608963530640786 0.9276178823119757 -0.09843749999999996
v -0.8608963530640786 0.9276178823119757 -0.042187500000000024
v -0.8608963530640786 0.9276178823119757 0.07617187499999997
v -0.8527710018690101 1.0977870533187088 -0.09843749999999996
v -0.7250000000000001 1.0977870533187088 -0.042187500000000024
v -0.8527710018690101 1.0977870533187088 -0.042187500000000024
v -0.7250000000000001 1.0977870533187088 -0.09843749999999996
v -0.6812500000000001 1.0977870533187088 -0.042187500000000024
v -0.6812500000000001 1.0977870533187088 -0.09843749999999996
v -0.6390625000000001 1.0977870533187088 -0.09843749999999997
v -0.6390625000000001 1.0977870533187088 -0.042187500000000024
v -0.6812500000000001 1.0977870533187088 0.07617187499999997
v -0.6390625000000001 1.0977870533187088 0.07617187499999997
v -0.7250000000000001 1.0977870533187088 0.07617187499999997
v -0.8527710018690101 1.0977870533187088 0.07617187499999997
v -0.9077068725505815 0.9991647861409044 -0.09843749999999996
v -0.9077068725505815 0.9991647861409044 0.07617187499999997
v -0.8911217413631427 0.9196813590069762 -0.09843749999999996
v -0.8911217413631427 0.9196813590069762 -0.042187500000000024
v -0.8911217413631427 0.9196813590069762 0.07617187499999997
v -0.6812500000000001 1.0977870533187088 -0.12968749999999996
v -0.6390625000000001 1.0977870533187088 -0.12968749999999996
v -0.6390625000000001 1.0706813562148447 -0.12968749999999996
v -0.6812500000000001 1.0706813562148447 -0.12968749999999996
v -0.7250000000000001 1.0977870533187088 -0.12968749999999996
v -0.7250000000000001 1.0706813562148447 -0.12968749999999996
v -0.8527710018690101 1.0977870533187088 -0.12968749999999996
v -0.8389754248593737 1.0706813562148447 -0.12968749999999996
v -0.9077068725505815 0.9991647861409044 -0.12968749999999996
v -0.878798601391413 0.9957966535856758 -0.12968749999999996
v -0.8911217413631427 0.9196813590069762 -0.12968749999999996
v -0.8608963530640786 0.9276178823119757 -0.12968749999999996
v -0.9077068725505815 0.9991647861409044 0.10742187499999997
v -0.8911217413631427 0.9196813590069762 0.10742187499999997
v -0.8608963530640786 0.9276178823119757 0.10742187499999997
v -0.878798601391413 0.9957966535856758 0.10742187499999997
v -0.8527710018690101 1.0977870533187088 0.10742187499999997
v -0.8389754248593737 1.0706813562148447 0.10742187499999997
v -0.7250000000000001 1.0977870533187088 0.10742187499999997
v -0.7250000000000001 1.0706813562148447 0.10742187499999997
v -0.6812500000000001 1.0977870533187088 0.10742187499999997
v -0.6812500000000001 1.0706813562148447 0.10742187499999997
v -0.6390625000000001 1.0977870533187088 0.10742187499999997
v -0.6390625000000001 1.0706813562148447 0.10742187499999997
v -0.8636911109597338 1.1038699159216856 0.07617187499999997
v -0.8636911109597338 1.1038699159216856 -0.042187500000000024
v -0.9192851535244028 1.000929579134139 -0.042187500000000024
v -0.9192851535244028 1.000929579134139 0.07617187499999997
v -0.9192851535244028 1.000929579134139 -0.09843749999999996
v -0.8636911109597338 1.1038699159216856 -0.09843749999999996
v -0.9033581942200616 0.9171280823904692 -0.09843749999999996
v -0.9033581942200616 0.9171280823904692 -0.042187500000000024
v -0.9033581942200616 0.9171280823904692 0.07617187499999997
vt 0.469555859375 0.796875
vt 0.476587109375 0.796875
vt 0.476587109375 0.80753828125
vt 0.469555859375 0.80753828125
vt 0.002268359375000001 0.73828125
vt 0.002268359375000001 0.73125
vt 0.018239453125 0.73125
vt 0.018239453125 0.73828125
vt 0.36630859375 0.8125
vt 0.36630859375 0.821875
vt 0.35478515625 0.821875
vt 0.35478515625 0.8125
vt 0.363671875 0.90625
vt 0.376171875 0.90625
vt 0.376171875 0.915625
vt 0.360546875 0.915625
vt 0.35 0.93125
vt 0.334375 0.93125
vt 0.334375 0.921875
vt 0.346875 0.921875
vt 0.15126953125 0.696875
vt 0.14189453125 0.696875
vt 0.14189453125 0.6875
vt 0.15126953125 0.6875
vt 0.346875 0.9375
vt 0.334375 0.9375
vt 0.334375 0.93125
vt 0.35 0.93125
vt 0.0008058593750000006 0.57912578125
vt 0.007837109375 0.57912578125
vt 0.007837109375 0.59375
vt 0.0008058593750000006 0.59375
vt 0.360546875 0.915625
vt 0.376171875 0.915625
vt 0.376171875 0.921875
vt 0.363671875 0.921875
vt 0.15126953125 0.703125
vt 0.14189453125 0.703125
vt 0.14189453125 0.696875
vt 0.15126953125 0.696875
vt 0.321875 0.93125
vt 0.32890625 0.93125
vt 0.32890625 0.9375
vt 0.321875 0.9375
vt 0.028981640625 0.73828125
vt 0.023708203124999994 0.73828125
vt 0.023708203124999994 0.73125
vt 0.028981640625 0.73125
vt 0.5625 0.5546875
vt 0.55480546875 0.5546875
vt 0.55480546875 0.5484375
vt 0.5625 0.5484375
vt 0.5625 0.5484375
vt 0.55480546875 0.5484375
vt 0.55480546875 0.5390625
vt 0.5625 0.5390625
vt 0.5296875 0.56796875
vt 0.52265625 0.56796875
vt 0.52265625 0.5546875
vt 0.5296875 0.5546875
vt 0.071875 0.4697796875
vt 0.07890625000000001 0.4697796875
vt 0.07890625000000001 0.484375
vt 0.071875 0.484375
vt 0.491381640625 0.80753828125
vt 0.476587109375 0.80753828125
vt 0.476587109375 0.796875
vt 0.491381640625 0.796875
vt 0.35478515625 0.8408203125
vt 0.35478515625 0.821875
vt 0.36630859375 0.821875
vt 0.36630859375 0.8408203125
vt 0.25 0.44218749999999996
vt 0.2421875 0.4453125
vt 0.2421875 0.4296875
vt 0.25 0.4296875
vt 0.12607421875 0.6875
vt 0.14189453125 0.6875
vt 0.14189453125 0.696875
vt 0.12607421875 0.696875
vt 0.12607421875 0.696875
vt 0.14189453125 0.696875
vt 0.14189453125 0.703125
vt 0.12607421875 0.703125
vt 0.028981640625 0.73125
vt 0.023708203124999994 0.73125
vt 0.023708203124999994 0.71645546875
vt 0.028981640625 0.71645546875
vt 0.018239453125 0.71645546875
vt 0.018239453125 0.73125
vt 0.002268359375000001 0.73125
vt 0.002268359375000001 0.71645546875
vt 0.022631640624999998 0.59375
vt 0.007837109375 0.59375
vt 0.007837109375 0.57912578125
vt 0.022631640624999998 0.57912578125
vt 0.501171875 0.5015625
vt 0.505078125 0.50625
vt 0.505078125 0.515625
vt 0.15517578125 0.6828125
vt 0.15126953125 0.696875
vt 0.15126953125 0.6875
vt 0.14189453125 0.6828125
vt 0.15517578125 0.6828125
vt 0.15126953125 0.6875
vt 0.14189453125 0.6875
vt 0.6078125 0.5859375
vt 0.60078125 0.5859375
vt 0.60078125 0.58125
vt 0.6078125 0.58125
vt 0.501171875 0.5015625
vt 0.514453125 0.5015625
vt 0.514453125 0.50625
vt 0.505078125 0.50625
vt 0.36630859375 0.821875
vt 0.37177734375 0.821875
vt 0.37177734375 0.8408203125
vt 0.36630859375 0.8408203125
vt 0.376171875 0.90625
vt 0.381640625 0.90625
vt 0.381640625 0.915625
vt 0.376171875 0.915625
vt 0.376171875 0.915625
vt 0.381640625 0.915625
vt 0.381640625 0.921875
vt 0.376171875 0.921875
vt 0.018239453125 0.71645546875
vt 0.023708203124999994 0.71645546875
vt 0.023708203124999994 0.73125
vt 0.018239453125 0.73125
vt 0.018239453125 0.73125
vt 0.023708203124999994 0.73125
vt 0.023708203124999994 0.73828125
vt 0.018239453125 0.73828125
vt 0.334375 0.9375
vt 0.32890625 0.9375
vt 0.32890625 0.93125
vt 0.334375 0.93125
vt 0.084375 0.484375
vt 0.07890625000000001 0.484375
vt 0.07890625000000001 0.4697796875
vt 0.084375 0.4697796875
vt 0.5171875 0.5546875
vt 0.52265625 0.5546875
vt 0.52265625 0.56796875
vt 0.5171875 0.56796875
vt 0.5953125 0.58125
vt 0.60078125 0.58125
vt 0.60078125 0.5859375
vt 0.5953125 0.5859375
vt 0.265625 0.40625
vt 0.2734375 0.40625
vt 0.2734375 0.4140625
vt 0.265625 0.4140625
vt 0.36083984375 0.875
vt 0.37021484375 0.875
vt 0.37021484375 0.87827421875
vt 0.36083984375 0.87827421875
vt 0.334375 0.91875
vt 0.3458984375 0.91875
vt 0.346875 0.921875
vt 0.334375 0.921875
vt 0.37021484375 0.875
vt 0.38916015625 0.875
vt 0.38916015625 0.87827421875
vt 0.37021484375 0.87827421875
vt 0.3646484375 0.903125
vt 0.376171875 0.903125
vt 0.376171875 0.90625
vt 0.363671875 0.90625
vt 0.5859375 0.7265625
vt 0.59375 0.7265625
vt 0.59375 0.734375
vt 0.5859375 0.734375
vt 0.2578125 0.4375
vt 0.2734375 0.4375
vt 0.2734375 0.4453125
vt 0.2578125 0.4453125
vt 0.376171875 0.903125
vt 0.381640625 0.903125
vt 0.381640625 0.90625
vt 0.376171875 0.90625
vt 0.22421875 0.70859375
vt 0.2294921875 0.70859375
vt 0.23125 0.7109375
vt 0.22421875 0.7109375
vt 0.2294921875 0.70859375
vt 0.2294921875 0.7015625
vt 0.23125 0.7015625
vt 0.23125 0.7109375
vt 0.21875 0.70859375
vt 0.22421875 0.70859375
vt 0.22421875 0.7109375
vt 0.21875 0.7109375
vt 0.22421875 0.68676796875
vt 0.21875 0.68676796875
vt 0.21875 0.6826171875
vt 0.22421875 0.6826171875
vt 0.2294921875 0.68676796875
vt 0.22421875 0.68676796875
vt 0.22421875 0.6826171875
vt 0.23125 0.6857421875
vt 0.2294921875 0.7015625
vt 0.2294921875 0.68676796875
vt 0.23125 0.6857421875
vt 0.23125 0.7015625
vt 0.20625 0.70859375
vt 0.21875 0.70859375
vt 0.21875 0.7109375
vt 0.20625 0.7109375
vt 0.21875 0.68676796875
vt 0.20625 0.68676796875
vt 0.20625 0.6826171875
vt 0.21875 0.6826171875
vt 0.3984375 0.4140625
vt 0.3984375 0.40625
vt 0.40625 0.40625
vt 0.40625 0.4140625
vt 0.390625 0.40625
vt 0.390625 0.4140625
vt 0.3828125 0.4140625
vt 0.3828125 0.40625
vt 0.385009375 0.88074453125
vt 0.37021484375 0.88074453125
vt 0.37021484375 0.87827421875
vt 0.38916015625 0.87827421875
vt 0.385009375 0.88815625
vt 0.385009375 0.88074453125
vt 0.38916015625 0.87827421875
vt 0.38916015625 0.88815625
vt 0.37021484375 0.88074453125
vt 0.36318359375 0.88074453125
vt 0.36083984375 0.87827421875
vt 0.37021484375 0.87827421875
vt 0.36318359375 0.88074453125
vt 0.36318359375 0.88815625
vt 0.36083984375 0.88815625
vt 0.36083984375 0.87827421875
vt 0.30278984375 0.828125
vt 0.29751640625 0.828125
vt 0.29751640625 0.82475859375
vt 0.30278984375 0.82475859375
vt 0.518725390625 0.72317421875
vt 0.511694140625 0.72317421875
vt 0.511694140625 0.7198078125
vt 0.518725390625 0.7198078125
vt 0.34310859375 0.96875
vt 0.33783515625 0.96875
vt 0.33783515625 0.96538359375
vt 0.34310859375 0.96538359375
vt 0.511694140625 0.72317421875
vt 0.496899609375 0.72317421875
vt 0.496899609375 0.7198078125
vt 0.511694140625 0.7198078125
vt 0.30825859375 0.828125
vt 0.30278984375 0.828125
vt 0.30278984375 0.82475859375
vt 0.30825859375 0.82475859375
vt 0.33783515625 0.96875
vt 0.33236640625 0.96875
vt 0.33236640625 0.96538359375
vt 0.33783515625 0.96538359375
vt 0.33236640625 0.96875
vt 0.31811953125 0.96875
vt 0.31986640625 0.96538359375
vt 0.33236640625 0.96538359375
vt 0.32250546875 0.828125
vt 0.30825859375 0.828125
vt 0.30825859375 0.82475859375
vt 0.32075859375 0.82475859375
vt 0.32748359375 0.8187640625
vt 0.32250546875 0.828125
vt 0.32075859375 0.82475859375
vt 0.32388359375 0.8185085937500001
vt 0.31811953125 0.96875
vt 0.31314140625 0.9593890625
vt 0.31674140625 0.9591335937500001
vt 0.31986640625 0.96538359375
vt 0.375366015625 0.5472656250000001
vt 0.382397265625 0.5472656250000001
vt 0.382397265625 0.5511718750000001
vt 0.375366015625 0.5511718750000001
vt 0.3252453125 0.8102421875
vt 0.32748359375 0.8187640625
vt 0.32388359375 0.8185085937500001
vt 0.32153984375 0.81147734375
vt 0.360571484375 0.5472656250000001
vt 0.375366015625 0.5472656250000001
vt 0.375366015625 0.5511718750000001
vt 0.360571484375 0.5511718750000001
vt 0.31314140625 0.9593890625
vt 0.3153796875 0.9508671875
vt 0.31908515625 0.95210234375
vt 0.31674140625 0.9591335937500001
vt 0.068516796875 0.7421875
vt 0.052545703124999996 0.7421875
vt 0.052545703124999996 0.73879921875
vt 0.066792578125 0.73879921875
vt 0.052545703124999996 0.7421875
vt 0.047076953125 0.7421875
vt 0.047076953125 0.73879921875
vt 0.052545703124999996 0.73879921875
vt 0.047076953125 0.7421875
vt 0.041803515624999996 0.7421875
vt 0.041803515624999996 0.73879921875
vt 0.047076953125 0.73879921875
vt 0.518725390625 0.7265625
vt 0.511694140625 0.7265625
vt 0.511694140625 0.72317421875
vt 0.518725390625 0.72317421875
vt 0.309758984375 0.84375
vt 0.304485546875 0.84375
vt 0.304485546875 0.84036171875
vt 0.309758984375 0.84036171875
vt 0.511694140625 0.7265625
vt 0.496899609375 0.7265625
vt 0.496899609375 0.72317421875
vt 0.511694140625 0.72317421875
vt 0.299016796875 0.84375
vt 0.283045703125 0.84375
vt 0.284769921875 0.84036171875
vt 0.299016796875 0.84036171875
vt 0.304485546875 0.84375
vt 0.299016796875 0.84375
vt 0.299016796875 0.84036171875
vt 0.304485546875 0.84036171875
vt 0.075383984375 0.729859375
vt 0.068516796875 0.7421875
vt 0.066792578125 0.73879921875
vt 0.071770703125 0.72943828125
vt 0.283045703125 0.84375
vt 0.276178515625 0.831421875
vt 0.279791796875 0.83100078125
vt 0.284769921875 0.84036171875
vt 0.375366015625 0.542578125
vt 0.382397265625 0.542578125
vt 0.382397265625 0.546484375
vt 0.375366015625 0.546484375
vt 0.073310546875 0.71992421875
vt 0.075383984375 0.729859375
vt 0.071770703125 0.72943828125
vt 0.069532421875 0.72091640625
vt 0.360571484375 0.542578125
vt 0.375366015625 0.542578125
vt 0.375366015625 0.546484375
vt 0.360571484375 0.546484375
vt 0.276178515625 0.831421875
vt 0.278251953125 0.82148671875
vt 0.282030078125 0.82247890625
vt 0.279791796875 0.83100078125
vt 0.028981640625 0.7421875
vt 0.023708203124999994 0.7421875
vt 0.023708203124999994 0.73828125
vt 0.028981640625 0.73828125
vt 0.522631640625 0.72317421875
vt 0.522631640625 0.7265625
vt 0.518725390625 0.7265625
vt 0.518725390625 0.72317421875
vt 0.58534609375 0.7890625
vt 0.59061953125 0.7890625
vt 0.59061953125 0.79296875
vt 0.58534609375 0.79296875
vt 0.023708203124999994 0.7421875
vt 0.018239453125 0.7421875
vt 0.018239453125 0.73828125
vt 0.023708203124999994 0.73828125
vt 0.57987734375 0.7890625
vt 0.58534609375 0.7890625
vt 0.58534609375 0.79296875
vt 0.57987734375 0.79296875
vt 0.018239453125 0.7421875
vt 0.002268359375000001 0.7421875
vt 0.002268359375000001 0.73828125
vt 0.018239453125 0.73828125
vt 0.56563046875 0.7890625
vt 0.57987734375 0.7890625
vt 0.57987734375 0.79296875
vt 0.56563046875 0.79296875
vt 0.28125 0.4453125
vt 0.28125 0.4296875
vt 0.2890625 0.4296875
vt 0.2890625 0.4453125
vt 0.4453125 0.40625
vt 0.4453125 0.4140625
vt 0.4375 0.4140625
vt 0.4375 0.40625
vt 0.5859375 0.71875
vt 0.5859375 0.7109375
vt 0.59375 0.7109375
vt 0.59375 0.71875
vt 0.3515625 0.40625
vt 0.3515625 0.4140625
vt 0.34375 0.4140625
vt 0.34375 0.40625
vt 0.59375 0.625
vt 0.59375 0.6328125
vt 0.5859375 0.6328125
vt 0.5859375 0.625
vt 0.3046875 0.40625
vt 0.3046875 0.4140625
vt 0.296875 0.4140625
vt 0.296875 0.40625
vt 0.354321484375 0.53671875
vt 0.354321484375 0.5328125
vt 0.358227734375 0.5328125
vt 0.358227734375 0.53671875
vt 0.5859375 0.6484375
vt 0.5859375 0.640625
vt 0.59375 0.640625
vt 0.59375 0.6484375
vt 0.5625 0.6640625
vt 0.5625 0.6796875
vt 0.5546875 0.6796875
vt 0.5546875 0.6640625
vt 0.5859375 0.546875
vt 0.5859375 0.5390625
vt 0.59375 0.5390625
vt 0.59375 0.546875
vt 0.002268359375000001 0.71254921875
vt 0.018239453125 0.71254921875
vt 0.018239453125 0.71645546875
vt 0.002268359375000001 0.71645546875
vt 0.57987734375 0.76171875
vt 0.56563046875 0.76171875
vt 0.56563046875 0.7578125
vt 0.57987734375 0.7578125
vt 0.018239453125 0.71254921875
vt 0.023708203124999994 0.71254921875
vt 0.023708203124999994 0.71645546875
vt 0.018239453125 0.71645546875
vt 0.58534609375 0.76171875
vt 0.57987734375 0.76171875
vt 0.57987734375 0.7578125
vt 0.58534609375 0.7578125
vt 0.023708203124999994 0.71254921875
vt 0.028981640625 0.71254921875
vt 0.028981640625 0.71645546875
vt 0.023708203124999994 0.71645546875
vt 0.59061953125 0.76171875
vt 0.58534609375 0.76171875
vt 0.58534609375 0.7578125
vt 0.59061953125 0.7578125
vt 0.492993359375 0.7265625
vt 0.492993359375 0.72317421875
vt 0.496899609375 0.72317421875
vt 0.496899609375 0.7265625
vt 0.617162890625 0.8203125
vt 0.602368359375 0.8203125
vt 0.602368359375 0.81875
vt 0.617162890625 0.81875
vt 0.510604296875 0.6640625
vt 0.503655078125 0.6511953125
vt 0.505102734375 0.65097421875
vt 0.511969921875 0.66330234375
vt 0.624194140625 0.8203125
vt 0.617162890625 0.8203125
vt 0.617162890625 0.81875
vt 0.624194140625 0.81875
vt 0.371344921875 0.48713281249999996
vt 0.364395703125 0.5
vt 0.363030078125 0.49923984374999997
vt 0.369897265625 0.48691171875000006
vt 0.375366015625 0.541015625
vt 0.382397265625 0.541015625
vt 0.382397265625 0.542578125
vt 0.375366015625 0.542578125
vt 0.369353515625 0.47665703125000003
vt 0.371344921875 0.48713281249999996
vt 0.369897265625 0.48691171875000006
vt 0.367823828125 0.4769765625
vt 0.360571484375 0.541015625
vt 0.375366015625 0.541015625
vt 0.375366015625 0.542578125
vt 0.360571484375 0.542578125
vt 0.503655078125 0.6511953125
vt 0.505646484375 0.64071953125
vt 0.507176171875 0.6410390625
vt 0.505102734375 0.65097421875
vn -0.9824144002016394 -0.18671354068854576 0
vn 0 1 0
vn 0 -1 0
vn 0 0 1
vn 0 0 -1
vn 1 0 0
vn 0 0 -1
vn -0.8798830234908169 0.47519034604320265 0
vn 0 0 1
vn 1 0 0
vn 0 0 -1
vn 0 1 0
vn 0.4061384660534478 0 0.9138115486202572
vn 0.4061384660534478 0 0.913811548620257
vn 0 -1 2.0898315757650014e-15
vn 0 0.2676438637860938 -0.963517909629941
vn -0.9824144002016394 -0.18671354068854576 0
vn 0 -1 0
vn 0 -1 0
vn 1 0 0
vn 1 0 0
vn 0 1 0
vn 0 1 0
vn -0.8798830234908169 0.4751903460432026 0
vn -1 0 0
vn 1 0 0
vn 1 0 0
vn 0 0 1
vn -1 0 0
vn 0 -1 0
vn 0 0 1
vn 0 0 1
vn 0 1 0
vn 0 1 0
vn 0 0 -1
vn 0 0.2676438637860938 -0.963517909629941
vn 0 -1 2.0898315757650014e-15
vn 0 0 1
vn 1 0 0
vn -0.9544799780350304 -0.2982749931359454 0
vn 0 0 -1
vn -0.9544799780350303 -0.29827499313594535 0
vn 0 0 1
vn 0 0 -1
vn 1 0 0
vn 0 0 1
vn 0 1 0
vn 0 1 0
vn 0 1 0
vn 0 1 0
vn 0 1 0
vn 0 1 0
vn 0 1 0
vn 0 1 0
vn -0.8944271909999144 0.4472135954999612 0
vn -0.8944271909999144 0.44721359549996115 0
vn -0.9486832980505143 -0.3162277660168362 0
vn -0.9486832980505143 -0.3162277660168362 0
vn -0.9486832980505144 -0.3162277660168363 0
vn -0.9486832980505144 -0.3162277660168363 0
vn -3.289549702593053e-16 0 -1
vn 1 0 0
vn 0 0 1
vn 1 0 0
vn 0 0 -1
vn 0 0 1
vn 0 0 1
vn 0 0 -1
vn 0 0 -1
vn 0 0 1
vn 0.31622776601683694 -0.9486832980505143 0
vn 0 0 -1
vn 0.3162277660168369 -0.9486832980505142 0
vn 0 0 1
vn 0 0 -1
vn 0 0 -1
vn 0 0 -1
vn 1 0 0
vn 0 0 1
vn 1 0 0
vn 0 0 1
vn 0 0 1
vn 0 0 -1
vn 0 0 1
vn 0.25396874575998407 -0.9672124255700507 0
vn 0 0 -1
vn 0.253968745759984 -0.9672124255700506 0
vn 0 0 1
vn 0 1 0
vn 1 0 0
vn 0 -1 0
vn 0 1 0
vn 0 -1 0
vn 0 1 0
vn 0 -1 0
vn -0.8736087272578974 0.48662900823814104 0
vn 0.8829169286167335 -0.469529229294614 0
vn -0.978916228553509 -0.2042621293205724 0
vn 0.9672124255700506 0.2539687457599838 0
vn 0.25396874575998407 -0.9672124255700506 0
vn -0.978916228553509 -0.2042621293205724 0
vn 0.25396874575998407 -0.9672124255700506 0
vn 0.9672124255700506 0.2539687457599838 0
vn -0.8736087272578974 0.48662900823814104 0
vn 0.8829169286167335 -0.469529229294614 0
vn 0 1 0
vn 0 -1 0
vn 0 1 0
vn 0 -1 0
vn 0 1 0
vn 0 -1 0
vn 1 0 0
vn 0.48662900823814 0.873608727257898 0
vn 0 0 1
vn 0.48662900823814004 0.873608727257898 0
vn 0 0 -1
vn 0.20426212932056495 -0.9789162285535106 0
vn 0 0 -1
vn 0.20426212932056495 -0.9789162285535107 0
vn 0 0 1
usemtl m_b486289d-1bb0-a945-f555-93e2e004edc1
f 119/1/1 120/2/1 115/3/1 117/4/1
f 72/5/2 74/6/2 73/7/2 75/8/2
f 36/9/3 38/10/3 37/11/3 39/12/3
f 3/13/4 17/14/4 16/15/4 11/16/4
f 10/17/5 13/18/5 18/19/5 4/20/5
f 9/21/6 22/22/6 21/23/6 8/24/6
f 2/25/7 14/26/7 13/27/7 10/28/7
f 117/29/8 115/30/8 114/31/8 118/32/8
f 11/33/9 16/34/9 15/35/9 1/36/9
f 6/37/10 23/38/10 22/39/10 9/40/10
f 9/41/11 33/42/11 32/43/11 6/44/11
f 78/45/12 77/46/12 76/47/12 79/48/12
f 5/49/13 31/50/13 30/51/13 12/52/13
f 12/53/14 30/54/14 29/55/14 7/56/14
f 27/57/15 35/58/15 34/59/15 24/60/15
f 24/61/16 34/62/16 33/63/16 9/64/16
f 116/65/17 115/66/17 120/67/17 121/68/17
f 40/69/18 37/70/18 38/71/18 41/72/18
f 7/73/19 29/74/19 28/75/19 21/76/19
f 7/77/20 21/78/20 22/79/20 12/80/20
f 12/81/21 22/82/21 23/83/21 5/84/21
f 79/85/22 76/86/22 80/87/22 81/88/22
f 82/89/23 73/90/23 74/91/23 83/92/23
f 113/93/24 114/94/24 115/95/24 116/96/24
f 25/97/25 18/98/25 13/99/25
f 24/100/26 9/101/26 8/102/26
f 27/103/27 24/104/27 8/105/27 21/106/27
f 21/107/28 28/108/28 35/109/28 27/110/28
f 25/111/29 26/112/29 20/113/29 18/114/29
f 38/115/30 42/116/30 43/117/30 41/118/30
f 17/119/31 29/120/31 30/121/31 16/122/31
f 16/123/32 30/124/32 31/125/32 15/126/32
f 82/127/33 80/128/33 76/129/33 73/130/33
f 73/131/34 76/132/34 77/133/34 75/134/34
f 14/135/35 32/136/35 33/137/35 13/138/35
f 13/139/36 33/140/36 34/141/36 25/142/36
f 25/143/37 34/144/37 35/145/37 26/146/37
f 26/147/38 35/148/38 28/149/38 20/150/38
f 38/151/39 36/152/39 18/153/39 20/154/39
f 39/155/40 37/156/40 19/157/40 4/158/40
f 36/159/41 39/160/41 4/161/41 18/162/41
f 37/163/42 40/164/42 3/165/42 19/166/42
f 40/167/43 41/168/43 17/169/43 3/170/43
f 42/171/44 38/172/44 20/173/44 28/174/44
f 43/175/45 42/176/45 28/177/45 29/178/45
f 41/179/46 43/180/46 29/181/46 17/182/46
f 45/183/47 44/184/47 6/185/47 32/186/47
f 44/187/48 46/188/48 23/189/48 6/190/48
f 47/191/49 45/192/49 32/193/49 14/194/49
f 49/195/50 48/196/50 15/197/50 31/198/50
f 50/199/51 49/200/51 31/201/51 5/202/51
f 46/203/52 50/204/52 5/205/52 23/206/52
f 51/207/53 47/208/53 14/209/53 2/210/53
f 48/211/54 52/212/54 1/213/54 15/214/54
f 52/215/55 53/216/55 11/217/55 1/218/55
f 54/219/56 51/220/56 2/221/56 10/222/56
f 56/223/57 55/224/57 19/225/57 3/226/57
f 53/227/58 56/228/58 3/229/58 11/230/58
f 55/231/59 57/232/59 4/233/59 19/234/59
f 57/235/60 54/236/60 10/237/60 4/238/60
f 59/239/61 58/240/61 44/241/61 45/242/61
f 58/243/62 60/244/62 46/245/62 44/246/62
f 62/247/63 61/248/63 49/249/63 50/250/63
f 60/251/64 62/252/64 50/253/64 46/254/64
f 63/255/65 59/256/65 45/257/65 47/258/65
f 61/259/66 64/260/66 48/261/66 49/262/66
f 64/263/67 65/264/67 52/265/67 48/266/67
f 66/267/68 63/268/68 47/269/68 51/270/68
f 67/271/69 66/272/69 51/273/69 54/274/69
f 65/275/70 68/276/70 53/277/70 52/278/70
f 70/279/71 69/280/71 57/281/71 55/282/71
f 69/283/72 67/284/72 54/285/72 57/286/72
f 71/287/73 70/288/73 55/289/73 56/290/73
f 68/291/74 71/292/74 56/293/74 53/294/74
f 95/295/75 93/296/75 94/297/75 96/298/75
f 93/299/76 89/300/76 92/301/76 94/302/76
f 89/303/77 90/304/77 91/305/77 92/306/77
f 78/307/78 79/308/78 60/309/78 58/310/78
f 111/311/79 109/312/79 110/313/79 112/314/79
f 79/315/80 81/316/80 62/317/80 60/318/80
f 107/319/81 105/320/81 106/321/81 108/322/81
f 109/323/82 107/324/82 108/325/82 110/326/82
f 97/327/83 95/328/83 96/329/83 98/330/83
f 105/331/84 101/332/84 104/333/84 106/334/84
f 87/335/85 86/336/85 69/337/85 70/338/85
f 99/339/86 97/340/86 98/341/86 100/342/86
f 88/343/87 87/344/87 70/345/87 71/346/87
f 101/347/88 102/348/88 103/349/88 104/350/88
f 90/351/89 89/352/89 77/353/89 78/354/89
f 91/355/90 90/356/90 78/357/90 58/358/90
f 92/359/91 91/360/91 58/361/91 59/362/91
f 89/363/92 93/364/92 75/365/92 77/366/92
f 94/367/93 92/368/93 59/369/93 63/370/93
f 93/371/94 95/372/94 72/373/94 75/374/94
f 96/375/95 94/376/95 63/377/95 66/378/95
f 95/379/96 97/380/96 84/381/96 72/382/96
f 98/383/97 96/384/97 66/385/97 67/386/97
f 97/387/98 99/388/98 86/389/98 84/390/98
f 100/391/99 98/392/99 67/393/99 69/394/99
f 99/395/100 100/396/100 69/397/100 86/398/100
f 102/399/101 101/400/101 85/401/101 88/402/101
f 103/403/102 102/404/102 88/405/102 71/406/102
f 104/407/103 103/408/103 71/409/103 68/410/103
f 101/411/104 105/412/104 83/413/104 85/414/104
f 106/415/105 104/416/105 68/417/105 65/418/105
f 105/419/106 107/420/106 82/421/106 83/422/106
f 108/423/107 106/424/107 65/425/107 64/426/107
f 107/427/108 109/428/108 80/429/108 82/430/108
f 110/431/109 108/432/109 64/433/109 61/434/109
f 109/435/110 111/436/110 81/437/110 80/438/110
f 112/439/111 110/440/111 61/441/111 62/442/111
f 111/443/112 112/444/112 62/445/112 81/446/112
f 114/447/113 113/448/113 83/449/113 74/450/113
f 113/451/114 116/452/114 85/453/114 83/454/114
f 118/455/115 114/456/115 74/457/115 72/458/115
f 117/459/116 118/460/116 72/461/116 84/462/116
f 120/463/117 119/464/117 86/465/117 87/466/117
f 119/467/118 117/468/118 84/469/118 86/470/118
f 121/471/119 120/472/119 87/473/119 88/474/119
f 116/475/120 121/476/120 88/477/120 85/478/120
o cylinder
v -0.3312499999999998 1.0125000000000002 -2.1163626406917048e-17
v -0.6249999999999998 1.0125000000000004 -2.1163626406917048e-17
v -0.3312499999999998 1.0443189666011958 0.11874999999999994
v -0.6249999999999998 1.044318966601196 0.11874999999999994
v -0.3312499999999998 1.0994310333988042 0.08693103339880415
v -0.6249999999999998 1.0994310333988044 0.08693103339880415
v -0.33124999999999977 1.13125 0.03181896660119578
v -0.6249999999999998 1.1312500000000003 0.03181896660119578
v -0.33124999999999977 1.13125 -0.03181896660119583
v -0.6249999999999998 1.1312500000000003 -0.03181896660119583
v -0.3312499999999998 1.0994310333988042 -0.08693103339880418
v -0.6249999999999998 1.0994310333988044 -0.08693103339880418
v -0.3312499999999998 1.044318966601196 -0.11874999999999997
v -0.6249999999999998 1.0443189666011963 -0.11874999999999997
v -0.3312499999999998 0.9806810333988044 -0.11875
v -0.6249999999999998 0.9806810333988044 -0.11875
v -0.3312499999999998 0.925568966601196 -0.0869310333988042
v -0.6249999999999998 0.925568966601196 -0.0869310333988042
v -0.3312499999999998 0.8937500000000002 -0.03181896660119582
v -0.6249999999999998 0.8937500000000002 -0.03181896660119582
v -0.3312499999999998 0.8937500000000002 0.031818966601195736
v -0.6249999999999998 0.8937500000000002 0.031818966601195736
v -0.3312499999999998 0.925568966601196 0.08693103339880412
v -0.6249999999999998 0.925568966601196 0.08693103339880412
v -0.3312499999999998 0.9806810333988044 0.11874999999999994
v -0.6249999999999998 0.9806810333988044 0.11874999999999994
v -0.4156249999999998 1.0994310333988042 0.08693103339880415
v -0.4156249999999998 1.0443189666011958 0.11874999999999994
v -0.4156249999999998 0.9806810333988044 0.11874999999999994
v -0.4156249999999998 0.925568966601196 0.08693103339880412
v -0.4156249999999998 0.8937500000000002 0.031818966601195736
v -0.4156249999999998 0.8937500000000002 -0.03181896660119582
v -0.4156249999999998 0.925568966601196 -0.0869310333988042
v -0.4156249999999998 0.9806810333988044 -0.11875
v -0.4156249999999998 1.044318966601196 -0.11874999999999997
v -0.4156249999999998 1.0994310333988042 -0.08693103339880418
v -0.41562499999999974 1.13125 -0.03181896660119583
v -0.41562499999999974 1.13125 0.03181896660119578
v -0.3312499999999998 0.9806810333988044 -0.14375
v -0.4156249999999998 0.9765143667321378 -0.142633545031537
v -0.4156249999999998 1.0484856332678627 -0.14263354503153694
v -0.3312499999999998 1.044318966601196 -0.14374999999999996
v -0.6249999999999998 1.0505689666011964 -0.14207531754730546
v -0.6249999999999998 0.9744310333988044 -0.14207531754730549
v -0.6249999999999998 1.1545753175473057 -0.03806896660119584
v -0.4156249999999998 1.1180314567952114 -0.10248124509700784
v -0.41562499999999974 1.154017090063074 -0.04015229993452918
v -0.6249999999999998 1.11650635094611 -0.10400635094610966
v -0.3312499999999998 1.121081668493415 -0.0994310333988042
v -0.33124999999999977 1.152900635094611 -0.04431896660119585
v -0.6249999999999998 1.11650635094611 0.10400635094610965
v -0.41562499999999974 1.154017090063074 0.04015229993452912
v -0.4156249999999998 1.1180314567952114 0.10248124509700782
v -0.6249999999999998 1.1545753175473057 0.03806896660119578
v -0.33124999999999977 1.152900635094611 0.04431896660119579
v -0.3312499999999998 1.121081668493415 0.09943103339880416
v -0.6249999999999998 0.9744310333988044 0.14207531754730543
v -0.4156249999999998 1.0484856332678625 0.14263354503153694
v -0.4156249999999998 0.9765143667321378 0.14263354503153694
v -0.6249999999999998 1.0505689666011961 0.14207531754730543
v -0.3312499999999998 1.0443189666011958 0.14374999999999993
v -0.3312499999999998 0.9806810333988044 0.14374999999999993
v -0.6249999999999998 0.8704246824526947 0.03806896660119574
v -0.4156249999999998 0.9069685432047887 0.10248124509700779
v -0.41562499999999986 0.8709829099369262 0.04015229993452908
v -0.6249999999999998 0.9084936490538905 0.1040063509461096
v -0.3312499999999998 0.9039183315065851 0.09943103339880413
v -0.3312499999999999 0.8720993649053892 0.04431896660119575
v -0.6249999999999998 0.9084936490538905 -0.1040063509461097
v -0.41562499999999986 0.8709829099369262 -0.040152299934529165
v -0.4156249999999998 0.9069685432047887 -0.10248124509700787
v -0.6249999999999998 0.8704246824526947 -0.038068966601195825
v -0.3312499999999999 0.8720993649053892 -0.04431896660119583
v -0.3312499999999998 0.9039183315065851 -0.09943103339880421
v -0.331498079387268 0.9806810333988044 -0.16249835877130614
v -0.41577403486528397 0.9765143667321378 -0.1613826910966719
v -0.41577403486528397 1.0484856332678627 -0.16138269109667183
v -0.331498079387268 1.044318966601196 -0.1624983587713061
v -0.6250499903433 1.0505689666011964 -0.1608252509062691
v -0.6250499903433 0.9744310333988044 -0.16082525090626912
v -0.6250499903433 1.1708132361554335 -0.047443933280677655
v -0.4157740348652839 1.1342686935868833 -0.1118558181295753
v -0.4157740348652839 1.1702543268547458 -0.04952687296709663
v -0.6250499903433 1.1327442695542378 -0.11338131762559148
v -0.33149807938726794 1.137318223468631 -0.10880521278445729
v -0.33149807938726794 1.1691371900698269 -0.05369314598684894
v -0.6250499903433 1.1327442695542378 0.11338131762559146
v -0.4157740348652839 1.1702543268547458 0.049526872967096576
v -0.4157740348652839 1.1342686935868833 0.11185581812957526
v -0.6250499903433 1.1708132361554335 0.0474439332806776
v -0.33149807938726794 1.1691371900698269 0.05369314598684888
v -0.33149807938726794 1.137318223468631 0.10880521278445725
v -0.6250499903433 0.9744310333988044 0.16082525090626906
v -0.41577403486528397 1.0484856332678625 0.16138269109667183
v -0.41577403486528397 0.9765143667321378 0.16138269109667183
v -0.6250499903433 1.0505689666011961 0.16082525090626906
v -0.331498079387268 1.0443189666011958 0.16249835877130608
v -0.331498079387268 0.9806810333988044 0.16249835877130608
v -0.6250499903433 0.8541867638445669 0.04744393328067756
v -0.41577403486528397 0.8907313064131168 0.11185581812957524
v -0.415774034865284 0.8547456731452543 0.04952687296709653
v -0.6250499903433 0.8922557304457628 0.11338131762559142
v -0.331498079387268 0.8876817765313691 0.10880521278445722
v -0.33149807938726805 0.8558628099301733 0.053693145986848836
v -0.6250499903433 0.8922557304457628 -0.11338131762559152
v -0.415774034865284 0.8547456731452543 -0.04952687296709662
v -0.41577403486528397 0.8907313064131168 -0.11185581812957532
v -0.6250499903433 0.8541867638445669 -0.04744393328067764
v -0.33149807938726805 0.8558628099301733 -0.05369314598684892
v -0.331498079387268 0.8876817765313691 -0.1088052127844573
vt 0.034303906250000016 0.82024140625
vt 0.02741484375 0.82421875
vt 0.0234375 0.809375
vt 0.06053515625 0.5390625
vt 0.060274999999999995 0.515625
vt 0.0703125 0.515625
vt 0.07005234375 0.5390625
vt 0.16803984375 0.910365625
vt 0.17492890625000002 0.91434296875
vt 0.1640625 0.925209375
vt 0.03828125000000002 0.81335234375
vt 0.034303906250000016 0.82024140625
vt 0.0234375 0.809375
vt 0.38892031250000003 0.609375
vt 0.38918046875 0.583215625
vt 0.39817734375 0.583215625
vt 0.3984375 0.609375
vt 0.17492890625000002 0.91434296875
vt 0.17890625000000002 0.92123203125
vt 0.1640625 0.925209375
vt 0.03828125000000002 0.80539765625
vt 0.03828125000000002 0.81335234375
vt 0.0234375 0.809375
vt 0.12805390625 0.53125
vt 0.12779375 0.5078125
vt 0.13783125 0.5078125
vt 0.13757109375 0.53125
vt 0.17890625000000002 0.92123203125
vt 0.17890625000000002 0.92918671875
vt 0.1640625 0.925209375
vt 0.034303906250000016 0.79850859375
vt 0.03828125000000002 0.80539765625
vt 0.0234375 0.809375
vt 0.3984375 0.9296875
vt 0.39869765625 0.903528125
vt 0.40769453125 0.903528125
vt 0.40795468749999997 0.9296875
vt 0.17890625000000002 0.92918671875
vt 0.17492890625000002 0.93607578125
vt 0.1640625 0.925209375
vt 0.02741484375 0.79453125
vt 0.034303906250000016 0.79850859375
vt 0.0234375 0.809375
vt 0.46119765625 0.765625
vt 0.4609375 0.7421875
vt 0.47097500000000003 0.7421875
vt 0.47071484375 0.765625
vt 0.17492890625000002 0.93607578125
vt 0.16803984375 0.940053125
vt 0.1640625 0.925209375
vt 0.01946015625 0.79453125
vt 0.02741484375 0.79453125
vt 0.0234375 0.809375
vt 0.11242890624999999 0.609375
vt 0.11268906249999999 0.583215625
vt 0.12168593750000001 0.583215625
vt 0.12194609375000001 0.609375
vt 0.16803984375 0.940053125
vt 0.16008515625 0.940053125
vt 0.1640625 0.925209375
vt 0.012571093750000012 0.79850859375
vt 0.01946015625 0.79453125
vt 0.0234375 0.809375
vt 0.46678515625 1
vt 0.46652499999999997 0.9765625
vt 0.4765625 0.9765625
vt 0.47630234375 1
vt 0.16008515625 0.940053125
vt 0.15319609375 0.93607578125
vt 0.1640625 0.925209375
vt 0.008593750000000011 0.80539765625
vt 0.012571093750000012 0.79850859375
vt 0.0234375 0.809375
vt 0.39673281250000003 0.7109375
vt 0.39699296875 0.684778125
vt 0.40598984375 0.684778125
vt 0.40625 0.7109375
vt 0.15319609375 0.93607578125
vt 0.14921875 0.92918671875
vt 0.1640625 0.925209375
vt 0.008593750000000011 0.81335234375
vt 0.008593750000000011 0.80539765625
vt 0.0234375 0.809375
vt 0.47180390625 0.875
vt 0.47154375 0.8515625
vt 0.48158125 0.8515625
vt 0.48132109375 0.875
vt 0.14921875 0.92918671875
vt 0.14921875 0.92123203125
vt 0.1640625 0.925209375
vt 0.012571093750000012 0.82024140625
vt 0.008593750000000011 0.81335234375
vt 0.0234375 0.809375
vt 0.3046875 0.609375
vt 0.30494765625 0.583215625
vt 0.31394453125 0.583215625
vt 0.31420468749999997 0.609375
vt 0.14921875 0.92123203125
vt 0.15319609375 0.91434296875
vt 0.1640625 0.925209375
vt 0.01946015625 0.82421875
vt 0.012571093750000012 0.82024140625
vt 0.0234375 0.809375
vt 0.46119765625 0.96875
vt 0.4609375 0.9453125
vt 0.47097500000000003 0.9453125
vt 0.47071484375 0.96875
vt 0.15319609375 0.91434296875
vt 0.16008515625 0.910365625
vt 0.1640625 0.925209375
vt 0.02741484375 0.82421875
vt 0.01946015625 0.82421875
vt 0.0234375 0.809375
vt 0.08899140624999999 0.609375
vt 0.08925156249999999 0.583215625
vt 0.09824843750000001 0.583215625
vt 0.09850859375000001 0.609375
vt 0.16008515625 0.910365625
vt 0.16803984375 0.910365625
vt 0.1640625 0.925209375
vt 0.171875 0.40625
vt 0.171875 0.4140625
vt 0.1640625 0.4140625
vt 0.1640625 0.40625
vt 0.09772734375 0.57268046875
vt 0.09824843750000001 0.583215625
vt 0.08925156249999999 0.583215625
vt 0.08977265625 0.57268046875
vt 0.2578125 0.40625
vt 0.2578125 0.4140625
vt 0.25 0.4140625
vt 0.25 0.40625
vt 0.3134234375 0.57268046875
vt 0.31394453125 0.583215625
vt 0.30494765625 0.583215625
vt 0.30546875 0.57268046875
vt 0.1015625 0.40625
vt 0.1015625 0.4140625
vt 0.09375 0.4140625
vt 0.09375 0.40625
vt 0.40546875 0.67424296875
vt 0.40598984375 0.684778125
vt 0.39699296875 0.684778125
vt 0.3975140625 0.67424296875
vt 0.59375 0.8203125
vt 0.59375 0.828125
vt 0.5859375 0.828125
vt 0.5859375 0.8203125
vt 0.12116484375 0.57268046875
vt 0.12168593750000001 0.583215625
vt 0.11268906249999999 0.583215625
vt 0.11321015625 0.57268046875
vt 0.59375 0.8046875
vt 0.59375 0.8125
vt 0.5859375 0.8125
vt 0.5859375 0.8046875
vt 0.4071734375 0.89299296875
vt 0.40769453125 0.903528125
vt 0.39869765625 0.903528125
vt 0.39921875 0.89299296875
vt 0.59375 0.890625
vt 0.59375 0.8984375
vt 0.5859375 0.8984375
vt 0.5859375 0.890625
vt 0.39765625 0.57268046875
vt 0.39817734375 0.583215625
vt 0.38918046875 0.583215625
vt 0.3897015625 0.57268046875
vt 0.058342549998675504 0.4793101566229796
vt 0.05820273441667928 0.46875
vt 0.06132773441666817 0.46875000833557845
vt 0.06132770631743341 0.4792843833355409
vt 0.488692712420484 0.5078125371892047
vt 0.48855638873397583 0.5183719210251619
vt 0.4855260268135613 0.5183464754749052
vt 0.48561446633626326 0.5078140342758773
vt 0.01946015625 0.79140625
vt 0.02741484375 0.79140625
vt 0.02741484375 0.79453125
vt 0.01946015625 0.79453125
vt 0.16882109375 0.94296875
vt 0.15930390625 0.94296875
vt 0.16008515625 0.940053125
vt 0.16803984375 0.940053125
vt 0.181821875 0.92996796875
vt 0.17706328125 0.93821015625
vt 0.17492890625000002 0.93607578125
vt 0.17890625000000002 0.92918671875
vt 0.49701484377525673 0.8308726591742512
vt 0.49687498968053734 0.8203125030612471
vt 0.49999998968053583 0.8203125
vt 0.5 0.8308468749999949
vt 0.23191999587317141 0.4765625
vt 0.23187233962317141 0.4871234375
vt 0.22884187087317143 0.4871234375
vt 0.22884187087317143 0.47658984375
vt 0.03701015625000001 0.79694609375
vt 0.04098750000000001 0.80383515625
vt 0.03828125000000002 0.80539765625
vt 0.034303906250000016 0.79850859375
vt 0.17706328125 0.91220859375
vt 0.181821875 0.92045078125
vt 0.17890625000000002 0.92123203125
vt 0.17492890625000002 0.91434296875
vt 0.025924620508053553 0.47931037443679125
vt 0.025781239368332515 0.4687510468770547
vt 0.028906239192980243 0.46875
vt 0.028909767953812587 0.47928359315893143
vt 0.48745390625 0.625
vt 0.48740546875 0.6355609375
vt 0.484375 0.6355609375
vt 0.484375 0.62502734375
vt 0.04098750000000001 0.81491484375
vt 0.03701015625000001 0.82180390625
vt 0.034303906250000016 0.82024140625
vt 0.03828125000000002 0.81335234375
vt 0.15930390625 0.90745
vt 0.16882109375 0.90745
vt 0.16803984375 0.910365625
vt 0.16008515625 0.910365625
vt 0.0036515355161040944 0.47149692138875343
vt 0.0035152395155186797 0.4609375
vt 0.006640239339139403 0.46093854993830174
vt 0.006636700259608781 0.4714721430937713
vt 0.3949448777425386 0.4765625371285034
vt 0.3948050063163122 0.48712265587694525
vt 0.3917746530990492 0.487096194143251
vt 0.3918666313293662 0.47656300197301193
vt 0.02741484375 0.82734375
vt 0.01946015625 0.82734375
vt 0.01946015625 0.82421875
vt 0.02741484375 0.82421875
vt 0.146303125 0.92045078125
vt 0.15106171875 0.91220859375
vt 0.15319609375 0.91434296875
vt 0.14921875 0.92123203125
vt 0.24701481558409127 0.4793093753729796
vt 0.2468750000000111 0.46875
vt 0.25 0.46875000833557834
vt 0.24999997190284917 0.4792836020855409
vt 0.2709738023922381 0.5
vt 0.2709261461422381 0.51056015625
vt 0.2678956773922381 0.51056015625
vt 0.2678956773922381 0.50002734375
vt 0.009864843750000005 0.82180390625
vt 0.005887500000000004 0.81491484375
vt 0.008593750000000011 0.81335234375
vt 0.012571093750000012 0.82024140625
vt 0.15106171875 0.93821015625
vt 0.146303125 0.92996796875
vt 0.14921875 0.92918671875
vt 0.15319609375 0.93607578125
vt 0.3306050944599152 0.47931019202757785
vt 0.3304679790358783 0.46875
vt 0.33359297893158163 0.4687508073748009
vt 0.3335902572711279 0.4792851820232169
vt 0.29995390625 0.4765625
vt 0.29990546875 0.48712265624999995
vt 0.296875 0.48712265624999995
vt 0.296875 0.47658984375
vt 0.005887500000000004 0.80383515625
vt 0.009864843750000005 0.79694609375
vt 0.012571093750000012 0.79850859375
vt 0.008593750000000011 0.80539765625
vt 0.5731061466137429 0.671875
vt 0.5831438533862571 0.671875
vt 0.5821021854766225 0.6796875
vt 0.5741474104683254 0.6796875
vt 0.17706328125 0.93821015625
vt 0.16882109375 0.94296875
vt 0.16803984375 0.940053125
vt 0.17492890625000002 0.93607578125
vt 0.3671875 0.42410020677251414
vt 0.3671875 0.4140625
vt 0.375 0.4151037638545825
vt 0.375 0.4230585388628796
vt 0.15930390625 0.94296875
vt 0.15106171875 0.93821015625
vt 0.15319609375 0.93607578125
vt 0.16008515625 0.940053125
vt 0.4609375 0.42410000000000003
vt 0.4609375 0.4140625
vt 0.46875 0.41510390625000004
vt 0.46875 0.42305859375
vt 0.146303125 0.92996796875
vt 0.146303125 0.92045078125
vt 0.14921875 0.92123203125
vt 0.14921875 0.92918671875
vt 0.35658135338625707 0.4296875
vt 0.34654364661374293 0.4296875
vt 0.34758531452337754 0.421875
vt 0.35554008953167454 0.421875
vt 0.15106171875 0.91220859375
vt 0.15930390625 0.90745
vt 0.16008515625 0.910365625
vt 0.15319609375 0.91434296875
vt 0.203125 0.4140625
vt 0.203125 0.42410020677251414
vt 0.1953125 0.42305894291793167
vt 0.1953125 0.41510416790963456
vt 0.16882109375 0.90745
vt 0.17706328125 0.91220859375
vt 0.17492890625000002 0.91434296875
vt 0.16803984375 0.910365625
vt 0.5703125 0.4140625
vt 0.5703125 0.42410000000000003
vt 0.5625 0.42305859375
vt 0.5625 0.41510390625000004
vt 0.181821875 0.92045078125
vt 0.181821875 0.92996796875
vt 0.17890625000000002 0.92918671875
vt 0.17890625000000002 0.92123203125
vt 0.05599958119867037 0.4793289003733796
vt 0.05585976558333183 0.4687812437504
vt 0.05820273441667928 0.46875
vt 0.058342549998675504 0.4793101566229796
vt 0.4910364731864387 0.5078429687962212
vt 0.49090014485339983 0.5183898898220776
vt 0.48855638873397583 0.5183719210251619
vt 0.48869271290060384 0.5078125
vt 0.01946015625 0.7890625
vt 0.02741484375 0.7890625
vt 0.02741484375 0.79140625
vt 0.01946015625 0.79140625
vt 0.49090014485339983 0.5183898898220776
vt 0.4908306136033998 0.5445508273220776
vt 0.4884868636033998 0.5445445773220776
vt 0.4885563948533998 0.5183719210720775
vt 0.056069893698670374 0.5054898378733796
vt 0.05599958119867037 0.4793289003733796
vt 0.05834333119867037 0.47931015037337965
vt 0.05841364369867037 0.5054835878733797
vt 0.16882109375 0.9453125
vt 0.15930390625 0.9453125
vt 0.15930390625 0.94296875
vt 0.16882109375 0.94296875
vt 0.23421616383074398 0.48712176479049063
vt 0.234375 0.5132823125015951
vt 0.23203128474021342 0.513296521866231
vt 0.23187233945561597 0.48712347463138195
vt 0.4947406146805373 0.8570515655612472
vt 0.49467108343053734 0.8308906280612471
vt 0.4970148334305373 0.8308718780612472
vt 0.4970843646805373 0.8570453155612472
vt 0.1838516258173263 0.931139837207662
vt 0.17909305863358 0.9393819786932184
vt 0.17706330781625368 0.9382101102355563
vt 0.181821875 0.92996796875
vt 0.49467108343053734 0.8308906280612471
vt 0.4945320209305373 0.8203437530612472
vt 0.49687498968053734 0.8203125030612471
vt 0.4970148334305373 0.8308718780612472
vt 0.2342639293636408 0.4765732896828533
vt 0.23421616383074398 0.48712176479049063
vt 0.23187233945561597 0.48712347463138195
vt 0.23191999587317141 0.4765625
vt 0.03903991073297233 0.7957742316414933
vt 0.04301721072924408 0.8026632183567013
vt 0.04098745624627176 0.8038350804652081
vt 0.03701015625000001 0.79694609375
vt 0.4897492966725252 0.6355586511488255
vt 0.48990621650754823 0.6617184291636428
vt 0.4875625002168027 0.661732467450363
vt 0.4874054721788327 0.6355601899038696
vt 0.02365041853387545 0.5054908492489982
vt 0.023580887283875446 0.4793299117489982
vt 0.025923856033875453 0.47931116174899824
vt 0.025994168533875456 0.5054845992489982
vt 0.17909303206732632 0.9110367252923379
vt 0.1838515992510726 0.9192788667778943
vt 0.1818218484337463 0.9204507352355563
vt 0.17706328125 0.91220859375
vt 0.023580887283875446 0.4793299117489982
vt 0.0234375 0.4687830843290173
vt 0.025781239368332515 0.4687510468770547
vt 0.025924631114445762 0.4793111555462861
vt 0.4897978321839553 0.6250101795559022
vt 0.4897492966725252 0.6355586511488255
vt 0.4874054721788327 0.6355601899038696
vt 0.48745390625 0.625
vt 0.043017254482972334 0.8160867058585067
vt 0.039039954486700584 0.8229756925737147
vt 0.03701020000372826 0.821803830465208
vt 0.04098750000000001 0.81491484375
vt 0.39714875626629037 0.48714141212862905
vt 0.3970792250162904 0.5133023496286291
vt 0.3947354750162904 0.5132960996286291
vt 0.3948057875162904 0.487122662128629
vt 0.0013780918487146451 0.4976758216964534
vt 0.0013085605987146441 0.4715148841964534
vt 0.0036523105987146427 0.47149691544645345
vt 0.0037218418487146437 0.4976695716964534
vt 0.15930390625 0.90510625
vt 0.16882109375 0.90510625
vt 0.16882109375 0.90745
vt 0.15930390625 0.90745
vt 0.0013085605987146441 0.4715148841964534
vt 0.0011722606608605968 0.46096718155703853
vt 0.0035152395155186797 0.4609375
vt 0.0036515355161040944 0.47149692138875343
vt 0.3972878469009508 0.47659375624959976
vt 0.39714875626629037 0.48714141212862905
vt 0.3948050063163122 0.48712265587694525
vt 0.39494487823431496 0.4765625
vt 0.02741484375 0.8296875
vt 0.01946015625 0.8296875
vt 0.01946015625 0.82734375
vt 0.02741484375 0.82734375
vt 0.2732699600053398 0.5105584843367885
vt 0.2734375 0.5367181964905821
vt 0.2710937896015637 0.5367331862624862
vt 0.2709261363294888 0.5105609746219741
vt 0.24474137803408616 0.5054890566233796
vt 0.24467184678408616 0.4793281191233796
vt 0.24701559678408616 0.4793093691233796
vt 0.24708512803408617 0.5054828066233796
vt 0.1442733741826737 0.919278912792338
vt 0.14903194136642 0.9110367713067816
vt 0.15106169218374632 0.9122086397644437
vt 0.146303125 0.92045078125
vt 0.24467184678408616 0.4793281191233796
vt 0.24453203116666367 0.4687812437504
vt 0.2468750000000111 0.46875
vt 0.24701481558409127 0.4793093753729796
vt 0.27331695465886907 0.5000107972847818
vt 0.2732699600053398 0.5105584843367885
vt 0.2709261424490892 0.5105609746154722
vt 0.2709738023922381 0.5
vt 0.007835089267027681 0.8229757683585067
vt 0.003857789270755946 0.8160867816432986
vt 0.005887543753728269 0.814914919534792
vt 0.009864843750000005 0.82180390625
vt 0.3022492930899257 0.4871211519276615
vt 0.3024062108112338 0.5132817112164529
vt 0.30006249451572514 0.5132957487079394
vt 0.2999054685957112 0.4871226898874351
vt 0.32833085958303887 0.5054883275824782
vt 0.3282613283330389 0.47932739008247816
vt 0.33060507833303887 0.4793094213324782
vt 0.3306746095830389 0.5054820775824782
vt 0.1490319679326737 0.9393820247076621
vt 0.1442734007489274 0.9311398832221057
vt 0.14630315156625368 0.9299680147644437
vt 0.15106171875 0.93821015625
vt 0.3282613283330389 0.47932739008247816
vt 0.328125 0.46878046905662185
vt 0.3304679790358783 0.46875
vt 0.3306050844524629 0.47930942128556264
vt 0.3022978389429203 0.47657346157193925
vt 0.3022492930899257 0.4871211519276615
vt 0.29990546859571127 0.4871226898874351
vt 0.29995390625 0.4765625
vt 0.0038577455170276664 0.8026632941414933
vt 0.007835045513299416 0.7957743074262853
vt 0.00986479999627174 0.7969461695347919
vt 0.00588749999999999 0.80383515625
vn 1 -2.220446049250313e-16 0
vn 0.0026661516426785053 0.49999822290569657 0.8660223257668151
vn -1 2.220446049250313e-16 0
vn 1 -2.220446049250313e-16 0
vn -0.002663651500698117 0.8660223315368443 0.4999982262370249
vn -1 2.220446049250313e-16 0
vn 1 -2.220446049250313e-16 0
vn 0.0026661516426784116 0.9999964458113931 0
vn -1 2.220446049250313e-16 0
vn 1 -2.220446049250313e-16 0
vn -0.002663651500698652 0.8660223315368443 -0.49999822623702495
vn -1 2.220446049250313e-16 0
vn 1 -2.220446049250313e-16 0
vn 0.0026661516426785105 0.49999822290569734 -0.8660223257668147
vn -1 2.220446049250313e-16 0
vn 1 -2.220446049250313e-16 0
vn -0.002663651500698827 7.717098893365863e-16 -0.9999964524740491
vn -1 2.220446049250313e-16 0
vn 1 -2.220446049250313e-16 0
vn 0.002666151642678011 -0.4999982229056959 -0.8660223257668156
vn -1 2.220446049250313e-16 0
vn 1 -2.220446049250313e-16 0
vn -0.002663651500699422 -0.8660223315368444 -0.4999982262370248
vn -1 2.220446049250313e-16 0
vn 1 -2.220446049250313e-16 0
vn 0.0026661516426779676 -0.9999964458113931 0
vn -1 2.220446049250313e-16 0
vn 1 -2.220446049250313e-16 0
vn -0.002663651500699477 -0.8660223315368443 0.4999982262370247
vn -1 2.220446049250313e-16 0
vn 1 -2.220446049250313e-16 0
vn 0.0026661516426780382 -0.4999982229056961 0.8660223257668154
vn -1 2.220446049250313e-16 0
vn 1 -2.220446049250313e-16 0
vn -0.0026636515006989675 5.91449445130669e-19 0.9999964524740491
vn -1 2.220446049250313e-16 0
vn 1.1102230246251556e-16 0.49999999999999956 0.8660254037844392
vn -0.013237108019787891 2.9392284206037658e-18 0.9999123856474988
vn -1.1102230246251562e-16 -0.49999999999999983 0.8660254037844388
vn -0.01323710801978781 -0.8659495275294364 0.4999561928237497
vn -2.220446049250313e-16 -1 0
vn -0.01323710801978796 -0.8659495275294363 -0.4999561928237497
vn -1.1102230246251556e-16 -0.49999999999999956 -0.8660254037844392
vn -0.013237108019787927 7.737335361242378e-16 -0.9999123856474988
vn 1.1102230246251588e-16 0.500000000000001 -0.866025403784438
vn -0.013237108019787412 0.8659495275294363 -0.4999561928237499
vn 2.220446049250313e-16 1 0
vn -0.01323710801978758 0.8659495275294363 0.49995619282374976
vn 0.04932261231063462 -0.9987828992903588 0
vn 0.050856146219620396 0.9838462972770528 0.1716394934912181
vn 1 -2.220446049250313e-16 0
vn -1 2.220446049250313e-16 0
vn -1 2.220446049250313e-16 0
vn 0.04932261231063469 -0.4993914496451822 -0.8649713636509236
vn 0.05085614621962052 0.343278986982439 0.937855633606793
vn 1 -2.220446049250313e-16 0
vn -1 2.220446049250313e-16 0
vn 0.04932261231063513 0.49939144964518173 -0.8649713636509239
vn 0.050856146219620056 -0.6405673102946177 0.766216140115573
vn 1 -2.220446049250313e-16 0
vn -1 2.220446049250313e-16 0
vn 0.04932261231063506 0.9987828992903588 0
vn 0.05085614621961991 -0.9838462972770528 -0.17163949349121793
vn 1 -2.220446049250313e-16 0
vn -1 2.220446049250313e-16 0
vn 0.049322612310635026 0.4993914496451799 0.8649713636509251
vn 0.05085614621962029 -0.3432789869824376 -0.9378556336067935
vn 1 -2.220446049250313e-16 0
vn -1 2.220446049250313e-16 0
vn 0.04932261231063494 -0.4993914496451798 0.864971363650925
vn 0.05085614621962033 0.6405673102946154 -0.7662161401155752
vn 1 -2.220446049250313e-16 0
vn 1 -2.220446049250313e-16 0
vn -1 2.220446049250313e-16 0
vn 1 -2.220446049250313e-16 0
vn -1 2.220446049250313e-16 0
vn 1 -2.220446049250313e-16 0
vn -1 2.220446049250313e-16 0
vn 1 -2.220446049250313e-16 0
vn -1 2.220446049250313e-16 0
vn 1 -2.220446049250313e-16 0
vn -1 2.220446049250313e-16 0
vn 1 -2.220446049250313e-16 0
vn -1 2.220446049250313e-16 0
vn 0.04937179909657599 -0.99878025544432 -0.0006532905529283752
vn 0.049375250114754854 0.9987802213884981 -0.00039247834134206765
vn 0.9999124678029953 -2.162545342043669e-16 -0.013230900654302626
vn 0.009954394006244321 0.9999504534403671 -0.000026540018259848386
vn 0.009954253923235571 -0.9999504520565139 -0.00007912525121411448
vn -0.999996445811393 2.2107188794178599e-16 0.0026661516426784693
vn 0.009954394006243853 0.49999821105021236 0.8659692251959972
vn 0.00995425392323525 -0.49990670155062483 -0.8660220566322815
vn -0.9999964458113931 -0.0023089550529009403 0.00133307582133923
vn 0.04937179909657585 -0.4988243615072724 -0.8652957192895556
vn 0.04937525011475527 0.49973000690828623 0.864772805349214
vn 0.9999124678029953 0.011458296081574003 -0.006615450327151324
vn 0.009954394006243135 -0.49995224239015257 0.8659957652142571
vn 0.009954253923236078 0.5000437505058891 -0.8659429313810675
vn -0.9999964458113931 -0.0023089550529009407 -0.0013330758213392297
vn 0.04937179909657678 0.49995589393704915 -0.8646424287366273
vn 0.04937525011475428 -0.49905021448021125 0.8651652836905565
vn 0.9999124678029953 0.011458296081573999 0.006615450327151321
vn 0.009954394006243346 -0.9999504534403674 0.000026540018259848393
vn 0.009954253923236546 0.9999504520565139 0.00007912525121411448
vn -0.999996445811393 2.2204381573662624e-16 -0.0026661516426784693
vn 0.049371799096576435 0.99878025544432 0.0006532905529283752
vn 0.04937525011475441 -0.998780221388498 0.00039247834134206755
vn 0.9999124678029953 -2.2202516887292917e-16 0.013230900654302628
vn 0.00995439400624333 -0.499998211050215 -0.8659692251959957
vn 0.009954253923236057 0.4999067015506243 0.8660220566322817
vn -0.9999964458113931 0.0023089550529013948 -0.0013330758213392392
vn 0.049371799096576074 0.4988243615072724 0.8652957192895556
vn 0.049375250114755055 -0.49973000690828606 -0.8647728053492142
vn 0.9999124678029953 -0.011458296081574447 0.006615450327151321
vn 0.009954394006243896 0.4999522423901551 -0.8659957652142557
vn 0.00995425392323559 -0.5000437505058891 0.8659429313810675
vn -0.999996445811393 0.0023089550529013943 0.0013330758213392388
vn 0.04937179909657656 -0.49995589393704915 0.8646424287366273
vn 0.0493752501147545 0.49905021448021125 -0.8651652836905565
vn 0.9999124678029953 -0.011458296081574443 -0.006615450327151318
usemtl m_b486289d-1bb0-a945-f555-93e2e004edc1
f 126/479/121 124/480/121 122/481/121
f 181/482/122 179/483/122 174/484/122 172/485/122
f 125/486/123 127/487/123 123/488/123
f 128/489/124 126/490/124 122/491/124
f 208/492/125 210/493/125 209/494/125 211/495/125
f 127/496/126 129/497/126 123/498/126
f 130/499/127 128/500/127 122/501/127
f 175/502/128 173/503/128 168/504/128 166/505/128
f 129/506/129 131/507/129 123/508/129
f 132/509/130 130/510/130 122/511/130
f 202/512/131 204/513/131 203/514/131 205/515/131
f 131/516/132 133/517/132 123/518/132
f 134/519/133 132/520/133 122/521/133
f 169/522/134 167/523/134 162/524/134 164/525/134
f 133/526/135 135/527/135 123/528/135
f 136/529/136 134/530/136 122/531/136
f 200/532/137 198/533/137 197/534/137 201/535/137
f 135/536/138 137/537/138 123/538/138
f 138/539/139 136/540/139 122/541/139
f 165/542/140 161/543/140 192/544/140 190/545/140
f 137/546/141 139/547/141 123/548/141
f 140/549/142 138/550/142 122/551/142
f 226/552/143 228/553/143 227/554/143 229/555/143
f 139/556/144 141/557/144 123/558/144
f 142/559/145 140/560/145 122/561/145
f 193/562/146 191/563/146 186/564/146 184/565/146
f 141/566/147 143/567/147 123/568/147
f 144/569/148 142/570/148 122/571/148
f 220/572/149 222/573/149 221/574/149 223/575/149
f 143/576/150 145/577/150 123/578/150
f 146/579/151 144/580/151 122/581/151
f 187/582/152 185/583/152 180/584/152 178/585/152
f 145/586/153 147/587/153 123/588/153
f 124/589/154 146/590/154 122/591/154
f 214/592/155 216/593/155 215/594/155 217/595/155
f 147/596/156 125/597/156 123/598/156
f 126/599/157 148/600/157 149/601/157 124/602/157
f 218/603/158 215/604/158 216/605/158 219/606/158
f 146/607/159 150/608/159 151/609/159 144/610/159
f 224/611/160 221/612/160 222/613/160 225/614/160
f 142/615/161 152/616/161 153/617/161 140/618/161
f 230/619/162 227/620/162 228/621/162 231/622/162
f 138/623/163 154/624/163 155/625/163 136/626/163
f 196/627/164 197/628/164 198/629/164 199/630/164
f 134/631/165 156/632/165 157/633/165 132/634/165
f 206/635/166 203/636/166 204/637/166 207/638/166
f 130/639/167 158/640/167 159/641/167 128/642/167
f 212/643/168 209/644/168 210/645/168 213/646/168
f 161/647/169 160/648/169 136/649/169 155/650/169
f 163/651/170 162/652/170 156/653/170 134/654/170
f 160/655/171 163/656/171 134/657/171 136/658/171
f 164/659/172 165/660/172 137/661/172 135/662/172
f 166/663/173 169/664/173 133/665/173 131/666/173
f 167/667/174 170/668/174 132/669/174 157/670/174
f 171/671/175 168/672/175 158/673/175 130/674/175
f 170/675/176 171/676/176 130/677/176 132/678/176
f 172/679/177 175/680/177 129/681/177 127/682/177
f 173/683/178 176/684/178 128/685/178 159/686/178
f 177/687/179 174/688/179 148/689/179 126/690/179
f 176/691/180 177/692/180 126/693/180 128/694/180
f 178/695/181 181/696/181 125/697/181 147/698/181
f 179/699/182 182/700/182 124/701/182 149/702/182
f 183/703/183 180/704/183 150/705/183 146/706/183
f 182/707/184 183/708/184 146/709/184 124/710/184
f 184/711/185 187/712/185 145/713/185 143/714/185
f 185/715/186 188/716/186 144/717/186 151/718/186
f 189/719/187 186/720/187 152/721/187 142/722/187
f 188/723/188 189/724/188 142/725/188 144/726/188
f 190/727/189 193/728/189 141/729/189 139/730/189
f 191/731/190 194/732/190 140/733/190 153/734/190
f 195/735/191 192/736/191 154/737/191 138/738/191
f 194/739/192 195/740/192 138/741/192 140/742/192
f 162/743/193 167/744/193 157/745/193 156/746/193
f 169/747/194 164/748/194 135/749/194 133/750/194
f 192/751/195 161/752/195 155/753/195 154/754/195
f 165/755/196 190/756/196 139/757/196 137/758/196
f 186/759/197 191/760/197 153/761/197 152/762/197
f 193/763/198 184/764/198 143/765/198 141/766/198
f 180/767/199 185/768/199 151/769/199 150/770/199
f 187/771/200 178/772/200 147/773/200 145/774/200
f 174/775/201 179/776/201 149/777/201 148/778/201
f 181/779/202 172/780/202 127/781/202 125/782/202
f 168/783/203 173/784/203 159/785/203 158/786/203
f 175/787/204 166/788/204 131/789/204 129/790/204
f 197/791/205 196/792/205 160/793/205 161/794/205
f 199/795/206 198/796/206 162/797/206 163/798/206
f 196/799/207 199/800/207 163/801/207 160/802/207
f 198/803/208 200/804/208 164/805/208 162/806/208
f 201/807/209 197/808/209 161/809/209 165/810/209
f 200/811/210 201/812/210 165/813/210 164/814/210
f 204/815/211 202/816/211 166/817/211 168/818/211
f 205/819/212 203/820/212 167/821/212 169/822/212
f 202/823/213 205/824/213 169/825/213 166/826/213
f 203/827/214 206/828/214 170/829/214 167/830/214
f 207/831/215 204/832/215 168/833/215 171/834/215
f 206/835/216 207/836/216 171/837/216 170/838/216
f 210/839/217 208/840/217 172/841/217 174/842/217
f 211/843/218 209/844/218 173/845/218 175/846/218
f 208/847/219 211/848/219 175/849/219 172/850/219
f 209/851/220 212/852/220 176/853/220 173/854/220
f 213/855/221 210/856/221 174/857/221 177/858/221
f 212/859/222 213/860/222 177/861/222 176/862/222
f 216/863/223 214/864/223 178/865/223 180/866/223
f 217/867/224 215/868/224 179/869/224 181/870/224
f 214/871/225 217/872/225 181/873/225 178/874/225
f 215/875/226 218/876/226 182/877/226 179/878/226
f 219/879/227 216/880/227 180/881/227 183/882/227
f 218/883/228 219/884/228 183/885/228 182/886/228
f 222/887/229 220/888/229 184/889/229 186/890/229
f 223/891/230 221/892/230 185/893/230 187/894/230
f 220/895/231 223/896/231 187/897/231 184/898/231
f 221/899/232 224/900/232 188/901/232 185/902/232
f 225/903/233 222/904/233 186/905/233 189/906/233
f 224/907/234 225/908/234 189/909/234 188/910/234
f 228/911/235 226/912/235 190/913/235 192/914/235
f 229/915/236 227/916/236 191/917/236 193/918/236
f 226/919/237 229/920/237 193/921/237 190/922/237
f 227/923/238 230/924/238 194/925/238 191/926/238
f 231/927/239 228/928/239 192/929/239 195/930/239
f 230/931/240 231/932/240 195/933/240 194/934/240
o Arm
v -0.3343749999999954 1.0218750000000016 5.38902314746782e-16
v -0.15937499999999544 1.021875000000001 8.772126480466931e-16
v -0.3343749999999952 1.0550182628834883 -0.05624999999999941
v -0.1593749999999952 1.0550182628834877 -0.05624999999999907
v -0.33437499999999515 1.0781250000000013 -0.03736201288348599
v -0.15937499999999516 1.0781250000000007 -0.03736201288348566
v -0.33437499999999526 1.0781250000000013 0.03736201288348717
v -0.15937499999999527 1.0781250000000007 0.037362012883487505
v -0.3343749999999954 1.0550182628834883 0.05625000000000056
v -0.1593749999999954 1.0550182628834877 0.0562500000000009
v -0.33437499999999565 0.988731737116515 0.0562500000000005
v -0.1593749999999957 0.9887317371165142 0.056250000000000834
v -0.3343749999999957 0.965625000000002 0.03736201288348711
v -0.15937499999999571 0.9656250000000013 0.03736201288348745
v -0.3343749999999956 0.965625000000002 -0.03736201288348611
v -0.1593749999999956 0.9656250000000013 -0.03736201288348577
v -0.3343749999999954 0.9887317371165151 -0.05624999999999946
v -0.15937499999999546 0.9887317371165143 -0.05624999999999913
v -0.3177083333333286 1.0550182628834883 -0.05624999999999938
v -0.3177083333333288 0.988731737116515 -0.05624999999999943
v -0.29466911764705406 1.0550182628834883 -0.056249999999999335
v -0.2946691176470543 0.9887317371165149 -0.056249999999999384
v -0.317708333333329 0.965625000000002 -0.037362012883486076
v -0.29466911764705445 0.9656250000000018 -0.037362012883486034
v -0.3177083333333291 0.9656250000000018 0.037362012883487145
v -0.29466911764705456 0.9656250000000017 0.037362012883487186
v -0.31770833333332904 0.9887317371165149 0.05625000000000053
v -0.2946691176470545 0.9887317371165147 0.05625000000000058
v -0.3177083333333288 1.0550182628834883 0.0562500000000006
v -0.2946691176470543 1.055018262883488 0.05625000000000064
v -0.31770833333332865 1.0781250000000013 0.0373620128834872
v -0.2946691176470541 1.078125000000001 0.03736201288348725
v -0.31770833333332854 1.0781250000000013 -0.037362012883485965
v -0.294669117647054 1.0781250000000013 -0.037362012883485916
vt 0.20234375 0.4960765625
vt 0.19945546875 0.4984375
vt 0.1953125 0.49140625000000004
vt 0.56658203125 0.4609375
vt 0.56658203125 0.44402578125000003
vt 0.5703125 0.44402578125000003
vt 0.5703125 0.4609375
vt 0.51195546875 0.7984375
vt 0.51484375 0.8007984375
vt 0.5078125 0.80546875
vt 0.20234375 0.4867359375
vt 0.20234375 0.4960765625
vt 0.1953125 0.49140625000000004
vt 0.4875171875 0.9375
vt 0.4875171875 0.92058828125
vt 0.4968578125 0.92058828125
vt 0.4968578125 0.9375
vt 0.51484375 0.8007984375
vt 0.51484375 0.8101390625
vt 0.5078125 0.80546875
vt 0.19945546875 0.484375
vt 0.20234375 0.4867359375
vt 0.1953125 0.49140625000000004
vt 0.5625 0.4921875
vt 0.5625 0.47527578125000003
vt 0.56623046875 0.47527578125000003
vt 0.56623046875 0.4921875
vt 0.51484375 0.8101390625
vt 0.51195546875 0.8125
vt 0.5078125 0.80546875
vt 0.19116953125 0.484375
vt 0.19945546875 0.484375
vt 0.1953125 0.49140625000000004
vt 0.14429453125 0.484375
vt 0.14429453125 0.46746328125000003
vt 0.15258046875 0.46746328125000003
vt 0.15258046875 0.484375
vt 0.51195546875 0.8125
vt 0.50366953125 0.8125
vt 0.5078125 0.80546875
vt 0.18828125 0.4867359375
vt 0.19116953125 0.484375
vt 0.1953125 0.49140625000000004
vt 0.00408203125 0.4296875
vt 0.00408203125 0.41277578125000003
vt 0.0078125 0.41277578125000003
vt 0.0078125 0.4296875
vt 0.50366953125 0.8125
vt 0.50078125 0.8101390625
vt 0.5078125 0.80546875
vt 0.18828125 0.4960765625
vt 0.18828125 0.4867359375
vt 0.1953125 0.49140625000000004
vt 0.0812671875 0.515625
vt 0.0812671875 0.49871328125000003
vt 0.0906078125 0.49871328125000003
vt 0.0906078125 0.515625
vt 0.50078125 0.8101390625
vt 0.50078125 0.8007984375
vt 0.5078125 0.80546875
vt 0.19116953125 0.4984375
vt 0.18828125 0.4960765625
vt 0.1953125 0.49140625000000004
vt 0.546875 0.4375
vt 0.546875 0.42058828125000003
vt 0.55060546875 0.42058828125000003
vt 0.55060546875 0.4375
vt 0.50078125 0.8007984375
vt 0.50366953125 0.7984375
vt 0.5078125 0.80546875
vt 0.19945546875 0.4984375
vt 0.19116953125 0.4984375
vt 0.1953125 0.49140625000000004
vt 0.51929453125 0.6015625
vt 0.51929453125 0.58465078125
vt 0.52758046875 0.58465078125
vt 0.52758046875 0.6015625
vt 0.50366953125 0.7984375
vt 0.51195546875 0.7984375
vt 0.5078125 0.80546875
vt 0.52758046875 0.5796875
vt 0.52758046875 0.58177109375
vt 0.51929453125 0.58177109375
vt 0.51929453125 0.5796875
vt 0.52758046875 0.58177109375
vt 0.52758046875 0.58465078125
vt 0.51929453125 0.58465078125
vt 0.51929453125 0.58177109375
vt 0.55060546875 0.415625
vt 0.55060546875 0.41770859375
vt 0.546875 0.41770859375
vt 0.546875 0.415625
vt 0.55060546875 0.41770859375
vt 0.55060546875 0.42058828125000003
vt 0.546875 0.42058828125000003
vt 0.546875 0.41770859375
vt 0.0906078125 0.49375
vt 0.0906078125 0.49583359375
vt 0.0812671875 0.49583359375
vt 0.0812671875 0.49375
vt 0.0906078125 0.49583359375
vt 0.0906078125 0.49871328125000003
vt 0.0812671875 0.49871328125000003
vt 0.0812671875 0.49583359375
vt 0.0078125 0.4078125
vt 0.0078125 0.40989609375
vt 0.00408203125 0.40989609375
vt 0.00408203125 0.4078125
vt 0.0078125 0.40989609375
vt 0.0078125 0.41277578125000003
vt 0.00408203125 0.41277578125000003
vt 0.00408203125 0.40989609375
vt 0.15258046875 0.4625
vt 0.15258046875 0.46458359375
vt 0.14429453125 0.46458359375
vt 0.14429453125 0.4625
vt 0.15258046875 0.46458359375
vt 0.15258046875 0.46746328125000003
vt 0.14429453125 0.46746328125000003
vt 0.14429453125 0.46458359375
vt 0.56623046875 0.4703125
vt 0.56623046875 0.47239609375
vt 0.5625 0.47239609375
vt 0.5625 0.4703125
vt 0.56623046875 0.47239609375
vt 0.56623046875 0.47527578125000003
vt 0.5625 0.47527578125000003
vt 0.5625 0.47239609375
vt 0.4968578125 0.915625
vt 0.4968578125 0.91770859375
vt 0.4875171875 0.91770859375
vt 0.4875171875 0.915625
vt 0.4968578125 0.91770859375
vt 0.4968578125 0.92058828125
vt 0.4875171875 0.92058828125
vt 0.4875171875 0.91770859375
vt 0.5703125 0.4390625
vt 0.5703125 0.44114609375
vt 0.56658203125 0.44114609375
vt 0.56658203125 0.4390625
vt 0.5703125 0.44114609375
vt 0.5703125 0.44402578125000003
vt 0.56658203125 0.44402578125000003
vt 0.56658203125 0.44114609375
vn -1 3.996802888650565e-15 -1.9332019045709208e-15
vn 4.026292430662373e-15 0.6328859753093352 -0.7742450143570521
vn 1 -3.996802888650565e-15 1.9332019045709208e-15
vn -1 3.996802888650565e-15 -1.9332019045709208e-15
vn 3.996802888650562e-15 1 1.010643099614868e-15
vn 1 -3.996802888650565e-15 1.9332019045709208e-15
vn -1 3.996802888650565e-15 -1.9332019045709208e-15
vn 1.0327485579431824e-15 0.6328859753093342 0.7742450143570528
vn 1 -3.996802888650565e-15 1.9332019045709208e-15
vn -1 3.996802888650565e-15 -1.9332019045709208e-15
vn -1.9332019045709247e-15 -1.0106430996148602e-15 1
vn 1 -3.996802888650565e-15 1.9332019045709208e-15
vn -1 3.996802888650565e-15 -1.9332019045709208e-15
vn -4.026292430662372e-15 -0.6328859753093347 0.7742450143570525
vn 1 -3.996802888650565e-15 1.9332019045709208e-15
vn -1 3.996802888650565e-15 -1.9332019045709208e-15
vn -3.996802888650562e-15 -1 -1.010643099614868e-15
vn 1 -3.996802888650565e-15 1.9332019045709208e-15
vn -1 3.996802888650565e-15 -1.9332019045709208e-15
vn -1.0327485579431777e-15 -0.6328859753093334 -0.7742450143570535
vn 1 -3.996802888650565e-15 1.9332019045709208e-15
vn -1 3.996802888650565e-15 -1.9332019045709208e-15
vn 1.933201904570924e-15 8.012824845088422e-16 -1
vn 1 -3.996802888650565e-15 1.9332019045709208e-15
vn 1.933201904570924e-15 8.012824845088421e-16 -1
vn 1.933201904570924e-15 8.012824845088421e-16 -1
vn -1.0327485579431778e-15 -0.6328859753093334 -0.7742450143570534
vn -1.0327485579431777e-15 -0.6328859753093334 -0.7742450143570535
vn -3.996802888650562e-15 -1 -1.010643099614868e-15
vn -3.996802888650562e-15 -1 -1.010643099614868e-15
vn -4.026292430662372e-15 -0.6328859753093348 0.7742450143570525
vn -4.026292430662372e-15 -0.6328859753093348 0.7742450143570525
vn -1.9332019045709247e-15 -1.0106430996148602e-15 1
vn -1.9332019045709247e-15 -1.0106430996148602e-15 1
vn 1.0327485579431824e-15 0.6328859753093342 0.7742450143570527
vn 1.0327485579431824e-15 0.6328859753093342 0.7742450143570527
vn 3.996802888650562e-15 1 1.010643099614868e-15
vn 3.996802888650562e-15 1 1.010643099614868e-15
vn 4.026292430662373e-15 0.6328859753093352 -0.774245014357052
vn 4.026292430662373e-15 0.6328859753093352 -0.774245014357052
usemtl m_b486289d-1bb0-a945-f555-93e2e004edc1
f 236/935/241 234/936/241 232/937/241
f 235/938/242 252/939/242 265/940/242 237/941/242
f 235/942/243 237/943/243 233/944/243
f 238/945/244 236/946/244 232/947/244
f 237/948/245 265/949/245 263/950/245 239/951/245
f 237/952/246 239/953/246 233/954/246
f 240/955/247 238/956/247 232/957/247
f 239/958/248 263/959/248 261/960/248 241/961/248
f 239/962/249 241/963/249 233/964/249
f 242/965/250 240/966/250 232/967/250
f 241/968/251 261/969/251 259/970/251 243/971/251
f 241/972/252 243/973/252 233/974/252
f 244/975/253 242/976/253 232/977/253
f 243/978/254 259/979/254 257/980/254 245/981/254
f 243/982/255 245/983/255 233/984/255
f 246/985/256 244/986/256 232/987/256
f 245/988/257 257/989/257 255/990/257 247/991/257
f 245/992/258 247/993/258 233/994/258
f 248/995/259 246/996/259 232/997/259
f 247/998/260 255/999/260 253/1000/260 249/1001/260
f 247/1002/261 249/1003/261 233/1004/261
f 234/1005/262 248/1006/262 232/1007/262
f 249/1008/263 253/1009/263 252/1010/263 235/1011/263
f 249/1012/264 235/1013/264 233/1014/264
f 234/1015/265 250/1016/265 251/1017/265 248/1018/265
f 250/1019/266 252/1020/266 253/1021/266 251/1022/266
f 248/1023/267 251/1024/267 254/1025/267 246/1026/267
f 251/1027/268 253/1028/268 255/1029/268 254/1030/268
f 246/1031/269 254/1032/269 256/1033/269 244/1034/269
f 254/1035/270 255/1036/270 257/1037/270 256/1038/270
f 244/1039/271 256/1040/271 258/1041/271 242/1042/271
f 256/1043/272 257/1044/272 259/1045/272 258/1046/272
f 242/1047/273 258/1048/273 260/1049/273 240/1050/273
f 258/1051/274 259/1052/274 261/1053/274 260/1054/274
f 240/1055/275 260/1056/275 262/1057/275 238/1058/275
f 260/1059/276 261/1060/276 263/1061/276 262/1062/276
f 238/1063/277 262/1064/277 264/1065/277 236/1066/277
f 262/1067/278 263/1068/278 265/1069/278 264/1070/278
f 236/1071/279 264/1072/279 250/1073/279 234/1074/279
f 264/1075/280 265/1076/280 252/1077/280 250/1078/280
o cylinder
v -0.16875000052683561 1.0187499982877848 0.06250000000000054
v -0.16875000052683561 1.0187499982877835 -0.062499999999999736
v -0.23750000013863137 1.0371715067162224 0.06250000000000032
v -0.23750000013863137 1.037171506716221 -0.06249999999999996
v -0.21907849248660227 1.0690784923687386 0.0625
v -0.21907849248660227 1.0690784923687373 -0.06250000000000029
v -0.1871715060576774 1.0874999986759888 0.06249999999999982
v -0.1871715060576774 1.0874999986759875 -0.06250000000000046
v -0.150328492098398 1.0874999978995805 0.06249999999999983
v -0.150328492098398 1.0874999978995792 -0.06250000000000043
v -0.11842150644588162 1.0690784902475512 0.06250000000000004
v -0.11842150644588162 1.0690784902475499 -0.06250000000000024
v -0.10000000013863138 1.0371715038186264 0.06250000000000037
v -0.10000000013863138 1.037171503818625 -0.0624999999999999
v -0.10000000091503981 1.0003284898593472 0.06250000000000076
v -0.10000000091503981 1.0003284898593459 -0.062499999999999514
v -0.11842150856706896 0.9684215042068307 0.0625000000000011
v -0.11842150856706896 0.9684215042068294 -0.062499999999999195
v -0.15032849499599385 0.9499999978995805 0.06250000000000126
v -0.15032849499599385 0.9499999978995791 -0.062499999999999015
v -0.18717150895527318 0.9499999986759889 0.06250000000000124
v -0.18717150895527318 0.9499999986759876 -0.06249999999999903
v -0.2190784946077896 0.968421506328018 0.06250000000000104
v -0.2190784946077896 0.9684215063280167 -0.06249999999999924
v -0.23750000091503987 1.000328492756943 0.06250000000000071
v -0.23750000091503987 1.0003284927569416 -0.06249999999999957
vt 0.44769765625 0.99144765625
vt 0.44370859375 0.99375
vt 0.44140625 0.98515625
vt 0.1796875 0.4375
vt 0.1875 0.4375
vt 0.1875 0.453125
vt 0.1796875 0.453125
vt 0.44370859375 0.9515625
vt 0.44769765625 0.95386484375
vt 0.44140625 0.96015625
vt 0.45 0.98745859375
vt 0.44769765625 0.99144765625
vt 0.44140625 0.98515625
vt 0.1171875 0.4375
vt 0.125 0.4375
vt 0.125 0.453125
vt 0.1171875 0.453125
vt 0.44769765625 0.95386484375
vt 0.45 0.95785390625
vt 0.44140625 0.96015625
vt 0.45 0.98285390625
vt 0.45 0.98745859375
vt 0.44140625 0.98515625
vt 0.125 0.6171875
vt 0.1328125 0.6171875
vt 0.1328125 0.6328125
vt 0.125 0.6328125
vt 0.45 0.95785390625
vt 0.45 0.96245859375
vt 0.44140625 0.96015625
vt 0.44769765625 0.97886484375
vt 0.45 0.98285390625
vt 0.44140625 0.98515625
vt 0.1328125 0.4375
vt 0.140625 0.4375
vt 0.140625 0.453125
vt 0.1328125 0.453125
vt 0.45 0.96245859375
vt 0.44769765625 0.96644765625
vt 0.44140625 0.96015625
vt 0.44370859375 0.9765625
vt 0.44769765625 0.97886484375
vt 0.44140625 0.98515625
vt 0.1953125 0.4375
vt 0.203125 0.4375
vt 0.203125 0.453125
vt 0.1953125 0.453125
vt 0.44769765625 0.96644765625
vt 0.44370859375 0.96875
vt 0.44140625 0.96015625
vt 0.43910390625 0.9765625
vt 0.44370859375 0.9765625
vt 0.44140625 0.98515625
vt 0.078125 0.5234375
vt 0.0859375 0.5234375
vt 0.0859375 0.5390625
vt 0.078125 0.5390625
vt 0.44370859375 0.96875
vt 0.43910390625 0.96875
vt 0.44140625 0.96015625
vt 0.43511484375 0.97886484375
vt 0.43910390625 0.9765625
vt 0.44140625 0.98515625
vt 0.546875 0.8125
vt 0.5546875 0.8125
vt 0.5546875 0.828125
vt 0.546875 0.828125
vt 0.43910390625 0.96875
vt 0.43511484375 0.96644765625
vt 0.44140625 0.96015625
vt 0.4328125 0.98285390625
vt 0.43511484375 0.97886484375
vt 0.44140625 0.98515625
vt 0.2109375 0.4453125
vt 0.21875 0.4453125
vt 0.21875 0.4609375
vt 0.2109375 0.4609375
vt 0.43511484375 0.96644765625
vt 0.4328125 0.96245859375
vt 0.44140625 0.96015625
vt 0.4328125 0.98745859375
vt 0.4328125 0.98285390625
vt 0.44140625 0.98515625
vt 0.046875 0.578125
vt 0.0546875 0.578125
vt 0.0546875 0.59375
vt 0.046875 0.59375
vt 0.4328125 0.96245859375
vt 0.4328125 0.95785390625
vt 0.44140625 0.96015625
vt 0.43511484375 0.99144765625
vt 0.4328125 0.98745859375
vt 0.44140625 0.98515625
vt 0 0.4375
vt 0.0078125 0.4375
vt 0.0078125 0.453125
vt 0 0.453125
vt 0.4328125 0.95785390625
vt 0.43511484375 0.95386484375
vt 0.44140625 0.96015625
vt 0.43910390625 0.99375
vt 0.43511484375 0.99144765625
vt 0.44140625 0.98515625
vt 0.1484375 0.4375
vt 0.15625 0.4375
vt 0.15625 0.453125
vt 0.1484375 0.453125
vt 0.43511484375 0.95386484375
vt 0.43910390625 0.9515625
vt 0.44140625 0.96015625
vt 0.44370859375 0.99375
vt 0.43910390625 0.99375
vt 0.44140625 0.98515625
vt 0.40625 0.7890625
vt 0.4140625 0.7890625
vt 0.4140625 0.8046875
vt 0.40625 0.8046875
vt 0.43910390625 0.9515625
vt 0.44370859375 0.9515625
vt 0.44140625 0.96015625
vn -4.4408899109558276e-16 1.038058528960369e-14 1
vn -0.8660253932477264 0.5000000182501205 -5.3290707127131075e-15
vn 4.4408899109558276e-16 -1.038058528960369e-14 -1
vn -4.4408899109558276e-16 1.038058528960369e-14 1
vn -0.4999999817498789 0.8660254143211509 -9.230221006942869e-15
vn 4.4408899109558276e-16 -1.038058528960369e-14 -1
vn -4.4408899109558276e-16 1.038058528960369e-14 1
vn 2.1073424449902227e-8 0.9999999999999998 -1.0658141036401495e-14
vn 4.4408899109558276e-16 -1.038058528960369e-14 -1
vn -4.4408899109558276e-16 1.038058528960369e-14 1
vn 0.5000000182501207 0.8660253932477264 -9.230220782339336e-15
vn 4.4408899109558276e-16 -1.038058528960369e-14 -1
vn -4.4408899109558276e-16 1.038058528960369e-14 1
vn 0.8660254143211507 0.49999998174987914 -5.329070323688387e-15
vn 4.4408899109558276e-16 -1.038058528960369e-14 -1
vn -4.4408899109558276e-16 1.038058528960369e-14 1
vn 0.9999999999999998 -2.1073423363488276e-8 2.246035183278565e-22
vn 4.4408899109558276e-16 -1.038058528960369e-14 -1
vn -4.4408899109558276e-16 1.038058528960369e-14 1
vn 0.8660253932477265 -0.5000000182501204 5.329070712713107e-15
vn 4.4408899109558276e-16 -1.038058528960369e-14 -1
vn -4.4408899109558276e-16 1.038058528960369e-14 1
vn 0.4999999817498787 -0.866025414321151 9.23022100694287e-15
vn 4.4408899109558276e-16 -1.038058528960369e-14 -1
vn -4.4408899109558276e-16 1.038058528960369e-14 1
vn -2.1073424449902227e-8 -0.9999999999999998 1.0658141036401495e-14
vn 4.4408899109558276e-16 -1.038058528960369e-14 -1
vn -4.4408899109558276e-16 1.038058528960369e-14 1
vn -0.5000000182501203 -0.8660253932477265 9.230220782339339e-15
vn 4.4408899109558276e-16 -1.038058528960369e-14 -1
vn -4.4408899109558276e-16 1.038058528960369e-14 1
vn -0.8660254143211509 -0.49999998174987875 5.3290703236883834e-15
vn 4.4408899109558276e-16 -1.038058528960369e-14 -1
vn -4.4408899109558276e-16 1.038058528960369e-14 1
vn -0.9999999999999998 2.107342411683532e-8 -2.2460352635713555e-22
vn 4.4408899109558276e-16 -1.038058528960369e-14 -1
usemtl m_b486289d-1bb0-a945-f555-93e2e004edc1
f 270/1079/281 268/1080/281 266/1081/281
f 268/1082/282 270/1083/282 271/1084/282 269/1085/282
f 269/1086/283 271/1087/283 267/1088/283
f 272/1089/284 270/1090/284 266/1091/284
f 270/1092/285 272/1093/285 273/1094/285 271/1095/285
f 271/1096/286 273/1097/286 267/1098/286
f 274/1099/287 272/1100/287 266/1101/287
f 272/1102/288 274/1103/288 275/1104/288 273/1105/288
f 273/1106/289 275/1107/289 267/1108/289
f 276/1109/290 274/1110/290 266/1111/290
f 274/1112/291 276/1113/291 277/1114/291 275/1115/291
f 275/1116/292 277/1117/292 267/1118/292
f 278/1119/293 276/1120/293 266/1121/293
f 276/1122/294 278/1123/294 279/1124/294 277/1125/294
f 277/1126/295 279/1127/295 267/1128/295
f 280/1129/296 278/1130/296 266/1131/296
f 278/1132/297 280/1133/297 281/1134/297 279/1135/297
f 279/1136/298 281/1137/298 267/1138/298
f 282/1139/299 280/1140/299 266/1141/299
f 280/1142/300 282/1143/300 283/1144/300 281/1145/300
f 281/1146/301 283/1147/301 267/1148/301
f 284/1149/302 282/1150/302 266/1151/302
f 282/1152/303 284/1153/303 285/1154/303 283/1155/303
f 283/1156/304 285/1157/304 267/1158/304
f 286/1159/305 284/1160/305 266/1161/305
f 284/1162/306 286/1163/306 287/1164/306 285/1165/306
f 285/1166/307 287/1167/307 267/1168/307
f 288/1169/308 286/1170/308 266/1171/308
f 286/1172/309 288/1173/309 289/1174/309 287/1175/309
f 287/1176/310 289/1177/310 267/1178/310
f 290/1179/311 288/1180/311 266/1181/311
f 288/1182/312 290/1183/312 291/1184/312 289/1185/312
f 289/1186/313 291/1187/313 267/1188/313
f 268/1189/314 290/1190/314 266/1191/314
f 290/1192/315 268/1193/315 269/1194/315 291/1195/315
f 291/1196/316 269/1197/316 267/1198/316