# Made in Blockbench 5.1.6
mtllib RadioVillain_ArmR.mtl

o cuboid
v 0.8250000000000001 1.0437500000000015 0.10937499999999997
v 0.8250000000000001 1.0437500000000015 -0.11718749999999994
v 0.8250000000000001 0.9187500000000018 0.10937499999999997
v 0.8250000000000001 0.9187500000000018 -0.11718749999999994
v 0.6250000000000001 1.0437500000000015 0.08437499999999995
v 0.6250000000000001 1.0437500000000015 -0.11718749999999994
v 0.6250000000000001 0.9187500000000018 0.08437499999999995
v 0.6250000000000001 0.9187500000000018 -0.11718749999999994
v 0.6250000000000001 0.993750000000002 -0.11718749999999994
v 0.85 0.993750000000002 -0.11718749999999994
v 0.85 0.993750000000002 0.10937499999999997
v 0.6250000000000001 0.993750000000002 0.08437499999999995
v 0.7250000000000001 0.993750000000002 -0.11718749999999994
v 0.7250000000000001 1.0437500000000015 -0.11718749999999994
v 0.7250000000000001 1.0437500000000015 0.10937499999999997
v 0.7250000000000001 0.993750000000002 0.10937499999999997
v 0.7250000000000001 0.9187500000000018 0.10937499999999997
v 0.7250000000000001 0.9187500000000018 -0.11718749999999994
v 0.8250000000000001 0.9187500000000018 -0.042187500000000024
v 0.7250000000000001 0.9187500000000018 -0.042187500000000024
v 0.6250000000000001 0.9187500000000018 -0.042187500000000024
v 0.6250000000000001 0.993750000000002 -0.042187500000000024
v 0.6250000000000001 1.0437500000000015 -0.042187500000000024
v 0.6250000000000001 0.8812500000000015 -0.14843749999999997
v 0.7250000000000001 0.8812500000000015 -0.14843749999999997
v 0.7250000000000001 0.8812500000000018 -0.042187500000000024
v 0.6250000000000001 0.8812500000000018 -0.042187500000000024
v 0.6812500000000001 0.9187500000000018 -0.042187500000000024
v 0.6812500000000001 0.9187500000000018 0.10937499999999997
v 0.6812500000000001 0.993750000000002 0.10937499999999997
v 0.6812500000000001 1.0437500000000015 0.10937499999999997
v 0.6812500000000001 1.0437500000000015 -0.11718749999999994
v 0.6812500000000001 0.993750000000002 -0.11718749999999994
v 0.6812500000000001 0.8812500000000015 -0.14843749999999997
v 0.6812500000000001 0.8812500000000018 -0.042187500000000024
v 0.7250000000000001 0.8937500000000017 -0.11718749999999994
v 0.8171875000000001 0.8937500000000017 -0.042187500000000024
v 0.7250000000000001 0.8937500000000017 -0.042187500000000024
v 0.8171875000000001 0.8937500000000017 -0.11718749999999994
v 0.8171875000000001 0.8937500000000017 0.10937499999999997
v 0.7250000000000001 0.8937500000000017 0.10937499999999997
v 0.6812500000000001 0.8937500000000017 -0.042187500000000024
v 0.6812500000000001 0.8937500000000017 0.10937499999999997
v 0.6390625000000001 1.0437500000000015 -0.09843749999999997
v 0.6812500000000001 1.0437500000000015 -0.09843749999999996
v 0.6390625000000001 1.0437500000000015 -0.042187500000000024
v 0.7250000000000001 1.0437500000000015 -0.09843749999999996
v 0.7250000000000001 1.0437500000000015 0.07617187499999997
v 0.6812500000000001 1.0437500000000015 0.07617187499999997
v 0.6390625000000001 1.0437500000000015 0.07617187499999997
v 0.8250000000000001 1.0437500000000015 -0.09843749999999996
v 0.8250000000000001 1.0437500000000015 0.07617187499999997
v 0.85 0.993750000000002 0.07617187499999997
v 0.85 0.993750000000002 -0.09843749999999996
v 0.83125 0.9375000000000019 -0.042187500000000024
v 0.83125 0.9375000000000019 0.07617187499999997
v 0.83125 0.9375000000000019 -0.09843749999999996
v 0.6390625000000001 1.0706813562148447 -0.09843749999999997
v 0.6812500000000001 1.0706813562148447 -0.09843749999999996
v 0.6390625000000001 1.0706813562148447 -0.042187500000000024
v 0.6812500000000001 1.0706813562148447 0.07617187499999997
v 0.6390625000000001 1.0706813562148447 0.07617187499999997
v 0.7250000000000001 1.0706813562148447 -0.09843749999999996
v 0.7250000000000001 1.0706813562148447 0.07617187499999997
v 0.8389754248593737 1.0706813562148447 0.07617187499999997
v 0.8389754248593737 1.0706813562148447 -0.09843749999999996
v 0.878798601391413 0.9957966535856758 -0.09843749999999996
v 0.878798601391413 0.9957966535856758 0.07617187499999997
v 0.8608963530640786 0.9276178823119757 -0.09843749999999996
v 0.8608963530640786 0.9276178823119757 -0.042187500000000024
v 0.8608963530640786 0.9276178823119757 0.07617187499999997
v 0.8527710018690101 1.0977870533187088 -0.09843749999999996
v 0.7250000000000001 1.0977870533187088 -0.042187500000000024
v 0.8527710018690101 1.0977870533187088 -0.042187500000000024
v 0.7250000000000001 1.0977870533187088 -0.09843749999999996
v 0.6812500000000001 1.0977870533187088 -0.042187500000000024
v 0.6812500000000001 1.0977870533187088 -0.09843749999999996
v 0.6390625000000001 1.0977870533187088 -0.09843749999999997
v 0.6390625000000001 1.0977870533187088 -0.042187500000000024
v 0.6812500000000001 1.0977870533187088 0.07617187499999997
v 0.6390625000000001 1.0977870533187088 0.07617187499999997
v 0.7250000000000001 1.0977870533187088 0.07617187499999997
v 0.8527710018690101 1.0977870533187088 0.07617187499999997
v 0.9077068725505815 0.9991647861409044 -0.09843749999999996
v 0.9077068725505815 0.9991647861409044 0.07617187499999997
v 0.8911217413631427 0.9196813590069762 -0.09843749999999996
v 0.8911217413631427 0.9196813590069762 -0.042187500000000024
v 0.8911217413631427 0.9196813590069762 0.07617187499999997
v 0.6812500000000001 1.0977870533187088 -0.12968749999999996
v 0.6390625000000001 1.0977870533187088 -0.12968749999999996
v 0.6390625000000001 1.0706813562148447 -0.12968749999999996
v 0.6812500000000001 1.0706813562148447 -0.12968749999999996
v 0.7250000000000001 1.0977870533187088 -0.12968749999999996
v 0.7250000000000001 1.0706813562148447 -0.12968749999999996
v 0.8527710018690101 1.0977870533187088 -0.12968749999999996
v 0.8389754248593737 1.0706813562148447 -0.12968749999999996
v 0.9077068725505815 0.9991647861409044 -0.12968749999999996
v 0.878798601391413 0.9957966535856758 -0.12968749999999996
v 0.8911217413631427 0.9196813590069762 -0.12968749999999996
v 0.8608963530640786 0.9276178823119757 -0.12968749999999996
v 0.9077068725505815 0.9991647861409044 0.10742187499999997
v 0.8911217413631427 0.9196813590069762 0.10742187499999997
v 0.8608963530640786 0.9276178823119757 0.10742187499999997
v 0.878798601391413 0.9957966535856758 0.10742187499999997
v 0.8527710018690101 1.0977870533187088 0.10742187499999997
v 0.8389754248593737 1.0706813562148447 0.10742187499999997
v 0.7250000000000001 1.0977870533187088 0.10742187499999997
v 0.7250000000000001 1.0706813562148447 0.10742187499999997
v 0.6812500000000001 1.0977870533187088 0.10742187499999997
v 0.6812500000000001 1.0706813562148447 0.10742187499999997
v 0.6390625000000001 1.0977870533187088 0.10742187499999997
v 0.6390625000000001 1.0706813562148447 0.10742187499999997
v 0.8636911109597338 1.1038699159216856 0.07617187499999997
v 0.8636911109597338 1.1038699159216856 -0.042187500000000024
v 0.9192851535244028 1.000929579134139 -0.042187500000000024
v 0.9192851535244028 1.000929579134139 0.07617187499999997
v 0.9192851535244028 1.000929579134139 -0.09843749999999996
v 0.8636911109597338 1.1038699159216856 -0.09843749999999996
v 0.9033581942200616 0.9171280823904692 -0.09843749999999996
v 0.9033581942200616 0.9171280823904692 -0.042187500000000024
v 0.9033581942200616 0.9171280823904692 0.07617187499999997
vt 0.47653828125 0.72941328125
vt 0.47653828125 0.71875
vt 0.48356953125 0.71875
vt 0.48356953125 0.72941328125
vt 0.216135546875 0.7390625
vt 0.232106640625 0.7390625
vt 0.232106640625 0.74609375
vt 0.216135546875 0.74609375
vt 0.18427734375 0.6265625
vt 0.17275390625 0.6265625
vt 0.17275390625 0.6171875
vt 0.18427734375 0.6171875
vt 0.100390625 0.634375
vt 0.100390625 0.625
vt 0.112890625 0.625
vt 0.116015625 0.634375
vt 0.0171875 0.65625
vt 0.0171875 0.665625
vt 0.0015625000000000014 0.665625
vt 0.004687500000000004 0.65625
vt 0.17841796875 0.6875
vt 0.17841796875 0.696875
vt 0.16904296875 0.696875
vt 0.16904296875 0.6875
vt 0.0171875 0.665625
vt 0.0171875 0.671875
vt 0.004687500000000004 0.671875
vt 0.0015625000000000014 0.665625
vt 0.34372578125 0.6015625
vt 0.34372578125 0.58693828125
vt 0.35075703125 0.58693828125
vt 0.35075703125 0.6015625
vt 0.100390625 0.640625
vt 0.100390625 0.634375
vt 0.116015625 0.634375
vt 0.112890625 0.640625
vt 0.17841796875 0.696875
vt 0.17841796875 0.703125
vt 0.16904296875 0.703125
vt 0.16904296875 0.696875
vt 0.022656249999999996 0.671875
vt 0.022656249999999996 0.665625
vt 0.0296875 0.665625
vt 0.0296875 0.671875
vt 0.210666796875 0.7390625
vt 0.210666796875 0.74609375
vt 0.205393359375 0.74609375
vt 0.205393359375 0.7390625
vt 0.56238203125 0.525
vt 0.56238203125 0.53125
vt 0.5546875 0.53125
vt 0.5546875 0.525
vt 0.56238203125 0.515625
vt 0.56238203125 0.525
vt 0.5546875 0.525
vt 0.5546875 0.515625
vt 0.19609375 0.4609375
vt 0.19609375 0.47421875
vt 0.1890625 0.47421875
vt 0.1890625 0.4609375
vt 0.10078124999999999 0.484375
vt 0.10078124999999999 0.4697796875
vt 0.1078125 0.4697796875
vt 0.1078125 0.484375
vt 0.47653828125 0.71875
vt 0.47653828125 0.72941328125
vt 0.46174296875 0.72941328125
vt 0.46174296875 0.71875
vt 0.17275390625 0.6265625
vt 0.18427734375 0.6265625
vt 0.18427734375 0.6455078125
vt 0.17275390625 0.6455078125
vt 0.3359375 0.4296875
vt 0.3359375 0.4453125
vt 0.328125 0.44218749999999996
vt 0.328125 0.4296875
vt 0.17841796875 0.696875
vt 0.17841796875 0.6875
vt 0.19423828125 0.6875
vt 0.19423828125 0.696875
vt 0.17841796875 0.703125
vt 0.17841796875 0.696875
vt 0.19423828125 0.696875
vt 0.19423828125 0.703125
vt 0.210666796875 0.7242671875
vt 0.210666796875 0.7390625
vt 0.205393359375 0.7390625
vt 0.205393359375 0.7242671875
vt 0.232106640625 0.7390625
vt 0.216135546875 0.7390625
vt 0.216135546875 0.7242671875
vt 0.232106640625 0.7242671875
vt 0.34372578125 0.58693828125
vt 0.34372578125 0.6015625
vt 0.32893046875 0.6015625
vt 0.32893046875 0.58693828125
vt 0.518359375 0.975
vt 0.522265625 0.9703125
vt 0.518359375 0.984375
vt 0.16904296875 0.696875
vt 0.16513671875 0.6828125
vt 0.16904296875 0.6875
vt 0.16904296875 0.6875
vt 0.16513671875 0.6828125
vt 0.17841796875 0.6828125
vt 0.17841796875 0.6875
vt 0.60234375 0.565625
vt 0.60234375 0.5703125
vt 0.5953125 0.5703125
vt 0.5953125 0.565625
vt 0.508984375 0.975
vt 0.508984375 0.9703125
vt 0.522265625 0.9703125
vt 0.518359375 0.975
vt 0.16728515625 0.6455078125
vt 0.16728515625 0.6265625
vt 0.17275390625 0.6265625
vt 0.17275390625 0.6455078125
vt 0.094921875 0.634375
vt 0.094921875 0.625
vt 0.100390625 0.625
vt 0.100390625 0.634375
vt 0.094921875 0.640625
vt 0.094921875 0.634375
vt 0.100390625 0.634375
vt 0.100390625 0.640625
vt 0.210666796875 0.7390625
vt 0.210666796875 0.7242671875
vt 0.216135546875 0.7242671875
vt 0.216135546875 0.7390625
vt 0.210666796875 0.74609375
vt 0.210666796875 0.7390625
vt 0.216135546875 0.7390625
vt 0.216135546875 0.74609375
vt 0.022656249999999996 0.665625
vt 0.022656249999999996 0.671875
vt 0.0171875 0.671875
vt 0.0171875 0.665625
vt 0.10078124999999999 0.4697796875
vt 0.10078124999999999 0.484375
vt 0.0953125 0.484375
vt 0.0953125 0.4697796875
vt 0.19609375 0.47421875
vt 0.19609375 0.4609375
vt 0.2015625 0.4609375
vt 0.2015625 0.47421875
vt 0.60234375 0.5703125
vt 0.60234375 0.565625
vt 0.6078125 0.565625
vt 0.6078125 0.5703125
vt 0.59375 0.8515625
vt 0.59375 0.84375
vt 0.6015625 0.84375
vt 0.6015625 0.8515625
vt 0.38759765625 0.79233671875
vt 0.38759765625 0.7890625
vt 0.39697265625 0.7890625
vt 0.39697265625 0.79233671875
vt 0.004687500000000004 0.65625
vt 0.005664062500000004 0.653125
vt 0.0171875 0.653125
vt 0.0171875 0.65625
vt 0.36865234375 0.79233671875
vt 0.36865234375 0.7890625
vt 0.38759765625 0.7890625
vt 0.38759765625 0.79233671875
vt 0.100390625 0.625
vt 0.100390625 0.621875
vt 0.1119140625 0.621875
vt 0.112890625 0.625
vt 0.1796875 0.40625
vt 0.1796875 0.3984375
vt 0.1875 0.3984375
vt 0.1875 0.40625
vt 0.5546875 0.65625
vt 0.5546875 0.6484375
vt 0.5703125 0.6484375
vt 0.5703125 0.65625
vt 0.094921875 0.625
vt 0.094921875 0.621875
vt 0.100390625 0.621875
vt 0.100390625 0.625
vt 0.2921875 0.90625
vt 0.2939453125 0.90390625
vt 0.29921875 0.90390625
vt 0.29921875 0.90625
vt 0.2921875 0.896875
vt 0.2939453125 0.896875
vt 0.2939453125 0.90390625
vt 0.2921875 0.90625
vt 0.29921875 0.90625
vt 0.29921875 0.90390625
vt 0.3046875 0.90390625
vt 0.3046875 0.90625
vt 0.3046875 0.8779296875
vt 0.3046875 0.8820796875
vt 0.29921875 0.8820796875
vt 0.29921875 0.8779296875
vt 0.29921875 0.8779296875
vt 0.29921875 0.8820796875
vt 0.2939453125 0.8820796875
vt 0.2921875 0.8810546875
vt 0.2921875 0.8810546875
vt 0.2939453125 0.8820796875
vt 0.2939453125 0.896875
vt 0.2921875 0.896875
vt 0.3046875 0.90625
vt 0.3046875 0.90390625
vt 0.3171875 0.90390625
vt 0.3171875 0.90625
vt 0.3171875 0.8779296875
vt 0.3171875 0.8820796875
vt 0.3046875 0.8820796875
vt 0.3046875 0.8779296875
vt 0.359375 0.3984375
vt 0.3671875 0.3984375
vt 0.3671875 0.40625
vt 0.359375 0.40625
vt 0.3359375 0.40625
vt 0.328125 0.40625
vt 0.328125 0.3984375
vt 0.3359375 0.3984375
vt 0.38759765625 0.79233671875
vt 0.38759765625 0.79480703125
vt 0.372803125 0.79480703125
vt 0.36865234375 0.79233671875
vt 0.36865234375 0.79233671875
vt 0.372803125 0.79480703125
vt 0.372803125 0.80221875
vt 0.36865234375 0.80221875
vt 0.39697265625 0.79233671875
vt 0.39462890625 0.79480703125
vt 0.38759765625 0.79480703125
vt 0.38759765625 0.79233671875
vt 0.39697265625 0.80221875
vt 0.39462890625 0.80221875
vt 0.39462890625 0.79480703125
vt 0.39697265625 0.79233671875
vt 0.34310859375 0.74663359375
vt 0.34310859375 0.75
vt 0.33783515625 0.75
vt 0.33783515625 0.74663359375
vt 0.49611796875 0.6104328125
vt 0.49611796875 0.61379921875
vt 0.48908671875 0.61379921875
vt 0.48908671875 0.6104328125
vt 0.30278984375 0.79350859375
vt 0.30278984375 0.796875
vt 0.29751640625 0.796875
vt 0.29751640625 0.79350859375
vt 0.51091328125 0.6104328125
vt 0.51091328125 0.61379921875
vt 0.49611796875 0.61379921875
vt 0.49611796875 0.6104328125
vt 0.33783515625 0.74663359375
vt 0.33783515625 0.75
vt 0.33236640625 0.75
vt 0.33236640625 0.74663359375
vt 0.30825859375 0.79350859375
vt 0.30825859375 0.796875
vt 0.30278984375 0.796875
vt 0.30278984375 0.79350859375
vt 0.32075859375 0.79350859375
vt 0.32250546875 0.796875
vt 0.30825859375 0.796875
vt 0.30825859375 0.79350859375
vt 0.33236640625 0.74663359375
vt 0.33236640625 0.75
vt 0.31811953125 0.75
vt 0.31986640625 0.74663359375
vt 0.31986640625 0.74663359375
vt 0.31811953125 0.75
vt 0.31314140625 0.7406390625
vt 0.31674140625 0.7403835937500001
vt 0.32388359375 0.7872585937500001
vt 0.32748359375 0.7875140625
vt 0.32250546875 0.796875
vt 0.32075859375 0.79350859375
vt 0.06252421875 0.55625
vt 0.06252421875 0.55234375
vt 0.06955546874999999 0.55234375
vt 0.06955546874999999 0.55625
vt 0.31674140625 0.7403835937500001
vt 0.31314140625 0.7406390625
vt 0.3153796875 0.7321171875
vt 0.31908515625 0.73335234375
vt 0.06955546874999999 0.55625
vt 0.06955546874999999 0.55234375
vt 0.08435078124999999 0.55234375
vt 0.08435078124999999 0.55625
vt 0.32153984375 0.78022734375
vt 0.3252453125 0.7789921875
vt 0.32748359375 0.7875140625
vt 0.32388359375 0.7872585937500001
vt 0.299016796875 0.80911171875
vt 0.299016796875 0.8125
vt 0.283045703125 0.8125
vt 0.284769921875 0.80911171875
vt 0.304485546875 0.80911171875
vt 0.304485546875 0.8125
vt 0.299016796875 0.8125
vt 0.299016796875 0.80911171875
vt 0.309758984375 0.80911171875
vt 0.309758984375 0.8125
vt 0.304485546875 0.8125
vt 0.304485546875 0.80911171875
vt 0.49611796875 0.61379921875
vt 0.49611796875 0.6171875
vt 0.48908671875 0.6171875
vt 0.48908671875 0.61379921875
vt 0.281451953125 0.77786171875
vt 0.281451953125 0.78125
vt 0.276178515625 0.78125
vt 0.276178515625 0.77786171875
vt 0.51091328125 0.61379921875
vt 0.51091328125 0.6171875
vt 0.49611796875 0.6171875
vt 0.49611796875 0.61379921875
vt 0.301167578125 0.77786171875
vt 0.302891796875 0.78125
vt 0.286920703125 0.78125
vt 0.286920703125 0.77786171875
vt 0.286920703125 0.77786171875
vt 0.286920703125 0.78125
vt 0.281451953125 0.78125
vt 0.281451953125 0.77786171875
vt 0.284769921875 0.80911171875
vt 0.283045703125 0.8125
vt 0.276178515625 0.800171875
vt 0.279791796875 0.79975078125
vt 0.306145703125 0.76850078125
vt 0.309758984375 0.768921875
vt 0.302891796875 0.78125
vt 0.301167578125 0.77786171875
vt 0.06252421875 0.55234375
vt 0.06252421875 0.5484375
vt 0.06955546874999999 0.5484375
vt 0.06955546874999999 0.55234375
vt 0.279791796875 0.79975078125
vt 0.276178515625 0.800171875
vt 0.278251953125 0.79023671875
vt 0.282030078125 0.79122890625
vt 0.06955546874999999 0.55234375
vt 0.06955546874999999 0.5484375
vt 0.08435078124999999 0.5484375
vt 0.08435078124999999 0.55234375
vt 0.303907421875 0.75997890625
vt 0.307685546875 0.75898671875
vt 0.309758984375 0.768921875
vt 0.306145703125 0.76850078125
vt 0.210666796875 0.74609375
vt 0.210666796875 0.75
vt 0.205393359375 0.75
vt 0.205393359375 0.74609375
vt 0.48908671875 0.6171875
vt 0.48518046875 0.6171875
vt 0.48518046875 0.61379921875
vt 0.48908671875 0.61379921875
vt 0.56563046875 0.77734375
vt 0.56563046875 0.7734375
vt 0.57090390625 0.7734375
vt 0.57090390625 0.77734375
vt 0.216135546875 0.74609375
vt 0.216135546875 0.75
vt 0.210666796875 0.75
vt 0.210666796875 0.74609375
vt 0.57090390625 0.77734375
vt 0.57090390625 0.7734375
vt 0.57637265625 0.7734375
vt 0.57637265625 0.77734375
vt 0.232106640625 0.74609375
vt 0.232106640625 0.75
vt 0.216135546875 0.75
vt 0.216135546875 0.74609375
vt 0.57637265625 0.77734375
vt 0.57637265625 0.7734375
vt 0.59061953125 0.7734375
vt 0.59061953125 0.77734375
vt 0.5546875 0.625
vt 0.5625 0.625
vt 0.5625 0.640625
vt 0.5546875 0.640625
vt 0.6015625 0.6171875
vt 0.59375 0.6171875
vt 0.59375 0.609375
vt 0.6015625 0.609375
vt 0.1953125 0.3984375
vt 0.203125 0.3984375
vt 0.203125 0.40625
vt 0.1953125 0.40625
vt 0.3203125 0.40625
vt 0.3125 0.40625
vt 0.3125 0.3984375
vt 0.3203125 0.3984375
vt 0.05939921875 0.55234375
vt 0.055492968749999996 0.55234375
vt 0.055492968749999996 0.5484375
vt 0.05939921875 0.5484375
vt 0.21875 0.40625
vt 0.2109375 0.40625
vt 0.2109375 0.3984375
vt 0.21875 0.3984375
vt 0.05544453125000008 0.5546875000000001
vt 0.059350781250000095 0.5546875000000001
vt 0.059350781250000095 0.5585937500000001
vt 0.05544453125000008 0.5585937500000001
vt 0.59375 0.671875
vt 0.6015625 0.671875
vt 0.6015625 0.6796875
vt 0.59375 0.6796875
vt 0.4296875 0.4453125
vt 0.421875 0.4453125
vt 0.421875 0.4296875
vt 0.4296875 0.4296875
vt 0.59375 0.59375
vt 0.6015625 0.59375
vt 0.6015625 0.6015625
vt 0.59375 0.6015625
vt 0.216135546875 0.7242671875
vt 0.216135546875 0.7203609375
vt 0.232106640625 0.7203609375
vt 0.232106640625 0.7242671875
vt 0.59061953125 0.7421875
vt 0.59061953125 0.74609375
vt 0.57637265625 0.74609375
vt 0.57637265625 0.7421875
vt 0.210666796875 0.7242671875
vt 0.210666796875 0.7203609375
vt 0.216135546875 0.7203609375
vt 0.216135546875 0.7242671875
vt 0.57637265625 0.7421875
vt 0.57637265625 0.74609375
vt 0.57090390625 0.74609375
vt 0.57090390625 0.7421875
vt 0.205393359375 0.7242671875
vt 0.205393359375 0.7203609375
vt 0.210666796875 0.7203609375
vt 0.210666796875 0.7242671875
vt 0.57090390625 0.7421875
vt 0.57090390625 0.74609375
vt 0.56563046875 0.74609375
vt 0.56563046875 0.7421875
vt 0.51091328125 0.61379921875
vt 0.51481953125 0.61379921875
vt 0.51481953125 0.6171875
vt 0.51091328125 0.6171875
vt 0.62419453125 0.834375
vt 0.62419453125 0.8359375
vt 0.60939921875 0.8359375
vt 0.60939921875 0.834375
vt 0.510522265625 0.53378671875
vt 0.511969921875 0.5340078125
vt 0.505020703125 0.546875
vt 0.503655078125 0.54611484375
vt 0.60939921875 0.834375
vt 0.60939921875 0.8359375
vt 0.60236796875 0.8359375
vt 0.60236796875 0.834375
vt 0.488532421875 0.49923984374999997
vt 0.487166796875 0.5
vt 0.480217578125 0.48713281249999996
vt 0.481665234375 0.48691171875000006
vt 0.06252421875 0.5484375
vt 0.06252421875 0.546875
vt 0.06955546874999999 0.546875
vt 0.06955546874999999 0.5484375
vt 0.481665234375 0.48691171875000006
vt 0.480217578125 0.48713281249999996
vt 0.482208984375 0.47665703125000003
vt 0.483738671875 0.4769765625
vt 0.06955546874999999 0.5484375
vt 0.06955546874999999 0.546875
vt 0.08435078124999999 0.546875
vt 0.08435078124999999 0.5484375
vt 0.508448828125 0.5238515625
vt 0.509978515625 0.52353203125
vt 0.511969921875 0.5340078125
vt 0.510522265625 0.53378671875
vn 0.9824144002016394 -0.18671354068854576 0
vn 0 1 0
vn 0 -1 0
vn 0 0 1
vn 0 0 -1
vn -1 0 0
vn 0 0 -1
vn 0.8798830234908169 0.47519034604320265 0
vn 0 0 1
vn -1 0 0
vn 0 0 -1
vn 0 1 0
vn -0.4061384660534478 0 0.9138115486202572
vn -0.4061384660534478 0 0.913811548620257
vn 0 -1 2.0898315757650014e-15
vn 0 0.2676438637860938 -0.963517909629941
vn 0.9824144002016394 -0.18671354068854576 0
vn 0 -1 0
vn 0 -1 0
vn -1 0 0
vn -1 0 0
vn 0 1 0
vn 0 1 0
vn 0.8798830234908169 0.4751903460432026 0
vn 1 0 0
vn -1 0 0
vn -1 0 0
vn 0 0 1
vn 1 0 0
vn 0 -1 0
vn 0 0 1
vn 0 0 1
vn 0 1 0
vn 0 1 0
vn 0 0 -1
vn 0 0.2676438637860938 -0.963517909629941
vn 0 -1 2.0898315757650014e-15
vn 0 0 1
vn -1 0 0
vn 0.9544799780350304 -0.2982749931359454 0
vn 0 0 -1
vn 0.9544799780350303 -0.29827499313594535 0
vn 0 0 1
vn 0 0 -1
vn -1 0 0
vn 0 0 1
vn 0 1 0
vn 0 1 0
vn 0 1 0
vn 0 1 0
vn 0 1 0
vn 0 1 0
vn 0 1 0
vn 0 1 0
vn 0.8944271909999144 0.4472135954999612 0
vn 0.8944271909999144 0.44721359549996115 0
vn 0.9486832980505143 -0.3162277660168362 0
vn 0.9486832980505143 -0.3162277660168362 0
vn 0.9486832980505144 -0.3162277660168362 0
vn 0.9486832980505144 -0.3162277660168363 0
vn 3.289549702593053e-16 0 -1
vn -1 0 0
vn 0 0 1
vn -1 0 0
vn 0 0 -1
vn 0 0 1
vn 0 0 1
vn 0 0 -1
vn 0 0 -1
vn 0 0 1
vn -0.31622776601683694 -0.9486832980505143 0
vn 0 0 -1
vn -0.3162277660168369 -0.9486832980505142 0
vn 0 0 1
vn 0 0 -1
vn 0 0 -1
vn 0 0 -1
vn -1 0 0
vn 0 0 1
vn -1 0 0
vn 0 0 1
vn 0 0 1
vn 0 0 -1
vn 0 0 1
vn -0.25396874575998407 -0.9672124255700507 0
vn 0 0 -1
vn -0.253968745759984 -0.9672124255700506 0
vn 0 0 1
vn 0 1 0
vn -1 0 0
vn 0 -1 0
vn 0 1 0
vn 0 -1 0
vn 0 1 0
vn 0 -1 0
vn 0.8736087272578974 0.48662900823814104 0
vn -0.8829169286167335 -0.469529229294614 0
vn 0.978916228553509 -0.2042621293205724 0
vn -0.9672124255700506 0.2539687457599838 0
vn -0.25396874575998407 -0.9672124255700506 0
vn 0.978916228553509 -0.2042621293205724 0
vn -0.25396874575998407 -0.9672124255700506 0
vn -0.9672124255700506 0.2539687457599838 0
vn 0.8736087272578974 0.48662900823814104 0
vn -0.8829169286167335 -0.469529229294614 0
vn 0 1 0
vn 0 -1 0
vn 0 1 0
vn 0 -1 0
vn 0 1 0
vn 0 -1 0
vn -1 0 0
vn -0.48662900823814 0.873608727257898 0
vn 0 0 1
vn -0.48662900823814004 0.873608727257898 0
vn 0 0 -1
vn -0.20426212932056495 -0.9789162285535106 0
vn 0 0 -1
vn -0.20426212932056495 -0.9789162285535107 0
vn 0 0 1
usemtl m_b486289d-1bb0-a945-f555-93e2e004edc1
f 115/1/1 120/2/1 119/3/1 117/4/1
f 73/5/2 74/6/2 72/7/2 75/8/2
f 37/9/3 38/10/3 36/11/3 39/12/3
f 16/13/4 17/14/4 3/15/4 11/16/4
f 18/17/5 13/18/5 10/19/5 4/20/5
f 21/21/6 22/22/6 9/23/6 8/24/6
f 13/25/7 14/26/7 2/27/7 10/28/7
f 114/29/8 115/30/8 117/31/8 118/32/8
f 15/33/9 16/34/9 11/35/9 1/36/9
f 22/37/10 23/38/10 6/39/10 9/40/10
f 32/41/11 33/42/11 9/43/11 6/44/11
f 76/45/12 77/46/12 78/47/12 79/48/12
f 30/49/13 31/50/13 5/51/13 12/52/13
f 29/53/14 30/54/14 12/55/14 7/56/14
f 34/57/15 35/58/15 27/59/15 24/60/15
f 33/61/16 34/62/16 24/63/16 9/64/16
f 120/65/17 115/66/17 116/67/17 121/68/17
f 38/69/18 37/70/18 40/71/18 41/72/18
f 28/73/19 29/74/19 7/75/19 21/76/19
f 22/77/20 21/78/20 7/79/20 12/80/20
f 23/81/21 22/82/21 12/83/21 5/84/21
f 80/85/22 76/86/22 79/87/22 81/88/22
f 74/89/23 73/90/23 82/91/23 83/92/23
f 115/93/24 114/94/24 113/95/24 116/96/24
f 18/97/25 25/98/25 13/99/25
f 9/100/26 24/101/26 8/102/26
f 8/103/27 24/104/27 27/105/27 21/106/27
f 35/107/28 28/108/28 21/109/28 27/110/28
f 20/111/29 26/112/29 25/113/29 18/114/29
f 43/115/30 42/116/30 38/117/30 41/118/30
f 30/119/31 29/120/31 17/121/31 16/122/31
f 31/123/32 30/124/32 16/125/32 15/126/32
f 76/127/33 80/128/33 82/129/33 73/130/33
f 77/131/34 76/132/34 73/133/34 75/134/34
f 33/135/35 32/136/35 14/137/35 13/138/35
f 34/139/36 33/140/36 13/141/36 25/142/36
f 35/143/37 34/144/37 25/145/37 26/146/37
f 28/147/38 35/148/38 26/149/38 20/150/38
f 18/151/39 36/152/39 38/153/39 20/154/39
f 19/155/40 37/156/40 39/157/40 4/158/40
f 4/159/41 39/160/41 36/161/41 18/162/41
f 3/163/42 40/164/42 37/165/42 19/166/42
f 17/167/43 41/168/43 40/169/43 3/170/43
f 20/171/44 38/172/44 42/173/44 28/174/44
f 28/175/45 42/176/45 43/177/45 29/178/45
f 29/179/46 43/180/46 41/181/46 17/182/46
f 6/183/47 44/184/47 45/185/47 32/186/47
f 23/187/48 46/188/48 44/189/48 6/190/48
f 32/191/49 45/192/49 47/193/49 14/194/49
f 15/195/50 48/196/50 49/197/50 31/198/50
f 31/199/51 49/200/51 50/201/51 5/202/51
f 5/203/52 50/204/52 46/205/52 23/206/52
f 14/207/53 47/208/53 51/209/53 2/210/53
f 1/211/54 52/212/54 48/213/54 15/214/54
f 11/215/55 53/216/55 52/217/55 1/218/55
f 2/219/56 51/220/56 54/221/56 10/222/56
f 19/223/57 55/224/57 56/225/57 3/226/57
f 3/227/58 56/228/58 53/229/58 11/230/58
f 4/231/59 57/232/59 55/233/59 19/234/59
f 10/235/60 54/236/60 57/237/60 4/238/60
f 44/239/61 58/240/61 59/241/61 45/242/61
f 46/243/62 60/244/62 58/245/62 44/246/62
f 49/247/63 61/248/63 62/249/63 50/250/63
f 50/251/64 62/252/64 60/253/64 46/254/64
f 45/255/65 59/256/65 63/257/65 47/258/65
f 48/259/66 64/260/66 61/261/66 49/262/66
f 52/263/67 65/264/67 64/265/67 48/266/67
f 47/267/68 63/268/68 66/269/68 51/270/68
f 51/271/69 66/272/69 67/273/69 54/274/69
f 53/275/70 68/276/70 65/277/70 52/278/70
f 57/279/71 69/280/71 70/281/71 55/282/71
f 54/283/72 67/284/72 69/285/72 57/286/72
f 55/287/73 70/288/73 71/289/73 56/290/73
f 56/291/74 71/292/74 68/293/74 53/294/74
f 94/295/75 93/296/75 95/297/75 96/298/75
f 92/299/76 89/300/76 93/301/76 94/302/76
f 91/303/77 90/304/77 89/305/77 92/306/77
f 60/307/78 79/308/78 78/309/78 58/310/78
f 110/311/79 109/312/79 111/313/79 112/314/79
f 62/315/80 81/316/80 79/317/80 60/318/80
f 106/319/81 105/320/81 107/321/81 108/322/81
f 108/323/82 107/324/82 109/325/82 110/326/82
f 96/327/83 95/328/83 97/329/83 98/330/83
f 104/331/84 101/332/84 105/333/84 106/334/84
f 69/335/85 86/336/85 87/337/85 70/338/85
f 98/339/86 97/340/86 99/341/86 100/342/86
f 70/343/87 87/344/87 88/345/87 71/346/87
f 103/347/88 102/348/88 101/349/88 104/350/88
f 77/351/89 89/352/89 90/353/89 78/354/89
f 78/355/90 90/356/90 91/357/90 58/358/90
f 58/359/91 91/360/91 92/361/91 59/362/91
f 75/363/92 93/364/92 89/365/92 77/366/92
f 59/367/93 92/368/93 94/369/93 63/370/93
f 72/371/94 95/372/94 93/373/94 75/374/94
f 63/375/95 94/376/95 96/377/95 66/378/95
f 84/379/96 97/380/96 95/381/96 72/382/96
f 66/383/97 96/384/97 98/385/97 67/386/97
f 86/387/98 99/388/98 97/389/98 84/390/98
f 67/391/99 98/392/99 100/393/99 69/394/99
f 69/395/100 100/396/100 99/397/100 86/398/100
f 85/399/101 101/400/101 102/401/101 88/402/101
f 88/403/102 102/404/102 103/405/102 71/406/102
f 71/407/103 103/408/103 104/409/103 68/410/103
f 83/411/104 105/412/104 101/413/104 85/414/104
f 68/415/105 104/416/105 106/417/105 65/418/105
f 82/419/106 107/420/106 105/421/106 83/422/106
f 65/423/107 106/424/107 108/425/107 64/426/107
f 80/427/108 109/428/108 107/429/108 82/430/108
f 64/431/109 108/432/109 110/433/109 61/434/109
f 81/435/110 111/436/110 109/437/110 80/438/110
f 61/439/111 110/440/111 112/441/111 62/442/111
f 62/443/112 112/444/112 111/445/112 81/446/112
f 83/447/113 113/448/113 114/449/113 74/450/113
f 85/451/114 116/452/114 113/453/114 83/454/114
f 74/455/115 114/456/115 118/457/115 72/458/115
f 72/459/116 118/460/116 117/461/116 84/462/116
f 86/463/117 119/464/117 120/465/117 87/466/117
f 84/467/118 117/468/118 119/469/118 86/470/118
f 87/471/119 120/472/119 121/473/119 88/474/119
f 88/475/120 121/476/120 116/477/120 85/478/120
o cylinder
v 0.3312499999999998 1.0125000000000002 -2.1163626406917048e-17
v 0.6249999999999998 1.0125000000000004 -2.1163626406917048e-17
v 0.3312499999999998 1.0443189666011958 0.11874999999999994
v 0.6249999999999998 1.044318966601196 0.11874999999999994
v 0.3312499999999998 1.0994310333988042 0.08693103339880415
v 0.6249999999999998 1.0994310333988044 0.08693103339880415
v 0.33124999999999977 1.13125 0.03181896660119578
v 0.6249999999999998 1.1312500000000003 0.03181896660119578
v 0.33124999999999977 1.13125 -0.03181896660119583
v 0.6249999999999998 1.1312500000000003 -0.03181896660119583
v 0.3312499999999998 1.0994310333988042 -0.08693103339880418
v 0.6249999999999998 1.0994310333988044 -0.08693103339880418
v 0.3312499999999998 1.044318966601196 -0.11874999999999997
v 0.6249999999999998 1.0443189666011963 -0.11874999999999997
v 0.3312499999999998 0.9806810333988044 -0.11875
v 0.6249999999999998 0.9806810333988044 -0.11875
v 0.3312499999999998 0.925568966601196 -0.0869310333988042
v 0.6249999999999998 0.925568966601196 -0.0869310333988042
v 0.3312499999999998 0.8937500000000002 -0.03181896660119582
v 0.6249999999999998 0.8937500000000002 -0.03181896660119582
v 0.3312499999999998 0.8937500000000002 0.031818966601195736
v 0.6249999999999998 0.8937500000000002 0.031818966601195736
v 0.3312499999999998 0.925568966601196 0.08693103339880412
v 0.6249999999999998 0.925568966601196 0.08693103339880412
v 0.3312499999999998 0.9806810333988044 0.11874999999999994
v 0.6249999999999998 0.9806810333988044 0.11874999999999994
v 0.4156249999999998 1.0994310333988042 0.08693103339880415
v 0.4156249999999998 1.0443189666011958 0.11874999999999994
v 0.4156249999999998 0.9806810333988044 0.11874999999999994
v 0.4156249999999998 0.925568966601196 0.08693103339880412
v 0.4156249999999998 0.8937500000000002 0.031818966601195736
v 0.4156249999999998 0.8937500000000002 -0.03181896660119582
v 0.4156249999999998 0.925568966601196 -0.0869310333988042
v 0.4156249999999998 0.9806810333988044 -0.11875
v 0.4156249999999998 1.044318966601196 -0.11874999999999997
v 0.4156249999999998 1.0994310333988042 -0.08693103339880418
v 0.41562499999999974 1.13125 -0.03181896660119583
v 0.41562499999999974 1.13125 0.03181896660119578
v 0.3312499999999998 0.9806810333988044 -0.14375
v 0.4156249999999998 0.9765143667321378 -0.142633545031537
v 0.4156249999999998 1.0484856332678627 -0.14263354503153694
v 0.3312499999999998 1.044318966601196 -0.14374999999999996
v 0.6249999999999998 1.0505689666011964 -0.14207531754730546
v 0.6249999999999998 0.9744310333988044 -0.14207531754730549
v 0.6249999999999998 1.1545753175473057 -0.03806896660119584
v 0.4156249999999998 1.1180314567952114 -0.10248124509700784
v 0.41562499999999974 1.154017090063074 -0.04015229993452918
v 0.6249999999999998 1.11650635094611 -0.10400635094610966
v 0.3312499999999998 1.121081668493415 -0.0994310333988042
v 0.33124999999999977 1.152900635094611 -0.04431896660119585
v 0.6249999999999998 1.11650635094611 0.10400635094610965
v 0.41562499999999974 1.154017090063074 0.04015229993452912
v 0.4156249999999998 1.1180314567952114 0.10248124509700782
v 0.6249999999999998 1.1545753175473057 0.03806896660119578
v 0.33124999999999977 1.152900635094611 0.04431896660119579
v 0.3312499999999998 1.121081668493415 0.09943103339880416
v 0.6249999999999998 0.9744310333988044 0.14207531754730543
v 0.4156249999999998 1.0484856332678625 0.14263354503153694
v 0.4156249999999998 0.9765143667321378 0.14263354503153694
v 0.6249999999999998 1.0505689666011961 0.14207531754730543
v 0.3312499999999998 1.0443189666011958 0.14374999999999993
v 0.3312499999999998 0.9806810333988044 0.14374999999999993
v 0.6249999999999998 0.8704246824526947 0.03806896660119574
v 0.4156249999999998 0.9069685432047887 0.10248124509700779
v 0.41562499999999986 0.8709829099369262 0.04015229993452908
v 0.6249999999999998 0.9084936490538905 0.1040063509461096
v 0.3312499999999998 0.9039183315065851 0.09943103339880413
v 0.3312499999999999 0.8720993649053892 0.04431896660119575
v 0.6249999999999998 0.9084936490538905 -0.1040063509461097
v 0.41562499999999986 0.8709829099369262 -0.040152299934529165
v 0.4156249999999998 0.9069685432047887 -0.10248124509700787
v 0.6249999999999998 0.8704246824526947 -0.038068966601195825
v 0.3312499999999999 0.8720993649053892 -0.04431896660119583
v 0.3312499999999998 0.9039183315065851 -0.09943103339880421
v 0.331498079387268 0.9806810333988044 -0.16249835877130614
v 0.41577403486528397 0.9765143667321378 -0.1613826910966719
v 0.41577403486528397 1.0484856332678627 -0.16138269109667183
v 0.331498079387268 1.044318966601196 -0.1624983587713061
v 0.6250499903433 1.0505689666011964 -0.1608252509062691
v 0.6250499903433 0.9744310333988044 -0.16082525090626912
v 0.6250499903433 1.1708132361554335 -0.047443933280677655
v 0.4157740348652839 1.1342686935868833 -0.1118558181295753
v 0.4157740348652839 1.1702543268547458 -0.04952687296709663
v 0.6250499903433 1.1327442695542378 -0.11338131762559148
v 0.33149807938726794 1.137318223468631 -0.10880521278445729
v 0.33149807938726794 1.1691371900698269 -0.05369314598684894
v 0.6250499903433 1.1327442695542378 0.11338131762559146
v 0.4157740348652839 1.1702543268547458 0.049526872967096576
v 0.4157740348652839 1.1342686935868833 0.11185581812957526
v 0.6250499903433 1.1708132361554335 0.0474439332806776
v 0.33149807938726794 1.1691371900698269 0.05369314598684888
v 0.33149807938726794 1.137318223468631 0.10880521278445725
v 0.6250499903433 0.9744310333988044 0.16082525090626906
v 0.41577403486528397 1.0484856332678625 0.16138269109667183
v 0.41577403486528397 0.9765143667321378 0.16138269109667183
v 0.6250499903433 1.0505689666011961 0.16082525090626906
v 0.331498079387268 1.0443189666011958 0.16249835877130608
v 0.331498079387268 0.9806810333988044 0.16249835877130608
v 0.6250499903433 0.8541867638445669 0.04744393328067756
v 0.41577403486528397 0.8907313064131168 0.11185581812957524
v 0.415774034865284 0.8547456731452543 0.04952687296709653
v 0.6250499903433 0.8922557304457628 0.11338131762559142
v 0.331498079387268 0.8876817765313691 0.10880521278445722
v 0.33149807938726805 0.8558628099301733 0.053693145986848836
v 0.6250499903433 0.8922557304457628 -0.11338131762559152
v 0.415774034865284 0.8547456731452543 -0.04952687296709662
v 0.41577403486528397 0.8907313064131168 -0.11185581812957532
v 0.6250499903433 0.8541867638445669 -0.04744393328067764
v 0.33149807938726805 0.8558628099301733 -0.05369314598684892
v 0.331498079387268 0.8876817765313691 -0.1088052127844573
vt 0.16008515625000003 0.83203125
vt 0.15319609375 0.82805390625
vt 0.16406250000000003 0.8171875
vt 0.4609375 0.5234375
vt 0.47097500000000003 0.5234375
vt 0.47071484375 0.546875
vt 0.46119765625 0.546875
vt 0.06725859374999998 0.80496796875
vt 0.07414765625 0.8009906250000001
vt 0.078125 0.815834375
vt 0.15319609375 0.82805390625
vt 0.14921875 0.82116484375
vt 0.16406250000000003 0.8171875
vt 0.13307265624999998 0.575403125
vt 0.14206953125 0.575403125
vt 0.1423296875 0.6015625
vt 0.1328125 0.6015625
vt 0.06328124999999998 0.81185703125
vt 0.06725859374999998 0.80496796875
vt 0.078125 0.815834375
vt 0.14921875 0.82116484375
vt 0.14921875 0.81321015625
vt 0.16406250000000003 0.8171875
vt 0.47154375 0.8203125
vt 0.48158125 0.8203125
vt 0.48132109375 0.84375
vt 0.47180390625 0.84375
vt 0.06328124999999998 0.81981171875
vt 0.06328124999999998 0.81185703125
vt 0.078125 0.815834375
vt 0.14921875 0.81321015625
vt 0.15319609375 0.80632109375
vt 0.16406250000000003 0.8171875
vt 0.19386796875 0.575403125
vt 0.20286484375000002 0.575403125
vt 0.203125 0.6015625
vt 0.1936078125 0.6015625
vt 0.06725859374999998 0.82670078125
vt 0.06328124999999998 0.81981171875
vt 0.078125 0.815834375
vt 0.15319609375 0.80632109375
vt 0.16008515625000003 0.80234375
vt 0.16406250000000003 0.8171875
vt 0.47433749999999997 0.8828125
vt 0.484375 0.8828125
vt 0.48411484375 0.90625
vt 0.47459765625 0.90625
vt 0.07414765625 0.8306781249999999
vt 0.06725859374999998 0.82670078125
vt 0.078125 0.815834375
vt 0.16008515625000003 0.80234375
vt 0.16803984375000003 0.80234375
vt 0.16406250000000003 0.8171875
vt 0.2298765625 0.583215625
vt 0.2388734375 0.583215625
vt 0.23913359375 0.609375
vt 0.22961640625 0.609375
vt 0.08210234375 0.8306781249999999
vt 0.07414765625 0.8306781249999999
vt 0.078125 0.815834375
vt 0.16803984375000003 0.80234375
vt 0.17492890625000002 0.80632109375
vt 0.16406250000000003 0.8171875
vt 0.2421875 0.515625
vt 0.25222500000000003 0.515625
vt 0.25196484375 0.5390625
vt 0.24244765625 0.5390625
vt 0.08899140624999999 0.82670078125
vt 0.08210234375 0.8306781249999999
vt 0.078125 0.815834375
vt 0.17492890625000002 0.80632109375
vt 0.17890625000000002 0.81321015625
vt 0.16406250000000003 0.8171875
vt 0.39088515625 0.637903125
vt 0.39988203125 0.637903125
vt 0.40014218749999997 0.6640625
vt 0.390625 0.6640625
vt 0.09296874999999999 0.81981171875
vt 0.08899140624999999 0.82670078125
vt 0.078125 0.815834375
vt 0.17890625000000002 0.81321015625
vt 0.17890625000000002 0.82116484375
vt 0.16406250000000003 0.8171875
vt 0.19029375 0.5078125
vt 0.20033125 0.5078125
vt 0.20007109375 0.53125
vt 0.19055390625 0.53125
vt 0.09296874999999999 0.81185703125
vt 0.09296874999999999 0.81981171875
vt 0.078125 0.815834375
vt 0.17890625000000002 0.82116484375
vt 0.17492890625000002 0.82805390625
vt 0.16406250000000003 0.8171875
vt 0.36574296875 0.583215625
vt 0.37473984375 0.583215625
vt 0.375 0.609375
vt 0.36548281250000003 0.609375
vt 0.08899140624999999 0.80496796875
vt 0.09296874999999999 0.81185703125
vt 0.078125 0.815834375
vt 0.17492890625000002 0.82805390625
vt 0.16803984375000003 0.83203125
vt 0.16406250000000003 0.8171875
vt 0.46652499999999997 0.609375
vt 0.4765625 0.609375
vt 0.47630234375 0.6328125
vt 0.46678515625 0.6328125
vt 0.08210234375 0.8009906250000001
vt 0.08899140624999999 0.80496796875
vt 0.078125 0.815834375
vt 0.16803984375000003 0.83203125
vt 0.16008515625000003 0.83203125
vt 0.16406250000000003 0.8171875
vt 0.1673765625 0.583215625
vt 0.1763734375 0.583215625
vt 0.17663359375 0.609375
vt 0.16711640625 0.609375
vt 0.07414765625 0.8009906250000001
vt 0.08210234375 0.8009906250000001
vt 0.078125 0.815834375
vt 0.6015625 0.8828125
vt 0.59375 0.8828125
vt 0.59375 0.875
vt 0.6015625 0.875
vt 0.1763734375 0.583215625
vt 0.1673765625 0.583215625
vt 0.16789765625 0.57268046875
vt 0.17585234375 0.57268046875
vt 0.15625 0.40625
vt 0.1484375 0.40625
vt 0.1484375 0.3984375
vt 0.15625 0.3984375
vt 0.37473984375 0.583215625
vt 0.36574296875 0.583215625
vt 0.3662640625 0.57268046875
vt 0.37421875 0.57268046875
vt 0.5 0.4140625
vt 0.4921875 0.4140625
vt 0.4921875 0.40625
vt 0.5 0.40625
vt 0.39988203125 0.637903125
vt 0.39088515625 0.637903125
vt 0.39140625 0.62736796875
vt 0.3993609375 0.62736796875
vt 0.140625 0.40625
vt 0.1328125 0.40625
vt 0.1328125 0.3984375
vt 0.140625 0.3984375
vt 0.2388734375 0.583215625
vt 0.2298765625 0.583215625
vt 0.23039765625 0.57268046875
vt 0.23835234375 0.57268046875
vt 0.6015625 0.8671875
vt 0.59375 0.8671875
vt 0.59375 0.859375
vt 0.6015625 0.859375
vt 0.20286484375000002 0.575403125
vt 0.19386796875 0.575403125
vt 0.19438906250000001 0.56486796875
vt 0.20234375 0.56486796875
vt 0.515625 0.4140625
vt 0.5078125 0.4140625
vt 0.5078125 0.40625
vt 0.515625 0.40625
vt 0.14206953125 0.575403125
vt 0.13307265624999998 0.575403125
vt 0.13359375 0.56486796875
vt 0.14154843749999999 0.56486796875
vt 0.49335976558333183 0.8671875083355784
vt 0.4964847655833207 0.8671875
vt 0.4963449500013245 0.8777476566229796
vt 0.4933597936825666 0.8777218833355409
vt 0.4675989731864387 0.4870964754749052
vt 0.46456861126602417 0.48712192102516194
vt 0.464432287579516 0.4765625371892047
vt 0.46751053366373674 0.47656403427587735
vt 0.16008515625000003 0.80234375
vt 0.16008515625000003 0.79921875
vt 0.16803984375000003 0.79921875
vt 0.16803984375000003 0.80234375
vt 0.08210234375 0.8306781249999999
vt 0.08288359375000001 0.83359375
vt 0.07336640624999999 0.83359375
vt 0.07414765625 0.8306781249999999
vt 0.06725859374999998 0.82670078125
vt 0.06512421874999999 0.82883515625
vt 0.06036562500000001 0.82059296875
vt 0.06328124999999998 0.81981171875
vt 0.49218751031946417 0.734375
vt 0.49531251031946266 0.7343750030612471
vt 0.49517265622474327 0.7449351591742512
vt 0.4921875 0.7449093749999949
vt 0.17740812929438401 0.48712347463138195
vt 0.17437766054438403 0.48712347463138195
vt 0.17433000429438403 0.47656253713138197
vt 0.17740812929438401 0.476589880881382
vt 0.14921875 0.81321015625
vt 0.14651250000000002 0.81164765625
vt 0.15048984375000002 0.80475859375
vt 0.15319609375 0.80632109375
vt 0.06328124999999998 0.81185703125
vt 0.06036562500000001 0.81107578125
vt 0.06512421874999999 0.80283359375
vt 0.06725859374999998 0.80496796875
vt 0.04140626080701976 0.46875
vt 0.044531260631667485 0.4687510468770547
vt 0.04438787949194645 0.47931037443679125
vt 0.04140273204618741 0.47928359315893143
vt 0.3203125 0.4871234375
vt 0.31728203125 0.4871234375
vt 0.31723359375 0.4765625
vt 0.3203125 0.47658984375
vt 0.15319609375 0.82805390625
vt 0.15048984375000002 0.82961640625
vt 0.14651250000000002 0.82272734375
vt 0.14921875 0.82116484375
vt 0.07414765625 0.8009906250000001
vt 0.07336640624999999 0.798075
vt 0.08288359375000001 0.798075
vt 0.08210234375 0.8009906250000001
vt 0.1261722606608606 0.46093854993830174
vt 0.1292972604844813 0.4609375
vt 0.1291609644838959 0.47149692138875343
vt 0.12617579974039123 0.4714721430937713
vt 0.4129128469009508 0.487096194143251
vt 0.4098824936836878 0.48712265587694525
vt 0.4097426222574614 0.4765625371285034
vt 0.4128208686706338 0.47656300197301193
vt 0.16803984375000003 0.83203125
vt 0.16803984375000003 0.83515625
vt 0.16008515625000003 0.83515625
vt 0.16008515625000003 0.83203125
vt 0.08899140624999999 0.80496796875
vt 0.09112578125000001 0.80283359375
vt 0.095884375 0.81107578125
vt 0.09296874999999999 0.81185703125
vt 0.28125 0.46875000833557834
vt 0.2843749999999889 0.46875
vt 0.2842351844159087 0.4793093753729796
vt 0.28125002809715083 0.4792836020855409
vt 0.21647932630091082 0.5105609746154722
vt 0.2134488575509108 0.5105609746154722
vt 0.2134012013009108 0.5000008183654722
vt 0.21647932630091082 0.5000281621154722
vt 0.17890625000000002 0.82116484375
vt 0.1816125 0.82272734375
vt 0.17763515625 0.82961640625
vt 0.17492890625000002 0.82805390625
vt 0.09296874999999999 0.81981171875
vt 0.095884375 0.82059296875
vt 0.09112578125000001 0.82883515625
vt 0.08899140624999999 0.82670078125
vt 0.34609452106841837 0.4687508073748009
vt 0.3492195209641217 0.46875
vt 0.3490824055400848 0.47931019202757785
vt 0.3460972427288721 0.4792851820232169
vt 0.4921875 0.682435189887435
vt 0.48915703125 0.682435189887435
vt 0.48910859375 0.6718750336374351
vt 0.4921875 0.6719023773874351
vt 0.17492890625000002 0.80632109375
vt 0.17763515625 0.80475859375
vt 0.1816125 0.81164765625
vt 0.17890625000000002 0.81321015625
vt 0.578125 0.6339960388628796
vt 0.5703125 0.6350377067725141
vt 0.5703125 0.625
vt 0.578125 0.6260412638545825
vt 0.07414765625 0.8306781249999999
vt 0.07336640624999999 0.83359375
vt 0.06512421874999999 0.82883515625
vt 0.06725859374999998 0.82670078125
vt 0.44133491046832546 0.4296875
vt 0.44029364661374293 0.421875
vt 0.45033135338625707 0.421875
vt 0.44928968547662246 0.4296875
vt 0.08899140624999999 0.82670078125
vt 0.09112578125000001 0.82883515625
vt 0.08288359375000001 0.83359375
vt 0.08210234375 0.8306781249999999
vt 0.015625 0.40729140625000004
vt 0.0234375 0.40625
vt 0.0234375 0.41628750000000003
vt 0.015625 0.41524609375
vt 0.09296874999999999 0.81185703125
vt 0.095884375 0.81107578125
vt 0.095884375 0.82059296875
vt 0.09296874999999999 0.81981171875
vt 0.5703125 0.5322916679096346
vt 0.578125 0.53125
vt 0.578125 0.5412877067725141
vt 0.5703125 0.5402464429179317
vt 0.08210234375 0.8009906250000001
vt 0.08288359375000001 0.798075
vt 0.09112578125000001 0.80283359375
vt 0.08899140624999999 0.80496796875
vt 0.5821025895316746 0.5546875
vt 0.5831438533862571 0.5625
vt 0.5731061466137429 0.5625
vt 0.5741478145233775 0.5546875
vt 0.06725859374999998 0.80496796875
vt 0.06512421874999999 0.80283359375
vt 0.07336640624999999 0.798075
vt 0.07414765625 0.8009906250000001
vt 0.0390625 0.41524609375
vt 0.03125 0.41628750000000003
vt 0.03125 0.40625
vt 0.0390625 0.40729140625000004
vt 0.06328124999999998 0.81981171875
vt 0.06036562500000001 0.82059296875
vt 0.06036562500000001 0.81107578125
vt 0.06328124999999998 0.81185703125
vt 0.4964847655833207 0.8671875
vt 0.49882773441666817 0.8672187437504
vt 0.4986879188013296 0.8777664003733796
vt 0.4963449500013245 0.8777476566229796
vt 0.46456861126602417 0.48712192102516194
vt 0.46222485514660017 0.48713988982207757
vt 0.4620885268135613 0.47659296879622126
vt 0.46443228709939616 0.4765625
vt 0.16008515625000003 0.79921875
vt 0.16008515625000003 0.796875
vt 0.16803984375000003 0.796875
vt 0.16803984375000003 0.79921875
vt 0.4646381363966002 0.5132945773220776
vt 0.4622943863966002 0.5133008273220776
vt 0.46222485514660017 0.48713988982207757
vt 0.4645686051466002 0.4871219210720775
vt 0.49634416880132964 0.8777476503733797
vt 0.4986879188013296 0.8777664003733796
vt 0.4986176063013296 0.9039273378733796
vt 0.49627385630132964 0.9039210878733797
vt 0.08288359375000001 0.83359375
vt 0.08288359375000001 0.8359375
vt 0.07336640624999999 0.8359375
vt 0.07336640624999999 0.83359375
vt 0.17421871525978658 0.513296521866231
vt 0.171875 0.5132823125015951
vt 0.17203383616925602 0.48712176479049063
vt 0.17437766054438403 0.48712347463138195
vt 0.4951726665694627 0.7449343780612472
vt 0.49751641656946266 0.7449531280612471
vt 0.4974468853194627 0.7711140655612472
vt 0.4951031353194627 0.7711078155612472
vt 0.06512421874999999 0.82883515625
vt 0.06309446793267368 0.8300070247076621
vt 0.058335900748927395 0.8217648832221057
vt 0.06036565156625368 0.8205930147644437
vt 0.49531251031946266 0.7343750030612471
vt 0.4976554790694627 0.7344062530612472
vt 0.49751641656946266 0.7449531280612471
vt 0.4951726665694627 0.7449343780612472
vt 0.17437766054438403 0.48712347463138195
vt 0.17203383616925602 0.48712176479049063
vt 0.17198607063635923 0.4765732896828533
vt 0.1743300041268286 0.4765625
vt 0.1465125 0.81164765625
vt 0.14448274551702767 0.8104757941414933
vt 0.14846004551329942 0.8035868074262853
vt 0.15048979999627174 0.804758669534792
vt 0.3171250032120301 0.5132957150464934
vt 0.31478128692128454 0.5132816767597732
vt 0.31493820675630746 0.48712189874495593
vt 0.31728203125 0.4871234375
vt 0.04438864396612455 0.47931116174899824
vt 0.046731612716124554 0.4793299117489982
vt 0.04666208146612455 0.5054908492489982
vt 0.044318331466124544 0.5054845992489982
vt 0.06036562500000001 0.81107578125
vt 0.0583358741826737 0.809903912792338
vt 0.06309444136642 0.8016617713067816
vt 0.06512419218374632 0.8028336397644437
vt 0.044531260631667485 0.4687510468770547
vt 0.046875 0.4687830843290173
vt 0.046731612716124554 0.4793299117489982
vt 0.04438786888555424 0.4793111555462861
vt 0.31728203125 0.4871234375
vt 0.31493820675630746 0.48712189874495593
vt 0.3148896712448774 0.47657342715203266
vt 0.3172335971788327 0.47656324759613045
vt 0.15048984375000002 0.82961640625
vt 0.1484600892670277 0.8307882683585067
vt 0.14448278927075595 0.8238992816432986
vt 0.14651254375372827 0.822727419534792
vt 0.4099520249837096 0.5132960996286291
vt 0.4076082749837096 0.5133023496286291
vt 0.40753874373370963 0.48714141212862905
vt 0.4098817124837096 0.487122662128629
vt 0.12916018940128535 0.47149691544645345
vt 0.13150393940128535 0.4715148841964534
vt 0.13143440815128535 0.4976758216964534
vt 0.12909065815128534 0.4976695716964534
vt 0.5859375 0.40625
vt 0.5859375 0.4140625
vt 0.578125 0.4140625
vt 0.578125 0.40625
vt 0.1292972604844813 0.4609375
vt 0.1316402393391394 0.46096718155703853
vt 0.13150393940128535 0.4715148841964534
vt 0.1291609644838959 0.47149692138875343
vt 0.4098824936836878 0.48712265587694525
vt 0.40753874373370963 0.48714141212862905
vt 0.4073996530990492 0.47659375624959976
vt 0.40974262176568504 0.4765625
vt 0.16803984375000003 0.83515625
vt 0.16803984375000003 0.8375
vt 0.16008515625000003 0.8375
vt 0.16008515625000003 0.83515625
vt 0.21328121039843626 0.5367331862624862
vt 0.2109375 0.5367181964905821
vt 0.21110503999466018 0.5105584843367885
vt 0.2134488636705112 0.5105609746219741
vt 0.28423440321591387 0.4793093691233796
vt 0.28657815321591384 0.4793281191233796
vt 0.28650862196591387 0.5054890566233796
vt 0.28416487196591383 0.5054828066233796
vt 0.6015625 0.9609375
vt 0.6015625 0.96875
vt 0.59375 0.96875
vt 0.59375 0.9609375
vt 0.2843749999999889 0.46875
vt 0.28671796883333633 0.4687812437504
vt 0.28657815321591384 0.4793281191233796
vt 0.2842351844159087 0.4793093753729796
vt 0.2134488575509108 0.5105609746154722
vt 0.21110503999466018 0.5105584843367885
vt 0.21105804534113093 0.5000107972847818
vt 0.21340119760776188 0.5
vt 0.1816125 0.82272734375
vt 0.18364225448297233 0.8238992058585067
vt 0.1796649544867006 0.8307881925737147
vt 0.1776352000037283 0.829616330465208
vt 0.4890000053299861 0.7086082487079394
vt 0.48665628903447744 0.7085942112164529
vt 0.48681320675578554 0.6824336519276615
vt 0.48915703125 0.682435189887435
vt 0.34908242166696113 0.4793094213324782
vt 0.3514261716669611 0.47932739008247816
vt 0.35135664041696113 0.5054883275824782
vt 0.3490128904169611 0.5054820775824782
vt 0.095884375 0.82059296875
vt 0.09791412581732631 0.821764837207662
vt 0.09315555863357997 0.8300069786932184
vt 0.09112580781625368 0.8288351102355563
vt 0.3492195209641217 0.46875
vt 0.3515625 0.46878046905662185
vt 0.3514261716669611 0.47932739008247816
vt 0.3490824155475371 0.47930942128556264
vt 0.48915703125 0.682435189887435
vt 0.48681320675578554 0.6824336519276615
vt 0.4867646609027909 0.6718859615719392
vt 0.48910859359571124 0.671875
vt 0.17763515625 0.80475859375
vt 0.17966491073297233 0.8035867316414933
vt 0.18364221072924408 0.8104757183567013
vt 0.18161245624627176 0.811647580465208
vn -1 -2.220446049250313e-16 0
vn -0.002666151642678502 0.49999822290569645 0.8660223257668151
vn 1 2.220446049250313e-16 0
vn -1 -2.220446049250313e-16 0
vn 0.0026636515006981214 0.8660223315368443 0.4999982262370249
vn 1 2.220446049250313e-16 0
vn -1 -2.220446049250313e-16 0
vn -0.002666151642678412 0.9999964458113931 0
vn 1 2.220446049250313e-16 0
vn -1 -2.220446049250313e-16 0
vn 0.00266365150069864 0.8660223315368443 -0.49999822623702495
vn 1 2.220446049250313e-16 0
vn -1 -2.220446049250313e-16 0
vn -0.0026661516426785092 0.49999822290569745 -0.8660223257668147
vn 1 2.220446049250313e-16 0
vn -1 -2.220446049250313e-16 0
vn 0.0026636515006988274 7.718847304443441e-16 -0.9999964524740491
vn 1 2.220446049250313e-16 0
vn -1 -2.220446049250313e-16 0
vn -0.0026661516426779936 -0.4999982229056959 -0.8660223257668156
vn 1 2.220446049250313e-16 0
vn -1 -2.220446049250313e-16 0
vn 0.0026636515006993977 -0.8660223315368443 -0.4999982262370248
vn 1 2.220446049250313e-16 0
vn -1 -2.220446049250313e-16 0
vn -0.002666151642677968 -0.9999964458113931 0
vn 1 2.220446049250313e-16 0
vn -1 -2.220446049250313e-16 0
vn 0.0026636515006994836 -0.8660223315368443 0.4999982262370247
vn 1 2.220446049250313e-16 0
vn -1 -2.220446049250313e-16 0
vn -0.0026661516426780443 -0.4999982229056961 0.8660223257668154
vn 1 2.220446049250313e-16 0
vn -1 -2.220446049250313e-16 0
vn 0.002663651500698968 5.914494451306691e-19 0.9999964524740491
vn 1 2.220446049250313e-16 0
vn -1.1102230246251556e-16 0.49999999999999956 0.8660254037844392
vn 0.01323710801978789 2.9392284206037654e-18 0.9999123856474988
vn 1.1102230246251562e-16 -0.49999999999999983 0.8660254037844388
vn 0.013237108019787822 -0.8659495275294363 0.4999561928237497
vn 2.220446049250313e-16 -1 0
vn 0.013237108019787966 -0.8659495275294363 -0.4999561928237497
vn 1.1102230246251556e-16 -0.49999999999999956 -0.8660254037844392
vn 0.013237108019787926 7.74167669011321e-16 -0.9999123856474988
vn -1.1102230246251588e-16 0.500000000000001 -0.866025403784438
vn 0.01323710801978737 0.8659495275294363 -0.4999561928237499
vn -2.220446049250313e-16 1 0
vn 0.013237108019787584 0.8659495275294363 0.4999561928237498
vn -0.049322612310634624 -0.9987828992903588 0
vn -0.050856146219620396 0.9838462972770528 0.1716394934912181
vn -1 -2.220446049250313e-16 0
vn 1 2.220446049250313e-16 0
vn 1 2.220446049250313e-16 0
vn -0.04932261231063471 -0.4993914496451822 -0.8649713636509236
vn -0.05085614621962052 0.343278986982439 0.9378556336067929
vn -1 -2.220446049250313e-16 0
vn 1 2.220446049250313e-16 0
vn -0.049322612310635144 0.49939144964518173 -0.8649713636509239
vn -0.050856146219620056 -0.6405673102946177 0.766216140115573
vn -1 -2.220446049250313e-16 0
vn 1 2.220446049250313e-16 0
vn -0.04932261231063507 0.9987828992903588 0
vn -0.050856146219619904 -0.9838462972770528 -0.17163949349121788
vn -1 -2.220446049250313e-16 0
vn 1 2.220446049250313e-16 0
vn -0.049322612310635026 0.4993914496451798 0.864971363650925
vn -0.050856146219620285 -0.3432789869824376 -0.9378556336067935
vn -1 -2.220446049250313e-16 0
vn 1 2.220446049250313e-16 0
vn -0.049322612310634936 -0.4993914496451798 0.864971363650925
vn -0.050856146219620334 0.6405673102946154 -0.766216140115575
vn -1 -2.220446049250313e-16 0
vn -1 -2.220446049250313e-16 0
vn 1 2.220446049250313e-16 0
vn -1 -2.220446049250313e-16 0
vn 1 2.220446049250313e-16 0
vn -1 -2.220446049250313e-16 0
vn 1 2.220446049250313e-16 0
vn -1 -2.220446049250313e-16 0
vn 1 2.220446049250313e-16 0
vn -1 -2.220446049250313e-16 0
vn 1 2.220446049250313e-16 0
vn -1 -2.220446049250313e-16 0
vn 1 2.220446049250313e-16 0
vn -0.04937179909657599 -0.99878025544432 -0.0006532905529283684
vn -0.049375250114754854 0.9987802213884981 -0.0003924783413420868
vn -0.9999124678029953 -2.1563627793599373e-16 -0.013230900654302626
vn -0.009954394006244323 0.9999504534403671 -0.00002654001825984695
vn -0.009954253923235571 -0.9999504520565139 -0.00007912525121411143
vn 0.999996445811393 2.210054843151487e-16 0.0026661516426784693
vn -0.009954394006243851 0.49999821105021247 0.8659692251959972
vn -0.009954253923235252 -0.49990670155062483 -0.8660220566322814
vn 0.9999964458113931 -0.00230895505290094 0.0013330758213392299
vn -0.04937179909657585 -0.4988243615072723 -0.8652957192895556
vn -0.04937525011475527 0.49973000690828623 0.864772805349214
vn -0.9999124678029953 0.011458296081573999 -0.006615450327151324
vn -0.009954394006243131 -0.49995224239015257 0.8659957652142571
vn -0.009954253923236081 0.5000437505058891 -0.8659429313810675
vn 0.9999964458113931 -0.0023089550529009407 -0.0013330758213392297
vn -0.04937179909657677 0.499955893937049 -0.8646424287366273
vn -0.04937525011475428 -0.49905021448021125 0.8651652836905565
vn -0.9999124678029953 0.011458296081574 0.006615450327151322
vn -0.009954394006243351 -0.9999504534403674 0.00002654001825984554
vn -0.009954253923236546 0.9999504520565139 0.00007912525121411564
vn 0.999996445811393 2.2204381573662624e-16 -0.0026661516426784693
vn -0.049371799096576435 0.99878025544432 0.0006532905529283684
vn -0.04937525011475441 -0.9987802213884981 0.0003924783413420868
vn -0.9999124678029953 -2.2202516887292917e-16 0.013230900654302628
vn -0.009954394006243327 -0.499998211050215 -0.8659692251959957
vn -0.009954253923236058 0.4999067015506243 0.8660220566322818
vn 0.9999964458113931 0.0023089550529013943 -0.0013330758213392392
vn -0.049371799096576074 0.4988243615072723 0.8652957192895556
vn -0.04937525011475506 -0.499730006908286 -0.8647728053492142
vn -0.9999124678029953 -0.011458296081574448 0.006615450327151322
vn -0.009954394006243903 0.4999522423901551 -0.8659957652142557
vn -0.00995425392323559 -0.5000437505058891 0.8659429313810675
vn 0.999996445811393 0.0023089550529013948 0.0013330758213392388
vn -0.049371799096576546 -0.499955893937049 0.8646424287366273
vn -0.0493752501147545 0.49905021448021125 -0.8651652836905565
vn -0.9999124678029953 -0.011458296081574447 -0.006615450327151321
usemtl m_b486289d-1bb0-a945-f555-93e2e004edc1
f 124/479/121 126/480/121 122/481/121
f 174/482/122 179/483/122 181/484/122 172/485/122
f 127/486/123 125/487/123 123/488/123
f 126/489/124 128/490/124 122/491/124
f 209/492/125 210/493/125 208/494/125 211/495/125
f 129/496/126 127/497/126 123/498/126
f 128/499/127 130/500/127 122/501/127
f 168/502/128 173/503/128 175/504/128 166/505/128
f 131/506/129 129/507/129 123/508/129
f 130/509/130 132/510/130 122/511/130
f 203/512/131 204/513/131 202/514/131 205/515/131
f 133/516/132 131/517/132 123/518/132
f 132/519/133 134/520/133 122/521/133
f 162/522/134 167/523/134 169/524/134 164/525/134
f 135/526/135 133/527/135 123/528/135
f 134/529/136 136/530/136 122/531/136
f 197/532/137 198/533/137 200/534/137 201/535/137
f 137/536/138 135/537/138 123/538/138
f 136/539/139 138/540/139 122/541/139
f 192/542/140 161/543/140 165/544/140 190/545/140
f 139/546/141 137/547/141 123/548/141
f 138/549/142 140/550/142 122/551/142
f 227/552/143 228/553/143 226/554/143 229/555/143
f 141/556/144 139/557/144 123/558/144
f 140/559/145 142/560/145 122/561/145
f 186/562/146 191/563/146 193/564/146 184/565/146
f 143/566/147 141/567/147 123/568/147
f 142/569/148 144/570/148 122/571/148
f 221/572/149 222/573/149 220/574/149 223/575/149
f 145/576/150 143/577/150 123/578/150
f 144/579/151 146/580/151 122/581/151
f 180/582/152 185/583/152 187/584/152 178/585/152
f 147/586/153 145/587/153 123/588/153
f 146/589/154 124/590/154 122/591/154
f 215/592/155 216/593/155 214/594/155 217/595/155
f 125/596/156 147/597/156 123/598/156
f 149/599/157 148/600/157 126/601/157 124/602/157
f 216/603/158 215/604/158 218/605/158 219/606/158
f 151/607/159 150/608/159 146/609/159 144/610/159
f 222/611/160 221/612/160 224/613/160 225/614/160
f 153/615/161 152/616/161 142/617/161 140/618/161
f 228/619/162 227/620/162 230/621/162 231/622/162
f 155/623/163 154/624/163 138/625/163 136/626/163
f 198/627/164 197/628/164 196/629/164 199/630/164
f 157/631/165 156/632/165 134/633/165 132/634/165
f 204/635/166 203/636/166 206/637/166 207/638/166
f 159/639/167 158/640/167 130/641/167 128/642/167
f 210/643/168 209/644/168 212/645/168 213/646/168
f 136/647/169 160/648/169 161/649/169 155/650/169
f 156/651/170 162/652/170 163/653/170 134/654/170
f 134/655/171 163/656/171 160/657/171 136/658/171
f 137/659/172 165/660/172 164/661/172 135/662/172
f 133/663/173 169/664/173 166/665/173 131/666/173
f 132/667/174 170/668/174 167/669/174 157/670/174
f 158/671/175 168/672/175 171/673/175 130/674/175
f 130/675/176 171/676/176 170/677/176 132/678/176
f 129/679/177 175/680/177 172/681/177 127/682/177
f 128/683/178 176/684/178 173/685/178 159/686/178
f 148/687/179 174/688/179 177/689/179 126/690/179
f 126/691/180 177/692/180 176/693/180 128/694/180
f 125/695/181 181/696/181 178/697/181 147/698/181
f 124/699/182 182/700/182 179/701/182 149/702/182
f 150/703/183 180/704/183 183/705/183 146/706/183
f 146/707/184 183/708/184 182/709/184 124/710/184
f 145/711/185 187/712/185 184/713/185 143/714/185
f 144/715/186 188/716/186 185/717/186 151/718/186
f 152/719/187 186/720/187 189/721/187 142/722/187
f 142/723/188 189/724/188 188/725/188 144/726/188
f 141/727/189 193/728/189 190/729/189 139/730/189
f 140/731/190 194/732/190 191/733/190 153/734/190
f 154/735/191 192/736/191 195/737/191 138/738/191
f 138/739/192 195/740/192 194/741/192 140/742/192
f 157/743/193 167/744/193 162/745/193 156/746/193
f 135/747/194 164/748/194 169/749/194 133/750/194
f 155/751/195 161/752/195 192/753/195 154/754/195
f 139/755/196 190/756/196 165/757/196 137/758/196
f 153/759/197 191/760/197 186/761/197 152/762/197
f 143/763/198 184/764/198 193/765/198 141/766/198
f 151/767/199 185/768/199 180/769/199 150/770/199
f 147/771/200 178/772/200 187/773/200 145/774/200
f 149/775/201 179/776/201 174/777/201 148/778/201
f 127/779/202 172/780/202 181/781/202 125/782/202
f 159/783/203 173/784/203 168/785/203 158/786/203
f 131/787/204 166/788/204 175/789/204 129/790/204
f 160/791/205 196/792/205 197/793/205 161/794/205
f 162/795/206 198/796/206 199/797/206 163/798/206
f 163/799/207 199/800/207 196/801/207 160/802/207
f 164/803/208 200/804/208 198/805/208 162/806/208
f 161/807/209 197/808/209 201/809/209 165/810/209
f 165/811/210 201/812/210 200/813/210 164/814/210
f 166/815/211 202/816/211 204/817/211 168/818/211
f 167/819/212 203/820/212 205/821/212 169/822/212
f 169/823/213 205/824/213 202/825/213 166/826/213
f 170/827/214 206/828/214 203/829/214 167/830/214
f 168/831/215 204/832/215 207/833/215 171/834/215
f 171/835/216 207/836/216 206/837/216 170/838/216
f 172/839/217 208/840/217 210/841/217 174/842/217
f 173/843/218 209/844/218 211/845/218 175/846/218
f 175/847/219 211/848/219 208/849/219 172/850/219
f 176/851/220 212/852/220 209/853/220 173/854/220
f 174/855/221 210/856/221 213/857/221 177/858/221
f 177/859/222 213/860/222 212/861/222 176/862/222
f 178/863/223 214/864/223 216/865/223 180/866/223
f 179/867/224 215/868/224 217/869/224 181/870/224
f 181/871/225 217/872/225 214/873/225 178/874/225
f 182/875/226 218/876/226 215/877/226 179/878/226
f 180/879/227 216/880/227 219/881/227 183/882/227
f 183/883/228 219/884/228 218/885/228 182/886/228
f 184/887/229 220/888/229 222/889/229 186/890/229
f 185/891/230 221/892/230 223/893/230 187/894/230
f 187/895/231 223/896/231 220/897/231 184/898/231
f 188/899/232 224/900/232 221/901/232 185/902/232
f 186/903/233 222/904/233 225/905/233 189/906/233
f 189/907/234 225/908/234 224/909/234 188/910/234
f 190/911/235 226/912/235 228/913/235 192/914/235
f 191/915/236 227/916/236 229/917/236 193/918/236
f 193/919/237 229/920/237 226/921/237 190/922/237
f 194/923/238 230/924/238 227/925/238 191/926/238
f 192/927/239 228/928/239 231/929/239 195/930/239
f 195/931/240 231/932/240 230/933/240 194/934/240
o Arm
v 0.3343749999999954 1.0218750000000016 5.38902314746782e-16
v 0.15937499999999544 1.021875000000001 8.772126480466931e-16
v 0.3343749999999952 1.0550182628834883 -0.05624999999999941
v 0.1593749999999952 1.0550182628834877 -0.05624999999999907
v 0.33437499999999515 1.0781250000000013 -0.03736201288348599
v 0.15937499999999516 1.0781250000000007 -0.03736201288348566
v 0.33437499999999526 1.0781250000000013 0.03736201288348717
v 0.15937499999999527 1.0781250000000007 0.037362012883487505
v 0.3343749999999954 1.0550182628834883 0.05625000000000056
v 0.1593749999999954 1.0550182628834877 0.0562500000000009
v 0.33437499999999565 0.988731737116515 0.0562500000000005
v 0.1593749999999957 0.9887317371165142 0.056250000000000834
v 0.3343749999999957 0.965625000000002 0.03736201288348711
v 0.15937499999999571 0.9656250000000013 0.03736201288348745
v 0.3343749999999956 0.965625000000002 -0.03736201288348611
v 0.1593749999999956 0.9656250000000013 -0.03736201288348577
v 0.3343749999999954 0.9887317371165151 -0.05624999999999946
v 0.15937499999999546 0.9887317371165143 -0.05624999999999913
v 0.3177083333333286 1.0550182628834883 -0.05624999999999938
v 0.3177083333333288 0.988731737116515 -0.05624999999999943
v 0.29466911764705406 1.0550182628834883 -0.056249999999999335
v 0.2946691176470543 0.9887317371165149 -0.056249999999999384
v 0.317708333333329 0.965625000000002 -0.037362012883486076
v 0.29466911764705445 0.9656250000000018 -0.037362012883486034
v 0.3177083333333291 0.9656250000000018 0.037362012883487145
v 0.29466911764705456 0.9656250000000017 0.037362012883487186
v 0.31770833333332904 0.9887317371165149 0.05625000000000053
v 0.2946691176470545 0.9887317371165147 0.05625000000000058
v 0.3177083333333288 1.0550182628834883 0.0562500000000006
v 0.2946691176470543 1.055018262883488 0.05625000000000064
v 0.31770833333332865 1.0781250000000013 0.0373620128834872
v 0.2946691176470541 1.078125000000001 0.03736201288348725
v 0.31770833333332854 1.0781250000000013 -0.037362012883485965
v 0.294669117647054 1.0781250000000013 -0.037362012883485916
vt 0.50366953125 0.709375
vt 0.50078125 0.7070140625
vt 0.5078125 0.70234375
vt 0.5703125 0.92840078125
vt 0.57404296875 0.92840078125
vt 0.57404296875 0.9453125
vt 0.5703125 0.9453125
vt 0.50078125 0.6757984375
vt 0.50366953125 0.6734375
vt 0.5078125 0.68046875
vt 0.50078125 0.7070140625
vt 0.50078125 0.6976734375
vt 0.5078125 0.70234375
vt 0.1047046875 0.49871328125000003
vt 0.1140453125 0.49871328125000003
vt 0.1140453125 0.515625
vt 0.1047046875 0.515625
vt 0.50078125 0.6851390625
vt 0.50078125 0.6757984375
vt 0.5078125 0.68046875
vt 0.50078125 0.6976734375
vt 0.50366953125 0.6953125
vt 0.5078125 0.70234375
vt 0.57439453125 0.98308828125
vt 0.578125 0.98308828125
vt 0.578125 1
vt 0.57439453125 1
vt 0.50366953125 0.6875
vt 0.50078125 0.6851390625
vt 0.5078125 0.68046875
vt 0.50366953125 0.6953125
vt 0.51195546875 0.6953125
vt 0.5078125 0.70234375
vt 0.51929453125 0.47527578125000003
vt 0.52758046875 0.47527578125000003
vt 0.52758046875 0.4921875
vt 0.51929453125 0.4921875
vt 0.51195546875 0.6875
vt 0.50366953125 0.6875
vt 0.5078125 0.68046875
vt 0.51195546875 0.6953125
vt 0.51484375 0.6976734375
vt 0.5078125 0.70234375
vt 0.1171875 0.41277578125000003
vt 0.12091796875 0.41277578125000003
vt 0.12091796875 0.4296875
vt 0.1171875 0.4296875
vt 0.51484375 0.6851390625
vt 0.51195546875 0.6875
vt 0.5078125 0.68046875
vt 0.51484375 0.6976734375
vt 0.51484375 0.7070140625
vt 0.5078125 0.70234375
vt 0.1515796875 0.49871328125000003
vt 0.1609203125 0.49871328125000003
vt 0.1609203125 0.515625
vt 0.1515796875 0.515625
vt 0.51484375 0.6757984375
vt 0.51484375 0.6851390625
vt 0.5078125 0.68046875
vt 0.51484375 0.7070140625
vt 0.51195546875 0.709375
vt 0.5078125 0.70234375
vt 0.57439453125 0.89715078125
vt 0.578125 0.89715078125
vt 0.578125 0.9140625
vt 0.57439453125 0.9140625
vt 0.51195546875 0.6734375
vt 0.51484375 0.6757984375
vt 0.5078125 0.68046875
vt 0.51195546875 0.709375
vt 0.50366953125 0.709375
vt 0.5078125 0.70234375
vt 0.52710703125 0.80340078125
vt 0.53539296875 0.80340078125
vt 0.53539296875 0.8203125
vt 0.52710703125 0.8203125
vt 0.50366953125 0.6734375
vt 0.51195546875 0.6734375
vt 0.5078125 0.68046875
vt 0.53539296875 0.80052109375
vt 0.52710703125 0.80052109375
vt 0.52710703125 0.7984375
vt 0.53539296875 0.7984375
vt 0.53539296875 0.80340078125
vt 0.52710703125 0.80340078125
vt 0.52710703125 0.80052109375
vt 0.53539296875 0.80052109375
vt 0.578125 0.89427109375
vt 0.57439453125 0.89427109375
vt 0.57439453125 0.8921875
vt 0.578125 0.8921875
vt 0.578125 0.89715078125
vt 0.57439453125 0.89715078125
vt 0.57439453125 0.89427109375
vt 0.578125 0.89427109375
vt 0.1609203125 0.49583359375
vt 0.1515796875 0.49583359375
vt 0.1515796875 0.49375
vt 0.1609203125 0.49375
vt 0.1609203125 0.49871328125000003
vt 0.1515796875 0.49871328125000003
vt 0.1515796875 0.49583359375
vt 0.1609203125 0.49583359375
vt 0.12091796875 0.40989609375
vt 0.1171875 0.40989609375
vt 0.1171875 0.4078125
vt 0.12091796875 0.4078125
vt 0.12091796875 0.41277578125000003
vt 0.1171875 0.41277578125000003
vt 0.1171875 0.40989609375
vt 0.12091796875 0.40989609375
vt 0.52758046875 0.47239609375
vt 0.51929453125 0.47239609375
vt 0.51929453125 0.4703125
vt 0.52758046875 0.4703125
vt 0.52758046875 0.47527578125000003
vt 0.51929453125 0.47527578125000003
vt 0.51929453125 0.47239609375
vt 0.52758046875 0.47239609375
vt 0.578125 0.98020859375
vt 0.57439453125 0.98020859375
vt 0.57439453125 0.978125
vt 0.578125 0.978125
vt 0.578125 0.98308828125
vt 0.57439453125 0.98308828125
vt 0.57439453125 0.98020859375
vt 0.578125 0.98020859375
vt 0.1140453125 0.49583359375
vt 0.1047046875 0.49583359375
vt 0.1047046875 0.49375
vt 0.1140453125 0.49375
vt 0.1140453125 0.49871328125000003
vt 0.1047046875 0.49871328125000003
vt 0.1047046875 0.49583359375
vt 0.1140453125 0.49583359375
vt 0.57404296875 0.92552109375
vt 0.5703125 0.92552109375
vt 0.5703125 0.9234375
vt 0.57404296875 0.9234375
vt 0.57404296875 0.92840078125
vt 0.5703125 0.92840078125
vt 0.5703125 0.92552109375
vt 0.57404296875 0.92552109375
vn 1 3.996802888650565e-15 -1.9332019045709208e-15
vn -4.026292430662373e-15 0.6328859753093352 -0.7742450143570521
vn -1 -3.996802888650565e-15 1.9332019045709208e-15
vn 1 3.996802888650565e-15 -1.9332019045709208e-15
vn -3.996802888650562e-15 1 1.010643099614868e-15
vn -1 -3.996802888650565e-15 1.9332019045709208e-15
vn 1 3.996802888650565e-15 -1.9332019045709208e-15
vn -1.0327485579431824e-15 0.6328859753093342 0.7742450143570528
vn -1 -3.996802888650565e-15 1.9332019045709208e-15
vn 1 3.996802888650565e-15 -1.9332019045709208e-15
vn 1.9332019045709247e-15 -1.0106430996148602e-15 1
vn -1 -3.996802888650565e-15 1.9332019045709208e-15
vn 1 3.996802888650565e-15 -1.9332019045709208e-15
vn 4.026292430662372e-15 -0.6328859753093347 0.7742450143570525
vn -1 -3.996802888650565e-15 1.9332019045709208e-15
vn 1 3.996802888650565e-15 -1.9332019045709208e-15
vn 3.996802888650562e-15 -1 -1.010643099614868e-15
vn -1 -3.996802888650565e-15 1.9332019045709208e-15
vn 1 3.996802888650565e-15 -1.9332019045709208e-15
vn 1.0327485579431777e-15 -0.6328859753093334 -0.7742450143570535
vn -1 -3.996802888650565e-15 1.9332019045709208e-15
vn 1 3.996802888650565e-15 -1.9332019045709208e-15
vn -1.933201904570924e-15 8.012824845088422e-16 -1
vn -1 -3.996802888650565e-15 1.9332019045709208e-15
vn -1.933201904570924e-15 8.012824845088421e-16 -1
vn -1.933201904570924e-15 8.012824845088421e-16 -1
vn 1.0327485579431778e-15 -0.6328859753093334 -0.7742450143570534
vn 1.0327485579431777e-15 -0.6328859753093334 -0.7742450143570535
vn 3.996802888650562e-15 -1 -1.010643099614868e-15
vn 3.996802888650562e-15 -1 -1.010643099614868e-15
vn 4.026292430662372e-15 -0.6328859753093348 0.7742450143570525
vn 4.026292430662372e-15 -0.6328859753093348 0.7742450143570525
vn 1.9332019045709247e-15 -1.0106430996148602e-15 1
vn 1.9332019045709247e-15 -1.0106430996148602e-15 1
vn -1.0327485579431824e-15 0.6328859753093342 0.7742450143570527
vn -1.0327485579431824e-15 0.6328859753093342 0.7742450143570527
vn -3.996802888650562e-15 1 1.010643099614868e-15
vn -3.996802888650562e-15 1 1.010643099614868e-15
vn -4.026292430662373e-15 0.6328859753093352 -0.774245014357052
vn -4.026292430662373e-15 0.6328859753093352 -0.774245014357052
usemtl m_b486289d-1bb0-a945-f555-93e2e004edc1
f 234/935/241 236/936/241 232/937/241
f 265/938/242 252/939/242 235/940/242 237/941/242
f 237/942/243 235/943/243 233/944/243
f 236/945/244 238/946/244 232/947/244
f 263/948/245 265/949/245 237/950/245 239/951/245
f 239/952/246 237/953/246 233/954/246
f 238/955/247 240/956/247 232/957/247
f 261/958/248 263/959/248 239/960/248 241/961/248
f 241/962/249 239/963/249 233/964/249
f 240/965/250 242/966/250 232/967/250
f 259/968/251 261/969/251 241/970/251 243/971/251
f 243/972/252 241/973/252 233/974/252
f 242/975/253 244/976/253 232/977/253
f 257/978/254 259/979/254 243/980/254 245/981/254
f 245/982/255 243/983/255 233/984/255
f 244/985/256 246/986/256 232/987/256
f 255/988/257 257/989/257 245/990/257 247/991/257
f 247/992/258 245/993/258 233/994/258
f 246/995/259 248/996/259 232/997/259
f 253/998/260 255/999/260 247/1000/260 249/1001/260
f 249/1002/261 247/1003/261 233/1004/261
f 248/1005/262 234/1006/262 232/1007/262
f 252/1008/263 253/1009/263 249/1010/263 235/1011/263
f 235/1012/264 249/1013/264 233/1014/264
f 251/1015/265 250/1016/265 234/1017/265 248/1018/265
f 253/1019/266 252/1020/266 250/1021/266 251/1022/266
f 254/1023/267 251/1024/267 248/1025/267 246/1026/267
f 255/1027/268 253/1028/268 251/1029/268 254/1030/268
f 256/1031/269 254/1032/269 246/1033/269 244/1034/269
f 257/1035/270 255/1036/270 254/1037/270 256/1038/270
f 258/1039/271 256/1040/271 244/1041/271 242/1042/271
f 259/1043/272 257/1044/272 256/1045/272 258/1046/272
f 260/1047/273 258/1048/273 242/1049/273 240/1050/273
f 261/1051/274 259/1052/274 258/1053/274 260/1054/274
f 262/1055/275 260/1056/275 240/1057/275 238/1058/275
f 263/1059/276 261/1060/276 260/1061/276 262/1062/276
f 264/1063/277 262/1064/277 238/1065/277 236/1066/277
f 265/1067/278 263/1068/278 262/1069/278 264/1070/278
f 250/1071/279 264/1072/279 236/1073/279 234/1074/279
f 252/1075/280 265/1076/280 264/1077/280 250/1078/280
o cylinder
v 0.16875000052683561 1.0187499982877848 0.06250000000000054
v 0.16875000052683561 1.0187499982877835 -0.062499999999999736
v 0.23750000013863137 1.0371715067162224 0.06250000000000032
v 0.23750000013863137 1.037171506716221 -0.06249999999999996
v 0.21907849248660227 1.0690784923687386 0.0625
v 0.21907849248660227 1.0690784923687373 -0.06250000000000029
v 0.1871715060576774 1.0874999986759888 0.06249999999999982
v 0.1871715060576774 1.0874999986759875 -0.06250000000000046
v 0.150328492098398 1.0874999978995805 0.06249999999999983
v 0.150328492098398 1.0874999978995792 -0.06250000000000043
v 0.11842150644588162 1.0690784902475512 0.06250000000000004
v 0.11842150644588162 1.0690784902475499 -0.06250000000000024
v 0.10000000013863138 1.0371715038186264 0.06250000000000037
v 0.10000000013863138 1.037171503818625 -0.0624999999999999
v 0.10000000091503981 1.0003284898593472 0.06250000000000076
v 0.10000000091503981 1.0003284898593459 -0.062499999999999514
v 0.11842150856706896 0.9684215042068307 0.0625000000000011
v 0.11842150856706896 0.9684215042068294 -0.062499999999999195
v 0.15032849499599385 0.9499999978995805 0.06250000000000126
v 0.15032849499599385 0.9499999978995791 -0.062499999999999015
v 0.18717150895527318 0.9499999986759889 0.06250000000000124
v 0.18717150895527318 0.9499999986759876 -0.06249999999999903
v 0.2190784946077896 0.968421506328018 0.06250000000000104
v 0.2190784946077896 0.9684215063280167 -0.06249999999999924
v 0.23750000091503987 1.000328492756943 0.06250000000000071
v 0.23750000091503987 1.0003284927569416 -0.06249999999999957
vt 0.25941640625 0.5640625
vt 0.25542734375 0.56176015625
vt 0.26171875 0.55546875
vt 0.0859375 0.4453125
vt 0.0859375 0.4296875
vt 0.09375 0.4296875
vt 0.09375 0.4453125
vt 0.43511484375 0.61011484375
vt 0.43910390625 0.6078125
vt 0.44140625 0.61640625
vt 0.25542734375 0.56176015625
vt 0.253125 0.55777109375
vt 0.26171875 0.55546875
vt 0.015625 0.4453125
vt 0.015625 0.4296875
vt 0.0234375 0.4296875
vt 0.0234375 0.4453125
vt 0.4328125 0.61410390625
vt 0.43511484375 0.61011484375
vt 0.44140625 0.61640625
vt 0.253125 0.55777109375
vt 0.253125 0.55316640625
vt 0.26171875 0.55546875
vt 0.546875 0.8046875
vt 0.546875 0.7890625
vt 0.5546875 0.7890625
vt 0.5546875 0.8046875
vt 0.4328125 0.61870859375
vt 0.4328125 0.61410390625
vt 0.44140625 0.61640625
vt 0.253125 0.55316640625
vt 0.25542734375 0.54917734375
vt 0.26171875 0.55546875
vt 0.03125 0.4453125
vt 0.03125 0.4296875
vt 0.0390625 0.4296875
vt 0.0390625 0.4453125
vt 0.43511484375 0.62269765625
vt 0.4328125 0.61870859375
vt 0.44140625 0.61640625
vt 0.25542734375 0.54917734375
vt 0.25941640625 0.546875
vt 0.26171875 0.55546875
vt 0.5546875 0.8984375
vt 0.5546875 0.8828125
vt 0.5625 0.8828125
vt 0.5625 0.8984375
vt 0.43910390625 0.625
vt 0.43511484375 0.62269765625
vt 0.44140625 0.61640625
vt 0.25941640625 0.546875
vt 0.26402109375 0.546875
vt 0.26171875 0.55546875
vt 0.4453125 0.453125
vt 0.4453125 0.4375
vt 0.453125 0.4375
vt 0.453125 0.453125
vt 0.44370859375 0.625
vt 0.43910390625 0.625
vt 0.44140625 0.61640625
vt 0.26402109375 0.546875
vt 0.26801015625 0.54917734375
vt 0.26171875 0.55546875
vt 0.5546875 0.921875
vt 0.5546875 0.90625
vt 0.5625 0.90625
vt 0.5625 0.921875
vt 0.44769765625 0.62269765625
vt 0.44370859375 0.625
vt 0.44140625 0.61640625
vt 0.26801015625 0.54917734375
vt 0.2703125 0.55316640625
vt 0.26171875 0.55546875
vt 0.4609375 0.453125
vt 0.4609375 0.4375
vt 0.46875 0.4375
vt 0.46875 0.453125
vt 0.45 0.61870859375
vt 0.44769765625 0.62269765625
vt 0.44140625 0.61640625
vt 0.2703125 0.55316640625
vt 0.2703125 0.55777109375
vt 0.26171875 0.55546875
vt 0.3515625 0.453125
vt 0.3515625 0.4375
vt 0.359375 0.4375
vt 0.359375 0.453125
vt 0.45 0.61410390625
vt 0.45 0.61870859375
vt 0.44140625 0.61640625
vt 0.2703125 0.55777109375
vt 0.26801015625 0.56176015625
vt 0.26171875 0.55546875
vt 0.546875 0.4609375
vt 0.546875 0.4453125
vt 0.5546875 0.4453125
vt 0.5546875 0.4609375
vt 0.44769765625 0.61011484375
vt 0.45 0.61410390625
vt 0.44140625 0.61640625
vt 0.26801015625 0.56176015625
vt 0.26402109375 0.5640625
vt 0.26171875 0.55546875
vt 0.0703125 0.4453125
vt 0.0703125 0.4296875
vt 0.078125 0.4296875
vt 0.078125 0.4453125
vt 0.44370859375 0.6078125
vt 0.44769765625 0.61011484375
vt 0.44140625 0.61640625
vt 0.26402109375 0.5640625
vt 0.25941640625 0.5640625
vt 0.26171875 0.55546875
vt 0.3671875 0.453125
vt 0.3671875 0.4375
vt 0.375 0.4375
vt 0.375 0.453125
vt 0.43910390625 0.6078125
vt 0.44370859375 0.6078125
vt 0.44140625 0.61640625
vn 4.4408899109558276e-16 1.038058528960369e-14 1
vn 0.8660253932477264 0.5000000182501205 -5.3290707127131075e-15
vn -4.4408899109558276e-16 -1.038058528960369e-14 -1
vn 4.4408899109558276e-16 1.038058528960369e-14 1
vn 0.4999999817498789 0.8660254143211509 -9.230221006942869e-15
vn -4.4408899109558276e-16 -1.038058528960369e-14 -1
vn 4.4408899109558276e-16 1.038058528960369e-14 1
vn -2.1073424449902227e-8 0.9999999999999998 -1.0658141036401495e-14
vn -4.4408899109558276e-16 -1.038058528960369e-14 -1
vn 4.4408899109558276e-16 1.038058528960369e-14 1
vn -0.5000000182501207 0.8660253932477264 -9.230220782339336e-15
vn -4.4408899109558276e-16 -1.038058528960369e-14 -1
vn 4.4408899109558276e-16 1.038058528960369e-14 1
vn -0.8660254143211507 0.49999998174987914 -5.329070323688387e-15
vn -4.4408899109558276e-16 -1.038058528960369e-14 -1
vn 4.4408899109558276e-16 1.038058528960369e-14 1
vn -0.9999999999999998 -2.1073423363488276e-8 2.246035183278565e-22
vn -4.4408899109558276e-16 -1.038058528960369e-14 -1
vn 4.4408899109558276e-16 1.038058528960369e-14 1
vn -0.8660253932477265 -0.5000000182501204 5.329070712713107e-15
vn -4.4408899109558276e-16 -1.038058528960369e-14 -1
vn 4.4408899109558276e-16 1.038058528960369e-14 1
vn -0.4999999817498787 -0.866025414321151 9.23022100694287e-15
vn -4.4408899109558276e-16 -1.038058528960369e-14 -1
vn 4.4408899109558276e-16 1.038058528960369e-14 1
vn 2.1073424449902227e-8 -0.9999999999999998 1.0658141036401495e-14
vn -4.4408899109558276e-16 -1.038058528960369e-14 -1
vn 4.4408899109558276e-16 1.038058528960369e-14 1
vn 0.5000000182501203 -0.8660253932477265 9.230220782339339e-15
vn -4.4408899109558276e-16 -1.038058528960369e-14 -1
vn 4.4408899109558276e-16 1.038058528960369e-14 1
vn 0.8660254143211509 -0.49999998174987875 5.3290703236883834e-15
vn -4.4408899109558276e-16 -1.038058528960369e-14 -1
vn 4.4408899109558276e-16 1.038058528960369e-14 1
vn 0.9999999999999998 2.107342411683532e-8 -2.2460352635713555e-22
vn -4.4408899109558276e-16 -1.038058528960369e-14 -1
usemtl m_b486289d-1bb0-a945-f555-93e2e004edc1
f 268/1079/281 270/1080/281 266/1081/281
f 271/1082/282 270/1083/282 268/1084/282 269/1085/282
f 271/1086/283 269/1087/283 267/1088/283
f 270/1089/284 272/1090/284 266/1091/284
f 273/1092/285 272/1093/285 270/1094/285 271/1095/285
f 273/1096/286 271/1097/286 267/1098/286
f 272/1099/287 274/1100/287 266/1101/287
f 275/1102/288 274/1103/288 272/1104/288 273/1105/288
f 275/1106/289 273/1107/289 267/1108/289
f 274/1109/290 276/1110/290 266/1111/290
f 277/1112/291 276/1113/291 274/1114/291 275/1115/291
f 277/1116/292 275/1117/292 267/1118/292
f 276/1119/293 278/1120/293 266/1121/293
f 279/1122/294 278/1123/294 276/1124/294 277/1125/294
f 279/1126/295 277/1127/295 267/1128/295
f 278/1129/296 280/1130/296 266/1131/296
f 281/1132/297 280/1133/297 278/1134/297 279/1135/297
f 281/1136/298 279/1137/298 267/1138/298
f 280/1139/299 282/1140/299 266/1141/299
f 283/1142/300 282/1143/300 280/1144/300 281/1145/300
f 283/1146/301 281/1147/301 267/1148/301
f 282/1149/302 284/1150/302 266/1151/302
f 285/1152/303 284/1153/303 282/1154/303 283/1155/303
f 285/1156/304 283/1157/304 267/1158/304
f 284/1159/305 286/1160/305 266/1161/305
f 287/1162/306 286/1163/306 284/1164/306 285/1165/306
f 287/1166/307 285/1167/307 267/1168/307
f 286/1169/308 288/1170/308 266/1171/308
f 289/1172/309 288/1173/309 286/1174/309 287/1175/309
f 289/1176/310 287/1177/310 267/1178/310
f 288/1179/311 290/1180/311 266/1181/311
f 291/1182/312 290/1183/312 288/1184/312 289/1185/312
f 291/1186/313 289/1187/313 267/1188/313
f 290/1189/314 268/1190/314 266/1191/314
f 269/1192/315 268/1193/315 290/1194/315 291/1195/315
f 269/1196/316 291/1197/316 267/1198/316