# Made in Blockbench 5.1.5
mtllib YellowJacketHead.mtl

o sphere
v 0 1.10625 -0.1375
v 0.036805 1.428595 0.1456275
v 0.045895 1.377145 0.16982875
v 0.045895 1.347855 0.16982875
v 0.036805 1.215155 0.1300025
v 0.020425 1.157925 0.011363749999999999
v 0.103125 1.459845 0.129314375
v 0.128595 1.377145 0.1300025
v 0.128595 1.347855 0.1300025
v 0.103125 1.215155 0.09806437500000001
v 0.05723 1.157925 -0.006360625000000002
v 0.14902 1.50672 0.071764375
v 0.185825 1.377145 0.058238750000000006
v 0.185825 1.347855 0.058238750000000006
v 0.14902 1.215155 0.040514375000000005
v 0.0827 1.157925 -0.03829875
v 0.177899375 1.553595 0
v 0.20625 1.377145 -0.03125
v 0.20625 1.347855 -0.03125
v 0.165399375 1.215155 -0.03125
v 0.09179 1.157925 -0.078125
v 0.14902 1.50672 -0.07176437499999999
v 0.185825 1.377145 -0.12073875
v 0.185825 1.347855 -0.12073875
v 0.14902 1.215155 -0.103014375
v 0.0827 1.157925 -0.11795125000000001
v 0.103125 1.459845 -0.14493937499999998
v 0.128595 1.377145 -0.1925025
v 0.128595 1.347855 -0.1925025
v 0.103125 1.215155 -0.160564375
v 0.05723 1.157925 -0.149889375
v 0.036805 1.397345 -0.1925025
v 0.045895 1.314645 -0.23232875
v 0.045895 1.285355 -0.23232875
v 0.036805 1.215155 -0.2237525
v 0.020425 1.157925 -0.19886375
v -0.036805 1.397345 -0.1925025
v -0.045895 1.314645 -0.23232875
v -0.045895 1.285355 -0.23232875
v -0.036805 1.215155 -0.2237525
v -0.020425 1.157925 -0.19886375
v -0.103125 1.459845 -0.14493937499999998
v -0.128595 1.377145 -0.1925025
v -0.128595 1.347855 -0.1925025
v -0.103125 1.215155 -0.160564375
v -0.05723 1.157925 -0.149889375
v -0.14902 1.50672 -0.07176437499999999
v -0.185825 1.377145 -0.12073875
v -0.185825 1.347855 -0.12073875
v -0.14902 1.215155 -0.103014375
v -0.0827 1.157925 -0.11795125000000001
v -0.177899375 1.553595 0
v -0.20625 1.377145 -0.03125
v -0.20625 1.347855 -0.03125
v -0.165399375 1.215155 -0.03125
v -0.09179 1.157925 -0.078125
v -0.14902 1.50672 0.071764375
v -0.185825 1.377145 0.058238750000000006
v -0.185825 1.347855 0.058238750000000006
v -0.14902 1.215155 0.040514375000000005
v -0.0827 1.157925 -0.03829875
v -0.103125 1.459845 0.129314375
v -0.128595 1.377145 0.1300025
v -0.128595 1.347855 0.1300025
v -0.103125 1.215155 0.09806437500000001
v -0.05723 1.157925 -0.006360625000000002
v -0.036805 1.428595 0.1456275
v -0.045895 1.377145 0.16982875
v -0.045895 1.347855 0.16982875
v -0.036805 1.215155 0.1300025
v -0.020425 1.157925 0.011363749999999999
v -0.04047125 1.285355 -0.221066875
v -0.12317125 1.347855 -0.181240625
v -0.04047125 1.314645 -0.221066875
v -0.12317125 1.377145 -0.181240625
v 0.12317125 1.347855 -0.181240625
v 0.04047125 1.285355 -0.221066875
v 0.12317125 1.377145 -0.181240625
v 0.04047125 1.314645 -0.221066875
vt 0.36388671875 0.18689265624999996
vt 0.359375 0.17322359374999996
vt 0.375 0.16691218750000003
vt 0.375 0.1875
vt 0.828125 0.15625
vt 0.828125 0.140625
vt 0.84375 0.140625
vt 0.84375 0.15625
vt 0.148928125 0.28125
vt 0.1512 0.25
vt 0.169603125 0.25
vt 0.171875 0.28125
vt 0.38460140625 0.7128628125
vt 0.37985328125 0.68001875
vt 0.3891621875 0.67581875
vt 0.40137625 0.70529421875
vt 0.3891621875 0.67581875
vt 0.37985328125 0.68001875
vt 0.37474703125 0.64062515625
vt 0.1138421875 0.33237031250000004
vt 0.117678125 0.31107968750000003
vt 0.140625 0.31107968750000003
vt 0.1322453125 0.34375
vt 0.117678125 0.31107968750000003
vt 0.117678125 0.3037578125
vt 0.140625 0.3037578125
vt 0.140625 0.31107968750000003
vt 0.727053125 0.28125
vt 0.729325 0.25
vt 0.747728125 0.25
vt 0.75 0.28125
vt 0.49841359375 0.922559375
vt 0.51167140625 0.8935390625
vt 0.52188390625 0.8935390625
vt 0.51681671875 0.922559375
vt 0.52188390625 0.8935390625
vt 0.51167140625 0.8935390625
vt 0.52838234375 0.859375
vt 0.002959375 0.3800140625
vt 0.008303125 0.3465953125
vt 0.03125 0.3465953125
vt 0.02205625 0.390625
vt 0.008303125 0.3465953125
vt 0.008303125 0.33927343750000005
vt 0.03125 0.33927343750000005
vt 0.03125 0.3465953125
vt 0.727053125 1
vt 0.729325 0.96875
vt 0.747728125 0.96875
vt 0.75 1
vt 0.78123296875 0.894214375
vt 0.78123296875 0.86475546875
vt 0.78991328125 0.859375
vt 0.796875 0.88451890625
vt 0.53125 0.88946828125
vt 0.52188390625 0.8935390625
vt 0.52838234375 0.859375
vt 0.5625 0.53125
vt 0.5685390625 0.4862984375
vt 0.5914859375 0.4862984375
vt 0.581596875 0.5203359375000001
vt 0.5685390625 0.4862984375
vt 0.5685390625 0.4789765625
vt 0.5914859375 0.4789765625
vt 0.5914859375 0.4862984375
vt 0.09375 0.28125
vt 0.096021875 0.25
vt 0.114425 0.25
vt 0.116696875 0.28125
vt 0.5625 0.74713125
vt 0.5780203125 0.7261593749999999
vt 0.5882328125 0.7261593749999999
vt 0.580903125 0.74713125
vt 0.5882328125 0.7261593749999999
vt 0.5780203125 0.7261593749999999
vt 0.5975984375 0.703125
vt 0.671875 0.796875
vt 0.671875 0.7610425000000001
vt 0.69469 0.7585859375
vt 0.69195859375 0.78297484375
vt 0.765625 0.15625
vt 0.765625 0.140625
vt 0.78125 0.140625
vt 0.78125 0.15625
vt 0.5 0.44179296874999996
vt 0.502271875 0.40715703125
vt 0.520675 0.40715703125
vt 0.522946875 0.44179296874999996
vt 0.5625 0.443016875
vt 0.5754503125 0.424965625
vt 0.58566125 0.424790625
vt 0.58090046875 0.44270140625
vt 0.58566125 0.424790625
vt 0.5754509375 0.42500046874999997
vt 0.59178 0.40625
vt 0.41937796875 0.78125
vt 0.4130778125 0.757380625
vt 0.43381921875 0.7389281249999999
vt 0.4360840625 0.76180515625
vt 0.421875 0.234375
vt 0.40625 0.23025406250000002
vt 0.40625 0.20249249999999996
vt 0.421875 0.20661359375
vt 0.52294703125 0.44179421875
vt 0.520675 0.40715703125
vt 0.54355859375 0.40625
vt 0.54409234375 0.4239365625
vt 0.5809003125 0.44270156250000003
vt 0.58566125 0.424790625
vt 0.600976875 0.424790625
vt 0.6034909375 0.44043750000000004
vt 0.600976875 0.424790625
vt 0.58566125 0.424790625
vt 0.59178 0.40625
vt 0.43609109375 0.7618765625
vt 0.43381921875 0.7389281249999999
vt 0.45676609375 0.7389281249999999
vt 0.45449421875 0.7618765625
vt 0.5979015625 0.25
vt 0.5979015625 0.24267812499999997
vt 0.6208484375 0.24267812499999997
vt 0.6208484375 0.25
vt 0.5979015625 0.24267812499999997
vt 0.6001734375 0.22499843750000004
vt 0.6185765625 0.22499843750000004
vt 0.6208484375 0.24267812499999997
vt 0.3189234375 0.171875
vt 0.32301875 0.15625
vt 0.33323125 0.15625
vt 0.3373265625 0.171875
vt 0.9033859375 0.89317640625
vt 0.8934890625 0.89569609375
vt 0.8934890625 0.875
vt 0.454494375 0.76187609375
vt 0.45676609375 0.7389281249999999
vt 0.4775471875 0.75733578125
vt 0.47136953125 0.78114078125
vt 0.78473859375 0.671875
vt 0.7806175 0.65625
vt 0.8083790625 0.65625
vt 0.8125 0.671875
vt 0.54899171875 0.9248003124999999
vt 0.54882453125 0.9069753125
vt 0.57172609375 0.9069753125
vt 0.57082765625 0.9414190625
vt 0.2401765625 0.2815578125
vt 0.242690625 0.265625
vt 0.25800625 0.265625
vt 0.2627671875 0.28321406250000003
vt 0.8179146875 0.534165625
vt 0.8025990625 0.534165625
vt 0.8117959375 0.515625
vt 0.78332671875 0.43480062500000005
vt 0.7587884375 0.4375
vt 0.76126 0.421875
vt 0.796875 0.421875
vt 0.796875 0.15625
vt 0.796875 0.140625
vt 0.8125 0.140625
vt 0.8125 0.15625
vt 0.5708209375 0.94167390625
vt 0.57172609375 0.9069753125
vt 0.59011484375 0.90625
vt 0.59375 0.94076953125
vt 0.26284828125 0.2835140625
vt 0.25800625 0.265625
vt 0.26821796875 0.26575375
vt 0.28125 0.2837459375
vt 0.828125 0.53437546875
vt 0.8179146875 0.534165625
vt 0.8117959375 0.515625
vt 0.75315484375 0.8385896875
vt 0.71769765625 0.84375
vt 0.72078828125 0.828125
vt 0.765625 0.828125
vt 0.046875 0.390625
vt 0.046875 0.375
vt 0.0625 0.375
vt 0.0625 0.390625
vt 0.727053125 0.90625
vt 0.729325 0.875
vt 0.747728125 0.875
vt 0.75 0.90625
vt 0.590971875 0.68463125
vt 0.5836421875 0.6636593749999999
vt 0.5938546875 0.6636593749999999
vt 0.609375 0.68463125
vt 0.5938546875 0.6636593749999999
vt 0.5836421875 0.6636593749999999
vt 0.5742765625 0.640625
vt 0.43106875 0.40625
vt 0.421875 0.3618359375
vt 0.444821875 0.3618359375
vt 0.450165625 0.394965625
vt 0.421875 0.3618359375
vt 0.421875 0.35451406249999995
vt 0.444821875 0.35451406249999995
vt 0.444821875 0.3618359375
vt 0.671875 0.296875
vt 0.674146875 0.265625
vt 0.69255 0.265625
vt 0.694821875 0.296875
vt 0.13451890625 0.234375
vt 0.109375 0.22741328125000004
vt 0.11475546875 0.21875
vt 0.144214375 0.21875
vt 0.14999109375 0.45603906250000004
vt 0.140625 0.45196828125
vt 0.14349265625 0.421875
vt 0.3833796875 0.359375
vt 0.375 0.32658437500000004
vt 0.397946875 0.32658437500000004
vt 0.4017828125 0.347796875
vt 0.375 0.32658437500000004
vt 0.375 0.3192625
vt 0.397946875 0.3192625
vt 0.397946875 0.32658437500000004
vt 0.71875 0.328125
vt 0.721021875 0.296875
vt 0.739425 0.296875
vt 0.741696875 0.328125
vt 0.15505828125 0.48505937499999996
vt 0.14999109375 0.45603906250000004
vt 0.16020359375 0.45603906250000004
vt 0.17346140625 0.48505937499999996
vt 0.16020359375 0.45603906250000004
vt 0.14999109375 0.45603906250000004
vt 0.14349265625 0.421875
vt 0.3337875 0.265625
vt 0.328125 0.24474531249999998
vt 0.351071875 0.24474531249999998
vt 0.35049375 0.25838125
vt 0.328125 0.24474531249999998
vt 0.328125 0.23742343749999995
vt 0.351071875 0.23742343749999995
vt 0.351071875 0.24474531249999998
vt 0.71875 0.8125
vt 0.721021875 0.78125
vt 0.739425 0.78125
vt 0.741696875 0.8125
vt 0.34862375 0.70571640625
vt 0.36025046875 0.6760042187499999
vt 0.36964078125 0.68001875
vt 0.36554546875 0.712950625
vt 0.36964078125 0.68001875
vt 0.36033203125 0.67581875
vt 0.37474703125 0.64062515625
vt 0.8032984375 0.25
vt 0.8010265625 0.234375
vt 0.8239734375 0.234375
vt 0.8217015625 0.25
vt 0.265625 0.8125
vt 0.265625 0.796875
vt 0.28125 0.796875
vt 0.28125 0.8125
vt 0.6291515625 0.296875
vt 0.6314234375 0.265625
vt 0.6498265625 0.265625
vt 0.6520984375 0.296875
vt 0.36554546875 0.71295
vt 0.36964078125 0.68001875
vt 0.37985328125 0.68001875
vt 0.38394859375 0.71295
vt 0.37985328125 0.68001875
vt 0.36964078125 0.68001875
vt 0.37474703125 0.640625
vt 0.453125 0.140625
vt 0.453125 0.15625
vt 0.4375 0.15625
vt 0.4375 0.140625
vt 0.09375 0.203125
vt 0.09375 0.171875
vt 0.109375 0.171875
vt 0.109375 0.203125
vt 0.625 0.671875
vt 0.625 0.65625
vt 0.640625 0.65625
vt 0.640625 0.671875
vt 0.046875 0.171875
vt 0.046875 0.203125
vt 0.03125 0.203125
vt 0.03125 0.171875
vt 0.859375 0.25
vt 0.859375 0.265625
vt 0.84375 0.265625
vt 0.84375 0.25
vt 0.140625 0.171875
vt 0.140625 0.203125
vt 0.125 0.203125
vt 0.125 0.171875
vt 0.734375 0.15625
vt 0.734375 0.140625
vt 0.75 0.140625
vt 0.75 0.15625
vt 0.0625 0.203125
vt 0.0625 0.171875
vt 0.078125 0.171875
vt 0.078125 0.203125
vn 0.3880065008042039 0.4475413798642301 0.8057032137474063
vn 0.4338839957965107 0 0.9009687442923054
vn 0.41557229788935884 -0.2874551820991636 0.8629421669563349
vn 0.19466884673708015 -0.8936997721848796 0.4042335430252535
vn 0.14747241331660293 -0.9404655921315898 0.30622925615811963
vn 0.7591996196455877 0.2388565424787654 0.6054448692036996
vn 0.7818297878898387 0 0.6234919267866503
vn 0.7488307175994523 -0.28745636386249906 0.5971778589787468
vn 0.3854626983161535 -0.8700141427850427 0.3073986004536092
vn 0.29564148364943516 -0.925748104233207 0.23576802296788277
vn 0.9449922030694272 0.2459050804816651 0.21568594653174897
vn 0.9749284397471581 0 0.2225186225289291
vn 0.9337812181059032 -0.2874552963320247 0.21312458638862744
vn 0.5570821087801294 -0.8206659500391618 0.12714921361693293
vn 0.43820209912906016 -0.8932948818132118 0.10001587096659006
vn 0.956715291300626 0.19239035177319216 -0.2183616356783985
vn 0.9749284397471581 0 -0.2225186225289291
vn 0.9337807558036361 -0.28745687631914785 -0.21312448087356933
vn 0.6651219515765027 -0.7311408926761379 -0.15180838115138676
vn 0.5468139632816882 -0.8278997840320926 -0.12480559746977296
vn 0.7108963082352053 0.41620134745186 -0.5669240489843522
vn 0.7818297878898387 0 -0.6234919267866503
vn 0.7488309456848006 -0.2874553918170007 -0.5971780408723533
vn 0.6274817033598005 -0.5965423312534739 -0.5004037959202089
vn 0.5486071258076477 -0.7124755444959877 -0.43750293714238986
vn 0.03281201315518606 0.5058609110983836 -0.8619907832543324
vn 0.4338839957965107 0 -0.9009687442923054
vn 0.6594943991377756 -0.2931749089191317 -0.6921817754652048
vn 0.6385687854015735 -0.6016073076952464 -0.47989431507201286
vn 0.5570280884925978 -0.7172733130877543 -0.41861522065304674
vn 0 0.4338839957965107 -0.9009687442923053
vn 0 0 -1
vn 0 -0.12126718566681226 -0.9926199019163634
vn 0 -0.39880887110375424 -0.9170340693392744
vn 0 -0.7649095818851321 -0.6441376650532962
vn -0.09693301637861965 0.44046938482146025 -0.8925193058812492
vn -0.4338839957965107 0 -0.9009687442923054
vn -0.6791572383757731 -0.1750264226618334 -0.7128191895088084
vn -0.7178483517868075 -0.4400697689732271 -0.5394741349432931
vn -0.5570280884925979 -0.7172733130877543 -0.41861522065304685
vn -0.670597931934189 0.5141024140456512 -0.5347869870874035
vn -0.7818297878898387 0 -0.6234919267866503
vn -0.7488307175994523 -0.28745636386249906 -0.5971778589787468
vn -0.627481927836921 -0.5965419449679972 -0.5004039749361111
vn -0.5486071258076476 -0.7124755444959877 -0.43750293714238975
vn -0.9169976581538813 0.339573693621988 -0.20929644416525015
vn -0.9749284397471581 0 -0.2225186225289291
vn -0.9337812181059032 -0.2874552963320247 -0.21312458638862744
vn -0.6651206623108832 -0.7311421266229087 -0.15180808688756597
vn -0.5468139632816882 -0.8278997840320926 -0.12480559746977296
vn -0.9682969839159075 0.1164376128501501 0.22100505255110173
vn -0.9749284397471581 0 0.2225186225289291
vn -0.9337807558036361 -0.28745687631914785 0.21312448087356933
vn -0.5570831239639216 -0.8206652250146926 0.12714944532392716
vn -0.43820209912906016 -0.8932948818132118 0.10001587096659006
vn -0.7723697251079127 0.15509156573783264 0.6159477363979147
vn -0.7818297878898387 0 0.6234919267866503
vn -0.7488309456848006 -0.2874553918170007 0.5971780408723533
vn -0.38546257477274526 -0.8700142323322013 0.3073985019302736
vn -0.2956414836494352 -0.925748104233207 0.2357680229678828
vn -0.42962683103977656 0.13973992041960062 0.8921286570287063
vn -0.4338839957965107 0 0.9009687442923054
vn -0.4155722271696502 -0.2874557251838899 0.8629420201057894
vn -0.19466891820820462 -0.8936996894882264 0.404233691436396
vn -0.14747241331660293 -0.9404655921315898 0.30622925615811963
vn 0 0.42564562870577133 0.9048899373756284
vn 0 0 1
vn 0 -0.28745548766386747 0.9577939980037088
vn 0 -0.9006820181849602 0.43447888569902565
vn 0 -0.9447008017046047 0.327933522621091
vn -0.9009589589551914 0 0.4339043146574807
vn 0.5070771901265986 0.8265798879787598 -0.24420977057098753
vn 0.9009589589551915 0 -0.4339043146574802
vn -0.5070771901265988 -0.8265798879787599 0.24420977057098703
vn -0.9009589589551915 0 -0.4339043146574802
vn -0.5070771901265988 0.8265798879787599 -0.24420977057098703
vn 0.9009589589551914 0 0.4339043146574807
vn 0.5070771901265986 -0.8265798879787598 0.24420977057098753
usemtl m_cf5ac213-316c-e8d1-eaa3-0ce92fd50427
f 2/1/1 3/2/1 8/3/1 7/4/1
f 3/5/2 4/6/2 9/7/2 8/8/2
f 4/9/3 5/10/3 10/11/3 9/12/3
f 5/13/4 6/14/4 11/15/4 10/16/4
f 11/17/5 6/18/5 1/19/5
f 7/20/6 8/21/6 13/22/6 12/23/6
f 8/24/7 9/25/7 14/26/7 13/27/7
f 9/28/8 10/29/8 15/30/8 14/31/8
f 10/32/9 11/33/9 16/34/9 15/35/9
f 16/36/10 11/37/10 1/38/10
f 12/39/11 13/40/11 18/41/11 17/42/11
f 13/43/12 14/44/12 19/45/12 18/46/12
f 14/47/13 15/48/13 20/49/13 19/50/13
f 15/51/14 16/52/14 21/53/14 20/54/14
f 21/55/15 16/56/15 1/57/15
f 17/58/16 18/59/16 23/60/16 22/61/16
f 18/62/17 19/63/17 24/64/17 23/65/17
f 19/66/18 20/67/18 25/68/18 24/69/18
f 20/70/19 21/71/19 26/72/19 25/73/19
f 26/74/20 21/75/20 1/76/20
f 22/77/21 23/78/21 28/79/21 27/80/21
f 23/81/22 24/82/22 29/83/22 28/84/22
f 24/85/23 25/86/23 30/87/23 29/88/23
f 25/89/24 26/90/24 31/91/24 30/92/24
f 31/93/25 26/94/25 1/95/25
f 27/96/26 28/97/26 33/98/26 32/99/26
f 78/100/27 76/101/27 77/102/27 79/103/27
f 29/104/28 30/105/28 35/106/28 34/107/28
f 30/108/29 31/109/29 36/110/29 35/111/29
f 36/112/30 31/113/30 1/114/30
f 32/115/31 33/116/31 38/117/31 37/118/31
f 33/119/32 34/120/32 39/121/32 38/122/32
f 34/123/33 35/124/33 40/125/33 39/126/33
f 35/127/34 36/128/34 41/129/34 40/130/34
f 41/131/35 36/132/35 1/133/35
f 37/134/36 38/135/36 43/136/36 42/137/36
f 74/138/37 72/139/37 73/140/37 75/141/37
f 39/142/38 40/143/38 45/144/38 44/145/38
f 40/146/39 41/147/39 46/148/39 45/149/39
f 46/150/40 41/151/40 1/152/40
f 42/153/41 43/154/41 48/155/41 47/156/41
f 43/157/42 44/158/42 49/159/42 48/160/42
f 44/161/43 45/162/43 50/163/43 49/164/43
f 45/165/44 46/166/44 51/167/44 50/168/44
f 51/169/45 46/170/45 1/171/45
f 47/172/46 48/173/46 53/174/46 52/175/46
f 48/176/47 49/177/47 54/178/47 53/179/47
f 49/180/48 50/181/48 55/182/48 54/183/48
f 50/184/49 51/185/49 56/186/49 55/187/49
f 56/188/50 51/189/50 1/190/50
f 52/191/51 53/192/51 58/193/51 57/194/51
f 53/195/52 54/196/52 59/197/52 58/198/52
f 54/199/53 55/200/53 60/201/53 59/202/53
f 55/203/54 56/204/54 61/205/54 60/206/54
f 61/207/55 56/208/55 1/209/55
f 57/210/56 58/211/56 63/212/56 62/213/56
f 58/214/57 59/215/57 64/216/57 63/217/57
f 59/218/58 60/219/58 65/220/58 64/221/58
f 60/222/59 61/223/59 66/224/59 65/225/59
f 66/226/60 61/227/60 1/228/60
f 62/229/61 63/230/61 68/231/61 67/232/61
f 63/233/62 64/234/62 69/235/62 68/236/62
f 64/237/63 65/238/63 70/239/63 69/240/63
f 65/241/64 66/242/64 71/243/64 70/244/64
f 71/245/65 66/246/65 1/247/65
f 67/248/66 68/249/66 3/250/66 2/251/66
f 68/252/67 69/253/67 4/254/67 3/255/67
f 69/256/68 70/257/68 5/258/68 4/259/68
f 70/260/69 71/261/69 6/262/69 5/263/69
f 6/264/70 71/265/70 1/266/70
f 72/267/71 74/268/71 38/269/71 39/270/71
f 73/271/72 72/272/72 39/273/72 44/274/72
f 75/275/73 73/276/73 44/277/73 43/278/73
f 74/279/74 75/280/74 43/281/74 38/282/74
f 76/283/75 78/284/75 28/285/75 29/286/75
f 77/287/76 76/288/76 29/289/76 34/290/76
f 79/291/77 77/292/77 34/293/77 33/294/77
f 78/295/78 79/296/78 33/297/78 28/298/78
o cuboid
v -0.14611781752520875 1.493200825093144 0.1149434816735887
v -0.21635940313852026 1.2231856010321145 -0.176620337971099
v -0.14611781752520875 1.46489921583479 0.13954569526073274
v -0.21635940313852026 1.2137517312793298 -0.16841960010871765
v -0.2224095399990148 1.5021030198140322 0.14423744881925096
v -0.25573205964507334 1.250787731567361 -0.14486771903136114
v -0.2224095399990148 1.4926691500612477 0.1524381866816323
v -0.25573205964507334 1.2413538618145763 -0.1366669811689798
v -0.23044483939594904 1.4442703655747784 0.05865542689285462
v -0.2679091477052687 1.4337633623374915 0.06562166589793345
v -0.21890385831412582 1.270853019595688 -0.1408384091856065
v -0.25636816662344547 1.260346016358401 -0.1338721701805277
v -0.2679091477052687 1.4243294925847068 0.07382240376031478
v -0.25636816662344547 1.2509121466056163 -0.12567143231814634
v -0.23044483939594904 1.4159687563164245 0.08325764047999865
v -0.21890385831412582 1.242551410337334 -0.11623619559846247
v -0.08629857319115439 1.148929853164947 -0.2620418043720572
v -0.08884302836675995 1.1682956624701666 -0.20165766199942073
v -0.08884302836675995 1.1965972717285205 -0.22625987558656474
v -0.08629857319115439 1.1394959834121625 -0.25384106650967586
v -0.263516838970282 1.3677635553763798 -0.01030242691281454
v -0.263516838970282 1.3583296856235954 -0.0021016890504331996
v -0.2606249553743115 1.3243094699274816 -0.06029063397790953
v -0.2606249553743115 1.3148756001746968 -0.05208989611552818
v -0.22584760132669654 1.3468896356462208 0.0037912024623884873
v -0.22275076113434322 1.3003558268416013 -0.04973982105410863
v -0.22605253066096231 1.378270558613667 -0.01726866591789336
v -0.22316064706499184 1.3348164731647685 -0.06725687298298835
v -0.15704365528214834 1.3612140090759024 -0.008310236266603755
v -0.15420250648610717 1.3185222760033004 -0.057421457242837426
v -0.15457853286731346 1.3241725319550774 -0.05092158130320061
v -0.15723165484169294 1.3640389322284765 -0.005060533919055322
vt 0.21875 0.10624999999999996
vt 0.203125 0.109375
vt 0.203125 0.09999999999999998
vt 0.21875 0.10312500000000002
vt 0.89479140625 0.934375
vt 0.89843671875 0.934375
vt 0.89843671875 0.9375
vt 0.89479140625 0.9375
vt 0.3300296875 0.8040409374999999
vt 0.333675 0.8040409374999999
vt 0.333675 0.8139237500000001
vt 0.3190921875 0.8129346875
vt 0.28242484375 0.765231875
vt 0.29730640625 0.7642421875000001
vt 0.29730640625 0.7741240625
vt 0.29373328125 0.7741240625
vt 0.15482453125 0.10010906249999996
vt 0.15625 0.109375
vt 0.13569859375 0.109375
vt 0.13522328125 0.10628640624999997
vt 0.953125 0.78125
vt 0.9387203125 0.78125
vt 0.9387203125 0.778125
vt 0.953125 0.778125
vt 0.0821296875 0.21975750000000005
vt 0.07144234375 0.24579312499999995
vt 0.0625 0.25
vt 0.0625 0.22213968750000002
vt 0.333675 0.8040409374999999
vt 0.3580734375 0.8040409374999999
vt 0.3580734375 0.8139237500000001
vt 0.333675 0.8139237500000001
vt 0.8125 0.765625
vt 0.78125 0.765625
vt 0.78125 0.75
vt 0.8125 0.75
vt 0.89843671875 0.934375
vt 0.92283515625 0.934375
vt 0.92283515625 0.9375
vt 0.89843671875 0.9375
vt 0.38927796875 0.7622665625
vt 0.36345328125 0.774125
vt 0.36345328125 0.7642439062499999
vt 0.38201109375 0.74349078125
vt 0.29730640625 0.7642421875000001
vt 0.31935484375 0.7642421875000001
vt 0.32170484375 0.774125
vt 0.29730640625 0.774125
vt 0.15625 0.1875
vt 0.1875 0.1875
vt 0.1875 0.203125
vt 0.15625 0.203125
vt 0.8125 0.84375
vt 0.78125 0.84375
vt 0.7836 0.828125
vt 0.8125 0.828125
vt 0.3025578125 0.84375
vt 0.287678125 0.84274078125
vt 0.3187953125 0.81291453125
vt 0.333675 0.8139237500000001
vt 0.75 0.625
vt 0.75 0.640625
vt 0.703125 0.640625
vt 0.703125 0.625
vt 0.25134703125 0.73536453125
vt 0.26622828125 0.734375
vt 0.2973059375 0.76424234375
vt 0.28242484375 0.765231875
vt 0.8956171875 0.78125
vt 0.8956171875 0.778125
vt 0.9387203125 0.778125
vt 0.9387203125 0.78125
vt 0.96458359375 0.9375
vt 0.93940859375 0.9375
vt 0.93940859375 0.934375
vt 0.96458359375 0.934375
vt 0.93940859375 0.9375
vt 0.92283515625 0.9375
vt 0.92283515625 0.934375
vt 0.93940859375 0.934375
vt 0.36345328125 0.774125
vt 0.33827828125 0.774125
vt 0.33710484375 0.7642421875000001
vt 0.36345328125 0.7642421875000001
vt 0.33827828125 0.774125
vt 0.32170484375 0.774125
vt 0.31935484375 0.7642421875000001
vt 0.33710484375 0.7642421875000001
vt 0.79932578125 0.265625
vt 0.82567421875 0.265625
vt 0.82450078125 0.28125
vt 0.79932578125 0.28125
vt 0 0.9978453125
vt 0 0.983715625
vt 0 1
vt 0 0.9826390625
vt 0.399821875 0.8139237500000001
vt 0.374646875 0.8139237500000001
vt 0.374646875 0.8040409374999999
vt 0.399821875 0.8040409374999999
vt 0.374646875 0.8139237500000001
vt 0.3580734375 0.8139237500000001
vt 0.3580734375 0.8040409374999999
vt 0.374646875 0.8040409374999999
vt 0.71121875 0.15625
vt 0.694934375 0.15625
vt 0.69425 0.140625
vt 0.712 0.140625
vt 0.91521359375 0.71659734375
vt 0.91511921875 0.71875
vt 0.89728640625 0.71875
vt 0.89985421875 0.7165103125000001
vt 0.85186953125 0.28125
vt 0.86707578125 0.28125
vt 0.86766171875 0.296875
vt 0.85108828125 0.296875
vt 0.56918578125 0.15625
vt 0.56923296875 0.140625
vt 0.58706421875 0.140625
vt 0.58454953125 0.15625
vn 0.9990482215818579 0.02861689292006314 0.03291996952806723
vn -0.9990482215818579 -0.02861689292006314 -0.03291996952806723
vn -0.315926787253926 0.7069309175176034 -0.6328024517597352
vn -0.3009046307221457 -0.8410697044140136 0.44950879360352136
vn 0.3439852661173275 0.6160230568145044 0.7086534626791189
vn -0.7301468373045386 -0.44827875244587756 -0.5156857144421855
vn -0.3101425912510495 0.8969594281753843 -0.31507992208227475
vn -0.31592678725392603 0.7069309175176035 -0.6328024517597354
vn -0.9163943772271615 0.26260506840978737 0.3020925742747313
vn -0.9990482215818579 -0.02861689292006314 -0.03291996952806723
vn -0.31888056085431976 -0.6161641602734763 0.7201783914445896
vn -0.31592678725392587 -0.7250298297545127 0.6119820349173289
vn 0.6625012390494819 -0.4914281125594202 -0.5653233751086072
vn 0.9990482215818579 0.02861689292006314 0.03291996952806723
vn -0.18607377853870447 0.5834802580370526 -0.7905234578564659
vn 0.6564698939077318 0.4948995878286645 0.5693168505847949
vn -0.18607377853870452 -0.8640348947664264 0.4677822672636274
vn -0.6564698939077316 -0.4948995878286645 -0.5693168505847949
vn -0.9990482215818579 -0.02861689292006314 -0.03291996952806723
vn -0.9990482215818579 -0.02861689292006314 -0.03291996952806723
vn -0.31592678725392587 -0.7250298297545127 0.6119820349173289
vn -0.31592678725392587 -0.7250298297545127 0.6119820349173289
vn 0.9990482215818579 0.02861689292006314 0.03291996952806723
vn 0 0 0
vn -0.315926787253926 0.7069309175176034 -0.6328024517597352
vn -0.315926787253926 0.7069309175176034 -0.6328024517597352
vn 0.26286697632383826 -0.7205868959134887 0.6416038327473783
vn -0.2628669763238383 0.7205868959134887 -0.6416038327473783
vn 0.26286697632383826 0.7356461011674038 -0.6242801987854176
vn -0.26286697632383826 -0.7356461011674038 0.6242801987854176
usemtl m_cf5ac213-316c-e8d1-eaa3-0ce92fd50427
f 96/299/79 98/300/79 97/301/79 99/302/79
f 87/303/80 93/304/80 91/305/80 85/306/80
f 85/307/81 91/308/81 90/309/81 81/310/81
f 83/311/82 95/312/82 93/313/82 87/314/82
f 82/315/83 80/316/83 84/317/83 86/318/83
f 85/319/84 81/320/84 83/321/84 87/322/84
f 80/323/85 88/324/85 89/325/85 84/326/85
f 91/327/86 102/328/86 107/329/86 90/330/86
f 84/331/87 89/332/87 92/333/87 86/334/87
f 93/335/88 103/336/88 102/337/88 91/338/88
f 86/339/89 92/340/89 94/341/89 82/342/89
f 95/343/90 105/344/90 103/345/90 93/346/90
f 82/347/91 94/348/91 88/349/91 80/350/91
f 90/351/92 107/352/92 105/353/92 95/354/92
f 98/355/93 96/356/93 81/357/93 90/358/93
f 97/359/94 98/360/94 90/361/94 95/362/94
f 99/363/95 97/364/95 95/365/95 83/366/95
f 96/367/96 99/368/96 83/369/96 81/370/96
f 89/371/97 100/372/97 101/373/97 92/374/97
f 100/375/98 102/376/98 103/377/98 101/378/98
f 92/379/99 101/380/99 104/381/99 94/382/99
f 101/383/100 103/384/100 105/385/100 104/386/100
f 94/387/101 104/388/101 106/389/101 88/390/101
f 110/391/102 108/392/102 109/393/102 111/394/102
f 88/395/103 106/396/103 100/397/103 89/398/103
f 106/399/104 107/400/104 102/401/104 100/402/104
f 109/403/105 108/404/105 104/405/105 105/406/105
f 110/407/106 109/408/106 105/409/106 107/410/106
f 111/411/107 110/412/107 107/413/107 106/414/107
f 108/415/108 111/416/108 106/417/108 104/418/108
o cuboid
v 0.14611781752520875 1.493200825093144 0.1149434816735887
v 0.21635940313852026 1.2231856010321145 -0.176620337971099
v 0.14611781752520875 1.46489921583479 0.13954569526073274
v 0.21635940313852026 1.2137517312793298 -0.16841960010871765
v 0.2224095399990148 1.5021030198140322 0.14423744881925096
v 0.25573205964507334 1.250787731567361 -0.14486771903136114
v 0.2224095399990148 1.4926691500612477 0.1524381866816323
v 0.25573205964507334 1.2413538618145763 -0.1366669811689798
v 0.23044483939594904 1.4442703655747784 0.05865542689285462
v 0.2679091477052687 1.4337633623374915 0.06562166589793345
v 0.21890385831412582 1.270853019595688 -0.1408384091856065
v 0.25636816662344547 1.260346016358401 -0.1338721701805277
v 0.2679091477052687 1.4243294925847068 0.07382240376031478
v 0.25636816662344547 1.2509121466056163 -0.12567143231814634
v 0.23044483939594904 1.4159687563164245 0.08325764047999865
v 0.21890385831412582 1.242551410337334 -0.11623619559846247
v 0.08629857319115439 1.148929853164947 -0.2620418043720572
v 0.08884302836675995 1.1682956624701666 -0.20165766199942073
v 0.08884302836675995 1.1965972717285205 -0.22625987558656474
v 0.08629857319115439 1.1394959834121625 -0.25384106650967586
v 0.263516838970282 1.3677635553763798 -0.01030242691281454
v 0.263516838970282 1.3583296856235954 -0.0021016890504331996
v 0.2606249553743115 1.3243094699274816 -0.06029063397790953
v 0.2606249553743115 1.3148756001746968 -0.05208989611552818
v 0.22584760132669654 1.3468896356462208 0.0037912024623884873
v 0.22275076113434322 1.3003558268416013 -0.04973982105410863
v 0.22605253066096231 1.378270558613667 -0.01726866591789336
v 0.22316064706499184 1.3348164731647685 -0.06725687298298835
v 0.15704365528214834 1.3612140090759024 -0.008310236266603755
v 0.15420250648610717 1.3185222760033004 -0.057421457242837426
v 0.15457853286731346 1.3241725319550774 -0.05092158130320061
v 0.15723165484169294 1.3640389322284765 -0.005060533919055322
vt 0.203125 0.09999999999999998
vt 0.203125 0.109375
vt 0.21875 0.10624999999999996
vt 0.21875 0.10312500000000002
vt 0.89843671875 0.9375
vt 0.89843671875 0.934375
vt 0.89479140625 0.934375
vt 0.89479140625 0.9375
vt 0.333675 0.8139237500000001
vt 0.333675 0.8040409374999999
vt 0.3300296875 0.8040409374999999
vt 0.3190921875 0.8129346875
vt 0.29730640625 0.7741240625
vt 0.29730640625 0.7642421875000001
vt 0.28242484375 0.765231875
vt 0.29373328125 0.7741240625
vt 0.13569859375 0.109375
vt 0.15625 0.109375
vt 0.15482453125 0.10010906249999996
vt 0.13522328125 0.10628640624999997
vt 0.9387203125 0.778125
vt 0.9387203125 0.78125
vt 0.953125 0.78125
vt 0.953125 0.778125
vt 0.0625 0.25
vt 0.07144234375 0.24579312499999995
vt 0.0821296875 0.21975750000000005
vt 0.0625 0.22213968750000002
vt 0.3580734375 0.8139237500000001
vt 0.3580734375 0.8040409374999999
vt 0.333675 0.8040409374999999
vt 0.333675 0.8139237500000001
vt 0.78125 0.75
vt 0.78125 0.765625
vt 0.8125 0.765625
vt 0.8125 0.75
vt 0.92283515625 0.9375
vt 0.92283515625 0.934375
vt 0.89843671875 0.934375
vt 0.89843671875 0.9375
vt 0.36345328125 0.7642439062499999
vt 0.36345328125 0.774125
vt 0.38927796875 0.7622665625
vt 0.38201109375 0.74349078125
vt 0.32170484375 0.774125
vt 0.31935484375 0.7642421875000001
vt 0.29730640625 0.7642421875000001
vt 0.29730640625 0.774125
vt 0.1875 0.203125
vt 0.1875 0.1875
vt 0.15625 0.1875
vt 0.15625 0.203125
vt 0.7836 0.828125
vt 0.78125 0.84375
vt 0.8125 0.84375
vt 0.8125 0.828125
vt 0.3187953125 0.81291453125
vt 0.287678125 0.84274078125
vt 0.3025578125 0.84375
vt 0.333675 0.8139237500000001
vt 0.703125 0.640625
vt 0.75 0.640625
vt 0.75 0.625
vt 0.703125 0.625
vt 0.2973059375 0.76424234375
vt 0.26622828125 0.734375
vt 0.25134703125 0.73536453125
vt 0.28242484375 0.765231875
vt 0.9387203125 0.778125
vt 0.8956171875 0.778125
vt 0.8956171875 0.78125
vt 0.9387203125 0.78125
vt 0.93940859375 0.934375
vt 0.93940859375 0.9375
vt 0.96458359375 0.9375
vt 0.96458359375 0.934375
vt 0.92283515625 0.934375
vt 0.92283515625 0.9375
vt 0.93940859375 0.9375
vt 0.93940859375 0.934375
vt 0.33710484375 0.7642421875000001
vt 0.33827828125 0.774125
vt 0.36345328125 0.774125
vt 0.36345328125 0.7642421875000001
vt 0.31935484375 0.7642421875000001
vt 0.32170484375 0.774125
vt 0.33827828125 0.774125
vt 0.33710484375 0.7642421875000001
vt 0.82450078125 0.28125
vt 0.82567421875 0.265625
vt 0.79932578125 0.265625
vt 0.79932578125 0.28125
vt 0 0.9978453125
vt 0 0.983715625
vt 0 1
vt 0 0.9826390625
vt 0.374646875 0.8040409374999999
vt 0.374646875 0.8139237500000001
vt 0.399821875 0.8139237500000001
vt 0.399821875 0.8040409374999999
vt 0.3580734375 0.8040409374999999
vt 0.3580734375 0.8139237500000001
vt 0.374646875 0.8139237500000001
vt 0.374646875 0.8040409374999999
vt 0.69425 0.140625
vt 0.694934375 0.15625
vt 0.71121875 0.15625
vt 0.712 0.140625
vt 0.89728640625 0.71875
vt 0.91511921875 0.71875
vt 0.91521359375 0.71659734375
vt 0.89985421875 0.7165103125000001
vt 0.86766171875 0.296875
vt 0.86707578125 0.28125
vt 0.85186953125 0.28125
vt 0.85108828125 0.296875
vt 0.58706421875 0.140625
vt 0.56923296875 0.140625
vt 0.56918578125 0.15625
vt 0.58454953125 0.15625
vn -0.9990482215818579 0.02861689292006314 0.03291996952806723
vn 0.9990482215818579 -0.02861689292006314 -0.03291996952806723
vn 0.315926787253926 0.7069309175176034 -0.6328024517597352
vn 0.3009046307221457 -0.8410697044140136 0.44950879360352136
vn -0.34398526611732755 0.6160230568145044 0.7086534626791189
vn 0.7301468373045386 -0.44827875244587756 -0.5156857144421855
vn 0.31014259125104937 0.8969594281753843 -0.31507992208227487
vn 0.31592678725392603 0.7069309175176035 -0.6328024517597354
vn 0.9163943772271615 0.26260506840978737 0.3020925742747313
vn 0.9990482215818579 -0.02861689292006314 -0.03291996952806723
vn 0.31888056085431976 -0.6161641602734763 0.7201783914445896
vn 0.3159267872539259 -0.7250298297545127 0.6119820349173289
vn -0.6625012390494819 -0.4914281125594202 -0.5653233751086072
vn -0.9990482215818579 0.02861689292006314 0.03291996952806723
vn 0.18607377853870447 0.5834802580370526 -0.7905234578564659
vn -0.6564698939077318 0.4948995878286645 0.5693168505847949
vn 0.18607377853870452 -0.8640348947664264 0.4677822672636274
vn 0.6564698939077316 -0.4948995878286645 -0.5693168505847949
vn 0.9990482215818579 -0.02861689292006314 -0.03291996952806723
vn 0.9990482215818579 -0.02861689292006314 -0.03291996952806723
vn 0.31592678725392587 -0.7250298297545127 0.6119820349173289
vn 0.31592678725392587 -0.7250298297545127 0.6119820349173289
vn -0.9990482215818579 0.02861689292006314 0.03291996952806723
vn 0 0 0
vn 0.315926787253926 0.7069309175176034 -0.6328024517597352
vn 0.315926787253926 0.7069309175176034 -0.6328024517597352
vn -0.26286697632383826 -0.7205868959134887 0.6416038327473783
vn 0.2628669763238383 0.7205868959134887 -0.6416038327473783
vn -0.26286697632383826 0.7356461011674038 -0.6242801987854176
vn 0.2628669763238383 -0.7356461011674038 0.6242801987854176
usemtl m_cf5ac213-316c-e8d1-eaa3-0ce92fd50427
f 129/419/109 130/420/109 128/421/109 131/422/109
f 123/423/110 125/424/110 119/425/110 117/426/110
f 122/427/111 123/428/111 117/429/111 113/430/111
f 125/431/112 127/432/112 115/433/112 119/434/112
f 116/435/113 112/436/113 114/437/113 118/438/113
f 115/439/114 113/440/114 117/441/114 119/442/114
f 121/443/115 120/444/115 112/445/115 116/446/115
f 139/447/116 134/448/116 123/449/116 122/450/116
f 124/451/117 121/452/117 116/453/117 118/454/117
f 134/455/118 135/456/118 125/457/118 123/458/118
f 126/459/119 124/460/119 118/461/119 114/462/119
f 135/463/120 137/464/120 127/465/120 125/466/120
f 120/467/121 126/468/121 114/469/121 112/470/121
f 137/471/122 139/472/122 122/473/122 127/474/122
f 113/475/123 128/476/123 130/477/123 122/478/123
f 122/479/124 130/480/124 129/481/124 127/482/124
f 127/483/125 129/484/125 131/485/125 115/486/125
f 115/487/126 131/488/126 128/489/126 113/490/126
f 133/491/127 132/492/127 121/493/127 124/494/127
f 135/495/128 134/496/128 132/497/128 133/498/128
f 136/499/129 133/500/129 124/501/129 126/502/129
f 137/503/130 135/504/130 133/505/130 136/506/130
f 138/507/131 136/508/131 126/509/131 120/510/131
f 142/511/132 140/512/132 141/513/132 143/514/132
f 132/515/133 138/516/133 120/517/133 121/518/133
f 134/519/134 139/520/134 138/521/134 132/522/134
f 136/523/135 140/524/135 141/525/135 137/526/135
f 137/527/136 141/528/136 142/529/136 139/530/136
f 139/531/137 142/532/137 143/533/137 138/534/137
f 138/535/138 143/536/138 140/537/138 136/538/138
o sphere
v -0.106188125 1.523401875 -0.053523124999999595
v 0 1.396875 0.15468750000000037
v 0 1.396875 -0.18593749999999964
v 0.01686625 1.4670918750000002 -0.16907124999999962
v 0.030391875 1.523401875 -0.12181312499999959
v 0.037898125 1.55465125 -0.05352312499999959
v 0.037898125 1.55465125 0.022273125000000407
v 0.030391875 1.523401875 0.0905631250000004
v 0.01686625 1.4670918750000002 0.1378212500000004
v 0.047258125 1.4531850000000002 -0.16907124999999962
v 0.08515625 1.4983418750000002 -0.1218131249999996
v 0.106188125 1.523401875 -0.053523124999999595
v 0.106188125 1.523401875 0.0222731250000004
v 0.08515625 1.4983418750000002 0.09056312500000038
v 0.047258125 1.4531850000000002 0.1378212500000004
v 0.06829 1.4281243750000001 -0.16907124999999962
v 0.123054375 1.4531850000000002 -0.1218131249999996
v 0.15344625 1.4670918750000002 -0.05352312499999961
v 0.15344625 1.4670918750000002 0.022273125000000386
v 0.123054375 1.4531850000000002 0.09056312500000038
v 0.06829 1.4281243750000001 0.1378212500000004
v 0.07579625 1.396875 -0.16907124999999965
v 0.13658 1.396875 -0.12181312499999962
v 0.1703125 1.396875 -0.05352312499999963
v 0.1703125 1.396875 0.022273125000000372
v 0.13658 1.396875 0.09056312500000037
v 0.07579625 1.396875 0.13782125000000037
v 0.06829 1.365625625 -0.16907124999999965
v 0.123054375 1.340565 -0.12181312499999963
v 0.15344625 1.326658125 -0.053523124999999644
v 0.15344625 1.326658125 0.02227312500000036
v 0.123054375 1.340565 0.09056312500000036
v 0.06829 1.365625625 0.13782125000000037
v 0.047258125 1.340565 -0.16907124999999965
v 0.08515625 1.295408125 -0.12181312499999965
v 0.106188125 1.2703481250000002 -0.05352312499999966
v 0.106188125 1.2703481250000002 0.022273125000000345
v 0.08515625 1.295408125 0.09056312500000034
v 0.047258125 1.340565 0.13782125000000037
v 0.01686625 1.326658125 -0.16907124999999965
v 0.030391875 1.2703481250000002 -0.12181312499999965
v 0.037898125 1.2390987500000001 -0.053523124999999665
v 0.037898125 1.2390987500000001 0.022273125000000338
v 0.030391875 1.2703481250000002 0.09056312500000034
v 0.01686625 1.326658125 0.13782125000000037
v -0.01686625 1.326658125 -0.16907124999999965
v -0.030391875 1.2703481250000002 -0.12181312499999965
v -0.037898125 1.2390987500000001 -0.053523124999999665
v -0.037898125 1.2390987500000001 0.022273125000000338
v -0.030391875 1.2703481250000002 0.09056312500000034
v -0.01686625 1.326658125 0.13782125000000037
v -0.047258125 1.340565 -0.16907124999999965
v -0.08515625 1.295408125 -0.12181312499999965
v -0.106188125 1.2703481250000002 -0.05352312499999966
v -0.106188125 1.2703481250000002 0.022273125000000345
v -0.08515625 1.295408125 0.09056312500000034
v -0.047258125 1.340565 0.13782125000000037
v -0.06829 1.365625625 -0.16907124999999965
v -0.123054375 1.340565 -0.12181312499999963
v -0.15344625 1.326658125 -0.053523124999999644
v -0.15344625 1.326658125 0.02227312500000036
v -0.123054375 1.340565 0.09056312500000036
v -0.06829 1.365625625 0.13782125000000037
v -0.07579625 1.396875 -0.16907124999999965
v -0.13658 1.396875 -0.12181312499999962
v -0.1703125 1.396875 -0.05352312499999963
v -0.1703125 1.396875 0.022273125000000372
v -0.13658 1.396875 0.09056312500000037
v -0.07579625 1.396875 0.13782125000000037
v -0.06829 1.4281243750000001 -0.16907124999999962
v -0.123054375 1.4531850000000002 -0.1218131249999996
v -0.15344625 1.4670918750000002 -0.05352312499999961
v -0.15344625 1.4670918750000002 0.022273125000000386
v -0.123054375 1.4531850000000002 0.09056312500000038
v -0.06829 1.4281243750000001 0.1378212500000004
v -0.047258125 1.4531850000000002 -0.16907124999999962
v -0.08515625 1.4983418750000002 -0.1218131249999996
v -0.106188125 1.523401875 0.0222731250000004
v -0.08515625 1.4983418750000002 0.09056312500000038
v -0.047258125 1.4531850000000002 0.1378212500000004
v -0.01686625 1.4670918750000002 -0.16907124999999962
v -0.030391875 1.523401875 -0.12181312499999959
v -0.037898125 1.55465125 -0.05352312499999959
v -0.037898125 1.55465125 0.022273125000000407
v -0.030391875 1.523401875 0.0905631250000004
v -0.01686625 1.4670918750000002 0.1378212500000004
vt 0.5276546875 0.24757031249999994
vt 0.53529234375 0.25096062500000005
vt 0.52343796875 0.26562296875
vt 0.0658515625 0.125
vt 0.06306875 0.109375
vt 0.078125 0.109375
vt 0.0742078125 0.125
vt 0.76401875 0.1875
vt 0.762475 0.171875
vt 0.78125 0.171875
vt 0.779075 0.1875
vt 0.859375 0.625
vt 0.859375 0.609375
vt 0.875 0.609375
vt 0.875 0.625
vt 0.168725 0.171875
vt 0.17026875 0.15625
vt 0.185325 0.15625
vt 0.1875 0.171875
vt 0.87556875 1
vt 0.8783515625 0.984375
vt 0.8867078125 0.984375
vt 0.890625 1
vt 0.0352921875 0.23341296874999995
vt 0.0276546875 0.2368034375
vt 0.02343765625 0.21875078125000003
vt 0.53529234375 0.25096062500000005
vt 0.54069171875 0.25710500000000003
vt 0.52343734375 0.26562375000000005
vt 0.53469375 0.125
vt 0.5321375 0.109375
vt 0.546875 0.109375
vt 0.5428734375 0.125
vt 0.842415625 0.21875
vt 0.840996875 0.203125
vt 0.859375 0.203125
vt 0.857153125 0.21875
vt 0.3125 0.140625
vt 0.3125 0.125
vt 0.328125 0.125
vt 0.328125 0.140625
vt 0.653496875 0.171875
vt 0.654915625 0.15625
vt 0.669653125 0.15625
vt 0.671875 0.171875
vt 0.4383875 0.125
vt 0.44094375 0.109375
vt 0.4491234375 0.109375
vt 0.453125 0.125
vt 0.0406915625 0.22726843750000003
vt 0.0352921875 0.23341296874999995
vt 0.02343703125 0.21875
vt 0.828125 0.71904046875
vt 0.8353240625 0.7154734375
vt 0.83974890625 0.73437390625
vt 0.8009171875 0.125
vt 0.798021875 0.109375
vt 0.8125 0.109375
vt 0.8089515625 0.125
vt 0.1085515625 0.15625
vt 0.1069453125 0.140625
vt 0.125 0.140625
vt 0.1230296875 0.15625
vt 0.859375 0.78125
vt 0.859375 0.765625
vt 0.875 0.765625
vt 0.875 0.78125
vt 0.8569453125 0.96875
vt 0.8585515625 0.953125
vt 0.8730296875 0.953125
vt 0.875 0.96875
vt 0.876146875 0.234375
vt 0.8790421875 0.21875
vt 0.8870765625 0.21875
vt 0.890625 0.234375
vt 0.25842578125 0.15952656249999997
vt 0.25039140625 0.15952656249999997
vt 0.25399921875 0.140625
vt 0.8353240625 0.7154734375
vt 0.8433584375 0.7154734375
vt 0.8397490625 0.734375
vt 0.831675 0.125
vt 0.828125 0.109375
vt 0.842603125 0.109375
vt 0.839709375 0.125
vt 0.84571875 0.546875
vt 0.84375 0.53125
vt 0.861803125 0.53125
vt 0.860196875 0.546875
vt 0.859375 0.75
vt 0.859375 0.734375
vt 0.875 0.734375
vt 0.875 0.75
vt 0.84375 0.90625
vt 0.84571875 0.890625
vt 0.860196875 0.890625
vt 0.861803125 0.90625
vt 0.765625 0.125
vt 0.769175 0.109375
vt 0.777209375 0.109375
vt 0.780103125 0.125
vt 0.265625 0.1559596875
vt 0.25842578125 0.15952656249999997
vt 0.253999375 0.1406253125
vt 0.74055765625 0.5227299999999999
vt 0.7459578125 0.51658625
vt 0.7578121875 0.531249375
vt 0.7383765625 0.125
vt 0.734375 0.109375
vt 0.7491125 0.109375
vt 0.74655625 0.125
vt 0.830346875 0.5
vt 0.828125 0.484375
vt 0.846503125 0.484375
vt 0.845084375 0.5
vt 0.34375 0.140625
vt 0.34375 0.125
vt 0.359375 0.125
vt 0.359375 0.140625
vt 0.828125 0.6875
vt 0.830346875 0.671875
vt 0.845084375 0.671875
vt 0.846503125 0.6875
vt 0.671875 0.125
vt 0.6758765625 0.109375
vt 0.68405625 0.109375
vt 0.6866125 0.125
vt 0.7459578125 0.4677878125
vt 0.74055796875 0.46164375
vt 0.7578128125 0.453125
vt 0.7459578125 0.51658625
vt 0.7535953125 0.5131959374999999
vt 0.7578128125 0.53125
vt 0.8789171875 0.84375
vt 0.875 0.828125
vt 0.89005625 0.828125
vt 0.8872734375 0.84375
vt 0.7053 0.1875
vt 0.703125 0.171875
vt 0.7219015625 0.171875
vt 0.72035625 0.1875
vt 0.859375 0.59375
vt 0.859375 0.578125
vt 0.875 0.578125
vt 0.875 0.59375
vt 0.8125 0.390625
vt 0.814675 0.375
vt 0.82973125 0.375
vt 0.8312765625 0.390625
vt 0.234375 0.125
vt 0.2382921875 0.109375
vt 0.2466484375 0.109375
vt 0.24943125 0.125
vt 0.7535953125 0.47117828125000005
vt 0.7459578125 0.4677878125
vt 0.75781234375 0.453125625
vt 0.7535953125 0.5131959374999999
vt 0.7620296875 0.5131959374999999
vt 0.7578125 0.5312490624999999
vt 0.6442203125 0.140625
vt 0.6408390625 0.125
vt 0.6560359375 0.125
vt 0.6526546875 0.140625
vt 0.8205265625 0.421875
vt 0.81865 0.40625
vt 0.8376 0.40625
vt 0.8357234375 0.421875
vt 0.140625 0.140625
vt 0.140625 0.125
vt 0.15625 0.125
vt 0.15625 0.140625
vt 0.81865 0.453125
vt 0.8205265625 0.4375
vt 0.8357234375 0.4375
vt 0.8376 0.453125
vt 0.8595890625 0.34375
vt 0.8629703125 0.328125
vt 0.8714046875 0.328125
vt 0.8747859375 0.34375
vt 0.7620296875 0.47117828125000005
vt 0.7535953125 0.47117828125000005
vt 0.7578125 0.45312515625000005
vt 0.7620296875 0.5131959374999999
vt 0.7696671875 0.51658625
vt 0.7578121875 0.53125
vt 0.8783515625 0.8125
vt 0.87556875 0.796875
vt 0.890625 0.796875
vt 0.8867078125 0.8125
vt 0.82651875 0.359375
vt 0.8249734375 0.34375
vt 0.84375 0.34375
vt 0.841575 0.359375
vt 0.40625 0.140625
vt 0.40625 0.125
vt 0.421875 0.125
vt 0.421875 0.140625
vt 0.8249734375 0.328125
vt 0.82651875 0.3125
vt 0.841575 0.3125
vt 0.84375 0.328125
vt 0.26619375 0.125
vt 0.2689765625 0.109375
vt 0.2773328125 0.109375
vt 0.28125 0.125
vt 0.7696671875 0.4677878125
vt 0.7620296875 0.47117828125000005
vt 0.75781265625 0.453125625
vt 0.7696671875 0.51658625
vt 0.77506734375 0.5227299999999999
vt 0.7578128125 0.531249375
vt 0.56594375 0.125
vt 0.5633875 0.109375
vt 0.578125 0.109375
vt 0.5741234375 0.125
vt 0.842415625 0.1875
vt 0.840996875 0.171875
vt 0.859375 0.171875
vt 0.857153125 0.1875
vt 0.859375 0.65625
vt 0.859375 0.640625
vt 0.875 0.640625
vt 0.875 0.65625
vt 0.012871875 0.15625
vt 0.014290625 0.140625
vt 0.029028125 0.140625
vt 0.03125 0.15625
vt 0.8758875 0.515625
vt 0.87844375 0.5
vt 0.8866234375 0.5
vt 0.890625 0.515625
vt 0.77506703125 0.46164375
vt 0.7696671875 0.4677878125
vt 0.7578121875 0.453125
vt 0.2816415625 0.15297343750000003
vt 0.2896759375 0.15297343750000003
vt 0.2852509375 0.171875
vt 0.894665625 0.96875
vt 0.891771875 0.953125
vt 0.90625 0.953125
vt 0.9027 0.96875
vt 0.530428125 0.15625
vt 0.528821875 0.140625
vt 0.546875 0.140625
vt 0.54490625 0.15625
vt 0.859375 0.71875
vt 0.859375 0.703125
vt 0.875 0.703125
vt 0.875 0.71875
vt 0.856946875 0.875
vt 0.858553125 0.859375
vt 0.87303125 0.859375
vt 0.875 0.875
vt 0.860521875 0.125
vt 0.863415625 0.109375
vt 0.87145 0.109375
vt 0.875 0.125
vt 0.83532421875 0.7689015625
vt 0.828125 0.7653346875
vt 0.839750625 0.7500003125
vt 0.2896759375 0.15297343750000003
vt 0.296875 0.15654046875000005
vt 0.28525109375 0.17187390624999999
vt 0.8785484375 0.203125
vt 0.875 0.1875
vt 0.889478125 0.1875
vt 0.8865828125 0.203125
vt 0.8457203125 0.9375
vt 0.84375 0.921875
vt 0.8618046875 0.921875
vt 0.8601984375 0.9375
vt 0.203125 0.140625
vt 0.203125 0.125
vt 0.21875 0.125
vt 0.21875 0.140625
vt 0.046875 0.15625
vt 0.0488453125 0.140625
vt 0.0633234375 0.140625
vt 0.0649296875 0.15625
vt 0.875 0.265625
vt 0.8785484375 0.25
vt 0.8865828125 0.25
vt 0.889478125 0.265625
vt 0.84335859375 0.7689015625
vt 0.83532421875 0.7689015625
vt 0.83975078125 0.75
vt 0.50618328125 0.25710500000000003
vt 0.51158265625 0.25096062500000005
vt 0.52343765625 0.26562375000000005
vt 0.5040015625 0.125
vt 0.5 0.109375
vt 0.5147375 0.109375
vt 0.51218125 0.125
vt 0.392846875 0.171875
vt 0.390625 0.15625
vt 0.409003125 0.15625
vt 0.407584375 0.171875
vt 0.375 0.140625
vt 0.375 0.125
vt 0.390625 0.125
vt 0.390625 0.140625
vt 0.46875 0.171875
vt 0.470971875 0.15625
vt 0.485709375 0.15625
vt 0.487128125 0.171875
vt 0.703125 0.125
vt 0.7071265625 0.109375
vt 0.71530625 0.109375
vt 0.7178625 0.125
vt 0.0115828125 0.23341296874999995
vt 0.0061834375 0.22726843750000003
vt 0.02343796875 0.21875
vt 0.51158265625 0.25096062500000005
vt 0.5192203125 0.24757031249999994
vt 0.52343703125 0.26562296875
vt 0.0976671875 0.125
vt 0.09375 0.109375
vt 0.10880625 0.109375
vt 0.1060234375 0.125
vt 0.8303 1
vt 0.828125 0.984375
vt 0.8469 0.984375
vt 0.84535625 1
vt 0.46875 0.140625
vt 0.46875 0.125
vt 0.484375 0.125
vt 0.484375 0.140625
vt 0.828125 0.84375
vt 0.8303 0.828125
vt 0.84535625 0.828125
vt 0.8469 0.84375
vt 0.03125 0.125
vt 0.0351671875 0.109375
vt 0.0435234375 0.109375
vt 0.04630625 0.125
vt 0.0192203125 0.2368034375
vt 0.0115828125 0.23341296874999995
vt 0.02343734375 0.21875078125000003
vt 0.5192203125 0.24757031249999994
vt 0.5276546875 0.24757031249999994
vt 0.5234375 0.265625
vt 0.8629703125 0.15625
vt 0.8595890625 0.140625
vt 0.8747859375 0.140625
vt 0.8714046875 0.15625
vt 0.8205265625 0.578125
vt 0.81865 0.5625
vt 0.8376 0.5625
vt 0.8357234375 0.578125
vt 0.171875 0.140625
vt 0.171875 0.125
vt 0.1875 0.125
vt 0.1875 0.140625
vt 0.81865 0.609375
vt 0.8205265625 0.59375
vt 0.8357234375 0.59375
vt 0.8376 0.609375
vt 0.0002140625 0.125
vt 0.0035953125 0.109375
vt 0.0120296875 0.109375
vt 0.0154109375 0.125
vt 0.0276546875 0.2368034375
vt 0.0192203125 0.2368034375
vt 0.0234375 0.2187503125
vn 0.09633767592302034 0.21053490481815287 -0.9728278912793169
vn 0.26604353922093316 0.5813929827702506 -0.768897284963545
vn 0.37776064420222766 0.8255292911480663 -0.419283060889048
vn 0.41610214391722944 0.9093178794170306 2.019091292864218e-16
vn 0.3777597003522792 0.8255296843567426 0.4192831370751913
vn 0.2660377393206372 0.5813948653968196 0.7688978682161752
vn 0.09633767592302037 0.21053490481815249 0.9728278912793171
vn 0.17379529467130625 0.14585593588009385 -0.9739205519541396
vn 0.4835506194547718 0.40582218809260784 -0.7755560263943763
vn 0.6927530547696538 0.5813924783597272 -0.42670363393583516
vn 0.7659880094096545 0.64285485876723 1.427424531391064e-16
vn 0.692751080415319 0.5813946833004898 0.42670383501127745
vn 0.48355463573514534 0.4058183167599405 0.7755555480048995
vn 0.17379529467130625 0.1458559358800934 0.9739205519541396
vn 0.21691324166015563 0.05210360271882388 -0.9747993948378312
vn 0.6072288487839286 0.14585597048185278 -0.7810244305265629
vn 0.876488207385128 0.21053442249899912 -0.4329476634165128
vn 0.972342661490417 0.23355887618699536 5.186048838967569e-17
vn 0.8764888700218697 0.210532050658667 0.43294747530531086
vn 0.6072277210663257 0.14585901578044666 0.7810247385865292
vn 0.21691324166015563 0.05210360271882345 0.9747993948378312
vn 0.21691324166015563 -0.05210360271882345 -0.9747993948378312
vn 0.6072298887536594 -0.14585622028189846 -0.7810235753223439
vn 0.8764874154248584 -0.21053423226837564 -0.4329493592153909
vn 0.972342661490417 -0.23355887618699536 -5.186048838967569e-17
vn 0.8764878824699313 -0.2105318134493404 0.4329495899167807
vn 0.6072295950415922 -0.14585946591830878 0.7810231975477104
vn 0.21691324166015563 -0.05210360271882388 0.9747993948378312
vn 0.17379529467130625 -0.1458559358800934 -0.9739205519541396
vn 0.48354917924584123 -0.4058209793903207 -0.7755575568179025
vn 0.6927538096446596 -0.5813931118880059 -0.4267015451952235
vn 0.7659880094096545 -0.64285485876723 -1.427424531391064e-16
vn 0.6927520217287969 -0.5813954733023635 0.42670123038747526
vn 0.4835520405775622 -0.4058161388002971 0.7755583057014435
vn 0.17379529467130625 -0.14585593588009385 0.9739205519541396
vn 0.09633767592302037 -0.21053490481815249 -0.9728278912793171
vn 0.2660444155476596 -0.581394897833517 -0.7688955336904089
vn 0.37776078694249293 -0.8255296030817519 -0.41928231811545974
vn 0.41610214391722944 -0.9093178794170306 -2.019091292864218e-16
vn 0.37775987834597596 -0.8255300733317448 0.4192822108519721
vn 0.26603931838458017 -0.5813983162593591 0.7688947125089693
vn 0.09633767592302034 -0.21053490481815287 0.9728278912793169
vn 0 -0.23355887618699517 -0.9723426614904171
vn 0 -0.6428548587672298 -0.7659880094096545
vn 0 -0.9093178794170305 -0.41610214391722966
vn 0 -1 -2.220446049250313e-16
vn 0 -0.9093178794170307 0.4161021439172293
vn 0 -0.6428548587672303 0.7659880094096542
vn 0 -0.2335588761869956 0.9723426614904171
vn -0.09633767592302037 -0.21053490481815249 -0.9728278912793171
vn -0.26604353922093316 -0.5813929827702502 -0.7688972849635453
vn -0.37776064420222777 -0.8255292911480663 -0.41928306088904843
vn -0.41610214391722944 -0.9093178794170306 -2.019091292864218e-16
vn -0.37775970035227907 -0.8255296843567426 0.4192831370751909
vn -0.2660377393206372 -0.5813948653968201 0.768897868216175
vn -0.09633767592302034 -0.21053490481815287 0.9728278912793169
vn -0.17379529467130625 -0.1458559358800934 -0.9739205519541396
vn -0.4835506194547718 -0.4058221880926075 -0.7755560263943765
vn -0.6927530547696539 -0.5813924783597271 -0.4267036339358355
vn -0.7659880094096545 -0.64285485876723 -1.427424531391064e-16
vn -0.692751080415319 -0.58139468330049 0.42670383501127723
vn -0.48355463573514534 -0.40581831675994084 0.7755555480048992
vn -0.17379529467130625 -0.14585593588009385 0.9739205519541396
vn -0.21691324166015563 -0.05210360271882345 -0.9747993948378312
vn -0.6072288487839286 -0.14585597048185245 -0.7810244305265629
vn -0.876488207385128 -0.21053442249899895 -0.4329476634165129
vn -0.972342661490417 -0.23355887618699536 -5.186048838967569e-17
vn -0.8764888700218697 -0.21053205065866717 0.43294747530531075
vn -0.6072277210663256 -0.14585901578044697 0.781024738586529
vn -0.21691324166015563 -0.05210360271882388 0.9747993948378312
vn -0.21691324166015563 0.05210360271882388 -0.9747993948378312
vn -0.6072298887536594 0.1458562202818988 -0.7810235753223439
vn -0.8764874154248584 0.2105342322683758 -0.4329493592153908
vn -0.972342661490417 0.23355887618699536 5.186048838967569e-17
vn -0.8764878824699313 0.21053181344934024 0.4329495899167808
vn -0.6072295950415922 0.14585946591830845 0.7810231975477104
vn -0.21691324166015563 0.05210360271882345 0.9747993948378312
vn -0.17379529467130625 0.14585593588009385 -0.9739205519541396
vn -0.48354917924584123 0.405820979390321 -0.7755575568179023
vn -0.6927538096446596 0.5813931118880061 -0.4267015451952233
vn -0.7659880094096545 0.64285485876723 1.427424531391064e-16
vn -0.692752021728797 0.5813954733023634 0.4267012303874756
vn -0.4835520405775622 0.40581613880029677 0.7755583057014437
vn -0.17379529467130625 0.1458559358800934 0.9739205519541396
vn -0.09633767592302034 0.21053490481815287 -0.9728278912793169
vn -0.2660444155476596 0.5813948978335175 -0.7688955336904086
vn -0.37776078694249293 0.8255296030817522 -0.4192823181154594
vn -0.41610214391722944 0.9093178794170306 2.019091292864218e-16
vn -0.37775987834597596 0.8255300733317446 0.4192822108519724
vn -0.26603931838458017 0.5813983162593587 0.7688947125089696
vn -0.09633767592302037 0.21053490481815249 0.9728278912793171
vn 0 0.2335588761869956 -0.9723426614904171
vn 0 0.6428548587672303 -0.7659880094096543
vn 0 0.9093178794170307 -0.4161021439172292
vn 0 1 2.220446049250313e-16
vn 0 0.9093178794170305 0.4161021439172297
vn 0 0.6428548587672299 0.7659880094096546
vn 0 0.23355887618699517 0.9723426614904171
usemtl m_cf5ac213-316c-e8d1-eaa3-0ce92fd50427
f 147/539/139 153/540/139 146/541/139
f 147/542/140 148/543/140 154/544/140 153/545/140
f 148/546/141 149/547/141 155/548/141 154/549/141
f 149/550/142 150/551/142 156/552/142 155/553/142
f 150/554/143 151/555/143 157/556/143 156/557/143
f 151/558/144 152/559/144 158/560/144 157/561/144
f 158/562/145 152/563/145 145/564/145
f 153/565/146 159/566/146 146/567/146
f 153/568/147 154/569/147 160/570/147 159/571/147
f 154/572/148 155/573/148 161/574/148 160/575/148
f 155/576/149 156/577/149 162/578/149 161/579/149
f 156/580/150 157/581/150 163/582/150 162/583/150
f 157/584/151 158/585/151 164/586/151 163/587/151
f 164/588/152 158/589/152 145/590/152
f 159/591/153 165/592/153 146/593/153
f 159/594/154 160/595/154 166/596/154 165/597/154
f 160/598/155 161/599/155 167/600/155 166/601/155
f 161/602/156 162/603/156 168/604/156 167/605/156
f 162/606/157 163/607/157 169/608/157 168/609/157
f 163/610/158 164/611/158 170/612/158 169/613/158
f 170/614/159 164/615/159 145/616/159
f 165/617/160 171/618/160 146/619/160
f 165/620/161 166/621/161 172/622/161 171/623/161
f 166/624/162 167/625/162 173/626/162 172/627/162
f 167/628/163 168/629/163 174/630/163 173/631/163
f 168/632/164 169/633/164 175/634/164 174/635/164
f 169/636/165 170/637/165 176/638/165 175/639/165
f 176/640/166 170/641/166 145/642/166
f 171/643/167 177/644/167 146/645/167
f 171/646/168 172/647/168 178/648/168 177/649/168
f 172/650/169 173/651/169 179/652/169 178/653/169
f 173/654/170 174/655/170 180/656/170 179/657/170
f 174/658/171 175/659/171 181/660/171 180/661/171
f 175/662/172 176/663/172 182/664/172 181/665/172
f 182/666/173 176/667/173 145/668/173
f 177/669/174 183/670/174 146/671/174
f 177/672/175 178/673/175 184/674/175 183/675/175
f 178/676/176 179/677/176 185/678/176 184/679/176
f 179/680/177 180/681/177 186/682/177 185/683/177
f 180/684/178 181/685/178 187/686/178 186/687/178
f 181/688/179 182/689/179 188/690/179 187/691/179
f 188/692/180 182/693/180 145/694/180
f 183/695/181 189/696/181 146/697/181
f 183/698/182 184/699/182 190/700/182 189/701/182
f 184/702/183 185/703/183 191/704/183 190/705/183
f 185/706/184 186/707/184 192/708/184 191/709/184
f 186/710/185 187/711/185 193/712/185 192/713/185
f 187/714/186 188/715/186 194/716/186 193/717/186
f 194/718/187 188/719/187 145/720/187
f 189/721/188 195/722/188 146/723/188
f 189/724/189 190/725/189 196/726/189 195/727/189
f 190/728/190 191/729/190 197/730/190 196/731/190
f 191/732/191 192/733/191 198/734/191 197/735/191
f 192/736/192 193/737/192 199/738/192 198/739/192
f 193/740/193 194/741/193 200/742/193 199/743/193
f 200/744/194 194/745/194 145/746/194
f 195/747/195 201/748/195 146/749/195
f 195/750/196 196/751/196 202/752/196 201/753/196
f 196/754/197 197/755/197 203/756/197 202/757/197
f 197/758/198 198/759/198 204/760/198 203/761/198
f 198/762/199 199/763/199 205/764/199 204/765/199
f 199/766/200 200/767/200 206/768/200 205/769/200
f 206/770/201 200/771/201 145/772/201
f 201/773/202 207/774/202 146/775/202
f 201/776/203 202/777/203 208/778/203 207/779/203
f 202/780/204 203/781/204 209/782/204 208/783/204
f 203/784/205 204/785/205 210/786/205 209/787/205
f 204/788/206 205/789/206 211/790/206 210/791/206
f 205/792/207 206/793/207 212/794/207 211/795/207
f 212/796/208 206/797/208 145/798/208
f 207/799/209 213/800/209 146/801/209
f 207/802/210 208/803/210 214/804/210 213/805/210
f 208/806/211 209/807/211 215/808/211 214/809/211
f 209/810/212 210/811/212 216/812/212 215/813/212
f 210/814/213 211/815/213 217/816/213 216/817/213
f 211/818/214 212/819/214 218/820/214 217/821/214
f 218/822/215 212/823/215 145/824/215
f 213/825/216 219/826/216 146/827/216
f 213/828/217 214/829/217 220/830/217 219/831/217
f 214/832/218 215/833/218 144/834/218 220/835/218
f 215/836/219 216/837/219 221/838/219 144/839/219
f 216/840/220 217/841/220 222/842/220 221/843/220
f 217/844/221 218/845/221 223/846/221 222/847/221
f 223/848/222 218/849/222 145/850/222
f 219/851/223 224/852/223 146/853/223
f 219/854/224 220/855/224 225/856/224 224/857/224
f 220/858/225 144/859/225 226/860/225 225/861/225
f 144/862/226 221/863/226 227/864/226 226/865/226
f 221/866/227 222/867/227 228/868/227 227/869/227
f 222/870/228 223/871/228 229/872/228 228/873/228
f 229/874/229 223/875/229 145/876/229
f 224/877/230 147/878/230 146/879/230
f 224/880/231 225/881/231 148/882/231 147/883/231
f 225/884/232 226/885/232 149/886/232 148/887/232
f 226/888/233 227/889/233 150/890/233 149/891/233
f 227/892/234 228/893/234 151/894/234 150/895/234
f 228/896/235 229/897/235 152/898/235 151/899/235
f 152/900/236 229/901/236 145/902/236