# Made in Blockbench 5.1.5
mtllib YellowJacketBody.mtl

o Pelvis
v -0.1375 0.7875 -0.10036750000000001
v -0.1375 0.7875 0.10036749999999998
v -0.1375 0.666291875 -0.1003675
v -0.1375 0.666291875 0.1003675
v 0.1375 0.7875 -0.10036750000000001
v 0.1375 0.7875 0.10036749999999998
v 0.1375 0.666291875 -0.1003675
v 0.1375 0.666291875 0.1003675
v -0.04583312499999999 0.60625 -0.13125
v -0.04583312499999999 0.60625 0.13125
v 0.045833125000000016 0.60625 -0.13125
v 0.045833125000000016 0.60625 0.13125
v -0.04583312500000001 0.7875 0.13125
v 0.045833124999999995 0.7875 0.13125
v -0.04583312500000001 0.7875 -0.13125
v 0.045833124999999995 0.7875 -0.13125
vt 0.296875 0.421875
vt 0.25 0.421875
vt 0.25 0.390625
vt 0.296875 0.390625
vt 0.359375 0.390625
vt 0.359375 0.421875
vt 0.3125 0.421875
vt 0.3125 0.390625
vt 0.2859375 0.8795953125
vt 0.3088546875 0.871875
vt 0.3088546875 0.9375
vt 0.2859375 0.9297796875
vt 0.5139703125 0.84375
vt 0.50625 0.8125
vt 0.571875 0.8125
vt 0.5641546875 0.84375
vt 0.609375 0.6103234375
vt 0.640625 0.5953125
vt 0.640625 0.640625
vt 0.609375 0.640625
vt 0.640625 0.578125
vt 0.609375 0.578125
vt 0.609375 0.5328125
vt 0.640625 0.5478234375
vt 0.5139703125 0.796875
vt 0.50625 0.765625
vt 0.571875 0.765625
vt 0.5641546875 0.796875
vt 0.21875 0.34375
vt 0.203125 0.34375
vt 0.203125 0.28125
vt 0.21875 0.28125
vt 0.46875 0.36032343749999995
vt 0.5 0.3453125
vt 0.5 0.390625
vt 0.46875 0.390625
vt 0.15625 0.578125
vt 0.171875 0.578125
vt 0.171875 0.625
vt 0.15625 0.625
vt 0.3546875 0.9297796875
vt 0.3317703125 0.9375
vt 0.3317703125 0.871875
vt 0.3546875 0.8795953125
vt 0.3317703125 0.9375
vt 0.3088546875 0.9375
vt 0.3088546875 0.871875
vt 0.3317703125 0.871875
vt 0.640625 0.515625
vt 0.609375 0.515625
vt 0.609375 0.4703125
vt 0.640625 0.48532343749999995
vt 0.609375 0.3125
vt 0.59375 0.3125
vt 0.59375 0.265625
vt 0.609375 0.265625
vn -1 -1.2246467991473532e-16 1.4997597826618576e-32
vn 1 1.2246467991473532e-16 -1.4997597826618576e-32
vn -1.2246467991473532e-16 1 -1.2246467991473532e-16
vn 0.5479258001274667 -0.836526937734031 1.0244500366965182e-16
vn 0.3192674914318233 -7.695645559466948e-17 -0.9476646394768724
vn 0.3192674914318233 1.5515443788542697e-16 0.9476646394768724
vn -0.5479258001274665 -0.8365269377340312 1.0244500366965185e-16
vn 1.2246467991473532e-16 -1 1.2246467991473532e-16
vn -0.3192674914318233 7.695645559466948e-17 0.9476646394768724
vn 0 1.2246467991473532e-16 1
vn -1.2246467991473532e-16 1 -1.2246467991473532e-16
vn -1.2246467991473532e-16 1 -1.2246467991473532e-16
vn -0.3192674914318233 -1.5515443788542697e-16 -0.9476646394768724
vn 0 -1.2246467991473532e-16 -1
usemtl m_cf5ac213-316c-e8d1-eaa3-0ce92fd50427
f 2/1/1 1/2/1 3/3/1 4/4/1
f 7/5/2 5/6/2 6/7/2 8/8/2
f 5/9/3 16/10/3 14/11/3 6/12/3
f 8/13/4 12/14/4 11/15/4 7/16/4
f 7/17/5 11/18/5 16/19/5 5/20/5
f 6/21/6 14/22/6 12/23/6 8/24/6
f 3/25/7 9/26/7 10/27/7 4/28/7
f 9/29/8 11/30/8 12/31/8 10/32/8
f 4/33/9 10/34/9 13/35/9 2/36/9
f 10/37/10 12/38/10 14/39/10 13/40/10
f 2/41/11 13/42/11 15/43/11 1/44/11
f 13/45/12 14/46/12 16/47/12 15/48/12
f 1/49/13 15/50/13 9/51/13 3/52/13
f 15/53/14 16/54/14 11/55/14 9/56/14
o Thigh
v 0.21875 0.7 -0.09000000000000001
v 0.21875 0.7 0.08999999999999998
v 0.2125 0.375 -0.08999999999999998
v 0.2125 0.375 0.09000000000000001
v 0.05625000000000002 0.655 -0.09000000000000001
v 0.05625000000000002 0.655 0.08999999999999998
v 0.056249999999999994 0.375 -0.08999999999999998
v 0.056249999999999994 0.375 0.09000000000000001
v 0.24375000000000002 0.5635 -0.1125
v 0.24375000000000002 0.5635 0.1125
v 0.05625000000000001 0.5635 0.1125
v 0.05625000000000001 0.5635 -0.1125
v 0.1375 0.5635 -0.1125
v 0.1375 0.7025 -0.09000000000000001
v 0.1375 0.7025 0.08999999999999998
v 0.1375 0.5635 0.1125
v 0.13749999999999998 0.375 0.09000000000000001
v 0.13749999999999998 0.375 -0.08999999999999998
vt 0.425 0.875
vt 0.48125 0.875
vt 0.475625 0.828125
vt 0.430625 0.828125
vt 0.003125 0.664625
vt 0.059375 0.664625
vt 0.05375 0.6174999999999999
vt 0.00875 0.6174999999999999
vt 0.703125 0.671875
vt 0.75 0.671875
vt 0.75 0.65625
vt 0.703125 0.65625
vt 0.10234375 0.421875
vt 0.10234375 0.46687500000000004
vt 0.12109375 0.46687500000000004
vt 0.12109375 0.421875
vt 0.3796875 0.484375
vt 0.3796875 0.5318343750000001
vt 0.40625 0.5318343750000001
vt 0.3984375 0.484375
vt 0.3234375 0.5318343750000001
vt 0.3234375 0.484375
vt 0.3046875 0.484375
vt 0.296875 0.5318343750000001
vt 0.575 0.96875
vt 0.51875 0.96875
vt 0.524375 1
vt 0.569375 1
vt 0.4562059375 0.46875
vt 0.4562059375 0.43354843750000005
vt 0.4296434375 0.43354843750000005
vt 0.4358934375 0.468134375
vt 0.059375 0.664625
vt 0.003125 0.664625
vt 0.00875 0.6875
vt 0.05375 0.6875
vt 0.028125 0.41792343750000005
vt 0.028125 0.453125
vt 0.04843796875 0.4525084375
vt 0.0546875 0.41792281249999996
vt 0.028125 0.453125
vt 0.028125 0.41792343750000005
vt 0.0078125 0.41792343750000005
vt 0.0078125 0.441403125
vt 0.59375 1
vt 0.640625 1
vt 0.640625 0.96875
vt 0.59375 0.96875
vt 0.4562059375 0.4335475
vt 0.4562059375 0.46875
vt 0.4766065625 0.45702750000000003
vt 0.47643015625 0.4335471875
vt 0.3234375 0.484375
vt 0.3234375 0.5318343750000001
vt 0.34375 0.5318343750000001
vt 0.34375 0.484375
vt 0.10234375 0.46687500000000004
vt 0.10234375 0.421875
vt 0.08203125 0.421875
vt 0.08203125 0.46687500000000004
vt 0.3796875 0.5318343750000001
vt 0.3796875 0.484375
vt 0.359375 0.484375
vt 0.359375 0.5318343750000001
vn 0.986535007574868 -0.16355023335127133 2.0029126977343716e-17
vn -1 1.2246467991473532e-16 -1.4997597826618576e-32
vn 0.030754675786974106 0.9995269630766537 -1.2240674959932985e-16
vn -1.2246467991473532e-16 -1 1.2246467991473532e-16
vn -1.451476526097007e-17 -0.11852205281617385 -0.9929514202599441
vn -1.4514765260970067e-17 -0.11852205281617359 0.9929514202599441
vn 0.9836384960749286 0.18015357070969382 -2.2062449372459286e-17
vn 1.9568706904530698e-17 0.15979061814520895 0.9871509298748454
vn -1 1.2246467991473532e-16 -1.4997597826618576e-32
vn 0.004916574979921187 0.15978868684743822 -0.9871389987463967
vn 1.9568706904530698e-17 0.15979061814520873 -0.9871509298748457
vn -0.5046965873311559 0.8632967941190824 -1.0572336556321059e-16
vn -0.09301110178732783 0.15909793726779772 0.9828717013432829
vn -1.451476526097007e-17 -0.11852205281617362 0.9929514202599441
vn -1.2246467991473532e-16 -1 1.2246467991473532e-16
vn -1.451476526097007e-17 -0.11852205281617387 -0.9929514202599441
usemtl m_cf5ac213-316c-e8d1-eaa3-0ce92fd50427
f 25/57/15 26/58/15 20/59/15 19/60/15
f 27/61/16 28/62/16 23/63/16 24/64/16
f 30/65/17 31/66/17 18/67/17 17/68/17
f 33/69/18 34/70/18 19/71/18 20/72/18
f 34/73/19 29/74/19 25/75/19 19/76/19
f 32/77/20 33/78/20 20/79/20 26/80/20
f 26/81/21 25/82/21 17/83/21 18/84/21
f 31/85/22 32/86/22 26/87/22 18/88/22
f 28/89/23 27/90/23 22/91/23 21/92/23
f 29/93/24 30/94/24 17/95/24 25/96/24
f 30/97/25 29/98/25 28/99/25 21/100/25
f 31/101/26 30/102/26 21/103/26 22/104/26
f 32/105/27 31/106/27 22/107/27 27/108/27
f 33/109/28 32/110/28 27/111/28 24/112/28
f 34/113/29 33/114/29 24/115/29 23/116/29
f 29/117/30 34/118/30 23/119/30 28/120/30
o Shin
v 0.050000000000000044 0.36875 0.054166874999999975
v 0.22500000000000003 0.36874999999999997 -0.10000000000000003
v 0.22500000000000003 0.36875 0.10624999999999997
v 0.2625 0.09583374999999997 -0.11249999999999999
v 0.2625 0.16874999999999998 0.16875
v 0.050000000000000044 0.36874999999999997 -0.10000000000000003
v 0.050000000000000044 0.36875 0.10624999999999997
v 0.012500000000000011 0.09583375 -0.11249999999999999
v 0.012500000000000011 0.16875 0.16875
v 0.22013875 0.15833374999999997 -0.11249999999999999
v 0.21388875000000002 0.16875 0.16875
v 0.054861250000000014 0.15833375 -0.11249999999999999
v 0.061111250000000006 0.16875 0.16875
v 0.19097250000000004 0.36875 0.10624999999999997
v 0.08402750000000003 0.36875 0.10624999999999997
v 0.19097250000000004 0.36874999999999997 -0.10000000000000003
v 0.08402750000000003 0.36874999999999997 -0.10000000000000003
v 0.22500000000000003 0.36875 0.03749999999999998
v 0.2625 0.09583374999999998 0.05670750000000001
v 0.22500000000000003 0.36875 -0.022916875000000024
v 0.2625 0.09583374999999997 -0.027896249999999984
v 0.22013875 0.15833374999999997 0.015853750000000003
v 0.054861250000000014 0.15833375 0.015853750000000003
v 0.012500000000000011 0.09583375000000001 0.05670750000000001
v 0.012500000000000011 0.09583375 -0.027896249999999984
v 0.050000000000000044 0.36875 -0.022916875000000024
v 0.08402750000000003 0.36875 0.054166874999999975
v 0.08402750000000003 0.36875 -0.022916875000000024
v 0.19097250000000004 0.36875 0.054166874999999975
v 0.19097250000000004 0.36875 -0.022916875000000024
v 0.22013875 -2.7755575615628914e-17 -0.11249999999999996
v 0.2625 -2.7755575615628914e-17 -0.027896249999999984
v 0.22013875 0 0.015853750000000024
v 0.2625 -5.551115123125783e-17 -0.11249999999999996
v 0.2625 -2.7755575615628914e-17 0.05670750000000002
v 0.21388875000000002 0 0.05670750000000002
v 0.2625 0 0.16875000000000004
v 0.21388875000000002 2.7755575615628914e-17 0.16875000000000004
v 0.06111124999999999 0 0.05670750000000002
v 0.06111124999999999 2.7755575615628914e-17 0.16875000000000004
v 0.05486125 0 0.015853750000000024
v 0.012499999999999983 2.7755575615628914e-17 -0.027896249999999984
v 0.012499999999999983 2.7755575615628914e-17 0.05670750000000002
v 0.012499999999999983 5.551115123125783e-17 0.16875000000000004
v 0.012499999999999983 0 -0.11249999999999996
v 0.05486125 -2.7755575615628914e-17 -0.11249999999999996
v 0.21388875000000002 2.7755575615628914e-17 0.23125000000000004
v 0.21388875000000002 0.23125 0.23125
v 0.06111124999999999 2.7755575615628914e-17 0.23125000000000004
v 0.06111125000000002 0.23125000000000004 0.23125
vt 0.1200515625 0.828125
vt 0.1188078125 0.7592546875
vt 0.09765625 0.7592546875
vt 0.10078125 0.828125
vt 0.14687203125 0.86862953125
vt 0.14562828125 0.93749984375
vt 0.16489859375 0.93749984375
vt 0.16802359375 0.86862953125
vt 0.2359375 0.5302078125
vt 0.24444375 0.5302078125
vt 0.24444375 0.5109375
vt 0.2359375 0.5109375
vt 0.018403125 0.7569734375
vt 0.0078125 0.7679109375
vt 0.0078125 0.7890625
vt 0.018403125 0.7890625
vt 0.21332015625 0.9375
vt 0.20598796875 0.8848090625
vt 0.19533515625 0.8692259375
vt 0.20486375 0.93749953125
vt 0.315971875 0.5882406250000001
vt 0.31024375 0.640625
vt 0.31875 0.640625
vt 0.328125 0.5882406250000001
vt 0.0703125 0.7679109375
vt 0.059721875 0.7569734375
vt 0.059721875 0.7890625
vt 0.0703125 0.7890625
vt 0.125 0.375
vt 0.078125 0.375
vt 0.078125 0.40625
vt 0.125 0.40625
vt 0.28350625 0.640625
vt 0.277778125 0.5882406250000001
vt 0.265625 0.5882406250000001
vt 0.275 0.640625
vt 0.31024375 0.640625
vt 0.315971875 0.5882406250000001
vt 0.277778125 0.5882406250000001
vt 0.28350625 0.640625
vt 0.27118125 0.5302078125
vt 0.2796875 0.5302078125
vt 0.2796875 0.5109375
vt 0.27118125 0.5109375
vt 0.24444375 0.5302078125
vt 0.27118125 0.5302078125
vt 0.27118125 0.5109375
vt 0.24444375 0.5109375
vt 0.24730671875 0.88477625
vt 0.24005765625 0.93747890625
vt 0.24856390625 0.9374721875
vt 0.257885 0.869169375
vt 0.20598796875 0.88480890625
vt 0.21332015625 0.9375
vt 0.24005765625 0.93747890625
vt 0.24730671875 0.88477625
vt 0.1399578125 0.7592546875
vt 0.13515625 0.828125
vt 0.15234375 0.828125
vt 0.16796875 0.7773140625
vt 0.1188078125 0.7592546875
vt 0.1200515625 0.828125
vt 0.13515625 0.828125
vt 0.1399578125 0.7592546875
vt 0.058159375 0.7467609374999999
vt 0.0703125 0.7467609374999999
vt 0.0703125 0.71875
vt 0.058159375 0.71875
vt 0.059721875 0.7569734375
vt 0.0703125 0.7679109375
vt 0.0703125 0.7467609374999999
vt 0.058159375 0.7467609374999999
vt 0.019965625 0.7467609374999999
vt 0.058159375 0.7467609374999999
vt 0.058159375 0.71875
vt 0.019965625 0.71875
vt 0.018403125 0.7569734375
vt 0.059721875 0.7569734375
vt 0.058159375 0.7467609374999999
vt 0.019965625 0.7467609374999999
vt 0.0078125 0.7467609374999999
vt 0.019965625 0.7467609374999999
vt 0.019965625 0.71875
vt 0.0078125 0.71875
vt 0.0078125 0.7679109375
vt 0.018403125 0.7569734375
vt 0.019965625 0.7467609374999999
vt 0.0078125 0.7467609374999999
vt 0.12635640625 0.9375
vt 0.12572203125 0.86862953125
vt 0.09760140625 0.88668953125
vt 0.1133853125 0.93749875
vt 0.14562828125 0.93749984375
vt 0.14687203125 0.86862953125
vt 0.12572203125 0.86862953125
vt 0.12635640625 0.93749984375
vt 0.24444375 0.5494796875
vt 0.2359375 0.5494796875
vt 0.2359375 0.5625
vt 0.24444375 0.5625
vt 0.24444375 0.5302078125
vt 0.2359375 0.5302078125
vt 0.2359375 0.5494796875
vt 0.24444375 0.5494796875
vt 0.27118125 0.5494796875
vt 0.24444375 0.5494796875
vt 0.24444375 0.5625
vt 0.27118125 0.5625
vt 0.27118125 0.5302078125
vt 0.24444375 0.5302078125
vt 0.24444375 0.5494796875
vt 0.27118125 0.5494796875
vt 0.2796875 0.5453125
vt 0.27118125 0.5494796875
vt 0.27118125 0.5625
vt 0.2796875 0.5625
vt 0.2796875 0.5302078125
vt 0.27118125 0.5302078125
vt 0.27118125 0.5494796875
vt 0.2796875 0.5453125
vt 0.40625 0.421875
vt 0.40625 0.375
vt 0.375 0.375
vt 0.375 0.421875
vt 0.1188078125 0.7592546875
vt 0.1188078125 0.735296875
vt 0.09765625 0.735296875
vt 0.09765625 0.7592546875
vt 0.257885 0.869169375
vt 0.257885 0.8452115625000001
vt 0.247294375 0.8452115625000001
vt 0.247294375 0.884794375
vt 0.1399578125 0.7592546875
vt 0.1399578125 0.735296875
vt 0.1188078125 0.735296875
vt 0.1188078125 0.7592546875
vt 0.16796875 0.777484375
vt 0.16796875 0.735296875
vt 0.1399578125 0.735296875
vt 0.1399578125 0.7592546875
vt 0.53125 0.59375
vt 0.53125 0.53125
vt 0.5 0.53125
vt 0.5 0.59375
vt 0.5 1
vt 0.5 0.953125
vt 0.453125 0.953125
vt 0.453125 1
vt 0.14687203125 0.86862953125
vt 0.14687203125 0.84467171875
vt 0.12572203125 0.84467171875
vt 0.12572203125 0.86862953125
vt 0.12572203125 0.86862953125
vt 0.12572203125 0.84467171875
vt 0.09771109375 0.84467171875
vt 0.09771109375 0.88685921875
vt 0.16802359375 0.86862953125
vt 0.16802359375 0.84467171875
vt 0.14687203125 0.84467171875
vt 0.14687203125 0.86862953125
vt 0.171875 0.40625
vt 0.171875 0.359375
vt 0.140625 0.359375
vt 0.140625 0.40625
vt 0.2059878125 0.88480875
vt 0.205830625 0.8452262500000001
vt 0.19524 0.84526828125
vt 0.19533515625 0.8692259375
vt 0.0703125 0.71875
vt 0.058159375 0.703125
vt 0.058159375 0.71875
vt 0.565971875 0.36852656250000004
vt 0.565971875 0.390625
vt 0.578125 0.36852656250000004
vt 0.65625 0.515625
vt 0.671875 0.53125
vt 0.671875 0.46875
vt 0.65625 0.46875
vt 0.058159375 0.71875
vt 0.058159375 0.703125
vt 0.019965625 0.703125
vt 0.019965625 0.71875
vt 0.527778125 0.36852656250000004
vt 0.527778125 0.390625
vt 0.565971875 0.390625
vt 0.565971875 0.36852656250000004
vt 0.019965625 0.71875
vt 0.019965625 0.703125
vt 0.0078125 0.71875
vt 0.671875 0.546875
vt 0.65625 0.546875
vt 0.65625 0.609375
vt 0.671875 0.59375
vt 0.515625 0.36852656250000004
vt 0.527778125 0.390625
vt 0.527778125 0.36852656250000004
vn 0.990691564389046 0.13612576629126777 -1.6670598397008172e-17
vn -0.9906915643890459 0.13612576629126794 -1.6670598397008197e-17
vn 1.2246467991473532e-16 1 -1.2246467991473532e-16
vn -1.2246467991473532e-16 -1 1.2246467991473532e-16
vn -0.10921776779900522 0.07402561865880967 -0.9912576289639254
vn 3.6528151560963606e-17 0.29827499313594696 0.9544799780350297
vn -1.2246467991473532e-16 -1 1.2246467991473532e-16
vn -1.2246467991473532e-16 -1 1.2246467991473532e-16
vn 3.65281515609636e-17 0.2982749931359469 0.9544799780350297
vn 3.6528151560963606e-17 0.29827499313594696 0.9544799780350298
vn 1.2246467991473532e-16 1 -1.2246467991473532e-16
vn 1.2246467991473532e-16 1 -1.2246467991473532e-16
vn 7.262340502801028e-18 0.05930151050782427 -0.9982401168313616
vn 7.262340502801029e-18 0.05930151050782428 -0.9982401168313617
vn 0.990691564389046 0.13612576629126774 -1.667059839700817e-17
vn 0.990691564389046 0.13612576629126777 -1.6670598397008172e-17
vn -1.2246467991473532e-16 -1 1.2246467991473532e-16
vn -1.2246467991473532e-16 -1 1.2246467991473532e-16
vn -1.2246467991473532e-16 -1 1.2246467991473532e-16
vn -1.2246467991473532e-16 -1 1.2246467991473532e-16
vn -1.2246467991473532e-16 -1 1.2246467991473532e-16
vn -1.2246467991473532e-16 -1 1.2246467991473532e-16
vn -0.9869818829084115 0.13479937957363117 -0.08772622228918284
vn -0.990691564389046 0.13612576629126796 -1.66705983970082e-17
vn 1.2246467991473532e-16 1 -1.2246467991473532e-16
vn 1.2246467991473532e-16 1 -1.2246467991473532e-16
vn 1.2246467991473532e-16 1 -1.2246467991473532e-16
vn 1.2246467991473532e-16 1 -1.2246467991473532e-16
vn 1.2246467991473532e-16 1 -1.2246467991473532e-16
vn 1.2246467991473532e-16 1 -1.2246467991473532e-16
vn -1 1.2246467991473532e-16 -1.4997597826618576e-32
vn 1 -1.2246467991473532e-16 1.4997597826618576e-32
vn 0 -1.2246467991473532e-16 -1
vn 1 -1.2246467991473532e-16 1.4997597826618576e-32
vn 1 -1.2246467991473532e-16 1.4997597826618576e-32
vn 0 1.2246467991473532e-16 1
vn 0 -1.2246467991473532e-16 -1
vn -1 1.2246467991473532e-16 -1.4997597826618576e-32
vn -1 1.2246467991473532e-16 -1.4997597826618576e-32
vn -1 1.2246467991473532e-16 -1.4997597826618576e-32
vn 1 -1.2246467991473532e-16 1.4997597826618576e-32
vn 0 -1.2246467991473532e-16 -1
vn -1.2246467991473532e-16 -1 1.2246467991473532e-16
vn 8.659560562354934e-17 0.7071067811865475 -0.7071067811865477
vn 0.7893513673048664 -2.1481487969027503e-17 0.613941706462379
vn -1.2246467991473532e-16 -1 1.2246467991473532e-16
vn 8.659560562354934e-17 0.7071067811865475 -0.7071067811865477
vn -1.2246467991473532e-16 -1 1.2246467991473532e-16
vn -0.7893513673048664 1.7185383710547076e-16 0.613941706462379
vn 8.659560562354934e-17 0.7071067811865475 -0.7071067811865477
usemtl m_cf5ac213-316c-e8d1-eaa3-0ce92fd50427
f 54/121/31 55/122/31 38/123/31 36/124/31
f 59/125/32 60/126/32 40/127/32 42/128/32
f 60/129/33 62/130/33 51/131/33 40/132/33
f 75/133/34 76/134/34 79/135/34 80/136/34
f 51/137/35 46/138/35 42/139/35 40/140/35
f 47/141/36 49/142/36 41/143/36 43/144/36
f 66/145/37 67/146/37 65/147/37 68/148/37
f 56/149/38 57/150/38 46/151/38 44/152/38
f 48/153/39 45/154/39 39/155/39 37/156/39
f 49/157/40 47/158/40 45/159/40 48/160/40
f 64/161/41 54/162/41 36/163/41 50/164/41
f 62/165/42 64/166/42 50/167/42 51/168/42
f 44/169/43 50/170/43 36/171/43 38/172/43
f 46/173/44 51/174/44 50/175/44 44/176/44
f 53/177/45 52/178/45 37/179/45 39/180/45
f 55/181/46 54/182/46 52/183/46 53/184/46
f 70/185/47 69/186/47 71/187/47 72/188/47
f 67/189/48 66/190/48 69/191/48 70/192/48
f 73/193/49 70/194/49 72/195/49 74/196/49
f 75/197/50 67/198/50 70/199/50 73/200/50
f 77/201/51 73/202/51 74/203/51 78/204/51
f 76/205/52 75/206/52 73/207/52 77/208/52
f 35/209/53 58/210/53 43/211/53 41/212/53
f 60/213/54 59/214/54 58/215/54 35/216/54
f 61/217/55 35/218/55 41/219/55 49/220/55
f 62/221/56 60/222/56 35/223/56 61/224/56
f 63/225/57 61/226/57 49/227/57 48/228/57
f 64/229/58 62/230/58 61/231/58 63/232/58
f 52/233/59 63/234/59 48/235/59 37/236/59
f 54/237/60 64/238/60 63/239/60 52/240/60
f 44/241/61 65/242/61 67/243/61 56/244/61
f 55/245/62 66/246/62 68/247/62 38/248/62
f 38/249/63 68/250/63 65/251/63 44/252/63
f 53/253/64 69/254/64 66/255/64 55/256/64
f 39/257/65 71/258/65 69/259/65 53/260/65
f 84/261/66 83/262/66 81/263/66 82/264/66
f 56/265/67 67/266/67 75/267/67 57/268/67
f 59/269/68 76/270/68 77/271/68 58/272/68
f 58/273/69 77/274/69 78/275/69 43/276/69
f 42/277/70 79/278/70 76/279/70 59/280/70
f 57/281/71 75/282/71 80/283/71 46/284/71
f 46/285/72 80/286/72 79/287/72 42/288/72
f 71/289/73 81/290/73 72/291/73
f 45/292/74 82/293/74 39/294/74
f 39/295/75 82/296/75 81/297/75 71/298/75
f 72/299/76 81/300/76 83/301/76 74/302/76
f 47/303/77 84/304/77 82/305/77 45/306/77
f 74/307/78 83/308/78 78/309/78
f 78/310/79 83/311/79 84/312/79 43/313/79
f 43/314/80 84/315/80 47/316/80
o Toe
v 0.21250000000000002 0.03124999999999997 -0.22499999999999998
v 0.21250000000000002 0.15625 0.012499999999999983
v 0.2125 -2.7755575615628914e-17 -0.22499999999999998
v 0.2125 0 0.012500000000000011
v 0.06250000000000001 0.03124999999999999 -0.22499999999999998
v 0.06250000000000003 0.15625 0.012499999999999983
v 0.0625 -1.3877787807814457e-17 -0.22499999999999998
v 0.0625 1.3877787807814457e-17 0.012500000000000011
v 0.21250000000000002 0.15624999999999997 -0.08125000000000002
v 0.2125 -1.3877787807814457e-17 -0.08124999999999999
v 0.0625 0 -0.08124999999999999
v 0.06250000000000003 0.15625 -0.08125000000000002
vt 0.459375 0.59375
vt 0.459375 0.5546875
vt 0.4234375 0.5546875
vt 0.4234375 0.5625
vt 0.18125 0.515625
vt 0.18125 0.5546875
vt 0.2171875 0.5234375
vt 0.2171875 0.515625
vt 0.1875 0.40625
vt 0.21875 0.40625
vt 0.21875 0.359375
vt 0.1875 0.359375
vt 0.1203125 0.5078125
vt 0.0828125 0.5078125
vt 0.0828125 0.54375
vt 0.1203125 0.54375
vt 0.765625 0.3125
vt 0.796875 0.3125
vt 0.796875 0.296875
vt 0.765625 0.296875
vt 0.59375 0.796875
vt 0.59375 0.84375
vt 0.625 0.84375
vt 0.625 0.796875
vt 0.459375 0.5546875
vt 0.459375 0.59375
vt 0.4828125 0.59375
vt 0.4828125 0.5546875
vt 0.0828125 0.5078125
vt 0.1203125 0.5078125
vt 0.1203125 0.484375
vt 0.0828125 0.484375
vt 0.18125 0.5546875
vt 0.18125 0.515625
vt 0.1578125 0.515625
vt 0.1578125 0.5546875
vt 0.21875 0.65625
vt 0.1875 0.65625
vt 0.1875 0.6875
vt 0.21875 0.6875
vn 1 -1.2246467991473532e-16 1.4997597826618576e-32
vn -1 1.2246467991473532e-16 -1.4997597826618576e-32
vn 9.241252373364532e-17 0.7546055221635046 -0.6561787149247869
vn -1.2246467991473532e-16 -1 1.2246467991473532e-16
vn 0 -1.2246467991473532e-16 -1
vn 0 1.2246467991473532e-16 1
vn 1 -1.2246467991473532e-16 1.4997597826618576e-32
vn -1.2246467991473532e-16 -1 1.2246467991473532e-16
vn -1 1.2246467991473532e-16 -1.4997597826618576e-32
vn 1.2246467991473532e-16 1 -1.2246467991473532e-16
usemtl m_cf5ac213-316c-e8d1-eaa3-0ce92fd50427
f 93/317/81 94/318/81 87/319/81 85/320/81
f 95/321/82 96/322/82 89/323/82 91/324/82
f 96/325/83 93/326/83 85/327/83 89/328/83
f 94/329/84 95/330/84 91/331/84 87/332/84
f 89/333/85 85/334/85 87/335/85 91/336/85
f 88/337/86 86/338/86 90/339/86 92/340/86
f 94/341/87 93/342/87 86/343/87 88/344/87
f 95/345/88 94/346/88 88/347/88 92/348/88
f 96/349/89 95/350/89 92/351/89 90/352/89
f 93/353/90 96/354/90 90/355/90 86/356/90
o Thigh
v -0.21875 0.7 -0.09000000000000001
v -0.21875 0.7 0.08999999999999998
v -0.2125 0.375 -0.08999999999999998
v -0.2125 0.375 0.09000000000000001
v -0.05625000000000002 0.655 -0.09000000000000001
v -0.05625000000000002 0.655 0.08999999999999998
v -0.056249999999999994 0.375 -0.08999999999999998
v -0.056249999999999994 0.375 0.09000000000000001
v -0.24375000000000002 0.5635 -0.1125
v -0.24375000000000002 0.5635 0.1125
v -0.05625000000000001 0.5635 0.1125
v -0.05625000000000001 0.5635 -0.1125
v -0.1375 0.5635 -0.1125
v -0.1375 0.7025 -0.09000000000000001
v -0.1375 0.7025 0.08999999999999998
v -0.1375 0.5635 0.1125
v -0.13749999999999998 0.375 0.09000000000000001
v -0.13749999999999998 0.375 -0.08999999999999998
vt 0.475625 0.828125
vt 0.48125 0.875
vt 0.425 0.875
vt 0.430625 0.828125
vt 0.05375 0.6174999999999999
vt 0.059375 0.664625
vt 0.003125 0.664625
vt 0.00875 0.6174999999999999
vt 0.75 0.65625
vt 0.75 0.671875
vt 0.703125 0.671875
vt 0.703125 0.65625
vt 0.12109375 0.46687500000000004
vt 0.10234375 0.46687500000000004
vt 0.10234375 0.421875
vt 0.12109375 0.421875
vt 0.40625 0.5318343750000001
vt 0.3796875 0.5318343750000001
vt 0.3796875 0.484375
vt 0.3984375 0.484375
vt 0.3046875 0.484375
vt 0.3234375 0.484375
vt 0.3234375 0.5318343750000001
vt 0.296875 0.5318343750000001
vt 0.524375 1
vt 0.51875 0.96875
vt 0.575 0.96875
vt 0.569375 1
vt 0.4296434375 0.43354843750000005
vt 0.4562059375 0.43354843750000005
vt 0.4562059375 0.46875
vt 0.4358934375 0.468134375
vt 0.00875 0.6875
vt 0.003125 0.664625
vt 0.059375 0.664625
vt 0.05375 0.6875
vt 0.04843796875 0.4525084375
vt 0.028125 0.453125
vt 0.028125 0.41792343750000005
vt 0.0546875 0.41792281249999996
vt 0.0078125 0.41792343750000005
vt 0.028125 0.41792343750000005
vt 0.028125 0.453125
vt 0.0078125 0.441403125
vt 0.640625 0.96875
vt 0.640625 1
vt 0.59375 1
vt 0.59375 0.96875
vt 0.4766065625 0.45702750000000003
vt 0.4562059375 0.46875
vt 0.4562059375 0.4335475
vt 0.47643015625 0.4335471875
vt 0.34375 0.5318343750000001
vt 0.3234375 0.5318343750000001
vt 0.3234375 0.484375
vt 0.34375 0.484375
vt 0.08203125 0.421875
vt 0.10234375 0.421875
vt 0.10234375 0.46687500000000004
vt 0.08203125 0.46687500000000004
vt 0.359375 0.484375
vt 0.3796875 0.484375
vt 0.3796875 0.5318343750000001
vt 0.359375 0.5318343750000001
vn -0.9865350075748681 -0.16355023335127133 2.0029126977343716e-17
vn 1 1.2246467991473532e-16 -1.4997597826618576e-32
vn -0.030754675786974106 0.9995269630766537 -1.2240674959932985e-16
vn 1.2246467991473532e-16 -1 1.2246467991473532e-16
vn 1.451476526097007e-17 -0.11852205281617385 -0.9929514202599441
vn 1.4514765260970067e-17 -0.11852205281617359 0.9929514202599441
vn -0.9836384960749286 0.18015357070969382 -2.2062449372459286e-17
vn -1.9568706904530698e-17 0.15979061814520895 0.9871509298748454
vn 1 1.2246467991473532e-16 -1.4997597826618576e-32
vn -0.004916574979921203 0.15978868684743822 -0.9871389987463967
vn -1.9568706904530698e-17 0.15979061814520873 -0.9871509298748457
vn 0.5046965873311559 0.8632967941190824 -1.0572336556321059e-16
vn 0.09301110178732787 0.15909793726779772 0.9828717013432829
vn 1.451476526097007e-17 -0.11852205281617362 0.9929514202599441
vn 1.2246467991473532e-16 -1 1.2246467991473532e-16
vn 1.451476526097007e-17 -0.11852205281617387 -0.9929514202599441
usemtl m_cf5ac213-316c-e8d1-eaa3-0ce92fd50427
f 100/357/91 106/358/91 105/359/91 99/360/91
f 103/361/92 108/362/92 107/363/92 104/364/92
f 98/365/93 111/366/93 110/367/93 97/368/93
f 99/369/94 114/370/94 113/371/94 100/372/94
f 105/373/95 109/374/95 114/375/95 99/376/95
f 100/377/96 113/378/96 112/379/96 106/380/96
f 97/381/97 105/382/97 106/383/97 98/384/97
f 106/385/98 112/386/98 111/387/98 98/388/98
f 102/389/99 107/390/99 108/391/99 101/392/99
f 97/393/100 110/394/100 109/395/100 105/396/100
f 108/397/101 109/398/101 110/399/101 101/400/101
f 101/401/102 110/402/102 111/403/102 102/404/102
f 102/405/103 111/406/103 112/407/103 107/408/103
f 107/409/104 112/410/104 113/411/104 104/412/104
f 104/413/105 113/414/105 114/415/105 103/416/105
f 103/417/106 114/418/106 109/419/106 108/420/106
o Shin
v -0.050000000000000044 0.36875 0.054166874999999975
v -0.22500000000000003 0.36874999999999997 -0.10000000000000003
v -0.22500000000000003 0.36875 0.10624999999999997
v -0.2625 0.09583374999999997 -0.11249999999999999
v -0.2625 0.16874999999999998 0.16875
v -0.050000000000000044 0.36874999999999997 -0.10000000000000003
v -0.050000000000000044 0.36875 0.10624999999999997
v -0.012500000000000011 0.09583375 -0.11249999999999999
v -0.012500000000000011 0.16875 0.16875
v -0.22013875 0.15833374999999997 -0.11249999999999999
v -0.21388875000000002 0.16875 0.16875
v -0.054861250000000014 0.15833375 -0.11249999999999999
v -0.061111250000000006 0.16875 0.16875
v -0.19097250000000004 0.36875 0.10624999999999997
v -0.08402750000000003 0.36875 0.10624999999999997
v -0.19097250000000004 0.36874999999999997 -0.10000000000000003
v -0.08402750000000003 0.36874999999999997 -0.10000000000000003
v -0.22500000000000003 0.36875 0.03749999999999998
v -0.2625 0.09583374999999998 0.05670750000000001
v -0.22500000000000003 0.36875 -0.022916875000000024
v -0.2625 0.09583374999999997 -0.027896249999999984
v -0.22013875 0.15833374999999997 0.015853750000000003
v -0.054861250000000014 0.15833375 0.015853750000000003
v -0.012500000000000011 0.09583375000000001 0.05670750000000001
v -0.012500000000000011 0.09583375 -0.027896249999999984
v -0.050000000000000044 0.36875 -0.022916875000000024
v -0.08402750000000003 0.36875 0.054166874999999975
v -0.08402750000000003 0.36875 -0.022916875000000024
v -0.19097250000000004 0.36875 0.054166874999999975
v -0.19097250000000004 0.36875 -0.022916875000000024
v -0.22013875 -2.7755575615628914e-17 -0.11249999999999996
v -0.2625 -2.7755575615628914e-17 -0.027896249999999984
v -0.22013875 0 0.015853750000000024
v -0.2625 -5.551115123125783e-17 -0.11249999999999996
v -0.2625 -2.7755575615628914e-17 0.05670750000000002
v -0.21388875000000002 0 0.05670750000000002
v -0.2625 0 0.16875000000000004
v -0.21388875000000002 2.7755575615628914e-17 0.16875000000000004
v -0.06111124999999999 0 0.05670750000000002
v -0.06111124999999999 2.7755575615628914e-17 0.16875000000000004
v -0.05486125 0 0.015853750000000024
v -0.012499999999999983 2.7755575615628914e-17 -0.027896249999999984
v -0.012499999999999983 2.7755575615628914e-17 0.05670750000000002
v -0.012499999999999983 5.551115123125783e-17 0.16875000000000004
v -0.012499999999999983 0 -0.11249999999999996
v -0.05486125 -2.7755575615628914e-17 -0.11249999999999996
v -0.21388875000000002 2.7755575615628914e-17 0.23125000000000004
v -0.21388875000000002 0.23125 0.23125
v -0.06111124999999999 2.7755575615628914e-17 0.23125000000000004
v -0.06111125000000002 0.23125000000000004 0.23125
vt 0.09765625 0.7592546875
vt 0.1188078125 0.7592546875
vt 0.1200515625 0.828125
vt 0.10078125 0.828125
vt 0.16489859375 0.93749984375
vt 0.14562828125 0.93749984375
vt 0.14687203125 0.86862953125
vt 0.16802359375 0.86862953125
vt 0.24444375 0.5109375
vt 0.24444375 0.5302078125
vt 0.2359375 0.5302078125
vt 0.2359375 0.5109375
vt 0.0078125 0.7890625
vt 0.0078125 0.7679109375
vt 0.018403125 0.7569734375
vt 0.018403125 0.7890625
vt 0.19533515625 0.8692259375
vt 0.20598796875 0.8848090625
vt 0.21332015625 0.9375
vt 0.20486375 0.93749953125
vt 0.31875 0.640625
vt 0.31024375 0.640625
vt 0.315971875 0.5882406250000001
vt 0.328125 0.5882406250000001
vt 0.059721875 0.7890625
vt 0.059721875 0.7569734375
vt 0.0703125 0.7679109375
vt 0.0703125 0.7890625
vt 0.078125 0.40625
vt 0.078125 0.375
vt 0.125 0.375
vt 0.125 0.40625
vt 0.265625 0.5882406250000001
vt 0.277778125 0.5882406250000001
vt 0.28350625 0.640625
vt 0.275 0.640625
vt 0.277778125 0.5882406250000001
vt 0.315971875 0.5882406250000001
vt 0.31024375 0.640625
vt 0.28350625 0.640625
vt 0.2796875 0.5109375
vt 0.2796875 0.5302078125
vt 0.27118125 0.5302078125
vt 0.27118125 0.5109375
vt 0.27118125 0.5109375
vt 0.27118125 0.5302078125
vt 0.24444375 0.5302078125
vt 0.24444375 0.5109375
vt 0.24856390625 0.9374721875
vt 0.24005765625 0.93747890625
vt 0.24730671875 0.88477625
vt 0.257885 0.869169375
vt 0.24005765625 0.93747890625
vt 0.21332015625 0.9375
vt 0.20598796875 0.88480890625
vt 0.24730671875 0.88477625
vt 0.15234375 0.828125
vt 0.13515625 0.828125
vt 0.1399578125 0.7592546875
vt 0.16796875 0.7773140625
vt 0.13515625 0.828125
vt 0.1200515625 0.828125
vt 0.1188078125 0.7592546875
vt 0.1399578125 0.7592546875
vt 0.0703125 0.71875
vt 0.0703125 0.7467609374999999
vt 0.058159375 0.7467609374999999
vt 0.058159375 0.71875
vt 0.0703125 0.7467609374999999
vt 0.0703125 0.7679109375
vt 0.059721875 0.7569734375
vt 0.058159375 0.7467609374999999
vt 0.058159375 0.71875
vt 0.058159375 0.7467609374999999
vt 0.019965625 0.7467609374999999
vt 0.019965625 0.71875
vt 0.058159375 0.7467609374999999
vt 0.059721875 0.7569734375
vt 0.018403125 0.7569734375
vt 0.019965625 0.7467609374999999
vt 0.019965625 0.71875
vt 0.019965625 0.7467609374999999
vt 0.0078125 0.7467609374999999
vt 0.0078125 0.71875
vt 0.019965625 0.7467609374999999
vt 0.018403125 0.7569734375
vt 0.0078125 0.7679109375
vt 0.0078125 0.7467609374999999
vt 0.09760140625 0.88668953125
vt 0.12572203125 0.86862953125
vt 0.12635640625 0.9375
vt 0.1133853125 0.93749875
vt 0.12572203125 0.86862953125
vt 0.14687203125 0.86862953125
vt 0.14562828125 0.93749984375
vt 0.12635640625 0.93749984375
vt 0.2359375 0.5625
vt 0.2359375 0.5494796875
vt 0.24444375 0.5494796875
vt 0.24444375 0.5625
vt 0.2359375 0.5494796875
vt 0.2359375 0.5302078125
vt 0.24444375 0.5302078125
vt 0.24444375 0.5494796875
vt 0.24444375 0.5625
vt 0.24444375 0.5494796875
vt 0.27118125 0.5494796875
vt 0.27118125 0.5625
vt 0.24444375 0.5494796875
vt 0.24444375 0.5302078125
vt 0.27118125 0.5302078125
vt 0.27118125 0.5494796875
vt 0.27118125 0.5625
vt 0.27118125 0.5494796875
vt 0.2796875 0.5453125
vt 0.2796875 0.5625
vt 0.27118125 0.5494796875
vt 0.27118125 0.5302078125
vt 0.2796875 0.5302078125
vt 0.2796875 0.5453125
vt 0.375 0.375
vt 0.40625 0.375
vt 0.40625 0.421875
vt 0.375 0.421875
vt 0.09765625 0.735296875
vt 0.1188078125 0.735296875
vt 0.1188078125 0.7592546875
vt 0.09765625 0.7592546875
vt 0.247294375 0.8452115625000001
vt 0.257885 0.8452115625000001
vt 0.257885 0.869169375
vt 0.247294375 0.884794375
vt 0.1188078125 0.735296875
vt 0.1399578125 0.735296875
vt 0.1399578125 0.7592546875
vt 0.1188078125 0.7592546875
vt 0.1399578125 0.735296875
vt 0.16796875 0.735296875
vt 0.16796875 0.777484375
vt 0.1399578125 0.7592546875
vt 0.5 0.53125
vt 0.53125 0.53125
vt 0.53125 0.59375
vt 0.5 0.59375
vt 0.453125 0.953125
vt 0.5 0.953125
vt 0.5 1
vt 0.453125 1
vt 0.12572203125 0.84467171875
vt 0.14687203125 0.84467171875
vt 0.14687203125 0.86862953125
vt 0.12572203125 0.86862953125
vt 0.09771109375 0.84467171875
vt 0.12572203125 0.84467171875
vt 0.12572203125 0.86862953125
vt 0.09771109375 0.88685921875
vt 0.14687203125 0.84467171875
vt 0.16802359375 0.84467171875
vt 0.16802359375 0.86862953125
vt 0.14687203125 0.86862953125
vt 0.140625 0.359375
vt 0.171875 0.359375
vt 0.171875 0.40625
vt 0.140625 0.40625
vt 0.19524 0.84526828125
vt 0.205830625 0.8452262500000001
vt 0.2059878125 0.88480875
vt 0.19533515625 0.8692259375
vt 0.058159375 0.703125
vt 0.0703125 0.71875
vt 0.058159375 0.71875
vt 0.565971875 0.390625
vt 0.565971875 0.36852656250000004
vt 0.578125 0.36852656250000004
vt 0.671875 0.46875
vt 0.671875 0.53125
vt 0.65625 0.515625
vt 0.65625 0.46875
vt 0.019965625 0.703125
vt 0.058159375 0.703125
vt 0.058159375 0.71875
vt 0.019965625 0.71875
vt 0.565971875 0.390625
vt 0.527778125 0.390625
vt 0.527778125 0.36852656250000004
vt 0.565971875 0.36852656250000004
vt 0.019965625 0.703125
vt 0.019965625 0.71875
vt 0.0078125 0.71875
vt 0.65625 0.609375
vt 0.65625 0.546875
vt 0.671875 0.546875
vt 0.671875 0.59375
vt 0.527778125 0.390625
vt 0.515625 0.36852656250000004
vt 0.527778125 0.36852656250000004
vn -0.990691564389046 0.13612576629126774 -1.667059839700817e-17
vn 0.9906915643890459 0.13612576629126796 -1.66705983970082e-17
vn -1.2246467991473532e-16 1 -1.2246467991473532e-16
vn 1.2246467991473532e-16 -1 1.2246467991473532e-16
vn 0.10921776779900527 0.07402561865880969 -0.9912576289639254
vn -3.6528151560963606e-17 0.29827499313594696 0.9544799780350297
vn 1.2246467991473532e-16 -1 1.2246467991473532e-16
vn 1.2246467991473532e-16 -1 1.2246467991473532e-16
vn -3.6528151560963606e-17 0.29827499313594696 0.9544799780350297
vn -3.6528151560963606e-17 0.29827499313594696 0.9544799780350298
vn -1.2246467991473532e-16 1 -1.2246467991473532e-16
vn -1.2246467991473532e-16 1 -1.2246467991473532e-16
vn -7.262340502801028e-18 0.05930151050782427 -0.9982401168313616
vn -7.262340502801026e-18 0.059301510507824264 -0.9982401168313617
vn -0.990691564389046 0.13612576629126774 -1.667059839700817e-17
vn -0.990691564389046 0.13612576629126774 -1.667059839700817e-17
vn 1.2246467991473532e-16 -1 1.2246467991473532e-16
vn 1.2246467991473532e-16 -1 1.2246467991473532e-16
vn 1.2246467991473532e-16 -1 1.2246467991473532e-16
vn 1.2246467991473532e-16 -1 1.2246467991473532e-16
vn 1.2246467991473532e-16 -1 1.2246467991473532e-16
vn 1.2246467991473532e-16 -1 1.2246467991473532e-16
vn 0.9869818829084115 0.13479937957363117 -0.0877262222891829
vn 0.990691564389046 0.13612576629126796 -1.66705983970082e-17
vn -1.2246467991473532e-16 1 -1.2246467991473532e-16
vn -1.2246467991473532e-16 1 -1.2246467991473532e-16
vn -1.2246467991473532e-16 1 -1.2246467991473532e-16
vn -1.2246467991473532e-16 1 -1.2246467991473532e-16
vn -1.2246467991473532e-16 1 -1.2246467991473532e-16
vn -1.2246467991473532e-16 1 -1.2246467991473532e-16
vn 1 1.2246467991473532e-16 -1.4997597826618576e-32
vn -1 -1.2246467991473532e-16 1.4997597826618576e-32
vn 0 -1.2246467991473532e-16 -1
vn -1 -1.2246467991473532e-16 1.4997597826618576e-32
vn -1 -1.2246467991473532e-16 1.4997597826618576e-32
vn 0 1.2246467991473532e-16 1
vn 0 -1.2246467991473532e-16 -1
vn 1 1.2246467991473532e-16 -1.4997597826618576e-32
vn 1 1.2246467991473532e-16 -1.4997597826618576e-32
vn 1 1.2246467991473532e-16 -1.4997597826618576e-32
vn -1 -1.2246467991473532e-16 1.4997597826618576e-32
vn 0 -1.2246467991473532e-16 -1
vn 1.2246467991473532e-16 -1 1.2246467991473532e-16
vn -8.659560562354934e-17 0.7071067811865475 -0.7071067811865477
vn -0.7893513673048664 -2.1481487969027503e-17 0.613941706462379
vn 1.2246467991473532e-16 -1 1.2246467991473532e-16
vn -8.659560562354934e-17 0.7071067811865475 -0.7071067811865477
vn 1.2246467991473532e-16 -1 1.2246467991473532e-16
vn 0.7893513673048664 1.7185383710547076e-16 0.613941706462379
vn -8.659560562354934e-17 0.7071067811865475 -0.7071067811865477
usemtl m_cf5ac213-316c-e8d1-eaa3-0ce92fd50427
f 118/421/107 135/422/107 134/423/107 116/424/107
f 120/425/108 140/426/108 139/427/108 122/428/108
f 131/429/109 142/430/109 140/431/109 120/432/109
f 159/433/110 156/434/110 155/435/110 160/436/110
f 122/437/111 126/438/111 131/439/111 120/440/111
f 121/441/112 129/442/112 127/443/112 123/444/112
f 145/445/113 147/446/113 146/447/113 148/448/113
f 126/449/114 137/450/114 136/451/114 124/452/114
f 119/453/115 125/454/115 128/455/115 117/456/115
f 125/457/116 127/458/116 129/459/116 128/460/116
f 116/461/117 134/462/117 144/463/117 130/464/117
f 130/465/118 144/466/118 142/467/118 131/468/118
f 116/469/119 130/470/119 124/471/119 118/472/119
f 130/473/120 131/474/120 126/475/120 124/476/120
f 117/477/121 132/478/121 133/479/121 119/480/121
f 132/481/122 134/482/122 135/483/122 133/484/122
f 151/485/123 149/486/123 150/487/123 152/488/123
f 149/489/124 146/490/124 147/491/124 150/492/124
f 152/493/125 150/494/125 153/495/125 154/496/125
f 150/497/126 147/498/126 155/499/126 153/500/126
f 154/501/127 153/502/127 157/503/127 158/504/127
f 153/505/128 155/506/128 156/507/128 157/508/128
f 123/509/129 138/510/129 115/511/129 121/512/129
f 138/513/130 139/514/130 140/515/130 115/516/130
f 121/517/131 115/518/131 141/519/131 129/520/131
f 115/521/132 140/522/132 142/523/132 141/524/132
f 129/525/133 141/526/133 143/527/133 128/528/133
f 141/529/134 142/530/134 144/531/134 143/532/134
f 128/533/135 143/534/135 132/535/135 117/536/135
f 143/537/136 144/538/136 134/539/136 132/540/136
f 147/541/137 145/542/137 124/543/137 136/544/137
f 148/545/138 146/546/138 135/547/138 118/548/138
f 145/549/139 148/550/139 118/551/139 124/552/139
f 146/553/140 149/554/140 133/555/140 135/556/140
f 149/557/141 151/558/141 119/559/141 133/560/141
f 161/561/142 163/562/142 164/563/142 162/564/142
f 155/565/143 147/566/143 136/567/143 137/568/143
f 157/569/144 156/570/144 139/571/144 138/572/144
f 158/573/145 157/574/145 138/575/145 123/576/145
f 156/577/146 159/578/146 122/579/146 139/580/146
f 160/581/147 155/582/147 137/583/147 126/584/147
f 159/585/148 160/586/148 126/587/148 122/588/148
f 161/589/149 151/590/149 152/591/149
f 162/592/150 125/593/150 119/594/150
f 161/595/151 162/596/151 119/597/151 151/598/151
f 163/599/152 161/600/152 152/601/152 154/602/152
f 162/603/153 164/604/153 127/605/153 125/606/153
f 163/607/154 154/608/154 158/609/154
f 164/610/155 163/611/155 158/612/155 123/613/155
f 164/614/156 123/615/156 127/616/156
o Toe
v -0.21250000000000002 0.03124999999999997 -0.22499999999999998
v -0.21250000000000002 0.15625 0.012499999999999983
v -0.2125 -2.7755575615628914e-17 -0.22499999999999998
v -0.2125 0 0.012500000000000011
v -0.06250000000000001 0.03124999999999999 -0.22499999999999998
v -0.06250000000000003 0.15625 0.012499999999999983
v -0.0625 -1.3877787807814457e-17 -0.22499999999999998
v -0.0625 1.3877787807814457e-17 0.012500000000000011
v -0.21250000000000002 0.15624999999999997 -0.08125000000000002
v -0.2125 -1.3877787807814457e-17 -0.08124999999999999
v -0.0625 0 -0.08124999999999999
v -0.06250000000000003 0.15625 -0.08125000000000002
vt 0.4234375 0.5546875
vt 0.459375 0.5546875
vt 0.459375 0.59375
vt 0.4234375 0.5625
vt 0.2171875 0.5234375
vt 0.18125 0.5546875
vt 0.18125 0.515625
vt 0.2171875 0.515625
vt 0.21875 0.359375
vt 0.21875 0.40625
vt 0.1875 0.40625
vt 0.1875 0.359375
vt 0.0828125 0.54375
vt 0.0828125 0.5078125
vt 0.1203125 0.5078125
vt 0.1203125 0.54375
vt 0.796875 0.296875
vt 0.796875 0.3125
vt 0.765625 0.3125
vt 0.765625 0.296875
vt 0.625 0.84375
vt 0.59375 0.84375
vt 0.59375 0.796875
vt 0.625 0.796875
vt 0.4828125 0.59375
vt 0.459375 0.59375
vt 0.459375 0.5546875
vt 0.4828125 0.5546875
vt 0.1203125 0.484375
vt 0.1203125 0.5078125
vt 0.0828125 0.5078125
vt 0.0828125 0.484375
vt 0.1578125 0.515625
vt 0.18125 0.515625
vt 0.18125 0.5546875
vt 0.1578125 0.5546875
vt 0.1875 0.6875
vt 0.1875 0.65625
vt 0.21875 0.65625
vt 0.21875 0.6875
vn -1 -1.2246467991473532e-16 1.4997597826618576e-32
vn 1 1.2246467991473532e-16 -1.4997597826618576e-32
vn -9.241252373364532e-17 0.7546055221635046 -0.6561787149247869
vn 1.2246467991473532e-16 -1 1.2246467991473532e-16
vn 0 -1.2246467991473532e-16 -1
vn 0 1.2246467991473532e-16 1
vn -1 -1.2246467991473532e-16 1.4997597826618576e-32
vn 1.2246467991473532e-16 -1 1.2246467991473532e-16
vn 1 1.2246467991473532e-16 -1.4997597826618576e-32
vn -1.2246467991473532e-16 1 -1.2246467991473532e-16
usemtl m_cf5ac213-316c-e8d1-eaa3-0ce92fd50427
f 167/617/157 174/618/157 173/619/157 165/620/157
f 169/621/158 176/622/158 175/623/158 171/624/158
f 165/625/159 173/626/159 176/627/159 169/628/159
f 171/629/160 175/630/160 174/631/160 167/632/160
f 167/633/161 165/634/161 169/635/161 171/636/161
f 170/637/162 166/638/162 168/639/162 172/640/162
f 166/641/163 173/642/163 174/643/163 168/644/163
f 168/645/164 174/646/164 175/647/164 172/648/164
f 172/649/165 175/650/165 176/651/165 170/652/165
f 170/653/166 176/654/166 173/655/166 166/656/166
o Body
v -0.16874999999999998 0.9273374999999999 -0.1116075
v -0.16874999999999998 0.9273374999999999 0.11160687500000001
v -0.12149999999999997 0.79375 -0.08928562499999998
v -0.12149999999999997 0.79375 0.08928562500000004
v 0.16875 0.9273374999999999 -0.1116075
v 0.16875 0.9273375 0.11160687500000001
v 0.12150000000000004 0.79375 -0.08928562499999998
v 0.12150000000000004 0.79375 0.08928562500000004
v 9.483380877459147e-18 0.9273375 0.15625
v 2.5842975220728703e-17 0.79375 0.12500000000000003
v 2.5842975220728703e-17 0.79375 -0.12499999999999997
v 9.483380877459147e-18 0.9273374999999999 -0.15625
v -0.12149999999999998 0.8605437499999999 -0.08928562499999998
v -0.12149999999999998 0.8605437499999999 0.08928562500000002
v 1.766402508204118e-17 0.8605437499999999 0.125
v 0.12150000000000002 0.86054375 0.08928562500000002
v 0.12150000000000002 0.8605437499999999 -0.08928562499999998
v 1.766402508204118e-17 0.8605437499999999 -0.12499999999999997
v 0.16875 1.0876425 -0.1116075
v -8.167091677425964e-18 1.07146875 -0.24062499999999998
v -1.3525422101756668e-17 1.11521875 0.15625
v 0.16875 1.0876425 0.111606875
v -0.16874999999999998 1.0876425 0.111606875
v -0.16874999999999998 1.0876424999999998 -0.1116075
v -0.1063125 1.1043406249999999 0.07521312499999999
v -1.3525422101756668e-17 1.11521875 -0.10529875
v -1.658659917313371e-17 1.14021875 0.10529874999999998
v -0.1063125 1.1043406249999999 -0.07521375
v 0.10631249999999999 1.104340625 -0.07521375
v 0.10631249999999999 1.104340625 0.07521312499999999
v -0.09095500000000002 1.232649375 0.06065562499999997
v -2.7496383533769098e-17 1.229309375 -0.08491875000000002
v -2.7496383533769098e-17 1.229309375 0.08491812499999997
v -0.09095500000000002 1.232649375 -0.06065625000000002
v 0.09095499999999998 1.232649375 -0.06065625000000002
v 0.09095499999999998 1.232649375 0.06065562499999997
v 0.144196875 1.066324375 0.1181025
v -1.0176253828313164e-17 1.0878818749999999 0.15625
v 6.135906669910152e-18 0.954674375 0.15625
v 0.144196875 0.952668125 0.1181025
v -0.144196875 1.066324375 0.1181025
v -0.144196875 0.952668125 0.1181025
v 0.13518125 1.073865625 0.17852374999999998
v -1.0941971612631052e-17 1.094131875 0.21667125
v 8.470329472543003e-19 0.9978675 0.21667125
v 0.13518125 0.996418125 0.17852374999999998
v -0.13518125 1.073865625 0.17852374999999998
v -0.13518125 0.9964181249999999 0.17852374999999998
v 1.0960606337470646e-17 0.91528125 0.15060937500000002
v 1.618679962202968e-17 0.8726 0.130640625
v 0.10383375000000002 0.8726 0.10056687500000001
v 0.13402625 0.91528125 0.11483000000000002
v -0.13402624999999999 0.9152812499999999 0.11483000000000002
v -0.10383374999999997 0.8726 0.10056687500000001
v -0.020606874999999986 0.880294375 0.19065750000000004
v -0.16242625000000002 1.19391625 0.03760687499999997
v -0.16242625000000002 1.19391625 -0.00010687500000002015
v -0.18439062500000003 1.154316875 -0.018303750000000008
v -0.18439062500000003 1.154316875 0.05580312499999998
v 0.16242624999999997 1.19391625 0.03760687499999997
v 0.18439062499999997 1.1543168750000001 0.05580312499999998
v 0.0001568750000000151 0.881409375 0.19100937500000004
v 0.0001568750000000201 0.84070375 0.17817500000000003
v 0.01662000000000002 0.841819375 0.17852625
v 0.020920625000000012 0.882525 0.19136125000000004
v -0.01630562499999998 0.839588125 0.17782312500000003
v 0.18439062499999997 1.1543168750000001 -0.018303750000000008
v 0.16242624999999997 1.19391625 -0.00010687500000002015
vt 0.75 0.71875
vt 0.75 0.734375
vt 0.703125 0.734375
vt 0.703125 0.71875
vt 0.75 0.6875
vt 0.75 0.703125
vt 0.703125 0.703125
vt 0.703125 0.6875
vt 0.5082734375 0.515625
vt 0.5022078125 0.49287187499999996
vt 0.5446671875 0.49287187499999996
vt 0.5386015625 0.515625
vt 0.249125 0.631696875
vt 0.21875 0.640625
vt 0.21875 0.578125
vt 0.249125 0.587053125
vt 0.59375 0.609375
vt 0.59375 0.625
vt 0.5625 0.625
vt 0.5625 0.609375
vt 0.796875 0.625
vt 0.796875 0.640625
vt 0.765625 0.640625
vt 0.765625 0.625
vt 0.46875 0.21875
vt 0.46875 0.234375
vt 0.4375 0.234375
vt 0.4375 0.21875
vt 0.188375 0.587053125
vt 0.21875 0.578125
vt 0.21875 0.640625
vt 0.188375 0.631696875
vt 0.796875 0.328125
vt 0.796875 0.34375
vt 0.765625 0.34375
vt 0.765625 0.328125
vt 0.5386015625 0.47011875000000003
vt 0.5446671875 0.49287187499999996
vt 0.5022078125 0.49287187499999996
vt 0.5082734375 0.47011875000000003
vt 0.2377234375 0.328125
vt 0.243303125 0.3125
vt 0.287946875 0.3125
vt 0.2935265625 0.328125
vt 0.4252234375 0.328125
vt 0.430803125 0.3125
vt 0.475446875 0.3125
vt 0.4810265625 0.328125
vt 0.484375 0.2936253125
vt 0.46875 0.28363015625
vt 0.46914796875 0.25197328124999996
vt 0.484375 0.25
vt 0.722003125 0.7651375
vt 0.72420625 0.75
vt 0.755865625 0.75
vt 0.765625 0.765625
vt 0.4749796875 0.71470625
vt 0.421875 0.71875
vt 0.421875 0.671875
vt 0.4621671875 0.671875
vt 0.71875 0.47930937500000004
vt 0.6875 0.484375
vt 0.6875 0.460309375
vt 0.71875 0.459946875
vt 0.1372765625 0.607878125
vt 0.0814734375 0.607878125
vt 0.0814734375 0.5678015625
vt 0.1372765625 0.5678015625
vt 0.578125 0.3125
vt 0.546875 0.30743437500000004
vt 0.546875 0.288071875
vt 0.578125 0.288434375
vt 0.484375 0.52490390625
vt 0.43111640625 0.52490390625
vt 0.441155625 0.484375
vt 0.48133296875 0.48851999999999995
vt 0.4029015625 0.607878125
vt 0.3470984375 0.607878125
vt 0.3470984375 0.5678015625
vt 0.4029015625 0.5678015625
vt 0.6861315625 0.25
vt 0.65709109375 0.25
vt 0.64387171875 0.23699515625
vt 0.6875 0.23769062500000004
vt 0.3216378125 0.45759218749999997
vt 0.2962225 0.46875
vt 0.2748934375 0.4375
vt 0.328125 0.4375
vt 0.8484640625 0.8125
vt 0.8390359375 0.8125
vt 0.8344859375 0.796875
vt 0.8530140625 0.796875
vt 0.37579671875 0.46875
vt 0.35031015625 0.4577615625
vt 0.34375 0.4375
vt 0.396830625 0.4375
vt 0.57627359375 0.234375
vt 0.578125 0.2633575
vt 0.5641184375 0.265625
vt 0.5641184375 0.22190640625000002
vt 0.2234640625 0.171875
vt 0.2140359375 0.171875
vt 0.2094859375 0.15625
vt 0.2280140625 0.15625
vt 0.70556765625 0.92960515625
vt 0.7043859375 0.953125
vt 0.671875 0.953125
vt 0.68302171875 0.92636828125
vt 0.1875 0.3425659375
vt 0.16002234375 0.34375
vt 0.15625 0.31502140624999997
vt 0.1875 0.3100715625
vt 0.0854765625 0.359375
vt 0.0551484375 0.359375
vt 0.051509375 0.328125
vt 0.089115625 0.328125
vt 0.67431765625 0.32023015624999995
vt 0.6731359375 0.34375
vt 0.640625 0.34375
vt 0.645605625 0.31646140624999997
vt 0.6875 0.6706887500000001
vt 0.65949390625 0.671875
vt 0.65625 0.6492584375
vt 0.6875 0.63827953125
vt 0.6792265625 0.84375
vt 0.6488984375 0.84375
vt 0.645259375 0.8125
vt 0.682865625 0.8125
vt 0.5032359375 0.743165625
vt 0.540525 0.7377765625
vt 0.546875 0.7431062500000001
vt 0.5032359375 0.75
vt 0.540525 0.7093625
vt 0.5032359375 0.7098640625
vt 0.5032359375 0.7030296875
vt 0.546875 0.7030296875
vt 0.540525 0.7377765625
vt 0.540525 0.7093625
vt 0.546875 0.7030296875
vt 0.546875 0.7431062500000001
vt 0.50635 0.6596515625
vt 0.5436390625 0.665040625
vt 0.5436390625 0.671875
vt 0.5 0.6649812500000001
vt 0.50635 0.6312375
vt 0.50635 0.6596515625
vt 0.5 0.6649812500000001
vt 0.5 0.6249046875
vt 0.5436390625 0.6317390625
vt 0.50635 0.6312375
vt 0.5 0.6249046875
vt 0.5436390625 0.6249046875
vt 0.791955 0.609375
vt 0.75647609375 0.609375
vt 0.75 0.5954146874999999
vt 0.78767140625 0.5948060937499999
vt 0.3125 0.22513390624999996
vt 0.3125 0.26025171874999997
vt 0.296875 0.25603734375
vt 0.29729859375 0.21875
vt 0.796875 0.5
vt 0.796875 0.48063750000000005
vt 0.8125 0.4697
vt 0.8125 0.4981140625
vt 0.203125 0.23014625
vt 0.203125 0.265625
vt 0.1875 0.26134156249999996
vt 0.18810953125 0.22367046874999996
vt 0.5625 0.18376250000000005
vt 0.5625 0.203125
vt 0.546875 0.2012390625
vt 0.546875 0.172825
vt 0.72899984375 0.42432734375000003
vt 0.69388390625 0.42432734375000003
vt 0.6875 0.40665984374999997
vt 0.7247875 0.40625
vt 0.344408125 0.28465453124999995
vt 0.317384375 0.28491640625000003
vt 0.31774453125 0.28160953125
vt 0.349401875 0.28125124999999995
vt 0.3507796875 0.29661171875000003
vt 0.344408125 0.28465453124999995
vt 0.34940375 0.28125
vt 0.35937453125 0.29996156249999995
vt 0.3161 0.29661171875000003
vt 0.3507796875 0.29661171875000003
vt 0.359375 0.29996171875
vt 0.3157359375 0.29991953125000004
vt 0.70246890625 0.5815303125
vt 0.6960953125 0.5934865625
vt 0.6875 0.596835
vt 0.69747375 0.578125
vt 0.72949265625 0.58178484375
vt 0.70246890625 0.5815303125
vt 0.6974740625 0.5781253125
vt 0.7291315625 0.578478125
vt 0.6960953125 0.5934865625
vt 0.730775 0.5934865625
vt 0.7311390625 0.596794375
vt 0.6875 0.596835
vt 0.258619375 0.344955625
vt 0.26270078125 0.34435312500000004
vt 0.26454390625 0.35854515625000005
vt 0.23992265625 0.36796734374999995
vt 0.7776971875 0.99932328125
vt 0.7764 0.984375
vt 0.80664109375 0.984375
vt 0.8125 1
vt 0.22253375 0.24022343749999997
vt 0.2267325 0.234375
vt 0.26184125 0.234375
vt 0.22998140625 0.25
vt 0.3754309375 0.203125
vt 0.390625 0.20479156249999997
vt 0.390625 0.24000374999999996
vt 0.375 0.23319468750000005
vt 0.26270078125 0.34435312500000004
vt 0.26678359375 0.34375
vt 0.29132734375 0.36157031250000005
vt 0.26453203125 0.35845312500000004
vt 0.76651859375 0.6993903125
vt 0.7696021875 0.6952059374999999
vt 0.78035640625 0.702826875
vt 0.76651859375 0.734375
vt 0.6640890625 0.390625
vt 0.6546609375 0.390625
vt 0.645259375 0.359375
vt 0.682865625 0.359375
vt 0.8054015625 0.80257703125
vt 0.8125 0.8125
vt 0.78008234375 0.8125
vt 0.77868375 0.79652671875
vt 0.3889515625 0.625
vt 0.3704234375 0.625
vt 0.3470984375 0.607878125
vt 0.4029015625 0.607878125
vt 0.59375 0.203125
vt 0.58353078125 0.19594937499999998
vt 0.578125 0.17453546875000003
vt 0.59375 0.17700734375000005
vt 0.6890890625 1
vt 0.6796609375 1
vt 0.660884375 0.96875
vt 0.698490625 0.96875
vt 0.78859078125 0.56791734375
vt 0.7952740625 0.578125
vt 0.7672259375 0.578125
vt 0.768650625 0.5606921874999999
vt 0.1139515625 0.625
vt 0.0954234375 0.625
vt 0.0814734375 0.607878125
vt 0.1372765625 0.607878125
vt 0.765625 0.40625
vt 0.7531390625 0.39860874999999996
vt 0.75 0.36984421874999995
vt 0.765625 0.37613921875
vt 0.893246875 0.7450453125000001
vt 0.894321875 0.734375
vt 0.8984375 0.7346671874999999
vt 0.8984375 0.7453375
vt 0.8984375 0.7453375
vt 0.8984375 0.7346671874999999
vt 0.902553125 0.7349593750000001
vt 0.903628125 0.7456296875
vn -1 -1.2246467991473532e-16 1.4997597826618576e-32
vn 1 1.2246467991473532e-16 -1.4997597826618576e-32
vn 0.03669672187209859 0.9993264484660865 -1.2238219364172852e-16
vn 1.2246467991473532e-16 -1 1.2246467991473532e-16
vn -0.28201428683666413 -1.5203065306694995e-16 -0.9594102052928184
vn -0.28201428683666424 8.295707432928107e-17 0.9594102052928184
vn 0.2820142868366642 1.5203065306694993e-16 0.9594102052928184
vn 1.2246467991473532e-16 -1 1.2246467991473532e-16
vn 0.2820142868366641 -8.29570743292811e-17 -0.9594102052928184
vn -0.03669672187209884 0.9993264484660865 -1.2238219364172852e-16
vn -0.8163831375032494 -0.577510668992661 7.072465922553089e-17
vn 0.8163831375032494 -0.5775106689926608 7.072465922553087e-17
vn 0.250195148260297 -0.4614390914027191 -0.8511617664771141
vn -0.2572837803804056 -0.40950558279267296 -0.8752772326610586
vn 0.6073710353365459 -2.2906682629727065e-17 -0.7944182937434237
vn 0.2715884651920551 1.5112165317413906e-16 0.9624134795266659
vn 1 1.2246467991473532e-16 -1.4997597826618576e-32
vn -0.2715884651920551 8.460166425758055e-17 0.9624134795266658
vn -0.5779590817570217 -0.41227941280514085 -0.7042648547184707
vn -1 -1.2246467991473532e-16 1.4997597826618576e-32
vn -0.29919854540339247 0.9510843983447695 -0.07693307256090842
vn -0.18135396561337108 0.9357323843741687 -0.30251552685727934
vn -0.8744878031867608 0.4850475049699701 -5.940118743958839e-17
vn 0.15174164198223297 0.9709245498683502 -0.18514856886154255
vn 0.3931874656767905 0.8254476155327558 0.4050183339627365
vn 0.8744878031867608 0.48504750496997046 -5.940118743958842e-17
vn -0.2504918703738245 0.13868854291843133 0.9581332427902635
vn -0.2481286029651501 0.17034721727793994 -0.9536320160083896
vn -0.9929129980508534 0.11884350340538709 -1.4554131604486486e-17
vn 0.25049187037382437 0.13868854291843116 -0.9581332427902634
vn 0.24422046936633862 0.21624956714270108 0.9453002100143001
vn 0.9929129980508532 0.11884350340538731 -1.4554131604486514e-17
vn 0.25575340355086834 0.000002277867942051632 0.9667420527560381
vn 0.2557530852839777 1.497124860890054e-16 0.9667421369567618
vn 0.2557552519332472 1.497126812311274e-16 0.9667415637638435
vn -0.25575308528397767 8.707104663598872e-17 0.9667421369567618
vn -0.2557552519332475 8.707071110209212e-17 0.9667415637638433
vn -0.25575305566393725 -0.000002277851557653399 0.966742144790104
vn 0.1182259365006329 0.987356513217144 -0.10559234700598327
vn 0.15354599729336138 -0.8038629524473607 0.5746546618603208
vn 0.9890502742466406 1.3919693766811164e-16 0.14757897889823315
vn -0.11923129456848171 0.9875969589053722 -0.10215745276965593
vn -0.9890502742466406 -1.0305051284228044e-16 0.14757897889823315
vn -0.15930743386879992 -0.7881754050314939 0.5944751234640341
vn 0.2537543843036104 -0.4099014847411374 0.8761218438400601
vn 0.23761789615559667 -0.4548998674069277 0.8582562822722288
vn 0.23211050836937505 -0.43606876778054343 0.8694646293385769
vn -0.23760695253462033 -0.4548941509421192 0.8582623419129254
vn -0.24970944133101197 -0.4408310498355208 0.8621561229911126
vn -0.23502893562680108 -0.41190155656057453 0.8803967895904149
vn 0.06799740865209156 -0.8283545001498948 -0.5560622038027927
vn 0.6927969310288219 -0.28241518982202934 0.6635315161428528
vn -0.05623551258745688 0.9452494434476563 0.32146703841283936
vn -0.5923779008191102 -0.29853050774420614 0.7483100684656935
vn 0.0698474995779812 -0.8862832693668136 -0.45784636423496533
vn -0.05196420481795002 0.7651688953693397 0.6417291352096325
vn 0.8474494075840923 0.5308761640772461 -6.501357950808245e-17
vn -0.2611571526972777 0.5188934618405793 -0.8139696043797645
vn -0.9735714634740361 -0.22838258582699306 2.796880027140227e-17
vn -0.36110337767149814 0.5472497552030926 0.7550642728035744
vn -0.8474494075840925 0.5308761640772457 -6.50135795080824e-17
vn -0.030727509896916267 0.403217561382255 0.91458811403193
vn 0.9735714634740361 -0.22838258582699245 2.79688002714022e-17
vn 0.621394913613702 0.5844503821620198 -0.5218104178010331
vn -0.000007294436178997119 -0.30070103810149795 0.9537184519717927
vn 0.00002917306191684759 -0.30070453641968437 0.9537173485501642
usemtl m_cf5ac213-316c-e8d1-eaa3-0ce92fd50427
f 180/657/167 190/658/167 189/659/167 179/660/167
f 183/661/168 193/662/168 192/663/168 184/664/168
f 207/665/169 209/666/169 208/667/169 210/668/169
f 179/669/170 187/670/170 186/671/170 180/672/170
f 179/673/171 189/674/171 194/675/171 187/676/171
f 186/677/172 191/678/172 190/679/172 180/680/172
f 184/681/173 192/682/173 191/683/173 186/684/173
f 184/685/174 186/686/174 187/687/174 183/688/174
f 187/689/175 194/690/175 193/691/175 183/692/175
f 211/693/176 208/694/176 209/695/176 212/696/176
f 177/697/177 189/698/177 190/699/177 178/700/177
f 182/701/178 192/702/178 193/703/178 181/704/178
f 181/705/179 193/706/179 194/707/179 188/708/179
f 188/709/180 194/710/180 189/711/180 177/712/180
f 196/713/181 195/714/181 181/715/181 188/716/181
f 219/717/182 220/718/182 221/719/182 222/720/182
f 195/721/183 198/722/183 182/723/183 181/724/183
f 220/725/184 223/726/184 224/727/184 221/728/184
f 200/729/185 196/730/185 188/731/185 177/732/185
f 199/733/186 200/734/186 177/735/186 178/736/186
f 203/737/187 201/738/187 199/739/187 197/740/187
f 204/741/188 202/742/188 196/743/188 200/744/188
f 232/745/189 233/746/189 234/747/189 235/748/189
f 202/749/190 205/750/190 195/751/190 196/752/190
f 206/753/191 203/754/191 197/755/191 198/756/191
f 244/757/192 236/758/192 237/759/192 243/760/192
f 209/761/193 207/762/193 201/763/193 203/764/193
f 210/765/194 208/766/194 202/767/194 204/768/194
f 207/769/195 210/770/195 204/771/195 201/772/195
f 208/773/196 211/774/196 205/775/196 202/776/196
f 212/777/197 209/778/197 203/779/197 206/780/197
f 211/781/198 212/782/198 206/783/198 205/784/198
f 214/785/199 213/786/199 198/787/199 197/788/199
f 216/789/200 215/790/200 185/791/200 182/792/200
f 213/793/201 216/794/201 182/795/201 198/796/201
f 217/797/202 214/798/202 197/799/202 199/800/202
f 218/801/203 217/802/203 199/803/203 178/804/203
f 215/805/204 218/806/204 178/807/204 185/808/204
f 220/809/205 219/810/205 213/811/205 214/812/205
f 222/813/206 221/814/206 215/815/206 216/816/206
f 219/817/207 222/818/207 216/819/207 213/820/207
f 223/821/208 220/822/208 214/823/208 217/824/208
f 224/825/209 223/826/209 217/827/209 218/828/209
f 221/829/210 224/830/210 218/831/210 215/832/210
f 227/833/211 226/834/211 191/835/211 192/836/211
f 228/837/212 227/838/212 192/839/212 182/840/212
f 225/841/213 228/842/213 182/843/213 185/844/213
f 230/845/214 229/846/214 178/847/214 190/848/214
f 226/849/215 230/850/215 190/851/215 191/852/215
f 229/853/216 225/854/216 185/855/216 178/856/216
f 240/857/217 239/858/217 226/859/217 227/860/217
f 241/861/218 240/862/218 227/863/218 228/864/218
f 238/865/219 241/866/219 228/867/219 225/868/219
f 242/869/220 231/870/220 229/871/220 230/872/220
f 239/873/221 242/874/221 230/875/221 226/876/221
f 231/877/222 238/878/222 225/879/222 229/880/222
f 233/881/223 232/882/223 201/883/223 204/884/223
f 234/885/224 233/886/224 204/887/224 200/888/224
f 235/889/225 234/890/225 200/891/225 199/892/225
f 232/893/226 235/894/226 199/895/226 201/896/226
f 236/897/227 244/898/227 205/899/227 206/900/227
f 237/901/228 236/902/228 206/903/228 198/904/228
f 243/905/229 237/906/229 198/907/229 195/908/229
f 244/909/230 243/910/230 195/911/230 205/912/230
f 231/913/231 242/914/231 239/915/231 238/916/231
f 238/917/232 239/918/232 240/919/232 241/920/232
o plane
v -0.33423663621427724 1.515625 0.6236622154037861
v -0.15025867312844343 1.3015625000000002 0.27024383655933837
v -0.2729106485189994 1.1171875 0.5058560891223035
v -0.08893268543316554 0.984375 0.1524377102778558
vt 0.078125 0.8201465625
vt 0.078125 0.9332215625
vt 0.01789359375 1
vt 0 0.8965384375
vn -0.8870108331782217 1.241101821087541e-16 -0.4617486132350339
usemtl m_cf5ac213-316c-e8d1-eaa3-0ce92fd50427
f 245/921/233 246/922/233 248/923/233 247/924/233
o plane
v -0.2215022401200717 0.521875 0.39863228384343563
v -0.11544435551764982 0.70674625 0.19489698309781284
v -0.18614961191926443 0.8078125 0.33072051692822807
v -0.08009172731684257 0.903125 0.12698521618260522
vt 0.19409765625 0.7162531249999999
vt 0.2376115625 0.7757496875000001
vt 0.24340234375 0.828125
vt 0.19409765625 0.790255625
vn 0.8870108331782217 1.241101821087541e-16 0.4617486132350339
usemtl m_cf5ac213-316c-e8d1-eaa3-0ce92fd50427
f 249/925/234 250/926/234 252/927/234 251/928/234
o plane
v 0.2215022401200717 0.521875 0.39863228384343563
v 0.11544435551764982 0.70674625 0.19489698309781284
v 0.18614961191926443 0.8078125 0.33072051692822807
v 0.08009172731684257 0.903125 0.12698521618260522
vt 0.24340234375 0.828125
vt 0.2376115625 0.7757496875000001
vt 0.19409765625 0.7162531249999999
vt 0.19409765625 0.790255625
vn -0.8870108331782217 1.241101821087541e-16 0.4617486132350339
usemtl m_cf5ac213-316c-e8d1-eaa3-0ce92fd50427
f 256/929/235 254/930/235 253/931/235 255/932/235
o plane
v 0.33423663621427724 1.515625 0.6236622154037861
v 0.15025867312844343 1.3015625000000002 0.27024383655933837
v 0.2729106485189994 1.1171875 0.5058560891223035
v 0.08893268543316554 0.984375 0.1524377102778558
vt 0.01789359375 1
vt 0.078125 0.9332215625
vt 0.078125 0.8201465625
vt 0 0.8965384375
vn 0.8870108331782217 1.241101821087541e-16 -0.4617486132350339
usemtl m_cf5ac213-316c-e8d1-eaa3-0ce92fd50427
f 260/933/236 258/934/236 257/935/236 259/936/236