# Made in Blockbench 5.1.5
mtllib YellowJacketRightArm.mtl

o Arm
v 0.3343749999999997 1.015625 1.4274789252561334e-16
v 0.15937499999999974 1.015625 1.4274789252561334e-16
v 0.3343749999999997 1.048768125 -0.056249999999999856
v 0.1593749999999997 1.048768125 -0.056249999999999856
v 0.3343749999999997 1.0718750000000001 -0.03736187499999985
v 0.1593749999999997 1.0718750000000001 -0.03736187499999985
v 0.3343749999999997 1.0718750000000001 0.037361875000000155
v 0.1593749999999997 1.0718750000000001 0.037361875000000155
v 0.3343749999999997 1.048768125 0.05625000000000015
v 0.1593749999999997 1.048768125 0.05625000000000015
v 0.3343749999999997 0.9824818750000002 0.05625000000000014
v 0.15937499999999974 0.9824818750000002 0.05625000000000014
v 0.33437499999999976 0.9593750000000001 0.03736187500000014
v 0.15937499999999974 0.9593750000000001 0.03736187500000014
v 0.33437499999999976 0.9593750000000001 -0.037361874999999864
v 0.15937499999999974 0.9593750000000001 -0.037361874999999864
v 0.3343749999999997 0.9824818750000002 -0.05624999999999986
v 0.15937499999999974 0.9824818750000002 -0.05624999999999986
v 0.31770812499999973 1.048768125 -0.056249999999999856
v 0.31770812499999973 0.9824818750000002 -0.05624999999999986
v 0.29466937499999973 1.048768125 -0.056249999999999856
v 0.29466937499999973 0.9824818750000002 -0.05624999999999986
v 0.3177081249999998 0.9593750000000001 -0.037361874999999864
v 0.2946693749999998 0.9593750000000001 -0.037361874999999864
v 0.3177081249999998 0.9593750000000001 0.03736187500000014
v 0.2946693749999998 0.9593750000000001 0.03736187500000014
v 0.31770812499999973 0.9824818750000002 0.05625000000000014
v 0.29466937499999973 0.9824818750000002 0.05625000000000014
v 0.31770812499999973 1.048768125 0.05625000000000015
v 0.29466937499999973 1.048768125 0.05625000000000015
v 0.31770812499999973 1.0718750000000001 0.037361875000000155
v 0.29466937499999973 1.0718750000000001 0.037361875000000155
v 0.31770812499999973 1.0718750000000001 -0.03736187499999985
v 0.29466937499999973 1.0718750000000001 -0.03736187499999985
vt 0.3989109375 0.871875
vt 0.4046875 0.867153125
vt 0.390625 0.8578125
vt 0.8125 0.18492656249999995
vt 0.8050375 0.18492656249999995
vt 0.8050375 0.21875
vt 0.8125 0.21875
vt 0.7171875 0.507846875
vt 0.7114109375 0.503125
vt 0.703125 0.5171875
vt 0.4046875 0.867153125
vt 0.4046875 0.848471875
vt 0.390625 0.8578125
vt 0.024965625 0.27867656249999995
vt 0.006284375 0.27867656249999995
vt 0.006284375 0.3125
vt 0.024965625 0.3125
vt 0.7171875 0.526528125
vt 0.7171875 0.507846875
vt 0.703125 0.5171875
vt 0.4046875 0.848471875
vt 0.3989109375 0.84375
vt 0.390625 0.8578125
vt 0.6168375 0.16930156249999995
vt 0.609375 0.16930156249999995
vt 0.609375 0.203125
vt 0.6168375 0.203125
vt 0.7114109375 0.53125
vt 0.7171875 0.526528125
vt 0.703125 0.5171875
vt 0.3989109375 0.84375
vt 0.3823390625 0.84375
vt 0.390625 0.8578125
vt 0.4457859375 0.26305156249999995
vt 0.4292140625 0.26305156249999995
vt 0.4292140625 0.296875
vt 0.4457859375 0.296875
vt 0.6948390625 0.53125
vt 0.7114109375 0.53125
vt 0.703125 0.5171875
vt 0.3823390625 0.84375
vt 0.3765625 0.848471875
vt 0.390625 0.8578125
vt 0.828125 0.8724265625000001
vt 0.8206640625 0.8724265625000001
vt 0.8206640625 0.90625
vt 0.828125 0.90625
vt 0.6890625 0.526528125
vt 0.6948390625 0.53125
vt 0.703125 0.5171875
vt 0.3765625 0.848471875
vt 0.3765625 0.867153125
vt 0.390625 0.8578125
vt 0.071840625 0.27867656249999995
vt 0.053159375 0.27867656249999995
vt 0.053159375 0.3125
vt 0.071840625 0.3125
vt 0.6890625 0.507846875
vt 0.6890625 0.526528125
vt 0.703125 0.5171875
vt 0.3765625 0.867153125
vt 0.3823390625 0.871875
vt 0.390625 0.8578125
vt 0.8199609375 0.9349265625000001
vt 0.8125 0.9349265625000001
vt 0.8125 0.96875
vt 0.8199609375 0.96875
vt 0.6948390625 0.503125
vt 0.6890625 0.507846875
vt 0.703125 0.5171875
vt 0.3823390625 0.871875
vt 0.3989109375 0.871875
vt 0.390625 0.8578125
vt 0.7270359375 0.35680156249999995
vt 0.7104640625 0.35680156249999995
vt 0.7104640625 0.390625
vt 0.7270359375 0.390625
vt 0.7114109375 0.503125
vt 0.6948390625 0.503125
vt 0.703125 0.5171875
vt 0.7104640625 0.35104218750000005
vt 0.7270359375 0.35104218750000005
vt 0.7270359375 0.34687500000000004
vt 0.7104640625 0.34687500000000004
vt 0.7104640625 0.35680156249999995
vt 0.7270359375 0.35680156249999995
vt 0.7270359375 0.35104218750000005
vt 0.7104640625 0.35104218750000005
vt 0.8125 0.9291671875
vt 0.8199609375 0.9291671875
vt 0.8199609375 0.925
vt 0.8125 0.925
vt 0.8125 0.9349265625000001
vt 0.8199609375 0.9349265625000001
vt 0.8199609375 0.9291671875
vt 0.8125 0.9291671875
vt 0.053159375 0.27291718750000005
vt 0.071840625 0.27291718750000005
vt 0.071840625 0.26875000000000004
vt 0.053159375 0.26875000000000004
vt 0.053159375 0.27867656249999995
vt 0.071840625 0.27867656249999995
vt 0.071840625 0.27291718750000005
vt 0.053159375 0.27291718750000005
vt 0.8206640625 0.8666671875
vt 0.828125 0.8666671875
vt 0.828125 0.8625
vt 0.8206640625 0.8625
vt 0.8206640625 0.8724265625000001
vt 0.828125 0.8724265625000001
vt 0.828125 0.8666671875
vt 0.8206640625 0.8666671875
vt 0.4292140625 0.25729218750000005
vt 0.4457859375 0.25729218750000005
vt 0.4457859375 0.25312500000000004
vt 0.4292140625 0.25312500000000004
vt 0.4292140625 0.26305156249999995
vt 0.4457859375 0.26305156249999995
vt 0.4457859375 0.25729218750000005
vt 0.4292140625 0.25729218750000005
vt 0.609375 0.16354218750000005
vt 0.6168375 0.16354218750000005
vt 0.6168375 0.15937500000000004
vt 0.609375 0.15937500000000004
vt 0.609375 0.16930156249999995
vt 0.6168375 0.16930156249999995
vt 0.6168375 0.16354218750000005
vt 0.609375 0.16354218750000005
vt 0.006284375 0.27291718750000005
vt 0.024965625 0.27291718750000005
vt 0.024965625 0.26875000000000004
vt 0.006284375 0.26875000000000004
vt 0.006284375 0.27867656249999995
vt 0.024965625 0.27867656249999995
vt 0.024965625 0.27291718750000005
vt 0.006284375 0.27291718750000005
vt 0.8050375 0.17916718750000005
vt 0.8125 0.17916718750000005
vt 0.8125 0.17500000000000004
vt 0.8050375 0.17500000000000004
vt 0.8050375 0.18492656249999995
vt 0.8125 0.18492656249999995
vt 0.8125 0.17916718750000005
vt 0.8050375 0.17916718750000005
vn 1 2.220446049250313e-16 2.719262146893782e-32
vn -1.4052902862729186e-16 0.6328864809606095 -0.7742446010256038
vn -1 -2.220446049250313e-16 -2.719262146893782e-32
vn 1 2.220446049250313e-16 2.719262146893782e-32
vn -2.220446049250313e-16 1 1.2246467991473532e-16
vn -1 -2.220446049250313e-16 -2.719262146893782e-32
vn 1 2.220446049250313e-16 2.719262146893782e-32
vn -1.4052902862729186e-16 0.6328864809606093 0.774244601025604
vn -1 -2.220446049250313e-16 -2.719262146893782e-32
vn 1 2.220446049250313e-16 2.719262146893782e-32
vn 2.5407181807812022e-33 -1.2246467991473532e-16 1
vn -1 -2.220446049250313e-16 -2.719262146893782e-32
vn 1 2.220446049250313e-16 2.719262146893782e-32
vn 1.4052902862729186e-16 -0.6328864809606095 0.7742446010256038
vn -1 -2.220446049250313e-16 -2.719262146893782e-32
vn 1 2.220446049250313e-16 2.719262146893782e-32
vn 2.220446049250313e-16 -1 -1.2246467991473532e-16
vn -1 -2.220446049250313e-16 -2.719262146893782e-32
vn 1 2.220446049250313e-16 2.719262146893782e-32
vn 1.4052902862729186e-16 -0.6328864809606093 -0.774244601025604
vn -1 -2.220446049250313e-16 -2.719262146893782e-32
vn 1 2.220446049250313e-16 2.719262146893782e-32
vn -2.5407181807812022e-33 1.2246467991473532e-16 -1
vn -1 -2.220446049250313e-16 -2.719262146893782e-32
vn -2.5407181807812022e-33 1.2246467991473532e-16 -1
vn -2.5407181807812022e-33 1.2246467991473532e-16 -1
vn 1.4052902862729184e-16 -0.6328864809606092 -0.7742446010256039
vn 1.4052902862729186e-16 -0.6328864809606093 -0.7742446010256039
vn 2.220446049250313e-16 -1 -1.2246467991473532e-16
vn 2.220446049250313e-16 -1 -1.2246467991473532e-16
vn 1.4052902862729184e-16 -0.6328864809606094 0.7742446010256037
vn 1.4052902862729186e-16 -0.6328864809606095 0.7742446010256037
vn 2.5407181807812022e-33 -1.2246467991473532e-16 1
vn 2.5407181807812022e-33 -1.2246467991473532e-16 1
vn -1.4052902862729184e-16 0.6328864809606092 0.7742446010256039
vn -1.4052902862729186e-16 0.6328864809606093 0.7742446010256039
vn -2.220446049250313e-16 1 1.2246467991473532e-16
vn -2.220446049250313e-16 1 1.2246467991473532e-16
vn -1.4052902862729184e-16 0.6328864809606094 -0.7742446010256037
vn -1.4052902862729186e-16 0.6328864809606095 -0.7742446010256037
usemtl m_cf5ac213-316c-e8d1-eaa3-0ce92fd50427
f 3/1/1 5/2/1 1/3/1
f 34/4/2 21/5/2 4/6/2 6/7/2
f 6/8/3 4/9/3 2/10/3
f 5/11/4 7/12/4 1/13/4
f 32/14/5 34/15/5 6/16/5 8/17/5
f 8/18/6 6/19/6 2/20/6
f 7/21/7 9/22/7 1/23/7
f 30/24/8 32/25/8 8/26/8 10/27/8
f 10/28/9 8/29/9 2/30/9
f 9/31/10 11/32/10 1/33/10
f 28/34/11 30/35/11 10/36/11 12/37/11
f 12/38/12 10/39/12 2/40/12
f 11/41/13 13/42/13 1/43/13
f 26/44/14 28/45/14 12/46/14 14/47/14
f 14/48/15 12/49/15 2/50/15
f 13/51/16 15/52/16 1/53/16
f 24/54/17 26/55/17 14/56/17 16/57/17
f 16/58/18 14/59/18 2/60/18
f 15/61/19 17/62/19 1/63/19
f 22/64/20 24/65/20 16/66/20 18/67/20
f 18/68/21 16/69/21 2/70/21
f 17/71/22 3/72/22 1/73/22
f 21/74/23 22/75/23 18/76/23 4/77/23
f 4/78/24 18/79/24 2/80/24
f 20/81/25 19/82/25 3/83/25 17/84/25
f 22/85/26 21/86/26 19/87/26 20/88/26
f 23/89/27 20/90/27 17/91/27 15/92/27
f 24/93/28 22/94/28 20/95/28 23/96/28
f 25/97/29 23/98/29 15/99/29 13/100/29
f 26/101/30 24/102/30 23/103/30 25/104/30
f 27/105/31 25/106/31 13/107/31 11/108/31
f 28/109/32 26/110/32 25/111/32 27/112/32
f 29/113/33 27/114/33 11/115/33 9/116/33
f 30/117/34 28/118/34 27/119/34 29/120/34
f 31/121/35 29/122/35 9/123/35 7/124/35
f 32/125/36 30/126/36 29/127/36 31/128/36
f 33/129/37 31/130/37 7/131/37 5/132/37
f 34/133/38 32/134/38 31/135/38 33/136/38
f 19/137/39 33/138/39 5/139/39 3/140/39
f 21/141/40 34/142/40 33/143/40 19/144/40
o cylinder
v 0.16875 1.0125 0.06249999999999999
v 0.16875 1.0125000000000002 -0.0625
v 0.2375 1.03092125 0.0625
v 0.2375 1.03092125 -0.0625
v 0.21907875 1.06282875 0.0625
v 0.21907875 1.06282875 -0.06249999999999999
v 0.18717124999999998 1.08125 0.06250000000000001
v 0.18717124999999998 1.08125 -0.06249999999999999
v 0.15032874999999998 1.08125 0.06250000000000001
v 0.15032874999999998 1.08125 -0.06249999999999999
v 0.11842125 1.06282875 0.0625
v 0.11842125 1.06282875 -0.06249999999999999
v 0.1 1.03092125 0.0625
v 0.1 1.03092125 -0.0625
v 0.1 0.99407875 0.06249999999999999
v 0.1 0.9940787500000001 -0.06250000000000001
v 0.11842125000000003 0.96217125 0.062499999999999986
v 0.11842125000000003 0.96217125 -0.06250000000000001
v 0.15032875 0.9437500000000001 0.06249999999999998
v 0.15032875 0.9437500000000001 -0.06250000000000003
v 0.18717125 0.9437500000000001 0.06249999999999998
v 0.18717125 0.9437500000000001 -0.06250000000000003
v 0.21907875000000002 0.96217125 0.062499999999999986
v 0.21907875000000002 0.9621712500000001 -0.06250000000000001
v 0.23750000000000002 0.9940787500000001 0.06249999999999999
v 0.23750000000000002 0.9940787500000001 -0.06250000000000001
vt 0.6530421875 0.44062500000000004
vt 0.6610203125 0.43602031249999995
vt 0.6484375 0.4234375
vt 0.65625 0.21875
vt 0.65625 0.1875
vt 0.640625 0.1875
vt 0.640625 0.21875
vt 0.3485203125 0.34522968750000005
vt 0.3405421875 0.34062499999999996
vt 0.3359375 0.3578125
vt 0.6610203125 0.43602031249999995
vt 0.665625 0.4280421875
vt 0.6484375 0.4234375
vt 0.5 0.21875
vt 0.5 0.1875
vt 0.484375 0.1875
vt 0.484375 0.21875
vt 0.353125 0.3532078125
vt 0.3485203125 0.34522968750000005
vt 0.3359375 0.3578125
vt 0.665625 0.4280421875
vt 0.665625 0.41883281250000004
vt 0.6484375 0.4234375
vt 0.75 0.234375
vt 0.75 0.203125
vt 0.734375 0.203125
vt 0.734375 0.234375
vt 0.353125 0.36241718749999996
vt 0.353125 0.3532078125
vt 0.3359375 0.3578125
vt 0.665625 0.41883281250000004
vt 0.6610203125 0.4108546875
vt 0.6484375 0.4234375
vt 0.53125 0.21875
vt 0.53125 0.1875
vt 0.515625 0.1875
vt 0.515625 0.21875
vt 0.3485203125 0.3703953125
vt 0.353125 0.36241718749999996
vt 0.3359375 0.3578125
vt 0.6610203125 0.4108546875
vt 0.6530421875 0.40625
vt 0.6484375 0.4234375
vt 0.6875 0.21875
vt 0.6875 0.1875
vt 0.671875 0.1875
vt 0.671875 0.21875
vt 0.3405421875 0.375
vt 0.3485203125 0.3703953125
vt 0.3359375 0.3578125
vt 0.6530421875 0.40625
vt 0.6438328125 0.40625
vt 0.6484375 0.4234375
vt 0.234375 0.21875
vt 0.234375 0.1875
vt 0.21875 0.1875
vt 0.21875 0.21875
vt 0.3313328125 0.375
vt 0.3405421875 0.375
vt 0.3359375 0.3578125
vt 0.6438328125 0.40625
vt 0.6358546875 0.4108546875
vt 0.6484375 0.4234375
vt 0.015625 0.203125
vt 0.015625 0.171875
vt 0 0.171875
vt 0 0.203125
vt 0.3233546875 0.3703953125
vt 0.3313328125 0.375
vt 0.3359375 0.3578125
vt 0.6358546875 0.4108546875
vt 0.63125 0.41883281250000004
vt 0.6484375 0.4234375
vt 0.265625 0.21875
vt 0.265625 0.1875
vt 0.25 0.1875
vt 0.25 0.21875
vt 0.31875 0.36241718749999996
vt 0.3233546875 0.3703953125
vt 0.3359375 0.3578125
vt 0.63125 0.41883281250000004
vt 0.63125 0.4280421875
vt 0.6484375 0.4234375
vt 0.78125 0.234375
vt 0.78125 0.203125
vt 0.765625 0.203125
vt 0.765625 0.234375
vt 0.31875 0.3532078125
vt 0.31875 0.36241718749999996
vt 0.3359375 0.3578125
vt 0.63125 0.4280421875
vt 0.6358546875 0.43602031249999995
vt 0.6484375 0.4234375
vt 0.34375 0.21875
vt 0.34375 0.1875
vt 0.328125 0.1875
vt 0.328125 0.21875
vt 0.3233546875 0.34522968750000005
vt 0.31875 0.3532078125
vt 0.3359375 0.3578125
vt 0.6358546875 0.43602031249999995
vt 0.6438328125 0.44062500000000004
vt 0.6484375 0.4234375
vt 0.796875 0.40625
vt 0.796875 0.375
vt 0.78125 0.375
vt 0.78125 0.40625
vt 0.3313328125 0.34062499999999996
vt 0.3233546875 0.34522968750000005
vt 0.3359375 0.3578125
vt 0.6438328125 0.44062500000000004
vt 0.6530421875 0.44062500000000004
vt 0.6484375 0.4234375
vt 0.796875 0.96875
vt 0.796875 0.9375
vt 0.78125 0.9375
vt 0.78125 0.96875
vt 0.3405421875 0.34062499999999996
vt 0.3313328125 0.34062499999999996
vt 0.3359375 0.3578125
vn 4.930380657631324e-32 -2.220446049250313e-16 1
vn 0.866031911409066 0.49998872829410845 1.1101979964103413e-16
vn -4.930380657631324e-32 2.220446049250313e-16 -1
vn 4.930380657631324e-32 -2.220446049250313e-16 1
vn 0.4999887282941079 0.8660319114090662 1.9229771362129582e-16
vn -4.930380657631324e-32 2.220446049250313e-16 -1
vn 4.930380657631324e-32 -2.220446049250313e-16 1
vn -2.220446049250313e-16 1 2.220446049250313e-16
vn -4.930380657631324e-32 2.220446049250313e-16 -1
vn 4.930380657631324e-32 -2.220446049250313e-16 1
vn -0.49998872829410845 0.866031911409066 1.9229771362129577e-16
vn -4.930380657631324e-32 2.220446049250313e-16 -1
vn 4.930380657631324e-32 -2.220446049250313e-16 1
vn -0.8660319114090662 0.4999887282941081 1.1101979964103406e-16
vn -4.930380657631324e-32 2.220446049250313e-16 -1
vn 4.930380657631324e-32 -2.220446049250313e-16 1
vn -1 -2.220446049250313e-16 -4.930380657631324e-32
vn -4.930380657631324e-32 2.220446049250313e-16 -1
vn 4.930380657631324e-32 -2.220446049250313e-16 1
vn -0.866031911409066 -0.49998872829410845 -1.1101979964103413e-16
vn -4.930380657631324e-32 2.220446049250313e-16 -1
vn 4.930380657631324e-32 -2.220446049250313e-16 1
vn -0.4999887282941082 -0.8660319114090662 -1.9229771362129582e-16
vn -4.930380657631324e-32 2.220446049250313e-16 -1
vn 4.930380657631324e-32 -2.220446049250313e-16 1
vn 2.220446049250313e-16 -1 -2.220446049250313e-16
vn -4.930380657631324e-32 2.220446049250313e-16 -1
vn 4.930380657631324e-32 -2.220446049250313e-16 1
vn 0.49998872829410834 -0.866031911409066 -1.9229771362129577e-16
vn -4.930380657631324e-32 2.220446049250313e-16 -1
vn 4.930380657631324e-32 -2.220446049250313e-16 1
vn 0.8660319114090662 -0.4999887282941081 -1.1101979964103406e-16
vn -4.930380657631324e-32 2.220446049250313e-16 -1
vn 4.930380657631324e-32 -2.220446049250313e-16 1
vn 1 2.220446049250313e-16 4.930380657631324e-32
vn -4.930380657631324e-32 2.220446049250313e-16 -1
usemtl m_cf5ac213-316c-e8d1-eaa3-0ce92fd50427
f 37/145/41 39/146/41 35/147/41
f 40/148/42 39/149/42 37/150/42 38/151/42
f 40/152/43 38/153/43 36/154/43
f 39/155/44 41/156/44 35/157/44
f 42/158/45 41/159/45 39/160/45 40/161/45
f 42/162/46 40/163/46 36/164/46
f 41/165/47 43/166/47 35/167/47
f 44/168/48 43/169/48 41/170/48 42/171/48
f 44/172/49 42/173/49 36/174/49
f 43/175/50 45/176/50 35/177/50
f 46/178/51 45/179/51 43/180/51 44/181/51
f 46/182/52 44/183/52 36/184/52
f 45/185/53 47/186/53 35/187/53
f 48/188/54 47/189/54 45/190/54 46/191/54
f 48/192/55 46/193/55 36/194/55
f 47/195/56 49/196/56 35/197/56
f 50/198/57 49/199/57 47/200/57 48/201/57
f 50/202/58 48/203/58 36/204/58
f 49/205/59 51/206/59 35/207/59
f 52/208/60 51/209/60 49/210/60 50/211/60
f 52/212/61 50/213/61 36/214/61
f 51/215/62 53/216/62 35/217/62
f 54/218/63 53/219/63 51/220/63 52/221/63
f 54/222/64 52/223/64 36/224/64
f 53/225/65 55/226/65 35/227/65
f 56/228/66 55/229/66 53/230/66 54/231/66
f 56/232/67 54/233/67 36/234/67
f 55/235/68 57/236/68 35/237/68
f 58/238/69 57/239/69 55/240/69 56/241/69
f 58/242/70 56/243/70 36/244/70
f 57/245/71 59/246/71 35/247/71
f 60/248/72 59/249/72 57/250/72 58/251/72
f 60/252/73 58/253/73 36/254/73
f 59/255/74 37/256/74 35/257/74
f 38/258/75 37/259/75 59/260/75 60/261/75
f 38/262/76 60/263/76 36/264/76
o Forearm
v 0.6187500000000002 1.1249999999999998 -0.10390625000000017
v 0.6187500000000002 1.1249999999999998 0.10390624999999984
v 0.6187500000000001 0.9562499999999998 -0.10390625000000016
v 0.6187500000000001 0.9562499999999998 0.10390624999999985
v 0.38125000000000014 1.1249999999999998 -0.10390625000000017
v 0.38125000000000014 1.1249999999999998 0.10390624999999984
v 0.38125000000000014 0.9562499999999998 -0.10390625000000016
v 0.38125000000000014 0.9562499999999998 0.10390624999999985
v 0.6187500000000001 1.0499999999999998 -0.10390625000000017
v 0.38125000000000014 1.0468749999999998 -0.10390625000000017
v 0.38125000000000014 1.0468749999999998 0.10390624999999984
v 0.6187500000000001 1.0499999999999998 0.10390624999999984
v 0.7250000000000001 1.0687499999999999 -0.10390625000000017
v 0.7250000000000001 1.0499999999999998 0.10390624999999984
v 0.7250000000000001 1.0499999999999998 -0.10390625000000017
v 0.7250000000000001 1.0687499999999999 0.10390624999999984
v 0.6187500000000002 1.1249999999999998 -0.051953125000000176
v 0.3375000000000002 1.1249999999999998 -0.051953125000000176
v 0.6812500000000002 1.1249999999999998 -1.7145055188062944e-16
v 0.2937500000000002 1.1249999999999998 -1.7145055188062944e-16
v 0.6187500000000002 1.1249999999999998 0.05195312499999983
v 0.3375000000000002 1.1249999999999998 0.05195312499999983
v 0.3375000000000002 1.0468749999999998 -0.05195312500000016
v 0.2937500000000002 1.0468749999999998 -1.6188299876229073e-16
v 0.3375000000000002 1.0468749999999998 0.05195312499999984
v 0.3375000000000002 0.9562499999999998 -0.051953125000000155
v 0.2937500000000002 0.9562499999999998 -1.5078463714501785e-16
v 0.3375000000000002 0.9562499999999998 0.05195312499999985
v 0.6187500000000001 0.9562499999999998 -0.051953125000000155
v 0.6187500000000001 0.9562499999999998 -1.5078463714501785e-16
v 0.6187500000000001 0.9562499999999998 0.05195312499999985
v 0.6187500000000001 1.0499999999999998 -0.05195312500000016
v 0.6187500000000001 1.0499999999999998 -1.622657008870243e-16
v 0.6187500000000001 1.0499999999999998 0.05195312499999984
v 0.7250000000000001 1.0499999999999998 -0.05195312500000016
v 0.7250000000000001 1.0499999999999998 -1.622657008870243e-16
v 0.7250000000000001 1.0499999999999998 0.05195312499999984
v 0.7250000000000001 1.0687499999999999 -0.05195312500000017
v 0.7250000000000001 1.0687499999999999 -1.6456191363542558e-16
v 0.7250000000000001 1.0687499999999999 0.051953124999999836
v 0.39687500000000014 1.1249999999999998 0.05195312499999983
v 0.3623612500000002 1.1249999999999998 -1.7145055188062944e-16
v 0.39687500000000014 1.1249999999999998 -0.051953125000000176
v 0.43138875000000015 1.1249999999999998 -0.10390625000000017
v 0.43138875000000015 1.0475349999999999 -0.10390625000000017
v 0.43138875000000015 0.9562499999999998 -0.10390625000000016
v 0.39687500000000014 0.9562499999999998 -0.051953125000000155
v 0.3623612500000002 0.9562499999999998 -1.5078463714501785e-16
v 0.39687500000000014 0.9562499999999998 0.05195312499999985
v 0.43138875000000015 0.9562499999999998 0.10390624999999985
v 0.43138875000000015 1.0475349999999999 0.10390624999999984
v 0.43138875000000015 1.1249999999999998 0.10390624999999984
v 0.6812500000000002 1.16875 -1.7680838162689913e-16
v 0.37486125000000015 1.16875 -1.7680838162689913e-16
v 0.39687500000000014 1.16875 -0.033203125000000173
v 0.6187500000000002 1.16875 -0.033203125000000173
v 0.6187500000000002 1.16875 0.033203124999999827
v 0.39687500000000014 1.16875 0.033203124999999827
vt 0.9036125 0.37031250000000004
vt 0.9036125 0.375
vt 0.9166015625 0.375
vt 0.9166015625 0.37031250000000004
vt 0.63926875 0.953125
vt 0.63926875 0.93359375
vt 0.6222890625 0.93359375
vt 0.6222890625 0.953125
vt 0.275034375 0.71875
vt 0.26640625 0.7057609375
vt 0.2515625 0.7057609375
vt 0.2625 0.71875
vt 0.11015625 0.6536140625
vt 0.118784375 0.640625
vt 0.10625 0.640625
vt 0.0953125 0.6536140625
vt 0.360190625 1
vt 0.360190625 0.980634375
vt 0.34765625 0.98046875
vt 0.34765625 1
vt 0.452309375 0.918134375
vt 0.452309375 0.9375
vt 0.46484375 0.9375
vt 0.46484375 0.91796875
vt 0.360190625 0.980634375
vt 0.360190625 0.9578125
vt 0.34765625 0.9578125
vt 0.34765625 0.98046875
vt 0.63926875 0.93359375
vt 0.63926875 0.9109375
vt 0.6222890625 0.9109375
vt 0.6222890625 0.93359375
vt 0.452309375 0.8953125
vt 0.452309375 0.918134375
vt 0.46484375 0.91796875
vt 0.46484375 0.8953125
vt 0.6692375 0.6953125
vt 0.6692375 0.71875
vt 0.6822265625 0.71875
vt 0.6822265625 0.6953125
vt 0.40703125 1
vt 0.43359375 0.9859375
vt 0.43359375 0.98125
vt 0.40703125 0.98125
vt 0.59609375 0.3411140625
vt 0.62265625 0.3411140625
vt 0.62265625 0.328125
vt 0.59609375 0.328125
vt 0.40546875 0.91875
vt 0.37890625 0.91875
vt 0.37890625 0.9234375
vt 0.40546875 0.9375
vt 0.51562421875 0.28244375
vt 0.51562421875 0.3125
vt 0.52861328125 0.3125
vt 0.52861328125 0.28244375
vt 0.26640625 0.679784375
vt 0.275034375 0.666796875
vt 0.2625 0.666796875
vt 0.2515625 0.679784375
vt 0.257778125 0.6927734375
vt 0.26640625 0.679784375
vt 0.2515625 0.679784375
vt 0.240625 0.6927734375
vt 0.26640625 0.7057609375
vt 0.257778125 0.6927734375
vt 0.240625 0.6927734375
vt 0.2515625 0.7057609375
vt 0.62635625 0.76171875
vt 0.62635625 0.78125
vt 0.6433359375 0.78125
vt 0.6433359375 0.76171875
vt 0.609375 0.76171875
vt 0.609375 0.78125
vt 0.62635625 0.78125
vt 0.62635625 0.76171875
vt 0.63926875 0.93359375
vt 0.63926875 0.953125
vt 0.65625 0.953125
vt 0.65625 0.93359375
vt 0.62635625 0.7390625
vt 0.62635625 0.76171875
vt 0.6433359375 0.76171875
vt 0.6433359375 0.7390625
vt 0.609375 0.7390625
vt 0.609375 0.76171875
vt 0.62635625 0.76171875
vt 0.62635625 0.7390625
vt 0.63926875 0.9109375
vt 0.63926875 0.93359375
vt 0.65625 0.93359375
vt 0.65625 0.9109375
vt 0.118784375 0.692578125
vt 0.11015625 0.679590625
vt 0.0953125 0.679590625
vt 0.10625 0.692578125
vt 0.11015625 0.679590625
vt 0.101528125 0.6666015625
vt 0.084375 0.6666015625
vt 0.0953125 0.679590625
vt 0.101528125 0.6666015625
vt 0.11015625 0.6536140625
vt 0.0953125 0.6536140625
vt 0.084375 0.6666015625
vt 0.6432609375 0.71875
vt 0.6432609375 0.6953125
vt 0.6302734375 0.6953125
vt 0.6302734375 0.71875
vt 0.65625 0.71875
vt 0.65625 0.6953125
vt 0.6432609375 0.6953125
vt 0.6432609375 0.71875
vt 0.6692375 0.71875
vt 0.6692375 0.6953125
vt 0.65625 0.6953125
vt 0.65625 0.71875
vt 0.62265625 0.367090625
vt 0.59609375 0.367090625
vt 0.59609375 0.38007812500000004
vt 0.62265625 0.38007812500000004
vt 0.62265625 0.3541015625
vt 0.59609375 0.3541015625
vt 0.59609375 0.367090625
vt 0.62265625 0.367090625
vt 0.62265625 0.3411140625
vt 0.59609375 0.3411140625
vt 0.59609375 0.3541015625
vt 0.62265625 0.3541015625
vt 0.8776359375 0.375
vt 0.8776359375 0.37031250000000004
vt 0.8646484375 0.37031250000000004
vt 0.8646484375 0.375
vt 0.890625 0.375
vt 0.890625 0.37031250000000004
vt 0.8776359375 0.37031250000000004
vt 0.8776359375 0.375
vt 0.9036125 0.375
vt 0.9036125 0.37031250000000004
vt 0.890625 0.37031250000000004
vt 0.890625 0.375
vt 0.78125 0.28125
vt 0.78125 0.25
vt 0.765625 0.25
vt 0.765625 0.28125
vt 0.71875 0.22478125000000004
vt 0.71875 0.203125
vt 0.703125 0.203125
vt 0.703125 0.234375
vt 0.51562421875 0.3125
vt 0.51562421875 0.28244375
vt 0.50263671875 0.28244375
vt 0.50263671875 0.298690625
vt 0.6257640625 0.882325
vt 0.6312671875 0.890625
vt 0.6867359375 0.890625
vt 0.7023609375 0.882325
vt 0.6312671875 0.8740234375
vt 0.6257640625 0.882325
vt 0.7023609375 0.882325
vt 0.6867359375 0.8740234375
vt 0.275034375 0.666796875
vt 0.26640625 0.679784375
vt 0.321875 0.679784375
vt 0.321875 0.666796875
vt 0.360190625 0.980634375
vt 0.360190625 1
vt 0.40703125 1
vt 0.40703125 0.98125
vt 0.360190625 0.9578125
vt 0.360190625 0.980634375
vt 0.40703125 0.98125
vt 0.40703125 0.9578125
vt 0.11015625 0.679590625
vt 0.118784375 0.692578125
vt 0.165625 0.692578125
vt 0.165625 0.679590625
vt 0.101528125 0.6666015625
vt 0.11015625 0.679590625
vt 0.165625 0.679590625
vt 0.165625 0.6666015625
vt 0.11015625 0.6536140625
vt 0.101528125 0.6666015625
vt 0.165625 0.6666015625
vt 0.165625 0.6536140625
vt 0.118784375 0.640625
vt 0.11015625 0.6536140625
vt 0.165625 0.6536140625
vt 0.165625 0.640625
vt 0.452309375 0.918134375
vt 0.452309375 0.8953125
vt 0.40546875 0.8953125
vt 0.40546875 0.91875
vt 0.452309375 0.9375
vt 0.452309375 0.918134375
vt 0.40546875 0.91875
vt 0.40546875 0.9375
vt 0.26640625 0.7057609375
vt 0.275034375 0.71875
vt 0.321875 0.71875
vt 0.321875 0.7057609375
vt 0.609375 0.125
vt 0.6111015625 0.140625
vt 0.6210609375 0.140625
vt 0.6249671875 0.125
vt 0.421875 0.796875
vt 0.421875 0.8125
vt 0.484375 0.8125
vt 0.484375 0.796875
vt 0.171875 0.0976796875
vt 0.1740734375 0.109375
vt 0.1875 0.109375
vt 0.1875 0.09914531250000003
vt 0.515625 0.328125
vt 0.515625 0.34375
vt 0.578125 0.34375
vt 0.578125 0.328125
vt 0.8594078125 0.390625
vt 0.8633140625 0.40625
vt 0.8732734375 0.40625
vt 0.875 0.390625
vt 0.8125 0.625
vt 0.8125 0.640625
vt 0.83019375 0.640625
vt 0.8323921875 0.625
vn 1 -1.2246467991473532e-16 1.4997597826618576e-32
vn -0.7649111981170513 1.725584829695288e-16 0.6441357457827793
vn 1.2246467991473532e-16 1 -1.2246467991473532e-16
vn -1.2246467991473532e-16 -1 1.2246467991473532e-16
vn 0 -1.2246467991473532e-16 -1
vn 0 1.2246467991473532e-16 1
vn 0 -1.2246467991473532e-16 -1
vn -0.7649111981170512 1.7255848296952877e-16 0.6441357457827793
vn 0 1.2246467991473532e-16 1
vn 1 -1.2246467991473532e-16 1.4997597826618576e-32
vn 0 -1.2246467991473532e-16 -1
vn -1.2246467991473532e-16 -1 1.2246467991473532e-16
vn 0 1.2246467991473532e-16 1
vn 0.4678877204190324 0.8837879163470621 -1.0823280428795383e-16
vn 1.2246467991473532e-16 1 -1.2246467991473532e-16
vn 1.2246467991473532e-16 1 -1.2246467991473532e-16
vn 1.2246467991473532e-16 1 -1.2246467991473532e-16
vn -0.7649111981170513 1.4790727111673985e-17 -0.6441357457827793
vn -0.7649111981170508 1.479072711167387e-17 -0.6441357457827798
vn -0.7649111981170508 1.7255848296952874e-16 0.6441357457827798
vn -0.7649111981170512 1.4790727111673982e-17 -0.6441357457827793
vn -0.7649111981170509 1.4790727111673883e-17 -0.6441357457827798
vn -0.7649111981170509 1.7255848296952877e-16 0.6441357457827798
vn -1.2246467991473532e-16 -1 1.2246467991473532e-16
vn -1.2246467991473532e-16 -1 1.2246467991473532e-16
vn -1.2246467991473532e-16 -1 1.2246467991473532e-16
vn 1 -1.2246467991473532e-16 1.4997597826618576e-32
vn 1 -1.2246467991473532e-16 1.4997597826618576e-32
vn 1 -1.2246467991473532e-16 1.4997597826618576e-32
vn -1.2246467991473532e-16 -1 1.2246467991473532e-16
vn -1.2246467991473532e-16 -1 1.2246467991473532e-16
vn -1.2246467991473532e-16 -1 1.2246467991473532e-16
vn 1 -1.2246467991473532e-16 1.4997597826618576e-32
vn 1 -1.2246467991473532e-16 1.4997597826618576e-32
vn 1 -1.2246467991473532e-16 1.4997597826618576e-32
vn 0.4678877204190324 0.8837879163470621 -1.0823280428795383e-16
vn 0.7893522173763262 0.6139406135149206 -7.518604072076098e-17
vn 0.4678877204190324 0.8837879163470621 -1.0823280428795383e-16
vn 1.2246467991473532e-16 1 -1.2246467991473532e-16
vn 1.2246467991473532e-16 1 -1.2246467991473532e-16
vn 1.2246467991473532e-16 1 -1.2246467991473532e-16
vn 0 -1.2246467991473532e-16 -1
vn 0 -1.2246467991473532e-16 -1
vn -1.2246467991473532e-16 -1 1.2246467991473532e-16
vn -1.2246467991473532e-16 -1 1.2246467991473532e-16
vn -1.2246467991473532e-16 -1 1.2246467991473532e-16
vn -1.2246467991473532e-16 -1 1.2246467991473532e-16
vn 0 1.2246467991473532e-16 1
vn 0 1.2246467991473532e-16 1
vn 1.2246467991473532e-16 1 -1.2246467991473532e-16
vn -0.8107858492485878 0.23165309978530907 -0.5375529257832237
vn 4.8241200812734667e-17 0.3939192985791663 -0.9191450300180585
vn 0.4387799415081189 0.3539737343258758 -0.8259387134270473
vn 4.8241200812734667e-17 0.3939192985791665 0.9191450300180585
vn -0.8110244450436884 0.2304476208671895 0.5377111153567773
vn 0.4691552259617494 5.0695539333292017e-17 0.8831157194574106
usemtl m_cf5ac213-316c-e8d1-eaa3-0ce92fd50427
f 97/265/77 100/266/77 76/267/77 74/268/77
f 82/269/78 85/270/78 71/271/78 66/272/78
f 112/273/79 101/274/79 82/275/79 66/276/79
f 109/277/80 110/278/80 68/279/80 88/280/80
f 104/281/81 105/282/81 70/283/81 65/284/81
f 111/285/82 112/286/82 66/287/82 71/288/82
f 105/289/83 106/290/83 67/291/83 70/292/83
f 85/293/84 88/294/84 68/295/84 71/296/84
f 110/297/85 111/298/85 71/299/85 68/300/85
f 91/301/86 94/302/86 72/303/86 64/304/86
f 61/305/87 73/306/87 75/307/87 69/308/87
f 94/309/88 97/310/88 74/311/88 72/312/88
f 72/313/89 74/314/89 76/315/89 62/316/89
f 100/317/90 81/318/90 62/319/90 76/320/90
f 103/321/91 104/322/91 65/323/91 78/324/91
f 102/325/92 103/326/92 78/327/92 80/328/92
f 101/329/93 102/330/93 80/331/93 82/332/93
f 83/333/94 78/334/94 65/335/94 70/336/94
f 84/337/95 80/338/95 78/339/95 83/340/95
f 85/341/96 82/342/96 80/343/96 84/344/96
f 86/345/97 83/346/97 70/347/97 67/348/97
f 87/349/98 84/350/98 83/351/98 86/352/98
f 88/353/99 85/354/99 84/355/99 87/356/99
f 106/357/100 107/358/100 86/359/100 67/360/100
f 107/361/101 108/362/101 87/363/101 86/364/101
f 108/365/102 109/366/102 88/367/102 87/368/102
f 92/369/103 89/370/103 63/371/103 69/372/103
f 93/373/104 90/374/104 89/375/104 92/376/104
f 94/377/105 91/378/105 90/379/105 93/380/105
f 95/381/106 92/382/106 69/383/106 75/384/106
f 96/385/107 93/386/107 92/387/107 95/388/107
f 97/389/108 94/390/108 93/391/108 96/392/108
f 98/393/109 95/394/109 75/395/109 73/396/109
f 99/397/110 96/398/110 95/399/110 98/400/110
f 100/401/111 97/402/111 96/403/111 99/404/111
f 77/405/112 98/406/112 73/407/112 61/408/112
f 79/409/113 99/410/113 98/411/113 77/412/113
f 81/413/114 100/414/114 99/415/114 79/416/114
f 114/417/115 118/418/115 117/419/115 113/420/115
f 115/421/116 114/422/116 113/423/116 116/424/116
f 104/425/117 103/426/117 77/427/117 61/428/117
f 105/429/118 104/430/118 61/431/118 69/432/118
f 106/433/119 105/434/119 69/435/119 63/436/119
f 107/437/120 106/438/120 63/439/120 89/440/120
f 108/441/121 107/442/121 89/443/121 90/444/121
f 109/445/122 108/446/122 90/447/122 91/448/122
f 110/449/123 109/450/123 91/451/123 64/452/123
f 111/453/124 110/454/124 64/455/124 72/456/124
f 112/457/125 111/458/125 72/459/125 62/460/125
f 101/461/126 112/462/126 62/463/126 81/464/126
f 102/465/127 114/466/127 115/467/127 103/468/127
f 103/469/128 115/470/128 116/471/128 77/472/128
f 77/473/129 116/474/129 113/475/129 79/476/129
f 81/477/130 117/478/130 118/479/130 101/480/130
f 101/481/131 118/482/131 114/483/131 102/484/131
f 79/485/132 113/486/132 117/487/132 81/488/132
o plane
v 0.45625 1.1437499999999998 0.09375
v 0.45625 1.1437499999999998 -0.09375
v 0.625 1.1437499999999998 0.09375
v 0.625 1.1437499999999998 -0.09375
v 0.4125 1.1437499999999998 0.052083125
v 0.625 1.1437499999999998 0.052083125
v 0.4125 1.1437499999999998 -0.052083125
v 0.625 1.1437499999999998 -0.052083125
v 0.66875 1.1437499999999998 -0.0625
v 0.66875 1.1437499999999998 -0.024305625
v 0.66875 1.1437499999999998 0.024305625
v 0.66875 1.1437499999999998 0.0625
v 1.114994375 1.1437499999999998 0
v 1.358744375 1.1437499999999998 0
vt 0.32140546875 0.9895828125
vt 0.26828046875 0.9895828125
vt 0.26828046875 1
vt 0.31046796875 1
vt 0.26828046875 0.9635421875
vt 0.32140546875 0.9635421875
vt 0.31046796875 0.953125
vt 0.26828046875 0.953125
vt 0.25734296875 0.9826390625
vt 0.25734296875 0.9921875
vt 0.26828046875 1
vt 0.26828046875 0.9895828125
vt 0.25734296875 0.9609375
vt 0.25734296875 0.9704859375
vt 0.26828046875 0.9635421875
vt 0.26828046875 0.953125
vt 0.08484453125 0.9765625
vt 0.14578203125 0.9765625
vt 0.25734296875 0.9704859375
vt 0.25734296875 0.9609375
vt 0.14578203125 0.9765625
vt 0.08484453125 0.9765625
vt 0.25734296875 0.9921875
vt 0.25734296875 0.9826390625
vn 0 1 0
vn 0 1 0
vn 0 1 0
vn 0 1 0
vn 0 1 0
vn 0 1 0
usemtl m_cf5ac213-316c-e8d1-eaa3-0ce92fd50427
f 125/489/133 126/490/133 122/491/133 120/492/133
f 124/493/134 123/494/134 119/495/134 121/496/134
f 128/497/135 127/498/135 122/499/135 126/500/135
f 130/501/136 129/502/136 124/503/136 121/504/136
f 132/505/137 131/506/137 129/507/137 130/508/137
f 131/509/138 132/510/138 127/511/138 128/512/138
o cuboid
v 0.825 1.04375 0.109375
v 0.825 1.04375 -0.1171875
v 0.825 0.91875 0.109375
v 0.825 0.91875 -0.1171875
v 0.625 1.04375 0.084375
v 0.625 1.04375 -0.1171875
v 0.625 0.91875 0.084375
v 0.625 0.91875 -0.1171875
v 0.625 0.99375 -0.1171875
v 0.85 0.99375 -0.1171875
v 0.85 0.99375 0.109375
v 0.625 0.99375 0.084375
v 0.725 0.99375 -0.1171875
v 0.725 1.04375 -0.1171875
v 0.725 1.04375 0.109375
v 0.725 0.99375 0.109375
v 0.725 0.91875 0.109375
v 0.725 0.91875 -0.1171875
v 0.85 0.99375 -0.0421875
v 0.825 0.91875 -0.0421875
v 0.725 0.91875 -0.0421875
v 0.625 0.91875 -0.0421875
v 0.625 0.99375 -0.0421875
v 0.625 1.04375 -0.0421875
v 0.725 1.04375 -0.0421875
v 0.825 1.04375 -0.0421875
v 0.625 0.88125 -0.1484375
v 0.725 0.88125 -0.1484375
v 0.725 0.88125 -0.0421875
v 0.625 0.88125 -0.0421875
v 0.6812499999999999 0.91875 -0.0421875
v 0.6812499999999999 0.91875 0.109375
v 0.6812499999999999 0.99375 0.109375
v 0.6812499999999999 1.04375 0.109375
v 0.6812499999999999 1.04375 -0.0421875
v 0.6812499999999999 1.04375 -0.1171875
v 0.6812499999999999 0.99375 -0.1171875
v 0.6812499999999999 0.88125 -0.1484375
v 0.6812499999999999 0.88125 -0.0421875
v 0.725 0.89375 -0.1171875
v 0.8171875 0.89375 -0.0421875
v 0.725 0.89375 -0.0421875
v 0.8171875 0.89375 -0.1171875
v 0.8171875 0.89375 0.109375
v 0.725 0.89375 0.109375
v 0.6812499999999999 0.89375 -0.0421875
v 0.6812499999999999 0.89375 0.109375
vt 0.5685546875 0.8856875
vt 0.5685546875 0.8659234375
vt 0.5498046875 0.8659234375
vt 0.5498046875 0.8856875
vt 0.03125 0.575
vt 0.00625 0.575
vt 0.00625 0.59375
vt 0.03125 0.59375
vt 0.2095703125 0.44062500000000004
vt 0.2326171875 0.44062500000000004
vt 0.2326171875 0.421875
vt 0.2095703125 0.421875
vt 0.58046875 0.58125
vt 0.58046875 0.5625
vt 0.55546875 0.5625
vt 0.54921875 0.58125
vt 0.028125 0.484375
vt 0.028125 0.503125
vt 0.059375 0.503125
vt 0.053125 0.484375
vt 0.4556640625 0.625
vt 0.4556640625 0.64375
vt 0.4744140625 0.64375
vt 0.4744140625 0.625
vt 0.028125 0.503125
vt 0.028125 0.515625
vt 0.053125 0.515625
vt 0.059375 0.503125
vt 0.7091796875 0.5625
vt 0.7091796875 0.5485249999999999
vt 0.6904296875 0.5485249999999999
vt 0.6904296875 0.5625
vt 0.58046875 0.59375
vt 0.58046875 0.58125
vt 0.54921875 0.58125
vt 0.55546875 0.59375
vt 0.4556640625 0.64375
vt 0.4556640625 0.65625
vt 0.4744140625 0.65625
vt 0.4744140625 0.64375
vt 0.0171875 0.515625
vt 0.0171875 0.503125
vt 0.003125 0.503125
vt 0.003125 0.515625
vt 0.0421875 0.575
vt 0.0421875 0.59375
vt 0.05625 0.59375
vt 0.05625 0.575
vt 0.4377359375 0.19062500000000004
vt 0.4377359375 0.203125
vt 0.453125 0.203125
vt 0.453125 0.19062500000000004
vt 0.4377359375 0.171875
vt 0.4377359375 0.19062500000000004
vt 0.453125 0.19062500000000004
vt 0.453125 0.171875
vt 0.7484375 0.921875
vt 0.7484375 0.9484375
vt 0.7625 0.9484375
vt 0.7625 0.921875
vt 0.3921875 0.296875
vt 0.3921875 0.267684375
vt 0.378125 0.267684375
vt 0.378125 0.296875
vt 0.5685546875 0.8659234375
vt 0.5685546875 0.8856875
vt 0.6064453125 0.8856875
vt 0.6064453125 0.8659234375
vt 0.2326171875 0.44062500000000004
vt 0.2095703125 0.44062500000000004
vt 0.2095703125 0.478515625
vt 0.2326171875 0.478515625
vt 0.796875 0.703125
vt 0.796875 0.734375
vt 0.8125 0.728125
vt 0.8125 0.703125
vt 0.4556640625 0.64375
vt 0.4556640625 0.625
vt 0.4240234375 0.625
vt 0.4240234375 0.64375
vt 0.4556640625 0.65625
vt 0.4556640625 0.64375
vt 0.4240234375 0.64375
vt 0.4240234375 0.65625
vt 0.0421875 0.537109375
vt 0.0421875 0.575
vt 0.05625 0.575
vt 0.05625 0.543359375
vt 0.00625 0.575
vt 0.03125 0.575
vt 0.03125 0.537109375
vt 0.00625 0.537109375
vt 0.7091796875 0.5485249999999999
vt 0.7091796875 0.5625
vt 0.7470703125 0.5625
vt 0.7470703125 0.5485249999999999
vt 0.01015625 0.825
vt 0.00234375 0.815625
vt 0.01015625 0.84375
vt 0.4744140625 0.64375
vt 0.4822265625 0.615625
vt 0.4744140625 0.625
vt 0.4744140625 0.625
vt 0.4822265625 0.615625
vt 0.4556640625 0.615625
vt 0.4556640625 0.625
vt 0.8890625 0.678125
vt 0.8890625 0.6875
vt 0.903125 0.6875
vt 0.903125 0.678125
vt 0.02890625 0.825
vt 0.02890625 0.815625
vt 0.00234375 0.815625
vt 0.01015625 0.825
vt 0.2435546875 0.478515625
vt 0.2435546875 0.44062500000000004
vt 0.2326171875 0.44062500000000004
vt 0.2326171875 0.478515625
vt 0.59140625 0.58125
vt 0.59140625 0.5625
vt 0.58046875 0.5625
vt 0.58046875 0.58125
vt 0.59140625 0.59375
vt 0.59140625 0.58125
vt 0.58046875 0.58125
vt 0.58046875 0.59375
vt 0.0421875 0.575
vt 0.0421875 0.537109375
vt 0.03125 0.537109375
vt 0.03125 0.575
vt 0.0421875 0.59375
vt 0.0421875 0.575
vt 0.03125 0.575
vt 0.03125 0.59375
vt 0.0171875 0.503125
vt 0.0171875 0.515625
vt 0.028125 0.515625
vt 0.028125 0.503125
vt 0.3921875 0.267684375
vt 0.3921875 0.296875
vt 0.403125 0.296875
vt 0.403125 0.267684375
vt 0.7484375 0.9484375
vt 0.7484375 0.921875
vt 0.7375 0.921875
vt 0.7375 0.9484375
vt 0.8890625 0.6875
vt 0.8890625 0.678125
vt 0.878125 0.678125
vt 0.878125 0.6875
vt 0.875 0.46875
vt 0.875 0.453125
vt 0.859375 0.453125
vt 0.859375 0.46875
vt 0.5685546875 0.8659234375
vt 0.5685546875 0.859375
vt 0.5498046875 0.859375
vt 0.5498046875 0.8659234375
vt 0.053125 0.484375
vt 0.051171875 0.478125
vt 0.028125 0.478125
vt 0.028125 0.484375
vt 0.6064453125 0.8659234375
vt 0.6064453125 0.859375
vt 0.5685546875 0.859375
vt 0.5685546875 0.8659234375
vt 0.58046875 0.5625
vt 0.58046875 0.55625
vt 0.557421875 0.55625
vt 0.55546875 0.5625
vt 0.875 0.4375
vt 0.875 0.421875
vt 0.859375 0.421875
vt 0.859375 0.4375
vt 0.3125 0.203125
vt 0.3125 0.1875
vt 0.28125 0.1875
vt 0.28125 0.203125
vt 0.59140625 0.5625
vt 0.59140625 0.55625
vt 0.58046875 0.55625
vt 0.58046875 0.5625
vn 0.9486832980505139 -0.31622776601683783 0
vn 0 1 0
vn 0 -1 0
vn 0 0 1
vn 0 0 -1
vn -1 0 0
vn 0 0 -1
vn 0.8944271909999161 0.447213595499958 0
vn 0 0 1
vn -1 0 0
vn 0 0 -1
vn 0 1 0
vn -0.4061384660534477 0 0.9138115486202572
vn -0.4061384660534477 0 0.9138115486202572
vn 0 -1 0
vn 0 0.2676438637860945 -0.9635179096299407
vn 0.9486832980505139 -0.31622776601683783 0
vn 0 -1 0
vn 0 -1 0
vn -1 0 0
vn -1 0 0
vn 0 1 0
vn 0 1 0
vn 0.894427190999916 0.4472135954999579 0
vn 1 0 0
vn -1 0 0
vn -1 0 0
vn 0 0 1
vn 1 0 0
vn 0 -1 0
vn 0 0 1
vn 0 0 1
vn 0 1 0
vn 0 1 0
vn 0 0 -1
vn 0 0.2676438637860945 -0.9635179096299407
vn 0 -1 0
vn 0 0 1
vn -1 0 0
vn 0.9544799780350297 -0.29827499313594685 0
vn 0 0 -1
vn 0.9544799780350297 -0.29827499313594685 0
vn 0 0 1
vn 0 0 -1
vn -1 0 0
vn 0 0 1
usemtl m_cf5ac213-316c-e8d1-eaa3-0ce92fd50427
f 151/513/139 152/514/139 136/515/139 142/516/139
f 157/517/140 158/518/140 134/519/140 146/520/140
f 173/521/141 174/522/141 172/523/141 175/524/141
f 148/525/142 149/526/142 135/527/142 143/528/142
f 150/529/143 145/530/143 142/531/143 136/532/143
f 154/533/144 155/534/144 141/535/144 140/536/144
f 145/537/145 146/538/145 134/539/145 142/540/145
f 158/541/146 151/542/146 142/543/146 134/544/146
f 147/545/147 148/546/147 143/547/147 133/548/147
f 155/549/148 156/550/148 138/551/148 141/552/148
f 168/553/149 169/554/149 141/555/149 138/556/149
f 167/557/150 168/558/150 138/559/150 156/560/150
f 165/561/151 166/562/151 137/563/151 144/564/151
f 164/565/152 165/566/152 144/567/152 139/568/152
f 170/569/153 171/570/153 162/571/153 159/572/153
f 169/573/154 170/574/154 159/575/154 141/576/154
f 152/577/155 151/578/155 143/579/155 135/580/155
f 174/581/156 173/582/156 176/583/156 177/584/156
f 163/585/157 164/586/157 139/587/157 154/588/157
f 155/589/158 154/590/158 139/591/158 144/592/158
f 156/593/159 155/594/159 144/595/159 137/596/159
f 166/597/160 167/598/160 156/599/160 137/600/160
f 158/601/161 157/602/161 147/603/161 133/604/161
f 151/605/162 158/606/162 133/607/162 143/608/162
f 150/609/163 160/610/163 145/611/163
f 141/612/164 159/613/164 140/614/164
f 140/615/165 159/616/165 162/617/165 154/618/165
f 171/619/166 163/620/166 154/621/166 162/622/166
f 153/623/167 161/624/167 160/625/167 150/626/167
f 179/627/168 178/628/168 174/629/168 177/630/168
f 165/631/169 164/632/169 149/633/169 148/634/169
f 166/635/170 165/636/170 148/637/170 147/638/170
f 167/639/171 166/640/171 147/641/171 157/642/171
f 168/643/172 167/644/172 157/645/172 146/646/172
f 169/647/173 168/648/173 146/649/173 145/650/173
f 170/651/174 169/652/174 145/653/174 160/654/174
f 171/655/175 170/656/175 160/657/175 161/658/175
f 163/659/176 171/660/176 161/661/176 153/662/176
f 150/663/177 172/664/177 174/665/177 153/666/177
f 152/667/178 173/668/178 175/669/178 136/670/178
f 136/671/179 175/672/179 172/673/179 150/674/179
f 135/675/180 176/676/180 173/677/180 152/678/180
f 149/679/181 177/680/181 176/681/181 135/682/181
f 153/683/182 174/684/182 178/685/182 163/686/182
f 163/687/183 178/688/183 179/689/183 164/690/183
f 164/691/184 179/692/184 177/693/184 149/694/184