# Made in Blockbench 5.1.5
mtllib VampBody.mtl

o Toe
v -0.15624999999999928 0.03749999999999996 -0.2250000000000006
v -0.21250000000000013 0.09999999999999988 0.04999999999999934
v -0.15624999999999928 0.006249999999999964 -0.2250000000000006
v -0.2125000000000001 0.006249999999999992 0.04999999999999934
v -0.11874999999999937 0.037499999999999964 -0.22500000000000048
v -0.06250000000000021 0.0999999999999999 0.04999999999999978
v -0.11874999999999937 0.006249999999999964 -0.22500000000000048
v -0.0625000000000002 0.0062500000000000056 0.04999999999999978
v -0.21249999999999974 0.09999999999999987 -0.0812500000000006
v -0.21249999999999972 0.006249999999999971 -0.0812500000000006
v -0.062499999999999806 0.006249999999999985 -0.08125000000000016
v -0.06249999999999982 0.09999999999999987 -0.08125000000000016
v -0.21249999999999958 0.07871799380325364 -0.13019861425251705
v -0.06249999999999965 0.07871799380325364 -0.1301986142525166
v -0.06249999999999965 0.006249999999999978 -0.13019861425251658
v -0.21249999999999958 0.006249999999999964 -0.13019861425251703
vt 0.2678375 0.265625
vt 0.2556 0.2603046875
vt 0.2556 0.2421875
vt 0.2678375 0.2421875
vt 0.4509125 0.2421875
vt 0.46315 0.2421875
vt 0.46315 0.2603046875
vt 0.4509125 0.265625
vt 0.3640625 0.40625
vt 0.3640625 0.39290625
vt 0.4015625 0.39290625
vt 0.4015625 0.40625
vt 0.1046875 0.4453125
vt 0.1046875 0.45755
vt 0.0671875 0.45755
vt 0.0671875 0.4453125
vt 0.328125 0.71875
vt 0.328125 0.734375
vt 0.3125 0.734375
vt 0.3125 0.71875
vt 0.5 0.875
vt 0.46875 0.875
vt 0.46875 0.84375
vt 0.5 0.84375
vt 0.291275 0.265625
vt 0.2678375 0.265625
vt 0.2678375 0.2421875
vt 0.291275 0.2421875
vt 0.1046875 0.421875
vt 0.1046875 0.4453125
vt 0.0671875 0.4453125
vt 0.0671875 0.421875
vt 0.427475 0.2421875
vt 0.4509125 0.2421875
vt 0.4509125 0.265625
vt 0.427475 0.265625
vt 0.046875 0.296875
vt 0.046875 0.265625
vt 0.078125 0.265625
vt 0.078125 0.296875
vt 0.3875 0.36706249999999996
vt 0.4015625 0.39290625
vt 0.3640625 0.39290625
vt 0.378125 0.36706249999999996
vt 0.9375 0.9896953125
vt 0.90625 1
vt 0.90625 0.984375
vt 0.9375 0.984375
vt 0.08125 0.48124999999999996
vt 0.0671875 0.45755
vt 0.1046875 0.45755
vt 0.090625 0.48124999999999996
vt 0.90625 0.953125
vt 0.9375 0.953125
vt 0.9375 0.96875
vt 0.90625 0.9584453125
vn -1 -1.224646799147357e-16 -2.9629076969683865e-15
vn 1 1.224646799147357e-16 2.9629076969683865e-15
vn 1.0690799735937048e-15 0.9170700562532355 -0.3987261114144492
vn 1.224646799147353e-16 -1 1.224646799147357e-16
vn 2.9629076969683865e-15 -1.224646799147353e-16 -1
vn -2.9629076969683865e-15 1.224646799147353e-16 1
vn -1 -1.224646799147357e-16 -2.9629076969683865e-15
vn 1.224646799147353e-16 -1 1.224646799147357e-16
vn 1 1.224646799147357e-16 2.9629076969683865e-15
vn -1.224646799147353e-16 1 -1.224646799147357e-16
vn 1.0690799735937052e-15 0.9170700562532353 -0.39872611141444925
vn 0.8600073208230946 4.282903683897207e-17 -0.5102816948810558
vn 1.224646799147353e-16 -1 1.224646799147357e-16
vn -0.8600073208230915 -1.6781200569888692e-16 -0.5102816948810609
usemtl m_89b5679f-b5a3-0f3c-2eab-64994942e7c5
f 9/1/1 13/2/1 16/3/1 10/4/1
f 11/5/2 15/6/2 14/7/2 12/8/2
f 12/9/3 14/10/3 13/11/3 9/12/3
f 10/13/4 16/14/4 15/15/4 11/16/4
f 3/17/5 1/18/5 5/19/5 7/20/5
f 6/21/6 2/22/6 4/23/6 8/24/6
f 2/25/7 9/26/7 10/27/7 4/28/7
f 4/29/8 10/30/8 11/31/8 8/32/8
f 8/33/9 11/34/9 12/35/9 6/36/9
f 6/37/10 12/38/10 9/39/10 2/40/10
f 1/41/11 13/42/11 14/43/11 5/44/11
f 5/45/12 14/46/12 15/47/12 7/48/12
f 7/49/13 15/50/13 16/51/13 3/52/13
f 3/53/14 16/54/14 13/55/14 1/56/14
o Shin
v -0.02500000000000034 0.4562499999999998 0.06753048780487789
v -0.24999999999999975 0.4562499999999998 -0.10625000000000079
v -0.2500000000000004 0.4562499999999998 0.10624999999999915
v -0.2624999999999997 0.10729166666666665 -0.10625000000000079
v -0.2625000000000005 0.10729166666666667 0.16874999999999918
v -0.024999999999999828 0.4562499999999998 -0.10625000000000012
v -0.025000000000000466 0.4562499999999998 0.10624999999999982
v -0.012499999999999789 0.10729166666666667 -0.10625000000000004
v -0.012500000000000594 0.1072916666666667 0.16874999999999993
v -0.2131944444444442 0.10729166666666665 -0.10625000000000065
v -0.213194444444445 0.10729166666666667 0.16874999999999932
v -0.061805555555555294 0.10729166666666667 -0.1062500000000002
v -0.06180555555555611 0.1072916666666667 0.16874999999999976
v -0.23194444444444487 0.4562499999999998 0.1062499999999992
v -0.043055555555555985 0.4562499999999998 0.10624999999999978
v -0.23194444444444423 0.4562499999999998 -0.10625000000000073
v -0.04305555555555535 0.4562499999999998 -0.10625000000000018
v -0.2500000000000003 0.4562499999999998 0.06753048780487722
v -0.2625000000000002 0.10729166666666666 0.06753048780487723
v -0.24999999999999997 0.4562499999999998 -0.031656504065041474
v -0.2624999999999999 0.10729166666666666 -0.031656504065041474
v -0.2131944444444447 0.10729166666666666 0.06753048780487737
v -0.06180555555555581 0.10729166666666669 0.06753048780487782
v -0.012500000000000289 0.10729166666666669 0.06753048780487797
v -0.012500000000000011 0.10729166666666669 -0.03165650406504074
v -0.02500000000000005 0.4562499999999998 -0.03165650406504081
v -0.04305555555555586 0.4562499999999998 0.06753048780487783
v -0.04305555555555557 0.4562499999999998 -0.031656504065040864
v -0.23194444444444473 0.4562499999999998 0.06753048780487728
v -0.23194444444444445 0.4562499999999998 -0.03165650406504142
v -0.2131944444444442 0.00624999999999995 -0.10625000000000062
v -0.2624999999999999 0.00624999999999995 -0.03165650406504146
v -0.2131944444444447 0.006249999999999978 0.06753048780487739
v -0.2624999999999997 0.006249999999999922 -0.10625000000000079
v -0.2625000000000002 0.00624999999999995 0.06753048780487725
v -0.2131944444444447 0.006249999999999978 0.06753048780487739
v -0.2625000000000005 0.006249999999999978 0.16874999999999918
v -0.213194444444445 0.0062500000000000056 0.16874999999999934
v -0.06180555555555581 0.006249999999999978 0.06753048780487783
v -0.06180555555555611 0.0062500000000000056 0.1687499999999998
v -0.06180555555555581 0.006249999999999978 0.06753048780487783
v -0.012500000000000011 0.0062500000000000056 -0.031656504065040725
v -0.012500000000000289 0.0062500000000000056 0.06753048780487798
v -0.012500000000000594 0.006250000000000033 0.16874999999999993
v -0.012499999999999789 0.006249999999999978 -0.10625000000000004
v -0.061805555555555294 0.00624999999999995 -0.10625000000000018
v -0.1374999999999998 0.38749999999999984 -0.10625000000000046
v -0.13749999999999973 0.10729166666666666 -0.10625000000000043
v -0.13750000000000026 0.10729166666666667 0.0675304878048776
v -0.13750000000000023 0.006249999999999978 0.06753048780487761
v -0.13750000000000023 0.006249999999999978 0.06753048780487761
v -0.13750000000000054 0.0062500000000000056 0.16874999999999957
v -0.13750000000000057 0.10729166666666669 0.16874999999999954
v -0.13750000000000043 0.3874999999999999 0.11562499999999952
v -0.1375000000000003 0.3874999999999999 0.06753048780487757
v -0.1375 0.3874999999999999 -0.03165650406504114
vt 0.0359375 0.8189546875
vt 0.0545859375 0.8189546875
vt 0.0545859375 0.90625
vt 0.0359375 0.90625
vt 0.1984375 0.90625
vt 0.17978906249999999 0.90625
vt 0.17978906249999999 0.8189546875
vt 0.1984375 0.8189546875
vt 0.76006953125 0.009375000000000022
vt 0.76006953125 0.028023437500000026
vt 0.75555546875 0.028023437500000026
vt 0.75555546875 0.009375000000000022
vt 0.875 0.9340703125
vt 0.875 0.915421875
vt 0.890625 0.890625
vt 0.890625 0.9340703125
vt 0.2265625 0.7096359375
vt 0.23888906249999997 0.7096359375
vt 0.2342015625 0.796875
vt 0.2296875 0.796875
vt 0.27814287077338046 0.937494397326291
vt 0.2736288085318084 0.9374959247815464
vt 0.26891131960337084 0.8488709534979038
vt 0.281237881397681 0.8488667824717668
vt 0.31579843750000003 0.69375
vt 0.31579843750000003 0.6503046875
vt 0.328125 0.6751015625
vt 0.328125 0.69375
vt 0.42638906249999997 0.375
vt 0.4453125 0.375
vt 0.4453125 0.41844531250000006
vt 0.42638906249999997 0.41844531250000006
vt 0.21875 0.8488734375
vt 0.2310765625 0.8488734375
vt 0.2263890625 0.9375
vt 0.221875 0.9375
vt 0.2736288085318084 0.9374959247815464
vt 0.25000013260113446 0.9201721305207237
vt 0.24999999999996728 0.8488734023062461
vt 0.268911426068127 0.8488729535950101
vt 0.79131953125 0.009375000000000022
vt 0.79131953125 0.028023437500000026
vt 0.78680546875 0.028023437500000026
vt 0.78680546875 0.009375000000000022
vt 0.581640625 0.546875
vt 0.581640625 0.5176703125
vt 0.6002890625 0.5176703125
vt 0.6002890625 0.546875
vt 0.28593749999999996 0.796875
vt 0.2814234375 0.796875
vt 0.27673593750000003 0.7096359375
vt 0.2890625 0.7096359375
vt 0.23888906249999997 0.7096359375
vt 0.2578125 0.7096359375
vt 0.2578125 0.7796875
vt 0.2342015625 0.796875
vt 0.0890625 0.90625
vt 0.07938281250000001 0.90625
vt 0.07938281250000001 0.8189546875
vt 0.1046875 0.8189546875
vt 0.07938281250000001 0.90625
vt 0.0545859375 0.90625
vt 0.0545859375 0.8189546875
vt 0.07938281250000001 0.8189546875
vt 0.328125 0.625
vt 0.328125 0.6503046875
vt 0.31579843750000003 0.6503046875
vt 0.31579843750000003 0.625
vt 0.328125 0.6503046875
vt 0.328125 0.6751015625
vt 0.31579843750000003 0.6503046875
vt 0.31579843750000003 0.6503046875
vt 0.27795156249999997 0.625
vt 0.296875 0.625
vt 0.296875 0.6503046875
vt 0.27795156249999997 0.6503046875
vt 0 1
vt 0.015625 1
vt 0.015625 1
vt 0 1
vt 0.27795156249999997 0.625
vt 0.27795156249999997 0.6503046875
vt 0.265625 0.6503046875
vt 0.265625 0.625
vt 0.1296875 0.8189546875
vt 0.1549921875 0.8189546875
vt 0.1549921875 0.90625
vt 0.1453125 0.90625
vt 0.1549921875 0.8189546875
vt 0.17978906249999999 0.8189546875
vt 0.17978906249999999 0.90625
vt 0.1549921875 0.90625
vt 0.75555546875 0.0625
vt 0.75555546875 0.052820312499999966
vt 0.76006953125 0.052820312499999966
vt 0.76006953125 0.0625
vt 0.75555546875 0.052820312499999966
vt 0.75555546875 0.028023437500000026
vt 0.76006953125 0.028023437500000026
vt 0.76006953125 0.052820312499999966
vt 0.6250859375 0.546875
vt 0.6250859375 0.5176703125
vt 0.637109375 0.5176703125
vt 0.634765625 0.546875
vt 0.6002890625 0.546875
vt 0.6002890625 0.5176703125
vt 0.6250859375 0.5176703125
vt 0.6250859375 0.546875
vt 0.78680546875 0.0625
vt 0.78680546875 0.052820312499999966
vt 0.79131953125 0.052820312499999966
vt 0.79131953125 0.0625
vt 0.78680546875 0.052820312499999966
vt 0.78680546875 0.028023437500000026
vt 0.79131953125 0.028023437500000026
vt 0.79131953125 0.052820312499999966
vt 0 0.34375
vt 0.046875 0.34375
vt 0.046875 0.375
vt 0 0.375
vt 0.0359375 0.79369375
vt 0.0545859375 0.79369375
vt 0.0545859375 0.8189546875
vt 0.0359375 0.8189546875
vt 0.27673593750000003 0.684375
vt 0.2890625 0.684375
vt 0.2890625 0.7096359375
vt 0.27673593750000003 0.7096359375
vt 0.0545859375 0.79369375
vt 0.07938281250000001 0.79369375
vt 0.07938281250000001 0.8189546875
vt 0.0545859375 0.8189546875
vt 0.07938281250000001 0.79369375
vt 0.1046875 0.79369375
vt 0.1046875 0.8189546875
vt 0.07938281250000001 0.8189546875
vt 0.21875 0.8236125
vt 0.2310765625 0.8236125
vt 0.2310765625 0.8488734375
vt 0.21875 0.8488734375
vt 0.26892343750000003 0.8488734375
vt 0.25 0.8488734375
vt 0.25 0.8236125
vt 0.26892343750000003 0.8236125
vt 0.7076390625 0.9122390625
vt 0.7265625 0.9122390625
vt 0.7265625 0.9375
vt 0.7076390625 0.9375
vt 0.1549921875 0.79369375
vt 0.17978906249999999 0.79369375
vt 0.17978906249999999 0.8189546875
vt 0.1549921875 0.8189546875
vt 0.1296875 0.79369375
vt 0.1549921875 0.79369375
vt 0.1549921875 0.8189546875
vt 0.1296875 0.8189546875
vt 0.26892343750000003 0.8236125
vt 0.28125 0.8236125
vt 0.28125 0.8488734375
vt 0.26892343750000003 0.8488734375
vt 0.17978906249999999 0.79369375
vt 0.1984375 0.79369375
vt 0.1984375 0.8189546875
vt 0.17978906249999999 0.8189546875
vt 0.25 0.34375
vt 0.296875 0.34375
vt 0.296875 0.375
vt 0.25 0.375
vt 0.2265625 0.684375
vt 0.23888906249999997 0.684375
vt 0.23888906249999997 0.7096359375
vt 0.2265625 0.7096359375
vt 0.2814234375 0.796875
vt 0.2578125 0.7796875
vt 0.2578125 0.7096359375
vt 0.27673593750000003 0.7096359375
vt 0.46423593750000003 0.41844531250000006
vt 0.4453125 0.41844531250000006
vt 0.4453125 0.375
vt 0.46423593750000003 0.375
vt 0.7454859375 0.9375
vt 0.7265625 0.9375
vt 0.7265625 0.9122390625
vt 0.7454859375 0.9122390625
vt 0.015625 1
vt 0 1
vt 0 1
vt 0.015625 1
vt 0.31579843750000003 0.6503046875
vt 0.296875 0.6503046875
vt 0.296875 0.625
vt 0.31579843750000003 0.625
vt 0.2310765625 0.8236125
vt 0.25 0.8236125
vt 0.25 0.8488734375
vt 0.2310765625 0.8488734375
vt 0.2310765625 0.8488734375
vt 0.24999999999996728 0.8488734023062461
vt 0.25000013260349974 0.9201734023061228
vt 0.2263892273216192 0.9374968837176456
vt 0.583984375 0.765625
vt 0.581640625 0.7364203125
vt 0.5936640625 0.7364203125
vt 0.5936640625 0.765625
vt 0.5936640625 0.765625
vt 0.5936640625 0.7364203125
vt 0.6184609375 0.7364203125
vt 0.6184609375 0.765625
vt 0.6184609375 0.765625
vt 0.6184609375 0.7364203125
vt 0.637109375 0.7364203125
vt 0.637109375 0.765625
vt 0 1
vt 0 0.975203125
vt 0.012326562499999999 0.975203125
vt 0.012326562499999999 0.975203125
vn -0.999359048477321 0.03579793606485911 -2.965392599550249e-15
vn 0.999359048477321 0.0357979360648594 2.9566246339866662e-15
vn -1.224646799147353e-16 1 -1.224646799147357e-16
vn 1.224646799147353e-16 -1 1.224646799147357e-16
vn 2.9629076969683865e-15 -1.224646799147353e-16 -1
vn -2.938089029570887e-15 0.17629910028309942 0.9843366432473039
vn 1.224646799147353e-16 -1 1.224646799147357e-16
vn 1.224646799147353e-16 -1 1.224646799147357e-16
vn -2.9380890295708866e-15 0.17629910028309942 0.9843366432473037
vn -0.03804075391978085 0.18613803822757138 0.9817869075140521
vn -1.224646799147353e-16 1 -1.224646799147357e-16
vn -0.5885251100321495 0.8084789390340645 -1.8427556928600337e-15
vn 2.9629076969683865e-15 -1.224646799147353e-16 -1
vn 2.9629076969683865e-15 -1.224646799147353e-16 -1
vn -0.9993590484773209 0.0357979360648591 -2.9653925995502485e-15
vn -0.999359048477321 0.03579793606485911 -2.965392599550249e-15
vn 1.224646799147353e-16 -1 1.224646799147357e-16
vn 1.224646799147353e-16 -1 1.224646799147357e-16
vn 1.224646799147353e-16 -1 1.224646799147357e-16
vn 0 0 0
vn 1.224646799147353e-16 -1 1.224646799147357e-16
vn 0.9993590484773209 0.03579793606485939 2.956624633986666e-15
vn 0.999359048477321 0.0357979360648594 2.9566246339866662e-15
vn -1.224646799147353e-16 1 -1.224646799147357e-16
vn -1.224646799147353e-16 1 -1.224646799147357e-16
vn -0.5885251100321494 0.8084789390340644 -1.8427556928600333e-15
vn -0.5885251100321495 0.8084789390340645 -1.8427556928600337e-15
vn -1.224646799147353e-16 1 -1.224646799147357e-16
vn -1.224646799147353e-16 1 -1.224646799147357e-16
vn 1 1.224646799147357e-16 2.9629076969683865e-15
vn -1 -1.224646799147357e-16 -2.9629076969683865e-15
vn 2.9629076969683865e-15 -1.224646799147353e-16 -1
vn -1 -1.224646799147357e-16 -2.9629076969683865e-15
vn -1 -1.224646799147357e-16 -2.9629076969683865e-15
vn -2.9629076969683865e-15 1.224646799147353e-16 1
vn -2.9629076969683865e-15 1.224646799147353e-16 1
vn 2.9629076969683865e-15 -1.224646799147353e-16 -1
vn 1 1.224646799147357e-16 2.9629076969683865e-15
vn 1 1.224646799147357e-16 2.9629076969683865e-15
vn -2.9629076969683865e-15 1.224646799147353e-16 1
vn 1 1.224646799147357e-16 2.9629076969683865e-15
vn -1 -1.224646799147357e-16 -2.9629076969683865e-15
vn 2.9629076969683865e-15 -1.224646799147353e-16 -1
vn 2.9629076969683865e-15 -1.224646799147353e-16 -1
vn 1.224646799147353e-16 -1 1.224646799147357e-16
vn 2.9629076969683865e-15 -1.224646799147353e-16 -1
vn 0 0 0
vn 1.224646799147353e-16 -1 1.224646799147357e-16
vn -2.9629076969683865e-15 1.224646799147353e-16 1
vn -2.933862883819633e-15 0.18627286465627355 0.9824980508340695
vn 0.5885251100321492 0.8084789390340645 1.64473546388681e-15
vn 0.5885251100321492 0.8084789390340648 1.6447354638868102e-15
vn 0.5885251100321492 0.8084789390340648 1.6447354638868102e-15
vn 1.224646799147353e-16 -1 1.224646799147357e-16
usemtl m_89b5679f-b5a3-0f3c-2eab-64994942e7c5
f 20/57/15 37/58/15 36/59/15 18/60/15
f 22/61/16 42/62/16 41/63/16 24/64/16
f 33/65/17 44/66/17 42/67/17 22/68/17
f 61/69/18 58/70/18 57/71/18 62/72/18
f 24/73/19 28/74/19 33/75/19 22/76/19
f 23/77/20 31/78/20 29/79/20 25/80/20
f 47/81/21 49/82/21 48/83/21 50/84/21
f 39/85/22 65/86/22 64/87/22 28/88/22
f 21/89/23 27/90/23 30/91/23 19/92/23
f 31/93/24 70/94/24 69/95/24 29/96/24
f 18/97/25 36/98/25 46/99/25 32/100/25
f 33/101/26 63/102/26 72/103/26 44/104/26
f 18/105/27 32/106/27 26/107/27 20/108/27
f 28/109/28 64/110/28 63/111/28 33/112/28
f 19/113/29 34/114/29 35/115/29 21/116/29
f 34/117/30 36/118/30 37/119/30 35/120/30
f 53/121/31 51/122/31 52/123/31 54/124/31
f 51/125/32 48/126/32 49/127/32 52/128/32
f 56/129/33 68/130/33 67/131/33 55/132/33
f 55/133/34 66/134/34 67/135/34 57/136/34
f 56/137/35 55/138/35 59/139/35 60/140/35
f 25/141/36 40/142/36 17/143/36 23/144/36
f 40/145/37 41/146/37 42/147/37 17/148/37
f 23/149/38 17/150/38 43/151/38 31/152/38
f 17/153/39 42/154/39 44/155/39 43/156/39
f 43/157/40 71/158/40 70/159/40 31/160/40
f 44/161/41 72/162/41 71/163/41 43/164/41
f 30/165/42 45/166/42 34/167/42 19/168/42
f 45/169/43 46/170/43 36/171/43 34/172/43
f 49/173/44 47/174/44 26/175/44 38/176/44
f 50/177/45 48/178/45 37/179/45 20/180/45
f 47/181/46 50/182/46 20/183/46 26/184/46
f 48/185/47 51/186/47 35/187/47 37/188/47
f 51/189/48 53/190/48 21/191/48 35/192/48
f 53/193/49 54/194/49 27/195/49 21/196/49
f 29/197/50 69/198/50 68/199/50 56/200/50
f 57/201/51 66/202/51 65/203/51 39/204/51
f 59/205/52 58/206/52 41/207/52 40/208/52
f 60/209/53 59/210/53 40/211/53 25/212/53
f 56/213/54 60/214/54 25/215/54 29/216/54
f 58/217/55 61/218/55 24/219/55 41/220/55
f 62/221/56 57/222/56 39/223/56 28/224/56
f 61/225/57 62/226/57 28/227/57 24/228/57
f 32/229/58 63/230/58 64/231/58 26/232/58
f 26/233/59 64/234/59 65/235/59 38/236/59
f 38/237/60 65/238/60 66/239/60 49/240/60
f 49/241/61 66/242/61 67/243/61 52/244/61
f 52/245/62 67/246/62 68/247/62 54/248/62
f 54/249/63 68/250/63 69/251/63 27/252/63
f 27/253/64 69/254/64 70/255/64 30/256/64
f 30/257/65 70/258/65 71/259/65 45/260/65
f 45/261/66 71/262/66 72/263/66 46/264/66
f 46/265/67 72/266/67 63/267/67 32/268/67
f 58/269/68 59/270/68 57/271/68 55/272/68
o Thigh
v -0.2187499999999998 0.7062500000000002 -0.09000000000000077
v -0.21875000000000033 0.7062500000000002 0.08999999999999925
v -0.21249999999999974 0.38125 -0.09000000000000072
v -0.21250000000000027 0.38125 0.0899999999999993
v -0.056249999999999856 0.6612500000000002 -0.09000000000000029
v -0.05625000000000038 0.6612500000000002 0.08999999999999973
v -0.05624999999999983 0.38125 -0.09000000000000026
v -0.056250000000000355 0.38125 0.08999999999999976
v -0.2437499999999998 0.5697500000000001 -0.11250000000000082
v -0.24375000000000047 0.5697500000000001 0.11249999999999918
v -0.05625000000000044 0.5697500000000001 0.11249999999999974
v -0.05624999999999977 0.5697500000000001 -0.11250000000000027
v -0.1374999999999997 0.5697500000000001 -0.11250000000000052
v -0.1374999999999998 0.7087500000000001 -0.09000000000000054
v -0.13750000000000032 0.7087500000000001 0.08999999999999948
v -0.13750000000000037 0.5697500000000001 0.11249999999999949
v -0.1375000000000003 0.38125 0.08999999999999952
v -0.13749999999999976 0.38125 -0.0900000000000005
vt 0.5225 0.890625
vt 0.528125 0.9375
vt 0.471875 0.9375
vt 0.4775 0.890625
vt 0.24281250000000001 0.5784374999999999
vt 0.2484375 0.6255624999999999
vt 0.19218749999999998 0.6255624999999999
vt 0.1978125 0.5784374999999999
vt 0.859375 0.5
vt 0.859375 0.515625
vt 0.8125 0.515625
vt 0.8125 0.5
vt 0.58984375 0.43562500000000004
vt 0.57109375 0.43562500000000004
vt 0.57109375 0.390625
vt 0.58984375 0.390625
vt 0.5625 0.859959375
vt 0.5359375 0.859959375
vt 0.5359375 0.8125
vt 0.5546875 0.8125
vt 0.1328125 0.421875
vt 0.1515625 0.421875
vt 0.1515625 0.46933437499999997
vt 0.125 0.46933437499999997
vt 0.57125 0.5
vt 0.565625 0.46875
vt 0.621875 0.46875
vt 0.61625 0.5
vt 0.5858934641450363 0.792921875
vt 0.6124559641450363 0.792921875
vt 0.6124559641450363 0.828125
vt 0.5921434641450364 0.8275078124999999
vt 0.19625 0.65625
vt 0.190625 0.633375
vt 0.246875 0.633375
vt 0.24125000000000002 0.65625
vt 0.6265629946152345 0.6087568655148317
vt 0.6062499955003297 0.6093734487355169
vt 0.6062499955003297 0.574171875
vt 0.6328125044996704 0.5741712226465752
vt 0.5859374955003296 0.574171875
vt 0.6062499955003297 0.574171875
vt 0.6062499955003297 0.609375
vt 0.5859374955003296 0.5976515625000001
vt 0.453125 0.921875
vt 0.453125 0.953125
vt 0.40625 0.953125
vt 0.40625 0.921875
vt 0.6328565358549637 0.8164025133423253
vt 0.6124559641450363 0.828125
vt 0.6124559641450363 0.7929225771957517
vt 0.632680134408526 0.7929222008150749
vt 0.171875 0.46933437499999997
vt 0.1515625 0.46933437499999997
vt 0.1515625 0.421875
vt 0.171875 0.421875
vt 0.55078125 0.390625
vt 0.57109375 0.390625
vt 0.57109375 0.43562500000000004
vt 0.55078125 0.43562500000000004
vt 0.515625 0.8125
vt 0.5359375 0.8125
vt 0.5359375 0.859959375
vt 0.515625 0.859959375
vn -0.9865350075748679 -0.1635502333512718 -2.9029830402949976e-15
vn 1 1.224646799147357e-16 2.9629076969683865e-15
vn -0.03075467578697342 0.9995269630766537 -2.135300152063207e-16
vn 1.224646799147353e-16 -1 1.224646799147357e-16
vn 2.9565381710648495e-15 -0.11852205281617371 -0.9929514202599441
vn -2.9275086405429094e-15 -0.11852205281617345 0.9929514202599441
vn -0.9836384960749287 0.18015357070969423 -2.936492520427274e-15
vn -2.9444057951002106e-15 0.15979061814520884 0.9871509298748455
vn 1 1.224646799147357e-16 2.9629076969683865e-15
vn -0.004916574979918166 0.1597886868474381 -0.9871389987463967
vn 2.90526838129115e-15 0.15979061814520865 -0.9871509298748457
vn 0.5046965873311549 0.8632967941190827 1.3896460376739453e-15
vn 0.09301110178732469 0.15909793726779767 0.9828717013432833
vn -2.9275086405429094e-15 -0.11852205281617346 0.9929514202599441
vn 1.224646799147353e-16 -1 1.224646799147357e-16
vn 2.9565381710648495e-15 -0.11852205281617371 -0.9929514202599441
usemtl m_89b5679f-b5a3-0f3c-2eab-64994942e7c5
f 76/273/69 82/274/69 81/275/69 75/276/69
f 79/277/70 84/278/70 83/279/70 80/280/70
f 74/281/71 87/282/71 86/283/71 73/284/71
f 75/285/72 90/286/72 89/287/72 76/288/72
f 81/289/73 85/290/73 90/291/73 75/292/73
f 76/293/74 89/294/74 88/295/74 82/296/74
f 73/297/75 81/298/75 82/299/75 74/300/75
f 82/301/76 88/302/76 87/303/76 74/304/76
f 78/305/77 83/306/77 84/307/77 77/308/77
f 73/309/78 86/310/78 85/311/78 81/312/78
f 84/313/79 85/314/79 86/315/79 77/316/79
f 77/317/80 86/318/80 87/319/80 78/320/80
f 78/321/81 87/322/81 88/323/81 83/324/81
f 83/325/82 88/326/82 89/327/82 80/328/82
f 80/329/83 89/330/83 90/331/83 79/332/83
f 79/333/84 90/334/84 85/335/84 84/336/84
o Toe
v 0.15624999999999928 0.03749999999999996 -0.2250000000000006
v 0.21250000000000013 0.09999999999999988 0.04999999999999934
v 0.15624999999999928 0.006249999999999964 -0.2250000000000006
v 0.2125000000000001 0.006249999999999992 0.04999999999999934
v 0.11874999999999937 0.037499999999999964 -0.22500000000000048
v 0.06250000000000021 0.0999999999999999 0.04999999999999978
v 0.11874999999999937 0.006249999999999964 -0.22500000000000048
v 0.0625000000000002 0.0062500000000000056 0.04999999999999978
v 0.21249999999999974 0.09999999999999987 -0.0812500000000006
v 0.21249999999999972 0.006249999999999971 -0.0812500000000006
v 0.062499999999999806 0.006249999999999985 -0.08125000000000016
v 0.06249999999999982 0.09999999999999987 -0.08125000000000016
v 0.21249999999999958 0.07871799380325364 -0.13019861425251705
v 0.06249999999999965 0.07871799380325364 -0.1301986142525166
v 0.06249999999999965 0.006249999999999978 -0.13019861425251658
v 0.21249999999999958 0.006249999999999964 -0.13019861425251703
vt 0.2556 0.2421875
vt 0.2556 0.2603046875
vt 0.2678375 0.265625
vt 0.2678375 0.2421875
vt 0.46315 0.2603046875
vt 0.46315 0.2421875
vt 0.4509125 0.2421875
vt 0.4509125 0.265625
vt 0.4015625 0.39290625
vt 0.3640625 0.39290625
vt 0.3640625 0.40625
vt 0.4015625 0.40625
vt 0.0671875 0.45755
vt 0.1046875 0.45755
vt 0.1046875 0.4453125
vt 0.0671875 0.4453125
vt 0.3125 0.734375
vt 0.328125 0.734375
vt 0.328125 0.71875
vt 0.3125 0.71875
vt 0.46875 0.84375
vt 0.46875 0.875
vt 0.5 0.875
vt 0.5 0.84375
vt 0.2678375 0.2421875
vt 0.2678375 0.265625
vt 0.291275 0.265625
vt 0.291275 0.2421875
vt 0.0671875 0.4453125
vt 0.1046875 0.4453125
vt 0.1046875 0.421875
vt 0.0671875 0.421875
vt 0.4509125 0.265625
vt 0.4509125 0.2421875
vt 0.427475 0.2421875
vt 0.427475 0.265625
vt 0.078125 0.265625
vt 0.046875 0.265625
vt 0.046875 0.296875
vt 0.078125 0.296875
vt 0.3640625 0.39290625
vt 0.4015625 0.39290625
vt 0.3875 0.36706249999999996
vt 0.378125 0.36706249999999996
vt 0.90625 0.984375
vt 0.90625 1
vt 0.9375 0.9896953125
vt 0.9375 0.984375
vt 0.1046875 0.45755
vt 0.0671875 0.45755
vt 0.08125 0.48124999999999996
vt 0.090625 0.48124999999999996
vt 0.9375 0.96875
vt 0.9375 0.953125
vt 0.90625 0.953125
vt 0.90625 0.9584453125
vn 1 -1.224646799147357e-16 -2.9629076969683865e-15
vn -1 1.224646799147357e-16 2.9629076969683865e-15
vn -1.0690799735937048e-15 0.9170700562532355 -0.3987261114144492
vn -1.224646799147353e-16 -1 1.224646799147357e-16
vn -2.9629076969683865e-15 -1.224646799147353e-16 -1
vn 2.9629076969683865e-15 1.224646799147353e-16 1
vn 1 -1.224646799147357e-16 -2.9629076969683865e-15
vn -1.224646799147353e-16 -1 1.224646799147357e-16
vn -1 1.224646799147357e-16 2.9629076969683865e-15
vn 1.224646799147353e-16 1 -1.224646799147357e-16
vn -1.0690799735937052e-15 0.9170700562532355 -0.39872611141444925
vn -0.8600073208230946 4.282903683897207e-17 -0.5102816948810558
vn -1.224646799147353e-16 -1 1.224646799147357e-16
vn 0.8600073208230915 -1.6781200569888692e-16 -0.5102816948810609
usemtl m_89b5679f-b5a3-0f3c-2eab-64994942e7c5
f 106/337/85 103/338/85 99/339/85 100/340/85
f 104/341/86 105/342/86 101/343/86 102/344/86
f 103/345/87 104/346/87 102/347/87 99/348/87
f 105/349/88 106/350/88 100/351/88 101/352/88
f 95/353/89 91/354/89 93/355/89 97/356/89
f 94/357/90 92/358/90 96/359/90 98/360/90
f 100/361/91 99/362/91 92/363/91 94/364/91
f 101/365/92 100/366/92 94/367/92 98/368/92
f 102/369/93 101/370/93 98/371/93 96/372/93
f 99/373/94 102/374/94 96/375/94 92/376/94
f 104/377/95 103/378/95 91/379/95 95/380/95
f 105/381/96 104/382/96 95/383/96 97/384/96
f 106/385/97 105/386/97 97/387/97 93/388/97
f 103/389/98 106/390/98 93/391/98 91/392/98
o Shin
v 0.02500000000000034 0.4562499999999998 0.06753048780487789
v 0.24999999999999975 0.4562499999999998 -0.10625000000000079
v 0.2500000000000004 0.4562499999999998 0.10624999999999915
v 0.2624999999999997 0.10729166666666665 -0.10625000000000079
v 0.2625000000000005 0.10729166666666667 0.16874999999999918
v 0.024999999999999828 0.4562499999999998 -0.10625000000000012
v 0.025000000000000466 0.4562499999999998 0.10624999999999982
v 0.012499999999999789 0.10729166666666667 -0.10625000000000004
v 0.012500000000000594 0.1072916666666667 0.16874999999999993
v 0.2131944444444442 0.10729166666666665 -0.10625000000000065
v 0.213194444444445 0.10729166666666667 0.16874999999999932
v 0.061805555555555294 0.10729166666666667 -0.1062500000000002
v 0.06180555555555611 0.1072916666666667 0.16874999999999976
v 0.23194444444444487 0.4562499999999998 0.1062499999999992
v 0.043055555555555985 0.4562499999999998 0.10624999999999978
v 0.23194444444444423 0.4562499999999998 -0.10625000000000073
v 0.04305555555555535 0.4562499999999998 -0.10625000000000018
v 0.2500000000000003 0.4562499999999998 0.06753048780487722
v 0.2625000000000002 0.10729166666666666 0.06753048780487723
v 0.24999999999999997 0.4562499999999998 -0.031656504065041474
v 0.2624999999999999 0.10729166666666666 -0.031656504065041474
v 0.2131944444444447 0.10729166666666666 0.06753048780487737
v 0.06180555555555581 0.10729166666666669 0.06753048780487782
v 0.012500000000000289 0.10729166666666669 0.06753048780487797
v 0.012500000000000011 0.10729166666666669 -0.03165650406504074
v 0.02500000000000005 0.4562499999999998 -0.03165650406504081
v 0.04305555555555586 0.4562499999999998 0.06753048780487783
v 0.04305555555555557 0.4562499999999998 -0.031656504065040864
v 0.23194444444444473 0.4562499999999998 0.06753048780487728
v 0.23194444444444445 0.4562499999999998 -0.03165650406504142
v 0.2131944444444442 0.00624999999999995 -0.10625000000000062
v 0.2624999999999999 0.00624999999999995 -0.03165650406504146
v 0.2131944444444447 0.006249999999999978 0.06753048780487739
v 0.2624999999999997 0.006249999999999922 -0.10625000000000079
v 0.2625000000000002 0.00624999999999995 0.06753048780487725
v 0.2131944444444447 0.006249999999999978 0.06753048780487739
v 0.2625000000000005 0.006249999999999978 0.16874999999999918
v 0.213194444444445 0.0062500000000000056 0.16874999999999934
v 0.06180555555555581 0.006249999999999978 0.06753048780487783
v 0.06180555555555611 0.0062500000000000056 0.1687499999999998
v 0.06180555555555581 0.006249999999999978 0.06753048780487783
v 0.012500000000000011 0.0062500000000000056 -0.031656504065040725
v 0.012500000000000289 0.0062500000000000056 0.06753048780487798
v 0.012500000000000594 0.006250000000000033 0.16874999999999993
v 0.012499999999999789 0.006249999999999978 -0.10625000000000004
v 0.061805555555555294 0.00624999999999995 -0.10625000000000018
v 0.1374999999999998 0.38749999999999984 -0.10625000000000046
v 0.13749999999999973 0.10729166666666666 -0.10625000000000043
v 0.13750000000000026 0.10729166666666667 0.0675304878048776
v 0.13750000000000023 0.006249999999999978 0.06753048780487761
v 0.13750000000000023 0.006249999999999978 0.06753048780487761
v 0.13750000000000054 0.0062500000000000056 0.16874999999999957
v 0.13750000000000057 0.10729166666666669 0.16874999999999954
v 0.13750000000000043 0.3874999999999999 0.11562499999999952
v 0.1375000000000003 0.3874999999999999 0.06753048780487757
v 0.1375 0.3874999999999999 -0.03165650406504114
vt 0.0545859375 0.90625
vt 0.0545859375 0.8189546875
vt 0.0359375 0.8189546875
vt 0.0359375 0.90625
vt 0.17978906249999999 0.8189546875
vt 0.17978906249999999 0.90625
vt 0.1984375 0.90625
vt 0.1984375 0.8189546875
vt 0.75555546875 0.028023437500000026
vt 0.76006953125 0.028023437500000026
vt 0.76006953125 0.009375000000000022
vt 0.75555546875 0.009375000000000022
vt 0.890625 0.890625
vt 0.875 0.915421875
vt 0.875 0.9340703125
vt 0.890625 0.9340703125
vt 0.2342015625 0.796875
vt 0.23888906249999997 0.7096359375
vt 0.2265625 0.7096359375
vt 0.2296875 0.796875
vt 0.26891131960337084 0.8488709534979038
vt 0.2736288085318084 0.9374959247815464
vt 0.27814287077338046 0.937494397326291
vt 0.281237881397681 0.8488667824717668
vt 0.328125 0.6751015625
vt 0.31579843750000003 0.6503046875
vt 0.31579843750000003 0.69375
vt 0.328125 0.69375
vt 0.4453125 0.41844531250000006
vt 0.4453125 0.375
vt 0.42638906249999997 0.375
vt 0.42638906249999997 0.41844531250000006
vt 0.2263890625 0.9375
vt 0.2310765625 0.8488734375
vt 0.21875 0.8488734375
vt 0.221875 0.9375
vt 0.24999999999996728 0.8488734023062461
vt 0.25000013260113446 0.9201721305207237
vt 0.2736288085318084 0.9374959247815464
vt 0.268911426068127 0.8488729535950101
vt 0.78680546875 0.028023437500000026
vt 0.79131953125 0.028023437500000026
vt 0.79131953125 0.009375000000000022
vt 0.78680546875 0.009375000000000022
vt 0.6002890625 0.5176703125
vt 0.581640625 0.5176703125
vt 0.581640625 0.546875
vt 0.6002890625 0.546875
vt 0.27673593750000003 0.7096359375
vt 0.2814234375 0.796875
vt 0.28593749999999996 0.796875
vt 0.2890625 0.7096359375
vt 0.2578125 0.7796875
vt 0.2578125 0.7096359375
vt 0.23888906249999997 0.7096359375
vt 0.2342015625 0.796875
vt 0.07938281250000001 0.8189546875
vt 0.07938281250000001 0.90625
vt 0.0890625 0.90625
vt 0.1046875 0.8189546875
vt 0.0545859375 0.8189546875
vt 0.0545859375 0.90625
vt 0.07938281250000001 0.90625
vt 0.07938281250000001 0.8189546875
vt 0.31579843750000003 0.6503046875
vt 0.328125 0.6503046875
vt 0.328125 0.625
vt 0.31579843750000003 0.625
vt 0.328125 0.6751015625
vt 0.328125 0.6503046875
vt 0.31579843750000003 0.6503046875
vt 0.31579843750000003 0.6503046875
vt 0.296875 0.6503046875
vt 0.296875 0.625
vt 0.27795156249999997 0.625
vt 0.27795156249999997 0.6503046875
vt 0.015625 1
vt 0 1
vt 0.015625 1
vt 0 1
vt 0.265625 0.6503046875
vt 0.27795156249999997 0.6503046875
vt 0.27795156249999997 0.625
vt 0.265625 0.625
vt 0.1549921875 0.90625
vt 0.1549921875 0.8189546875
vt 0.1296875 0.8189546875
vt 0.1453125 0.90625
vt 0.17978906249999999 0.90625
vt 0.17978906249999999 0.8189546875
vt 0.1549921875 0.8189546875
vt 0.1549921875 0.90625
vt 0.76006953125 0.052820312499999966
vt 0.75555546875 0.052820312499999966
vt 0.75555546875 0.0625
vt 0.76006953125 0.0625
vt 0.76006953125 0.028023437500000026
vt 0.75555546875 0.028023437500000026
vt 0.75555546875 0.052820312499999966
vt 0.76006953125 0.052820312499999966
vt 0.637109375 0.5176703125
vt 0.6250859375 0.5176703125
vt 0.6250859375 0.546875
vt 0.634765625 0.546875
vt 0.6250859375 0.5176703125
vt 0.6002890625 0.5176703125
vt 0.6002890625 0.546875
vt 0.6250859375 0.546875
vt 0.79131953125 0.052820312499999966
vt 0.78680546875 0.052820312499999966
vt 0.78680546875 0.0625
vt 0.79131953125 0.0625
vt 0.79131953125 0.028023437500000026
vt 0.78680546875 0.028023437500000026
vt 0.78680546875 0.052820312499999966
vt 0.79131953125 0.052820312499999966
vt 0.046875 0.375
vt 0.046875 0.34375
vt 0 0.34375
vt 0 0.375
vt 0.0545859375 0.8189546875
vt 0.0545859375 0.79369375
vt 0.0359375 0.79369375
vt 0.0359375 0.8189546875
vt 0.2890625 0.7096359375
vt 0.2890625 0.684375
vt 0.27673593750000003 0.684375
vt 0.27673593750000003 0.7096359375
vt 0.07938281250000001 0.8189546875
vt 0.07938281250000001 0.79369375
vt 0.0545859375 0.79369375
vt 0.0545859375 0.8189546875
vt 0.1046875 0.8189546875
vt 0.1046875 0.79369375
vt 0.07938281250000001 0.79369375
vt 0.07938281250000001 0.8189546875
vt 0.2310765625 0.8488734375
vt 0.2310765625 0.8236125
vt 0.21875 0.8236125
vt 0.21875 0.8488734375
vt 0.25 0.8236125
vt 0.25 0.8488734375
vt 0.26892343750000003 0.8488734375
vt 0.26892343750000003 0.8236125
vt 0.7265625 0.9375
vt 0.7265625 0.9122390625
vt 0.7076390625 0.9122390625
vt 0.7076390625 0.9375
vt 0.17978906249999999 0.8189546875
vt 0.17978906249999999 0.79369375
vt 0.1549921875 0.79369375
vt 0.1549921875 0.8189546875
vt 0.1549921875 0.8189546875
vt 0.1549921875 0.79369375
vt 0.1296875 0.79369375
vt 0.1296875 0.8189546875
vt 0.28125 0.8488734375
vt 0.28125 0.8236125
vt 0.26892343750000003 0.8236125
vt 0.26892343750000003 0.8488734375
vt 0.1984375 0.8189546875
vt 0.1984375 0.79369375
vt 0.17978906249999999 0.79369375
vt 0.17978906249999999 0.8189546875
vt 0.296875 0.375
vt 0.296875 0.34375
vt 0.25 0.34375
vt 0.25 0.375
vt 0.23888906249999997 0.7096359375
vt 0.23888906249999997 0.684375
vt 0.2265625 0.684375
vt 0.2265625 0.7096359375
vt 0.2578125 0.7096359375
vt 0.2578125 0.7796875
vt 0.2814234375 0.796875
vt 0.27673593750000003 0.7096359375
vt 0.4453125 0.375
vt 0.4453125 0.41844531250000006
vt 0.46423593750000003 0.41844531250000006
vt 0.46423593750000003 0.375
vt 0.7265625 0.9122390625
vt 0.7265625 0.9375
vt 0.7454859375 0.9375
vt 0.7454859375 0.9122390625
vt 0 1
vt 0.015625 1
vt 0 1
vt 0.015625 1
vt 0.296875 0.625
vt 0.296875 0.6503046875
vt 0.31579843750000003 0.6503046875
vt 0.31579843750000003 0.625
vt 0.25 0.8488734375
vt 0.25 0.8236125
vt 0.2310765625 0.8236125
vt 0.2310765625 0.8488734375
vt 0.25000013260349974 0.9201734023061228
vt 0.24999999999996728 0.8488734023062461
vt 0.2310765625 0.8488734375
vt 0.2263892273216192 0.9374968837176456
vt 0.5936640625 0.7364203125
vt 0.581640625 0.7364203125
vt 0.583984375 0.765625
vt 0.5936640625 0.765625
vt 0.6184609375 0.7364203125
vt 0.5936640625 0.7364203125
vt 0.5936640625 0.765625
vt 0.6184609375 0.765625
vt 0.637109375 0.7364203125
vt 0.6184609375 0.7364203125
vt 0.6184609375 0.765625
vt 0.637109375 0.765625
vt 0 0.975203125
vt 0 1
vt 0.012326562499999999 0.975203125
vt 0.012326562499999999 0.975203125
vn 0.999359048477321 0.03579793606485911 -2.965392599550249e-15
vn -0.999359048477321 0.0357979360648594 2.9566246339866662e-15
vn 1.224646799147353e-16 1 -1.224646799147357e-16
vn -1.224646799147353e-16 -1 1.224646799147357e-16
vn -2.9629076969683865e-15 -1.224646799147353e-16 -1
vn 2.938089029570887e-15 0.17629910028309945 0.9843366432473039
vn -1.224646799147353e-16 -1 1.224646799147357e-16
vn -1.224646799147353e-16 -1 1.224646799147357e-16
vn 2.9380890295708866e-15 0.17629910028309942 0.9843366432473037
vn 0.03804075391978087 0.18613803822757138 0.9817869075140521
vn 1.224646799147353e-16 1 -1.224646799147357e-16
vn 0.5885251100321495 0.8084789390340645 -1.8427556928600337e-15
vn -2.9629076969683865e-15 -1.224646799147353e-16 -1
vn -2.9629076969683865e-15 -1.224646799147353e-16 -1
vn 0.9993590484773209 0.0357979360648591 -2.9653925995502485e-15
vn 0.999359048477321 0.03579793606485911 -2.965392599550249e-15
vn -1.224646799147353e-16 -1 1.224646799147357e-16
vn -1.224646799147353e-16 -1 1.224646799147357e-16
vn -1.224646799147353e-16 -1 1.224646799147357e-16
vn 0 0 0
vn -1.224646799147353e-16 -1 1.224646799147357e-16
vn -0.9993590484773209 0.03579793606485939 2.956624633986666e-15
vn -0.999359048477321 0.0357979360648594 2.9566246339866662e-15
vn 1.224646799147353e-16 1 -1.224646799147357e-16
vn 1.224646799147353e-16 1 -1.224646799147357e-16
vn 0.5885251100321494 0.8084789390340644 -1.8427556928600333e-15
vn 0.5885251100321495 0.8084789390340645 -1.8427556928600337e-15
vn 1.224646799147353e-16 1 -1.224646799147357e-16
vn 1.224646799147353e-16 1 -1.224646799147357e-16
vn -1 1.224646799147357e-16 2.9629076969683865e-15
vn 1 -1.224646799147357e-16 -2.9629076969683865e-15
vn -2.9629076969683865e-15 -1.224646799147353e-16 -1
vn 1 -1.224646799147357e-16 -2.9629076969683865e-15
vn 1 -1.224646799147357e-16 -2.9629076969683865e-15
vn 2.9629076969683865e-15 1.224646799147353e-16 1
vn 2.9629076969683865e-15 1.224646799147353e-16 1
vn -2.9629076969683865e-15 -1.224646799147353e-16 -1
vn -1 1.224646799147357e-16 2.9629076969683865e-15
vn -1 1.224646799147357e-16 2.9629076969683865e-15
vn 2.9629076969683865e-15 1.224646799147353e-16 1
vn -1 1.224646799147357e-16 2.9629076969683865e-15
vn 1 -1.224646799147357e-16 -2.9629076969683865e-15
vn -2.9629076969683865e-15 -1.224646799147353e-16 -1
vn -2.9629076969683865e-15 -1.224646799147353e-16 -1
vn -1.224646799147353e-16 -1 1.224646799147357e-16
vn -2.9629076969683865e-15 -1.224646799147353e-16 -1
vn 0 0 0
vn -1.224646799147353e-16 -1 1.224646799147357e-16
vn 2.9629076969683865e-15 1.224646799147353e-16 1
vn 2.933862883819633e-15 0.18627286465627355 0.9824980508340695
vn -0.5885251100321491 0.8084789390340646 1.6447354638868098e-15
vn -0.5885251100321492 0.8084789390340648 1.6447354638868102e-15
vn -0.5885251100321492 0.8084789390340648 1.6447354638868102e-15
vn -1.224646799147353e-16 -1 1.224646799147357e-16
usemtl m_89b5679f-b5a3-0f3c-2eab-64994942e7c5
f 126/393/99 127/394/99 110/395/99 108/396/99
f 131/397/100 132/398/100 112/399/100 114/400/100
f 132/401/101 134/402/101 123/403/101 112/404/101
f 147/405/102 148/406/102 151/407/102 152/408/102
f 123/409/103 118/410/103 114/411/103 112/412/103
f 119/413/104 121/414/104 113/415/104 115/416/104
f 138/417/105 139/418/105 137/419/105 140/420/105
f 154/421/106 155/422/106 129/423/106 118/424/106
f 120/425/107 117/426/107 111/427/107 109/428/107
f 159/429/108 160/430/108 121/431/108 119/432/108
f 136/433/109 126/434/109 108/435/109 122/436/109
f 162/437/110 153/438/110 123/439/110 134/440/110
f 116/441/111 122/442/111 108/443/111 110/444/111
f 153/445/112 154/446/112 118/447/112 123/448/112
f 125/449/113 124/450/113 109/451/113 111/452/113
f 127/453/114 126/454/114 124/455/114 125/456/114
f 142/457/115 141/458/115 143/459/115 144/460/115
f 138/461/116 141/462/116 139/463/116 142/464/116
f 157/465/117 158/466/117 146/467/117 145/468/117
f 156/469/118 145/470/118 157/471/118 147/472/118
f 149/473/119 145/474/119 146/475/119 150/476/119
f 107/477/120 130/478/120 115/479/120 113/480/120
f 132/481/121 131/482/121 130/483/121 107/484/121
f 133/485/122 107/486/122 113/487/122 121/488/122
f 134/489/123 132/490/123 107/491/123 133/492/123
f 160/493/124 161/494/124 133/495/124 121/496/124
f 161/497/125 162/498/125 134/499/125 133/500/125
f 124/501/126 135/502/126 120/503/126 109/504/126
f 126/505/127 136/506/127 135/507/127 124/508/127
f 116/509/128 137/510/128 139/511/128 128/512/128
f 127/513/129 138/514/129 140/515/129 110/516/129
f 110/517/130 140/518/130 137/519/130 116/520/130
f 125/521/131 141/522/131 138/523/131 127/524/131
f 111/525/132 143/526/132 141/527/132 125/528/132
f 117/529/133 144/530/133 143/531/133 111/532/133
f 158/533/134 159/534/134 119/535/134 146/536/134
f 155/537/135 156/538/135 147/539/135 129/540/135
f 131/541/136 148/542/136 149/543/136 130/544/136
f 130/545/137 149/546/137 150/547/137 115/548/137
f 115/549/138 150/550/138 146/551/138 119/552/138
f 114/553/139 151/554/139 148/555/139 131/556/139
f 129/557/140 147/558/140 152/559/140 118/560/140
f 118/561/141 152/562/141 151/563/141 114/564/141
f 154/565/142 153/566/142 122/567/142 116/568/142
f 155/569/143 154/570/143 116/571/143 128/572/143
f 156/573/144 155/574/144 128/575/144 139/576/144
f 156/577/145 139/578/145 157/579/145 142/580/145
f 158/581/146 157/582/146 142/583/146 144/584/146
f 159/585/147 158/586/147 144/587/147 117/588/147
f 160/589/148 159/590/148 117/591/148 120/592/148
f 161/593/149 160/594/149 120/595/149 135/596/149
f 162/597/150 161/598/150 135/599/150 136/600/150
f 153/601/151 162/602/151 136/603/151 122/604/151
f 149/605/152 148/606/152 147/607/152 145/608/152
o Thigh
v 0.2187499999999998 0.7062500000000002 -0.09000000000000077
v 0.21875000000000033 0.7062500000000002 0.08999999999999925
v 0.21249999999999974 0.38125 -0.09000000000000072
v 0.21250000000000027 0.38125 0.0899999999999993
v 0.056249999999999856 0.6612500000000002 -0.09000000000000029
v 0.05625000000000038 0.6612500000000002 0.08999999999999973
v 0.05624999999999983 0.38125 -0.09000000000000026
v 0.056250000000000355 0.38125 0.08999999999999976
v 0.2437499999999998 0.5697500000000001 -0.11250000000000082
v 0.24375000000000047 0.5697500000000001 0.11249999999999918
v 0.05625000000000044 0.5697500000000001 0.11249999999999974
v 0.05624999999999977 0.5697500000000001 -0.11250000000000027
v 0.1374999999999997 0.5697500000000001 -0.11250000000000052
v 0.1374999999999998 0.7087500000000001 -0.09000000000000054
v 0.13750000000000032 0.7087500000000001 0.08999999999999948
v 0.13750000000000037 0.5697500000000001 0.11249999999999949
v 0.1375000000000003 0.38125 0.08999999999999952
v 0.13749999999999976 0.38125 -0.0900000000000005
vt 0.471875 0.9375
vt 0.528125 0.9375
vt 0.5225 0.890625
vt 0.4775 0.890625
vt 0.19218749999999998 0.6255624999999999
vt 0.2484375 0.6255624999999999
vt 0.24281250000000001 0.5784374999999999
vt 0.1978125 0.5784374999999999
vt 0.8125 0.515625
vt 0.859375 0.515625
vt 0.859375 0.5
vt 0.8125 0.5
vt 0.57109375 0.390625
vt 0.57109375 0.43562500000000004
vt 0.58984375 0.43562500000000004
vt 0.58984375 0.390625
vt 0.5359375 0.8125
vt 0.5359375 0.859959375
vt 0.5625 0.859959375
vt 0.5546875 0.8125
vt 0.1515625 0.46933437499999997
vt 0.1515625 0.421875
vt 0.1328125 0.421875
vt 0.125 0.46933437499999997
vt 0.621875 0.46875
vt 0.565625 0.46875
vt 0.57125 0.5
vt 0.61625 0.5
vt 0.6124559641450363 0.828125
vt 0.6124559641450363 0.792921875
vt 0.5858934641450363 0.792921875
vt 0.5921434641450364 0.8275078124999999
vt 0.246875 0.633375
vt 0.190625 0.633375
vt 0.19625 0.65625
vt 0.24125000000000002 0.65625
vt 0.6062499955003297 0.574171875
vt 0.6062499955003297 0.6093734487355169
vt 0.6265629946152345 0.6087568655148317
vt 0.6328125044996704 0.5741712226465752
vt 0.6062499955003297 0.609375
vt 0.6062499955003297 0.574171875
vt 0.5859374955003296 0.574171875
vt 0.5859374955003296 0.5976515625000001
vt 0.40625 0.953125
vt 0.453125 0.953125
vt 0.453125 0.921875
vt 0.40625 0.921875
vt 0.6124559641450363 0.7929225771957517
vt 0.6124559641450363 0.828125
vt 0.6328565358549637 0.8164025133423253
vt 0.632680134408526 0.7929222008150749
vt 0.1515625 0.421875
vt 0.1515625 0.46933437499999997
vt 0.171875 0.46933437499999997
vt 0.171875 0.421875
vt 0.57109375 0.43562500000000004
vt 0.57109375 0.390625
vt 0.55078125 0.390625
vt 0.55078125 0.43562500000000004
vt 0.5359375 0.859959375
vt 0.5359375 0.8125
vt 0.515625 0.8125
vt 0.515625 0.859959375
vn 0.9865350075748679 -0.1635502333512718 -2.9029830402949976e-15
vn -1 1.224646799147357e-16 2.9629076969683865e-15
vn 0.03075467578697342 0.9995269630766537 -2.135300152063207e-16
vn -1.224646799147353e-16 -1 1.224646799147357e-16
vn -2.9565381710648495e-15 -0.11852205281617371 -0.9929514202599441
vn 2.9275086405429094e-15 -0.11852205281617345 0.9929514202599441
vn 0.9836384960749287 0.1801535707096943 -2.936492520427274e-15
vn 2.9444057951002106e-15 0.15979061814520884 0.9871509298748455
vn -1 1.224646799147357e-16 2.9629076969683865e-15
vn 0.0049165749799181474 0.1597886868474381 -0.9871389987463967
vn -2.90526838129115e-15 0.15979061814520865 -0.9871509298748457
vn -0.5046965873311549 0.8632967941190827 1.3896460376739453e-15
vn -0.09301110178732469 0.15909793726779767 0.9828717013432833
vn 2.9275086405429094e-15 -0.11852205281617346 0.9929514202599441
vn -1.224646799147353e-16 -1 1.224646799147357e-16
vn -2.9565381710648495e-15 -0.11852205281617371 -0.9929514202599441
usemtl m_89b5679f-b5a3-0f3c-2eab-64994942e7c5
f 171/609/153 172/610/153 166/611/153 165/612/153
f 173/613/154 174/614/154 169/615/154 170/616/154
f 176/617/155 177/618/155 164/619/155 163/620/155
f 179/621/156 180/622/156 165/623/156 166/624/156
f 180/625/157 175/626/157 171/627/157 165/628/157
f 178/629/158 179/630/158 166/631/158 172/632/158
f 172/633/159 171/634/159 163/635/159 164/636/159
f 177/637/160 178/638/160 172/639/160 164/640/160
f 174/641/161 173/642/161 168/643/161 167/644/161
f 175/645/162 176/646/162 163/647/162 171/648/162
f 176/649/163 175/650/163 174/651/163 167/652/163
f 177/653/164 176/654/164 167/655/164 168/656/164
f 178/657/165 177/658/165 168/659/165 173/660/165
f 179/661/166 178/662/166 173/663/166 170/664/166
f 180/665/167 179/666/167 170/667/167 169/668/167
f 175/669/168 180/670/168 169/671/168 174/672/168
o Pelvis
v -0.13749999999999984 0.7937499999999996 -0.10036764705882407
v -0.13750000000000046 0.7937499999999996 0.10036764705882299
v -0.13749999999999984 0.6725414078674948 -0.10036764705882406
v -0.13750000000000046 0.6725414078674948 0.100367647058823
v 0.13750000000000018 0.7937499999999996 -0.10036764705882326
v 0.13749999999999957 0.7937499999999996 0.10036764705882381
v 0.13750000000000018 0.6725414078674948 -0.10036764705882324
v 0.13749999999999957 0.6725414078674948 0.10036764705882383
v -0.04583333333333307 0.6125 -0.13125000000000023
v -0.04583333333333385 0.6125 0.13124999999999978
v 0.045833333333333615 0.6125 -0.13124999999999998
v 0.04583333333333284 0.6125 0.13125000000000003
v -0.04583333333333387 0.7937499999999996 0.13124999999999976
v 0.04583333333333282 0.7937499999999996 0.13125000000000003
v -0.045833333333333094 0.7937499999999996 -0.13125000000000026
v 0.045833333333333594 0.7937499999999996 -0.13124999999999998
v 0.045833333333332824 0.703125 0.13125000000000003
v 0.13749999999999957 0.7331457039337473 0.10036764705882381
v 0.13750000000000018 0.7331457039337473 -0.10036764705882326
v 0.0458333333333336 0.703125 -0.13124999999999998
v -0.04583333333333309 0.703125 -0.13125000000000026
v -0.13749999999999984 0.7331457039337473 -0.10036764705882406
v -0.13750000000000046 0.7331457039337473 0.100367647058823
v -0.045833333333333864 0.703125 0.13124999999999976
v 0.012060420137333178 0.7124999999999997 0.17336452749758857
v 0.012060420137333182 0.6843750000000001 0.17336452749758857
v 0.15745417360800018 0.6124417701863354 0.22209670205400137
v 0.15745417360800018 0.6312499999999996 0.22209670205400137
v -0.012060420137334476 0.7124999999999997 0.17336452749758852
v -0.012060420137334472 0.6843750000000001 0.17336452749758852
v -0.1574541736080018 0.6312499999999996 0.22209670205400045
v -0.1574541736080018 0.6124417701863353 0.22209670205400045
vt 0.46279765625 0.9696984375
vt 0.46279765625 0.98485
vt 0.41261328125 0.98485
vt 0.41261328125 0.9696984375
vt 0.49363671875000004 0.7978234375
vt 0.49363671875000004 0.812975
vt 0.44345234375 0.812975
vt 0.44345234375 0.7978234375
vt 0.3015625 0.8483453125
vt 0.3244796875 0.840625
vt 0.3244796875 0.90625
vt 0.3015625 0.8985296875
vt 0.5452203125 0.65625
vt 0.5375 0.625
vt 0.603125 0.625
vt 0.5954046875 0.65625
vt 0.1491828125 0.3140625
vt 0.1491828125 0.33671874999999996
vt 0.125 0.344225
vt 0.125 0.32907343749999995
vt 0.125 0.28172343749999995
vt 0.125 0.296875
vt 0.09375 0.28936874999999995
vt 0.09375 0.2667125
vt 0.5608453125 0.9375
vt 0.553125 0.90625
vt 0.61875 0.90625
vt 0.6110296875 0.9375
vt 0.203125 0.765625
vt 0.1875 0.765625
vt 0.1875 0.703125
vt 0.203125 0.703125
vt 0.34375 0.2667125
vt 0.34375 0.28936874999999995
vt 0.3125 0.296875
vt 0.3125 0.28172343749999995
vt 0.203125 0.921875
vt 0.203125 0.9375
vt 0.1875 0.9375
vt 0.1875 0.921875
vt 0.3703125 0.8985296875
vt 0.3473953125 0.90625
vt 0.3473953125 0.840625
vt 0.3703125 0.8483453125
vt 0.3473953125 0.90625
vt 0.3244796875 0.90625
vt 0.3244796875 0.840625
vt 0.3473953125 0.840625
vt 0.40625 0.31344843749999995
vt 0.40625 0.3286
vt 0.3820671875 0.32109374999999996
vt 0.3820671875 0.2984375
vt 0.027082812499999998 0.2828125
vt 0.027082812499999998 0.30546874999999996
vt 0.004167187500000001 0.30546874999999996
vt 0.004167187500000001 0.2828125
vt 0.390625 0.15625
vt 0.375 0.15295801220960448
vt 0.3770585719721725 0.11066394724950113
vt 0.390625 0.11286518975201221
vt 0.44345234375 0.828125
vt 0.44345234375 0.812975
vt 0.49363671875000004 0.812975
vt 0.49363671875000004 0.828125
vt 0.125 0.359375
vt 0.125 0.344225
vt 0.1491828125 0.33671874999999996
vt 0.1491828125 0.359375
vt 0.004167187500000001 0.328125
vt 0.004167187500000001 0.30546874999999996
vt 0.027082812499999998 0.30546874999999996
vt 0.027082812499999998 0.328125
vt 0.3820671875 0.34375
vt 0.3820671875 0.32109374999999996
vt 0.40625 0.3286
vt 0.40625 0.34375
vt 0.41261328125 1
vt 0.41261328125 0.98485
vt 0.46279765625 0.98485
vt 0.46279765625 1
vt 0.9409901897520122 0.265625
vt 0.9387889472495011 0.26147057809237617
vt 0.9810830122096046 0.25941200612020365
vt 0.984375 0.265625
vt 0.1875 0.6875
vt 0.1875 0.671875
vt 0.203125 0.671875
vt 0.203125 0.6875
vt 0.07573254748629313 0.3125
vt 0.109375 0.3382136410990355
vt 0.09903432258574604 0.3480730786230589
vt 0.07573254748629313 0.355073986897536
vt 0.41261328125 0.7875
vt 0.41261328125 0.7827984375
vt 0.44345234375 0.812975
vt 0.44345234375 0.828125
vt 0.3936882651511385 0.6136276352659757
vt 0.42996580682027014 0.5898347303066934
vt 0.42531327804417096 0.640625
vt 0.4019859250055769 0.6361140938239414
vt 0.950109375 0.703125
vt 0.956140625 0.703125
vt 0.9645828125 0.71875
vt 0.9416671875 0.71875
vt 0.38765701515113843 0.6136276352659757
vt 0.3936882651511385 0.6136276352659757
vt 0.40213045265113845 0.6365057602659758
vt 0.37921482765113845 0.6365057602659758
vt 0.49363671875000004 0.9546734375
vt 0.49363671875000004 0.959375
vt 0.46279765625 1
vt 0.46279765625 0.98485
vt 0.6659971510924372 0.5
vt 0.640625 0.46875
vt 0.6837709209047931 0.46875
vt 0.6757251573052901 0.4899361413181621
vt 0.35128419317972986 0.5899778941274718
vt 0.38765701515113843 0.6136276352659757
vt 0.3792145934135226 0.6365063950442787
vt 0.3565315911352917 0.6401456764392182
vn -1 -1.224646799147357e-16 -2.9629076969683865e-15
vn 1 1.224646799147357e-16 2.9629076969683865e-15
vn -1.224646799147353e-16 1 -1.224646799147357e-16
vn 0.547923688440741 -0.8365283208866833 1.7258924868893783e-15
vn 0.3192667777280183 -7.695657244431614e-17 -0.9476648799228388
vn 0.3192667777280126 1.5515437992805709e-16 0.9476648799228405
vn -0.5479236884407408 -0.8365283208866835 -1.5210021407753805e-15
vn 1.224646799147353e-16 -1 1.224646799147357e-16
vn -0.31926677772801837 7.695657244431614e-17 0.9476648799228388
vn -2.9629076969683865e-15 1.224646799147353e-16 1
vn -1.224646799147353e-16 1 -1.224646799147357e-16
vn -1.224646799147353e-16 1 -1.224646799147357e-16
vn -0.31926677772801265 -1.5515437992805709e-16 -0.9476648799228405
vn 2.9629076969683865e-15 -1.224646799147353e-16 -1
vn -0.3177978679182901 7.719691136122174e-17 0.9481584863020471
vn 1 1.224646799147357e-16 2.9629076969683865e-15
vn 0.31926677772801837 -7.695657244431614e-17 -0.9476648799228388
vn 2.9629076969683865e-15 -1.224646799147353e-16 -1
vn -0.31926677772801265 -1.5515437992805709e-16 -0.9476648799228405
vn -1 -1.224646799147357e-16 -2.9629076969683865e-15
vn 0.3177978679182845 1.5503493970561875e-16 0.948158486302049
vn -2.9629076969683865e-15 1.224646799147353e-16 1
vn -0.22128428537308006 -0.812571098753305 -0.5392230285492006
vn 0.9868294887980501 1.0104139297759829e-16 -0.16176390214933398
vn 0.0711460662677637 0.6036019833182252 0.794105083089718
vn 1.3169688172210134e-15 -0.9135502591014522 -0.4067258586513397
vn -2.6868911786976904e-15 0.4601871046598751 0.8878219577734948
vn -0.9868294887980492 -1.4066212197455249e-16 -0.1617639021493398
vn 0.12281372630780375 -0.7147073585705607 -0.6885565918902266
vn 0.032568273979913395 0.47058039378118566 0.8817558621969653
usemtl m_89b5679f-b5a3-0f3c-2eab-64994942e7c5
f 184/673/169 203/674/169 202/675/169 183/676/169
f 187/677/170 199/678/170 198/679/170 188/680/170
f 185/681/171 196/682/171 194/683/171 186/684/171
f 188/685/172 192/686/172 191/687/172 187/688/172
f 191/689/173 200/690/173 199/691/173 187/692/173
f 188/693/174 198/694/174 197/695/174 192/696/174
f 183/697/175 189/698/175 190/699/175 184/700/175
f 189/701/176 191/702/176 192/703/176 190/704/176
f 190/705/177 204/706/177 203/707/177 184/708/177
f 192/709/178 197/710/178 204/711/178 190/712/178
f 182/713/179 193/714/179 195/715/179 181/716/179
f 193/717/180 194/718/180 196/719/180 195/720/180
f 183/721/181 202/722/181 201/723/181 189/724/181
f 189/725/182 201/726/182 200/727/182 191/728/182
f 205/729/183 206/730/183 207/731/183 208/732/183
f 186/733/184 198/734/184 199/735/184 185/736/184
f 185/737/185 199/738/185 200/739/185 196/740/185
f 196/741/186 200/742/186 201/743/186 195/744/186
f 195/745/187 201/746/187 202/747/187 181/748/187
f 181/749/188 202/750/188 203/751/188 182/752/188
f 211/753/189 212/754/189 210/755/189 209/756/189
f 209/757/190 210/758/190 206/759/190 205/760/190
f 207/761/191 206/762/191 197/763/191 198/764/191
f 208/765/192 207/766/192 198/767/192 186/768/192
f 205/769/193 208/770/193 186/771/193 194/772/193
f 206/773/194 210/774/194 204/775/194 197/776/194
f 209/777/195 205/778/195 194/779/195 193/780/195
f 212/781/196 211/782/196 182/783/196 203/784/196
f 210/785/197 212/786/197 203/787/197 204/788/197
f 211/789/198 209/790/198 193/791/198 182/792/198
o Body
v -0.1687499999999999 0.9335875427735618 -0.11160714285714353
v -0.16875000000000057 0.9335875427735618 0.11160714285714225
v -0.1214999999999999 0.8000000000000005 -0.08928571428571479
v -0.12150000000000043 0.8000000000000005 0.08928571428571382
v 0.16875000000000023 0.9335875427735618 -0.11160714285714253
v 0.16874999999999957 0.9335875427735618 0.11160714285714325
v 0.12150000000000018 0.8000000000000005 -0.08928571428571407
v 0.12149999999999965 0.8000000000000005 0.08928571428571454
v -0.0003915663930177998 0.9335875427735618 0.1562499999999999
v -0.00039156639301769086 0.8000000000000005 0.12499999999999993
v -0.00039156639301695013 0.8000000000000005 -0.1250000000000002
v -0.0003915663930168739 0.9335875427735618 -0.15625000000000022
v -0.12149999999999991 0.8667937713867813 -0.0892857142857148
v -0.12150000000000044 0.8667937713867813 0.0892857142857138
v -0.00039156639301769904 0.8667937713867813 0.12499999999999993
v 0.12149999999999964 0.8667937713867813 0.08928571428571452
v 0.12150000000000016 0.8667937713867813 -0.08928571428571408
v -0.0003915663930169583 0.8667937713867813 -0.1250000000000002
v 0.16875000000000023 1.0938925941018363 -0.11160714285714256
v -0.0003915663930168984 1.1339688569339046 -0.15625000000000025
v -0.0003915663930178243 1.1339688569339046 0.15624999999999986
v 0.16874999999999957 1.0938925941018363 0.11160714285714322
v -0.16875000000000057 1.0938925941018363 0.11160714285714222
v -0.1687499999999999 1.0938925941018363 -0.11160714285714356
v -0.10631250000000043 1.1105910369485315 0.07521350931676972
v -0.0003915663930170494 1.1339688569339046 -0.10529891304347846
v -0.00039156639301767335 1.1339688569339046 0.10529891304347813
v -0.10631249999999999 1.1105910369485315 -0.07521350931677069
v 0.1063125000000001 1.1105910369485315 -0.07521350931677005
v 0.10631249999999966 1.1105910369485315 0.07521350931677036
v -0.09095488903426244 1.188899206373783 0.06065605590062069
v -0.0003915663930172272 1.1855595178044436 -0.04741847826086975
v -0.0003915663930176193 1.1855595178044436 0.08491847826086941
v -0.09095488903426208 1.188899206373783 -0.06065605590062158
v 0.09095488903426208 1.188899206373783 -0.060656055900621036
v 0.09095488903426172 1.188899206373783 0.06065605590062123
v -0.21635209526156562 1.230530004921474 0.132030099006945
v -0.21799417682715963 1.1928440421902449 -0.11289705429853168
v -0.2536476463619813 1.2136455993435498 -0.13035714285714378
v -0.25238219906925996 1.2513315620747787 0.15925019283877
v -0.0003915663930181685 1.3042396201815951 0.26536868435275873
v -0.00039156639301831536 1.322989620181595 0.31416790147066787
v 0.2155689624755301 1.2306758374649929 0.12879587243053497
v 0.2517786886927383 1.2514773946182978 0.15673140030234417
v 0.2179941768271599 1.192844042190245 -0.11289705429853039
v 0.2536476463619817 1.2136455993435498 -0.13035714285714228
v -0.23794354789825004 0.6575497584312359 0.3043988024587592
v -0.1996848078023679 0.669639859266423 0.2762031456601341
v 0.0010889605227829098 0.8133898592664225 0.20120314566013442
v 0.0010889605227828276 0.8012997584312357 0.22939880245875974
v 0.20249683834468363 0.669639859266423 0.2762031456601353
v 0.24075557844056508 0.657549758431236 0.30439880245876066
v -0.07376017971276484 1.0825949298317934 0.16383928571428538
v -0.14541039159825495 1.0825949298317934 0.14151785714285658
v -0.14541039159825495 0.959923338459639 0.1415178571428566
v -0.07376017971276483 0.959923338459639 0.16383928571428538
v 0.1452146084017452 1.0825949298317934 0.14151785714285744
v 0.07311482028723519 1.0825949298317934 0.1638392857142858
v 0.0731148202872352 0.959923338459639 0.16383928571428583
v 0.1452146084017452 0.9599233384596391 0.14151785714285747
v 0.17619848940790572 1.1450949298317934 0.2574720960455526
v 0.1110982347089688 1.1450949298317934 0.2797935246169809
v 0.14234823470896882 0.8974233384596391 0.2686328103312668
v 0.1449484894079057 0.8974233384596391 0.2686328103312668
v -0.11188363991834034 1.1450949298317934 0.27976068339947185
v -0.1431336399183403 0.8974233384596391 0.26859996911375755
v -0.1765000203814318 1.1450949298317934 0.25743925482804314
v -0.14525002038143184 0.8974233384596391 0.2685999691137575
v -0.14488089303244756 1.0825949298317934 0.3950852387742872
v -0.21565705121072837 1.0825949298317934 0.3727638102028585
v -0.18440705121072848 0.9286733384596391 0.40892452448857275
v -0.1761308930324476 0.9286733384596391 0.4089245244885728
v 0.215219849613274 1.0825949298317934 0.3728433439639126
v 0.14391369023082248 1.0825949298317934 0.39516477253534094
v 0.17516369023082243 0.9286733384596391 0.4090040582496267
v 0.1839698496132739 0.9286733384596391 0.4090040582496267
v -0.20003205121072842 1.0056341341457162 0.3908441673457156
v -0.1608750203814318 1.0837591341457162 0.2630196119709003
v -0.14541039159825495 1.0212591341457162 0.14151785714285658
v -0.16875000000000057 1.013740068437699 0.11160714285714224
v -0.1687499999999999 1.013740068437699 -0.11160714285714354
v -0.00039156639301688616 1.0337781998537332 -0.15625000000000022
v 0.16875000000000023 1.0137400684376991 -0.11160714285714254
v 0.16874999999999957 1.0137400684376991 0.11160714285714324
v 0.1452146084017452 1.0212591341457162 0.14151785714285744
v 0.16057348940790572 1.0837591341457162 0.2630524531884097
v 0.19959484961327395 1.0056341341457162 0.39092370110676966
v 0.15953869023082246 1.0056341341457162 0.40208441539248385
v 0.12672323470896882 1.0837591341457162 0.27421316747412383
v 0.0731148202872352 1.0212591341457162 0.16383928571428583
v -0.00039156639301781207 1.0337781998537332 0.1562499999999999
v -0.07376017971276483 1.0212591341457162 0.16383928571428538
v -0.1275086399183403 1.0837591341457162 0.2741803262566147
v -0.16050589303244758 1.0056341341457162 0.40200488163143
vt 0.171875 0.171875
vt 0.171875 0.1875
vt 0.125 0.1875
vt 0.125 0.171875
vt 0.390625 0.171875
vt 0.390625 0.1875
vt 0.34375 0.1875
vt 0.34375 0.171875
vt 0.61369375 0.8451171875
vt 0.619759375 0.8677734375
vt 0.586675 0.8677734375
vt 0.583365625 0.8451171875
vt 0.45225 0.897321875
vt 0.4219734375 0.90625
vt 0.4219734375 0.84375
vt 0.45225 0.852678125
vt 0.921875 0.109375
vt 0.921875 0.125
vt 0.890625 0.125
vt 0.890625 0.109375
vt 0.03125 0.078125
vt 0.03125 0.09375
vt 0 0.09375
vt 0 0.078125
vt 0.5625 0.59375
vt 0.5625 0.609375
vt 0.53125 0.609375
vt 0.53125 0.59375
vt 0.3915 0.852678125
vt 0.4219734375 0.84375
vt 0.4219734375 0.90625
vt 0.3915 0.897321875
vt 0.671875 0.09375
vt 0.671875 0.109375
vt 0.640625 0.109375
vt 0.640625 0.09375
vt 0.583365625 0.890625
vt 0.586675 0.8677734375
vt 0.619759375 0.8677734375
vt 0.61369375 0.890625
vt 0.7220984375 0.5625
vt 0.727678125 0.546875
vt 0.772321875 0.546875
vt 0.7779015625 0.5625
vt 0.6586844840974238 0.84375
vt 0.669857184169252 0.828125
vt 0.734375 0.828125
vt 0.7306425339588005 0.8420976431099405
vt 0.171875 0.6625765625
vt 0.1663 0.6678437500000001
vt 0.15031093750000002 0.6052124999999999
vt 0.15003125 0.59375
vt 0.7220984375 0.53125
vt 0.727678125 0.515625
vt 0.772321875 0.515625
vt 0.7779015625 0.53125
vt 0.890625 0.9984096313024079
vt 0.875 0.9884091793300525
vt 0.8753949169634183 0.9566569476161294
vt 0.890625 0.95625
vt 0.8627234375 0.7495078125
vt 0.86328125 0.734375
vt 0.89453125 0.734375
vt 0.90625 0.75
vt 0.359375 0.47435625000000003
vt 0.359375 0.45431718750000005
vt 0.403109375 0.45932656250000004
vt 0.403109375 0.484375
vt 0.8250796875 0.2655421875
vt 0.828378125 0.24611093750000002
vt 0.8387734375 0.24611093750000002
vt 0.84375 0.265625
vt 0.4877234375 0.5
vt 0.4877234375 0.4799609375
vt 0.5435265625 0.4799609375
vt 0.5435265625 0.5
vt 0.234375 0.171875
vt 0.2393625 0.15235468750000003
vt 0.24963125 0.15235468750000003
vt 0.2529203125 0.17177968749999994
vt 0.51895625 0.578125
vt 0.51895625 0.5530765625
vt 0.5625 0.5480671875
vt 0.5625 0.56810625
vt 0.5189734375 1
vt 0.5189734375 0.9799609375
vt 0.5747765625 0.9799609375
vt 0.5747765625 1
vt 0.195034375 0.98728125
vt 0.2560616123696517 0.961957427779021
vt 0.2630174355126454 0.9722577210275143
vt 0.19210348412448014 0.9996876211527466
vt 0.108984375 0.10829804171166468
vt 0.108984375 0.1395641230950403
vt 0.0937767635995867 0.13945312500000018
vt 0.093359375 0.08892511262104696
vt 0.34894277605244123 0.7075584171331976
vt 0.40947354354299426 0.6943619879696445
vt 0.41523595657159396 0.7039719884012187
vt 0.34375 0.71875
vt 0.17037635456097686 0.10703125000000002
vt 0.13892739078773134 0.10703125000000002
vt 0.12109375000000003 0.09473409151418033
vt 0.17063418445492318 0.09476978446345274
vt 0.15111875 0.937378125
vt 0.195034375 0.98728125
vt 0.1920296875 1
vt 0.140625 0.9435140625
vt 0.3300015625 0.7785203125
vt 0.3870984375 0.8004453125
vt 0.390625 0.8125
vt 0.3228890625 0.787009375
vt 0.9514027198408607 0.8382720429612089
vt 0.9285982414382242 0.84375
vt 0.921875 0.828125
vt 0.9499502943585693 0.828125
vt 0.6020852649992908 0.07465139735916515
vt 0.5794539834402168 0.078125
vt 0.578125 0.0625
vt 0.6033012602868506 0.0625
vt 0.9136015625 0.203125
vt 0.8832734375 0.203125
vt 0.879634375 0.1875
vt 0.917240625 0.1875
vt 0.109375 0.07365205191766211
vt 0.08672190057243015 0.078125
vt 0.07931378950560505 0.0625
vt 0.10489152726611298 0.0625
vt 0.5625 0.08631424283990652
vt 0.5572829587655207 0.109375
vt 0.543478963408023 0.10805937954192169
vt 0.543478963408023 0.07987579983601734
vt 0.8667265625 0.125
vt 0.8363984375 0.125
vt 0.832759375 0.109375
vt 0.870365625 0.109375
vt 0.40947354354299426 0.6943619879696445
vt 0.3489407310429942 0.7075588629696445
vt 0.3586344810429942 0.6655619879696445
vt 0.39577198104299427 0.6614151129696445
vt 0.8881976006823763 0.4375
vt 0.8781604139663666 0.44277747967981884
vt 0.84375 0.453125
vt 0.8518015676471247 0.4375
vt 0.49488825931059544 0.5583718663442676
vt 0.421875 0.5583718663442676
vt 0.4227512839419004 0.5213859081505969
vt 0.4780873398041831 0.515625
vt 0.046875 0.48080048364591854
vt 0.046875 0.546875
vt 0 0.5148135289775884
vt 0.0065081987385263995 0.48775229489273053
vt 0.07609040401075244 0.6143990289563537
vt 0 0.6143990289563537
vt 0.0019812689734085478 0.5683085958605143
vt 0.04486901718941276 0.5625
vt 0.21875 0.5625
vt 0.1522746504914404 0.5625
vt 0.15927362622229002 0.5203344793905049
vt 0.18641993767958934 0.5141115088655928
vt 0.125 0.5
vt 0.125 0.576439814010865
vt 0.078125 0.5450592270548605
vt 0.08631844804321775 0.5020958338719194
vt 0.387098832518593 0.800445464185756
vt 0.3300015625 0.7785203125
vt 0.34865488227821095 0.7478088185448236
vt 0.38451719562208797 0.758054629149451
vt 0.40625 0.5
vt 0.40625 0.5723934768688731
vt 0.359375 0.5561976767234148
vt 0.3655752789531657 0.500872800037099
vt 0.7381672558865181 0.1932512380736755
vt 0.7328728300854619 0.203125
vt 0.7328728300854619 0.16612826750465615
vt 0.75 0.15940042885278805
vt 0.00955715932156382 0.8051802146283988
vt 0.015625 0.796875
vt 0.015625 0.882808870491537
vt 0 0.87490580807502
vt 0.47321682796550285 0.78125
vt 0.421875 0.734375
vt 0.4925508359629548 0.734375
vt 0.4950201860106533 0.7735450175714345
vt 0.0027666497287504657 0.9150243451847111
vt 0.06216352472875046 0.9560837201847111
vt 0.06145258722875046 0.9938712201847111
vt 0.019163524728750464 0.9988884076847111
vt 0.15031087916115077 0.6052122714790937
vt 0.1663 0.6678437500000001
vt 0.1510348322702096 0.6854020960496077
vt 0.12358575977001399 0.6705838306423548
vt 0.0625 0.39293667833173707
vt 0.07091497763309665 0.3840218124570651
vt 0.14121189894954958 0.375
vt 0.14811012651670963 0.39293667833173707
vt 0.06216352472875046 0.9560837201847111
vt 0.12223335027124954 0.9157769559704675
vt 0.10446165985148406 1
vt 0.06145811429554094 0.9935774474742475
vt 0.8971286949763727 0.0870664043966245
vt 0.9154470942742297 0.08300836873706263
vt 0.9351843900398407 0.09375
vt 0.890625 0.09375
vt 0 0.0625
vt 0 0.04246093750000002
vt 0.0094859375 0.04434062500000002
vt 0.0094859375 0.059675000000000034
vt 0.4154858326983369 0.048454242692834715
vt 0.41497590323928396 0.06720981195097209
vt 0.40625 0.07477076377871616
vt 0.40625 0.03125
vt 0.1534359375 0.25278124999999996
vt 0.1534359375 0.23744687500000006
vt 0.171875 0.24057656250000004
vt 0.171875 0.265625
vt 0.5 0.12204609022615598
vt 0.5026831589184091 0.10336751019270007
vt 0.515625 0.09648274104241028
vt 0.515625 0.140625
vt 8.673617379884035e-19 0.265625
vt 8.673617379884035e-19 0.24057656250000004
vt 0.018475000000000002 0.23744687500000006
vt 0.018475000000000002 0.25278124999999996
vt 0.96091875 0.8066656249999999
vt 0.9420484375 0.8066656249999999
vt 0.92505625 0.796875
vt 0.96875 0.798240625
vt 0.662359375 0.07530000000000003
vt 0.662359375 0.05996562500000002
vt 0.671875 0.05808593750000002
vt 0.671875 0.078125
vt 0.921875 0.6547027043219934
vt 0.9208197592124199 0.671875
vt 0.886988877215934 0.671875
vt 0.8876434296723661 0.6530202732388393
vt 0.2504187283672668 0.45351562499999976
vt 0.2504187283672668 0.4373999999999998
vt 0.2810952908672668 0.437790625
vt 0.2810343533672668 0.453125
vt 0.897303125 0.546875
vt 0.897953125 0.546875
vt 0.9152625 0.5733328125
vt 0.8972375 0.578125
vt 0.780755896210185 0.11867683003233176
vt 0.765728478789815 0.1187550237806233
vt 0.766119103789815 0.078125
vt 0.7808593749999998 0.0785156250000002
vt 0.892090625 0.828125
vt 0.875 0.828125
vt 0.8754546875 0.7938515625
vt 0.89420625 0.7943625
vt 0.20390625 0.453125
vt 0.20390625 0.4375
vt 0.23417556386411753 0.437790625
vt 0.23406618886411756 0.453125
vt 0.880734840702298 0.40625
vt 0.880734840702298 0.40800205486130714
vt 0.916140159297702 0.40800205486130714
vt 0.9111117964648148 0.42362705486130714
vt 0.812109375 0.11207801553002394
vt 0.7968565775025034 0.1121684281467511
vt 0.7968565775025034 0.07851562499999998
vt 0.8125 0.078125
vt 0.296875 0.078125
vt 0.315428125 0.078125
vt 0.3146234375 0.10896406250000001
vt 0.2975390625 0.109375
vt 0.5272223194057375 0.7961676692177341
vt 0.5271488819057375 0.780289544217734
vt 0.5617191944057375 0.780377044217734
vt 0.5617191944057376 0.795697356717734
vt 0.8994355186371864 0.052470432518644694
vt 0.8974394813628136 0.053014088440909934
vt 0.8974394813628136 0.015764198910610205
vt 0.8979505513295903 0.015625
vt 0.3126204841803356 0.5154680516117235
vt 0.3129351597569079 0.49981359979208473
vt 0.34354999999999997 0.49989062500000003
vt 0.3432361917176411 0.515718735402903
vt 0.9031953125 0.6875
vt 0.921875 0.6875
vt 0.9211828125 0.71875
vt 0.9039828125 0.7183375000000001
vt 0.42201431978954007 0.49989327778455306
vt 0.4223237112421927 0.4840310840984072
vt 0.4527765624999999 0.48407656249999953
vt 0.4528378048511953 0.5000960561829804
vt 0.27652331799013463 0.09375
vt 0.27594681512215197 0.109375
vt 0.23910168200986537 0.10787757825082189
vt 0.2392718915152456 0.09375
vt 0.81284583319338 0.203125
vt 0.8125 0.1875
vt 0.8594156174637237 0.1875
vt 0.8595070622085352 0.20341064031515532
vt 0.5625 0.7353664913878903
vt 0.5617191944057375 0.780377044217734
vt 0.5271501503760128 0.7802887669832137
vt 0.5267739440545444 0.734375
vt 0.234375 0.39103404314155255
vt 0.23339431386411752 0.437790625
vt 0.20277472977504893 0.42216599669512245
vt 0.2027464641439253 0.40688789784187096
vt 0.0094859375 0.029007812499999952
vt 0.0094859375 0.04434062500000002
vt 0 0.04246093750000002
vt 0 0.022423437499999976
vt 0.5747765625 0.9599234375
vt 0.5747765625 0.9799609375
vt 0.5189734375 0.9799609375
vt 0.5189734375 0.9599234375
vt 0.5625 0.5280296875
vt 0.5625 0.5480671875
vt 0.51895625 0.5530765625
vt 0.51895625 0.5280296875
vt 0.403109375 0.4342796875
vt 0.403109375 0.45932656250000004
vt 0.359375 0.45431718750000005
vt 0.359375 0.4342796875
vt 0.5435265625 0.4599234375
vt 0.5435265625 0.4799609375
vt 0.4877234375 0.4799609375
vt 0.4877234375 0.4599234375
vt 0.671875 0.038048437499999976
vt 0.671875 0.05808593750000002
vt 0.662359375 0.05996562500000002
vt 0.662359375 0.04463281249999995
vt 0.5051840341993175 0.6877921874999999
vt 0.5051840341993175 0.703125
vt 0.47455903419931744 0.71875
vt 0.4736637216993174 0.6721671874999999
vt 0.4736603138974835 0.6719898807005671
vt 0.47455903419931744 0.71875
vt 0.44080141801690925 0.6998029978827258
vt 0.4375 0.6802360666150518
vt 0.8337984375 0.2265890625
vt 0.8387734375 0.24611093750000002
vt 0.828378125 0.24611093750000002
vt 0.8316765625 0.22668906249999998
vt 0.4577671875 0.4445765625
vt 0.4555109375 0.4641546875
vt 0.4227140625 0.48403125
vt 0.421875 0.4375
vt 0.28125006466009217 0.39102696012376537
vt 0.28070466586726683 0.437790625
vt 0.2500300845132943 0.4221666340898118
vt 0.25 0.40689166371595964
vt 0.018475000000000002 0.2221140625
vt 0.018475000000000002 0.23744687500000006
vt 0 0.24057656250000004
vt 0 0.2155296875
vt 0.171875 0.2155296875
vt 0.171875 0.24057656250000004
vt 0.1534359375 0.23744687500000006
vt 0.1534359375 0.2221140625
vt 0.5474691924524314 0.34401389847799146
vt 0.5628012695671609 0.34416406674410027
vt 0.578125 0.375
vt 0.5315399532095045 0.375
vt 0.34375 0.453125
vt 0.343159375 0.49989062500000003
vt 0.31020156249999997 0.48028281250000004
vt 0.307728125 0.4608109375
vt 0.2463421875 0.13292187499999997
vt 0.24963125 0.15235468750000003
vt 0.2393625 0.15235468750000003
vt 0.24435 0.1328421875
vn -1 -1.224646799147357e-16 -2.9629076969683865e-15
vn 1 1.224646799147357e-16 2.9629076969683865e-15
vn 0.036851784616491995 0.9993207422897714 -1.3193058549447253e-17
vn 1.224646799147353e-16 -1 1.224646799147357e-16
vn -0.2828525999350024 -1.5210309052829382e-16 -0.9591633889541498
vn -0.2828525999350081 8.282418430011141e-17 0.9591633889541482
vn 0.28117942478525976 1.5195841695018096e-16 0.9596552146877704
vn 1.224646799147353e-16 -1 1.224646799147357e-16
vn 0.2811794247852654 -8.30893204403076e-17 -0.9596552146877686
vn -0.036536269916946244 0.9993323275970593 -2.306365089830558e-16
vn -0.8163832246845807 -0.5775105457509896 -2.3481434959610366e-15
vn 0.6040497942630658 -0.5359292919009264 0.5898335698595998
vn -0.45376991700098396 -0.8190017677875118 -0.35118224155821265
vn 0.8163832246845807 -0.5775105457509893 2.4895927842265946e-15
vn 0.24950709372559993 -0.46107917084718925 -0.8515586934507059
vn -0.2580597253880235 -0.4094177856882514 -0.8750898553261756
vn 0.25519849626158525 -8.715691105621847e-17 -0.9668886841337144
vn 0.26577017116849744 0.13972065746739384 0.9538576172542456
vn 1 1.224646799147357e-16 2.9629076969683865e-15
vn -0.26785349384904633 0.16847649170882817 0.9486148731568277
vn -0.25630775790758514 -1.4976242263737754e-16 -0.9665952271951206
vn -1 -1.224646799147357e-16 -2.9629076969683865e-15
vn 0.05958684959198063 0.8296279159136798 -0.5551278487811859
vn -0.2155231346001454 0.9764987344856765 -7.58161759337457e-16
vn 0.5466526899035538 0.8270612898693406 -0.13092157736932372
vn 0.2282954224254064 0.9720738079747075 -0.054348062975204205
vn 0.0907775922050827 0.9296127685849183 -0.35718276727374626
vn -0.4061817197839171 0.9021679723567259 -0.14529060591495102
vn -0.24454766025538005 0.22336728665329983 0.9435589526451232
vn 0.12382669654818859 0.7407579711785028 -0.660260991849035
vn -0.9813064897544227 0.19245148262835818 -2.931089060797606e-15
vn -0.14720322720442156 0.15279799578698228 -0.9772328189249913
vn 0.2274748764273476 0.3577793276788534 0.9056760642084072
vn 0.9813064897544227 0.1924514826283584 2.88395204235921e-15
vn 0.7050782053826935 0.7001557584185609 -0.11245727298690004
vn 0.6044097211024235 0.5619280278205443 -0.5647351419794986
vn -0.8190230614741527 -0.5684947982870894 0.07755571606289437
vn 0.21119729442259527 0.6694946739214791 -0.7121605046752789
vn -0.3738301280348191 -0.44486107531346697 0.8138486708500647
vn -0.2778111365768262 0.5907638225727373 -0.7575084674993011
vn 0.28497338814016093 -0.6145590054773233 0.7356000250398586
vn -0.6157625692733699 0.7774856020286668 -0.12787727288294748
vn 0.8743190764884494 -0.4804217616242989 0.06900060467988962
vn -0.5426778424587704 0.25965606819535586 -0.7987987766350315
vn -0.43975159564079613 -0.4375587595987071 -0.7843219147963514
vn 0.273480939778192 -0.7166835377537304 -0.6415394627696992
vn -0.016316300397508508 0.48369667010226247 0.8750836015337743
vn -0.3511487213442885 -0.7699639049351091 -0.5327759009145867
vn 0.37436673629042205 -0.5523489006917353 -0.7448222866321129
vn 0.10089484543197672 0.5872292600641205 0.8031077301892962
vn -0.2588687472869718 0.4924513785332908 0.8309504265951946
vn -0.7883840383765433 -2.1210961496523233e-17 0.6151833938209755
vn -0.22991192070424218 -0.6344248983347651 0.7380010549389543
vn 0.10289149393484125 1.3441528301841812e-16 0.9946925859157977
vn 0.13700668886910616 0.8862202863468382 0.4425412650504495
vn -0.10270067989338671 1.0923991818774904e-16 0.9947123053171888
vn 0.19886489424515436 -0.7401636820452675 0.6423476298843609
vn 0.7858826801437172 1.7197204380316547e-16 0.6183756245601277
vn -0.15008516351537915 0.8864952427454299 -0.4377220902379536
vn -0.8995137849562326 -5.665478242379793e-17 0.4368923788231064
vn 1.622861318808388e-15 -0.8588498570109153 -0.5122274134721123
vn 0.9691352030996102 -0.24649256456375435 0.004286458661953955
vn 0.1488568428028064 0.8900313233511482 -0.43091284943081526
vn -0.9919971252835617 -1.3694705708380973e-16 -0.12626045869214111
vn 1.4174929940649958e-15 -0.8973482864295866 -0.441323070824407
vn 0.8051447628102991 -0.25387185578207305 0.5359953281148199
vn -0.13902187972367339 0.8867707700206916 0.4408066678204927
vn -0.8674666736786728 -0.25959472843019205 -0.42439621467222577
vn -5.245197463337666e-16 -0.9760886128738905 0.2173729969842722
vn 0.9729737577741912 -0.18512893699715166 0.13801935867505916
vn 0.13642256813047013 0.8896424544564355 0.43580406851407055
vn -0.9628933278385216 -0.25367360189313526 0.09212026327915523
vn -5.243137495603332e-16 -0.9761039522538313 0.217304105792897
vn 0.8593849075505703 -0.27565306633844483 -0.43066572616416865
vn -0.8588530237330085 -0.27577564923332576 -0.4316471648402268
vn -0.9929154953737287 -0.08572407281911823 -0.08228123957528656
vn -0.7883840383765433 -2.1210961496523233e-17 0.6151833938209755
vn -1 -1.224646799147357e-16 -2.9629076969683865e-15
vn -0.25630775790758514 -1.4976242263737754e-16 -0.9665952271951206
vn 0.25519849626158525 -8.715691105621847e-17 -0.9668886841337144
vn 1 1.224646799147357e-16 2.9629076969683865e-15
vn 0.7858826801437172 1.7197204380316547e-16 0.6183756245601278
vn 0.9921091266626636 1.0614402916156022e-16 -0.1253773535876688
vn 0.9362704794440428 -0.08868928191895654 -0.3398996919597339
vn 0.26452680950259166 0.16933520390453255 0.9493951525961096
vn -0.9731518303157096 -0.18529924239523268 0.13652730833403745
vn -0.8756465147702999 -0.08764965827501255 0.4749323305218339
vn -0.10270067989338671 1.0923991818774904e-16 0.9947123053171888
vn 0.10289149393484123 1.3441528301841812e-16 0.9946925859157977
vn 0.8990137068878412 1.6372721838629364e-16 0.437920489161883
vn 0.9761933586614508 -0.08779751789653072 0.1983384036350109
vn -0.26905019906073285 0.14029626531499137 0.952853057047122
usemtl m_89b5679f-b5a3-0f3c-2eab-64994942e7c5
f 216/793/199 226/794/199 225/795/199 215/796/199
f 219/797/200 229/798/200 228/799/200 220/800/200
f 243/801/201 245/802/201 244/803/201 246/804/201
f 215/805/202 223/806/202 222/807/202 216/808/202
f 215/809/203 225/810/203 230/811/203 223/812/203
f 222/813/204 227/814/204 226/815/204 216/816/204
f 220/817/205 228/818/205 227/819/205 222/820/205
f 220/821/206 222/822/206 223/823/206 219/824/206
f 223/825/207 230/826/207 229/827/207 219/828/207
f 247/829/208 244/830/208 245/831/208 248/832/208
f 213/833/209 225/834/209 226/835/209 214/836/209
f 259/837/210 260/838/210 261/839/210 262/840/210
f 262/841/211 261/842/211 263/843/211 264/844/211
f 218/845/212 228/846/212 229/847/212 217/848/212
f 217/849/213 229/850/213 230/851/213 224/852/213
f 224/853/214 230/854/214 225/855/214 213/856/214
f 231/857/215 295/858/215 294/859/215 232/860/215
f 286/861/216 300/862/216 299/863/216 285/864/216
f 234/865/217 296/866/217 295/867/217 231/868/217
f 282/869/218 289/870/218 306/871/218 281/872/218
f 232/873/219 294/874/219 293/875/219 236/876/219
f 236/877/220 293/878/220 292/879/220 235/880/220
f 253/881/221 249/882/221 252/883/221 254/884/221
f 240/885/222 238/886/222 232/887/222 236/888/222
f 249/889/223 250/890/223 251/891/223 252/892/223
f 238/893/224 241/894/224 231/895/224 232/896/224
f 255/897/225 253/898/225 254/899/225 256/900/225
f 257/901/226 255/902/226 256/903/226 258/904/226
f 245/905/227 243/906/227 237/907/227 239/908/227
f 246/909/228 244/910/228 238/911/228 240/912/228
f 243/913/229 246/914/229 240/915/229 237/916/229
f 244/917/230 247/918/230 241/919/230 238/920/230
f 248/921/231 245/922/231 239/923/231 242/924/231
f 247/925/232 248/926/232 242/927/232 241/928/232
f 250/929/233 249/930/233 237/931/233 240/932/233
f 251/933/234 250/934/234 240/935/234 236/936/234
f 252/937/235 251/938/235 236/939/235 235/940/235
f 249/941/236 253/942/236 239/943/236 237/944/236
f 254/945/237 252/946/237 235/947/237 233/948/237
f 253/949/238 255/950/238 242/951/238 239/952/238
f 256/953/239 254/954/239 233/955/239 234/956/239
f 255/957/240 257/958/240 241/959/240 242/960/240
f 258/961/241 256/962/241 234/963/241 231/964/241
f 257/965/242 258/966/242 231/967/242 241/968/242
f 260/969/243 259/970/243 214/971/243 226/972/243
f 261/973/244 260/974/244 226/975/244 227/976/244
f 259/977/245 262/978/245 221/979/245 214/980/245
f 263/981/246 261/982/246 227/983/246 228/984/246
f 264/985/247 263/986/247 228/987/247 218/988/247
f 262/989/248 264/990/248 218/991/248 221/992/248
f 266/993/249 265/994/249 233/995/249 235/996/249
f 235/997/250 292/998/250 291/999/250 266/1000/250
f 268/1001/251 267/1002/251 214/1003/251 221/1004/251
f 265/1005/252 304/1006/252 303/1007/252 233/1008/252
f 270/1009/253 269/1010/253 234/1011/253 233/1012/253
f 233/1013/254 303/1014/254 302/1015/254 270/1016/254
f 272/1017/255 271/1018/255 221/1019/255 218/1020/255
f 269/1021/256 297/1022/256 296/1023/256 234/1024/256
f 274/1025/257 273/1026/257 269/1027/257 270/1028/257
f 270/1029/258 302/1030/258 301/1031/258 274/1032/258
f 276/1033/259 275/1034/259 271/1035/259 272/1036/259
f 273/1037/260 298/1038/260 297/1039/260 269/1040/260
f 279/1041/261 277/1042/261 265/1043/261 266/1044/261
f 266/1045/262 291/1046/262 290/1047/262 279/1048/262
f 278/1049/263 280/1050/263 267/1051/263 268/1052/263
f 277/1053/264 305/1054/264 304/1055/264 265/1056/264
f 282/1057/265 281/1058/265 277/1059/265 279/1060/265
f 279/1061/266 290/1062/266 289/1063/266 282/1064/266
f 284/1065/267 283/1066/267 280/1067/267 278/1068/267
f 281/1069/268 306/1070/268 305/1071/268 277/1072/268
f 286/1073/269 285/1074/269 273/1075/269 274/1076/269
f 274/1077/270 301/1078/270 300/1079/270 286/1080/270
f 288/1081/271 287/1082/271 275/1083/271 276/1084/271
f 285/1085/272 299/1086/272 298/1087/272 273/1088/272
f 283/1089/273 289/1090/273 290/1091/273 280/1092/273
f 280/1093/274 290/1094/274 291/1095/274 267/1096/274
f 267/1097/275 291/1098/275 292/1099/275 214/1100/275
f 214/1101/276 292/1102/276 293/1103/276 213/1104/276
f 213/1105/277 293/1106/277 294/1107/277 224/1108/277
f 224/1109/278 294/1110/278 295/1111/278 217/1112/278
f 217/1113/279 295/1114/279 296/1115/279 218/1116/279
f 218/1117/280 296/1118/280 297/1119/280 272/1120/280
f 272/1121/281 297/1122/281 298/1123/281 276/1124/281
f 276/1125/282 298/1126/282 299/1127/282 288/1128/282
f 288/1129/283 299/1130/283 300/1131/283 287/1132/283
f 287/1133/284 300/1134/284 301/1135/284 275/1136/284
f 275/1137/285 301/1138/285 302/1139/285 271/1140/285
f 271/1141/286 302/1142/286 303/1143/286 221/1144/286
f 221/1145/287 303/1146/287 304/1147/287 268/1148/287
f 268/1149/288 304/1150/288 305/1151/288 278/1152/288
f 278/1153/289 305/1154/289 306/1155/289 284/1156/289
f 284/1157/290 306/1158/290 289/1159/290 283/1160/290