# Made in Blockbench 5.1.5
mtllib VampRightArm.mtl

o cuboid
v 0.8250000000000001 1.0437500000000015 0.10937499999999997
v 0.8250000000000001 1.0437500000000015 -0.11718749999999994
v 0.8250000000000001 0.9187500000000018 0.10937499999999997
v 0.8250000000000001 0.9187500000000018 -0.11718749999999994
v 0.6250000000000001 1.0437500000000015 0.08437499999999995
v 0.6250000000000001 1.0437500000000015 -0.11718749999999994
v 0.6250000000000001 0.9187500000000018 0.08437499999999995
v 0.6250000000000001 0.9187500000000018 -0.11718749999999994
v 0.6250000000000001 0.993750000000002 -0.11718749999999994
v 0.85 0.993750000000002 -0.11718749999999994
v 0.85 0.993750000000002 0.10937499999999997
v 0.6250000000000001 0.993750000000002 0.08437499999999995
v 0.7250000000000001 0.993750000000002 -0.11718749999999994
v 0.7250000000000001 1.0437500000000015 -0.11718749999999994
v 0.7250000000000001 1.0437500000000015 0.10937499999999997
v 0.7250000000000001 0.993750000000002 0.10937499999999997
v 0.7250000000000001 0.9187500000000018 0.10937499999999997
v 0.7250000000000001 0.9187500000000018 -0.11718749999999994
v 0.85 0.993750000000002 -0.042187500000000024
v 0.8250000000000001 0.9187500000000018 -0.042187500000000024
v 0.7250000000000001 0.9187500000000018 -0.042187500000000024
v 0.6250000000000001 0.9187500000000018 -0.042187500000000024
v 0.6250000000000001 0.993750000000002 -0.042187500000000024
v 0.6250000000000001 1.0437500000000015 -0.042187500000000024
v 0.7250000000000001 1.0437500000000015 -0.042187500000000024
v 0.8250000000000001 1.0437500000000015 -0.042187500000000024
v 0.6250000000000001 0.8812500000000015 -0.14843749999999997
v 0.7250000000000001 0.8812500000000015 -0.14843749999999997
v 0.7250000000000001 0.8812500000000018 -0.042187500000000024
v 0.6250000000000001 0.8812500000000018 -0.042187500000000024
v 0.6812500000000001 0.9187500000000018 -0.042187500000000024
v 0.6812500000000001 0.9187500000000018 0.10937499999999997
v 0.6812500000000001 0.993750000000002 0.10937499999999997
v 0.6812500000000001 1.0437500000000015 0.10937499999999997
v 0.6812500000000001 1.0437500000000015 -0.042187500000000024
v 0.6812500000000001 1.0437500000000015 -0.11718749999999994
v 0.6812500000000001 0.993750000000002 -0.11718749999999994
v 0.6812500000000001 0.8812500000000015 -0.14843749999999997
v 0.6812500000000001 0.8812500000000018 -0.042187500000000024
v 0.7250000000000001 0.8937500000000017 -0.11718749999999994
v 0.8171875000000001 0.8937500000000017 -0.042187500000000024
v 0.7250000000000001 0.8937500000000017 -0.042187500000000024
v 0.8171875000000001 0.8937500000000017 -0.11718749999999994
v 0.8171875000000001 0.8937500000000017 0.10937499999999997
v 0.7250000000000001 0.8937500000000017 0.10937499999999997
v 0.6812500000000001 0.8937500000000017 -0.042187500000000024
v 0.6812500000000001 0.8937500000000017 0.10937499999999997
v -0.8250000000000001 1.0437500000000015 0.10937499999999997
v -0.8250000000000001 1.0437500000000015 -0.11718749999999994
v -0.8250000000000001 0.9187500000000018 0.10937499999999997
v -0.8250000000000001 0.9187500000000018 -0.11718749999999994
v -0.6250000000000001 1.0437500000000015 0.08437499999999995
v -0.6250000000000001 1.0437500000000015 -0.11718749999999994
v -0.6250000000000001 0.9187500000000018 0.08437499999999995
v -0.6250000000000001 0.9187500000000018 -0.11718749999999994
v -0.6250000000000001 0.993750000000002 -0.11718749999999994
v -0.85 0.993750000000002 -0.11718749999999994
v -0.85 0.993750000000002 0.10937499999999997
v -0.6250000000000001 0.993750000000002 0.08437499999999995
v -0.7250000000000001 0.993750000000002 -0.11718749999999994
v -0.7250000000000001 1.0437500000000015 -0.11718749999999994
v -0.7250000000000001 1.0437500000000015 0.10937499999999997
v -0.7250000000000001 0.993750000000002 0.10937499999999997
v -0.7250000000000001 0.9187500000000018 0.10937499999999997
v -0.7250000000000001 0.9187500000000018 -0.11718749999999994
v -0.85 0.993750000000002 -0.042187500000000024
v -0.8250000000000001 0.9187500000000018 -0.042187500000000024
v -0.7250000000000001 0.9187500000000018 -0.042187500000000024
v -0.6250000000000001 0.9187500000000018 -0.042187500000000024
v -0.6250000000000001 0.993750000000002 -0.042187500000000024
v -0.6250000000000001 1.0437500000000015 -0.042187500000000024
v -0.7250000000000001 1.0437500000000015 -0.042187500000000024
v -0.8250000000000001 1.0437500000000015 -0.042187500000000024
v -0.6250000000000001 0.8812500000000015 -0.14843749999999997
v -0.7250000000000001 0.8812500000000015 -0.14843749999999997
v -0.7250000000000001 0.8812500000000018 -0.042187500000000024
v -0.6250000000000001 0.8812500000000018 -0.042187500000000024
v -0.6812500000000001 0.9187500000000018 -0.042187500000000024
v -0.6812500000000001 0.9187500000000018 0.10937499999999997
v -0.6812500000000001 0.993750000000002 0.10937499999999997
v -0.6812500000000001 1.0437500000000015 0.10937499999999997
v -0.6812500000000001 1.0437500000000015 -0.042187500000000024
v -0.6812500000000001 1.0437500000000015 -0.11718749999999994
v -0.6812500000000001 0.993750000000002 -0.11718749999999994
v -0.6812500000000001 0.8812500000000015 -0.14843749999999997
v -0.6812500000000001 0.8812500000000018 -0.042187500000000024
v -0.7250000000000001 0.8937500000000017 -0.11718749999999994
v -0.8171875000000001 0.8937500000000017 -0.042187500000000024
v -0.7250000000000001 0.8937500000000017 -0.042187500000000024
v -0.8171875000000001 0.8937500000000017 -0.11718749999999994
v -0.8171875000000001 0.8937500000000017 0.10937499999999997
v -0.7250000000000001 0.8937500000000017 0.10937499999999997
v -0.6812500000000001 0.8937500000000017 -0.042187500000000024
v -0.6812500000000001 0.8937500000000017 0.10937499999999997
vt 0.6466796875 0.6669375
vt 0.6466796875 0.6471734375
vt 0.6279296875 0.6471734375
vt 0.6279296875 0.6669375
vt 0.484375 0.6375
vt 0.459375 0.6375
vt 0.459375 0.65625
vt 0.484375 0.65625
vt 0.4908203125 0.39375000000000004
vt 0.5138671875 0.39375000000000004
vt 0.5138671875 0.375
vt 0.4908203125 0.375
vt 0.62734375 0.9875
vt 0.62734375 0.96875
vt 0.60234375 0.96875
vt 0.59609375 0.9875
vt 0.559375 0.6875
vt 0.559375 0.70625
vt 0.590625 0.70625
vt 0.584375 0.6875
vt 0.2525390625 0.484375
vt 0.2525390625 0.503125
vt 0.2712890625 0.503125
vt 0.2712890625 0.484375
vt 0.559375 0.70625
vt 0.559375 0.71875
vt 0.584375 0.71875
vt 0.590625 0.70625
vt 0.8185546875 0.890625
vt 0.8185546875 0.8766499999999999
vt 0.7998046875 0.8766499999999999
vt 0.7998046875 0.890625
vt 0.62734375 1
vt 0.62734375 0.9875
vt 0.59609375 0.9875
vt 0.60234375 1
vt 0.2525390625 0.503125
vt 0.2525390625 0.515625
vt 0.2712890625 0.515625
vt 0.2712890625 0.503125
vt 0.5484375 0.71875
vt 0.5484375 0.70625
vt 0.534375 0.70625
vt 0.534375 0.71875
vt 0.4953125 0.6375
vt 0.4953125 0.65625
vt 0.509375 0.65625
vt 0.509375 0.6375
vt 0.8596109375000001 0.08125000000000004
vt 0.8596109375000001 0.09375
vt 0.875 0.09375
vt 0.875 0.08125000000000004
vt 0.8596109375000001 0.0625
vt 0.8596109375000001 0.08125000000000004
vt 0.875 0.08125000000000004
vt 0.875 0.0625
vt 0.8890625 0.84375
vt 0.8890625 0.8703125
vt 0.903125 0.8703125
vt 0.903125 0.84375
vt 0.8296875 0.359375
vt 0.8296875 0.330184375
vt 0.815625 0.330184375
vt 0.815625 0.359375
vt 0.6466796875 0.6471734375
vt 0.6466796875 0.6669375
vt 0.6845703125 0.6669375
vt 0.6845703125 0.6471734375
vt 0.5138671875 0.39375000000000004
vt 0.4908203125 0.39375000000000004
vt 0.4908203125 0.431640625
vt 0.5138671875 0.431640625
vt 0.828125 0.0625
vt 0.828125 0.09375
vt 0.84375 0.08750000000000002
vt 0.84375 0.0625
vt 0.2525390625 0.503125
vt 0.2525390625 0.484375
vt 0.2208984375 0.484375
vt 0.2208984375 0.503125
vt 0.2525390625 0.515625
vt 0.2525390625 0.503125
vt 0.2208984375 0.503125
vt 0.2208984375 0.515625
vt 0.4953125 0.599609375
vt 0.4953125 0.6375
vt 0.509375 0.6375
vt 0.509375 0.605859375
vt 0.459375 0.6375
vt 0.484375 0.6375
vt 0.484375 0.599609375
vt 0.459375 0.599609375
vt 0.8185546875 0.8766499999999999
vt 0.8185546875 0.890625
vt 0.8564453125 0.890625
vt 0.8564453125 0.8766499999999999
vt 0.10390625 0.60625
vt 0.09609375 0.596875
vt 0.10390625 0.625
vt 0.2712890625 0.503125
vt 0.2791015625 0.475
vt 0.2712890625 0.484375
vt 0.2712890625 0.484375
vt 0.2791015625 0.475
vt 0.2525390625 0.475
vt 0.2525390625 0.484375
vt 0.9515625 0.22499999999999998
vt 0.9515625 0.234375
vt 0.965625 0.234375
vt 0.965625 0.22499999999999998
vt 0.12265625 0.60625
vt 0.12265625 0.596875
vt 0.09609375 0.596875
vt 0.10390625 0.60625
vt 0.5248046875 0.431640625
vt 0.5248046875 0.39375000000000004
vt 0.5138671875 0.39375000000000004
vt 0.5138671875 0.431640625
vt 0.63828125 0.9875
vt 0.63828125 0.96875
vt 0.62734375 0.96875
vt 0.62734375 0.9875
vt 0.63828125 1
vt 0.63828125 0.9875
vt 0.62734375 0.9875
vt 0.62734375 1
vt 0.4953125 0.6375
vt 0.4953125 0.599609375
vt 0.484375 0.599609375
vt 0.484375 0.6375
vt 0.4953125 0.65625
vt 0.4953125 0.6375
vt 0.484375 0.6375
vt 0.484375 0.65625
vt 0.5484375 0.70625
vt 0.5484375 0.71875
vt 0.559375 0.71875
vt 0.559375 0.70625
vt 0.8296875 0.330184375
vt 0.8296875 0.359375
vt 0.840625 0.359375
vt 0.840625 0.330184375
vt 0.8890625 0.8703125
vt 0.8890625 0.84375
vt 0.878125 0.84375
vt 0.878125 0.8703125
vt 0.9515625 0.234375
vt 0.9515625 0.22499999999999998
vt 0.940625 0.22499999999999998
vt 0.940625 0.234375
vt 0.34375 0.5625
vt 0.34375 0.546875
vt 0.328125 0.546875
vt 0.328125 0.5625
vt 0.6466796875 0.6471734375
vt 0.6466796875 0.640625
vt 0.6279296875 0.640625
vt 0.6279296875 0.6471734375
vt 0.584375 0.6875
vt 0.582421875 0.6812499999999999
vt 0.559375 0.6812499999999999
vt 0.559375 0.6875
vt 0.6845703125 0.6471734375
vt 0.6845703125 0.640625
vt 0.6466796875 0.640625
vt 0.6466796875 0.6471734375
vt 0.62734375 0.96875
vt 0.62734375 0.9624999999999999
vt 0.604296875 0.9624999999999999
vt 0.60234375 0.96875
vt 0.203125 0.484375
vt 0.203125 0.46875
vt 0.1875 0.46875
vt 0.1875 0.484375
vt 0.9375 0.46875
vt 0.9375 0.453125
vt 0.90625 0.453125
vt 0.90625 0.46875
vt 0.63828125 0.96875
vt 0.63828125 0.9624999999999999
vt 0.62734375 0.9624999999999999
vt 0.62734375 0.96875
vn 0.9486832980505144 -0.3162277660168363 0
vn 0 1 0
vn 0 -1 0
vn 0 0 1
vn 0 0 -1
vn -1 0 0
vn 0 0 -1
vn 0.8944271909999143 0.44721359549996115 0
vn 0 0 1
vn -1 0 0
vn 0 0 -1
vn 0 1 0
vn -0.4061384660534478 0 0.9138115486202572
vn -0.4061384660534478 0 0.913811548620257
vn 0 -1 2.0898315757650014e-15
vn 0 0.2676438637860938 -0.963517909629941
vn 0.9486832980505144 -0.3162277660168363 0
vn 0 -1 0
vn 0 -1 0
vn -1 0 0
vn -1 0 0
vn 0 1 0
vn 0 1 0
vn 0.8944271909999143 0.44721359549996115 0
vn 1 0 0
vn -1 0 0
vn -1 0 0
vn 0 0 1
vn 1 0 0
vn 0 -1 0
vn 0 0 1
vn 0 0 1
vn 0 1 0
vn 0 1 0
vn 0 0 -1
vn 0 0.2676438637860938 -0.963517909629941
vn 0 -1 2.0898315757650014e-15
vn 0 0 1
vn -1 0 0
vn 0.9544799780350304 -0.2982749931359454 0
vn 0 0 -1
vn 0.9544799780350303 -0.29827499313594535 0
vn 0 0 1
vn 0 0 -1
vn -1 0 0
vn 0 0 1
usemtl m_89b5679f-b5a3-0f3c-2eab-64994942e7c5
f 19/1/1 20/2/1 4/3/1 10/4/1
f 25/5/2 26/6/2 2/7/2 14/8/2
f 41/9/3 42/10/3 40/11/3 43/12/3
f 16/13/4 17/14/4 3/15/4 11/16/4
f 18/17/5 13/18/5 10/19/5 4/20/5
f 22/21/6 23/22/6 9/23/6 8/24/6
f 13/25/7 14/26/7 2/27/7 10/28/7
f 26/29/8 19/30/8 10/31/8 2/32/8
f 15/33/9 16/34/9 11/35/9 1/36/9
f 23/37/10 24/38/10 6/39/10 9/40/10
f 36/41/11 37/42/11 9/43/11 6/44/11
f 35/45/12 36/46/12 6/47/12 24/48/12
f 33/49/13 34/50/13 5/51/13 12/52/13
f 32/53/14 33/54/14 12/55/14 7/56/14
f 38/57/15 39/58/15 30/59/15 27/60/15
f 37/61/16 38/62/16 27/63/16 9/64/16
f 20/65/17 19/66/17 11/67/17 3/68/17
f 42/69/18 41/70/18 44/71/18 45/72/18
f 31/73/19 32/74/19 7/75/19 22/76/19
f 23/77/20 22/78/20 7/79/20 12/80/20
f 24/81/21 23/82/21 12/83/21 5/84/21
f 34/85/22 35/86/22 24/87/22 5/88/22
f 26/89/23 25/90/23 15/91/23 1/92/23
f 19/93/24 26/94/24 1/95/24 11/96/24
f 18/97/25 28/98/25 13/99/25
f 9/100/26 27/101/26 8/102/26
f 8/103/27 27/104/27 30/105/27 22/106/27
f 39/107/28 31/108/28 22/109/28 30/110/28
f 21/111/29 29/112/29 28/113/29 18/114/29
f 47/115/30 46/116/30 42/117/30 45/118/30
f 33/119/31 32/120/31 17/121/31 16/122/31
f 34/123/32 33/124/32 16/125/32 15/126/32
f 35/127/33 34/128/33 15/129/33 25/130/33
f 36/131/34 35/132/34 25/133/34 14/134/34
f 37/135/35 36/136/35 14/137/35 13/138/35
f 38/139/36 37/140/36 13/141/36 28/142/36
f 39/143/37 38/144/37 28/145/37 29/146/37
f 31/147/38 39/148/38 29/149/38 21/150/38
f 18/151/39 40/152/39 42/153/39 21/154/39
f 20/155/40 41/156/40 43/157/40 4/158/40
f 4/159/41 43/160/41 40/161/41 18/162/41
f 3/163/42 44/164/42 41/165/42 20/166/42
f 17/167/43 45/168/43 44/169/43 3/170/43
f 21/171/44 42/172/44 46/173/44 31/174/44
f 31/175/45 46/176/45 47/177/45 32/178/45
f 32/179/46 47/180/46 45/181/46 17/182/46
o Forearm
v 0.6187499999999997 1.1406250000000004 -0.10312500000000203
v 0.6187500000000004 1.1406250000000007 0.10312499999999801
v 0.6187499999999997 0.9624999999999999 -0.103125000000002
v 0.6187500000000004 0.9624999999999999 0.10312499999999804
v 0.2999999999999998 1.1718750000000007 -0.10312500000000109
v 0.3000000000000004 1.1718750000000007 0.10312499999999895
v 0.29999999999999977 0.9124999999999999 -0.10312500000000106
v 0.3000000000000004 0.9124999999999999 0.10312499999999898
v 0.6187499999999997 1.0515625000000002 -0.10312500000000202
v 0.2999999999999998 1.0515625000000002 -0.10312500000000108
v 0.3000000000000004 1.0515625000000002 0.10312499999999897
v 0.6187500000000004 1.0515625000000002 0.10312499999999802
v 0.7374999999999997 1.1218750000000006 -0.04687500000000238
v 0.7375 1.0515625000000002 0.046874999999997675
v 0.7374999999999997 1.0515625000000002 -0.046875000000002366
v 0.7375 1.1218750000000006 0.04687499999999766
v 0.34375000000000033 1.1056867187500006 0.07090937499999883
v 0.3437499999999999 1.036803463855422 -0.0709093750000012
v 0.34375000000000033 1.036803463855422 0.07090937499999884
v 0.3437499999999999 1.1056867187500006 -0.07090937500000122
v 0.3437499999999999 0.9571851562499999 -0.07090937500000119
v 0.34375000000000033 0.95718515625 0.07090937499999886
v 0.7196874999999997 1.0635156250000002 -0.05813284085452007
v 0.7196874999999997 1.1127343750000005 -0.05813284085452008
v 0.6365624999999997 1.0946093750000006 -0.09468750000000208
v 0.6365624999999997 1.0822656250000002 -0.09468750000000208
v 0.7196875 1.1127343750000005 0.05813284085451547
v 0.7196875 1.0635156250000002 0.05813284085451548
v 0.6365625000000003 1.0822656250000002 0.09468749999999797
v 0.6365625000000003 1.0946093750000006 0.09468749999999797
v 0.99644289654619 1.0635156250000002 -0.05813284085452089
v 0.99644289654619 1.1127343750000005 -0.0581328408545209
v 0.9133178965461901 1.0946093750000006 -0.08242111493084904
v 0.9133178965461901 1.0822656250000002 -0.08242111493084904
v 0.9964428965461904 1.1127343750000005 0.05813284085451465
v 0.9964428965461904 1.0635156250000002 0.05813284085451466
v 0.9133178965461906 1.0822656250000002 0.0824211149308433
v 0.9133178965461906 1.0946093750000006 0.0824211149308433
v 1.12144289654619 1.0881250000000002 -0.058132840854521264
v 0.9133178965461901 1.0884375000000004 -0.08242111493084904
v 0.6365624999999997 1.0884375000000004 -0.09468750000000208
v 0.6187499999999997 1.0960937500000003 -0.10312500000000202
v 0.2999999999999998 1.1117187500000005 -0.10312500000000108
v 0.3437499999999999 1.0712450913027112 -0.0709093750000012
v 0.34375000000000033 1.0712450913027112 0.07090937499999884
v 0.3000000000000004 1.1117187500000005 0.10312499999999897
v 0.6187500000000004 1.0960937500000005 0.10312499999999802
v 0.6365625000000003 1.0884375000000004 0.09468749999999797
v 0.9133178965461906 1.0884375000000004 0.0824211149308433
v 1.1214428965461904 1.0881250000000002 0.058132840854514284
v 0.7196875 1.0881250000000005 0.05813284085451548
v 0.7375 1.0867187500000004 0.04687499999999767
v 0.7374999999999997 1.0867187500000004 -0.04687500000000237
v 0.7196874999999997 1.0881250000000005 -0.05813284085452007
vt 0.94921875 0.6162109375
vt 0.92578125 0.6162109375
vt 0.92578125 0.625
vt 0.94921875 0.625
vt 0.63491484375 0.35076562499999997
vt 0.59946015625 0.35076562499999997
vt 0.59946015625 0.359375
vt 0.63491484375 0.359375
vt 0.05703125 0.68555625
vt 0.005468750000000001 0.68555625
vt 0.005468750000000001 0.765625
vt 0.05703125 0.765625
vt 0.265625 0.53125
vt 0.265625 0.609375
vt 0.3125 0.609375
vt 0.3125 0.53125
vt 0.16484375 0.7466796875
vt 0.08515625 0.7505859375
vt 0.08515625 0.765625
vt 0.16484375 0.7578125
vt 0.38359375 0.9849609375
vt 0.30390625 0.9810546875
vt 0.30390625 0.9921875
vt 0.38359375 1
vt 0.08515625000000002 0.735546875
vt 0.16484375 0.735546875
vt 0.16484375 0.7132796875
vt 0.08515625000000002 0.7007796875
vt 0.59946015625 0.3421546875
vt 0.63491484375 0.3421546875
vt 0.63491484375 0.32225000000000004
vt 0.59946015625 0.32225000000000004
vt 0.30390625 0.969921875
vt 0.38359375 0.969921875
vt 0.38359375 0.9351546875
vt 0.30390625 0.9476546875
vt 0.8125 0.484375
vt 0.859375 0.484375
vt 0.859375 0.46875
vt 0.8125 0.46875
vt 0.8264453125 0.6813484375000001
vt 0.7740609375 0.6814265625
vt 0.7740609375 0.68296875
vt 0.79540625 0.6875
vt 0.3125 0.42656249999999996
vt 0.34375 0.4125
vt 0.34375 0.3890625
vt 0.3125 0.375
vt 0.859375 0.40625
vt 0.8125 0.40625
vt 0.8435482659483423 0.421875
vt 0.859375 0.41610213832918785
vt 0.05703125 0.68555625
vt 0.04296875 0.6555
vt 0.01953125 0.6555
vt 0.005468750000000001 0.68555625
vt 0.2323328125 0.24046718749999996
vt 0.21875 0.2505859375
vt 0.21875 0.265625
vt 0.2323328125 0.2490765625
vt 0.203125 0.2505859375
vt 0.1895421875 0.24046718749999996
vt 0.1895421875 0.2490765625
vt 0.203125 0.265625
vt 0.79140625 0.421875
vt 0.7833515625 0.40625
vt 0.747896875 0.40625
vt 0.73984375 0.421875
vt 0.203125 0.20077968749999997
vt 0.1895421875 0.21195156250000002
vt 0.1895421875 0.23185624999999999
vt 0.203125 0.23554687500000004
vt 0.21875 0.23554687500000004
vt 0.2323328125 0.23185624999999999
vt 0.2323328125 0.21195156250000002
vt 0.21875 0.20077968749999997
vt 0.78671875 0.734375
vt 0.794771875 0.75
vt 0.8302265625 0.75
vt 0.83828125 0.734375
vt 0.8437264116010227 0.2990104472249705
vt 0.8384601866067223 0.29937614472423435
vt 0.8384766963892598 0.3055276850694232
vt 0.84375 0.3077994780712209
vt 0.359375 0.07688241171502286
vt 0.35000520761718323 0.08183879909419167
vt 0.34375 0.10412751753987826
vt 0.359375 0.109375
vt 0.8157417447285877 0.2994542918414278
vt 0.8108131668124108 0.30136718781186245
vt 0.8108105317010849 0.3125
vt 0.815741379696324 0.3009964792982267
vt 0.8108155476306915 0.29023397938467277
vt 0.8157421101306915 0.2979105418846728
vt 0.8384436726306915 0.29322304188467274
vt 0.8436561726306916 0.2902480418846728
vt 0.8177893450277708 0.9310166399619093
vt 0.8125213202161219 0.9306778554648989
vt 0.8125426404322439 0.9394668921059245
vt 0.8178042672839259 0.9371681843629258
vt 0.578125 0.09375
vt 0.583383043080813 0.10528050600376859
vt 0.6061987917101346 0.109375
vt 0.6107969289887766 0.09375
vt 0.8454339120739972 0.9330078124266874
vt 0.8405060067699277 0.9310931843730815
vt 0.8405058297839259 0.9326353718629259
vt 0.8454326344394855 0.9441406248533749
vt 0.8454323922839259 0.9441400593629259
vt 0.8405058297839259 0.9326353718629259
vt 0.8178042672839259 0.9371681843629258
vt 0.8125933297839258 0.9394447468629258
vt 0.76115703125 0.9938484375
vt 0.66071796875 0.9938484375
vt 0.69196796875 1
vt 0.76115703125 1
vt 0.44473946457523805 0.359375
vt 0.5138849137431658 0.3569187367823412
vt 0.49284778959791464 0.34375
vt 0.42361508625683414 0.34375
vt 0.7740609375 0.6814265625
vt 0.7048046875 0.6814265625
vt 0.7048046875 0.68296875
vt 0.7740609375 0.68296875
vt 0.73610703125 0.44672500000000004
vt 0.80536328125 0.44672500000000004
vt 0.82639296875 0.4397640625
vt 0.75727265625 0.4375
vt 0.76115703125 0.9625984375
vt 0.66071796875 0.9625984375
vt 0.66071796875 0.96875
vt 0.72990703125 0.96875
vt 0.8052619267625599 0.703125
vt 0.736115431327896 0.7055516311489232
vt 0.7571529129021851 0.7124883749398965
vt 0.8263845686721039 0.7124883749398965
vt 0.8108203125 0.3890828125
vt 0.7415640625 0.3890828125
vt 0.7415640625 0.390625
vt 0.8108203125 0.390625
vt 0.73264296875 0.859375
vt 0.66338671875 0.859375
vt 0.64235703125 0.8727015625
vt 0.71147734375 0.875
vt 0.515625 0.2086344533905934
vt 0.515625 0.15625
vt 0.5 0.187279812108064
vt 0.5058474442524858 0.2086344533905934
vt 0.7048046875 0.6814265625
vt 0.7740609375 0.6814265625
vt 0.7740609375 0.6798828125
vt 0.7048046875 0.6798828125
vt 0.8108131668124108 0.30136718781186245
vt 0.8157417447285877 0.2994542918414278
vt 0.8157421101306915 0.2979105418846728
vt 0.8108158019237368 0.2902343756237249
vt 0.08515625000000002 0.7505859375
vt 0.16484375 0.7466796875
vt 0.16484375 0.735546875
vt 0.08515625000000002 0.735546875
vt 0.1895421875 0.24046718749999996
vt 0.203125 0.2505859375
vt 0.203125 0.23554687500000004
vt 0.1895421875 0.23185624999999999
vt 0.59946015625 0.35076562499999997
vt 0.63491484375 0.35076562499999997
vt 0.63491484375 0.3421546875
vt 0.59946015625 0.3421546875
vt 0.21875 0.2505859375
vt 0.2323328125 0.24046718749999996
vt 0.2323328125 0.23185624999999999
vt 0.21875 0.23554687500000004
vt 0.30390625 0.9810546875
vt 0.38359375 0.9849609375
vt 0.38359375 0.969921875
vt 0.30390625 0.969921875
vt 0.8405060067699277 0.9310931843730815
vt 0.8454339120739972 0.9330078124266874
vt 0.8454351897085088 0.921875
vt 0.8405061839352466 0.9295494343832476
vt 0.7415640625 0.3890828125
vt 0.8108203125 0.3890828125
vt 0.8108203125 0.38753906250000003
vt 0.7415640625 0.38753906250000003
vt 0.6891796875 0.38900468749999995
vt 0.7415640625 0.3890828125
vt 0.7415640625 0.38753906250000003
vt 0.72021875 0.38285156249999996
vt 0.66071796875 0.9625984375
vt 0.76115703125 0.9625984375
vt 0.72990703125 0.9564453125
vt 0.66071796875 0.9564453125
vt 0.8125213202161219 0.9306778554648989
vt 0.8177893450277708 0.9310166399619093
vt 0.8177744189813551 0.92486353306549
vt 0.8125 0.9218888188238733
vt 0.92578125 0.6162109375
vt 0.94921875 0.6162109375
vt 0.94921875 0.607421875
vt 0.92578125 0.607421875
vt 0.8384601866067223 0.29937614472423435
vt 0.8437264116010227 0.2990104472249705
vt 0.8437028232020454 0.29022141637872023
vt 0.8384436726306915 0.29322304188467274
vt 0.66071796875 0.9938484375
vt 0.76115703125 0.9938484375
vt 0.76115703125 0.9876953125
vt 0.69196796875 0.9876953125
vn 1 -1.224646799147357e-16 -2.9629076969683865e-15
vn -1 1.224646799147357e-16 2.9629076969683865e-15
vn 0.09757142403137084 0.99522852511998 -4.109754660375473e-16
vn 0.15496776884521202 -0.9879195263882261 -3.3816994651284534e-16
vn -2.9629076969683865e-15 -1.224646799147353e-16 -1
vn 2.9629076969683865e-15 1.224646799147353e-16 1
vn -2.9629076969683865e-15 -1.224646799147353e-16 -1
vn -1 1.224646799147357e-16 2.9629076969683865e-15
vn 2.9629076969683865e-15 1.224646799147353e-16 1
vn 1 -1.224646799147357e-16 -2.9629076969683865e-15
vn 0.11591377117465838 -1.3583452270348234e-16 -0.9932592801741492
vn -1.224646799147353e-16 -1 1.224646799147357e-16
vn 0.10044742794275338 0.5102091578044463 0.8541644628010246
vn 0.15596257347301135 0.987762965329069 -5.830687847628371e-16
vn -0.5929459119339233 -2.599880798056315e-17 -0.8052422899480925
vn -0.5929459119339189 1.7122867060404055e-16 0.805242289948096
vn -0.834228310650415 -0.5514191923658032 2.5392708575469686e-15
vn -0.5929459119339188 1.7122867060404057e-16 0.8052422899480962
vn -0.5929459119339234 -2.599880798056314e-17 -0.8052422899480925
vn -0.7145441224204344 0.6995903780887865 2.0314531684189544e-15
vn 0.5342589614662919 -1.689498016686165e-16 -0.8453208633962369
vn 0.2420194492565982 0.5296394288169103 -0.812962890680768
vn 0.42808634473904245 -1.6310142235126816e-16 -0.9037378388935398
vn 0.4055047079441385 0.015908432817198385 -0.9139545139668821
vn 0.5342589614662969 3.809409625351878e-17 0.8453208633962338
vn 0.2999065703655263 -0.37801135742512426 0.8758786803600157
vn 0.4280863447390477 5.825050798259547e-17 0.9037378388935374
vn 0.40454886035445564 -0.011075358628169066 0.9144493184519134
vn 2.9629076969683865e-15 1.224646799147353e-16 1
vn -1.6738842666140324e-15 0.8014422497765175 -0.5980721697865184
vn 0.04427864675428276 -1.2776713927789137e-16 -0.9990192197558612
vn 0.0298176455163101 -0.7392699963982171 -0.6727486755403118
vn -2.9629076969683865e-15 -1.224646799147353e-16 -1
vn 1.7136215764688939e-15 -0.7915720837256046 0.6110758023897728
vn 0.044278646754288685 1.1692199867424889e-16 0.9990192197558609
vn 0.02926195709226625 0.7505097854419188 0.6602111782021381
vn 0.09933120638901803 -0.5045394610235947 -0.8576556673323642
vn 0.04427864675428276 -1.2776713927789137e-16 -0.9990192197558612
vn 0.42808634473904233 -1.6310142235126816e-16 -0.9037378388935399
vn -2.9629076969683865e-15 -1.224646799147353e-16 -1
vn -0.5929459119339189 1.7122867060404055e-16 0.805242289948096
vn -1 1.224646799147357e-16 2.9629076969683865e-15
vn -0.5929459119339235 -2.5998807980563133e-17 -0.8052422899480927
vn 2.9629076969683865e-15 1.224646799147353e-16 1
vn 0.4280863447390477 5.825050798259546e-17 0.9037378388935373
vn 0.044278646754288685 1.1692199867424889e-16 0.9990192197558609
vn 0.1159137711746643 1.074438369342527e-16 0.9932592801741486
vn -2.9629076969683865e-15 -1.224646799147353e-16 -1
vn 0.5342589614662969 3.809409625351878e-17 0.8453208633962338
vn 1 -1.224646799147357e-16 -2.9629076969683865e-15
vn 0.5342589614662918 -1.6894980166861648e-16 -0.8453208633962369
vn 2.9629076969683865e-15 1.224646799147353e-16 1
usemtl m_89b5679f-b5a3-0f3c-2eab-64994942e7c5
f 146/183/47 147/184/47 107/185/47 110/186/47
f 138/187/48 139/188/48 111/189/48 114/190/48
f 96/191/49 95/192/49 99/193/49 100/194/49
f 101/195/50 97/196/50 98/197/50 102/198/50
f 136/199/51 137/200/51 99/201/51 95/202/51
f 140/203/52 141/204/52 96/205/52 100/206/52
f 104/207/53 103/208/53 97/209/53 101/210/53
f 113/211/54 112/212/54 115/213/54 116/214/54
f 106/215/55 105/216/55 102/217/55 98/218/55
f 103/219/56 106/220/56 98/221/56 97/222/56
f 133/223/57 134/224/57 127/225/57 126/226/57
f 103/227/58 109/228/58 108/229/58 106/230/58
f 143/231/59 144/232/59 129/233/59 132/234/59
f 96/235/60 110/236/60 107/237/60 95/238/60
f 139/239/61 140/240/61 100/241/61 111/242/61
f 137/243/62 138/244/62 114/245/62 99/246/62
f 99/247/63 114/248/63 111/249/63 100/250/63
f 101/251/64 115/252/64 112/253/64 104/254/64
f 105/255/65 113/256/65 116/257/65 102/258/65
f 102/259/66 116/260/66 115/261/66 101/262/66
f 147/263/67 148/264/67 118/265/67 107/266/67
f 107/267/68 118/268/68 119/269/68 95/270/68
f 135/271/69 136/272/69 95/273/69 119/274/69
f 103/275/70 120/276/70 117/277/70 109/278/70
f 145/279/71 146/280/71 110/281/71 121/282/71
f 108/283/72 122/284/72 123/285/72 106/286/72
f 141/287/73 142/288/73 124/289/73 96/290/73
f 96/291/74 124/292/74 121/293/74 110/294/74
f 148/295/75 133/296/75 126/297/75 118/298/75
f 118/299/76 126/300/76 127/301/76 119/302/76
f 134/303/77 135/304/77 119/305/77 127/306/77
f 120/307/78 128/308/78 125/309/78 117/310/78
f 144/311/79 145/312/79 121/313/79 129/314/79
f 122/315/80 130/316/80 131/317/80 123/318/80
f 142/319/81 143/320/81 132/321/81 124/322/81
f 124/323/82 132/324/82 129/325/82 121/326/82
f 134/327/83 133/328/83 125/329/83 128/330/83
f 135/331/84 134/332/84 128/333/84 120/334/84
f 136/335/85 135/336/85 120/337/85 103/338/85
f 137/339/86 136/340/86 103/341/86 104/342/86
f 138/343/87 137/344/87 104/345/87 112/346/87
f 139/347/88 138/348/88 112/349/88 113/350/88
f 140/351/89 139/352/89 113/353/89 105/354/89
f 141/355/90 140/356/90 105/357/90 106/358/90
f 142/359/91 141/360/91 106/361/91 123/362/91
f 143/363/92 142/364/92 123/365/92 131/366/92
f 144/367/93 143/368/93 131/369/93 130/370/93
f 145/371/94 144/372/94 130/373/94 122/374/94
f 146/375/95 145/376/95 122/377/95 108/378/95
f 147/379/96 146/380/96 108/381/96 109/382/96
f 148/383/97 147/384/97 109/385/97 117/386/97
f 133/387/98 148/388/98 117/389/98 125/390/98
o Arm
v 0.3343749999999954 1.0218750000000016 5.38902314746782e-16
v 0.15937499999999544 1.021875000000001 8.772126480466931e-16
v 0.3343749999999952 1.0550182628834883 -0.05624999999999941
v 0.1593749999999952 1.0550182628834877 -0.05624999999999907
v 0.33437499999999515 1.0781250000000013 -0.03736201288348599
v 0.15937499999999516 1.0781250000000007 -0.03736201288348566
v 0.33437499999999526 1.0781250000000013 0.03736201288348717
v 0.15937499999999527 1.0781250000000007 0.037362012883487505
v 0.3343749999999954 1.0550182628834883 0.05625000000000056
v 0.1593749999999954 1.0550182628834877 0.0562500000000009
v 0.33437499999999565 0.988731737116515 0.0562500000000005
v 0.1593749999999957 0.9887317371165142 0.056250000000000834
v 0.3343749999999957 0.965625000000002 0.03736201288348711
v 0.15937499999999571 0.9656250000000013 0.03736201288348745
v 0.3343749999999956 0.965625000000002 -0.03736201288348611
v 0.1593749999999956 0.9656250000000013 -0.03736201288348577
v 0.3343749999999954 0.9887317371165151 -0.05624999999999946
v 0.15937499999999546 0.9887317371165143 -0.05624999999999913
v 0.3177083333333286 1.0550182628834883 -0.05624999999999938
v 0.3177083333333288 0.988731737116515 -0.05624999999999943
v 0.29466911764705406 1.0550182628834883 -0.056249999999999335
v 0.2946691176470543 0.9887317371165149 -0.056249999999999384
v 0.317708333333329 0.965625000000002 -0.037362012883486076
v 0.29466911764705445 0.9656250000000018 -0.037362012883486034
v 0.3177083333333291 0.9656250000000018 0.037362012883487145
v 0.29466911764705456 0.9656250000000017 0.037362012883487186
v 0.31770833333332904 0.9887317371165149 0.05625000000000053
v 0.2946691176470545 0.9887317371165147 0.05625000000000058
v 0.3177083333333288 1.0550182628834883 0.0562500000000006
v 0.2946691176470543 1.055018262883488 0.05625000000000064
v 0.31770833333332865 1.0781250000000013 0.0373620128834872
v 0.2946691176470541 1.078125000000001 0.03736201288348725
v 0.31770833333332854 1.0781250000000013 -0.037362012883485965
v 0.294669117647054 1.0781250000000013 -0.037362012883485916
vt 0.3207859375 0.19999999999999996
vt 0.3265625 0.19527812499999997
vt 0.3125 0.18593749999999998
vt 0.953125 0.40367656250000006
vt 0.9456640625 0.40367656250000006
vt 0.9456640625 0.4375
vt 0.953125 0.4375
vt 0.8265625 0.539096875
vt 0.8207859375 0.534375
vt 0.8125 0.5484375
vt 0.3265625 0.19527812499999997
vt 0.3265625 0.176596875
vt 0.3125 0.18593749999999998
vt 0.056215625 0.16930156250000006
vt 0.037534375 0.16930156250000006
vt 0.037534375 0.203125
vt 0.056215625 0.203125
vt 0.8265625 0.557778125
vt 0.8265625 0.539096875
vt 0.8125 0.5484375
vt 0.3265625 0.176596875
vt 0.3207859375 0.171875
vt 0.3125 0.18593749999999998
vt 0.5543359375 0.028676562500000058
vt 0.546875 0.028676562500000058
vt 0.546875 0.0625
vt 0.5543359375 0.0625
vt 0.8207859375 0.5625
vt 0.8265625 0.557778125
vt 0.8125 0.5484375
vt 0.3207859375 0.171875
vt 0.3042140625 0.171875
vt 0.3125 0.18593749999999998
vt 0.8520359375 0.8255515625000001
vt 0.8354640625 0.8255515625000001
vt 0.8354640625 0.859375
vt 0.8520359375 0.859375
vt 0.8042140625 0.5625
vt 0.8207859375 0.5625
vt 0.8125 0.5484375
vt 0.3042140625 0.171875
vt 0.2984375 0.176596875
vt 0.3125 0.18593749999999998
vt 0.703125 0.028676562500000058
vt 0.6956640625 0.028676562500000058
vt 0.6956640625 0.0625
vt 0.703125 0.0625
vt 0.7984375 0.557778125
vt 0.8042140625 0.5625
vt 0.8125 0.5484375
vt 0.2984375 0.176596875
vt 0.2984375 0.19527812499999997
vt 0.3125 0.18593749999999998
vt 0.10309062499999999 0.16930156250000006
vt 0.084409375 0.16930156250000006
vt 0.084409375 0.203125
vt 0.10309062499999999 0.203125
vt 0.7984375 0.539096875
vt 0.7984375 0.557778125
vt 0.8125 0.5484375
vt 0.2984375 0.19527812499999997
vt 0.3042140625 0.19999999999999996
vt 0.3125 0.18593749999999998
vt 0.9449609375 0.34117656250000006
vt 0.9375 0.34117656250000006
vt 0.9375 0.375
vt 0.9449609375 0.375
vt 0.8042140625 0.534375
vt 0.7984375 0.539096875
vt 0.8125 0.5484375
vt 0.3042140625 0.19999999999999996
vt 0.3207859375 0.19999999999999996
vt 0.3125 0.18593749999999998
vt 0.2114109375 0.13805156250000006
vt 0.1948390625 0.13805156250000006
vt 0.1948390625 0.171875
vt 0.2114109375 0.171875
vt 0.8207859375 0.534375
vt 0.8042140625 0.534375
vt 0.8125 0.5484375
vt 0.1948390625 0.13229218750000005
vt 0.2114109375 0.13229218750000005
vt 0.2114109375 0.12812500000000004
vt 0.1948390625 0.12812500000000004
vt 0.1948390625 0.13805156250000006
vt 0.2114109375 0.13805156250000006
vt 0.2114109375 0.13229218750000005
vt 0.1948390625 0.13229218750000005
vt 0.9375 0.33541718750000005
vt 0.9449609375 0.33541718750000005
vt 0.9449609375 0.33125000000000004
vt 0.9375 0.33125000000000004
vt 0.9375 0.34117656250000006
vt 0.9449609375 0.34117656250000006
vt 0.9449609375 0.33541718750000005
vt 0.9375 0.33541718750000005
vt 0.084409375 0.16354218750000005
vt 0.10309062499999999 0.16354218750000005
vt 0.10309062499999999 0.15937500000000004
vt 0.084409375 0.15937500000000004
vt 0.084409375 0.16930156250000006
vt 0.10309062499999999 0.16930156250000006
vt 0.10309062499999999 0.16354218750000005
vt 0.084409375 0.16354218750000005
vt 0.6956640625 0.022917187500000047
vt 0.703125 0.022917187500000047
vt 0.703125 0.018750000000000044
vt 0.6956640625 0.018750000000000044
vt 0.6956640625 0.028676562500000058
vt 0.703125 0.028676562500000058
vt 0.703125 0.022917187500000047
vt 0.6956640625 0.022917187500000047
vt 0.8354640625 0.8197921875
vt 0.8520359375 0.8197921875
vt 0.8520359375 0.815625
vt 0.8354640625 0.815625
vt 0.8354640625 0.8255515625000001
vt 0.8520359375 0.8255515625000001
vt 0.8520359375 0.8197921875
vt 0.8354640625 0.8197921875
vt 0.546875 0.022917187500000047
vt 0.5543359375 0.022917187500000047
vt 0.5543359375 0.018750000000000044
vt 0.546875 0.018750000000000044
vt 0.546875 0.028676562500000058
vt 0.5543359375 0.028676562500000058
vt 0.5543359375 0.022917187500000047
vt 0.546875 0.022917187500000047
vt 0.037534375 0.16354218750000005
vt 0.056215625 0.16354218750000005
vt 0.056215625 0.15937500000000004
vt 0.037534375 0.15937500000000004
vt 0.037534375 0.16930156250000006
vt 0.056215625 0.16930156250000006
vt 0.056215625 0.16354218750000005
vt 0.037534375 0.16354218750000005
vt 0.9456640625 0.39791718750000005
vt 0.953125 0.39791718750000005
vt 0.953125 0.39375000000000004
vt 0.9456640625 0.39375000000000004
vt 0.9456640625 0.40367656250000006
vt 0.953125 0.40367656250000006
vt 0.953125 0.39791718750000005
vt 0.9456640625 0.39791718750000005
vn 1 3.996802888650565e-15 -1.9332019045709208e-15
vn -4.026292430662373e-15 0.6328859753093352 -0.7742450143570521
vn -1 -3.996802888650565e-15 1.9332019045709208e-15
vn 1 3.996802888650565e-15 -1.9332019045709208e-15
vn -3.996802888650562e-15 1 1.010643099614868e-15
vn -1 -3.996802888650565e-15 1.9332019045709208e-15
vn 1 3.996802888650565e-15 -1.9332019045709208e-15
vn -1.0327485579431824e-15 0.6328859753093342 0.7742450143570528
vn -1 -3.996802888650565e-15 1.9332019045709208e-15
vn 1 3.996802888650565e-15 -1.9332019045709208e-15
vn 1.9332019045709247e-15 -1.0106430996148602e-15 1
vn -1 -3.996802888650565e-15 1.9332019045709208e-15
vn 1 3.996802888650565e-15 -1.9332019045709208e-15
vn 4.026292430662372e-15 -0.6328859753093347 0.7742450143570525
vn -1 -3.996802888650565e-15 1.9332019045709208e-15
vn 1 3.996802888650565e-15 -1.9332019045709208e-15
vn 3.996802888650562e-15 -1 -1.010643099614868e-15
vn -1 -3.996802888650565e-15 1.9332019045709208e-15
vn 1 3.996802888650565e-15 -1.9332019045709208e-15
vn 1.0327485579431777e-15 -0.6328859753093334 -0.7742450143570535
vn -1 -3.996802888650565e-15 1.9332019045709208e-15
vn 1 3.996802888650565e-15 -1.9332019045709208e-15
vn -1.933201904570924e-15 8.012824845088422e-16 -1
vn -1 -3.996802888650565e-15 1.9332019045709208e-15
vn -1.933201904570924e-15 8.012824845088421e-16 -1
vn -1.933201904570924e-15 8.012824845088421e-16 -1
vn 1.0327485579431778e-15 -0.6328859753093334 -0.7742450143570534
vn 1.0327485579431777e-15 -0.6328859753093334 -0.7742450143570535
vn 3.996802888650562e-15 -1 -1.010643099614868e-15
vn 3.996802888650562e-15 -1 -1.010643099614868e-15
vn 4.026292430662372e-15 -0.6328859753093348 0.7742450143570525
vn 4.026292430662372e-15 -0.6328859753093348 0.7742450143570525
vn 1.9332019045709247e-15 -1.0106430996148602e-15 1
vn 1.9332019045709247e-15 -1.0106430996148602e-15 1
vn -1.0327485579431824e-15 0.6328859753093342 0.7742450143570527
vn -1.0327485579431824e-15 0.6328859753093342 0.7742450143570527
vn -3.996802888650562e-15 1 1.010643099614868e-15
vn -3.996802888650562e-15 1 1.010643099614868e-15
vn -4.026292430662373e-15 0.6328859753093352 -0.774245014357052
vn -4.026292430662373e-15 0.6328859753093352 -0.774245014357052
usemtl m_89b5679f-b5a3-0f3c-2eab-64994942e7c5
f 151/391/99 153/392/99 149/393/99
f 182/394/100 169/395/100 152/396/100 154/397/100
f 154/398/101 152/399/101 150/400/101
f 153/401/102 155/402/102 149/403/102
f 180/404/103 182/405/103 154/406/103 156/407/103
f 156/408/104 154/409/104 150/410/104
f 155/411/105 157/412/105 149/413/105
f 178/414/106 180/415/106 156/416/106 158/417/106
f 158/418/107 156/419/107 150/420/107
f 157/421/108 159/422/108 149/423/108
f 176/424/109 178/425/109 158/426/109 160/427/109
f 160/428/110 158/429/110 150/430/110
f 159/431/111 161/432/111 149/433/111
f 174/434/112 176/435/112 160/436/112 162/437/112
f 162/438/113 160/439/113 150/440/113
f 161/441/114 163/442/114 149/443/114
f 172/444/115 174/445/115 162/446/115 164/447/115
f 164/448/116 162/449/116 150/450/116
f 163/451/117 165/452/117 149/453/117
f 170/454/118 172/455/118 164/456/118 166/457/118
f 166/458/119 164/459/119 150/460/119
f 165/461/120 151/462/120 149/463/120
f 169/464/121 170/465/121 166/466/121 152/467/121
f 152/468/122 166/469/122 150/470/122
f 168/471/123 167/472/123 151/473/123 165/474/123
f 170/475/124 169/476/124 167/477/124 168/478/124
f 171/479/125 168/480/125 165/481/125 163/482/125
f 172/483/126 170/484/126 168/485/126 171/486/126
f 173/487/127 171/488/127 163/489/127 161/490/127
f 174/491/128 172/492/128 171/493/128 173/494/128
f 175/495/129 173/496/129 161/497/129 159/498/129
f 176/499/130 174/500/130 173/501/130 175/502/130
f 177/503/131 175/504/131 159/505/131 157/506/131
f 178/507/132 176/508/132 175/509/132 177/510/132
f 179/511/133 177/512/133 157/513/133 155/514/133
f 180/515/134 178/516/134 177/517/134 179/518/134
f 181/519/135 179/520/135 155/521/135 153/522/135
f 182/523/136 180/524/136 179/525/136 181/526/136
f 167/527/137 181/528/137 153/529/137 151/530/137
f 169/531/138 182/532/138 181/533/138 167/534/138
o cylinder
v 0.16875000052683561 1.0187499982877848 0.06250000000000054
v 0.16875000052683561 1.0187499982877835 -0.062499999999999736
v 0.23750000013863137 1.0371715067162224 0.06250000000000032
v 0.23750000013863137 1.037171506716221 -0.06249999999999996
v 0.21907849248660227 1.0690784923687386 0.0625
v 0.21907849248660227 1.0690784923687373 -0.06250000000000029
v 0.1871715060576774 1.0874999986759888 0.06249999999999982
v 0.1871715060576774 1.0874999986759875 -0.06250000000000046
v 0.150328492098398 1.0874999978995805 0.06249999999999983
v 0.150328492098398 1.0874999978995792 -0.06250000000000043
v 0.11842150644588162 1.0690784902475512 0.06250000000000004
v 0.11842150644588162 1.0690784902475499 -0.06250000000000024
v 0.10000000013863138 1.0371715038186264 0.06250000000000037
v 0.10000000013863138 1.037171503818625 -0.0624999999999999
v 0.10000000091503981 1.0003284898593472 0.06250000000000076
v 0.10000000091503981 1.0003284898593459 -0.062499999999999514
v 0.11842150856706896 0.9684215042068307 0.0625000000000011
v 0.11842150856706896 0.9684215042068294 -0.062499999999999195
v 0.15032849499599385 0.9499999978995805 0.06250000000000126
v 0.15032849499599385 0.9499999978995791 -0.062499999999999015
v 0.18717150895527318 0.9499999986759889 0.06250000000000124
v 0.18717150895527318 0.9499999986759876 -0.06249999999999903
v 0.2190784946077896 0.968421506328018 0.06250000000000104
v 0.2190784946077896 0.9684215063280167 -0.06249999999999924
v 0.23750000091503987 1.000328492756943 0.06250000000000071
v 0.23750000091503987 1.0003284927569416 -0.06249999999999957
vt 0.6842921875 0.8
vt 0.6922703125 0.7953953125
vt 0.6796875 0.7828125
vt 0.734375 0.09375
vt 0.734375 0.0625
vt 0.71875 0.0625
vt 0.71875 0.09375
vt 0.6922703125 0.5952296875
vt 0.6842921875 0.590625
vt 0.6796875 0.6078125
vt 0.6922703125 0.7953953125
vt 0.696875 0.7874171875
vt 0.6796875 0.7828125
vt 0.390625 0.09375
vt 0.390625 0.0625
vt 0.375 0.0625
vt 0.375 0.09375
vt 0.696875 0.6032078125
vt 0.6922703125 0.5952296875
vt 0.6796875 0.6078125
vt 0.696875 0.7874171875
vt 0.696875 0.7782078125
vt 0.6796875 0.7828125
vt 0.09375 0.671875
vt 0.09375 0.640625
vt 0.078125 0.640625
vt 0.078125 0.671875
vt 0.696875 0.6124171875
vt 0.696875 0.6032078125
vt 0.6796875 0.6078125
vt 0.696875 0.7782078125
vt 0.6922703125 0.7702296875
vt 0.6796875 0.7828125
vt 0.921875 0.390625
vt 0.921875 0.359375
vt 0.90625 0.359375
vt 0.90625 0.390625
vt 0.6922703125 0.6203953125
vt 0.696875 0.6124171875
vt 0.6796875 0.6078125
vt 0.6922703125 0.7702296875
vt 0.6842921875 0.765625
vt 0.6796875 0.7828125
vt 0.921875 0.25
vt 0.921875 0.21875
vt 0.90625 0.21875
vt 0.90625 0.25
vt 0.6842921875 0.625
vt 0.6922703125 0.6203953125
vt 0.6796875 0.6078125
vt 0.6842921875 0.765625
vt 0.6750828125 0.765625
vt 0.6796875 0.7828125
vt 0.703125 0.109375
vt 0.703125 0.078125
vt 0.6875 0.078125
vt 0.6875 0.109375
vt 0.6750828125 0.625
vt 0.6842921875 0.625
vt 0.6796875 0.6078125
vt 0.6750828125 0.765625
vt 0.6671046875 0.7702296875
vt 0.6796875 0.7828125
vt 0.921875 0.296875
vt 0.921875 0.265625
vt 0.90625 0.265625
vt 0.90625 0.296875
vt 0.6671046875 0.6203953125
vt 0.6750828125 0.625
vt 0.6796875 0.6078125
vt 0.6671046875 0.7702296875
vt 0.6625 0.7782078125
vt 0.6796875 0.7828125
vt 0.0625 0.09375
vt 0.0625 0.0625
vt 0.046875 0.0625
vt 0.046875 0.09375
vt 0.6625 0.6124171875
vt 0.6671046875 0.6203953125
vt 0.6796875 0.6078125
vt 0.6625 0.7782078125
vt 0.6625 0.7874171875
vt 0.6796875 0.7828125
vt 0.25 0.5625
vt 0.25 0.53125
vt 0.234375 0.53125
vt 0.234375 0.5625
vt 0.6625 0.6032078125
vt 0.6625 0.6124171875
vt 0.6796875 0.6078125
vt 0.6625 0.7874171875
vt 0.6671046875 0.7953953125
vt 0.6796875 0.7828125
vt 0.921875 0.9375
vt 0.921875 0.90625
vt 0.90625 0.90625
vt 0.90625 0.9375
vt 0.6671046875 0.5952296875
vt 0.6625 0.6032078125
vt 0.6796875 0.6078125
vt 0.6671046875 0.7953953125
vt 0.6750828125 0.8
vt 0.6796875 0.7828125
vt 0.921875 0.34375
vt 0.921875 0.3125
vt 0.90625 0.3125
vt 0.90625 0.34375
vt 0.6750828125 0.590625
vt 0.6671046875 0.5952296875
vt 0.6796875 0.6078125
vt 0.6750828125 0.8
vt 0.6842921875 0.8
vt 0.6796875 0.7828125
vt 0.015625 0.1875
vt 0.015625 0.15625
vt 0 0.15625
vt 0 0.1875
vt 0.6842921875 0.590625
vt 0.6750828125 0.590625
vt 0.6796875 0.6078125
vn 4.4408899109558276e-16 1.038058528960369e-14 1
vn 0.8660253932477264 0.5000000182501205 -5.3290707127131075e-15
vn -4.4408899109558276e-16 -1.038058528960369e-14 -1
vn 4.4408899109558276e-16 1.038058528960369e-14 1
vn 0.4999999817498789 0.8660254143211509 -9.230221006942869e-15
vn -4.4408899109558276e-16 -1.038058528960369e-14 -1
vn 4.4408899109558276e-16 1.038058528960369e-14 1
vn -2.1073424449902227e-8 0.9999999999999998 -1.0658141036401495e-14
vn -4.4408899109558276e-16 -1.038058528960369e-14 -1
vn 4.4408899109558276e-16 1.038058528960369e-14 1
vn -0.5000000182501207 0.8660253932477264 -9.230220782339336e-15
vn -4.4408899109558276e-16 -1.038058528960369e-14 -1
vn 4.4408899109558276e-16 1.038058528960369e-14 1
vn -0.8660254143211507 0.49999998174987914 -5.329070323688387e-15
vn -4.4408899109558276e-16 -1.038058528960369e-14 -1
vn 4.4408899109558276e-16 1.038058528960369e-14 1
vn -0.9999999999999998 -2.1073423363488276e-8 2.246035183278565e-22
vn -4.4408899109558276e-16 -1.038058528960369e-14 -1
vn 4.4408899109558276e-16 1.038058528960369e-14 1
vn -0.8660253932477265 -0.5000000182501204 5.329070712713107e-15
vn -4.4408899109558276e-16 -1.038058528960369e-14 -1
vn 4.4408899109558276e-16 1.038058528960369e-14 1
vn -0.4999999817498787 -0.866025414321151 9.23022100694287e-15
vn -4.4408899109558276e-16 -1.038058528960369e-14 -1
vn 4.4408899109558276e-16 1.038058528960369e-14 1
vn 2.1073424449902227e-8 -0.9999999999999998 1.0658141036401495e-14
vn -4.4408899109558276e-16 -1.038058528960369e-14 -1
vn 4.4408899109558276e-16 1.038058528960369e-14 1
vn 0.5000000182501203 -0.8660253932477265 9.230220782339339e-15
vn -4.4408899109558276e-16 -1.038058528960369e-14 -1
vn 4.4408899109558276e-16 1.038058528960369e-14 1
vn 0.8660254143211509 -0.49999998174987875 5.3290703236883834e-15
vn -4.4408899109558276e-16 -1.038058528960369e-14 -1
vn 4.4408899109558276e-16 1.038058528960369e-14 1
vn 0.9999999999999998 2.107342411683532e-8 -2.2460352635713555e-22
vn -4.4408899109558276e-16 -1.038058528960369e-14 -1
usemtl m_89b5679f-b5a3-0f3c-2eab-64994942e7c5
f 185/535/139 187/536/139 183/537/139
f 188/538/140 187/539/140 185/540/140 186/541/140
f 188/542/141 186/543/141 184/544/141
f 187/545/142 189/546/142 183/547/142
f 190/548/143 189/549/143 187/550/143 188/551/143
f 190/552/144 188/553/144 184/554/144
f 189/555/145 191/556/145 183/557/145
f 192/558/146 191/559/146 189/560/146 190/561/146
f 192/562/147 190/563/147 184/564/147
f 191/565/148 193/566/148 183/567/148
f 194/568/149 193/569/149 191/570/149 192/571/149
f 194/572/150 192/573/150 184/574/150
f 193/575/151 195/576/151 183/577/151
f 196/578/152 195/579/152 193/580/152 194/581/152
f 196/582/153 194/583/153 184/584/153
f 195/585/154 197/586/154 183/587/154
f 198/588/155 197/589/155 195/590/155 196/591/155
f 198/592/156 196/593/156 184/594/156
f 197/595/157 199/596/157 183/597/157
f 200/598/158 199/599/158 197/600/158 198/601/158
f 200/602/159 198/603/159 184/604/159
f 199/605/160 201/606/160 183/607/160
f 202/608/161 201/609/161 199/610/161 200/611/161
f 202/612/162 200/613/162 184/614/162
f 201/615/163 203/616/163 183/617/163
f 204/618/164 203/619/164 201/620/164 202/621/164
f 204/622/165 202/623/165 184/624/165
f 203/625/166 205/626/166 183/627/166
f 206/628/167 205/629/167 203/630/167 204/631/167
f 206/632/168 204/633/168 184/634/168
f 205/635/169 207/636/169 183/637/169
f 208/638/170 207/639/170 205/640/170 206/641/170
f 208/642/171 206/643/171 184/644/171
f 207/645/172 185/646/172 183/647/172
f 186/648/173 185/649/173 207/650/173 208/651/173
f 186/652/174 208/653/174 184/654/174