# Made in Blockbench 5.1.5
mtllib VampHead.mtl

o sphere
v 0.2031250000000004 1.325 0.0062499999999999995
v -0.20312499999999978 1.325 0.0062499999999999995
v -0.17591141014371386 1.3513762486299385 0.1046875
v -0.10156249999999976 1.3706850027401227 0.17674875137006135
v 2.9348468988470436e-16 1.3777524972598771 0.20312500000000003
v 0.10156250000000029 1.3706850027401227 0.17674875137006135
v 0.17591141014371448 1.3513762486299385 0.1046875
v -0.17591141014371386 1.3970612513700613 0.07831125137006135
v -0.10156249999999975 1.4498137486299385 0.13106374862993866
v 3.1377290665356343e-16 1.4691225027401227 0.15037250274012276
v 0.1015625000000003 1.4498137486299385 0.13106374862993866
v 0.17591141014371448 1.3970612513700613 0.07831125137006135
v -0.17591141014371386 1.4234375000000001 0.03262624862993863
v -0.10156249999999974 1.4954987513700613 0.05193500274012271
v 3.2548631406644175e-16 1.521875 0.05900249725987728
v 0.10156250000000032 1.4954987513700613 0.05193500274012272
v 0.17591141014371448 1.4234375000000001 0.03262624862993863
v -0.17591141014371386 1.4234375000000001 -0.02012624862993865
v -0.10156249999999974 1.4954987513700613 -0.03943500274012273
v 3.2548631406644175e-16 1.521875 -0.046502497259877304
v 0.10156250000000032 1.4954987513700613 -0.03943500274012274
v 0.17591141014371448 1.4234375000000001 -0.02012624862993865
v -0.17591141014371386 1.3970612513700613 -0.06581125137006133
v -0.10156249999999975 1.4498137486299385 -0.11856374862993861
v 3.1377290665356343e-16 1.4691225027401227 -0.13787250274012267
v 0.1015625000000003 1.4498137486299385 -0.11856374862993865
v 0.17591141014371448 1.3970612513700613 -0.06581125137006133
v -0.17591141014371386 1.3513762486299385 -0.09218749999999998
v -0.10156249999999976 1.3706850027401227 -0.16424875137006134
v 2.9348468988470436e-16 1.3777524972598771 -0.19062499999999996
v 0.10156250000000029 1.3706850027401227 -0.16424875137006134
v 0.17591141014371448 1.3513762486299385 -0.09218749999999998
v -0.1759114101437139 1.2986237513700614 -0.09218749999999999
v -0.10156249999999979 1.2793149972598772 -0.1642487513700614
v 2.700578750589479e-16 1.2722475027401228 -0.19062500000000002
v 0.10156250000000026 1.2793149972598772 -0.1642487513700614
v 0.17591141014371445 1.2986237513700614 -0.09218749999999999
v -0.1759114101437139 1.2529387486299386 -0.06581125137006137
v -0.1015624999999998 1.2001862513700614 -0.11856374862993865
v 2.4976965829008884e-16 1.1808774972598772 -0.13787250274012275
v 0.10156250000000025 1.2001862513700614 -0.11856374862993865
v 0.17591141014371445 1.2529387486299386 -0.06581125137006137
v -0.1759114101437139 1.2265624999999998 -0.02012624862993863
v -0.10156249999999982 1.1545012486299386 -0.039435002740122696
v 2.380562508772106e-16 1.1281249999999998 -0.046502497259877255
v 0.10156250000000024 1.1545012486299386 -0.0394350027401227
v 0.17591141014371445 1.2265624999999998 -0.02012624862993863
v -0.1759114101437139 1.2265624999999998 0.0326262486299386
v -0.10156249999999982 1.1545012486299386 0.05193500274012263
v 2.380562508772106e-16 1.1281249999999998 0.05900249725987719
v 0.10156250000000024 1.1545012486299386 0.05193500274012264
v 0.17591141014371445 1.2265624999999998 0.0326262486299386
v -0.1759114101437139 1.2529387486299386 0.07831125137006133
v -0.1015624999999998 1.2001862513700614 0.1310637486299386
v 2.4976965829008884e-16 1.1808774972598772 0.15037250274012268
v 0.10156250000000025 1.2001862513700614 0.13106374862993866
v 0.17591141014371445 1.2529387486299386 0.07831125137006133
v -0.1759114101437139 1.2986237513700614 0.1046875
v -0.10156249999999979 1.2793149972598772 0.17674875137006135
v 2.700578750589479e-16 1.2722475027401228 0.20312500000000003
v 0.10156250000000026 1.2793149972598772 0.17674875137006135
v 0.17591141014371445 1.2986237513700614 0.1046875
vt 0.73315606680742 0.47446680917640616
vt 0.7446959308979988 0.48085295875184486
vt 0.7265623168074199 0.4999996216764062
vt 0.8726093749999999 0.296875
vt 0.8677828125 0.265625
vt 0.890625 0.265625
vt 0.8857984375 0.296875
vt 0.05351562500000001 0.25
vt 0.051748437499999966 0.21875
vt 0.078125 0.21875
vt 0.07635781250000001 0.25
vt 0.09862343749999997 0.25
vt 0.10039062500000001 0.21875
vt 0.12323281250000001 0.21875
vt 0.125 0.25
vt 0.0552828125 0.140625
vt 0.060109374999999965 0.109375
vt 0.07329843749999998 0.109375
vt 0.078125 0.140625
vt 0.6040709308979988 0.28477204124815514
vt 0.59253106680742 0.29115819082359384
vt 0.5859373168074199 0.2656253783235938
vt 0.3646803476394478 0.26210275147008155
vt 0.37621875 0.25571718749999994
vt 0.38281212171914714 0.2812485351925553
vt 0.856984375 0.71875
vt 0.85215625 0.6875
vt 0.875 0.6875
vt 0.870171875 0.71875
vt 0.772265625 0.9375
vt 0.7705 0.90625
vt 0.796875 0.90625
vt 0.795109375 0.9375
vt 0.754875 0.3125
vt 0.756640625 0.28125
vt 0.779484375 0.28125
vt 0.78125 0.3125
vt 0.63340625 0.15625
vt 0.638234375 0.125
vt 0.651421875 0.125
vt 0.65625 0.15625
vt 0.73559375 0.6036578125000001
vt 0.7240553476394478 0.5972722485299184
vt 0.7421871217191471 0.5781264648074447
vt 0.37621875 0.25571718749999994
vt 0.38940625 0.25571718749999994
vt 0.3828125 0.28125
vt 0.83715625 0.609375
vt 0.832328125 0.578125
vt 0.855171875 0.578125
vt 0.85034375 0.609375
vt 0.785453125 1
vt 0.7836875 0.96875
vt 0.8100625 0.96875
vt 0.808296875 1
vt 0.2524375 0.21875
vt 0.254203125 0.1875
vt 0.277046875 0.1875
vt 0.2788125 0.21875
vt 0.832328125 0.65625
vt 0.83715625 0.625
vt 0.85034375 0.625
vt 0.855171875 0.65625
vt 0.74878125 0.6036578125000001
vt 0.73559375 0.6036578125000001
vt 0.7421875 0.578125
vt 0.38940625 0.25571718749999994
vt 0.4009446523605522 0.26210275147008155
vt 0.38281287828085286 0.2812485351925553
vt 0.848578125 0.5625
vt 0.84375 0.53125
vt 0.86659375 0.53125
vt 0.861765625 0.5625
vt 0.767390625 0.265625
vt 0.765625 0.234375
vt 0.792 0.234375
vt 0.790234375 0.265625
vt 0.765625 0.359375
vt 0.767390625 0.328125
vt 0.790234375 0.328125
vt 0.792 0.359375
vt 0.671875 0.15625
vt 0.676703125 0.125
vt 0.689890625 0.125
vt 0.69471875 0.15625
vt 0.7603196523605522 0.5972722485299184
vt 0.74878125 0.6036578125000001
vt 0.7421878782808529 0.5781264648074447
vt 0.6928041164270864 0.27772833707543865
vt 0.7043439805176652 0.27134218750000005
vt 0.7109377305176653 0.296875
vt 0.8642015624999999 0.25
vt 0.859375 0.21875
vt 0.8822171875 0.21875
vt 0.877390625 0.25
vt 0.3142671875 0.25
vt 0.3125 0.21875
vt 0.3388765625 0.21875
vt 0.337109375 0.25
vt 0.578125 0.25
vt 0.5798921875 0.21875
vt 0.602734375 0.21875
vt 0.6045015625 0.25
vt 0.859375 0.390625
vt 0.8642015624999999 0.359375
vt 0.877390625 0.359375
vt 0.8822171875 0.390625
vt 0.6418439805176652 0.29115781249999995
vt 0.6303041164270864 0.28477166292456135
vt 0.6484377305176653 0.265625
vt 0.7043439805176652 0.27134218749999994
vt 0.7175314805176654 0.27134218749999994
vt 0.7109377305176653 0.296875
vt 0.13403125000000002 0.15625
vt 0.129203125 0.125
vt 0.152046875 0.125
vt 0.14721875000000004 0.15625
vt 0.410453125 0.21875
vt 0.4086875 0.1875
vt 0.4350625 0.1875
vt 0.433296875 0.21875
vt 0.4555625 0.21875
vt 0.457328125 0.1875
vt 0.480171875 0.1875
vt 0.4819375 0.21875
vt 0.769828125 0.171875
vt 0.77465625 0.140625
vt 0.7878437500000001 0.140625
vt 0.792671875 0.171875
vt 0.6550314805176654 0.29115781250000006
vt 0.6418439805176652 0.29115781250000006
vt 0.6484377305176653 0.265625
vt 0.7175314805176654 0.27134218750000005
vt 0.7290708835729136 0.277729170101936
vt 0.7109380110923091 0.2968739135378543
vt 0.731984375 0.140625
vt 0.7271578125 0.109375
vt 0.75 0.109375
vt 0.7451734375000001 0.140625
vt 0.49101562499999996 0.265625
vt 0.48924843749999997 0.234375
vt 0.515625 0.234375
vt 0.5138578125 0.265625
vt 0.7548734374999999 0.890625
vt 0.756640625 0.859375
vt 0.7794828125 0.859375
vt 0.78125 0.890625
vt 0.0084078125 0.140625
vt 0.01323437500000002 0.109375
vt 0.026423437500000035 0.109375
vt 0.03125 0.140625
vt 0.6665708835729136 0.284770829898064
vt 0.6550314805176654 0.29115781249999995
vt 0.6484380110923091 0.2656260864621457
vt 0.7240553003346816 0.7933527514700816
vt 0.7355937026952337 0.7869671874999999
vt 0.7421870744143809 0.8124985351925553
vt 0.294484375 0.15625
vt 0.28965625 0.125
vt 0.3125 0.125
vt 0.30767187500000004 0.15625
vt 0.36601562499999996 0.234375
vt 0.36424999999999996 0.203125
vt 0.390625 0.203125
vt 0.388859375 0.234375
vt 0.723625 0.25
vt 0.725390625 0.21875
vt 0.748234375 0.21875
vt 0.75 0.25
vt 0.53965625 0.15625
vt 0.544484375 0.125
vt 0.557671875 0.125
vt 0.5625 0.15625
vt 0.7355937026952337 0.6505328125000001
vt 0.7240553003346816 0.6441472485299184
vt 0.7421870744143809 0.6250014648074447
vt 0.7355937026952337 0.7869671874999999
vt 0.7487812026952337 0.7869671874999999
vt 0.7421874526952337 0.8125
vt 0.83715625 0.796875
vt 0.832328125 0.765625
vt 0.855171875 0.765625
vt 0.85034375 0.796875
vt 0.785453125 0.84375
vt 0.7836875 0.8125
vt 0.8100625 0.8125
vt 0.808296875 0.84375
vt 0.7836875 0.796875
vt 0.785453125 0.765625
vt 0.808296875 0.765625
vt 0.8100625 0.796875
vt 0.410453125 0.171875
vt 0.41528125 0.140625
vt 0.42846875 0.140625
vt 0.433296875 0.171875
vt 0.7487812026952337 0.6505328125000001
vt 0.7355937026952337 0.6505328125000001
vt 0.7421874526952337 0.625
vt 0.7487812026952337 0.7869671874999999
vt 0.7603196996653184 0.7933525805122855
vt 0.7421874526952337 0.8125
vt 0.33295312499999996 0.15625
vt 0.328125 0.125
vt 0.35096875 0.125
vt 0.346140625 0.15625
vt 0.767390625 0.5
vt 0.765625 0.46875
vt 0.792 0.46875
vt 0.790234375 0.5
vt 0.671875 0.25
vt 0.673640625 0.21875
vt 0.696484375 0.21875
vt 0.69825 0.25
vt 0.578125 0.15625
vt 0.582953125 0.125
vt 0.596140625 0.125
vt 0.60096875 0.15625
vt 0.7603196996653184 0.6441474194877145
vt 0.7487812026952337 0.6505328125000001
vt 0.7421874526952337 0.625
vt 0.7084290691020012 0.4808536207702725
vt 0.7199685668074198 0.47446680917640616
vt 0.7265624145080236 0.5
vt 0.8642015625 0.171875
vt 0.859375 0.140625
vt 0.8822171875 0.140625
vt 0.8773906250000001 0.171875
vt 0.5330171875 0.25
vt 0.53125 0.21875
vt 0.5576265625 0.21875
vt 0.555859375 0.25
vt 0.625 0.25
vt 0.6267671875 0.21875
vt 0.649609375 0.21875
vt 0.6513765625 0.25
vt 0.859375 0.34375
vt 0.8642015625 0.3125
vt 0.8773906250000001 0.3125
vt 0.8822171875 0.34375
vt 0.5793435668074198 0.29115819082359384
vt 0.5678040691020012 0.2847713792297275
vt 0.5859374145080236 0.265625
vt 0.7199685668074198 0.47446680917640616
vt 0.73315606680742 0.47446680917640616
vt 0.7265623168074199 0.4999996216764062
vt 0.46215624999999994 0.171875
vt 0.457328125 0.140625
vt 0.480171875 0.140625
vt 0.47534374999999995 0.171875
vt 0.785453125 0.65625
vt 0.7836875 0.625
vt 0.8100625 0.625
vt 0.808296875 0.65625
vt 0.7836875 0.609375
vt 0.785453125 0.578125
vt 0.808296875 0.578125
vt 0.8100625 0.609375
vt 0.816703125 0.171875
vt 0.8215312499999999 0.140625
vt 0.83471875 0.140625
vt 0.839546875 0.171875
vt 0.59253106680742 0.29115819082359384
vt 0.5793435668074198 0.29115819082359384
vt 0.5859373168074199 0.2656253783235938
vn -0.9638458395975847 0.13323024946537773 0.2307615611791103
vn -0.6959732852388592 0.35903383762322144 0.6218648483998528
vn -0.251366032565288 0.48394605011105957 0.8382191469146302
vn 0.2513660325652883 0.4839460501110604 0.8382191469146296
vn 0.695973285238859 0.3590338376232206 0.6218648483998533
vn 0.963845839597585 0.13323024946537732 0.23076156117911037
vn -0.9638458395975849 0.23076156117910993 0.13323024946537815
vn -0.6959732852388587 0.6218648483998533 0.35903383762322144
vn -0.2513660325652892 0.8382191469146293 0.4839460501110605
vn 0.25136603256528967 0.8382191469146293 0.48394605011106023
vn 0.6959732852388588 0.6218648483998525 0.35903383762322305
vn 0.9638458395975849 0.23076156117910948 0.13323024946537815
vn -0.963845839597585 0.266460498930755 0
vn -0.6959732852388579 0.7180676752464431 0
vn -0.2513660325652898 0.9678921002221197 0
vn 0.2513660325652905 0.9678921002221196 0
vn 0.6959732852388578 0.7180676752464432 0
vn 0.963845839597585 0.2664604989307545 0
vn -0.9638458395975849 0.23076156117910984 -0.1332302494653782
vn -0.695973285238858 0.6218648483998538 -0.359033837623222
vn -0.2513660325652896 0.838219146914629 -0.48394605011106095
vn 0.2513660325652901 0.8382191469146292 -0.48394605011106034
vn 0.6959732852388576 0.6218648483998531 -0.35903383762322366
vn 0.9638458395975849 0.23076156117910943 -0.13323024946537823
vn -0.9638458395975849 0.13323024946537776 -0.23076156117911037
vn -0.6959732852388589 0.3590338376232218 -0.6218648483998528
vn -0.25136603256528867 0.4839460501110596 -0.83821914691463
vn 0.2513660325652888 0.4839460501110604 -0.8382191469146297
vn 0.6959732852388588 0.3590338376232208 -0.6218648483998536
vn 0.963845839597585 0.13323024946537732 -0.23076156117911037
vn -0.9638458395975849 2.8411548351738587e-16 -0.26646049893075524
vn -0.6959732852388593 6.129505971043558e-16 -0.7180676752464419
vn -0.25136603256528833 5.650681327527044e-16 -0.96789210022212
vn 0.2513660325652885 4.869875073251861e-16 -0.96789210022212
vn 0.6959732852388588 4.261975854282406e-18 -0.7180676752464424
vn 0.9638458395975849 -1.4391805380677576e-16 -0.2664604989307552
vn -0.9638458395975849 -0.13323024946537718 -0.23076156117911037
vn -0.6959732852388596 -0.3590338376232213 -0.6218648483998525
vn -0.25136603256528783 -0.4839460501110595 -0.8382191469146303
vn 0.2513660325652876 -0.48394605011106107 -0.8382191469146295
vn 0.6959732852388592 -0.35903383762322055 -0.6218648483998532
vn 0.9638458395975849 -0.13323024946537762 -0.23076156117911037
vn -0.9638458395975849 -0.23076156117910948 -0.13323024946537806
vn -0.6959732852388588 -0.6218648483998531 -0.3590338376232214
vn -0.2513660325652896 -0.8382191469146293 -0.4839460501110606
vn 0.25136603256528933 -0.8382191469146295 -0.48394605011106023
vn 0.6959732852388585 -0.6218648483998527 -0.359033837623223
vn 0.9638458395975849 -0.23076156117910993 -0.13323024946537806
vn -0.9638458395975851 -0.2664604989307545 0
vn -0.6959732852388583 -0.718067675246443 0
vn -0.25136603256529033 -0.9678921002221197 0
vn 0.25136603256528994 -0.9678921002221196 0
vn 0.6959732852388576 -0.7180676752464435 0
vn 0.9638458395975849 -0.26646049893075496 0
vn -0.9638458395975849 -0.2307615611791095 0.13323024946537815
vn -0.6959732852388582 -0.6218648483998538 0.35903383762322166
vn -0.25136603256528994 -0.8382191469146291 0.4839460501110605
vn 0.2513660325652897 -0.8382191469146295 0.4839460501110597
vn 0.6959732852388574 -0.6218648483998537 0.35903383762322344
vn 0.9638458395975849 -0.23076156117910995 0.13323024946537815
vn -0.9638458395975847 -0.1332302494653774 0.23076156117911029
vn -0.6959732852388592 -0.3590338376232216 0.6218648483998528
vn -0.251366032565289 -0.4839460501110599 0.8382191469146297
vn 0.25136603256528856 -0.4839460501110605 0.8382191469146297
vn 0.6959732852388587 -0.3590338376232215 0.6218648483998533
vn 0.9638458395975847 -0.13323024946537784 0.23076156117911029
vn -0.9638458395975849 2.1401676866208083e-16 0.2664604989307552
vn -0.6959732852388592 1.545371131592386e-16 0.7180676752464421
vn -0.25136603256528883 5.581447139253211e-17 0.96789210022212
vn 0.25136603256528894 -5.581447139253214e-17 0.9678921002221199
vn 0.6959732852388586 -1.5453711315923848e-16 0.7180676752464424
vn 0.9638458395975849 -2.1401676866208083e-16 0.2664604989307552
usemtl m_89b5679f-b5a3-0f3c-2eab-64994942e7c5
f 3/1/1 8/2/1 2/3/1
f 3/4/2 4/5/2 9/6/2 8/7/2
f 4/8/3 5/9/3 10/10/3 9/11/3
f 5/12/4 6/13/4 11/14/4 10/15/4
f 6/16/5 7/17/5 12/18/5 11/19/5
f 12/20/6 7/21/6 1/22/6
f 8/23/7 13/24/7 2/25/7
f 8/26/8 9/27/8 14/28/8 13/29/8
f 9/30/9 10/31/9 15/32/9 14/33/9
f 10/34/10 11/35/10 16/36/10 15/37/10
f 11/38/11 12/39/11 17/40/11 16/41/11
f 17/42/12 12/43/12 1/44/12
f 13/45/13 18/46/13 2/47/13
f 13/48/14 14/49/14 19/50/14 18/51/14
f 14/52/15 15/53/15 20/54/15 19/55/15
f 15/56/16 16/57/16 21/58/16 20/59/16
f 16/60/17 17/61/17 22/62/17 21/63/17
f 22/64/18 17/65/18 1/66/18
f 18/67/19 23/68/19 2/69/19
f 18/70/20 19/71/20 24/72/20 23/73/20
f 19/74/21 20/75/21 25/76/21 24/77/21
f 20/78/22 21/79/22 26/80/22 25/81/22
f 21/82/23 22/83/23 27/84/23 26/85/23
f 27/86/24 22/87/24 1/88/24
f 23/89/25 28/90/25 2/91/25
f 23/92/26 24/93/26 29/94/26 28/95/26
f 24/96/27 25/97/27 30/98/27 29/99/27
f 25/100/28 26/101/28 31/102/28 30/103/28
f 26/104/29 27/105/29 32/106/29 31/107/29
f 32/108/30 27/109/30 1/110/30
f 28/111/31 33/112/31 2/113/31
f 28/114/32 29/115/32 34/116/32 33/117/32
f 29/118/33 30/119/33 35/120/33 34/121/33
f 30/122/34 31/123/34 36/124/34 35/125/34
f 31/126/35 32/127/35 37/128/35 36/129/35
f 37/130/36 32/131/36 1/132/36
f 33/133/37 38/134/37 2/135/37
f 33/136/38 34/137/38 39/138/38 38/139/38
f 34/140/39 35/141/39 40/142/39 39/143/39
f 35/144/40 36/145/40 41/146/40 40/147/40
f 36/148/41 37/149/41 42/150/41 41/151/41
f 42/152/42 37/153/42 1/154/42
f 38/155/43 43/156/43 2/157/43
f 38/158/44 39/159/44 44/160/44 43/161/44
f 39/162/45 40/163/45 45/164/45 44/165/45
f 40/166/46 41/167/46 46/168/46 45/169/46
f 41/170/47 42/171/47 47/172/47 46/173/47
f 47/174/48 42/175/48 1/176/48
f 43/177/49 48/178/49 2/179/49
f 43/180/50 44/181/50 49/182/50 48/183/50
f 44/184/51 45/185/51 50/186/51 49/187/51
f 45/188/52 46/189/52 51/190/52 50/191/52
f 46/192/53 47/193/53 52/194/53 51/195/53
f 52/196/54 47/197/54 1/198/54
f 48/199/55 53/200/55 2/201/55
f 48/202/56 49/203/56 54/204/56 53/205/56
f 49/206/57 50/207/57 55/208/57 54/209/57
f 50/210/58 51/211/58 56/212/58 55/213/58
f 51/214/59 52/215/59 57/216/59 56/217/59
f 57/218/60 52/219/60 1/220/60
f 53/221/61 58/222/61 2/223/61
f 53/224/62 54/225/62 59/226/62 58/227/62
f 54/228/63 55/229/63 60/230/63 59/231/63
f 55/232/64 56/233/64 61/234/64 60/235/64
f 56/236/65 57/237/65 62/238/65 61/239/65
f 62/240/66 57/241/66 1/242/66
f 58/243/67 3/244/67 2/245/67
f 58/246/68 59/247/68 4/248/68 3/249/68
f 59/250/69 60/251/69 5/252/69 4/253/69
f 60/254/70 61/255/70 6/256/70 5/257/70
f 61/258/71 62/259/71 7/260/71 6/261/71
f 7/262/72 62/263/72 1/264/72
o sphere
v -0.12968749999999976 1.3555314638165707 -0.18048672769101956
v 0.12968750000000026 1.3555314638165707 -0.18048672769101956
v -0.1296874999999998 1.2782325444399933 -0.18048672769101962
v 0.12968750000000023 1.2782325444399933 -0.18048672769101962
v -0.19214938646467208 1.2460757723089804 -0.07892422769101959
v -0.1296874999999998 1.2445492276910204 -0.17482953036096913
v 0.12968750000000023 1.2445492276910204 -0.17482953036096913
v 0.19214938646467264 1.2460757723089804 -0.07892422769101959
v -0.19214938646467208 1.2171874999999999 -0.0288882723089804
v 0.19214938646467264 1.2171874999999999 -0.0288882723089804
v -0.19214938646467208 1.2171874999999999 0.02888827230898036
v 0.19214938646467264 1.2171874999999999 0.02888827230898036
v -0.19214938646467208 1.2460757723089804 0.07892422769101955
v 0.19214938646467264 1.2460757723089804 0.07892422769101955
v -0.19214938646467208 1.2961117276910195 0.10781249999999999
v -0.1296874999999998 1.2782325444399933 0.18048672769101956
v 2.67794206073997e-16 1.2672234553820392 0.215625
v 0.12968750000000023 1.2782325444399933 0.18048672769101956
v 0.19214938646467264 1.2961117276910195 0.10781249999999999
v 2.5704502147371757e-16 1.218813431621684 -0.20244818863700828
v -0.05390624999999974 1.3107339807106544 -0.20586836384550977
v -0.053906249999999746 1.2686629207834688 -0.20586836384550983
v -0.06640624999999975 1.2686629207834688 0.20586836384550983
v 0.053906250000000266 1.3107339807106544 -0.20586836384550977
v 0.05390625000000026 1.2686629207834688 -0.20586836384550983
v 0.06640625000000025 1.2686629207834688 0.20586836384550983
v 0.06640625000000022 1.1503488522473004 -0.17835942644678351
v -0.06640624999999978 1.1503488522473004 -0.1783594264467835
v 0.21562500000000034 1.325 -1.110223024625156e-18
v -0.21562499999999973 1.325 -1.110223024625156e-18
v -0.19214938646467206 1.3538882723089805 0.10781249999999999
v -0.12968749999999976 1.374281463816571 0.18048672769101956
v 2.934521461212541e-16 1.3827765446179607 0.215625
v 0.12968750000000026 1.374281463816571 0.18048672769101956
v 0.19214938646467267 1.3538882723089805 0.10781249999999999
v -0.19214938646467206 1.4039242276910195 0.07892422769101957
v -0.12968749999999973 1.4574622680027307 0.13212545476167495
v 3.1567257401095685e-16 1.4828484553820391 0.15784845538203918
v 0.1296875000000003 1.4574622680027307 0.13212545476167495
v 0.19214938646467267 1.4039242276910195 0.07892422769101957
v -0.19214938646467206 1.4328125 0.028888272308980407
v -0.12968749999999973 1.5054867276910195 0.04836127292934463
v 3.285015440345854e-16 1.540625 0.05777654461796083
v 0.1296875000000003 1.5054867276910195 0.04836127292934465
v 0.19214938646467267 1.4328125 0.028888272308980407
v -0.19214938646467206 1.4328125 -0.02888827230898042
v -0.12968749999999973 1.5054867276910195 -0.04836127292934466
v 3.285015440345854e-16 1.540625 -0.057776544617960855
v 0.1296875000000003 1.5054867276910195 -0.04836127292934467
v 0.19214938646467267 1.4328125 -0.02888827230898042
v -0.19214938646467206 1.4039242276910195 -0.07892422769101956
v -0.12968749999999973 1.4449622680027305 -0.1383754547616749
v 3.128970164493939e-16 1.470348455382039 -0.16409845538203913
v 0.1296875000000003 1.4449622680027305 -0.13837545476167495
v 0.19214938646467267 1.4039242276910195 -0.07892422769101956
v -0.19214938646467206 1.3538882723089805 -0.10781249999999998
v 2.7818657953265796e-16 1.3140265446179598 -0.21562499999999996
v 0.19214938646467267 1.3538882723089805 -0.10781249999999998
v -0.19214938646467208 1.2961117276910195 -0.10781249999999999
v 2.67794206073997e-16 1.2672234553820392 -0.215625
v 0.19214938646467264 1.2961117276910195 -0.10781249999999999
v -0.06640624999999975 1.223037886154491 -0.19518422481150832
v -0.06640624999999971 1.4629578338819162 -0.15695610200598883
v -0.0664062499999997 1.5308683638455098 -0.05516226183952091
v -0.0664062499999997 1.5308683638455098 0.05516226183952088
v -0.0664062499999997 1.4754578338819164 0.15070610200598894
v -0.06640624999999972 1.3794839807106554 0.20586836384550983
v 0.06640625000000025 1.223037886154491 -0.19518422481150832
v 0.06640625000000029 1.4629578338819162 -0.1569561020059889
v 0.0664062500000003 1.5308683638455098 -0.05516226183952091
v 0.0664062500000003 1.5308683638455098 0.05516226183952089
v 0.0664062500000003 1.4754578338819164 0.15070610200598894
v 0.06640625000000028 1.3794839807106554 0.20586836384550983
v -0.12968749999999976 1.3846220820328454 -0.17036848945802563
v -0.19214938646467206 1.3789063709195268 -0.09336829403258837
v -0.060156280208158525 1.399346275168472 -0.18141211472179944
v 2.9554188187409717e-16 1.3921878777757677 -0.18986160316925615
v 0.060156280208159094 1.399346275168472 -0.18141211472179947
v 0.12968750000000026 1.3846220820328454 -0.17036848945802566
v 0.19214938646467267 1.3789063709195268 -0.09336829403258837
v -0.12249129341003442 1.4812096370306618 -0.21916940308551522
v 0.12354282585371373 1.4889442100144803 -0.21547758884862628
v 0.013476562500000273 1.3020941349957451 -0.2131858409613774
v 0.04042968750000026 1.2816978530420922 -0.20830752288413232
v 0.04042968750000026 1.2731623230784996 -0.20830752288413235
v 0.013476562500000266 1.2724425903777847 -0.21318584096137744
v -0.013476562499999735 1.2724425903777847 -0.21318584096137744
v -0.04042968749999974 1.2816978530420922 -0.20830752288413235
v -0.04042968749999974 1.2731623230784996 -0.20830752288413235
v -0.013476562499999728 1.3020941349957451 -0.21318584096137744
vt 0.6478466873711018 0.691165242124012
vt 0.6604387332835004 0.6982439025172433
vt 0.6406248123711018 0.718749617124012
vt 0.4816225148983 0.125
vt 0.4571280909075093 0.125
vt 0.46176826527863274 0.10139710245482081
vt 0.484375 0.11082089842521592
vt 0.71875 0.7162
vt 0.7180375 0.732984375
vt 0.6903640625 0.732984375
vt 0.6898625 0.716190625
vt 0.716453125 0.40625
vt 0.7180375 0.42326718750000003
vt 0.6903640625 0.42326718750000003
vt 0.6923984375000001 0.40629375
vt 0.8826467917011709 0.5116213598606953
vt 0.8826467917011709 0.48712852130276174
vt 0.8968272421050859 0.484375
vt 0.90625 0.5069824440986452
vt 0.6604387332835004 0.44238109748275667
vt 0.6478466873711018 0.449459757875988
vt 0.6406248123711018 0.421875382875988
vt 0.6604387332835004 0.6982439025172433
vt 0.6679450442189003 0.7105839677603283
vt 0.640625087388 0.7187493325050287
vt 0.4346551538319653 0.125
vt 0.41016226498634506 0.125
vt 0.41497268864104875 0.10134669725995404
vt 0.4375 0.11083914035154141
vt 0.203125 0.29430156250000006
vt 0.20246562499999998 0.31108125
vt 0.174853125 0.31108125
vt 0.1742359375 0.29429218749999997
vt 0.247628125 0.28125
vt 0.24934062499999998 0.29829375
vt 0.221728125 0.29829375
vt 0.223490625 0.28129375
vt 0.8825953580085127 0.6210890669790378
vt 0.8825953580085127 0.5965962953552217
vt 0.8967558847223516 0.59375
vt 0.90625 0.6162770596332439
vt 0.6679450442189003 0.4300410322396716
vt 0.6604387332835004 0.4423810974827568
vt 0.640625087388 0.4218756674949713
vt 0.4383260970962684 0.053269137099606234
vt 0.4522989029037316 0.04961091185648314
vt 0.4522989029037316 0.078125
vt 0.586528125 0.203125
vt 0.581659375 0.171875
vt 0.605840625 0.171875
vt 0.600971875 0.203125
vt 0.54569375 0.2943
vt 0.545040625 0.31107968750000003
vt 0.517459375 0.31107968750000003
vt 0.51680625 0.2943
vt 0.496465625 0.28125
vt 0.498165625 0.29829531249999997
vt 0.470584375 0.29829531249999997
vt 0.472284375 0.28125
vt 0.534784375 0.203125
vt 0.539653125 0.171875
vt 0.554096875 0.171875
vt 0.558965625 0.203125
vt 0.4835489029037316 0.07173086290039377
vt 0.4695760970962684 0.07538908814351686
vt 0.4695760970962684 0.046875
vt 0.6133049557810997 0.3980839677603284
vt 0.6208112667164996 0.3857439025172432
vt 0.640624912612 0.4062493325050287
vt 0.724846875 0.359375
vt 0.71875 0.328125
vt 0.7458671875 0.328125
vt 0.7392578125 0.3586328125
vt 0.6881109375 0.32554531249999996
vt 0.6876515624999999 0.3423390625
vt 0.657059375 0.3423390625
vt 0.65625 0.32556562499999997
vt 0.6862843750000001 0.515625
vt 0.6876515624999999 0.5326625
vt 0.657059375 0.5326625
vt 0.659165625 0.5156625
vt 0.765625 0.7614661288560538
vt 0.734375 0.7553617854170559
vt 0.7351239150853007 0.7409374642802569
vt 0.765625 0.734375
vt 0.18331140422494863 0.3642558128637735
vt 0.1758050932895488 0.35191574762068845
vt 0.20312505012044907 0.34375038287598814
vt 0.6406251876288982 0.406249617124012
vt 0.6271079706919478 0.38220418948339707
vt 0.6334033126288982 0.378665242124012
vt 0.20403945848120358 0.10898542273806577
vt 0.19682020552804813 0.10918001285595669
vt 0.204575 0.08559375000000002
vt 0.21216376176644303 0.08646615352966935
vt 0.041279419815863694 0.4338041168352329
vt 0.018298169815863685 0.4353759918352329
vt 0.020574732315863653 0.42025411683523284
vt 0.041116919815863684 0.42013380433523284
vt 0.2574085459337301 0.06518980585267775
vt 0.234375 0.06518980585267775
vt 0.23600148685848948 0.047282394937236294
vt 0.24366668609693815 0.046875
vt 0.8378156412161486 0.9954695781512114
vt 0.8303596042249038 0.9935466864784462
vt 0.8316168192779649 0.96875
vt 0.8382263332750961 0.9715276365246615
vt 0.20312505012044907 0.343750382875988
vt 0.18960783318349872 0.36779581051660293
vt 0.18331112920805054 0.36425609748275667
vt 0.6334033126288982 0.378665242124012
vt 0.6478470626288981 0.378665242124012
vt 0.6406251876288982 0.406249617124012
vt 0.7677640696441278 0.21319348732005938
vt 0.7673531321441278 0.18923723732005948
vt 0.7866781321441279 0.18923723732005948
vt 0.7822078196441278 0.21319348732005938
vt 0.8378153957750961 0.9954838865246615
vt 0.8382263332750961 0.9715276365246615
vt 0.8526700832750961 0.9715276365246615
vt 0.8571403957750962 0.9954838865246615
vt 0.21034692512044906 0.371334757875988
vt 0.19590317512044908 0.371334757875988
vt 0.20312505012044907 0.343750382875988
vt 0.6478470626288981 0.378665242124012
vt 0.6604387332835004 0.3857445700122146
vt 0.640625087388 0.40625
vt 0.22293859577505132 0.3642554299877854
vt 0.21034692512044906 0.371334757875988
vt 0.20312494987955088 0.34375
vt 0.6604387332835004 0.3857445700122146
vt 0.6679450442189003 0.3980846352552997
vt 0.640625087388 0.40625
vt 0.2304449067104512 0.3519153647447003
vt 0.22293859577505132 0.3642554299877854
vt 0.20312494987955088 0.34375
vt 0.9232429559282416 0.75
vt 0.9269011811713647 0.7360271941925368
vt 0.9517570440717584 0.75
vt 0.9366739029037316 0.5248558629003938
vt 0.9227010970962684 0.5285140881435169
vt 0.9227010970962684 0.5
vt 0.6133049557810997 0.7105846352552998
vt 0.6208112667164996 0.6982445700122146
vt 0.640624912612 0.71875
vt 0.6208112667164996 0.4423804299877854
vt 0.6133049557810997 0.4300403647447003
vt 0.640624912612 0.421875
vt 0.6208112667164996 0.6982445700122146
vt 0.6334029373711019 0.691165242124012
vt 0.640624912612 0.71875
vt 0.6334029373711019 0.449459757875988
vt 0.6208112667164996 0.4423804299877854
vt 0.640624912612 0.421875
vt 0.6334029373711019 0.691165242124012
vt 0.6478466873711018 0.691165242124012
vt 0.6406248123711018 0.718749617124012
vt 0.6330890625000001 0.203125
vt 0.62861875 0.171875
vt 0.65263125 0.171875
vt 0.6475328124999999 0.203125
vt 0.45194375 0.2943
vt 0.45112031249999995 0.31107968750000003
vt 0.42341562499999996 0.31107968750000003
vt 0.42305625 0.2943
vt 0.2935703125 0.28125
vt 0.29487031249999995 0.29829531249999997
vt 0.26716562499999996 0.29829531249999997
vt 0.2695578125 0.28125
vt 0.67549375 0.203125
vt 0.6799640625000001 0.171875
vt 0.6944078124999999 0.171875
vt 0.69950625 0.203125
vt 0.6478466873711018 0.449459757875988
vt 0.6334029373711019 0.449459757875988
vt 0.6406248123711018 0.421875382875988
vt 0.3393547980801862 0.3259549505156364
vt 0.3380838119181657 0.3426406718901899
vt 0.32649352683920974 0.3390787323384059
vt 0.3268522197206757 0.32540941448601846
vt 0.6612220178308144 0.890625
vt 0.6662084418461158 0.9073661179765878
vt 0.6546167066890087 0.910919753641384
vt 0.6526912288690976 0.8908912447608525
vt 0.3245537803928731 0.35910698175859257
vt 0.32649352683920974 0.3390787323384059
vt 0.3380830312543369 0.34264043197569694
vt 0.3330859110257417 0.359375
vt 0.02892016229072497 0.453002753757611
vt 0.021221132750826988 0.453125
vt 0.018368598600270514 0.4353711746366258
vt 0.041279419815863694 0.4338041168352329
vt 0.659165625 0.35933906250000003
vt 0.657059375 0.3423390625
vt 0.6876515624999999 0.3423390625
vt 0.6862843750000001 0.359375
vt 0.519159375 0.328125
vt 0.517459375 0.31107968750000003
vt 0.545040625 0.31107968750000003
vt 0.543340625 0.328125
vt 0.176615625 0.32808125
vt 0.174853125 0.31108125
vt 0.20246562499999998 0.31108125
vt 0.200753125 0.328125
vt 0.6923984375000001 0.7499578124999999
vt 0.6903640625 0.732984375
vt 0.7180375 0.732984375
vt 0.716453125 0.75
vt 0.4258078125 0.328125
vt 0.42341562499999996 0.31107968750000003
vt 0.45112031249999995 0.31107968750000003
vt 0.4498203125 0.328125
vt 0.6549760878010049 0.9246152990615915
vt 0.6546167066890087 0.910919753641384
vt 0.6662092486790365 0.9073658706287832
vt 0.6674602833858181 0.92402159038331
vt 0.04114937943606273 0.42013361422412343
vt 0.020574732315863653 0.42025411683523284
vt 0.018125352641999937 0.4051603908662309
vt 0.04108655795895094 0.4064728103586448
vt 0.65625 0.5494359375
vt 0.657059375 0.5326625
vt 0.6876515624999999 0.5326625
vt 0.6881109375 0.5494546874999999
vt 0.46993125 0.315075
vt 0.470584375 0.29829531249999997
vt 0.498165625 0.29829531249999997
vt 0.49881875 0.315075
vt 0.2211109375 0.31508125
vt 0.221728125 0.29829375
vt 0.24934062499999998 0.29829375
vt 0.25 0.31507343750000005
vt 0.6898625 0.44005937500000003
vt 0.6903640625 0.42326718750000003
vt 0.7180375 0.42326718750000003
vt 0.71875 0.44005000000000005
vt 0.26680625 0.315075
vt 0.26716562499999996 0.29829531249999997
vt 0.29487031249999995 0.29829531249999997
vt 0.29569375 0.315075
vt 0.9403649318780956 0.640625
vt 0.96875 0.640625
vt 0.9538030160644865 0.6517841551426229
vt 0.6662092486790365 0.9073658706287832
vt 0.6848489183109914 0.9066575004732783
vt 0.6674625814465409 0.9240521857418339
vt 0.3393547980801862 0.3259549505156364
vt 0.35672278027932425 0.34336796230242017
vt 0.33808386808337365 0.34263993454383745
vt 0.9419658448573771 0.2990619158136091
vt 0.953125 0.28411493187809556
vt 0.953125 0.3125
vt 0.7822075030651912 0.21319518385562597
vt 0.7866781321441279 0.18923723732005948
vt 0.7951468678558722 0.1903186353479034
vt 0.795140888073687 0.21875
vt 0.9268383484259877 0.8891332764649003
vt 0.921875 0.8652738366618633
vt 0.9375 0.859375
vt 0.9375 0.8879231280940761
vt 0.1875 0.08559375000000002
vt 0.204575 0.08559375000000002
vt 0.19682031249999998 0.10917968749999996
vt 0.18960312499999998 0.109375
vt 0.6208112667164996 0.3857439025172432
vt 0.6271079706919478 0.38220418948339707
vt 0.6406251876288982 0.406249617124012
vt 0 0.42037248695050566
vt 0.020574656817505643 0.42025365159436423
vt 0.018301017130938235 0.4353748482067269
vt 0.0012935621809402331 0.4371090448616225
vt 0.001084553662112464 0.40362789194630766
vt 0.018125352641999937 0.4051603908662309
vt 0.020574656817505643 0.42025365159436423
vt 0.000017050406753704728 0.42037238847055647
vt 0.921875 0.7718332368525911
vt 0.9243152145132234 0.765625
vt 0.9491435981257846 0.765625
vt 0.9438099316082278 0.78125
vt 0.19590317512044908 0.371334757875988
vt 0.18960783318349872 0.36779581051660293
vt 0.20312505012044907 0.343750382875988
vt 0.19330765279793966 0.04835785135374571
vt 0.171875 0.04835785135374571
vt 0.17190462472865226 0.03125
vt 0.13936627690333933 0.078125
vt 0.13936627690333933 0.050723270665744113
vt 0.15625 0.05690859101737655
vt 0.939568435558626 0.9235427511285578
vt 0.966681564441374 0.9235427511285578
vt 0.9568453645175911 0.9375
vt 0.953125 0.5559129141498935
vt 0.953125 0.578125
vt 0.937690063317985 0.5707818253128862
vt 0.5070915419569382 0.06964370060763214
vt 0.5070915419569381 0.0474003573157441
vt 0.5241584580430619 0.046875
vt 0.9087712131164439 0.15761181399461954
vt 0.9316004884322531 0.140625
vt 0.9375 0.15761181399461954
vt 0.28125 0.0497854979575334
vt 0.3099795301618441 0.0497854979575334
vt 0.29853001217084674 0.0625
vt 0.96875 0.671875
vt 0.9538486561540722 0.6873084177586928
vt 0.9465056337781163 0.671875
vt 0.6513573316890087 0.914344753641384
vt 0.6462588941890086 0.9211916286413839
vt 0.6432760816890086 0.924615066141384
vt 0.6440995191890087 0.910919753641384
vt 0.6534917066890087 0.914344753641384
vt 0.6513573316890087 0.914344753641384
vt 0.6440995191890087 0.910919753641384
vt 0.6546167066890087 0.910919753641384
vt 0.6536713941890087 0.9211916286413839
vt 0.6534917066890087 0.914344753641384
vt 0.6546167066890087 0.910919753641384
vt 0.6549760816890087 0.924615066141384
vt 0.6462588941890086 0.9211916286413839
vt 0.6536713941890087 0.9211916286413839
vt 0.6549760816890087 0.924615066141384
vt 0.6432760816890086 0.924615066141384
vt 0.3253678447206757 0.33567972698601845
vt 0.3255475322206757 0.3288328519860184
vt 0.3268522197206757 0.32540941448601846
vt 0.32649284472067575 0.33910472698601846
vt 0.3232334697206757 0.33567972698601845
vt 0.3253678447206757 0.33567972698601845
vt 0.32649284472067575 0.33910472698601846
vt 0.3159756572206758 0.33910472698601846
vt 0.31813503222067574 0.3288328519860184
vt 0.3232334697206757 0.33567972698601845
vt 0.3159756572206758 0.33910472698601846
vt 0.31515221972067575 0.32540941448601846
vt 0.3255475322206757 0.3288328519860184
vt 0.31813503222067574 0.3288328519860184
vt 0.31515221972067575 0.32540941448601846
vt 0.3268522197206757 0.32540941448601846
vn -0.9771046049384658 0.10637973374666446 0.18425510374487164
vn -0.7601597623432155 0.3265724256345789 0.5617006200187549
vn -0.14709219376480684 0.4928966797298514 0.8575644288592811
vn 0.3684039834128767 0.463268255264102 0.8060155263207277
vn 0.760409695285498 0.32472184070209115 0.5624347264233087
vn 0.9771046049384658 0.10637973374666401 0.18425510374487164
vn -0.9771046049384657 0.18425510374487175 0.10637973374666429
vn -0.7594112670877459 0.5644257249030586 0.3236018054458927
vn -0.1452884096105174 0.8558716815770477 0.4963617055206042
vn 0.37209675618156 0.8029345755572889 0.46566089744984757
vn 0.7596696874418079 0.5631842278389454 0.32515456554616773
vn 0.977104604938466 0.18425510374487133 0.10637973374666432
vn -0.977104604938466 0.21275946749332833 0
vn -0.7583809385514919 0.6518115924419865 0
vn -0.14536290049754969 0.9893784044332784 0
vn 0.3722646485754422 0.9281266246698252 0
vn 0.7583809385514918 0.6518115924419868 0
vn 0.977104604938466 0.2127594674933279 0
vn -0.977104604938466 0.18425510374487175 -0.10637973374666439
vn -0.7516118565631089 0.5473753758235909 -0.3680486584892543
vn -0.1505370878320813 0.8223896389882186 -0.5486473064472875
vn 0.3710008784921981 0.7725008992305201 -0.5153646367825944
vn 0.7583809385514918 0.5644853975359491 -0.32590579622099436
vn 0.977104604938466 0.18425510374487133 -0.1063797337466644
vn -0.9771046049384658 0.10637973374666466 -0.18425510374487153
vn -0.7439634757689954 0.3341101415408242 -0.578695740472734
vn -0.10424846808105094 0.2577562588732221 -0.960569605970559
vn 0.2028376807433548 0.2471947586731658 -0.9474975601842849
vn 0.7667452157175006 0.21088990068979346 -0.60632270612387
vn 0.977104604938466 0.10637973374666385 -0.18425510374487186
vn -0.9771046049384658 2.6806512111605805e-16 -0.2127594674933283
vn -0.7583809385514926 6.367695105179459e-16 -0.6518115924419858
vn 0.7583809385514919 -1.1735277275888666e-17 -0.6518115924419865
vn 0.9771046049384658 -1.6585649083192286e-16 -0.21275946749332827
vn -0.9771046049384658 -0.10637973374666397 -0.18425510374487167
vn 0.9771046049384658 -0.1063797337466644 -0.18425510374487164
vn -0.977104604938466 -0.18425510374487133 -0.1063797337466643
vn 0.977104604938466 -0.1842551037448718 -0.10637973374666432
vn -0.9771046049384661 -0.21275946749332791 0
vn 0.9771046049384658 -0.2127594674933283 0
vn -0.977104604938466 -0.1842551037448714 0.10637973374666433
vn 0.9771046049384657 -0.1842551037448718 0.1063797337466643
vn -0.9771046049384658 -0.10637973374666408 0.18425510374487158
vn 0.9771046049384658 -0.10637973374666454 0.1842551037448716
vn -0.9771046049384658 2.1696080597399044e-16 0.21275946749332827
vn -0.7583809385514924 1.6839439588334057e-16 0.6518115924419859
vn -0.14536290049755152 3.2277047811735464e-17 0.9893784044332782
vn 0.37226464857544167 -8.265935682048956e-17 0.9281266246698253
vn 0.7583809385514919 -1.6839439588334047e-16 0.6518115924419866
vn 0.9771046049384658 -2.1696080597399044e-16 0.21275946749332827
vn -0.11891643374977873 -0.1953850859205295 -0.9734903954246606
vn 0.3419106148312069 -0.12444748598094843 -0.9314558254145862
vn -0.32952947058746423 -0.12874587962360381 -0.9353260535739877
vn -0.2144722145856722 0.3208692561333715 -0.9225207800581698
vn -0.3660099344156369 0.7741466929804262 -0.5164626081881738
vn -0.37226464857544156 0.9281266246698257 0
vn -0.36601174983106083 0.8050247812868396 0.4668731096343856
vn -0.3623039504512652 0.46446132539203094 0.8080912848821509
vn -0.37226464857544134 8.265935682048949e-17 0.9281266246698255
vn 0.17985971016156918 -0.17730456209464568 -0.9675813024862677
vn 0.09570569412775953 0.3116134208847448 -0.9453769068662671
vn 0.14259698614767838 0.8233683097687036 -0.5493002148281277
vn 0.14536290049755016 0.9893784044332783 0
vn 0.14856668266930056 0.8554504417400434 0.49611740800681864
vn 0.15036044794852307 0.49265173558426667 0.8571382637115958
vn 0.14536290049755157 -3.2277047811735476e-17 0.9893784044332781
vn 0.36336517116936545 -0.21008717618940662 -0.9076503350860502
vn 0.12004025045428926 -0.22387029302790173 -0.967198237266008
vn -0.12004025045428936 -0.2238702930279021 -0.967198237266008
vn -0.3633651711693654 -0.2100871761894068 -0.9076503350860501
vn -0.766861570347875 -0.10630511849596395 -0.6329475125989125
vn 0.7548141540573543 -0.32796935559388846 -0.568059587214238
vn -0.7494510857436506 0.3101347357355516 -0.5849269319905718
vn -0.9771046049384657 0.1063797337466643 -0.1842551037448718
vn -0.09570569412775984 0.31161342088474453 -0.9453769068662673
vn 0.08936819207258566 0.3497537336199494 -0.932569381903879
vn 0.7439634757689955 0.33411014154082286 -0.5786957404727348
vn 0.9771046049384658 0.10637973374666422 -0.18425510374487156
vn 0.7506287144090518 0.30006522563649407 -0.588657280145531
vn -0.04702962205897785 -0.44766619163452415 -0.8929631546242158
vn -0.9967000744582936 0.038024344291713 -0.0717154851898622
vn -0.14228804658761024 0.9077736310819733 0.3945898459293294
vn 0.9976102994707515 0.0323653546566584 -0.06104239680604072
vn 0.06248676897128802 -0.3930089928689715 -0.9174090337617381
vn -0.7456908409347394 0.30166824381795243 -0.5940887479306722
vn 0.10382008497167812 0.8674583278328827 0.4865567175878395
vn 0.17809906177666507 -3.954593580971834e-17 -0.9840125630266474
vn 0.17809906177665819 3.1602360597208416e-15 -0.9840125630266487
vn 0.17809906177666474 5.662476491620707e-15 -0.9840125630266474
vn 0.1780990617766665 8.815472298822882e-16 -0.9840125630266471
vn -0.17809906177666462 5.537924705117877e-15 -0.9840125630266475
vn -0.17809906177666285 3.9545935809717847e-17 -0.984012563026648
vn -0.17809906177666526 7.205347875620755e-16 -0.9840125630266473
vn -0.17809906177666288 3.954593580971785e-17 -0.984012563026648
usemtl m_89b5679f-b5a3-0f3c-2eab-64994942e7c5
f 93/265/73 98/266/73 92/267/73
f 93/268/74 94/269/74 99/270/74 98/271/74
f 100/272/75 128/273/75 129/274/75 95/275/75
f 101/276/76 134/277/76 135/278/76 96/279/76
f 96/280/77 97/281/77 102/282/77 101/283/77
f 102/284/78 97/285/78 91/286/78
f 98/287/79 103/288/79 92/289/79
f 98/290/80 99/291/80 104/292/80 103/293/80
f 105/294/81 127/295/81 128/296/81 100/297/81
f 106/298/82 133/299/82 134/300/82 101/301/82
f 101/302/83 102/303/83 107/304/83 106/305/83
f 107/306/84 102/307/84 91/308/84
f 103/309/85 108/310/85 92/311/85
f 103/312/86 104/313/86 109/314/86 108/315/86
f 110/316/87 126/317/87 127/318/87 105/319/87
f 111/320/88 132/321/88 133/322/88 106/323/88
f 106/324/89 107/325/89 112/326/89 111/327/89
f 112/328/90 107/329/90 91/330/90
f 108/331/91 113/332/91 92/333/91
f 108/334/92 109/335/92 114/336/92 113/337/92
f 115/338/93 125/339/93 126/340/93 110/341/93
f 116/342/94 131/343/94 132/344/94 111/345/94
f 111/346/95 112/347/95 117/348/95 116/349/95
f 117/350/96 112/351/96 91/352/96
f 92/353/97 137/354/97 118/355/97
f 118/356/98 137/357/98 136/358/98 63/359/98
f 83/360/99 138/361/99 139/362/99 119/363/99
f 86/364/100 140/365/100 141/366/100 64/367/100
f 64/368/101 141/369/101 142/370/101 120/371/101
f 91/372/102 142/373/102 117/374/102
f 118/375/103 121/376/103 92/377/103
f 118/378/104 63/379/104 65/380/104 121/381/104
f 64/382/105 120/383/105 123/384/105 66/385/105
f 123/386/106 120/387/106 91/388/106
f 121/389/107 67/390/107 92/391/107
f 70/392/108 123/393/108 91/394/108
f 67/395/109 71/396/109 92/397/109
f 72/398/110 70/399/110 91/400/110
f 71/401/111 73/402/111 92/403/111
f 74/404/112 72/405/112 91/406/112
f 73/407/113 75/408/113 92/409/113
f 76/410/114 74/411/114 91/412/114
f 75/413/115 77/414/115 92/415/115
f 81/416/116 76/417/116 91/418/116
f 77/419/117 93/420/117 92/421/117
f 77/422/118 78/423/118 94/424/118 93/425/118
f 95/426/119 129/427/119 85/428/119 79/429/119
f 96/430/120 135/431/120 88/432/120 80/433/120
f 80/434/121 81/435/121 97/436/121 96/437/121
f 97/438/122 81/439/122 91/440/122
f 82/441/123 124/442/123 84/443/123 122/444/123
f 69/445/124 130/446/124 87/447/124 66/448/124
f 65/449/125 84/450/125 124/451/125 68/452/125
f 63/453/126 136/454/126 138/455/126 83/456/126
f 109/457/127 126/458/127 125/459/127 114/460/127
f 104/461/128 127/462/128 126/463/128 109/464/128
f 99/465/129 128/466/129 127/467/129 104/468/129
f 94/469/130 129/470/130 128/471/130 99/472/130
f 78/473/131 85/474/131 129/475/131 94/476/131
f 122/477/132 87/478/132 130/479/132 82/480/132
f 119/481/133 139/482/133 140/483/133 86/484/133
f 110/485/134 132/486/134 131/487/134 115/488/134
f 105/489/135 133/490/135 132/491/135 110/492/135
f 100/493/136 134/494/136 133/495/136 105/496/136
f 95/497/137 135/498/137 134/499/137 100/500/137
f 79/501/138 88/502/138 135/503/138 95/504/138
f 69/505/139 89/506/139 130/507/139
f 130/508/140 89/509/140 82/510/140
f 82/511/141 90/512/141 124/513/141
f 124/514/142 90/515/142 68/516/142
f 121/517/143 65/518/143 68/519/143 67/520/143
f 66/521/144 123/522/144 70/523/144 69/524/144
f 114/525/145 136/526/145 137/527/145 113/528/145
f 113/529/146 137/530/146 92/531/146
f 115/532/147 139/533/147 138/534/147 125/535/147
f 131/536/148 140/537/148 139/538/148 115/539/148
f 117/540/149 142/541/149 141/542/149 116/543/149
f 120/544/150 142/545/150 91/546/150
f 143/547/151 125/548/151 138/549/151
f 143/550/152 138/551/152 136/552/152
f 143/553/153 136/554/153 114/555/153
f 143/556/154 114/557/154 125/558/154
f 144/559/155 116/560/155 141/561/155
f 144/562/156 141/563/156 140/564/156
f 144/565/157 140/566/157 131/567/157
f 144/568/158 131/569/158 116/570/158
f 146/571/159 145/572/159 119/573/159 86/574/159
f 147/575/160 146/576/160 86/577/160 87/578/160
f 148/579/161 147/580/161 87/581/161 122/582/161
f 145/583/162 148/584/162 122/585/162 119/586/162
f 151/587/163 149/588/163 122/589/163 84/590/163
f 150/591/164 151/592/164 84/593/164 83/594/164
f 152/595/165 150/596/165 83/597/165 119/598/165
f 149/599/166 152/600/166 119/601/166 122/602/166