# Made in Blockbench 5.1.5
mtllib WiccanBody.mtl

o cuboid
v -0.05296052631578946 0.13235294117647056 0.07719298245614035
v -0.05296052631578946 0.13235294117647056 -0.08552631578947367
v -0.05296052631578946 -3.469446951953614e-18 0.07719298245614035
v -0.05296052631578946 -3.469446951953614e-18 -0.08552631578947367
v -0.20953947368421058 0.13235294117647056 0.07719298245614035
v -0.20953947368421058 0.13235294117647056 -0.08552631578947367
v -0.20953947368421058 -3.469446951953614e-18 0.07719298245614035
v -0.20953947368421058 -3.469446951953614e-18 -0.08552631578947367
v -0.05296052631578946 0.04963235294117645 -0.26250000000000007
v -0.05296052631578946 -3.469446951953614e-18 -0.26250000000000007
v -0.20953947368421058 0.04963235294117645 -0.26250000000000007
v -0.20953947368421058 -3.469446951953614e-18 -0.26250000000000007
v -0.02499999999999998 0.1875 0.10625
v -0.02499999999999998 0.1875 -0.11458333333333333
v -0.23750000000000004 0.1875 0.10625
v -0.23750000000000004 0.1875 -0.11458333333333333
v -0.06134868421052632 0.1875 0.06847587719298244
v -0.06134868421052632 0.1875 -0.07680921052631579
v -0.2011513157894737 0.1875 0.06847587719298244
v -0.2011513157894737 0.1875 -0.07680921052631579
v -0.078125 0.15441176470588233 0.0568530701754386
v -0.078125 0.15441176470588233 -0.06518640350877193
v -0.184375 0.15441176470588233 0.0568530701754386
v -0.184375 0.15441176470588233 -0.06518640350877193
vt 0.506921484375 0.6796875
vt 0.486581640625 0.6796875
vt 0.486581640625 0.6631437499999999
vt 0.506921484375 0.6631437499999999
vt 0.529043359375 0.6397062499999999
vt 0.529043359375 0.65625
vt 0.508703515625 0.65625
vt 0.508703515625 0.6397062499999999
vt 0 0.9140625
vt 0.015625 0.9140625
vt 0.015625 0.9296875
vt 0 0.9296875
vt 0.5058796875 0.7018093750000001
vt 0.5058796875 0.72214921875
vt 0.4863078125 0.72214921875
vt 0.4863078125 0.7018093750000001
vt 0.1015625 0.9296875
vt 0.1015625 0.9453125
vt 0.078125 0.9453125
vt 0.078125 0.9296875
vt 0.0234375 1
vt 0 1
vt 0 0.9921875
vt 0.0234375 0.9921875
vt 0.3203125 0.4921875
vt 0.34375 0.4921875
vt 0.34375 0.515625
vt 0.3203125 0.515625
vt 0.529043359375 0.6631437499999999
vt 0.529043359375 0.66934765625
vt 0.506921484375 0.6796875
vt 0.506921484375 0.6631437499999999
vt 0.4863078125 0.6796875
vt 0.5058796875 0.6796875
vt 0.5058796875 0.7018093750000001
vt 0.4863078125 0.7018093750000001
vt 0.486581640625 0.64591015625
vt 0.486581640625 0.6397062499999999
vt 0.508703515625 0.6397062499999999
vt 0.508703515625 0.65625
vt 0.13046875 0.9375
vt 0.10390625 0.9375
vt 0.1074015625 0.9296875
vt 0.1269734375 0.9296875
vt 0.045051953125 0.921875
vt 0.017448046875 0.921875
vt 0.021080078125 0.9140625
vt 0.041419921875 0.9140625
vt 0.11484375 0.890625
vt 0.08828125 0.890625
vt 0.0917765625 0.8828125
vt 0.11134843750000001 0.8828125
vt 0.084114453125 1
vt 0.056510546875 1
vt 0.060142578125 0.9921875
vt 0.080482421875 0.9921875
vt 0.157175 0.50055546875
vt 0.1397 0.50055546875
vt 0.13515625 0.49583359375
vt 0.16171875 0.49583359375
vt 0.157175 0.518715625
vt 0.157175 0.50055546875
vt 0.16171875 0.49583359375
vt 0.16171875 0.5234375
vt 0.1397 0.518715625
vt 0.157175 0.518715625
vt 0.16171875 0.5234375
vt 0.13515625 0.5234375
vt 0.1397 0.50055546875
vt 0.1397 0.518715625
vt 0.13515625 0.5234375
vt 0.13515625 0.49583359375
vt 0.114453125 0.9453125
vt 0.127734375 0.9453125
vt 0.12983125 0.953125
vt 0.11235625 0.953125
vt 0.050966015625 0.9140625
vt 0.066220703125 0.9140625
vt 0.067673828125 0.921875
vt 0.049513671875 0.921875
vt 0.036328125 0.875
vt 0.049609375 0.875
vt 0.05170625 0.8828125
vt 0.03423125 0.8828125
vt 0.097841796875 0.90625
vt 0.113096484375 0.90625
vt 0.114548828125 0.9140625
vt 0.096388671875 0.9140625
vn 1 0 0
vn -1 0 0
vn 0 1 0
vn 0 -1 0
vn 0 0 1
vn 0 0 -1
vn 0 0.9059223258351715 -0.4234439036677626
vn 1 0 0
vn 0 -1 0
vn -1 0 0
vn 0 -0.46615152726026154 0.8847048963541041
vn 0.8919095693134029 -0.4522137991781989 0
vn 0 -0.4661515272602616 -0.8847048963541039
vn -0.891909569313403 -0.4522137991781987 0
vn 0 1 0
vn 0 1 0
vn 0 1 0
vn 0 1 0
vn 0 0.33141520227036597 -0.9434850097929974
vn -0.8919095693134029 0.45221379917819865 0
vn 0 0.3314152022703663 0.9434850097929973
vn 0.8919095693134028 0.4522137991781989 0
usemtl m_ff70f691-bde8-f186-4486-f40bb40d341f
f 2/1/1 1/2/1 3/3/1 4/4/1
f 7/5/2 5/6/2 6/7/2 8/8/2
f 23/9/3 21/10/3 22/11/3 24/12/3
f 4/13/4 3/14/4 7/15/4 8/16/4
f 3/17/5 1/18/5 5/19/5 7/20/5
f 11/21/6 9/22/6 10/23/6 12/24/6
f 9/25/7 11/26/7 6/27/7 2/28/7
f 10/29/8 9/30/8 2/31/8 4/32/8
f 12/33/9 10/34/9 4/35/9 8/36/9
f 11/37/10 12/38/10 8/39/10 6/40/10
f 13/41/11 15/42/11 5/43/11 1/44/11
f 14/45/12 13/46/12 1/47/12 2/48/12
f 16/49/13 14/50/13 2/51/13 6/52/13
f 15/53/14 16/54/14 6/55/14 5/56/14
f 17/57/15 19/58/15 15/59/15 13/60/15
f 18/61/16 17/62/16 13/63/16 14/64/16
f 20/65/17 18/66/17 14/67/17 16/68/17
f 19/69/18 20/70/18 16/71/18 15/72/18
f 21/73/19 23/74/19 19/75/19 17/76/19
f 22/77/20 21/78/20 17/79/20 18/80/20
f 24/81/21 22/82/21 18/83/21 20/84/21
f 23/85/22 24/86/22 20/87/22 19/88/22
o cuboid
v 0.05296052631578946 0.13235294117647056 0.07719298245614035
v 0.05296052631578946 0.13235294117647056 -0.08552631578947367
v 0.05296052631578946 -3.469446951953614e-18 0.07719298245614035
v 0.05296052631578946 -3.469446951953614e-18 -0.08552631578947367
v 0.20953947368421058 0.13235294117647056 0.07719298245614035
v 0.20953947368421058 0.13235294117647056 -0.08552631578947367
v 0.20953947368421058 -3.469446951953614e-18 0.07719298245614035
v 0.20953947368421058 -3.469446951953614e-18 -0.08552631578947367
v 0.05296052631578946 0.04963235294117645 -0.26250000000000007
v 0.05296052631578946 -3.469446951953614e-18 -0.26250000000000007
v 0.20953947368421058 0.04963235294117645 -0.26250000000000007
v 0.20953947368421058 -3.469446951953614e-18 -0.26250000000000007
v 0.02499999999999998 0.1875 0.10625
v 0.02499999999999998 0.1875 -0.11458333333333333
v 0.23750000000000004 0.1875 0.10625
v 0.23750000000000004 0.1875 -0.11458333333333333
v 0.06134868421052632 0.1875 0.06847587719298244
v 0.06134868421052632 0.1875 -0.07680921052631579
v 0.2011513157894737 0.1875 0.06847587719298244
v 0.2011513157894737 0.1875 -0.07680921052631579
v 0.078125 0.15441176470588233 0.0568530701754386
v 0.078125 0.15441176470588233 -0.06518640350877193
v 0.184375 0.15441176470588233 0.0568530701754386
v 0.184375 0.15441176470588233 -0.06518640350877193
vt 0.486581640625 0.6631437499999999
vt 0.486581640625 0.6796875
vt 0.506921484375 0.6796875
vt 0.506921484375 0.6631437499999999
vt 0.508703515625 0.65625
vt 0.529043359375 0.65625
vt 0.529043359375 0.6397062499999999
vt 0.508703515625 0.6397062499999999
vt 0.015625 0.9296875
vt 0.015625 0.9140625
vt 0 0.9140625
vt 0 0.9296875
vt 0.4863078125 0.72214921875
vt 0.5058796875 0.72214921875
vt 0.5058796875 0.7018093750000001
vt 0.4863078125 0.7018093750000001
vt 0.078125 0.9453125
vt 0.1015625 0.9453125
vt 0.1015625 0.9296875
vt 0.078125 0.9296875
vt 0 0.9921875
vt 0 1
vt 0.0234375 1
vt 0.0234375 0.9921875
vt 0.34375 0.515625
vt 0.34375 0.4921875
vt 0.3203125 0.4921875
vt 0.3203125 0.515625
vt 0.506921484375 0.6796875
vt 0.529043359375 0.66934765625
vt 0.529043359375 0.6631437499999999
vt 0.506921484375 0.6631437499999999
vt 0.5058796875 0.7018093750000001
vt 0.5058796875 0.6796875
vt 0.4863078125 0.6796875
vt 0.4863078125 0.7018093750000001
vt 0.508703515625 0.6397062499999999
vt 0.486581640625 0.6397062499999999
vt 0.486581640625 0.64591015625
vt 0.508703515625 0.65625
vt 0.1074015625 0.9296875
vt 0.10390625 0.9375
vt 0.13046875 0.9375
vt 0.1269734375 0.9296875
vt 0.021080078125 0.9140625
vt 0.017448046875 0.921875
vt 0.045051953125 0.921875
vt 0.041419921875 0.9140625
vt 0.0917765625 0.8828125
vt 0.08828125 0.890625
vt 0.11484375 0.890625
vt 0.11134843750000001 0.8828125
vt 0.060142578125 0.9921875
vt 0.056510546875 1
vt 0.084114453125 1
vt 0.080482421875 0.9921875
vt 0.13515625 0.49583359375
vt 0.1397 0.50055546875
vt 0.157175 0.50055546875
vt 0.16171875 0.49583359375
vt 0.16171875 0.49583359375
vt 0.157175 0.50055546875
vt 0.157175 0.518715625
vt 0.16171875 0.5234375
vt 0.16171875 0.5234375
vt 0.157175 0.518715625
vt 0.1397 0.518715625
vt 0.13515625 0.5234375
vt 0.13515625 0.5234375
vt 0.1397 0.518715625
vt 0.1397 0.50055546875
vt 0.13515625 0.49583359375
vt 0.12983125 0.953125
vt 0.127734375 0.9453125
vt 0.114453125 0.9453125
vt 0.11235625 0.953125
vt 0.067673828125 0.921875
vt 0.066220703125 0.9140625
vt 0.050966015625 0.9140625
vt 0.049513671875 0.921875
vt 0.05170625 0.8828125
vt 0.049609375 0.875
vt 0.036328125 0.875
vt 0.03423125 0.8828125
vt 0.114548828125 0.9140625
vt 0.113096484375 0.90625
vt 0.097841796875 0.90625
vt 0.096388671875 0.9140625
vn -1 0 0
vn 1 0 0
vn 0 1 0
vn 0 -1 0
vn 0 0 1
vn 0 0 -1
vn 0 0.9059223258351715 -0.4234439036677626
vn -1 0 0
vn 0 -1 0
vn 1 0 0
vn 0 -0.4661515272602615 0.8847048963541041
vn -0.8919095693134029 -0.4522137991781989 0
vn 0 -0.4661515272602616 -0.8847048963541038
vn 0.891909569313403 -0.45221379917819876 0
vn 0 1 0
vn 0 1 0
vn 0 1 0
vn 0 1 0
vn 0 0.331415202270366 -0.9434850097929975
vn 0.8919095693134029 0.45221379917819865 0
vn 0 0.33141520227036625 0.9434850097929974
vn -0.8919095693134028 0.45221379917819904 0
usemtl m_ff70f691-bde8-f186-4486-f40bb40d341f
f 27/89/23 25/90/23 26/91/23 28/92/23
f 30/93/24 29/94/24 31/95/24 32/96/24
f 46/97/25 45/98/25 47/99/25 48/100/25
f 31/101/26 27/102/26 28/103/26 32/104/26
f 29/105/27 25/106/27 27/107/27 31/108/27
f 34/109/28 33/110/28 35/111/28 36/112/28
f 30/113/29 35/114/29 33/115/29 26/116/29
f 26/117/30 33/118/30 34/119/30 28/120/30
f 28/121/31 34/122/31 36/123/31 32/124/31
f 32/125/32 36/126/32 35/127/32 30/128/32
f 29/129/33 39/130/33 37/131/33 25/132/33
f 25/133/34 37/134/34 38/135/34 26/136/34
f 26/137/35 38/138/35 40/139/35 30/140/35
f 30/141/36 40/142/36 39/143/36 29/144/36
f 39/145/37 43/146/37 41/147/37 37/148/37
f 37/149/38 41/150/38 42/151/38 38/152/38
f 38/153/39 42/154/39 44/155/39 40/156/39
f 40/157/40 44/158/40 43/159/40 39/160/40
f 43/161/41 47/162/41 45/163/41 41/164/41
f 41/165/42 45/166/42 46/167/42 42/168/42
f 42/169/43 46/170/43 48/171/43 44/172/43
f 44/173/44 48/174/44 47/175/44 43/176/44
o tube
v 0.10572871533761602 0.6375 0.19999999999999996
v 0.05908369386513837 0.8 0.12499999999999996
v 0.08404293116880579 0.6375 0.1589784400584788
v 0.046965167417862067 0.8 0.09936152503654924
v 0.21250000000000002 0.6375 0.09037386815412984
v 0.11875000000000001 0.8 0.05648366759633114
v 0.1689145925621337 0.6375 0.07183748290597099
v 0.09439344878472179 0.8 0.04489842681623186
v 0.21250000000000002 0.6375 -0.09037386815412983
v 0.11875000000000001 0.8 -0.056483667596331145
v 0.1689145925621337 0.6375 -0.07183748290597099
v 0.09439344878472179 0.8 -0.04489842681623187
v 0.10572871533761605 0.6375 -0.19999999999999996
v 0.059083693865138384 0.8 -0.12499999999999999
v 0.0840429311688058 0.6375 -0.1589784400584788
v 0.04696516741786208 0.8 -0.09936152503654926
v -0.105728715337616 0.6375 -0.2
v -0.059083693865138336 0.8 -0.125
v -0.08404293116880575 0.6375 -0.15897844005847883
v -0.046965167417862025 0.8 -0.09936152503654927
v -0.21249999999999997 0.6375 -0.09037386815412997
v -0.11874999999999995 0.8 -0.05648366759633124
v -0.1689145925621337 0.6375 -0.0718374829059711
v -0.09439344878472175 0.8 -0.04489842681623194
v -0.21249999999999997 0.6375 0.09037386815412989
v -0.11874999999999995 0.8 0.05648366759633116
v -0.16891459256213376 0.6375 0.07183748290597103
v -0.09439344878472179 0.8 0.04489842681623188
v -0.10572871533761619 0.6375 0.1999999999999999
v -0.05908369386513843 0.8 0.12499999999999993
v -0.08404293116880593 0.6375 0.15897844005847878
v -0.04696516741786212 0.8 0.09936152503654921
v 0.14560505096289417 0.36250000000000004 0.3039528285082158
v 0.1157403193335811 0.36250000000000004 0.24586088186148092
v 0.2926458836732582 0.36250000000000004 0.14870774735194658
v 0.2326219303795482 0.36250000000000004 0.12245777771660268
v 0.2926458836732582 0.36250000000000004 -0.10725491884373056
v 0.2326219303795482 0.36250000000000004 -0.08100494920838672
v 0.1456050509628942 0.36250000000000004 -0.2625
v 0.11574031933358113 0.36250000000000004 -0.204408053353265
v -0.14560505096289417 0.36250000000000004 -0.2625000000000001
v -0.11574031933358106 0.36250000000000004 -0.204408053353265
v -0.29264588367325817 0.36250000000000004 -0.10725491884373078
v -0.2326219303795482 0.36250000000000004 -0.08100494920838686
v -0.29264588367325817 0.36250000000000004 0.1487077473519466
v -0.23262193037954826 0.36250000000000004 0.12245777771660274
v -0.1456050509628944 0.36250000000000004 0.3039528285082157
v -0.11574031933358132 0.36250000000000004 0.24586088186148092
v -0.3271103103360302 0.19375000000000012 -0.3020285739512193
v 0.3271103103360302 0.19375000000000012 0.3251701272394327
v 0.3271103103360303 0.19375000000000012 -0.3020285739512192
v -0.32711031033603044 0.19375000000000012 0.3251701272394327
v -0.43686152503654924 0.19375000000000012 -0.007179223355893143
v -1.8239773030539801e-16 0.19375000000000012 0.4506434487847216
v 0.43686152503654924 0.19375000000000012 -0.00717922335589306
vt 0.15274609375 0.6484375
vt 0.171875 0.6484375
vt 0.1667328125 0.671875
vt 0.15539375 0.67156640625
vt 0.013048437500000003 0.6238765625
vt 0.004021093750000001 0.6238765625
vt 0.0004429687500000015 0.6015625
vt 0.015625 0.60191328125
vt 0.24957265625 0.96875
vt 0.25703125 0.97731484375
vt 0.25398671875 0.9787625
vt 0.2480578125 0.9719546875
vt 0.172296875 0.6796875
vt 0.19489062499999998 0.6796875
vt 0.19065390625 0.703125
vt 0.17653359375 0.703125
vt 0.05639375 0.6640625
vt 0.04516875 0.6640625
vt 0.0418015625 0.640625
vt 0.0597609375 0.640625
vt 0.25703125 0.97731484375
vt 0.25703125 0.99143515625
vt 0.25398671875 0.9899875
vt 0.25398671875 0.9787625
vt 0 0.6796875
vt 0.004128784448442405 0.6610094863663293
vt 0.025983135859791423 0.6685519733346699
vt 0.02382406343458554 0.6796875
vt 0.15625 0.6319602380663925
vt 0.1466507160471477 0.6333904184461837
vt 0.140625 0.6120996054097598
vt 0.15625 0.609375
vt 0.25703125 0.99143515625
vt 0.24957265625 1
vt 0.2480578125 0.9967953125
vt 0.25398671875 0.9899875
vt 0.33243359375 0.8203125
vt 0.3515625 0.8203125
vt 0.3464203125 0.84375
vt 0.33508125 0.84344140625
vt 0.3880484375 0.9988765625
vt 0.37902109375 0.9988765625
vt 0.37544296875 0.9765625
vt 0.390625 0.97691328125
vt 0.23480234375 1
vt 0.22734375 0.99143515625
vt 0.23038828125 0.9899875
vt 0.2363171875 0.9967953125
vt 0.297296875 0.8046875
vt 0.319890625 0.8046875
vt 0.31565390625 0.828125
vt 0.30153359375 0.828125
vt 0.36108125 1
vt 0.34985625 1
vt 0.3464890625 0.9765625
vt 0.3644484375 0.9765625
vt 0.22734375 0.99143515625
vt 0.22734375 0.97731484375
vt 0.23038828125 0.9787625
vt 0.23038828125 0.9899875
vt 0.109375 0.6796875
vt 0.1135037844484424 0.6610094863663293
vt 0.13535813585979142 0.6685519733346699
vt 0.13319906343458554 0.6796875
vt 0.21875 0.6319602380663925
vt 0.2091507160471477 0.6333904184461837
vt 0.203125 0.6120996054097598
vt 0.21875 0.609375
vt 0.22734375 0.97731484375
vt 0.23480234375 0.96875
vt 0.2363171875 0.9719546875
vt 0.23038828125 0.9787625
vt 0.27584609375 0.9453125
vt 0.30227890625 0.9453125
vt 0.29644765625 0.96875
vt 0.28167734375 0.96875
vt 0.0605578125 0.86871328125
vt 0.0488171875 0.86871328125
vt 0.04418203125 0.8470765625
vt 0.06519296875 0.8470765625
vt 0.23480234375 0.96875
vt 0.24957265625 0.96875
vt 0.2480578125 0.9719546875
vt 0.2363171875 0.9719546875
vt 0.18075859375 0.8234234375
vt 0.18655859375 0.8234234375
vt 0.1953125 0.8437453125000001
vt 0.191771875 0.84375
vt 0.1754203125 0.9766112233867488
vt 0.171875 0.9766112233867488
vt 0.18059296875 0.9562737233867489
vt 0.1863875 0.9562612233867488
vt 0.109375 0.8132235274123443
vt 0.125 0.8125
vt 0.125 0.8471257181449809
vt 0.11214197225709802 0.8477299605694487
vt 0.07894999999999999 0.81683515625
vt 0.1015625 0.81683515625
vt 0.09983203125000001 0.85155
vt 0.08070390625 0.8515625
vt 0.040117968749999997 0.8828125
vt 0.061444531250000003 0.8828125
vt 0.0597609375 0.9140625
vt 0.0418015625 0.9140625
vt 0.08814765625 0.9653070312500001
vt 0.11497734375 0.9653070312500001
vt 0.112859375 1
vt 0.090265625 1
vt 0.265625 0.994522932430306
vt 0.26634852741234427 0.9765625
vt 0.3008549605694487 0.979329472257098
vt 0.30025071814498094 0.994522932430306
vt 0.17552421875 0.7890484375
vt 0.18239765624999998 0.7890484375
vt 0.18655859375 0.8234234375
vt 0.18075859375 0.8234234375
vt 0.1484375 0.90277265625
vt 0.17105 0.90277265625
vt 0.16929609375 0.9375
vt 0.15016796875 0.9374875
vt 0.25 0.6804110274123443
vt 0.265625 0.6796875
vt 0.265625 0.7143132181449809
vt 0.252766972257098 0.7149174605694487
vt 0.1336375 0.82464765625
vt 0.15625 0.82464765625
vt 0.15451953125 0.8593625
vt 0.13539140625 0.859375
vt 0.1846797427704207 0.9218898273889867
vt 0.19155316427756997 0.921875
vt 0.18639295525478247 0.9562612116186382
vt 0.18059296875 0.9562737233867489
vt 0.25105546875 0.7265625
vt 0.27238203125 0.7265625
vt 0.2706984375 0.7578125
vt 0.2527390625 0.7578125
vt 0.12721015625 0.9653070312500001
vt 0.15403984375000002 0.9653070312500001
vt 0.15192187499999998 1
vt 0.129328125 1
vt 0.171875 0.728897932430306
vt 0.17259852741234427 0.7109375
vt 0.2071049605694487 0.713704472257098
vt 0.20650071814498097 0.728897932430306
vt 0 0.80902265625
vt 0.0226125 0.80902265625
vt 0.02085859375 0.84375
vt 0.0017304687500000002 0.8437375
vt 0.042328125 0.8125
vt 0.067046875 0.8125
vt 0.06519296875 0.8470765625
vt 0.04418203125 0.8470765625
vt 0.00007656250000000024 0.8793695312500001
vt 0.031173437499999998 0.8793695312500001
vt 0.02884140625 0.9140625
vt 0.00240859375 0.9140625
vt 0.07718387441371098 0.640625
vt 0.09375 0.6610345646990285
vt 0.07718387441371098 0.6680105311596203
vt 0.1875 0.5625
vt 0.21488551236021422 0.5625
vt 0.21254329750359402 0.5690699813215433
vt 0.1431515625 0.8023148437500001
vt 0.15625 0.82464765625
vt 0.1336375 0.82464765625
vt 0.4375 0.546875
vt 0.4437623812610217 0.5703287906615477
vt 0.4375 0.5731619380294075
vt 0.32558570365471795 0.65625
vt 0.3515625 0.65625
vt 0.34511966927761584 0.6730306602159362
vt 0.4296875 0.6015625
vt 0.4554393228126443 0.6015625
vt 0.4532401103188032 0.6081817212084907
vt 0.090428125 0.7950507812500001
vt 0.1015625 0.81683515625
vt 0.07894999999999999 0.81683515625
vt 0.3671875 0.53125
vt 0.373690028840887 0.5549993856858585
vt 0.3671875 0.5572267746819342
vt 0.2578125 0.65625
vt 0.2851980311596202 0.65625
vt 0.27822206469902855 0.672816125586289
vt 0.45027556197059243 0.9296875
vt 0.4765625 0.9296875
vt 0.4737293526321402 0.9359498812610216
vt 0.1615359375 0.8804398437500001
vt 0.17105 0.90277265625
vt 0.1484375 0.90277265625
vt 0.1262425186784567 0.5390625
vt 0.1328125 0.564105797503594
vt 0.1262425186784567 0.5664480123602142
vt 0.1796875 0.8828125
vt 0.19646816021593616 0.9023464656228979
vt 0.1796875 0.908789296345282
vt 0.44277322531806584 0.828125
vt 0.46875 0.828125
vt 0.4665226110039243 0.834627528840887
vt 0.011134375 0.7872382812500001
vt 0.0226125 0.80902265625
vt 0 0.80902265625
vt 0.0324432787915093 0.53125
vt 0.0390625 0.5548026103188032
vt 0.032443278791509295 0.5570018228126443
vt 0.31467228935123404 0.96875
vt 0.333765210648766 0.9862453575874397
vt 0.314672289351234 0.9957470745055895
vt 0.142340625 0.546875
vt 0.1484375 0.57317421875
vt 0.1414625 0.57317421875
vt 0.13926015625 0.9435359375
vt 0.15403984375000002 0.9653070312500001
vt 0.12721015625 0.9653070312500001
vt 0.34291227820994874 0.5390625
vt 0.3429122782099487 0.5639461037452689
vt 0.3359375 0.564001726780287
vt 0.2819720534867433 0.75
vt 0.3039654465132567 0.7657936907869718
vt 0.2819720534867433 0.7770767428892983
vt 0.421875 0.78125
vt 0.4489519353933907 0.78125
vt 0.4477903805136156 0.7880245799373597
vt 0.015625 0.8575578125000001
vt 0.031173437499999998 0.8793695312500001
vt 0.00007656250000000024 0.8793695312500001
vt 0.39947542006264025 0.546875
vt 0.40625 0.5727903805136156
vt 0.39947542006264025 0.5739519353933906
vt 0.31462646274720524 0.8515625
vt 0.34162353725279476 0.8515625
vt 0.3321218203346449 0.8706554212975319
vt 0.4350413117963944 0.6875
vt 0.4609375 0.6875
vt 0.45900537291746923 0.6942020526659338
vt 0.10292734375 0.9435359375
vt 0.11497734375 0.9653070312500001
vt 0.08814765625 0.9653070312500001
vt 0.15625 0.546875
vt 0.16304480007003033 0.5722964614525659
vt 0.15625 0.5738716811224265
vn 0.6253581919049803 0.4878088036551438 0.609072822324122
vn -0.6864939219195577 -0.4139265661494027 -0.5978217903382815
vn 0 1 0
vn 0.8661855860486005 0.49972245348957706 0
vn -0.9089758651428683 -0.4168487454554402 0
vn 0 1 0
vn 0.633581317020175 0.46667415017646013 -0.6170818035561082
vn -0.69702437095282 -0.38172983876012084 0.606992056371414
vn 0 1 0
vn -0.6253581919049802 0.48780880365514384 -0.6090728223241221
vn 0.6864939219195574 -0.4139265661494029 0.5978217903382819
vn 0 1 0
vn -0.8661855860486006 0.49972245348957706 0
vn 0.9089758651428682 -0.4168487454554404 4.2143706606386515e-16
vn 0 1 0
vn -0.6335813170201751 0.4666741501764606 0.6170818035561079
vn 0.6970243709528199 -0.38172983876012134 -0.6069920563714138
vn 0 1 0
vn -2.3835469174055307e-16 0.4190581774617467 0.9079593845004518
vn 2.774110378809144e-16 -0.3444256628168994 -0.9388135932085452
vn 0 1 0
vn -0.8836641669324934 -0.030243961123105123 -0.4671433857982867
vn 0.9029864324827633 -0.049448444475918646 -0.4268141915294806
vn -0.6952308684451391 -0.28817533640895543 -0.6584899506041099
vn 0.6836642288934788 0.33660391775856 0.6475345741202347
vn -0.9742000614764432 -0.22568615424809368 0
vn 0.9600585825850824 0.27979906719773523 0
vn -0.7131237092448869 -0.18772094867635716 0.6754372071043042
vn -0.8890335788318339 -0.026969361883280276 -0.45704698798818294
vn 0.7024005038524394 0.2530516417070749 -0.6652806917513792
vn 0.7123011758951275 -0.19355471043833286 0.6746581422361637
vn -0.7037185017161692 0.2460067332426605 -0.6665290372831663
vn 0.8890781900373534 -0.02504112784078214 -0.4570699223492673
vn 0.9742000614764432 -0.22568615424809368 2.6579299196189754e-16
vn -0.9600585825850823 0.2797990671977352 0
vn 0.6964048280760129 -0.2827466863709713 -0.6596018699023333
vn -0.6819711370417847 0.34305767262374864 0.6459309572205937
vn 0 -0.3012585463931183 -0.9535424941894859
vn -3.56616340968823e-16 0.3535908866818186 0.9354001736452509
vn 0.4411309279993052 -0.7942488578732613 0.41781844876631746
vn -0.2867929117714167 -0.6983483823600464 0.6557891144360197
vn -0.5284811515506103 0.6856784222441306 -0.5005524685030941
vn 0.6778095302641486 -0.6474189592811807 -0.348457934113097
vn -0.45742255726491243 -0.7765692564877994 -0.4332491130783934
vn 0.30135778970920785 -0.659039833819449 -0.6890935930777575
vn 0.5484624952534416 0.6552340404499518 0.5194778566368344
vn -0.661351677430576 -0.6685925263326981 0.33999704776927664
vn -0.4411309279993055 -0.7942488578732613 0.4178184487663172
vn -0.6778095302641486 -0.6474189592811805 -0.34845793411309717
vn 0.5284811515506102 0.6856784222441307 -0.5005524685030938
vn 0.28679291177141547 -0.6983483823600469 0.6557891144360197
vn 0.4574225572649125 -0.7765692564877996 -0.4332491130783932
vn 0.661351677430576 -0.6685925263326978 0.33999704776927725
vn -0.5484624952534417 0.655234040449952 0.519477856636834
vn -0.30135778970920774 -0.6590398338194488 -0.6890935930777577
vn 0.6369495008748142 -0.7709055281520074 1.2872609843804497e-16
vn 0.25792892764550085 -0.7652600384644861 0.5897878786589084
vn -0.760206759091112 0.6496812167764958 0
vn 0.2999371906433528 -0.6630641223619315 -0.6858452094353176
vn 0 -0.7717350354514961 -0.6359442075030467
vn 0.5793136475467945 -0.7587475789866908 -0.2978217741332293
vn -2.6641693867152733e-16 0.6560551652586548 0.7547129388962662
vn -0.5793136475467944 -0.7587475789866905 -0.2978217741332294
vn -0.6369495008748142 -0.7709055281520074 0
vn -0.2999371906433519 -0.6630641223619308 -0.6858452094353186
vn 0.7602067590911122 0.6496812167764957 0
vn -0.2579289276455008 -0.7652600384644862 0.5897878786589086
usemtl m_ff70f691-bde8-f186-4486-f40bb40d341f
f 49/177/45 53/178/45 54/179/45 50/180/45
f 52/181/46 56/182/46 55/183/46 51/184/46
f 50/185/47 54/186/47 56/187/47 52/188/47
f 53/189/48 57/190/48 58/191/48 54/192/48
f 56/193/49 60/194/49 59/195/49 55/196/49
f 54/197/50 58/198/50 60/199/50 56/200/50
f 57/201/51 61/202/51 62/203/51 58/204/51
f 60/205/52 64/206/52 63/207/52 59/208/52
f 58/209/53 62/210/53 64/211/53 60/212/53
f 65/213/54 69/214/54 70/215/54 66/216/54
f 68/217/55 72/218/55 71/219/55 67/220/55
f 66/221/56 70/222/56 72/223/56 68/224/56
f 69/225/57 73/226/57 74/227/57 70/228/57
f 72/229/58 76/230/58 75/231/58 71/232/58
f 70/233/59 74/234/59 76/235/59 72/236/59
f 73/237/60 77/238/60 78/239/60 74/240/60
f 76/241/61 80/242/61 79/243/61 75/244/61
f 74/245/62 78/246/62 80/247/62 76/248/62
f 77/249/63 49/250/63 50/251/63 78/252/63
f 80/253/64 52/254/64 51/255/64 79/256/64
f 78/257/65 50/258/65 52/259/65 80/260/65
f 61/261/66 63/262/66 64/263/66 62/264/66
f 66/265/67 68/266/67 67/267/67 65/268/67
f 84/269/68 82/270/68 51/271/68 55/272/68
f 81/273/69 83/274/69 53/275/69 49/276/69
f 86/277/70 84/278/70 55/279/70 59/280/70
f 83/281/71 85/282/71 57/283/71 53/284/71
f 88/285/72 86/286/72 59/287/72 63/288/72
f 87/289/73 88/290/73 63/291/73 61/292/73
f 85/293/74 87/294/74 61/295/74 57/296/74
f 92/297/75 90/298/75 67/299/75 71/300/75
f 89/301/76 91/302/76 69/303/76 65/304/76
f 90/305/77 89/306/77 65/307/77 67/308/77
f 94/309/78 92/310/78 71/311/78 75/312/78
f 91/313/79 93/314/79 73/315/79 69/316/79
f 96/317/80 94/318/80 75/319/80 79/320/80
f 93/321/81 95/322/81 77/323/81 73/324/81
f 82/325/82 96/326/82 79/327/82 51/328/82
f 95/329/83 81/330/83 49/331/83 77/332/83
f 97/333/84 90/334/84 92/335/84
f 97/336/85 92/337/85 91/338/85
f 97/339/86 91/340/86 89/341/86
f 97/342/87 89/343/87 90/344/87
f 98/345/88 82/346/88 84/347/88
f 98/348/89 84/349/89 83/350/89
f 98/351/90 83/352/90 81/353/90
f 98/354/91 81/355/91 82/356/91
f 99/357/92 86/358/92 88/359/92
f 99/360/93 88/361/93 87/362/93
f 99/363/94 87/364/94 85/365/94
f 99/366/95 85/367/95 86/368/95
f 100/369/96 94/370/96 96/371/96
f 100/372/97 96/373/97 95/374/97
f 100/375/98 95/376/98 93/377/98
f 100/378/99 93/379/99 94/380/99
f 101/381/100 92/382/100 94/383/100
f 101/384/101 94/385/101 93/386/101
f 101/387/102 93/388/102 91/389/102
f 101/390/103 91/391/103 92/392/103
f 102/393/104 96/394/104 82/395/104
f 102/396/105 82/397/105 81/398/105
f 102/399/106 81/400/106 95/401/106
f 102/402/107 95/403/107 96/404/107
f 103/405/108 84/406/108 86/407/108
f 103/408/109 86/409/109 85/410/109
f 103/411/110 85/412/110 83/413/110
f 103/414/111 83/415/111 84/416/111
o cuboid
v 0.1687499999999998 1.1023003805000884 0.11249999999999981
v 0.1687499999999998 1.1023003805000884 -0.11250000000000011
v 0.1687499999999998 0.914800380500088 0.11249999999999981
v 0.1687499999999998 0.914800380500088 -0.11250000000000011
v -0.16875000000000012 1.1023003805000884 0.11249999999999981
v -0.16875000000000012 1.1023003805000884 -0.11250000000000011
v -0.16875000000000012 0.914800380500088 0.11249999999999981
v -0.16875000000000012 0.914800380500088 -0.11250000000000011
v -1.5565877800344583e-16 1.1023003805000884 -0.15625000000000014
v -1.5565877800344583e-16 0.914800380500088 -0.15625000000000014
v -1.5565877800344583e-16 0.914800380500088 0.1562499999999998
v -1.5565877800344583e-16 1.1023003805000884 0.1562499999999998
v 0.12499999999999979 0.8773003805000881 0.08999999999999983
v 0.12499999999999979 0.8773003805000881 -0.09000000000000014
v -0.1250000000000001 0.8773003805000881 0.08999999999999983
v -0.1250000000000001 0.8773003805000881 -0.09000000000000014
v -1.5565877800344583e-16 0.8773003805000881 -0.12500000000000014
v -1.5565877800344583e-16 0.8773003805000881 0.12499999999999983
v 0.12499999999999979 0.8398003805000881 0.08999999999999983
v 0.12499999999999979 0.8398003805000881 -0.09000000000000014
v -0.1250000000000001 0.8398003805000881 0.08999999999999983
v -0.1250000000000001 0.8398003805000881 -0.09000000000000014
v -1.5565877800344583e-16 0.8398003805000881 -0.12500000000000014
v -1.5565877800344583e-16 0.8398003805000881 0.12499999999999983
v 0.1265624999999998 1.1023003805000884 0.07424999999999983
v 0.1265624999999998 1.1023003805000884 -0.07425000000000014
v -0.12656250000000013 1.1023003805000884 0.07424999999999983
v -0.12656250000000013 1.1023003805000884 -0.07425000000000014
v -1.5565877800344583e-16 1.1023003805000884 -0.10312500000000013
v -1.5565877800344583e-16 1.1023003805000884 0.10312499999999983
v 0.2976562499999998 1.2835503805000883 0.006249999999999877
v -0.2976562500000001 1.2835503805000883 0.006249999999999877
v -0.14882812500000014 1.2835503805000883 0.26153124999999977
v 0.1488281249999998 1.2835503805000883 0.26153124999999977
v -0.12112913273558018 1.108209197002659 -1.5642976621499151e-16
v -0.09531250000000012 1.0773003805000885 0.051749999999999824
v -1.5565877800344583e-16 1.0773003805000885 0.07187499999999983
v -1.5565877800344583e-16 1.0773003805000885 -0.07187500000000013
v -0.09531250000000012 1.0773003805000885 -0.05175000000000014
v 0.09531249999999981 1.0773003805000885 -0.05175000000000014
v 0.09531249999999981 1.0773003805000885 0.051749999999999824
v 0.0812499999999998 0.7773003805000881 0.05849999999999984
v -1.5565877800344583e-16 0.7773003805000881 -0.08125000000000014
v -1.5565877800344583e-16 0.7773003805000881 0.08124999999999984
v 0.0812499999999998 0.7773003805000881 -0.058500000000000156
v -0.0812500000000001 0.7773003805000881 -0.058500000000000156
v -0.0812500000000001 0.7773003805000881 0.05849999999999984
vt 0.265625 0.9609375
vt 0.234375 0.9609375
vt 0.234375 0.9375
vt 0.265625 0.9375
vt 0.265625 0.90625
vt 0.265625 0.9296875
vt 0.234375 0.9296875
vt 0.234375 0.90625
vt 0.3556640625 0.708421875
vt 0.34375 0.7109375
vt 0.34375 0.69296875
vt 0.3556640625 0.6954843749999999
vt 0.365625 0.93153125
vt 0.35546875 0.934375
vt 0.35546875 0.9140625
vt 0.365625 0.91690625
vt 0.0234375 0.7109375
vt 0 0.7109375
vt 0 0.6875
vt 0.0234375 0.6875
vt 0.21875 0.6875
vt 0.2421875 0.6875
vt 0.2421875 0.7109375
vt 0.21875 0.7109375
vt 0.296875 0.7109375
vt 0.2734375 0.7109375
vt 0.2734375 0.6875
vt 0.296875 0.6875
vt 0.3453125 0.91690625
vt 0.35546875 0.9140625
vt 0.35546875 0.934375
vt 0.3453125 0.93153125
vt 0.078125 0.6796875
vt 0.1015625 0.6796875
vt 0.1015625 0.703125
vt 0.078125 0.703125
vt 0.3318359375 0.6954843749999999
vt 0.34375 0.69296875
vt 0.34375 0.7109375
vt 0.3318359375 0.708421875
vt 0.432390625 0.5859375
vt 0.4486171875 0.5859375
vt 0.453125 0.59375
vt 0.4313375 0.59346953125
vt 0.09375 0.7828305813217296
vt 0.09394665000532733 0.7603552104679767
vt 0.1015625 0.7601562500000001
vt 0.1015625 0.78272660014787
vt 0.410625 0.734375
vt 0.433125 0.734375
vt 0.4359375 0.7421875
vt 0.4078125 0.7421875
vt 0.43746874999999996 0.84375
vt 0.46033593750000007 0.84375
vt 0.4603515625 0.8515625
vt 0.43758749999999996 0.85128203125
vt 0.046875 0.5562680813217296
vt 0.04707165000532733 0.5400427104679767
vt 0.0546875 0.5390625
vt 0.0546875 0.5608516001478699
vt 0.410625 0.71875
vt 0.433125 0.71875
vt 0.4359375 0.7265625
vt 0.4078125 0.7265625
vt 0.1796875 0.6640625
vt 0.1953125 0.6640625
vt 0.1953125 0.671875
vt 0.1796875 0.671875
vt 0.296875 0.65625
vt 0.3125 0.65625
vt 0.3125 0.6640625
vt 0.296875 0.6640625
vt 0.234375 0.8515625
vt 0.2578125 0.8515625
vt 0.2578125 0.859375
vt 0.234375 0.859375
vt 0.4609375 0.7890625
vt 0.4765625 0.7890625
vt 0.4765625 0.796875
vt 0.4609375 0.796875
vt 0.2734375 0.53125
vt 0.2890625 0.53125
vt 0.2890625 0.5390625
vt 0.2734375 0.5390625
vt 0.421875 0.6640625
vt 0.4453125 0.6640625
vt 0.4453125 0.671875
vt 0.421875 0.671875
vt 0.3359375 0.727734375
vt 0.3517578125 0.724125
vt 0.35703125 0.72890625
vt 0.3359375 0.734375
vt 0.3201171875 0.724125
vt 0.3359375 0.727734375
vt 0.3359375 0.734375
vt 0.31484375 0.72890625
vt 0.23125 0.7578125
vt 0.2211875 0.72665625
vt 0.23975 0.72665625
vt 0.4385446183389311 0.7109375
vt 0.40625 0.7109375
vt 0.4084836899539643 0.7041790898085767
vt 0.2545925762545166 0.7971410878204117
vt 0.22978242374548338 0.7788715828604404
vt 0.2545925762545166 0.765625
vt 0.0078125 0.59375
vt 0.0009740195532461256 0.5629847711784544
vt 0.007812499999999995 0.56100976122776
vt 0.096875 0.75
vt 0.088375 0.71884375
vt 0.10693749999999999 0.71884375
vt 0.4389902387722399 0.8671875
vt 0.40625 0.8671875
vt 0.40822500995069433 0.8603490195532462
vt 0.26185179391020585 0.8373101525090332
vt 0.23033570608979412 0.8373101525090332
vt 0.2435822889502345 0.8125
vt 0.1015625 0.59375
vt 0.09480408980857659 0.5636890716150331
vt 0.10156249999999999 0.5614553816610689
vt 0.2875664229950618 0.9375
vt 0.2734375 0.905068139868315
vt 0.2896628585737392 0.9048704792500968
vt 0.0546875 0.578125
vt 0.02199086042866466 0.578125
vt 0.025862810236786257 0.5721522716611783
vt 0.2850005862320823 0.8211959437810284
vt 0.265625 0.7990350645906998
vt 0.2850005862320823 0.7890625
vt 0.08478273224861654 0.578125
vt 0.07927976775138344 0.5464656733582782
vt 0.08478273224861656 0.5427487818972834
vt 0.14992264808897435 0.7265625
vt 0.1478372089603744 0.6939322745924915
vt 0.1640625 0.6941354032360925
vt 0.4590943590513583 0.890625
vt 0.4237181409486417 0.890625
vt 0.4274350324096366 0.8851220355027669
vt 0.3046875 0.8553130862320824
vt 0.27255405621897155 0.8553130862320824
vt 0.28252662080967145 0.8359375
vt 0.06847272833882169 0.5859375
vt 0.0625 0.5571128102367863
vt 0.06847272833882168 0.5532408604286647
vt 0.2742448898237392 0.9001337605000969
vt 0.28642145232373917 0.9001337605000969
vt 0.2896628585737392 0.9048704792500968
vt 0.2734378585737392 0.9050681355000968
vt 0.23701640625 0.5390625
vt 0.24919296875 0.5390625
vt 0.25 0.546875
vt 0.233775 0.546671875
vt 0.0911875 0.713840625
vt 0.104125 0.713840625
vt 0.10693749999999999 0.71884375
vt 0.088375 0.71884375
vt 0 0.5460079215276197
vt 0.00014832635510589331 0.533832262465015
vt 0.0078125 0.5306487961003454
vt 0.0078125 0.546875
vt 0.15107890625 0.6891986844860924
vt 0.16325546875 0.6891986844860924
vt 0.1640625 0.6941354032360925
vt 0.1478375 0.6939322782360924
vt 0.224 0.721653125
vt 0.2369375 0.721653125
vt 0.23975 0.72665625
vt 0.2211875 0.72665625
vt 0.4618109375 0.9609375
vt 0.4723578125 0.9609375
vt 0.4765625 0.96875
vt 0.4603359375 0.96875
vt 0.4573296875 0.9453125
vt 0.4678765625 0.9453125
vt 0.4693515625 0.953125
vt 0.453125 0.953125
vt 0.27784375 0.5625
vt 0.29246875 0.5625
vt 0.29640625 0.5703125
vt 0.27390625 0.5703125
vt 0.1024359375 0.5390625
vt 0.1129828125 0.5390625
vt 0.1171875 0.546875
vt 0.1009609375 0.546875
vt 0.4573296875 0.8671875
vt 0.4678765625 0.8671875
vt 0.4693515625 0.875
vt 0.453125 0.875
vt 0.30909375 0.5625
vt 0.32371875 0.5625
vt 0.32765625 0.5703125
vt 0.30515625 0.5703125
vn 1 0 0
vn -1 0 0
vn 0 1 0
vn 0 -1 0
vn 0.2509621587837263 0 0.967996898165801
vn 0.2509621587837263 0 -0.967996898165801
vn -0.2509621587837263 0 -0.967996898165801
vn 0 -1 0
vn -0.2509621587837263 0 0.967996898165801
vn 0 1 0
vn 0.20117812920298067 -0.6658038085527208 0.7184933185820734
vn 0.21029198282998854 -0.6258689965178221 -0.7510427958213873
vn 0.6507913734559686 -0.7592566023652965 0
vn -0.20117812920298067 -0.6658038085527208 -0.7184933185820734
vn -0.21029198282998854 -0.6258689965178221 0.7510427958213873
vn -0.6507913734559686 -0.7592566023652965 0
vn 0.269629925519971 0 0.9629640197141818
vn 0.269629925519971 0 -0.9629640197141818
vn 1 0 0
vn -0.269629925519971 0 -0.9629640197141818
vn -0.269629925519971 0 0.9629640197141818
vn -1 0 0
vn 0 1 0
vn 0 1 0
vn -0.7271869799893227 0.6864394336968183 0
vn -0.4962924180982409 0.673845309055802 0.5473813434907072
vn 0.8149184575391011 -0.5795756271291027 0
vn -0.4838019870130543 0.6936866725554831 -0.5336051327349867
vn 0.7271869799893227 0.6864394336968183 0
vn 0.4838019870130543 0.6936866725554831 -0.5336051327349867
vn -0.8149184575391011 -0.5795756271291027 0
vn 0.4962924180982409 0.673845309055802 0.5473813434907072
vn 0.1545776293613958 0.7190663345237348 -0.6775318170061178
vn -0.5546697554985364 0.5639869135365129 -0.611768112682209
vn -0.19900398523703516 -0.6092683464767513 0.7675868001999924
vn 0.7728429483195206 0.6345973347192618 0
vn -0.1545776293613958 0.7190663345237348 -0.6775318170061178
vn -0.7728429483195206 0.6345973347192618 0
vn 0.19900398523703516 -0.6092683464767513 0.7675868001999924
vn 0.5546697554985364 0.5639869135365129 -0.611768112682209
vn 0.13631427580895072 0.751421861990333 -0.6455877969212725
vn 0.1307701360250239 0.7741632664524892 0.6193306131619919
vn 0.6246950475544246 0.7808688094430302 0
vn -0.13631427580895072 0.751421861990333 0.6455877969212725
vn -0.1307701360250239 0.7741632664524892 -0.6193306131619919
vn -0.6246950475544246 0.7808688094430302 0
vn 0.2235782819304727 -0.5589457048261814 0.7984938640374022
vn 0.2235782819304727 -0.5589457048261816 -0.7984938640374022
vn 0.8192319205190405 -0.5734623443633284 0
vn -0.2235782819304727 -0.5589457048261814 -0.7984938640374022
vn -0.2235782819304727 -0.5589457048261816 0.7984938640374022
vn -0.8192319205190405 -0.5734623443633284 0
usemtl m_ff70f691-bde8-f186-4486-f40bb40d341f
f 105/417/112 104/418/112 106/419/112 107/420/112
f 110/421/113 108/422/113 109/423/113 111/424/113
f 143/425/114 141/426/114 140/427/114 144/428/114
f 145/429/115 147/430/115 146/431/115 148/432/115
f 104/433/116 115/434/116 114/435/116 106/436/116
f 107/437/117 113/438/117 112/439/117 105/440/117
f 109/441/118 112/442/118 113/443/118 111/444/118
f 149/445/119 146/446/119 147/447/119 150/448/119
f 110/449/120 114/450/120 115/451/120 108/452/120
f 139/453/121 140/454/121 141/455/121 142/456/121
f 121/457/122 116/458/122 106/459/122 114/460/122
f 117/461/123 120/462/123 113/463/123 107/464/123
f 116/465/124 117/466/124 107/467/124 106/468/124
f 120/469/125 119/470/125 111/471/125 113/472/125
f 118/473/126 121/474/126 114/475/126 110/476/126
f 119/477/127 118/478/127 110/479/127 111/480/127
f 127/481/128 122/482/128 116/483/128 121/484/128
f 123/485/129 126/486/129 120/487/129 117/488/129
f 122/489/130 123/490/130 117/491/130 116/492/130
f 126/493/131 125/494/131 119/495/131 120/496/131
f 124/497/132 127/498/132 121/499/132 118/500/132
f 125/501/133 124/502/133 118/503/133 119/504/133
f 132/505/134 129/506/134 105/507/134 112/508/134
f 131/509/135 132/510/135 112/511/135 109/512/135
f 134/513/136 129/514/136 128/515/136
f 134/516/137 128/517/137 104/518/137
f 134/519/138 104/520/138 105/521/138
f 134/522/139 105/523/139 129/524/139
f 135/525/140 130/526/140 131/527/140
f 135/528/141 131/529/141 109/530/141
f 135/531/142 109/532/142 108/533/142
f 135/534/143 108/535/143 130/536/143
f 136/537/144 133/538/144 130/539/144
f 136/540/145 130/541/145 108/542/145
f 136/543/146 108/544/146 115/545/146
f 136/546/147 115/547/147 133/548/147
f 137/549/148 128/550/148 133/551/148
f 137/552/149 133/553/149 115/554/149
f 137/555/150 115/556/150 104/557/150
f 137/558/151 104/559/151 128/560/151
f 140/561/152 139/562/152 130/563/152 133/564/152
f 142/565/153 141/566/153 132/567/153 131/568/153
f 139/569/154 142/570/154 131/571/154 130/572/154
f 141/573/155 143/574/155 129/575/155 132/576/155
f 144/577/156 140/578/156 133/579/156 128/580/156
f 143/581/157 144/582/157 128/583/157 129/584/157
f 147/585/158 145/586/158 122/587/158 127/588/158
f 148/589/159 146/590/159 126/591/159 123/592/159
f 145/593/160 148/594/160 123/595/160 122/596/160
f 146/597/161 149/598/161 125/599/161 126/600/161
f 150/601/162 147/602/162 127/603/162 124/604/162
f 149/605/163 150/606/163 124/607/163 125/608/163