# Made in Blockbench 5.1.5
mtllib WiccanLeftArm.mtl

o cuboid
v -0.8250000000000001 1.0687500000000014 -0.11718749999999994
v -0.8250000000000001 0.9437500000000018 -0.11718749999999994
v -0.85 1.018750000000002 -0.11718749999999994
v -0.7250000000000001 1.018750000000002 -0.11718749999999994
v -0.7250000000000001 1.0687500000000014 -0.11718749999999994
v -0.7250000000000001 0.9437500000000018 -0.11718749999999994
v -0.85 1.018750000000002 -0.042187500000000024
v -0.8250000000000001 0.9437500000000018 -0.042187500000000024
v -0.8250000000000001 1.0687500000000014 -0.042187500000000024
v -0.6250000000000001 0.9062500000000014 -0.14843749999999997
v -0.7250000000000001 0.9062500000000014 -0.14843749999999997
v -0.6250000000000001 0.9062500000000017 -0.042187500000000024
v -0.6812500000000001 1.0687500000000014 -0.11718749999999994
v -0.6812500000000001 1.018750000000002 -0.11718749999999994
v -0.6812500000000001 0.9062500000000014 -0.14843749999999997
v -0.6812500000000001 0.9062500000000017 -0.042187500000000024
v -0.7250000000000001 0.9187500000000016 -0.11718749999999994
v -0.8171875000000001 0.9187500000000016 -0.042187500000000024
v -0.8171875000000001 0.9187500000000016 -0.11718749999999994
v -0.8250000000000001 1.0687500000000014 0.10937499999999997
v -0.8250000000000001 0.9437500000000018 0.10937499999999997
v -0.6250000000000001 1.0687500000000014 0.08437499999999995
v -0.6250000000000001 1.0687500000000014 -0.11718749999999994
v -0.6250000000000001 0.9437500000000018 0.08437499999999995
v -0.6250000000000001 0.9437500000000018 -0.11718749999999994
v -0.6250000000000001 1.018750000000002 -0.11718749999999994
v -0.85 1.018750000000002 0.10937499999999997
v -0.6250000000000001 1.018750000000002 0.08437499999999995
v -0.7250000000000001 1.0687500000000014 0.10937499999999997
v -0.7250000000000001 1.018750000000002 0.10937499999999997
v -0.7250000000000001 0.9437500000000018 0.10937499999999997
v -0.7250000000000001 0.9437500000000018 -0.042187500000000024
v -0.6250000000000001 0.9437500000000018 -0.042187500000000024
v -0.6250000000000001 1.018750000000002 -0.042187500000000024
v -0.6250000000000001 1.0687500000000014 -0.042187500000000024
v -0.7250000000000001 1.0687500000000014 -0.042187500000000024
v -0.7250000000000001 0.9062500000000017 -0.042187500000000024
v -0.6812500000000001 0.9437500000000018 -0.042187500000000024
v -0.6812500000000001 0.9437500000000018 0.10937499999999997
v -0.6812500000000001 1.018750000000002 0.10937499999999997
v -0.6812500000000001 1.0687500000000014 0.10937499999999997
v -0.6812500000000001 1.0687500000000014 -0.042187500000000024
v -0.7250000000000001 0.9187500000000016 -0.042187500000000024
v -0.8171875000000001 0.9187500000000016 0.10937499999999997
v -0.7250000000000001 0.9187500000000016 0.10937499999999997
v -0.6812500000000001 0.9187500000000016 -0.042187500000000024
v -0.6812500000000001 0.9187500000000016 0.10937499999999997
v 0.8250000000000001 1.0687500000000014 -0.11718749999999994
v 0.8250000000000001 0.9437500000000018 -0.11718749999999994
v 0.85 1.018750000000002 -0.11718749999999994
v 0.7250000000000001 1.018750000000002 -0.11718749999999994
v 0.7250000000000001 1.0687500000000014 -0.11718749999999994
v 0.7250000000000001 0.9437500000000018 -0.11718749999999994
v 0.85 1.018750000000002 -0.042187500000000024
v 0.8250000000000001 0.9437500000000018 -0.042187500000000024
v 0.8250000000000001 1.0687500000000014 -0.042187500000000024
v 0.6250000000000001 0.9062500000000014 -0.14843749999999997
v 0.7250000000000001 0.9062500000000014 -0.14843749999999997
v 0.6250000000000001 0.9062500000000017 -0.042187500000000024
v 0.6812500000000001 1.0687500000000014 -0.11718749999999994
v 0.6812500000000001 1.018750000000002 -0.11718749999999994
v 0.6812500000000001 0.9062500000000014 -0.14843749999999997
v 0.6812500000000001 0.9062500000000017 -0.042187500000000024
v 0.7250000000000001 0.9187500000000016 -0.11718749999999994
v 0.8171875000000001 0.9187500000000016 -0.042187500000000024
v 0.8171875000000001 0.9187500000000016 -0.11718749999999994
v 0.8250000000000001 1.0687500000000014 0.10937499999999997
v 0.8250000000000001 0.9437500000000018 0.10937499999999997
v 0.6250000000000001 1.0687500000000014 0.08437499999999995
v 0.6250000000000001 1.0687500000000014 -0.11718749999999994
v 0.6250000000000001 0.9437500000000018 0.08437499999999995
v 0.6250000000000001 0.9437500000000018 -0.11718749999999994
v 0.6250000000000001 1.018750000000002 -0.11718749999999994
v 0.85 1.018750000000002 0.10937499999999997
v 0.6250000000000001 1.018750000000002 0.08437499999999995
v 0.7250000000000001 1.0687500000000014 0.10937499999999997
v 0.7250000000000001 1.018750000000002 0.10937499999999997
v 0.7250000000000001 0.9437500000000018 0.10937499999999997
v 0.7250000000000001 0.9437500000000018 -0.042187500000000024
v 0.6250000000000001 0.9437500000000018 -0.042187500000000024
v 0.6250000000000001 1.018750000000002 -0.042187500000000024
v 0.6250000000000001 1.0687500000000014 -0.042187500000000024
v 0.7250000000000001 1.0687500000000014 -0.042187500000000024
v 0.7250000000000001 0.9062500000000017 -0.042187500000000024
v 0.6812500000000001 0.9437500000000018 -0.042187500000000024
v 0.6812500000000001 0.9437500000000018 0.10937499999999997
v 0.6812500000000001 1.018750000000002 0.10937499999999997
v 0.6812500000000001 1.0687500000000014 0.10937499999999997
v 0.6812500000000001 1.0687500000000014 -0.042187500000000024
v 0.7250000000000001 0.9187500000000016 -0.042187500000000024
v 0.8171875000000001 0.9187500000000016 0.10937499999999997
v 0.7250000000000001 0.9187500000000016 0.10937499999999997
v 0.6812500000000001 0.9187500000000016 -0.042187500000000024
v 0.6812500000000001 0.9187500000000016 0.10937499999999997
vt 0.36083984375 0.82358671875
vt 0.37021484375 0.82358671875
vt 0.37021484375 0.83346875
vt 0.36083984375 0.83346875
vt 0.334375 0.9
vt 0.31875 0.9
vt 0.31875 0.890625
vt 0.33125 0.890625
vt 0.33125 0.90625
vt 0.31875 0.90625
vt 0.31875 0.9
vt 0.334375 0.9
vt 0.41552734375 0.7586375
vt 0.42490234375 0.7586375
vt 0.42490234375 0.765625
vt 0.41552734375 0.765625
vt 0.4515625 0.81796875
vt 0.44453125 0.81796875
vt 0.44453125 0.8046875
vt 0.4515625 0.8046875
vt 0.102734375 0.8921875
vt 0.106640625 0.896875
vt 0.106640625 0.90625
vt 0.31875 0.90625
vt 0.31328125 0.90625
vt 0.31328125 0.9
vt 0.31875 0.9
vt 0.428125 0.578125
vt 0.42265625 0.578125
vt 0.42265625 0.5635296875
vt 0.428125 0.5635296875
vt 0.36083984375 0.8203125
vt 0.37021484375 0.8203125
vt 0.37021484375 0.82358671875
vt 0.36083984375 0.82358671875
vt 0.31875 0.8875
vt 0.3302734375 0.8875
vt 0.33125 0.890625
vt 0.31875 0.890625
vt 0.2375 0.8984375
vt 0.2375 0.8890625
vt 0.25 0.8890625
vt 0.25 0.8984375
vt 0.21787109375 0.6484375
vt 0.21787109375 0.6578125
vt 0.20634765625 0.6578125
vt 0.20634765625 0.6484375
vt 0.348046875 0.796875
vt 0.360546875 0.796875
vt 0.360546875 0.80625
vt 0.344921875 0.80625
vt 0.29970703125 0.884375
vt 0.29033203125 0.884375
vt 0.29033203125 0.875
vt 0.29970703125 0.875
vt 0.344921875 0.80625
vt 0.360546875 0.80625
vt 0.360546875 0.8125
vt 0.348046875 0.8125
vt 0.29970703125 0.890625
vt 0.29033203125 0.890625
vt 0.29033203125 0.884375
vt 0.29970703125 0.884375
vt 0.30625 0.9
vt 0.31328125 0.9
vt 0.31328125 0.90625
vt 0.30625 0.90625
vt 0.2625 0.8984375
vt 0.25546875 0.8984375
vt 0.25546875 0.8890625
vt 0.2625 0.8890625
vt 0.3046875 0.5390625
vt 0.29699296875000003 0.5390625
vt 0.29699296875000003 0.5328125
vt 0.3046875 0.5328125
vt 0.3046875 0.5328125
vt 0.29699296875000003 0.5328125
vt 0.29699296875000003 0.5234375
vt 0.3046875 0.5234375
vt 0.415625 0.5635296875
vt 0.42265625 0.5635296875
vt 0.42265625 0.578125
vt 0.415625 0.578125
vt 0.38916015625 0.83346875
vt 0.37021484375 0.83346875
vt 0.37021484375 0.82358671875
vt 0.38916015625 0.82358671875
vt 0.20634765625 0.6767578125
vt 0.20634765625 0.6578125
vt 0.21787109375 0.6578125
vt 0.21787109375 0.6767578125
vt 0.1953125 0.5359375
vt 0.1875 0.5390625
vt 0.1875 0.5234375
vt 0.1953125 0.5234375
vt 0.27451171875 0.875
vt 0.29033203125 0.875
vt 0.29033203125 0.884375
vt 0.27451171875 0.884375
vt 0.27451171875 0.884375
vt 0.29033203125 0.884375
vt 0.29033203125 0.890625
vt 0.27451171875 0.890625
vt 0.2625 0.8890625
vt 0.25546875 0.8890625
vt 0.25546875 0.8701171875
vt 0.2625 0.8732421875
vt 0.25 0.8701171875
vt 0.25 0.8890625
vt 0.2375 0.8890625
vt 0.2375 0.8701171875
vt 0.44384765625 0.765625
vt 0.42490234375 0.765625
vt 0.42490234375 0.7586375
vt 0.44384765625 0.7586375
vt 0.30361328125 0.8703125
vt 0.29970703125 0.884375
vt 0.29970703125 0.875
vt 0.29033203125 0.8703125
vt 0.30361328125 0.8703125
vt 0.29970703125 0.875
vt 0.29033203125 0.875
vt 0.50625 0.7890625
vt 0.49921875 0.7890625
vt 0.49921875 0.784375
vt 0.50625 0.784375
vt 0.102734375 0.8921875
vt 0.116015625 0.8921875
vt 0.116015625 0.896875
vt 0.106640625 0.896875
vt 0.21787109375 0.6578125
vt 0.22333984375 0.6578125
vt 0.22333984375 0.6767578125
vt 0.21787109375 0.6767578125
vt 0.360546875 0.796875
vt 0.366015625 0.796875
vt 0.366015625 0.80625
vt 0.360546875 0.80625
vt 0.360546875 0.80625
vt 0.366015625 0.80625
vt 0.366015625 0.8125
vt 0.360546875 0.8125
vt 0.25 0.8701171875
vt 0.25546875 0.8701171875
vt 0.25546875 0.8890625
vt 0.25 0.8890625
vt 0.25 0.8890625
vt 0.25546875 0.8890625
vt 0.25546875 0.8984375
vt 0.25 0.8984375
vt 0.4390625 0.8046875
vt 0.44453125 0.8046875
vt 0.44453125 0.81796875
vt 0.4390625 0.81796875
vt 0.49375 0.784375
vt 0.49921875 0.784375
vt 0.49921875 0.7890625
vt 0.49375 0.7890625
vt 0.0625 0.796875
vt 0.0703125 0.796875
vt 0.0703125 0.8046875
vt 0.0625 0.8046875
vt 0.37021484375 0.8203125
vt 0.38916015625 0.8203125
vt 0.38916015625 0.82358671875
vt 0.37021484375 0.82358671875
vt 0.3490234375 0.79375
vt 0.360546875 0.79375
vt 0.360546875 0.796875
vt 0.348046875 0.796875
vt 0.2265625 0.796875
vt 0.234375 0.796875
vt 0.234375 0.8046875
vt 0.2265625 0.8046875
vt 0.203125 0.828125
vt 0.21875 0.828125
vt 0.21875 0.8359375
vt 0.203125 0.8359375
vt 0.360546875 0.79375
vt 0.366015625 0.79375
vt 0.366015625 0.796875
vt 0.360546875 0.796875
vn -0.9486832980505144 -0.3162277660168363 0
vn 0 0 -1
vn 0 0 -1
vn -0.8944271909999143 0.44721359549996115 0
vn 0 -1 2.0898315757650014e-15
vn -1 0 0
vn 0 0 -1
vn 0 0.2676438637860938 -0.963517909629941
vn -0.9544799780350304 -0.2982749931359454 0
vn 0 0 -1
vn 0 1 0
vn 0 -1 0
vn 0 0 1
vn 1 0 0
vn 0 0 1
vn 1 0 0
vn 0 0 -1
vn 0 1 0
vn 0.4061384660534478 0 0.9138115486202572
vn 0.4061384660534478 0 0.913811548620257
vn 0 0.2676438637860938 -0.963517909629941
vn -0.9486832980505144 -0.3162277660168363 0
vn 0 -1 0
vn 0 -1 0
vn 1 0 0
vn 1 0 0
vn 0 1 0
vn 0 1 0
vn -0.8944271909999143 0.44721359549996115 0
vn 1 0 0
vn 1 0 0
vn 0 0 1
vn -1 0 0
vn 0 -1 0
vn 0 0 1
vn 0 0 1
vn 0 1 0
vn 0 1 0
vn 0 -1 2.0898315757650014e-15
vn 0 0 1
vn 1 0 0
vn -0.9544799780350303 -0.29827499313594535 0
vn 0 0 1
vn 0 0 -1
vn 1 0 0
vn 0 0 1
usemtl m_ff70f691-bde8-f186-4486-f40bb40d341f
f 2/1/1 8/2/1 7/3/1 3/4/1
f 3/5/2 4/6/2 6/7/2 2/8/2
f 1/9/3 5/10/3 4/11/3 3/12/3
f 3/13/4 7/14/4 9/15/4 1/16/4
f 12/17/5 16/18/5 15/19/5 10/20/5
f 11/21/6 6/22/6 4/23/6
f 5/24/7 13/25/7 14/26/7 4/27/7
f 4/28/8 14/29/8 15/30/8 11/31/8
f 19/32/9 18/33/9 8/34/9 2/35/9
f 17/36/10 19/37/10 2/38/10 6/39/10
f 1/40/11 9/41/11 36/42/11 5/43/11
f 17/44/12 43/45/12 18/46/12 19/47/12
f 21/48/13 31/49/13 30/50/13 27/51/13
f 26/52/14 34/53/14 33/54/14 25/55/14
f 27/56/15 30/57/15 29/58/15 20/59/15
f 23/60/16 35/61/16 34/62/16 26/63/16
f 26/64/17 14/65/17 13/66/17 23/67/17
f 23/68/18 13/69/18 42/70/18 35/71/18
f 22/72/19 41/73/19 40/74/19 28/75/19
f 28/76/20 40/77/20 39/78/20 24/79/20
f 10/80/21 15/81/21 14/82/21 26/83/21
f 27/84/22 7/85/22 8/86/22 21/87/22
f 44/88/23 18/89/23 43/90/23 45/91/23
f 24/92/24 39/93/24 38/94/24 33/95/24
f 24/96/25 33/97/25 34/98/25 28/99/25
f 28/100/26 34/101/26 35/102/26 22/103/26
f 35/104/27 42/105/27 41/106/27 22/107/27
f 29/108/28 36/109/28 9/110/28 20/111/28
f 20/112/29 9/113/29 7/114/29 27/115/29
f 10/116/30 26/117/30 25/118/30
f 12/119/31 10/120/31 25/121/31 33/122/31
f 33/123/32 38/124/32 16/125/32 12/126/32
f 11/127/33 37/128/33 32/129/33 6/130/33
f 43/131/34 46/132/34 47/133/34 45/134/34
f 31/135/35 39/136/35 40/137/35 30/138/35
f 30/139/36 40/140/36 41/141/36 29/142/36
f 29/143/37 41/144/37 42/145/37 36/146/37
f 36/147/38 42/148/38 13/149/38 5/150/38
f 11/151/39 15/152/39 16/153/39 37/154/39
f 37/155/40 16/156/40 38/157/40 32/158/40
f 43/159/41 17/160/41 6/161/41 32/162/41
f 18/163/42 44/164/42 21/165/42 8/166/42
f 44/167/43 45/168/43 31/169/43 21/170/43
f 46/171/44 43/172/44 32/173/44 38/174/44
f 47/175/45 46/176/45 38/177/45 39/178/45
f 45/179/46 47/180/46 39/181/46 31/182/46
o cylinder
v -0.32500000000000007 1.0250000000000001 -4.5102810375396984e-17
v -0.32500000000000007 1.0638325214724778 0.09374999999999992
v -0.6124999999999999 1.0724873734152918 0.17499999999999993
v -0.32500000000000007 1.1187500000000001 0.03883252147247761
v -0.6124999999999998 1.1750000000000003 0.0724873734152916
v -0.32500000000000007 1.1187500000000001 -0.03883252147247769
v -0.6124999999999998 1.1750000000000003 -0.07248737341529166
v -0.32500000000000007 1.0638325214724778 -0.09375000000000001
v -0.6124999999999999 1.072487373415292 -0.17500000000000002
v -0.32500000000000007 0.9861674785275225 -0.09375000000000003
v -0.6124999999999999 0.9275126265847087 -0.17500000000000004
v -0.32500000000000007 0.9312500000000002 -0.03883252147247775
v -0.6125 0.8250000000000003 -0.07248737341529178
v -0.32500000000000007 0.9312500000000001 0.03883252147247763
v -0.6125 0.8250000000000002 0.07248737341529164
v -0.32500000000000007 0.9861674785275224 0.0937499999999999
v -0.6124999999999999 0.9275126265847085 0.1749999999999999
v -0.5062500000000001 1.0000000000000002 -3.608224830031758e-17
v -0.6124999999999999 1.0577724366119876 0.13947499999999993
v -0.6124999999999999 1.1394750000000002 0.057772436611987395
v -0.6124999999999999 1.1394750000000002 -0.05777243661198746
v -0.6124999999999999 1.0577724366119876 -0.13947500000000002
v -0.6124999999999999 0.9422275633880128 -0.13947500000000004
v -0.6125 0.8605250000000003 -0.057772436611987554
v -0.6125 0.8605250000000002 0.05777243661198743
v -0.6124999999999999 0.9422275633880127 0.1394749999999999
v -0.7312499999999997 0.7927625000000003 -6.922924353186336e-17
v -0.7312499999999997 0.8534609584338531 0.1465390415661471
v -0.7312499999999997 1.0000000000000002 0.20723749999999994
v -0.7312499999999997 1.1465390415661474 0.14653904156614708
v -0.7312499999999997 1.2072375000000002 -1.8929571762976424e-17
v -0.7312499999999997 1.1465390415661474 -0.14653904156614717
v -0.7312499999999997 1.0000000000000002 -0.20723750000000005
v -0.7312499999999997 0.8534609584338532 -0.14653904156614725
vt 0.3046875 0.7353226562499999
vt 0.29782265625 0.7421875
vt 0.29296875 0.73046875
vt 0.15235703125 0.734375
vt 0.16206484375 0.734375
vt 0.1640625 0.77118046875
vt 0.145940625 0.77118046875
vt 0.4140625 0.7753450813584697
vt 0.40954234821864666 0.7890625
vt 0.390986877767205 0.7753450813584697
vt 0.3046875 0.7256148437500001
vt 0.3046875 0.7353226562499999
vt 0.29296875 0.73046875
vt 0.00686484375 0.71875
vt 0.016572656249999998 0.71875
vt 0.020779687499999998 0.75536875
vt 0.0026578125000000005 0.75536875
vt 0.03810908032251347 0.6048546037143041
vt 0.02439091967748653 0.609375
vt 0.02439091967748653 0.586299377767205
vt 0.29782265625 0.71875
vt 0.3046875 0.7256148437500001
vt 0.29296875 0.73046875
vt 0.06449765625000001 0.734375
vt 0.07420546875 0.734375
vt 0.08062187500000001 0.77118046875
vt 0.0625 0.77118046875
vt 0.40434241864153037 0.7611048482186467
vt 0.390625 0.765625
vt 0.390625 0.742549377767205
vt 0.28811484375 0.71875
vt 0.29782265625 0.71875
vt 0.29296875 0.73046875
vt 0.20686484375 0.84375
vt 0.21657265625 0.84375
vt 0.2239046875 0.8810953125000001
vt 0.2057828125 0.8810953125000001
vt 0.3974840803225135 0.6126671037143041
vt 0.3837659196774865 0.6171875
vt 0.3837659196774865 0.594111877767205
vt 0.28125 0.7256148437500001
vt 0.28811484375 0.71875
vt 0.29296875 0.73046875
vt 0.20262578125 0.765625
vt 0.21233359375 0.765625
vt 0.21875 0.80363046875
vt 0.200628125 0.80363046875
vt 0.0625 0.6048549935610519
vt 0.04878253346622112 0.609375
vt 0.048782533466221106 0.586298635762413
vt 0.28125 0.7353226562499999
vt 0.28125 0.7256148437500001
vt 0.29296875 0.73046875
vt 0.03811484375 0.75
vt 0.04782265625 0.75
vt 0.0520296875 0.78831328125
vt 0.0339078125 0.78831328125
vt 0.397484104269933 0.9095422490645712
vt 0.383765895730067 0.9140625
vt 0.383765895730067 0.890986135762413
vt 0.28811484375 0.7421875
vt 0.28125 0.7353226562499999
vt 0.29296875 0.73046875
vt 0.11579140625 0.75
vt 0.12549921875 0.75
vt 0.127496875 0.78800546875
vt 0.109375 0.78800546875
vt 0.41370136423758697 0.8769075334662211
vt 0.4091813577986388 0.890625
vt 0.390625 0.8769075334662211
vt 0.29782265625 0.7421875
vt 0.28811484375 0.7421875
vt 0.29296875 0.73046875
vt 0.21311484375 0.90625
vt 0.22282265625 0.90625
vt 0.2239046875 0.9435953125000001
vt 0.2057828125 0.9435953125000001
vt 0.3974840803225135 0.6439171037143041
vt 0.3837659196774865 0.6484375
vt 0.3837659196774865 0.625361877767205
vt 0.27227728918921945 0.6015625
vt 0.25897271081078055 0.5886316673861651
vt 0.27227728918921945 0.5830093806419233
vt 0.5029282616063956 0.96875
vt 0.484375 0.96875
vt 0.48568644815079914 0.9641261333485636
vt 0.04296875 0.80369453125
vt 0.0339078125 0.78831328125
vt 0.0520296875 0.78831328125
vt 0.479569245220437 0.65625
vt 0.479569245220437 0.6383989419347802
vt 0.484375 0.6383299487379623
vt 0.3648664508899494 0.6015625
vt 0.3515625 0.588630425589654
vt 0.3648664508899494 0.5830086610062433
vt 0.5078125 0.984375
vt 0.4892584867885678 0.984375
vt 0.4905698818138774 0.9797511182811307
vt 0.1184359375 0.80338671875
vt 0.109375 0.78800546875
vt 0.127496875 0.78800546875
vt 0.46394346099278916 0.53125
vt 0.46394346099278916 0.5133981719624509
vt 0.46875 0.5133293808973529
vt 0.2019648352640608 0.6015625
vt 0.1886601647359392 0.5886307296825075
vt 0.2019648352640608 0.5830086610062433
vt 0.390625 0.5234375
vt 0.3720709867885678 0.5234375
vt 0.3733825949795187 0.5188128666748695
vt 0.21484375 0.9589765625
vt 0.2057828125 0.9435953125000001
vt 0.2239046875 0.9435953125000001
vt 0.4765625 0.8359375
vt 0.4765625 0.8180856719624509
vt 0.48136825783721127 0.8180168920774382
vt 0.296875 0.6015625
vt 0.2835710491100506 0.588630425589654
vt 0.296875 0.5830086610062433
vt 0.018553800061014494 0.515625
vt 0 0.515625
vt 0.0013112077128235103 0.5110010651608903
vt 0.1550015625 0.78656171875
vt 0.145940625 0.77118046875
vt 0.1640625 0.77118046875
vt 0.3515625 0.5234375
vt 0.3515625 0.5055864531324469
vt 0.3563682577941336 0.505517670237595
vt 0.24883978918921945 0.6015625
vt 0.23553521081078055 0.5886316673861651
vt 0.24883978918921942 0.5830093806419233
vt 0.5029288000610145 1
vt 0.484375 1
vt 0.4856862077128235 0.9953760651608903
vt 0.01171875 0.77075
vt 0.0026578125000000005 0.75536875
vt 0.020779687499999998 0.75536875
vt 0.27644424216278873 0.5234375
vt 0.27644424216278873 0.5055856719624509
vt 0.28125 0.5055168920774382
vt 0.3179916689319955 0.6015625
vt 0.3046875 0.588630213642392
vt 0.3179916689319955 0.5830089650851404
vt 0.5078125 0.953125
vt 0.4892594515526571 0.953125
vt 0.4905707123846026 0.9485010802241923
vt 0.0715609375 0.78656171875
vt 0.0625 0.77118046875
vt 0.08062187500000001 0.77118046875
vt 0.47956924216278873 0.7578125
vt 0.47956924216278873 0.7399606719624509
vt 0.484375 0.7398918920774382
vt 0.2254023352640608 0.6015625
vt 0.2120976647359392 0.5886307296825075
vt 0.2254023352640608 0.5830086610062433
vt 0.5 0.53125
vt 0.4814461999389855 0.53125
vt 0.482757407651809 0.5266260651608903
vt 0.21484375 0.8964765625
vt 0.2057828125 0.8810953125000001
vt 0.2239046875 0.8810953125000001
vt 0.03125 0.5234375
vt 0.03125 0.5055856719624509
vt 0.03605653900721083 0.5055168808973529
vt 0.34375 0.6015625
vt 0.3304458310680045 0.588630213642392
vt 0.34375 0.5830089650851404
vt 0.4951165132114322 0.625
vt 0.4765625 0.625
vt 0.4778741081909509 0.6203753666748695
vt 0.2096890625 0.81901171875
vt 0.200628125 0.80363046875
vt 0.21875 0.80363046875
vt 0.4765625 0.921875
vt 0.4765625 0.9040231607652741
vt 0.4813682548229045 0.9039541705874943
vn 1 -2.220446049250313e-16 0
vn 0.21590582836590722 0.690429096025664 0.6904290960256642
vn -0.7954775411051308 -0.4284947383558723 -0.4284947383558725
vn 1 -2.220446049250313e-16 0
vn 0.19201160638565662 0.9813926548600207 0
vn -0.795477541105131 -0.6059830703883855 0
vn 1 -2.220446049250313e-16 0
vn 0.2159058283659072 0.6904290960256642 -0.690429096025664
vn -0.7954775411051308 -0.42849473835587243 0.4284947383558723
vn 1 -2.220446049250313e-16 0
vn 0.27195700522594773 1.1156626707680993e-16 -0.9623094031071991
vn -0.7954775411051308 3.1065462447798444e-17 0.6059830703883855
vn 1 -2.220446049250313e-16 0
vn 0.32537255558335115 -0.6686302042508845 -0.6686302042508846
vn -0.7954775411051308 0.4284947383558724 0.4284947383558723
vn 1 -2.220446049250313e-16 0
vn 0.3466501408716289 -0.9379944988291137 -3.3521615712936973e-16
vn -0.7954775411051308 0.6059830703883856 2.911320677872511e-16
vn 1 -2.220446049250313e-16 0
vn 0.32537255558335126 -0.6686302042508847 0.6686302042508844
vn -0.795477541105131 0.4284947383558725 -0.4284947383558723
vn 1 -2.220446049250313e-16 0
vn 0.27195700522594785 -2.323394386407903e-16 0.9623094031071993
vn -0.7954775411051307 3.2219753023504973e-16 -0.6059830703883857
vn -0.4956170207732903 0.8685411727257425 3.294258101076555e-16
vn -0.5553772611028213 0.3182389758415344 -0.7682968515523543
vn 0.2619911810199077 -0.9650702674250171 -3.646653355630215e-16
vn -0.555377261102821 0.3182389758415341 0.7682968515523546
vn -0.49561702077329034 0.614151352974089 -0.6141513529740888
vn -0.5553772611028206 -0.31823897584153416 -0.7682968515523547
vn 0.26199118101990765 -0.6824077304177446 0.6824077304177445
vn -0.5553772611028202 0.7682968515523547 0.31823897584153454
vn -0.49561702077329045 2.1985768894094485e-16 -0.8685411727257426
vn -0.5553772611028215 -0.7682968515523542 -0.31823897584153427
vn 0.2619911810199078 -2.283508848794846e-16 0.9650702674250172
vn -0.5553772611028208 0.7682968515523547 -0.3182389758415337
vn -0.49561702077329056 -0.6141513529740888 -0.614151352974089
vn -0.555377261102821 -0.7682968515523546 0.3182389758415342
vn 0.261991181019908 0.6824077304177444 0.6824077304177445
vn -0.5553772611028205 0.3182389758415344 -0.7682968515523548
vn -0.4956170207732905 -0.8685411727257423 0
vn -0.5553772611028207 -0.31823897584153366 0.7682968515523548
vn 0.261991181019908 0.9650702674250171 0
vn -0.5553772611028209 -0.31823897584153377 -0.7682968515523548
vn -0.49561702077329045 -0.6141513529740891 0.6141513529740888
vn -0.5553772611028207 0.31823897584153404 0.7682968515523547
vn 0.261991181019908 0.6824077304177446 -0.6824077304177443
vn -0.5553772611028207 -0.7682968515523545 -0.3182389758415342
vn -0.49561702077329045 2.40482202507701e-19 0.8685411727257425
vn -0.5553772611028208 0.7682968515523545 0.31823897584153404
vn 0.26199118101990787 1.120034283126691e-16 -0.9650702674250172
vn -0.555377261102821 -0.7682968515523546 0.31823897584153377
vn -0.49561702077329034 0.614151352974089 0.6141513529740891
vn -0.5553772611028205 0.768296851552355 -0.318238975841534
vn 0.2619911810199076 -0.6824077304177443 -0.6824077304177446
vn -0.5553772611028206 -0.31823897584153443 0.7682968515523546
usemtl m_ff70f691-bde8-f186-4486-f40bb40d341f
f 98/183/47 96/184/47 95/185/47
f 96/186/48 98/187/48 99/188/48 97/189/48
f 113/190/49 114/191/49 112/192/49
f 100/193/50 98/194/50 95/195/50
f 98/196/51 100/197/51 101/198/51 99/199/51
f 114/200/52 115/201/52 112/202/52
f 102/203/53 100/204/53 95/205/53
f 100/206/54 102/207/54 103/208/54 101/209/54
f 115/210/55 116/211/55 112/212/55
f 104/213/56 102/214/56 95/215/56
f 102/216/57 104/217/57 105/218/57 103/219/57
f 116/220/58 117/221/58 112/222/58
f 106/223/59 104/224/59 95/225/59
f 104/226/60 106/227/60 107/228/60 105/229/60
f 117/230/61 118/231/61 112/232/61
f 108/233/62 106/234/62 95/235/62
f 106/236/63 108/237/63 109/238/63 107/239/63
f 118/240/64 119/241/64 112/242/64
f 110/243/65 108/244/65 95/245/65
f 108/246/66 110/247/66 111/248/66 109/249/66
f 119/250/67 120/251/67 112/252/67
f 96/253/68 110/254/68 95/255/68
f 110/256/69 96/257/69 97/258/69 111/259/69
f 120/260/70 113/261/70 112/262/70
f 121/263/71 119/264/71 118/265/71
f 121/266/72 118/267/72 107/268/72
f 121/269/73 107/270/73 109/271/73
f 121/272/74 109/273/74 119/274/74
f 122/275/75 120/276/75 119/277/75
f 122/278/76 119/279/76 109/280/76
f 122/281/77 109/282/77 111/283/77
f 122/284/78 111/285/78 120/286/78
f 123/287/79 113/288/79 120/289/79
f 123/290/80 120/291/80 111/292/80
f 123/293/81 111/294/81 97/295/81
f 123/296/82 97/297/82 113/298/82
f 124/299/83 114/300/83 113/301/83
f 124/302/84 113/303/84 97/304/84
f 124/305/85 97/306/85 99/307/85
f 124/308/86 99/309/86 114/310/86
f 125/311/87 115/312/87 114/313/87
f 125/314/88 114/315/88 99/316/88
f 125/317/89 99/318/89 101/319/89
f 125/320/90 101/321/90 115/322/90
f 126/323/91 116/324/91 115/325/91
f 126/326/92 115/327/92 101/328/92
f 126/329/93 101/330/93 103/331/93
f 126/332/94 103/333/94 116/334/94
f 127/335/95 117/336/95 116/337/95
f 127/338/96 116/339/96 103/340/96
f 127/341/97 103/342/97 105/343/97
f 127/344/98 105/345/98 117/346/98
f 128/347/99 118/348/99 117/349/99
f 128/350/100 117/351/100 105/352/100
f 128/353/101 105/354/101 107/355/101
f 128/356/102 107/357/102 118/358/102
o cylinder
v -0.16875000052683561 1.0187499982877848 0.06250000000000054
v -0.16875000052683561 1.0187499982877835 -0.062499999999999736
v -0.23750000013863137 1.0371715067162224 0.06250000000000032
v -0.23750000013863137 1.037171506716221 -0.06249999999999996
v -0.21907849248660227 1.0690784923687386 0.0625
v -0.21907849248660227 1.0690784923687373 -0.06250000000000029
v -0.1871715060576774 1.0874999986759888 0.06249999999999982
v -0.1871715060576774 1.0874999986759875 -0.06250000000000046
v -0.150328492098398 1.0874999978995805 0.06249999999999983
v -0.150328492098398 1.0874999978995792 -0.06250000000000043
v -0.11842150644588162 1.0690784902475512 0.06250000000000004
v -0.11842150644588162 1.0690784902475499 -0.06250000000000024
v -0.10000000013863138 1.0371715038186264 0.06250000000000037
v -0.10000000013863138 1.037171503818625 -0.0624999999999999
v -0.10000000091503981 1.0003284898593472 0.06250000000000076
v -0.10000000091503981 1.0003284898593459 -0.062499999999999514
v -0.11842150856706896 0.9684215042068307 0.0625000000000011
v -0.11842150856706896 0.9684215042068294 -0.062499999999999195
v -0.15032849499599385 0.9499999978995805 0.06250000000000126
v -0.15032849499599385 0.9499999978995791 -0.062499999999999015
v -0.18717150895527318 0.9499999986759889 0.06250000000000124
v -0.18717150895527318 0.9499999986759876 -0.06249999999999903
v -0.2190784946077896 0.968421506328018 0.06250000000000104
v -0.2190784946077896 0.9684215063280167 -0.06249999999999924
v -0.23750000091503987 1.000328492756943 0.06250000000000071
v -0.23750000091503987 1.0003284927569416 -0.06249999999999957
vt 0.41644765625 0.99144765625
vt 0.41245859375 0.99375
vt 0.41015625 0.98515625
vt 0.171875 0.5234375
vt 0.1796875 0.5234375
vt 0.1796875 0.5390625
vt 0.171875 0.5390625
vt 0.41245859375 0.9515625
vt 0.41644765625 0.95386484375
vt 0.41015625 0.96015625
vt 0.41875 0.98745859375
vt 0.41644765625 0.99144765625
vt 0.41015625 0.98515625
vt 0.453125 0.5390625
vt 0.4609375 0.5390625
vt 0.4609375 0.5546875
vt 0.453125 0.5546875
vt 0.41644765625 0.95386484375
vt 0.41875 0.95785390625
vt 0.41015625 0.96015625
vt 0.41875 0.98285390625
vt 0.41875 0.98745859375
vt 0.41015625 0.98515625
vt 0.265625 0.765625
vt 0.2734375 0.765625
vt 0.2734375 0.78125
vt 0.265625 0.78125
vt 0.41875 0.95785390625
vt 0.41875 0.96245859375
vt 0.41015625 0.96015625
vt 0.41644765625 0.97886484375
vt 0.41875 0.98285390625
vt 0.41015625 0.98515625
vt 0.0625 0.5234375
vt 0.0703125 0.5234375
vt 0.0703125 0.5390625
vt 0.0625 0.5390625
vt 0.41875 0.96245859375
vt 0.41644765625 0.96644765625
vt 0.41015625 0.96015625
vt 0.41245859375 0.9765625
vt 0.41644765625 0.97886484375
vt 0.41015625 0.98515625
vt 0.4609375 0.8046875
vt 0.46875 0.8046875
vt 0.46875 0.8203125
vt 0.4609375 0.8203125
vt 0.41644765625 0.96644765625
vt 0.41245859375 0.96875
vt 0.41015625 0.96015625
vt 0.40785390625 0.9765625
vt 0.41245859375 0.9765625
vt 0.41015625 0.98515625
vt 0.453125 0.703125
vt 0.4609375 0.703125
vt 0.4609375 0.71875
vt 0.453125 0.71875
vt 0.41245859375 0.96875
vt 0.40785390625 0.96875
vt 0.41015625 0.96015625
vt 0.40386484375 0.97886484375
vt 0.40785390625 0.9765625
vt 0.41015625 0.98515625
vt 0.15625 0.5234375
vt 0.1640625 0.5234375
vt 0.1640625 0.5390625
vt 0.15625 0.5390625
vt 0.40785390625 0.96875
vt 0.40386484375 0.96644765625
vt 0.41015625 0.96015625
vt 0.4015625 0.98285390625
vt 0.40386484375 0.97886484375
vt 0.41015625 0.98515625
vt 0.453125 0.6640625
vt 0.4609375 0.6640625
vt 0.4609375 0.6796875
vt 0.453125 0.6796875
vt 0.40386484375 0.96644765625
vt 0.4015625 0.96245859375
vt 0.41015625 0.96015625
vt 0.4015625 0.98745859375
vt 0.4015625 0.98285390625
vt 0.41015625 0.98515625
vt 0.203125 0.6875
vt 0.2109375 0.6875
vt 0.2109375 0.703125
vt 0.203125 0.703125
vt 0.4015625 0.96245859375
vt 0.4015625 0.95785390625
vt 0.41015625 0.96015625
vt 0.40386484375 0.99144765625
vt 0.4015625 0.98745859375
vt 0.41015625 0.98515625
vt 0.453125 0.5625
vt 0.4609375 0.5625
vt 0.4609375 0.578125
vt 0.453125 0.578125
vt 0.4015625 0.95785390625
vt 0.40386484375 0.95386484375
vt 0.41015625 0.96015625
vt 0.40785390625 0.99375
vt 0.40386484375 0.99144765625
vt 0.41015625 0.98515625
vt 0.140625 0.5234375
vt 0.1484375 0.5234375
vt 0.1484375 0.5390625
vt 0.140625 0.5390625
vt 0.40386484375 0.95386484375
vt 0.40785390625 0.9515625
vt 0.41015625 0.96015625
vt 0.41245859375 0.99375
vt 0.40785390625 0.99375
vt 0.41015625 0.98515625
vt 0.453125 0.7578125
vt 0.4609375 0.7578125
vt 0.4609375 0.7734375
vt 0.453125 0.7734375
vt 0.40785390625 0.9515625
vt 0.41245859375 0.9515625
vt 0.41015625 0.96015625
vn -4.4408899109558276e-16 1.038058528960369e-14 1
vn -0.8660253932477264 0.5000000182501205 -5.3290707127131075e-15
vn 4.4408899109558276e-16 -1.038058528960369e-14 -1
vn -4.4408899109558276e-16 1.038058528960369e-14 1
vn -0.4999999817498789 0.8660254143211509 -9.230221006942869e-15
vn 4.4408899109558276e-16 -1.038058528960369e-14 -1
vn -4.4408899109558276e-16 1.038058528960369e-14 1
vn 2.1073424449902227e-8 0.9999999999999998 -1.0658141036401495e-14
vn 4.4408899109558276e-16 -1.038058528960369e-14 -1
vn -4.4408899109558276e-16 1.038058528960369e-14 1
vn 0.5000000182501207 0.8660253932477264 -9.230220782339336e-15
vn 4.4408899109558276e-16 -1.038058528960369e-14 -1
vn -4.4408899109558276e-16 1.038058528960369e-14 1
vn 0.8660254143211507 0.49999998174987914 -5.329070323688387e-15
vn 4.4408899109558276e-16 -1.038058528960369e-14 -1
vn -4.4408899109558276e-16 1.038058528960369e-14 1
vn 0.9999999999999998 -2.1073423363488276e-8 2.246035183278565e-22
vn 4.4408899109558276e-16 -1.038058528960369e-14 -1
vn -4.4408899109558276e-16 1.038058528960369e-14 1
vn 0.8660253932477265 -0.5000000182501204 5.329070712713107e-15
vn 4.4408899109558276e-16 -1.038058528960369e-14 -1
vn -4.4408899109558276e-16 1.038058528960369e-14 1
vn 0.4999999817498787 -0.866025414321151 9.23022100694287e-15
vn 4.4408899109558276e-16 -1.038058528960369e-14 -1
vn -4.4408899109558276e-16 1.038058528960369e-14 1
vn -2.1073424449902227e-8 -0.9999999999999998 1.0658141036401495e-14
vn 4.4408899109558276e-16 -1.038058528960369e-14 -1
vn -4.4408899109558276e-16 1.038058528960369e-14 1
vn -0.5000000182501203 -0.8660253932477265 9.230220782339339e-15
vn 4.4408899109558276e-16 -1.038058528960369e-14 -1
vn -4.4408899109558276e-16 1.038058528960369e-14 1
vn -0.8660254143211509 -0.49999998174987875 5.3290703236883834e-15
vn 4.4408899109558276e-16 -1.038058528960369e-14 -1
vn -4.4408899109558276e-16 1.038058528960369e-14 1
vn -0.9999999999999998 2.107342411683532e-8 -2.2460352635713555e-22
vn 4.4408899109558276e-16 -1.038058528960369e-14 -1
usemtl m_ff70f691-bde8-f186-4486-f40bb40d341f
f 133/359/103 131/360/103 129/361/103
f 131/362/104 133/363/104 134/364/104 132/365/104
f 132/366/105 134/367/105 130/368/105
f 135/369/106 133/370/106 129/371/106
f 133/372/107 135/373/107 136/374/107 134/375/107
f 134/376/108 136/377/108 130/378/108
f 137/379/109 135/380/109 129/381/109
f 135/382/110 137/383/110 138/384/110 136/385/110
f 136/386/111 138/387/111 130/388/111
f 139/389/112 137/390/112 129/391/112
f 137/392/113 139/393/113 140/394/113 138/395/113
f 138/396/114 140/397/114 130/398/114
f 141/399/115 139/400/115 129/401/115
f 139/402/116 141/403/116 142/404/116 140/405/116
f 140/406/117 142/407/117 130/408/117
f 143/409/118 141/410/118 129/411/118
f 141/412/119 143/413/119 144/414/119 142/415/119
f 142/416/120 144/417/120 130/418/120
f 145/419/121 143/420/121 129/421/121
f 143/422/122 145/423/122 146/424/122 144/425/122
f 144/426/123 146/427/123 130/428/123
f 147/429/124 145/430/124 129/431/124
f 145/432/125 147/433/125 148/434/125 146/435/125
f 146/436/126 148/437/126 130/438/126
f 149/439/127 147/440/127 129/441/127
f 147/442/128 149/443/128 150/444/128 148/445/128
f 148/446/129 150/447/129 130/448/129
f 151/449/130 149/450/130 129/451/130
f 149/452/131 151/453/131 152/454/131 150/455/131
f 150/456/132 152/457/132 130/458/132
f 153/459/133 151/460/133 129/461/133
f 151/462/134 153/463/134 154/464/134 152/465/134
f 152/466/135 154/467/135 130/468/135
f 131/469/136 153/470/136 129/471/136
f 153/472/137 131/473/137 132/474/137 154/475/137
f 154/476/138 132/477/138 130/478/138
o Arm
v -0.3343749999999954 1.0218750000000016 5.38902314746782e-16
v -0.15937499999999544 1.021875000000001 8.772126480466931e-16
v -0.3343749999999952 1.0550182628834883 -0.05624999999999941
v -0.1593749999999952 1.0550182628834877 -0.05624999999999907
v -0.33437499999999515 1.0781250000000013 -0.03736201288348599
v -0.15937499999999516 1.0781250000000007 -0.03736201288348566
v -0.33437499999999526 1.0781250000000013 0.03736201288348717
v -0.15937499999999527 1.0781250000000007 0.037362012883487505
v -0.3343749999999954 1.0550182628834883 0.05625000000000056
v -0.1593749999999954 1.0550182628834877 0.0562500000000009
v -0.33437499999999565 0.988731737116515 0.0562500000000005
v -0.1593749999999957 0.9887317371165142 0.056250000000000834
v -0.3343749999999957 0.965625000000002 0.03736201288348711
v -0.15937499999999571 0.9656250000000013 0.03736201288348745
v -0.3343749999999956 0.965625000000002 -0.03736201288348611
v -0.1593749999999956 0.9656250000000013 -0.03736201288348577
v -0.3343749999999954 0.9887317371165151 -0.05624999999999946
v -0.15937499999999546 0.9887317371165143 -0.05624999999999913
v -0.3177083333333286 1.0550182628834883 -0.05624999999999938
v -0.3177083333333288 0.988731737116515 -0.05624999999999943
v -0.29466911764705406 1.0550182628834883 -0.056249999999999335
v -0.2946691176470543 0.9887317371165149 -0.056249999999999384
v -0.317708333333329 0.965625000000002 -0.037362012883486076
v -0.29466911764705445 0.9656250000000018 -0.037362012883486034
v -0.3177083333333291 0.9656250000000018 0.037362012883487145
v -0.29466911764705456 0.9656250000000017 0.037362012883487186
v -0.31770833333332904 0.9887317371165149 0.05625000000000053
v -0.2946691176470545 0.9887317371165147 0.05625000000000058
v -0.3177083333333288 1.0550182628834883 0.0562500000000006
v -0.2946691176470543 1.055018262883488 0.05625000000000064
v -0.31770833333332865 1.0781250000000013 0.0373620128834872
v -0.2946691176470541 1.078125000000001 0.03736201288348725
v -0.31770833333332854 1.0781250000000013 -0.037362012883485965
v -0.294669117647054 1.0781250000000013 -0.037362012883485916
vt 0.24921875 0.6679515625
vt 0.24633046875 0.6703125
vt 0.2421875 0.66328125
vt 0.19158203125 0.515625
vt 0.19158203125 0.49871328125000003
vt 0.1953125 0.49871328125000003
vt 0.1953125 0.515625
vt 0.38695546875 0.571875
vt 0.38984375 0.5742359375
vt 0.3828125 0.57890625
vt 0.24921875 0.6586109375
vt 0.24921875 0.6679515625
vt 0.2421875 0.66328125
vt 0.4093921875 0.609375
vt 0.4093921875 0.59246328125
vt 0.4187328125 0.59246328125
vt 0.4187328125 0.609375
vt 0.38984375 0.5742359375
vt 0.38984375 0.5835765625
vt 0.3828125 0.57890625
vt 0.24633046875 0.65625
vt 0.24921875 0.6586109375
vt 0.2421875 0.66328125
vt 0.0625 0.515625
vt 0.0625 0.49871328125000003
vt 0.06623046875 0.49871328125000003
vt 0.06623046875 0.515625
vt 0.38984375 0.5835765625
vt 0.38695546875 0.5859375
vt 0.3828125 0.57890625
vt 0.23804453125 0.65625
vt 0.24633046875 0.65625
vt 0.2421875 0.66328125
vt 0.43335703125 1
vt 0.43335703125 0.98308828125
vt 0.44164296875 0.98308828125
vt 0.44164296875 1
vt 0.38695546875 0.5859375
vt 0.37866953125 0.5859375
vt 0.3828125 0.57890625
vt 0.23515625 0.6586109375
vt 0.23804453125 0.65625
vt 0.2421875 0.66328125
vt 0.48845703125 0.59375
vt 0.48845703125 0.57683828125
vt 0.4921875 0.57683828125
vt 0.4921875 0.59375
vt 0.37866953125 0.5859375
vt 0.37578125 0.5835765625
vt 0.3828125 0.57890625
vt 0.23515625 0.6679515625
vt 0.23515625 0.6586109375
vt 0.2421875 0.66328125
vt 0.4172046875 0.8203125
vt 0.4172046875 0.80340078125
vt 0.4265453125 0.80340078125
vt 0.4265453125 0.8203125
vt 0.37578125 0.5835765625
vt 0.37578125 0.5742359375
vt 0.3828125 0.57890625
vt 0.23804453125 0.6703125
vt 0.23515625 0.6679515625
vt 0.2421875 0.66328125
vt 0.3125 0.515625
vt 0.3125 0.49871328125000003
vt 0.31623046875 0.49871328125000003
vt 0.31623046875 0.515625
vt 0.37578125 0.5742359375
vt 0.37866953125 0.571875
vt 0.3828125 0.57890625
vt 0.24633046875 0.6703125
vt 0.23804453125 0.6703125
vt 0.2421875 0.66328125
vt 0.43335703125 0.96875
vt 0.43335703125 0.95183828125
vt 0.44164296875 0.95183828125
vt 0.44164296875 0.96875
vt 0.37866953125 0.571875
vt 0.38695546875 0.571875
vt 0.3828125 0.57890625
vt 0.44164296875 0.946875
vt 0.44164296875 0.94895859375
vt 0.43335703125 0.94895859375
vt 0.43335703125 0.946875
vt 0.44164296875 0.94895859375
vt 0.44164296875 0.95183828125
vt 0.43335703125 0.95183828125
vt 0.43335703125 0.94895859375
vt 0.31623046875 0.49375
vt 0.31623046875 0.49583359375
vt 0.3125 0.49583359375
vt 0.3125 0.49375
vt 0.31623046875 0.49583359375
vt 0.31623046875 0.49871328125000003
vt 0.3125 0.49871328125000003
vt 0.3125 0.49583359375
vt 0.4265453125 0.7984375
vt 0.4265453125 0.80052109375
vt 0.4172046875 0.80052109375
vt 0.4172046875 0.7984375
vt 0.4265453125 0.80052109375
vt 0.4265453125 0.80340078125
vt 0.4172046875 0.80340078125
vt 0.4172046875 0.80052109375
vt 0.4921875 0.571875
vt 0.4921875 0.57395859375
vt 0.48845703125 0.57395859375
vt 0.48845703125 0.571875
vt 0.4921875 0.57395859375
vt 0.4921875 0.57683828125
vt 0.48845703125 0.57683828125
vt 0.48845703125 0.57395859375
vt 0.44164296875 0.978125
vt 0.44164296875 0.98020859375
vt 0.43335703125 0.98020859375
vt 0.43335703125 0.978125
vt 0.44164296875 0.98020859375
vt 0.44164296875 0.98308828125
vt 0.43335703125 0.98308828125
vt 0.43335703125 0.98020859375
vt 0.06623046875 0.49375
vt 0.06623046875 0.49583359375
vt 0.0625 0.49583359375
vt 0.0625 0.49375
vt 0.06623046875 0.49583359375
vt 0.06623046875 0.49871328125000003
vt 0.0625 0.49871328125000003
vt 0.0625 0.49583359375
vt 0.4187328125 0.5875
vt 0.4187328125 0.58958359375
vt 0.4093921875 0.58958359375
vt 0.4093921875 0.5875
vt 0.4187328125 0.58958359375
vt 0.4187328125 0.59246328125
vt 0.4093921875 0.59246328125
vt 0.4093921875 0.58958359375
vt 0.1953125 0.49375
vt 0.1953125 0.49583359375
vt 0.19158203125 0.49583359375
vt 0.19158203125 0.49375
vt 0.1953125 0.49583359375
vt 0.1953125 0.49871328125000003
vt 0.19158203125 0.49871328125000003
vt 0.19158203125 0.49583359375
vn -1 3.996802888650565e-15 -1.9332019045709208e-15
vn 4.026292430662373e-15 0.6328859753093352 -0.7742450143570521
vn 1 -3.996802888650565e-15 1.9332019045709208e-15
vn -1 3.996802888650565e-15 -1.9332019045709208e-15
vn 3.996802888650562e-15 1 1.010643099614868e-15
vn 1 -3.996802888650565e-15 1.9332019045709208e-15
vn -1 3.996802888650565e-15 -1.9332019045709208e-15
vn 1.0327485579431824e-15 0.6328859753093342 0.7742450143570528
vn 1 -3.996802888650565e-15 1.9332019045709208e-15
vn -1 3.996802888650565e-15 -1.9332019045709208e-15
vn -1.9332019045709247e-15 -1.0106430996148602e-15 1
vn 1 -3.996802888650565e-15 1.9332019045709208e-15
vn -1 3.996802888650565e-15 -1.9332019045709208e-15
vn -4.026292430662372e-15 -0.6328859753093347 0.7742450143570525
vn 1 -3.996802888650565e-15 1.9332019045709208e-15
vn -1 3.996802888650565e-15 -1.9332019045709208e-15
vn -3.996802888650562e-15 -1 -1.010643099614868e-15
vn 1 -3.996802888650565e-15 1.9332019045709208e-15
vn -1 3.996802888650565e-15 -1.9332019045709208e-15
vn -1.0327485579431777e-15 -0.6328859753093334 -0.7742450143570535
vn 1 -3.996802888650565e-15 1.9332019045709208e-15
vn -1 3.996802888650565e-15 -1.9332019045709208e-15
vn 1.933201904570924e-15 8.012824845088422e-16 -1
vn 1 -3.996802888650565e-15 1.9332019045709208e-15
vn 1.933201904570924e-15 8.012824845088421e-16 -1
vn 1.933201904570924e-15 8.012824845088421e-16 -1
vn -1.0327485579431778e-15 -0.6328859753093334 -0.7742450143570534
vn -1.0327485579431777e-15 -0.6328859753093334 -0.7742450143570535
vn -3.996802888650562e-15 -1 -1.010643099614868e-15
vn -3.996802888650562e-15 -1 -1.010643099614868e-15
vn -4.026292430662372e-15 -0.6328859753093348 0.7742450143570525
vn -4.026292430662372e-15 -0.6328859753093348 0.7742450143570525
vn -1.9332019045709247e-15 -1.0106430996148602e-15 1
vn -1.9332019045709247e-15 -1.0106430996148602e-15 1
vn 1.0327485579431824e-15 0.6328859753093342 0.7742450143570527
vn 1.0327485579431824e-15 0.6328859753093342 0.7742450143570527
vn 3.996802888650562e-15 1 1.010643099614868e-15
vn 3.996802888650562e-15 1 1.010643099614868e-15
vn 4.026292430662373e-15 0.6328859753093352 -0.774245014357052
vn 4.026292430662373e-15 0.6328859753093352 -0.774245014357052
usemtl m_ff70f691-bde8-f186-4486-f40bb40d341f
f 159/479/139 157/480/139 155/481/139
f 158/482/140 175/483/140 188/484/140 160/485/140
f 158/486/141 160/487/141 156/488/141
f 161/489/142 159/490/142 155/491/142
f 160/492/143 188/493/143 186/494/143 162/495/143
f 160/496/144 162/497/144 156/498/144
f 163/499/145 161/500/145 155/501/145
f 162/502/146 186/503/146 184/504/146 164/505/146
f 162/506/147 164/507/147 156/508/147
f 165/509/148 163/510/148 155/511/148
f 164/512/149 184/513/149 182/514/149 166/515/149
f 164/516/150 166/517/150 156/518/150
f 167/519/151 165/520/151 155/521/151
f 166/522/152 182/523/152 180/524/152 168/525/152
f 166/526/153 168/527/153 156/528/153
f 169/529/154 167/530/154 155/531/154
f 168/532/155 180/533/155 178/534/155 170/535/155
f 168/536/156 170/537/156 156/538/156
f 171/539/157 169/540/157 155/541/157
f 170/542/158 178/543/158 176/544/158 172/545/158
f 170/546/159 172/547/159 156/548/159
f 157/549/160 171/550/160 155/551/160
f 172/552/161 176/553/161 175/554/161 158/555/161
f 172/556/162 158/557/162 156/558/162
f 157/559/163 173/560/163 174/561/163 171/562/163
f 173/563/164 175/564/164 176/565/164 174/566/164
f 171/567/165 174/568/165 177/569/165 169/570/165
f 174/571/166 176/572/166 178/573/166 177/574/166
f 169/575/167 177/576/167 179/577/167 167/578/167
f 177/579/168 178/580/168 180/581/168 179/582/168
f 167/583/169 179/584/169 181/585/169 165/586/169
f 179/587/170 180/588/170 182/589/170 181/590/170
f 165/591/171 181/592/171 183/593/171 163/594/171
f 181/595/172 182/596/172 184/597/172 183/598/172
f 163/599/173 183/600/173 185/601/173 161/602/173
f 183/603/174 184/604/174 186/605/174 185/606/174
f 161/607/175 185/608/175 187/609/175 159/610/175
f 185/611/176 186/612/176 188/613/176 187/614/176
f 159/615/177 187/616/177 173/617/177 157/618/177
f 187/619/178 188/620/178 175/621/178 173/622/178