# Made in Blockbench 5.1.5
mtllib WiccanRightArm.mtl

o cuboid
v 0.8250000000000001 1.0687500000000014 -0.11718749999999994
v 0.8250000000000001 0.9437500000000018 -0.11718749999999994
v 0.85 1.018750000000002 -0.11718749999999994
v 0.7250000000000001 1.018750000000002 -0.11718749999999994
v 0.7250000000000001 1.0687500000000014 -0.11718749999999994
v 0.7250000000000001 0.9437500000000018 -0.11718749999999994
v 0.85 1.018750000000002 -0.042187500000000024
v 0.8250000000000001 0.9437500000000018 -0.042187500000000024
v 0.8250000000000001 1.0687500000000014 -0.042187500000000024
v 0.6250000000000001 0.9062500000000014 -0.14843749999999997
v 0.7250000000000001 0.9062500000000014 -0.14843749999999997
v 0.6250000000000001 0.9062500000000017 -0.042187500000000024
v 0.6812500000000001 1.0687500000000014 -0.11718749999999994
v 0.6812500000000001 1.018750000000002 -0.11718749999999994
v 0.6812500000000001 0.9062500000000014 -0.14843749999999997
v 0.6812500000000001 0.9062500000000017 -0.042187500000000024
v 0.7250000000000001 0.9187500000000016 -0.11718749999999994
v 0.8171875000000001 0.9187500000000016 -0.042187500000000024
v 0.8171875000000001 0.9187500000000016 -0.11718749999999994
v 0.8250000000000001 1.0687500000000014 0.10937499999999997
v 0.8250000000000001 0.9437500000000018 0.10937499999999997
v 0.6250000000000001 1.0687500000000014 0.08437499999999995
v 0.6250000000000001 1.0687500000000014 -0.11718749999999994
v 0.6250000000000001 0.9437500000000018 0.08437499999999995
v 0.6250000000000001 0.9437500000000018 -0.11718749999999994
v 0.6250000000000001 1.018750000000002 -0.11718749999999994
v 0.85 1.018750000000002 0.10937499999999997
v 0.6250000000000001 1.018750000000002 0.08437499999999995
v 0.7250000000000001 1.0687500000000014 0.10937499999999997
v 0.7250000000000001 1.018750000000002 0.10937499999999997
v 0.7250000000000001 0.9437500000000018 0.10937499999999997
v 0.7250000000000001 0.9437500000000018 -0.042187500000000024
v 0.6250000000000001 0.9437500000000018 -0.042187500000000024
v 0.6250000000000001 1.018750000000002 -0.042187500000000024
v 0.6250000000000001 1.0687500000000014 -0.042187500000000024
v 0.7250000000000001 1.0687500000000014 -0.042187500000000024
v 0.7250000000000001 0.9062500000000017 -0.042187500000000024
v 0.6812500000000001 0.9437500000000018 -0.042187500000000024
v 0.6812500000000001 0.9437500000000018 0.10937499999999997
v 0.6812500000000001 1.018750000000002 0.10937499999999997
v 0.6812500000000001 1.0687500000000014 0.10937499999999997
v 0.6812500000000001 1.0687500000000014 -0.042187500000000024
v 0.7250000000000001 0.9187500000000016 -0.042187500000000024
v 0.8171875000000001 0.9187500000000016 0.10937499999999997
v 0.7250000000000001 0.9187500000000016 0.10937499999999997
v 0.6812500000000001 0.9187500000000016 -0.042187500000000024
v 0.6812500000000001 0.9187500000000016 0.10937499999999997
v -0.8250000000000001 1.0687500000000014 -0.11718749999999994
v -0.8250000000000001 0.9437500000000018 -0.11718749999999994
v -0.85 1.018750000000002 -0.11718749999999994
v -0.7250000000000001 1.018750000000002 -0.11718749999999994
v -0.7250000000000001 1.0687500000000014 -0.11718749999999994
v -0.7250000000000001 0.9437500000000018 -0.11718749999999994
v -0.85 1.018750000000002 -0.042187500000000024
v -0.8250000000000001 0.9437500000000018 -0.042187500000000024
v -0.8250000000000001 1.0687500000000014 -0.042187500000000024
v -0.6250000000000001 0.9062500000000014 -0.14843749999999997
v -0.7250000000000001 0.9062500000000014 -0.14843749999999997
v -0.6250000000000001 0.9062500000000017 -0.042187500000000024
v -0.6812500000000001 1.0687500000000014 -0.11718749999999994
v -0.6812500000000001 1.018750000000002 -0.11718749999999994
v -0.6812500000000001 0.9062500000000014 -0.14843749999999997
v -0.6812500000000001 0.9062500000000017 -0.042187500000000024
v -0.7250000000000001 0.9187500000000016 -0.11718749999999994
v -0.8171875000000001 0.9187500000000016 -0.042187500000000024
v -0.8171875000000001 0.9187500000000016 -0.11718749999999994
v -0.8250000000000001 1.0687500000000014 0.10937499999999997
v -0.8250000000000001 0.9437500000000018 0.10937499999999997
v -0.6250000000000001 1.0687500000000014 0.08437499999999995
v -0.6250000000000001 1.0687500000000014 -0.11718749999999994
v -0.6250000000000001 0.9437500000000018 0.08437499999999995
v -0.6250000000000001 0.9437500000000018 -0.11718749999999994
v -0.6250000000000001 1.018750000000002 -0.11718749999999994
v -0.85 1.018750000000002 0.10937499999999997
v -0.6250000000000001 1.018750000000002 0.08437499999999995
v -0.7250000000000001 1.0687500000000014 0.10937499999999997
v -0.7250000000000001 1.018750000000002 0.10937499999999997
v -0.7250000000000001 0.9437500000000018 0.10937499999999997
v -0.7250000000000001 0.9437500000000018 -0.042187500000000024
v -0.6250000000000001 0.9437500000000018 -0.042187500000000024
v -0.6250000000000001 1.018750000000002 -0.042187500000000024
v -0.6250000000000001 1.0687500000000014 -0.042187500000000024
v -0.7250000000000001 1.0687500000000014 -0.042187500000000024
v -0.7250000000000001 0.9062500000000017 -0.042187500000000024
v -0.6812500000000001 0.9437500000000018 -0.042187500000000024
v -0.6812500000000001 0.9437500000000018 0.10937499999999997
v -0.6812500000000001 1.018750000000002 0.10937499999999997
v -0.6812500000000001 1.0687500000000014 0.10937499999999997
v -0.6812500000000001 1.0687500000000014 -0.042187500000000024
v -0.7250000000000001 0.9187500000000016 -0.042187500000000024
v -0.8171875000000001 0.9187500000000016 0.10937499999999997
v -0.7250000000000001 0.9187500000000016 0.10937499999999997
v -0.6812500000000001 0.9187500000000016 -0.042187500000000024
v -0.6812500000000001 0.9187500000000016 0.10937499999999997
vt 0.37021484375 0.83346875
vt 0.37021484375 0.82358671875
vt 0.36083984375 0.82358671875
vt 0.36083984375 0.83346875
vt 0.31875 0.890625
vt 0.31875 0.9
vt 0.334375 0.9
vt 0.33125 0.890625
vt 0.31875 0.9
vt 0.31875 0.90625
vt 0.33125 0.90625
vt 0.334375 0.9
vt 0.42490234375 0.765625
vt 0.42490234375 0.7586375
vt 0.41552734375 0.7586375
vt 0.41552734375 0.765625
vt 0.44453125 0.8046875
vt 0.44453125 0.81796875
vt 0.4515625 0.81796875
vt 0.4515625 0.8046875
vt 0.106640625 0.896875
vt 0.102734375 0.8921875
vt 0.106640625 0.90625
vt 0.31328125 0.9
vt 0.31328125 0.90625
vt 0.31875 0.90625
vt 0.31875 0.9
vt 0.42265625 0.5635296875
vt 0.42265625 0.578125
vt 0.428125 0.578125
vt 0.428125 0.5635296875
vt 0.37021484375 0.82358671875
vt 0.37021484375 0.8203125
vt 0.36083984375 0.8203125
vt 0.36083984375 0.82358671875
vt 0.33125 0.890625
vt 0.3302734375 0.8875
vt 0.31875 0.8875
vt 0.31875 0.890625
vt 0.25 0.8890625
vt 0.2375 0.8890625
vt 0.2375 0.8984375
vt 0.25 0.8984375
vt 0.20634765625 0.6578125
vt 0.21787109375 0.6578125
vt 0.21787109375 0.6484375
vt 0.20634765625 0.6484375
vt 0.360546875 0.80625
vt 0.360546875 0.796875
vt 0.348046875 0.796875
vt 0.344921875 0.80625
vt 0.29033203125 0.875
vt 0.29033203125 0.884375
vt 0.29970703125 0.884375
vt 0.29970703125 0.875
vt 0.360546875 0.8125
vt 0.360546875 0.80625
vt 0.344921875 0.80625
vt 0.348046875 0.8125
vt 0.29033203125 0.884375
vt 0.29033203125 0.890625
vt 0.29970703125 0.890625
vt 0.29970703125 0.884375
vt 0.31328125 0.90625
vt 0.31328125 0.9
vt 0.30625 0.9
vt 0.30625 0.90625
vt 0.25546875 0.8890625
vt 0.25546875 0.8984375
vt 0.2625 0.8984375
vt 0.2625 0.8890625
vt 0.29699296875000003 0.5328125
vt 0.29699296875000003 0.5390625
vt 0.3046875 0.5390625
vt 0.3046875 0.5328125
vt 0.29699296875000003 0.5234375
vt 0.29699296875000003 0.5328125
vt 0.3046875 0.5328125
vt 0.3046875 0.5234375
vt 0.42265625 0.578125
vt 0.42265625 0.5635296875
vt 0.415625 0.5635296875
vt 0.415625 0.578125
vt 0.37021484375 0.82358671875
vt 0.37021484375 0.83346875
vt 0.38916015625 0.83346875
vt 0.38916015625 0.82358671875
vt 0.21787109375 0.6578125
vt 0.20634765625 0.6578125
vt 0.20634765625 0.6767578125
vt 0.21787109375 0.6767578125
vt 0.1875 0.5234375
vt 0.1875 0.5390625
vt 0.1953125 0.5359375
vt 0.1953125 0.5234375
vt 0.29033203125 0.884375
vt 0.29033203125 0.875
vt 0.27451171875 0.875
vt 0.27451171875 0.884375
vt 0.29033203125 0.890625
vt 0.29033203125 0.884375
vt 0.27451171875 0.884375
vt 0.27451171875 0.890625
vt 0.25546875 0.8701171875
vt 0.25546875 0.8890625
vt 0.2625 0.8890625
vt 0.2625 0.8732421875
vt 0.2375 0.8890625
vt 0.25 0.8890625
vt 0.25 0.8701171875
vt 0.2375 0.8701171875
vt 0.42490234375 0.7586375
vt 0.42490234375 0.765625
vt 0.44384765625 0.765625
vt 0.44384765625 0.7586375
vt 0.29970703125 0.884375
vt 0.30361328125 0.8703125
vt 0.29970703125 0.875
vt 0.29970703125 0.875
vt 0.30361328125 0.8703125
vt 0.29033203125 0.8703125
vt 0.29033203125 0.875
vt 0.49921875 0.784375
vt 0.49921875 0.7890625
vt 0.50625 0.7890625
vt 0.50625 0.784375
vt 0.116015625 0.896875
vt 0.116015625 0.8921875
vt 0.102734375 0.8921875
vt 0.106640625 0.896875
vt 0.22333984375 0.6767578125
vt 0.22333984375 0.6578125
vt 0.21787109375 0.6578125
vt 0.21787109375 0.6767578125
vt 0.366015625 0.80625
vt 0.366015625 0.796875
vt 0.360546875 0.796875
vt 0.360546875 0.80625
vt 0.366015625 0.8125
vt 0.366015625 0.80625
vt 0.360546875 0.80625
vt 0.360546875 0.8125
vt 0.25546875 0.8890625
vt 0.25546875 0.8701171875
vt 0.25 0.8701171875
vt 0.25 0.8890625
vt 0.25546875 0.8984375
vt 0.25546875 0.8890625
vt 0.25 0.8890625
vt 0.25 0.8984375
vt 0.44453125 0.81796875
vt 0.44453125 0.8046875
vt 0.4390625 0.8046875
vt 0.4390625 0.81796875
vt 0.49921875 0.7890625
vt 0.49921875 0.784375
vt 0.49375 0.784375
vt 0.49375 0.7890625
vt 0.0703125 0.8046875
vt 0.0703125 0.796875
vt 0.0625 0.796875
vt 0.0625 0.8046875
vt 0.38916015625 0.82358671875
vt 0.38916015625 0.8203125
vt 0.37021484375 0.8203125
vt 0.37021484375 0.82358671875
vt 0.360546875 0.796875
vt 0.360546875 0.79375
vt 0.3490234375 0.79375
vt 0.348046875 0.796875
vt 0.234375 0.8046875
vt 0.234375 0.796875
vt 0.2265625 0.796875
vt 0.2265625 0.8046875
vt 0.21875 0.8359375
vt 0.21875 0.828125
vt 0.203125 0.828125
vt 0.203125 0.8359375
vt 0.366015625 0.796875
vt 0.366015625 0.79375
vt 0.360546875 0.79375
vt 0.360546875 0.796875
vn 0.9486832980505144 -0.3162277660168363 0
vn 0 0 -1
vn 0 0 -1
vn 0.8944271909999143 0.44721359549996115 0
vn 0 -1 2.0898315757650014e-15
vn 1 0 0
vn 0 0 -1
vn 0 0.2676438637860938 -0.963517909629941
vn 0.9544799780350304 -0.2982749931359454 0
vn 0 0 -1
vn 0 1 0
vn 0 -1 0
vn 0 0 1
vn -1 0 0
vn 0 0 1
vn -1 0 0
vn 0 0 -1
vn 0 1 0
vn -0.4061384660534478 0 0.9138115486202572
vn -0.4061384660534478 0 0.913811548620257
vn 0 0.2676438637860938 -0.963517909629941
vn 0.9486832980505144 -0.3162277660168363 0
vn 0 -1 0
vn 0 -1 0
vn -1 0 0
vn -1 0 0
vn 0 1 0
vn 0 1 0
vn 0.8944271909999143 0.44721359549996115 0
vn -1 0 0
vn -1 0 0
vn 0 0 1
vn 1 0 0
vn 0 -1 0
vn 0 0 1
vn 0 0 1
vn 0 1 0
vn 0 1 0
vn 0 -1 2.0898315757650014e-15
vn 0 0 1
vn -1 0 0
vn 0.9544799780350303 -0.29827499313594535 0
vn 0 0 1
vn 0 0 -1
vn -1 0 0
vn 0 0 1
usemtl m_ff70f691-bde8-f186-4486-f40bb40d341f
f 7/1/1 8/2/1 2/3/1 3/4/1
f 6/5/2 4/6/2 3/7/2 2/8/2
f 4/9/3 5/10/3 1/11/3 3/12/3
f 9/13/4 7/14/4 3/15/4 1/16/4
f 15/17/5 16/18/5 12/19/5 10/20/5
f 6/21/6 11/22/6 4/23/6
f 14/24/7 13/25/7 5/26/7 4/27/7
f 15/28/8 14/29/8 4/30/8 11/31/8
f 8/32/9 18/33/9 19/34/9 2/35/9
f 2/36/10 19/37/10 17/38/10 6/39/10
f 36/40/11 9/41/11 1/42/11 5/43/11
f 18/44/12 43/45/12 17/46/12 19/47/12
f 30/48/13 31/49/13 21/50/13 27/51/13
f 33/52/14 34/53/14 26/54/14 25/55/14
f 29/56/15 30/57/15 27/58/15 20/59/15
f 34/60/16 35/61/16 23/62/16 26/63/16
f 13/64/17 14/65/17 26/66/17 23/67/17
f 42/68/18 13/69/18 23/70/18 35/71/18
f 40/72/19 41/73/19 22/74/19 28/75/19
f 39/76/20 40/77/20 28/78/20 24/79/20
f 14/80/21 15/81/21 10/82/21 26/83/21
f 8/84/22 7/85/22 27/86/22 21/87/22
f 43/88/23 18/89/23 44/90/23 45/91/23
f 38/92/24 39/93/24 24/94/24 33/95/24
f 34/96/25 33/97/25 24/98/25 28/99/25
f 35/100/26 34/101/26 28/102/26 22/103/26
f 41/104/27 42/105/27 35/106/27 22/107/27
f 9/108/28 36/109/28 29/110/28 20/111/28
f 7/112/29 9/113/29 20/114/29 27/115/29
f 26/116/30 10/117/30 25/118/30
f 25/119/31 10/120/31 12/121/31 33/122/31
f 16/123/32 38/124/32 33/125/32 12/126/32
f 32/127/33 37/128/33 11/129/33 6/130/33
f 47/131/34 46/132/34 43/133/34 45/134/34
f 40/135/35 39/136/35 31/137/35 30/138/35
f 41/139/36 40/140/36 30/141/36 29/142/36
f 42/143/37 41/144/37 29/145/37 36/146/37
f 13/147/38 42/148/38 36/149/38 5/150/38
f 16/151/39 15/152/39 11/153/39 37/154/39
f 38/155/40 16/156/40 37/157/40 32/158/40
f 6/159/41 17/160/41 43/161/41 32/162/41
f 21/163/42 44/164/42 18/165/42 8/166/42
f 31/167/43 45/168/43 44/169/43 21/170/43
f 32/171/44 43/172/44 46/173/44 38/174/44
f 38/175/45 46/176/45 47/177/45 39/178/45
f 39/179/46 47/180/46 45/181/46 31/182/46
o cylinder
v 0.32500000000000007 1.0250000000000001 -4.5102810375396984e-17
v 0.32500000000000007 1.0638325214724778 0.09374999999999992
v 0.6124999999999999 1.0724873734152918 0.17499999999999993
v 0.32500000000000007 1.1187500000000001 0.03883252147247761
v 0.6124999999999998 1.1750000000000003 0.0724873734152916
v 0.32500000000000007 1.1187500000000001 -0.03883252147247769
v 0.6124999999999998 1.1750000000000003 -0.07248737341529166
v 0.32500000000000007 1.0638325214724778 -0.09375000000000001
v 0.6124999999999999 1.072487373415292 -0.17500000000000002
v 0.32500000000000007 0.9861674785275225 -0.09375000000000003
v 0.6124999999999999 0.9275126265847087 -0.17500000000000004
v 0.32500000000000007 0.9312500000000002 -0.03883252147247775
v 0.6125 0.8250000000000003 -0.07248737341529178
v 0.32500000000000007 0.9312500000000001 0.03883252147247763
v 0.6125 0.8250000000000002 0.07248737341529164
v 0.32500000000000007 0.9861674785275224 0.0937499999999999
v 0.6124999999999999 0.9275126265847085 0.1749999999999999
v 0.5062500000000001 1.0000000000000002 -3.608224830031758e-17
v 0.6124999999999999 1.0577724366119876 0.13947499999999993
v 0.6124999999999999 1.1394750000000002 0.057772436611987395
v 0.6124999999999999 1.1394750000000002 -0.05777243661198746
v 0.6124999999999999 1.0577724366119876 -0.13947500000000002
v 0.6124999999999999 0.9422275633880128 -0.13947500000000004
v 0.6125 0.8605250000000003 -0.057772436611987554
v 0.6125 0.8605250000000002 0.05777243661198743
v 0.6124999999999999 0.9422275633880127 0.1394749999999999
v 0.7312499999999997 0.7927625000000003 -6.922924353186336e-17
v 0.7312499999999997 0.8534609584338531 0.1465390415661471
v 0.7312499999999997 1.0000000000000002 0.20723749999999994
v 0.7312499999999997 1.1465390415661474 0.14653904156614708
v 0.7312499999999997 1.2072375000000002 -1.8929571762976424e-17
v 0.7312499999999997 1.1465390415661474 -0.14653904156614717
v 0.7312499999999997 1.0000000000000002 -0.20723750000000005
v 0.7312499999999997 0.8534609584338532 -0.14653904156614725
vt 0.29782265625 0.7421875
vt 0.3046875 0.7353226562499999
vt 0.29296875 0.73046875
vt 0.1640625 0.77118046875
vt 0.16206484375 0.734375
vt 0.15235703125 0.734375
vt 0.145940625 0.77118046875
vt 0.40954234821864666 0.7890625
vt 0.4140625 0.7753450813584697
vt 0.390986877767205 0.7753450813584697
vt 0.3046875 0.7353226562499999
vt 0.3046875 0.7256148437500001
vt 0.29296875 0.73046875
vt 0.020779687499999998 0.75536875
vt 0.016572656249999998 0.71875
vt 0.00686484375 0.71875
vt 0.0026578125000000005 0.75536875
vt 0.02439091967748653 0.609375
vt 0.03810908032251347 0.6048546037143041
vt 0.02439091967748653 0.586299377767205
vt 0.3046875 0.7256148437500001
vt 0.29782265625 0.71875
vt 0.29296875 0.73046875
vt 0.08062187500000001 0.77118046875
vt 0.07420546875 0.734375
vt 0.06449765625000001 0.734375
vt 0.0625 0.77118046875
vt 0.390625 0.765625
vt 0.40434241864153037 0.7611048482186467
vt 0.390625 0.742549377767205
vt 0.29782265625 0.71875
vt 0.28811484375 0.71875
vt 0.29296875 0.73046875
vt 0.2239046875 0.8810953125000001
vt 0.21657265625 0.84375
vt 0.20686484375 0.84375
vt 0.2057828125 0.8810953125000001
vt 0.3837659196774865 0.6171875
vt 0.3974840803225135 0.6126671037143041
vt 0.3837659196774865 0.594111877767205
vt 0.28811484375 0.71875
vt 0.28125 0.7256148437500001
vt 0.29296875 0.73046875
vt 0.21875 0.80363046875
vt 0.21233359375 0.765625
vt 0.20262578125 0.765625
vt 0.200628125 0.80363046875
vt 0.04878253346622112 0.609375
vt 0.0625 0.6048549935610519
vt 0.048782533466221106 0.586298635762413
vt 0.28125 0.7256148437500001
vt 0.28125 0.7353226562499999
vt 0.29296875 0.73046875
vt 0.0520296875 0.78831328125
vt 0.04782265625 0.75
vt 0.03811484375 0.75
vt 0.0339078125 0.78831328125
vt 0.383765895730067 0.9140625
vt 0.397484104269933 0.9095422490645712
vt 0.383765895730067 0.890986135762413
vt 0.28125 0.7353226562499999
vt 0.28811484375 0.7421875
vt 0.29296875 0.73046875
vt 0.127496875 0.78800546875
vt 0.12549921875 0.75
vt 0.11579140625 0.75
vt 0.109375 0.78800546875
vt 0.4091813577986388 0.890625
vt 0.41370136423758697 0.8769075334662211
vt 0.390625 0.8769075334662211
vt 0.28811484375 0.7421875
vt 0.29782265625 0.7421875
vt 0.29296875 0.73046875
vt 0.2239046875 0.9435953125000001
vt 0.22282265625 0.90625
vt 0.21311484375 0.90625
vt 0.2057828125 0.9435953125000001
vt 0.3837659196774865 0.6484375
vt 0.3974840803225135 0.6439171037143041
vt 0.3837659196774865 0.625361877767205
vt 0.25897271081078055 0.5886316673861651
vt 0.27227728918921945 0.6015625
vt 0.27227728918921945 0.5830093806419233
vt 0.484375 0.96875
vt 0.5029282616063956 0.96875
vt 0.48568644815079914 0.9641261333485636
vt 0.0339078125 0.78831328125
vt 0.04296875 0.80369453125
vt 0.0520296875 0.78831328125
vt 0.479569245220437 0.6383989419347802
vt 0.479569245220437 0.65625
vt 0.484375 0.6383299487379623
vt 0.3515625 0.588630425589654
vt 0.3648664508899494 0.6015625
vt 0.3648664508899494 0.5830086610062433
vt 0.4892584867885678 0.984375
vt 0.5078125 0.984375
vt 0.4905698818138774 0.9797511182811307
vt 0.109375 0.78800546875
vt 0.1184359375 0.80338671875
vt 0.127496875 0.78800546875
vt 0.46394346099278916 0.5133981719624509
vt 0.46394346099278916 0.53125
vt 0.46875 0.5133293808973529
vt 0.1886601647359392 0.5886307296825075
vt 0.2019648352640608 0.6015625
vt 0.2019648352640608 0.5830086610062433
vt 0.3720709867885678 0.5234375
vt 0.390625 0.5234375
vt 0.3733825949795187 0.5188128666748695
vt 0.2057828125 0.9435953125000001
vt 0.21484375 0.9589765625
vt 0.2239046875 0.9435953125000001
vt 0.4765625 0.8180856719624509
vt 0.4765625 0.8359375
vt 0.48136825783721127 0.8180168920774382
vt 0.2835710491100506 0.588630425589654
vt 0.296875 0.6015625
vt 0.296875 0.5830086610062433
vt 0 0.515625
vt 0.018553800061014494 0.515625
vt 0.0013112077128235103 0.5110010651608903
vt 0.145940625 0.77118046875
vt 0.1550015625 0.78656171875
vt 0.1640625 0.77118046875
vt 0.3515625 0.5055864531324469
vt 0.3515625 0.5234375
vt 0.3563682577941336 0.505517670237595
vt 0.23553521081078055 0.5886316673861651
vt 0.24883978918921945 0.6015625
vt 0.24883978918921942 0.5830093806419233
vt 0.484375 1
vt 0.5029288000610145 1
vt 0.4856862077128235 0.9953760651608903
vt 0.0026578125000000005 0.75536875
vt 0.01171875 0.77075
vt 0.020779687499999998 0.75536875
vt 0.27644424216278873 0.5055856719624509
vt 0.27644424216278873 0.5234375
vt 0.28125 0.5055168920774382
vt 0.3046875 0.588630213642392
vt 0.3179916689319955 0.6015625
vt 0.3179916689319955 0.5830089650851404
vt 0.4892594515526571 0.953125
vt 0.5078125 0.953125
vt 0.4905707123846026 0.9485010802241923
vt 0.0625 0.77118046875
vt 0.0715609375 0.78656171875
vt 0.08062187500000001 0.77118046875
vt 0.47956924216278873 0.7399606719624509
vt 0.47956924216278873 0.7578125
vt 0.484375 0.7398918920774382
vt 0.2120976647359392 0.5886307296825075
vt 0.2254023352640608 0.6015625
vt 0.2254023352640608 0.5830086610062433
vt 0.4814461999389855 0.53125
vt 0.5 0.53125
vt 0.482757407651809 0.5266260651608903
vt 0.2057828125 0.8810953125000001
vt 0.21484375 0.8964765625
vt 0.2239046875 0.8810953125000001
vt 0.03125 0.5055856719624509
vt 0.03125 0.5234375
vt 0.03605653900721083 0.5055168808973529
vt 0.3304458310680045 0.588630213642392
vt 0.34375 0.6015625
vt 0.34375 0.5830089650851404
vt 0.4765625 0.625
vt 0.4951165132114322 0.625
vt 0.4778741081909509 0.6203753666748695
vt 0.200628125 0.80363046875
vt 0.2096890625 0.81901171875
vt 0.21875 0.80363046875
vt 0.4765625 0.9040231607652741
vt 0.4765625 0.921875
vt 0.4813682548229045 0.9039541705874943
vn -1 -2.220446049250313e-16 0
vn -0.21590582836590722 0.690429096025664 0.6904290960256643
vn 0.7954775411051308 -0.4284947383558723 -0.4284947383558725
vn -1 -2.220446049250313e-16 0
vn -0.1920116063856566 0.9813926548600207 0
vn 0.795477541105131 -0.6059830703883855 0
vn -1 -2.220446049250313e-16 0
vn -0.21590582836590724 0.6904290960256642 -0.6904290960256642
vn 0.7954775411051309 -0.4284947383558723 0.42849473835587226
vn -1 -2.220446049250313e-16 0
vn -0.27195700522594773 8.913763409522736e-17 -0.9623094031071993
vn 0.795477541105131 3.1065462447798475e-17 0.6059830703883855
vn -1 -2.220446049250313e-16 0
vn -0.3253725555833512 -0.6686302042508845 -0.6686302042508846
vn 0.7954775411051308 0.4284947383558724 0.4284947383558723
vn -1 -2.220446049250313e-16 0
vn -0.34665014087162876 -0.9379944988291137 -2.9149231054727813e-16
vn 0.7954775411051308 0.6059830703883856 2.911320677872511e-16
vn -1 -2.220446049250313e-16 0
vn -0.3253725555833512 -0.6686302042508848 0.6686302042508843
vn 0.7954775411051307 0.42849473835587243 -0.42849473835587226
vn -1 -2.220446049250313e-16 0
vn -0.2719570052259478 -2.0991080565920777e-16 0.9623094031071993
vn 0.7954775411051307 3.2219753023504973e-16 -0.6059830703883856
vn 0.4956170207732903 0.8685411727257425 4.1727269280302956e-16
vn 0.5553772611028213 0.31823897584153427 -0.7682968515523543
vn -0.2619911810199077 -0.9650702674250171 -3.695275400371945e-16
vn 0.555377261102821 0.318238975841534 0.7682968515523544
vn 0.49561702077329034 0.6141513529740891 -0.614151352974089
vn 0.5553772611028206 -0.318238975841534 -0.7682968515523548
vn -0.26199118101990765 -0.6824077304177446 0.6824077304177444
vn 0.5553772611028203 0.7682968515523548 0.3182389758415343
vn 0.49561702077329045 3.1868543197324113e-16 -0.8685411727257424
vn 0.5553772611028214 -0.7682968515523544 -0.3182389758415342
vn -0.26199118101990787 -2.429374983020051e-16 0.9650702674250172
vn 0.5553772611028209 0.7682968515523548 -0.3182389758415337
vn 0.49561702077329056 -0.6141513529740888 -0.614151352974089
vn 0.555377261102821 -0.7682968515523545 0.3182389758415337
vn -0.2619911810199079 0.6824077304177444 0.6824077304177445
vn 0.5553772611028205 0.31823897584153404 -0.7682968515523547
vn 0.4956170207732905 -0.8685411727257424 0
vn 0.5553772611028208 -0.31823897584153377 0.7682968515523545
vn -0.261991181019908 0.9650702674250171 0
vn 0.5553772611028209 -0.31823897584153366 -0.7682968515523547
vn 0.49561702077329045 -0.614151352974089 0.6141513529740888
vn 0.5553772611028207 0.3182389758415339 0.7682968515523547
vn -0.2619911810199079 0.6824077304177445 -0.6824077304177443
vn 0.5553772611028208 -0.7682968515523546 -0.31823897584153393
vn 0.49561702077329045 -9.858726082978869e-17 0.8685411727257425
vn 0.5553772611028206 0.7682968515523547 0.3182389758415339
vn -0.26199118101990787 1.2659004173518966e-16 -0.9650702674250172
vn 0.5553772611028212 -0.7682968515523545 0.3182389758415337
vn 0.49561702077329034 0.614151352974089 0.6141513529740891
vn 0.5553772611028205 0.768296851552355 -0.3182389758415338
vn -0.2619911810199076 -0.6824077304177443 -0.6824077304177446
vn 0.5553772611028206 -0.3182389758415342 0.7682968515523546
usemtl m_ff70f691-bde8-f186-4486-f40bb40d341f
f 96/183/47 98/184/47 95/185/47
f 99/186/48 98/187/48 96/188/48 97/189/48
f 114/190/49 113/191/49 112/192/49
f 98/193/50 100/194/50 95/195/50
f 101/196/51 100/197/51 98/198/51 99/199/51
f 115/200/52 114/201/52 112/202/52
f 100/203/53 102/204/53 95/205/53
f 103/206/54 102/207/54 100/208/54 101/209/54
f 116/210/55 115/211/55 112/212/55
f 102/213/56 104/214/56 95/215/56
f 105/216/57 104/217/57 102/218/57 103/219/57
f 117/220/58 116/221/58 112/222/58
f 104/223/59 106/224/59 95/225/59
f 107/226/60 106/227/60 104/228/60 105/229/60
f 118/230/61 117/231/61 112/232/61
f 106/233/62 108/234/62 95/235/62
f 109/236/63 108/237/63 106/238/63 107/239/63
f 119/240/64 118/241/64 112/242/64
f 108/243/65 110/244/65 95/245/65
f 111/246/66 110/247/66 108/248/66 109/249/66
f 120/250/67 119/251/67 112/252/67
f 110/253/68 96/254/68 95/255/68
f 97/256/69 96/257/69 110/258/69 111/259/69
f 113/260/70 120/261/70 112/262/70
f 119/263/71 121/264/71 118/265/71
f 118/266/72 121/267/72 107/268/72
f 107/269/73 121/270/73 109/271/73
f 109/272/74 121/273/74 119/274/74
f 120/275/75 122/276/75 119/277/75
f 119/278/76 122/279/76 109/280/76
f 109/281/77 122/282/77 111/283/77
f 111/284/78 122/285/78 120/286/78
f 113/287/79 123/288/79 120/289/79
f 120/290/80 123/291/80 111/292/80
f 111/293/81 123/294/81 97/295/81
f 97/296/82 123/297/82 113/298/82
f 114/299/83 124/300/83 113/301/83
f 113/302/84 124/303/84 97/304/84
f 97/305/85 124/306/85 99/307/85
f 99/308/86 124/309/86 114/310/86
f 115/311/87 125/312/87 114/313/87
f 114/314/88 125/315/88 99/316/88
f 99/317/89 125/318/89 101/319/89
f 101/320/90 125/321/90 115/322/90
f 116/323/91 126/324/91 115/325/91
f 115/326/92 126/327/92 101/328/92
f 101/329/93 126/330/93 103/331/93
f 103/332/94 126/333/94 116/334/94
f 117/335/95 127/336/95 116/337/95
f 116/338/96 127/339/96 103/340/96
f 103/341/97 127/342/97 105/343/97
f 105/344/98 127/345/98 117/346/98
f 118/347/99 128/348/99 117/349/99
f 117/350/100 128/351/100 105/352/100
f 105/353/101 128/354/101 107/355/101
f 107/356/102 128/357/102 118/358/102
o Arm
v 0.3343749999999954 1.0218750000000016 5.38902314746782e-16
v 0.15937499999999544 1.021875000000001 8.772126480466931e-16
v 0.3343749999999952 1.0550182628834883 -0.05624999999999941
v 0.1593749999999952 1.0550182628834877 -0.05624999999999907
v 0.33437499999999515 1.0781250000000013 -0.03736201288348599
v 0.15937499999999516 1.0781250000000007 -0.03736201288348566
v 0.33437499999999526 1.0781250000000013 0.03736201288348717
v 0.15937499999999527 1.0781250000000007 0.037362012883487505
v 0.3343749999999954 1.0550182628834883 0.05625000000000056
v 0.1593749999999954 1.0550182628834877 0.0562500000000009
v 0.33437499999999565 0.988731737116515 0.0562500000000005
v 0.1593749999999957 0.9887317371165142 0.056250000000000834
v 0.3343749999999957 0.965625000000002 0.03736201288348711
v 0.15937499999999571 0.9656250000000013 0.03736201288348745
v 0.3343749999999956 0.965625000000002 -0.03736201288348611
v 0.1593749999999956 0.9656250000000013 -0.03736201288348577
v 0.3343749999999954 0.9887317371165151 -0.05624999999999946
v 0.15937499999999546 0.9887317371165143 -0.05624999999999913
v 0.3177083333333286 1.0550182628834883 -0.05624999999999938
v 0.3177083333333288 0.988731737116515 -0.05624999999999943
v 0.29466911764705406 1.0550182628834883 -0.056249999999999335
v 0.2946691176470543 0.9887317371165149 -0.056249999999999384
v 0.317708333333329 0.965625000000002 -0.037362012883486076
v 0.29466911764705445 0.9656250000000018 -0.037362012883486034
v 0.3177083333333291 0.9656250000000018 0.037362012883487145
v 0.29466911764705456 0.9656250000000017 0.037362012883487186
v 0.31770833333332904 0.9887317371165149 0.05625000000000053
v 0.2946691176470545 0.9887317371165147 0.05625000000000058
v 0.3177083333333288 1.0550182628834883 0.0562500000000006
v 0.2946691176470543 1.055018262883488 0.05625000000000064
v 0.31770833333332865 1.0781250000000013 0.0373620128834872
v 0.2946691176470541 1.078125000000001 0.03736201288348725
v 0.31770833333332854 1.0781250000000013 -0.037362012883485965
v 0.294669117647054 1.0781250000000013 -0.037362012883485916
vt 0.24633046875 0.6703125
vt 0.24921875 0.6679515625
vt 0.2421875 0.66328125
vt 0.1953125 0.49871328125000003
vt 0.19158203125 0.49871328125000003
vt 0.19158203125 0.515625
vt 0.1953125 0.515625
vt 0.38984375 0.5742359375
vt 0.38695546875 0.571875
vt 0.3828125 0.57890625
vt 0.24921875 0.6679515625
vt 0.24921875 0.6586109375
vt 0.2421875 0.66328125
vt 0.4187328125 0.59246328125
vt 0.4093921875 0.59246328125
vt 0.4093921875 0.609375
vt 0.4187328125 0.609375
vt 0.38984375 0.5835765625
vt 0.38984375 0.5742359375
vt 0.3828125 0.57890625
vt 0.24921875 0.6586109375
vt 0.24633046875 0.65625
vt 0.2421875 0.66328125
vt 0.06623046875 0.49871328125000003
vt 0.0625 0.49871328125000003
vt 0.0625 0.515625
vt 0.06623046875 0.515625
vt 0.38695546875 0.5859375
vt 0.38984375 0.5835765625
vt 0.3828125 0.57890625
vt 0.24633046875 0.65625
vt 0.23804453125 0.65625
vt 0.2421875 0.66328125
vt 0.44164296875 0.98308828125
vt 0.43335703125 0.98308828125
vt 0.43335703125 1
vt 0.44164296875 1
vt 0.37866953125 0.5859375
vt 0.38695546875 0.5859375
vt 0.3828125 0.57890625
vt 0.23804453125 0.65625
vt 0.23515625 0.6586109375
vt 0.2421875 0.66328125
vt 0.4921875 0.57683828125
vt 0.48845703125 0.57683828125
vt 0.48845703125 0.59375
vt 0.4921875 0.59375
vt 0.37578125 0.5835765625
vt 0.37866953125 0.5859375
vt 0.3828125 0.57890625
vt 0.23515625 0.6586109375
vt 0.23515625 0.6679515625
vt 0.2421875 0.66328125
vt 0.4265453125 0.80340078125
vt 0.4172046875 0.80340078125
vt 0.4172046875 0.8203125
vt 0.4265453125 0.8203125
vt 0.37578125 0.5742359375
vt 0.37578125 0.5835765625
vt 0.3828125 0.57890625
vt 0.23515625 0.6679515625
vt 0.23804453125 0.6703125
vt 0.2421875 0.66328125
vt 0.31623046875 0.49871328125000003
vt 0.3125 0.49871328125000003
vt 0.3125 0.515625
vt 0.31623046875 0.515625
vt 0.37866953125 0.571875
vt 0.37578125 0.5742359375
vt 0.3828125 0.57890625
vt 0.23804453125 0.6703125
vt 0.24633046875 0.6703125
vt 0.2421875 0.66328125
vt 0.44164296875 0.95183828125
vt 0.43335703125 0.95183828125
vt 0.43335703125 0.96875
vt 0.44164296875 0.96875
vt 0.38695546875 0.571875
vt 0.37866953125 0.571875
vt 0.3828125 0.57890625
vt 0.43335703125 0.94895859375
vt 0.44164296875 0.94895859375
vt 0.44164296875 0.946875
vt 0.43335703125 0.946875
vt 0.43335703125 0.95183828125
vt 0.44164296875 0.95183828125
vt 0.44164296875 0.94895859375
vt 0.43335703125 0.94895859375
vt 0.3125 0.49583359375
vt 0.31623046875 0.49583359375
vt 0.31623046875 0.49375
vt 0.3125 0.49375
vt 0.3125 0.49871328125000003
vt 0.31623046875 0.49871328125000003
vt 0.31623046875 0.49583359375
vt 0.3125 0.49583359375
vt 0.4172046875 0.80052109375
vt 0.4265453125 0.80052109375
vt 0.4265453125 0.7984375
vt 0.4172046875 0.7984375
vt 0.4172046875 0.80340078125
vt 0.4265453125 0.80340078125
vt 0.4265453125 0.80052109375
vt 0.4172046875 0.80052109375
vt 0.48845703125 0.57395859375
vt 0.4921875 0.57395859375
vt 0.4921875 0.571875
vt 0.48845703125 0.571875
vt 0.48845703125 0.57683828125
vt 0.4921875 0.57683828125
vt 0.4921875 0.57395859375
vt 0.48845703125 0.57395859375
vt 0.43335703125 0.98020859375
vt 0.44164296875 0.98020859375
vt 0.44164296875 0.978125
vt 0.43335703125 0.978125
vt 0.43335703125 0.98308828125
vt 0.44164296875 0.98308828125
vt 0.44164296875 0.98020859375
vt 0.43335703125 0.98020859375
vt 0.0625 0.49583359375
vt 0.06623046875 0.49583359375
vt 0.06623046875 0.49375
vt 0.0625 0.49375
vt 0.0625 0.49871328125000003
vt 0.06623046875 0.49871328125000003
vt 0.06623046875 0.49583359375
vt 0.0625 0.49583359375
vt 0.4093921875 0.58958359375
vt 0.4187328125 0.58958359375
vt 0.4187328125 0.5875
vt 0.4093921875 0.5875
vt 0.4093921875 0.59246328125
vt 0.4187328125 0.59246328125
vt 0.4187328125 0.58958359375
vt 0.4093921875 0.58958359375
vt 0.19158203125 0.49583359375
vt 0.1953125 0.49583359375
vt 0.1953125 0.49375
vt 0.19158203125 0.49375
vt 0.19158203125 0.49871328125000003
vt 0.1953125 0.49871328125000003
vt 0.1953125 0.49583359375
vt 0.19158203125 0.49583359375
vn 1 3.996802888650565e-15 -1.9332019045709208e-15
vn -4.026292430662373e-15 0.6328859753093352 -0.7742450143570521
vn -1 -3.996802888650565e-15 1.9332019045709208e-15
vn 1 3.996802888650565e-15 -1.9332019045709208e-15
vn -3.996802888650562e-15 1 1.010643099614868e-15
vn -1 -3.996802888650565e-15 1.9332019045709208e-15
vn 1 3.996802888650565e-15 -1.9332019045709208e-15
vn -1.0327485579431824e-15 0.6328859753093342 0.7742450143570528
vn -1 -3.996802888650565e-15 1.9332019045709208e-15
vn 1 3.996802888650565e-15 -1.9332019045709208e-15
vn 1.9332019045709247e-15 -1.0106430996148602e-15 1
vn -1 -3.996802888650565e-15 1.9332019045709208e-15
vn 1 3.996802888650565e-15 -1.9332019045709208e-15
vn 4.026292430662372e-15 -0.6328859753093347 0.7742450143570525
vn -1 -3.996802888650565e-15 1.9332019045709208e-15
vn 1 3.996802888650565e-15 -1.9332019045709208e-15
vn 3.996802888650562e-15 -1 -1.010643099614868e-15
vn -1 -3.996802888650565e-15 1.9332019045709208e-15
vn 1 3.996802888650565e-15 -1.9332019045709208e-15
vn 1.0327485579431777e-15 -0.6328859753093334 -0.7742450143570535
vn -1 -3.996802888650565e-15 1.9332019045709208e-15
vn 1 3.996802888650565e-15 -1.9332019045709208e-15
vn -1.933201904570924e-15 8.012824845088422e-16 -1
vn -1 -3.996802888650565e-15 1.9332019045709208e-15
vn -1.933201904570924e-15 8.012824845088421e-16 -1
vn -1.933201904570924e-15 8.012824845088421e-16 -1
vn 1.0327485579431778e-15 -0.6328859753093334 -0.7742450143570534
vn 1.0327485579431777e-15 -0.6328859753093334 -0.7742450143570535
vn 3.996802888650562e-15 -1 -1.010643099614868e-15
vn 3.996802888650562e-15 -1 -1.010643099614868e-15
vn 4.026292430662372e-15 -0.6328859753093348 0.7742450143570525
vn 4.026292430662372e-15 -0.6328859753093348 0.7742450143570525
vn 1.9332019045709247e-15 -1.0106430996148602e-15 1
vn 1.9332019045709247e-15 -1.0106430996148602e-15 1
vn -1.0327485579431824e-15 0.6328859753093342 0.7742450143570527
vn -1.0327485579431824e-15 0.6328859753093342 0.7742450143570527
vn -3.996802888650562e-15 1 1.010643099614868e-15
vn -3.996802888650562e-15 1 1.010643099614868e-15
vn -4.026292430662373e-15 0.6328859753093352 -0.774245014357052
vn -4.026292430662373e-15 0.6328859753093352 -0.774245014357052
usemtl m_ff70f691-bde8-f186-4486-f40bb40d341f
f 131/359/103 133/360/103 129/361/103
f 162/362/104 149/363/104 132/364/104 134/365/104
f 134/366/105 132/367/105 130/368/105
f 133/369/106 135/370/106 129/371/106
f 160/372/107 162/373/107 134/374/107 136/375/107
f 136/376/108 134/377/108 130/378/108
f 135/379/109 137/380/109 129/381/109
f 158/382/110 160/383/110 136/384/110 138/385/110
f 138/386/111 136/387/111 130/388/111
f 137/389/112 139/390/112 129/391/112
f 156/392/113 158/393/113 138/394/113 140/395/113
f 140/396/114 138/397/114 130/398/114
f 139/399/115 141/400/115 129/401/115
f 154/402/116 156/403/116 140/404/116 142/405/116
f 142/406/117 140/407/117 130/408/117
f 141/409/118 143/410/118 129/411/118
f 152/412/119 154/413/119 142/414/119 144/415/119
f 144/416/120 142/417/120 130/418/120
f 143/419/121 145/420/121 129/421/121
f 150/422/122 152/423/122 144/424/122 146/425/122
f 146/426/123 144/427/123 130/428/123
f 145/429/124 131/430/124 129/431/124
f 149/432/125 150/433/125 146/434/125 132/435/125
f 132/436/126 146/437/126 130/438/126
f 148/439/127 147/440/127 131/441/127 145/442/127
f 150/443/128 149/444/128 147/445/128 148/446/128
f 151/447/129 148/448/129 145/449/129 143/450/129
f 152/451/130 150/452/130 148/453/130 151/454/130
f 153/455/131 151/456/131 143/457/131 141/458/131
f 154/459/132 152/460/132 151/461/132 153/462/132
f 155/463/133 153/464/133 141/465/133 139/466/133
f 156/467/134 154/468/134 153/469/134 155/470/134
f 157/471/135 155/472/135 139/473/135 137/474/135
f 158/475/136 156/476/136 155/477/136 157/478/136
f 159/479/137 157/480/137 137/481/137 135/482/137
f 160/483/138 158/484/138 157/485/138 159/486/138
f 161/487/139 159/488/139 135/489/139 133/490/139
f 162/491/140 160/492/140 159/493/140 161/494/140
f 147/495/141 161/496/141 133/497/141 131/498/141
f 149/499/142 162/500/142 161/501/142 147/502/142
o cylinder
v 0.16875000052683561 1.0187499982877848 0.06250000000000054
v 0.16875000052683561 1.0187499982877835 -0.062499999999999736
v 0.23750000013863137 1.0371715067162224 0.06250000000000032
v 0.23750000013863137 1.037171506716221 -0.06249999999999996
v 0.21907849248660227 1.0690784923687386 0.0625
v 0.21907849248660227 1.0690784923687373 -0.06250000000000029
v 0.1871715060576774 1.0874999986759888 0.06249999999999982
v 0.1871715060576774 1.0874999986759875 -0.06250000000000046
v 0.150328492098398 1.0874999978995805 0.06249999999999983
v 0.150328492098398 1.0874999978995792 -0.06250000000000043
v 0.11842150644588162 1.0690784902475512 0.06250000000000004
v 0.11842150644588162 1.0690784902475499 -0.06250000000000024
v 0.10000000013863138 1.0371715038186264 0.06250000000000037
v 0.10000000013863138 1.037171503818625 -0.0624999999999999
v 0.10000000091503981 1.0003284898593472 0.06250000000000076
v 0.10000000091503981 1.0003284898593459 -0.062499999999999514
v 0.11842150856706896 0.9684215042068307 0.0625000000000011
v 0.11842150856706896 0.9684215042068294 -0.062499999999999195
v 0.15032849499599385 0.9499999978995805 0.06250000000000126
v 0.15032849499599385 0.9499999978995791 -0.062499999999999015
v 0.18717150895527318 0.9499999986759889 0.06250000000000124
v 0.18717150895527318 0.9499999986759876 -0.06249999999999903
v 0.2190784946077896 0.968421506328018 0.06250000000000104
v 0.2190784946077896 0.9684215063280167 -0.06249999999999924
v 0.23750000091503987 1.000328492756943 0.06250000000000071
v 0.23750000091503987 1.0003284927569416 -0.06249999999999957
vt 0.41245859375 0.99375
vt 0.41644765625 0.99144765625
vt 0.41015625 0.98515625
vt 0.1796875 0.5390625
vt 0.1796875 0.5234375
vt 0.171875 0.5234375
vt 0.171875 0.5390625
vt 0.41644765625 0.95386484375
vt 0.41245859375 0.9515625
vt 0.41015625 0.96015625
vt 0.41644765625 0.99144765625
vt 0.41875 0.98745859375
vt 0.41015625 0.98515625
vt 0.4609375 0.5546875
vt 0.4609375 0.5390625
vt 0.453125 0.5390625
vt 0.453125 0.5546875
vt 0.41875 0.95785390625
vt 0.41644765625 0.95386484375
vt 0.41015625 0.96015625
vt 0.41875 0.98745859375
vt 0.41875 0.98285390625
vt 0.41015625 0.98515625
vt 0.2734375 0.78125
vt 0.2734375 0.765625
vt 0.265625 0.765625
vt 0.265625 0.78125
vt 0.41875 0.96245859375
vt 0.41875 0.95785390625
vt 0.41015625 0.96015625
vt 0.41875 0.98285390625
vt 0.41644765625 0.97886484375
vt 0.41015625 0.98515625
vt 0.0703125 0.5390625
vt 0.0703125 0.5234375
vt 0.0625 0.5234375
vt 0.0625 0.5390625
vt 0.41644765625 0.96644765625
vt 0.41875 0.96245859375
vt 0.41015625 0.96015625
vt 0.41644765625 0.97886484375
vt 0.41245859375 0.9765625
vt 0.41015625 0.98515625
vt 0.46875 0.8203125
vt 0.46875 0.8046875
vt 0.4609375 0.8046875
vt 0.4609375 0.8203125
vt 0.41245859375 0.96875
vt 0.41644765625 0.96644765625
vt 0.41015625 0.96015625
vt 0.41245859375 0.9765625
vt 0.40785390625 0.9765625
vt 0.41015625 0.98515625
vt 0.4609375 0.71875
vt 0.4609375 0.703125
vt 0.453125 0.703125
vt 0.453125 0.71875
vt 0.40785390625 0.96875
vt 0.41245859375 0.96875
vt 0.41015625 0.96015625
vt 0.40785390625 0.9765625
vt 0.40386484375 0.97886484375
vt 0.41015625 0.98515625
vt 0.1640625 0.5390625
vt 0.1640625 0.5234375
vt 0.15625 0.5234375
vt 0.15625 0.5390625
vt 0.40386484375 0.96644765625
vt 0.40785390625 0.96875
vt 0.41015625 0.96015625
vt 0.40386484375 0.97886484375
vt 0.4015625 0.98285390625
vt 0.41015625 0.98515625
vt 0.4609375 0.6796875
vt 0.4609375 0.6640625
vt 0.453125 0.6640625
vt 0.453125 0.6796875
vt 0.4015625 0.96245859375
vt 0.40386484375 0.96644765625
vt 0.41015625 0.96015625
vt 0.4015625 0.98285390625
vt 0.4015625 0.98745859375
vt 0.41015625 0.98515625
vt 0.2109375 0.703125
vt 0.2109375 0.6875
vt 0.203125 0.6875
vt 0.203125 0.703125
vt 0.4015625 0.95785390625
vt 0.4015625 0.96245859375
vt 0.41015625 0.96015625
vt 0.4015625 0.98745859375
vt 0.40386484375 0.99144765625
vt 0.41015625 0.98515625
vt 0.4609375 0.578125
vt 0.4609375 0.5625
vt 0.453125 0.5625
vt 0.453125 0.578125
vt 0.40386484375 0.95386484375
vt 0.4015625 0.95785390625
vt 0.41015625 0.96015625
vt 0.40386484375 0.99144765625
vt 0.40785390625 0.99375
vt 0.41015625 0.98515625
vt 0.1484375 0.5390625
vt 0.1484375 0.5234375
vt 0.140625 0.5234375
vt 0.140625 0.5390625
vt 0.40785390625 0.9515625
vt 0.40386484375 0.95386484375
vt 0.41015625 0.96015625
vt 0.40785390625 0.99375
vt 0.41245859375 0.99375
vt 0.41015625 0.98515625
vt 0.4609375 0.7734375
vt 0.4609375 0.7578125
vt 0.453125 0.7578125
vt 0.453125 0.7734375
vt 0.41245859375 0.9515625
vt 0.40785390625 0.9515625
vt 0.41015625 0.96015625
vn 4.4408899109558276e-16 1.038058528960369e-14 1
vn 0.8660253932477264 0.5000000182501205 -5.3290707127131075e-15
vn -4.4408899109558276e-16 -1.038058528960369e-14 -1
vn 4.4408899109558276e-16 1.038058528960369e-14 1
vn 0.4999999817498789 0.8660254143211509 -9.230221006942869e-15
vn -4.4408899109558276e-16 -1.038058528960369e-14 -1
vn 4.4408899109558276e-16 1.038058528960369e-14 1
vn -2.1073424449902227e-8 0.9999999999999998 -1.0658141036401495e-14
vn -4.4408899109558276e-16 -1.038058528960369e-14 -1
vn 4.4408899109558276e-16 1.038058528960369e-14 1
vn -0.5000000182501207 0.8660253932477264 -9.230220782339336e-15
vn -4.4408899109558276e-16 -1.038058528960369e-14 -1
vn 4.4408899109558276e-16 1.038058528960369e-14 1
vn -0.8660254143211507 0.49999998174987914 -5.329070323688387e-15
vn -4.4408899109558276e-16 -1.038058528960369e-14 -1
vn 4.4408899109558276e-16 1.038058528960369e-14 1
vn -0.9999999999999998 -2.1073423363488276e-8 2.246035183278565e-22
vn -4.4408899109558276e-16 -1.038058528960369e-14 -1
vn 4.4408899109558276e-16 1.038058528960369e-14 1
vn -0.8660253932477265 -0.5000000182501204 5.329070712713107e-15
vn -4.4408899109558276e-16 -1.038058528960369e-14 -1
vn 4.4408899109558276e-16 1.038058528960369e-14 1
vn -0.4999999817498787 -0.866025414321151 9.23022100694287e-15
vn -4.4408899109558276e-16 -1.038058528960369e-14 -1
vn 4.4408899109558276e-16 1.038058528960369e-14 1
vn 2.1073424449902227e-8 -0.9999999999999998 1.0658141036401495e-14
vn -4.4408899109558276e-16 -1.038058528960369e-14 -1
vn 4.4408899109558276e-16 1.038058528960369e-14 1
vn 0.5000000182501203 -0.8660253932477265 9.230220782339339e-15
vn -4.4408899109558276e-16 -1.038058528960369e-14 -1
vn 4.4408899109558276e-16 1.038058528960369e-14 1
vn 0.8660254143211509 -0.49999998174987875 5.3290703236883834e-15
vn -4.4408899109558276e-16 -1.038058528960369e-14 -1
vn 4.4408899109558276e-16 1.038058528960369e-14 1
vn 0.9999999999999998 2.107342411683532e-8 -2.2460352635713555e-22
vn -4.4408899109558276e-16 -1.038058528960369e-14 -1
usemtl m_ff70f691-bde8-f186-4486-f40bb40d341f
f 165/503/143 167/504/143 163/505/143
f 168/506/144 167/507/144 165/508/144 166/509/144
f 168/510/145 166/511/145 164/512/145
f 167/513/146 169/514/146 163/515/146
f 170/516/147 169/517/147 167/518/147 168/519/147
f 170/520/148 168/521/148 164/522/148
f 169/523/149 171/524/149 163/525/149
f 172/526/150 171/527/150 169/528/150 170/529/150
f 172/530/151 170/531/151 164/532/151
f 171/533/152 173/534/152 163/535/152
f 174/536/153 173/537/153 171/538/153 172/539/153
f 174/540/154 172/541/154 164/542/154
f 173/543/155 175/544/155 163/545/155
f 176/546/156 175/547/156 173/548/156 174/549/156
f 176/550/157 174/551/157 164/552/157
f 175/553/158 177/554/158 163/555/158
f 178/556/159 177/557/159 175/558/159 176/559/159
f 178/560/160 176/561/160 164/562/160
f 177/563/161 179/564/161 163/565/161
f 180/566/162 179/567/162 177/568/162 178/569/162
f 180/570/163 178/571/163 164/572/163
f 179/573/164 181/574/164 163/575/164
f 182/576/165 181/577/165 179/578/165 180/579/165
f 182/580/166 180/581/166 164/582/166
f 181/583/167 183/584/167 163/585/167
f 184/586/168 183/587/168 181/588/168 182/589/168
f 184/590/169 182/591/169 164/592/169
f 183/593/170 185/594/170 163/595/170
f 186/596/171 185/597/171 183/598/171 184/599/171
f 186/600/172 184/601/172 164/602/172
f 185/603/173 187/604/173 163/605/173
f 188/606/174 187/607/174 185/608/174 186/609/174
f 188/610/175 186/611/175 164/612/175
f 187/613/176 165/614/176 163/615/176
f 166/616/177 165/617/177 187/618/177 188/619/177
f 166/620/178 188/621/178 164/622/178