# Made in Blockbench 5.1.5
mtllib WiccanHead.mtl

o sphere
v -3.752840678370221e-18 1.1498500142590062 1.4005792084388917e-17
v -3.752840678370221e-18 1.4626501975686743 1.4005792084388917e-17
v 2.0816681711721685e-17 1.455218196415456 0.16004029436227732
v 1.3877787807814457e-17 1.4019326213366667 0.22358350837190824
v 1.3877787807814457e-17 1.3062500694766033 0.2458780928473946
v -6.938893903907228e-18 1.2105675176165398 0.2235835083719083
v 2.0816681711721685e-17 1.157281942537751 0.16004029436227732
v 0.06276089974991268 1.455218196415456 0.1087050670955856
v 0.0932693949139676 1.4019326213366667 0.16154733078219818
v 0.10256973382996706 1.3062500694766033 0.17765599031231927
v 0.0932693949139676 1.2105675176165398 0.16154733078219818
v 0.06276089974991268 1.157281942537751 0.1087050670955856
v 0.13859896054687176 1.455218196415456 0.0800201471811387
v 0.19362899811732331 1.4019326213366667 0.1117917541859541
v 0.21293667463991262 1.3062500694766033 0.1229390464236973
v 0.1936289981173233 1.2105675176165398 0.11179175418595413
v 0.13859896054687176 1.157281942537751 0.0800201471811387
v 0.12552179949982542 1.455218196415456 0
v 0.18653878982793523 1.4019326213366667 -2.7755575615628914e-17
v 0.20513946765993418 1.3062500694766033 -6.938893903907228e-18
v 0.18653878982793526 1.2105675176165398 -2.7755575615628914e-17
v 0.12552179949982542 1.157281942537751 0
v 0.13859896054687168 1.455218196415456 -0.08002014718113863
v 0.19362899811732323 1.4019326213366667 -0.11179175418595409
v 0.21293667463991262 1.3062500694766033 -0.12293904642369727
v 0.1936289981173233 1.2105675176165398 -0.11179175418595408
v 0.13859896054687168 1.157281942537751 -0.08002014718113863
v 0.06276089974991271 1.455218196415456 -0.1087050670955856
v 0.09326939491396766 1.4019326213366667 -0.16154733078219813
v 0.10256973382996712 1.3062500694766033 -0.17765599031231924
v 0.09326939491396766 1.2105675176165398 -0.16154733078219813
v 0.06276089974991271 1.157281942537751 -0.1087050670955856
v 5.551115123125783e-17 1.455218196415456 -0.16004029436227735
v 6.245004513516506e-17 1.4019326213366667 -0.2235835083719082
v 9.71445146547012e-17 1.3062500694766033 -0.24587809284739456
v 6.938893903907228e-17 1.2105675176165398 -0.22358350837190827
v 5.551115123125783e-17 1.157281942537751 -0.16004029436227735
v -0.06276089974991268 1.455218196415456 -0.10870506709558558
v -0.0932693949139676 1.4019326213366667 -0.16154733078219818
v -0.10256973382996704 1.3062500694766033 -0.17765599031231932
v -0.0932693949139676 1.2105675176165398 -0.16154733078219818
v -0.06276089974991268 1.157281942537751 -0.10870506709558558
v -0.13859896054687176 1.455218196415456 -0.08002014718113867
v -0.19362899811732331 1.4019326213366667 -0.11179175418595409
v -0.21293667463991262 1.3062500694766033 -0.12293904642369724
v -0.19362899811732331 1.2105675176165398 -0.11179175418595409
v -0.13859896054687176 1.157281942537751 -0.08002014718113867
v -0.12552179949982542 1.455218196415456 -4.85722573273506e-17
v -0.18653878982793523 1.4019326213366667 -8.326672684688674e-17
v -0.20513946765993413 1.3062500694766033 -9.020562075079397e-17
v -0.18653878982793526 1.2105675176165398 -9.020562075079397e-17
v -0.12552179949982542 1.157281942537751 -4.85722573273506e-17
v -0.13859896054687168 1.455218196415456 0.08002014718113863
v -0.1936289981173233 1.4019326213366667 0.11179175418595405
v -0.21293667463991264 1.3062500694766033 0.12293904642369727
v -0.19362899811732331 1.2105675176165398 0.11179175418595405
v -0.13859896054687168 1.157281942537751 0.08002014718113863
v -0.06276089974991267 1.455218196415456 0.10870506709558564
v -0.0932693949139676 1.4019326213366667 0.16154733078219816
v -0.10256973382996706 1.3062500694766033 0.17765599031231932
v -0.0932693949139676 1.2105675176165398 0.16154733078219816
v -0.06276089974991267 1.157281942537751 0.10870506709558564
v 6.938893903907228e-18 1.4832531092280807 0.1010954622429934
v -0.03964496566463484 1.4725022607044782 0.0686670947954712
v -0.08755054586422575 1.4832531092280807 0.050547331222409404
v -0.0792899313292697 1.4725022607044782 -2.42861286636753e-17
v -0.08755054586422581 1.4832531092280807 -0.0505473312224094
v -0.03964496566463484 1.4725022607044782 -0.06866709479547117
v 4.5102810375396984e-17 1.4832531092280807 -0.10109466244481888
v 0.03964496566463485 1.4725022607044782 -0.06866709479547117
v 0.08755054586422575 1.4832531092280807 -0.05054733122240939
v 0.07928993132926968 1.4725022607044782 6.938893903907228e-18
v 0.08755054586422581 1.4832531092280807 0.05054733122240944
v 0.03964496566463483 1.4725022607044782 0.0686670947954712
v -0.039644464200353065 1.1399979511232023 0.068666226233857
v 0 1.1292471025995998 0.10109674097691196
v 0.03964578077525957 1.1399979511232023 0.06866850660848703
v 0.08755234592582099 1.1292471025995998 0.05054837048845598
v 0.07929156155051918 1.1399979511232023 1.0408340855860843e-17
v 0.08755234592582095 1.1292471025995998 -0.050548370488455924
v 0.039645780775259584 1.1399979511232023 -0.068668506608487
v 4.163336342344337e-17 1.1292471025995998 -0.10109674097691196
v -0.03964578077525957 1.1399979511232023 -0.06866850660848701
v -0.087552345925821 1.1292471025995998 -0.050548370488455945
v -0.07929156155051918 1.1399979511232023 -2.42861286636753e-17
v -0.08755234592582095 1.1292471025995998 0.050548370488455924
v -0.01273516184539044 1.334669990861129 -0.22484375645967442
v -0.10094217451966714 1.3171567786476075 -0.17483697489454814
v -0.013781205016326112 1.355999487738619 -0.22287225736611474
v -0.09489695422426753 1.367674962547634 -0.16436634619996937
v -0.19188762768744377 1.3521832030746512 -0.1272620235277223
v -0.17856926890761254 1.3851881747611559 -0.12585262586998494
v 0.10094217451966722 1.3171567786476075 -0.17483697489454805
v 0.014114810684798154 1.334669990861129 -0.2248437564596744
v 0.09489695422426755 1.367674962547634 -0.16436634619996932
v 0.016854681176918677 1.355999487738619 -0.22077303410946716
v 0.19035088960714752 1.3521832030746512 -0.12726202352772237
v 0.17856926890761254 1.3851881747611559 -0.1258526258699849
v 0.172115099246308 1.2724334487108524 -0.13357514230599807
v 0.09559447964296752 1.2315692868793022 -0.1655744956647284
v 0.18176893750760265 1.2983832093739813 -0.1361800384248697
v 0.10024464910096727 1.2852483002138408 -0.173628825429789
v 6.245004513516506e-17 1.2257315494747953 -0.22915715449077984
v 9.020562075079397e-17 1.2867077345649676 -0.24030444672852302
v -0.09559447964296747 1.2315692868793022 -0.16557449566472848
v -0.10024464910096721 1.2852483002138408 -0.17362882542978902
v -0.17211509924630794 1.2724334487108524 -0.13357514230599815
v -0.18176893750760262 1.2983832093739813 -0.13618003842486975
v 0.17831937780663107 1.3469330469336904 -0.10065232436934893
v 0.08719780060342608 1.3111914740326518 -0.14932296185731053
v 0.16653775710709612 1.3799380186201948 -0.09924292671161147
v 0.08115258030802641 1.3617096579326786 -0.1388523331627318
v -0.0013424253471676709 1.3279895377721789 -0.20042542954357273
v 0.0013974451449528524 1.3493190346496688 -0.1963547071933655
v 0.0021305253405509844 1.333083190332246 -0.19919703600329225
v -0.08786944784504756 1.3130443810826742 -0.14870447603878206
v 0.0010844821696153056 1.354412687209736 -0.19722553690973252
v -0.08182422754964794 1.3635625649827008 -0.1382338473442033
v -0.180607861524146 1.3455452084736679 -0.10064374627257237
v -0.1672895027443148 1.3785501801601723 -0.099234348614835
v -0.0805931267807498 1.2361672317683623 -0.14044297136192327
v -0.15856224967578555 1.2773308258307574 -0.10763565754157407
v -0.08524329623874952 1.289846245102901 -0.1484973011269838
v -0.1682160879370802 1.3032805864938863 -0.11024055366044566
v 0.000013651576249065767 1.2303254149036347 -0.2048821674338472
v 0.000013651576249079644 1.291301599993807 -0.2160294596715904
v 0.08011369302517435 1.237826333207622 -0.1411140057796872
v 0.08476386248317408 1.2915053465421606 -0.14916833554474776
v 0.15757607901213658 1.2800583231680287 -0.10888057280859453
v 0.16722991727343128 1.3060080838311576 -0.11148546892746614
vt 0.10073149801371023 0.49659539212878956
vt 0.1015625 0.5030839329804258
vt 0.09491295151864818 0.5078125
vt 0.09491295151864818 0.4978124886474674
vt 0.2724181643019366 0.6233124589399126
vt 0.26893413701740565 0.6135497491600974
vt 0.28287265625 0.61488515625
vt 0.2823910715670083 0.6249742774323513
vt 0.35356467869904834 0.7578125
vt 0.3520217099490483 0.74562890625
vt 0.3674193661990483 0.74562890625
vt 0.3675670224490483 0.7578125
vt 0.359834210529006 0.9653078125
vt 0.361377179279006 0.953125
vt 0.37537952302900596 0.953125
vt 0.375231866779006 0.9653078125
vt 0.20422750803456394 0.5491224824861506
vt 0.2086376314894518 0.5397417608621047
vt 0.21875 0.5390625
vt 0.21819250047258354 0.5491224824861506
vt 0.5012909132347548 0.8515625
vt 0.5078125 0.8520753789889678
vt 0.5068635614235557 0.8581717140938442
vt 0.49691365699464124 0.8581717140938442
vt 0.14950895577573375 0.515625
vt 0.14298807849732062 0.5151117939330633
vt 0.14393701707376494 0.5078125
vt 0.15388692150267938 0.5078125
vt 0.28238984375 0.625
vt 0.28287265625 0.61488515625
vt 0.296875 0.61488515625
vt 0.29247578125 0.6242484375
vt 0.3675670224490483 0.7578125
vt 0.3674193661990483 0.74562890625
vt 0.3828125 0.7452557443827585
vt 0.3815652535675453 0.7574731535011128
vt 0.375231866779006 0.9653078125
vt 0.37537952302900596 0.953125
vt 0.3893777536201002 0.9534643682538455
vt 0.390625 0.9656809982900486
vt 0.3850027878348086 0.939075225912446
vt 0.3817594693732418 0.9294828777934014
vt 0.3916839931405735 0.92742734375
vt 0.3984375 0.9352387389348226
vt 0.3795207118905735 0.9240046875
vt 0.3857058681405735 0.921875
vt 0.3916839931405735 0.92742734375
vt 0.3818918056405735 0.92945546875
vt 0.08394354649506205 0.49659539212878956
vt 0.08477454848135185 0.5030839329804258
vt 0.078125 0.5078125
vt 0.078125 0.4978124886474674
vt 0.16754652728453096 0.6233124589399126
vt 0.1640625 0.6135497491600974
vt 0.17800101923259432 0.61488515625
vt 0.17751943454960264 0.6249742774323513
vt 0.3528097464324547 0.7809106535011128
vt 0.3515625 0.7686932443827585
vt 0.3669556338009517 0.76906640625
vt 0.3668079775509517 0.78125
vt 0.3046875 0.6453684982900486
vt 0.3059347463798998 0.6331518682538455
vt 0.31993297697099404 0.6328125
vt 0.320080633220994 0.6449953125
vt 0.3046875 0.9331740322839908
vt 0.3073751885826636 0.9231628656607737
vt 0.31720952184375356 0.9207118900342661
vt 0.3184338657220454 0.930712641776631
vt 0.49656475624011365 0.8359375
vt 0.5030863430053588 0.8364503789889678
vt 0.5021374044289144 0.8425467140938442
vt 0.4921875 0.8425467140938442
vt 0.4956220342730544 0.8046875
vt 0.48910115699464124 0.8041742939330633
vt 0.4900500955710856 0.796875
vt 0.5 0.796875
vt 0.17751820673259433 0.625
vt 0.17800101923259432 0.61488515625
vt 0.19200336298259432 0.61488515625
vt 0.1876041442325943 0.6242484375
vt 0.3668079775509517 0.78125
vt 0.3669556338009517 0.76906640625
vt 0.3823532900509517 0.76906640625
vt 0.38081032130095166 0.78125
vt 0.320080633220994 0.6449953125
vt 0.31993297697099404 0.6328125
vt 0.333935320720994 0.6328125
vt 0.335478289470994 0.6449953125
vt 0.31843999059375355 0.930762671284266
vt 0.31720952184375356 0.9207118900342661
vt 0.32734467809375356 0.9207118900342661
vt 0.3323735843437535 0.9297306400342661
vt 0.31599319033885565 0.9148935019862898
vt 0.32248173119049195 0.9140625
vt 0.32720953319628615 0.9207118900342661
vt 0.31720952184375356 0.9207118900342661
vt 0.4835439980137102 0.5044078921287896
vt 0.484375 0.5108964329804258
vt 0.47772545151864815 0.515625
vt 0.47772545151864815 0.5056249886474674
vt 0.34814921875 0.6242711525819641
vt 0.34375 0.614885215081964
vt 0.35775234375 0.614885215081964
vt 0.35823515625 0.624974277581964
vt 0.40751796875 0.9140625
vt 0.40625 0.909865625
vt 0.4191359375 0.90532109375
vt 0.41928359375 0.9118046875
vt 0.40625 0.9313366230443219
vt 0.4071234375 0.9279717792943218
vt 0.41751015625 0.9224959980443218
vt 0.41752109375 0.9292741230443219
vt 0.3689639788877726 0.7278140625
vt 0.3739928851377726 0.71875
vt 0.38412804138777257 0.71875
vt 0.3828975726377726 0.72875
vt 0.5012909132347548 0.890625
vt 0.5078125 0.8911378789889678
vt 0.5068635614235557 0.8972342140938442
vt 0.49691365699464124 0.8972342140938442
vt 0.29558337727841316 0.515625
vt 0.2890625 0.5151117939330633
vt 0.29001143857644435 0.5078125
vt 0.29996134300535876 0.5078125
vt 0.3582363871973708 0.625
vt 0.35775234375 0.614885215081964
vt 0.37169086298259435 0.6135498079920614
vt 0.3682046749657302 0.6232899647920327
vt 0.4192837751042794 0.911812650776004
vt 0.4191359375 0.90532109375
vt 0.4319670883935428 0.9070719346052067
vt 0.43149101958651986 0.9097392648444605
vt 0.4175211445117415 0.9293055808206879
vt 0.41751015625 0.9224959980443218
vt 0.4303273260774611 0.921875
vt 0.4310104714873697 0.9295905120340489
vt 0.3828914171259362 0.7288000257469878
vt 0.38412804138777257 0.71875
vt 0.3939623746488625 0.7212009756265075
vt 0.3966610211122274 0.731168174676369
vt 0.46958100198628977 0.5502788428574306
vt 0.46875 0.5437903020057943
vt 0.4765625 0.5390625
vt 0.4765625 0.5490625113525326
vt 0.0538564980137102 0.49659539212878956
vt 0.0546875 0.5030839329804258
vt 0.04803795151864815 0.5078125
vt 0.04803795151864815 0.4978124886474674
vt 0.23335566430193663 0.6233124589399126
vt 0.22987163701740568 0.6135497491600974
vt 0.24381015625 0.61488515625
vt 0.24332857156700832 0.6249742774323513
vt 0.41170755614159826 0.6299342542698539
vt 0.4114716186415983 0.627263941769854
vt 0.4243700561415983 0.624754566769854
vt 0.42436771239159826 0.631143629269854
vt 0.40475293022805986 0.8358234375
vt 0.40563183647805984 0.828125
vt 0.41853105522805983 0.8288625000000001
vt 0.41834746147805985 0.8356671875
vt 0.4151650080345639 0.5491224824861506
vt 0.4195751314894518 0.5397417608621047
vt 0.4296875 0.5390625
vt 0.42913000047258354 0.5491224824861506
vt 0.11847841323475485 0.5
vt 0.125 0.5005128789889678
vt 0.12405106142355567 0.5066092140938442
vt 0.11410115699464121 0.5066092140938442
vt 0.49325895577573375 0.875
vt 0.4867380784973206 0.8744867939330633
vt 0.48768701707376494 0.8671875
vt 0.4976369215026794 0.8671875
vt 0.24332734375 0.625
vt 0.24381015625 0.61488515625
vt 0.2578125 0.61488515625
vt 0.25341328125 0.6242484375
vt 0.42436767421459815 0.6312476997722477
vt 0.4243700561415983 0.624754566769854
vt 0.4375 0.6285716678846696
vt 0.4361548701394838 0.6328125
vt 0.4183473762718012 0.8356703455702672
vt 0.41853105522805983 0.8288625000000001
vt 0.42888355213284957 0.8344392163596377
vt 0.4296875 0.8378098735923476
vt 0.10375278783480862 0.618762725912446
vt 0.1005094693732418 0.6091703777934014
vt 0.1104339931405735 0.60711484375
vt 0.1171875 0.6149262389348225
vt 0.09827071189057351 0.6036921875
vt 0.10445586814057352 0.6015625
vt 0.1104339931405735 0.60711484375
vt 0.10064180564057351 0.6091429687500001
vt 0.4980060464950621 0.9106578921287896
vt 0.49883704848135185 0.9171464329804258
vt 0.4921875 0.921875
vt 0.4921875 0.9118749886474674
vt 0.37848402728453096 0.8108124589399126
vt 0.375 0.8010497491600974
vt 0.3889385192325943 0.80238515625
vt 0.3884569345496027 0.8124742774323513
vt 0.3528097464324547 0.8824731535011128
vt 0.3515625 0.8702557443827585
vt 0.3669556338009517 0.87062890625
vt 0.3668079775509517 0.8828125
vt 0.265625 0.6453684982900486
vt 0.2668722463798998 0.6331518682538455
vt 0.28087047697099404 0.6328125
vt 0.281018133220994 0.6449953125
vt 0.3046875 0.7925490322839908
vt 0.3073751885826636 0.7825378656607737
vt 0.31720952184375356 0.7800868900342661
vt 0.3184338657220454 0.790087641776631
vt 0.49656475624011365 0.8203125
vt 0.5030863430053588 0.8208253789889678
vt 0.5021374044289144 0.8269217140938442
vt 0.4921875 0.8269217140938442
vt 0.17530953427305437 0.515625
vt 0.16878865699464124 0.5151117939330633
vt 0.16973759557108556 0.5078125
vt 0.1796875 0.5078125
vt 0.38845570673259433 0.8125
vt 0.3889385192325943 0.80238515625
vt 0.40294086298259435 0.80238515625
vt 0.3985416442325943 0.8117484375
vt 0.3668079775509517 0.8828125
vt 0.3669556338009517 0.87062890625
vt 0.3823532900509517 0.87062890625
vt 0.38081032130095166 0.8828125
vt 0.281018133220994 0.6449953125
vt 0.28087047697099404 0.6328125
vt 0.294872820720994 0.6328125
vt 0.296415789470994 0.6449953125
vt 0.31843999059375355 0.790137671284266
vt 0.31720952184375356 0.7800868900342661
vt 0.32734467809375356 0.7800868900342661
vt 0.3323735843437535 0.7891056400342661
vt 0.31599319033885565 0.7742685019862898
vt 0.32248173119049195 0.7734375
vt 0.32720953319628615 0.7800868900342661
vt 0.31720952184375356 0.7800868900342661
vt 0.4913564980137102 0.5512828921287896
vt 0.4921875 0.5577714329804258
vt 0.48553795151864815 0.5625
vt 0.48553795151864815 0.5524999886474674
vt 0.30908671875 0.6242711525819641
vt 0.3046875 0.614885215081964
vt 0.31868984375 0.614885215081964
vt 0.31917265625 0.624974277581964
vt 0.22810546875 0.6484375
vt 0.2265625 0.63625390625
vt 0.24196015625 0.63625390625
vt 0.2421078125 0.6484375
vt 0.34375 0.6449953125
vt 0.34529296875 0.6328125
vt 0.3592953125 0.6328125
vt 0.35914765625 0.6449953125
vt 0.3689639788877726 0.7043765625
vt 0.3739928851377726 0.6953125
vt 0.38412804138777257 0.6953125
vt 0.3828975726377726 0.7053125
vt 0.21222835983719823 0.5
vt 0.21875 0.500512199551812
vt 0.21780098710659934 0.5066089606381576
vt 0.2078514650325521 0.5066089606381576
vt 0.49089691384321404 0.9375
vt 0.484375 0.9369864115242001
vt 0.4853242656544132 0.9296875
vt 0.49527417008332764 0.9296875
vt 0.3191738871973708 0.625
vt 0.31868984375 0.614885215081964
vt 0.33262836298259435 0.6135498079920614
vt 0.3291421749657302 0.6232899647920327
vt 0.2421078125 0.6484375
vt 0.24196015625 0.63625390625
vt 0.2573532900509517 0.6358807443827585
vt 0.256106043618497 0.6480981535011128
vt 0.35914765625 0.6449953125
vt 0.3592953125 0.6328125
vt 0.3732935430910942 0.6331518682538455
vt 0.374540789470994 0.6453684982900486
vt 0.3828914171259362 0.7053625257469878
vt 0.38412804138777257 0.6953125
vt 0.3939623746488625 0.6977634756265075
vt 0.3966610211122274 0.707730674676369
vt 0.44614334353920404 0.5268421078712104
vt 0.4453125 0.5203528020057941
vt 0.453125 0.515625
vt 0.453125 0.5256250113525326
vt 0.23247975645522792 0.53125
vt 0.23824460020522792 0.51971328125
vt 0.23883118104477208 0.5296839338992345
vt 0.10491850656955408 0.5296834648445197
vt 0.10550571218044592 0.51971328125
vt 0.11127055593044592 0.53125
vt 0.11127055593044592 0.53125
vt 0.10550571218044592 0.51971328125
vt 0.11383149343044592 0.5252296875
vt 0.2064810065695541 0.5296834648445197
vt 0.2070682121804459 0.51971328125
vt 0.2128330559304459 0.53125
vt 0.2128330559304459 0.53125
vt 0.2070682121804459 0.51971328125
vt 0.2153939934304459 0.5252296875
vt 0.08148100656955408 0.5252296875
vt 0.08980678781955408 0.51971328125
vt 0.08404194406955408 0.53125
vt 0.08404194406955408 0.53125
vt 0.08980678781955408 0.51971328125
vt 0.09039399343044592 0.5296834648445197
vt 0.4721060065695541 0.8578084648445197
vt 0.4726932121804459 0.84783828125
vt 0.47845805593044594 0.859375
vt 0.47845805593044594 0.859375
vt 0.4726932121804459 0.84783828125
vt 0.4810189934304459 0.8533546875
vt 0.4721060065695541 0.7796834648445197
vt 0.4726932121804459 0.76971328125
vt 0.47845805593044594 0.78125
vt 0.47845805593044594 0.78125
vt 0.4726932121804459 0.76971328125
vt 0.4810189934304459 0.7752296875
vt 0.22991881895522792 0.52523046875
vt 0.23824460020522792 0.51971328125
vt 0.23247975645522792 0.53125
vt 0.26226870224734583 0.5171908941100776
vt 0.2616823914031428 0.5271615626396686
vt 0.2559172352526542 0.515625
vt 0.2559172352526542 0.515625
vt 0.26168207900265417 0.5271609374999999
vt 0.25335629775265417 0.52164453125
vt 0.4107062234475909 0.52164453125
vt 0.4023804421975909 0.5271609374999999
vt 0.40814528594759086 0.515625
vt 0.40814528594759086 0.515625
vt 0.4023804421975909 0.5271609374999999
vt 0.4017937765524091 0.5171907221182415
vt 0.4810187234475909 0.68570703125
vt 0.4726929421975909 0.6912234374999999
vt 0.47845778594759086 0.6796875
vt 0.47845778594759086 0.6796875
vt 0.4726929421975909 0.6912234374999999
vt 0.4721062765524091 0.6812532221182415
vt 0.4341437234475909 0.5171907221182415
vt 0.4335570578024091 0.5271609374999999
vt 0.42779221405240914 0.515625
vt 0.42779221405240914 0.515625
vt 0.4335570578024091 0.5271609374999999
vt 0.4252312765524091 0.52164453125
vt 0.3403937234475909 0.52164453125
vt 0.3320679421975909 0.5271609374999999
vt 0.33783278594759086 0.515625
vt 0.33783278594759086 0.515625
vt 0.3320679421975909 0.5271609374999999
vt 0.3314812765524091 0.5171907221182415
vt 0.4810185460471015 0.7091451563896687
vt 0.4726927647971015 0.7146615626396686
vt 0.4784576085471015 0.7031256251396687
vt 0.47845792094759015 0.703125
vt 0.4726927647971015 0.7146615626396686
vt 0.4721064539528985 0.7046908941100776
vt 0.4760753964625518 0.6640625
vt 0.4787561307014443 0.6640625
vt 0.484375 0.671875
vt 0.47222306857755836 0.6718022516767723
vt 0.4220921875 0.643871875
vt 0.4093309353956774 0.6454823626397941
vt 0.4067793963596308 0.6415380049907782
vt 0.42214986491516854 0.6424533223566652
vt 0.4706885046173573 0.5766161503382659
vt 0.4722607807846156 0.5625
vt 0.4765625 0.5625
vt 0.47647818000394626 0.578125
vt 0.43485703125 0.6484375
vt 0.4220921875 0.643871875
vt 0.42215 0.64245
vt 0.4375 0.64279609375
vt 0.4827487518776574 0.609375
vt 0.4783363185205772 0.6087755803309547
vt 0.47222474096754874 0.6015625
vt 0.484375 0.6015625
vt 0.4937509321249607 0.7694245428598172
vt 0.5053301644621739 0.7712351728729101
vt 0.5078125 0.7734375
vt 0.4938954593743716 0.7734375
vt 0.3717803572268088 0.897091768434055
vt 0.35918627967209366 0.8953500995863912
vt 0.3591450839903959 0.8939278948475685
vt 0.3745252409918407 0.8932085644225737
vt 0.046875 0.5224486617340522
vt 0.0469705855813613 0.5197150681415695
vt 0.0546875 0.515625
vt 0.0546875 0.5278071114389636
vt 0.35932914722802034 0.9018439634286883
vt 0.3713346818003514 0.9001481256331272
vt 0.37337127558824945 0.9059253439254542
vt 0.35937358849192635 0.9061368335877518
vt 0.34656598671647015 0.8998410310848675
vt 0.34781742847802033 0.9040431821786883
vt 0.34533894102599844 0.90625
vt 0.3437519539849808 0.894074733354723
vt 0.35918627967209366 0.8953500995863912
vt 0.34656598671647015 0.8998410310848675
vt 0.34375 0.8940707294001727
vt 0.3591456204962267 0.8939464167193649
vt 0.34781742847802033 0.9040431821786883
vt 0.35932914722802034 0.9018439634286883
vt 0.3593736784780203 0.9061455259286882
vt 0.34538695972802036 0.9062072446786883
vt 0.1067236155854249 0.6406697227237449
vt 0.10578814090755573 0.6440175083350312
vt 0.1015625 0.6450329362892245
vt 0.10310222477069828 0.6328702233061752
vt 0.1170611155854249 0.6355009727237448
vt 0.1067236155854249 0.6406697227237449
vt 0.1030900218354249 0.6328439414737449
vt 0.11709080308542491 0.6328173789737449
vt 0.10578814090755573 0.6440175083350312
vt 0.1169963790015151 0.642339097948155
vt 0.11696054166222893 0.6450273702048523
vt 0.10156288353120213 0.6450328441260917
vt 0.13142618939677525 0.6351458047879454
vt 0.1170611155854249 0.6355009727237448
vt 0.11709085705951583 0.6328125
vt 0.13108812839487016 0.6331608234796839
vt 0.1169963790015151 0.642339097948155
vt 0.13203540015579177 0.6429238918918398
vt 0.13235334239415386 0.6454441029946241
vt 0.11696054166222893 0.6450273702048523
vt 0.016014389223022965 0.6355742007400701
vt 0.0016662070765932936 0.6347924372987219
vt 0.0020633967920727896 0.6328125
vt 0.01606330026796053 0.6328937952386458
vt 0.0008465681908525827 0.6426045395511183
vt 0.015895786940852582 0.6424178208011183
vt 0.015860630690852584 0.6451061020511183
vt 0.00046297444085258155 0.6451154770511183
vt 0.026200577578032087 0.6410340752364302
vt 0.016014389223022965 0.6355742007400701
vt 0.016063450476120386 0.6328855635850682
vt 0.030044418297225338 0.633334325272191
vt 0.02705432897305554 0.6444038652560307
vt 0.026200577578032087 0.6410340752364302
vt 0.030054781815195997 0.6333135656978608
vt 0.03122374921845651 0.6455291092629256
vt 0.015895786940852582 0.6424178208011183
vt 0.02705432897305554 0.6444038652560307
vt 0.03125 0.6455361938293328
vt 0.015860826175167327 0.6450911540171841
vt 0.04249096183303405 0.671875
vt 0.046875 0.671875
vt 0.04685308600799426 0.6796875
vt 0.04246904784102831 0.6796875
vt 0.4609375 0.5859375
vt 0.4746019970271103 0.5859375
vt 0.47458892649150497 0.59375
vt 0.4611939589327559 0.593730444178922
vt 0.359375 0.6698765998198957
vt 0.3685646795459415 0.662184375
vt 0.3706564236876967 0.6652348677640688
vt 0.36168586584225526 0.6727771936541517
vt 0.496294695313323 0.7578125
vt 0.496294695313323 0.744862909012703
vt 0.49998609966428387 0.7450887104969433
vt 0.5 0.7578026170827361
vt 0.49611875 0.729284375
vt 0.49639140625 0.7265625
vt 0.5 0.72741484375
vt 0.4997265625 0.7301375
vt 0.3685646795459415 0.662184375
vt 0.3794381170459415 0.65625
vt 0.3813115545459415 0.6594492187500001
vt 0.3706560857959415 0.665234375
vt 0.1171875 0.9375
vt 0.125 0.9375
vt 0.125 0.9453125
vt 0.1171875 0.9453125
vt 0.46875 0.8828125
vt 0.48189048623681935 0.8828125
vt 0.48187697214122893 0.890625
vt 0.46901800873828026 0.890583128831033
vt 0.1747006863409118 0.6328125
vt 0.1857280300909118 0.639253125
vt 0.1834420925909118 0.6421484375
vt 0.17256318634091178 0.6358265625
vt 0.3125 0.5390625
vt 0.3125 0.5253881998133103
vt 0.3203125 0.5254919610058367
vt 0.3203125 0.5390425200173652
vt 0.3125 0.8403896233796797
vt 0.3125 0.8359375
vt 0.3203125 0.8360475580607595
vt 0.3203125 0.8404998433463735
vt 0.1857280300909118 0.639253125
vt 0.19462431365908822 0.6471437306081311
vt 0.1921895330286423 0.6499395995167992
vt 0.18345281166867067 0.6421348609784093
vt 0.2421875 0.5078125
vt 0.2265625 0.5078125
vt 0.22676965333432386 0.5041149335334711
vt 0.2421875 0.5041038412703396
vt 0.02432578125 0.625
vt 0.0234375 0.6216390625
vt 0.0270921875 0.6210046874999999
vt 0.0279796875 0.624365625
vt 0.18614092878386462 0.7559908064996748
vt 0.17740108503386462 0.7635314314996747
vt 0.17491046003386462 0.7607829939996746
vt 0.18350264753386464 0.7533915877496747
vt 0.4108678472952559 0.671875
vt 0.4039166551016111 0.6609830954017023
vt 0.4049192320712065 0.6580621034201377
vt 0.4136700636483889 0.6694593268895315
vt 0.19436847081744751 0.7451668385268633
vt 0.18614092878386462 0.7559908064996748
vt 0.18350271216199032 0.7533916514209138
vt 0.1935578504561017 0.7421944969944287
vt 0.4039166551016111 0.6609830954017023
vt 0.3918361863516111 0.6653112204017023
vt 0.3910174363516111 0.6617010641517023
vt 0.40491899885161114 0.6580627829017023
vt 0.20685245998524 0.7502875985327162
vt 0.19436847081744751 0.7451668385268633
vt 0.1935559422278277 0.7421875
vt 0.20790203996613538 0.7467381564167764
vt 0.3359375 0.8089935074098908
vt 0.3359375 0.8124693785665725
vt 0.328125 0.8125
vt 0.328125 0.8090241288433183
vt 0.1328125 0.5194974621628838
vt 0.1328125 0.531238455142087
vt 0.125 0.53125
vt 0.12501103868325011 0.5196928023835314
vt 0.26540995729001193 0.503697701301367
vt 0.2539324158228735 0.503697701301367
vt 0.2542916019128555 0.5000131530751819
vt 0.265625 0.5
vn 0.5121036239371584 0.7756621396517108 0.3689147916001191
vn 0.3929926906202423 0.7045926719371657 0.5908518526428669
vn 0.5436760453990221 0.1904587632541021 0.8173994232680853
vn 0.5436760453990219 -0.1904587632541018 0.8173994232680857
vn 0.4652318947044954 -0.6782701010376639 0.568778475496412
vn 0.38473620904102407 -0.9073176688306405 0.1695662032377736
vn -0.045526813270293086 0.9073204037313148 0.4179676952185373
vn 0.2925040302653754 0.7525597502118264 0.5899959445959149
vn 0.4360506428894 0.1904587632541016 0.8795369783786577
vn 0.4360506428894001 -0.19045876325410155 0.8795369783786575
vn 0.23444281639416698 -0.7488998767160834 0.6198270246575298
vn 0.06344690278847122 -0.7756625092415914 0.6279507642192887
vn 0.5755357530232612 0.7756681546682779 -0.25903187221934015
vn 0.7081890595719443 0.704592671937165 -0.04491572725729546
vn 0.9797266882884221 0.19045876325410163 -0.06213755511057183
vn 0.9797266882884221 -0.19045876325410166 -0.06213755511057213
vn 0.7251925562579261 -0.678270101037663 -0.11851340171665473
vn 0.3392167441476989 -0.9073176688306406 -0.24840822916636007
vn 0.339207235385338 0.9073204037313148 0.24841122445469294
vn 0.6572034912825467 0.752559750211826 0.04168205137881015
vn 0.979726688288422 0.19045876325410221 0.062137555110571965
vn 0.9797266882884219 -0.1904587632541019 0.062137555110572146
vn 0.6540073575026285 -0.7488998767160832 0.10688007759664489
vn 0.5755447655339917 -0.7756625092415915 0.2590287525033862
vn 0.06343969477983818 0.7756681546682777 -0.6279445190140208
vn 0.3151963689517013 0.7045926719371657 -0.635767579900162
vn 0.4062683255619395 0.1832505171118426 -0.8951900891002651
vn 0.49027573956043313 -0.26571732730070824 -0.8300746961392322
vn 0.2599606615534301 -0.6782701010376638 -0.6872918772130662
vn -0.04551946489332482 -0.9073176688306406 -0.4179744324041337
vn 0.3847340486556316 0.9073204037313147 -0.1695564707638439
vn 0.3646994610171709 0.7525597502118262 -0.5483138932171049
vn 0.5188967723606367 0.23258654848538005 -0.8225871607904974
vn 0.623537096301035 -0.16856259476241675 -0.7634056203509607
vn 0.41956454110846086 -0.7488998767160833 -0.5129469470608846
vn 0.5120978627455212 -0.7756625092415911 -0.36892201171590217
vn -0.5120960582434235 0.7756681546682774 -0.3689126467946814
vn -0.39299269062024217 0.7045926719371656 -0.5908518526428673
vn -0.49791302622717915 0.0555748868606722 -0.8654444235557336
vn -0.6244219131115196 -0.1404656253637591 -0.7683532277002019
vn -0.4652318947044954 -0.6782701010376637 -0.5687784754964123
vn -0.3847362090410238 -0.9073176688306406 -0.16956620323777377
vn 0.045526813270292975 0.9073204037313147 -0.4179676952185371
vn -0.29250403026537536 0.7525597502118264 -0.5899959445959148
vn -0.3825644996406654 0.2311852560624742 -0.8945377471040648
vn -0.4573049929047345 -0.17057591860523552 -0.8727977998691225
vn -0.2344428163941671 -0.7488998767160835 -0.6198270246575297
vn -0.06344690278847143 -0.7756625092415914 -0.6279507642192885
vn -0.5755357530232613 0.7756681546682777 0.25903187221934026
vn -0.7081890595719442 0.704592671937165 0.04491572725729556
vn -0.9797266882884221 0.1904587632541017 0.06213755511057219
vn -0.9797266882884221 -0.19045876325410172 0.0621375551105723
vn -0.7251925562579261 -0.6782701010376628 0.118513401716655
vn -0.33921674414769915 -0.9073176688306405 0.24840822916636043
vn -0.33920723538533804 0.9073204037313151 -0.24841122445469271
vn -0.6572034912825466 0.7525597502118261 -0.04168205137881043
vn -0.979726688288422 0.190458763254102 -0.062137555110572354
vn -0.9797266882884221 -0.19045876325410172 -0.0621375551105723
vn -0.6540073575026282 -0.7488998767160833 -0.10688007759664486
vn -0.5755447655339916 -0.7756625092415916 -0.259028752503386
vn -0.06343969477983835 0.7756681546682779 0.6279445190140207
vn -0.31519636895170133 0.7045926719371656 0.635767579900162
vn -0.4360506428894004 0.19045876325410227 0.8795369783786572
vn -0.4360506428894003 -0.1904587632541022 0.8795369783786574
vn -0.2599606615534304 -0.6782701010376637 0.6872918772130662
vn 0.04554182686973431 -0.9073203439615942 0.4179661893488291
vn -0.3847361156475642 0.9073197990494913 0.16955501634931114
vn -0.36469946101717104 0.7525597502118262 0.5483138932171052
vn -0.5436760453990216 0.1904587632541024 0.8173994232680855
vn -0.5436760453990221 -0.19045876325410246 0.8173994232680852
vn -0.41956454110846053 -0.7488998767160832 0.5129469470608853
vn -0.5121260642314698 -0.7756473247118926 0.3689147896223032
vn -0.10184215203828309 0.9747640350965683 -0.1986535978794936
vn 0.22296272904491382 0.9747634605307027 -0.01112732991573532
vn 0.12111791490577428 0.9747634605307027 -0.18752772249213429
vn 0.12111791490577414 0.9747634605307028 0.18752772249213437
vn 0.2229627290449136 0.9747634605307027 0.011127329915735402
vn -0.10184481413913937 0.9747634605307027 0.19865505240786938
vn 0.10184481413913946 0.9747634605307027 0.19865505240786946
vn -0.2229627290449139 0.9747634605307027 0.011127329915735182
vn -0.12111791490577417 0.9747634605307027 0.18752772249213437
vn -0.12111791490577423 0.9747634605307027 -0.18752772249213404
vn -0.22296272904491363 0.9747634605307027 -0.011127329915735389
vn 0.10184215203828303 0.9747640350965683 -0.19865359787949363
vn -0.10183486361633107 -0.9747652578457878 -0.19865133437527685
vn 0.10184282457635588 -0.9747644592878686 -0.19865117163394513
vn -0.222958373414717 -0.9747644592878686 -0.011127112540686228
vn -0.12111554883836118 -0.9747644592878686 -0.18752405909325898
vn -0.12111554883836112 -0.9747644592878686 0.18752405909325917
vn -0.2229583734147172 -0.9747644592878686 0.011127112540686013
vn 0.10184282457635582 -0.9747644592878686 0.1986511716339451
vn -0.10184282457635577 -0.9747644592878685 0.19865117163394497
vn 0.22295837341471691 -0.9747644592878685 0.011127112540686247
vn 0.121115548838361 -0.9747644592878684 0.18752405909325914
vn 0.12111554883836123 -0.9747644592878684 -0.18752405909325906
vn 0.22295453387283226 -0.9747652578457878 -0.011134088304972166
vn -0.29455690165153436 0.07362165860717226 -0.9527938303082034
vn -0.513625542066348 0.34973192024639455 -0.7835026397516601
vn -0.5734225286033517 0.09421145369628942 -0.8138248003609687
vn -0.3565955159062613 0.2833164878025181 -0.8902647953136151
vn -0.864863356665281 0.3637678489531206 -0.3459542258242883
vn -0.2964556197639016 0.44359739746749266 -0.8457750377437658
vn 0.5208998128220855 0.28564362305953234 -0.8044073008167817
vn 0.8306427162710386 -0.00043378508671320547 -0.5568056121631405
vn 0.5629946841549692 0.1569370756066986 -0.8114232803618983
vn 0.5223730809512221 0.22163071517833272 -0.8234113130064881
vn 0.42716629999989264 0.12577342982603348 -0.8953825978285471
vn 0.39996595791001877 0.09402419803583038 -0.9116944020321942
vn 0.4310920811350526 -0.24747736993623579 -0.8677064993141936
vn 0.44983577430393745 -0.15336822686007034 -0.8798442834650773
vn 0.43608552527532185 -0.21580345991830444 -0.8736465425632014
vn 0.5498819473608506 -0.215609372462648 -0.8069339765265199
vn 0.5364345704310677 -0.2314693777763254 -0.8115786337738795
vn -0.5422458399774002 -0.2898684501064949 -0.78863535975764
vn -0.5385838025508228 -0.21580305473635591 -0.8144670215523486
vn -0.4726848334655057 -0.2161478809744477 -0.854312086864012
vn -0.32257550579443744 -0.21259330496470197 -0.9223606289004579
vn -0.43758468972334086 -0.3181001421920229 -0.8410302841498292
vn -0.8510535378386874 -0.2849634103244224 -0.4410257707986337
vn -0.3720087651332879 0.9281093754990437 0.014915286614129303
vn 0.24838471687526542 -0.9643152994098736 -0.09165716418720433
vn 0.04044429052167006 0.9678934670794449 0.2480856621192169
vn 0.8515716249771232 -0.20173432108307385 0.48386881613818955
vn 0.23371880786996568 -0.9653413463689342 -0.11615336344013219
vn -0.864156451123159 -0.08817371340920173 0.49543821435761237
vn -0.13901013895085731 0.9801700111079512 0.14121944127315544
vn -0.1613626484060071 -0.9841060228054402 -0.07414466654761973
vn 0.3244754056170065 0.9457980681709705 -0.01348055613613039
vn 0.8407627909436559 -0.32064083116470504 -0.4362423486488236
vn -0.23313399490324913 -0.9621469273434397 -0.1411447151827868
vn 0.31754285465394555 0.8809970880645392 -0.35072876454608914
vn 0.8342813354177141 0.26165455921062214 -0.4852953173253689
vn -0.05881328139525515 -0.9748883142001105 0.21478773886697844
vn -0.07717319689554501 0.9796382705927573 -0.18534604519911732
vn 0.10859117527164615 -0.9873169594616963 0.1158152762481444
vn 0.0714095173828837 0.9762514879377953 -0.2045329145306068
vn -0.14291131374706856 -0.9724604492028074 0.18411146389989225
vn -0.8011845461691726 0.24316958661367344 -0.5467832066969799
vn -0.286181739283218 0.8550153636679277 -0.4324913178234144
vn 0.043953469209693834 -0.9608381475565679 0.2736021687496205
usemtl m_ff70f691-bde8-f186-4486-f40bb40d341f
f 74/1/1 63/2/1 3/3/1 8/4/1
f 3/5/2 4/6/2 9/7/2 8/8/2
f 4/9/3 5/10/3 10/11/3 9/12/3
f 5/13/4 6/14/4 11/15/4 10/16/4
f 6/17/5 7/18/5 12/19/5 11/20/5
f 76/21/6 77/22/6 12/23/6 7/24/6
f 73/25/7 74/26/7 8/27/7 13/28/7
f 8/29/8 9/30/8 14/31/8 13/32/8
f 9/33/9 10/34/9 15/35/9 14/36/9
f 10/37/10 11/38/10 16/39/10 15/40/10
f 11/41/11 12/42/11 17/43/11 16/44/11
f 77/45/12 78/46/12 17/47/12 12/48/12
f 72/49/13 73/50/13 13/51/13 18/52/13
f 13/53/14 14/54/14 19/55/14 18/56/14
f 14/57/15 15/58/15 20/59/15 19/60/15
f 15/61/16 16/62/16 21/63/16 20/64/16
f 16/65/17 17/66/17 22/67/17 21/68/17
f 78/69/18 79/70/18 22/71/18 17/72/18
f 71/73/19 72/74/19 18/75/19 23/76/19
f 18/77/20 19/78/20 24/79/20 23/80/20
f 19/81/21 20/82/21 25/83/21 24/84/21
f 20/85/22 21/86/22 26/87/22 25/88/22
f 21/89/23 22/90/23 27/91/23 26/92/23
f 79/93/24 80/94/24 27/95/24 22/96/24
f 70/97/25 71/98/25 23/99/25 28/100/25
f 23/101/26 24/102/26 29/103/26 28/104/26
f 111/105/27 109/106/27 110/107/27 112/108/27
f 130/109/28 129/110/28 127/111/28 128/112/28
f 26/113/29 27/114/29 32/115/29 31/116/29
f 80/117/30 81/118/30 32/119/30 27/120/30
f 69/121/31 70/122/31 28/123/31 33/124/31
f 28/125/32 29/126/32 34/127/32 33/128/32
f 112/129/33 110/130/33 113/131/33 114/132/33
f 128/133/34 127/134/34 125/135/34 126/136/34
f 31/137/35 32/138/35 37/139/35 36/140/35
f 81/141/36 82/142/36 37/143/36 32/144/36
f 68/145/37 69/146/37 33/147/37 38/148/37
f 33/149/38 34/150/38 39/151/38 38/152/38
f 117/153/39 115/154/39 116/155/39 118/156/39
f 126/157/40 125/158/40 121/159/40 123/160/40
f 36/161/41 37/162/41 42/163/41 41/164/41
f 82/165/42 83/166/42 42/167/42 37/168/42
f 67/169/43 68/170/43 38/171/43 43/172/43
f 38/173/44 39/174/44 44/175/44 43/176/44
f 118/177/45 116/178/45 119/179/45 120/180/45
f 123/181/46 121/182/46 122/183/46 124/184/46
f 41/185/47 42/186/47 47/187/47 46/188/47
f 83/189/48 84/190/48 47/191/48 42/192/48
f 66/193/49 67/194/49 43/195/49 48/196/49
f 43/197/50 44/198/50 49/199/50 48/200/50
f 44/201/51 45/202/51 50/203/51 49/204/51
f 45/205/52 46/206/52 51/207/52 50/208/52
f 46/209/53 47/210/53 52/211/53 51/212/53
f 84/213/54 85/214/54 52/215/54 47/216/54
f 65/217/55 66/218/55 48/219/55 53/220/55
f 48/221/56 49/222/56 54/223/56 53/224/56
f 49/225/57 50/226/57 55/227/57 54/228/57
f 50/229/58 51/230/58 56/231/58 55/232/58
f 51/233/59 52/234/59 57/235/59 56/236/59
f 85/237/60 86/238/60 57/239/60 52/240/60
f 64/241/61 65/242/61 53/243/61 58/244/61
f 53/245/62 54/246/62 59/247/62 58/248/62
f 54/249/63 55/250/63 60/251/63 59/252/63
f 55/253/64 56/254/64 61/255/64 60/256/64
f 56/257/65 57/258/65 62/259/65 61/260/65
f 86/261/66 75/262/66 62/263/66 57/264/66
f 63/265/67 64/266/67 58/267/67 3/268/67
f 58/269/68 59/270/68 4/271/68 3/272/68
f 59/273/69 60/274/69 5/275/69 4/276/69
f 60/277/70 61/278/70 6/279/70 5/280/70
f 61/281/71 62/282/71 7/283/71 6/284/71
f 75/285/72 76/286/72 7/287/72 62/288/72
f 63/289/73 2/290/73 64/291/73
f 64/292/74 2/293/74 65/294/74
f 65/295/75 2/296/75 66/297/75
f 66/298/76 2/299/76 67/300/76
f 67/301/77 2/302/77 68/303/77
f 68/304/78 2/305/78 69/306/78
f 69/307/79 2/308/79 70/309/79
f 70/310/80 2/311/80 71/312/80
f 71/313/81 2/314/81 72/315/81
f 72/316/82 2/317/82 73/318/82
f 73/319/83 2/320/83 74/321/83
f 74/322/84 2/323/84 63/324/84
f 75/325/85 1/326/85 76/327/85
f 76/328/86 1/329/86 77/330/86
f 77/331/87 1/332/87 78/333/87
f 78/334/88 1/335/88 79/336/88
f 79/337/89 1/338/89 80/339/89
f 80/340/90 1/341/90 81/342/90
f 81/343/91 1/344/91 82/345/91
f 82/346/92 1/347/92 83/348/92
f 83/349/93 1/350/93 84/351/93
f 84/352/94 1/353/94 85/354/94
f 85/355/95 1/356/95 86/357/95
f 86/358/96 1/359/96 75/360/96
f 87/361/97 89/362/97 34/363/97 35/364/97
f 88/365/98 87/366/98 35/367/98 40/368/98
f 89/369/99 90/370/99 39/371/99 34/372/99
f 91/373/100 88/374/100 40/375/100 45/376/100
f 92/377/101 91/378/101 45/379/101 44/380/101
f 90/381/102 92/382/102 44/383/102 39/384/102
f 94/385/103 93/386/103 30/387/103 35/388/103
f 96/389/104 94/390/104 35/391/104 34/392/104
f 95/393/105 96/394/105 34/395/105 29/396/105
f 97/397/106 98/398/106 24/399/106 25/400/106
f 93/401/107 97/402/107 25/403/107 30/404/107
f 98/405/108 95/406/108 29/407/108 24/408/108
f 99/409/109 101/410/109 25/411/109 26/412/109
f 100/413/110 99/414/110 26/415/110 31/416/110
f 101/417/111 102/418/111 30/419/111 25/420/111
f 103/421/112 100/422/112 31/423/112 36/424/112
f 102/425/113 104/426/113 35/427/113 30/428/113
f 105/429/114 103/430/114 36/431/114 41/432/114
f 104/433/115 106/434/115 40/435/115 35/436/115
f 107/437/116 105/438/116 41/439/116 46/440/116
f 108/441/117 107/442/117 46/443/117 45/444/117
f 106/445/118 108/446/118 45/447/118 40/448/118
f 109/449/119 111/450/119 98/451/119 97/452/119
f 110/453/120 109/454/120 97/455/120 93/456/120
f 111/457/121 112/458/121 95/459/121 98/460/121
f 113/461/122 110/462/122 93/463/122 94/464/122
f 114/465/123 113/466/123 94/467/123 96/468/123
f 112/469/124 114/470/124 96/471/124 95/472/124
f 115/473/125 117/474/125 89/475/125 87/476/125
f 116/477/126 115/478/126 87/479/126 88/480/126
f 117/481/127 118/482/127 90/483/127 89/484/127
f 119/485/128 116/486/128 88/487/128 91/488/128
f 120/489/129 119/490/129 91/491/129 92/492/129
f 118/493/130 120/494/130 92/495/130 90/496/130
f 122/497/131 121/498/131 105/499/131 107/500/131
f 124/501/132 122/502/132 107/503/132 108/504/132
f 123/505/133 124/506/133 108/507/133 106/508/133
f 121/509/134 125/510/134 103/511/134 105/512/134
f 126/513/135 123/514/135 106/515/135 104/516/135
f 125/517/136 127/518/136 100/519/136 103/520/136
f 128/521/137 126/522/137 104/523/137 102/524/137
f 129/525/138 130/526/138 101/527/138 99/528/138
f 127/529/139 129/530/139 99/531/139 100/532/139
f 130/533/140 128/534/140 102/535/140 101/536/140
o cylinder
v -0.07857225959673701 1.431249999999999 0.2932356648805138
v -0.21466556394351363 1.431249999999999 0.21466556394351358
v -0.29323861366455234 1.431249999999999 0.07857304972103864
v -0.29323861366455234 1.431249999999999 -0.07857304972103878
v -0.2146655639435136 1.431249999999999 -0.21466556394351363
v -0.07857304972103868 1.431249999999999 -0.29323861366455234
v 0.07857304972103887 1.431249999999999 -0.29323861366455234
v 0.2146655639435136 1.431249999999999 -0.2146655639435136
v 0.29323861366455234 1.431249999999999 -0.07857304972103882
v 0.29323861366455234 1.431249999999999 0.07857304972103876
v 0.21466556394351358 1.431249999999999 0.2146655639435136
v 0.07857304972103876 1.431249999999999 0.29323861366455234
v -0.07107458073793933 1.4546053134808417 0.26525394644064587
v -0.19418131837450872 1.4546053134808417 0.1941813183745087
v -0.2652566138399329 1.4546053134808417 0.07107529546542403
v -0.2652566138399329 1.4546053134808417 -0.07107529546542415
v -0.1941813183745087 1.4546053134808417 -0.19418131837450872
v -0.07107529546542407 1.4546053134808417 -0.2652566138399329
v 0.07107529546542425 1.4546053134808417 -0.2652566138399329
v 0.1941813183745087 1.4546053134808417 -0.1941813183745087
v 0.2652566138399329 1.4546053134808417 -0.07107529546542422
v 0.2652566138399329 1.4546053134808417 0.07107529546542414
v 0.1941813183745087 1.4546053134808417 0.1941813183745087
v 0.07107529546542414 1.4546053134808417 0.2652566138399329
v -0.053305935553454496 1.4546053134808417 0.1989404598304844
v -0.1456359887808816 1.4546053134808417 0.1456359887808815
v -0.19894246037994961 1.4546053134808417 0.053306471599068025
v -0.19894246037994961 1.4546053134808417 -0.053306471599068136
v -0.14563598878088152 1.4546053134808417 -0.1456359887808816
v -0.05330647159906807 1.4546053134808417 -0.19894246037994961
v 0.05330647159906817 1.4546053134808417 -0.19894246037994961
v 0.14563598878088152 1.4546053134808417 -0.14563598878088152
v 0.19894246037994961 1.4546053134808417 -0.053306471599068164
v 0.19894246037994961 1.4546053134808417 0.053306471599068095
v 0.1456359887808815 1.4546053134808417 0.14563598878088152
v 0.053306471599068095 1.4546053134808417 0.19894246037994961
v 0.149910046066795 1.7101707156305157 0.07583602174635194
v 0.1363919375822399 1.6544683025360951 0.12005176228001192
v 0.09226692472484901 1.6062285977442305 0.14843254341982118
v 0.029358269055772566 1.578377391197021 0.15337375777880355
v -0.035477126286915836 1.578378436430642 0.13355068093502717
v -0.0848682531260536 1.6062285977442305 0.09427688478516373
v -0.10557921526596707 1.6544683025360951 0.04607375682639192
v -0.09206110678141186 1.7101707156305157 0.0018580162927319924
v -0.04793609392402093 1.7584104204223776 -0.02652276484707789
v 0.014972561745055442 1.786261626969589 -0.031463979206060234
v 0.07980853674236026 1.786261626969589 -0.011641632387097547
v 0.12919908392688167 1.7584104204223776 0.02763289378757965
v -0.14961665170006205 1.6521298172820462 0.2421279615844024
vt 0.46401875 0.734375
vt 0.44625 0.734375
vt 0.4453125 0.7265625
vt 0.46495625 0.7265625
vt 0.46401875 0.640625
vt 0.44625 0.640625
vt 0.4453125 0.6328125
vt 0.46495625 0.6328125
vt 0.192478125 0.5546875
vt 0.174709375 0.5546875
vt 0.173771875 0.546875
vt 0.193415625 0.546875
vt 0.4678125 0.625
vt 0.45004375 0.625
vt 0.44910625 0.6171875
vt 0.46875 0.6171875
vt 0.2959375 0.5546875
vt 0.27816875 0.5546875
vt 0.27723125 0.546875
vt 0.296875 0.546875
vt 0.465915625 0.921875
vt 0.448146875 0.921875
vt 0.447209375 0.9140625
vt 0.466853125 0.9140625
vt 0.32339375 0.5546875
vt 0.305625 0.5546875
vt 0.3046875 0.546875
vt 0.32433125 0.546875
vt 0.47183125 0.984375
vt 0.4540625 0.984375
vt 0.453125 0.9765625
vt 0.47276875 0.9765625
vt 0.465915625 0.75
vt 0.448146875 0.75
vt 0.447209375 0.7421875
vt 0.466853125 0.7421875
vt 0.475625 1
vt 0.45785625 1
vt 0.45691875 0.9921875
vt 0.4765625 0.9921875
vt 0.4678125 0.65625
vt 0.45004375 0.65625
vt 0.44910625 0.6484375
vt 0.46875 0.6484375
vt 0.465915625 0.90625
vt 0.448146875 0.90625
vt 0.447209375 0.8984375
vt 0.466853125 0.8984375
vt 0.09880546875 0.87166328125
vt 0.0872640625 0.87832578125
vt 0.08119609375 0.8722578125
vt 0.096584375 0.8633734375
vt 0.0872640625 0.87832578125
vt 0.08060078125 0.8898671874999999
vt 0.07231171875 0.88764609375
vt 0.08119609375 0.8722578125
vt 0.08060078125 0.8898671874999999
vt 0.08060078125 0.90319375
vt 0.07231171875 0.90541484375
vt 0.07231171875 0.88764609375
vt 0.08060078125 0.90319375
vt 0.0872640625 0.91473515625
vt 0.08119609375 0.920803125
vt 0.07231171875 0.90541484375
vt 0.0872640625 0.91473515625
vt 0.09880546875 0.9213984375
vt 0.096584375 0.9296875
vt 0.08119609375 0.920803125
vt 0.09880546875 0.9213984375
vt 0.11213203125 0.9213984375
vt 0.114353125 0.9296875
vt 0.096584375 0.9296875
vt 0.11213203125 0.9213984375
vt 0.12367343750000001 0.91473515625
vt 0.12974140625 0.920803125
vt 0.114353125 0.9296875
vt 0.12367343750000001 0.91473515625
vt 0.13033671875 0.90319375
vt 0.13862578125 0.90541484375
vt 0.12974140625 0.920803125
vt 0.13033671875 0.90319375
vt 0.13033671875 0.8898671874999999
vt 0.13862578125 0.88764609375
vt 0.13862578125 0.90541484375
vt 0.13033671875 0.8898671874999999
vt 0.12367343750000001 0.87832578125
vt 0.12974140625 0.8722578125
vt 0.13862578125 0.88764609375
vt 0.12367343750000001 0.87832578125
vt 0.11213203125 0.8716625
vt 0.114353125 0.8633734375
vt 0.12974140625 0.8722578125
vt 0.11213203125 0.8716625
vt 0.09880546875 0.87166328125
vt 0.096584375 0.8633734375
vt 0.114353125 0.8633734375
vt 0.1796875 0.6015625
vt 0.17436266450583754 0.5981347504540284
vt 0.171875 0.5707725645701041
vt 0.1796875 0.565721652219445
vt 0.20792516167515177 1
vt 0.20146094316103494 0.9938693832873731
vt 0.2077620381287809 0.9747872997457245
vt 0.21875 0.9758745009868506
vt 0.3334556018409963 0.765625
vt 0.32566341434099627 0.76193359375
vt 0.3290899768409963 0.74553125
vt 0.3400798205909963 0.74803515625
vt 0.32566341434099627 0.76193359375
vt 0.31721149602020904 0.7625586555942144
vt 0.3161701794090037 0.7449500231461006
vt 0.3290178577989559 0.7458764709958134
vt 0.15966520443997942 0.5932713629029953
vt 0.16202874530567843 0.6015625
vt 0.140625 0.6015625
vt 0.14272274970109888 0.5884258840780439
vt 0.06208862456865205 0.6251606610637226
vt 0.06665161167928307 0.6328125
vt 0.0390625 0.6328125
vt 0.04150258890306016 0.6200149157197232
vt 0.340000805669199 0.9483524065674859
vt 0.34710877016028185 0.9539514123122265
vt 0.3125 0.9609375
vt 0.3125 0.947783367710523
vt 0.319607292830826 0.7042023582505704
vt 0.31377567608066537 0.7109375
vt 0.30698776592355376 0.671875
vt 0.3203125 0.671875
vt 0.06475223060029772 0.7223587345550628
vt 0.057224542913230016 0.7265625
vt 0.057224542913230016 0.6793419433616218
vt 0.0703125 0.6802099593779679
vt 0.03953637163606972 0.7404093914237484
vt 0.03125 0.7421875
vt 0.03125 0.6944611914229111
vt 0.04408606849467598 0.6935357876130449
vt 0.1302848323338951 0.7421875
vt 0.12166250410612604 0.7421875
vt 0.1171875 0.6986512433489994
vt 0.12924567155099817 0.6946417859691926
vt 0.0859375 0.6328125
vt 0.08102496431493145 0.6304275209651056
vt 0.078125 0.5942295524044336
vt 0.0859375 0.5892906391923086
vt 0.24915279260156292 0.5546875
vt 0.22987334150211455 0.5629497972859656
vt 0.22740970739843708 0.5546875
vt 0.265625 0.5390625
vt 0.265625 0.56418131222875
vt 0.2585245850502824 0.5587997111542709
vt 0.359375 0.5385886732337919
vt 0.359375 0.5703125
vt 0.3539045566869963 0.5631046514634658
vt 0.11601401568097666 0.5554643869434711
vt 0.11601401568097669 0.59375
vt 0.11054848431902331 0.586714568993923
vt 0.13157849828617132 0.5817106587197097
vt 0.1315784982861713 0.625
vt 0.125 0.6194260621942722
vt 0.1640625 0.8328057994387813
vt 0.18221328125 0.8749995494387813
vt 0.17373828125000002 0.8749995494387813
vt 0.1640625 0.8328057994387813
vt 0.18978011417915708 0.8708667096565605
vt 0.18221347507107824 0.875
vt 0.35250172029023624 0.859375
vt 0.39514037089397397 0.8510985354431064
vt 0.3984375 0.859375
vt 0.37844101169208577 0.6875
vt 0.4166105105730612 0.6801399004503818
vt 0.421875 0.6875
vt 0.16905313066103494 0.9997021957873731
vt 0.20146094316103494 0.9938693832873731
vt 0.20792500566103495 0.9999998520373732
vt 0.0234375 0.556365942870162
vt 0.018180069247464098 0.5302708612025615
vt 0.0234375 0.5234375
vt 0.3890119638675216 0.5578690987078005
vt 0.3828125 0.5370286047412238
vt 0.38901196386752157 0.53125
vt 0.002407812500000002 0.9487078125
vt 0.0122296875 0.931696875
vt 0.029240625 0.921875
vt 0.002407812500000002 0.9683515625
vt 0.029240625 0.995184375
vt 0.0122296875 0.9853625
vt 0.002407812500000002 0.9683515625
vt 0.048884375 0.995184375
vt 0.0757171875 0.9683515625
vt 0.0658953125 0.9853625
vt 0.048884375 0.995184375
vt 0.0757171875 0.9487078125
vt 0.048884375 0.921875
vt 0.0658953125 0.931696875
vt 0.0757171875 0.9487078125
vt 0.029240625 0.921875
vt 0.048884375 0.995184375
vt 0.002407812500000002 0.9683515625
vt 0.029240625 0.921875
vt 0.0757171875 0.9487078125
vn -0.32038202954144446 0.7677204767219632 0.554942001265634
vn -0.5549343446986417 0.7677220617505526 0.3203914932943288
vn -0.6407829865886585 0.7677220617505526 0
vn -0.5549343446986408 0.7677220617505532 -0.3203914932943287
vn -0.320391493294329 0.7677220617505527 -0.5549343446986418
vn 0 0.7677220617505526 -0.6407829865886585
vn 0.3203914932943289 0.7677220617505535 -0.5549343446986407
vn 0.5549343446986414 0.7677220617505525 -0.3203914932943293
vn 0.6407829865886585 0.7677220617505525 0
vn 0.5549343446986411 0.7677220617505531 0.32039149329432887
vn 0.3203914932943291 0.7677220617505527 0.5549343446986414
vn -0.000012024133909506419 0.7677204767219626 0.640784885493738
vn 0 1 0
vn 0 1 0
vn 0 1 0
vn 0 1 0
vn 0 1 0
vn 0 1 0
vn 0 1 0
vn 0 1 0
vn 0 1 0
vn 0 1 0
vn 0 1 0
vn 0 1 0
vn 0.8891805659156993 0.13197500372174387 0.43811016832582517
vn 0.4281065733707387 0.13420328936918624 0.893708139696207
vn -0.07315191294108167 0.3320742247387981 0.94041241319816
vn -0.2564726244403892 0.4801219715112991 0.8388710779284042
vn -0.3983499535685722 0.4334618320830173 0.8083490301962083
vn -0.6872359040133844 0.34418330114163453 0.6397223362132615
vn -0.9224726774076102 0.35117440497538266 0.16037673374470934
vn -0.7719238776320448 0.4313357213648415 -0.4669936001876044
vn -0.2770749819775297 0.4779587075457217 -0.8335375985781176
vn 0.259746618319658 0.45904638894342137 -0.8495929066732532
vn 0.6975399052425114 0.3830951858127812 -0.6055379089713037
vn 0.9540315764428726 0.25913112836047425 -0.1505815707998648
vn -0.5149159021571978 -0.8562908525787712 0.04034339469553908
vn -0.8187191132362651 -0.5417210154284606 -0.19036111752346185
vn -0.9738936132472422 0.06330398577622758 -0.21799962261681619
vn -0.7424747096037659 0.6696809616898236 -0.01608462461472479
vn -0.38173367590820506 0.899755362936057 0.21147029944040344
vn -0.11617851710102559 0.9176602960431453 0.380002806871494
vn 0.07132402409190701 0.8537670421675679 0.5157467608194739
vn 0.21470588271669683 0.7349391742125679 0.6432462935257325
vn 0.3273215060266261 0.5374678715033865 0.7771672399130582
vn 0.38486788087517704 0.18048694278678093 0.9051525715337343
vn 0.25600042453397726 -0.42412426904285844 0.8686670173589444
vn -0.13844369048630759 -0.8808178882300789 0.4527617390399017
vn 0 -1 0
vn 0 -1 0
vn 0 -1 0
vn 0 -1 0
vn 0 -1 0
usemtl m_ff70f691-bde8-f186-4486-f40bb40d341f
f 143/537/141 144/538/141 132/539/141 131/540/141
f 144/541/142 145/542/142 133/543/142 132/544/142
f 145/545/143 146/546/143 134/547/143 133/548/143
f 146/549/144 147/550/144 135/551/144 134/552/144
f 147/553/145 148/554/145 136/555/145 135/556/145
f 148/557/146 149/558/146 137/559/146 136/560/146
f 149/561/147 150/562/147 138/563/147 137/564/147
f 150/565/148 151/566/148 139/567/148 138/568/148
f 151/569/149 152/570/149 140/571/149 139/572/149
f 152/573/150 153/574/150 141/575/150 140/576/150
f 153/577/151 154/578/151 142/579/151 141/580/151
f 154/581/152 143/582/152 131/583/152 142/584/152
f 155/585/153 156/586/153 144/587/153 143/588/153
f 156/589/154 157/590/154 145/591/154 144/592/154
f 157/593/155 158/594/155 146/595/155 145/596/155
f 158/597/156 159/598/156 147/599/156 146/600/156
f 159/601/157 160/602/157 148/603/157 147/604/157
f 160/605/158 161/606/158 149/607/158 148/608/158
f 161/609/159 162/610/159 150/611/159 149/612/159
f 162/613/160 163/614/160 151/615/160 150/616/160
f 163/617/161 164/618/161 152/619/161 151/620/161
f 164/621/162 165/622/162 153/623/162 152/624/162
f 165/625/163 166/626/163 154/627/163 153/628/163
f 166/629/164 155/630/164 143/631/164 154/632/164
f 167/633/165 168/634/165 164/635/165 163/636/165
f 168/637/166 169/638/166 165/639/166 164/640/166
f 169/641/167 170/642/167 166/643/167 165/644/167
f 170/645/168 171/646/168 155/647/168 166/648/168
f 171/649/169 172/650/169 156/651/169 155/652/169
f 172/653/170 173/654/170 157/655/170 156/656/170
f 173/657/171 174/658/171 158/659/171 157/660/171
f 174/661/172 175/662/172 159/663/172 158/664/172
f 175/665/173 176/666/173 160/667/173 159/668/173
f 176/669/174 177/670/174 161/671/174 160/672/174
f 177/673/175 178/674/175 162/675/175 161/676/175
f 178/677/176 167/678/176 163/679/176 162/680/176
f 179/681/177 172/682/177 171/683/177
f 179/684/178 173/685/178 172/686/178
f 179/687/179 174/688/179 173/689/179
f 179/690/180 175/691/180 174/692/180
f 179/693/181 176/694/181 175/695/181
f 179/696/182 177/697/182 176/698/182
f 179/699/183 178/700/183 177/701/183
f 179/702/184 167/703/184 178/704/184
f 179/705/185 168/706/185 167/707/185
f 179/708/186 169/709/186 168/710/186
f 179/711/187 170/712/187 169/713/187
f 179/714/188 171/715/188 170/716/188
f 134/717/189 135/718/189 136/719/189 133/720/189
f 131/721/190 132/722/190 133/723/190 142/724/190
f 140/725/191 141/726/191 142/727/191 139/728/191
f 137/729/192 138/730/192 139/731/192 136/732/192
f 142/733/193 133/734/193 136/735/193 139/736/193