# Made in Blockbench 5.1.5
mtllib SquireHead.mtl

o cylinder
v -3.0814879110195774e-33 1.1856427138185759 -0.004464085267097184
v 0 1.5182840481808135 0.005437189046703206
v 2.5452715708724132e-17 1.1122640136800592 -0.25093121901123633
v 2.4211032493436294e-17 1.5183657511488653 -0.2082534960971611
v 2.4356034649936328e-17 1.4801170444972618 -0.21202939043035882
v 2.5293066430722733e-17 1.1660719347046073 -0.24523415576899182
v 2.4755677521999228e-17 1.3532846374537253 -0.22525546924674952
v 2.4915611600058042e-17 1.2975676501303353 -0.23120139175815882
v -0.09017717982104202 1.2427102686629272 0.16405154268373198
v -0.08577798360688706 1.4654895674395032 0.19338099377843687
v -0.17810697804545572 1.1992073251817243 0.0410972407950629
v -0.17810697804545572 1.4806498108002906 0.0782275129208217
v -0.17810697804545572 1.1476355173686432 -0.13212408405397166
v -0.17810697804545572 1.5030376994495258 -0.09182538436183985
v -0.033743426466174675 1.1189653554624635 -0.22842250056526836
v -0.033743426466174675 1.5154617605749845 -0.18619549775229147
v -0.17810697804545572 1.4648539106013336 -0.09609437836728808
v -0.17810697804545572 1.442565287712708 0.07320452060597063
v -0.0862917160388515 1.427403870642369 0.1883669166727379
v -0.17810697804545572 1.1949247488329093 -0.12673290345156268
v -0.029006596822387272 1.171538271973168 -0.22278338860869396
v -0.08961155366879231 1.2775430777680192 0.1686373690004023
v -0.17810697804545572 1.2369871970959594 0.046081041183949414
v -0.07890141301618485 1.4292626074091022 0.1742590419692947
v -0.08222125064612568 1.2794018145347525 0.15452949429695914
v -0.16481656027396863 1.443231912498049 0.06815163538801439
v -0.16481656027396863 1.2388027093209106 0.041179409866864636
v -0.16481656027396863 1.4640289330588236 -0.08840426961512042
v -0.16481656027396863 1.198695321048838 -0.11843777909590954
v -0.029006596822387272 1.1744838666465864 -0.20679815550087327
v -0.029006596822387272 1.3542676757586665 -0.18744527647189652
v -0.16481656027396863 1.3579719183504473 -0.10027781180995562
v -0.16481656027396863 1.3631505513014726 0.05758372693892436
v -0.0803173195760441 1.372454604346666 0.16678012648317253
v -0.029006596822387272 1.353957634670847 -0.20308353236764778
v -0.16481656027396863 1.3105690871191762 -0.10568245931627684
v -0.029006596822387272 1.300761625869134 -0.19320495035991045
v -0.029006596822387272 1.2996672090228185 -0.20894647128331464
v -0.08088395475484658 1.344760857959679 0.16313417560377377
v -0.16481656027396863 1.3261429816569783 0.05270158425880035
v -0.029006596822387272 1.477225352987403 -0.19006481275161716
v -0.029006596822387272 1.4755753979023827 -0.17468459524728203
v -0.036456762658882765 1.324123116319761 -0.18658817837474753
v -0.15701399164944618 1.3174002207396847 -0.10958416188184689
v -0.036456762658882765 1.308671580227147 -0.18747917891068072
v -0.15701399164944618 1.350397641018639 -0.10598405680819215
v -0.1475747890452513 1.316542592592062 -0.0941161514513785
v -0.02701756005468785 1.3232654881721388 -0.1711201679442791
v -0.02701756005468785 1.307813952079524 -0.17201116848021233
v -0.1475747890452513 1.3495400128710162 -0.09051604637772372
v 0.09017717982104202 1.2427102686629272 0.16405154268373198
v 0.08577798360688706 1.4654895674395032 0.19338099377843687
v 0.17810697804545572 1.1992073251817243 0.0410972407950629
v 0.17810697804545572 1.4806498108002906 0.0782275129208217
v 0.17810697804545572 1.1476355173686432 -0.13212408405397166
v 0.17810697804545572 1.5030376994495258 -0.09182538436183985
v 0.033743426466174675 1.1189653554624635 -0.22842250056526836
v 0.033743426466174675 1.5154617605749845 -0.18619549775229147
v 0.17810697804545572 1.4648539106013336 -0.09609437836728808
v 0.17810697804545572 1.442565287712708 0.07320452060597063
v 0.0862917160388515 1.427403870642369 0.1883669166727379
v 0.17810697804545572 1.1949247488329093 -0.12673290345156268
v 0.029006596822387272 1.171538271973168 -0.22278338860869396
v 0.08961155366879231 1.2775430777680192 0.1686373690004023
v 0.17810697804545572 1.2369871970959594 0.046081041183949414
v 0.07890141301618485 1.4292626074091022 0.1742590419692947
v 0.08222125064612568 1.2794018145347525 0.15452949429695914
v 0.16481656027396863 1.443231912498049 0.06815163538801439
v 0.16481656027396863 1.2388027093209106 0.041179409866864636
v 0.16481656027396863 1.4640289330588236 -0.08840426961512042
v 0.16481656027396863 1.198695321048838 -0.11843777909590954
v 0.029006596822387272 1.1744838666465864 -0.20679815550087327
v 0.029006596822387272 1.3542676757586665 -0.18744527647189652
v 0.16481656027396863 1.3579719183504473 -0.10027781180995562
v 0.16481656027396863 1.3631505513014726 0.05758372693892436
v 0.0803173195760441 1.372454604346666 0.16678012648317253
v 0.029006596822387272 1.353957634670847 -0.20308353236764778
v 0.16481656027396863 1.3105690871191762 -0.10568245931627684
v 0.029006596822387272 1.300761625869134 -0.19320495035991045
v 0.029006596822387272 1.2996672090228185 -0.20894647128331464
v 0.08088395475484658 1.344760857959679 0.16313417560377377
v 0.16481656027396863 1.3261429816569783 0.05270158425880035
v 0.029006596822387272 1.477225352987403 -0.19006481275161716
v 0.029006596822387272 1.4755753979023827 -0.17468459524728203
v 0.036456762658882765 1.324123116319761 -0.18658817837474753
v 0.15701399164944618 1.3174002207396847 -0.10958416188184689
v 0.036456762658882765 1.308671580227147 -0.18747917891068072
v 0.15701399164944618 1.350397641018639 -0.10598405680819215
v 0.1475747890452513 1.316542592592062 -0.0941161514513785
v 0.02701756005468785 1.3232654881721388 -0.1711201679442791
v 0.02701756005468785 1.307813952079524 -0.17201116848021233
v 0.1475747890452513 1.3495400128710162 -0.09051604637772372
v -0.16481656027396863 1.1930968133891675 -0.12449867771816095
v -0.16481656027396863 1.311167109843092 -0.11092756923715293
v -0.029228508990457435 1.302175437294425 -0.20464659066437282
v -0.029228508990457435 1.169701147688291 -0.21905558450671098
v -0.02923987577732042 1.4769426247008255 -0.18612329869992622
v -0.02923987577732042 1.3556349025571093 -0.1988839799245407
v -0.16481656027396863 1.3585233564475145 -0.10551998487901353
v -0.16481656027396863 1.4645803711558911 -0.09364644268417831
v 0.02923987577732042 1.3556349025571093 -0.1988839799245407
v 0.02923987577732042 1.4769426247008255 -0.18612329869992622
v 0.16481656027396863 1.3585233564475145 -0.10551998487901353
v 0.16481656027396863 1.4645803711558911 -0.09364644268417831
v 0.16481656027396863 1.311167109843092 -0.11092756923715291
v 0.16481656027396863 1.1930968133891675 -0.12449867771816094
v 0.029228508990457435 1.302175437294425 -0.20464659066437282
v 0.029228508990457435 1.169701147688291 -0.21905558450671098
vt 0.22567540611225706 0.8743880614146682
vt 0.18058790705199146 0.8743972668777531
vt 0.2031225752154193 0.8299129775732768
vt 0.6439828125 0.6263000000000001
vt 0.6438421875 0.6193171875
vt 0.6842828125 0.6193171875
vt 0.6841421875 0.6263000000000001
vt 0.29105625 0.8032782925890847
vt 0.33394375 0.8032782925890847
vt 0.3125 0.8520829800890847
vt 0.81449375 0.921875
vt 0.8143640625 0.90625
vt 0.8575109375 0.90625
vt 0.85738125 0.921875
vt 0.921875 0.11549874355480316
vt 0.921875 0.12428268178322788
vt 0.8752812139556756 0.125
vt 0.875 0.1162205643967329
vt 0.7314921875 0.203125
vt 0.6903828125 0.203125
vt 0.688534375 0.1875
vt 0.733340625 0.1875
vt 0.238475 0.8941828125
vt 0.199025 0.8941828125
vt 0.19717656249999999 0.890625
vt 0.24032343750000001 0.890625
vt 0.6443375 0.640625
vt 0.6439828125 0.6263000000000001
vt 0.6841421875 0.6263000000000001
vt 0.6837875 0.640625
vt 0.6846171875 0.6028359375
vt 0.6842828125 0.6193171875
vt 0.6438421875 0.6193171875
vt 0.6435078125 0.6028359375
vt 0.18058790705199146 0.8743972668777531
vt 0.15859640972807568 0.8417984375
vt 0.20312187761789013 0.8299143546572472
vt 0.3281354377521331 0.37510173440969585
vt 0.3281323127521331 0.36577048440969584
vt 0.36214168775213307 0.37398767190969584
vt 0.3622291877521331 0.3809720469096959
vt 0.26773494818411014 0.8321237977965632
vt 0.29105625 0.8032782925890847
vt 0.31249990438500524 0.8520827624750974
vt 0.15859640972807568 0.8417984375
vt 0.15859640972807568 0.796615625
vt 0.20312297222807568 0.8299140625
vt 0.489246875 0.8327
vt 0.4894546875 0.8207734375
vt 0.528203125 0.8298015625
vt 0.52820625 0.839134375
vt 0.2670770073262023 0.875
vt 0.26773494818411014 0.8321237977965632
vt 0.3125011599445368 0.8520833222805897
vt 0.1946870347280757 0.771496875
vt 0.20312297222807568 0.8299140625
vt 0.15859640972807568 0.796615625
vt 0.5348953125 0.7364859375
vt 0.5539484375 0.78125
vt 0.5247921875 0.7364859375
vt 0.9162817352860098 0.6799298921289413
vt 0.9154713624143781 0.6761470625378583
vt 0.951166104923681 0.671875
vt 0.953125 0.6799298921289413
vt 0.5348953125 0.7364859375
vt 0.578125 0.7364859375
vt 0.5539484375 0.78125
vt 0.1946870347280757 0.771496875
vt 0.20312297222807568 0.765625
vt 0.20312297222807568 0.8299140625
vt 0.11822008680889609 0.6543187500000001
vt 0.11842789930889609 0.6403125000000001
vt 0.1274982118088961 0.6415593749999999
vt 0.1273060243088961 0.655209375
vt 0.8145010290033899 0.125
vt 0.8145010290033899 0.11539501408670838
vt 0.8571818207318831 0.11455473165925179
vt 0.8573739709966101 0.12415593459466645
vt 0.828125 0.859375
vt 0.828125 0.84375
vt 0.865140625 0.84375
vt 0.86521875 0.859375
vt 0.171875 0.6062631898983387
vt 0.1717932531479702 0.6181618492885479
vt 0.12795075815902052 0.6093323765850369
vt 0.1290935243088961 0.596121875
vt 0.1290935243088961 0.596121875
vt 0.1279497743088961 0.6093437500000001
vt 0.11891696180889609 0.60725625
vt 0.11912008680889609 0.59375
vt 0.929942200609335 0.616832566856978
vt 0.9331772686532556 0.625
vt 0.8940478753046727 0.625
vt 0.890625 0.6161095939262329
vt 0.8018967699123177 0.53125
vt 0.8057863861342892 0.5446255158913851
vt 0.7613791427653532 0.546875
vt 0.7567136138657108 0.53125
vt 0.949513554526697 0.7953125802609364
vt 0.949513554526697 0.7588091598772652
vt 0.9529236033252995 0.7577558275053705
vt 0.953125 0.796875
vt 0.2599506680859241 0.92094166360374
vt 0.238475 0.8941828125
vt 0.24032279393740819 0.8906262387083868
vt 0.2632722573437512 0.9196682974717129
vt 0.16989389001105648 0.4827299148717702
vt 0.17697524868842154 0.44219954086421065
vt 0.18065912631157846 0.44056826833880747
vt 0.17304691800742397 0.484375
vt 0.25995204432295305 0.9604256381832356
vt 0.2599506680859241 0.92094166360374
vt 0.26327314637848787 0.9196679566509081
vt 0.2632743340167647 0.9623572524993387
vt 0.005742187499999999 0.07830468749999997
vt 0.006060937499999999 0.06465624999999997
vt 0.009926562500000003 0.06544218749999997
vt 0.009607812499999997 0.07889218750000004
vt 0.17697524868842154 0.44219954086421065
vt 0.14746587368842154 0.4137979783642106
vt 0.14817524868842155 0.4097979783642106
vt 0.18059556118842154 0.4405964158642106
vt 0.4887296875 0.859375
vt 0.489246875 0.8327
vt 0.52820625 0.839134375
vt 0.5282125 0.859328125
vt 0.32813922642240695 0.3952954845983343
vt 0.3281354377521331 0.37510173440969585
vt 0.36222892649858063 0.38097200192667124
vt 0.3624486013884206 0.39529701171865494
vt 0.046875 0.36788466490667104
vt 0.046875 0.3975953126258074
vt 0 0.3926884298672345
vt 0.00011509529164051638 0.359375
vt 0.010678125 0.03369843750000001
vt 0.009926562500000003 0.06544218749999997
vt 0.006060937499999999 0.06465624999999997
vt 0.006810937499999999 0.032446874999999986
vt 0.1279497743088961 0.6093437500000001
vt 0.1274982118088961 0.6415593749999999
vt 0.11842789930889609 0.6403125000000001
vt 0.11891696180889609 0.60725625
vt 0.361935569275486 0.35750487724203106
vt 0.36214168775213307 0.37398767190969584
vt 0.3281315992228716 0.36577031201006405
vt 0.328125 0.34375
vt 0.528196875 0.807778125
vt 0.528203125 0.8298015625
vt 0.4894546875 0.8207734375
vt 0.48994375 0.792628125
vt 0.12759486608852585 0.6958435599880634
vt 0.1268253064618821 0.6861936063039237
vt 0.1709927502832121 0.6865332868187572
vt 0.17081753005523997 0.6961103475019075
vt 0.1175130494491363 0.6958016065456479
vt 0.11770030662302264 0.6861953211843737
vt 0.1268253064618821 0.6861936063039237
vt 0.12759274000121973 0.695816899748464
vt 0.22600291746180196 0.9821926360920683
vt 0.25995204432295305 0.9604256381832356
vt 0.2632743859161774 0.9623572826742053
vt 0.2260034483017802 0.9860586933399618
vt 0.005734905203071329 0.34299550784189625
vt 0.005734905203071329 0.3125
vt 0.046773486025191206 0.3156588299828008
vt 0.046875 0.3423383618745657
vt 0.11770030662302264 0.6861953211843737
vt 0.11822008680889609 0.6543187500000001
vt 0.1273044766803813 0.6552092232978068
vt 0.12682530659565777 0.6861936063038986
vt 0.004946875 0.10928281250000005
vt 0.005742187499999999 0.07830468749999997
vt 0.009607812499999997 0.07889218750000004
vt 0.008812499999999997 0.109375
vt 0.8214113927560165 0.9396551889064082
vt 0.8213176427560165 0.9435239389064082
vt 0.8191660802560164 0.9509848764064082
vt 0.8192707677560165 0.9375458139064081
vt 0.8570373475980851 0.9444697061671691
vt 0.8214113927560165 0.9396551889064082
vt 0.8192242751250689 0.9375
vt 0.8593265373417966 0.9429111295413543
vt 0.8569206660152289 0.9527678529128062
vt 0.8570373475980851 0.9444697061671691
vt 0.8593276028253083 0.9429104041153816
vt 0.8591883953126671 0.9548366274655177
vt 0.8213176427560165 0.9435239389064082
vt 0.8570857851859977 0.952372370159672
vt 0.859375 0.9544171844678387
vt 0.8191679810356297 0.950978285104554
vt 0.96875 0.9642142667652779
vt 0.96875 0.96875
vt 0.9375 0.9679345374249944
vt 0.9375 0.9634002031294329
vt 0.3125 0.0625
vt 0.328125 0.0625
vt 0.328125 0.078125
vt 0.3125 0.078125
vt 0.921875 0.328125
vt 0.926409917696676 0.328125
vt 0.927588353929828 0.359375
vt 0.9230530410788609 0.359375
vt 0.9457983460031263 0.53125
vt 0.9460044274894022 0.546875
vt 0.9377060517717823 0.546875
vt 0.9375 0.53125
vt 0.24765359027192432 0.8417802547973656
vt 0.22567540611225706 0.8743880614146682
vt 0.20312327337520558 0.8299143543722769
vt 0.27848331224786693 0.37398767190969584
vt 0.3124926872478669 0.36577048440969584
vt 0.3124895622478669 0.37510173440969585
vt 0.2783958122478669 0.3809720469096959
vt 0.33394375 0.8032782925890847
vt 0.35726505181588986 0.8321237977965632
vt 0.31250009561499476 0.8520827624750974
vt 0.24763514042645177 0.7965974460642494
vt 0.24765359027192432 0.8417802547973656
vt 0.2031221786458125 0.8299140626620247
vt 0.003046875000000001 0.47042656250000003
vt 0.0417953125 0.4613984375
vt 0.042003125 0.473325
vt 0.0030437500000000013 0.479759375
vt 0.35726505181588986 0.8321237977965632
vt 0.3579229926737977 0.875
vt 0.3124988400554632 0.8520833222805897
vt 0.20312297222807568 0.8299140625
vt 0.21155890972807567 0.771496875
vt 0.2476495347280757 0.796615625
vt 0.5554265625 0.671875
vt 0.5744796875 0.6271109375
vt 0.5845828125 0.6271109375
vt 0.40625 0.16069474250930293
vt 0.4105220625378582 0.125
vt 0.421875 0.12581037287163166
vt 0.421875 0.1626536375856219
vt 0.53125 0.6271109375
vt 0.5744796875 0.6271109375
vt 0.5554265625 0.671875
vt 0.20312297222807568 0.765625
vt 0.21155890972807567 0.771496875
vt 0.20312297222807568 0.8299140625
vt 0.2787508043409795 0.6259343749999999
vt 0.2878211168409795 0.6246875000000001
vt 0.28802892934097946 0.6386937500000001
vt 0.2789429918409795 0.639584375
vt 0.09574687500000001 0.171875
vt 0.1384390625 0.171875
vt 0.138628125 0.1875
vt 0.09574687500000001 0.1875
vt 0.859453125 0.671875
vt 0.890625 0.671875
vt 0.890625 0.6875
vt 0.859375 0.6875
vt 0.2782992418409795 0.5937187500000001
vt 0.2344567468520298 0.602548222703511
vt 0.234375 0.5906495633133019
vt 0.2771564756911039 0.5805082484149632
vt 0.28733205434097947 0.59163125
vt 0.2782992418409795 0.5937187500000001
vt 0.2771554918409795 0.580496875
vt 0.28712892934097944 0.578125
vt 0.21875 0.1483706066514171
vt 0.21875 0.1875
vt 0.20384797293074502 0.1842649319560794
vt 0.203125 0.14494773134674444
vt 0.6539104108780138 0.12746775663106413
vt 0.6516609267693989 0.171875
vt 0.6429645891219862 0.16798538377802852
vt 0.6429645891219862 0.12280222773142158
vt 0.828125 0.9997986033252995
vt 0.8291783323718946 0.984375
vt 0.865681752755566 0.984375
vt 0.8672441724946295 1
vt 0.19717720606259181 0.8906262387083868
vt 0.199025 0.8941828125
vt 0.1775493319140759 0.92094166360374
vt 0.1742277426562488 0.9196682974717129
vt 0.20996587368842154 0.42494326833880747
vt 0.21364975131157846 0.42657454086421065
vt 0.22073110998894352 0.4671049148717702
vt 0.21757808199257603 0.46875
vt 0.1742268536215121 0.9196679566509081
vt 0.1775493319140759 0.92094166360374
vt 0.17754795567704695 0.9604256381832356
vt 0.17422566598323533 0.9623572524993387
vt 0.0369484375 0.06544218749999997
vt 0.0408140625 0.06465624999999997
vt 0.041132812500000004 0.07830468749999997
vt 0.03726718750000001 0.07889218750000004
vt 0.24244975131157845 0.3941729783642106
vt 0.24315912631157846 0.3981729783642106
vt 0.21364975131157846 0.42657454086421065
vt 0.21002943881157846 0.4249714158642106
vt 0.003043749999999998 0.479759375
vt 0.042003125 0.473325
vt 0.042520312500000004 0.5
vt 0.0030374999999999985 0.499953125
vt 0.27839607350141937 0.38097200192667124
vt 0.3124895622478669 0.37510173440969585
vt 0.31248577357759305 0.3952954845983343
vt 0.2781763986115794 0.39529701171865494
vt 0.09581342986723454 0.3125
vt 0.10072031262580741 0.3534752980814435
vt 0.07100966490667102 0.3534752980814435
vt 0.0625 0.31261509529164055
vt 0.0408140625 0.06465624999999997
vt 0.0369484375 0.06544218749999997
vt 0.036196875 0.03369843750000001
vt 0.0400640625 0.032446874999999986
vt 0.2878211168409795 0.6246875000000001
vt 0.2787508043409795 0.6259343749999999
vt 0.2782992418409795 0.5937187500000001
vt 0.28733205434097947 0.59163125
vt 0.3124934007771284 0.36577031201006405
vt 0.27848331224786693 0.37398767190969584
vt 0.278689430724514 0.35750487724203106
vt 0.3125 0.34375
vt 0.0417953125 0.4613984375
vt 0.003046875000000001 0.47042656250000003
vt 0.0030531250000000038 0.448403125
vt 0.04130625 0.433253125
vt 0.23525626586666346 0.6709082868187572
vt 0.27942370968799346 0.6705686063039237
vt 0.27865415006134975 0.6802185599880634
vt 0.23543148609463557 0.6804853475019075
vt 0.27942370968799346 0.6705686063039237
vt 0.2885487095268529 0.6705703211843737
vt 0.28873596670073925 0.6801766065456479
vt 0.27865627614865585 0.680191899748464
vt 0.1742256140838226 0.9623572826742053
vt 0.17754795567704695 0.9604256381832356
vt 0.21149708253819804 0.9821926360920683
vt 0.2114965516982198 0.9860586933399618
vt 0.12815882998280081 0.7655234860251912
vt 0.125 0.71875
vt 0.15549550784189625 0.71875
vt 0.1548383618745657 0.765625
vt 0.27894453946949427 0.6395842232978068
vt 0.28802892934097946 0.6386937500000001
vt 0.2885487095268529 0.6705703211843737
vt 0.2794237095542178 0.6705686063038986
vt 0.03726718750000001 0.07889218750000004
vt 0.041132812500000004 0.07830468749999997
vt 0.041928125 0.10928281250000005
vt 0.0380625 0.109375
vt 0.7902089197439836 0.18535987640640816
vt 0.7880573572439835 0.17789893890640818
vt 0.7879636072439835 0.1740301889064082
vt 0.7901042322439835 0.17192081390640812
vt 0.7901507248749311 0.171875
vt 0.7879636072439835 0.1740301889064082
vt 0.7523376524019149 0.17884470616716908
vt 0.7500484626582034 0.17728612954135425
vt 0.7500473971746917 0.17728540411538163
vt 0.7523376524019149 0.17884470616716908
vt 0.7524543339847711 0.1871428529128062
vt 0.7501866046873329 0.18921162746551767
vt 0.75 0.18879218446783874
vt 0.7522892148140023 0.18674737015967202
vt 0.7880573572439835 0.17789893890640818
vt 0.7902070189643703 0.18535328510455396
vt 0.515625 0.1359262395358859
vt 0.515625 0.171875
vt 0.5 0.1717721113146775
vt 0.5 0.13582268679233156
vt 0.9375 0.65625
vt 0.921875 0.65625
vt 0.921875 0.640625
vt 0.9375 0.640625
vt 0.484375 0.171875
vt 0.4475288978101885 0.171875
vt 0.44738385909481515 0.15625
vt 0.48422843771247176 0.15625
vt 0.453125 0.047081051771782345
vt 0.453125 0.055379427489402167
vt 0.4375 0.05517334600312629
vt 0.4375 0.046875
vt 0.488134375 0.8207515625
vt 0.4886234375 0.79104375
vt 0.48994375 0.792628125
vt 0.4894546875 0.8207734375
vt 0.59375 0.1454957605606344
vt 0.59375 0.18676342383029731
vt 0.579452479158019 0.1875
vt 0.578125 0.14705510018967716
vt 0.8349059167994749 0.34375
vt 0.8682190832005251 0.34375
vt 0.8681774769737389 0.3593397844316052
vt 0.8364248507812859 0.359375
vt 0.5441609864750707 0.05736189753350929
vt 0.5441609864750707 0.015625
vt 0.546875 0.017483248666360973
vt 0.5457657870455702 0.05841744042367858
vt 0.8753979960374733 0.8125
vt 0.9058927438002157 0.8125
vt 0.9058520039625267 0.828125
vt 0.8753572561997843 0.828125
vt 0.731146515618801 0.04929173407130216
vt 0.6899875524809614 0.04929173407130216
vt 0.6915554383369833 0.046875
vt 0.7318874475190386 0.04820239950285099
vt 0.4874125 0.859340625
vt 0.4879296875 0.832665625
vt 0.489246875 0.8327
vt 0.4887296875 0.859375
vt 0.9441099939949565 0.3125
vt 0.9441099939949565 0.27135634826458643
vt 0.9451944520479281 0.27060924575680956
vt 0.9465150060050435 0.31091551583065635
vt 0.625 0.140625
vt 0.625 0.1817850357147447
vt 0.6107031930088341 0.182524979100666
vt 0.609375 0.1421916314146897
vt 0.609375 0.12428548760043134
vt 0.609375 0.09379073983768893
vt 0.625 0.09375
vt 0.625 0.12424474776274241
vt 0.8157377130511595 0.1875
vt 0.8568830528754678 0.1875
vt 0.8552978705318672 0.203125
vt 0.8149919471245322 0.201805272244572
vt 0.0433203125 0.47329062499999996
vt 0.0438375 0.49996562499999997
vt 0.042520312500000004 0.5
vt 0.042003125 0.473325
vt 0.668703183190735 0.0625
vt 0.6274354146159195 0.0625
vt 0.6289958183427667 0.06007468468660315
vt 0.6694395853840805 0.06140534439586365
vt 0.042626562500000006 0.43166875000000005
vt 0.043115625000000005 0.46137656250000003
vt 0.0417953125 0.4613984375
vt 0.04130625 0.433253125
vt 0.8125 0.8125
vt 0.8542380609859068 0.8125
vt 0.8552924616719277 0.8274400608449153
vt 0.8143588690750754 0.828125
vt 0.7563535884528457 0.0489381664010502
vt 0.7563535884528457 0.015625
vt 0.7592714115471543 0.01714393398181102
vt 0.7592361959787595 0.048896560174264025
vn 0 -0.9471621975213742 0.3207550024340717
vn 0 -0.13052619222005157 0.9914448613738104
vn 0 0.9627372904953387 0.2704383654175088
vn 0 -0.13052619222005157 0.9914448613738104
vn 0 -0.13052619222005157 0.9914448613738104
vn 0 0.9914321262656207 0.13062288853195153
vn 0 -0.9914321262656227 -0.13062288853193604
vn 0 -0.13052619222005157 0.9914448613738104
vn 0 -0.13052619222005157 0.9914448613738104
vn 0.011465306121138375 -0.9452199733329214 0.32623266048643923
vn -0.786951106491586 -0.08069920152747785 0.6117152890556979
vn -0.11492135784762446 0.96877840219494 0.2196849766166944
vn 2.8292116645805487e-16 -0.958425084086024 0.28534428011561386
vn -1 0 0
vn -0.1542794721079568 0.9795745387776584 0.12896343460310006
vn -2.2429164307063772e-15 -0.958425084086023 0.2853442801156172
vn -0.0854967833761393 0.9963383737041169 0.0003809422121542061
vn -0.5395822732632135 0.04846887305302334 -0.8405365778626608
vn -0.08549678337613907 0.9963383737041169 0.00038094221215417834
vn -2.3989515569564194e-15 -0.958425084086023 0.2853442801156172
vn -0.6026646101836453 0.08467838765579117 -0.7934890914790264
vn -1 0 0
vn -0.7845112545311088 -0.08108510891125277 0.6147904493621191
vn -0.5283418990657082 0.09617040677876042 -0.8435674783629634
vn -0.5897234145288074 0.13847716565058055 -0.7956446247853788
vn -0.7985139058744525 -0.0658101540117408 0.5983682526288282
vn -1 0 0
vn -0.20318877012776843 0.9594081257747279 -0.19557702291268497
vn 0.00007376850581267473 -0.9914371272622534 -0.130584904350304
vn -0.12212985100698749 0.9625912699619609 -0.241872583163182
vn -0.00034345919673540667 -0.9912916809056742 -0.13168403624958952
vn -1 0 0
vn 0.05732422706255456 0.9818256535761772 -0.18092075329102839
vn -1 0 0
vn -0.7849058709050569 -0.08106446781069494 0.6142892851721763
vn -0.5618066845172598 0.09446504681356827 -0.8218574110891952
vn -1 0 0
vn -0.6025659950537914 0.08568697528169691 -0.7934557100884132
vn -0.7892558606563773 -0.06425060093561458 0.6106939058963775
vn -1 0 0
vn -0.5342369285946132 0.0193381472072241 -0.8451135664444074
vn -0.6067737105196738 0.07809005633495285 -0.7910294604651532
vn 0.007980383995321307 -0.9927070266199554 -0.12028745890846039
vn -0.5637977527947767 0.08640323616884645 -0.8213808950317207
vn -0.6039949405147553 0.0826616664002222 -0.7926898263132408
vn -1 0 0
vn -0.3284859999347399 0.05437402464742454 -0.9429424231046747
vn -0.5344545254846983 0.10379347856454182 -0.8387999010469647
vn -0.5094627903135923 0.09332819111053653 -0.8554165733897864
vn -0.5439189547620628 0.0696859754215644 -0.8362392214432962
vn 0.07738623712793567 0.9969686651837453 0.008053008439099743
vn -0.8539670140138204 -0.029954490508412715 0.519464211928696
vn -0.177955887870604 -0.9825491996646495 0.05411813199420344
vn 0.8536389308715066 0.056492529625079925 -0.5177925934166215
vn -0.011465306121138392 -0.9452199733329214 0.32623266048643923
vn 0.7869511064915861 -0.0806992015274778 0.6117152890556979
vn 0.11492135784762449 0.96877840219494 0.2196849766166944
vn -3.233384759520627e-16 -0.958425084086024 0.28534428011561386
vn 1 0 0
vn 0.1542794721079568 0.9795745387776584 0.12896343460310006
vn 2.2429164307063772e-15 -0.958425084086023 0.28534428011561713
vn 0.08549678337613942 0.9963383737041169 0.00038094221215423385
vn 0.5395822732632136 0.04846887305302335 -0.8405365778626609
vn 0.08549678337613908 0.9963383737041169 0.0003809422121541506
vn 2.398951556956423e-15 -0.9584250840860231 0.2853442801156172
vn 0.6026646101836458 0.08467838765579108 -0.793489091479026
vn 1 0 0
vn 0.7845112545311088 -0.08108510891125294 0.6147904493621189
vn 0.5283418990657084 0.09617040677876043 -0.8435674783629635
vn 0.589723414528808 0.13847716565058055 -0.7956446247853782
vn 0.7985139058744525 -0.06581015401174055 0.5983682526288281
vn 1 0 0
vn 0.20318877012776845 0.9594081257747279 -0.19557702291268506
vn -0.00007376850581267472 -0.9914371272622534 -0.130584904350304
vn 0.12212985100698728 0.9625912699619609 -0.24187258316318205
vn 0.0003434591967354065 -0.9912916809056742 -0.13168403624958952
vn 1 0 0
vn -0.05732422706255469 0.9818256535761773 -0.18092075329102833
vn 1 0 0
vn 0.7849058709050568 -0.08106446781069483 0.6142892851721761
vn 0.56180668451726 0.09446504681356818 -0.8218574110891951
vn 1 0 0
vn 0.6025659950537922 0.08568697528169686 -0.7934557100884128
vn 0.7892558606563775 -0.06425060093561465 0.6106939058963774
vn 1 0 0
vn 0.5342369285946134 0.019338147207224182 -0.8451135664444074
vn 0.6067737105196743 0.07809005633495279 -0.7910294604651525
vn -0.007980383995321307 -0.9927070266199554 -0.12028745890846039
vn 0.5637977527947768 0.08640323616884649 -0.8213808950317206
vn 0.603994940514756 0.08266166640022216 -0.7926898263132403
vn 1 0 0
vn 0.32848599993473987 0.05437402464742455 -0.9429424231046747
vn 0.5344545254846987 0.10379347856454241 -0.8387999010469643
vn 0.5094627903135923 0.09332819111053656 -0.8554165733897866
vn 0.5439189547620626 0.06968597542156266 -0.8362392214432967
vn -0.07738623712793571 0.9969686651837453 0.00805300843909973
vn 0.8539670140138204 -0.029954490508412708 0.5194642119286959
vn 0.17795588787060393 -0.9825491996646495 0.05411813199420358
vn -0.8536389308715066 0.05649252962507992 -0.5177925934166215
vn -1 0 0
vn 0.14271385372353382 0.9833928279088918 0.11212181755898665
vn 0.9998147549964628 0.002081211912289611 -0.019134373476534867
vn 0.0912677561256371 -0.9282651257742247 0.36054688039581484
vn 0.9997949969561859 0.0021182082770523423 -0.0201364658039993
vn -0.10096491222769116 -0.9880990245538831 -0.11604483691452841
vn -1 0 0
vn -0.019320602096629044 0.9943271143712478 0.10459590795423712
vn 0.09282821643574984 -0.9902185827094022 -0.10416372060530638
vn -0.9997949969561859 0.0021182082770523423 -0.0201364658039993
vn 0.009453417080998977 0.9928652560484402 0.11886637976045944
vn 1 0 0
vn -0.14702563752710887 0.9820096567418051 0.11849259882199219
vn 1 0 0
vn -0.3273573133039844 -0.6940974721555341 0.6411442026359551
vn -0.9998192028208369 0.0020560769274950647 -0.018903285914741715
usemtl m_3d478068-9534-e6ba-c28c-3f41e95b72f8
f 51/1/1 9/2/1 1/3/1
f 34/4/2 39/5/2 81/6/2 76/7/2
f 10/8/3 52/9/3 2/10/3
f 10/11/4 19/12/4 61/13/4 52/14/4
f 51/15/5 64/16/5 22/17/5 9/18/5
f 67/19/6 25/20/6 22/21/6 64/22/6
f 24/23/7 66/24/7 61/25/7 19/26/7
f 24/27/8 34/28/8 76/29/8 66/30/8
f 67/31/9 81/32/9 39/33/9 25/34/9
f 9/35/10 11/36/10 1/37/10
f 33/38/11 40/39/11 39/40/11 34/41/11
f 12/42/12 10/43/12 2/44/12
f 11/45/13 13/46/13 1/47/13
f 32/48/14 36/49/14 40/50/14 33/51/14
f 14/52/15 12/53/15 2/54/15
f 15/55/16 1/56/16 13/57/16
f 16/58/17 2/59/17 4/60/17
f 48/61/18 49/62/18 47/63/18 50/64/18
f 16/65/19 14/66/19 2/67/19
f 15/68/20 3/69/20 1/70/20
f 7/71/21 8/72/21 38/73/21 35/74/21
f 14/75/22 17/76/22 18/77/22 12/78/22
f 12/79/23 18/80/23 19/81/23 10/82/23
f 13/83/24 20/84/24 21/85/24 15/86/24
f 15/87/25 21/88/25 6/89/25 3/90/25
f 9/91/26 22/92/26 23/93/26 11/94/26
f 11/95/27 23/96/27 20/97/27 13/98/27
f 25/99/28 27/100/28 23/101/28 22/102/28
f 26/103/29 24/104/29 19/105/29 18/106/29
f 27/107/30 29/108/30 20/109/30 23/110/30
f 28/111/31 26/112/31 18/113/31 17/114/31
f 35/115/32 38/116/32 37/117/32 31/118/32
f 29/119/33 30/120/33 21/121/33 20/122/33
f 28/123/34 32/124/34 33/125/34 26/126/34
f 26/127/35 33/128/35 34/129/35 24/130/35
f 93/131/36 94/132/36 95/133/36 96/134/36
f 30/135/37 37/136/37 38/137/37 21/138/37
f 21/139/38 38/140/38 8/141/38 6/142/38
f 25/143/39 39/144/39 40/145/39 27/146/39
f 27/147/40 40/148/40 36/149/40 29/150/40
f 16/151/41 41/152/41 17/153/41 14/154/41
f 4/155/42 5/156/42 41/157/42 16/158/42
f 42/159/43 28/160/43 17/161/43 41/162/43
f 97/163/44 98/164/44 99/165/44 100/166/44
f 5/167/45 7/168/45 35/169/45 41/170/45
f 41/171/46 35/172/46 31/173/46 42/174/46
f 45/175/47 43/176/47 31/177/47 37/178/47
f 44/179/48 45/180/48 37/181/48 36/182/48
f 46/183/49 44/184/49 36/185/49 32/186/49
f 43/187/50 46/188/50 32/189/50 31/190/50
f 44/191/51 47/192/51 49/193/51 45/194/51
f 45/195/52 49/196/52 48/197/52 43/198/52
f 43/199/53 48/200/53 50/201/53 46/202/53
f 46/203/54 50/204/54 47/205/54 44/206/54
f 53/207/55 51/208/55 1/209/55
f 81/210/56 82/211/56 75/212/56 76/213/56
f 52/214/57 54/215/57 2/216/57
f 55/217/58 53/218/58 1/219/58
f 82/220/59 78/221/59 74/222/59 75/223/59
f 54/224/60 56/225/60 2/226/60
f 1/227/61 57/228/61 55/229/61
f 2/230/62 58/231/62 4/232/62
f 89/233/63 91/234/63 90/235/63 92/236/63
f 56/237/64 58/238/64 2/239/64
f 3/240/65 57/241/65 1/242/65
f 80/243/66 8/244/66 7/245/66 77/246/66
f 60/247/67 59/248/67 56/249/67 54/250/67
f 61/251/68 60/252/68 54/253/68 52/254/68
f 63/255/69 62/256/69 55/257/69 57/258/69
f 6/259/70 63/260/70 57/261/70 3/262/70
f 65/263/71 64/264/71 51/265/71 53/266/71
f 62/267/72 65/268/72 53/269/72 55/270/72
f 65/271/73 69/272/73 67/273/73 64/274/73
f 61/275/74 66/276/74 68/277/74 60/278/74
f 62/279/75 71/280/75 69/281/75 65/282/75
f 60/283/76 68/284/76 70/285/76 59/286/76
f 79/287/77 80/288/77 77/289/77 73/290/77
f 63/291/78 72/292/78 71/293/78 62/294/78
f 75/295/79 74/296/79 70/297/79 68/298/79
f 76/299/80 75/300/80 68/301/80 66/302/80
f 107/303/81 105/304/81 106/305/81 108/306/81
f 80/307/82 79/308/82 72/309/82 63/310/82
f 8/311/83 80/312/83 63/313/83 6/314/83
f 82/315/84 81/316/84 67/317/84 69/318/84
f 78/319/85 82/320/85 69/321/85 71/322/85
f 59/323/86 83/324/86 58/325/86 56/326/86
f 83/327/87 5/328/87 4/329/87 58/330/87
f 59/331/88 70/332/88 84/333/88 83/334/88
f 103/335/89 101/336/89 102/337/89 104/338/89
f 77/339/90 7/340/90 5/341/90 83/342/90
f 73/343/91 77/344/91 83/345/91 84/346/91
f 73/347/92 85/348/92 87/349/92 79/350/92
f 79/351/93 87/352/93 86/353/93 78/354/93
f 78/355/94 86/356/94 88/357/94 74/358/94
f 74/359/95 88/360/95 85/361/95 73/362/95
f 91/363/96 89/364/96 86/365/96 87/366/96
f 90/367/97 91/368/97 87/369/97 85/370/97
f 92/371/98 90/372/98 85/373/98 88/374/98
f 89/375/99 92/376/99 88/377/99 86/378/99
f 94/379/100 93/380/100 29/381/100 36/382/100
f 95/383/101 94/384/101 36/385/101 37/386/101
f 96/387/102 95/388/102 37/389/102 30/390/102
f 93/391/103 96/392/103 30/393/103 29/394/103
f 98/395/104 97/396/104 42/397/104 31/398/104
f 99/399/105 98/400/105 31/401/105 32/402/105
f 100/403/106 99/404/106 32/405/106 28/406/106
f 97/407/107 100/408/107 28/409/107 42/410/107
f 101/411/108 103/412/108 74/413/108 73/414/108
f 102/415/109 101/416/109 73/417/109 84/418/109
f 104/419/110 102/420/110 84/421/110 70/422/110
f 103/423/111 104/424/111 70/425/111 74/426/111
f 105/427/112 107/428/112 79/429/112 78/430/112
f 106/431/113 105/432/113 78/433/113 71/434/113
f 108/435/114 106/436/114 71/437/114 72/438/114
f 107/439/115 108/440/115 72/441/115 79/442/115