# Made in Blockbench 5.1.5
mtllib SquireRightArm.mtl

o cuboid
v 0.8250000000000001 1.0468750000000013 0.10937499999999997
v 0.8250000000000001 1.0468750000000013 -0.11718749999999994
v 0.8250000000000001 0.9218750000000018 0.10937499999999997
v 0.8250000000000001 0.9218750000000018 -0.11718749999999994
v 0.6250000000000001 1.0468750000000013 0.08437499999999995
v 0.6250000000000001 1.0468750000000013 -0.11718749999999994
v 0.6250000000000001 0.9218750000000018 0.08437499999999995
v 0.6250000000000001 0.9218750000000018 -0.11718749999999994
v 0.6250000000000001 0.996875000000002 -0.11718749999999994
v 0.85 0.996875000000002 -0.11718749999999994
v 0.85 0.996875000000002 0.10937499999999997
v 0.6250000000000001 0.996875000000002 0.08437499999999995
v 0.7250000000000001 0.996875000000002 -0.11718749999999994
v 0.7250000000000001 1.0468750000000013 -0.11718749999999994
v 0.7250000000000001 1.0468750000000013 0.10937499999999997
v 0.7250000000000001 0.996875000000002 0.10937499999999997
v 0.7250000000000001 0.9218750000000018 0.10937499999999997
v 0.7250000000000001 0.9218750000000018 -0.11718749999999994
v 0.85 0.996875000000002 -0.042187500000000024
v 0.8250000000000001 0.9218750000000018 -0.042187500000000024
v 0.7250000000000001 0.9218750000000018 -0.042187500000000024
v 0.6250000000000001 0.9218750000000018 -0.042187500000000024
v 0.6250000000000001 0.996875000000002 -0.042187500000000024
v 0.6250000000000001 1.0468750000000013 -0.042187500000000024
v 0.7250000000000001 1.0468750000000013 -0.042187500000000024
v 0.8250000000000001 1.0468750000000013 -0.042187500000000024
v 0.6250000000000001 0.8843750000000015 -0.14843749999999997
v 0.7250000000000001 0.8843750000000015 -0.14843749999999997
v 0.7250000000000001 0.8843750000000017 -0.042187500000000024
v 0.6250000000000001 0.8843750000000017 -0.042187500000000024
v 0.6812500000000001 0.9218750000000018 -0.042187500000000024
v 0.6812500000000001 0.9218750000000018 0.10937499999999997
v 0.6812500000000001 0.996875000000002 0.10937499999999997
v 0.6812500000000001 1.0468750000000013 0.10937499999999997
v 0.6812500000000001 1.0468750000000013 -0.042187500000000024
v 0.6812500000000001 1.0468750000000013 -0.11718749999999994
v 0.6812500000000001 0.996875000000002 -0.11718749999999994
v 0.6812500000000001 0.8843750000000015 -0.14843749999999997
v 0.6812500000000001 0.8843750000000017 -0.042187500000000024
v 0.7250000000000001 0.8968750000000016 -0.11718749999999994
v 0.8171875000000001 0.8968750000000016 -0.042187500000000024
v 0.7250000000000001 0.8968750000000016 -0.042187500000000024
v 0.8171875000000001 0.8968750000000016 -0.11718749999999994
v 0.8171875000000001 0.8968750000000016 0.10937499999999997
v 0.7250000000000001 0.8968750000000016 0.10937499999999997
v 0.6812500000000001 0.8968750000000016 -0.042187500000000024
v 0.6812500000000001 0.8968750000000016 0.10937499999999997
vt 0.6623046875 0.5106875
vt 0.6623046875 0.4909234375
vt 0.6435546875 0.4909234375
vt 0.6435546875 0.5106875
vt 0.5 0.91875
vt 0.475 0.91875
vt 0.475 0.9375
vt 0.5 0.9375
vt 0.5220703125 0.37812500000000004
vt 0.5451171875 0.37812500000000004
vt 0.5451171875 0.359375
vt 0.5220703125 0.359375
vt 0.42421875 0.37812500000000004
vt 0.42421875 0.359375
vt 0.39921875 0.359375
vt 0.39296875 0.37812500000000004
vt 0.403125 0.421875
vt 0.403125 0.44062500000000004
vt 0.434375 0.44062500000000004
vt 0.428125 0.421875
vt 0.5806640625 0.96875
vt 0.5806640625 0.9875
vt 0.5994140625 0.9875
vt 0.5994140625 0.96875
vt 0.403125 0.44062500000000004
vt 0.403125 0.453125
vt 0.428125 0.453125
vt 0.434375 0.44062500000000004
vt 0.7716796875 0.859375
vt 0.7716796875 0.8453999999999999
vt 0.7529296875 0.8453999999999999
vt 0.7529296875 0.859375
vt 0.42421875 0.390625
vt 0.42421875 0.37812500000000004
vt 0.39296875 0.37812500000000004
vt 0.39921875 0.390625
vt 0.5806640625 0.9875
vt 0.5806640625 1
vt 0.5994140625 1
vt 0.5994140625 0.9875
vt 0.3921875 0.453125
vt 0.3921875 0.44062500000000004
vt 0.378125 0.44062500000000004
vt 0.378125 0.453125
vt 0.5109375 0.91875
vt 0.5109375 0.9375
vt 0.525 0.9375
vt 0.525 0.91875
vt 0.3127359375 0.11250000000000004
vt 0.3127359375 0.125
vt 0.328125 0.125
vt 0.328125 0.11250000000000004
vt 0.3127359375 0.09375
vt 0.3127359375 0.11250000000000004
vt 0.328125 0.11250000000000004
vt 0.328125 0.09375
vt 0.24843749999999998 0.15625
vt 0.24843749999999998 0.18281250000000004
vt 0.2625 0.18281250000000004
vt 0.2625 0.15625
vt 0.6578125 0.21875
vt 0.6578125 0.18955937499999997
vt 0.64375 0.18955937499999997
vt 0.64375 0.21875
vt 0.6623046875 0.4909234375
vt 0.6623046875 0.5106875
vt 0.7001953125 0.5106875
vt 0.7001953125 0.4909234375
vt 0.5451171875 0.37812500000000004
vt 0.5220703125 0.37812500000000004
vt 0.5220703125 0.416015625
vt 0.5451171875 0.416015625
vt 0.28125 0.09375
vt 0.28125 0.125
vt 0.296875 0.11875000000000002
vt 0.296875 0.09375
vt 0.5806640625 0.9875
vt 0.5806640625 0.96875
vt 0.5490234375 0.96875
vt 0.5490234375 0.9875
vt 0.5806640625 1
vt 0.5806640625 0.9875
vt 0.5490234375 0.9875
vt 0.5490234375 1
vt 0.5109375 0.880859375
vt 0.5109375 0.91875
vt 0.525 0.91875
vt 0.525 0.887109375
vt 0.475 0.91875
vt 0.5 0.91875
vt 0.5 0.880859375
vt 0.475 0.880859375
vt 0.7716796875 0.8453999999999999
vt 0.7716796875 0.859375
vt 0.8095703125 0.859375
vt 0.8095703125 0.8453999999999999
vt 0.36953125 0.21562499999999996
vt 0.36171875 0.20625000000000004
vt 0.36953125 0.234375
vt 0.5994140625 0.9875
vt 0.6072265625 0.959375
vt 0.5994140625 0.96875
vt 0.5994140625 0.96875
vt 0.6072265625 0.959375
vt 0.5806640625 0.959375
vt 0.5806640625 0.96875
vt 0.9359375 0.428125
vt 0.9359375 0.4375
vt 0.95 0.4375
vt 0.95 0.428125
vt 0.38828125 0.21562499999999996
vt 0.38828125 0.20625000000000004
vt 0.36171875 0.20625000000000004
vt 0.36953125 0.21562499999999996
vt 0.5560546875 0.416015625
vt 0.5560546875 0.37812500000000004
vt 0.5451171875 0.37812500000000004
vt 0.5451171875 0.416015625
vt 0.43515625 0.37812500000000004
vt 0.43515625 0.359375
vt 0.42421875 0.359375
vt 0.42421875 0.37812500000000004
vt 0.43515625 0.390625
vt 0.43515625 0.37812500000000004
vt 0.42421875 0.37812500000000004
vt 0.42421875 0.390625
vt 0.5109375 0.91875
vt 0.5109375 0.880859375
vt 0.5 0.880859375
vt 0.5 0.91875
vt 0.5109375 0.9375
vt 0.5109375 0.91875
vt 0.5 0.91875
vt 0.5 0.9375
vt 0.3921875 0.44062500000000004
vt 0.3921875 0.453125
vt 0.403125 0.453125
vt 0.403125 0.44062500000000004
vt 0.6578125 0.18955937499999997
vt 0.6578125 0.21875
vt 0.66875 0.21875
vt 0.66875 0.18955937499999997
vt 0.24843749999999998 0.18281250000000004
vt 0.24843749999999998 0.15625
vt 0.2375 0.15625
vt 0.2375 0.18281250000000004
vt 0.9359375 0.4375
vt 0.9359375 0.428125
vt 0.925 0.428125
vt 0.925 0.4375
vt 0.9375 0.46875
vt 0.9375 0.453125
vt 0.921875 0.453125
vt 0.921875 0.46875
vt 0.6623046875 0.4909234375
vt 0.6623046875 0.484375
vt 0.6435546875 0.484375
vt 0.6435546875 0.4909234375
vt 0.428125 0.421875
vt 0.426171875 0.4156249999999999
vt 0.403125 0.4156249999999999
vt 0.403125 0.421875
vt 0.7001953125 0.4909234375
vt 0.7001953125 0.484375
vt 0.6623046875 0.484375
vt 0.6623046875 0.4909234375
vt 0.42421875 0.359375
vt 0.42421875 0.3531249999999999
vt 0.401171875 0.3531249999999999
vt 0.39921875 0.359375
vt 0.578125 0.078125
vt 0.578125 0.0625
vt 0.5625 0.0625
vt 0.5625 0.078125
vt 0.90625 0.921875
vt 0.90625 0.90625
vt 0.875 0.90625
vt 0.875 0.921875
vt 0.43515625 0.359375
vt 0.43515625 0.3531249999999999
vt 0.42421875 0.3531249999999999
vt 0.42421875 0.359375
vn 0.9486832980505144 -0.3162277660168363 0
vn 0 1 0
vn 0 -1 0
vn 0 0 1
vn 0 0 -1
vn -1 0 0
vn 0 0 -1
vn 0.8944271909999143 0.44721359549996115 0
vn 0 0 1
vn -1 0 0
vn 0 0 -1
vn 0 1 0
vn -0.4061384660534478 0 0.9138115486202572
vn -0.4061384660534478 0 0.913811548620257
vn 0 -1 2.0898315757650014e-15
vn 0 0.2676438637860938 -0.963517909629941
vn 0.9486832980505144 -0.3162277660168363 0
vn 0 -1 0
vn 0 -1 0
vn -1 0 0
vn -1 0 0
vn 0 1 0
vn 0 1 0
vn 0.8944271909999143 0.44721359549996115 0
vn 1 0 0
vn -1 0 0
vn -1 0 0
vn 0 0 1
vn 1 0 0
vn 0 -1 0
vn 0 0 1
vn 0 0 1
vn 0 1 0
vn 0 1 0
vn 0 0 -1
vn 0 0.2676438637860938 -0.963517909629941
vn 0 -1 2.0898315757650014e-15
vn 0 0 1
vn -1 0 0
vn 0.9544799780350304 -0.2982749931359454 0
vn 0 0 -1
vn 0.9544799780350303 -0.29827499313594535 0
vn 0 0 1
vn 0 0 -1
vn -1 0 0
vn 0 0 1
usemtl m_3d478068-9534-e6ba-c28c-3f41e95b72f8
f 19/1/1 20/2/1 4/3/1 10/4/1
f 25/5/2 26/6/2 2/7/2 14/8/2
f 41/9/3 42/10/3 40/11/3 43/12/3
f 16/13/4 17/14/4 3/15/4 11/16/4
f 18/17/5 13/18/5 10/19/5 4/20/5
f 22/21/6 23/22/6 9/23/6 8/24/6
f 13/25/7 14/26/7 2/27/7 10/28/7
f 26/29/8 19/30/8 10/31/8 2/32/8
f 15/33/9 16/34/9 11/35/9 1/36/9
f 23/37/10 24/38/10 6/39/10 9/40/10
f 36/41/11 37/42/11 9/43/11 6/44/11
f 35/45/12 36/46/12 6/47/12 24/48/12
f 33/49/13 34/50/13 5/51/13 12/52/13
f 32/53/14 33/54/14 12/55/14 7/56/14
f 38/57/15 39/58/15 30/59/15 27/60/15
f 37/61/16 38/62/16 27/63/16 9/64/16
f 20/65/17 19/66/17 11/67/17 3/68/17
f 42/69/18 41/70/18 44/71/18 45/72/18
f 31/73/19 32/74/19 7/75/19 22/76/19
f 23/77/20 22/78/20 7/79/20 12/80/20
f 24/81/21 23/82/21 12/83/21 5/84/21
f 34/85/22 35/86/22 24/87/22 5/88/22
f 26/89/23 25/90/23 15/91/23 1/92/23
f 19/93/24 26/94/24 1/95/24 11/96/24
f 18/97/25 28/98/25 13/99/25
f 9/100/26 27/101/26 8/102/26
f 8/103/27 27/104/27 30/105/27 22/106/27
f 39/107/28 31/108/28 22/109/28 30/110/28
f 21/111/29 29/112/29 28/113/29 18/114/29
f 47/115/30 46/116/30 42/117/30 45/118/30
f 33/119/31 32/120/31 17/121/31 16/122/31
f 34/123/32 33/124/32 16/125/32 15/126/32
f 35/127/33 34/128/33 15/129/33 25/130/33
f 36/131/34 35/132/34 25/133/34 14/134/34
f 37/135/35 36/136/35 14/137/35 13/138/35
f 38/139/36 37/140/36 13/141/36 28/142/36
f 39/143/37 38/144/37 28/145/37 29/146/37
f 31/147/38 39/148/38 29/149/38 21/150/38
f 18/151/39 40/152/39 42/153/39 21/154/39
f 20/155/40 41/156/40 43/157/40 4/158/40
f 4/159/41 43/160/41 40/161/41 18/162/41
f 3/163/42 44/164/42 41/165/42 20/166/42
f 17/167/43 45/168/43 44/169/43 3/170/43
f 21/171/44 42/172/44 46/173/44 31/174/44
f 31/175/45 46/176/45 47/177/45 32/178/45
f 32/179/46 47/180/46 45/181/46 17/182/46
o Forearm
v 0.6211436170212764 1.2187500000000016 -0.07187500000000205
v 0.6211436170212769 1.2187500000000016 0.071874999999998
v 0.6187499999999997 0.9593749999999996 -0.056250000000002
v 0.6187500000000001 0.9593749999999996 0.05624999999999803
v 0.37812499999999993 1.2187500000000016 -0.04138257575757708
v 0.37812500000000016 1.2187500000000016 0.04138257575757447
v 0.3374999999999999 0.9593749999999996 -0.05625000000000117
v 0.33750000000000024 0.9593749999999996 0.05624999999999886
v 0.6187499999999997 1.0671875000000004 -0.08125000000000202
v 0.33749999999999986 1.0671875000000004 -0.08125000000000118
v 0.3375000000000003 1.0671875000000004 0.08124999999999885
v 0.6187500000000001 1.0671875000000004 0.08124999999999802
v 0.6843749999999998 1.2187500000000016 -0.04138257575757799
v 0.725 1.0671875000000004 0.07812499999999771
v 0.7249999999999995 1.0671875000000004 -0.07812500000000235
v 0.6843750000000001 1.2187500000000016 0.041382575757573564
v 0.36184907943082417 1.17049567308964 -0.07061954537279799
v 0.6209935790903426 1.0895308259511558 -0.15354577288331844
v 0.31497407943082406 1.0895308259511558 -0.12061954537279783
v 0.6209935790903427 1.1677192319889975 -0.09729577288331846
v 0.7528557853189621 1.0895308259511558 -0.12980122751052212
v 0.7059807853189622 1.161690978812671 -0.073551227510522
v 0.3614110369491475 1.1665532907545457 0.07350666497782028
v 0.31453603694914767 1.0895308259511558 0.12350666497782044
v 0.7528557853189628 1.0895308259511558 0.12980122751051734
v 0.7059807853189627 1.161690978812671 0.07355122751051747
v 0.6205555366086662 1.1637768496539032 0.10018289248833923
v 0.6205555366086664 1.0895308259511558 0.15643289248833925
v 0.43124808327308933 1.0671875000000004 0.08124999999999857
v 0.4312480832730893 0.9593749999999996 0.056249999999998586
v 0.52499712489004 1.0671875000000004 0.0812499999999983
v 0.52499712489004 0.9593749999999996 0.05624999999999831
v 0.43124808327308894 0.9593749999999996 -0.056250000000001445
v 0.5249971248900396 0.9593749999999996 -0.05625000000000172
v 0.4312480832730889 1.0671875000000004 -0.08125000000000146
v 0.5249971248900396 1.0671875000000004 -0.08125000000000174
v 0.4169784937855604 1.0895308259511558 -0.13576143941037352
v 0.5189839508848623 1.0895308259511558 -0.14465342434572298
v 0.4482288132400457 1.1695702116442859 -0.07951143941037361
v 0.5346094300698558 1.1686447407383618 -0.08840342434572306
v 0.4507960031918421 1.2187500000000016 -0.05154650936496272
v 0.5422179409388684 1.2187500000000016 -0.06171054687360209
v 0.45079600319184243 1.2187500000000016 0.05154650936495968
v 0.5422179409388689 1.2187500000000016 0.06171054687359851
v 0.44779077075836904 1.1656278293091915 0.0823985590153954
v 0.5341713875881792 1.1647023584032674 0.09129054395074432
v 0.41654045130388406 1.0895308259511558 0.13864855901539552
v 0.518545908403186 1.0895308259511558 0.1475405439507444
v 0.4309194074965004 1.0671875000000004 0.09339049929691609
v 0.524668449113451 1.0671875000000004 0.09339049929691581
v 0.5248327870017455 0.951645959005349 0.06232024964845707
v 0.43108374538479477 0.951645959005349 0.062320249648457345
v 0.5249971248900396 0.9516454474520935 -0.062322349154816874
v 0.43124808327308894 0.9516454474520935 -0.062322349154816596
v 0.5249971248900396 1.0671875000000004 -0.09339469830963204
v 0.43124808327308883 1.0671875000000004 -0.09339469830963176
v 0.43108374538479477 0.9328959590055068 0.06232032660147047
v 0.5248327870017455 0.9328959590055068 0.062320326601470195
v 0.5249971248900396 0.9328954474522513 -0.062322272201803745
v 0.43124808327308894 0.9328954474522513 -0.06232227220180347
v 0.43972377629927734 0.9328959119426072 0.05085320751156924
v 0.516222994258709 0.9328959119426072 0.050853207511569014
v 0.5163570939755572 0.9328954945151509 -0.05085515311190252
v 0.4398578760161253 0.9328954945151509 -0.05085515311190229
v 0.43972377629927734 0.9453959119425019 0.05085315620956051
v 0.516222994258709 0.9453959119425019 0.05085315620956028
v 0.5163570939755572 0.9453954945150456 -0.050855204413911254
v 0.4398578760161253 0.9453954945150456 -0.050855204413911025
v 0.6914199675561767 1.153010485848554 0.08703599100275605
v 0.691419967556177 1.0958780334667981 0.1316259129227933
v 0.6338507346793889 1.0958780334667981 0.1527370926910006
v 0.6338507346793888 1.153010485848554 0.10814717077096336
v 0.6914199675561761 1.0958780334667981 -0.1313738954528091
v 0.6914199675561763 1.153010485848554 -0.08678397353277183
v 0.6338507346793881 1.153010485848554 -0.10560650551854565
v 0.633850734679388 1.0958780334667981 -0.15019642743858286
v 0.691419967556177 1.153010485848554 0.1638558282346062
v 0.691419967556177 1.0958780334667981 0.1638558282346062
v 0.6338507346793891 1.0958780334667981 0.20760582823460638
v 0.6338507346793891 1.153010485848554 0.20760582823460638
v 0.6914199675561761 1.0958780334667981 -0.15976691154589778
v 0.6914199675561761 1.153010485848554 -0.15976691154589778
v 0.6338507346793879 1.153010485848554 -0.20351691154589763
v 0.6338507346793879 1.0958780334667981 -0.20351691154589763
v 0.766419967556177 1.140510485848554 0.272439257337197
v 0.766419967556177 1.108378033466798 0.272439257337197
v 0.696350734679389 1.108378033466798 0.2724392573371972
v 0.696350734679389 1.140510485848554 0.2724392573371972
v 0.7664199675561755 1.108378033466798 -0.2684986225402588
v 0.7664199675561755 1.140510485848554 -0.2684986225402588
v 0.6963507346793875 1.140510485848554 -0.2684986225402586
v 0.6963507346793875 1.108378033466798 -0.2684986225402586
v 0.7294182853189621 1.1256109023819134 -0.10167622751052206
v 0.7294182853189628 1.1256109023819134 0.1016762275105174
v 0.6914199675561769 1.124444259657676 0.10933095196277468
v 0.691419967556177 1.124444259657676 0.1638558282346062
v 0.766419967556177 1.124444259657676 0.272439257337197
v 0.696350734679389 1.124444259657676 0.2724392573371972
v 0.6338507346793891 1.124444259657676 0.20760582823460638
v 0.6338507346793888 1.124444259657676 0.13044213173098199
v 0.6205555366086662 1.1266538378025295 0.12830789248833924
v 0.5263586479956827 1.1271165921772117 0.11941554395074434
v 0.43216561103112655 1.1275793276301735 0.11052355901539544
v 0.33797353694914756 1.1280420583528508 0.09850666497782036
v 0.3384115794308241 1.130013249520398 -0.09561954537279792
v 0.432603653512803 1.1295505187977208 -0.10763643941037357
v 0.526796690477359 1.1290877833447588 -0.11652842434572303
v 0.6209935790903427 1.1286250289700765 -0.12542077288331843
v 0.6338507346793881 1.124444259657676 -0.12790146647856426
v 0.6338507346793879 1.124444259657676 -0.20351691154589763
v 0.6963507346793875 1.124444259657676 -0.2684986225402586
v 0.7664199675561755 1.124444259657676 -0.2684986225402588
v 0.6914199675561761 1.124444259657676 -0.15976691154589778
v 0.6914199675561762 1.124444259657676 -0.10907893449279046
v 0.7118401603189622 1.1532881658523135 -0.06333811375526216
v 0.7294182853189622 1.1256109023819134 -0.0820881137552622
v 0.7294182853189627 1.1256109023819134 0.08208811375525754
v 0.7118401603189627 1.1532881658523135 0.06333811375525758
v 0.7469964103189627 1.0991680512061772 0.06333811375525748
v 0.7469964103189622 1.0991680512061772 -0.06333811375526226
v 1.156830667092733 1.1532881658523133 -0.06333811375526348
v 1.156830667092733 1.126845314676577 -0.08208811375526347
v 1.1568306670927335 1.126845314676577 0.08208811375525628
v 1.1568306670927335 1.1532881658523133 0.06333811375525626
v 1.1568306670927335 1.099168051206177 0.06333811375525628
v 1.156830667092733 1.099168051206177 -0.06333811375526346
v 1.325580667092734 1.126845314676577 -6.137552639778123e-7
v 1.2818306670927333 1.099168051206177 -4.735655263039766e-7
v 0.7469964103189625 1.0991680512061772 -4.7356552471931207e-7
v 0.7528557853189625 1.0895308259511558 -9.704960033211702e-7
v 0.7249999999999998 1.0671875000000004 -5.841239087506788e-7
v 0.6187499999999999 1.0671875000000004 -6.074888646834211e-7
v 0.6187499999999999 0.9593749999999996 -4.205692146134796e-7
v 0.5249971248900398 0.9593749999999996 -4.205692143356985e-7
v 0.5249149565602521 0.9516457032268089 -0.0000015157161989113643
v 0.5249149565602521 0.9328957032269667 -0.000001438763185787629
v 0.5162900446184505 0.9328957032273186 -0.0000013530259902660912
v 0.5162900446184505 0.9453957032272133 -0.0000014043279989990573
v 0.43979082665901875 0.9453957032272133 -0.0000014043279987723972
v 0.43979082665901875 0.9328957032273186 -0.0000013530259900394311
v 0.4311659149433015 0.9328957032269667 -0.0000014387631855098593
v 0.4311659149433015 0.9516457032268089 -0.0000015157161986335945
v 0.4312480832730891 0.9593749999999996 -4.2056921405792876e-7
v 0.3375000000000001 0.9593749999999996 -4.2056921378016183e-7
v 0.3375000000000001 1.0671875000000004 -6.074888638501033e-7
v 0.3147550598275608 1.0895308259511558 0.0014426471627951268
v 0.3381925598275608 1.1290276613057117 0.0014428340824451163
v 0.3616300598275608 1.1685244966602675 0.0014430210020950917
v 0.37812500000000004 1.2187500000000016 -3.094086644668128e-7
v 0.45079600319184226 1.2187500000000016 -3.854022212021327e-7
v 0.5422179409388687 1.2187500000000016 -4.6139655485144857e-7
v 0.6211436170212766 1.2187500000000016 -5.373939959400525e-7
v 0.684375 1.2187500000000016 -3.0940866537420326e-7
v 0.7059807853189625 1.161690978812671 -5.499267905686641e-7
v 0.7118401603189625 1.1532881658523135 -4.7356552462177516e-7
v 1.2818306670927333 1.1532881658523133 -4.7356552631060444e-7
v 0.7966481148900941 1.1689319604342572 0.13676007781763774
v 0.6517443525648053 1.1689319604342572 0.20640224229096965
v 0.6524963436152577 1.1967856964278818 0.1655076324862157
v 0.7690203332985763 1.1967856964278818 0.09028807493280755
v 0.7926815614759146 1.1967856964278818 -0.0014846113166849773
v 0.8203093430674321 1.1689319604342572 -0.001484958777905721
v 0.7961223822103959 1.1689319604342572 -0.13520361731740294
v 0.7684946006188786 1.1967856964278818 -0.08873161443257262
v 0.5390402141225406 1.1967856964278818 0.1498910122942342
v 0.5287509135831042 1.1689319604342572 0.19262335059860808
v 0.42094767976177805 1.1967856964278818 0.13409414851965878
v 0.41710482452286773 1.1689319604342572 0.1786641401801505
v 0.2976490565477238 1.1967856964278818 0.08891578102945907
v 0.2762765531241905 1.1689319604342572 0.13532340726076933
v 0.24683295041691494 1.1689319604342572 0.0011620815287084391
v 0.2679253845831164 1.1967856964278818 -0.000923006013278539
v 0.2990056532156405 1.1967856964278818 -0.09060362065808206
v 0.27819328411876626 1.1689319604342572 -0.1328404090301001
v 0.41963410344559005 1.1689319604342572 -0.17613387828512286
v 0.42291682435784134 1.1967856964278818 -0.1357347244839233
v 0.5289945228724413 1.1689319604342572 -0.18986341349001543
v 0.5387236890852186 1.1967856964278818 -0.15130191304493373
v 0.6510571600405919 1.1967856964278818 -0.1630026130370641
v 0.6508653033167985 1.1689319604342572 -0.19972638498252593
vt 0.828125 0.234375
vt 0.81836875 0.21875
vt 0.7833359375 0.21875
vt 0.7812171875 0.23393125000000003
vt 0.7031257208141545 0.7734756390914304
vt 0.7031350958280451 0.7849569061028381
vt 0.7274014134682774 0.7851783582962804
vt 0.7336414666858455 0.7734785181363595
vt 0.07328128411193426 0.8329081333499283
vt 0.09301253411193426 0.8329081333499283
vt 0.09301253411193426 0.8149393833499283
vt 0.07328128411193426 0.8174800083499283
vt 0.83984375 0.6859375
vt 0.81640625 0.6859375
vt 0.81640625 0.7
vt 0.83984375 0.7
vt 0.6001237220011462 0.502710146039965
vt 0.6237768376148344 0.5025664055923489
vt 0.6244135482136544 0.49054292626314666
vt 0.5988135446783175 0.4904899195334298
vt 0.2759253362291652 0.43811674332709516
vt 0.2995595379259583 0.43911166372623134
vt 0.30129439603610125 0.4273413855023924
vt 0.27570900919811964 0.42647489683168605
vt 0.484375 0.625
vt 0.484375 0.65625
vt 0.515625 0.65625
vt 0.515625 0.625
vt 0.7265625 0.723046875
vt 0.7265625 0.75
vt 0.746875 0.75
vt 0.740625 0.723046875
vt 0.1875 0.265625
vt 0.1875 0.234375
vt 0.15625 0.234375
vt 0.15625 0.265625
vt 0.7265625 0.640625
vt 0.7265625 0.613671875
vt 0.7125 0.613671875
vt 0.70625 0.640625
vt 0.24124140625 0.05848281250000009
vt 0.25875859375 0.05848281250000009
vt 0.25875859375 0.05446562499999996
vt 0.24124140625 0.05446562499999996
vt 0.73203125 0.39531249999999996
vt 0.70546875 0.39531249999999996
vt 0.70546875 0.415625
vt 0.73203125 0.41484374999999996
vt 0.94436640625 0.7303578125000001
vt 0.96188359375 0.7303578125000001
vt 0.96188359375 0.726340625
vt 0.94436640625 0.726340625
vt 0.09301253411193426 0.8329081333499283
vt 0.10882034661193425 0.8329081333499283
vt 0.10882034661193425 0.8225628208499283
vt 0.09301253411193426 0.8149393833499283
vt 0.7251885818546461 0.8750068345321524
vt 0.7236838593567408 0.89181347543295
vt 0.749195940650332 0.8939143587021021
vt 0.7486174122513508 0.8750093524876177
vt 0.6495656741471306 0.40251433759163724
vt 0.6509859866471306 0.41457058759163723
vt 0.6792219241471306 0.41457058759163723
vt 0.6801250491471306 0.40308933759163723
vt 0.84375 0.390625
vt 0.84375 0.37542076137814484
vt 0.796875 0.37959007490771857
vt 0.8017406458097853 0.38977325483598135
vt 0.2881042548085872 0.140625
vt 0.2881042548085872 0.15955072976321683
vt 0.3212707451914128 0.1548576976461773
vt 0.3146529908619841 0.1406651985097711
vt 0.8753609577281699 0.875
vt 0.8750000007930575 0.8829707416710308
vt 0.9055156047718301 0.8829349233608514
vt 0.895673474913798 0.8750027202885462
vt 0.40625 0.109375
vt 0.41483034799111923 0.10766011402195252
vt 0.4162320168223661 0.08397342492230975
vt 0.40625 0.07509482478752982
vt 0.8671875 0.649553125
vt 0.8671875 0.640625
vt 0.84765625 0.640625
vt 0.8347375 0.649553125
vt 0.873771875 0.4829296875
vt 0.875 0.46875
vt 0.841028125 0.46875
vt 0.85123125 0.484375
vt 0.5975425481639806 0.4558780144884088
vt 0.5959284856639805 0.43838895198840877
vt 0.5724909856639805 0.43838895198840877
vt 0.5720394231639805 0.4579842644884088
vt 0.6146722365938981 0.7116055377704702
vt 0.6160394240938981 0.6986680377704703
vt 0.5850972365938981 0.6986680377704703
vt 0.5860487990938982 0.7109961627704703
vt 0.5459839544493117 0.4375
vt 0.5389152275599705 0.45152243440241935
vt 0.5720407302939098 0.4579275422861856
vt 0.5724909856639805 0.43838895198840877
vt 0.84375 0.7310514997938609
vt 0.8321284085319064 0.725332010870673
vt 0.828125 0.7653243183330065
vt 0.84375 0.765625
vt 0.40625 0.234375
vt 0.40625 0.265625
vt 0.4375 0.265625
vt 0.4375 0.234375
vt 0.7350286010780651 0.125
vt 0.764939566166466 0.125
vt 0.7649713989219349 0.109375
vt 0.735060433833534 0.109375
vt 0.38671875 0.17031249999999998
vt 0.36328125 0.17031249999999998
vt 0.36328125 0.18437499999999996
vt 0.38671875 0.18437499999999996
vt 0.56856328125 0.10646406249999996
vt 0.58768671875 0.10646406249999996
vt 0.58767109375 0.09375
vt 0.56854609375 0.09375
vt 0.765625 0.59375
vt 0.765625 0.5625
vt 0.734375 0.5625
vt 0.734375 0.59375
vt 0.609375 0.265625
vt 0.609375 0.234375
vt 0.578125 0.234375
vt 0.578125 0.265625
vt 0.6981795996863085 0.8897339186901597
vt 0.7017510818546461 0.8750068345321524
vt 0.6783135828511437 0.875
vt 0.672679059349668 0.8862249199124191
vt 0.7236838943546461 0.8918130845321525
vt 0.7251885818546461 0.8750068345321524
vt 0.7017510818546461 0.8750068345321524
vt 0.6981838943546461 0.8897162095321525
vt 0.5527426739702359 0.5034626614829638
vt 0.5764745981389355 0.50286305520173
vt 0.5732229949000736 0.49044352088176946
vt 0.5474614517863456 0.4913102780459002
vt 0.5764721688874547 0.502853886384995
vt 0.6001237220011462 0.502710146039965
vt 0.5988135446783175 0.4904899195334298
vt 0.5732166661429738 0.4904369125985407
vt 0.6217826790501961 0.4152809950853025
vt 0.6220150628619974 0.4029882796114519
vt 0.5854999508528694 0.40883155630851964
vt 0.5894955581830149 0.421875
vt 0.6509857122661218 0.41456825852248036
vt 0.6495656741471306 0.40251433759163724
vt 0.6220150628619974 0.4029882796114519
vt 0.6217826972536518 0.415280032152911
vt 0.03225784661193426 0.8329081333499283
vt 0.05042503411193426 0.8329081333499283
vt 0.05042503411193426 0.8200221958499283
vt 0.03225784661193426 0.8225628208499283
vt 0.05042503411193426 0.8329081333499283
vt 0.07328128411193426 0.8329081333499283
vt 0.07328128411193426 0.8174800083499283
vt 0.05042503411193426 0.8200221958499283
vt 0.6441665478748282 0.6989720755513834
vt 0.6444532980523083 0.7121444729839266
vt 0.6766115846078383 0.71875
vt 0.6805277634061019 0.7047787952671777
vt 0.6160393455598403 0.6986687809270407
vt 0.6146722365938981 0.7116055377704702
vt 0.6444532980523083 0.7121444729839266
vt 0.6441665694431358 0.6989730663313102
vt 0.323190672003586 0.44010492853930705
vt 0.34688435399741213 0.44157894999081315
vt 0.35258717646472937 0.4300213650562543
vt 0.32687459933234564 0.42821478440305083
vt 0.29955796729909995 0.43911159760812324
vt 0.323190672003586 0.44010492853930705
vt 0.3268759432319256 0.4282059794532542
vt 0.3012920617232992 0.4273412068475382
vt 0.6193533933095483 0.4383747937951943
vt 0.6230538996092039 0.45376828704636596
vt 0.6485847724400295 0.4501952183241241
vt 0.6427585743362031 0.43834933633714224
vt 0.5959284938971673 0.4383890411985345
vt 0.5975425481639806 0.4558780144884088
vt 0.6230538996092039 0.45376828704636596
vt 0.6193565374811809 0.43838787302838267
vt 0.89457265625 0.578125
vt 0.89448984375 0.59375
vt 0.91792734375 0.59375
vt 0.91801015625 0.578125
vt 0.49688739471360344 0.374978916591981
vt 0.49992333069561173 0.3749758806319241
vt 0.4921288234263626 0.3460977232578091
vt 0.49061200701260976 0.3480320535526724
vt 0.5874893882247132 0.34803958797066303
vt 0.5859706824539216 0.346107968222349
vt 0.5782261949516225 0.375
vt 0.5812621315143847 0.37499761446224245
vt 0.47654950877044894 0.34803908485579305
vt 0.4765485423568978 0.34610627259739823
vt 0.46096885680438826 0.3461140625
vt 0.46248701052828806 0.3480461161589137
vt 0.6015503687512098 0.3461018464787534
vt 0.6015511275993779 0.34803309632966595
vt 0.6156136265137891 0.3480275707362088
vt 0.6171316175483774 0.34609572412120304
vt 0.4624876068043883 0.348046875
vt 0.46096885680438826 0.3461140625
vt 0.45320166930438827 0.375
vt 0.4562376068043883 0.375
vt 0.265625 0.140625
vt 0.265625 0.125
vt 0.234375 0.125
vt 0.234375 0.140625
vt 0.6218628675483775 0.37498166162120294
vt 0.6248988050483775 0.37498166162120294
vt 0.6171316175483774 0.34609572412120304
vt 0.6156128675483774 0.34802853662120303
vt 0.296875 0.078125
vt 0.296875 0.0625
vt 0.28125 0.0625
vt 0.28125 0.078125
vt 0.4765485423568978 0.34610627259739823
vt 0.47654619858919095 0.3414187731833447
vt 0.4609665130366814 0.3414265630859463
vt 0.46096885680438826 0.3461140625
vt 0.890625 0.765625
vt 0.890625 0.75
vt 0.859375 0.75
vt 0.859375 0.765625
vt 0.6015485268867241 0.34141434684061633
vt 0.6015503687512098 0.3461018464787534
vt 0.6171316175483774 0.34609572412120304
vt 0.6171297756838917 0.34140822448306585
vt 0.18361484375 0.21866093750000004
vt 0.18145390625000002 0.21579375
vt 0.16232890625 0.21579375
vt 0.16017734375 0.21866093750000004
vt 0.16015703125 0.20308125
vt 0.16231328125 0.20308125
vt 0.16229609375 0.19036718750000003
vt 0.16013515625 0.1875
vt 0.16013515625 0.1875
vt 0.16229609375 0.19036718750000003
vt 0.18142109375 0.19036718750000003
vt 0.18357265625 0.1875
vt 0.18143671875 0.20308125
vt 0.18359296875 0.20308125
vt 0.18357265625 0.1875
vt 0.18142109375 0.19036718750000003
vt 0.921875 0.8125
vt 0.921875 0.828125
vt 0.9375 0.828125
vt 0.9375 0.8125
vt 0.796875 0.046875
vt 0.796875 0.050000000000000044
vt 0.8095890625 0.050000000000000044
vt 0.8095890625 0.046875
vt 0.203125 0.0625
vt 0.203125 0.078125
vt 0.21875 0.078125
vt 0.21875 0.0625
vt 0.953125 0.25
vt 0.953125 0.24687499999999996
vt 0.9404109375 0.24687499999999996
vt 0.9404109375 0.25
vt 0.7701907283804086 0.34736406250000007
vt 0.7798774384074673 0.3469765940989177
vt 0.7808335775555315 0.33796676008464777
vt 0.765625 0.33537828252039037
vt 0.828125 0.4375
vt 0.8432884873709513 0.453125
vt 0.8584564200089494 0.45090393306341103
vt 0.8618259157684597 0.4375
vt 0.2725862737291652 0.4374151808270952
vt 0.27592377254956457 0.4381164147860841
vt 0.2757076822808096 0.4264752760887087
vt 0.27241282353527063 0.4283600817213209
vt 0.7970701508810242 0.35773077126744357
vt 0.7941479587915575 0.35402758001887047
vt 0.7789394558381679 0.35595131512651756
vt 0.7747579158804087 0.359375
vt 0.7907146942902464 0.987312886002199
vt 0.8003444679784779 0.9883093838847109
vt 0.80570840497478 0.9766320913327102
vt 0.7903615767948989 0.9782789112063185
vt 0.7950271302780323 1
vt 0.7910663062470874 0.9963657972488433
vt 0.7761161187378799 0.9939621051461205
vt 0.7729884811775334 0.9982370120564392
vt 0.7727009811775334 0.9862010745564391
vt 0.7758867368633316 0.9849136480311338
vt 0.7756562906038834 0.9758571656545634
vt 0.77241659502522 0.9741734343307265
vt 0.8418218749999999 0.046875
vt 0.8451359375 0.048473437499999994
vt 0.860278125 0.048473437499999994
vt 0.875 0.04745781250000003
vt 0.69909609375 0.08660781250000005
vt 0.71272734375 0.08660781250000005
vt 0.71272734375 0.07946562499999998
vt 0.70466953125 0.07946562499999998
vt 0.42748256172112575 0.3166550214402988
vt 0.42748256172112575 0.30859720894029874
vt 0.41309037422112577 0.2976597089402987
vt 0.41309037422112577 0.31137689644029876
vt 0.89381796875 0.5553578125
vt 0.91310859375 0.5553578125
vt 0.90753515625 0.548215625
vt 0.89381796875 0.548215625
vt 0.19424785162727293 0.5994633610030328
vt 0.19424785162727293 0.6243274235030327
vt 0.2086400391272729 0.6133899235030328
vt 0.2086400391272729 0.5941852360030327
vt 0.7408765625 0.08660781250000005
vt 0.7535484375 0.08660781250000005
vt 0.7479750000000001 0.07946562499999998
vt 0.7408765625 0.07946562499999998
vt 0.6618575047004611 0.578125
vt 0.6618575047004611 0.559878125
vt 0.6474653172004611 0.548940625
vt 0.6474653172004611 0.57341875
vt 0.899584375 0.5241078125
vt 0.9184890625 0.5241078125
vt 0.9184890625 0.516965625
vt 0.9051578125 0.516965625
vt 0.7098726879684787 0.9578296875
vt 0.7098726879684787 0.9711609375
vt 0.7242648754684787 0.9602234375
vt 0.7242648754684787 0.953125
vt 0.8888828125 0.21160781250000005
vt 0.921875 0.21160781250000005
vt 0.921875 0.20759062499999992
vt 0.8888828125 0.20446562499999998
vt 0.427448009108382 0.30857095030505755
vt 0.44628462577887423 0.281305587710569
vt 0.42876752647800276 0.28125
vt 0.41309037422112577 0.2976597089402987
vt 0.8993609375 0.18035781250000005
vt 0.921875 0.18035781250000005
vt 0.921875 0.17321562499999998
vt 0.8993609375 0.17634062499999992
vt 0.19434214909315015 0.6242557611144604
vt 0.21011062816916243 0.640625
vt 0.22762714837272707 0.6404721017715328
vt 0.2086400391272729 0.6133899235030328
vt 0.875 0.24285781250000005
vt 0.9080234375 0.24285781250000005
vt 0.9080234375 0.23571562499999998
vt 0.875 0.23884062499999992
vt 0.6618229520877174 0.5598518663647588
vt 0.6806596827995389 0.5325505664512158
vt 0.6631425834986675 0.5324949787406468
vt 0.6474653172004611 0.548940625
vt 0.890625 0.27410781250000005
vt 0.9131640624999999 0.27410781250000005
vt 0.9131640624999999 0.2700906249999999
vt 0.890625 0.266965625
vt 0.709966985434356 0.9710892751114276
vt 0.7257357918279566 0.9874960125684493
vt 0.7432523120315213 0.9873431143399821
vt 0.7242648754684787 0.9602234375
vt 0.740165625 0.234375
vt 0.75 0.21875
vt 0.7030859375 0.21875
vt 0.7051375 0.23404218750000005
vt 0.7798782283804087 0.3469765625
vt 0.7701907283804086 0.34736406250000007
vt 0.7747579158804087 0.359375
vt 0.7789219783804087 0.35596562500000006
vt 0.71272734375 0.08660781250000005
vt 0.69909609375 0.08660781250000005
vt 0.69352265625 0.09375
vt 0.71272734375 0.09375
vt 0.921875 0.21160781250000005
vt 0.8888828125 0.21160781250000005
vt 0.8888828125 0.21875
vt 0.921875 0.21562499999999996
vt 0.96188359375 0.7303578125000001
vt 0.94436640625 0.7303578125000001
vt 0.94436640625 0.734375
vt 0.96188359375 0.734375
vt 0.921875 0.18035781250000005
vt 0.8993609375 0.18035781250000005
vt 0.8993609375 0.18437499999999996
vt 0.921875 0.1875
vt 0.91310859375 0.5553578125
vt 0.89381796875 0.5553578125
vt 0.89381796875 0.5625
vt 0.91868203125 0.5625
vt 0.2759253362291652 0.43811674332709516
vt 0.2725862737291652 0.4374151808270952
vt 0.2727581487291652 0.4464729933270952
vt 0.2761409612291652 0.44975736832709523
vt 0.29955796729909995 0.43911159760812324
vt 0.2759253362291652 0.43811674332709516
vt 0.2761409551939235 0.44975704251150883
vt 0.29782389795398273 0.4508818181411869
vt 0.323190672003586 0.44010492853930705
vt 0.29955796729909995 0.43911159760812324
vt 0.29782387287490064 0.4508819883687084
vt 0.3195054007752463 0.45200387762536
vt 0.34688282302562223 0.4415788547466354
vt 0.323190672003586 0.44010492853930705
vt 0.3195055403757124 0.4520034268854455
vt 0.34118142632661463 0.453125
vt 0.7031350958141545 0.7849568890914304
vt 0.7031457509611045 0.7964399518881935
vt 0.7211620749592469 0.796875
vt 0.7274015202803162 0.7851757095603016
vt 0.5764730082516344 0.5028630953715201
vt 0.5527426739702359 0.5034626614829638
vt 0.5580233786684289 0.515625
vt 0.5797252845011462 0.515271083539965
vt 0.6001237220011462 0.502710146039965
vt 0.5764705970011462 0.502853896039965
vt 0.5797252845011462 0.515271083539965
vt 0.6014330970011462 0.514930458539965
vt 0.6237784095011463 0.502566396039965
vt 0.6001237220011462 0.502710146039965
vt 0.6014330970011462 0.514930458539965
vt 0.6231424720011463 0.514589833539965
vt 0.7758869186775335 0.9849135745564392
vt 0.7727009811775334 0.9862010745564391
vt 0.7729884811775334 0.9982370120564392
vt 0.7761150436775334 0.9939635745564392
vt 0.9184890625 0.5241078125
vt 0.899584375 0.5241078125
vt 0.8940109375 0.53125
vt 0.9184890625 0.53125
vt 0.9131640624999999 0.27410781250000005
vt 0.890625 0.27410781250000005
vt 0.890625 0.28125
vt 0.9131640624999999 0.27812499999999996
vt 0.25875859375 0.05848281250000009
vt 0.24124140625 0.05848281250000009
vt 0.24124140625 0.0625
vt 0.25875859375 0.0625
vt 0.9080234375 0.24285781250000005
vt 0.875 0.24285781250000005
vt 0.875 0.24687499999999996
vt 0.9080234375 0.25
vt 0.7535484375 0.08660781250000005
vt 0.7408765625 0.08660781250000005
vt 0.7408765625 0.09375
vt 0.7591234375 0.09375
vt 0.8003452925822284 0.9883094692154692
vt 0.7907146942902464 0.987312886002199
vt 0.7910663062470874 0.9963657972488433
vt 0.7949862159706284 0.9999624596075546
vt 0.2550647069465376 0.32812458925221977
vt 0.2576158590264707 0.325562504297529
vt 0.25291668975295145 0.3173717589940115
vt 0.24802216218344536 0.31737848088694987
vt 0.2988689781248598 0.31734629556409966
vt 0.2939721031248598 0.31734629556409966
vt 0.28928460312485976 0.32554317056409965
vt 0.29183772812485975 0.32810098306409974
vt 0.27345179452490004 0.32811377445357237
vt 0.27345023107566524 0.3255528374308143
vt 0.2576158590264707 0.325562504297529
vt 0.2550642979514916 0.328125
vt 0.3059011939201951 0.30659099761797437
vt 0.28928467835090843 0.3094080337487711
vt 0.2939721031248598 0.31734629556409966
vt 0.298869020253348 0.31734629556409966
vt 0.24801981937091003 0.31737848410444836
vt 0.25291668975295145 0.3173717589940115
vt 0.2575932843876371 0.3094278289135771
vt 0.24097380607980487 0.3066334630953146
vt 0.27345030366919076 0.3094048589096171
vt 0.27345086915021233 0.3065845464663075
vt 0.2410008698024807 0.3065780401450572
vt 0.2576159289874731 0.3094016840704632
vt 0.734375 0.3125
vt 0.84375 0.3125
vt 0.84375 0.30439531249999996
vt 0.7387703125 0.30414374999999993
vt 0.125 0.2837730715378777
vt 0.1252545017338319 0.390625
vt 0.140625 0.390625
vt 0.140625 0.27937804760413476
vt 0.41312578125 0.7029156249999999
vt 0.55562421875 0.7029156249999999
vt 0.52437421875 0.68708125
vt 0.41312578125 0.68708125
vt 0.7130953125 0.8125
vt 0.6106359375 0.8125
vt 0.6106359375 0.828125
vt 0.7174890625 0.8278687499999999
vt 0.59375 0.6716229828422264
vt 0.703125 0.671875
vt 0.703125 0.65625
vt 0.5981440381778951 0.65625
vt 0.4496671875 0.5627093750000001
vt 0.3159578125 0.5627093750000001
vt 0.3159578125 0.57854375
vt 0.4184171875 0.57854375
vt 0.9004609374999999 0.984375
vt 0.890625 0.9927874999999999
vt 0.9375390625 0.9927874999999999
vt 0.9354890625 0.9846984375
vt 0.3159578125 0.5627093750000001
vt 0.4496671875 0.5627093750000001
vt 0.4184171875 0.546875
vt 0.3159578125 0.546875
vt 0.27345086915021233 0.3065845464663075
vt 0.27345030366919076 0.3094048589096171
vt 0.28928467835090843 0.3094080337487711
vt 0.30590086849794396 0.3065910527875577
vt 0.8671875 0.640625
vt 0.8671875 0.649553125
vt 0.8996375 0.649553125
vt 0.88671875 0.640625
vt 0.70546875 0.39531249999999996
vt 0.73203125 0.39531249999999996
vt 0.73203125 0.37578124999999996
vt 0.70546875 0.375
vt 0.7265625 0.613671875
vt 0.7265625 0.640625
vt 0.746875 0.640625
vt 0.740625 0.613671875
vt 0.81640625 0.6859375
vt 0.83984375 0.6859375
vt 0.83984375 0.671875
vt 0.81640625 0.671875
vt 0.4765485423568978 0.34610627259739823
vt 0.47654950877044894 0.34803908485579305
vt 0.49061200701260976 0.3480320535526724
vt 0.4921282279094073 0.3460984826947966
vt 0.47654619858919095 0.3414187731833447
vt 0.4765485423568978 0.34610627259739823
vt 0.492129790409212 0.34609848191354065
vt 0.4921274466415051 0.3414109824994871
vt 0.16231328125 0.20308125
vt 0.16015703125 0.20308125
vt 0.16017734375 0.21866093750000004
vt 0.16232890625 0.21579375
vt 0.796875 0.050000000000000044
vt 0.796875 0.046875
vt 0.7841609375 0.046875
vt 0.7841609375 0.050000000000000044
vt 0.58768671875 0.10646406249999996
vt 0.56856328125 0.10646406249999996
vt 0.56857890625 0.11917656249999997
vt 0.58770390625 0.11917656249999997
vt 0.953125 0.24687499999999996
vt 0.953125 0.25
vt 0.9658390625 0.25
vt 0.9658390625 0.24687499999999996
vt 0.18359296875 0.20308125
vt 0.18143671875 0.20308125
vt 0.18145390625000002 0.21579375
vt 0.18361484375 0.21866093750000004
vt 0.6015503687512098 0.3461018464787534
vt 0.6015485268867241 0.34141434684061633
vt 0.5859688405894359 0.34142046858421193
vt 0.5859706824539216 0.346107968222349
vt 0.6015511275993779 0.34803309632966595
vt 0.6015503687512098 0.3461018464787534
vt 0.5859706824539216 0.346107968222349
vt 0.5874886286849667 0.34803862192312307
vt 0.36328125 0.17031249999999998
vt 0.38671875 0.17031249999999998
vt 0.38671875 0.15625
vt 0.36328125 0.15625
vt 0.7265625 0.75
vt 0.7265625 0.723046875
vt 0.7125 0.723046875
vt 0.70625 0.75
vt 0.8750000202281699 0.8829703125
vt 0.8753609577281699 0.875
vt 0.8550484577281698 0.875
vt 0.8444843952281699 0.883009375
vt 0.7031350958141545 0.7849568890914304
vt 0.7031257208141545 0.7734756390914304
vt 0.6726085333141545 0.7734756390914304
vt 0.6788694708141545 0.7847397015914304
vt 0.7031457507436009 0.7964397174842202
vt 0.7031350958141545 0.7849568890914304
vt 0.6788687581482931 0.7847396952127725
vt 0.6851288169886723 0.7960032561902394
vt 0.874378125 0.5454015625
vt 0.875 0.53125
vt 0.8406609375 0.53125
vt 0.850846875 0.546875
vt 0.0504367363145697 0.8328694606540306
vt 0.03226959012623358 0.8329082038054307
vt 0.03229165242995945 0.8432534927804866
vt 0.050464216728227346 0.8457553688517778
vt 0.07329293434011204 0.8328207176576702
vt 0.0504367363145697 0.8328694606540306
vt 0.050464216728227346 0.8457553688517778
vt 0.0733258361958724 0.848248807574556
vt 0.09301885008408432 0.8328587426360431
vt 0.07328761446760935 0.8328349180762252
vt 0.07326898572959532 0.848263031829557
vt 0.09299715366043014 0.8508274795373308
vt 0.10882665106063462 0.8328778298289221
vt 0.09301885008408432 0.8328587426360431
vt 0.09299715366043014 0.8508274795373308
vt 0.1088141595805464 0.843223134787481
vt 0.171875 0.109375
vt 0.1816127941425062 0.10820710404537526
vt 0.18297301193077292 0.08455243015984082
vt 0.171875 0.0743735250031784
vt 0.27345023107566524 0.3255528374308143
vt 0.27345179452490004 0.32811377445357237
vt 0.2918392910983085 0.32810254890714474
vt 0.28928460312485976 0.32554317056409965
vt 0.55562421875 0.7029156249999999
vt 0.41312578125 0.7029156249999999
vt 0.41312578125 0.71875
vt 0.52437421875 0.71875
vt 0.890625 0.8511203125
vt 0.90038125 0.859375
vt 0.9354140625 0.859375
vt 0.9375328125 0.8515765625
vt 0.11959463777307418 0.9227684066035218
vt 0.1410125711442275 0.9052170763662686
vt 0.10356282824315881 0.890625
vt 0.09780966818678478 0.9177160317435169
vt 0.09322988356000374 0.8512747790717423
vt 0.10198225142103971 0.875
vt 0.13064985955972386 0.8554957565726518
vt 0.10881723417185306 0.843224862842743
vt 0.1088141595805464 0.843223134787481
vt 0.13064985955972386 0.8554957565726518
vt 0.13644779056221423 0.8325223418253214
vt 0.10882663226880583 0.8328933930126265
vt 0.1210462005574618 0.9410978721903699
vt 0.1496261259604177 0.9392067093803568
vt 0.1410125711442275 0.9052170763662686
vt 0.11959574009518813 0.9227675032848348
vt 0.12249791644166978 0.9594263035055652
vt 0.14624983133803288 0.9730103915117234
vt 0.1496261259604177 0.9392067093803568
vt 0.1210482613848577 0.9410977358233195
vt 0.10882034661193425 0.8328934774515346
vt 0.13644779056221423 0.8325223418253214
vt 0.1305218447589926 0.8106774774865825
vt 0.10882034661193425 0.8225628208499283
vt 0.09780725727190846 0.917727384490669
vt 0.10356282824315881 0.890625
vt 0.07316286027804143 0.8963922276706398
vt 0.07643986703003271 0.9215710983463714
vt 0.07340904199863314 0.8495615620051131
vt 0.0734792172172156 0.8722934306330461
vt 0.10198225142103971 0.875
vt 0.09322965654647856 0.8512741637015793
vt 0.05046855587684208 0.8479653946097878
vt 0.0438165617081054 0.869586228959406
vt 0.0734792172172156 0.8722934306330461
vt 0.07340904247871961 0.8495617175195898
vt 0.07643995341679298 0.9215717620987617
vt 0.0731628602780414 0.8963922276706398
vt 0.04559714854664791 0.9019889189036219
vt 0.055074709913846234 0.9254169035442189
vt 0.703946875 0.16817812500000007
vt 0.71875 0.15625
vt 0.6859203125 0.15625
vt 0.6860140625 0.171875
vt 0.05507171160514514 0.9258126651745996
vt 0.045474150980147385 0.9024327898898437
vt 0.01125782982114279 0.916079942435113
vt 0.033724996259028334 0.929769713904969
vt 0.03372529960355651 0.9297698987399048
vt 0.01125782982114279 0.916079942435113
vt 0.0066238740395823115 0.9501048989698898
vt 0.03521976213521191 0.9477201413746918
vt 0.03226959012623358 0.8329082038054307
vt 0.004177209437785781 0.8327396628775005
vt 0.011514980252020399 0.8552307547087772
vt 0.03229160745466628 0.84323240330541
vt 0.03225784661193426 0.8225936230108402
vt 0.011750757183179125 0.8102526601745195
vt 0.004177209437785767 0.8327396628775005
vt 0.032257846611934246 0.8329081333499283
vt 0.03522323359094508 0.9477198518722153
vt 0.006623874039582318 0.9501048989698898
vt 0.017141771674529988 0.9828640788803098
vt 0.03673055726219883 0.9656732039502635
vt 0.03673409482301855 0.9656700994308263
vt 0.017141771674529988 0.9828640788803098
vt 0.053259634668387984 0.9908011602301865
vt 0.058437139590527806 0.9661488328745239
vt 0.05042503411193426 0.8200221958499283
vt 0.04335390392930487 0.7983020895687406
vt 0.012309271817476805 0.809400255795814
vt 0.03227962645655773 0.8225597750059996
vt 0.05843734014565173 0.9661478779453365
vt 0.05325963466838797 0.9908011602301865
vt 0.080787461822022 0.9920175217810034
vt 0.08014062196494172 0.9666235889377026
vt 0.07328128411193426 0.8174800083499283
vt 0.07233426073092601 0.7944222919435714
vt 0.043379710703665544 0.7982958160455838
vt 0.05042591978360368 0.8200220973410545
vt 0.09301423471515359 0.8149490181441049
vt 0.1004176613089975 0.7914912889624264
vt 0.07233426073092601 0.7944222919435714
vt 0.07328127555052914 0.8174797999005332
vt 0.08014058682202203 0.9666222092810034
vt 0.08078746182202202 0.9920175217810034
vt 0.11135464932202203 0.9920175217810034
vt 0.10184527432202202 0.9670956467810035
vt 0.10184475407136874 0.9670942833242305
vt 0.11135464932202203 0.9920175217810034
vt 0.14624983133803288 0.9730103915117234
vt 0.12253616286859241 0.9594481772294947
vt 0.10882034661193425 0.8225628208499283
vt 0.1301786854371973 0.8100576029808392
vt 0.10075261802323503 0.7915968212314402
vt 0.09301957241620314 0.8149427776255562
vn 0.3677662181582992 -0.5813390406912525 -0.7258050210281798
vn -0.8599815935981231 0.5103147584650761 0.003241290663239167
vn 1.224646799147353e-16 1 -1.224646799147357e-16
vn -1.224646799147353e-16 -1 1.224646799147357e-16
vn -0.07356265946960895 0.5824102627658607 -0.8095596463243211
vn -0.07172577480859044 0.6070943642617148 0.791386028503013
vn -2.913988149402895e-15 -0.22589048201828568 -0.9741527037038632
vn -1 1.224646799147357e-16 2.9629076969683865e-15
vn 2.8586609382505858e-15 -0.22589048201828546 0.9741527037038632
vn 1 -1.224646799147357e-16 -2.9629076969683865e-15
vn -2.9629076969683865e-15 -1.224646799147353e-16 -1
vn -1.224646799147353e-16 -1 1.224646799147357e-16
vn 2.9629076969683865e-15 1.224646799147353e-16 1
vn 1.224646799147353e-16 1 -1.224646799147357e-16
vn -0.02874936963131988 -0.94361234091449 -0.3298017947490255
vn -0.059843001636091575 0.8162947669013779 -0.5745273437223055
vn 0.18695303398950375 0.887642818856866 -0.42087859201194394
vn 0.05282655497121366 -0.9545397559723432 -0.2933653172379669
vn -0.7008206294847172 -0.7133364311299837 -0.0012575020408851063
vn -0.777339085344072 0.5684785719453178 -0.26939944252996145
vn 0.6256968228117978 -0.7800663343096034 -1.7583513583342541e-15
vn 0.7041968347482479 0.6984858551866522 -0.12737475430680964
vn 8.302938892824585e-16 -0.9476209801289024 0.3193970538679693
vn -0.05992579612689461 0.8427806342642941 0.5349109285363611
vn 0.07295328575185527 -0.9291569083090991 0.36241586311788954
vn 0.2626385399087669 0.7952308977665158 0.5464694104815496
vn 2.858660938250586e-15 -0.2258904820182855 0.9741527037038633
vn 2.8294586276373386e-15 -0.25968442914159273 0.9656935317487663
vn -1.224646799147353e-16 -1 1.224646799147357e-16
vn -1.2245251966437564e-16 -0.999999999991578 0.000004104160700333384
vn -2.9139881494028956e-15 -0.2258904820182857 -0.9741527037038633
vn -2.893052657052232e-15 -0.25969972105655037 -0.9656894194735438
vn -1.2370300584541376e-15 -0.9252898179620194 -0.37926079783680977
vn -1.1002714283421202e-15 -0.9431506050218778 -0.33236566646822335
vn -0.09857367803945198 0.5976631124950961 -0.7956645235024927
vn -0.07319496261482221 0.5874713247401153 -0.8059279993001293
vn -0.1684120608493658 0.8178694251575483 -0.5502063078091083
vn -0.07181862420548266 0.8170616226722089 -0.5720597783217142
vn 1.224646799147353e-16 1 -1.224646799147357e-16
vn 1.224646799147353e-16 1 -1.224646799147357e-16
vn -0.18652266427746972 0.8402849227131297 0.5090486660151703
vn -0.07124101960168157 0.8433785533367814 0.5325761287343539
vn -0.09992156191757806 0.5838386103256505 0.8056973119956186
vn -0.0713711801998703 0.6116930726010644 0.7878691132216992
vn -0.05205164116870594 -0.9350591282448989 0.35064947360224874
vn -0.027621242210349107 -0.9480699273304457 0.3168603475829704
vn 1.224646799147353e-16 1 -1.224646799147357e-16
vn 0.9996165989863878 -0.005855533391562469 0.0270622940562671
vn -0.9997590853401466 0.004362631064297846 -0.021511362812020596
vn 0.9999426271374141 -0.010630340877444872 0.001318440880745819
vn -0.9999434982175556 0.010630163330709335 2.9614384678525527e-15
vn 1 -1.224646799147357e-16 -2.9629076969683865e-15
vn 1.224646799147353e-16 1 -1.224646799147357e-16
vn -1 1.224646799147357e-16 2.9629076969683865e-15
vn 2.962908199558159e-15 0.000004104160699932532 0.999999999991578
vn 0.9999991308157438 5.411219820642836e-9 0.00131847175066479
vn -2.962908199558159e-15 -0.000004104160699932532 -0.999999999991578
vn -0.9999991308157438 -5.411219820639179e-9 -0.0013184717506638992
vn -1.2245251966435922e-16 -0.9999999999915781 0.000004104160705883811
vn -7.24954013717556e-15 -0.999999999991578 0.000004104160700323987
vn -1.2245251966435922e-16 -0.9999999999915781 0.000004104160705883811
vn 7.004634750614486e-15 -0.9999999999915781 0.000004104160700377712
vn -2.9629081995581596e-15 -0.000004104160698637296 -0.9999999999915781
vn -0.9999991308157435 -5.411219818936609e-9 -0.0013184717506651569
vn 2.9629081995581596e-15 0.000004104160698637296 0.9999999999915781
vn 0.9999991308157435 5.411219818932129e-9 0.001318471750664065
vn 0.1385673626864787 0.6093246404429534 0.7807192635942702
vn 0.10686681648672587 0.9506068048263688 0.2914209775424458
vn -0.02758111710423283 0.6036485005870919 0.7967733490260817
vn 0.229340200935441 0.7458401044709357 0.6254003604073755
vn 0.12428483741091102 0.6589897820515315 -0.7418124738378418
vn 0.22783093450720568 0.6800918530942645 -0.6968271928077885
vn 0.04790806098505053 0.6145535748855252 -0.7874190252261333
vn 0.3082534297195231 -0.12690526084915107 -0.942801611069349
vn 1 -1.224646799147357e-16 -2.9629076969683865e-15
vn -1.224646799147353e-16 -1 1.224646799147357e-16
vn -1 1.224646799147357e-16 2.9629076969683865e-15
vn 1.224646799147353e-16 1 -1.224646799147357e-16
vn 1 -1.224646799147357e-16 -2.9629076969683865e-15
vn 1.224646799147353e-16 1 -1.224646799147357e-16
vn -1 1.224646799147357e-16 2.9629076969683865e-15
vn -1.224646799147353e-16 -1 1.224646799147357e-16
vn 0.8228057369393601 -1.7036410175869989e-16 -0.5683227245673683
vn 2.1718747511429194e-16 -0.9934389649526977 0.11436355588085192
vn -0.7199438823556237 1.7316213818082919e-16 0.6940322804154803
vn 6.811735812187157e-16 0.9819163657644208 0.18931521503564422
vn 0.8231681550412071 -3.127386530675541e-17 0.5677976651290979
vn -2.1672923637332762e-16 0.9934566727183034 -0.11420962932904472
vn -0.7207356087178876 3.370907951262645e-18 -0.6932100564230558
vn -6.799491565243861e-16 -0.9819965889570584 -0.18889864816007107
vn 0.35436307771976877 0.586301631093318 -0.7284759478021825
vn 0.128763824516366 0.6603552249868786 0.7398316391777574
vn 1 -1.224646799147357e-16 -2.9629076969683865e-15
vn 0.8228057369393602 -1.7036410175869989e-16 -0.5683227245673682
vn 2.9629076969683865e-15 1.224646799147353e-16 1
vn -0.7199438823556237 1.731621381808292e-16 0.6940322804154804
vn -1 1.224646799147357e-16 2.9629076969683865e-15
vn -0.024287870142212762 0.6150785495598821 0.7880916680407596
vn -0.07209070891379595 0.6023069918665591 0.795002652345867
vn -0.07172577480859217 0.6070943642617169 0.7913860285030113
vn -0.09660995436337018 0.6169924142062376 0.7810165667448202
vn -0.8599307863072954 0.5102845709695185 0.011344575416085419
vn -0.1017154512674284 0.5646763728750548 -0.819020488687637
vn -0.07283693900900692 0.5923402389626958 -0.8023888219693833
vn -0.07319496261482149 0.5874713247401153 -0.8059279993001293
vn 0.03325587857643547 0.5836695101920872 -0.8113100205299073
vn -1 1.224646799147357e-16 2.9629076969683865e-15
vn -0.7207356087178876 3.370907951262645e-18 -0.6932100564230558
vn -2.9629076969683865e-15 -1.224646799147353e-16 -1
vn 0.8231681550412071 -3.127386530675541e-17 0.5677976651290979
vn 1 -1.224646799147357e-16 -2.9629076969683865e-15
vn 0.13348339114424115 0.609754116255888 -0.7812695450340007
vn 0.8353028579473282 0.5491044876255149 -0.02744808143653916
vn 0.8441402231415903 0.5361224521268125 -2.5667656289616422e-15
vn 0.820266766758963 0.5719811459749327 -2.5004222047565876e-15
vn 0.8347977878225021 0.5505214191703749 0.006230608420803302
vn 0.8327827760279535 0.5535998987998241 -2.5352549314032733e-15
vn 0.8544647259178604 0.5195094148926618 -2.5953216674175323e-15
vn -2.346121755875806e-15 0.5784208663633076 -0.8157385005965581
vn -0.0016705384848019345 0.5784200592635275 0.8157373623555246
vn 1.224646799147353e-16 1 -1.224646799147357e-16
vn 2.3843238828425677e-15 -0.5608663121054992 0.8279063835634901
vn 0.001619839275928725 -0.5608655762822692 -0.8279052973995749
vn -1.224646799147353e-16 -1 1.224646799147357e-16
vn 0.35980174477624977 -0.5687420167138407 0.7396453358740523
vn -1.224646799147353e-16 -1 1.224646799147357e-16
vn 0.8544647259178603 0.5195094148926619 -2.5953216674175323e-15
vn 0.6256968228117978 -0.7800663343096035 -1.7583513583342541e-15
vn -1.224646799147353e-16 -1 1.224646799147357e-16
vn 1 -1.224646799147357e-16 -2.9629076969683865e-15
vn -1.224646799147353e-16 -1 1.224646799147357e-16
vn 0.9999434982175555 -0.010630163330716518 -2.9614384678525515e-15
vn 0.9999991308157437 5.411219820636486e-9 0.0013184717506632432
vn -7.249548706435615e-15 -0.9999999999915781 0.000004104160699461944
vn -0.9999991308157438 -5.411219818934847e-9 -0.0013184717506647275
vn -1.2245251966438604e-16 -0.999999999991578 0.000004104160696816651
vn 0.9999991308157438 5.411219818930367e-9 0.0013184717506636362
vn 7.004670056453782e-15 -0.999999999991578 0.000004104160696826047
vn -0.9999991308157437 -5.4112198206401425e-9 -0.0013184717506641338
vn -0.9999426271374141 0.010630340877437689 -0.0013184408807451534
vn -1.224646799147353e-16 -1 1.224646799147357e-16
vn -1 1.224646799147357e-16 2.9629076969683865e-15
vn -0.7007805773197537 -0.7133768866815021 2.1637116385126685e-15
vn -0.8599850772895752 0.5103168483366674 -0.0015430952576521682
vn -0.859981593598122 0.5103147584650783 0.003241290663239688
vn -0.7792658309402855 0.6029067997680558 0.17102092130025562
vn 1.224646799147353e-16 1 -1.224646799147357e-16
vn 1.224646799147353e-16 1 -1.224646799147357e-16
vn 1.224646799147353e-16 1 -1.224646799147357e-16
vn 1.224646799147353e-16 1 -1.224646799147357e-16
vn 0.6983777587961462 0.6927101495244778 0.18005875364626875
vn 0.820266766758963 0.5719811459749325 -2.5004222047565876e-15
vn 1.224646799147353e-16 1 -1.224646799147357e-16
vn 0.36197315432895333 0.5988849406027932 0.7143614375540835
vn 0.03249798070411197 -0.997181857363524 0.06761822679712572
vn 0.1213564570137477 0.9746436791237665 0.1879955028322724
vn 0.2199411502743416 0.9738635943804878 0.05670617211835399
vn 0.06334468717149894 -0.9979328173042494 0.01084171362601576
vn 0.07129744995831759 -0.9973717263311332 -0.01289624537206183
vn 0.1977312615444366 0.9787224178692553 -0.05481584595903159
vn -0.00561487355499685 -0.9987274394932548 0.05011960492869644
vn -0.0330956758654355 0.970098877143522 0.24044301778984498
vn -0.03288943149525495 0.9687443220620642 0.24587135613655922
vn -0.005179561776840038 -0.9991281386822125 0.041426255360793154
vn -0.09998216023272508 0.9568424345517073 0.2728664931360381
vn -0.009614309622540925 -0.9994656694509138 0.031240048647830445
vn -0.02409240974931827 -0.9996957532055284 0.005287420477168956
vn -0.1955804165091338 0.9785504893967271 0.06470888949394726
vn -0.22198032039399784 0.9720115113076734 -0.07693087314694282
vn -0.0035473701428513473 -0.9999933634578516 -0.0008301839091189131
vn 0.005448806328949443 -0.9998266956176254 0.017801383090369983
vn -0.0823072024843563 0.9706482437626802 -0.22598121890905837
vn 0.0007995713142184616 -0.999979398957253 0.006368857574542267
vn -0.03183390580652786 0.9710324447870615 -0.2368176378819017
vn -0.025212821926395946 0.969934231605388 -0.2420576377034468
vn -0.0002280788982307314 -0.9999960027629433 -0.0028182331614117844
vn 0.004655636187694853 -0.9999342345227735 -0.010481015267753852
vn 0.13375527346353994 0.968183752359178 -0.21149408617830331
usemtl m_3d478068-9534-e6ba-c28c-3f41e95b72f8
f 174/183/47 175/184/47 173/185/47 169/186/47
f 193/187/48 194/188/48 152/189/48 66/190/48
f 198/191/49 199/192/49 48/193/49 89/194/49
f 180/195/50 181/196/50 81/197/50 50/198/50
f 154/199/51 155/200/51 65/201/51 85/202/51
f 148/203/52 149/204/52 95/205/52 75/206/52
f 81/207/53 83/208/53 56/209/53 50/210/53
f 191/211/54 192/212/54 57/213/54 54/214/54
f 78/215/55 79/216/55 51/217/55 59/218/55
f 179/219/56 180/220/56 50/221/56 56/222/56
f 158/223/57 159/224/57 136/225/57 139/226/57
f 178/227/58 179/228/58 56/229/58 62/230/58
f 144/231/59 145/232/59 134/233/59 133/234/59
f 199/235/60 200/236/60 60/237/60 48/238/60
f 83/239/61 85/240/61 65/241/61 56/242/61
f 224/243/62 225/244/62 226/245/62 227/246/62
f 211/247/63 210/248/63 227/249/63 226/250/63
f 56/251/64 65/252/64 68/253/64 62/254/64
f 192/255/65 193/256/65 66/257/65 57/258/65
f 218/259/66 219/260/66 220/261/66 221/262/66
f 177/263/67 178/264/67 62/265/67 68/266/67
f 208/267/68 209/268/68 210/269/68 211/270/68
f 95/271/69 78/272/69 59/273/69 75/274/69
f 212/275/70 213/276/70 205/277/70 206/278/70
f 61/279/71 72/280/71 75/281/71 59/282/71
f 206/283/72 205/284/72 204/285/72 207/286/72
f 77/287/73 76/288/73 58/289/73 55/290/73
f 98/291/74 97/292/74 96/293/74 99/294/74
f 190/295/75 191/296/75 54/297/75 80/298/75
f 185/299/76 186/300/76 115/301/76 114/302/76
f 82/303/77 80/304/77 54/305/77 57/306/77
f 102/307/78 100/308/78 101/309/78 103/310/78
f 84/311/79 82/312/79 57/313/79 66/314/79
f 85/315/80 83/316/80 82/317/80 84/318/80
f 152/319/81 153/320/81 84/321/81 66/322/81
f 153/323/82 154/324/82 85/325/82 84/326/82
f 223/327/83 222/328/83 221/329/83 220/330/83
f 225/331/84 224/332/84 222/333/84 223/334/84
f 196/335/85 197/336/85 88/337/85 52/338/85
f 197/339/86 198/340/86 89/341/86 88/342/86
f 215/343/87 214/344/87 216/345/87 217/346/87
f 213/347/88 212/348/88 214/349/88 215/350/88
f 150/351/89 151/352/89 71/353/89 94/354/89
f 149/355/90 150/356/90 94/357/90 95/358/90
f 76/359/91 94/360/91 71/361/91 58/362/91
f 78/363/92 95/364/92 94/365/92 76/366/92
f 76/367/93 96/368/93 97/369/93 78/370/93
f 78/371/94 97/372/94 98/373/94 79/374/94
f 77/375/95 99/376/95 96/377/95 76/378/95
f 181/379/96 182/380/96 100/381/96 81/382/96
f 189/383/97 190/384/97 80/385/97 101/386/97
f 81/387/98 100/388/98 102/389/98 83/390/98
f 83/391/99 102/392/99 103/393/99 82/394/99
f 82/395/100 103/396/100 101/397/100 80/398/100
f 99/399/101 104/400/101 105/401/101 98/402/101
f 182/403/102 183/404/102 106/405/102 100/406/102
f 100/407/103 106/408/103 107/409/103 101/410/103
f 188/411/104 189/412/104 101/413/104 107/414/104
f 104/415/105 108/416/105 109/417/105 105/418/105
f 183/419/106 184/420/106 110/421/106 106/422/106
f 106/423/107 110/424/107 111/425/107 107/426/107
f 187/427/108 188/428/108 107/429/108 111/430/108
f 108/431/109 112/432/109 113/433/109 109/434/109
f 184/435/110 185/436/110 114/437/110 110/438/110
f 110/439/111 114/440/111 115/441/111 111/442/111
f 186/443/112 187/444/112 111/445/112 115/446/112
f 141/447/113 142/448/113 117/449/113 72/450/113
f 72/451/114 117/452/114 118/453/114 75/454/114
f 147/455/115 148/456/115 75/457/115 118/458/115
f 74/459/116 119/460/116 116/461/116 73/462/116
f 161/463/117 140/464/117 68/465/117 120/466/117
f 69/467/118 121/468/118 122/469/118 67/470/118
f 155/471/119 156/472/119 123/473/119 65/474/119
f 65/475/120 123/476/120 120/477/120 68/478/120
f 142/479/121 143/480/121 125/481/121 117/482/121
f 117/483/122 125/484/122 126/485/122 118/486/122
f 146/487/123 147/488/123 118/489/123 126/490/123
f 119/491/124 127/492/124 124/493/124 116/494/124
f 160/495/125 161/496/125 120/497/125 128/498/125
f 121/499/126 129/500/126 130/501/126 122/502/126
f 156/503/127 157/504/127 131/505/127 123/506/127
f 123/507/128 131/508/128 128/509/128 120/510/128
f 143/511/129 144/512/129 133/513/129 125/514/129
f 125/515/130 133/516/130 134/517/130 126/518/130
f 145/519/131 146/520/131 126/521/131 134/522/131
f 127/523/132 135/524/132 132/525/132 124/526/132
f 159/527/133 160/528/133 128/529/133 136/530/133
f 129/531/134 137/532/134 138/533/134 130/534/134
f 157/535/135 158/536/135 139/537/135 131/538/135
f 131/539/136 139/540/136 136/541/136 128/542/136
f 203/543/137 174/544/137 169/545/137 168/546/137
f 142/547/138 141/548/138 73/549/138 116/550/138
f 143/551/139 142/552/139 116/553/139 124/554/139
f 144/555/140 143/556/140 124/557/140 132/558/140
f 145/559/141 144/560/141 132/561/141 135/562/141
f 146/563/142 145/564/142 135/565/142 127/566/142
f 147/567/143 146/568/143 127/569/143 119/570/143
f 148/571/144 147/572/144 119/573/144 74/574/144
f 149/575/145 148/576/145 74/577/145 93/578/145
f 150/579/146 149/580/146 93/581/146 92/582/146
f 151/583/147 150/584/147 92/585/147 70/586/147
f 194/587/148 195/588/148 64/589/148 152/590/148
f 153/591/149 152/592/149 64/593/149 86/594/149
f 154/595/150 153/596/150 86/597/150 87/598/150
f 155/599/151 154/600/151 87/601/151 67/602/151
f 156/603/152 155/604/152 67/605/152 122/606/152
f 157/607/153 156/608/153 122/609/153 130/610/153
f 158/611/154 157/612/154 130/613/154 138/614/154
f 159/615/155 158/616/155 138/617/155 137/618/155
f 160/619/156 159/620/156 137/621/156 129/622/156
f 161/623/157 160/624/157 129/625/157 121/626/157
f 140/627/158 161/628/158 121/629/158 69/630/158
f 69/631/159 162/632/159 163/633/159 140/634/159
f 141/635/160 164/636/160 165/637/160 73/638/160
f 201/639/161 202/640/161 162/641/161 69/642/161
f 72/643/162 166/644/162 164/645/162 141/646/162
f 140/647/163 163/648/163 167/649/163 68/650/163
f 176/651/164 177/652/164 68/653/164 167/654/164
f 162/655/165 168/656/165 169/657/165 163/658/165
f 164/659/166 170/660/166 171/661/166 165/662/166
f 202/663/167 203/664/167 168/665/167 162/666/167
f 166/667/168 172/668/168 170/669/168 164/670/168
f 163/671/169 169/672/169 173/673/169 167/674/169
f 175/675/170 176/676/170 167/677/170 173/678/170
f 175/679/171 174/680/171 170/681/171 172/682/171
f 176/683/172 175/684/172 172/685/172 166/686/172
f 177/687/173 176/688/173 166/689/173 72/690/173
f 178/691/174 177/692/174 72/693/174 61/694/174
f 179/695/175 178/696/175 61/697/175 59/698/175
f 180/699/176 179/700/176 59/701/176 51/702/176
f 181/703/177 180/704/177 51/705/177 79/706/177
f 182/707/178 181/708/178 79/709/178 98/710/178
f 183/711/179 182/712/179 98/713/179 105/714/179
f 184/715/180 183/716/180 105/717/180 109/718/180
f 185/719/181 184/720/181 109/721/181 113/722/181
f 186/723/182 185/724/182 113/725/182 112/726/182
f 187/727/183 186/728/183 112/729/183 108/730/183
f 188/731/184 187/732/184 108/733/184 104/734/184
f 189/735/185 188/736/185 104/737/185 99/738/185
f 190/739/186 189/740/186 99/741/186 77/742/186
f 191/743/187 190/744/187 77/745/187 55/746/187
f 192/747/188 191/748/188 55/749/188 58/750/188
f 193/751/189 192/752/189 58/753/189 71/754/189
f 194/755/190 193/756/190 71/757/190 151/758/190
f 195/759/191 194/760/191 151/761/191 70/762/191
f 219/763/192 218/764/192 217/765/192 216/766/192
f 197/767/193 196/768/193 53/769/193 90/770/193
f 198/771/194 197/772/194 90/773/194 91/774/194
f 199/775/195 198/776/195 91/777/195 49/778/195
f 200/779/196 199/780/196 49/781/196 63/782/196
f 209/783/197 208/784/197 207/785/197 204/786/197
f 202/787/198 201/788/198 73/789/198 165/790/198
f 203/791/199 202/792/199 165/793/199 171/794/199
f 174/795/200 203/796/200 171/797/200 170/798/200
f 73/799/201 204/800/201 205/801/201 74/802/201
f 49/803/202 206/804/202 207/805/202 63/806/202
f 63/807/203 207/808/203 208/809/203 200/810/203
f 201/811/204 209/812/204 204/813/204 73/814/204
f 69/815/205 210/816/205 209/817/205 201/818/205
f 200/819/206 208/820/206 211/821/206 60/822/206
f 74/823/207 205/824/207 213/825/207 93/826/207
f 91/827/208 212/828/208 206/829/208 49/830/208
f 90/831/209 214/832/209 212/833/209 91/834/209
f 93/835/210 213/836/210 215/837/210 92/838/210
f 53/839/211 216/840/211 214/841/211 90/842/211
f 92/843/212 215/844/212 217/845/212 70/846/212
f 70/847/213 217/848/213 218/849/213 195/850/213
f 196/851/214 219/852/214 216/853/214 53/854/214
f 52/855/215 220/856/215 219/857/215 196/858/215
f 195/859/216 218/860/216 221/861/216 64/862/216
f 64/863/217 221/864/217 222/865/217 86/866/217
f 88/867/218 223/868/218 220/869/218 52/870/218
f 86/871/219 222/872/219 224/873/219 87/874/219
f 89/875/220 225/876/220 223/877/220 88/878/220
f 48/879/221 226/880/221 225/881/221 89/882/221
f 87/883/222 224/884/222 227/885/222 67/886/222
f 67/887/223 227/888/223 210/889/223 69/890/223
f 60/891/224 211/892/224 226/893/224 48/894/224
o Arm
v 0.3343749999999953 1.0187500000000018 5.389023147467818e-16
v 0.15937499999999533 1.0187500000000012 8.772126480466929e-16
v 0.3343749999999951 1.0518932628834885 -0.05624999999999942
v 0.15937499999999508 1.0518932628834878 -0.05624999999999908
v 0.33437499999999504 1.0750000000000015 -0.037362012883486
v 0.15937499999999502 1.0750000000000008 -0.03736201288348566
v 0.33437499999999515 1.0750000000000015 0.037362012883487165
v 0.1593749999999952 1.0750000000000008 0.037362012883487505
v 0.3343749999999953 1.0518932628834885 0.056250000000000556
v 0.1593749999999953 1.0518932628834878 0.056250000000000897
v 0.33437499999999554 0.9856067371165151 0.056250000000000494
v 0.15937499999999558 0.9856067371165145 0.056250000000000834
v 0.3343749999999956 0.9625000000000021 0.0373620128834871
v 0.15937499999999563 0.9625000000000015 0.03736201288348744
v 0.3343749999999955 0.9625000000000021 -0.03736201288348612
v 0.15937499999999546 0.9625000000000015 -0.03736201288348578
v 0.3343749999999953 0.9856067371165151 -0.05624999999999947
v 0.15937499999999535 0.9856067371165145 -0.05624999999999913
v 0.3177083333333285 1.0518932628834885 -0.056249999999999384
v 0.3177083333333287 0.9856067371165151 -0.05624999999999944
v 0.29466911764705395 1.0518932628834883 -0.056249999999999335
v 0.29466911764705417 0.9856067371165149 -0.05624999999999939
v 0.3177083333333289 0.9625000000000021 -0.03736201288348608
v 0.29466911764705433 0.9625000000000019 -0.03736201288348604
v 0.317708333333329 0.9625000000000021 0.03736201288348714
v 0.29466911764705445 0.9625000000000019 0.03736201288348718
v 0.31770833333332893 0.9856067371165151 0.05625000000000052
v 0.2946691176470544 0.9856067371165149 0.05625000000000057
v 0.3177083333333287 1.0518932628834885 0.05625000000000059
v 0.29466911764705417 1.0518932628834883 0.05625000000000064
v 0.31770833333332854 1.0750000000000015 0.03736201288348719
v 0.294669117647054 1.0750000000000013 0.03736201288348724
v 0.31770833333332843 1.0750000000000015 -0.03736201288348597
v 0.2946691176470539 1.0750000000000013 -0.03736201288348592
vt 0.22703593749999998 0.23124999999999996
vt 0.2328125 0.22652812499999997
vt 0.21874999999999997 0.21718749999999998
vt 0.90625 0.46617656250000006
vt 0.8987875 0.46617656250000006
vt 0.8987875 0.5
vt 0.90625 0.5
vt 0.2796875 0.21097187500000003
vt 0.27391093749999995 0.20625000000000004
vt 0.265625 0.22031250000000002
vt 0.2328125 0.22652812499999997
vt 0.2328125 0.207846875
vt 0.21874999999999997 0.21718749999999998
vt 0.07184062499999999 0.20055156250000006
vt 0.053159375 0.20055156250000006
vt 0.053159375 0.234375
vt 0.07184062499999999 0.234375
vt 0.2796875 0.229653125
vt 0.2796875 0.21097187500000003
vt 0.265625 0.22031250000000002
vt 0.2328125 0.207846875
vt 0.22703593749999998 0.203125
vt 0.21874999999999997 0.21718749999999998
vt 0.5074625 0.07555156250000006
vt 0.5 0.07555156250000006
vt 0.5 0.109375
vt 0.5074625 0.109375
vt 0.27391093749999995 0.234375
vt 0.2796875 0.229653125
vt 0.265625 0.22031250000000002
vt 0.22703593749999998 0.203125
vt 0.21046406250000002 0.203125
vt 0.21874999999999997 0.21718749999999998
vt 0.02391093749999998 0.16930156250000006
vt 0.007339062500000021 0.16930156250000006
vt 0.007339062500000021 0.203125
vt 0.02391093749999998 0.203125
vt 0.25733906250000005 0.234375
vt 0.27391093749999995 0.234375
vt 0.265625 0.22031250000000002
vt 0.21046406250000002 0.203125
vt 0.2046875 0.207846875
vt 0.21874999999999997 0.21718749999999998
vt 0.90625 0.34117656250000006
vt 0.8987890625 0.34117656250000006
vt 0.8987890625 0.375
vt 0.90625 0.375
vt 0.2515625 0.229653125
vt 0.25733906250000005 0.234375
vt 0.265625 0.22031250000000002
vt 0.2046875 0.207846875
vt 0.2046875 0.22652812499999997
vt 0.21874999999999997 0.21718749999999998
vt 0.790590625 0.9193015625000001
vt 0.771909375 0.9193015625000001
vt 0.771909375 0.953125
vt 0.790590625 0.953125
vt 0.2515625 0.21097187500000003
vt 0.2515625 0.229653125
vt 0.265625 0.22031250000000002
vt 0.2046875 0.22652812499999997
vt 0.21046406250000002 0.23124999999999996
vt 0.21874999999999997 0.21718749999999998
vt 0.8980859375 0.40367656250000006
vt 0.890625 0.40367656250000006
vt 0.890625 0.4375
vt 0.8980859375 0.4375
vt 0.25733906250000005 0.20625000000000004
vt 0.2515625 0.21097187500000003
vt 0.265625 0.22031250000000002
vt 0.21046406250000002 0.23124999999999996
vt 0.22703593749999998 0.23124999999999996
vt 0.21874999999999997 0.21718749999999998
vt 0.5551609375 0.16930156250000006
vt 0.5385890625 0.16930156250000006
vt 0.5385890625 0.203125
vt 0.5551609375 0.203125
vt 0.27391093749999995 0.20625000000000004
vt 0.25733906250000005 0.20625000000000004
vt 0.265625 0.22031250000000002
vt 0.5385890625 0.16354218750000005
vt 0.5551609375 0.16354218750000005
vt 0.5551609375 0.15937500000000004
vt 0.5385890625 0.15937500000000004
vt 0.5385890625 0.16930156250000006
vt 0.5551609375 0.16930156250000006
vt 0.5551609375 0.16354218750000005
vt 0.5385890625 0.16354218750000005
vt 0.890625 0.39791718750000005
vt 0.8980859375 0.39791718750000005
vt 0.8980859375 0.39375000000000004
vt 0.890625 0.39375000000000004
vt 0.890625 0.40367656250000006
vt 0.8980859375 0.40367656250000006
vt 0.8980859375 0.39791718750000005
vt 0.890625 0.39791718750000005
vt 0.771909375 0.9135421875
vt 0.790590625 0.9135421875
vt 0.790590625 0.909375
vt 0.771909375 0.909375
vt 0.771909375 0.9193015625000001
vt 0.790590625 0.9193015625000001
vt 0.790590625 0.9135421875
vt 0.771909375 0.9135421875
vt 0.8987890625 0.33541718750000005
vt 0.90625 0.33541718750000005
vt 0.90625 0.33125000000000004
vt 0.8987890625 0.33125000000000004
vt 0.8987890625 0.34117656250000006
vt 0.90625 0.34117656250000006
vt 0.90625 0.33541718750000005
vt 0.8987890625 0.33541718750000005
vt 0.007339062500000021 0.16354218750000005
vt 0.02391093749999998 0.16354218750000005
vt 0.02391093749999998 0.15937500000000004
vt 0.007339062500000021 0.15937500000000004
vt 0.007339062500000021 0.16930156250000006
vt 0.02391093749999998 0.16930156250000006
vt 0.02391093749999998 0.16354218750000005
vt 0.007339062500000021 0.16354218750000005
vt 0.5 0.06979218750000005
vt 0.5074625 0.06979218750000005
vt 0.5074625 0.06562500000000004
vt 0.5 0.06562500000000004
vt 0.5 0.07555156250000006
vt 0.5074625 0.07555156250000006
vt 0.5074625 0.06979218750000005
vt 0.5 0.06979218750000005
vt 0.053159375 0.19479218750000005
vt 0.07184062499999999 0.19479218750000005
vt 0.07184062499999999 0.19062500000000004
vt 0.053159375 0.19062500000000004
vt 0.053159375 0.20055156250000006
vt 0.07184062499999999 0.20055156250000006
vt 0.07184062499999999 0.19479218750000005
vt 0.053159375 0.19479218750000005
vt 0.8987875 0.46041718750000005
vt 0.90625 0.46041718750000005
vt 0.90625 0.45625000000000004
vt 0.8987875 0.45625000000000004
vt 0.8987875 0.46617656250000006
vt 0.90625 0.46617656250000006
vt 0.90625 0.46041718750000005
vt 0.8987875 0.46041718750000005
vn 1 3.996802888650565e-15 -1.9332019045709208e-15
vn -4.026292430662373e-15 0.6328859753093352 -0.7742450143570521
vn -1 -3.996802888650565e-15 1.9332019045709208e-15
vn 1 3.996802888650565e-15 -1.9332019045709208e-15
vn -3.996802888650562e-15 1 1.010643099614868e-15
vn -1 -3.996802888650565e-15 1.9332019045709208e-15
vn 1 3.996802888650565e-15 -1.9332019045709208e-15
vn -1.0327485579431824e-15 0.6328859753093342 0.7742450143570528
vn -1 -3.996802888650565e-15 1.9332019045709208e-15
vn 1 3.996802888650565e-15 -1.9332019045709208e-15
vn 1.9332019045709247e-15 -1.0106430996148602e-15 1
vn -1 -3.996802888650565e-15 1.9332019045709208e-15
vn 1 3.996802888650565e-15 -1.9332019045709208e-15
vn 4.026292430662372e-15 -0.6328859753093347 0.7742450143570525
vn -1 -3.996802888650565e-15 1.9332019045709208e-15
vn 1 3.996802888650565e-15 -1.9332019045709208e-15
vn 3.996802888650562e-15 -1 -1.010643099614868e-15
vn -1 -3.996802888650565e-15 1.9332019045709208e-15
vn 1 3.996802888650565e-15 -1.9332019045709208e-15
vn 1.0327485579431777e-15 -0.6328859753093334 -0.7742450143570535
vn -1 -3.996802888650565e-15 1.9332019045709208e-15
vn 1 3.996802888650565e-15 -1.9332019045709208e-15
vn -1.933201904570924e-15 8.012824845088422e-16 -1
vn -1 -3.996802888650565e-15 1.9332019045709208e-15
vn -1.933201904570924e-15 8.012824845088421e-16 -1
vn -1.933201904570924e-15 8.012824845088421e-16 -1
vn 1.0327485579431778e-15 -0.6328859753093334 -0.7742450143570534
vn 1.0327485579431777e-15 -0.6328859753093334 -0.7742450143570535
vn 3.996802888650562e-15 -1 -1.010643099614868e-15
vn 3.996802888650562e-15 -1 -1.010643099614868e-15
vn 4.026292430662372e-15 -0.6328859753093348 0.7742450143570525
vn 4.026292430662372e-15 -0.6328859753093348 0.7742450143570525
vn 1.9332019045709247e-15 -1.0106430996148602e-15 1
vn 1.9332019045709247e-15 -1.0106430996148602e-15 1
vn -1.0327485579431824e-15 0.6328859753093342 0.7742450143570527
vn -1.0327485579431824e-15 0.6328859753093342 0.7742450143570527
vn -3.996802888650562e-15 1 1.010643099614868e-15
vn -3.996802888650562e-15 1 1.010643099614868e-15
vn -4.026292430662373e-15 0.6328859753093352 -0.774245014357052
vn -4.026292430662373e-15 0.6328859753093352 -0.774245014357052
usemtl m_3d478068-9534-e6ba-c28c-3f41e95b72f8
f 230/895/225 232/896/225 228/897/225
f 261/898/226 248/899/226 231/900/226 233/901/226
f 233/902/227 231/903/227 229/904/227
f 232/905/228 234/906/228 228/907/228
f 259/908/229 261/909/229 233/910/229 235/911/229
f 235/912/230 233/913/230 229/914/230
f 234/915/231 236/916/231 228/917/231
f 257/918/232 259/919/232 235/920/232 237/921/232
f 237/922/233 235/923/233 229/924/233
f 236/925/234 238/926/234 228/927/234
f 255/928/235 257/929/235 237/930/235 239/931/235
f 239/932/236 237/933/236 229/934/236
f 238/935/237 240/936/237 228/937/237
f 253/938/238 255/939/238 239/940/238 241/941/238
f 241/942/239 239/943/239 229/944/239
f 240/945/240 242/946/240 228/947/240
f 251/948/241 253/949/241 241/950/241 243/951/241
f 243/952/242 241/953/242 229/954/242
f 242/955/243 244/956/243 228/957/243
f 249/958/244 251/959/244 243/960/244 245/961/244
f 245/962/245 243/963/245 229/964/245
f 244/965/246 230/966/246 228/967/246
f 248/968/247 249/969/247 245/970/247 231/971/247
f 231/972/248 245/973/248 229/974/248
f 247/975/249 246/976/249 230/977/249 244/978/249
f 249/979/250 248/980/250 246/981/250 247/982/250
f 250/983/251 247/984/251 244/985/251 242/986/251
f 251/987/252 249/988/252 247/989/252 250/990/252
f 252/991/253 250/992/253 242/993/253 240/994/253
f 253/995/254 251/996/254 250/997/254 252/998/254
f 254/999/255 252/1000/255 240/1001/255 238/1002/255
f 255/1003/256 253/1004/256 252/1005/256 254/1006/256
f 256/1007/257 254/1008/257 238/1009/257 236/1010/257
f 257/1011/258 255/1012/258 254/1013/258 256/1014/258
f 258/1015/259 256/1016/259 236/1017/259 234/1018/259
f 259/1019/260 257/1020/260 256/1021/260 258/1022/260
f 260/1023/261 258/1024/261 234/1025/261 232/1026/261
f 261/1027/262 259/1028/262 258/1029/262 260/1030/262
f 246/1031/263 260/1032/263 232/1033/263 230/1034/263
f 248/1035/264 261/1036/264 260/1037/264 246/1038/264
o cylinder
v 0.16875000052683556 1.0156249982877854 0.06250000000000058
v 0.16875000052683556 1.015624998287784 -0.06249999999999971
v 0.23750000013863135 1.034046506716223 0.06250000000000035
v 0.23750000013863135 1.0340465067162217 -0.062499999999999924
v 0.21907849248660222 1.0659534923687393 0.06250000000000003
v 0.21907849248660222 1.065953492368738 -0.06250000000000025
v 0.18717150605767735 1.0843749986759894 0.062499999999999854
v 0.18717150605767735 1.084374998675988 -0.06250000000000043
v 0.15032849209839794 1.0843749978995811 0.06249999999999987
v 0.15032849209839794 1.0843749978995798 -0.06250000000000042
v 0.11842150644588156 1.0659534902475518 0.06250000000000007
v 0.11842150644588156 1.0659534902475505 -0.06250000000000021
v 0.10000000013863133 1.034046503818627 0.06250000000000042
v 0.10000000013863133 1.0340465038186257 -0.06249999999999986
v 0.10000000091503974 0.9972034898593477 0.06250000000000079
v 0.10000000091503974 0.9972034898593464 -0.06249999999999948
v 0.1184215085670689 0.9652965042068313 0.06250000000000111
v 0.1184215085670689 0.96529650420683 -0.06249999999999916
v 0.1503284949959938 0.9468749978995811 0.06250000000000129
v 0.1503284949959938 0.9468749978995797 -0.06249999999999899
v 0.18717150895527312 0.9468749986759896 0.06250000000000128
v 0.18717150895527312 0.9468749986759882 -0.062499999999999
v 0.21907849460778955 0.9652965063280187 0.06250000000000107
v 0.21907849460778955 0.9652965063280173 -0.0624999999999992
v 0.23750000091503978 0.9972034927569435 0.06250000000000072
v 0.23750000091503978 0.9972034927569422 -0.06249999999999954
vt 0.6686671875 0.31562500000000004
vt 0.6766453125 0.31102031249999995
vt 0.6640625 0.2984375
vt 0.6875 0.140625
vt 0.6875 0.109375
vt 0.671875 0.109375
vt 0.671875 0.140625
vt 0.5516453125 0.31397968750000005
vt 0.5436671875 0.30937499999999996
vt 0.5390625 0.3265625
vt 0.6766453125 0.31102031249999995
vt 0.68125 0.3030421875
vt 0.6640625 0.2984375
vt 0.484375 0.140625
vt 0.484375 0.109375
vt 0.46875 0.109375
vt 0.46875 0.140625
vt 0.55625 0.3219578125
vt 0.5516453125 0.31397968750000005
vt 0.5390625 0.3265625
vt 0.68125 0.3030421875
vt 0.68125 0.29383281250000004
vt 0.6640625 0.2984375
vt 0.796875 0.15625
vt 0.796875 0.125
vt 0.78125 0.125
vt 0.78125 0.15625
vt 0.55625 0.33116718749999996
vt 0.55625 0.3219578125
vt 0.5390625 0.3265625
vt 0.68125 0.29383281250000004
vt 0.6766453125 0.2858546875
vt 0.6640625 0.2984375
vt 0.546875 0.140625
vt 0.546875 0.109375
vt 0.53125 0.109375
vt 0.53125 0.140625
vt 0.5516453125 0.3391453125
vt 0.55625 0.33116718749999996
vt 0.5390625 0.3265625
vt 0.6766453125 0.2858546875
vt 0.6686671875 0.28125
vt 0.6640625 0.2984375
vt 0.875 0.328125
vt 0.875 0.296875
vt 0.859375 0.296875
vt 0.859375 0.328125
vt 0.5436671875 0.34375
vt 0.5516453125 0.3391453125
vt 0.5390625 0.3265625
vt 0.6686671875 0.28125
vt 0.6594578125 0.28125
vt 0.6640625 0.2984375
vt 0.359375 0.140625
vt 0.359375 0.109375
vt 0.34375 0.109375
vt 0.34375 0.140625
vt 0.5344578125 0.34375
vt 0.5436671875 0.34375
vt 0.5390625 0.3265625
vt 0.6594578125 0.28125
vt 0.6514796875 0.2858546875
vt 0.6640625 0.2984375
vt 0.71875 0.140625
vt 0.71875 0.109375
vt 0.703125 0.109375
vt 0.703125 0.140625
vt 0.5264796875 0.3391453125
vt 0.5344578125 0.34375
vt 0.5390625 0.3265625
vt 0.6514796875 0.2858546875
vt 0.646875 0.29383281250000004
vt 0.6640625 0.2984375
vt 0.390625 0.140625
vt 0.390625 0.109375
vt 0.375 0.109375
vt 0.375 0.140625
vt 0.521875 0.33116718749999996
vt 0.5264796875 0.3391453125
vt 0.5390625 0.3265625
vt 0.646875 0.29383281250000004
vt 0.646875 0.3030421875
vt 0.6640625 0.2984375
vt 0.15625 0.140625
vt 0.15625 0.109375
vt 0.140625 0.109375
vt 0.140625 0.140625
vt 0.521875 0.3219578125
vt 0.521875 0.33116718749999996
vt 0.5390625 0.3265625
vt 0.646875 0.3030421875
vt 0.6514796875 0.31102031249999995
vt 0.6640625 0.2984375
vt 0.453125 0.140625
vt 0.453125 0.109375
vt 0.4375 0.109375
vt 0.4375 0.140625
vt 0.5264796875 0.31397968750000005
vt 0.521875 0.3219578125
vt 0.5390625 0.3265625
vt 0.6514796875 0.31102031249999995
vt 0.6594578125 0.31562500000000004
vt 0.6640625 0.2984375
vt 0.875 0.421875
vt 0.875 0.390625
vt 0.859375 0.390625
vt 0.859375 0.421875
vt 0.5344578125 0.30937499999999996
vt 0.5264796875 0.31397968750000005
vt 0.5390625 0.3265625
vt 0.6594578125 0.31562500000000004
vt 0.6686671875 0.31562500000000004
vt 0.6640625 0.2984375
vt 0.875 0.734375
vt 0.875 0.703125
vt 0.859375 0.703125
vt 0.859375 0.734375
vt 0.5436671875 0.30937499999999996
vt 0.5344578125 0.30937499999999996
vt 0.5390625 0.3265625
vn 4.4408899109558276e-16 1.038058528960369e-14 1
vn 0.8660253932477264 0.5000000182501207 -5.329070712713109e-15
vn -4.4408899109558276e-16 -1.038058528960369e-14 -1
vn 4.4408899109558276e-16 1.038058528960369e-14 1
vn 0.4999999817498789 0.8660254143211509 -9.230221006942869e-15
vn -4.4408899109558276e-16 -1.038058528960369e-14 -1
vn 4.4408899109558276e-16 1.038058528960369e-14 1
vn -2.1073424449902227e-8 0.9999999999999998 -1.0658141036401495e-14
vn -4.4408899109558276e-16 -1.038058528960369e-14 -1
vn 4.4408899109558276e-16 1.038058528960369e-14 1
vn -0.5000000182501207 0.8660253932477264 -9.230220782339336e-15
vn -4.4408899109558276e-16 -1.038058528960369e-14 -1
vn 4.4408899109558276e-16 1.038058528960369e-14 1
vn -0.8660254143211507 0.49999998174987914 -5.329070323688387e-15
vn -4.4408899109558276e-16 -1.038058528960369e-14 -1
vn 4.4408899109558276e-16 1.038058528960369e-14 1
vn -0.9999999999999998 -2.1073423363488276e-8 2.246035183278565e-22
vn -4.4408899109558276e-16 -1.038058528960369e-14 -1
vn 4.4408899109558276e-16 1.038058528960369e-14 1
vn -0.8660253932477265 -0.5000000182501205 5.3290707127131075e-15
vn -4.4408899109558276e-16 -1.038058528960369e-14 -1
vn 4.4408899109558276e-16 1.038058528960369e-14 1
vn -0.4999999817498787 -0.866025414321151 9.23022100694287e-15
vn -4.4408899109558276e-16 -1.038058528960369e-14 -1
vn 4.4408899109558276e-16 1.038058528960369e-14 1
vn 2.1073424449902227e-8 -0.9999999999999998 1.0658141036401495e-14
vn -4.4408899109558276e-16 -1.038058528960369e-14 -1
vn 4.4408899109558276e-16 1.038058528960369e-14 1
vn 0.5000000182501203 -0.8660253932477265 9.230220782339339e-15
vn -4.4408899109558276e-16 -1.038058528960369e-14 -1
vn 4.4408899109558276e-16 1.038058528960369e-14 1
vn 0.8660254143211507 -0.499999981749879 5.329070323688386e-15
vn -4.4408899109558276e-16 -1.038058528960369e-14 -1
vn 4.4408899109558276e-16 1.038058528960369e-14 1
vn 0.9999999999999998 2.107342411683532e-8 -2.2460352635713555e-22
vn -4.4408899109558276e-16 -1.038058528960369e-14 -1
usemtl m_3d478068-9534-e6ba-c28c-3f41e95b72f8
f 264/1039/265 266/1040/265 262/1041/265
f 267/1042/266 266/1043/266 264/1044/266 265/1045/266
f 267/1046/267 265/1047/267 263/1048/267
f 266/1049/268 268/1050/268 262/1051/268
f 269/1052/269 268/1053/269 266/1054/269 267/1055/269
f 269/1056/270 267/1057/270 263/1058/270
f 268/1059/271 270/1060/271 262/1061/271
f 271/1062/272 270/1063/272 268/1064/272 269/1065/272
f 271/1066/273 269/1067/273 263/1068/273
f 270/1069/274 272/1070/274 262/1071/274
f 273/1072/275 272/1073/275 270/1074/275 271/1075/275
f 273/1076/276 271/1077/276 263/1078/276
f 272/1079/277 274/1080/277 262/1081/277
f 275/1082/278 274/1083/278 272/1084/278 273/1085/278
f 275/1086/279 273/1087/279 263/1088/279
f 274/1089/280 276/1090/280 262/1091/280
f 277/1092/281 276/1093/281 274/1094/281 275/1095/281
f 277/1096/282 275/1097/282 263/1098/282
f 276/1099/283 278/1100/283 262/1101/283
f 279/1102/284 278/1103/284 276/1104/284 277/1105/284
f 279/1106/285 277/1107/285 263/1108/285
f 278/1109/286 280/1110/286 262/1111/286
f 281/1112/287 280/1113/287 278/1114/287 279/1115/287
f 281/1116/288 279/1117/288 263/1118/288
f 280/1119/289 282/1120/289 262/1121/289
f 283/1122/290 282/1123/290 280/1124/290 281/1125/290
f 283/1126/291 281/1127/291 263/1128/291
f 282/1129/292 284/1130/292 262/1131/292
f 285/1132/293 284/1133/293 282/1134/293 283/1135/293
f 285/1136/294 283/1137/294 263/1138/294
f 284/1139/295 286/1140/295 262/1141/295
f 287/1142/296 286/1143/296 284/1144/296 285/1145/296
f 287/1146/297 285/1147/297 263/1148/297
f 286/1149/298 264/1150/298 262/1151/298
f 265/1152/299 264/1153/299 286/1154/299 287/1155/299
f 265/1156/300 287/1157/300 263/1158/300